G04*
G04 #@! TF.GenerationSoftware,Altium Limited,Altium Designer,23.8.1 (32)*
G04*
G04 Layer_Physical_Order=2*
G04 Layer_Color=16711680*
%FSLAX44Y44*%
%MOMM*%
G71*
G04*
G04 #@! TF.SameCoordinates,6494198D-2EC0-4251-8973-295BD9C13288*
G04*
G04*
G04 #@! TF.FilePolarity,Positive*
G04*
G01*
G75*
%ADD19C,0.2040*%
%ADD20C,1.5000*%
%ADD21R,1.5000X1.5000*%
%ADD22C,3.0000*%
%ADD23R,1.8000X2.2000*%
%ADD24R,0.6000X1.3000*%
D19*
X257300Y134300D02*
Y202700D01*
X245720Y214280D02*
X257300Y202700D01*
X355000Y54541D02*
X355000Y54541D01*
Y105000D01*
X384000Y134000D01*
X345000Y108000D02*
X371000Y134000D01*
Y204000D01*
X345000Y54541D02*
Y108000D01*
X371000Y215681D02*
X384000Y202681D01*
Y134000D02*
Y202681D01*
X371000Y224240D02*
X371600Y224840D01*
X371000Y215681D02*
Y224240D01*
X346200Y214800D02*
Y224840D01*
Y214800D02*
X358900Y202100D01*
X320800Y224840D02*
X320894Y224746D01*
Y214280D02*
Y224746D01*
Y214280D02*
X333500Y201674D01*
X295400Y214600D02*
Y224840D01*
Y214600D02*
X308100Y201900D01*
X270000Y224840D02*
X272349Y222491D01*
Y213651D02*
Y222491D01*
Y213651D02*
X282700Y203300D01*
X269000Y133000D02*
Y199440D01*
X244600Y224840D02*
X245720Y223720D01*
Y214280D02*
Y223720D01*
X219200Y224840D02*
X221000Y223040D01*
Y214000D02*
Y223040D01*
X231900Y135100D02*
Y203100D01*
X221000Y214000D02*
X231900Y203100D01*
X220000Y134521D02*
Y199440D01*
X193800Y224840D02*
X195720Y222920D01*
Y214280D02*
Y222920D01*
X206500Y129500D02*
Y203500D01*
X195720Y214280D02*
X206500Y203500D01*
X193800Y199440D02*
X193800Y199440D01*
Y130200D02*
Y199440D01*
X168400Y224840D02*
X170880Y222360D01*
Y216120D02*
Y222360D01*
Y216120D02*
X172000Y215000D01*
X172168D01*
X181100Y206068D01*
X185000Y54541D02*
X185000Y54541D01*
Y104000D01*
X168400Y120600D02*
Y199440D01*
Y120600D02*
X185000Y104000D01*
X295000Y131000D02*
Y203700D01*
X335000Y54541D02*
Y110000D01*
X358900Y133900D01*
Y202100D01*
X348000Y135000D02*
Y201497D01*
X320800Y130800D02*
Y202200D01*
X181100Y126210D02*
Y206068D01*
Y126210D02*
X195155Y112155D01*
X195000Y112000D02*
X195155Y112155D01*
X195000Y54541D02*
Y112000D01*
X333500Y131500D02*
Y201674D01*
X282700Y130837D02*
Y203300D01*
X234380Y55161D02*
Y132620D01*
X231900Y135100D02*
X234380Y132620D01*
Y55161D02*
X235000Y54541D01*
X305000Y115000D02*
X320800Y130800D01*
X205000Y54541D02*
Y119000D01*
X193800Y130200D02*
X205000Y119000D01*
X245000Y54541D02*
Y201274D01*
X325000Y54541D02*
X326000Y55541D01*
Y113000D01*
X348000Y135000D01*
X315000Y54541D02*
Y113000D01*
X315000Y54541D02*
X315000Y54541D01*
Y113000D02*
X333500Y131500D01*
X305000Y54541D02*
Y115000D01*
X295000Y120000D02*
X308100Y133100D01*
X295000Y54541D02*
Y120000D01*
X308100Y133100D02*
Y201900D01*
X285000Y121000D02*
X295000Y131000D01*
X285000Y54541D02*
Y121000D01*
X275000Y123137D02*
X282700Y130837D01*
X275000Y54541D02*
Y123137D01*
X255000Y132000D02*
X257300Y134300D01*
X255000Y54541D02*
Y132000D01*
X264000Y55541D02*
Y128000D01*
Y55541D02*
X265000Y54541D01*
X264000Y128000D02*
X269000Y133000D01*
X215000Y54541D02*
Y121000D01*
X206500Y129500D02*
X215000Y121000D01*
X225000Y54541D02*
Y129521D01*
X220000Y134521D02*
X225000Y129521D01*
D20*
X193800Y199440D02*
D03*
X219200D02*
D03*
X244600D02*
D03*
X270000D02*
D03*
X295400D02*
D03*
X168400Y224840D02*
D03*
X193800D02*
D03*
X219200D02*
D03*
X244600D02*
D03*
X270000D02*
D03*
X295400D02*
D03*
X320800Y199440D02*
D03*
Y224840D02*
D03*
X371600Y199440D02*
D03*
Y224840D02*
D03*
X346200Y199440D02*
D03*
Y224840D02*
D03*
D21*
X168400Y199440D02*
D03*
D22*
X520000Y30000D02*
D03*
Y220000D02*
D03*
X30000D02*
D03*
Y30000D02*
D03*
D23*
X161000Y22041D02*
D03*
X379000D02*
D03*
D24*
X325000Y54541D02*
D03*
X315000D02*
D03*
X335000D02*
D03*
X345000D02*
D03*
X355000D02*
D03*
X295000D02*
D03*
X285000D02*
D03*
X305000D02*
D03*
X275000D02*
D03*
X265000D02*
D03*
X255000D02*
D03*
X245000D02*
D03*
X235000D02*
D03*
X225000D02*
D03*
X215000D02*
D03*
X205000D02*
D03*
X195000D02*
D03*
X185000D02*
D03*
M02*
