G04*
G04 #@! TF.GenerationSoftware,Altium Limited,Altium Designer,23.8.1 (32)*
G04*
G04 Layer_Color=8388736*
%FSLAX44Y44*%
%MOMM*%
G71*
G04*
G04 #@! TF.SameCoordinates,6494198D-2EC0-4251-8973-295BD9C13288*
G04*
G04*
G04 #@! TF.FilePolarity,Negative*
G04*
G01*
G75*
%ADD14R,0.5032X1.0032*%
%ADD15R,0.6032X1.0032*%
%ADD16C,1.7032*%
%ADD17R,1.7032X1.7032*%
%ADD18C,3.2032*%
D14*
X312500Y35220D02*
D03*
X307500D02*
D03*
X302500D02*
D03*
X297500D02*
D03*
X292500D02*
D03*
X287500D02*
D03*
X282500D02*
D03*
X277500D02*
D03*
X272500D02*
D03*
X267500D02*
D03*
X262500D02*
D03*
X257500D02*
D03*
X252500D02*
D03*
X247500D02*
D03*
X242500D02*
D03*
X237500D02*
D03*
X232500D02*
D03*
X227500D02*
D03*
D15*
X322000Y10220D02*
D03*
X218000D02*
D03*
D16*
X193800Y199440D02*
D03*
X219200D02*
D03*
X244600D02*
D03*
X270000D02*
D03*
X295400D02*
D03*
X168400Y224840D02*
D03*
X193800D02*
D03*
X219200D02*
D03*
X244600D02*
D03*
X270000D02*
D03*
X295400D02*
D03*
X320800Y199440D02*
D03*
Y224840D02*
D03*
X371600Y199440D02*
D03*
Y224840D02*
D03*
X346200Y199440D02*
D03*
Y224840D02*
D03*
D17*
X168400Y199440D02*
D03*
D18*
X520000Y30000D02*
D03*
Y220000D02*
D03*
X30000D02*
D03*
Y30000D02*
D03*
M02*
