G04*
G04 #@! TF.GenerationSoftware,Altium Limited,Altium Designer,23.9.2 (47)*
G04*
G04 Layer_Physical_Order=2*
G04 Layer_Color=16711680*
%FSLAX44Y44*%
%MOMM*%
G71*
G04*
G04 #@! TF.SameCoordinates,804AEB52-05E6-4499-94A2-79A5550F06DA*
G04*
G04*
G04 #@! TF.FilePolarity,Positive*
G04*
G01*
G75*
%ADD16R,1.0000X3.7000*%
%ADD35C,0.3810*%
%ADD37C,1.5000*%
%ADD38C,1.6000*%
%ADD39R,1.6000X1.6000*%
%ADD40R,1.6000X1.6000*%
%ADD41C,0.5080*%
%ADD42C,0.6100*%
G36*
X320449Y384372D02*
X322289Y383610D01*
X323945Y382503D01*
X325353Y381095D01*
X326460Y379439D01*
X327222Y377599D01*
X327610Y375646D01*
Y374650D01*
Y43361D01*
Y40688D01*
X326913Y35389D01*
X325530Y30227D01*
X323484Y25289D01*
X320812Y20661D01*
X317558Y16421D01*
X313779Y12642D01*
X309539Y9388D01*
X304911Y6716D01*
X299973Y4670D01*
X294811Y3287D01*
X289512Y2590D01*
X40688D01*
X35389Y3287D01*
X30227Y4670D01*
X25289Y6716D01*
X20661Y9388D01*
X16421Y12642D01*
X12642Y16421D01*
X9388Y20661D01*
X6716Y25289D01*
X4670Y30227D01*
X3287Y35389D01*
X2590Y40688D01*
Y43361D01*
Y374650D01*
Y375646D01*
X2978Y377599D01*
X3740Y379439D01*
X4847Y381095D01*
X6255Y382503D01*
X7911Y383610D01*
X9751Y384372D01*
X11704Y384760D01*
X41375D01*
X43006Y380356D01*
X43006Y379680D01*
Y360586D01*
X58086D01*
Y379680D01*
X58086Y380356D01*
X59717Y384760D01*
X66775D01*
X68406Y380356D01*
X68406Y379680D01*
Y360586D01*
X83486D01*
Y379680D01*
X83486Y380356D01*
X85117Y384760D01*
X92175D01*
X93806Y380356D01*
X93806Y379680D01*
Y360586D01*
X108886D01*
Y379680D01*
X108886Y380356D01*
X110517Y384760D01*
X117575D01*
X119206Y380356D01*
X119206Y379680D01*
Y360586D01*
X134286D01*
Y379680D01*
X134286Y380356D01*
X135917Y384760D01*
X142975D01*
X144606Y380356D01*
X144606Y379680D01*
Y360586D01*
X159686D01*
Y379680D01*
X159686Y380356D01*
X161317Y384760D01*
X168375D01*
X170006Y380356D01*
X170006Y379680D01*
Y360586D01*
X185086D01*
Y379680D01*
X185086Y380356D01*
X186717Y384760D01*
X193775D01*
X195406Y380356D01*
X195406Y379680D01*
Y360586D01*
X210486D01*
Y379680D01*
X210486Y380356D01*
X212117Y384760D01*
X219175D01*
X220806Y380356D01*
X220806Y379680D01*
Y360586D01*
X235886D01*
Y379680D01*
X235886Y380356D01*
X237517Y384760D01*
X244575D01*
X246206Y380356D01*
X246206Y379680D01*
Y360586D01*
X261286D01*
Y379680D01*
X261286Y380356D01*
X262917Y384760D01*
X271682D01*
X272106Y379856D01*
X272106Y379680D01*
Y338776D01*
X286186D01*
Y379680D01*
X286186Y379856D01*
X286610Y384760D01*
X318496D01*
X320449Y384372D01*
D02*
G37*
%LPC*%
G36*
X261286Y358046D02*
X255016D01*
Y338276D01*
X261286D01*
Y358046D01*
D02*
G37*
G36*
X252476D02*
X246206D01*
Y338276D01*
X252476D01*
Y358046D01*
D02*
G37*
G36*
X235886D02*
X229616D01*
Y338276D01*
X235886D01*
Y358046D01*
D02*
G37*
G36*
X227076D02*
X220806D01*
Y338276D01*
X227076D01*
Y358046D01*
D02*
G37*
G36*
X210486D02*
X204216D01*
Y338276D01*
X210486D01*
Y358046D01*
D02*
G37*
G36*
X201676D02*
X195406D01*
Y338276D01*
X201676D01*
Y358046D01*
D02*
G37*
G36*
X185086D02*
X178816D01*
Y338276D01*
X185086D01*
Y358046D01*
D02*
G37*
G36*
X176276D02*
X170006D01*
Y338276D01*
X176276D01*
Y358046D01*
D02*
G37*
G36*
X159686D02*
X153416D01*
Y338276D01*
X159686D01*
Y358046D01*
D02*
G37*
G36*
X150876D02*
X144606D01*
Y338276D01*
X150876D01*
Y358046D01*
D02*
G37*
G36*
X134286D02*
X128016D01*
Y338276D01*
X134286D01*
Y358046D01*
D02*
G37*
G36*
X125476D02*
X119206D01*
Y338276D01*
X125476D01*
Y358046D01*
D02*
G37*
G36*
X108886D02*
X102616D01*
Y338276D01*
X108886D01*
Y358046D01*
D02*
G37*
G36*
X100076D02*
X93806D01*
Y338276D01*
X100076D01*
Y358046D01*
D02*
G37*
G36*
X83486D02*
X77216D01*
Y338276D01*
X83486D01*
Y358046D01*
D02*
G37*
G36*
X74676D02*
X68406D01*
Y338276D01*
X74676D01*
Y358046D01*
D02*
G37*
G36*
X58086D02*
X51816D01*
Y338276D01*
X58086D01*
Y358046D01*
D02*
G37*
G36*
X49276D02*
X43006D01*
Y338276D01*
X49276D01*
Y358046D01*
D02*
G37*
G36*
X90369Y285164D02*
X70289D01*
Y265084D01*
X90369D01*
Y271102D01*
X247185D01*
X247850Y270437D01*
X249533Y269740D01*
X251355D01*
X253038Y270437D01*
X254327Y271726D01*
X255024Y273409D01*
Y275231D01*
X254327Y276914D01*
X253038Y278203D01*
X251355Y278900D01*
X250535D01*
X249296Y279146D01*
X90369D01*
Y285164D01*
D02*
G37*
G36*
X56251D02*
X53608D01*
X51054Y284480D01*
X48765Y283158D01*
X46895Y281289D01*
X45574Y279000D01*
X44889Y276446D01*
Y273802D01*
X45574Y271249D01*
X46895Y268960D01*
X48765Y267090D01*
X51054Y265768D01*
X53608Y265084D01*
X56251D01*
X58805Y265768D01*
X61094Y267090D01*
X62963Y268960D01*
X64285Y271249D01*
X64969Y273802D01*
Y276446D01*
X64285Y279000D01*
X62963Y281289D01*
X61094Y283158D01*
X58805Y284480D01*
X56251Y285164D01*
D02*
G37*
G36*
X30851D02*
X28207D01*
X25654Y284480D01*
X23365Y283158D01*
X21495Y281289D01*
X20173Y279000D01*
X19489Y276446D01*
Y273802D01*
X20173Y271249D01*
X21495Y268960D01*
X23365Y267090D01*
X25654Y265768D01*
X28207Y265084D01*
X30851D01*
X33405Y265768D01*
X35694Y267090D01*
X37563Y268960D01*
X38885Y271249D01*
X39569Y273802D01*
Y276446D01*
X38885Y279000D01*
X37563Y281289D01*
X35694Y283158D01*
X33405Y284480D01*
X30851Y285164D01*
D02*
G37*
G36*
X311538Y280296D02*
X291458D01*
Y265904D01*
X288402Y262848D01*
X149069D01*
X147723Y263406D01*
X145901D01*
X144218Y262709D01*
X142929Y261420D01*
X142232Y259737D01*
Y257915D01*
X142790Y256569D01*
Y44704D01*
X143096Y43165D01*
X143968Y41860D01*
X161538Y24290D01*
X160267Y18577D01*
X157730Y17536D01*
X157121Y17788D01*
X155299D01*
X153616Y17091D01*
X152327Y15802D01*
X151630Y14119D01*
Y12297D01*
X152327Y10614D01*
X153616Y9325D01*
X155299Y8628D01*
X157121D01*
X158468Y9186D01*
X198374D01*
X199913Y9492D01*
X201218Y10364D01*
X216204Y25350D01*
X217076Y26655D01*
X217382Y28194D01*
Y208563D01*
X217940Y209909D01*
Y211731D01*
X217243Y213414D01*
X215954Y214703D01*
X214271Y215400D01*
X212449D01*
X210766Y214703D01*
X209477Y213414D01*
X208780Y211731D01*
Y209909D01*
X209338Y208563D01*
Y196979D01*
X208370Y195993D01*
X204258Y194003D01*
X204111Y194064D01*
X202289D01*
X200606Y193367D01*
X199602Y192363D01*
X195080Y194669D01*
Y196491D01*
X194383Y198174D01*
X193094Y199463D01*
X191411Y200160D01*
X189589D01*
X187906Y199463D01*
X186617Y198174D01*
X185920Y196491D01*
Y194669D01*
X186478Y193323D01*
Y74564D01*
X181378Y69465D01*
X180032Y68907D01*
X178743Y67618D01*
X178046Y65935D01*
Y64113D01*
X178743Y62430D01*
X180032Y61141D01*
X181715Y60444D01*
X183537D01*
X185220Y61141D01*
X186509Y62430D01*
X186871Y63304D01*
X188376Y63757D01*
X192205Y63700D01*
X193494Y62411D01*
X195177Y61714D01*
X196999D01*
X198682Y62411D01*
X199971Y63700D01*
X200529Y65046D01*
X204258Y68775D01*
X209338Y66671D01*
Y29860D01*
X196708Y17230D01*
X177409D01*
X176209Y18751D01*
X174682Y22310D01*
X175016Y23117D01*
Y25143D01*
X174241Y27013D01*
X172809Y28445D01*
X170938Y29220D01*
X168913D01*
X168256Y28948D01*
X150834Y46370D01*
Y254804D01*
X289323D01*
X292217Y250616D01*
X290242Y246835D01*
X242717D01*
X241957Y247150D01*
X240135D01*
X238452Y246453D01*
X237163Y245164D01*
X236466Y243481D01*
Y241659D01*
X237163Y239976D01*
X238452Y238687D01*
X240135Y237990D01*
X241957D01*
X243640Y238687D01*
X243744Y238791D01*
X293407D01*
X293464Y238691D01*
X295333Y236822D01*
X297623Y235500D01*
X300176Y234816D01*
X302820D01*
X305373Y235500D01*
X307663Y236822D01*
X309532Y238691D01*
X310854Y240981D01*
X311538Y243534D01*
Y246178D01*
X310854Y248731D01*
X309532Y251021D01*
X307663Y252890D01*
X305373Y254212D01*
X303380Y254746D01*
X302559Y255384D01*
X300134Y259926D01*
X300491Y260216D01*
X311538D01*
Y280296D01*
D02*
G37*
G36*
X302820Y229496D02*
X300176D01*
X297623Y228812D01*
X295333Y227490D01*
X293464Y225621D01*
X292142Y223331D01*
X291458Y220778D01*
Y218134D01*
X292142Y215581D01*
X293464Y213291D01*
X295333Y211422D01*
X297476Y210185D01*
Y203342D01*
X267368Y173235D01*
X230858D01*
X229511Y173792D01*
X227689D01*
X226006Y173095D01*
X224717Y171807D01*
X224020Y170123D01*
Y168301D01*
X224717Y166618D01*
X226006Y165330D01*
X227689Y164632D01*
X229511D01*
X230858Y165190D01*
X269034D01*
X270574Y165496D01*
X271879Y166368D01*
X304342Y198832D01*
X305214Y200137D01*
X305520Y201676D01*
Y210185D01*
X307663Y211422D01*
X309532Y213291D01*
X310854Y215581D01*
X311538Y218134D01*
Y220778D01*
X310854Y223331D01*
X309532Y225621D01*
X307663Y227490D01*
X305373Y228812D01*
X302820Y229496D01*
D02*
G37*
G36*
X29196Y152916D02*
X26684D01*
X24258Y152266D01*
X22082Y151010D01*
X20306Y149234D01*
X19050Y147058D01*
X18400Y144632D01*
Y142120D01*
X19050Y139694D01*
X20306Y137518D01*
X22082Y135742D01*
X24258Y134486D01*
X26684Y133836D01*
X29196D01*
X31622Y134486D01*
X33798Y135742D01*
X35574Y137518D01*
X36830Y139694D01*
X37480Y142120D01*
Y144632D01*
X36830Y147058D01*
X35574Y149234D01*
X33798Y151010D01*
X31622Y152266D01*
X29196Y152916D01*
D02*
G37*
G36*
X129181Y185936D02*
X127359D01*
X125676Y185239D01*
X124387Y183950D01*
X123829Y182604D01*
X121616Y180390D01*
X120744Y179085D01*
X120438Y177546D01*
Y55343D01*
X119880Y53997D01*
Y52175D01*
X120577Y50492D01*
X121866Y49203D01*
X123549Y48506D01*
X125371D01*
X127054Y49203D01*
X128343Y50492D01*
X129040Y52175D01*
Y53997D01*
X128482Y55343D01*
Y175880D01*
X129518Y176915D01*
X130864Y177473D01*
X132153Y178762D01*
X132850Y180445D01*
Y182267D01*
X132153Y183950D01*
X130864Y185239D01*
X129181Y185936D01*
D02*
G37*
G36*
X30024Y35186D02*
X29972D01*
Y26416D01*
X38742D01*
Y26468D01*
X38058Y29021D01*
X36736Y31311D01*
X34867Y33180D01*
X32577Y34502D01*
X30024Y35186D01*
D02*
G37*
G36*
X27432D02*
X27380D01*
X24827Y34502D01*
X22537Y33180D01*
X20668Y31311D01*
X19346Y29021D01*
X18662Y26468D01*
Y26416D01*
X27432D01*
Y35186D01*
D02*
G37*
G36*
X38742Y23876D02*
X29972D01*
Y15106D01*
X30024D01*
X32577Y15790D01*
X34867Y17112D01*
X36736Y18981D01*
X38058Y21271D01*
X38742Y23824D01*
Y23876D01*
D02*
G37*
G36*
X27432D02*
X18662D01*
Y23824D01*
X19346Y21271D01*
X20668Y18981D01*
X22537Y17112D01*
X24827Y15790D01*
X27380Y15106D01*
X27432D01*
Y23876D01*
D02*
G37*
%LPD*%
D16*
X50546Y359316D02*
D03*
X75946D02*
D03*
X101346D02*
D03*
X126746D02*
D03*
X152146D02*
D03*
X177546D02*
D03*
X202946D02*
D03*
X228346D02*
D03*
X253746D02*
D03*
X279146D02*
D03*
D35*
X182626Y65024D02*
X190500Y72898D01*
Y195580D01*
X198374Y13208D02*
X213360Y28194D01*
Y210493D01*
X146812Y44704D02*
X167386Y24130D01*
X146812Y44704D02*
Y258826D01*
X167386Y24130D02*
X169926D01*
X156210Y13208D02*
X198374D01*
X290068Y258826D02*
X301498Y270256D01*
X146812Y258826D02*
X290068D01*
X249296Y275124D02*
X250100Y274320D01*
X80329Y275124D02*
X249296D01*
X250100Y274320D02*
X250444D01*
X241289Y242813D02*
X299455D01*
X241046Y242570D02*
X241289Y242813D01*
X299455D02*
X301498Y244856D01*
X196088Y66294D02*
X203200Y73406D01*
Y189484D01*
X301498Y201676D02*
Y219456D01*
X269034Y169212D02*
X301498Y201676D01*
X228600Y169212D02*
X269034D01*
X124460Y177546D02*
X128270Y181356D01*
X124460Y53086D02*
Y177546D01*
D37*
X28702Y25146D02*
D03*
X27940Y143376D02*
D03*
D38*
X29529Y275124D02*
D03*
X54929D02*
D03*
X301498Y244856D02*
D03*
Y219456D02*
D03*
D39*
X80329Y275124D02*
D03*
D40*
X301498Y270256D02*
D03*
D41*
X213360Y210820D02*
D03*
X314800Y352000D02*
D03*
X302100Y174200D02*
D03*
X314800Y148800D02*
D03*
X289400Y352000D02*
D03*
X276700Y326600D02*
D03*
X289400Y301200D02*
D03*
X276700Y275800D02*
D03*
X289400Y250400D02*
D03*
X276700Y225000D02*
D03*
X289400Y148800D02*
D03*
X264000Y352000D02*
D03*
Y301200D02*
D03*
Y250400D02*
D03*
Y148800D02*
D03*
X238600Y352000D02*
D03*
Y301200D02*
D03*
X225900Y225000D02*
D03*
X213200Y352000D02*
D03*
Y301200D02*
D03*
Y250400D02*
D03*
X187800Y352000D02*
D03*
X175100Y174200D02*
D03*
X162400Y352000D02*
D03*
Y250400D02*
D03*
Y199600D02*
D03*
Y148800D02*
D03*
X149700Y21800D02*
D03*
X137000Y352000D02*
D03*
Y250400D02*
D03*
Y148800D02*
D03*
X124300Y21800D02*
D03*
X111600Y352000D02*
D03*
Y301200D02*
D03*
Y250400D02*
D03*
Y199600D02*
D03*
X98900Y123400D02*
D03*
X111600Y98000D02*
D03*
Y47200D02*
D03*
X98900Y21800D02*
D03*
X86200Y352000D02*
D03*
Y250400D02*
D03*
X73500Y225000D02*
D03*
X86200Y199600D02*
D03*
X73500Y174200D02*
D03*
X86200Y148800D02*
D03*
X73500Y123400D02*
D03*
X86200Y98000D02*
D03*
X73500Y72600D02*
D03*
X86200Y47200D02*
D03*
X73500Y21800D02*
D03*
X60800Y352000D02*
D03*
Y301200D02*
D03*
X48100Y72600D02*
D03*
X60800Y47200D02*
D03*
X48100Y21800D02*
D03*
X35400Y352000D02*
D03*
X22700Y326600D02*
D03*
X35400Y301200D02*
D03*
X22700Y123400D02*
D03*
X35400Y98000D02*
D03*
X22700Y72600D02*
D03*
X35400Y47200D02*
D03*
X156210Y13208D02*
D03*
X146812Y258826D02*
D03*
X241046Y242570D02*
D03*
X250444Y274320D02*
D03*
X203200Y189484D02*
D03*
X190500Y195580D02*
D03*
X228600Y169212D02*
D03*
X196088Y66294D02*
D03*
X182626Y65024D02*
D03*
X128270Y181356D02*
D03*
X124460Y53086D02*
D03*
D42*
X169926Y24130D02*
D03*
M02*
