G04*
G04 #@! TF.GenerationSoftware,Altium Limited,Altium Designer,23.8.1 (32)*
G04*
G04 Layer_Physical_Order=1*
G04 Layer_Color=255*
%FSLAX44Y44*%
%MOMM*%
G71*
G04*
G04 #@! TF.SameCoordinates,F21FC784-CF66-45F2-9398-5FBE0A3DAB67*
G04*
G04*
G04 #@! TF.FilePolarity,Positive*
G04*
G01*
G75*
%ADD12R,0.3000X0.8000*%
%ADD13R,0.4000X0.8000*%
%ADD19C,0.2040*%
%ADD20C,1.6000*%
%ADD21R,1.6000X1.6000*%
%ADD22C,3.0000*%
G36*
X179577Y188592D02*
Y188156D01*
Y187894D01*
Y187458D01*
Y186934D01*
Y186323D01*
Y185624D01*
Y184751D01*
Y183791D01*
Y182656D01*
Y181434D01*
Y180037D01*
Y178466D01*
Y176720D01*
Y174712D01*
Y172617D01*
Y170347D01*
Y167815D01*
Y165109D01*
Y162141D01*
Y158911D01*
Y155506D01*
Y151926D01*
Y147998D01*
Y143808D01*
Y139355D01*
Y134641D01*
Y129665D01*
Y124427D01*
X179577Y118840D01*
Y49000D01*
X117288Y83920D01*
X179577Y118840D01*
X117288Y153760D01*
X179577Y188680D01*
Y188592D01*
D02*
G37*
G36*
X117288Y153760D02*
X55000Y118840D01*
X117288Y83920D01*
X55000Y49000D01*
Y118840D01*
X55000Y124427D01*
Y129665D01*
Y134641D01*
Y139355D01*
Y143808D01*
Y147998D01*
Y151926D01*
Y155506D01*
Y158911D01*
Y162141D01*
Y165109D01*
Y167815D01*
Y170347D01*
Y172617D01*
Y174712D01*
Y176720D01*
Y178466D01*
Y180037D01*
Y181434D01*
Y182656D01*
Y183791D01*
Y184751D01*
Y185624D01*
Y186323D01*
Y186934D01*
Y187458D01*
Y187894D01*
Y188156D01*
Y188592D01*
Y188680D01*
X117288Y153760D01*
D02*
G37*
D12*
X292500Y35222D02*
D03*
X287500D02*
D03*
X282500D02*
D03*
X277500D02*
D03*
X272500D02*
D03*
X267500D02*
D03*
X262500D02*
D03*
X257500D02*
D03*
X252500D02*
D03*
X247500D02*
D03*
D13*
X238000Y10222D02*
D03*
X302000D02*
D03*
D19*
X292500Y35222D02*
Y137551D01*
X384300Y229351D01*
X247500Y35222D02*
Y137551D01*
X155700Y229351D02*
X247500Y137551D01*
X252500Y35222D02*
Y157951D01*
X181100Y229351D02*
X252500Y157951D01*
X257500Y35222D02*
Y178351D01*
X206500Y229351D02*
X257500Y178351D01*
X262500Y35222D02*
Y198751D01*
X231900Y229351D02*
X262500Y198751D01*
X267500Y35222D02*
Y219151D01*
X257300Y229351D02*
X267500Y219151D01*
X272500Y35222D02*
Y219151D01*
X282700Y229351D01*
X277500Y35222D02*
Y198751D01*
X308100Y229351D01*
X282500Y35222D02*
Y178351D01*
X333500Y229351D01*
X287500Y35222D02*
Y157951D01*
X358900Y229351D01*
D20*
X384300D02*
D03*
X358900D02*
D03*
X308100D02*
D03*
X181100D02*
D03*
X206500D02*
D03*
X282700D02*
D03*
X231900D02*
D03*
X257300D02*
D03*
X333500D02*
D03*
D21*
X155700D02*
D03*
D22*
X520000Y30000D02*
D03*
Y220000D02*
D03*
X30000D02*
D03*
Y30000D02*
D03*
M02*
