G04*
G04 #@! TF.GenerationSoftware,Altium Limited,Altium Designer,23.8.1 (32)*
G04*
G04 Layer_Color=65535*
%FSLAX44Y44*%
%MOMM*%
G71*
G04*
G04 #@! TF.SameCoordinates,F21FC784-CF66-45F2-9398-5FBE0A3DAB67*
G04*
G04*
G04 #@! TF.FilePolarity,Positive*
G04*
G01*
G75*
%ADD10C,0.2000*%
%ADD11C,0.1000*%
G36*
X384711Y198213D02*
X383136D01*
Y208222D01*
X383124D01*
X383111Y208197D01*
X383074Y208172D01*
X383036Y208135D01*
X382912Y208022D01*
X382737Y207885D01*
X382524Y207722D01*
X382262Y207535D01*
X381962Y207335D01*
X381637Y207135D01*
X381624D01*
X381599Y207110D01*
X381549Y207085D01*
X381487Y207048D01*
X381399Y206998D01*
X381312Y206948D01*
X381087Y206835D01*
X380837Y206710D01*
X380562Y206573D01*
X380275Y206448D01*
X380000Y206335D01*
Y207847D01*
X380012Y207860D01*
X380062Y207873D01*
X380125Y207910D01*
X380225Y207960D01*
X380337Y208022D01*
X380462Y208097D01*
X380612Y208172D01*
X380775Y208272D01*
X381137Y208485D01*
X381524Y208747D01*
X381912Y209035D01*
X382299Y209347D01*
X382312Y209360D01*
X382337Y209385D01*
X382399Y209435D01*
X382462Y209497D01*
X382537Y209585D01*
X382637Y209672D01*
X382737Y209785D01*
X382849Y209897D01*
X383074Y210159D01*
X383299Y210447D01*
X383511Y210759D01*
X383611Y210909D01*
X383686Y211072D01*
X384711D01*
Y198213D01*
D02*
G37*
G36*
X393171Y211059D02*
X393271Y211047D01*
X393396Y211034D01*
X393521Y211022D01*
X393796Y210972D01*
X394096Y210897D01*
X394409Y210784D01*
X394709Y210647D01*
X394721D01*
X394746Y210622D01*
X394784Y210609D01*
X394846Y210572D01*
X394983Y210472D01*
X395171Y210347D01*
X395371Y210172D01*
X395583Y209972D01*
X395796Y209722D01*
X395996Y209447D01*
Y209435D01*
X396021Y209410D01*
X396046Y209372D01*
X396083Y209310D01*
X396121Y209235D01*
X396171Y209147D01*
X396221Y209035D01*
X396283Y208922D01*
X396346Y208785D01*
X396408Y208647D01*
X396533Y208322D01*
X396670Y207948D01*
X396783Y207548D01*
Y207535D01*
X396796Y207498D01*
X396808Y207435D01*
X396833Y207348D01*
X396858Y207235D01*
X396883Y207098D01*
X396908Y206935D01*
X396933Y206748D01*
X396958Y206548D01*
X396983Y206310D01*
X397008Y206073D01*
X397033Y205798D01*
X397058Y205511D01*
X397070Y205198D01*
X397083Y204873D01*
Y204523D01*
Y204498D01*
Y204423D01*
Y204311D01*
X397070Y204148D01*
Y203961D01*
X397058Y203736D01*
X397045Y203499D01*
X397020Y203224D01*
X396995Y202936D01*
X396970Y202649D01*
X396883Y202036D01*
X396771Y201437D01*
X396696Y201162D01*
X396608Y200887D01*
Y200874D01*
X396583Y200824D01*
X396558Y200749D01*
X396521Y200662D01*
X396471Y200537D01*
X396408Y200412D01*
X396346Y200262D01*
X396258Y200100D01*
X396071Y199762D01*
X395833Y199400D01*
X395546Y199062D01*
X395383Y198900D01*
X395221Y198750D01*
X395208Y198737D01*
X395183Y198712D01*
X395133Y198675D01*
X395058Y198637D01*
X394971Y198575D01*
X394859Y198512D01*
X394734Y198450D01*
X394596Y198375D01*
X394434Y198300D01*
X394259Y198237D01*
X394071Y198175D01*
X393859Y198113D01*
X393646Y198075D01*
X393409Y198037D01*
X393171Y198013D01*
X392909Y198000D01*
X392822D01*
X392734Y198013D01*
X392597Y198025D01*
X392447Y198037D01*
X392259Y198075D01*
X392059Y198113D01*
X391847Y198162D01*
X391622Y198237D01*
X391384Y198325D01*
X391134Y198425D01*
X390897Y198550D01*
X390660Y198700D01*
X390422Y198875D01*
X390197Y199087D01*
X389997Y199312D01*
X389985Y199337D01*
X389947Y199387D01*
X389885Y199487D01*
X389797Y199625D01*
X389710Y199799D01*
X389597Y200012D01*
X389485Y200274D01*
X389372Y200574D01*
X389247Y200912D01*
X389135Y201299D01*
X389022Y201724D01*
X388935Y202186D01*
X388848Y202711D01*
X388785Y203261D01*
X388748Y203874D01*
X388735Y204523D01*
Y204536D01*
Y204548D01*
Y204623D01*
Y204748D01*
X388748Y204898D01*
Y205098D01*
X388760Y205311D01*
X388773Y205561D01*
X388797Y205835D01*
X388823Y206123D01*
X388848Y206423D01*
X388935Y207023D01*
X389048Y207635D01*
X389123Y207910D01*
X389197Y208185D01*
Y208197D01*
X389222Y208247D01*
X389247Y208322D01*
X389285Y208410D01*
X389335Y208535D01*
X389397Y208660D01*
X389460Y208810D01*
X389547Y208972D01*
X389735Y209322D01*
X389972Y209672D01*
X390260Y210009D01*
X390422Y210172D01*
X390585Y210322D01*
X390597Y210334D01*
X390622Y210359D01*
X390685Y210397D01*
X390747Y210434D01*
X390847Y210497D01*
X390947Y210559D01*
X391085Y210622D01*
X391222Y210697D01*
X391384Y210772D01*
X391559Y210834D01*
X391747Y210897D01*
X391959Y210959D01*
X392172Y210997D01*
X392409Y211034D01*
X392647Y211059D01*
X392909Y211072D01*
X393084D01*
X393171Y211059D01*
D02*
G37*
G36*
X358982D02*
X359095Y211047D01*
X359220Y211034D01*
X359370Y211022D01*
X359520Y210984D01*
X359882Y210909D01*
X360257Y210784D01*
X360457Y210709D01*
X360657Y210622D01*
X360857Y210522D01*
X361057Y210397D01*
X361069Y210384D01*
X361107Y210372D01*
X361157Y210322D01*
X361232Y210272D01*
X361319Y210197D01*
X361419Y210122D01*
X361519Y210022D01*
X361644Y209909D01*
X361769Y209772D01*
X361894Y209634D01*
X362031Y209472D01*
X362156Y209297D01*
X362281Y209110D01*
X362406Y208910D01*
X362531Y208697D01*
X362631Y208472D01*
X362644Y208460D01*
X362656Y208410D01*
X362681Y208347D01*
X362719Y208247D01*
X362756Y208110D01*
X362806Y207960D01*
X362856Y207773D01*
X362906Y207560D01*
X362956Y207323D01*
X362994Y207048D01*
X363044Y206760D01*
X363081Y206435D01*
X363119Y206085D01*
X363144Y205711D01*
X363169Y205298D01*
Y204873D01*
Y204861D01*
Y204848D01*
Y204811D01*
Y204761D01*
Y204636D01*
X363156Y204473D01*
Y204261D01*
X363144Y204023D01*
X363119Y203761D01*
X363106Y203461D01*
X363069Y203161D01*
X363044Y202836D01*
X362944Y202186D01*
X362881Y201861D01*
X362806Y201549D01*
X362731Y201249D01*
X362631Y200962D01*
Y200949D01*
X362606Y200899D01*
X362581Y200824D01*
X362531Y200724D01*
X362469Y200599D01*
X362406Y200462D01*
X362331Y200312D01*
X362231Y200137D01*
X362006Y199787D01*
X361731Y199412D01*
X361419Y199062D01*
X361232Y198900D01*
X361044Y198750D01*
X361032Y198737D01*
X360994Y198712D01*
X360944Y198675D01*
X360857Y198637D01*
X360757Y198575D01*
X360632Y198512D01*
X360494Y198450D01*
X360344Y198375D01*
X360169Y198300D01*
X359982Y198237D01*
X359782Y198175D01*
X359557Y198113D01*
X359332Y198075D01*
X359095Y198037D01*
X358845Y198013D01*
X358582Y198000D01*
X358432D01*
X358332Y198013D01*
X358207Y198025D01*
X358057Y198050D01*
X357882Y198075D01*
X357707Y198100D01*
X357320Y198200D01*
X357108Y198262D01*
X356908Y198350D01*
X356695Y198437D01*
X356495Y198550D01*
X356308Y198675D01*
X356120Y198825D01*
X356108Y198837D01*
X356083Y198862D01*
X356033Y198912D01*
X355970Y198975D01*
X355896Y199062D01*
X355808Y199175D01*
X355720Y199287D01*
X355620Y199437D01*
X355521Y199587D01*
X355421Y199775D01*
X355333Y199962D01*
X355246Y200175D01*
X355158Y200399D01*
X355083Y200649D01*
X355033Y200912D01*
X354983Y201187D01*
X356495Y201324D01*
Y201312D01*
X356508Y201274D01*
X356520Y201224D01*
X356533Y201149D01*
X356558Y201062D01*
X356583Y200962D01*
X356658Y200724D01*
X356758Y200474D01*
X356883Y200212D01*
X357033Y199974D01*
X357120Y199862D01*
X357220Y199762D01*
X357233D01*
X357245Y199737D01*
X357320Y199687D01*
X357433Y199612D01*
X357595Y199525D01*
X357795Y199437D01*
X358032Y199362D01*
X358307Y199312D01*
X358607Y199287D01*
X358732D01*
X358870Y199300D01*
X359045Y199325D01*
X359232Y199362D01*
X359457Y199425D01*
X359669Y199500D01*
X359882Y199612D01*
X359894D01*
X359907Y199625D01*
X359969Y199675D01*
X360069Y199750D01*
X360194Y199849D01*
X360344Y199974D01*
X360494Y200124D01*
X360632Y200299D01*
X360769Y200499D01*
Y200512D01*
X360782Y200524D01*
X360807Y200562D01*
X360832Y200599D01*
X360894Y200724D01*
X360969Y200899D01*
X361069Y201112D01*
X361169Y201374D01*
X361269Y201662D01*
X361357Y201999D01*
Y202012D01*
X361369Y202036D01*
X361381Y202099D01*
X361394Y202161D01*
X361407Y202249D01*
X361432Y202349D01*
X361456Y202461D01*
X361482Y202599D01*
X361519Y202886D01*
X361557Y203211D01*
X361581Y203561D01*
X361594Y203923D01*
Y203948D01*
Y204011D01*
Y204098D01*
Y204223D01*
X361569Y204198D01*
X361544Y204161D01*
X361507Y204111D01*
X361407Y203974D01*
X361257Y203799D01*
X361069Y203611D01*
X360844Y203411D01*
X360582Y203211D01*
X360294Y203024D01*
X360282D01*
X360257Y202999D01*
X360219Y202986D01*
X360157Y202949D01*
X360082Y202911D01*
X359982Y202874D01*
X359882Y202836D01*
X359770Y202799D01*
X359507Y202711D01*
X359207Y202636D01*
X358882Y202586D01*
X358532Y202561D01*
X358457D01*
X358382Y202574D01*
X358270D01*
X358132Y202599D01*
X357970Y202624D01*
X357795Y202661D01*
X357607Y202711D01*
X357395Y202761D01*
X357183Y202836D01*
X356958Y202936D01*
X356733Y203049D01*
X356508Y203174D01*
X356283Y203336D01*
X356058Y203511D01*
X355845Y203711D01*
X355833Y203724D01*
X355796Y203761D01*
X355746Y203836D01*
X355671Y203923D01*
X355596Y204036D01*
X355496Y204173D01*
X355396Y204336D01*
X355296Y204523D01*
X355196Y204723D01*
X355096Y204961D01*
X354996Y205211D01*
X354921Y205473D01*
X354846Y205773D01*
X354796Y206073D01*
X354758Y206398D01*
X354746Y206748D01*
Y206773D01*
Y206835D01*
X354758Y206935D01*
Y207073D01*
X354783Y207235D01*
X354808Y207423D01*
X354846Y207635D01*
X354883Y207873D01*
X354946Y208110D01*
X355021Y208372D01*
X355121Y208635D01*
X355221Y208897D01*
X355358Y209160D01*
X355508Y209410D01*
X355683Y209660D01*
X355883Y209884D01*
X355896Y209897D01*
X355933Y209935D01*
X355995Y209997D01*
X356095Y210072D01*
X356208Y210159D01*
X356333Y210259D01*
X356495Y210372D01*
X356670Y210484D01*
X356870Y210584D01*
X357095Y210697D01*
X357333Y210797D01*
X357583Y210884D01*
X357858Y210959D01*
X358145Y211022D01*
X358457Y211059D01*
X358770Y211072D01*
X358895D01*
X358982Y211059D01*
D02*
G37*
G36*
X333941D02*
X334090Y211047D01*
X334253Y211022D01*
X334428Y210984D01*
X334628Y210947D01*
X334840Y210897D01*
X335065Y210834D01*
X335290Y210759D01*
X335515Y210659D01*
X335740Y210547D01*
X335952Y210422D01*
X336165Y210272D01*
X336365Y210097D01*
X336377Y210084D01*
X336415Y210047D01*
X336465Y209997D01*
X336527Y209922D01*
X336602Y209834D01*
X336690Y209709D01*
X336777Y209585D01*
X336877Y209435D01*
X336977Y209272D01*
X337065Y209085D01*
X337152Y208897D01*
X337227Y208685D01*
X337290Y208460D01*
X337352Y208222D01*
X337377Y207985D01*
X337390Y207722D01*
Y207710D01*
Y207685D01*
Y207635D01*
X337377Y207573D01*
Y207498D01*
X337365Y207398D01*
X337327Y207185D01*
X337277Y206948D01*
X337190Y206685D01*
X337077Y206423D01*
X336915Y206160D01*
Y206148D01*
X336890Y206135D01*
X336827Y206048D01*
X336715Y205935D01*
X336565Y205786D01*
X336365Y205623D01*
X336128Y205461D01*
X335840Y205298D01*
X335503Y205148D01*
X335515D01*
X335553Y205136D01*
X335615Y205111D01*
X335690Y205073D01*
X335790Y205036D01*
X335903Y204986D01*
X336165Y204848D01*
X336452Y204673D01*
X336752Y204461D01*
X337040Y204211D01*
X337165Y204061D01*
X337290Y203911D01*
X337302Y203899D01*
X337315Y203874D01*
X337352Y203824D01*
X337390Y203761D01*
X337440Y203674D01*
X337490Y203586D01*
X337540Y203461D01*
X337602Y203336D01*
X337665Y203199D01*
X337715Y203036D01*
X337815Y202699D01*
X337890Y202299D01*
X337902Y202099D01*
X337915Y201874D01*
Y201861D01*
Y201799D01*
X337902Y201712D01*
Y201599D01*
X337877Y201462D01*
X337852Y201299D01*
X337815Y201112D01*
X337765Y200912D01*
X337702Y200699D01*
X337627Y200474D01*
X337540Y200249D01*
X337427Y200012D01*
X337290Y199775D01*
X337140Y199550D01*
X336952Y199325D01*
X336752Y199112D01*
X336740Y199100D01*
X336702Y199062D01*
X336627Y199012D01*
X336540Y198937D01*
X336427Y198850D01*
X336290Y198762D01*
X336115Y198662D01*
X335940Y198562D01*
X335728Y198450D01*
X335490Y198350D01*
X335240Y198262D01*
X334965Y198175D01*
X334678Y198100D01*
X334365Y198050D01*
X334040Y198013D01*
X333691Y198000D01*
X333603D01*
X333503Y198013D01*
X333378D01*
X333216Y198037D01*
X333028Y198062D01*
X332816Y198088D01*
X332591Y198137D01*
X332354Y198200D01*
X332104Y198275D01*
X331854Y198362D01*
X331604Y198475D01*
X331341Y198600D01*
X331091Y198750D01*
X330854Y198912D01*
X330629Y199112D01*
X330616Y199125D01*
X330579Y199162D01*
X330529Y199225D01*
X330454Y199312D01*
X330367Y199425D01*
X330266Y199562D01*
X330167Y199712D01*
X330054Y199887D01*
X329942Y200075D01*
X329842Y200287D01*
X329742Y200524D01*
X329654Y200774D01*
X329592Y201037D01*
X329529Y201312D01*
X329492Y201599D01*
X329479Y201912D01*
Y201924D01*
Y201961D01*
Y202036D01*
X329492Y202124D01*
X329504Y202224D01*
X329517Y202349D01*
X329529Y202486D01*
X329554Y202636D01*
X329629Y202974D01*
X329742Y203324D01*
X329817Y203499D01*
X329904Y203674D01*
X329992Y203836D01*
X330104Y203999D01*
X330117Y204011D01*
X330129Y204036D01*
X330167Y204074D01*
X330216Y204136D01*
X330291Y204211D01*
X330367Y204286D01*
X330466Y204373D01*
X330566Y204461D01*
X330691Y204561D01*
X330829Y204648D01*
X330979Y204748D01*
X331141Y204848D01*
X331316Y204936D01*
X331504Y205011D01*
X331704Y205086D01*
X331916Y205148D01*
X331904D01*
X331879Y205161D01*
X331816Y205186D01*
X331754Y205211D01*
X331679Y205248D01*
X331579Y205298D01*
X331366Y205411D01*
X331129Y205561D01*
X330879Y205735D01*
X330654Y205935D01*
X330454Y206173D01*
Y206185D01*
X330429Y206198D01*
X330416Y206235D01*
X330379Y206285D01*
X330341Y206360D01*
X330304Y206435D01*
X330229Y206623D01*
X330141Y206848D01*
X330066Y207123D01*
X330017Y207423D01*
X329992Y207760D01*
Y207773D01*
Y207822D01*
X330004Y207897D01*
Y207997D01*
X330017Y208110D01*
X330042Y208247D01*
X330079Y208410D01*
X330117Y208585D01*
X330167Y208760D01*
X330242Y208947D01*
X330317Y209147D01*
X330416Y209347D01*
X330529Y209535D01*
X330666Y209734D01*
X330816Y209922D01*
X330991Y210109D01*
X331004Y210122D01*
X331041Y210147D01*
X331091Y210197D01*
X331179Y210259D01*
X331279Y210334D01*
X331391Y210409D01*
X331541Y210497D01*
X331704Y210597D01*
X331879Y210684D01*
X332079Y210772D01*
X332304Y210847D01*
X332541Y210922D01*
X332803Y210984D01*
X333066Y211034D01*
X333366Y211059D01*
X333666Y211072D01*
X333828D01*
X333941Y211059D01*
D02*
G37*
G36*
X312648Y209422D02*
X312635Y209410D01*
X312598Y209360D01*
X312523Y209285D01*
X312435Y209185D01*
X312323Y209047D01*
X312198Y208897D01*
X312048Y208710D01*
X311886Y208497D01*
X311711Y208260D01*
X311511Y207997D01*
X311311Y207710D01*
X311098Y207398D01*
X310886Y207073D01*
X310661Y206723D01*
X310436Y206348D01*
X310211Y205948D01*
X310199Y205923D01*
X310161Y205848D01*
X310099Y205735D01*
X310011Y205573D01*
X309911Y205386D01*
X309799Y205148D01*
X309674Y204886D01*
X309536Y204586D01*
X309386Y204261D01*
X309236Y203923D01*
X309074Y203549D01*
X308924Y203174D01*
X308774Y202774D01*
X308624Y202361D01*
X308487Y201936D01*
X308362Y201512D01*
Y201499D01*
X308337Y201437D01*
X308312Y201349D01*
X308287Y201237D01*
X308249Y201087D01*
X308199Y200899D01*
X308162Y200699D01*
X308112Y200474D01*
X308062Y200224D01*
X308012Y199949D01*
X307962Y199662D01*
X307912Y199350D01*
X307862Y199037D01*
X307824Y198700D01*
X307762Y198000D01*
X306150D01*
Y198013D01*
Y198075D01*
X306162Y198150D01*
Y198262D01*
X306175Y198412D01*
X306187Y198587D01*
X306212Y198787D01*
X306237Y199012D01*
X306262Y199275D01*
X306300Y199550D01*
X306350Y199849D01*
X306412Y200162D01*
X306475Y200512D01*
X306550Y200862D01*
X306637Y201249D01*
X306737Y201637D01*
Y201649D01*
X306749Y201662D01*
X306762Y201737D01*
X306800Y201849D01*
X306837Y201999D01*
X306900Y202199D01*
X306974Y202424D01*
X307049Y202674D01*
X307149Y202961D01*
X307262Y203261D01*
X307387Y203586D01*
X307512Y203936D01*
X307662Y204286D01*
X307987Y205023D01*
X308362Y205773D01*
X308374Y205798D01*
X308412Y205861D01*
X308474Y205961D01*
X308549Y206110D01*
X308649Y206273D01*
X308762Y206473D01*
X308899Y206698D01*
X309049Y206935D01*
X309211Y207198D01*
X309386Y207473D01*
X309761Y208035D01*
X310186Y208597D01*
X310399Y208872D01*
X310623Y209135D01*
X304363D01*
Y210647D01*
X312648D01*
Y209422D01*
D02*
G37*
G36*
X283907Y211059D02*
X284045Y211047D01*
X284195Y211022D01*
X284357Y210997D01*
X284545Y210972D01*
X284932Y210859D01*
X285145Y210797D01*
X285345Y210709D01*
X285557Y210622D01*
X285757Y210497D01*
X285957Y210372D01*
X286144Y210222D01*
X286157Y210209D01*
X286182Y210184D01*
X286232Y210134D01*
X286294Y210072D01*
X286369Y209984D01*
X286457Y209872D01*
X286557Y209747D01*
X286657Y209610D01*
X286757Y209460D01*
X286857Y209272D01*
X286944Y209085D01*
X287044Y208872D01*
X287132Y208647D01*
X287194Y208410D01*
X287257Y208160D01*
X287306Y207885D01*
X285744Y207760D01*
Y207773D01*
X285732Y207798D01*
X285719Y207847D01*
X285707Y207910D01*
X285682Y207985D01*
X285657Y208072D01*
X285594Y208272D01*
X285507Y208497D01*
X285407Y208722D01*
X285282Y208935D01*
X285145Y209110D01*
X285132Y209122D01*
X285119Y209135D01*
X285082Y209172D01*
X285032Y209210D01*
X284970Y209272D01*
X284895Y209322D01*
X284707Y209447D01*
X284482Y209572D01*
X284207Y209685D01*
X283907Y209760D01*
X283745Y209772D01*
X283570Y209785D01*
X283445D01*
X283307Y209760D01*
X283120Y209734D01*
X282920Y209685D01*
X282695Y209610D01*
X282470Y209497D01*
X282245Y209360D01*
X282233D01*
X282208Y209335D01*
X282170Y209310D01*
X282120Y209260D01*
X281995Y209135D01*
X281820Y208960D01*
X281633Y208735D01*
X281433Y208460D01*
X281245Y208147D01*
X281071Y207773D01*
Y207760D01*
X281058Y207722D01*
X281033Y207660D01*
X281008Y207585D01*
X280971Y207473D01*
X280933Y207348D01*
X280896Y207185D01*
X280858Y207010D01*
X280821Y206810D01*
X280783Y206598D01*
X280746Y206348D01*
X280708Y206085D01*
X280683Y205798D01*
X280658Y205486D01*
X280646Y205161D01*
X280633Y204811D01*
X280646Y204823D01*
X280658Y204848D01*
X280696Y204898D01*
X280733Y204948D01*
X280783Y205023D01*
X280858Y205111D01*
X281021Y205298D01*
X281220Y205511D01*
X281458Y205723D01*
X281720Y205923D01*
X282020Y206098D01*
X282033D01*
X282058Y206110D01*
X282108Y206135D01*
X282158Y206160D01*
X282245Y206198D01*
X282333Y206235D01*
X282433Y206273D01*
X282545Y206310D01*
X282808Y206385D01*
X283095Y206460D01*
X283407Y206510D01*
X283745Y206523D01*
X283820D01*
X283895Y206510D01*
X284007D01*
X284145Y206485D01*
X284307Y206460D01*
X284482Y206423D01*
X284670Y206373D01*
X284870Y206310D01*
X285095Y206235D01*
X285307Y206148D01*
X285532Y206035D01*
X285769Y205898D01*
X285994Y205748D01*
X286207Y205561D01*
X286419Y205361D01*
X286432Y205348D01*
X286469Y205311D01*
X286519Y205236D01*
X286594Y205148D01*
X286682Y205036D01*
X286769Y204898D01*
X286869Y204736D01*
X286982Y204548D01*
X287082Y204348D01*
X287181Y204123D01*
X287269Y203874D01*
X287356Y203611D01*
X287431Y203324D01*
X287481Y203024D01*
X287519Y202711D01*
X287531Y202374D01*
Y202361D01*
Y202324D01*
Y202261D01*
X287519Y202174D01*
Y202062D01*
X287506Y201936D01*
X287494Y201799D01*
X287469Y201637D01*
X287406Y201287D01*
X287306Y200912D01*
X287181Y200524D01*
X287006Y200124D01*
Y200112D01*
X286982Y200075D01*
X286957Y200025D01*
X286907Y199962D01*
X286857Y199874D01*
X286794Y199775D01*
X286632Y199550D01*
X286419Y199287D01*
X286182Y199025D01*
X285894Y198775D01*
X285569Y198550D01*
X285557D01*
X285532Y198525D01*
X285482Y198500D01*
X285407Y198462D01*
X285319Y198425D01*
X285219Y198375D01*
X285107Y198325D01*
X284970Y198275D01*
X284832Y198225D01*
X284670Y198175D01*
X284320Y198088D01*
X283932Y198025D01*
X283720Y198013D01*
X283507Y198000D01*
X283420D01*
X283320Y198013D01*
X283183Y198025D01*
X283020Y198050D01*
X282820Y198075D01*
X282608Y198125D01*
X282370Y198175D01*
X282120Y198250D01*
X281870Y198350D01*
X281595Y198462D01*
X281333Y198612D01*
X281058Y198775D01*
X280796Y198962D01*
X280546Y199187D01*
X280308Y199437D01*
X280296Y199450D01*
X280258Y199512D01*
X280196Y199587D01*
X280121Y199712D01*
X280021Y199874D01*
X279921Y200075D01*
X279808Y200299D01*
X279696Y200574D01*
X279571Y200887D01*
X279459Y201237D01*
X279359Y201624D01*
X279271Y202062D01*
X279184Y202524D01*
X279121Y203049D01*
X279084Y203599D01*
X279071Y204198D01*
Y204211D01*
Y204236D01*
Y204286D01*
Y204361D01*
Y204448D01*
X279084Y204548D01*
Y204673D01*
X279096Y204811D01*
Y204948D01*
X279109Y205111D01*
X279146Y205461D01*
X279184Y205848D01*
X279246Y206260D01*
X279308Y206698D01*
X279408Y207148D01*
X279508Y207598D01*
X279646Y208047D01*
X279796Y208472D01*
X279983Y208885D01*
X280196Y209260D01*
X280433Y209597D01*
X280446Y209610D01*
X280483Y209660D01*
X280558Y209734D01*
X280658Y209822D01*
X280771Y209935D01*
X280921Y210059D01*
X281096Y210197D01*
X281283Y210334D01*
X281508Y210472D01*
X281745Y210609D01*
X282008Y210734D01*
X282295Y210847D01*
X282608Y210934D01*
X282933Y211009D01*
X283283Y211059D01*
X283657Y211072D01*
X283807D01*
X283907Y211059D01*
D02*
G37*
G36*
X261640Y209360D02*
X256504D01*
X255816Y205898D01*
X255829Y205910D01*
X255867Y205935D01*
X255929Y205973D01*
X256017Y206023D01*
X256116Y206085D01*
X256254Y206160D01*
X256391Y206223D01*
X256554Y206310D01*
X256729Y206385D01*
X256916Y206448D01*
X257329Y206585D01*
X257541Y206635D01*
X257766Y206673D01*
X258003Y206698D01*
X258241Y206710D01*
X258316D01*
X258403Y206698D01*
X258528D01*
X258666Y206673D01*
X258841Y206648D01*
X259028Y206610D01*
X259228Y206560D01*
X259441Y206498D01*
X259678Y206423D01*
X259916Y206335D01*
X260153Y206223D01*
X260390Y206085D01*
X260628Y205935D01*
X260853Y205748D01*
X261078Y205548D01*
X261090Y205536D01*
X261128Y205498D01*
X261190Y205423D01*
X261265Y205336D01*
X261353Y205223D01*
X261440Y205086D01*
X261553Y204923D01*
X261665Y204736D01*
X261765Y204536D01*
X261877Y204311D01*
X261965Y204061D01*
X262065Y203799D01*
X262127Y203511D01*
X262190Y203211D01*
X262227Y202886D01*
X262240Y202549D01*
Y202524D01*
Y202474D01*
X262227Y202386D01*
Y202261D01*
X262215Y202111D01*
X262190Y201936D01*
X262152Y201737D01*
X262115Y201524D01*
X262052Y201299D01*
X261990Y201049D01*
X261902Y200799D01*
X261803Y200549D01*
X261690Y200299D01*
X261553Y200037D01*
X261390Y199787D01*
X261215Y199550D01*
X261203Y199537D01*
X261153Y199487D01*
X261090Y199412D01*
X260990Y199312D01*
X260865Y199187D01*
X260715Y199062D01*
X260540Y198925D01*
X260340Y198775D01*
X260103Y198625D01*
X259853Y198487D01*
X259578Y198362D01*
X259278Y198237D01*
X258953Y198137D01*
X258616Y198062D01*
X258241Y198013D01*
X257854Y198000D01*
X257778D01*
X257691Y198013D01*
X257566D01*
X257416Y198025D01*
X257241Y198050D01*
X257054Y198088D01*
X256841Y198125D01*
X256616Y198175D01*
X256391Y198237D01*
X256154Y198312D01*
X255904Y198412D01*
X255667Y198525D01*
X255429Y198650D01*
X255204Y198800D01*
X254992Y198975D01*
X254979Y198987D01*
X254942Y199025D01*
X254892Y199075D01*
X254817Y199150D01*
X254729Y199250D01*
X254642Y199375D01*
X254529Y199512D01*
X254429Y199662D01*
X254317Y199837D01*
X254204Y200037D01*
X254104Y200249D01*
X254004Y200487D01*
X253917Y200737D01*
X253842Y200999D01*
X253780Y201274D01*
X253742Y201574D01*
X255392Y201712D01*
Y201699D01*
X255404Y201662D01*
X255417Y201599D01*
X255429Y201512D01*
X255454Y201412D01*
X255479Y201299D01*
X255567Y201024D01*
X255679Y200737D01*
X255816Y200437D01*
X256004Y200137D01*
X256116Y200012D01*
X256229Y199887D01*
X256241Y199874D01*
X256266Y199862D01*
X256304Y199837D01*
X256354Y199799D01*
X256416Y199750D01*
X256491Y199700D01*
X256691Y199587D01*
X256929Y199475D01*
X257204Y199387D01*
X257516Y199312D01*
X257679Y199300D01*
X257854Y199287D01*
X257966D01*
X258041Y199300D01*
X258141Y199312D01*
X258253Y199337D01*
X258378Y199362D01*
X258516Y199400D01*
X258828Y199500D01*
X258978Y199562D01*
X259141Y199650D01*
X259303Y199750D01*
X259466Y199862D01*
X259628Y199987D01*
X259778Y200137D01*
X259790Y200149D01*
X259816Y200175D01*
X259853Y200224D01*
X259903Y200299D01*
X259965Y200374D01*
X260028Y200487D01*
X260103Y200612D01*
X260178Y200749D01*
X260240Y200899D01*
X260315Y201074D01*
X260378Y201262D01*
X260440Y201462D01*
X260490Y201674D01*
X260528Y201912D01*
X260553Y202149D01*
X260565Y202411D01*
Y202424D01*
Y202474D01*
Y202536D01*
X260553Y202636D01*
X260540Y202749D01*
X260528Y202874D01*
X260503Y203024D01*
X260465Y203186D01*
X260378Y203524D01*
X260315Y203699D01*
X260240Y203874D01*
X260153Y204049D01*
X260053Y204223D01*
X259940Y204386D01*
X259803Y204536D01*
X259790Y204548D01*
X259765Y204573D01*
X259728Y204611D01*
X259666Y204661D01*
X259590Y204723D01*
X259503Y204786D01*
X259391Y204861D01*
X259278Y204936D01*
X259141Y204998D01*
X258991Y205073D01*
X258828Y205136D01*
X258653Y205198D01*
X258453Y205248D01*
X258253Y205286D01*
X258041Y205311D01*
X257816Y205323D01*
X257691D01*
X257616Y205311D01*
X257541D01*
X257354Y205286D01*
X257141Y205236D01*
X256916Y205173D01*
X256679Y205086D01*
X256441Y204973D01*
X256429D01*
X256416Y204961D01*
X256341Y204911D01*
X256229Y204836D01*
X256104Y204736D01*
X255942Y204598D01*
X255791Y204448D01*
X255629Y204273D01*
X255492Y204086D01*
X254017Y204273D01*
X255254Y210859D01*
X261640D01*
Y209360D01*
D02*
G37*
G36*
X277622Y159499D02*
X279184Y159187D01*
X282934Y158249D01*
X284809Y156999D01*
X286684Y155749D01*
X286997Y155437D01*
X287622Y155124D01*
X288247Y154187D01*
X289184Y153249D01*
X291059Y149812D01*
X291997Y147937D01*
X292309Y145750D01*
Y143562D01*
Y143250D01*
X291997Y142937D01*
X291684Y142625D01*
X290747Y142312D01*
X286059D01*
X285747Y142625D01*
X285122Y142937D01*
X284809Y143562D01*
Y144500D01*
Y144812D01*
Y145125D01*
X284497Y146687D01*
X283559Y148875D01*
X281997Y150750D01*
X281684Y151062D01*
X280434Y151999D01*
X278559Y152624D01*
X276059Y152937D01*
X275122D01*
X273247Y152624D01*
X271060Y151999D01*
X268872Y150750D01*
X268560Y150437D01*
X267622Y149187D01*
X266685Y147312D01*
X266060Y145125D01*
Y144500D01*
X265747Y143250D01*
Y141062D01*
Y138250D01*
X265435Y134812D01*
Y130750D01*
X266060Y122625D01*
Y122000D01*
X266685Y120437D01*
X267310Y118562D01*
X268872Y116687D01*
X269497Y116375D01*
X270747Y115750D01*
X272935Y114812D01*
X275435Y114500D01*
X276059D01*
X277622Y114812D01*
X279809Y115437D01*
X281684Y116687D01*
X281997Y117000D01*
X283247Y118250D01*
X284184Y120125D01*
X284809Y122625D01*
Y124187D01*
Y124500D01*
X285122Y125125D01*
X285434Y125437D01*
X286372Y125750D01*
X291059D01*
X291684Y125437D01*
X291997Y125125D01*
X292309Y124187D01*
Y122312D01*
Y122000D01*
X291997Y121375D01*
Y120125D01*
X291372Y118562D01*
X289809Y114812D01*
X288559Y113250D01*
X286997Y111375D01*
X286684Y111062D01*
X286372Y110750D01*
X285122Y110125D01*
X283872Y109187D01*
X282309Y108250D01*
X280434Y107625D01*
X278247Y107312D01*
X275747Y107000D01*
X274497D01*
X273247Y107312D01*
X271685Y107625D01*
X267935Y108875D01*
X265747Y109812D01*
X263872Y111375D01*
X263560Y111687D01*
X263247Y112312D01*
X262310Y113250D01*
X261372Y114500D01*
X259810Y117937D01*
X258872Y119812D01*
X258560Y122312D01*
Y122937D01*
Y124187D01*
Y126375D01*
Y129187D01*
Y132625D01*
Y136375D01*
Y144500D01*
Y144812D01*
X258872Y145750D01*
Y146687D01*
X259497Y148250D01*
X261060Y151999D01*
X262310Y153874D01*
X263872Y155437D01*
X264185Y155749D01*
X264810Y156062D01*
X265747Y156687D01*
X267310Y157624D01*
X270747Y159187D01*
X272935Y159499D01*
X275435Y159812D01*
X276684D01*
X277622Y159499D01*
D02*
G37*
G36*
X92624Y158562D02*
X92937Y157937D01*
Y108875D01*
Y108562D01*
Y108250D01*
X92312Y107937D01*
X91687Y107625D01*
X84499D01*
X84187Y107937D01*
X83874Y108562D01*
X69187Y145125D01*
X68875Y145437D01*
X68562D01*
X68250Y145125D01*
Y108562D01*
Y108250D01*
X67937Y107937D01*
X67625Y107312D01*
X66687Y107000D01*
X62937D01*
X62625Y107312D01*
X62000Y107625D01*
X61687Y108562D01*
Y157312D01*
Y157624D01*
X62000Y158249D01*
X62312Y158562D01*
X63250Y158874D01*
X70125D01*
X70437Y158562D01*
X70750Y157937D01*
X85124Y121062D01*
X85749Y120750D01*
X86062D01*
X86687Y121062D01*
Y157937D01*
Y158249D01*
X86999Y158562D01*
X87312Y158874D01*
X88249Y159187D01*
X92312D01*
X92624Y158562D01*
D02*
G37*
G36*
X329809Y159499D02*
X331371Y159187D01*
X335121Y158249D01*
X336684Y156999D01*
X338559Y155749D01*
X338871Y155437D01*
X339184Y155124D01*
X340121Y154187D01*
X341059Y153249D01*
X342934Y149812D01*
X344184Y145750D01*
Y145437D01*
Y144812D01*
Y143875D01*
X343871Y142625D01*
X343246Y139812D01*
X341684Y136687D01*
X341371Y136062D01*
X340121Y134500D01*
X337934Y132625D01*
X335121Y131062D01*
X334809Y130750D01*
X334184Y130125D01*
X333871Y129500D01*
Y128875D01*
X334184Y128562D01*
X342934Y110125D01*
Y109812D01*
Y109500D01*
Y108562D01*
X341996Y107937D01*
X336996D01*
X336371Y108250D01*
X335434Y108562D01*
X335121Y109500D01*
X326371Y127937D01*
Y128250D01*
X325746Y128562D01*
X325121Y128875D01*
X321059Y128562D01*
X320746Y128250D01*
X320434Y127937D01*
X320121D01*
Y109500D01*
Y109187D01*
X319809Y108875D01*
X319496Y108250D01*
X318559Y107937D01*
X313872D01*
X313559Y108250D01*
X313247Y108562D01*
X312934Y109500D01*
Y158249D01*
Y158562D01*
X313247Y159187D01*
X313559Y159499D01*
X314184Y159812D01*
X328559D01*
X329809Y159499D01*
D02*
G37*
G36*
X226060D02*
X227623Y159187D01*
X231060Y158249D01*
X232935Y156999D01*
X234810Y155749D01*
X235123Y155437D01*
X235435Y155124D01*
X236373Y154187D01*
X237310Y153249D01*
X239185Y149812D01*
X239810Y147937D01*
X240123Y145750D01*
Y145437D01*
Y144812D01*
Y143875D01*
Y142625D01*
X239498Y139812D01*
X237935Y136687D01*
X237623Y136062D01*
X236373Y134500D01*
X234185Y132625D01*
X231373Y131062D01*
X231060Y130750D01*
X230435Y130125D01*
X229810Y129500D01*
Y128875D01*
X230123Y128562D01*
X239185Y110125D01*
Y109812D01*
X239498Y109500D01*
X239185Y108562D01*
X238560Y107937D01*
X233248D01*
X232935Y108250D01*
X232310Y108562D01*
X231685Y109500D01*
X223560Y127937D01*
X223248Y128250D01*
X221998Y128875D01*
X216998Y128562D01*
X216685Y128250D01*
X216373Y127937D01*
X216060D01*
Y109500D01*
Y109187D01*
X215748Y108875D01*
X215435Y108250D01*
X214498Y107937D01*
X210435D01*
X210123Y108250D01*
X209498Y108562D01*
X209185Y109500D01*
Y158249D01*
Y158562D01*
X209498Y159187D01*
X209810Y159499D01*
X210748Y159812D01*
X224810D01*
X226060Y159499D01*
D02*
G37*
G36*
X530744Y158562D02*
X531056Y157937D01*
Y153874D01*
Y153562D01*
X530744Y152937D01*
X530432Y152312D01*
X529494Y151999D01*
X512307D01*
X511994Y151687D01*
Y151374D01*
Y138250D01*
X512307D01*
X512619Y137937D01*
X529494D01*
X529807Y137625D01*
X530119Y137312D01*
X530432Y136375D01*
Y132312D01*
Y132000D01*
Y131687D01*
X529807Y131375D01*
X529182Y131062D01*
X512619D01*
X512307Y130750D01*
X511994Y130437D01*
X511369Y115437D01*
Y115125D01*
X511682Y114812D01*
X511994Y114500D01*
X512307Y114812D01*
X530432D01*
X531056Y114500D01*
X531681Y114187D01*
X531994Y113250D01*
Y108875D01*
Y108562D01*
X531681Y108250D01*
X531369Y107937D01*
X530119Y107625D01*
X505744D01*
X505119Y107937D01*
X504494Y108250D01*
X504182Y108875D01*
Y157937D01*
Y158249D01*
X504494Y158562D01*
X505119Y158874D01*
X506057Y159187D01*
X530432D01*
X530744Y158562D01*
D02*
G37*
G36*
X486370D02*
X486682Y157937D01*
Y153874D01*
Y153562D01*
X486370Y152937D01*
X486057Y152312D01*
X485120Y151999D01*
X474495D01*
X474182Y151687D01*
X473870Y151374D01*
Y150750D01*
Y149812D01*
Y147937D01*
Y145437D01*
Y141687D01*
Y139187D01*
Y136687D01*
Y133875D01*
Y130437D01*
Y108875D01*
Y108562D01*
X473557Y108250D01*
X473245Y107937D01*
X472307Y107625D01*
X468245D01*
X467932Y107937D01*
X467307Y108250D01*
X466995Y108875D01*
Y151374D01*
Y151687D01*
X466682Y151999D01*
X456370D01*
X456057Y152312D01*
X455745Y152937D01*
X455432Y153874D01*
Y157937D01*
Y158249D01*
X455745Y158562D01*
X456057Y158874D01*
X456682Y159187D01*
X486057D01*
X486370Y158562D01*
D02*
G37*
G36*
X428870Y158874D02*
X429495Y158249D01*
X443245Y108875D01*
X442933Y108250D01*
X442620Y107937D01*
X441683Y107625D01*
X437308D01*
X436370Y107937D01*
X435745Y108562D01*
X432308Y119812D01*
Y120125D01*
X431995Y120437D01*
X431683Y120750D01*
X418558D01*
X417933Y120437D01*
X417308Y119812D01*
X414495Y108562D01*
X414183Y108250D01*
X413870Y107937D01*
X412933Y107625D01*
X408245D01*
X407933Y107937D01*
X407308Y108250D01*
X406996Y108875D01*
X421058Y158249D01*
Y158562D01*
X421370Y158874D01*
X421683Y159187D01*
X428558D01*
X428870Y158874D01*
D02*
G37*
G36*
X389496Y158562D02*
X389808Y157937D01*
Y153874D01*
Y153562D01*
Y152937D01*
X389183Y152312D01*
X388558Y151999D01*
X370746D01*
X369808Y151374D01*
Y138250D01*
X370121Y137937D01*
X387308D01*
X387933Y137625D01*
X388246Y137312D01*
X388558Y136375D01*
Y132312D01*
Y132000D01*
X388246Y131687D01*
X387933Y131375D01*
X386996Y131062D01*
X370433D01*
X370121Y130750D01*
X369808Y130437D01*
Y115437D01*
X370746D01*
Y115125D01*
Y114812D01*
X371058Y114500D01*
X371371Y114812D01*
X389183D01*
X389808Y114500D01*
X390121Y114187D01*
X390433Y113250D01*
Y108875D01*
Y108562D01*
X390121Y108250D01*
X389808Y107937D01*
X388871Y107625D01*
X364184D01*
X363871Y107937D01*
X363246Y108250D01*
X362934Y108875D01*
Y157937D01*
Y158249D01*
X363246Y158562D01*
X363559Y158874D01*
X364496Y159187D01*
X389183D01*
X389496Y158562D01*
D02*
G37*
G36*
X187936D02*
X188248Y157937D01*
Y153874D01*
Y153562D01*
X187936Y152937D01*
X187623Y152312D01*
X186686Y151999D01*
X169186D01*
X168248Y151374D01*
Y138250D01*
X168561Y137937D01*
X185748D01*
X186061Y137625D01*
X186373Y137312D01*
X186686Y136375D01*
Y132312D01*
Y132000D01*
Y131687D01*
X186061Y131375D01*
X185436Y131062D01*
X168873D01*
X167623Y130437D01*
Y115437D01*
X168873D01*
Y115125D01*
Y114812D01*
Y114500D01*
X169186Y114812D01*
X186998D01*
X187623Y114500D01*
X187936Y114187D01*
X188248Y113250D01*
Y108875D01*
Y108562D01*
X187936Y108250D01*
X187623Y107937D01*
X186686Y107625D01*
X162623D01*
X162311Y107937D01*
X161686Y108250D01*
X161373Y108875D01*
Y157937D01*
Y158249D01*
X161686Y158562D01*
X161998Y158874D01*
X162936Y159187D01*
X187623D01*
X187936Y158562D01*
D02*
G37*
G36*
X142624D02*
X142936Y157937D01*
Y153874D01*
Y153562D01*
X142624Y152937D01*
X142311Y152312D01*
X141374Y151999D01*
X130436D01*
Y151687D01*
X130749D01*
Y151374D01*
Y150750D01*
Y149812D01*
Y147937D01*
Y145437D01*
Y141687D01*
Y139187D01*
Y136687D01*
Y133875D01*
Y130437D01*
Y108875D01*
Y108562D01*
X130436Y108250D01*
X130124Y107937D01*
X129186Y107625D01*
X124499D01*
X124186Y107937D01*
X123561Y108250D01*
X123249Y108875D01*
Y151374D01*
Y151687D01*
Y151999D01*
X113249D01*
X112624Y152312D01*
X111999Y152937D01*
X111686Y153874D01*
Y157937D01*
Y158249D01*
X111999Y158562D01*
X112624Y158874D01*
X113561Y159187D01*
X142311D01*
X142624Y158562D01*
D02*
G37*
G36*
X38562D02*
X38875Y157937D01*
Y108875D01*
Y108562D01*
X38562Y108250D01*
X38250Y107937D01*
X37312Y107625D01*
X33250D01*
X32625Y107937D01*
X32000Y108250D01*
Y108875D01*
Y157937D01*
Y158249D01*
Y158562D01*
X32625Y158874D01*
X33563Y159187D01*
X38250D01*
X38562Y158562D01*
D02*
G37*
G36*
X292533Y47159D02*
X291353D01*
Y54667D01*
X291343D01*
X291334Y54648D01*
X291306Y54629D01*
X291278Y54601D01*
X291184Y54517D01*
X291053Y54414D01*
X290893Y54292D01*
X290696Y54151D01*
X290471Y54001D01*
X290228Y53851D01*
X290218D01*
X290200Y53833D01*
X290162Y53814D01*
X290115Y53786D01*
X290050Y53748D01*
X289984Y53711D01*
X289815Y53626D01*
X289628Y53533D01*
X289422Y53430D01*
X289206Y53336D01*
X289000Y53252D01*
Y54386D01*
X289009Y54395D01*
X289047Y54404D01*
X289094Y54433D01*
X289169Y54470D01*
X289253Y54517D01*
X289347Y54573D01*
X289459Y54629D01*
X289581Y54704D01*
X289853Y54864D01*
X290144Y55060D01*
X290434Y55276D01*
X290725Y55510D01*
X290734Y55520D01*
X290753Y55538D01*
X290800Y55576D01*
X290846Y55623D01*
X290903Y55688D01*
X290978Y55754D01*
X291053Y55838D01*
X291137Y55923D01*
X291306Y56119D01*
X291474Y56335D01*
X291634Y56569D01*
X291709Y56682D01*
X291765Y56804D01*
X292533D01*
Y47159D01*
D02*
G37*
G36*
X298879Y56794D02*
X298954Y56785D01*
X299047Y56776D01*
X299141Y56766D01*
X299347Y56729D01*
X299572Y56673D01*
X299807Y56588D01*
X300032Y56485D01*
X300041D01*
X300060Y56466D01*
X300088Y56457D01*
X300135Y56429D01*
X300238Y56354D01*
X300378Y56260D01*
X300528Y56129D01*
X300688Y55979D01*
X300847Y55792D01*
X300997Y55585D01*
Y55576D01*
X301016Y55557D01*
X301034Y55529D01*
X301063Y55482D01*
X301091Y55426D01*
X301128Y55360D01*
X301166Y55276D01*
X301213Y55192D01*
X301259Y55089D01*
X301306Y54985D01*
X301400Y54742D01*
X301503Y54461D01*
X301587Y54161D01*
Y54151D01*
X301597Y54123D01*
X301606Y54076D01*
X301625Y54011D01*
X301644Y53926D01*
X301662Y53823D01*
X301681Y53701D01*
X301700Y53561D01*
X301719Y53411D01*
X301737Y53233D01*
X301756Y53055D01*
X301775Y52849D01*
X301794Y52633D01*
X301803Y52399D01*
X301812Y52155D01*
Y51892D01*
Y51874D01*
Y51817D01*
Y51733D01*
X301803Y51611D01*
Y51471D01*
X301794Y51302D01*
X301784Y51124D01*
X301765Y50918D01*
X301747Y50702D01*
X301728Y50487D01*
X301662Y50027D01*
X301578Y49577D01*
X301522Y49371D01*
X301456Y49165D01*
Y49156D01*
X301437Y49118D01*
X301419Y49062D01*
X301391Y48996D01*
X301353Y48903D01*
X301306Y48809D01*
X301259Y48696D01*
X301194Y48575D01*
X301053Y48321D01*
X300875Y48050D01*
X300660Y47797D01*
X300538Y47675D01*
X300416Y47562D01*
X300406Y47553D01*
X300388Y47534D01*
X300350Y47506D01*
X300294Y47478D01*
X300228Y47431D01*
X300144Y47384D01*
X300050Y47337D01*
X299947Y47281D01*
X299825Y47225D01*
X299694Y47178D01*
X299554Y47131D01*
X299394Y47084D01*
X299235Y47056D01*
X299057Y47028D01*
X298879Y47009D01*
X298682Y47000D01*
X298616D01*
X298551Y47009D01*
X298448Y47019D01*
X298335Y47028D01*
X298195Y47056D01*
X298045Y47084D01*
X297885Y47122D01*
X297717Y47178D01*
X297538Y47244D01*
X297351Y47319D01*
X297173Y47412D01*
X296995Y47525D01*
X296817Y47656D01*
X296648Y47815D01*
X296498Y47984D01*
X296489Y48003D01*
X296461Y48040D01*
X296414Y48115D01*
X296348Y48218D01*
X296283Y48350D01*
X296198Y48509D01*
X296114Y48706D01*
X296029Y48931D01*
X295936Y49184D01*
X295851Y49474D01*
X295767Y49793D01*
X295701Y50140D01*
X295636Y50533D01*
X295589Y50946D01*
X295561Y51405D01*
X295551Y51892D01*
Y51902D01*
Y51911D01*
Y51968D01*
Y52061D01*
X295561Y52174D01*
Y52324D01*
X295570Y52483D01*
X295580Y52670D01*
X295598Y52877D01*
X295617Y53092D01*
X295636Y53317D01*
X295701Y53767D01*
X295786Y54226D01*
X295842Y54433D01*
X295898Y54639D01*
Y54648D01*
X295917Y54686D01*
X295936Y54742D01*
X295964Y54807D01*
X296001Y54901D01*
X296048Y54995D01*
X296095Y55107D01*
X296161Y55229D01*
X296301Y55492D01*
X296479Y55754D01*
X296695Y56007D01*
X296817Y56129D01*
X296939Y56241D01*
X296948Y56251D01*
X296967Y56269D01*
X297014Y56298D01*
X297060Y56326D01*
X297135Y56373D01*
X297210Y56420D01*
X297313Y56466D01*
X297417Y56523D01*
X297538Y56579D01*
X297670Y56626D01*
X297810Y56673D01*
X297970Y56719D01*
X298129Y56747D01*
X298307Y56776D01*
X298485Y56794D01*
X298682Y56804D01*
X298813D01*
X298879Y56794D01*
D02*
G37*
G36*
X235186Y202499D02*
X236911D01*
Y201062D01*
X235186D01*
Y198000D01*
X233612D01*
Y201062D01*
X228051D01*
Y202499D01*
X233899Y210809D01*
X235186D01*
Y202499D01*
D02*
G37*
G36*
X207020Y211059D02*
X207120D01*
X207220Y211047D01*
X207345Y211034D01*
X207483Y211022D01*
X207783Y210959D01*
X208095Y210884D01*
X208433Y210772D01*
X208770Y210622D01*
X208783D01*
X208808Y210597D01*
X208857Y210572D01*
X208920Y210534D01*
X208995Y210497D01*
X209070Y210434D01*
X209270Y210297D01*
X209495Y210122D01*
X209720Y209909D01*
X209932Y209660D01*
X210120Y209385D01*
Y209372D01*
X210145Y209347D01*
X210170Y209310D01*
X210195Y209247D01*
X210232Y209185D01*
X210270Y209097D01*
X210357Y208885D01*
X210445Y208647D01*
X210520Y208360D01*
X210570Y208060D01*
X210595Y207735D01*
Y207722D01*
Y207698D01*
Y207660D01*
X210582Y207598D01*
Y207523D01*
X210570Y207435D01*
X210545Y207235D01*
X210482Y206998D01*
X210407Y206748D01*
X210295Y206485D01*
X210145Y206223D01*
Y206210D01*
X210120Y206198D01*
X210095Y206160D01*
X210057Y206110D01*
X209957Y205986D01*
X209807Y205835D01*
X209620Y205660D01*
X209395Y205486D01*
X209132Y205311D01*
X208820Y205148D01*
X208832D01*
X208870Y205136D01*
X208932Y205123D01*
X209007Y205098D01*
X209107Y205061D01*
X209207Y205023D01*
X209470Y204911D01*
X209745Y204773D01*
X210045Y204573D01*
X210332Y204348D01*
X210457Y204211D01*
X210582Y204061D01*
X210595Y204049D01*
X210607Y204023D01*
X210644Y203974D01*
X210682Y203911D01*
X210732Y203836D01*
X210782Y203736D01*
X210844Y203624D01*
X210907Y203499D01*
X210957Y203349D01*
X211019Y203199D01*
X211069Y203024D01*
X211119Y202849D01*
X211194Y202449D01*
X211207Y202224D01*
X211219Y201999D01*
Y201987D01*
Y201924D01*
X211207Y201836D01*
Y201724D01*
X211182Y201574D01*
X211157Y201412D01*
X211119Y201224D01*
X211069Y201012D01*
X211007Y200799D01*
X210919Y200574D01*
X210819Y200337D01*
X210707Y200100D01*
X210557Y199862D01*
X210395Y199612D01*
X210207Y199387D01*
X209995Y199162D01*
X209982Y199150D01*
X209945Y199112D01*
X209870Y199050D01*
X209770Y198987D01*
X209657Y198887D01*
X209507Y198800D01*
X209345Y198687D01*
X209145Y198587D01*
X208932Y198475D01*
X208695Y198362D01*
X208445Y198275D01*
X208170Y198188D01*
X207883Y198113D01*
X207570Y198050D01*
X207245Y198013D01*
X206896Y198000D01*
X206821D01*
X206733Y198013D01*
X206621D01*
X206471Y198025D01*
X206308Y198050D01*
X206121Y198088D01*
X205908Y198125D01*
X205696Y198175D01*
X205471Y198250D01*
X205233Y198325D01*
X205009Y198425D01*
X204771Y198537D01*
X204534Y198675D01*
X204309Y198825D01*
X204096Y199000D01*
X204084Y199012D01*
X204046Y199050D01*
X203996Y199100D01*
X203921Y199187D01*
X203834Y199287D01*
X203734Y199400D01*
X203634Y199537D01*
X203521Y199700D01*
X203409Y199874D01*
X203296Y200075D01*
X203196Y200287D01*
X203097Y200524D01*
X203009Y200774D01*
X202934Y201037D01*
X202871Y201312D01*
X202834Y201612D01*
X204409Y201824D01*
Y201812D01*
X204421Y201761D01*
X204434Y201699D01*
X204459Y201599D01*
X204484Y201499D01*
X204521Y201362D01*
X204571Y201224D01*
X204621Y201074D01*
X204746Y200762D01*
X204909Y200437D01*
X205096Y200137D01*
X205208Y200012D01*
X205321Y199887D01*
X205333D01*
X205346Y199862D01*
X205383Y199837D01*
X205433Y199799D01*
X205496Y199750D01*
X205571Y199700D01*
X205758Y199600D01*
X205996Y199487D01*
X206271Y199387D01*
X206571Y199325D01*
X206733Y199312D01*
X206908Y199300D01*
X207020D01*
X207095Y199312D01*
X207195Y199325D01*
X207295Y199337D01*
X207420Y199362D01*
X207558Y199400D01*
X207858Y199487D01*
X208008Y199550D01*
X208170Y199625D01*
X208333Y199712D01*
X208483Y199812D01*
X208633Y199925D01*
X208783Y200062D01*
X208795Y200075D01*
X208820Y200100D01*
X208857Y200137D01*
X208908Y200199D01*
X208958Y200274D01*
X209020Y200362D01*
X209095Y200462D01*
X209170Y200587D01*
X209232Y200712D01*
X209307Y200862D01*
X209432Y201187D01*
X209470Y201362D01*
X209507Y201549D01*
X209532Y201749D01*
X209545Y201961D01*
Y201974D01*
Y202012D01*
Y202062D01*
X209532Y202149D01*
X209520Y202236D01*
X209507Y202349D01*
X209482Y202461D01*
X209457Y202599D01*
X209370Y202874D01*
X209320Y203024D01*
X209245Y203174D01*
X209157Y203324D01*
X209070Y203474D01*
X208958Y203611D01*
X208832Y203748D01*
X208820Y203761D01*
X208795Y203773D01*
X208757Y203811D01*
X208708Y203861D01*
X208633Y203911D01*
X208545Y203974D01*
X208458Y204036D01*
X208345Y204098D01*
X208220Y204161D01*
X208083Y204223D01*
X207770Y204336D01*
X207420Y204423D01*
X207233Y204436D01*
X207033Y204448D01*
X206958D01*
X206858Y204436D01*
X206733Y204423D01*
X206571Y204411D01*
X206383Y204386D01*
X206171Y204336D01*
X205933Y204286D01*
X206108Y205660D01*
X206133D01*
X206196Y205648D01*
X206283Y205636D01*
X206458D01*
X206533Y205648D01*
X206621D01*
X206721Y205660D01*
X206833Y205686D01*
X206958Y205698D01*
X207245Y205760D01*
X207545Y205861D01*
X207858Y205986D01*
X208170Y206160D01*
X208183Y206173D01*
X208208Y206185D01*
X208245Y206210D01*
X208295Y206260D01*
X208358Y206310D01*
X208433Y206385D01*
X208495Y206460D01*
X208583Y206560D01*
X208657Y206660D01*
X208720Y206785D01*
X208795Y206923D01*
X208857Y207060D01*
X208908Y207223D01*
X208945Y207398D01*
X208970Y207573D01*
X208983Y207773D01*
Y207785D01*
Y207810D01*
Y207860D01*
X208970Y207922D01*
Y207997D01*
X208958Y208085D01*
X208908Y208285D01*
X208845Y208510D01*
X208732Y208747D01*
X208595Y208985D01*
X208495Y209097D01*
X208395Y209210D01*
X208383Y209222D01*
X208370Y209235D01*
X208333Y209260D01*
X208295Y209297D01*
X208158Y209397D01*
X207983Y209497D01*
X207770Y209597D01*
X207508Y209697D01*
X207208Y209760D01*
X207058Y209785D01*
X206796D01*
X206733Y209772D01*
X206646D01*
X206558Y209760D01*
X206346Y209709D01*
X206096Y209647D01*
X205846Y209535D01*
X205583Y209397D01*
X205458Y209297D01*
X205346Y209197D01*
X205333Y209185D01*
X205321Y209172D01*
X205283Y209135D01*
X205246Y209085D01*
X205196Y209035D01*
X205146Y208960D01*
X205084Y208872D01*
X205021Y208772D01*
X204958Y208647D01*
X204883Y208522D01*
X204821Y208385D01*
X204758Y208222D01*
X204709Y208060D01*
X204646Y207873D01*
X204609Y207685D01*
X204571Y207473D01*
X202997Y207747D01*
Y207760D01*
X203009Y207822D01*
X203034Y207897D01*
X203059Y208010D01*
X203097Y208135D01*
X203146Y208297D01*
X203196Y208460D01*
X203271Y208647D01*
X203346Y208835D01*
X203446Y209035D01*
X203546Y209247D01*
X203671Y209447D01*
X203796Y209647D01*
X203946Y209847D01*
X204121Y210022D01*
X204296Y210197D01*
X204309Y210209D01*
X204346Y210234D01*
X204396Y210272D01*
X204484Y210334D01*
X204584Y210397D01*
X204696Y210472D01*
X204846Y210559D01*
X204996Y210634D01*
X205171Y210722D01*
X205371Y210797D01*
X205583Y210872D01*
X205808Y210934D01*
X206046Y210997D01*
X206296Y211034D01*
X206571Y211059D01*
X206845Y211072D01*
X206945D01*
X207020Y211059D01*
D02*
G37*
G36*
X182179Y210847D02*
X182316D01*
X182466Y210834D01*
X182641Y210809D01*
X182841Y210772D01*
X183066Y210734D01*
X183291Y210672D01*
X183528Y210609D01*
X183778Y210522D01*
X184016Y210422D01*
X184266Y210309D01*
X184491Y210172D01*
X184716Y210009D01*
X184928Y209834D01*
X184941Y209822D01*
X184978Y209785D01*
X185028Y209734D01*
X185091Y209647D01*
X185178Y209547D01*
X185266Y209435D01*
X185366Y209297D01*
X185466Y209135D01*
X185565Y208960D01*
X185665Y208760D01*
X185753Y208560D01*
X185840Y208335D01*
X185903Y208097D01*
X185953Y207835D01*
X185990Y207573D01*
X186003Y207298D01*
Y207285D01*
Y207260D01*
Y207223D01*
Y207173D01*
X185990Y207098D01*
Y207023D01*
X185965Y206823D01*
X185928Y206598D01*
X185865Y206335D01*
X185790Y206060D01*
X185678Y205786D01*
Y205773D01*
X185665Y205748D01*
X185640Y205711D01*
X185615Y205660D01*
X185578Y205586D01*
X185540Y205511D01*
X185428Y205311D01*
X185291Y205086D01*
X185103Y204811D01*
X184891Y204523D01*
X184628Y204223D01*
X184616Y204211D01*
X184591Y204186D01*
X184553Y204136D01*
X184491Y204074D01*
X184403Y203986D01*
X184316Y203886D01*
X184191Y203773D01*
X184053Y203636D01*
X183903Y203486D01*
X183716Y203311D01*
X183528Y203124D01*
X183304Y202924D01*
X183066Y202711D01*
X182804Y202474D01*
X182516Y202236D01*
X182216Y201974D01*
X182204Y201961D01*
X182154Y201924D01*
X182079Y201861D01*
X181991Y201786D01*
X181879Y201687D01*
X181754Y201574D01*
X181454Y201324D01*
X181154Y201062D01*
X180854Y200799D01*
X180717Y200674D01*
X180592Y200549D01*
X180479Y200449D01*
X180392Y200362D01*
X180379Y200349D01*
X180329Y200287D01*
X180254Y200199D01*
X180154Y200100D01*
X180054Y199962D01*
X179942Y199825D01*
X179829Y199675D01*
X179729Y199512D01*
X186015D01*
Y198000D01*
X177555D01*
Y198013D01*
Y198025D01*
Y198100D01*
Y198200D01*
X177568Y198350D01*
X177593Y198512D01*
X177617Y198700D01*
X177668Y198887D01*
X177730Y199087D01*
Y199100D01*
X177742Y199125D01*
X177767Y199175D01*
X177792Y199237D01*
X177830Y199312D01*
X177867Y199400D01*
X177980Y199625D01*
X178130Y199887D01*
X178305Y200175D01*
X178517Y200474D01*
X178767Y200787D01*
X178780Y200799D01*
X178805Y200824D01*
X178842Y200874D01*
X178905Y200937D01*
X178980Y201012D01*
X179067Y201112D01*
X179167Y201224D01*
X179292Y201349D01*
X179429Y201474D01*
X179580Y201624D01*
X179754Y201786D01*
X179929Y201961D01*
X180129Y202136D01*
X180342Y202324D01*
X180579Y202524D01*
X180817Y202724D01*
X180842Y202749D01*
X180904Y202799D01*
X181017Y202886D01*
X181154Y203011D01*
X181329Y203149D01*
X181516Y203324D01*
X181729Y203511D01*
X181954Y203711D01*
X182429Y204148D01*
X182891Y204598D01*
X183104Y204823D01*
X183304Y205048D01*
X183491Y205248D01*
X183641Y205448D01*
X183653Y205461D01*
X183678Y205498D01*
X183716Y205548D01*
X183753Y205623D01*
X183816Y205711D01*
X183878Y205811D01*
X183941Y205935D01*
X184016Y206060D01*
X184153Y206348D01*
X184278Y206660D01*
X184316Y206835D01*
X184353Y206998D01*
X184378Y207173D01*
X184391Y207335D01*
Y207348D01*
Y207373D01*
Y207423D01*
X184378Y207498D01*
X184366Y207573D01*
X184353Y207660D01*
X184303Y207885D01*
X184228Y208135D01*
X184103Y208397D01*
X184028Y208522D01*
X183941Y208660D01*
X183841Y208785D01*
X183716Y208910D01*
X183703Y208922D01*
X183691Y208935D01*
X183641Y208972D01*
X183591Y209010D01*
X183528Y209060D01*
X183441Y209110D01*
X183354Y209172D01*
X183241Y209235D01*
X183129Y209297D01*
X182991Y209360D01*
X182691Y209460D01*
X182354Y209535D01*
X182166Y209547D01*
X181966Y209560D01*
X181854D01*
X181779Y209547D01*
X181679Y209535D01*
X181567Y209522D01*
X181441Y209497D01*
X181317Y209472D01*
X181017Y209397D01*
X180717Y209272D01*
X180567Y209197D01*
X180417Y209097D01*
X180279Y208997D01*
X180142Y208872D01*
X180129Y208860D01*
X180117Y208847D01*
X180079Y208797D01*
X180042Y208747D01*
X179992Y208685D01*
X179929Y208597D01*
X179867Y208497D01*
X179804Y208385D01*
X179742Y208260D01*
X179679Y208122D01*
X179629Y207960D01*
X179567Y207798D01*
X179529Y207623D01*
X179492Y207423D01*
X179480Y207223D01*
X179467Y206998D01*
X177855Y207160D01*
Y207185D01*
X177867Y207235D01*
X177880Y207335D01*
X177892Y207460D01*
X177930Y207610D01*
X177967Y207785D01*
X178017Y207973D01*
X178067Y208185D01*
X178142Y208397D01*
X178230Y208622D01*
X178330Y208847D01*
X178442Y209085D01*
X178580Y209310D01*
X178730Y209522D01*
X178905Y209722D01*
X179092Y209909D01*
X179105Y209922D01*
X179142Y209947D01*
X179205Y209997D01*
X179292Y210059D01*
X179405Y210134D01*
X179529Y210209D01*
X179692Y210297D01*
X179867Y210384D01*
X180067Y210472D01*
X180279Y210559D01*
X180517Y210634D01*
X180779Y210709D01*
X181054Y210772D01*
X181354Y210822D01*
X181666Y210847D01*
X182004Y210859D01*
X182091D01*
X182179Y210847D01*
D02*
G37*
G36*
X415937Y34697D02*
X416062Y34685D01*
X416187Y34673D01*
X416337Y34648D01*
X416500Y34610D01*
X416837Y34523D01*
X417012Y34460D01*
X417200Y34385D01*
X417362Y34298D01*
X417537Y34185D01*
X417687Y34073D01*
X417837Y33935D01*
X417850Y33923D01*
X417874Y33898D01*
X417912Y33860D01*
X417949Y33798D01*
X418012Y33710D01*
X418074Y33610D01*
X418137Y33498D01*
X418212Y33360D01*
X418287Y33198D01*
X418349Y33023D01*
X418412Y32836D01*
X418474Y32623D01*
X418512Y32398D01*
X418549Y32148D01*
X418574Y31873D01*
X418587Y31586D01*
Y25212D01*
X417012D01*
Y31061D01*
Y31073D01*
Y31098D01*
Y31148D01*
Y31211D01*
Y31286D01*
X417000Y31386D01*
X416987Y31586D01*
X416975Y31798D01*
X416950Y32023D01*
X416900Y32236D01*
X416850Y32411D01*
X416837Y32436D01*
X416825Y32486D01*
X416787Y32561D01*
X416725Y32661D01*
X416650Y32761D01*
X416550Y32873D01*
X416437Y32985D01*
X416300Y33085D01*
X416287Y33098D01*
X416225Y33123D01*
X416150Y33173D01*
X416037Y33223D01*
X415900Y33260D01*
X415737Y33310D01*
X415563Y33335D01*
X415363Y33348D01*
X415263D01*
X415200Y33335D01*
X415113Y33323D01*
X415013Y33310D01*
X414788Y33260D01*
X414525Y33185D01*
X414250Y33073D01*
X414113Y32998D01*
X413988Y32910D01*
X413851Y32798D01*
X413726Y32685D01*
X413713Y32673D01*
X413700Y32661D01*
X413663Y32611D01*
X413625Y32561D01*
X413576Y32486D01*
X413526Y32411D01*
X413463Y32298D01*
X413413Y32186D01*
X413351Y32048D01*
X413288Y31886D01*
X413238Y31723D01*
X413188Y31536D01*
X413151Y31323D01*
X413113Y31098D01*
X413101Y30861D01*
X413088Y30599D01*
Y25212D01*
X411514D01*
Y31248D01*
Y31261D01*
Y31298D01*
Y31348D01*
Y31423D01*
X411501Y31511D01*
X411489Y31611D01*
X411464Y31836D01*
X411414Y32098D01*
X411351Y32361D01*
X411251Y32611D01*
X411126Y32823D01*
X411114Y32848D01*
X411051Y32910D01*
X410964Y32985D01*
X410826Y33085D01*
X410651Y33185D01*
X410439Y33260D01*
X410176Y33323D01*
X409877Y33348D01*
X409764D01*
X409639Y33335D01*
X409477Y33310D01*
X409289Y33260D01*
X409077Y33198D01*
X408852Y33110D01*
X408639Y32998D01*
X408614Y32985D01*
X408552Y32936D01*
X408452Y32848D01*
X408327Y32736D01*
X408189Y32598D01*
X408064Y32423D01*
X407939Y32211D01*
X407827Y31973D01*
Y31961D01*
X407814Y31948D01*
X407802Y31898D01*
X407789Y31848D01*
X407765Y31773D01*
X407752Y31698D01*
X407727Y31598D01*
X407702Y31473D01*
X407677Y31348D01*
X407652Y31198D01*
X407640Y31036D01*
X407615Y30861D01*
X407602Y30673D01*
X407590Y30474D01*
X407577Y30261D01*
Y30024D01*
Y25212D01*
X406003D01*
Y34498D01*
X407415D01*
Y33210D01*
X407440Y33223D01*
X407465Y33260D01*
X407490Y33310D01*
X407590Y33435D01*
X407727Y33585D01*
X407890Y33760D01*
X408089Y33948D01*
X408314Y34123D01*
X408577Y34285D01*
X408589D01*
X408614Y34298D01*
X408652Y34323D01*
X408702Y34348D01*
X408777Y34385D01*
X408852Y34423D01*
X409052Y34498D01*
X409302Y34573D01*
X409577Y34648D01*
X409889Y34697D01*
X410226Y34710D01*
X410326D01*
X410401Y34697D01*
X410489D01*
X410589Y34685D01*
X410826Y34660D01*
X411089Y34597D01*
X411376Y34523D01*
X411651Y34423D01*
X411913Y34273D01*
X411926D01*
X411939Y34248D01*
X412026Y34198D01*
X412138Y34098D01*
X412276Y33960D01*
X412426Y33798D01*
X412588Y33598D01*
X412726Y33360D01*
X412838Y33085D01*
X412851Y33098D01*
X412888Y33160D01*
X412951Y33235D01*
X413038Y33335D01*
X413151Y33460D01*
X413288Y33598D01*
X413438Y33748D01*
X413613Y33898D01*
X413813Y34048D01*
X414025Y34198D01*
X414263Y34335D01*
X414525Y34460D01*
X414788Y34560D01*
X415088Y34635D01*
X415388Y34697D01*
X415713Y34710D01*
X415850D01*
X415937Y34697D01*
D02*
G37*
G36*
X401029D02*
X401154Y34685D01*
X401279Y34673D01*
X401429Y34648D01*
X401591Y34610D01*
X401928Y34523D01*
X402104Y34460D01*
X402291Y34385D01*
X402453Y34298D01*
X402628Y34185D01*
X402778Y34073D01*
X402928Y33935D01*
X402941Y33923D01*
X402966Y33898D01*
X403003Y33860D01*
X403041Y33798D01*
X403103Y33710D01*
X403166Y33610D01*
X403228Y33498D01*
X403303Y33360D01*
X403378Y33198D01*
X403441Y33023D01*
X403503Y32836D01*
X403566Y32623D01*
X403603Y32398D01*
X403641Y32148D01*
X403666Y31873D01*
X403678Y31586D01*
Y25212D01*
X402104D01*
Y31061D01*
Y31073D01*
Y31098D01*
Y31148D01*
Y31211D01*
Y31286D01*
X402091Y31386D01*
X402079Y31586D01*
X402066Y31798D01*
X402041Y32023D01*
X401991Y32236D01*
X401941Y32411D01*
X401928Y32436D01*
X401916Y32486D01*
X401879Y32561D01*
X401816Y32661D01*
X401741Y32761D01*
X401641Y32873D01*
X401529Y32985D01*
X401391Y33085D01*
X401379Y33098D01*
X401316Y33123D01*
X401241Y33173D01*
X401129Y33223D01*
X400991Y33260D01*
X400829Y33310D01*
X400654Y33335D01*
X400454Y33348D01*
X400354D01*
X400291Y33335D01*
X400204Y33323D01*
X400104Y33310D01*
X399879Y33260D01*
X399617Y33185D01*
X399342Y33073D01*
X399204Y32998D01*
X399079Y32910D01*
X398942Y32798D01*
X398817Y32685D01*
X398804Y32673D01*
X398792Y32661D01*
X398754Y32611D01*
X398717Y32561D01*
X398667Y32486D01*
X398617Y32411D01*
X398554Y32298D01*
X398504Y32186D01*
X398442Y32048D01*
X398379Y31886D01*
X398330Y31723D01*
X398279Y31536D01*
X398242Y31323D01*
X398204Y31098D01*
X398192Y30861D01*
X398180Y30599D01*
Y25212D01*
X396605D01*
Y31248D01*
Y31261D01*
Y31298D01*
Y31348D01*
Y31423D01*
X396592Y31511D01*
X396580Y31611D01*
X396555Y31836D01*
X396505Y32098D01*
X396442Y32361D01*
X396343Y32611D01*
X396217Y32823D01*
X396205Y32848D01*
X396143Y32910D01*
X396055Y32985D01*
X395918Y33085D01*
X395743Y33185D01*
X395530Y33260D01*
X395268Y33323D01*
X394968Y33348D01*
X394855D01*
X394730Y33335D01*
X394568Y33310D01*
X394380Y33260D01*
X394168Y33198D01*
X393943Y33110D01*
X393731Y32998D01*
X393706Y32985D01*
X393643Y32936D01*
X393543Y32848D01*
X393418Y32736D01*
X393281Y32598D01*
X393156Y32423D01*
X393031Y32211D01*
X392918Y31973D01*
Y31961D01*
X392906Y31948D01*
X392893Y31898D01*
X392881Y31848D01*
X392856Y31773D01*
X392843Y31698D01*
X392818Y31598D01*
X392793Y31473D01*
X392768Y31348D01*
X392743Y31198D01*
X392731Y31036D01*
X392706Y30861D01*
X392693Y30673D01*
X392681Y30474D01*
X392668Y30261D01*
Y30024D01*
Y25212D01*
X391094D01*
Y34498D01*
X392506D01*
Y33210D01*
X392531Y33223D01*
X392556Y33260D01*
X392581Y33310D01*
X392681Y33435D01*
X392818Y33585D01*
X392981Y33760D01*
X393181Y33948D01*
X393406Y34123D01*
X393668Y34285D01*
X393681D01*
X393706Y34298D01*
X393743Y34323D01*
X393793Y34348D01*
X393868Y34385D01*
X393943Y34423D01*
X394143Y34498D01*
X394393Y34573D01*
X394668Y34648D01*
X394980Y34697D01*
X395318Y34710D01*
X395418D01*
X395493Y34697D01*
X395580D01*
X395680Y34685D01*
X395918Y34660D01*
X396180Y34597D01*
X396467Y34523D01*
X396742Y34423D01*
X397005Y34273D01*
X397017D01*
X397030Y34248D01*
X397117Y34198D01*
X397230Y34098D01*
X397367Y33960D01*
X397517Y33798D01*
X397680Y33598D01*
X397817Y33360D01*
X397930Y33085D01*
X397942Y33098D01*
X397980Y33160D01*
X398042Y33235D01*
X398130Y33335D01*
X398242Y33460D01*
X398379Y33598D01*
X398529Y33748D01*
X398704Y33898D01*
X398904Y34048D01*
X399117Y34198D01*
X399354Y34335D01*
X399617Y34460D01*
X399879Y34560D01*
X400179Y34635D01*
X400479Y34697D01*
X400804Y34710D01*
X400941D01*
X401029Y34697D01*
D02*
G37*
G36*
X430109Y29062D02*
X425273D01*
Y30649D01*
X430109D01*
Y29062D01*
D02*
G37*
G36*
X472073Y36510D02*
X467837D01*
Y25213D01*
X466137D01*
Y36510D01*
X461913D01*
Y38022D01*
X472073D01*
Y36510D01*
D02*
G37*
G36*
X442118Y38009D02*
X442268Y37997D01*
X442431Y37984D01*
X442593Y37972D01*
X442968Y37922D01*
X443368Y37859D01*
X443755Y37759D01*
X443930Y37697D01*
X444105Y37622D01*
X444118D01*
X444143Y37609D01*
X444193Y37584D01*
X444255Y37547D01*
X444330Y37509D01*
X444418Y37459D01*
X444618Y37322D01*
X444830Y37159D01*
X445067Y36947D01*
X445292Y36709D01*
X445492Y36422D01*
Y36410D01*
X445517Y36385D01*
X445542Y36347D01*
X445567Y36285D01*
X445617Y36210D01*
X445655Y36122D01*
X445755Y35910D01*
X445842Y35660D01*
X445930Y35372D01*
X445980Y35060D01*
X446005Y34735D01*
Y34722D01*
Y34697D01*
Y34660D01*
X445992Y34598D01*
Y34523D01*
X445980Y34435D01*
X445955Y34235D01*
X445892Y33998D01*
X445817Y33735D01*
X445705Y33460D01*
X445555Y33185D01*
Y33173D01*
X445530Y33148D01*
X445505Y33110D01*
X445467Y33061D01*
X445367Y32936D01*
X445217Y32773D01*
X445030Y32586D01*
X444793Y32386D01*
X444518Y32198D01*
X444205Y32023D01*
X444218D01*
X444255Y32011D01*
X444318Y31986D01*
X444393Y31961D01*
X444493Y31923D01*
X444605Y31873D01*
X444868Y31748D01*
X445155Y31586D01*
X445455Y31386D01*
X445742Y31136D01*
X445867Y30998D01*
X445992Y30849D01*
X446005Y30836D01*
X446017Y30811D01*
X446055Y30761D01*
X446092Y30699D01*
X446142Y30624D01*
X446192Y30536D01*
X446255Y30424D01*
X446317Y30299D01*
X446367Y30161D01*
X446430Y30024D01*
X446530Y29686D01*
X446605Y29324D01*
X446617Y29124D01*
X446630Y28911D01*
Y28899D01*
Y28874D01*
Y28824D01*
Y28762D01*
X446617Y28674D01*
X446605Y28587D01*
X446580Y28362D01*
X446530Y28112D01*
X446467Y27824D01*
X446367Y27537D01*
X446242Y27237D01*
Y27225D01*
X446230Y27199D01*
X446205Y27162D01*
X446180Y27112D01*
X446092Y26974D01*
X445980Y26800D01*
X445855Y26612D01*
X445692Y26412D01*
X445505Y26225D01*
X445305Y26050D01*
X445280Y26037D01*
X445205Y25987D01*
X445080Y25912D01*
X444917Y25812D01*
X444718Y25712D01*
X444468Y25612D01*
X444193Y25512D01*
X443893Y25425D01*
X443880D01*
X443855Y25412D01*
X443805Y25400D01*
X443743Y25387D01*
X443668Y25375D01*
X443568Y25362D01*
X443455Y25337D01*
X443318Y25325D01*
X443181Y25300D01*
X443018Y25275D01*
X442856Y25262D01*
X442668Y25250D01*
X442268Y25225D01*
X441831Y25213D01*
X436957Y25212D01*
Y38022D01*
X441993Y38022D01*
X442118Y38009D01*
D02*
G37*
G36*
X378410Y25212D02*
X376623D01*
Y26999D01*
X378410D01*
Y25212D01*
D02*
G37*
G36*
X371711D02*
X370137D01*
Y35222D01*
X370124D01*
X370112Y35197D01*
X370074Y35172D01*
X370037Y35135D01*
X369912Y35022D01*
X369737Y34885D01*
X369524Y34722D01*
X369262Y34535D01*
X368962Y34335D01*
X368637Y34135D01*
X368625D01*
X368600Y34110D01*
X368550Y34085D01*
X368487Y34048D01*
X368400Y33998D01*
X368312Y33948D01*
X368087Y33835D01*
X367837Y33710D01*
X367562Y33573D01*
X367275Y33448D01*
X367000Y33335D01*
Y34848D01*
X367012Y34860D01*
X367062Y34873D01*
X367125Y34910D01*
X367225Y34960D01*
X367337Y35022D01*
X367462Y35097D01*
X367612Y35172D01*
X367775Y35272D01*
X368137Y35485D01*
X368525Y35747D01*
X368912Y36035D01*
X369299Y36347D01*
X369312Y36360D01*
X369337Y36385D01*
X369399Y36435D01*
X369462Y36497D01*
X369537Y36584D01*
X369637Y36672D01*
X369737Y36785D01*
X369849Y36897D01*
X370074Y37159D01*
X370299Y37447D01*
X370512Y37759D01*
X370612Y37909D01*
X370686Y38072D01*
X371711D01*
Y25212D01*
D02*
G37*
G36*
X454878Y38234D02*
X455027Y38222D01*
X455215Y38197D01*
X455415Y38172D01*
X455640Y38147D01*
X455890Y38097D01*
X456140Y38034D01*
X456402Y37972D01*
X456677Y37884D01*
X456952Y37797D01*
X457227Y37672D01*
X457502Y37547D01*
X457777Y37397D01*
X457789Y37384D01*
X457839Y37359D01*
X457914Y37309D01*
X458014Y37247D01*
X458127Y37159D01*
X458264Y37047D01*
X458414Y36922D01*
X458589Y36785D01*
X458751Y36622D01*
X458939Y36447D01*
X459114Y36247D01*
X459301Y36035D01*
X459476Y35810D01*
X459639Y35560D01*
X459801Y35297D01*
X459951Y35022D01*
X459964Y35010D01*
X459989Y34960D01*
X460026Y34873D01*
X460064Y34760D01*
X460126Y34610D01*
X460189Y34448D01*
X460251Y34248D01*
X460326Y34023D01*
X460401Y33785D01*
X460463Y33523D01*
X460526Y33235D01*
X460588Y32936D01*
X460626Y32623D01*
X460663Y32298D01*
X460689Y31948D01*
X460701Y31598D01*
Y31573D01*
Y31511D01*
Y31411D01*
X460689Y31273D01*
X460676Y31098D01*
X460663Y30898D01*
X460639Y30674D01*
X460601Y30436D01*
X460564Y30174D01*
X460513Y29886D01*
X460451Y29599D01*
X460364Y29311D01*
X460276Y28999D01*
X460176Y28699D01*
X460051Y28399D01*
X459914Y28112D01*
X459901Y28099D01*
X459876Y28049D01*
X459826Y27962D01*
X459764Y27862D01*
X459689Y27737D01*
X459589Y27587D01*
X459476Y27424D01*
X459339Y27250D01*
X459189Y27062D01*
X459026Y26874D01*
X458839Y26675D01*
X458639Y26487D01*
X458427Y26300D01*
X458189Y26112D01*
X457939Y25950D01*
X457677Y25787D01*
X457664Y25775D01*
X457614Y25750D01*
X457539Y25712D01*
X457427Y25662D01*
X457289Y25600D01*
X457139Y25537D01*
X456952Y25462D01*
X456752Y25400D01*
X456527Y25325D01*
X456290Y25250D01*
X456027Y25187D01*
X455752Y25125D01*
X455477Y25075D01*
X455177Y25038D01*
X454878Y25013D01*
X454565Y25000D01*
X454390D01*
X454265Y25013D01*
X454103Y25025D01*
X453915Y25050D01*
X453715Y25075D01*
X453478Y25113D01*
X453240Y25150D01*
X452978Y25213D01*
X452715Y25275D01*
X452441Y25362D01*
X452153Y25462D01*
X451878Y25575D01*
X451603Y25712D01*
X451328Y25862D01*
X451316Y25875D01*
X451266Y25900D01*
X451191Y25950D01*
X451091Y26025D01*
X450979Y26112D01*
X450841Y26225D01*
X450691Y26350D01*
X450529Y26487D01*
X450354Y26650D01*
X450179Y26825D01*
X449991Y27025D01*
X449816Y27237D01*
X449641Y27462D01*
X449466Y27712D01*
X449316Y27974D01*
X449166Y28249D01*
X449154Y28262D01*
X449141Y28312D01*
X449104Y28399D01*
X449054Y28512D01*
X449004Y28649D01*
X448941Y28812D01*
X448867Y29011D01*
X448804Y29211D01*
X448741Y29449D01*
X448667Y29699D01*
X448604Y29961D01*
X448554Y30236D01*
X448504Y30524D01*
X448479Y30824D01*
X448454Y31136D01*
X448442Y31448D01*
Y31461D01*
Y31486D01*
Y31523D01*
Y31586D01*
X448454Y31661D01*
Y31761D01*
Y31861D01*
X448467Y31973D01*
X448492Y32248D01*
X448529Y32548D01*
X448592Y32898D01*
X448654Y33273D01*
X448741Y33660D01*
X448854Y34073D01*
X449004Y34485D01*
X449166Y34897D01*
X449366Y35310D01*
X449591Y35710D01*
X449854Y36085D01*
X450154Y36435D01*
X450179Y36460D01*
X450229Y36510D01*
X450329Y36597D01*
X450466Y36722D01*
X450629Y36860D01*
X450841Y37009D01*
X451078Y37172D01*
X451353Y37347D01*
X451653Y37509D01*
X451991Y37672D01*
X452353Y37822D01*
X452741Y37959D01*
X453165Y38084D01*
X453615Y38172D01*
X454078Y38222D01*
X454578Y38247D01*
X454753D01*
X454878Y38234D01*
D02*
G37*
G36*
X385145Y38059D02*
X385245Y38047D01*
X385370Y38034D01*
X385495Y38022D01*
X385770Y37972D01*
X386070Y37897D01*
X386382Y37784D01*
X386682Y37647D01*
X386695D01*
X386720Y37622D01*
X386757Y37609D01*
X386820Y37572D01*
X386957Y37472D01*
X387145Y37347D01*
X387345Y37172D01*
X387557Y36972D01*
X387770Y36722D01*
X387970Y36447D01*
Y36435D01*
X387995Y36410D01*
X388020Y36372D01*
X388057Y36310D01*
X388095Y36235D01*
X388145Y36147D01*
X388195Y36035D01*
X388257Y35922D01*
X388320Y35785D01*
X388382Y35647D01*
X388507Y35322D01*
X388644Y34948D01*
X388757Y34548D01*
Y34535D01*
X388769Y34498D01*
X388782Y34435D01*
X388807Y34348D01*
X388832Y34235D01*
X388857Y34098D01*
X388882Y33935D01*
X388907Y33748D01*
X388932Y33548D01*
X388957Y33310D01*
X388982Y33073D01*
X389007Y32798D01*
X389032Y32511D01*
X389044Y32198D01*
X389057Y31873D01*
Y31523D01*
Y31498D01*
Y31423D01*
Y31311D01*
X389044Y31148D01*
Y30961D01*
X389032Y30736D01*
X389019Y30499D01*
X388994Y30224D01*
X388969Y29936D01*
X388944Y29649D01*
X388857Y29037D01*
X388744Y28437D01*
X388669Y28162D01*
X388582Y27887D01*
Y27874D01*
X388557Y27824D01*
X388532Y27749D01*
X388494Y27662D01*
X388445Y27537D01*
X388382Y27412D01*
X388320Y27262D01*
X388232Y27099D01*
X388045Y26762D01*
X387807Y26400D01*
X387520Y26062D01*
X387357Y25900D01*
X387195Y25750D01*
X387182Y25737D01*
X387157Y25712D01*
X387107Y25675D01*
X387032Y25637D01*
X386945Y25575D01*
X386832Y25512D01*
X386707Y25450D01*
X386570Y25375D01*
X386408Y25300D01*
X386233Y25237D01*
X386045Y25175D01*
X385833Y25113D01*
X385620Y25075D01*
X385383Y25038D01*
X385145Y25013D01*
X384883Y25000D01*
X384795D01*
X384708Y25013D01*
X384571Y25025D01*
X384421Y25038D01*
X384233Y25075D01*
X384033Y25113D01*
X383821Y25162D01*
X383596Y25237D01*
X383358Y25325D01*
X383108Y25425D01*
X382871Y25550D01*
X382634Y25700D01*
X382396Y25875D01*
X382171Y26087D01*
X381971Y26312D01*
X381959Y26337D01*
X381921Y26387D01*
X381859Y26487D01*
X381771Y26625D01*
X381684Y26799D01*
X381571Y27012D01*
X381459Y27274D01*
X381346Y27574D01*
X381221Y27912D01*
X381109Y28299D01*
X380996Y28724D01*
X380909Y29186D01*
X380821Y29711D01*
X380759Y30261D01*
X380722Y30873D01*
X380709Y31523D01*
Y31536D01*
Y31548D01*
Y31623D01*
Y31748D01*
X380722Y31898D01*
Y32098D01*
X380734Y32311D01*
X380746Y32561D01*
X380771Y32836D01*
X380796Y33123D01*
X380821Y33423D01*
X380909Y34023D01*
X381021Y34635D01*
X381096Y34910D01*
X381171Y35185D01*
Y35197D01*
X381196Y35247D01*
X381221Y35322D01*
X381259Y35410D01*
X381309Y35535D01*
X381371Y35660D01*
X381434Y35810D01*
X381521Y35972D01*
X381709Y36322D01*
X381946Y36672D01*
X382234Y37009D01*
X382396Y37172D01*
X382559Y37322D01*
X382571Y37334D01*
X382596Y37359D01*
X382659Y37397D01*
X382721Y37434D01*
X382821Y37497D01*
X382921Y37559D01*
X383058Y37622D01*
X383196Y37697D01*
X383358Y37772D01*
X383533Y37834D01*
X383721Y37897D01*
X383933Y37959D01*
X384146Y37997D01*
X384383Y38034D01*
X384621Y38059D01*
X384883Y38072D01*
X385058D01*
X385145Y38059D01*
D02*
G37*
G36*
X417150Y53866D02*
X417275Y53854D01*
X417400Y53841D01*
X417550Y53816D01*
X417712Y53779D01*
X418049Y53691D01*
X418224Y53629D01*
X418412Y53554D01*
X418574Y53466D01*
X418749Y53354D01*
X418899Y53242D01*
X419049Y53104D01*
X419062Y53092D01*
X419087Y53067D01*
X419124Y53029D01*
X419162Y52967D01*
X419224Y52879D01*
X419287Y52779D01*
X419349Y52667D01*
X419424Y52529D01*
X419499Y52367D01*
X419562Y52192D01*
X419624Y52004D01*
X419687Y51792D01*
X419724Y51567D01*
X419762Y51317D01*
X419786Y51042D01*
X419799Y50755D01*
Y44381D01*
X418224D01*
Y50230D01*
Y50242D01*
Y50267D01*
Y50317D01*
Y50380D01*
Y50455D01*
X418212Y50555D01*
X418199Y50755D01*
X418187Y50967D01*
X418162Y51192D01*
X418112Y51405D01*
X418062Y51579D01*
X418049Y51604D01*
X418037Y51654D01*
X417999Y51729D01*
X417937Y51829D01*
X417862Y51929D01*
X417762Y52042D01*
X417649Y52154D01*
X417512Y52254D01*
X417500Y52267D01*
X417437Y52292D01*
X417362Y52342D01*
X417250Y52392D01*
X417112Y52429D01*
X416950Y52479D01*
X416775Y52504D01*
X416575Y52517D01*
X416475D01*
X416412Y52504D01*
X416325Y52492D01*
X416225Y52479D01*
X416000Y52429D01*
X415737Y52354D01*
X415463Y52242D01*
X415325Y52167D01*
X415200Y52079D01*
X415063Y51967D01*
X414938Y51854D01*
X414925Y51842D01*
X414913Y51829D01*
X414875Y51779D01*
X414838Y51729D01*
X414788Y51654D01*
X414738Y51579D01*
X414675Y51467D01*
X414625Y51354D01*
X414563Y51217D01*
X414500Y51055D01*
X414450Y50892D01*
X414400Y50705D01*
X414363Y50492D01*
X414325Y50267D01*
X414313Y50030D01*
X414300Y49767D01*
Y44381D01*
X412726D01*
Y50417D01*
Y50430D01*
Y50467D01*
Y50517D01*
Y50592D01*
X412713Y50680D01*
X412701Y50780D01*
X412676Y51005D01*
X412626Y51267D01*
X412563Y51529D01*
X412463Y51779D01*
X412338Y51992D01*
X412326Y52017D01*
X412263Y52079D01*
X412176Y52154D01*
X412038Y52254D01*
X411864Y52354D01*
X411651Y52429D01*
X411389Y52492D01*
X411089Y52517D01*
X410976D01*
X410851Y52504D01*
X410689Y52479D01*
X410501Y52429D01*
X410289Y52367D01*
X410064Y52279D01*
X409851Y52167D01*
X409827Y52154D01*
X409764Y52104D01*
X409664Y52017D01*
X409539Y51904D01*
X409402Y51767D01*
X409277Y51592D01*
X409152Y51379D01*
X409039Y51142D01*
Y51129D01*
X409027Y51117D01*
X409014Y51067D01*
X409002Y51017D01*
X408977Y50942D01*
X408964Y50867D01*
X408939Y50767D01*
X408914Y50642D01*
X408889Y50517D01*
X408864Y50367D01*
X408852Y50205D01*
X408827Y50030D01*
X408814Y49842D01*
X408802Y49642D01*
X408789Y49430D01*
Y49193D01*
Y44381D01*
X407215D01*
Y53666D01*
X408627D01*
Y52379D01*
X408652Y52392D01*
X408677Y52429D01*
X408702Y52479D01*
X408802Y52604D01*
X408939Y52754D01*
X409102Y52929D01*
X409302Y53116D01*
X409527Y53292D01*
X409789Y53454D01*
X409801D01*
X409827Y53466D01*
X409864Y53491D01*
X409914Y53516D01*
X409989Y53554D01*
X410064Y53591D01*
X410264Y53666D01*
X410514Y53741D01*
X410789Y53816D01*
X411101Y53866D01*
X411439Y53879D01*
X411539D01*
X411614Y53866D01*
X411701D01*
X411801Y53854D01*
X412038Y53829D01*
X412301Y53766D01*
X412588Y53691D01*
X412863Y53591D01*
X413126Y53441D01*
X413138D01*
X413151Y53417D01*
X413238Y53366D01*
X413351Y53267D01*
X413488Y53129D01*
X413638Y52967D01*
X413801Y52767D01*
X413938Y52529D01*
X414050Y52254D01*
X414063Y52267D01*
X414100Y52329D01*
X414163Y52404D01*
X414250Y52504D01*
X414363Y52629D01*
X414500Y52767D01*
X414650Y52917D01*
X414825Y53067D01*
X415025Y53217D01*
X415238Y53366D01*
X415475Y53504D01*
X415737Y53629D01*
X416000Y53729D01*
X416300Y53804D01*
X416600Y53866D01*
X416925Y53879D01*
X417062D01*
X417150Y53866D01*
D02*
G37*
G36*
X402241D02*
X402366Y53854D01*
X402491Y53841D01*
X402641Y53816D01*
X402803Y53779D01*
X403141Y53691D01*
X403316Y53629D01*
X403503Y53554D01*
X403666Y53466D01*
X403840Y53354D01*
X403991Y53242D01*
X404141Y53104D01*
X404153Y53092D01*
X404178Y53067D01*
X404215Y53029D01*
X404253Y52967D01*
X404315Y52879D01*
X404378Y52779D01*
X404440Y52667D01*
X404515Y52529D01*
X404590Y52367D01*
X404653Y52192D01*
X404715Y52004D01*
X404778Y51792D01*
X404815Y51567D01*
X404853Y51317D01*
X404878Y51042D01*
X404890Y50755D01*
Y44381D01*
X403316D01*
Y50230D01*
Y50242D01*
Y50267D01*
Y50317D01*
Y50380D01*
Y50455D01*
X403303Y50555D01*
X403291Y50755D01*
X403278Y50967D01*
X403253Y51192D01*
X403203Y51405D01*
X403153Y51579D01*
X403141Y51604D01*
X403128Y51654D01*
X403091Y51729D01*
X403028Y51829D01*
X402953Y51929D01*
X402853Y52042D01*
X402741Y52154D01*
X402603Y52254D01*
X402591Y52267D01*
X402528Y52292D01*
X402453Y52342D01*
X402341Y52392D01*
X402203Y52429D01*
X402041Y52479D01*
X401866Y52504D01*
X401666Y52517D01*
X401566D01*
X401504Y52504D01*
X401416Y52492D01*
X401316Y52479D01*
X401091Y52429D01*
X400829Y52354D01*
X400554Y52242D01*
X400416Y52167D01*
X400291Y52079D01*
X400154Y51967D01*
X400029Y51854D01*
X400017Y51842D01*
X400004Y51829D01*
X399967Y51779D01*
X399929Y51729D01*
X399879Y51654D01*
X399829Y51579D01*
X399767Y51467D01*
X399717Y51354D01*
X399654Y51217D01*
X399592Y51055D01*
X399542Y50892D01*
X399492Y50705D01*
X399454Y50492D01*
X399417Y50267D01*
X399404Y50030D01*
X399392Y49767D01*
Y44381D01*
X397817D01*
Y50417D01*
Y50430D01*
Y50467D01*
Y50517D01*
Y50592D01*
X397805Y50680D01*
X397792Y50780D01*
X397767Y51005D01*
X397717Y51267D01*
X397655Y51529D01*
X397555Y51779D01*
X397430Y51992D01*
X397417Y52017D01*
X397355Y52079D01*
X397267Y52154D01*
X397130Y52254D01*
X396955Y52354D01*
X396742Y52429D01*
X396480Y52492D01*
X396180Y52517D01*
X396068D01*
X395943Y52504D01*
X395780Y52479D01*
X395593Y52429D01*
X395380Y52367D01*
X395155Y52279D01*
X394943Y52167D01*
X394918Y52154D01*
X394855Y52104D01*
X394755Y52017D01*
X394630Y51904D01*
X394493Y51767D01*
X394368Y51592D01*
X394243Y51379D01*
X394131Y51142D01*
Y51129D01*
X394118Y51117D01*
X394105Y51067D01*
X394093Y51017D01*
X394068Y50942D01*
X394055Y50867D01*
X394031Y50767D01*
X394006Y50642D01*
X393981Y50517D01*
X393956Y50367D01*
X393943Y50205D01*
X393918Y50030D01*
X393906Y49842D01*
X393893Y49642D01*
X393881Y49430D01*
Y49193D01*
Y44381D01*
X392306D01*
Y53666D01*
X393718D01*
Y52379D01*
X393743Y52392D01*
X393768Y52429D01*
X393793Y52479D01*
X393893Y52604D01*
X394031Y52754D01*
X394193Y52929D01*
X394393Y53116D01*
X394618Y53292D01*
X394880Y53454D01*
X394893D01*
X394918Y53466D01*
X394955Y53491D01*
X395005Y53516D01*
X395080Y53554D01*
X395155Y53591D01*
X395355Y53666D01*
X395605Y53741D01*
X395880Y53816D01*
X396193Y53866D01*
X396530Y53879D01*
X396630D01*
X396705Y53866D01*
X396792D01*
X396892Y53854D01*
X397130Y53829D01*
X397392Y53766D01*
X397680Y53691D01*
X397955Y53591D01*
X398217Y53441D01*
X398229D01*
X398242Y53417D01*
X398330Y53366D01*
X398442Y53267D01*
X398579Y53129D01*
X398729Y52967D01*
X398892Y52767D01*
X399029Y52529D01*
X399142Y52254D01*
X399154Y52267D01*
X399192Y52329D01*
X399254Y52404D01*
X399342Y52504D01*
X399454Y52629D01*
X399592Y52767D01*
X399742Y52917D01*
X399916Y53067D01*
X400117Y53217D01*
X400329Y53366D01*
X400566Y53504D01*
X400829Y53629D01*
X401091Y53729D01*
X401391Y53804D01*
X401691Y53866D01*
X402016Y53879D01*
X402154D01*
X402241Y53866D01*
D02*
G37*
G36*
X431321Y48230D02*
X426485D01*
Y49817D01*
X431321D01*
Y48230D01*
D02*
G37*
G36*
X389819Y55528D02*
X384683D01*
X383996Y52067D01*
X384008Y52079D01*
X384046Y52104D01*
X384108Y52142D01*
X384196Y52192D01*
X384296Y52254D01*
X384433Y52329D01*
X384571Y52392D01*
X384733Y52479D01*
X384908Y52554D01*
X385095Y52617D01*
X385508Y52754D01*
X385720Y52804D01*
X385945Y52842D01*
X386183Y52867D01*
X386420Y52879D01*
X386495D01*
X386582Y52867D01*
X386707D01*
X386845Y52842D01*
X387020Y52817D01*
X387207Y52779D01*
X387407Y52729D01*
X387620Y52667D01*
X387857Y52592D01*
X388095Y52504D01*
X388332Y52392D01*
X388569Y52254D01*
X388807Y52104D01*
X389032Y51917D01*
X389257Y51717D01*
X389269Y51704D01*
X389307Y51667D01*
X389369Y51592D01*
X389444Y51504D01*
X389532Y51392D01*
X389619Y51255D01*
X389732Y51092D01*
X389844Y50905D01*
X389944Y50705D01*
X390057Y50480D01*
X390144Y50230D01*
X390244Y49967D01*
X390307Y49680D01*
X390369Y49380D01*
X390406Y49055D01*
X390419Y48718D01*
Y48693D01*
Y48643D01*
X390406Y48555D01*
Y48430D01*
X390394Y48280D01*
X390369Y48105D01*
X390331Y47905D01*
X390294Y47693D01*
X390232Y47468D01*
X390169Y47218D01*
X390082Y46968D01*
X389982Y46718D01*
X389869Y46468D01*
X389732Y46206D01*
X389569Y45956D01*
X389394Y45718D01*
X389382Y45706D01*
X389332Y45656D01*
X389269Y45581D01*
X389169Y45481D01*
X389044Y45356D01*
X388894Y45231D01*
X388719Y45094D01*
X388520Y44944D01*
X388282Y44794D01*
X388032Y44656D01*
X387757Y44531D01*
X387457Y44406D01*
X387132Y44306D01*
X386795Y44231D01*
X386420Y44181D01*
X386033Y44169D01*
X385958D01*
X385870Y44181D01*
X385745D01*
X385595Y44194D01*
X385420Y44219D01*
X385233Y44256D01*
X385020Y44294D01*
X384795Y44344D01*
X384571Y44406D01*
X384333Y44481D01*
X384083Y44581D01*
X383846Y44694D01*
X383608Y44819D01*
X383383Y44969D01*
X383171Y45144D01*
X383158Y45156D01*
X383121Y45194D01*
X383071Y45244D01*
X382996Y45318D01*
X382908Y45419D01*
X382821Y45543D01*
X382709Y45681D01*
X382608Y45831D01*
X382496Y46006D01*
X382383Y46206D01*
X382284Y46418D01*
X382184Y46656D01*
X382096Y46906D01*
X382021Y47168D01*
X381959Y47443D01*
X381921Y47743D01*
X383571Y47880D01*
Y47868D01*
X383583Y47830D01*
X383596Y47768D01*
X383608Y47680D01*
X383633Y47580D01*
X383658Y47468D01*
X383746Y47193D01*
X383858Y46906D01*
X383996Y46606D01*
X384183Y46306D01*
X384296Y46181D01*
X384408Y46056D01*
X384421Y46043D01*
X384445Y46031D01*
X384483Y46006D01*
X384533Y45968D01*
X384595Y45918D01*
X384670Y45868D01*
X384870Y45756D01*
X385108Y45643D01*
X385383Y45556D01*
X385695Y45481D01*
X385858Y45469D01*
X386033Y45456D01*
X386145D01*
X386220Y45469D01*
X386320Y45481D01*
X386432Y45506D01*
X386558Y45531D01*
X386695Y45568D01*
X387007Y45668D01*
X387157Y45731D01*
X387320Y45818D01*
X387482Y45918D01*
X387645Y46031D01*
X387807Y46156D01*
X387957Y46306D01*
X387970Y46318D01*
X387995Y46343D01*
X388032Y46393D01*
X388082Y46468D01*
X388145Y46543D01*
X388207Y46656D01*
X388282Y46781D01*
X388357Y46918D01*
X388419Y47068D01*
X388494Y47243D01*
X388557Y47431D01*
X388619Y47630D01*
X388669Y47843D01*
X388707Y48080D01*
X388732Y48318D01*
X388744Y48580D01*
Y48593D01*
Y48643D01*
Y48705D01*
X388732Y48805D01*
X388719Y48918D01*
X388707Y49043D01*
X388682Y49193D01*
X388644Y49355D01*
X388557Y49692D01*
X388494Y49867D01*
X388419Y50042D01*
X388332Y50217D01*
X388232Y50392D01*
X388120Y50555D01*
X387982Y50705D01*
X387970Y50717D01*
X387945Y50742D01*
X387907Y50780D01*
X387845Y50830D01*
X387770Y50892D01*
X387682Y50955D01*
X387570Y51030D01*
X387457Y51104D01*
X387320Y51167D01*
X387170Y51242D01*
X387007Y51304D01*
X386832Y51367D01*
X386632Y51417D01*
X386432Y51455D01*
X386220Y51479D01*
X385995Y51492D01*
X385870D01*
X385795Y51479D01*
X385720D01*
X385533Y51455D01*
X385320Y51405D01*
X385095Y51342D01*
X384858Y51255D01*
X384621Y51142D01*
X384608D01*
X384595Y51129D01*
X384520Y51080D01*
X384408Y51005D01*
X384283Y50905D01*
X384121Y50767D01*
X383971Y50617D01*
X383808Y50442D01*
X383671Y50255D01*
X382196Y50442D01*
X383433Y57028D01*
X389819D01*
Y55528D01*
D02*
G37*
G36*
X468487Y57178D02*
X468637D01*
X468949Y57165D01*
X469274Y57140D01*
X469586Y57103D01*
X469736Y57091D01*
X469861Y57066D01*
X469874D01*
X469899Y57053D01*
X469949D01*
X470024Y57028D01*
X470099Y57016D01*
X470199Y56991D01*
X470411Y56928D01*
X470661Y56853D01*
X470936Y56741D01*
X471198Y56616D01*
X471448Y56466D01*
X471461D01*
X471473Y56441D01*
X471548Y56391D01*
X471673Y56291D01*
X471811Y56153D01*
X471973Y55966D01*
X472148Y55766D01*
X472323Y55516D01*
X472473Y55229D01*
Y55216D01*
X472486Y55191D01*
X472510Y55153D01*
X472536Y55091D01*
X472560Y55016D01*
X472598Y54929D01*
X472635Y54829D01*
X472673Y54716D01*
X472748Y54454D01*
X472810Y54154D01*
X472860Y53829D01*
X472873Y53479D01*
Y53467D01*
Y53404D01*
X472860Y53316D01*
Y53204D01*
X472835Y53067D01*
X472823Y52904D01*
X472785Y52729D01*
X472748Y52529D01*
X472685Y52317D01*
X472623Y52092D01*
X472536Y51867D01*
X472435Y51629D01*
X472310Y51392D01*
X472173Y51167D01*
X472011Y50942D01*
X471823Y50717D01*
X471811Y50705D01*
X471773Y50667D01*
X471711Y50617D01*
X471623Y50542D01*
X471498Y50455D01*
X471348Y50367D01*
X471173Y50255D01*
X470961Y50155D01*
X470723Y50055D01*
X470448Y49955D01*
X470149Y49855D01*
X469799Y49767D01*
X469424Y49692D01*
X469011Y49642D01*
X468562Y49605D01*
X468074Y49592D01*
X464787D01*
Y44381D01*
X463088D01*
Y57190D01*
X468349D01*
X468487Y57178D01*
D02*
G37*
G36*
X447429Y55678D02*
X443193D01*
Y44381D01*
X441493D01*
Y55678D01*
X437270Y55678D01*
Y57190D01*
X447429Y57190D01*
Y55678D01*
D02*
G37*
G36*
X379622Y44381D02*
X377835D01*
Y46168D01*
X379622D01*
Y44381D01*
D02*
G37*
G36*
X455090Y57403D02*
X455240Y57390D01*
X455427Y57365D01*
X455627Y57340D01*
X455852Y57316D01*
X456102Y57266D01*
X456352Y57203D01*
X456614Y57140D01*
X456889Y57053D01*
X457164Y56966D01*
X457439Y56841D01*
X457714Y56716D01*
X457989Y56566D01*
X458002Y56553D01*
X458052Y56528D01*
X458127Y56478D01*
X458227Y56416D01*
X458339Y56328D01*
X458477Y56216D01*
X458627Y56091D01*
X458801Y55953D01*
X458964Y55791D01*
X459151Y55616D01*
X459326Y55416D01*
X459514Y55203D01*
X459689Y54979D01*
X459851Y54729D01*
X460014Y54466D01*
X460164Y54191D01*
X460176Y54179D01*
X460201Y54129D01*
X460239Y54041D01*
X460276Y53929D01*
X460339Y53779D01*
X460401Y53616D01*
X460463Y53417D01*
X460538Y53191D01*
X460614Y52954D01*
X460676Y52692D01*
X460738Y52404D01*
X460801Y52104D01*
X460838Y51792D01*
X460876Y51467D01*
X460901Y51117D01*
X460913Y50767D01*
Y50742D01*
Y50680D01*
Y50580D01*
X460901Y50442D01*
X460888Y50267D01*
X460876Y50067D01*
X460851Y49842D01*
X460813Y49605D01*
X460776Y49342D01*
X460726Y49055D01*
X460663Y48768D01*
X460576Y48480D01*
X460489Y48168D01*
X460389Y47868D01*
X460264Y47568D01*
X460126Y47281D01*
X460114Y47268D01*
X460089Y47218D01*
X460039Y47131D01*
X459976Y47031D01*
X459901Y46906D01*
X459801Y46756D01*
X459689Y46593D01*
X459551Y46418D01*
X459401Y46231D01*
X459239Y46043D01*
X459051Y45843D01*
X458852Y45656D01*
X458639Y45469D01*
X458402Y45281D01*
X458152Y45119D01*
X457889Y44956D01*
X457877Y44944D01*
X457827Y44919D01*
X457752Y44881D01*
X457639Y44831D01*
X457502Y44769D01*
X457352Y44706D01*
X457164Y44631D01*
X456964Y44569D01*
X456740Y44494D01*
X456502Y44419D01*
X456240Y44356D01*
X455965Y44294D01*
X455690Y44244D01*
X455390Y44206D01*
X455090Y44181D01*
X454777Y44169D01*
X454603D01*
X454478Y44181D01*
X454315Y44194D01*
X454128Y44219D01*
X453928Y44244D01*
X453690Y44281D01*
X453453Y44319D01*
X453190Y44381D01*
X452928Y44444D01*
X452653Y44531D01*
X452366Y44631D01*
X452091Y44744D01*
X451816Y44881D01*
X451541Y45031D01*
X451528Y45044D01*
X451478Y45069D01*
X451403Y45119D01*
X451303Y45194D01*
X451191Y45281D01*
X451054Y45394D01*
X450904Y45518D01*
X450741Y45656D01*
X450566Y45818D01*
X450391Y45993D01*
X450204Y46193D01*
X450029Y46406D01*
X449854Y46631D01*
X449679Y46881D01*
X449529Y47143D01*
X449379Y47418D01*
X449366Y47431D01*
X449354Y47481D01*
X449316Y47568D01*
X449266Y47680D01*
X449216Y47818D01*
X449154Y47980D01*
X449079Y48180D01*
X449016Y48380D01*
X448954Y48618D01*
X448879Y48868D01*
X448816Y49130D01*
X448767Y49405D01*
X448717Y49692D01*
X448692Y49992D01*
X448667Y50305D01*
X448654Y50617D01*
Y50630D01*
Y50655D01*
Y50692D01*
Y50755D01*
X448667Y50830D01*
Y50930D01*
Y51030D01*
X448679Y51142D01*
X448704Y51417D01*
X448741Y51717D01*
X448804Y52067D01*
X448867Y52442D01*
X448954Y52829D01*
X449067Y53242D01*
X449216Y53654D01*
X449379Y54066D01*
X449579Y54479D01*
X449804Y54879D01*
X450066Y55254D01*
X450366Y55603D01*
X450391Y55628D01*
X450441Y55678D01*
X450541Y55766D01*
X450679Y55891D01*
X450841Y56028D01*
X451054Y56178D01*
X451291Y56341D01*
X451566Y56516D01*
X451866Y56678D01*
X452203Y56841D01*
X452566Y56991D01*
X452953Y57128D01*
X453378Y57253D01*
X453828Y57340D01*
X454290Y57390D01*
X454790Y57415D01*
X454965D01*
X455090Y57403D01*
D02*
G37*
G36*
X371436Y57228D02*
X371536Y57215D01*
X371661Y57203D01*
X371786Y57190D01*
X372061Y57140D01*
X372361Y57066D01*
X372673Y56953D01*
X372973Y56816D01*
X372986D01*
X373011Y56791D01*
X373048Y56778D01*
X373111Y56741D01*
X373248Y56641D01*
X373436Y56516D01*
X373636Y56341D01*
X373848Y56141D01*
X374061Y55891D01*
X374261Y55616D01*
Y55603D01*
X374286Y55578D01*
X374311Y55541D01*
X374348Y55478D01*
X374386Y55403D01*
X374436Y55316D01*
X374486Y55203D01*
X374548Y55091D01*
X374610Y54954D01*
X374673Y54816D01*
X374798Y54491D01*
X374935Y54116D01*
X375048Y53716D01*
Y53704D01*
X375060Y53666D01*
X375073Y53604D01*
X375098Y53516D01*
X375123Y53404D01*
X375148Y53267D01*
X375173Y53104D01*
X375198Y52917D01*
X375223Y52717D01*
X375248Y52479D01*
X375273Y52242D01*
X375298Y51967D01*
X375323Y51679D01*
X375335Y51367D01*
X375348Y51042D01*
Y50692D01*
Y50667D01*
Y50592D01*
Y50480D01*
X375335Y50317D01*
Y50130D01*
X375323Y49905D01*
X375310Y49667D01*
X375285Y49392D01*
X375260Y49105D01*
X375235Y48818D01*
X375148Y48205D01*
X375035Y47605D01*
X374960Y47330D01*
X374873Y47056D01*
Y47043D01*
X374848Y46993D01*
X374823Y46918D01*
X374785Y46831D01*
X374735Y46706D01*
X374673Y46581D01*
X374610Y46431D01*
X374523Y46268D01*
X374336Y45931D01*
X374098Y45568D01*
X373811Y45231D01*
X373648Y45069D01*
X373486Y44919D01*
X373473Y44906D01*
X373448Y44881D01*
X373398Y44844D01*
X373323Y44806D01*
X373236Y44744D01*
X373123Y44681D01*
X372998Y44619D01*
X372861Y44544D01*
X372699Y44469D01*
X372524Y44406D01*
X372336Y44344D01*
X372124Y44281D01*
X371911Y44244D01*
X371674Y44206D01*
X371436Y44181D01*
X371174Y44169D01*
X371086D01*
X370999Y44181D01*
X370862Y44194D01*
X370712Y44206D01*
X370524Y44244D01*
X370324Y44281D01*
X370112Y44331D01*
X369887Y44406D01*
X369649Y44494D01*
X369399Y44594D01*
X369162Y44719D01*
X368924Y44869D01*
X368687Y45044D01*
X368462Y45256D01*
X368262Y45481D01*
X368250Y45506D01*
X368212Y45556D01*
X368150Y45656D01*
X368062Y45793D01*
X367975Y45968D01*
X367862Y46181D01*
X367750Y46443D01*
X367637Y46743D01*
X367512Y47081D01*
X367400Y47468D01*
X367287Y47893D01*
X367200Y48355D01*
X367112Y48880D01*
X367050Y49430D01*
X367012Y50042D01*
X367000Y50692D01*
Y50705D01*
Y50717D01*
Y50792D01*
Y50917D01*
X367012Y51067D01*
Y51267D01*
X367025Y51479D01*
X367038Y51729D01*
X367062Y52004D01*
X367088Y52292D01*
X367112Y52592D01*
X367200Y53191D01*
X367312Y53804D01*
X367387Y54079D01*
X367462Y54354D01*
Y54366D01*
X367487Y54416D01*
X367512Y54491D01*
X367550Y54579D01*
X367600Y54704D01*
X367662Y54829D01*
X367725Y54979D01*
X367812Y55141D01*
X368000Y55491D01*
X368237Y55841D01*
X368525Y56178D01*
X368687Y56341D01*
X368849Y56491D01*
X368862Y56503D01*
X368887Y56528D01*
X368950Y56566D01*
X369012Y56603D01*
X369112Y56666D01*
X369212Y56728D01*
X369349Y56791D01*
X369487Y56866D01*
X369649Y56941D01*
X369824Y57003D01*
X370012Y57066D01*
X370224Y57128D01*
X370437Y57165D01*
X370674Y57203D01*
X370911Y57228D01*
X371174Y57241D01*
X371349D01*
X371436Y57228D01*
D02*
G37*
G36*
X402628Y74559D02*
X401054D01*
Y76371D01*
X402628D01*
Y74559D01*
D02*
G37*
G36*
X395418Y73047D02*
X395518D01*
X395643Y73022D01*
X395780Y73009D01*
X395930Y72984D01*
X396255Y72909D01*
X396605Y72797D01*
X396780Y72734D01*
X396955Y72647D01*
X397130Y72559D01*
X397305Y72447D01*
X397317Y72434D01*
X397342Y72422D01*
X397392Y72384D01*
X397455Y72334D01*
X397530Y72272D01*
X397617Y72197D01*
X397717Y72109D01*
X397817Y71997D01*
X397930Y71884D01*
X398042Y71760D01*
X398154Y71610D01*
X398267Y71459D01*
X398379Y71285D01*
X398492Y71110D01*
X398679Y70710D01*
Y70697D01*
X398704Y70660D01*
X398729Y70597D01*
X398754Y70510D01*
X398792Y70410D01*
X398829Y70285D01*
X398867Y70147D01*
X398917Y69985D01*
X398967Y69810D01*
X399004Y69623D01*
X399042Y69423D01*
X399079Y69210D01*
X399129Y68760D01*
X399154Y68273D01*
Y68260D01*
Y68210D01*
Y68135D01*
X399142Y68035D01*
Y67910D01*
X399129Y67761D01*
X399117Y67598D01*
X399092Y67423D01*
X399067Y67223D01*
X399029Y67023D01*
X398942Y66586D01*
X398817Y66136D01*
X398642Y65698D01*
Y65686D01*
X398617Y65648D01*
X398592Y65586D01*
X398542Y65511D01*
X398492Y65411D01*
X398429Y65311D01*
X398267Y65049D01*
X398055Y64774D01*
X397805Y64486D01*
X397505Y64199D01*
X397155Y63949D01*
X397142Y63937D01*
X397117Y63924D01*
X397055Y63899D01*
X396992Y63861D01*
X396892Y63811D01*
X396792Y63762D01*
X396667Y63712D01*
X396530Y63649D01*
X396380Y63599D01*
X396230Y63537D01*
X395880Y63449D01*
X395505Y63374D01*
X395305Y63362D01*
X395105Y63349D01*
X394968D01*
X394905Y63362D01*
X394818D01*
X394630Y63387D01*
X394418Y63424D01*
X394180Y63487D01*
X393931Y63562D01*
X393693Y63674D01*
X393681D01*
X393668Y63686D01*
X393593Y63737D01*
X393481Y63799D01*
X393331Y63899D01*
X393168Y64024D01*
X392993Y64161D01*
X392831Y64324D01*
X392668Y64511D01*
Y60000D01*
X391094D01*
Y72847D01*
X392531D01*
Y71647D01*
X392556Y71672D01*
X392581Y71697D01*
X392618Y71747D01*
X392718Y71884D01*
X392856Y72034D01*
X393031Y72209D01*
X393218Y72384D01*
X393431Y72547D01*
X393668Y72697D01*
X393681D01*
X393693Y72709D01*
X393731Y72734D01*
X393781Y72759D01*
X393843Y72784D01*
X393918Y72809D01*
X394105Y72884D01*
X394330Y72947D01*
X394593Y73009D01*
X394893Y73047D01*
X395218Y73059D01*
X395330D01*
X395418Y73047D01*
D02*
G37*
G36*
X409589D02*
X409677D01*
X409889Y73022D01*
X410126Y72984D01*
X410376Y72922D01*
X410651Y72847D01*
X410914Y72747D01*
X410926D01*
X410939Y72734D01*
X410976Y72722D01*
X411026Y72697D01*
X411151Y72622D01*
X411314Y72534D01*
X411476Y72422D01*
X411651Y72284D01*
X411814Y72134D01*
X411964Y71959D01*
X411976Y71934D01*
X412026Y71872D01*
X412088Y71772D01*
X412163Y71634D01*
X412238Y71459D01*
X412326Y71260D01*
X412401Y71047D01*
X412463Y70797D01*
Y70772D01*
X412476Y70710D01*
X412488Y70597D01*
X412501Y70522D01*
X412513Y70447D01*
Y70347D01*
X412526Y70235D01*
Y70110D01*
X412538Y69960D01*
Y69810D01*
X412551Y69647D01*
Y69460D01*
Y69260D01*
Y63562D01*
X410976D01*
Y69210D01*
Y69223D01*
Y69248D01*
Y69298D01*
Y69373D01*
Y69448D01*
X410964Y69535D01*
X410951Y69748D01*
X410926Y69985D01*
X410901Y70222D01*
X410851Y70447D01*
X410789Y70647D01*
X410776Y70672D01*
X410751Y70722D01*
X410701Y70810D01*
X410639Y70922D01*
X410551Y71047D01*
X410439Y71172D01*
X410301Y71297D01*
X410139Y71410D01*
X410114Y71422D01*
X410051Y71459D01*
X409964Y71497D01*
X409827Y71560D01*
X409664Y71610D01*
X409477Y71647D01*
X409264Y71684D01*
X409039Y71697D01*
X408939D01*
X408877Y71684D01*
X408789Y71672D01*
X408689Y71659D01*
X408452Y71622D01*
X408177Y71535D01*
X407890Y71422D01*
X407739Y71347D01*
X407602Y71260D01*
X407452Y71160D01*
X407315Y71047D01*
X407302Y71035D01*
X407290Y71022D01*
X407252Y70972D01*
X407202Y70922D01*
X407152Y70847D01*
X407090Y70747D01*
X407015Y70635D01*
X406952Y70510D01*
X406890Y70360D01*
X406815Y70185D01*
X406752Y69985D01*
X406702Y69760D01*
X406652Y69523D01*
X406627Y69248D01*
X406602Y68960D01*
X406590Y68635D01*
Y63562D01*
X405015D01*
Y72847D01*
X406427D01*
Y71522D01*
X406440Y71535D01*
X406477Y71585D01*
X406540Y71659D01*
X406615Y71760D01*
X406727Y71884D01*
X406852Y72009D01*
X407002Y72147D01*
X407177Y72297D01*
X407377Y72434D01*
X407590Y72572D01*
X407840Y72709D01*
X408102Y72822D01*
X408389Y72922D01*
X408689Y72997D01*
X409027Y73047D01*
X409377Y73059D01*
X409514D01*
X409589Y73047D01*
D02*
G37*
G36*
X402628Y63562D02*
X401054D01*
Y72847D01*
X402628D01*
Y63562D01*
D02*
G37*
G36*
X371711D02*
X370137D01*
Y73572D01*
X370124D01*
X370112Y73547D01*
X370074Y73521D01*
X370037Y73484D01*
X369912Y73372D01*
X369737Y73234D01*
X369524Y73072D01*
X369262Y72884D01*
X368962Y72684D01*
X368637Y72484D01*
X368625D01*
X368600Y72459D01*
X368550Y72434D01*
X368487Y72397D01*
X368400Y72347D01*
X368312Y72297D01*
X368087Y72184D01*
X367837Y72059D01*
X367562Y71922D01*
X367275Y71797D01*
X367000Y71684D01*
Y73197D01*
X367012Y73209D01*
X367062Y73222D01*
X367125Y73259D01*
X367225Y73309D01*
X367337Y73372D01*
X367462Y73446D01*
X367612Y73521D01*
X367775Y73622D01*
X368137Y73834D01*
X368525Y74096D01*
X368912Y74384D01*
X369299Y74696D01*
X369312Y74709D01*
X369337Y74734D01*
X369399Y74784D01*
X369462Y74846D01*
X369537Y74934D01*
X369637Y75021D01*
X369737Y75134D01*
X369849Y75246D01*
X370074Y75508D01*
X370299Y75796D01*
X370512Y76108D01*
X370612Y76258D01*
X370686Y76421D01*
X371711D01*
Y63562D01*
D02*
G37*
G36*
X380172Y76408D02*
X380272Y76396D01*
X380396Y76383D01*
X380522Y76371D01*
X380796Y76321D01*
X381096Y76246D01*
X381409Y76133D01*
X381709Y75996D01*
X381721D01*
X381746Y75971D01*
X381784Y75958D01*
X381846Y75921D01*
X381984Y75821D01*
X382171Y75696D01*
X382371Y75521D01*
X382584Y75321D01*
X382796Y75071D01*
X382996Y74796D01*
Y74784D01*
X383021Y74759D01*
X383046Y74721D01*
X383083Y74659D01*
X383121Y74584D01*
X383171Y74496D01*
X383221Y74384D01*
X383283Y74271D01*
X383346Y74134D01*
X383408Y73996D01*
X383533Y73671D01*
X383671Y73297D01*
X383783Y72897D01*
Y72884D01*
X383796Y72847D01*
X383808Y72784D01*
X383833Y72697D01*
X383858Y72584D01*
X383883Y72447D01*
X383908Y72284D01*
X383933Y72097D01*
X383958Y71897D01*
X383983Y71659D01*
X384008Y71422D01*
X384033Y71147D01*
X384058Y70860D01*
X384071Y70547D01*
X384083Y70222D01*
Y69872D01*
Y69847D01*
Y69773D01*
Y69660D01*
X384071Y69497D01*
Y69310D01*
X384058Y69085D01*
X384046Y68848D01*
X384021Y68573D01*
X383996Y68285D01*
X383971Y67998D01*
X383883Y67386D01*
X383771Y66786D01*
X383696Y66511D01*
X383608Y66236D01*
Y66223D01*
X383583Y66173D01*
X383558Y66098D01*
X383521Y66011D01*
X383471Y65886D01*
X383408Y65761D01*
X383346Y65611D01*
X383258Y65449D01*
X383071Y65111D01*
X382833Y64749D01*
X382546Y64411D01*
X382383Y64249D01*
X382221Y64099D01*
X382209Y64086D01*
X382184Y64061D01*
X382134Y64024D01*
X382059Y63987D01*
X381971Y63924D01*
X381859Y63861D01*
X381734Y63799D01*
X381596Y63724D01*
X381434Y63649D01*
X381259Y63587D01*
X381071Y63524D01*
X380859Y63462D01*
X380647Y63424D01*
X380409Y63387D01*
X380172Y63362D01*
X379909Y63349D01*
X379822D01*
X379734Y63362D01*
X379597Y63374D01*
X379447Y63387D01*
X379259Y63424D01*
X379059Y63462D01*
X378847Y63512D01*
X378622Y63587D01*
X378385Y63674D01*
X378135Y63774D01*
X377897Y63899D01*
X377660Y64049D01*
X377422Y64224D01*
X377197Y64436D01*
X376997Y64661D01*
X376985Y64686D01*
X376947Y64736D01*
X376885Y64836D01*
X376797Y64974D01*
X376710Y65149D01*
X376598Y65361D01*
X376485Y65623D01*
X376373Y65924D01*
X376248Y66261D01*
X376135Y66648D01*
X376023Y67073D01*
X375935Y67536D01*
X375848Y68060D01*
X375785Y68610D01*
X375748Y69223D01*
X375735Y69872D01*
Y69885D01*
Y69897D01*
Y69972D01*
Y70097D01*
X375748Y70247D01*
Y70447D01*
X375760Y70660D01*
X375773Y70910D01*
X375798Y71185D01*
X375823Y71472D01*
X375848Y71772D01*
X375935Y72372D01*
X376048Y72984D01*
X376123Y73259D01*
X376198Y73534D01*
Y73547D01*
X376223Y73597D01*
X376248Y73671D01*
X376285Y73759D01*
X376335Y73884D01*
X376398Y74009D01*
X376460Y74159D01*
X376548Y74321D01*
X376735Y74671D01*
X376972Y75021D01*
X377260Y75359D01*
X377422Y75521D01*
X377585Y75671D01*
X377597Y75683D01*
X377622Y75708D01*
X377685Y75746D01*
X377747Y75783D01*
X377847Y75846D01*
X377947Y75908D01*
X378085Y75971D01*
X378222Y76046D01*
X378385Y76121D01*
X378559Y76183D01*
X378747Y76246D01*
X378959Y76308D01*
X379172Y76346D01*
X379409Y76383D01*
X379647Y76408D01*
X379909Y76421D01*
X380084D01*
X380172Y76408D01*
D02*
G37*
G36*
X248533Y47000D02*
X247353D01*
Y54507D01*
X247343D01*
X247334Y54489D01*
X247306Y54470D01*
X247278Y54442D01*
X247184Y54358D01*
X247053Y54254D01*
X246893Y54133D01*
X246696Y53992D01*
X246472Y53842D01*
X246228Y53692D01*
X246218D01*
X246200Y53673D01*
X246162Y53655D01*
X246115Y53626D01*
X246050Y53589D01*
X245984Y53552D01*
X245815Y53467D01*
X245628Y53373D01*
X245422Y53270D01*
X245206Y53177D01*
X245000Y53092D01*
Y54226D01*
X245009Y54236D01*
X245047Y54245D01*
X245094Y54273D01*
X245169Y54311D01*
X245253Y54358D01*
X245347Y54414D01*
X245459Y54470D01*
X245581Y54545D01*
X245853Y54704D01*
X246143Y54901D01*
X246434Y55117D01*
X246725Y55351D01*
X246734Y55360D01*
X246753Y55379D01*
X246800Y55417D01*
X246846Y55464D01*
X246903Y55529D01*
X246978Y55595D01*
X247053Y55679D01*
X247137Y55763D01*
X247306Y55960D01*
X247474Y56176D01*
X247634Y56410D01*
X247709Y56523D01*
X247765Y56644D01*
X248533D01*
Y47000D01*
D02*
G37*
G36*
X160711Y198000D02*
X159137D01*
Y208010D01*
X159124D01*
X159112Y207985D01*
X159074Y207960D01*
X159037Y207922D01*
X158912Y207810D01*
X158737Y207673D01*
X158524Y207510D01*
X158262Y207323D01*
X157962Y207123D01*
X157637Y206923D01*
X157625D01*
X157600Y206898D01*
X157550Y206873D01*
X157487Y206835D01*
X157400Y206785D01*
X157312Y206735D01*
X157087Y206623D01*
X156837Y206498D01*
X156562Y206360D01*
X156275Y206235D01*
X156000Y206123D01*
Y207635D01*
X156012Y207647D01*
X156062Y207660D01*
X156125Y207698D01*
X156225Y207747D01*
X156337Y207810D01*
X156462Y207885D01*
X156612Y207960D01*
X156775Y208060D01*
X157137Y208272D01*
X157525Y208535D01*
X157912Y208822D01*
X158299Y209135D01*
X158312Y209147D01*
X158337Y209172D01*
X158399Y209222D01*
X158462Y209285D01*
X158537Y209372D01*
X158637Y209460D01*
X158737Y209572D01*
X158849Y209685D01*
X159074Y209947D01*
X159299Y210234D01*
X159512Y210547D01*
X159612Y210697D01*
X159686Y210859D01*
X160711D01*
Y198000D01*
D02*
G37*
%LPC*%
G36*
X392884Y209772D02*
X392784D01*
X392709Y209760D01*
X392609Y209747D01*
X392509Y209722D01*
X392259Y209660D01*
X392122Y209610D01*
X391984Y209547D01*
X391834Y209472D01*
X391697Y209385D01*
X391547Y209272D01*
X391409Y209147D01*
X391272Y209010D01*
X391147Y208847D01*
X391134Y208835D01*
X391110Y208797D01*
X391072Y208722D01*
X391022Y208610D01*
X390960Y208485D01*
X390897Y208310D01*
X390822Y208110D01*
X390747Y207873D01*
X390672Y207585D01*
X390597Y207273D01*
X390535Y206923D01*
X390472Y206523D01*
X390422Y206098D01*
X390385Y205611D01*
X390360Y205086D01*
X390347Y204523D01*
Y204511D01*
Y204486D01*
Y204448D01*
Y204386D01*
Y204311D01*
Y204223D01*
X390360Y204123D01*
Y204011D01*
X390372Y203761D01*
X390385Y203474D01*
X390410Y203149D01*
X390435Y202811D01*
X390522Y202111D01*
X390585Y201761D01*
X390660Y201424D01*
X390747Y201099D01*
X390847Y200799D01*
X390960Y200537D01*
X391085Y200324D01*
X391097Y200312D01*
X391122Y200274D01*
X391159Y200224D01*
X391222Y200162D01*
X391284Y200087D01*
X391372Y200000D01*
X391472Y199900D01*
X391584Y199812D01*
X391722Y199712D01*
X391859Y199612D01*
X392172Y199450D01*
X392334Y199387D01*
X392522Y199337D01*
X392709Y199300D01*
X392909Y199287D01*
X392959D01*
X393009Y199300D01*
X393084D01*
X393184Y199325D01*
X393284Y199337D01*
X393409Y199375D01*
X393534Y199412D01*
X393684Y199475D01*
X393821Y199537D01*
X393971Y199625D01*
X394121Y199725D01*
X394284Y199849D01*
X394434Y199987D01*
X394584Y200137D01*
X394721Y200324D01*
X394734Y200337D01*
X394758Y200374D01*
X394796Y200437D01*
X394833Y200537D01*
X394896Y200662D01*
X394958Y200824D01*
X395021Y201012D01*
X395096Y201249D01*
X395171Y201512D01*
X395233Y201812D01*
X395296Y202149D01*
X395358Y202536D01*
X395396Y202961D01*
X395433Y203436D01*
X395458Y203961D01*
X395471Y204523D01*
Y204536D01*
Y204561D01*
Y204598D01*
Y204661D01*
Y204736D01*
Y204823D01*
X395458Y204923D01*
Y205036D01*
X395446Y205286D01*
X395433Y205573D01*
X395408Y205898D01*
X395383Y206235D01*
X395296Y206935D01*
X395233Y207285D01*
X395158Y207635D01*
X395071Y207948D01*
X394983Y208247D01*
X394859Y208510D01*
X394734Y208722D01*
X394721Y208735D01*
X394696Y208772D01*
X394659Y208822D01*
X394596Y208885D01*
X394534Y208972D01*
X394446Y209060D01*
X394346Y209147D01*
X394221Y209247D01*
X394096Y209347D01*
X393959Y209435D01*
X393646Y209610D01*
X393471Y209672D01*
X393284Y209722D01*
X393084Y209760D01*
X392884Y209772D01*
D02*
G37*
G36*
X358957D02*
X358857D01*
X358782Y209760D01*
X358695Y209747D01*
X358582Y209722D01*
X358470Y209697D01*
X358332Y209660D01*
X358195Y209622D01*
X358045Y209560D01*
X357895Y209497D01*
X357745Y209410D01*
X357595Y209310D01*
X357433Y209197D01*
X357283Y209060D01*
X357133Y208910D01*
X357120Y208897D01*
X357095Y208872D01*
X357058Y208822D01*
X357008Y208760D01*
X356958Y208672D01*
X356883Y208572D01*
X356820Y208447D01*
X356745Y208310D01*
X356670Y208160D01*
X356608Y207997D01*
X356533Y207810D01*
X356483Y207623D01*
X356433Y207410D01*
X356395Y207185D01*
X356370Y206948D01*
X356358Y206698D01*
Y206685D01*
Y206648D01*
Y206585D01*
X356370Y206498D01*
X356383Y206385D01*
X356395Y206273D01*
X356420Y206135D01*
X356445Y205986D01*
X356533Y205673D01*
X356595Y205511D01*
X356670Y205348D01*
X356745Y205173D01*
X356845Y205011D01*
X356958Y204861D01*
X357083Y204711D01*
X357095Y204698D01*
X357120Y204673D01*
X357158Y204636D01*
X357220Y204598D01*
X357283Y204536D01*
X357370Y204473D01*
X357470Y204398D01*
X357583Y204336D01*
X357720Y204261D01*
X357858Y204186D01*
X358170Y204074D01*
X358332Y204023D01*
X358520Y203986D01*
X358707Y203961D01*
X358907Y203948D01*
X359020D01*
X359095Y203961D01*
X359182Y203974D01*
X359295Y203986D01*
X359420Y204011D01*
X359544Y204049D01*
X359832Y204136D01*
X359982Y204198D01*
X360132Y204273D01*
X360282Y204361D01*
X360432Y204461D01*
X360569Y204573D01*
X360707Y204711D01*
X360719Y204723D01*
X360732Y204748D01*
X360769Y204786D01*
X360819Y204848D01*
X360869Y204923D01*
X360932Y205023D01*
X360994Y205136D01*
X361069Y205261D01*
X361132Y205398D01*
X361194Y205561D01*
X361257Y205735D01*
X361307Y205923D01*
X361357Y206123D01*
X361394Y206348D01*
X361407Y206573D01*
X361419Y206823D01*
Y206835D01*
Y206885D01*
Y206948D01*
X361407Y207048D01*
X361394Y207160D01*
X361381Y207298D01*
X361357Y207435D01*
X361332Y207598D01*
X361244Y207935D01*
X361182Y208122D01*
X361119Y208297D01*
X361032Y208472D01*
X360932Y208647D01*
X360819Y208822D01*
X360694Y208972D01*
X360682Y208985D01*
X360657Y209010D01*
X360619Y209047D01*
X360569Y209097D01*
X360494Y209160D01*
X360419Y209222D01*
X360319Y209297D01*
X360207Y209372D01*
X359957Y209522D01*
X359657Y209647D01*
X359495Y209697D01*
X359332Y209734D01*
X359145Y209760D01*
X358957Y209772D01*
D02*
G37*
G36*
X333691Y209785D02*
X333603D01*
X333541Y209772D01*
X333466D01*
X333366Y209760D01*
X333166Y209709D01*
X332928Y209647D01*
X332678Y209535D01*
X332428Y209397D01*
X332304Y209297D01*
X332191Y209197D01*
Y209185D01*
X332166Y209172D01*
X332104Y209097D01*
X332004Y208972D01*
X331904Y208810D01*
X331791Y208610D01*
X331691Y208372D01*
X331629Y208110D01*
X331616Y207973D01*
X331604Y207822D01*
Y207810D01*
Y207785D01*
Y207735D01*
X331616Y207673D01*
Y207598D01*
X331629Y207510D01*
X331679Y207298D01*
X331741Y207060D01*
X331841Y206810D01*
X331991Y206560D01*
X332079Y206448D01*
X332178Y206335D01*
X332191D01*
X332203Y206310D01*
X332241Y206285D01*
X332291Y206248D01*
X332416Y206148D01*
X332591Y206048D01*
X332803Y205948D01*
X333066Y205848D01*
X333366Y205786D01*
X333528Y205773D01*
X333703Y205760D01*
X333791D01*
X333853Y205773D01*
X333928D01*
X334028Y205786D01*
X334228Y205835D01*
X334465Y205898D01*
X334715Y205998D01*
X334965Y206135D01*
X335078Y206223D01*
X335190Y206323D01*
X335203Y206335D01*
X335215Y206348D01*
X335240Y206385D01*
X335278Y206423D01*
X335378Y206548D01*
X335490Y206710D01*
X335590Y206923D01*
X335690Y207160D01*
X335753Y207435D01*
X335778Y207585D01*
Y207735D01*
Y207747D01*
Y207773D01*
Y207822D01*
X335765Y207885D01*
Y207948D01*
X335753Y208035D01*
X335703Y208235D01*
X335628Y208472D01*
X335528Y208710D01*
X335378Y208960D01*
X335278Y209072D01*
X335178Y209185D01*
X335165Y209197D01*
X335153Y209210D01*
X335115Y209235D01*
X335065Y209285D01*
X334940Y209372D01*
X334765Y209485D01*
X334553Y209597D01*
X334303Y209697D01*
X334016Y209760D01*
X333853Y209772D01*
X333691Y209785D01*
D02*
G37*
G36*
X333653Y204473D02*
X333541D01*
X333466Y204461D01*
X333378Y204448D01*
X333266Y204436D01*
X333141Y204411D01*
X333003Y204386D01*
X332716Y204298D01*
X332566Y204236D01*
X332403Y204161D01*
X332253Y204074D01*
X332104Y203986D01*
X331954Y203861D01*
X331816Y203736D01*
X331804Y203724D01*
X331791Y203699D01*
X331754Y203661D01*
X331704Y203599D01*
X331654Y203536D01*
X331591Y203449D01*
X331516Y203349D01*
X331454Y203236D01*
X331391Y203099D01*
X331316Y202961D01*
X331204Y202649D01*
X331154Y202474D01*
X331129Y202299D01*
X331104Y202099D01*
X331091Y201899D01*
Y201887D01*
Y201874D01*
Y201836D01*
Y201786D01*
X331104Y201649D01*
X331129Y201487D01*
X331166Y201287D01*
X331229Y201062D01*
X331304Y200837D01*
X331404Y200599D01*
Y200587D01*
X331416Y200574D01*
X331466Y200499D01*
X331541Y200387D01*
X331641Y200249D01*
X331766Y200087D01*
X331929Y199925D01*
X332116Y199762D01*
X332341Y199625D01*
X332354D01*
X332366Y199612D01*
X332403Y199600D01*
X332453Y199575D01*
X332578Y199512D01*
X332753Y199462D01*
X332953Y199400D01*
X333191Y199337D01*
X333441Y199300D01*
X333703Y199287D01*
X333816D01*
X333891Y199300D01*
X333991Y199312D01*
X334103Y199325D01*
X334228Y199350D01*
X334365Y199375D01*
X334653Y199462D01*
X334815Y199525D01*
X334965Y199587D01*
X335128Y199675D01*
X335278Y199762D01*
X335428Y199874D01*
X335565Y200000D01*
X335578Y200012D01*
X335603Y200037D01*
X335628Y200075D01*
X335678Y200137D01*
X335740Y200199D01*
X335803Y200287D01*
X335865Y200387D01*
X335940Y200499D01*
X336003Y200624D01*
X336065Y200774D01*
X336190Y201087D01*
X336240Y201262D01*
X336265Y201449D01*
X336290Y201649D01*
X336302Y201849D01*
Y201861D01*
Y201899D01*
Y201961D01*
X336290Y202036D01*
X336278Y202136D01*
X336265Y202249D01*
X336240Y202374D01*
X336203Y202511D01*
X336115Y202811D01*
X336053Y202961D01*
X335978Y203124D01*
X335890Y203274D01*
X335790Y203436D01*
X335678Y203586D01*
X335540Y203724D01*
X335528Y203736D01*
X335503Y203761D01*
X335465Y203799D01*
X335403Y203836D01*
X335328Y203899D01*
X335240Y203961D01*
X335140Y204023D01*
X335028Y204098D01*
X334890Y204173D01*
X334753Y204236D01*
X334428Y204361D01*
X334253Y204398D01*
X334066Y204436D01*
X333866Y204461D01*
X333653Y204473D01*
D02*
G37*
G36*
X283420Y205136D02*
X283320D01*
X283245Y205123D01*
X283158Y205111D01*
X283045Y205098D01*
X282933Y205073D01*
X282795Y205036D01*
X282520Y204948D01*
X282370Y204886D01*
X282208Y204811D01*
X282058Y204723D01*
X281908Y204611D01*
X281758Y204498D01*
X281620Y204361D01*
X281608Y204348D01*
X281583Y204323D01*
X281558Y204286D01*
X281508Y204223D01*
X281446Y204148D01*
X281383Y204061D01*
X281320Y203948D01*
X281258Y203824D01*
X281183Y203686D01*
X281120Y203536D01*
X281058Y203374D01*
X280996Y203199D01*
X280946Y203011D01*
X280921Y202799D01*
X280896Y202586D01*
X280883Y202361D01*
Y202349D01*
Y202324D01*
Y202286D01*
Y202224D01*
X280896Y202149D01*
Y202062D01*
X280921Y201861D01*
X280971Y201624D01*
X281021Y201362D01*
X281108Y201087D01*
X281220Y200799D01*
Y200787D01*
X281233Y200762D01*
X281258Y200724D01*
X281283Y200674D01*
X281358Y200549D01*
X281471Y200387D01*
X281608Y200199D01*
X281770Y200012D01*
X281970Y199837D01*
X282183Y199675D01*
X282195D01*
X282208Y199662D01*
X282245Y199637D01*
X282295Y199612D01*
X282408Y199550D01*
X282570Y199487D01*
X282770Y199412D01*
X282995Y199350D01*
X283232Y199300D01*
X283482Y199287D01*
X283582D01*
X283645Y199300D01*
X283732Y199312D01*
X283832Y199325D01*
X284070Y199387D01*
X284345Y199487D01*
X284482Y199550D01*
X284632Y199625D01*
X284770Y199712D01*
X284920Y199825D01*
X285057Y199949D01*
X285194Y200087D01*
X285207Y200100D01*
X285232Y200124D01*
X285257Y200175D01*
X285307Y200237D01*
X285357Y200312D01*
X285419Y200412D01*
X285494Y200524D01*
X285557Y200662D01*
X285619Y200812D01*
X285694Y200974D01*
X285757Y201149D01*
X285807Y201349D01*
X285857Y201562D01*
X285894Y201786D01*
X285907Y202024D01*
X285919Y202274D01*
Y202286D01*
Y202336D01*
Y202399D01*
X285907Y202499D01*
X285894Y202599D01*
X285882Y202736D01*
X285857Y202874D01*
X285832Y203036D01*
X285744Y203361D01*
X285694Y203536D01*
X285619Y203711D01*
X285532Y203886D01*
X285444Y204049D01*
X285332Y204211D01*
X285207Y204361D01*
X285194Y204373D01*
X285170Y204398D01*
X285132Y204436D01*
X285082Y204486D01*
X285007Y204536D01*
X284932Y204611D01*
X284832Y204673D01*
X284720Y204748D01*
X284595Y204823D01*
X284470Y204886D01*
X284157Y205011D01*
X283995Y205061D01*
X283807Y205098D01*
X283620Y205123D01*
X283420Y205136D01*
D02*
G37*
G36*
X327309Y152312D02*
X321059Y151999D01*
X320746D01*
X320434Y151687D01*
X320121Y151374D01*
Y135750D01*
X320434Y135437D01*
X327934D01*
X329809Y135750D01*
X331684Y136375D01*
X333871Y137937D01*
X334184Y138562D01*
X335121Y139812D01*
X336059Y141687D01*
X336371Y144187D01*
Y144500D01*
Y144812D01*
X336059Y146062D01*
X335434Y147937D01*
X333871Y149812D01*
X333559Y150125D01*
X331996Y151062D01*
X330121Y151999D01*
X327309Y152312D01*
D02*
G37*
G36*
X223873D02*
X216998Y151999D01*
X216685D01*
X216373Y151687D01*
X216060Y151374D01*
Y135750D01*
X216373D01*
X216685Y135437D01*
X224498D01*
X226060Y135750D01*
X227935Y136375D01*
X229810Y137937D01*
X230123Y138562D01*
X231060Y139812D01*
X231998Y141687D01*
X232310Y144187D01*
Y144500D01*
Y144812D01*
X231998Y146062D01*
X231373Y147937D01*
X229810Y149812D01*
X229498Y150125D01*
X228248Y151062D01*
X226373Y151999D01*
X223873Y152312D01*
D02*
G37*
G36*
X425745Y150125D02*
X425433D01*
X425120Y149500D01*
X420120Y128875D01*
Y128562D01*
X420433Y128250D01*
X420745Y127937D01*
X430433D01*
X430745Y128250D01*
X430433Y128875D01*
X426058Y149500D01*
Y149812D01*
X425745Y150125D01*
D02*
G37*
G36*
X298663Y55829D02*
X298588D01*
X298532Y55820D01*
X298457Y55810D01*
X298382Y55792D01*
X298195Y55745D01*
X298091Y55707D01*
X297988Y55660D01*
X297876Y55604D01*
X297773Y55538D01*
X297660Y55454D01*
X297557Y55360D01*
X297454Y55257D01*
X297360Y55135D01*
X297351Y55126D01*
X297332Y55098D01*
X297304Y55042D01*
X297267Y54957D01*
X297220Y54864D01*
X297173Y54732D01*
X297117Y54582D01*
X297060Y54404D01*
X297004Y54189D01*
X296948Y53955D01*
X296901Y53692D01*
X296854Y53392D01*
X296817Y53074D01*
X296789Y52708D01*
X296770Y52314D01*
X296761Y51892D01*
Y51883D01*
Y51864D01*
Y51836D01*
Y51789D01*
Y51733D01*
Y51668D01*
X296770Y51593D01*
Y51508D01*
X296779Y51321D01*
X296789Y51105D01*
X296807Y50862D01*
X296826Y50609D01*
X296892Y50084D01*
X296939Y49821D01*
X296995Y49568D01*
X297060Y49324D01*
X297135Y49099D01*
X297220Y48903D01*
X297313Y48743D01*
X297323Y48734D01*
X297342Y48706D01*
X297370Y48668D01*
X297417Y48622D01*
X297463Y48565D01*
X297529Y48500D01*
X297604Y48425D01*
X297688Y48359D01*
X297792Y48284D01*
X297895Y48209D01*
X298129Y48087D01*
X298251Y48040D01*
X298391Y48003D01*
X298532Y47975D01*
X298682Y47965D01*
X298719D01*
X298757Y47975D01*
X298813D01*
X298888Y47993D01*
X298963Y48003D01*
X299057Y48031D01*
X299151Y48059D01*
X299263Y48106D01*
X299366Y48153D01*
X299479Y48218D01*
X299591Y48293D01*
X299713Y48387D01*
X299825Y48490D01*
X299938Y48603D01*
X300041Y48743D01*
X300050Y48753D01*
X300069Y48781D01*
X300097Y48828D01*
X300125Y48903D01*
X300172Y48996D01*
X300219Y49118D01*
X300266Y49259D01*
X300322Y49437D01*
X300378Y49634D01*
X300425Y49859D01*
X300472Y50112D01*
X300519Y50402D01*
X300547Y50721D01*
X300575Y51077D01*
X300594Y51471D01*
X300603Y51892D01*
Y51902D01*
Y51921D01*
Y51949D01*
Y51996D01*
Y52052D01*
Y52117D01*
X300594Y52192D01*
Y52277D01*
X300585Y52464D01*
X300575Y52680D01*
X300556Y52923D01*
X300538Y53177D01*
X300472Y53701D01*
X300425Y53964D01*
X300369Y54226D01*
X300303Y54461D01*
X300238Y54686D01*
X300144Y54882D01*
X300050Y55042D01*
X300041Y55051D01*
X300022Y55079D01*
X299994Y55117D01*
X299947Y55163D01*
X299900Y55229D01*
X299835Y55295D01*
X299760Y55360D01*
X299666Y55435D01*
X299572Y55510D01*
X299469Y55576D01*
X299235Y55707D01*
X299104Y55754D01*
X298963Y55792D01*
X298813Y55820D01*
X298663Y55829D01*
D02*
G37*
G36*
X233612Y208285D02*
X229588Y202499D01*
X233612D01*
Y208285D01*
D02*
G37*
G36*
X441456Y36510D02*
X438657Y36510D01*
Y32636D01*
X441693Y32636D01*
X441806Y32648D01*
X442043D01*
X442306Y32673D01*
X442568Y32698D01*
X442818Y32723D01*
X442930Y32748D01*
X443031Y32773D01*
X443043D01*
X443055Y32785D01*
X443130Y32810D01*
X443256Y32861D01*
X443393Y32923D01*
X443543Y33023D01*
X443705Y33123D01*
X443855Y33260D01*
X443993Y33410D01*
X444005Y33435D01*
X444043Y33498D01*
X444105Y33585D01*
X444168Y33723D01*
X444218Y33885D01*
X444280Y34073D01*
X444318Y34298D01*
X444330Y34535D01*
Y34548D01*
Y34560D01*
Y34598D01*
Y34648D01*
X444318Y34760D01*
X444293Y34910D01*
X444255Y35085D01*
X444193Y35285D01*
X444118Y35472D01*
X444018Y35660D01*
X444005Y35685D01*
X443968Y35735D01*
X443893Y35822D01*
X443793Y35922D01*
X443668Y36035D01*
X443518Y36147D01*
X443343Y36247D01*
X443143Y36322D01*
X443130D01*
X443118Y36335D01*
X443080D01*
X443031Y36347D01*
X442968Y36372D01*
X442893Y36385D01*
X442806Y36397D01*
X442693Y36422D01*
X442568Y36435D01*
X442418Y36447D01*
X442268Y36472D01*
X442093Y36485D01*
X441893Y36497D01*
X441681D01*
X441456Y36510D01*
D02*
G37*
G36*
X441831Y31123D02*
X438657Y31123D01*
Y26725D01*
X442118Y26725D01*
X442293Y26737D01*
X442481D01*
X442681Y26750D01*
X442856Y26762D01*
X442993Y26775D01*
X443018D01*
X443093Y26800D01*
X443205Y26825D01*
X443330Y26862D01*
X443493Y26912D01*
X443655Y26974D01*
X443818Y27037D01*
X443968Y27125D01*
X443980Y27137D01*
X444030Y27174D01*
X444105Y27225D01*
X444205Y27312D01*
X444305Y27412D01*
X444405Y27537D01*
X444518Y27674D01*
X444618Y27837D01*
X444630Y27862D01*
X444655Y27924D01*
X444705Y28024D01*
X444755Y28149D01*
X444793Y28312D01*
X444842Y28499D01*
X444868Y28699D01*
X444880Y28924D01*
Y28937D01*
Y28962D01*
Y28999D01*
Y29049D01*
X444855Y29174D01*
X444830Y29349D01*
X444780Y29536D01*
X444718Y29749D01*
X444618Y29961D01*
X444493Y30161D01*
X444480Y30186D01*
X444430Y30249D01*
X444343Y30336D01*
X444230Y30449D01*
X444080Y30574D01*
X443905Y30699D01*
X443693Y30811D01*
X443468Y30898D01*
X443455D01*
X443443Y30911D01*
X443405Y30924D01*
X443355Y30936D01*
X443280Y30949D01*
X443205Y30973D01*
X443106Y30986D01*
X442993Y31011D01*
X442868Y31036D01*
X442731Y31049D01*
X442581Y31074D01*
X442418Y31086D01*
X442231Y31098D01*
X442043Y31111D01*
X441831Y31123D01*
D02*
G37*
G36*
X454578Y36785D02*
X454503D01*
X454403Y36772D01*
X454278Y36760D01*
X454115Y36747D01*
X453940Y36722D01*
X453740Y36685D01*
X453515Y36635D01*
X453278Y36560D01*
X453028Y36485D01*
X452778Y36385D01*
X452516Y36260D01*
X452253Y36122D01*
X451991Y35960D01*
X451728Y35760D01*
X451478Y35547D01*
X451466Y35535D01*
X451428Y35485D01*
X451366Y35410D01*
X451278Y35310D01*
X451178Y35172D01*
X451066Y35010D01*
X450953Y34797D01*
X450841Y34573D01*
X450716Y34298D01*
X450604Y33998D01*
X450491Y33660D01*
X450391Y33285D01*
X450316Y32873D01*
X450241Y32436D01*
X450204Y31948D01*
X450191Y31423D01*
Y31411D01*
Y31398D01*
Y31323D01*
X450204Y31198D01*
X450216Y31036D01*
X450229Y30849D01*
X450254Y30624D01*
X450291Y30374D01*
X450341Y30099D01*
X450416Y29811D01*
X450491Y29511D01*
X450591Y29211D01*
X450716Y28911D01*
X450854Y28612D01*
X451016Y28312D01*
X451216Y28037D01*
X451428Y27774D01*
X451441Y27762D01*
X451491Y27712D01*
X451553Y27649D01*
X451653Y27562D01*
X451778Y27462D01*
X451928Y27349D01*
X452091Y27237D01*
X452291Y27112D01*
X452503Y26987D01*
X452741Y26874D01*
X453003Y26762D01*
X453278Y26662D01*
X453565Y26575D01*
X453878Y26512D01*
X454215Y26462D01*
X454553Y26450D01*
X454640D01*
X454740Y26462D01*
X454878Y26475D01*
X455040Y26487D01*
X455227Y26525D01*
X455440Y26562D01*
X455665Y26612D01*
X455915Y26687D01*
X456165Y26775D01*
X456427Y26887D01*
X456702Y27012D01*
X456964Y27162D01*
X457227Y27349D01*
X457477Y27549D01*
X457714Y27787D01*
X457727Y27799D01*
X457764Y27849D01*
X457827Y27924D01*
X457914Y28037D01*
X458002Y28174D01*
X458102Y28349D01*
X458214Y28537D01*
X458339Y28774D01*
X458452Y29024D01*
X458564Y29311D01*
X458664Y29624D01*
X458764Y29961D01*
X458839Y30336D01*
X458901Y30724D01*
X458939Y31149D01*
X458951Y31598D01*
Y31611D01*
Y31673D01*
Y31748D01*
X458939Y31861D01*
Y31998D01*
X458926Y32148D01*
X458901Y32336D01*
X458889Y32523D01*
X458852Y32736D01*
X458826Y32948D01*
X458727Y33410D01*
X458589Y33873D01*
X458514Y34098D01*
X458414Y34323D01*
Y34335D01*
X458389Y34373D01*
X458364Y34435D01*
X458314Y34523D01*
X458264Y34610D01*
X458189Y34722D01*
X458027Y34985D01*
X457802Y35285D01*
X457539Y35585D01*
X457227Y35872D01*
X457052Y36010D01*
X456865Y36135D01*
X456852Y36147D01*
X456814Y36160D01*
X456764Y36197D01*
X456689Y36235D01*
X456590Y36285D01*
X456477Y36335D01*
X456352Y36397D01*
X456202Y36460D01*
X456040Y36522D01*
X455865Y36585D01*
X455677Y36635D01*
X455477Y36685D01*
X455040Y36760D01*
X454815Y36772D01*
X454578Y36785D01*
D02*
G37*
G36*
X384858Y36772D02*
X384758D01*
X384683Y36760D01*
X384583Y36747D01*
X384483Y36722D01*
X384233Y36660D01*
X384096Y36609D01*
X383958Y36547D01*
X383808Y36472D01*
X383671Y36385D01*
X383521Y36272D01*
X383383Y36147D01*
X383246Y36010D01*
X383121Y35847D01*
X383108Y35835D01*
X383083Y35797D01*
X383046Y35722D01*
X382996Y35610D01*
X382933Y35485D01*
X382871Y35310D01*
X382796Y35110D01*
X382721Y34873D01*
X382646Y34585D01*
X382571Y34273D01*
X382509Y33923D01*
X382446Y33523D01*
X382396Y33098D01*
X382359Y32611D01*
X382334Y32086D01*
X382321Y31523D01*
Y31511D01*
Y31486D01*
Y31448D01*
Y31386D01*
Y31311D01*
Y31223D01*
X382334Y31123D01*
Y31011D01*
X382346Y30761D01*
X382359Y30474D01*
X382383Y30149D01*
X382408Y29811D01*
X382496Y29111D01*
X382559Y28761D01*
X382634Y28424D01*
X382721Y28099D01*
X382821Y27799D01*
X382933Y27537D01*
X383058Y27324D01*
X383071Y27312D01*
X383096Y27274D01*
X383133Y27224D01*
X383196Y27162D01*
X383258Y27087D01*
X383346Y26999D01*
X383446Y26899D01*
X383558Y26812D01*
X383696Y26712D01*
X383833Y26612D01*
X384146Y26450D01*
X384308Y26387D01*
X384496Y26337D01*
X384683Y26300D01*
X384883Y26287D01*
X384933D01*
X384983Y26300D01*
X385058D01*
X385158Y26325D01*
X385258Y26337D01*
X385383Y26375D01*
X385508Y26412D01*
X385658Y26475D01*
X385795Y26537D01*
X385945Y26625D01*
X386095Y26725D01*
X386258Y26850D01*
X386408Y26987D01*
X386558Y27137D01*
X386695Y27324D01*
X386707Y27337D01*
X386732Y27374D01*
X386770Y27437D01*
X386807Y27537D01*
X386870Y27662D01*
X386932Y27824D01*
X386995Y28012D01*
X387070Y28249D01*
X387145Y28512D01*
X387207Y28812D01*
X387270Y29149D01*
X387332Y29536D01*
X387370Y29961D01*
X387407Y30436D01*
X387432Y30961D01*
X387445Y31523D01*
Y31536D01*
Y31561D01*
Y31598D01*
Y31661D01*
Y31736D01*
Y31823D01*
X387432Y31923D01*
Y32036D01*
X387420Y32286D01*
X387407Y32573D01*
X387382Y32898D01*
X387357Y33235D01*
X387270Y33935D01*
X387207Y34285D01*
X387132Y34635D01*
X387045Y34948D01*
X386957Y35247D01*
X386832Y35510D01*
X386707Y35722D01*
X386695Y35735D01*
X386670Y35772D01*
X386632Y35822D01*
X386570Y35885D01*
X386507Y35972D01*
X386420Y36060D01*
X386320Y36147D01*
X386195Y36247D01*
X386070Y36347D01*
X385933Y36435D01*
X385620Y36609D01*
X385445Y36672D01*
X385258Y36722D01*
X385058Y36760D01*
X384858Y36772D01*
D02*
G37*
G36*
X468461Y55678D02*
X464787D01*
Y51105D01*
X468249D01*
X468362Y51117D01*
X468499D01*
X468649Y51142D01*
X468824Y51155D01*
X468999Y51180D01*
X469386Y51255D01*
X469774Y51354D01*
X469949Y51430D01*
X470124Y51505D01*
X470286Y51604D01*
X470424Y51704D01*
X470436Y51717D01*
X470448Y51729D01*
X470486Y51767D01*
X470536Y51817D01*
X470586Y51879D01*
X470648Y51954D01*
X470711Y52042D01*
X470773Y52154D01*
X470836Y52267D01*
X470898Y52392D01*
X470961Y52542D01*
X471011Y52692D01*
X471098Y53042D01*
X471111Y53229D01*
X471123Y53429D01*
Y53442D01*
Y53467D01*
Y53504D01*
Y53566D01*
X471111Y53629D01*
X471098Y53716D01*
X471073Y53904D01*
X471023Y54116D01*
X470948Y54341D01*
X470848Y54579D01*
X470711Y54804D01*
Y54816D01*
X470698Y54829D01*
X470636Y54891D01*
X470549Y54991D01*
X470424Y55116D01*
X470274Y55241D01*
X470086Y55366D01*
X469874Y55466D01*
X469636Y55553D01*
X469611D01*
X469549Y55578D01*
X469499D01*
X469436Y55591D01*
X469361Y55603D01*
X469286Y55616D01*
X469174Y55628D01*
X469061Y55641D01*
X468936Y55653D01*
X468799D01*
X468637Y55666D01*
X468461Y55678D01*
D02*
G37*
G36*
X454790Y55953D02*
X454715D01*
X454615Y55941D01*
X454490Y55928D01*
X454328Y55916D01*
X454153Y55891D01*
X453953Y55853D01*
X453728Y55803D01*
X453490Y55728D01*
X453240Y55653D01*
X452990Y55553D01*
X452728Y55429D01*
X452466Y55291D01*
X452203Y55128D01*
X451941Y54929D01*
X451691Y54716D01*
X451678Y54704D01*
X451641Y54654D01*
X451578Y54579D01*
X451491Y54479D01*
X451391Y54341D01*
X451278Y54179D01*
X451166Y53966D01*
X451054Y53741D01*
X450928Y53467D01*
X450816Y53166D01*
X450704Y52829D01*
X450604Y52454D01*
X450529Y52042D01*
X450454Y51604D01*
X450416Y51117D01*
X450404Y50592D01*
Y50580D01*
Y50567D01*
Y50492D01*
X450416Y50367D01*
X450429Y50205D01*
X450441Y50017D01*
X450466Y49792D01*
X450504Y49542D01*
X450554Y49268D01*
X450629Y48980D01*
X450704Y48680D01*
X450803Y48380D01*
X450928Y48080D01*
X451066Y47780D01*
X451228Y47481D01*
X451428Y47206D01*
X451641Y46943D01*
X451653Y46931D01*
X451703Y46881D01*
X451766Y46818D01*
X451866Y46731D01*
X451991Y46631D01*
X452141Y46518D01*
X452303Y46406D01*
X452503Y46281D01*
X452715Y46156D01*
X452953Y46043D01*
X453215Y45931D01*
X453490Y45831D01*
X453778Y45743D01*
X454090Y45681D01*
X454428Y45631D01*
X454765Y45619D01*
X454852D01*
X454953Y45631D01*
X455090Y45644D01*
X455252Y45656D01*
X455440Y45693D01*
X455652Y45731D01*
X455877Y45781D01*
X456127Y45856D01*
X456377Y45943D01*
X456640Y46056D01*
X456914Y46181D01*
X457177Y46331D01*
X457439Y46518D01*
X457689Y46718D01*
X457927Y46956D01*
X457939Y46968D01*
X457977Y47018D01*
X458039Y47093D01*
X458127Y47206D01*
X458214Y47343D01*
X458314Y47518D01*
X458427Y47705D01*
X458551Y47943D01*
X458664Y48193D01*
X458777Y48480D01*
X458876Y48793D01*
X458976Y49130D01*
X459051Y49505D01*
X459114Y49892D01*
X459151Y50317D01*
X459164Y50767D01*
Y50780D01*
Y50842D01*
Y50917D01*
X459151Y51030D01*
Y51167D01*
X459139Y51317D01*
X459114Y51505D01*
X459101Y51692D01*
X459064Y51904D01*
X459039Y52117D01*
X458939Y52579D01*
X458801Y53042D01*
X458727Y53267D01*
X458627Y53492D01*
Y53504D01*
X458601Y53541D01*
X458577Y53604D01*
X458526Y53691D01*
X458477Y53779D01*
X458402Y53891D01*
X458239Y54154D01*
X458014Y54454D01*
X457752Y54754D01*
X457439Y55041D01*
X457264Y55178D01*
X457077Y55304D01*
X457064Y55316D01*
X457027Y55328D01*
X456977Y55366D01*
X456902Y55403D01*
X456802Y55454D01*
X456689Y55503D01*
X456564Y55566D01*
X456415Y55628D01*
X456252Y55691D01*
X456077Y55753D01*
X455890Y55803D01*
X455690Y55853D01*
X455252Y55928D01*
X455027Y55941D01*
X454790Y55953D01*
D02*
G37*
G36*
X371149Y55941D02*
X371049D01*
X370974Y55928D01*
X370874Y55916D01*
X370774Y55891D01*
X370524Y55828D01*
X370387Y55778D01*
X370249Y55716D01*
X370099Y55641D01*
X369962Y55553D01*
X369812Y55441D01*
X369674Y55316D01*
X369537Y55178D01*
X369412Y55016D01*
X369399Y55003D01*
X369374Y54966D01*
X369337Y54891D01*
X369287Y54779D01*
X369224Y54654D01*
X369162Y54479D01*
X369087Y54279D01*
X369012Y54041D01*
X368937Y53754D01*
X368862Y53441D01*
X368800Y53092D01*
X368737Y52692D01*
X368687Y52267D01*
X368650Y51779D01*
X368625Y51255D01*
X368612Y50692D01*
Y50680D01*
Y50655D01*
Y50617D01*
Y50555D01*
Y50480D01*
Y50392D01*
X368625Y50292D01*
Y50180D01*
X368637Y49930D01*
X368650Y49642D01*
X368675Y49317D01*
X368699Y48980D01*
X368787Y48280D01*
X368849Y47930D01*
X368924Y47593D01*
X369012Y47268D01*
X369112Y46968D01*
X369224Y46706D01*
X369349Y46493D01*
X369362Y46481D01*
X369387Y46443D01*
X369424Y46393D01*
X369487Y46331D01*
X369549Y46256D01*
X369637Y46168D01*
X369737Y46068D01*
X369849Y45981D01*
X369987Y45881D01*
X370124Y45781D01*
X370437Y45619D01*
X370599Y45556D01*
X370787Y45506D01*
X370974Y45469D01*
X371174Y45456D01*
X371224D01*
X371274Y45469D01*
X371349D01*
X371449Y45493D01*
X371549Y45506D01*
X371674Y45543D01*
X371799Y45581D01*
X371949Y45643D01*
X372086Y45706D01*
X372236Y45793D01*
X372386Y45893D01*
X372549Y46018D01*
X372699Y46156D01*
X372849Y46306D01*
X372986Y46493D01*
X372998Y46506D01*
X373023Y46543D01*
X373061Y46606D01*
X373098Y46706D01*
X373161Y46831D01*
X373223Y46993D01*
X373286Y47181D01*
X373361Y47418D01*
X373436Y47680D01*
X373498Y47980D01*
X373561Y48318D01*
X373623Y48705D01*
X373661Y49130D01*
X373698Y49605D01*
X373723Y50130D01*
X373736Y50692D01*
Y50705D01*
Y50730D01*
Y50767D01*
Y50830D01*
Y50905D01*
Y50992D01*
X373723Y51092D01*
Y51205D01*
X373711Y51455D01*
X373698Y51742D01*
X373673Y52067D01*
X373648Y52404D01*
X373561Y53104D01*
X373498Y53454D01*
X373423Y53804D01*
X373336Y54116D01*
X373248Y54416D01*
X373123Y54679D01*
X372998Y54891D01*
X372986Y54904D01*
X372961Y54941D01*
X372924Y54991D01*
X372861Y55054D01*
X372799Y55141D01*
X372711Y55229D01*
X372611Y55316D01*
X372486Y55416D01*
X372361Y55516D01*
X372224Y55603D01*
X371911Y55778D01*
X371736Y55841D01*
X371549Y55891D01*
X371349Y55928D01*
X371149Y55941D01*
D02*
G37*
G36*
X395068Y71822D02*
X394968D01*
X394893Y71810D01*
X394805Y71797D01*
X394705Y71772D01*
X394593Y71747D01*
X394468Y71709D01*
X394330Y71659D01*
X394193Y71585D01*
X394043Y71509D01*
X393893Y71422D01*
X393731Y71310D01*
X393581Y71185D01*
X393431Y71035D01*
X393281Y70872D01*
X393268Y70860D01*
X393243Y70835D01*
X393206Y70772D01*
X393168Y70697D01*
X393106Y70597D01*
X393043Y70485D01*
X392968Y70335D01*
X392906Y70185D01*
X392831Y69997D01*
X392756Y69798D01*
X392693Y69573D01*
X392643Y69323D01*
X392593Y69060D01*
X392556Y68773D01*
X392531Y68460D01*
X392518Y68135D01*
Y68110D01*
Y68060D01*
Y67960D01*
X392531Y67848D01*
X392543Y67698D01*
X392556Y67523D01*
X392581Y67336D01*
X392606Y67136D01*
X392693Y66698D01*
X392756Y66486D01*
X392831Y66261D01*
X392906Y66048D01*
X393006Y65848D01*
X393118Y65661D01*
X393243Y65486D01*
X393256Y65474D01*
X393281Y65449D01*
X393318Y65411D01*
X393368Y65349D01*
X393443Y65286D01*
X393531Y65224D01*
X393618Y65136D01*
X393731Y65061D01*
X393993Y64911D01*
X394293Y64774D01*
X394455Y64711D01*
X394618Y64674D01*
X394805Y64649D01*
X394993Y64636D01*
X395093D01*
X395168Y64649D01*
X395255Y64661D01*
X395368Y64686D01*
X395480Y64711D01*
X395618Y64749D01*
X395755Y64799D01*
X395893Y64849D01*
X396043Y64924D01*
X396193Y65011D01*
X396343Y65111D01*
X396505Y65236D01*
X396655Y65374D01*
X396792Y65524D01*
X396805Y65536D01*
X396830Y65561D01*
X396867Y65623D01*
X396905Y65686D01*
X396967Y65786D01*
X397030Y65898D01*
X397092Y66036D01*
X397167Y66198D01*
X397242Y66386D01*
X397305Y66586D01*
X397367Y66811D01*
X397430Y67061D01*
X397467Y67323D01*
X397505Y67623D01*
X397530Y67935D01*
X397542Y68273D01*
Y68298D01*
Y68348D01*
Y68448D01*
X397530Y68560D01*
X397517Y68710D01*
X397505Y68885D01*
X397480Y69073D01*
X397455Y69273D01*
X397367Y69697D01*
X397305Y69922D01*
X397230Y70147D01*
X397142Y70360D01*
X397055Y70560D01*
X396930Y70760D01*
X396805Y70935D01*
X396792Y70947D01*
X396767Y70972D01*
X396730Y71022D01*
X396680Y71072D01*
X396605Y71135D01*
X396517Y71210D01*
X396430Y71297D01*
X396317Y71385D01*
X396068Y71547D01*
X395768Y71684D01*
X395605Y71734D01*
X395430Y71785D01*
X395255Y71810D01*
X395068Y71822D01*
D02*
G37*
G36*
X379884Y75121D02*
X379784D01*
X379709Y75109D01*
X379609Y75096D01*
X379509Y75071D01*
X379259Y75009D01*
X379122Y74959D01*
X378984Y74896D01*
X378834Y74821D01*
X378697Y74734D01*
X378547Y74621D01*
X378410Y74496D01*
X378272Y74359D01*
X378147Y74196D01*
X378135Y74184D01*
X378110Y74146D01*
X378072Y74071D01*
X378022Y73959D01*
X377960Y73834D01*
X377897Y73659D01*
X377822Y73459D01*
X377747Y73222D01*
X377672Y72934D01*
X377597Y72622D01*
X377535Y72272D01*
X377472Y71872D01*
X377422Y71447D01*
X377385Y70960D01*
X377360Y70435D01*
X377347Y69872D01*
Y69860D01*
Y69835D01*
Y69798D01*
Y69735D01*
Y69660D01*
Y69573D01*
X377360Y69473D01*
Y69360D01*
X377372Y69110D01*
X377385Y68823D01*
X377410Y68498D01*
X377435Y68160D01*
X377522Y67461D01*
X377585Y67111D01*
X377660Y66773D01*
X377747Y66448D01*
X377847Y66148D01*
X377960Y65886D01*
X378085Y65673D01*
X378097Y65661D01*
X378122Y65623D01*
X378160Y65574D01*
X378222Y65511D01*
X378285Y65436D01*
X378372Y65349D01*
X378472Y65249D01*
X378585Y65161D01*
X378722Y65061D01*
X378859Y64961D01*
X379172Y64799D01*
X379334Y64736D01*
X379522Y64686D01*
X379709Y64649D01*
X379909Y64636D01*
X379959D01*
X380009Y64649D01*
X380084D01*
X380184Y64674D01*
X380284Y64686D01*
X380409Y64724D01*
X380534Y64761D01*
X380684Y64824D01*
X380821Y64886D01*
X380971Y64974D01*
X381121Y65074D01*
X381284Y65199D01*
X381434Y65336D01*
X381584Y65486D01*
X381721Y65673D01*
X381734Y65686D01*
X381759Y65724D01*
X381796Y65786D01*
X381834Y65886D01*
X381896Y66011D01*
X381959Y66173D01*
X382021Y66361D01*
X382096Y66598D01*
X382171Y66861D01*
X382234Y67161D01*
X382296Y67498D01*
X382359Y67885D01*
X382396Y68310D01*
X382434Y68785D01*
X382458Y69310D01*
X382471Y69872D01*
Y69885D01*
Y69910D01*
Y69947D01*
Y70010D01*
Y70085D01*
Y70172D01*
X382458Y70272D01*
Y70385D01*
X382446Y70635D01*
X382434Y70922D01*
X382408Y71247D01*
X382383Y71585D01*
X382296Y72284D01*
X382234Y72634D01*
X382159Y72984D01*
X382071Y73297D01*
X381984Y73597D01*
X381859Y73859D01*
X381734Y74071D01*
X381721Y74084D01*
X381696Y74121D01*
X381659Y74171D01*
X381596Y74234D01*
X381534Y74321D01*
X381446Y74409D01*
X381346Y74496D01*
X381221Y74596D01*
X381096Y74696D01*
X380959Y74784D01*
X380647Y74959D01*
X380471Y75021D01*
X380284Y75071D01*
X380084Y75109D01*
X379884Y75121D01*
D02*
G37*
%LPD*%
D10*
X475000Y15000D02*
G03*
X485000Y25000I0J10000D01*
G01*
X355000Y25000D02*
G03*
X365000Y15000I10000J0D01*
G01*
X485000Y75000D02*
G03*
X475000Y85000I-10000J0D01*
G01*
X365000D02*
G03*
X355000Y75000I0J-10000D01*
G01*
X397000Y216651D02*
Y242051D01*
X143000D02*
X295400D01*
X143000Y216651D02*
Y242051D01*
Y216651D02*
X295400D01*
X397000D01*
X295400Y242051D02*
X397000D01*
X355000Y25000D02*
Y75000D01*
X365000Y15000D02*
X475000D01*
X365000Y85000D02*
X475000D01*
X485000Y25000D02*
Y75000D01*
X355000Y25000D02*
X355000D01*
D11*
X245000Y41722D02*
X250000D01*
M02*
