G04*
G04 #@! TF.GenerationSoftware,Altium Limited,Altium Designer,23.9.2 (47)*
G04*
G04 Layer_Color=65535*
%FSLAX44Y44*%
%MOMM*%
G71*
G04*
G04 #@! TF.SameCoordinates,D495FCE5-1433-4DC9-BC9C-766B31E1820A*
G04*
G04*
G04 #@! TF.FilePolarity,Positive*
G04*
G01*
G75*
%ADD10C,0.2000*%
%ADD11C,0.1000*%
G36*
X384721Y198222D02*
X383148D01*
Y208240D01*
X383129Y208221D01*
X383036Y208147D01*
X382925Y208036D01*
X382740Y207906D01*
X382537Y207740D01*
X382277Y207555D01*
X381981Y207351D01*
X381648Y207147D01*
X381629D01*
X381611Y207129D01*
X381500Y207055D01*
X381315Y206962D01*
X381092Y206851D01*
X380833Y206721D01*
X380555Y206592D01*
X380277Y206462D01*
X380000Y206351D01*
Y207869D01*
X380018D01*
X380055Y207906D01*
X380129Y207925D01*
X380222Y207980D01*
X380333Y208036D01*
X380463Y208110D01*
X380778Y208295D01*
X381148Y208499D01*
X381518Y208758D01*
X381907Y209054D01*
X382296Y209369D01*
X382314Y209388D01*
X382333Y209406D01*
X382388Y209462D01*
X382463Y209517D01*
X382629Y209702D01*
X382851Y209925D01*
X383074Y210184D01*
X383314Y210480D01*
X383518Y210777D01*
X383703Y211091D01*
X384721D01*
Y198222D01*
D02*
G37*
G36*
X393313Y211073D02*
X393554Y211036D01*
X393832Y210980D01*
X394128Y210906D01*
X394443Y210814D01*
X394739Y210665D01*
X394757D01*
X394776Y210647D01*
X394869Y210591D01*
X395017Y210499D01*
X395202Y210369D01*
X395406Y210184D01*
X395628Y209980D01*
X395831Y209739D01*
X396035Y209462D01*
X396054Y209425D01*
X396128Y209332D01*
X396202Y209165D01*
X396331Y208925D01*
X396442Y208647D01*
X396591Y208332D01*
X396720Y207962D01*
X396831Y207555D01*
Y207536D01*
X396850Y207499D01*
X396868Y207444D01*
X396887Y207351D01*
X396906Y207240D01*
X396924Y207110D01*
X396961Y206943D01*
X396979Y206758D01*
X397017Y206555D01*
X397035Y206332D01*
X397054Y206073D01*
X397091Y205814D01*
X397109Y205518D01*
Y205222D01*
X397128Y204888D01*
Y204536D01*
Y204518D01*
Y204444D01*
Y204314D01*
Y204166D01*
X397109Y203962D01*
Y203740D01*
X397091Y203499D01*
X397072Y203240D01*
X397017Y202648D01*
X396924Y202037D01*
X396813Y201444D01*
X396739Y201166D01*
X396646Y200889D01*
Y200870D01*
X396628Y200833D01*
X396591Y200759D01*
X396554Y200666D01*
X396517Y200537D01*
X396442Y200407D01*
X396294Y200092D01*
X396109Y199759D01*
X395868Y199389D01*
X395591Y199056D01*
X395257Y198741D01*
X395239D01*
X395220Y198704D01*
X395165Y198667D01*
X395091Y198630D01*
X394998Y198574D01*
X394906Y198500D01*
X394628Y198370D01*
X394295Y198241D01*
X393906Y198111D01*
X393443Y198037D01*
X392943Y198000D01*
X392758D01*
X392628Y198018D01*
X392480Y198037D01*
X392295Y198074D01*
X392091Y198111D01*
X391869Y198167D01*
X391647Y198241D01*
X391406Y198315D01*
X391165Y198426D01*
X390925Y198556D01*
X390684Y198704D01*
X390443Y198889D01*
X390221Y199093D01*
X390017Y199315D01*
X389999Y199333D01*
X389962Y199389D01*
X389906Y199481D01*
X389814Y199629D01*
X389721Y199796D01*
X389628Y200018D01*
X389499Y200278D01*
X389388Y200574D01*
X389277Y200907D01*
X389165Y201296D01*
X389054Y201722D01*
X388962Y202203D01*
X388869Y202722D01*
X388814Y203277D01*
X388777Y203888D01*
X388758Y204536D01*
Y204555D01*
Y204629D01*
Y204759D01*
Y204907D01*
X388777Y205110D01*
Y205333D01*
X388795Y205573D01*
X388814Y205851D01*
X388869Y206425D01*
X388962Y207036D01*
X389073Y207647D01*
X389147Y207925D01*
X389221Y208203D01*
Y208221D01*
X389240Y208258D01*
X389277Y208332D01*
X389314Y208425D01*
X389351Y208554D01*
X389425Y208684D01*
X389573Y208999D01*
X389758Y209332D01*
X389999Y209684D01*
X390276Y210036D01*
X390610Y210332D01*
X390628D01*
X390647Y210369D01*
X390702Y210406D01*
X390776Y210443D01*
X390869Y210517D01*
X390980Y210573D01*
X391258Y210721D01*
X391591Y210851D01*
X391980Y210980D01*
X392443Y211054D01*
X392943Y211091D01*
X393110D01*
X393313Y211073D01*
D02*
G37*
G36*
X358986D02*
X359079D01*
X359208Y211054D01*
X359523Y210999D01*
X359875Y210925D01*
X360264Y210795D01*
X360653Y210628D01*
X361041Y210406D01*
X361060D01*
X361078Y210369D01*
X361134Y210332D01*
X361208Y210277D01*
X361393Y210128D01*
X361634Y209925D01*
X361875Y209647D01*
X362152Y209314D01*
X362393Y208925D01*
X362615Y208480D01*
Y208462D01*
X362634Y208425D01*
X362671Y208351D01*
X362708Y208258D01*
X362745Y208129D01*
X362800Y207962D01*
X362837Y207777D01*
X362893Y207573D01*
X362949Y207332D01*
X363004Y207055D01*
X363041Y206758D01*
X363078Y206444D01*
X363115Y206092D01*
X363152Y205721D01*
X363171Y205314D01*
Y204888D01*
Y204870D01*
Y204777D01*
Y204648D01*
Y204481D01*
X363152Y204277D01*
Y204036D01*
X363134Y203759D01*
X363097Y203481D01*
X363041Y202851D01*
X362949Y202185D01*
X362819Y201555D01*
X362726Y201240D01*
X362634Y200963D01*
Y200944D01*
X362615Y200907D01*
X362578Y200833D01*
X362541Y200722D01*
X362486Y200611D01*
X362412Y200463D01*
X362226Y200148D01*
X362004Y199796D01*
X361745Y199426D01*
X361412Y199074D01*
X361041Y198759D01*
X361023D01*
X360986Y198722D01*
X360930Y198685D01*
X360856Y198648D01*
X360745Y198592D01*
X360634Y198519D01*
X360486Y198444D01*
X360338Y198389D01*
X359986Y198241D01*
X359560Y198111D01*
X359097Y198037D01*
X358579Y198000D01*
X358431D01*
X358338Y198018D01*
X358208D01*
X358060Y198037D01*
X357708Y198111D01*
X357320Y198204D01*
X356912Y198352D01*
X356505Y198556D01*
X356301Y198685D01*
X356116Y198833D01*
X356097Y198852D01*
X356079Y198870D01*
X356023Y198926D01*
X355968Y198981D01*
X355894Y199074D01*
X355801Y199185D01*
X355616Y199444D01*
X355431Y199778D01*
X355246Y200185D01*
X355098Y200648D01*
X354986Y201185D01*
X356505Y201315D01*
Y201296D01*
X356523Y201259D01*
Y201222D01*
X356542Y201148D01*
X356597Y200944D01*
X356671Y200722D01*
X356764Y200463D01*
X356894Y200203D01*
X357042Y199963D01*
X357227Y199759D01*
X357245Y199741D01*
X357320Y199685D01*
X357449Y199611D01*
X357597Y199537D01*
X357801Y199444D01*
X358042Y199370D01*
X358320Y199315D01*
X358616Y199296D01*
X358745D01*
X358875Y199315D01*
X359042Y199333D01*
X359245Y199370D01*
X359449Y199426D01*
X359671Y199500D01*
X359875Y199611D01*
X359893Y199629D01*
X359967Y199667D01*
X360079Y199741D01*
X360190Y199852D01*
X360338Y199981D01*
X360486Y200129D01*
X360634Y200296D01*
X360782Y200500D01*
X360801Y200518D01*
X360838Y200611D01*
X360912Y200741D01*
X360986Y200907D01*
X361078Y201129D01*
X361171Y201388D01*
X361264Y201685D01*
X361356Y202018D01*
Y202037D01*
X361375Y202055D01*
Y202111D01*
X361393Y202185D01*
X361430Y202370D01*
X361486Y202611D01*
X361523Y202907D01*
X361560Y203222D01*
X361578Y203573D01*
X361597Y203944D01*
Y203962D01*
Y204018D01*
Y204111D01*
Y204259D01*
X361578Y204222D01*
X361504Y204129D01*
X361393Y203999D01*
X361264Y203814D01*
X361078Y203629D01*
X360856Y203425D01*
X360597Y203222D01*
X360301Y203036D01*
X360264Y203018D01*
X360153Y202962D01*
X359986Y202888D01*
X359782Y202814D01*
X359505Y202722D01*
X359208Y202648D01*
X358875Y202592D01*
X358523Y202574D01*
X358375D01*
X358264Y202592D01*
X358116Y202611D01*
X357968Y202629D01*
X357783Y202666D01*
X357597Y202722D01*
X357171Y202851D01*
X356949Y202944D01*
X356727Y203055D01*
X356486Y203185D01*
X356264Y203351D01*
X356042Y203518D01*
X355838Y203722D01*
X355820Y203740D01*
X355783Y203777D01*
X355746Y203833D01*
X355672Y203925D01*
X355579Y204055D01*
X355486Y204185D01*
X355394Y204351D01*
X355301Y204536D01*
X355190Y204740D01*
X355098Y204962D01*
X355005Y205222D01*
X354912Y205481D01*
X354838Y205777D01*
X354801Y206092D01*
X354764Y206406D01*
X354746Y206758D01*
Y206777D01*
Y206851D01*
Y206943D01*
X354764Y207073D01*
X354783Y207240D01*
X354801Y207444D01*
X354838Y207647D01*
X354894Y207888D01*
X355023Y208369D01*
X355116Y208629D01*
X355227Y208906D01*
X355357Y209165D01*
X355523Y209406D01*
X355690Y209666D01*
X355894Y209888D01*
X355912Y209906D01*
X355949Y209943D01*
X356005Y209999D01*
X356097Y210073D01*
X356209Y210165D01*
X356357Y210277D01*
X356505Y210369D01*
X356690Y210499D01*
X356875Y210610D01*
X357097Y210702D01*
X357597Y210906D01*
X357856Y210980D01*
X358153Y211036D01*
X358449Y211073D01*
X358764Y211091D01*
X358894D01*
X358986Y211073D01*
D02*
G37*
G36*
X333942D02*
X334090Y211054D01*
X334257Y211036D01*
X334442Y211017D01*
X334627Y210962D01*
X335071Y210851D01*
X335516Y210684D01*
X335738Y210573D01*
X335960Y210443D01*
X336164Y210277D01*
X336367Y210110D01*
X336386Y210091D01*
X336404Y210073D01*
X336460Y210017D01*
X336534Y209943D01*
X336608Y209832D01*
X336701Y209721D01*
X336886Y209443D01*
X337071Y209091D01*
X337238Y208684D01*
X337367Y208221D01*
X337386Y207980D01*
X337404Y207721D01*
Y207703D01*
Y207684D01*
Y207573D01*
X337386Y207406D01*
X337349Y207203D01*
X337293Y206943D01*
X337201Y206684D01*
X337090Y206425D01*
X336923Y206166D01*
X336904Y206129D01*
X336830Y206055D01*
X336719Y205944D01*
X336571Y205795D01*
X336367Y205629D01*
X336127Y205462D01*
X335849Y205296D01*
X335516Y205147D01*
X335534D01*
X335571Y205129D01*
X335627Y205110D01*
X335701Y205073D01*
X335923Y204981D01*
X336182Y204851D01*
X336460Y204666D01*
X336756Y204462D01*
X337034Y204203D01*
X337293Y203907D01*
Y203888D01*
X337312Y203870D01*
X337386Y203759D01*
X337497Y203573D01*
X337608Y203333D01*
X337719Y203036D01*
X337830Y202685D01*
X337904Y202296D01*
X337923Y201870D01*
Y201852D01*
Y201796D01*
Y201703D01*
X337904Y201592D01*
X337886Y201463D01*
X337867Y201296D01*
X337830Y201111D01*
X337775Y200907D01*
X337645Y200481D01*
X337552Y200240D01*
X337423Y200018D01*
X337293Y199778D01*
X337145Y199555D01*
X336960Y199333D01*
X336756Y199111D01*
X336738Y199093D01*
X336701Y199056D01*
X336645Y199000D01*
X336553Y198944D01*
X336423Y198852D01*
X336293Y198759D01*
X336127Y198667D01*
X335942Y198556D01*
X335738Y198444D01*
X335497Y198352D01*
X335238Y198259D01*
X334979Y198167D01*
X334682Y198111D01*
X334368Y198056D01*
X334053Y198018D01*
X333701Y198000D01*
X333516D01*
X333386Y198018D01*
X333220Y198037D01*
X333034Y198056D01*
X332831Y198093D01*
X332608Y198148D01*
X332109Y198278D01*
X331849Y198370D01*
X331609Y198463D01*
X331349Y198592D01*
X331090Y198741D01*
X330849Y198907D01*
X330627Y199111D01*
X330609Y199130D01*
X330572Y199167D01*
X330516Y199222D01*
X330442Y199315D01*
X330368Y199426D01*
X330257Y199555D01*
X330164Y199704D01*
X330053Y199889D01*
X329942Y200074D01*
X329850Y200296D01*
X329664Y200759D01*
X329590Y201037D01*
X329535Y201315D01*
X329498Y201611D01*
X329479Y201907D01*
Y201926D01*
Y201963D01*
Y202037D01*
X329498Y202111D01*
Y202222D01*
X329516Y202351D01*
X329553Y202648D01*
X329627Y202981D01*
X329738Y203314D01*
X329905Y203666D01*
X330109Y203999D01*
Y204018D01*
X330146Y204036D01*
X330220Y204129D01*
X330368Y204277D01*
X330572Y204462D01*
X330831Y204648D01*
X331146Y204851D01*
X331497Y205018D01*
X331923Y205147D01*
X331905D01*
X331886Y205166D01*
X331831Y205184D01*
X331757Y205222D01*
X331590Y205296D01*
X331368Y205407D01*
X331127Y205555D01*
X330886Y205740D01*
X330664Y205944D01*
X330461Y206166D01*
X330442Y206203D01*
X330387Y206277D01*
X330312Y206425D01*
X330238Y206610D01*
X330146Y206851D01*
X330072Y207129D01*
X330016Y207444D01*
X329998Y207777D01*
Y207795D01*
Y207832D01*
Y207906D01*
X330016Y208018D01*
X330035Y208129D01*
X330053Y208277D01*
X330127Y208591D01*
X330238Y208962D01*
X330424Y209351D01*
X330535Y209554D01*
X330664Y209758D01*
X330831Y209943D01*
X330998Y210128D01*
X331016Y210147D01*
X331053Y210165D01*
X331109Y210221D01*
X331183Y210277D01*
X331275Y210351D01*
X331405Y210425D01*
X331553Y210517D01*
X331701Y210610D01*
X331886Y210702D01*
X332090Y210795D01*
X332312Y210869D01*
X332553Y210943D01*
X333071Y211054D01*
X333368Y211073D01*
X333664Y211091D01*
X333831D01*
X333942Y211073D01*
D02*
G37*
G36*
X312658Y209406D02*
X312640Y209388D01*
X312603Y209351D01*
X312528Y209277D01*
X312454Y209165D01*
X312343Y209036D01*
X312195Y208888D01*
X312047Y208703D01*
X311880Y208480D01*
X311714Y208258D01*
X311510Y207999D01*
X311306Y207703D01*
X311103Y207406D01*
X310881Y207073D01*
X310658Y206721D01*
X310436Y206332D01*
X310214Y205944D01*
X310195Y205925D01*
X310158Y205851D01*
X310103Y205740D01*
X310010Y205573D01*
X309918Y205370D01*
X309806Y205147D01*
X309677Y204888D01*
X309547Y204592D01*
X309399Y204259D01*
X309233Y203925D01*
X309084Y203555D01*
X308936Y203166D01*
X308640Y202370D01*
X308362Y201518D01*
Y201500D01*
X308344Y201444D01*
X308325Y201352D01*
X308288Y201240D01*
X308251Y201092D01*
X308214Y200907D01*
X308158Y200703D01*
X308121Y200481D01*
X308066Y200222D01*
X308010Y199944D01*
X307918Y199352D01*
X307825Y198704D01*
X307770Y198000D01*
X306159D01*
Y198018D01*
Y198074D01*
Y198148D01*
X306177Y198259D01*
Y198407D01*
X306196Y198592D01*
X306214Y198796D01*
X306233Y199018D01*
X306270Y199278D01*
X306307Y199537D01*
X306362Y199852D01*
X306418Y200166D01*
X306474Y200500D01*
X306548Y200870D01*
X306733Y201629D01*
Y201648D01*
X306751Y201722D01*
X306788Y201833D01*
X306844Y202000D01*
X306899Y202185D01*
X306973Y202407D01*
X307048Y202666D01*
X307159Y202944D01*
X307270Y203259D01*
X307381Y203573D01*
X307659Y204277D01*
X307992Y205018D01*
X308362Y205758D01*
X308381Y205777D01*
X308418Y205851D01*
X308473Y205944D01*
X308547Y206092D01*
X308640Y206258D01*
X308770Y206462D01*
X308899Y206684D01*
X309047Y206925D01*
X309399Y207462D01*
X309769Y208018D01*
X310195Y208591D01*
X310640Y209128D01*
X304363D01*
Y210647D01*
X312658D01*
Y209406D01*
D02*
G37*
G36*
X283941Y211073D02*
X284071D01*
X284219Y211054D01*
X284571Y210980D01*
X284959Y210888D01*
X285367Y210739D01*
X285774Y210517D01*
X285978Y210388D01*
X286163Y210240D01*
X286181Y210221D01*
X286200Y210202D01*
X286255Y210147D01*
X286311Y210091D01*
X286404Y209999D01*
X286478Y209888D01*
X286681Y209628D01*
X286885Y209295D01*
X287070Y208888D01*
X287237Y208425D01*
X287348Y207906D01*
X285774Y207777D01*
Y207795D01*
X285756Y207814D01*
X285737Y207925D01*
X285681Y208092D01*
X285607Y208295D01*
X285533Y208517D01*
X285422Y208740D01*
X285293Y208943D01*
X285163Y209110D01*
X285126Y209147D01*
X285052Y209221D01*
X284922Y209332D01*
X284737Y209462D01*
X284496Y209573D01*
X284237Y209684D01*
X283922Y209758D01*
X283589Y209795D01*
X283459D01*
X283311Y209777D01*
X283145Y209739D01*
X282922Y209684D01*
X282700Y209610D01*
X282478Y209517D01*
X282256Y209369D01*
X282219Y209351D01*
X282126Y209277D01*
X281997Y209147D01*
X281830Y208962D01*
X281645Y208740D01*
X281441Y208480D01*
X281256Y208147D01*
X281071Y207777D01*
Y207758D01*
X281052Y207721D01*
X281034Y207666D01*
X280997Y207592D01*
X280978Y207481D01*
X280941Y207351D01*
X280904Y207203D01*
X280867Y207018D01*
X280812Y206814D01*
X280775Y206592D01*
X280738Y206351D01*
X280719Y206092D01*
X280682Y205795D01*
X280664Y205499D01*
X280645Y205166D01*
Y204833D01*
X280664Y204851D01*
X280738Y204962D01*
X280867Y205110D01*
X281034Y205296D01*
X281219Y205518D01*
X281460Y205721D01*
X281719Y205925D01*
X282015Y206110D01*
X282034D01*
X282052Y206129D01*
X282163Y206184D01*
X282330Y206240D01*
X282552Y206332D01*
X282811Y206406D01*
X283108Y206462D01*
X283423Y206518D01*
X283756Y206536D01*
X283904D01*
X284015Y206518D01*
X284163Y206499D01*
X284311Y206481D01*
X284496Y206444D01*
X284682Y206388D01*
X285107Y206258D01*
X285330Y206166D01*
X285552Y206036D01*
X285774Y205907D01*
X286015Y205758D01*
X286237Y205573D01*
X286441Y205370D01*
X286459Y205351D01*
X286496Y205314D01*
X286552Y205259D01*
X286607Y205166D01*
X286700Y205036D01*
X286793Y204907D01*
X286885Y204740D01*
X286996Y204555D01*
X287107Y204351D01*
X287200Y204129D01*
X287292Y203870D01*
X287385Y203610D01*
X287441Y203333D01*
X287496Y203018D01*
X287533Y202703D01*
X287552Y202370D01*
Y202351D01*
Y202314D01*
Y202259D01*
Y202166D01*
X287533Y202055D01*
Y201944D01*
X287478Y201648D01*
X287422Y201296D01*
X287330Y200926D01*
X287200Y200518D01*
X287015Y200129D01*
Y200111D01*
X286996Y200092D01*
X286959Y200037D01*
X286922Y199963D01*
X286811Y199778D01*
X286644Y199537D01*
X286441Y199278D01*
X286200Y199018D01*
X285904Y198759D01*
X285589Y198537D01*
X285570D01*
X285552Y198519D01*
X285496Y198481D01*
X285422Y198463D01*
X285237Y198370D01*
X284996Y198278D01*
X284682Y198167D01*
X284330Y198093D01*
X283941Y198018D01*
X283515Y198000D01*
X283423D01*
X283330Y198018D01*
X283182D01*
X283015Y198037D01*
X282830Y198074D01*
X282608Y198130D01*
X282386Y198185D01*
X282126Y198259D01*
X281867Y198352D01*
X281608Y198463D01*
X281330Y198611D01*
X281071Y198778D01*
X280812Y198963D01*
X280552Y199185D01*
X280312Y199444D01*
X280293Y199463D01*
X280256Y199518D01*
X280201Y199592D01*
X280126Y199722D01*
X280015Y199889D01*
X279923Y200074D01*
X279812Y200315D01*
X279701Y200574D01*
X279571Y200889D01*
X279460Y201240D01*
X279367Y201629D01*
X279275Y202055D01*
X279182Y202537D01*
X279127Y203055D01*
X279090Y203610D01*
X279071Y204203D01*
Y204222D01*
Y204240D01*
Y204296D01*
Y204370D01*
X279090Y204555D01*
Y204814D01*
X279108Y205110D01*
X279145Y205462D01*
X279182Y205851D01*
X279238Y206277D01*
X279312Y206703D01*
X279404Y207166D01*
X279515Y207610D01*
X279645Y208055D01*
X279812Y208480D01*
X279997Y208888D01*
X280201Y209277D01*
X280441Y209610D01*
X280460Y209628D01*
X280497Y209666D01*
X280571Y209739D01*
X280664Y209851D01*
X280775Y209962D01*
X280923Y210073D01*
X281108Y210221D01*
X281293Y210351D01*
X281515Y210480D01*
X281756Y210628D01*
X282034Y210739D01*
X282311Y210869D01*
X282626Y210962D01*
X282960Y211036D01*
X283311Y211073D01*
X283682Y211091D01*
X283830D01*
X283941Y211073D01*
D02*
G37*
G36*
X261630Y209369D02*
X256501D01*
X255816Y205907D01*
X255834Y205925D01*
X255871Y205944D01*
X255927Y205981D01*
X256020Y206036D01*
X256131Y206092D01*
X256260Y206166D01*
X256557Y206314D01*
X256927Y206462D01*
X257334Y206592D01*
X257779Y206684D01*
X258001Y206721D01*
X258408D01*
X258519Y206703D01*
X258668Y206684D01*
X258834Y206666D01*
X259019Y206629D01*
X259223Y206573D01*
X259667Y206444D01*
X259908Y206351D01*
X260149Y206221D01*
X260389Y206092D01*
X260630Y205944D01*
X260852Y205758D01*
X261075Y205555D01*
X261093Y205536D01*
X261130Y205499D01*
X261186Y205444D01*
X261260Y205351D01*
X261352Y205222D01*
X261445Y205092D01*
X261556Y204925D01*
X261667Y204740D01*
X261760Y204536D01*
X261871Y204314D01*
X261963Y204055D01*
X262056Y203796D01*
X262130Y203518D01*
X262186Y203203D01*
X262223Y202888D01*
X262241Y202555D01*
Y202537D01*
Y202481D01*
Y202388D01*
X262223Y202259D01*
X262204Y202111D01*
X262186Y201944D01*
X262149Y201740D01*
X262111Y201537D01*
X262000Y201055D01*
X261815Y200555D01*
X261704Y200296D01*
X261556Y200055D01*
X261408Y199796D01*
X261223Y199555D01*
X261204Y199537D01*
X261167Y199481D01*
X261093Y199407D01*
X261000Y199315D01*
X260871Y199204D01*
X260723Y199056D01*
X260538Y198926D01*
X260334Y198778D01*
X260112Y198630D01*
X259853Y198500D01*
X259575Y198370D01*
X259279Y198241D01*
X258964Y198148D01*
X258612Y198074D01*
X258242Y198018D01*
X257853Y198000D01*
X257686D01*
X257556Y198018D01*
X257408Y198037D01*
X257242Y198056D01*
X257038Y198074D01*
X256834Y198130D01*
X256371Y198241D01*
X255909Y198407D01*
X255668Y198519D01*
X255427Y198648D01*
X255205Y198796D01*
X254983Y198963D01*
X254964Y198981D01*
X254927Y199000D01*
X254890Y199074D01*
X254816Y199148D01*
X254723Y199241D01*
X254631Y199352D01*
X254520Y199500D01*
X254427Y199667D01*
X254316Y199833D01*
X254205Y200037D01*
X254001Y200481D01*
X253835Y201000D01*
X253779Y201277D01*
X253742Y201574D01*
X255390Y201703D01*
Y201685D01*
Y201648D01*
X255408Y201592D01*
X255427Y201500D01*
X255483Y201296D01*
X255557Y201018D01*
X255668Y200741D01*
X255816Y200426D01*
X256001Y200148D01*
X256223Y199889D01*
X256260Y199870D01*
X256334Y199796D01*
X256483Y199704D01*
X256686Y199592D01*
X256908Y199481D01*
X257186Y199389D01*
X257501Y199315D01*
X257853Y199296D01*
X257964D01*
X258038Y199315D01*
X258260Y199333D01*
X258519Y199407D01*
X258834Y199500D01*
X259149Y199648D01*
X259482Y199870D01*
X259630Y200000D01*
X259778Y200148D01*
X259797Y200166D01*
X259816Y200185D01*
X259853Y200240D01*
X259908Y200296D01*
X260038Y200500D01*
X260186Y200759D01*
X260315Y201074D01*
X260445Y201463D01*
X260538Y201926D01*
X260575Y202166D01*
Y202425D01*
Y202444D01*
Y202481D01*
Y202555D01*
X260556Y202648D01*
Y202759D01*
X260538Y202888D01*
X260482Y203185D01*
X260389Y203536D01*
X260260Y203888D01*
X260075Y204222D01*
X259816Y204536D01*
Y204555D01*
X259778Y204573D01*
X259686Y204666D01*
X259519Y204796D01*
X259297Y204944D01*
X259001Y205073D01*
X258668Y205203D01*
X258279Y205296D01*
X258056Y205333D01*
X257705D01*
X257556Y205314D01*
X257371Y205296D01*
X257149Y205240D01*
X256927Y205184D01*
X256686Y205092D01*
X256446Y204981D01*
X256427Y204962D01*
X256353Y204925D01*
X256242Y204833D01*
X256094Y204740D01*
X255945Y204610D01*
X255797Y204444D01*
X255631Y204277D01*
X255501Y204074D01*
X254020Y204277D01*
X255260Y210869D01*
X261630D01*
Y209369D01*
D02*
G37*
G36*
X279210Y158849D02*
X282914Y157923D01*
X286617Y155609D01*
X287080D01*
X287543Y155146D01*
X289395Y152831D01*
X291247Y149591D01*
X292173Y145424D01*
Y143572D01*
Y143109D01*
Y142646D01*
X291710Y142184D01*
X290784Y141721D01*
X286154D01*
X285691Y142184D01*
X285228Y142646D01*
X284765Y143572D01*
Y144498D01*
Y144961D01*
X284303Y146813D01*
X283377Y148665D01*
X281525Y150516D01*
X281062Y150979D01*
X280136Y151905D01*
X278284Y152368D01*
X275970Y152831D01*
X275044D01*
X273192Y152368D01*
X270877Y151905D01*
X268563Y150516D01*
X268100Y150053D01*
X267174Y149128D01*
X266248Y147276D01*
X265785Y144961D01*
Y144498D01*
Y143109D01*
Y140795D01*
X265322Y138017D01*
Y134776D01*
Y130610D01*
X265785Y122277D01*
Y121814D01*
X266248Y119962D01*
X267174Y118111D01*
X268563Y116259D01*
X269025Y115796D01*
X270414Y115333D01*
X272266Y114407D01*
X275044Y113944D01*
X275507D01*
X277358Y114407D01*
X279210Y114870D01*
X281525Y116259D01*
X281988Y116722D01*
X282914Y118111D01*
X284303Y119962D01*
X284765Y122277D01*
Y123666D01*
Y124129D01*
Y124592D01*
X285228Y125055D01*
X286154Y125518D01*
X291710D01*
X292173Y124592D01*
Y123666D01*
Y121814D01*
Y121351D01*
Y120888D01*
X291247Y118111D01*
X289858Y114870D01*
X287080Y111166D01*
X286154Y110703D01*
X283840Y109315D01*
X280136Y107463D01*
X275507Y107000D01*
X274581D01*
X271340Y107463D01*
X267637Y108852D01*
X263470Y111166D01*
X262544Y112092D01*
X261155Y114407D01*
X259304Y117648D01*
X258378Y121814D01*
Y122277D01*
Y123666D01*
Y125981D01*
Y129221D01*
Y132462D01*
Y136165D01*
Y144498D01*
Y144961D01*
Y145424D01*
X259304Y148202D01*
X260693Y151442D01*
X263470Y154683D01*
X263933D01*
X264396Y155609D01*
X266711Y156998D01*
X270414Y158386D01*
X275044Y159312D01*
X276432D01*
X279210Y158849D01*
D02*
G37*
G36*
X92645Y158386D02*
Y157460D01*
Y108852D01*
Y108389D01*
X92182Y107926D01*
X91256Y107463D01*
X84312D01*
X83386Y108389D01*
X69035Y144961D01*
X68109D01*
Y108389D01*
Y107926D01*
X67183Y107463D01*
X66258Y107000D01*
X62554D01*
X62091Y107463D01*
X61628Y108389D01*
Y156998D01*
Y157460D01*
Y157923D01*
X62091Y158386D01*
X69961D01*
X70424Y157923D01*
Y157460D01*
X85238Y120888D01*
X85701Y120425D01*
X86164D01*
X86627Y120888D01*
Y157460D01*
Y157923D01*
Y158386D01*
X87090Y158849D01*
X92182D01*
X92645Y158386D01*
D02*
G37*
G36*
X331059Y158849D02*
X334763Y157923D01*
X338004Y155609D01*
X338929Y155146D01*
X340318Y152831D01*
X342633Y149591D01*
X344022Y145424D01*
Y144498D01*
X343559Y142184D01*
X343096Y139406D01*
X341707Y136165D01*
X341244Y135702D01*
X339855Y134313D01*
X338004Y132462D01*
X335226Y130610D01*
X334763D01*
X333837Y129684D01*
X333374Y129221D01*
X333837Y128295D01*
X342633Y109778D01*
Y109315D01*
Y108852D01*
X341707Y107926D01*
X336152D01*
X335689Y108389D01*
X335226Y109315D01*
X326430Y127832D01*
Y128295D01*
X325504D01*
X324578Y128758D01*
X320875Y128295D01*
X320412D01*
X319949Y127832D01*
Y109315D01*
Y108852D01*
X319486Y108389D01*
X318560Y107926D01*
X313468D01*
X313005Y108389D01*
X312542Y109315D01*
Y157923D01*
Y158386D01*
Y158849D01*
X313005Y159312D01*
X328282D01*
X331059Y158849D01*
D02*
G37*
G36*
X227361D02*
X231064Y157923D01*
X234768Y155609D01*
X235694Y155146D01*
X237083Y152831D01*
X238934Y149591D01*
X239860Y145424D01*
Y144498D01*
Y142184D01*
X238934Y139406D01*
X237546Y136165D01*
X237083Y135702D01*
X235694Y134313D01*
X233842Y132462D01*
X231064Y130610D01*
X230601D01*
X230138Y129684D01*
X229676Y129221D01*
X230138Y128295D01*
X238934Y109778D01*
X239397Y109315D01*
X238934Y108852D01*
X238471Y107926D01*
X232453D01*
X231990Y108389D01*
X231527Y109315D01*
X223194Y127832D01*
X222731Y128295D01*
X221806Y128758D01*
X216713Y128295D01*
X216250D01*
X215787Y127832D01*
Y109315D01*
Y108852D01*
X215324Y108389D01*
X214398Y107926D01*
X209769D01*
X209306Y108389D01*
X208843Y109315D01*
Y157923D01*
Y158386D01*
X209306Y158849D01*
X209769Y159312D01*
X224583D01*
X227361Y158849D01*
D02*
G37*
G36*
X530587Y158386D02*
Y157460D01*
Y153757D01*
Y153294D01*
Y152831D01*
X530124Y152368D01*
X529198Y151905D01*
X512069D01*
X511606Y151442D01*
Y138017D01*
X512069D01*
Y137554D01*
X529661D01*
X530124Y137091D01*
Y136165D01*
Y131999D01*
Y131536D01*
X529661Y131073D01*
X528735Y130610D01*
X512069D01*
X511606Y130147D01*
X511143Y114870D01*
Y114407D01*
X511606Y113944D01*
X512069Y114407D01*
X531050D01*
X531513Y113944D01*
X531976Y113018D01*
Y108852D01*
X531513Y108389D01*
X531050Y107926D01*
X529661Y107463D01*
X505125D01*
X504199Y107926D01*
X503736Y108852D01*
Y157460D01*
Y157923D01*
X504199Y158386D01*
X504662Y158849D01*
X530124D01*
X530587Y158386D01*
D02*
G37*
G36*
X486144D02*
Y157460D01*
Y153757D01*
Y153294D01*
Y152831D01*
X485682Y152368D01*
X484756Y151905D01*
X473645D01*
Y151442D01*
Y150516D01*
Y149591D01*
Y147739D01*
Y144961D01*
Y141258D01*
Y136165D01*
Y130147D01*
Y108852D01*
Y108389D01*
X473182Y107926D01*
X472256Y107463D01*
X467627D01*
X467164Y107926D01*
X466701Y108852D01*
Y151442D01*
Y151905D01*
X456516D01*
X456053Y152368D01*
X455591Y152831D01*
X455127Y153757D01*
Y157460D01*
Y157923D01*
Y158386D01*
X455591Y158849D01*
X485682D01*
X486144Y158386D01*
D02*
G37*
G36*
X429203Y157923D02*
X443091Y108852D01*
Y108389D01*
X442165Y107926D01*
X441239Y107463D01*
X437073D01*
X435684Y108389D01*
X431981Y119499D01*
X431518Y119962D01*
X430592Y120425D01*
X418092D01*
X417166Y119499D01*
X413926Y108389D01*
Y107926D01*
X413463Y107463D01*
X408371D01*
X407908Y107926D01*
X407445Y108389D01*
X406982Y108852D01*
X420870Y157923D01*
Y158386D01*
X421333Y158849D01*
X428277D01*
X429203Y157923D01*
D02*
G37*
G36*
X389390Y158386D02*
X389853Y157460D01*
Y153757D01*
Y153294D01*
Y152831D01*
X388927Y152368D01*
X388001Y151905D01*
X370872D01*
X369484Y151442D01*
Y138017D01*
Y137554D01*
X387538D01*
X388001Y137091D01*
Y136165D01*
Y131999D01*
Y131536D01*
X387538Y131073D01*
X386612Y130610D01*
X369484D01*
Y130147D01*
Y114870D01*
X370872D01*
Y114407D01*
Y113944D01*
X371335Y114407D01*
X389853D01*
X390316Y113944D01*
Y113018D01*
Y108852D01*
Y108389D01*
X389853Y107926D01*
X388927Y107463D01*
X363928D01*
X363465Y107926D01*
X363002Y108852D01*
Y157460D01*
Y157923D01*
Y158386D01*
X363465Y158849D01*
X388927D01*
X389390Y158386D01*
D02*
G37*
G36*
X188011D02*
Y157460D01*
Y153757D01*
Y153294D01*
Y152831D01*
X187548Y152368D01*
X186622Y151905D01*
X169030D01*
X168104Y151442D01*
Y138017D01*
Y137554D01*
X186159D01*
X186622Y137091D01*
Y136165D01*
Y131999D01*
Y131536D01*
X186159Y131073D01*
X185233Y130610D01*
X168567D01*
X167642Y130147D01*
Y114870D01*
X168567D01*
Y114407D01*
Y113944D01*
X169030Y114407D01*
X187548D01*
X188011Y113944D01*
Y113018D01*
Y108852D01*
Y108389D01*
X187548Y107926D01*
X186622Y107463D01*
X162086D01*
X161623Y107926D01*
X161160Y108852D01*
Y157460D01*
Y157923D01*
Y158386D01*
X161623Y158849D01*
X187548D01*
X188011Y158386D01*
D02*
G37*
G36*
X142643D02*
Y157460D01*
Y153757D01*
Y153294D01*
Y152831D01*
X142180Y152368D01*
X141254Y151905D01*
X130606D01*
Y151442D01*
Y150516D01*
Y149591D01*
Y147739D01*
Y144961D01*
Y141258D01*
Y136165D01*
Y130147D01*
Y108852D01*
Y108389D01*
X129680Y107926D01*
X128755Y107463D01*
X124125D01*
X123662Y107926D01*
X123199Y108852D01*
Y151442D01*
Y151905D01*
X113015D01*
X112552Y152368D01*
X111626Y152831D01*
X111163Y153757D01*
Y157460D01*
Y157923D01*
X111626Y158386D01*
X112089Y158849D01*
X142180D01*
X142643Y158386D01*
D02*
G37*
G36*
X38481D02*
Y157460D01*
Y108852D01*
Y108389D01*
X38018Y107926D01*
X37092Y107463D01*
X32463D01*
X32000Y107926D01*
Y108852D01*
Y157460D01*
Y157923D01*
Y158386D01*
X32463Y158849D01*
X38018D01*
X38481Y158386D01*
D02*
G37*
G36*
X292536Y47166D02*
X291358D01*
Y54669D01*
X291344Y54655D01*
X291274Y54600D01*
X291191Y54517D01*
X291052Y54420D01*
X290900Y54295D01*
X290706Y54156D01*
X290484Y54004D01*
X290234Y53851D01*
X290220D01*
X290207Y53837D01*
X290123Y53782D01*
X289985Y53712D01*
X289818Y53629D01*
X289624Y53532D01*
X289416Y53435D01*
X289208Y53338D01*
X289000Y53255D01*
Y54392D01*
X289014D01*
X289042Y54420D01*
X289097Y54433D01*
X289166Y54475D01*
X289250Y54517D01*
X289347Y54572D01*
X289583Y54711D01*
X289860Y54863D01*
X290137Y55058D01*
X290429Y55279D01*
X290720Y55515D01*
X290734Y55529D01*
X290747Y55543D01*
X290789Y55585D01*
X290844Y55626D01*
X290969Y55765D01*
X291136Y55931D01*
X291302Y56125D01*
X291482Y56347D01*
X291635Y56569D01*
X291774Y56805D01*
X292536D01*
Y47166D01*
D02*
G37*
G36*
X298971Y56791D02*
X299152Y56763D01*
X299360Y56722D01*
X299582Y56666D01*
X299817Y56597D01*
X300039Y56486D01*
X300053D01*
X300067Y56472D01*
X300136Y56431D01*
X300247Y56361D01*
X300386Y56264D01*
X300539Y56125D01*
X300705Y55973D01*
X300858Y55793D01*
X301010Y55585D01*
X301024Y55557D01*
X301079Y55487D01*
X301135Y55363D01*
X301232Y55182D01*
X301315Y54974D01*
X301426Y54739D01*
X301523Y54461D01*
X301606Y54156D01*
Y54142D01*
X301620Y54114D01*
X301634Y54073D01*
X301648Y54004D01*
X301662Y53920D01*
X301676Y53823D01*
X301703Y53698D01*
X301717Y53560D01*
X301745Y53407D01*
X301759Y53241D01*
X301773Y53047D01*
X301800Y52853D01*
X301814Y52631D01*
Y52409D01*
X301828Y52159D01*
Y51896D01*
Y51882D01*
Y51826D01*
Y51729D01*
Y51618D01*
X301814Y51466D01*
Y51299D01*
X301800Y51119D01*
X301787Y50925D01*
X301745Y50481D01*
X301676Y50023D01*
X301593Y49580D01*
X301537Y49372D01*
X301468Y49163D01*
Y49150D01*
X301454Y49122D01*
X301426Y49066D01*
X301398Y48997D01*
X301371Y48900D01*
X301315Y48803D01*
X301204Y48567D01*
X301066Y48317D01*
X300885Y48040D01*
X300677Y47790D01*
X300428Y47555D01*
X300414D01*
X300400Y47527D01*
X300358Y47499D01*
X300303Y47471D01*
X300233Y47430D01*
X300164Y47375D01*
X299956Y47277D01*
X299706Y47180D01*
X299415Y47083D01*
X299069Y47028D01*
X298694Y47000D01*
X298555D01*
X298458Y47014D01*
X298347Y47028D01*
X298209Y47056D01*
X298056Y47083D01*
X297890Y47125D01*
X297723Y47180D01*
X297543Y47236D01*
X297363Y47319D01*
X297182Y47416D01*
X297002Y47527D01*
X296822Y47666D01*
X296655Y47818D01*
X296503Y47985D01*
X296489Y47998D01*
X296461Y48040D01*
X296420Y48109D01*
X296350Y48220D01*
X296281Y48345D01*
X296212Y48512D01*
X296115Y48706D01*
X296031Y48928D01*
X295948Y49177D01*
X295865Y49469D01*
X295782Y49788D01*
X295712Y50148D01*
X295643Y50536D01*
X295601Y50953D01*
X295574Y51410D01*
X295560Y51896D01*
Y51909D01*
Y51965D01*
Y52062D01*
Y52173D01*
X295574Y52326D01*
Y52492D01*
X295588Y52672D01*
X295601Y52880D01*
X295643Y53310D01*
X295712Y53768D01*
X295795Y54225D01*
X295851Y54433D01*
X295907Y54641D01*
Y54655D01*
X295920Y54683D01*
X295948Y54739D01*
X295976Y54808D01*
X296003Y54905D01*
X296059Y55002D01*
X296170Y55238D01*
X296309Y55487D01*
X296489Y55751D01*
X296697Y56014D01*
X296947Y56236D01*
X296961D01*
X296974Y56264D01*
X297016Y56292D01*
X297071Y56320D01*
X297141Y56375D01*
X297224Y56417D01*
X297432Y56528D01*
X297682Y56625D01*
X297973Y56722D01*
X298320Y56777D01*
X298694Y56805D01*
X298819D01*
X298971Y56791D01*
D02*
G37*
G36*
X235198Y202518D02*
X236939D01*
Y201074D01*
X235198D01*
Y198000D01*
X233624D01*
Y201074D01*
X228051D01*
Y202518D01*
X233920Y210814D01*
X235198D01*
Y202518D01*
D02*
G37*
G36*
X207222Y211073D02*
X207463Y211036D01*
X207759Y210980D01*
X208093Y210888D01*
X208426Y210777D01*
X208759Y210628D01*
X208778D01*
X208796Y210610D01*
X208908Y210554D01*
X209074Y210443D01*
X209259Y210313D01*
X209482Y210128D01*
X209704Y209925D01*
X209926Y209684D01*
X210111Y209406D01*
X210130Y209369D01*
X210185Y209277D01*
X210259Y209110D01*
X210352Y208906D01*
X210444Y208666D01*
X210518Y208388D01*
X210574Y208073D01*
X210592Y207758D01*
Y207721D01*
Y207610D01*
X210574Y207462D01*
X210537Y207258D01*
X210481Y207018D01*
X210389Y206758D01*
X210278Y206499D01*
X210130Y206240D01*
X210111Y206203D01*
X210056Y206129D01*
X209944Y205999D01*
X209796Y205851D01*
X209611Y205684D01*
X209389Y205499D01*
X209130Y205333D01*
X208815Y205166D01*
X208833D01*
X208870Y205147D01*
X208926Y205129D01*
X209000Y205110D01*
X209204Y205036D01*
X209463Y204925D01*
X209759Y204777D01*
X210056Y204592D01*
X210333Y204351D01*
X210592Y204074D01*
X210611Y204036D01*
X210685Y203925D01*
X210796Y203740D01*
X210907Y203499D01*
X211018Y203203D01*
X211129Y202851D01*
X211203Y202444D01*
X211222Y202000D01*
Y201981D01*
Y201926D01*
Y201833D01*
X211203Y201722D01*
X211185Y201574D01*
X211148Y201407D01*
X211111Y201222D01*
X211074Y201018D01*
X210926Y200574D01*
X210815Y200333D01*
X210704Y200111D01*
X210555Y199870D01*
X210389Y199629D01*
X210204Y199389D01*
X209981Y199167D01*
X209963Y199148D01*
X209926Y199111D01*
X209852Y199056D01*
X209759Y198981D01*
X209648Y198889D01*
X209500Y198796D01*
X209333Y198685D01*
X209130Y198592D01*
X208926Y198481D01*
X208685Y198370D01*
X208445Y198278D01*
X208167Y198185D01*
X207871Y198111D01*
X207556Y198056D01*
X207241Y198018D01*
X206889Y198000D01*
X206723D01*
X206611Y198018D01*
X206463Y198037D01*
X206297Y198056D01*
X206112Y198093D01*
X205908Y198130D01*
X205463Y198241D01*
X205000Y198426D01*
X204760Y198537D01*
X204538Y198667D01*
X204315Y198833D01*
X204093Y199000D01*
X204075Y199018D01*
X204038Y199056D01*
X203982Y199111D01*
X203927Y199185D01*
X203834Y199278D01*
X203741Y199407D01*
X203630Y199537D01*
X203519Y199704D01*
X203408Y199889D01*
X203297Y200074D01*
X203093Y200518D01*
X202927Y201037D01*
X202871Y201315D01*
X202834Y201611D01*
X204408Y201814D01*
Y201796D01*
X204426Y201759D01*
X204445Y201685D01*
X204464Y201592D01*
X204482Y201481D01*
X204519Y201352D01*
X204612Y201074D01*
X204741Y200741D01*
X204908Y200426D01*
X205093Y200129D01*
X205315Y199870D01*
X205352Y199852D01*
X205426Y199778D01*
X205574Y199685D01*
X205760Y199592D01*
X205982Y199481D01*
X206260Y199389D01*
X206574Y199315D01*
X206908Y199296D01*
X207019D01*
X207093Y199315D01*
X207297Y199333D01*
X207556Y199389D01*
X207852Y199481D01*
X208167Y199611D01*
X208482Y199796D01*
X208778Y200055D01*
X208815Y200092D01*
X208908Y200203D01*
X209019Y200370D01*
X209167Y200592D01*
X209315Y200870D01*
X209426Y201185D01*
X209519Y201555D01*
X209556Y201963D01*
Y201981D01*
Y202018D01*
Y202074D01*
X209537Y202148D01*
X209519Y202351D01*
X209463Y202592D01*
X209389Y202888D01*
X209259Y203185D01*
X209074Y203481D01*
X208833Y203759D01*
X208796Y203796D01*
X208704Y203870D01*
X208556Y203981D01*
X208352Y204111D01*
X208093Y204240D01*
X207778Y204351D01*
X207426Y204425D01*
X207037Y204462D01*
X206871D01*
X206741Y204444D01*
X206574Y204425D01*
X206389Y204388D01*
X206167Y204351D01*
X205926Y204296D01*
X206112Y205684D01*
X206204D01*
X206278Y205666D01*
X206519D01*
X206723Y205703D01*
X206963Y205740D01*
X207241Y205795D01*
X207556Y205888D01*
X207852Y206018D01*
X208167Y206184D01*
X208185D01*
X208204Y206203D01*
X208296Y206277D01*
X208426Y206406D01*
X208574Y206573D01*
X208722Y206814D01*
X208852Y207092D01*
X208944Y207406D01*
X208981Y207592D01*
Y207795D01*
Y207814D01*
Y207832D01*
Y207943D01*
X208944Y208092D01*
X208908Y208295D01*
X208833Y208517D01*
X208741Y208758D01*
X208593Y208999D01*
X208389Y209221D01*
X208370Y209240D01*
X208278Y209314D01*
X208148Y209406D01*
X207982Y209517D01*
X207759Y209610D01*
X207500Y209702D01*
X207204Y209777D01*
X206871Y209795D01*
X206723D01*
X206556Y209758D01*
X206334Y209721D01*
X206093Y209647D01*
X205852Y209554D01*
X205593Y209406D01*
X205352Y209221D01*
X205334Y209203D01*
X205260Y209110D01*
X205149Y208980D01*
X205019Y208795D01*
X204889Y208554D01*
X204760Y208258D01*
X204649Y207906D01*
X204575Y207499D01*
X203001Y207777D01*
Y207795D01*
X203019Y207851D01*
X203038Y207925D01*
X203056Y208036D01*
X203093Y208166D01*
X203149Y208314D01*
X203260Y208666D01*
X203445Y209073D01*
X203667Y209480D01*
X203945Y209869D01*
X204297Y210221D01*
X204315Y210240D01*
X204352Y210258D01*
X204408Y210295D01*
X204482Y210351D01*
X204575Y210425D01*
X204704Y210499D01*
X204834Y210573D01*
X205000Y210665D01*
X205371Y210814D01*
X205797Y210962D01*
X206297Y211054D01*
X206556Y211091D01*
X207019D01*
X207222Y211073D01*
D02*
G37*
G36*
X182332Y210851D02*
X182480Y210832D01*
X182666Y210814D01*
X182869Y210777D01*
X183073Y210739D01*
X183554Y210610D01*
X184036Y210425D01*
X184277Y210313D01*
X184517Y210184D01*
X184739Y210017D01*
X184943Y209832D01*
X184962Y209814D01*
X184999Y209795D01*
X185036Y209721D01*
X185110Y209647D01*
X185202Y209554D01*
X185295Y209425D01*
X185387Y209295D01*
X185499Y209128D01*
X185684Y208777D01*
X185869Y208332D01*
X185943Y208110D01*
X185980Y207851D01*
X186017Y207592D01*
X186036Y207314D01*
Y207277D01*
Y207184D01*
X186017Y207036D01*
X185999Y206832D01*
X185961Y206610D01*
X185888Y206351D01*
X185813Y206073D01*
X185702Y205795D01*
X185684Y205758D01*
X185647Y205666D01*
X185573Y205518D01*
X185462Y205314D01*
X185313Y205092D01*
X185128Y204814D01*
X184906Y204536D01*
X184647Y204222D01*
X184610Y204185D01*
X184517Y204074D01*
X184425Y203981D01*
X184332Y203888D01*
X184221Y203777D01*
X184073Y203629D01*
X183925Y203481D01*
X183739Y203314D01*
X183554Y203129D01*
X183332Y202925D01*
X183092Y202722D01*
X182832Y202481D01*
X182536Y202240D01*
X182240Y201981D01*
X182221Y201963D01*
X182184Y201926D01*
X182110Y201870D01*
X182017Y201796D01*
X181906Y201685D01*
X181777Y201574D01*
X181481Y201333D01*
X181166Y201055D01*
X180870Y200777D01*
X180610Y200537D01*
X180499Y200444D01*
X180406Y200352D01*
X180388Y200333D01*
X180333Y200278D01*
X180258Y200203D01*
X180166Y200092D01*
X180073Y199963D01*
X179962Y199833D01*
X179740Y199518D01*
X186054D01*
Y198000D01*
X177555D01*
Y198018D01*
Y198093D01*
Y198204D01*
X177574Y198352D01*
X177592Y198519D01*
X177629Y198704D01*
X177666Y198889D01*
X177740Y199093D01*
Y199111D01*
X177759Y199130D01*
X177796Y199241D01*
X177870Y199407D01*
X177981Y199629D01*
X178129Y199889D01*
X178314Y200185D01*
X178518Y200481D01*
X178777Y200796D01*
Y200814D01*
X178814Y200833D01*
X178907Y200944D01*
X179073Y201111D01*
X179314Y201352D01*
X179592Y201629D01*
X179944Y201963D01*
X180369Y202333D01*
X180832Y202722D01*
X180851Y202740D01*
X180925Y202796D01*
X181036Y202888D01*
X181166Y202999D01*
X181332Y203148D01*
X181536Y203314D01*
X181740Y203499D01*
X181980Y203703D01*
X182443Y204147D01*
X182906Y204592D01*
X183129Y204814D01*
X183332Y205036D01*
X183517Y205240D01*
X183666Y205444D01*
Y205462D01*
X183703Y205481D01*
X183739Y205536D01*
X183777Y205610D01*
X183906Y205814D01*
X184054Y206055D01*
X184184Y206351D01*
X184314Y206666D01*
X184388Y207018D01*
X184425Y207351D01*
Y207369D01*
Y207388D01*
X184406Y207499D01*
X184388Y207684D01*
X184332Y207888D01*
X184258Y208147D01*
X184128Y208406D01*
X183962Y208666D01*
X183739Y208925D01*
X183703Y208962D01*
X183610Y209036D01*
X183480Y209128D01*
X183277Y209258D01*
X183017Y209369D01*
X182721Y209480D01*
X182369Y209554D01*
X181980Y209573D01*
X181869D01*
X181795Y209554D01*
X181573Y209536D01*
X181314Y209480D01*
X181036Y209406D01*
X180721Y209277D01*
X180425Y209110D01*
X180147Y208888D01*
X180110Y208851D01*
X180036Y208758D01*
X179925Y208610D01*
X179814Y208388D01*
X179684Y208129D01*
X179573Y207795D01*
X179499Y207425D01*
X179462Y206999D01*
X177851Y207166D01*
Y207184D01*
X177870Y207240D01*
Y207332D01*
X177888Y207462D01*
X177925Y207610D01*
X177962Y207777D01*
X178018Y207980D01*
X178074Y208184D01*
X178222Y208629D01*
X178444Y209073D01*
X178573Y209295D01*
X178740Y209517D01*
X178907Y209721D01*
X179092Y209906D01*
X179110Y209925D01*
X179147Y209943D01*
X179203Y209999D01*
X179296Y210054D01*
X179407Y210128D01*
X179536Y210202D01*
X179684Y210295D01*
X179870Y210388D01*
X180073Y210480D01*
X180295Y210573D01*
X180536Y210647D01*
X180795Y210721D01*
X181073Y210777D01*
X181369Y210832D01*
X181684Y210851D01*
X182017Y210869D01*
X182203D01*
X182332Y210851D01*
D02*
G37*
G36*
X416013Y43703D02*
X416143D01*
X416273Y43684D01*
X416587Y43629D01*
X416921Y43536D01*
X417272Y43388D01*
X417624Y43203D01*
X417921Y42944D01*
X417958Y42906D01*
X418032Y42795D01*
X418161Y42629D01*
X418217Y42499D01*
X418291Y42369D01*
X418365Y42203D01*
X418421Y42036D01*
X418495Y41851D01*
X418550Y41629D01*
X418587Y41407D01*
X418624Y41147D01*
X418661Y40888D01*
Y40592D01*
Y34222D01*
X417087D01*
Y40055D01*
Y40073D01*
Y40092D01*
Y40203D01*
Y40370D01*
X417069Y40573D01*
X417050Y40796D01*
X417032Y41018D01*
X416995Y41240D01*
X416939Y41407D01*
Y41425D01*
X416902Y41481D01*
X416865Y41555D01*
X416810Y41647D01*
X416736Y41758D01*
X416643Y41870D01*
X416532Y41981D01*
X416384Y42092D01*
X416365Y42110D01*
X416310Y42129D01*
X416236Y42166D01*
X416106Y42221D01*
X415976Y42277D01*
X415810Y42314D01*
X415643Y42333D01*
X415439Y42351D01*
X415347D01*
X415273Y42333D01*
X415088Y42314D01*
X414865Y42277D01*
X414606Y42184D01*
X414328Y42073D01*
X414051Y41907D01*
X413791Y41684D01*
X413773Y41647D01*
X413699Y41555D01*
X413588Y41407D01*
X413477Y41184D01*
X413347Y40888D01*
X413254Y40536D01*
X413180Y40111D01*
X413143Y39611D01*
Y34222D01*
X411569D01*
Y40240D01*
Y40259D01*
Y40296D01*
Y40333D01*
Y40407D01*
X411551Y40610D01*
X411514Y40833D01*
X411477Y41092D01*
X411403Y41351D01*
X411310Y41592D01*
X411181Y41814D01*
X411162Y41832D01*
X411106Y41907D01*
X411014Y41981D01*
X410884Y42092D01*
X410718Y42184D01*
X410495Y42277D01*
X410236Y42333D01*
X409921Y42351D01*
X409810D01*
X409681Y42333D01*
X409533Y42314D01*
X409347Y42258D01*
X409125Y42203D01*
X408922Y42110D01*
X408699Y41999D01*
X408681Y41981D01*
X408607Y41925D01*
X408514Y41851D01*
X408385Y41740D01*
X408255Y41592D01*
X408125Y41407D01*
X407996Y41203D01*
X407885Y40962D01*
X407866Y40925D01*
X407848Y40833D01*
X407811Y40684D01*
X407755Y40481D01*
X407700Y40203D01*
X407662Y39870D01*
X407644Y39481D01*
X407625Y39037D01*
Y34222D01*
X406051D01*
Y43517D01*
X407459D01*
Y42184D01*
X407477Y42221D01*
X407533Y42295D01*
X407644Y42425D01*
X407774Y42573D01*
X407940Y42758D01*
X408144Y42944D01*
X408366Y43129D01*
X408625Y43295D01*
X408662Y43314D01*
X408755Y43369D01*
X408903Y43425D01*
X409107Y43517D01*
X409347Y43592D01*
X409625Y43647D01*
X409940Y43703D01*
X410273Y43721D01*
X410440D01*
X410644Y43703D01*
X410866Y43666D01*
X411144Y43610D01*
X411421Y43536D01*
X411699Y43425D01*
X411958Y43277D01*
X411995Y43258D01*
X412069Y43203D01*
X412180Y43110D01*
X412329Y42962D01*
X412477Y42795D01*
X412643Y42592D01*
X412791Y42351D01*
X412903Y42073D01*
X412921Y42092D01*
X412958Y42147D01*
X413014Y42221D01*
X413106Y42333D01*
X413217Y42462D01*
X413347Y42592D01*
X413495Y42740D01*
X413680Y42906D01*
X413884Y43055D01*
X414088Y43203D01*
X414328Y43332D01*
X414588Y43462D01*
X414865Y43573D01*
X415162Y43647D01*
X415458Y43703D01*
X415791Y43721D01*
X415921D01*
X416013Y43703D01*
D02*
G37*
G36*
X401089D02*
X401219D01*
X401348Y43684D01*
X401663Y43629D01*
X401996Y43536D01*
X402348Y43388D01*
X402700Y43203D01*
X402996Y42944D01*
X403033Y42906D01*
X403107Y42795D01*
X403237Y42629D01*
X403293Y42499D01*
X403367Y42369D01*
X403441Y42203D01*
X403496Y42036D01*
X403570Y41851D01*
X403626Y41629D01*
X403663Y41407D01*
X403700Y41147D01*
X403737Y40888D01*
Y40592D01*
Y34222D01*
X402163D01*
Y40055D01*
Y40073D01*
Y40092D01*
Y40203D01*
Y40370D01*
X402145Y40573D01*
X402126Y40796D01*
X402108Y41018D01*
X402070Y41240D01*
X402015Y41407D01*
Y41425D01*
X401978Y41481D01*
X401941Y41555D01*
X401885Y41647D01*
X401811Y41758D01*
X401719Y41870D01*
X401608Y41981D01*
X401459Y42092D01*
X401441Y42110D01*
X401385Y42129D01*
X401311Y42166D01*
X401182Y42221D01*
X401052Y42277D01*
X400885Y42314D01*
X400719Y42333D01*
X400515Y42351D01*
X400422D01*
X400348Y42333D01*
X400163Y42314D01*
X399941Y42277D01*
X399682Y42184D01*
X399404Y42073D01*
X399126Y41907D01*
X398867Y41684D01*
X398848Y41647D01*
X398774Y41555D01*
X398663Y41407D01*
X398552Y41184D01*
X398423Y40888D01*
X398330Y40536D01*
X398256Y40111D01*
X398219Y39611D01*
Y34222D01*
X396645D01*
Y40240D01*
Y40259D01*
Y40296D01*
Y40333D01*
Y40407D01*
X396627Y40610D01*
X396590Y40833D01*
X396553Y41092D01*
X396478Y41351D01*
X396386Y41592D01*
X396256Y41814D01*
X396238Y41832D01*
X396182Y41907D01*
X396090Y41981D01*
X395960Y42092D01*
X395793Y42184D01*
X395571Y42277D01*
X395312Y42333D01*
X394997Y42351D01*
X394886D01*
X394756Y42333D01*
X394608Y42314D01*
X394423Y42258D01*
X394201Y42203D01*
X393997Y42110D01*
X393775Y41999D01*
X393756Y41981D01*
X393682Y41925D01*
X393590Y41851D01*
X393460Y41740D01*
X393331Y41592D01*
X393201Y41407D01*
X393071Y41203D01*
X392960Y40962D01*
X392942Y40925D01*
X392923Y40833D01*
X392886Y40684D01*
X392831Y40481D01*
X392775Y40203D01*
X392738Y39870D01*
X392719Y39481D01*
X392701Y39037D01*
Y34222D01*
X391127D01*
Y43517D01*
X392534D01*
Y42184D01*
X392553Y42221D01*
X392608Y42295D01*
X392719Y42425D01*
X392849Y42573D01*
X393016Y42758D01*
X393219Y42944D01*
X393442Y43129D01*
X393701Y43295D01*
X393738Y43314D01*
X393830Y43369D01*
X393979Y43425D01*
X394182Y43517D01*
X394423Y43592D01*
X394701Y43647D01*
X395016Y43703D01*
X395349Y43721D01*
X395516D01*
X395719Y43703D01*
X395941Y43666D01*
X396219Y43610D01*
X396497Y43536D01*
X396775Y43425D01*
X397034Y43277D01*
X397071Y43258D01*
X397145Y43203D01*
X397256Y43110D01*
X397404Y42962D01*
X397552Y42795D01*
X397719Y42592D01*
X397867Y42351D01*
X397978Y42073D01*
X397997Y42092D01*
X398034Y42147D01*
X398089Y42221D01*
X398182Y42333D01*
X398293Y42462D01*
X398423Y42592D01*
X398571Y42740D01*
X398756Y42906D01*
X398960Y43055D01*
X399163Y43203D01*
X399404Y43332D01*
X399663Y43462D01*
X399941Y43573D01*
X400237Y43647D01*
X400533Y43703D01*
X400867Y43721D01*
X400997D01*
X401089Y43703D01*
D02*
G37*
G36*
X430216Y38074D02*
X425346D01*
Y39648D01*
X430216D01*
Y38074D01*
D02*
G37*
G36*
X472174Y45517D02*
X467952D01*
Y34222D01*
X466249D01*
Y45517D01*
X462027D01*
Y47036D01*
X472174D01*
Y45517D01*
D02*
G37*
G36*
X442214Y47017D02*
X442363D01*
X442696Y46980D01*
X443066Y46943D01*
X443455Y46869D01*
X443844Y46776D01*
X444196Y46647D01*
X444214D01*
X444233Y46628D01*
X444344Y46573D01*
X444510Y46480D01*
X444696Y46351D01*
X444918Y46184D01*
X445159Y45980D01*
X445381Y45721D01*
X445584Y45443D01*
X445603Y45406D01*
X445658Y45295D01*
X445751Y45147D01*
X445844Y44925D01*
X445936Y44666D01*
X446029Y44388D01*
X446084Y44073D01*
X446103Y43758D01*
Y43721D01*
Y43629D01*
X446084Y43462D01*
X446047Y43258D01*
X445992Y43018D01*
X445899Y42758D01*
X445788Y42499D01*
X445640Y42221D01*
X445621Y42184D01*
X445566Y42110D01*
X445455Y41962D01*
X445307Y41814D01*
X445121Y41629D01*
X444899Y41425D01*
X444622Y41240D01*
X444307Y41055D01*
X444325D01*
X444362Y41036D01*
X444418Y41018D01*
X444492Y40981D01*
X444714Y40907D01*
X444973Y40777D01*
X445251Y40610D01*
X445566Y40407D01*
X445844Y40166D01*
X446103Y39870D01*
X446121Y39833D01*
X446195Y39722D01*
X446307Y39555D01*
X446418Y39333D01*
X446529Y39037D01*
X446640Y38722D01*
X446714Y38351D01*
X446732Y37944D01*
Y37926D01*
Y37907D01*
Y37796D01*
X446714Y37611D01*
X446677Y37389D01*
X446640Y37129D01*
X446566Y36852D01*
X446473Y36555D01*
X446344Y36259D01*
X446325Y36222D01*
X446269Y36129D01*
X446195Y36000D01*
X446084Y35815D01*
X445936Y35629D01*
X445788Y35426D01*
X445603Y35222D01*
X445399Y35055D01*
X445381Y35037D01*
X445307Y34981D01*
X445177Y34907D01*
X445010Y34833D01*
X444807Y34722D01*
X444566Y34611D01*
X444307Y34518D01*
X443992Y34426D01*
X443955D01*
X443844Y34389D01*
X443659Y34370D01*
X443418Y34333D01*
X443122Y34296D01*
X442770Y34259D01*
X442381Y34241D01*
X441937Y34222D01*
X437048Y34222D01*
Y47036D01*
X442085Y47036D01*
X442214Y47017D01*
D02*
G37*
G36*
X378443Y34222D02*
X376647D01*
Y36018D01*
X378443D01*
Y34222D01*
D02*
G37*
G36*
X371722D02*
X370148D01*
Y44240D01*
X370129Y44221D01*
X370037Y44147D01*
X369926Y44036D01*
X369740Y43906D01*
X369537Y43740D01*
X369277Y43555D01*
X368981Y43351D01*
X368648Y43147D01*
X368629D01*
X368611Y43129D01*
X368500Y43055D01*
X368315Y42962D01*
X368092Y42851D01*
X367833Y42721D01*
X367556Y42592D01*
X367278Y42462D01*
X367000Y42351D01*
Y43869D01*
X367019D01*
X367056Y43906D01*
X367130Y43925D01*
X367222Y43980D01*
X367333Y44036D01*
X367463Y44110D01*
X367778Y44295D01*
X368148Y44499D01*
X368518Y44758D01*
X368907Y45054D01*
X369296Y45369D01*
X369315Y45388D01*
X369333Y45406D01*
X369389Y45462D01*
X369463Y45517D01*
X369629Y45703D01*
X369851Y45925D01*
X370074Y46184D01*
X370314Y46480D01*
X370518Y46776D01*
X370703Y47091D01*
X371722D01*
Y34222D01*
D02*
G37*
G36*
X454972Y47239D02*
X455139D01*
X455306Y47221D01*
X455528Y47184D01*
X455750Y47147D01*
X456231Y47054D01*
X456787Y46906D01*
X457324Y46684D01*
X457602Y46554D01*
X457879Y46406D01*
X457898Y46388D01*
X457935Y46369D01*
X458009Y46314D01*
X458120Y46258D01*
X458231Y46165D01*
X458379Y46054D01*
X458694Y45795D01*
X459027Y45462D01*
X459398Y45054D01*
X459750Y44573D01*
X460046Y44036D01*
Y44018D01*
X460083Y43962D01*
X460120Y43888D01*
X460157Y43777D01*
X460231Y43629D01*
X460287Y43462D01*
X460361Y43258D01*
X460435Y43036D01*
X460490Y42795D01*
X460564Y42536D01*
X460638Y42240D01*
X460694Y41944D01*
X460768Y41296D01*
X460805Y40592D01*
Y40573D01*
Y40499D01*
Y40407D01*
X460787Y40259D01*
Y40092D01*
X460768Y39888D01*
X460731Y39666D01*
X460713Y39425D01*
X460620Y38888D01*
X460472Y38296D01*
X460268Y37703D01*
X460157Y37407D01*
X460009Y37111D01*
Y37092D01*
X459972Y37037D01*
X459935Y36963D01*
X459861Y36852D01*
X459787Y36722D01*
X459694Y36592D01*
X459435Y36240D01*
X459120Y35870D01*
X458750Y35481D01*
X458305Y35111D01*
X457787Y34778D01*
X457768D01*
X457731Y34741D01*
X457639Y34704D01*
X457528Y34648D01*
X457398Y34593D01*
X457250Y34537D01*
X457065Y34463D01*
X456861Y34389D01*
X456639Y34315D01*
X456398Y34241D01*
X455861Y34130D01*
X455287Y34037D01*
X454676Y34000D01*
X454491D01*
X454380Y34019D01*
X454213D01*
X454028Y34056D01*
X453824Y34074D01*
X453584Y34111D01*
X453084Y34222D01*
X452547Y34370D01*
X451991Y34593D01*
X451713Y34722D01*
X451436Y34870D01*
X451417Y34889D01*
X451380Y34907D01*
X451306Y34963D01*
X451195Y35037D01*
X451084Y35111D01*
X450954Y35222D01*
X450639Y35500D01*
X450288Y35833D01*
X449917Y36240D01*
X449584Y36704D01*
X449269Y37240D01*
Y37259D01*
X449232Y37315D01*
X449195Y37389D01*
X449158Y37500D01*
X449103Y37648D01*
X449047Y37815D01*
X448973Y38000D01*
X448917Y38203D01*
X448843Y38444D01*
X448769Y38685D01*
X448658Y39240D01*
X448584Y39814D01*
X448547Y40444D01*
Y40462D01*
Y40481D01*
Y40592D01*
X448566Y40759D01*
Y40981D01*
X448603Y41240D01*
X448640Y41555D01*
X448695Y41907D01*
X448769Y42277D01*
X448843Y42666D01*
X448954Y43073D01*
X449103Y43481D01*
X449269Y43906D01*
X449454Y44314D01*
X449695Y44721D01*
X449954Y45092D01*
X450251Y45443D01*
X450269Y45462D01*
X450325Y45517D01*
X450436Y45610D01*
X450565Y45721D01*
X450732Y45869D01*
X450936Y46017D01*
X451176Y46184D01*
X451454Y46351D01*
X451750Y46517D01*
X452084Y46684D01*
X452454Y46832D01*
X452843Y46980D01*
X453269Y47091D01*
X453713Y47184D01*
X454176Y47239D01*
X454676Y47258D01*
X454843D01*
X454972Y47239D01*
D02*
G37*
G36*
X385294Y47073D02*
X385535Y47036D01*
X385813Y46980D01*
X386109Y46906D01*
X386424Y46814D01*
X386720Y46665D01*
X386739D01*
X386757Y46647D01*
X386850Y46591D01*
X386998Y46499D01*
X387183Y46369D01*
X387387Y46184D01*
X387609Y45980D01*
X387813Y45739D01*
X388016Y45462D01*
X388035Y45425D01*
X388109Y45332D01*
X388183Y45166D01*
X388313Y44925D01*
X388424Y44647D01*
X388572Y44332D01*
X388701Y43962D01*
X388812Y43555D01*
Y43536D01*
X388831Y43499D01*
X388850Y43443D01*
X388868Y43351D01*
X388887Y43240D01*
X388905Y43110D01*
X388942Y42944D01*
X388961Y42758D01*
X388998Y42555D01*
X389016Y42333D01*
X389035Y42073D01*
X389072Y41814D01*
X389090Y41518D01*
Y41221D01*
X389109Y40888D01*
Y40536D01*
Y40518D01*
Y40444D01*
Y40314D01*
Y40166D01*
X389090Y39962D01*
Y39740D01*
X389072Y39499D01*
X389053Y39240D01*
X388998Y38648D01*
X388905Y38037D01*
X388794Y37444D01*
X388720Y37166D01*
X388627Y36889D01*
Y36870D01*
X388609Y36833D01*
X388572Y36759D01*
X388535Y36666D01*
X388498Y36537D01*
X388424Y36407D01*
X388276Y36092D01*
X388090Y35759D01*
X387850Y35389D01*
X387572Y35055D01*
X387239Y34741D01*
X387220D01*
X387202Y34704D01*
X387146Y34667D01*
X387072Y34630D01*
X386979Y34574D01*
X386887Y34500D01*
X386609Y34370D01*
X386276Y34241D01*
X385887Y34111D01*
X385424Y34037D01*
X384924Y34000D01*
X384739D01*
X384609Y34018D01*
X384461Y34037D01*
X384276Y34074D01*
X384072Y34111D01*
X383850Y34167D01*
X383628Y34241D01*
X383387Y34315D01*
X383147Y34426D01*
X382906Y34555D01*
X382665Y34704D01*
X382424Y34889D01*
X382202Y35092D01*
X381998Y35315D01*
X381980Y35333D01*
X381943Y35389D01*
X381887Y35481D01*
X381795Y35629D01*
X381702Y35796D01*
X381610Y36018D01*
X381480Y36277D01*
X381369Y36574D01*
X381258Y36907D01*
X381147Y37296D01*
X381036Y37722D01*
X380943Y38203D01*
X380850Y38722D01*
X380795Y39277D01*
X380758Y39888D01*
X380739Y40536D01*
Y40555D01*
Y40629D01*
Y40759D01*
Y40907D01*
X380758Y41110D01*
Y41333D01*
X380776Y41573D01*
X380795Y41851D01*
X380850Y42425D01*
X380943Y43036D01*
X381054Y43647D01*
X381128Y43925D01*
X381202Y44203D01*
Y44221D01*
X381221Y44258D01*
X381258Y44332D01*
X381295Y44425D01*
X381332Y44555D01*
X381406Y44684D01*
X381554Y44999D01*
X381739Y45332D01*
X381980Y45684D01*
X382258Y46036D01*
X382591Y46332D01*
X382609D01*
X382628Y46369D01*
X382683Y46406D01*
X382758Y46443D01*
X382850Y46517D01*
X382961Y46573D01*
X383239Y46721D01*
X383572Y46851D01*
X383961Y46980D01*
X384424Y47054D01*
X384924Y47091D01*
X385091D01*
X385294Y47073D01*
D02*
G37*
G36*
X417217Y62871D02*
X417347D01*
X417476Y62853D01*
X417791Y62797D01*
X418124Y62705D01*
X418476Y62557D01*
X418828Y62372D01*
X419124Y62112D01*
X419161Y62075D01*
X419235Y61964D01*
X419365Y61798D01*
X419421Y61668D01*
X419495Y61538D01*
X419569Y61372D01*
X419624Y61205D01*
X419698Y61020D01*
X419754Y60798D01*
X419791Y60575D01*
X419828Y60316D01*
X419865Y60057D01*
Y59761D01*
Y53391D01*
X418291D01*
Y59224D01*
Y59242D01*
Y59261D01*
Y59372D01*
Y59538D01*
X418272Y59742D01*
X418254Y59964D01*
X418235Y60187D01*
X418198Y60409D01*
X418143Y60575D01*
Y60594D01*
X418106Y60649D01*
X418069Y60724D01*
X418013Y60816D01*
X417939Y60927D01*
X417847Y61038D01*
X417735Y61150D01*
X417587Y61261D01*
X417569Y61279D01*
X417513Y61298D01*
X417439Y61335D01*
X417310Y61390D01*
X417180Y61446D01*
X417013Y61483D01*
X416847Y61501D01*
X416643Y61520D01*
X416550D01*
X416476Y61501D01*
X416291Y61483D01*
X416069Y61446D01*
X415810Y61353D01*
X415532Y61242D01*
X415254Y61075D01*
X414995Y60853D01*
X414977Y60816D01*
X414902Y60724D01*
X414791Y60575D01*
X414680Y60353D01*
X414551Y60057D01*
X414458Y59705D01*
X414384Y59279D01*
X414347Y58779D01*
Y53391D01*
X412773D01*
Y59409D01*
Y59427D01*
Y59465D01*
Y59502D01*
Y59576D01*
X412755Y59779D01*
X412718Y60002D01*
X412680Y60261D01*
X412606Y60520D01*
X412514Y60761D01*
X412384Y60983D01*
X412366Y61001D01*
X412310Y61075D01*
X412217Y61150D01*
X412088Y61261D01*
X411921Y61353D01*
X411699Y61446D01*
X411440Y61501D01*
X411125Y61520D01*
X411014D01*
X410884Y61501D01*
X410736Y61483D01*
X410551Y61427D01*
X410329Y61372D01*
X410125Y61279D01*
X409903Y61168D01*
X409884Y61150D01*
X409810Y61094D01*
X409718Y61020D01*
X409588Y60909D01*
X409459Y60761D01*
X409329Y60575D01*
X409199Y60372D01*
X409088Y60131D01*
X409070Y60094D01*
X409051Y60002D01*
X409014Y59853D01*
X408959Y59650D01*
X408903Y59372D01*
X408866Y59039D01*
X408848Y58650D01*
X408829Y58205D01*
Y53391D01*
X407255D01*
Y62686D01*
X408662D01*
Y61353D01*
X408681Y61390D01*
X408736Y61464D01*
X408848Y61594D01*
X408977Y61742D01*
X409144Y61927D01*
X409347Y62112D01*
X409570Y62298D01*
X409829Y62464D01*
X409866Y62483D01*
X409958Y62538D01*
X410107Y62594D01*
X410310Y62686D01*
X410551Y62760D01*
X410829Y62816D01*
X411144Y62871D01*
X411477Y62890D01*
X411643D01*
X411847Y62871D01*
X412069Y62835D01*
X412347Y62779D01*
X412625Y62705D01*
X412903Y62594D01*
X413162Y62446D01*
X413199Y62427D01*
X413273Y62372D01*
X413384Y62279D01*
X413532Y62131D01*
X413680Y61964D01*
X413847Y61761D01*
X413995Y61520D01*
X414106Y61242D01*
X414125Y61261D01*
X414162Y61316D01*
X414217Y61390D01*
X414310Y61501D01*
X414421Y61631D01*
X414551Y61761D01*
X414699Y61909D01*
X414884Y62075D01*
X415088Y62223D01*
X415291Y62372D01*
X415532Y62501D01*
X415791Y62631D01*
X416069Y62742D01*
X416365Y62816D01*
X416661Y62871D01*
X416995Y62890D01*
X417124D01*
X417217Y62871D01*
D02*
G37*
G36*
X402293D02*
X402422D01*
X402552Y62853D01*
X402867Y62797D01*
X403200Y62705D01*
X403552Y62557D01*
X403904Y62372D01*
X404200Y62112D01*
X404237Y62075D01*
X404311Y61964D01*
X404440Y61798D01*
X404496Y61668D01*
X404570Y61538D01*
X404644Y61372D01*
X404700Y61205D01*
X404774Y61020D01*
X404829Y60798D01*
X404866Y60575D01*
X404903Y60316D01*
X404940Y60057D01*
Y59761D01*
Y53391D01*
X403367D01*
Y59224D01*
Y59242D01*
Y59261D01*
Y59372D01*
Y59538D01*
X403348Y59742D01*
X403330Y59964D01*
X403311Y60187D01*
X403274Y60409D01*
X403218Y60575D01*
Y60594D01*
X403181Y60649D01*
X403144Y60724D01*
X403089Y60816D01*
X403015Y60927D01*
X402922Y61038D01*
X402811Y61150D01*
X402663Y61261D01*
X402644Y61279D01*
X402589Y61298D01*
X402515Y61335D01*
X402385Y61390D01*
X402256Y61446D01*
X402089Y61483D01*
X401922Y61501D01*
X401719Y61520D01*
X401626D01*
X401552Y61501D01*
X401367Y61483D01*
X401145Y61446D01*
X400885Y61353D01*
X400608Y61242D01*
X400330Y61075D01*
X400071Y60853D01*
X400052Y60816D01*
X399978Y60724D01*
X399867Y60575D01*
X399756Y60353D01*
X399626Y60057D01*
X399534Y59705D01*
X399460Y59279D01*
X399422Y58779D01*
Y53391D01*
X397849D01*
Y59409D01*
Y59427D01*
Y59465D01*
Y59502D01*
Y59576D01*
X397830Y59779D01*
X397793Y60002D01*
X397756Y60261D01*
X397682Y60520D01*
X397589Y60761D01*
X397460Y60983D01*
X397441Y61001D01*
X397386Y61075D01*
X397293Y61150D01*
X397164Y61261D01*
X396997Y61353D01*
X396775Y61446D01*
X396515Y61501D01*
X396201Y61520D01*
X396090D01*
X395960Y61501D01*
X395812Y61483D01*
X395627Y61427D01*
X395404Y61372D01*
X395201Y61279D01*
X394979Y61168D01*
X394960Y61150D01*
X394886Y61094D01*
X394793Y61020D01*
X394664Y60909D01*
X394534Y60761D01*
X394404Y60575D01*
X394275Y60372D01*
X394164Y60131D01*
X394145Y60094D01*
X394127Y60002D01*
X394090Y59853D01*
X394034Y59650D01*
X393979Y59372D01*
X393942Y59039D01*
X393923Y58650D01*
X393905Y58205D01*
Y53391D01*
X392331D01*
Y62686D01*
X393738D01*
Y61353D01*
X393756Y61390D01*
X393812Y61464D01*
X393923Y61594D01*
X394053Y61742D01*
X394219Y61927D01*
X394423Y62112D01*
X394645Y62298D01*
X394905Y62464D01*
X394941Y62483D01*
X395034Y62538D01*
X395182Y62594D01*
X395386Y62686D01*
X395627Y62760D01*
X395904Y62816D01*
X396219Y62871D01*
X396553Y62890D01*
X396719D01*
X396923Y62871D01*
X397145Y62835D01*
X397423Y62779D01*
X397701Y62705D01*
X397978Y62594D01*
X398237Y62446D01*
X398274Y62427D01*
X398349Y62372D01*
X398460Y62279D01*
X398608Y62131D01*
X398756Y61964D01*
X398923Y61761D01*
X399071Y61520D01*
X399182Y61242D01*
X399200Y61261D01*
X399237Y61316D01*
X399293Y61390D01*
X399385Y61501D01*
X399497Y61631D01*
X399626Y61761D01*
X399774Y61909D01*
X399959Y62075D01*
X400163Y62223D01*
X400367Y62372D01*
X400608Y62501D01*
X400867Y62631D01*
X401145Y62742D01*
X401441Y62816D01*
X401737Y62871D01*
X402070Y62890D01*
X402200D01*
X402293Y62871D01*
D02*
G37*
G36*
X431419Y57242D02*
X426549D01*
Y58816D01*
X431419D01*
Y57242D01*
D02*
G37*
G36*
X389831Y64538D02*
X384702D01*
X384017Y61075D01*
X384035Y61094D01*
X384072Y61112D01*
X384128Y61150D01*
X384220Y61205D01*
X384332Y61261D01*
X384461Y61335D01*
X384757Y61483D01*
X385128Y61631D01*
X385535Y61761D01*
X385979Y61853D01*
X386202Y61890D01*
X386609D01*
X386720Y61872D01*
X386868Y61853D01*
X387035Y61835D01*
X387220Y61798D01*
X387424Y61742D01*
X387868Y61612D01*
X388109Y61520D01*
X388350Y61390D01*
X388590Y61261D01*
X388831Y61112D01*
X389053Y60927D01*
X389275Y60724D01*
X389294Y60705D01*
X389331Y60668D01*
X389386Y60613D01*
X389461Y60520D01*
X389553Y60390D01*
X389646Y60261D01*
X389757Y60094D01*
X389868Y59909D01*
X389961Y59705D01*
X390072Y59483D01*
X390164Y59224D01*
X390257Y58965D01*
X390331Y58687D01*
X390386Y58372D01*
X390424Y58057D01*
X390442Y57724D01*
Y57705D01*
Y57650D01*
Y57557D01*
X390424Y57428D01*
X390405Y57280D01*
X390386Y57113D01*
X390349Y56909D01*
X390312Y56705D01*
X390201Y56224D01*
X390016Y55724D01*
X389905Y55465D01*
X389757Y55224D01*
X389609Y54965D01*
X389424Y54724D01*
X389405Y54706D01*
X389368Y54650D01*
X389294Y54576D01*
X389201Y54483D01*
X389072Y54372D01*
X388924Y54224D01*
X388739Y54095D01*
X388535Y53946D01*
X388313Y53798D01*
X388053Y53669D01*
X387776Y53539D01*
X387479Y53410D01*
X387165Y53317D01*
X386813Y53243D01*
X386442Y53187D01*
X386054Y53169D01*
X385887D01*
X385757Y53187D01*
X385609Y53206D01*
X385443Y53224D01*
X385239Y53243D01*
X385035Y53298D01*
X384572Y53410D01*
X384109Y53576D01*
X383869Y53687D01*
X383628Y53817D01*
X383406Y53965D01*
X383184Y54132D01*
X383165Y54150D01*
X383128Y54169D01*
X383091Y54243D01*
X383017Y54317D01*
X382924Y54409D01*
X382832Y54521D01*
X382721Y54669D01*
X382628Y54835D01*
X382517Y55002D01*
X382406Y55206D01*
X382202Y55650D01*
X382035Y56168D01*
X381980Y56446D01*
X381943Y56743D01*
X383591Y56872D01*
Y56854D01*
Y56817D01*
X383609Y56761D01*
X383628Y56669D01*
X383683Y56465D01*
X383758Y56187D01*
X383869Y55909D01*
X384017Y55595D01*
X384202Y55317D01*
X384424Y55058D01*
X384461Y55039D01*
X384535Y54965D01*
X384683Y54872D01*
X384887Y54761D01*
X385109Y54650D01*
X385387Y54558D01*
X385702Y54483D01*
X386054Y54465D01*
X386165D01*
X386239Y54483D01*
X386461Y54502D01*
X386720Y54576D01*
X387035Y54669D01*
X387350Y54817D01*
X387683Y55039D01*
X387831Y55169D01*
X387979Y55317D01*
X387998Y55335D01*
X388016Y55354D01*
X388053Y55409D01*
X388109Y55465D01*
X388238Y55669D01*
X388387Y55928D01*
X388516Y56243D01*
X388646Y56631D01*
X388739Y57094D01*
X388775Y57335D01*
Y57594D01*
Y57613D01*
Y57650D01*
Y57724D01*
X388757Y57817D01*
Y57928D01*
X388739Y58057D01*
X388683Y58354D01*
X388590Y58705D01*
X388461Y59057D01*
X388276Y59390D01*
X388016Y59705D01*
Y59724D01*
X387979Y59742D01*
X387887Y59835D01*
X387720Y59964D01*
X387498Y60113D01*
X387202Y60242D01*
X386868Y60372D01*
X386479Y60464D01*
X386257Y60501D01*
X385905D01*
X385757Y60483D01*
X385572Y60464D01*
X385350Y60409D01*
X385128Y60353D01*
X384887Y60261D01*
X384646Y60150D01*
X384628Y60131D01*
X384554Y60094D01*
X384443Y60002D01*
X384295Y59909D01*
X384146Y59779D01*
X383998Y59613D01*
X383832Y59446D01*
X383702Y59242D01*
X382221Y59446D01*
X383461Y66038D01*
X389831D01*
Y64538D01*
D02*
G37*
G36*
X468730Y66186D02*
X469045Y66167D01*
X469378Y66149D01*
X469693Y66112D01*
X469971Y66075D01*
X470008D01*
X470137Y66038D01*
X470304Y66001D01*
X470526Y65945D01*
X470767Y65853D01*
X471026Y65742D01*
X471304Y65612D01*
X471545Y65464D01*
X471582Y65445D01*
X471656Y65390D01*
X471767Y65279D01*
X471915Y65149D01*
X472082Y64982D01*
X472248Y64760D01*
X472434Y64520D01*
X472582Y64242D01*
X472600Y64205D01*
X472637Y64112D01*
X472711Y63945D01*
X472785Y63723D01*
X472841Y63464D01*
X472915Y63168D01*
X472952Y62835D01*
X472971Y62483D01*
Y62464D01*
Y62409D01*
Y62335D01*
X472952Y62205D01*
X472933Y62075D01*
X472915Y61909D01*
X472878Y61723D01*
X472841Y61520D01*
X472711Y61094D01*
X472637Y60872D01*
X472526Y60631D01*
X472397Y60390D01*
X472267Y60168D01*
X472100Y59946D01*
X471915Y59724D01*
X471897Y59705D01*
X471860Y59668D01*
X471804Y59613D01*
X471711Y59557D01*
X471600Y59465D01*
X471452Y59372D01*
X471267Y59261D01*
X471063Y59168D01*
X470823Y59057D01*
X470545Y58946D01*
X470248Y58854D01*
X469897Y58779D01*
X469526Y58705D01*
X469119Y58650D01*
X468656Y58613D01*
X468175Y58594D01*
X464897D01*
Y53391D01*
X463194D01*
Y66205D01*
X468452D01*
X468730Y66186D01*
D02*
G37*
G36*
X447510Y64686D02*
X443288D01*
Y53391D01*
X441585D01*
Y64686D01*
X437363Y64686D01*
Y66205D01*
X447510Y66205D01*
Y64686D01*
D02*
G37*
G36*
X379647Y53391D02*
X377851D01*
Y55187D01*
X379647D01*
Y53391D01*
D02*
G37*
G36*
X455176Y66408D02*
X455343D01*
X455509Y66390D01*
X455732Y66353D01*
X455954Y66316D01*
X456435Y66223D01*
X456991Y66075D01*
X457528Y65853D01*
X457805Y65723D01*
X458083Y65575D01*
X458102Y65557D01*
X458139Y65538D01*
X458213Y65482D01*
X458324Y65427D01*
X458435Y65334D01*
X458583Y65223D01*
X458898Y64964D01*
X459231Y64631D01*
X459602Y64223D01*
X459953Y63742D01*
X460250Y63205D01*
Y63186D01*
X460287Y63131D01*
X460324Y63057D01*
X460361Y62946D01*
X460435Y62797D01*
X460490Y62631D01*
X460564Y62427D01*
X460638Y62205D01*
X460694Y61964D01*
X460768Y61705D01*
X460842Y61409D01*
X460898Y61112D01*
X460972Y60464D01*
X461009Y59761D01*
Y59742D01*
Y59668D01*
Y59576D01*
X460990Y59427D01*
Y59261D01*
X460972Y59057D01*
X460935Y58835D01*
X460916Y58594D01*
X460824Y58057D01*
X460676Y57465D01*
X460472Y56872D01*
X460361Y56576D01*
X460213Y56280D01*
Y56261D01*
X460176Y56206D01*
X460139Y56132D01*
X460064Y56020D01*
X459990Y55891D01*
X459898Y55761D01*
X459638Y55409D01*
X459324Y55039D01*
X458953Y54650D01*
X458509Y54280D01*
X457990Y53947D01*
X457972D01*
X457935Y53910D01*
X457842Y53872D01*
X457731Y53817D01*
X457602Y53761D01*
X457454Y53706D01*
X457268Y53632D01*
X457065Y53558D01*
X456842Y53484D01*
X456602Y53410D01*
X456065Y53299D01*
X455491Y53206D01*
X454880Y53169D01*
X454695D01*
X454584Y53187D01*
X454417D01*
X454232Y53224D01*
X454028Y53243D01*
X453787Y53280D01*
X453287Y53391D01*
X452750Y53539D01*
X452195Y53761D01*
X451917Y53891D01*
X451639Y54039D01*
X451621Y54058D01*
X451584Y54076D01*
X451510Y54132D01*
X451399Y54206D01*
X451287Y54280D01*
X451158Y54391D01*
X450843Y54669D01*
X450491Y55002D01*
X450121Y55409D01*
X449788Y55872D01*
X449473Y56409D01*
Y56428D01*
X449436Y56483D01*
X449399Y56557D01*
X449362Y56669D01*
X449306Y56817D01*
X449251Y56983D01*
X449177Y57168D01*
X449121Y57372D01*
X449047Y57613D01*
X448973Y57854D01*
X448862Y58409D01*
X448788Y58983D01*
X448751Y59613D01*
Y59631D01*
Y59650D01*
Y59761D01*
X448769Y59927D01*
Y60150D01*
X448806Y60409D01*
X448843Y60724D01*
X448899Y61075D01*
X448973Y61446D01*
X449047Y61835D01*
X449158Y62242D01*
X449306Y62649D01*
X449473Y63075D01*
X449658Y63483D01*
X449899Y63890D01*
X450158Y64260D01*
X450454Y64612D01*
X450473Y64631D01*
X450528Y64686D01*
X450639Y64779D01*
X450769Y64890D01*
X450936Y65038D01*
X451139Y65186D01*
X451380Y65353D01*
X451658Y65519D01*
X451954Y65686D01*
X452287Y65853D01*
X452658Y66001D01*
X453047Y66149D01*
X453473Y66260D01*
X453917Y66353D01*
X454380Y66408D01*
X454880Y66427D01*
X455046D01*
X455176Y66408D01*
D02*
G37*
G36*
X371555Y66241D02*
X371796Y66205D01*
X372074Y66149D01*
X372370Y66075D01*
X372685Y65982D01*
X372981Y65834D01*
X372999D01*
X373018Y65816D01*
X373111Y65760D01*
X373259Y65668D01*
X373444Y65538D01*
X373647Y65353D01*
X373870Y65149D01*
X374073Y64908D01*
X374277Y64631D01*
X374296Y64594D01*
X374370Y64501D01*
X374444Y64334D01*
X374573Y64094D01*
X374684Y63816D01*
X374832Y63501D01*
X374962Y63131D01*
X375073Y62723D01*
Y62705D01*
X375092Y62668D01*
X375110Y62612D01*
X375129Y62520D01*
X375147Y62409D01*
X375166Y62279D01*
X375203Y62112D01*
X375221Y61927D01*
X375258Y61723D01*
X375277Y61501D01*
X375295Y61242D01*
X375332Y60983D01*
X375351Y60687D01*
Y60390D01*
X375369Y60057D01*
Y59705D01*
Y59687D01*
Y59613D01*
Y59483D01*
Y59335D01*
X375351Y59131D01*
Y58909D01*
X375332Y58668D01*
X375314Y58409D01*
X375258Y57817D01*
X375166Y57205D01*
X375055Y56613D01*
X374981Y56335D01*
X374888Y56057D01*
Y56039D01*
X374869Y56002D01*
X374832Y55928D01*
X374795Y55835D01*
X374758Y55706D01*
X374684Y55576D01*
X374536Y55261D01*
X374351Y54928D01*
X374110Y54558D01*
X373833Y54224D01*
X373499Y53910D01*
X373481D01*
X373462Y53872D01*
X373407Y53835D01*
X373333Y53798D01*
X373240Y53743D01*
X373148Y53669D01*
X372870Y53539D01*
X372536Y53410D01*
X372148Y53280D01*
X371685Y53206D01*
X371185Y53169D01*
X371000D01*
X370870Y53187D01*
X370722Y53206D01*
X370537Y53243D01*
X370333Y53280D01*
X370111Y53335D01*
X369889Y53410D01*
X369648Y53484D01*
X369407Y53595D01*
X369166Y53724D01*
X368926Y53872D01*
X368685Y54058D01*
X368463Y54261D01*
X368259Y54483D01*
X368241Y54502D01*
X368204Y54558D01*
X368148Y54650D01*
X368055Y54798D01*
X367963Y54965D01*
X367870Y55187D01*
X367741Y55446D01*
X367630Y55743D01*
X367518Y56076D01*
X367407Y56465D01*
X367296Y56891D01*
X367204Y57372D01*
X367111Y57891D01*
X367056Y58446D01*
X367019Y59057D01*
X367000Y59705D01*
Y59724D01*
Y59798D01*
Y59927D01*
Y60075D01*
X367019Y60279D01*
Y60501D01*
X367037Y60742D01*
X367056Y61020D01*
X367111Y61594D01*
X367204Y62205D01*
X367315Y62816D01*
X367389Y63094D01*
X367463Y63372D01*
Y63390D01*
X367481Y63427D01*
X367518Y63501D01*
X367556Y63594D01*
X367593Y63723D01*
X367667Y63853D01*
X367815Y64168D01*
X368000Y64501D01*
X368241Y64853D01*
X368518Y65205D01*
X368852Y65501D01*
X368870D01*
X368889Y65538D01*
X368944Y65575D01*
X369018Y65612D01*
X369111Y65686D01*
X369222Y65742D01*
X369500Y65890D01*
X369833Y66019D01*
X370222Y66149D01*
X370685Y66223D01*
X371185Y66260D01*
X371351D01*
X371555Y66241D01*
D02*
G37*
G36*
X172045Y67718D02*
X167323D01*
Y73106D01*
X172045D01*
Y67718D01*
D02*
G37*
G36*
X150658Y63107D02*
X151047Y63052D01*
X151880Y62940D01*
X152880Y62718D01*
X153935Y62385D01*
X154991Y61885D01*
X156046Y61274D01*
X156102D01*
X156157Y61163D01*
X156490Y60941D01*
X156990Y60496D01*
X157601Y59941D01*
X158268Y59219D01*
X158935Y58330D01*
X159601Y57274D01*
X160157Y56108D01*
Y56052D01*
X160212Y55941D01*
X160268Y55774D01*
X160379Y55552D01*
X160490Y55219D01*
X160601Y54830D01*
X160879Y53941D01*
X161157Y52830D01*
X161379Y51608D01*
X161546Y50219D01*
X161601Y48775D01*
Y48720D01*
Y48609D01*
Y48386D01*
Y48053D01*
X161546Y47664D01*
Y47220D01*
X161434Y46220D01*
X161212Y44998D01*
X160935Y43720D01*
X160546Y42387D01*
X160046Y41054D01*
Y40998D01*
X159990Y40887D01*
X159879Y40721D01*
X159768Y40498D01*
X159379Y39887D01*
X158879Y39110D01*
X158268Y38276D01*
X157490Y37443D01*
X156602Y36610D01*
X155546Y35832D01*
X155491D01*
X155435Y35777D01*
X155268Y35666D01*
X155046Y35554D01*
X154491Y35277D01*
X153713Y34943D01*
X152769Y34610D01*
X151769Y34332D01*
X150602Y34110D01*
X149436Y34055D01*
X149047D01*
X148602Y34110D01*
X148047Y34166D01*
X147380Y34277D01*
X146658Y34443D01*
X145936Y34666D01*
X145214Y34999D01*
X145158Y35054D01*
X144881Y35166D01*
X144547Y35388D01*
X144103Y35721D01*
X143659Y36054D01*
X143103Y36499D01*
X142603Y36999D01*
X142159Y37554D01*
Y24000D01*
X137437Y24000D01*
Y62552D01*
X141714Y62552D01*
Y58885D01*
X141770Y58996D01*
X141992Y59219D01*
X142270Y59607D01*
X142714Y60052D01*
X143214Y60607D01*
X143770Y61107D01*
X144436Y61607D01*
X145103Y62052D01*
X145214Y62107D01*
X145436Y62218D01*
X145880Y62385D01*
X146436Y62607D01*
X147103Y62829D01*
X147880Y62996D01*
X148769Y63107D01*
X149769Y63163D01*
X150380D01*
X150658Y63107D01*
D02*
G37*
G36*
X193209D02*
X193820Y63052D01*
X194542Y62940D01*
X195320Y62774D01*
X196153Y62552D01*
X196931Y62218D01*
X197042Y62163D01*
X197264Y62052D01*
X197653Y61885D01*
X198097Y61607D01*
X198653Y61274D01*
X199153Y60830D01*
X199653Y60385D01*
X200097Y59830D01*
X200153Y59774D01*
X200264Y59552D01*
X200430Y59274D01*
X200708Y58885D01*
X200930Y58330D01*
X201153Y57774D01*
X201430Y57108D01*
X201597Y56386D01*
Y56330D01*
X201653Y56108D01*
X201708Y55774D01*
X201764Y55330D01*
Y54664D01*
X201819Y53886D01*
X201875Y52941D01*
Y51775D01*
Y34666D01*
X197153D01*
Y51553D01*
Y51608D01*
Y51664D01*
Y52053D01*
Y52553D01*
X197097Y53164D01*
X197042Y53886D01*
X196931Y54608D01*
X196764Y55275D01*
X196597Y55886D01*
Y55941D01*
X196486Y56108D01*
X196320Y56386D01*
X196153Y56719D01*
X195875Y57052D01*
X195542Y57441D01*
X195098Y57830D01*
X194598Y58163D01*
X194542Y58219D01*
X194375Y58330D01*
X194042Y58441D01*
X193653Y58608D01*
X193209Y58774D01*
X192653Y58941D01*
X191987Y58996D01*
X191320Y59052D01*
X191042D01*
X190820Y58996D01*
X190265Y58941D01*
X189543Y58830D01*
X188765Y58552D01*
X187876Y58219D01*
X186987Y57774D01*
X186154Y57108D01*
X186043Y56997D01*
X185821Y56719D01*
X185654Y56497D01*
X185487Y56219D01*
X185265Y55886D01*
X185099Y55497D01*
X184876Y55052D01*
X184654Y54497D01*
X184488Y53886D01*
X184321Y53219D01*
X184210Y52497D01*
X184099Y51719D01*
X183988Y50775D01*
Y49831D01*
Y34666D01*
X179266D01*
Y62552D01*
X183488D01*
Y58552D01*
X183543Y58608D01*
X183654Y58774D01*
X183821Y58996D01*
X184043Y59274D01*
X184377Y59607D01*
X184765Y59996D01*
X185210Y60441D01*
X185765Y60885D01*
X186321Y61274D01*
X186987Y61718D01*
X187710Y62107D01*
X188487Y62441D01*
X189376Y62718D01*
X190265Y62940D01*
X191265Y63107D01*
X192320Y63163D01*
X192764D01*
X193209Y63107D01*
D02*
G37*
G36*
X172045Y34666D02*
X167323D01*
Y62552D01*
X172045D01*
Y34666D01*
D02*
G37*
G36*
X79165Y34666D02*
X74443D01*
Y64718D01*
X74388Y64662D01*
X74110Y64440D01*
X73777Y64107D01*
X73221Y63718D01*
X72610Y63218D01*
X71833Y62663D01*
X70944Y62052D01*
X69944Y61441D01*
X69888D01*
X69833Y61385D01*
X69500Y61163D01*
X68944Y60885D01*
X68277Y60552D01*
X67500Y60163D01*
X66666Y59774D01*
X65833Y59385D01*
X65000Y59052D01*
Y63607D01*
X65055D01*
X65167Y63718D01*
X65389Y63774D01*
X65667Y63940D01*
X66000Y64107D01*
X66389Y64329D01*
X67333Y64885D01*
X68444Y65496D01*
X69555Y66273D01*
X70722Y67162D01*
X71888Y68106D01*
X71944Y68162D01*
X71999Y68218D01*
X72166Y68384D01*
X72388Y68551D01*
X72888Y69106D01*
X73555Y69773D01*
X74221Y70551D01*
X74943Y71439D01*
X75554Y72328D01*
X76110Y73273D01*
X79165D01*
Y34666D01*
D02*
G37*
G36*
X104940Y73217D02*
X105662Y73106D01*
X106496Y72939D01*
X107385Y72717D01*
X108329Y72439D01*
X109218Y71995D01*
X109273D01*
X109329Y71940D01*
X109607Y71773D01*
X110051Y71495D01*
X110606Y71106D01*
X111217Y70551D01*
X111884Y69940D01*
X112495Y69218D01*
X113106Y68384D01*
X113162Y68273D01*
X113384Y67995D01*
X113606Y67495D01*
X113995Y66773D01*
X114328Y65940D01*
X114773Y64996D01*
X115162Y63885D01*
X115495Y62663D01*
Y62607D01*
X115550Y62496D01*
X115606Y62329D01*
X115661Y62052D01*
X115717Y61718D01*
X115772Y61329D01*
X115884Y60830D01*
X115939Y60274D01*
X116050Y59663D01*
X116106Y58996D01*
X116161Y58219D01*
X116272Y57441D01*
X116328Y56552D01*
Y55663D01*
X116384Y54664D01*
Y53608D01*
Y53552D01*
Y53330D01*
Y52941D01*
Y52497D01*
X116328Y51886D01*
Y51219D01*
X116272Y50497D01*
X116217Y49720D01*
X116050Y47942D01*
X115772Y46109D01*
X115439Y44331D01*
X115217Y43498D01*
X114939Y42665D01*
Y42609D01*
X114884Y42498D01*
X114773Y42276D01*
X114662Y41998D01*
X114550Y41609D01*
X114328Y41220D01*
X113884Y40276D01*
X113328Y39276D01*
X112606Y38165D01*
X111773Y37165D01*
X110773Y36221D01*
X110717D01*
X110662Y36110D01*
X110495Y35999D01*
X110273Y35888D01*
X109995Y35721D01*
X109718Y35499D01*
X108884Y35110D01*
X107884Y34721D01*
X106718Y34332D01*
X105329Y34110D01*
X103829Y33999D01*
X103274D01*
X102885Y34055D01*
X102441Y34110D01*
X101885Y34221D01*
X101274Y34332D01*
X100607Y34499D01*
X99941Y34721D01*
X99219Y34943D01*
X98497Y35277D01*
X97774Y35666D01*
X97052Y36110D01*
X96330Y36665D01*
X95663Y37276D01*
X95052Y37943D01*
X94997Y37999D01*
X94886Y38165D01*
X94719Y38443D01*
X94441Y38887D01*
X94164Y39387D01*
X93886Y40054D01*
X93497Y40832D01*
X93164Y41720D01*
X92830Y42720D01*
X92497Y43887D01*
X92164Y45164D01*
X91886Y46609D01*
X91608Y48164D01*
X91442Y49831D01*
X91331Y51664D01*
X91275Y53608D01*
Y53664D01*
Y53886D01*
Y54275D01*
Y54719D01*
X91331Y55330D01*
Y55997D01*
X91386Y56719D01*
X91442Y57552D01*
X91608Y59274D01*
X91886Y61107D01*
X92219Y62940D01*
X92442Y63774D01*
X92664Y64607D01*
Y64662D01*
X92719Y64774D01*
X92830Y64996D01*
X92942Y65273D01*
X93053Y65662D01*
X93275Y66051D01*
X93719Y66996D01*
X94275Y67995D01*
X94997Y69051D01*
X95830Y70106D01*
X96830Y70995D01*
X96886D01*
X96941Y71106D01*
X97108Y71217D01*
X97330Y71328D01*
X97608Y71551D01*
X97941Y71717D01*
X98774Y72162D01*
X99774Y72551D01*
X100941Y72939D01*
X102330Y73162D01*
X103829Y73273D01*
X104329D01*
X104940Y73217D01*
D02*
G37*
G36*
X248536Y47000D02*
X247358D01*
Y54503D01*
X247344Y54489D01*
X247274Y54433D01*
X247191Y54350D01*
X247052Y54253D01*
X246900Y54128D01*
X246706Y53990D01*
X246484Y53837D01*
X246234Y53685D01*
X246220D01*
X246206Y53671D01*
X246123Y53615D01*
X245985Y53546D01*
X245818Y53463D01*
X245624Y53366D01*
X245416Y53268D01*
X245208Y53171D01*
X245000Y53088D01*
Y54225D01*
X245014D01*
X245042Y54253D01*
X245097Y54267D01*
X245166Y54309D01*
X245250Y54350D01*
X245347Y54406D01*
X245583Y54544D01*
X245860Y54697D01*
X246137Y54891D01*
X246428Y55113D01*
X246720Y55349D01*
X246733Y55363D01*
X246747Y55377D01*
X246789Y55418D01*
X246845Y55460D01*
X246969Y55598D01*
X247136Y55765D01*
X247302Y55959D01*
X247482Y56181D01*
X247635Y56403D01*
X247774Y56638D01*
X248536D01*
Y47000D01*
D02*
G37*
G36*
X160722Y198000D02*
X159148D01*
Y208018D01*
X159129Y207999D01*
X159037Y207925D01*
X158926Y207814D01*
X158740Y207684D01*
X158537Y207518D01*
X158278Y207332D01*
X157981Y207129D01*
X157648Y206925D01*
X157629D01*
X157611Y206907D01*
X157500Y206832D01*
X157315Y206740D01*
X157093Y206629D01*
X156833Y206499D01*
X156556Y206369D01*
X156278Y206240D01*
X156000Y206129D01*
Y207647D01*
X156018D01*
X156055Y207684D01*
X156130Y207703D01*
X156222Y207758D01*
X156333Y207814D01*
X156463Y207888D01*
X156778Y208073D01*
X157148Y208277D01*
X157518Y208536D01*
X157907Y208832D01*
X158296Y209147D01*
X158315Y209165D01*
X158333Y209184D01*
X158389Y209240D01*
X158463Y209295D01*
X158629Y209480D01*
X158851Y209702D01*
X159074Y209962D01*
X159314Y210258D01*
X159518Y210554D01*
X159703Y210869D01*
X160722D01*
Y198000D01*
D02*
G37*
%LPC*%
G36*
X392924Y209795D02*
X392813D01*
X392739Y209777D01*
X392536Y209739D01*
X392295Y209684D01*
X392017Y209573D01*
X391721Y209406D01*
X391573Y209295D01*
X391424Y209184D01*
X391295Y209036D01*
X391165Y208869D01*
Y208851D01*
X391128Y208814D01*
X391091Y208740D01*
X391036Y208647D01*
X390980Y208499D01*
X390906Y208332D01*
X390850Y208129D01*
X390776Y207888D01*
X390702Y207610D01*
X390628Y207295D01*
X390554Y206943D01*
X390499Y206555D01*
X390443Y206110D01*
X390406Y205629D01*
X390388Y205110D01*
X390369Y204536D01*
Y204499D01*
Y204407D01*
Y204240D01*
X390388Y204018D01*
Y203777D01*
X390406Y203481D01*
X390425Y203166D01*
X390462Y202833D01*
X390554Y202111D01*
X390610Y201759D01*
X390684Y201426D01*
X390758Y201111D01*
X390869Y200814D01*
X390980Y200555D01*
X391110Y200333D01*
Y200315D01*
X391147Y200296D01*
X391239Y200166D01*
X391406Y200000D01*
X391610Y199815D01*
X391888Y199629D01*
X392202Y199463D01*
X392554Y199333D01*
X392739Y199315D01*
X392943Y199296D01*
X393054D01*
X393128Y199315D01*
X393313Y199352D01*
X393573Y199426D01*
X393850Y199555D01*
X394165Y199741D01*
X394313Y199852D01*
X394461Y200000D01*
X394609Y200148D01*
X394757Y200333D01*
Y200352D01*
X394795Y200389D01*
X394832Y200444D01*
X394869Y200537D01*
X394943Y200666D01*
X394998Y200833D01*
X395072Y201018D01*
X395146Y201240D01*
X395202Y201518D01*
X395276Y201814D01*
X395350Y202166D01*
X395406Y202537D01*
X395443Y202981D01*
X395480Y203444D01*
X395517Y203962D01*
Y204536D01*
Y204555D01*
Y204573D01*
Y204666D01*
Y204833D01*
X395498Y205055D01*
Y205296D01*
X395480Y205592D01*
X395461Y205907D01*
X395424Y206258D01*
X395331Y206962D01*
X395276Y207314D01*
X395202Y207647D01*
X395128Y207962D01*
X395017Y208258D01*
X394906Y208517D01*
X394776Y208740D01*
Y208758D01*
X394739Y208777D01*
X394702Y208832D01*
X394646Y208906D01*
X394480Y209073D01*
X394276Y209277D01*
X393998Y209462D01*
X393684Y209628D01*
X393517Y209702D01*
X393332Y209758D01*
X393128Y209777D01*
X392924Y209795D01*
D02*
G37*
G36*
X359153D02*
X358856D01*
X358782Y209777D01*
X358579Y209758D01*
X358338Y209684D01*
X358042Y209591D01*
X357727Y209425D01*
X357412Y209221D01*
X357264Y209073D01*
X357116Y208925D01*
Y208906D01*
X357079Y208888D01*
X357042Y208832D01*
X357005Y208777D01*
X356875Y208591D01*
X356745Y208332D01*
X356597Y208018D01*
X356468Y207629D01*
X356394Y207184D01*
X356357Y206703D01*
Y206684D01*
Y206647D01*
Y206592D01*
X356375Y206499D01*
Y206388D01*
X356394Y206277D01*
X356449Y205999D01*
X356542Y205684D01*
X356653Y205351D01*
X356838Y205018D01*
X357079Y204722D01*
X357116Y204685D01*
X357209Y204610D01*
X357375Y204481D01*
X357579Y204351D01*
X357856Y204203D01*
X358171Y204074D01*
X358523Y203999D01*
X358912Y203962D01*
X359023D01*
X359097Y203981D01*
X359301Y203999D01*
X359542Y204055D01*
X359838Y204147D01*
X360134Y204277D01*
X360430Y204462D01*
X360708Y204722D01*
X360745Y204759D01*
X360819Y204870D01*
X360930Y205036D01*
X361078Y205277D01*
X361208Y205573D01*
X361319Y205925D01*
X361393Y206351D01*
X361430Y206832D01*
Y206851D01*
Y206888D01*
Y206962D01*
X361412Y207055D01*
Y207184D01*
X361393Y207314D01*
X361338Y207610D01*
X361264Y207962D01*
X361134Y208332D01*
X360949Y208684D01*
X360708Y208999D01*
Y209017D01*
X360671Y209036D01*
X360578Y209128D01*
X360430Y209258D01*
X360227Y209406D01*
X359967Y209536D01*
X359671Y209666D01*
X359338Y209758D01*
X359153Y209795D01*
D02*
G37*
G36*
X333701D02*
X333553D01*
X333386Y209758D01*
X333164Y209721D01*
X332923Y209647D01*
X332664Y209554D01*
X332423Y209406D01*
X332183Y209203D01*
X332164Y209184D01*
X332090Y209110D01*
X331997Y208980D01*
X331905Y208814D01*
X331794Y208610D01*
X331701Y208369D01*
X331627Y208110D01*
X331609Y207814D01*
Y207795D01*
Y207777D01*
X331627Y207666D01*
X331646Y207499D01*
X331683Y207295D01*
X331757Y207055D01*
X331849Y206814D01*
X331997Y206555D01*
X332183Y206332D01*
X332201Y206314D01*
X332294Y206240D01*
X332423Y206147D01*
X332590Y206055D01*
X332812Y205944D01*
X333071Y205851D01*
X333368Y205777D01*
X333701Y205758D01*
X333738D01*
X333849Y205777D01*
X334016Y205795D01*
X334238Y205833D01*
X334479Y205907D01*
X334719Y205999D01*
X334979Y206147D01*
X335201Y206332D01*
X335219Y206351D01*
X335293Y206444D01*
X335386Y206555D01*
X335497Y206721D01*
X335608Y206925D01*
X335701Y207166D01*
X335775Y207444D01*
X335793Y207740D01*
Y207758D01*
Y207777D01*
Y207888D01*
X335756Y208055D01*
X335719Y208258D01*
X335645Y208480D01*
X335534Y208721D01*
X335386Y208962D01*
X335182Y209203D01*
X335164Y209221D01*
X335071Y209295D01*
X334942Y209388D01*
X334775Y209499D01*
X334553Y209610D01*
X334312Y209702D01*
X334016Y209777D01*
X333701Y209795D01*
D02*
G37*
G36*
X333645Y204481D02*
X333534D01*
X333460Y204462D01*
X333257Y204444D01*
X332997Y204388D01*
X332701Y204296D01*
X332405Y204166D01*
X332090Y203981D01*
X331812Y203740D01*
X331775Y203703D01*
X331701Y203610D01*
X331590Y203444D01*
X331460Y203240D01*
X331312Y202962D01*
X331201Y202648D01*
X331127Y202296D01*
X331090Y201907D01*
Y201870D01*
Y201796D01*
X331109Y201666D01*
X331127Y201500D01*
X331164Y201296D01*
X331220Y201074D01*
X331294Y200852D01*
X331386Y200611D01*
X331405Y200592D01*
X331442Y200500D01*
X331516Y200389D01*
X331627Y200259D01*
X331757Y200092D01*
X331923Y199926D01*
X332109Y199778D01*
X332331Y199629D01*
X332368Y199611D01*
X332442Y199574D01*
X332571Y199518D01*
X332738Y199463D01*
X332942Y199407D01*
X333182Y199352D01*
X333442Y199315D01*
X333701Y199296D01*
X333812D01*
X333886Y199315D01*
X334108Y199333D01*
X334368Y199389D01*
X334664Y199481D01*
X334979Y199592D01*
X335275Y199778D01*
X335571Y200018D01*
X335608Y200055D01*
X335682Y200148D01*
X335812Y200315D01*
X335942Y200518D01*
X336071Y200777D01*
X336201Y201092D01*
X336275Y201463D01*
X336312Y201852D01*
Y201870D01*
Y201907D01*
Y201963D01*
X336293Y202037D01*
X336275Y202240D01*
X336219Y202518D01*
X336127Y202796D01*
X335997Y203111D01*
X335812Y203425D01*
X335553Y203722D01*
X335516Y203759D01*
X335423Y203833D01*
X335256Y203962D01*
X335034Y204111D01*
X334756Y204240D01*
X334423Y204370D01*
X334053Y204444D01*
X333645Y204481D01*
D02*
G37*
G36*
X283441Y205147D02*
X283330D01*
X283256Y205129D01*
X283071Y205110D01*
X282811Y205055D01*
X282534Y204962D01*
X282219Y204814D01*
X281923Y204629D01*
X281626Y204370D01*
X281589Y204333D01*
X281515Y204240D01*
X281386Y204074D01*
X281256Y203833D01*
X281126Y203555D01*
X280997Y203203D01*
X280923Y202814D01*
X280886Y202370D01*
Y202333D01*
Y202240D01*
X280904Y202074D01*
X280923Y201870D01*
X280960Y201629D01*
X281034Y201370D01*
X281108Y201092D01*
X281219Y200814D01*
X281238Y200777D01*
X281293Y200685D01*
X281367Y200555D01*
X281478Y200389D01*
X281608Y200222D01*
X281775Y200018D01*
X281960Y199852D01*
X282182Y199685D01*
X282219Y199667D01*
X282293Y199629D01*
X282423Y199555D01*
X282589Y199500D01*
X282774Y199426D01*
X282997Y199352D01*
X283237Y199315D01*
X283496Y199296D01*
X283589D01*
X283663Y199315D01*
X283848Y199333D01*
X284089Y199389D01*
X284348Y199500D01*
X284645Y199629D01*
X284941Y199833D01*
X285089Y199944D01*
X285219Y200092D01*
Y200111D01*
X285256Y200129D01*
X285330Y200240D01*
X285441Y200426D01*
X285589Y200666D01*
X285718Y200981D01*
X285830Y201352D01*
X285904Y201777D01*
X285941Y202277D01*
Y202296D01*
Y202333D01*
Y202407D01*
X285922Y202500D01*
Y202611D01*
X285904Y202740D01*
X285848Y203036D01*
X285774Y203370D01*
X285644Y203722D01*
X285459Y204055D01*
X285219Y204370D01*
X285182Y204407D01*
X285089Y204499D01*
X284941Y204610D01*
X284737Y204759D01*
X284478Y204907D01*
X284182Y205018D01*
X283830Y205110D01*
X283441Y205147D01*
D02*
G37*
G36*
X327356Y152368D02*
X320875Y151905D01*
X320412D01*
X319949Y151442D01*
Y135702D01*
Y135239D01*
X327819D01*
X329671Y135702D01*
X331522Y136165D01*
X333374Y137554D01*
X333837Y138017D01*
X334763Y139406D01*
X335689Y141258D01*
X336152Y143572D01*
Y144035D01*
X335689Y145887D01*
X335226Y147739D01*
X333374Y149591D01*
X332911Y150053D01*
X331985Y150979D01*
X329671Y151905D01*
X327356Y152368D01*
D02*
G37*
G36*
X223657D02*
X216713Y151905D01*
X216250D01*
X215787Y151442D01*
Y135702D01*
X216250D01*
Y135239D01*
X224120D01*
X225509Y135702D01*
X227361Y136165D01*
X229213Y137554D01*
X229676Y138017D01*
X230601Y139406D01*
X231527Y141258D01*
X231990Y143572D01*
Y144035D01*
X231527Y145887D01*
X231064Y147739D01*
X229213Y149591D01*
X228750Y150053D01*
X227824Y150979D01*
X225972Y151905D01*
X223657Y152368D01*
D02*
G37*
G36*
X425962Y149591D02*
X425499D01*
X425036Y149128D01*
X419944Y128758D01*
Y128295D01*
X420407Y127832D01*
X430129D01*
Y128758D01*
X425962Y149128D01*
Y149591D01*
D02*
G37*
G36*
X298680Y55834D02*
X298597D01*
X298542Y55820D01*
X298389Y55793D01*
X298209Y55751D01*
X298001Y55668D01*
X297779Y55543D01*
X297668Y55460D01*
X297557Y55377D01*
X297460Y55266D01*
X297363Y55141D01*
Y55127D01*
X297335Y55099D01*
X297307Y55044D01*
X297266Y54974D01*
X297224Y54863D01*
X297169Y54739D01*
X297127Y54586D01*
X297071Y54406D01*
X297016Y54198D01*
X296961Y53962D01*
X296905Y53698D01*
X296863Y53407D01*
X296822Y53074D01*
X296794Y52714D01*
X296780Y52326D01*
X296766Y51896D01*
Y51868D01*
Y51799D01*
Y51674D01*
X296780Y51507D01*
Y51327D01*
X296794Y51105D01*
X296808Y50869D01*
X296836Y50620D01*
X296905Y50079D01*
X296947Y49815D01*
X297002Y49566D01*
X297057Y49330D01*
X297141Y49108D01*
X297224Y48914D01*
X297321Y48747D01*
Y48734D01*
X297349Y48720D01*
X297418Y48623D01*
X297543Y48498D01*
X297696Y48359D01*
X297903Y48220D01*
X298139Y48096D01*
X298403Y47998D01*
X298542Y47985D01*
X298694Y47971D01*
X298777D01*
X298833Y47985D01*
X298971Y48012D01*
X299165Y48068D01*
X299374Y48165D01*
X299609Y48304D01*
X299720Y48387D01*
X299831Y48498D01*
X299942Y48609D01*
X300053Y48747D01*
Y48761D01*
X300081Y48789D01*
X300109Y48831D01*
X300136Y48900D01*
X300192Y48997D01*
X300233Y49122D01*
X300289Y49261D01*
X300344Y49427D01*
X300386Y49635D01*
X300441Y49857D01*
X300497Y50120D01*
X300539Y50398D01*
X300566Y50731D01*
X300594Y51077D01*
X300622Y51466D01*
Y51896D01*
Y51909D01*
Y51923D01*
Y51993D01*
Y52117D01*
X300608Y52284D01*
Y52464D01*
X300594Y52686D01*
X300580Y52922D01*
X300552Y53185D01*
X300483Y53712D01*
X300441Y53976D01*
X300386Y54225D01*
X300331Y54461D01*
X300247Y54683D01*
X300164Y54877D01*
X300067Y55044D01*
Y55058D01*
X300039Y55071D01*
X300012Y55113D01*
X299970Y55168D01*
X299845Y55293D01*
X299692Y55446D01*
X299485Y55585D01*
X299249Y55709D01*
X299124Y55765D01*
X298985Y55806D01*
X298833Y55820D01*
X298680Y55834D01*
D02*
G37*
G36*
X233624Y208258D02*
X229587Y202518D01*
X233624D01*
Y208258D01*
D02*
G37*
G36*
X441788Y45517D02*
X438752Y45517D01*
Y41666D01*
X441900Y41666D01*
X442140Y41684D01*
X442400Y41703D01*
X442659Y41722D01*
X442918Y41758D01*
X443122Y41796D01*
X443159Y41814D01*
X443233Y41833D01*
X443344Y41888D01*
X443492Y41962D01*
X443640Y42036D01*
X443807Y42147D01*
X443974Y42295D01*
X444103Y42444D01*
X444122Y42462D01*
X444159Y42518D01*
X444214Y42629D01*
X444270Y42758D01*
X444325Y42906D01*
X444381Y43092D01*
X444418Y43314D01*
X444436Y43555D01*
Y43592D01*
Y43666D01*
X444418Y43777D01*
X444399Y43925D01*
X444362Y44110D01*
X444307Y44295D01*
X444233Y44480D01*
X444122Y44666D01*
X444103Y44684D01*
X444066Y44740D01*
X443992Y44832D01*
X443899Y44925D01*
X443770Y45036D01*
X443622Y45147D01*
X443437Y45258D01*
X443233Y45332D01*
X443214D01*
X443122Y45369D01*
X442992Y45388D01*
X442788Y45425D01*
X442511Y45462D01*
X442196Y45480D01*
X441788Y45517D01*
D02*
G37*
G36*
X442122Y40148D02*
X438752Y40148D01*
Y35741D01*
X442400Y35741D01*
X442788Y35759D01*
X442955Y35778D01*
X443103Y35796D01*
X443122D01*
X443196Y35815D01*
X443307Y35833D01*
X443437Y35870D01*
X443751Y35981D01*
X444066Y36129D01*
X444085Y36148D01*
X444140Y36185D01*
X444214Y36240D01*
X444307Y36315D01*
X444399Y36426D01*
X444529Y36537D01*
X444622Y36685D01*
X444733Y36852D01*
X444751Y36870D01*
X444770Y36926D01*
X444807Y37037D01*
X444862Y37166D01*
X444918Y37315D01*
X444955Y37500D01*
X444973Y37722D01*
X444992Y37944D01*
Y37981D01*
Y38055D01*
X444973Y38203D01*
X444936Y38370D01*
X444899Y38555D01*
X444825Y38759D01*
X444733Y38963D01*
X444603Y39166D01*
X444585Y39185D01*
X444529Y39259D01*
X444455Y39351D01*
X444344Y39462D01*
X444196Y39592D01*
X444011Y39722D01*
X443807Y39833D01*
X443566Y39925D01*
X443529Y39944D01*
X443455Y39962D01*
X443288Y39999D01*
X443085Y40036D01*
X442826Y40073D01*
X442511Y40111D01*
X442122Y40148D01*
D02*
G37*
G36*
X454676Y45795D02*
X454509D01*
X454380Y45777D01*
X454213Y45758D01*
X454047Y45721D01*
X453843Y45684D01*
X453621Y45647D01*
X453139Y45499D01*
X452880Y45388D01*
X452621Y45277D01*
X452343Y45128D01*
X452084Y44962D01*
X451824Y44777D01*
X451584Y44555D01*
X451565Y44536D01*
X451528Y44499D01*
X451473Y44425D01*
X451380Y44314D01*
X451287Y44184D01*
X451176Y44018D01*
X451065Y43814D01*
X450936Y43573D01*
X450825Y43314D01*
X450695Y42999D01*
X450584Y42666D01*
X450491Y42295D01*
X450399Y41888D01*
X450343Y41425D01*
X450306Y40944D01*
X450288Y40425D01*
Y40407D01*
Y40333D01*
Y40203D01*
X450306Y40036D01*
X450325Y39851D01*
X450362Y39629D01*
X450399Y39370D01*
X450436Y39111D01*
X450584Y38518D01*
X450695Y38222D01*
X450806Y37907D01*
X450954Y37611D01*
X451121Y37315D01*
X451306Y37037D01*
X451528Y36778D01*
X451547Y36759D01*
X451584Y36722D01*
X451658Y36648D01*
X451750Y36574D01*
X451880Y36463D01*
X452028Y36352D01*
X452195Y36240D01*
X452380Y36111D01*
X452602Y35981D01*
X452843Y35870D01*
X453102Y35759D01*
X453380Y35648D01*
X453676Y35574D01*
X453972Y35500D01*
X454306Y35463D01*
X454658Y35444D01*
X454750D01*
X454843Y35463D01*
X454972D01*
X455139Y35481D01*
X455324Y35518D01*
X455546Y35555D01*
X455769Y35611D01*
X456028Y35685D01*
X456269Y35778D01*
X456546Y35870D01*
X456805Y36000D01*
X457065Y36167D01*
X457324Y36333D01*
X457583Y36537D01*
X457824Y36778D01*
X457842Y36796D01*
X457879Y36833D01*
X457935Y36926D01*
X458028Y37037D01*
X458120Y37166D01*
X458213Y37333D01*
X458324Y37537D01*
X458453Y37759D01*
X458565Y38018D01*
X458676Y38314D01*
X458768Y38629D01*
X458879Y38963D01*
X458953Y39333D01*
X459009Y39740D01*
X459046Y40166D01*
X459064Y40610D01*
Y40629D01*
Y40684D01*
Y40759D01*
Y40870D01*
X459046Y40999D01*
Y41166D01*
X459027Y41333D01*
X458990Y41536D01*
X458935Y41962D01*
X458842Y42407D01*
X458713Y42888D01*
X458527Y43332D01*
Y43351D01*
X458509Y43388D01*
X458472Y43443D01*
X458435Y43518D01*
X458305Y43740D01*
X458139Y43999D01*
X457916Y44295D01*
X457639Y44591D01*
X457324Y44888D01*
X456972Y45147D01*
X456954D01*
X456935Y45184D01*
X456880Y45203D01*
X456787Y45258D01*
X456694Y45295D01*
X456583Y45351D01*
X456306Y45480D01*
X455972Y45591D01*
X455583Y45703D01*
X455139Y45777D01*
X454676Y45795D01*
D02*
G37*
G36*
X384906Y45795D02*
X384794D01*
X384720Y45777D01*
X384517Y45739D01*
X384276Y45684D01*
X383998Y45573D01*
X383702Y45406D01*
X383554Y45295D01*
X383406Y45184D01*
X383276Y45036D01*
X383147Y44869D01*
Y44851D01*
X383109Y44814D01*
X383072Y44740D01*
X383017Y44647D01*
X382961Y44499D01*
X382887Y44332D01*
X382832Y44129D01*
X382758Y43888D01*
X382683Y43610D01*
X382609Y43295D01*
X382535Y42944D01*
X382480Y42555D01*
X382424Y42110D01*
X382387Y41629D01*
X382369Y41110D01*
X382350Y40536D01*
Y40499D01*
Y40407D01*
Y40240D01*
X382369Y40018D01*
Y39777D01*
X382387Y39481D01*
X382406Y39166D01*
X382443Y38833D01*
X382535Y38111D01*
X382591Y37759D01*
X382665Y37426D01*
X382739Y37111D01*
X382850Y36814D01*
X382961Y36555D01*
X383091Y36333D01*
Y36315D01*
X383128Y36296D01*
X383220Y36167D01*
X383387Y36000D01*
X383591Y35815D01*
X383869Y35629D01*
X384183Y35463D01*
X384535Y35333D01*
X384720Y35315D01*
X384924Y35296D01*
X385035D01*
X385109Y35315D01*
X385294Y35352D01*
X385554Y35426D01*
X385831Y35555D01*
X386146Y35741D01*
X386294Y35852D01*
X386442Y36000D01*
X386590Y36148D01*
X386739Y36333D01*
Y36352D01*
X386776Y36389D01*
X386813Y36444D01*
X386850Y36537D01*
X386924Y36666D01*
X386979Y36833D01*
X387053Y37018D01*
X387127Y37240D01*
X387183Y37518D01*
X387257Y37814D01*
X387331Y38166D01*
X387387Y38537D01*
X387424Y38981D01*
X387461Y39444D01*
X387498Y39962D01*
Y40536D01*
Y40555D01*
Y40573D01*
Y40666D01*
Y40833D01*
X387479Y41055D01*
Y41295D01*
X387461Y41592D01*
X387442Y41907D01*
X387405Y42258D01*
X387313Y42962D01*
X387257Y43314D01*
X387183Y43647D01*
X387109Y43962D01*
X386998Y44258D01*
X386887Y44517D01*
X386757Y44740D01*
Y44758D01*
X386720Y44777D01*
X386683Y44832D01*
X386628Y44906D01*
X386461Y45073D01*
X386257Y45277D01*
X385979Y45462D01*
X385665Y45628D01*
X385498Y45703D01*
X385313Y45758D01*
X385109Y45777D01*
X384906Y45795D01*
D02*
G37*
G36*
X468563Y64686D02*
X464897D01*
Y60113D01*
X468341D01*
X468471Y60131D01*
X468601D01*
X468749Y60150D01*
X469100Y60187D01*
X469489Y60261D01*
X469878Y60372D01*
X470230Y60520D01*
X470397Y60613D01*
X470526Y60724D01*
X470563Y60761D01*
X470637Y60835D01*
X470748Y60983D01*
X470878Y61168D01*
X471008Y61409D01*
X471119Y61705D01*
X471193Y62038D01*
X471230Y62427D01*
Y62446D01*
Y62464D01*
Y62557D01*
X471211Y62723D01*
X471174Y62909D01*
X471137Y63112D01*
X471063Y63353D01*
X470952Y63575D01*
X470823Y63797D01*
X470804Y63816D01*
X470748Y63890D01*
X470656Y63983D01*
X470545Y64112D01*
X470378Y64242D01*
X470193Y64353D01*
X469989Y64464D01*
X469749Y64557D01*
X469730D01*
X469656Y64575D01*
X469545Y64594D01*
X469397Y64631D01*
X469175Y64649D01*
X468897Y64668D01*
X468563Y64686D01*
D02*
G37*
G36*
X454880Y64964D02*
X454713D01*
X454584Y64945D01*
X454417Y64927D01*
X454250Y64890D01*
X454047Y64853D01*
X453824Y64816D01*
X453343Y64668D01*
X453084Y64557D01*
X452824Y64446D01*
X452547Y64297D01*
X452287Y64131D01*
X452028Y63945D01*
X451787Y63723D01*
X451769Y63705D01*
X451732Y63668D01*
X451676Y63594D01*
X451584Y63483D01*
X451491Y63353D01*
X451380Y63186D01*
X451269Y62983D01*
X451139Y62742D01*
X451028Y62483D01*
X450899Y62168D01*
X450788Y61835D01*
X450695Y61464D01*
X450602Y61057D01*
X450547Y60594D01*
X450510Y60113D01*
X450491Y59594D01*
Y59576D01*
Y59502D01*
Y59372D01*
X450510Y59205D01*
X450528Y59020D01*
X450565Y58798D01*
X450602Y58539D01*
X450639Y58279D01*
X450788Y57687D01*
X450899Y57391D01*
X451010Y57076D01*
X451158Y56780D01*
X451325Y56483D01*
X451510Y56206D01*
X451732Y55946D01*
X451750Y55928D01*
X451787Y55891D01*
X451862Y55817D01*
X451954Y55743D01*
X452084Y55632D01*
X452232Y55521D01*
X452398Y55409D01*
X452584Y55280D01*
X452806Y55150D01*
X453047Y55039D01*
X453306Y54928D01*
X453584Y54817D01*
X453880Y54743D01*
X454176Y54669D01*
X454509Y54632D01*
X454861Y54613D01*
X454954D01*
X455046Y54632D01*
X455176D01*
X455343Y54650D01*
X455528Y54687D01*
X455750Y54724D01*
X455972Y54780D01*
X456231Y54854D01*
X456472Y54946D01*
X456750Y55039D01*
X457009Y55169D01*
X457268Y55335D01*
X457528Y55502D01*
X457787Y55706D01*
X458028Y55946D01*
X458046Y55965D01*
X458083Y56002D01*
X458139Y56094D01*
X458231Y56206D01*
X458324Y56335D01*
X458416Y56502D01*
X458527Y56705D01*
X458657Y56928D01*
X458768Y57187D01*
X458879Y57483D01*
X458972Y57798D01*
X459083Y58131D01*
X459157Y58502D01*
X459213Y58909D01*
X459250Y59335D01*
X459268Y59779D01*
Y59798D01*
Y59853D01*
Y59927D01*
Y60038D01*
X459250Y60168D01*
Y60335D01*
X459231Y60501D01*
X459194Y60705D01*
X459139Y61131D01*
X459046Y61575D01*
X458916Y62057D01*
X458731Y62501D01*
Y62520D01*
X458713Y62557D01*
X458676Y62612D01*
X458639Y62686D01*
X458509Y62909D01*
X458342Y63168D01*
X458120Y63464D01*
X457842Y63760D01*
X457528Y64057D01*
X457176Y64316D01*
X457157D01*
X457139Y64353D01*
X457083Y64371D01*
X456991Y64427D01*
X456898Y64464D01*
X456787Y64520D01*
X456509Y64649D01*
X456176Y64760D01*
X455787Y64871D01*
X455343Y64945D01*
X454880Y64964D01*
D02*
G37*
G36*
X371166Y64964D02*
X371055D01*
X370981Y64945D01*
X370777Y64908D01*
X370537Y64853D01*
X370259Y64742D01*
X369963Y64575D01*
X369814Y64464D01*
X369666Y64353D01*
X369537Y64205D01*
X369407Y64038D01*
Y64020D01*
X369370Y63983D01*
X369333Y63909D01*
X369277Y63816D01*
X369222Y63668D01*
X369148Y63501D01*
X369092Y63297D01*
X369018Y63057D01*
X368944Y62779D01*
X368870Y62464D01*
X368796Y62112D01*
X368741Y61723D01*
X368685Y61279D01*
X368648Y60798D01*
X368629Y60279D01*
X368611Y59705D01*
Y59668D01*
Y59576D01*
Y59409D01*
X368629Y59187D01*
Y58946D01*
X368648Y58650D01*
X368666Y58335D01*
X368703Y58002D01*
X368796Y57280D01*
X368852Y56928D01*
X368926Y56594D01*
X369000Y56280D01*
X369111Y55983D01*
X369222Y55724D01*
X369352Y55502D01*
Y55483D01*
X369389Y55465D01*
X369481Y55335D01*
X369648Y55169D01*
X369851Y54984D01*
X370129Y54798D01*
X370444Y54632D01*
X370796Y54502D01*
X370981Y54483D01*
X371185Y54465D01*
X371296D01*
X371370Y54483D01*
X371555Y54521D01*
X371814Y54595D01*
X372092Y54724D01*
X372407Y54909D01*
X372555Y55020D01*
X372703Y55169D01*
X372851Y55317D01*
X372999Y55502D01*
Y55520D01*
X373036Y55557D01*
X373073Y55613D01*
X373111Y55706D01*
X373185Y55835D01*
X373240Y56002D01*
X373314Y56187D01*
X373388Y56409D01*
X373444Y56687D01*
X373518Y56983D01*
X373592Y57335D01*
X373647Y57705D01*
X373685Y58150D01*
X373722Y58613D01*
X373759Y59131D01*
Y59705D01*
Y59724D01*
Y59742D01*
Y59835D01*
Y60002D01*
X373740Y60224D01*
Y60464D01*
X373722Y60761D01*
X373703Y61075D01*
X373666Y61427D01*
X373573Y62131D01*
X373518Y62483D01*
X373444Y62816D01*
X373370Y63131D01*
X373259Y63427D01*
X373148Y63686D01*
X373018Y63909D01*
Y63927D01*
X372981Y63945D01*
X372944Y64001D01*
X372888Y64075D01*
X372722Y64242D01*
X372518Y64445D01*
X372240Y64631D01*
X371925Y64797D01*
X371759Y64871D01*
X371574Y64927D01*
X371370Y64945D01*
X371166Y64964D01*
D02*
G37*
G36*
X149325Y59441D02*
X149047D01*
X148825Y59385D01*
X148269Y59274D01*
X147547Y59107D01*
X146714Y58774D01*
X145825Y58274D01*
X145325Y57941D01*
X144881Y57552D01*
X144436Y57108D01*
X143992Y56608D01*
Y56552D01*
X143881Y56497D01*
X143770Y56330D01*
X143659Y56108D01*
X143492Y55774D01*
X143270Y55441D01*
X143048Y54997D01*
X142881Y54552D01*
X142659Y53997D01*
X142436Y53386D01*
X142270Y52719D01*
X142048Y51997D01*
X141937Y51164D01*
X141825Y50331D01*
X141714Y49442D01*
Y48442D01*
Y48386D01*
Y48220D01*
Y47942D01*
X141770Y47553D01*
Y47109D01*
X141825Y46609D01*
X141992Y45442D01*
X142270Y44109D01*
X142603Y42831D01*
X143159Y41554D01*
X143492Y40998D01*
X143881Y40498D01*
X143992Y40387D01*
X144270Y40110D01*
X144714Y39665D01*
X145325Y39221D01*
X146103Y38776D01*
X146992Y38332D01*
X147991Y38054D01*
X148547Y37999D01*
X149102Y37943D01*
X149436D01*
X149658Y37999D01*
X150213Y38110D01*
X150991Y38276D01*
X151824Y38610D01*
X152713Y39054D01*
X153602Y39721D01*
X154046Y40110D01*
X154491Y40554D01*
Y40609D01*
X154602Y40665D01*
X154713Y40832D01*
X154824Y41054D01*
X155046Y41332D01*
X155213Y41720D01*
X155435Y42109D01*
X155657Y42609D01*
X155824Y43109D01*
X156046Y43776D01*
X156268Y44442D01*
X156435Y45164D01*
X156546Y45998D01*
X156657Y46887D01*
X156768Y47831D01*
Y48831D01*
Y48886D01*
Y49053D01*
Y49331D01*
X156713Y49720D01*
Y50164D01*
X156657Y50664D01*
X156490Y51831D01*
X156213Y53108D01*
X155824Y54386D01*
X155268Y55663D01*
X154935Y56274D01*
X154546Y56774D01*
Y56830D01*
X154435Y56885D01*
X154157Y57219D01*
X153713Y57608D01*
X153102Y58108D01*
X152324Y58608D01*
X151435Y59052D01*
X150436Y59330D01*
X149880Y59385D01*
X149325Y59441D01*
D02*
G37*
G36*
X103774Y69384D02*
X103441D01*
X103218Y69329D01*
X102607Y69218D01*
X101885Y69051D01*
X101052Y68718D01*
X100163Y68218D01*
X99719Y67884D01*
X99274Y67551D01*
X98885Y67107D01*
X98497Y66607D01*
Y66551D01*
X98385Y66440D01*
X98274Y66218D01*
X98108Y65940D01*
X97941Y65496D01*
X97719Y64996D01*
X97552Y64385D01*
X97330Y63663D01*
X97108Y62829D01*
X96886Y61885D01*
X96663Y60830D01*
X96497Y59663D01*
X96330Y58330D01*
X96219Y56885D01*
X96163Y55330D01*
X96108Y53608D01*
Y53497D01*
Y53219D01*
Y52719D01*
X96163Y52053D01*
Y51330D01*
X96219Y50442D01*
X96274Y49497D01*
X96386Y48498D01*
X96663Y46331D01*
X96830Y45276D01*
X97052Y44276D01*
X97274Y43331D01*
X97608Y42442D01*
X97941Y41665D01*
X98330Y40998D01*
Y40943D01*
X98441Y40887D01*
X98719Y40498D01*
X99219Y39998D01*
X99830Y39443D01*
X100663Y38887D01*
X101607Y38387D01*
X102663Y37999D01*
X103218Y37943D01*
X103829Y37887D01*
X104163D01*
X104385Y37943D01*
X104940Y38054D01*
X105718Y38276D01*
X106551Y38665D01*
X107496Y39221D01*
X107940Y39554D01*
X108384Y39998D01*
X108829Y40443D01*
X109273Y40998D01*
Y41054D01*
X109384Y41165D01*
X109495Y41332D01*
X109607Y41609D01*
X109829Y41998D01*
X109995Y42498D01*
X110218Y43054D01*
X110440Y43720D01*
X110606Y44553D01*
X110829Y45442D01*
X111051Y46498D01*
X111217Y47609D01*
X111328Y48942D01*
X111440Y50331D01*
X111551Y51886D01*
Y53608D01*
Y53664D01*
Y53719D01*
Y53997D01*
Y54497D01*
X111495Y55163D01*
Y55886D01*
X111440Y56774D01*
X111384Y57719D01*
X111273Y58774D01*
X110995Y60885D01*
X110829Y61940D01*
X110606Y62940D01*
X110384Y63885D01*
X110051Y64774D01*
X109718Y65551D01*
X109329Y66218D01*
Y66273D01*
X109218Y66329D01*
X109107Y66496D01*
X108940Y66718D01*
X108440Y67218D01*
X107829Y67829D01*
X106996Y68384D01*
X106051Y68884D01*
X105551Y69106D01*
X104996Y69273D01*
X104385Y69329D01*
X103774Y69384D01*
D02*
G37*
%LPD*%
D10*
X475000Y15000D02*
G03*
X485000Y25000I0J10000D01*
G01*
X355000Y25000D02*
G03*
X365000Y15000I10000J0D01*
G01*
X485000Y75000D02*
G03*
X475000Y85000I-10000J0D01*
G01*
X365000D02*
G03*
X355000Y75000I0J-10000D01*
G01*
X397000Y216651D02*
Y242051D01*
X143000D02*
X295400D01*
X143000Y216651D02*
Y242051D01*
Y216651D02*
X295400D01*
X397000D01*
X295400Y242051D02*
X397000D01*
X355000Y25000D02*
Y75000D01*
X365000Y15000D02*
X475000D01*
X365000Y85000D02*
X475000D01*
X485000Y25000D02*
Y75000D01*
X355000Y25000D02*
X355000D01*
D11*
X245000Y41722D02*
X250000D01*
M02*
