M48
;Layer_Color=9474304
;FILE_FORMAT=2:4
METRIC,LZ
;TYPE=PLATED
T01F00S00C0.2540
T02F00S00C0.9900
T03F00S00C1.1000
%
T01
X14478Y024384
X15748
X17018Y024892
X18288Y024638
X196088Y066294
X185372Y105156
X208026Y10414
X163672Y120142
X13208Y072644
X12446Y067564
X1116Y0472
X0862
X0735Y0726
X0481
X0227
X0354Y098
X0227Y1234
X0735
X0989
X0862Y098
X0735Y0218
X0481
X0354Y0472
X0862Y1488
X0735Y1742
X0862Y1996
X1116
Y2504
X0862
X0735Y225
X0608Y3012
X0354
X0227Y3266
X0354Y352
X0608
X0862
X1116
Y3012
X137Y352
X1624
X1878
X2132
X2386
X264
X2894
X3148
X2767Y3266
X2894Y3012
X264
X2386
X2132
Y2504
X241046Y24257
X264Y2504
X2894
X2767Y2758
X25273Y274066
X2767Y225
X2259
X207772Y211328
X189752Y196328
X182372Y19812
X219591Y17272
X236728Y181102
X26035Y182372
X152662Y158693
X137Y1488
X12827Y181356
X137Y2504
X146812Y258826
X1624Y2504
T02
X028702Y025146
X02794Y143376
T03
X029529Y275124
X054929
X080329
X301498Y270256
Y244856
Y219456
M30
