G04*
G04 #@! TF.GenerationSoftware,Altium Limited,Altium Designer,23.8.1 (32)*
G04*
G04 Layer_Color=65535*
%FSLAX44Y44*%
%MOMM*%
G71*
G04*
G04 #@! TF.SameCoordinates,EABBD3BE-967A-4A3B-942A-E4C863628C70*
G04*
G04*
G04 #@! TF.FilePolarity,Positive*
G04*
G01*
G75*
%ADD10C,0.2000*%
%ADD11C,0.1000*%
G36*
X361915Y245084D02*
X362019Y245075D01*
X362131Y245056D01*
X362253Y245037D01*
X362393Y245019D01*
X362684Y244934D01*
X362843Y244888D01*
X362993Y244822D01*
X363153Y244756D01*
X363302Y244663D01*
X363452Y244569D01*
X363593Y244456D01*
X363602Y244447D01*
X363621Y244428D01*
X363659Y244391D01*
X363705Y244344D01*
X363762Y244278D01*
X363827Y244194D01*
X363902Y244100D01*
X363977Y243997D01*
X364052Y243885D01*
X364127Y243744D01*
X364193Y243603D01*
X364268Y243444D01*
X364333Y243276D01*
X364380Y243097D01*
X364427Y242910D01*
X364465Y242704D01*
X363293Y242610D01*
Y242619D01*
X363284Y242638D01*
X363274Y242676D01*
X363265Y242722D01*
X363246Y242779D01*
X363228Y242844D01*
X363181Y242994D01*
X363115Y243163D01*
X363040Y243332D01*
X362946Y243491D01*
X362843Y243622D01*
X362834Y243632D01*
X362825Y243641D01*
X362796Y243669D01*
X362759Y243697D01*
X362712Y243744D01*
X362656Y243782D01*
X362515Y243875D01*
X362346Y243969D01*
X362140Y244053D01*
X361915Y244110D01*
X361794Y244119D01*
X361662Y244128D01*
X361569D01*
X361465Y244110D01*
X361325Y244091D01*
X361175Y244053D01*
X361006Y243997D01*
X360838Y243913D01*
X360669Y243810D01*
X360659D01*
X360641Y243791D01*
X360613Y243772D01*
X360575Y243735D01*
X360481Y243641D01*
X360350Y243510D01*
X360210Y243341D01*
X360060Y243135D01*
X359919Y242901D01*
X359788Y242619D01*
Y242610D01*
X359778Y242582D01*
X359760Y242535D01*
X359741Y242479D01*
X359713Y242394D01*
X359685Y242301D01*
X359657Y242179D01*
X359628Y242048D01*
X359600Y241898D01*
X359572Y241738D01*
X359544Y241551D01*
X359516Y241354D01*
X359497Y241138D01*
X359478Y240904D01*
X359469Y240660D01*
X359460Y240398D01*
X359469Y240407D01*
X359478Y240426D01*
X359507Y240464D01*
X359535Y240501D01*
X359572Y240557D01*
X359628Y240623D01*
X359750Y240764D01*
X359900Y240923D01*
X360078Y241082D01*
X360275Y241232D01*
X360500Y241363D01*
X360509D01*
X360528Y241373D01*
X360566Y241392D01*
X360603Y241410D01*
X360669Y241438D01*
X360734Y241467D01*
X360809Y241495D01*
X360894Y241523D01*
X361091Y241579D01*
X361306Y241635D01*
X361540Y241673D01*
X361794Y241682D01*
X361850D01*
X361906Y241673D01*
X361990D01*
X362094Y241654D01*
X362215Y241635D01*
X362346Y241607D01*
X362487Y241570D01*
X362637Y241523D01*
X362806Y241467D01*
X362965Y241401D01*
X363134Y241317D01*
X363312Y241213D01*
X363481Y241101D01*
X363640Y240960D01*
X363799Y240811D01*
X363809Y240801D01*
X363837Y240773D01*
X363874Y240717D01*
X363931Y240651D01*
X363996Y240567D01*
X364062Y240464D01*
X364137Y240342D01*
X364221Y240201D01*
X364296Y240051D01*
X364371Y239883D01*
X364437Y239695D01*
X364502Y239498D01*
X364558Y239283D01*
X364596Y239058D01*
X364624Y238824D01*
X364633Y238570D01*
Y238561D01*
Y238533D01*
Y238486D01*
X364624Y238421D01*
Y238336D01*
X364615Y238242D01*
X364605Y238139D01*
X364587Y238017D01*
X364540Y237755D01*
X364465Y237474D01*
X364371Y237183D01*
X364240Y236883D01*
Y236874D01*
X364221Y236846D01*
X364202Y236808D01*
X364165Y236761D01*
X364127Y236696D01*
X364081Y236621D01*
X363959Y236452D01*
X363799Y236255D01*
X363621Y236059D01*
X363406Y235871D01*
X363162Y235702D01*
X363153D01*
X363134Y235684D01*
X363096Y235665D01*
X363040Y235637D01*
X362975Y235609D01*
X362900Y235571D01*
X362815Y235534D01*
X362712Y235496D01*
X362609Y235459D01*
X362487Y235421D01*
X362225Y235356D01*
X361934Y235309D01*
X361775Y235299D01*
X361615Y235290D01*
X361550D01*
X361475Y235299D01*
X361372Y235309D01*
X361250Y235327D01*
X361100Y235346D01*
X360941Y235384D01*
X360762Y235421D01*
X360575Y235478D01*
X360388Y235552D01*
X360181Y235637D01*
X359985Y235749D01*
X359778Y235871D01*
X359582Y236012D01*
X359394Y236180D01*
X359216Y236368D01*
X359207Y236377D01*
X359179Y236424D01*
X359132Y236480D01*
X359076Y236574D01*
X359001Y236696D01*
X358926Y236846D01*
X358841Y237015D01*
X358757Y237221D01*
X358663Y237455D01*
X358579Y237717D01*
X358504Y238008D01*
X358438Y238336D01*
X358372Y238683D01*
X358326Y239076D01*
X358298Y239489D01*
X358288Y239939D01*
Y239948D01*
Y239967D01*
Y240004D01*
Y240061D01*
Y240126D01*
X358298Y240201D01*
Y240295D01*
X358307Y240398D01*
Y240501D01*
X358316Y240623D01*
X358344Y240885D01*
X358372Y241176D01*
X358419Y241485D01*
X358466Y241813D01*
X358541Y242151D01*
X358616Y242488D01*
X358719Y242826D01*
X358832Y243144D01*
X358972Y243454D01*
X359132Y243735D01*
X359310Y243988D01*
X359319Y243997D01*
X359347Y244035D01*
X359403Y244091D01*
X359478Y244156D01*
X359563Y244241D01*
X359675Y244335D01*
X359807Y244438D01*
X359947Y244541D01*
X360116Y244644D01*
X360294Y244747D01*
X360491Y244841D01*
X360706Y244925D01*
X360941Y244991D01*
X361184Y245047D01*
X361447Y245084D01*
X361728Y245094D01*
X361840D01*
X361915Y245084D01*
D02*
G37*
G36*
X355317Y235449D02*
X354136D01*
Y242957D01*
X354127D01*
X354117Y242938D01*
X354089Y242919D01*
X354061Y242891D01*
X353967Y242807D01*
X353836Y242704D01*
X353677Y242582D01*
X353480Y242441D01*
X353255Y242291D01*
X353011Y242141D01*
X353002D01*
X352983Y242123D01*
X352946Y242104D01*
X352899Y242076D01*
X352833Y242038D01*
X352768Y242001D01*
X352599Y241916D01*
X352412Y241823D01*
X352205Y241720D01*
X351990Y241626D01*
X351784Y241542D01*
Y242676D01*
X351793Y242685D01*
X351830Y242694D01*
X351877Y242722D01*
X351952Y242760D01*
X352037Y242807D01*
X352130Y242863D01*
X352243Y242919D01*
X352365Y242994D01*
X352636Y243154D01*
X352927Y243350D01*
X353218Y243566D01*
X353508Y243800D01*
X353517Y243810D01*
X353536Y243828D01*
X353583Y243866D01*
X353630Y243913D01*
X353686Y243978D01*
X353761Y244044D01*
X353836Y244128D01*
X353921Y244213D01*
X354089Y244410D01*
X354258Y244625D01*
X354417Y244859D01*
X354492Y244972D01*
X354548Y245094D01*
X355317D01*
Y235449D01*
D02*
G37*
G36*
X367758Y184450D02*
X363906D01*
X363391Y181854D01*
X363400Y181863D01*
X363428Y181882D01*
X363475Y181910D01*
X363541Y181948D01*
X363616Y181994D01*
X363719Y182051D01*
X363822Y182097D01*
X363944Y182163D01*
X364075Y182219D01*
X364216Y182266D01*
X364525Y182369D01*
X364684Y182407D01*
X364853Y182435D01*
X365031Y182454D01*
X365209Y182463D01*
X365265D01*
X365331Y182454D01*
X365425D01*
X365528Y182435D01*
X365659Y182416D01*
X365800Y182388D01*
X365950Y182351D01*
X366109Y182304D01*
X366287Y182248D01*
X366465Y182182D01*
X366643Y182097D01*
X366821Y181994D01*
X366999Y181882D01*
X367168Y181741D01*
X367337Y181591D01*
X367346Y181582D01*
X367374Y181554D01*
X367421Y181498D01*
X367477Y181432D01*
X367543Y181348D01*
X367609Y181245D01*
X367693Y181123D01*
X367777Y180982D01*
X367852Y180832D01*
X367937Y180664D01*
X368002Y180476D01*
X368077Y180279D01*
X368124Y180064D01*
X368171Y179839D01*
X368199Y179595D01*
X368208Y179342D01*
Y179323D01*
Y179286D01*
X368199Y179220D01*
Y179126D01*
X368190Y179014D01*
X368171Y178883D01*
X368143Y178733D01*
X368115Y178573D01*
X368068Y178405D01*
X368021Y178217D01*
X367955Y178030D01*
X367880Y177842D01*
X367796Y177655D01*
X367693Y177458D01*
X367571Y177271D01*
X367440Y177093D01*
X367430Y177083D01*
X367393Y177046D01*
X367346Y176989D01*
X367271Y176915D01*
X367177Y176821D01*
X367065Y176727D01*
X366934Y176624D01*
X366784Y176511D01*
X366606Y176399D01*
X366418Y176296D01*
X366212Y176202D01*
X365987Y176108D01*
X365743Y176033D01*
X365490Y175977D01*
X365209Y175940D01*
X364919Y175930D01*
X364862D01*
X364797Y175940D01*
X364703D01*
X364591Y175949D01*
X364459Y175968D01*
X364319Y175996D01*
X364159Y176024D01*
X363991Y176062D01*
X363822Y176108D01*
X363644Y176165D01*
X363456Y176240D01*
X363278Y176324D01*
X363100Y176418D01*
X362932Y176530D01*
X362772Y176661D01*
X362763Y176671D01*
X362735Y176699D01*
X362697Y176736D01*
X362641Y176793D01*
X362575Y176868D01*
X362510Y176961D01*
X362425Y177064D01*
X362351Y177177D01*
X362266Y177308D01*
X362182Y177458D01*
X362107Y177617D01*
X362032Y177796D01*
X361966Y177983D01*
X361910Y178180D01*
X361863Y178386D01*
X361835Y178611D01*
X363072Y178714D01*
Y178705D01*
X363082Y178676D01*
X363091Y178630D01*
X363100Y178564D01*
X363119Y178489D01*
X363138Y178405D01*
X363203Y178199D01*
X363288Y177983D01*
X363391Y177758D01*
X363531Y177533D01*
X363616Y177439D01*
X363700Y177346D01*
X363710Y177336D01*
X363728Y177327D01*
X363756Y177308D01*
X363794Y177280D01*
X363841Y177243D01*
X363897Y177205D01*
X364047Y177121D01*
X364225Y177036D01*
X364431Y176971D01*
X364666Y176915D01*
X364787Y176905D01*
X364919Y176896D01*
X365003D01*
X365059Y176905D01*
X365134Y176915D01*
X365219Y176933D01*
X365312Y176952D01*
X365415Y176980D01*
X365650Y177055D01*
X365762Y177102D01*
X365884Y177167D01*
X366006Y177243D01*
X366128Y177327D01*
X366250Y177421D01*
X366362Y177533D01*
X366371Y177542D01*
X366390Y177561D01*
X366418Y177599D01*
X366456Y177655D01*
X366503Y177711D01*
X366549Y177796D01*
X366606Y177889D01*
X366662Y177992D01*
X366709Y178105D01*
X366765Y178236D01*
X366812Y178377D01*
X366859Y178527D01*
X366896Y178686D01*
X366924Y178864D01*
X366943Y179042D01*
X366953Y179239D01*
Y179248D01*
Y179286D01*
Y179333D01*
X366943Y179408D01*
X366934Y179492D01*
X366924Y179586D01*
X366906Y179698D01*
X366878Y179820D01*
X366812Y180073D01*
X366765Y180204D01*
X366709Y180336D01*
X366643Y180467D01*
X366568Y180598D01*
X366484Y180720D01*
X366381Y180832D01*
X366371Y180842D01*
X366353Y180860D01*
X366325Y180889D01*
X366278Y180926D01*
X366221Y180973D01*
X366156Y181020D01*
X366072Y181076D01*
X365987Y181132D01*
X365884Y181179D01*
X365771Y181235D01*
X365650Y181282D01*
X365518Y181329D01*
X365368Y181367D01*
X365219Y181395D01*
X365059Y181413D01*
X364891Y181423D01*
X364797D01*
X364740Y181413D01*
X364684D01*
X364544Y181395D01*
X364384Y181357D01*
X364216Y181310D01*
X364038Y181245D01*
X363859Y181160D01*
X363850D01*
X363841Y181151D01*
X363784Y181113D01*
X363700Y181057D01*
X363606Y180982D01*
X363485Y180879D01*
X363372Y180767D01*
X363250Y180635D01*
X363147Y180495D01*
X362041Y180635D01*
X362969Y185575D01*
X367758D01*
Y184450D01*
D02*
G37*
G36*
X358817Y176090D02*
X357636D01*
Y183597D01*
X357627D01*
X357617Y183578D01*
X357589Y183560D01*
X357561Y183531D01*
X357467Y183447D01*
X357336Y183344D01*
X357177Y183222D01*
X356980Y183082D01*
X356755Y182932D01*
X356511Y182782D01*
X356502D01*
X356483Y182763D01*
X356446Y182744D01*
X356399Y182716D01*
X356333Y182679D01*
X356268Y182641D01*
X356099Y182557D01*
X355912Y182463D01*
X355705Y182360D01*
X355490Y182266D01*
X355284Y182182D01*
Y183316D01*
X355293Y183325D01*
X355331Y183335D01*
X355377Y183363D01*
X355452Y183400D01*
X355537Y183447D01*
X355630Y183503D01*
X355743Y183560D01*
X355865Y183635D01*
X356137Y183794D01*
X356427Y183991D01*
X356718Y184206D01*
X357008Y184441D01*
X357018Y184450D01*
X357036Y184469D01*
X357083Y184506D01*
X357130Y184553D01*
X357186Y184619D01*
X357261Y184684D01*
X357336Y184769D01*
X357421Y184853D01*
X357589Y185050D01*
X357758Y185266D01*
X357917Y185500D01*
X357992Y185612D01*
X358049Y185734D01*
X358817D01*
Y176090D01*
D02*
G37*
G36*
X341302Y238664D02*
X342596D01*
Y237586D01*
X341302D01*
Y235290D01*
X340122D01*
Y237586D01*
X335951D01*
Y238664D01*
X340337Y244897D01*
X341302D01*
Y238664D01*
D02*
G37*
G36*
X333317Y235290D02*
X332136D01*
Y242798D01*
X332127D01*
X332117Y242779D01*
X332089Y242760D01*
X332061Y242732D01*
X331967Y242647D01*
X331836Y242544D01*
X331677Y242423D01*
X331480Y242282D01*
X331255Y242132D01*
X331011Y241982D01*
X331002D01*
X330983Y241963D01*
X330946Y241945D01*
X330899Y241916D01*
X330833Y241879D01*
X330768Y241842D01*
X330599Y241757D01*
X330412Y241663D01*
X330205Y241560D01*
X329990Y241467D01*
X329784Y241382D01*
Y242516D01*
X329793Y242526D01*
X329831Y242535D01*
X329877Y242563D01*
X329952Y242601D01*
X330037Y242647D01*
X330130Y242704D01*
X330243Y242760D01*
X330365Y242835D01*
X330636Y242994D01*
X330927Y243191D01*
X331218Y243407D01*
X331508Y243641D01*
X331517Y243650D01*
X331536Y243669D01*
X331583Y243707D01*
X331630Y243754D01*
X331686Y243819D01*
X331761Y243885D01*
X331836Y243969D01*
X331921Y244053D01*
X332089Y244250D01*
X332258Y244466D01*
X332417Y244700D01*
X332492Y244813D01*
X332548Y244934D01*
X333317D01*
Y235290D01*
D02*
G37*
G36*
X339484Y185725D02*
X339559D01*
X339634Y185715D01*
X339728Y185706D01*
X339831Y185697D01*
X340056Y185650D01*
X340290Y185593D01*
X340543Y185509D01*
X340796Y185397D01*
X340806D01*
X340825Y185378D01*
X340862Y185359D01*
X340909Y185331D01*
X340965Y185303D01*
X341021Y185256D01*
X341171Y185153D01*
X341340Y185022D01*
X341509Y184862D01*
X341668Y184675D01*
X341809Y184469D01*
Y184459D01*
X341827Y184441D01*
X341846Y184413D01*
X341865Y184366D01*
X341893Y184319D01*
X341921Y184253D01*
X341987Y184094D01*
X342052Y183916D01*
X342109Y183700D01*
X342146Y183475D01*
X342165Y183232D01*
Y183222D01*
Y183204D01*
Y183175D01*
X342155Y183129D01*
Y183072D01*
X342146Y183007D01*
X342127Y182857D01*
X342080Y182679D01*
X342024Y182491D01*
X341940Y182294D01*
X341827Y182097D01*
Y182088D01*
X341809Y182079D01*
X341790Y182051D01*
X341762Y182013D01*
X341687Y181919D01*
X341574Y181807D01*
X341434Y181676D01*
X341265Y181544D01*
X341068Y181413D01*
X340834Y181292D01*
X340843D01*
X340871Y181282D01*
X340918Y181273D01*
X340975Y181254D01*
X341049Y181226D01*
X341124Y181198D01*
X341321Y181113D01*
X341527Y181010D01*
X341752Y180860D01*
X341968Y180692D01*
X342062Y180588D01*
X342155Y180476D01*
X342165Y180467D01*
X342174Y180448D01*
X342202Y180410D01*
X342230Y180364D01*
X342268Y180307D01*
X342305Y180232D01*
X342352Y180148D01*
X342399Y180054D01*
X342437Y179942D01*
X342483Y179829D01*
X342521Y179698D01*
X342558Y179567D01*
X342615Y179267D01*
X342624Y179098D01*
X342633Y178930D01*
Y178920D01*
Y178873D01*
X342624Y178808D01*
Y178723D01*
X342605Y178611D01*
X342587Y178489D01*
X342558Y178349D01*
X342521Y178189D01*
X342474Y178030D01*
X342408Y177861D01*
X342333Y177683D01*
X342249Y177505D01*
X342137Y177327D01*
X342015Y177139D01*
X341874Y176971D01*
X341715Y176802D01*
X341706Y176793D01*
X341677Y176765D01*
X341621Y176718D01*
X341546Y176671D01*
X341462Y176596D01*
X341349Y176530D01*
X341227Y176446D01*
X341078Y176371D01*
X340918Y176287D01*
X340740Y176202D01*
X340553Y176137D01*
X340346Y176071D01*
X340131Y176015D01*
X339897Y175968D01*
X339653Y175940D01*
X339390Y175930D01*
X339334D01*
X339269Y175940D01*
X339184D01*
X339072Y175949D01*
X338950Y175968D01*
X338809Y175996D01*
X338650Y176024D01*
X338491Y176062D01*
X338322Y176118D01*
X338144Y176174D01*
X337975Y176249D01*
X337797Y176333D01*
X337619Y176437D01*
X337450Y176549D01*
X337291Y176680D01*
X337282Y176689D01*
X337254Y176718D01*
X337216Y176755D01*
X337160Y176821D01*
X337094Y176896D01*
X337019Y176980D01*
X336944Y177083D01*
X336860Y177205D01*
X336776Y177336D01*
X336691Y177486D01*
X336616Y177645D01*
X336541Y177824D01*
X336476Y178011D01*
X336419Y178208D01*
X336372Y178414D01*
X336344Y178639D01*
X337525Y178798D01*
Y178789D01*
X337535Y178752D01*
X337544Y178705D01*
X337563Y178630D01*
X337582Y178555D01*
X337610Y178452D01*
X337647Y178349D01*
X337685Y178236D01*
X337778Y178002D01*
X337900Y177758D01*
X338041Y177533D01*
X338125Y177439D01*
X338210Y177346D01*
X338219D01*
X338228Y177327D01*
X338256Y177308D01*
X338294Y177280D01*
X338341Y177243D01*
X338397Y177205D01*
X338538Y177130D01*
X338716Y177046D01*
X338922Y176971D01*
X339147Y176924D01*
X339269Y176915D01*
X339400Y176905D01*
X339484D01*
X339540Y176915D01*
X339615Y176924D01*
X339690Y176933D01*
X339784Y176952D01*
X339887Y176980D01*
X340112Y177046D01*
X340225Y177093D01*
X340346Y177149D01*
X340468Y177214D01*
X340581Y177289D01*
X340693Y177374D01*
X340806Y177477D01*
X340815Y177486D01*
X340834Y177505D01*
X340862Y177533D01*
X340900Y177580D01*
X340937Y177636D01*
X340984Y177702D01*
X341040Y177777D01*
X341096Y177871D01*
X341143Y177964D01*
X341199Y178077D01*
X341293Y178320D01*
X341321Y178452D01*
X341349Y178592D01*
X341368Y178742D01*
X341377Y178902D01*
Y178911D01*
Y178939D01*
Y178976D01*
X341368Y179042D01*
X341359Y179108D01*
X341349Y179192D01*
X341331Y179276D01*
X341312Y179380D01*
X341246Y179586D01*
X341209Y179698D01*
X341153Y179811D01*
X341087Y179923D01*
X341021Y180036D01*
X340937Y180139D01*
X340843Y180242D01*
X340834Y180251D01*
X340815Y180261D01*
X340787Y180289D01*
X340750Y180326D01*
X340693Y180364D01*
X340628Y180410D01*
X340562Y180457D01*
X340478Y180504D01*
X340384Y180551D01*
X340281Y180598D01*
X340047Y180682D01*
X339784Y180748D01*
X339644Y180757D01*
X339494Y180767D01*
X339437D01*
X339362Y180757D01*
X339269Y180748D01*
X339147Y180739D01*
X339006Y180720D01*
X338847Y180682D01*
X338669Y180645D01*
X338800Y181676D01*
X338819D01*
X338866Y181666D01*
X338931Y181657D01*
X339062D01*
X339119Y181666D01*
X339184D01*
X339259Y181676D01*
X339344Y181695D01*
X339437Y181704D01*
X339653Y181751D01*
X339878Y181826D01*
X340112Y181919D01*
X340346Y182051D01*
X340356Y182060D01*
X340375Y182069D01*
X340403Y182088D01*
X340440Y182126D01*
X340487Y182163D01*
X340543Y182219D01*
X340590Y182276D01*
X340656Y182351D01*
X340712Y182426D01*
X340759Y182519D01*
X340815Y182622D01*
X340862Y182726D01*
X340900Y182847D01*
X340928Y182979D01*
X340946Y183110D01*
X340956Y183260D01*
Y183269D01*
Y183288D01*
Y183325D01*
X340946Y183372D01*
Y183428D01*
X340937Y183494D01*
X340900Y183644D01*
X340853Y183813D01*
X340768Y183991D01*
X340665Y184169D01*
X340590Y184253D01*
X340515Y184338D01*
X340506Y184347D01*
X340496Y184356D01*
X340468Y184375D01*
X340440Y184403D01*
X340337Y184478D01*
X340206Y184553D01*
X340047Y184628D01*
X339850Y184703D01*
X339625Y184750D01*
X339512Y184769D01*
X339315D01*
X339269Y184759D01*
X339203D01*
X339137Y184750D01*
X338978Y184713D01*
X338791Y184666D01*
X338603Y184581D01*
X338406Y184478D01*
X338313Y184403D01*
X338228Y184328D01*
X338219Y184319D01*
X338210Y184310D01*
X338181Y184281D01*
X338153Y184244D01*
X338116Y184206D01*
X338078Y184150D01*
X338032Y184084D01*
X337985Y184009D01*
X337938Y183916D01*
X337882Y183822D01*
X337835Y183719D01*
X337788Y183597D01*
X337750Y183475D01*
X337703Y183335D01*
X337675Y183194D01*
X337647Y183035D01*
X336466Y183241D01*
Y183250D01*
X336476Y183297D01*
X336494Y183354D01*
X336513Y183438D01*
X336541Y183531D01*
X336579Y183653D01*
X336616Y183775D01*
X336673Y183916D01*
X336729Y184056D01*
X336804Y184206D01*
X336879Y184366D01*
X336972Y184516D01*
X337066Y184666D01*
X337179Y184816D01*
X337310Y184947D01*
X337441Y185078D01*
X337450Y185087D01*
X337478Y185106D01*
X337516Y185134D01*
X337582Y185181D01*
X337657Y185228D01*
X337741Y185284D01*
X337853Y185350D01*
X337966Y185406D01*
X338097Y185472D01*
X338247Y185528D01*
X338406Y185584D01*
X338575Y185631D01*
X338753Y185678D01*
X338941Y185706D01*
X339147Y185725D01*
X339353Y185734D01*
X339428D01*
X339484Y185725D01*
D02*
G37*
G36*
X333317Y176090D02*
X332136D01*
Y183597D01*
X332127D01*
X332117Y183578D01*
X332089Y183560D01*
X332061Y183531D01*
X331967Y183447D01*
X331836Y183344D01*
X331677Y183222D01*
X331480Y183082D01*
X331255Y182932D01*
X331011Y182782D01*
X331002D01*
X330983Y182763D01*
X330946Y182744D01*
X330899Y182716D01*
X330833Y182679D01*
X330768Y182641D01*
X330599Y182557D01*
X330412Y182463D01*
X330205Y182360D01*
X329990Y182266D01*
X329784Y182182D01*
Y183316D01*
X329793Y183325D01*
X329831Y183335D01*
X329877Y183363D01*
X329952Y183400D01*
X330037Y183447D01*
X330130Y183503D01*
X330243Y183560D01*
X330365Y183635D01*
X330636Y183794D01*
X330927Y183991D01*
X331218Y184206D01*
X331508Y184441D01*
X331517Y184450D01*
X331536Y184469D01*
X331583Y184506D01*
X331630Y184553D01*
X331686Y184619D01*
X331761Y184684D01*
X331836Y184769D01*
X331921Y184853D01*
X332089Y185050D01*
X332258Y185266D01*
X332417Y185500D01*
X332492Y185612D01*
X332548Y185734D01*
X333317D01*
Y176090D01*
D02*
G37*
G36*
X314653Y244925D02*
X314756D01*
X314869Y244916D01*
X315000Y244897D01*
X315150Y244869D01*
X315318Y244841D01*
X315487Y244794D01*
X315665Y244747D01*
X315853Y244681D01*
X316031Y244606D01*
X316218Y244522D01*
X316387Y244419D01*
X316556Y244297D01*
X316715Y244166D01*
X316724Y244156D01*
X316752Y244128D01*
X316790Y244091D01*
X316837Y244025D01*
X316902Y243950D01*
X316968Y243866D01*
X317043Y243763D01*
X317118Y243641D01*
X317193Y243510D01*
X317268Y243360D01*
X317334Y243210D01*
X317399Y243041D01*
X317446Y242863D01*
X317483Y242666D01*
X317512Y242469D01*
X317521Y242263D01*
Y242254D01*
Y242235D01*
Y242207D01*
Y242169D01*
X317512Y242113D01*
Y242057D01*
X317493Y241907D01*
X317465Y241738D01*
X317418Y241542D01*
X317362Y241335D01*
X317277Y241129D01*
Y241120D01*
X317268Y241101D01*
X317249Y241073D01*
X317230Y241035D01*
X317202Y240979D01*
X317174Y240923D01*
X317090Y240773D01*
X316987Y240604D01*
X316846Y240398D01*
X316687Y240182D01*
X316490Y239958D01*
X316481Y239948D01*
X316462Y239929D01*
X316434Y239892D01*
X316387Y239845D01*
X316321Y239779D01*
X316256Y239704D01*
X316162Y239620D01*
X316059Y239517D01*
X315946Y239405D01*
X315806Y239273D01*
X315665Y239133D01*
X315496Y238983D01*
X315318Y238824D01*
X315121Y238645D01*
X314906Y238467D01*
X314681Y238270D01*
X314672Y238261D01*
X314634Y238233D01*
X314578Y238186D01*
X314512Y238130D01*
X314428Y238055D01*
X314334Y237971D01*
X314109Y237783D01*
X313884Y237586D01*
X313659Y237390D01*
X313556Y237296D01*
X313463Y237202D01*
X313378Y237127D01*
X313313Y237061D01*
X313303Y237052D01*
X313266Y237005D01*
X313209Y236940D01*
X313134Y236865D01*
X313060Y236761D01*
X312975Y236658D01*
X312891Y236546D01*
X312816Y236424D01*
X317530D01*
Y235290D01*
X311185D01*
Y235299D01*
Y235309D01*
Y235365D01*
Y235440D01*
X311194Y235552D01*
X311213Y235674D01*
X311232Y235815D01*
X311269Y235956D01*
X311316Y236105D01*
Y236115D01*
X311326Y236133D01*
X311344Y236171D01*
X311363Y236218D01*
X311391Y236274D01*
X311419Y236340D01*
X311504Y236508D01*
X311616Y236705D01*
X311747Y236921D01*
X311907Y237146D01*
X312094Y237380D01*
X312104Y237390D01*
X312122Y237408D01*
X312150Y237446D01*
X312197Y237493D01*
X312253Y237549D01*
X312319Y237624D01*
X312394Y237708D01*
X312488Y237802D01*
X312591Y237896D01*
X312703Y238008D01*
X312835Y238130D01*
X312966Y238261D01*
X313116Y238392D01*
X313275Y238533D01*
X313453Y238683D01*
X313631Y238833D01*
X313650Y238852D01*
X313697Y238889D01*
X313781Y238955D01*
X313884Y239048D01*
X314016Y239151D01*
X314156Y239283D01*
X314315Y239423D01*
X314484Y239573D01*
X314840Y239901D01*
X315187Y240239D01*
X315347Y240407D01*
X315496Y240576D01*
X315637Y240726D01*
X315749Y240876D01*
X315759Y240885D01*
X315778Y240914D01*
X315806Y240951D01*
X315834Y241007D01*
X315881Y241073D01*
X315928Y241148D01*
X315974Y241242D01*
X316031Y241335D01*
X316134Y241551D01*
X316227Y241785D01*
X316256Y241916D01*
X316284Y242038D01*
X316303Y242169D01*
X316312Y242291D01*
Y242301D01*
Y242320D01*
Y242357D01*
X316303Y242413D01*
X316293Y242469D01*
X316284Y242535D01*
X316246Y242704D01*
X316190Y242891D01*
X316096Y243088D01*
X316040Y243182D01*
X315974Y243285D01*
X315899Y243379D01*
X315806Y243472D01*
X315796Y243482D01*
X315787Y243491D01*
X315749Y243519D01*
X315712Y243547D01*
X315665Y243585D01*
X315599Y243622D01*
X315534Y243669D01*
X315450Y243716D01*
X315365Y243763D01*
X315262Y243810D01*
X315037Y243885D01*
X314784Y243941D01*
X314643Y243950D01*
X314494Y243960D01*
X314409D01*
X314353Y243950D01*
X314278Y243941D01*
X314194Y243932D01*
X314100Y243913D01*
X314006Y243894D01*
X313781Y243838D01*
X313556Y243744D01*
X313444Y243688D01*
X313331Y243613D01*
X313228Y243538D01*
X313125Y243444D01*
X313116Y243435D01*
X313106Y243425D01*
X313078Y243388D01*
X313050Y243350D01*
X313013Y243304D01*
X312966Y243238D01*
X312919Y243163D01*
X312872Y243079D01*
X312825Y242985D01*
X312778Y242882D01*
X312741Y242760D01*
X312694Y242638D01*
X312666Y242507D01*
X312638Y242357D01*
X312628Y242207D01*
X312619Y242038D01*
X311410Y242160D01*
Y242179D01*
X311419Y242216D01*
X311429Y242291D01*
X311438Y242385D01*
X311466Y242498D01*
X311494Y242629D01*
X311532Y242769D01*
X311569Y242929D01*
X311625Y243088D01*
X311691Y243257D01*
X311766Y243425D01*
X311850Y243603D01*
X311954Y243772D01*
X312066Y243932D01*
X312197Y244081D01*
X312338Y244222D01*
X312347Y244231D01*
X312375Y244250D01*
X312422Y244288D01*
X312488Y244335D01*
X312572Y244391D01*
X312666Y244447D01*
X312788Y244513D01*
X312919Y244578D01*
X313069Y244644D01*
X313228Y244709D01*
X313406Y244766D01*
X313603Y244822D01*
X313809Y244869D01*
X314034Y244906D01*
X314269Y244925D01*
X314522Y244934D01*
X314587D01*
X314653Y244925D01*
D02*
G37*
G36*
X308317Y235290D02*
X307136D01*
Y242798D01*
X307127D01*
X307117Y242779D01*
X307089Y242760D01*
X307061Y242732D01*
X306967Y242647D01*
X306836Y242544D01*
X306677Y242423D01*
X306480Y242282D01*
X306255Y242132D01*
X306011Y241982D01*
X306002D01*
X305983Y241963D01*
X305946Y241945D01*
X305899Y241916D01*
X305833Y241879D01*
X305768Y241842D01*
X305599Y241757D01*
X305411Y241663D01*
X305205Y241560D01*
X304990Y241467D01*
X304783Y241382D01*
Y242516D01*
X304793Y242526D01*
X304830Y242535D01*
X304877Y242563D01*
X304952Y242601D01*
X305037Y242647D01*
X305130Y242704D01*
X305243Y242760D01*
X305365Y242835D01*
X305636Y242994D01*
X305927Y243191D01*
X306217Y243407D01*
X306508Y243641D01*
X306518Y243650D01*
X306536Y243669D01*
X306583Y243707D01*
X306630Y243754D01*
X306686Y243819D01*
X306761Y243885D01*
X306836Y243969D01*
X306921Y244053D01*
X307089Y244250D01*
X307258Y244466D01*
X307417Y244700D01*
X307492Y244813D01*
X307549Y244934D01*
X308317D01*
Y235290D01*
D02*
G37*
G36*
X315778Y175930D02*
X314597D01*
Y183438D01*
X314587D01*
X314578Y183419D01*
X314550Y183400D01*
X314522Y183372D01*
X314428Y183288D01*
X314297Y183185D01*
X314137Y183063D01*
X313941Y182922D01*
X313716Y182772D01*
X313472Y182622D01*
X313463D01*
X313444Y182604D01*
X313406Y182585D01*
X313360Y182557D01*
X313294Y182519D01*
X313228Y182482D01*
X313060Y182397D01*
X312872Y182304D01*
X312666Y182201D01*
X312450Y182107D01*
X312244Y182022D01*
Y183157D01*
X312254Y183166D01*
X312291Y183175D01*
X312338Y183204D01*
X312413Y183241D01*
X312497Y183288D01*
X312591Y183344D01*
X312703Y183400D01*
X312825Y183475D01*
X313097Y183635D01*
X313388Y183832D01*
X313678Y184047D01*
X313969Y184281D01*
X313978Y184291D01*
X313997Y184310D01*
X314044Y184347D01*
X314091Y184394D01*
X314147Y184459D01*
X314222Y184525D01*
X314297Y184609D01*
X314381Y184694D01*
X314550Y184891D01*
X314718Y185106D01*
X314878Y185340D01*
X314953Y185453D01*
X315009Y185575D01*
X315778D01*
Y175930D01*
D02*
G37*
G36*
X308317D02*
X307136D01*
Y183438D01*
X307127D01*
X307117Y183419D01*
X307089Y183400D01*
X307061Y183372D01*
X306967Y183288D01*
X306836Y183185D01*
X306677Y183063D01*
X306480Y182922D01*
X306255Y182772D01*
X306011Y182622D01*
X306002D01*
X305983Y182604D01*
X305946Y182585D01*
X305899Y182557D01*
X305833Y182519D01*
X305768Y182482D01*
X305599Y182397D01*
X305412Y182304D01*
X305205Y182201D01*
X304990Y182107D01*
X304784Y182022D01*
Y183157D01*
X304793Y183166D01*
X304830Y183175D01*
X304877Y183204D01*
X304952Y183241D01*
X305037Y183288D01*
X305130Y183344D01*
X305243Y183400D01*
X305365Y183475D01*
X305637Y183635D01*
X305927Y183832D01*
X306218Y184047D01*
X306508Y184281D01*
X306518Y184291D01*
X306536Y184310D01*
X306583Y184347D01*
X306630Y184394D01*
X306686Y184459D01*
X306761Y184525D01*
X306836Y184609D01*
X306921Y184694D01*
X307089Y184891D01*
X307258Y185106D01*
X307417Y185340D01*
X307492Y185453D01*
X307549Y185575D01*
X308317D01*
Y175930D01*
D02*
G37*
G36*
X281458Y235449D02*
X280277D01*
Y242957D01*
X280267D01*
X280258Y242938D01*
X280230Y242919D01*
X280202Y242891D01*
X280108Y242807D01*
X279977Y242704D01*
X279817Y242582D01*
X279621Y242441D01*
X279396Y242291D01*
X279152Y242141D01*
X279143D01*
X279124Y242123D01*
X279086Y242104D01*
X279039Y242076D01*
X278974Y242038D01*
X278908Y242001D01*
X278740Y241916D01*
X278552Y241823D01*
X278346Y241720D01*
X278130Y241626D01*
X277924Y241542D01*
Y242676D01*
X277934Y242685D01*
X277971Y242694D01*
X278018Y242722D01*
X278093Y242760D01*
X278177Y242807D01*
X278271Y242863D01*
X278383Y242919D01*
X278505Y242994D01*
X278777Y243154D01*
X279068Y243350D01*
X279358Y243566D01*
X279649Y243800D01*
X279658Y243810D01*
X279677Y243828D01*
X279724Y243866D01*
X279771Y243913D01*
X279827Y243978D01*
X279902Y244044D01*
X279977Y244128D01*
X280061Y244213D01*
X280230Y244410D01*
X280399Y244625D01*
X280558Y244859D01*
X280633Y244972D01*
X280689Y245094D01*
X281458D01*
Y235449D01*
D02*
G37*
G36*
X287803Y245084D02*
X287878Y245075D01*
X287972Y245066D01*
X288065Y245056D01*
X288272Y245019D01*
X288496Y244963D01*
X288731Y244878D01*
X288956Y244775D01*
X288965D01*
X288984Y244756D01*
X289012Y244747D01*
X289059Y244719D01*
X289162Y244644D01*
X289303Y244550D01*
X289452Y244419D01*
X289612Y244269D01*
X289771Y244081D01*
X289921Y243875D01*
Y243866D01*
X289940Y243847D01*
X289959Y243819D01*
X289987Y243772D01*
X290015Y243716D01*
X290052Y243650D01*
X290090Y243566D01*
X290137Y243482D01*
X290184Y243379D01*
X290230Y243276D01*
X290324Y243032D01*
X290427Y242751D01*
X290512Y242451D01*
Y242441D01*
X290521Y242413D01*
X290530Y242366D01*
X290549Y242301D01*
X290568Y242216D01*
X290586Y242113D01*
X290605Y241991D01*
X290624Y241851D01*
X290643Y241701D01*
X290662Y241523D01*
X290680Y241345D01*
X290699Y241138D01*
X290718Y240923D01*
X290727Y240689D01*
X290737Y240445D01*
Y240182D01*
Y240164D01*
Y240107D01*
Y240023D01*
X290727Y239901D01*
Y239761D01*
X290718Y239592D01*
X290708Y239414D01*
X290690Y239208D01*
X290671Y238992D01*
X290652Y238777D01*
X290586Y238317D01*
X290502Y237868D01*
X290446Y237661D01*
X290380Y237455D01*
Y237446D01*
X290362Y237408D01*
X290343Y237352D01*
X290315Y237286D01*
X290277Y237193D01*
X290230Y237099D01*
X290184Y236986D01*
X290118Y236865D01*
X289977Y236611D01*
X289799Y236340D01*
X289584Y236087D01*
X289462Y235965D01*
X289340Y235852D01*
X289331Y235843D01*
X289312Y235824D01*
X289274Y235796D01*
X289218Y235768D01*
X289153Y235721D01*
X289068Y235674D01*
X288974Y235627D01*
X288871Y235571D01*
X288750Y235515D01*
X288618Y235468D01*
X288478Y235421D01*
X288318Y235374D01*
X288159Y235346D01*
X287981Y235318D01*
X287803Y235299D01*
X287606Y235290D01*
X287540D01*
X287475Y235299D01*
X287372Y235309D01*
X287259Y235318D01*
X287119Y235346D01*
X286969Y235374D01*
X286809Y235412D01*
X286641Y235468D01*
X286463Y235534D01*
X286275Y235609D01*
X286097Y235702D01*
X285919Y235815D01*
X285741Y235946D01*
X285572Y236105D01*
X285422Y236274D01*
X285413Y236293D01*
X285385Y236330D01*
X285338Y236405D01*
X285272Y236508D01*
X285207Y236640D01*
X285122Y236799D01*
X285038Y236996D01*
X284954Y237221D01*
X284860Y237474D01*
X284776Y237764D01*
X284691Y238083D01*
X284626Y238430D01*
X284560Y238824D01*
X284513Y239236D01*
X284485Y239695D01*
X284476Y240182D01*
Y240192D01*
Y240201D01*
Y240257D01*
Y240351D01*
X284485Y240464D01*
Y240614D01*
X284494Y240773D01*
X284504Y240960D01*
X284522Y241167D01*
X284541Y241382D01*
X284560Y241607D01*
X284626Y242057D01*
X284710Y242516D01*
X284766Y242722D01*
X284822Y242929D01*
Y242938D01*
X284841Y242976D01*
X284860Y243032D01*
X284888Y243097D01*
X284925Y243191D01*
X284972Y243285D01*
X285019Y243397D01*
X285085Y243519D01*
X285225Y243782D01*
X285403Y244044D01*
X285619Y244297D01*
X285741Y244419D01*
X285863Y244531D01*
X285872Y244541D01*
X285891Y244559D01*
X285938Y244588D01*
X285985Y244616D01*
X286060Y244663D01*
X286135Y244709D01*
X286238Y244756D01*
X286341Y244813D01*
X286463Y244869D01*
X286594Y244916D01*
X286734Y244963D01*
X286894Y245009D01*
X287053Y245037D01*
X287231Y245066D01*
X287409Y245084D01*
X287606Y245094D01*
X287737D01*
X287803Y245084D01*
D02*
G37*
G36*
X284677Y185725D02*
X284762Y185715D01*
X284855Y185706D01*
X284968Y185697D01*
X285080Y185669D01*
X285352Y185612D01*
X285633Y185518D01*
X285783Y185462D01*
X285933Y185397D01*
X286083Y185322D01*
X286233Y185228D01*
X286243Y185219D01*
X286271Y185209D01*
X286308Y185172D01*
X286364Y185134D01*
X286430Y185078D01*
X286505Y185022D01*
X286580Y184947D01*
X286674Y184862D01*
X286767Y184759D01*
X286861Y184656D01*
X286964Y184534D01*
X287058Y184403D01*
X287152Y184263D01*
X287245Y184113D01*
X287339Y183953D01*
X287414Y183785D01*
X287423Y183775D01*
X287433Y183738D01*
X287452Y183691D01*
X287480Y183616D01*
X287508Y183513D01*
X287545Y183400D01*
X287583Y183260D01*
X287620Y183100D01*
X287658Y182922D01*
X287686Y182716D01*
X287723Y182500D01*
X287752Y182257D01*
X287780Y181994D01*
X287798Y181713D01*
X287817Y181404D01*
Y181085D01*
Y181076D01*
Y181066D01*
Y181038D01*
Y181001D01*
Y180907D01*
X287808Y180785D01*
Y180626D01*
X287798Y180448D01*
X287780Y180251D01*
X287770Y180026D01*
X287742Y179801D01*
X287723Y179558D01*
X287648Y179070D01*
X287602Y178827D01*
X287545Y178592D01*
X287489Y178367D01*
X287414Y178152D01*
Y178142D01*
X287395Y178105D01*
X287377Y178049D01*
X287339Y177974D01*
X287292Y177880D01*
X287245Y177777D01*
X287189Y177664D01*
X287114Y177533D01*
X286945Y177271D01*
X286739Y176989D01*
X286505Y176727D01*
X286364Y176605D01*
X286224Y176493D01*
X286214Y176483D01*
X286186Y176465D01*
X286149Y176437D01*
X286083Y176408D01*
X286008Y176362D01*
X285914Y176315D01*
X285811Y176268D01*
X285699Y176211D01*
X285568Y176155D01*
X285427Y176108D01*
X285277Y176062D01*
X285108Y176015D01*
X284940Y175987D01*
X284762Y175958D01*
X284574Y175940D01*
X284377Y175930D01*
X284265D01*
X284190Y175940D01*
X284096Y175949D01*
X283984Y175968D01*
X283853Y175987D01*
X283721Y176005D01*
X283431Y176080D01*
X283271Y176127D01*
X283121Y176193D01*
X282962Y176258D01*
X282812Y176343D01*
X282672Y176437D01*
X282531Y176549D01*
X282522Y176558D01*
X282503Y176577D01*
X282465Y176615D01*
X282418Y176661D01*
X282362Y176727D01*
X282297Y176811D01*
X282231Y176896D01*
X282156Y177008D01*
X282081Y177121D01*
X282006Y177261D01*
X281940Y177402D01*
X281875Y177561D01*
X281809Y177730D01*
X281753Y177917D01*
X281716Y178114D01*
X281678Y178320D01*
X282812Y178424D01*
Y178414D01*
X282822Y178386D01*
X282831Y178349D01*
X282840Y178292D01*
X282859Y178227D01*
X282878Y178152D01*
X282934Y177974D01*
X283009Y177786D01*
X283103Y177589D01*
X283215Y177411D01*
X283281Y177327D01*
X283356Y177252D01*
X283365D01*
X283375Y177233D01*
X283431Y177196D01*
X283515Y177139D01*
X283637Y177074D01*
X283787Y177008D01*
X283965Y176952D01*
X284171Y176915D01*
X284396Y176896D01*
X284490D01*
X284593Y176905D01*
X284724Y176924D01*
X284865Y176952D01*
X285033Y176999D01*
X285193Y177055D01*
X285352Y177139D01*
X285361D01*
X285371Y177149D01*
X285418Y177186D01*
X285493Y177243D01*
X285586Y177318D01*
X285699Y177411D01*
X285811Y177524D01*
X285914Y177655D01*
X286018Y177805D01*
Y177814D01*
X286027Y177824D01*
X286046Y177852D01*
X286064Y177880D01*
X286111Y177974D01*
X286168Y178105D01*
X286243Y178264D01*
X286318Y178461D01*
X286392Y178676D01*
X286458Y178930D01*
Y178939D01*
X286467Y178958D01*
X286477Y179005D01*
X286486Y179051D01*
X286496Y179117D01*
X286514Y179192D01*
X286533Y179276D01*
X286552Y179380D01*
X286580Y179595D01*
X286608Y179839D01*
X286627Y180101D01*
X286636Y180373D01*
Y180392D01*
Y180439D01*
Y180504D01*
Y180598D01*
X286617Y180579D01*
X286599Y180551D01*
X286571Y180514D01*
X286496Y180410D01*
X286383Y180279D01*
X286243Y180139D01*
X286074Y179989D01*
X285877Y179839D01*
X285661Y179698D01*
X285652D01*
X285633Y179679D01*
X285605Y179670D01*
X285558Y179642D01*
X285502Y179614D01*
X285427Y179586D01*
X285352Y179558D01*
X285268Y179529D01*
X285071Y179464D01*
X284846Y179408D01*
X284602Y179370D01*
X284340Y179351D01*
X284284D01*
X284227Y179361D01*
X284143D01*
X284040Y179380D01*
X283918Y179398D01*
X283787Y179426D01*
X283646Y179464D01*
X283487Y179501D01*
X283328Y179558D01*
X283159Y179632D01*
X282990Y179717D01*
X282822Y179811D01*
X282653Y179932D01*
X282484Y180064D01*
X282325Y180214D01*
X282315Y180223D01*
X282287Y180251D01*
X282250Y180307D01*
X282194Y180373D01*
X282137Y180457D01*
X282062Y180560D01*
X281987Y180682D01*
X281912Y180823D01*
X281837Y180973D01*
X281762Y181151D01*
X281687Y181338D01*
X281631Y181535D01*
X281575Y181760D01*
X281537Y181985D01*
X281509Y182229D01*
X281500Y182491D01*
Y182510D01*
Y182557D01*
X281509Y182632D01*
Y182735D01*
X281528Y182857D01*
X281547Y182997D01*
X281575Y183157D01*
X281603Y183335D01*
X281650Y183513D01*
X281706Y183710D01*
X281781Y183906D01*
X281856Y184103D01*
X281959Y184300D01*
X282072Y184487D01*
X282203Y184675D01*
X282353Y184844D01*
X282362Y184853D01*
X282390Y184881D01*
X282437Y184928D01*
X282512Y184984D01*
X282597Y185050D01*
X282690Y185125D01*
X282812Y185209D01*
X282943Y185294D01*
X283093Y185369D01*
X283262Y185453D01*
X283440Y185528D01*
X283628Y185593D01*
X283834Y185650D01*
X284049Y185697D01*
X284284Y185725D01*
X284518Y185734D01*
X284612D01*
X284677Y185725D01*
D02*
G37*
G36*
X258270Y245084D02*
X258383Y245075D01*
X258505Y245056D01*
X258636Y245028D01*
X258786Y245000D01*
X258945Y244963D01*
X259114Y244916D01*
X259283Y244859D01*
X259451Y244784D01*
X259620Y244700D01*
X259779Y244606D01*
X259939Y244494D01*
X260089Y244363D01*
X260098Y244353D01*
X260126Y244325D01*
X260164Y244288D01*
X260210Y244231D01*
X260267Y244166D01*
X260332Y244072D01*
X260398Y243978D01*
X260473Y243866D01*
X260548Y243744D01*
X260613Y243603D01*
X260679Y243463D01*
X260735Y243304D01*
X260782Y243135D01*
X260829Y242957D01*
X260848Y242779D01*
X260857Y242582D01*
Y242572D01*
Y242554D01*
Y242516D01*
X260848Y242469D01*
Y242413D01*
X260839Y242338D01*
X260810Y242179D01*
X260773Y242001D01*
X260707Y241804D01*
X260623Y241607D01*
X260501Y241410D01*
Y241401D01*
X260482Y241392D01*
X260435Y241326D01*
X260351Y241242D01*
X260239Y241129D01*
X260089Y241007D01*
X259911Y240885D01*
X259695Y240764D01*
X259442Y240651D01*
X259451D01*
X259479Y240642D01*
X259526Y240623D01*
X259583Y240595D01*
X259657Y240567D01*
X259742Y240529D01*
X259939Y240426D01*
X260154Y240295D01*
X260379Y240136D01*
X260595Y239948D01*
X260688Y239836D01*
X260782Y239723D01*
X260792Y239714D01*
X260801Y239695D01*
X260829Y239658D01*
X260857Y239611D01*
X260895Y239545D01*
X260932Y239480D01*
X260970Y239386D01*
X261017Y239292D01*
X261063Y239189D01*
X261101Y239067D01*
X261176Y238814D01*
X261232Y238514D01*
X261241Y238364D01*
X261251Y238195D01*
Y238186D01*
Y238139D01*
X261241Y238074D01*
Y237989D01*
X261223Y237886D01*
X261204Y237764D01*
X261176Y237624D01*
X261138Y237474D01*
X261091Y237314D01*
X261035Y237146D01*
X260970Y236977D01*
X260885Y236799D01*
X260782Y236621D01*
X260670Y236452D01*
X260529Y236283D01*
X260379Y236124D01*
X260370Y236115D01*
X260342Y236087D01*
X260285Y236049D01*
X260220Y235993D01*
X260135Y235927D01*
X260032Y235862D01*
X259901Y235787D01*
X259770Y235712D01*
X259611Y235627D01*
X259433Y235552D01*
X259245Y235487D01*
X259039Y235421D01*
X258823Y235365D01*
X258589Y235327D01*
X258345Y235299D01*
X258083Y235290D01*
X258017D01*
X257942Y235299D01*
X257849D01*
X257727Y235318D01*
X257586Y235337D01*
X257427Y235356D01*
X257258Y235393D01*
X257080Y235440D01*
X256893Y235496D01*
X256705Y235562D01*
X256518Y235646D01*
X256321Y235740D01*
X256133Y235852D01*
X255955Y235974D01*
X255787Y236124D01*
X255777Y236133D01*
X255749Y236162D01*
X255712Y236208D01*
X255655Y236274D01*
X255590Y236359D01*
X255515Y236462D01*
X255440Y236574D01*
X255355Y236705D01*
X255271Y236846D01*
X255196Y237005D01*
X255121Y237183D01*
X255056Y237371D01*
X255009Y237568D01*
X254962Y237774D01*
X254934Y237989D01*
X254924Y238224D01*
Y238233D01*
Y238261D01*
Y238317D01*
X254934Y238383D01*
X254943Y238458D01*
X254953Y238552D01*
X254962Y238655D01*
X254981Y238767D01*
X255037Y239020D01*
X255121Y239283D01*
X255177Y239414D01*
X255243Y239545D01*
X255309Y239667D01*
X255393Y239789D01*
X255402Y239798D01*
X255412Y239817D01*
X255440Y239845D01*
X255477Y239892D01*
X255534Y239948D01*
X255590Y240004D01*
X255665Y240070D01*
X255740Y240136D01*
X255833Y240211D01*
X255937Y240276D01*
X256049Y240351D01*
X256171Y240426D01*
X256302Y240492D01*
X256443Y240548D01*
X256593Y240604D01*
X256752Y240651D01*
X256743D01*
X256724Y240660D01*
X256677Y240679D01*
X256630Y240698D01*
X256574Y240726D01*
X256499Y240764D01*
X256340Y240848D01*
X256161Y240960D01*
X255974Y241092D01*
X255805Y241242D01*
X255655Y241420D01*
Y241429D01*
X255637Y241438D01*
X255627Y241467D01*
X255599Y241504D01*
X255571Y241560D01*
X255543Y241616D01*
X255487Y241757D01*
X255421Y241926D01*
X255365Y242132D01*
X255327Y242357D01*
X255309Y242610D01*
Y242619D01*
Y242657D01*
X255318Y242713D01*
Y242788D01*
X255327Y242872D01*
X255346Y242976D01*
X255374Y243097D01*
X255402Y243229D01*
X255440Y243360D01*
X255496Y243500D01*
X255552Y243650D01*
X255627Y243800D01*
X255712Y243941D01*
X255815Y244091D01*
X255927Y244231D01*
X256058Y244372D01*
X256068Y244381D01*
X256096Y244400D01*
X256133Y244438D01*
X256199Y244485D01*
X256274Y244541D01*
X256358Y244597D01*
X256471Y244663D01*
X256593Y244738D01*
X256724Y244803D01*
X256874Y244869D01*
X257043Y244925D01*
X257221Y244981D01*
X257418Y245028D01*
X257614Y245066D01*
X257839Y245084D01*
X258064Y245094D01*
X258186D01*
X258270Y245084D01*
D02*
G37*
G36*
X262714Y184497D02*
X262705Y184487D01*
X262677Y184450D01*
X262620Y184394D01*
X262555Y184319D01*
X262470Y184216D01*
X262377Y184103D01*
X262264Y183963D01*
X262142Y183803D01*
X262011Y183625D01*
X261861Y183428D01*
X261711Y183213D01*
X261552Y182979D01*
X261392Y182735D01*
X261224Y182472D01*
X261055Y182191D01*
X260886Y181891D01*
X260877Y181873D01*
X260849Y181816D01*
X260802Y181732D01*
X260736Y181610D01*
X260661Y181470D01*
X260577Y181292D01*
X260483Y181095D01*
X260380Y180870D01*
X260268Y180626D01*
X260155Y180373D01*
X260033Y180092D01*
X259921Y179811D01*
X259809Y179511D01*
X259696Y179201D01*
X259593Y178883D01*
X259499Y178564D01*
Y178555D01*
X259480Y178508D01*
X259462Y178442D01*
X259443Y178358D01*
X259415Y178245D01*
X259377Y178105D01*
X259349Y177955D01*
X259312Y177786D01*
X259274Y177599D01*
X259237Y177393D01*
X259199Y177177D01*
X259162Y176943D01*
X259124Y176708D01*
X259096Y176455D01*
X259049Y175930D01*
X257840D01*
Y175940D01*
Y175987D01*
X257850Y176043D01*
Y176127D01*
X257859Y176240D01*
X257868Y176371D01*
X257887Y176521D01*
X257906Y176689D01*
X257925Y176886D01*
X257953Y177093D01*
X257990Y177318D01*
X258037Y177552D01*
X258084Y177814D01*
X258140Y178077D01*
X258206Y178367D01*
X258281Y178658D01*
Y178667D01*
X258290Y178676D01*
X258300Y178733D01*
X258328Y178817D01*
X258356Y178930D01*
X258403Y179080D01*
X258459Y179248D01*
X258515Y179436D01*
X258590Y179651D01*
X258674Y179876D01*
X258768Y180120D01*
X258862Y180382D01*
X258974Y180645D01*
X259218Y181198D01*
X259499Y181760D01*
X259509Y181779D01*
X259537Y181826D01*
X259584Y181901D01*
X259640Y182013D01*
X259715Y182135D01*
X259799Y182285D01*
X259902Y182454D01*
X260015Y182632D01*
X260137Y182829D01*
X260268Y183035D01*
X260549Y183457D01*
X260868Y183878D01*
X261027Y184084D01*
X261196Y184281D01*
X256500D01*
Y185415D01*
X262714D01*
Y184497D01*
D02*
G37*
G36*
X233966Y245084D02*
X234069Y245075D01*
X234181Y245056D01*
X234303Y245037D01*
X234444Y245019D01*
X234734Y244934D01*
X234893Y244888D01*
X235043Y244822D01*
X235203Y244756D01*
X235353Y244663D01*
X235503Y244569D01*
X235643Y244456D01*
X235653Y244447D01*
X235671Y244428D01*
X235709Y244391D01*
X235756Y244344D01*
X235812Y244278D01*
X235878Y244194D01*
X235953Y244100D01*
X236028Y243997D01*
X236103Y243885D01*
X236178Y243744D01*
X236243Y243603D01*
X236318Y243444D01*
X236384Y243276D01*
X236431Y243097D01*
X236477Y242910D01*
X236515Y242704D01*
X235343Y242610D01*
Y242619D01*
X235334Y242638D01*
X235325Y242676D01*
X235315Y242722D01*
X235296Y242779D01*
X235278Y242844D01*
X235231Y242994D01*
X235165Y243163D01*
X235090Y243332D01*
X234997Y243491D01*
X234893Y243622D01*
X234884Y243632D01*
X234875Y243641D01*
X234847Y243669D01*
X234809Y243697D01*
X234762Y243744D01*
X234706Y243782D01*
X234565Y243875D01*
X234397Y243969D01*
X234191Y244053D01*
X233966Y244110D01*
X233844Y244119D01*
X233713Y244128D01*
X233619D01*
X233516Y244110D01*
X233375Y244091D01*
X233225Y244053D01*
X233056Y243997D01*
X232888Y243913D01*
X232719Y243810D01*
X232710D01*
X232691Y243791D01*
X232663Y243772D01*
X232625Y243735D01*
X232532Y243641D01*
X232400Y243510D01*
X232260Y243341D01*
X232110Y243135D01*
X231969Y242901D01*
X231838Y242619D01*
Y242610D01*
X231829Y242582D01*
X231810Y242535D01*
X231791Y242479D01*
X231763Y242394D01*
X231735Y242301D01*
X231707Y242179D01*
X231679Y242048D01*
X231651Y241898D01*
X231622Y241738D01*
X231594Y241551D01*
X231566Y241354D01*
X231547Y241138D01*
X231529Y240904D01*
X231519Y240660D01*
X231510Y240398D01*
X231519Y240407D01*
X231529Y240426D01*
X231557Y240464D01*
X231585Y240501D01*
X231622Y240557D01*
X231679Y240623D01*
X231800Y240764D01*
X231950Y240923D01*
X232129Y241082D01*
X232325Y241232D01*
X232550Y241363D01*
X232560D01*
X232578Y241373D01*
X232616Y241392D01*
X232653Y241410D01*
X232719Y241438D01*
X232785Y241467D01*
X232860Y241495D01*
X232944Y241523D01*
X233141Y241579D01*
X233356Y241635D01*
X233591Y241673D01*
X233844Y241682D01*
X233900D01*
X233956Y241673D01*
X234041D01*
X234144Y241654D01*
X234265Y241635D01*
X234397Y241607D01*
X234537Y241570D01*
X234687Y241523D01*
X234856Y241467D01*
X235015Y241401D01*
X235184Y241317D01*
X235362Y241213D01*
X235531Y241101D01*
X235690Y240960D01*
X235849Y240811D01*
X235859Y240801D01*
X235887Y240773D01*
X235924Y240717D01*
X235981Y240651D01*
X236046Y240567D01*
X236112Y240464D01*
X236187Y240342D01*
X236271Y240201D01*
X236346Y240051D01*
X236421Y239883D01*
X236487Y239695D01*
X236552Y239498D01*
X236609Y239283D01*
X236646Y239058D01*
X236674Y238824D01*
X236684Y238570D01*
Y238561D01*
Y238533D01*
Y238486D01*
X236674Y238421D01*
Y238336D01*
X236665Y238242D01*
X236656Y238139D01*
X236637Y238017D01*
X236590Y237755D01*
X236515Y237474D01*
X236421Y237183D01*
X236290Y236883D01*
Y236874D01*
X236271Y236846D01*
X236252Y236808D01*
X236215Y236761D01*
X236178Y236696D01*
X236131Y236621D01*
X236009Y236452D01*
X235849Y236255D01*
X235671Y236059D01*
X235456Y235871D01*
X235212Y235702D01*
X235203D01*
X235184Y235684D01*
X235147Y235665D01*
X235090Y235637D01*
X235025Y235609D01*
X234950Y235571D01*
X234865Y235534D01*
X234762Y235496D01*
X234659Y235459D01*
X234537Y235421D01*
X234275Y235356D01*
X233984Y235309D01*
X233825Y235299D01*
X233666Y235290D01*
X233600D01*
X233525Y235299D01*
X233422Y235309D01*
X233300Y235327D01*
X233150Y235346D01*
X232991Y235384D01*
X232813Y235421D01*
X232625Y235478D01*
X232438Y235552D01*
X232232Y235637D01*
X232035Y235749D01*
X231829Y235871D01*
X231632Y236012D01*
X231444Y236180D01*
X231266Y236368D01*
X231257Y236377D01*
X231229Y236424D01*
X231182Y236480D01*
X231126Y236574D01*
X231051Y236696D01*
X230976Y236846D01*
X230891Y237015D01*
X230807Y237221D01*
X230713Y237455D01*
X230629Y237717D01*
X230554Y238008D01*
X230488Y238336D01*
X230423Y238683D01*
X230376Y239076D01*
X230348Y239489D01*
X230338Y239939D01*
Y239948D01*
Y239967D01*
Y240004D01*
Y240061D01*
Y240126D01*
X230348Y240201D01*
Y240295D01*
X230357Y240398D01*
Y240501D01*
X230366Y240623D01*
X230395Y240885D01*
X230423Y241176D01*
X230470Y241485D01*
X230516Y241813D01*
X230591Y242151D01*
X230666Y242488D01*
X230770Y242826D01*
X230882Y243144D01*
X231023Y243454D01*
X231182Y243735D01*
X231360Y243988D01*
X231369Y243997D01*
X231397Y244035D01*
X231454Y244091D01*
X231529Y244156D01*
X231613Y244241D01*
X231726Y244335D01*
X231857Y244438D01*
X231997Y244541D01*
X232166Y244644D01*
X232344Y244747D01*
X232541Y244841D01*
X232757Y244925D01*
X232991Y244991D01*
X233235Y245047D01*
X233497Y245084D01*
X233778Y245094D01*
X233891D01*
X233966Y245084D01*
D02*
G37*
G36*
X235424Y184450D02*
X231571D01*
X231056Y181854D01*
X231065Y181863D01*
X231093Y181882D01*
X231140Y181910D01*
X231206Y181948D01*
X231281Y181994D01*
X231384Y182051D01*
X231487Y182097D01*
X231609Y182163D01*
X231740Y182219D01*
X231881Y182266D01*
X232190Y182369D01*
X232349Y182407D01*
X232518Y182435D01*
X232696Y182454D01*
X232874Y182463D01*
X232930D01*
X232996Y182454D01*
X233090D01*
X233193Y182435D01*
X233324Y182416D01*
X233465Y182388D01*
X233615Y182351D01*
X233774Y182304D01*
X233952Y182248D01*
X234130Y182182D01*
X234308Y182097D01*
X234486Y181994D01*
X234664Y181882D01*
X234833Y181741D01*
X235002Y181591D01*
X235011Y181582D01*
X235039Y181554D01*
X235086Y181498D01*
X235142Y181432D01*
X235208Y181348D01*
X235273Y181245D01*
X235358Y181123D01*
X235442Y180982D01*
X235517Y180832D01*
X235602Y180664D01*
X235667Y180476D01*
X235742Y180279D01*
X235789Y180064D01*
X235836Y179839D01*
X235864Y179595D01*
X235873Y179342D01*
Y179323D01*
Y179286D01*
X235864Y179220D01*
Y179126D01*
X235855Y179014D01*
X235836Y178883D01*
X235808Y178733D01*
X235780Y178573D01*
X235733Y178405D01*
X235686Y178217D01*
X235620Y178030D01*
X235545Y177842D01*
X235461Y177655D01*
X235358Y177458D01*
X235236Y177271D01*
X235105Y177093D01*
X235095Y177083D01*
X235058Y177046D01*
X235011Y176989D01*
X234936Y176915D01*
X234842Y176821D01*
X234730Y176727D01*
X234599Y176624D01*
X234449Y176511D01*
X234271Y176399D01*
X234083Y176296D01*
X233877Y176202D01*
X233652Y176108D01*
X233408Y176033D01*
X233155Y175977D01*
X232874Y175940D01*
X232584Y175930D01*
X232527D01*
X232462Y175940D01*
X232368D01*
X232255Y175949D01*
X232124Y175968D01*
X231984Y175996D01*
X231824Y176024D01*
X231656Y176062D01*
X231487Y176108D01*
X231309Y176165D01*
X231122Y176240D01*
X230943Y176324D01*
X230765Y176418D01*
X230597Y176530D01*
X230437Y176661D01*
X230428Y176671D01*
X230400Y176699D01*
X230362Y176736D01*
X230306Y176793D01*
X230240Y176868D01*
X230175Y176961D01*
X230091Y177064D01*
X230016Y177177D01*
X229931Y177308D01*
X229847Y177458D01*
X229772Y177617D01*
X229697Y177796D01*
X229631Y177983D01*
X229575Y178180D01*
X229528Y178386D01*
X229500Y178611D01*
X230737Y178714D01*
Y178705D01*
X230747Y178676D01*
X230756Y178630D01*
X230765Y178564D01*
X230784Y178489D01*
X230803Y178405D01*
X230868Y178199D01*
X230953Y177983D01*
X231056Y177758D01*
X231196Y177533D01*
X231281Y177439D01*
X231365Y177346D01*
X231374Y177336D01*
X231393Y177327D01*
X231421Y177308D01*
X231459Y177280D01*
X231506Y177243D01*
X231562Y177205D01*
X231712Y177121D01*
X231890Y177036D01*
X232096Y176971D01*
X232330Y176915D01*
X232452Y176905D01*
X232584Y176896D01*
X232668D01*
X232724Y176905D01*
X232799Y176915D01*
X232883Y176933D01*
X232977Y176952D01*
X233080Y176980D01*
X233315Y177055D01*
X233427Y177102D01*
X233549Y177167D01*
X233671Y177243D01*
X233793Y177327D01*
X233915Y177421D01*
X234027Y177533D01*
X234036Y177542D01*
X234055Y177561D01*
X234083Y177599D01*
X234121Y177655D01*
X234168Y177711D01*
X234214Y177796D01*
X234271Y177889D01*
X234327Y177992D01*
X234374Y178105D01*
X234430Y178236D01*
X234477Y178377D01*
X234524Y178527D01*
X234561Y178686D01*
X234589Y178864D01*
X234608Y179042D01*
X234617Y179239D01*
Y179248D01*
Y179286D01*
Y179333D01*
X234608Y179408D01*
X234599Y179492D01*
X234589Y179586D01*
X234571Y179698D01*
X234543Y179820D01*
X234477Y180073D01*
X234430Y180204D01*
X234374Y180336D01*
X234308Y180467D01*
X234233Y180598D01*
X234149Y180720D01*
X234046Y180832D01*
X234036Y180842D01*
X234018Y180860D01*
X233990Y180889D01*
X233943Y180926D01*
X233886Y180973D01*
X233821Y181020D01*
X233736Y181076D01*
X233652Y181132D01*
X233549Y181179D01*
X233437Y181235D01*
X233315Y181282D01*
X233183Y181329D01*
X233034Y181367D01*
X232883Y181395D01*
X232724Y181413D01*
X232556Y181423D01*
X232462D01*
X232405Y181413D01*
X232349D01*
X232209Y181395D01*
X232049Y181357D01*
X231881Y181310D01*
X231703Y181245D01*
X231525Y181160D01*
X231515D01*
X231506Y181151D01*
X231450Y181113D01*
X231365Y181057D01*
X231271Y180982D01*
X231150Y180879D01*
X231037Y180767D01*
X230915Y180635D01*
X230812Y180495D01*
X229706Y180635D01*
X230634Y185575D01*
X235424D01*
Y184450D01*
D02*
G37*
G36*
X277622Y156499D02*
X279184Y156187D01*
X282934Y155249D01*
X284809Y153999D01*
X286684Y152749D01*
X286997Y152437D01*
X287622Y152124D01*
X288247Y151187D01*
X289184Y150249D01*
X291059Y146812D01*
X291997Y144937D01*
X292309Y142750D01*
Y140562D01*
Y140250D01*
X291997Y139937D01*
X291684Y139625D01*
X290747Y139312D01*
X286059D01*
X285747Y139625D01*
X285122Y139937D01*
X284809Y140562D01*
Y141500D01*
Y141812D01*
Y142125D01*
X284497Y143687D01*
X283559Y145875D01*
X281997Y147750D01*
X281684Y148062D01*
X280434Y148999D01*
X278559Y149624D01*
X276059Y149937D01*
X275122D01*
X273247Y149624D01*
X271060Y148999D01*
X268872Y147750D01*
X268560Y147437D01*
X267622Y146187D01*
X266685Y144312D01*
X266060Y142125D01*
Y141500D01*
X265747Y140250D01*
Y138062D01*
Y135250D01*
X265435Y131812D01*
Y127750D01*
X266060Y119625D01*
Y119000D01*
X266685Y117437D01*
X267310Y115562D01*
X268872Y113687D01*
X269497Y113375D01*
X270747Y112750D01*
X272935Y111812D01*
X275435Y111500D01*
X276059D01*
X277622Y111812D01*
X279809Y112437D01*
X281684Y113687D01*
X281997Y114000D01*
X283247Y115250D01*
X284184Y117125D01*
X284809Y119625D01*
Y121187D01*
Y121500D01*
X285122Y122125D01*
X285434Y122437D01*
X286372Y122750D01*
X291059D01*
X291684Y122437D01*
X291997Y122125D01*
X292309Y121187D01*
Y119312D01*
Y119000D01*
X291997Y118375D01*
Y117125D01*
X291372Y115562D01*
X289809Y111812D01*
X288559Y110250D01*
X286997Y108375D01*
X286684Y108062D01*
X286372Y107750D01*
X285122Y107125D01*
X283872Y106187D01*
X282309Y105250D01*
X280434Y104625D01*
X278247Y104312D01*
X275747Y104000D01*
X274497D01*
X273247Y104312D01*
X271685Y104625D01*
X267935Y105875D01*
X265747Y106812D01*
X263872Y108375D01*
X263560Y108687D01*
X263247Y109312D01*
X262310Y110250D01*
X261372Y111500D01*
X259810Y114937D01*
X258872Y116812D01*
X258560Y119312D01*
Y119937D01*
Y121187D01*
Y123375D01*
Y126187D01*
Y129625D01*
Y133375D01*
Y141500D01*
Y141812D01*
X258872Y142750D01*
Y143687D01*
X259497Y145250D01*
X261060Y148999D01*
X262310Y150874D01*
X263872Y152437D01*
X264185Y152749D01*
X264810Y153062D01*
X265747Y153687D01*
X267310Y154624D01*
X270747Y156187D01*
X272935Y156499D01*
X275435Y156812D01*
X276684D01*
X277622Y156499D01*
D02*
G37*
G36*
X92624Y155562D02*
X92937Y154937D01*
Y105875D01*
Y105562D01*
Y105250D01*
X92312Y104937D01*
X91687Y104625D01*
X84499D01*
X84187Y104937D01*
X83874Y105562D01*
X69187Y142125D01*
X68875Y142437D01*
X68562D01*
X68250Y142125D01*
Y105562D01*
Y105250D01*
X67937Y104937D01*
X67625Y104312D01*
X66687Y104000D01*
X62937D01*
X62625Y104312D01*
X62000Y104625D01*
X61687Y105562D01*
Y154312D01*
Y154624D01*
X62000Y155249D01*
X62312Y155562D01*
X63250Y155874D01*
X70125D01*
X70437Y155562D01*
X70750Y154937D01*
X85124Y118062D01*
X85749Y117750D01*
X86062D01*
X86687Y118062D01*
Y154937D01*
Y155249D01*
X86999Y155562D01*
X87312Y155874D01*
X88249Y156187D01*
X92312D01*
X92624Y155562D01*
D02*
G37*
G36*
X329809Y156499D02*
X331371Y156187D01*
X335121Y155249D01*
X336684Y153999D01*
X338559Y152749D01*
X338871Y152437D01*
X339184Y152124D01*
X340121Y151187D01*
X341059Y150249D01*
X342934Y146812D01*
X344184Y142750D01*
Y142437D01*
Y141812D01*
Y140875D01*
X343871Y139625D01*
X343246Y136812D01*
X341684Y133687D01*
X341371Y133062D01*
X340121Y131500D01*
X337934Y129625D01*
X335121Y128062D01*
X334809Y127750D01*
X334184Y127125D01*
X333871Y126500D01*
Y125875D01*
X334184Y125562D01*
X342934Y107125D01*
Y106812D01*
Y106500D01*
Y105562D01*
X341996Y104937D01*
X336996D01*
X336371Y105250D01*
X335434Y105562D01*
X335121Y106500D01*
X326371Y124937D01*
Y125250D01*
X325746Y125562D01*
X325121Y125875D01*
X321059Y125562D01*
X320746Y125250D01*
X320434Y124937D01*
X320121D01*
Y106500D01*
Y106187D01*
X319809Y105875D01*
X319496Y105250D01*
X318559Y104937D01*
X313872D01*
X313559Y105250D01*
X313247Y105562D01*
X312934Y106500D01*
Y155249D01*
Y155562D01*
X313247Y156187D01*
X313559Y156499D01*
X314184Y156812D01*
X328559D01*
X329809Y156499D01*
D02*
G37*
G36*
X226060D02*
X227623Y156187D01*
X231060Y155249D01*
X232935Y153999D01*
X234810Y152749D01*
X235123Y152437D01*
X235435Y152124D01*
X236373Y151187D01*
X237310Y150249D01*
X239185Y146812D01*
X239810Y144937D01*
X240123Y142750D01*
Y142437D01*
Y141812D01*
Y140875D01*
Y139625D01*
X239498Y136812D01*
X237935Y133687D01*
X237623Y133062D01*
X236373Y131500D01*
X234185Y129625D01*
X231373Y128062D01*
X231060Y127750D01*
X230435Y127125D01*
X229810Y126500D01*
Y125875D01*
X230123Y125562D01*
X239185Y107125D01*
Y106812D01*
X239498Y106500D01*
X239185Y105562D01*
X238560Y104937D01*
X233248D01*
X232935Y105250D01*
X232310Y105562D01*
X231685Y106500D01*
X223560Y124937D01*
X223248Y125250D01*
X221998Y125875D01*
X216998Y125562D01*
X216685Y125250D01*
X216373Y124937D01*
X216060D01*
Y106500D01*
Y106187D01*
X215748Y105875D01*
X215435Y105250D01*
X214498Y104937D01*
X210435D01*
X210123Y105250D01*
X209498Y105562D01*
X209185Y106500D01*
Y155249D01*
Y155562D01*
X209498Y156187D01*
X209810Y156499D01*
X210748Y156812D01*
X224810D01*
X226060Y156499D01*
D02*
G37*
G36*
X530744Y155562D02*
X531056Y154937D01*
Y150874D01*
Y150562D01*
X530744Y149937D01*
X530432Y149312D01*
X529494Y148999D01*
X512307D01*
X511994Y148687D01*
Y148375D01*
Y135250D01*
X512307D01*
X512619Y134937D01*
X529494D01*
X529807Y134625D01*
X530119Y134312D01*
X530432Y133375D01*
Y129312D01*
Y129000D01*
Y128687D01*
X529807Y128375D01*
X529182Y128062D01*
X512619D01*
X512307Y127750D01*
X511994Y127437D01*
X511369Y112437D01*
Y112125D01*
X511682Y111812D01*
X511994Y111500D01*
X512307Y111812D01*
X530432D01*
X531056Y111500D01*
X531681Y111187D01*
X531994Y110250D01*
Y105875D01*
Y105562D01*
X531681Y105250D01*
X531369Y104937D01*
X530119Y104625D01*
X505744D01*
X505119Y104937D01*
X504494Y105250D01*
X504182Y105875D01*
Y154937D01*
Y155249D01*
X504494Y155562D01*
X505119Y155874D01*
X506057Y156187D01*
X530432D01*
X530744Y155562D01*
D02*
G37*
G36*
X486370D02*
X486682Y154937D01*
Y150874D01*
Y150562D01*
X486370Y149937D01*
X486057Y149312D01*
X485120Y148999D01*
X474495D01*
X474182Y148687D01*
X473870Y148375D01*
Y147750D01*
Y146812D01*
Y144937D01*
Y142437D01*
Y138687D01*
Y136187D01*
Y133687D01*
Y130875D01*
Y127437D01*
Y105875D01*
Y105562D01*
X473557Y105250D01*
X473245Y104937D01*
X472307Y104625D01*
X468245D01*
X467932Y104937D01*
X467307Y105250D01*
X466995Y105875D01*
Y148375D01*
Y148687D01*
X466682Y148999D01*
X456370D01*
X456057Y149312D01*
X455745Y149937D01*
X455432Y150874D01*
Y154937D01*
Y155249D01*
X455745Y155562D01*
X456057Y155874D01*
X456682Y156187D01*
X486057D01*
X486370Y155562D01*
D02*
G37*
G36*
X428870Y155874D02*
X429495Y155249D01*
X443245Y105875D01*
X442933Y105250D01*
X442620Y104937D01*
X441683Y104625D01*
X437308D01*
X436370Y104937D01*
X435745Y105562D01*
X432308Y116812D01*
Y117125D01*
X431995Y117437D01*
X431683Y117750D01*
X418558D01*
X417933Y117437D01*
X417308Y116812D01*
X414495Y105562D01*
X414183Y105250D01*
X413870Y104937D01*
X412933Y104625D01*
X408245D01*
X407933Y104937D01*
X407308Y105250D01*
X406996Y105875D01*
X421058Y155249D01*
Y155562D01*
X421370Y155874D01*
X421683Y156187D01*
X428558D01*
X428870Y155874D01*
D02*
G37*
G36*
X389496Y155562D02*
X389808Y154937D01*
Y150874D01*
Y150562D01*
Y149937D01*
X389183Y149312D01*
X388558Y148999D01*
X370746D01*
X369808Y148375D01*
Y135250D01*
X370121Y134937D01*
X387308D01*
X387933Y134625D01*
X388246Y134312D01*
X388558Y133375D01*
Y129312D01*
Y129000D01*
X388246Y128687D01*
X387933Y128375D01*
X386996Y128062D01*
X370433D01*
X370121Y127750D01*
X369808Y127437D01*
Y112437D01*
X370746D01*
Y112125D01*
Y111812D01*
X371058Y111500D01*
X371371Y111812D01*
X389183D01*
X389808Y111500D01*
X390121Y111187D01*
X390433Y110250D01*
Y105875D01*
Y105562D01*
X390121Y105250D01*
X389808Y104937D01*
X388871Y104625D01*
X364184D01*
X363871Y104937D01*
X363246Y105250D01*
X362934Y105875D01*
Y154937D01*
Y155249D01*
X363246Y155562D01*
X363559Y155874D01*
X364496Y156187D01*
X389183D01*
X389496Y155562D01*
D02*
G37*
G36*
X187936D02*
X188248Y154937D01*
Y150874D01*
Y150562D01*
X187936Y149937D01*
X187623Y149312D01*
X186686Y148999D01*
X169186D01*
X168248Y148375D01*
Y135250D01*
X168561Y134937D01*
X185748D01*
X186061Y134625D01*
X186373Y134312D01*
X186686Y133375D01*
Y129312D01*
Y129000D01*
Y128687D01*
X186061Y128375D01*
X185436Y128062D01*
X168873D01*
X167623Y127437D01*
Y112437D01*
X168873D01*
Y112125D01*
Y111812D01*
Y111500D01*
X169186Y111812D01*
X186998D01*
X187623Y111500D01*
X187936Y111187D01*
X188248Y110250D01*
Y105875D01*
Y105562D01*
X187936Y105250D01*
X187623Y104937D01*
X186686Y104625D01*
X162623D01*
X162311Y104937D01*
X161686Y105250D01*
X161373Y105875D01*
Y154937D01*
Y155249D01*
X161686Y155562D01*
X161998Y155874D01*
X162936Y156187D01*
X187623D01*
X187936Y155562D01*
D02*
G37*
G36*
X142624D02*
X142936Y154937D01*
Y150874D01*
Y150562D01*
X142624Y149937D01*
X142311Y149312D01*
X141374Y148999D01*
X130436D01*
Y148687D01*
X130749D01*
Y148375D01*
Y147750D01*
Y146812D01*
Y144937D01*
Y142437D01*
Y138687D01*
Y136187D01*
Y133687D01*
Y130875D01*
Y127437D01*
Y105875D01*
Y105562D01*
X130436Y105250D01*
X130124Y104937D01*
X129186Y104625D01*
X124499D01*
X124186Y104937D01*
X123561Y105250D01*
X123249Y105875D01*
Y148375D01*
Y148687D01*
Y148999D01*
X113249D01*
X112624Y149312D01*
X111999Y149937D01*
X111686Y150874D01*
Y154937D01*
Y155249D01*
X111999Y155562D01*
X112624Y155874D01*
X113561Y156187D01*
X142311D01*
X142624Y155562D01*
D02*
G37*
G36*
X38562D02*
X38875Y154937D01*
Y105875D01*
Y105562D01*
X38562Y105250D01*
X38250Y104937D01*
X37312Y104625D01*
X33250D01*
X32625Y104937D01*
X32000Y105250D01*
Y105875D01*
Y154937D01*
Y155249D01*
Y155562D01*
X32625Y155874D01*
X33563Y156187D01*
X38250D01*
X38562Y155562D01*
D02*
G37*
G36*
X305132Y58635D02*
X305235Y58626D01*
X305347Y58607D01*
X305469Y58588D01*
X305610Y58569D01*
X305900Y58485D01*
X306060Y58438D01*
X306210Y58373D01*
X306369Y58307D01*
X306519Y58213D01*
X306669Y58120D01*
X306810Y58007D01*
X306819Y57998D01*
X306838Y57979D01*
X306875Y57941D01*
X306922Y57895D01*
X306978Y57829D01*
X307044Y57745D01*
X307119Y57651D01*
X307194Y57548D01*
X307269Y57435D01*
X307344Y57295D01*
X307409Y57154D01*
X307484Y56995D01*
X307550Y56826D01*
X307597Y56648D01*
X307644Y56461D01*
X307681Y56254D01*
X306509Y56161D01*
Y56170D01*
X306500Y56189D01*
X306491Y56226D01*
X306481Y56273D01*
X306463Y56329D01*
X306444Y56395D01*
X306397Y56545D01*
X306332Y56714D01*
X306257Y56882D01*
X306163Y57042D01*
X306060Y57173D01*
X306050Y57182D01*
X306041Y57192D01*
X306013Y57220D01*
X305975Y57248D01*
X305928Y57295D01*
X305872Y57332D01*
X305732Y57426D01*
X305563Y57520D01*
X305357Y57604D01*
X305132Y57660D01*
X305010Y57670D01*
X304879Y57679D01*
X304785D01*
X304682Y57660D01*
X304541Y57642D01*
X304391Y57604D01*
X304223Y57548D01*
X304054Y57463D01*
X303885Y57360D01*
X303876D01*
X303857Y57342D01*
X303829Y57323D01*
X303792Y57285D01*
X303698Y57192D01*
X303567Y57060D01*
X303426Y56892D01*
X303276Y56686D01*
X303135Y56451D01*
X303004Y56170D01*
Y56161D01*
X302995Y56133D01*
X302976Y56086D01*
X302957Y56030D01*
X302929Y55945D01*
X302901Y55851D01*
X302873Y55729D01*
X302845Y55598D01*
X302817Y55448D01*
X302789Y55289D01*
X302761Y55102D01*
X302732Y54905D01*
X302714Y54689D01*
X302695Y54455D01*
X302686Y54211D01*
X302676Y53949D01*
X302686Y53958D01*
X302695Y53977D01*
X302723Y54014D01*
X302751Y54052D01*
X302789Y54108D01*
X302845Y54174D01*
X302967Y54314D01*
X303117Y54474D01*
X303295Y54633D01*
X303492Y54783D01*
X303717Y54914D01*
X303726D01*
X303745Y54924D01*
X303782Y54942D01*
X303820Y54961D01*
X303885Y54989D01*
X303951Y55017D01*
X304026Y55045D01*
X304110Y55073D01*
X304307Y55130D01*
X304523Y55186D01*
X304757Y55223D01*
X305010Y55233D01*
X305066D01*
X305122Y55223D01*
X305207D01*
X305310Y55205D01*
X305432Y55186D01*
X305563Y55158D01*
X305704Y55120D01*
X305854Y55073D01*
X306022Y55017D01*
X306182Y54952D01*
X306350Y54867D01*
X306528Y54764D01*
X306697Y54652D01*
X306856Y54511D01*
X307016Y54361D01*
X307025Y54352D01*
X307053Y54324D01*
X307091Y54267D01*
X307147Y54202D01*
X307213Y54117D01*
X307278Y54014D01*
X307353Y53892D01*
X307437Y53752D01*
X307512Y53602D01*
X307587Y53433D01*
X307653Y53246D01*
X307719Y53049D01*
X307775Y52833D01*
X307812Y52608D01*
X307840Y52374D01*
X307850Y52121D01*
Y52112D01*
Y52084D01*
Y52037D01*
X307840Y51971D01*
Y51887D01*
X307831Y51793D01*
X307822Y51690D01*
X307803Y51568D01*
X307756Y51306D01*
X307681Y51024D01*
X307587Y50734D01*
X307456Y50434D01*
Y50425D01*
X307437Y50396D01*
X307419Y50359D01*
X307381Y50312D01*
X307344Y50247D01*
X307297Y50172D01*
X307175Y50003D01*
X307016Y49806D01*
X306838Y49609D01*
X306622Y49422D01*
X306378Y49253D01*
X306369D01*
X306350Y49234D01*
X306313Y49216D01*
X306257Y49187D01*
X306191Y49159D01*
X306116Y49122D01*
X306031Y49084D01*
X305928Y49047D01*
X305825Y49009D01*
X305704Y48972D01*
X305441Y48906D01*
X305151Y48859D01*
X304991Y48850D01*
X304832Y48841D01*
X304766D01*
X304691Y48850D01*
X304588Y48859D01*
X304466Y48878D01*
X304316Y48897D01*
X304157Y48934D01*
X303979Y48972D01*
X303792Y49028D01*
X303604Y49103D01*
X303398Y49187D01*
X303201Y49300D01*
X302995Y49422D01*
X302798Y49562D01*
X302610Y49731D01*
X302432Y49918D01*
X302423Y49928D01*
X302395Y49975D01*
X302348Y50031D01*
X302292Y50125D01*
X302217Y50247D01*
X302142Y50396D01*
X302058Y50565D01*
X301973Y50771D01*
X301880Y51006D01*
X301795Y51268D01*
X301720Y51559D01*
X301654Y51887D01*
X301589Y52234D01*
X301542Y52627D01*
X301514Y53040D01*
X301505Y53489D01*
Y53499D01*
Y53518D01*
Y53555D01*
Y53611D01*
Y53677D01*
X301514Y53752D01*
Y53846D01*
X301523Y53949D01*
Y54052D01*
X301533Y54174D01*
X301561Y54436D01*
X301589Y54727D01*
X301636Y55036D01*
X301683Y55364D01*
X301758Y55701D01*
X301833Y56039D01*
X301936Y56376D01*
X302048Y56695D01*
X302189Y57004D01*
X302348Y57285D01*
X302526Y57538D01*
X302536Y57548D01*
X302564Y57585D01*
X302620Y57642D01*
X302695Y57707D01*
X302779Y57792D01*
X302892Y57885D01*
X303023Y57988D01*
X303164Y58091D01*
X303332Y58194D01*
X303510Y58298D01*
X303707Y58391D01*
X303923Y58476D01*
X304157Y58541D01*
X304401Y58597D01*
X304663Y58635D01*
X304944Y58644D01*
X305057D01*
X305132Y58635D01*
D02*
G37*
G36*
X298533Y49000D02*
X297353D01*
Y56508D01*
X297343D01*
X297334Y56489D01*
X297306Y56470D01*
X297278Y56442D01*
X297184Y56357D01*
X297053Y56254D01*
X296893Y56133D01*
X296696Y55992D01*
X296472Y55842D01*
X296228Y55692D01*
X296218D01*
X296200Y55673D01*
X296162Y55655D01*
X296115Y55626D01*
X296050Y55589D01*
X295984Y55552D01*
X295815Y55467D01*
X295628Y55373D01*
X295422Y55270D01*
X295206Y55177D01*
X295000Y55092D01*
Y56226D01*
X295009Y56236D01*
X295047Y56245D01*
X295094Y56273D01*
X295169Y56311D01*
X295253Y56357D01*
X295347Y56414D01*
X295459Y56470D01*
X295581Y56545D01*
X295853Y56704D01*
X296143Y56901D01*
X296434Y57117D01*
X296725Y57351D01*
X296734Y57360D01*
X296753Y57379D01*
X296800Y57417D01*
X296846Y57463D01*
X296903Y57529D01*
X296978Y57595D01*
X297053Y57679D01*
X297137Y57763D01*
X297306Y57960D01*
X297474Y58176D01*
X297634Y58410D01*
X297709Y58523D01*
X297765Y58644D01*
X298533D01*
Y49000D01*
D02*
G37*
G36*
X209320Y238664D02*
X210613D01*
Y237586D01*
X209320D01*
Y235290D01*
X208139D01*
Y237586D01*
X203968D01*
Y238664D01*
X208354Y244897D01*
X209320D01*
Y238664D01*
D02*
G37*
G36*
X207640Y185725D02*
X207715D01*
X207790Y185715D01*
X207883Y185706D01*
X207987Y185697D01*
X208211Y185650D01*
X208446Y185593D01*
X208699Y185509D01*
X208952Y185397D01*
X208961D01*
X208980Y185378D01*
X209018Y185359D01*
X209065Y185331D01*
X209121Y185303D01*
X209177Y185256D01*
X209327Y185153D01*
X209496Y185022D01*
X209664Y184862D01*
X209824Y184675D01*
X209964Y184469D01*
Y184459D01*
X209983Y184441D01*
X210002Y184413D01*
X210021Y184366D01*
X210049Y184319D01*
X210077Y184253D01*
X210142Y184094D01*
X210208Y183916D01*
X210264Y183700D01*
X210302Y183475D01*
X210320Y183232D01*
Y183222D01*
Y183204D01*
Y183175D01*
X210311Y183129D01*
Y183072D01*
X210302Y183007D01*
X210283Y182857D01*
X210236Y182679D01*
X210180Y182491D01*
X210095Y182294D01*
X209983Y182097D01*
Y182088D01*
X209964Y182079D01*
X209946Y182051D01*
X209917Y182013D01*
X209842Y181919D01*
X209730Y181807D01*
X209589Y181676D01*
X209421Y181544D01*
X209224Y181413D01*
X208990Y181292D01*
X208999D01*
X209027Y181282D01*
X209074Y181273D01*
X209130Y181254D01*
X209205Y181226D01*
X209280Y181198D01*
X209477Y181113D01*
X209683Y181010D01*
X209908Y180860D01*
X210124Y180692D01*
X210217Y180588D01*
X210311Y180476D01*
X210320Y180467D01*
X210330Y180448D01*
X210358Y180410D01*
X210386Y180364D01*
X210424Y180307D01*
X210461Y180232D01*
X210508Y180148D01*
X210555Y180054D01*
X210592Y179942D01*
X210639Y179829D01*
X210676Y179698D01*
X210714Y179567D01*
X210770Y179267D01*
X210780Y179098D01*
X210789Y178930D01*
Y178920D01*
Y178873D01*
X210780Y178808D01*
Y178723D01*
X210761Y178611D01*
X210742Y178489D01*
X210714Y178349D01*
X210676Y178189D01*
X210630Y178030D01*
X210564Y177861D01*
X210489Y177683D01*
X210405Y177505D01*
X210292Y177327D01*
X210170Y177139D01*
X210030Y176971D01*
X209870Y176802D01*
X209861Y176793D01*
X209833Y176765D01*
X209777Y176718D01*
X209702Y176671D01*
X209617Y176596D01*
X209505Y176530D01*
X209383Y176446D01*
X209233Y176371D01*
X209074Y176287D01*
X208896Y176202D01*
X208708Y176137D01*
X208502Y176071D01*
X208286Y176015D01*
X208052Y175968D01*
X207808Y175940D01*
X207546Y175930D01*
X207490D01*
X207424Y175940D01*
X207340D01*
X207227Y175949D01*
X207106Y175968D01*
X206965Y175996D01*
X206806Y176024D01*
X206646Y176062D01*
X206478Y176118D01*
X206299Y176174D01*
X206131Y176249D01*
X205953Y176333D01*
X205775Y176437D01*
X205606Y176549D01*
X205447Y176680D01*
X205437Y176689D01*
X205409Y176718D01*
X205372Y176755D01*
X205315Y176821D01*
X205250Y176896D01*
X205175Y176980D01*
X205100Y177083D01*
X205016Y177205D01*
X204931Y177336D01*
X204847Y177486D01*
X204772Y177645D01*
X204697Y177824D01*
X204631Y178011D01*
X204575Y178208D01*
X204528Y178414D01*
X204500Y178639D01*
X205681Y178798D01*
Y178789D01*
X205690Y178752D01*
X205700Y178705D01*
X205718Y178630D01*
X205737Y178555D01*
X205765Y178452D01*
X205803Y178349D01*
X205840Y178236D01*
X205934Y178002D01*
X206056Y177758D01*
X206196Y177533D01*
X206281Y177439D01*
X206365Y177346D01*
X206374D01*
X206384Y177327D01*
X206412Y177308D01*
X206450Y177280D01*
X206496Y177243D01*
X206553Y177205D01*
X206693Y177130D01*
X206871Y177046D01*
X207078Y176971D01*
X207302Y176924D01*
X207424Y176915D01*
X207556Y176905D01*
X207640D01*
X207696Y176915D01*
X207771Y176924D01*
X207846Y176933D01*
X207940Y176952D01*
X208043Y176980D01*
X208268Y177046D01*
X208380Y177093D01*
X208502Y177149D01*
X208624Y177214D01*
X208736Y177289D01*
X208849Y177374D01*
X208961Y177477D01*
X208971Y177486D01*
X208990Y177505D01*
X209018Y177533D01*
X209055Y177580D01*
X209093Y177636D01*
X209139Y177702D01*
X209196Y177777D01*
X209252Y177871D01*
X209299Y177964D01*
X209355Y178077D01*
X209449Y178320D01*
X209477Y178452D01*
X209505Y178592D01*
X209524Y178742D01*
X209533Y178902D01*
Y178911D01*
Y178939D01*
Y178976D01*
X209524Y179042D01*
X209514Y179108D01*
X209505Y179192D01*
X209486Y179276D01*
X209468Y179380D01*
X209402Y179586D01*
X209364Y179698D01*
X209308Y179811D01*
X209242Y179923D01*
X209177Y180036D01*
X209093Y180139D01*
X208999Y180242D01*
X208990Y180251D01*
X208971Y180261D01*
X208943Y180289D01*
X208905Y180326D01*
X208849Y180364D01*
X208783Y180410D01*
X208718Y180457D01*
X208633Y180504D01*
X208540Y180551D01*
X208437Y180598D01*
X208202Y180682D01*
X207940Y180748D01*
X207799Y180757D01*
X207649Y180767D01*
X207593D01*
X207518Y180757D01*
X207424Y180748D01*
X207302Y180739D01*
X207162Y180720D01*
X207003Y180682D01*
X206824Y180645D01*
X206956Y181676D01*
X206974D01*
X207021Y181666D01*
X207087Y181657D01*
X207218D01*
X207274Y181666D01*
X207340D01*
X207415Y181676D01*
X207499Y181695D01*
X207593Y181704D01*
X207808Y181751D01*
X208034Y181826D01*
X208268Y181919D01*
X208502Y182051D01*
X208512Y182060D01*
X208530Y182069D01*
X208558Y182088D01*
X208596Y182126D01*
X208643Y182163D01*
X208699Y182219D01*
X208746Y182276D01*
X208811Y182351D01*
X208868Y182426D01*
X208915Y182519D01*
X208971Y182622D01*
X209018Y182726D01*
X209055Y182847D01*
X209083Y182979D01*
X209102Y183110D01*
X209111Y183260D01*
Y183269D01*
Y183288D01*
Y183325D01*
X209102Y183372D01*
Y183428D01*
X209093Y183494D01*
X209055Y183644D01*
X209008Y183813D01*
X208924Y183991D01*
X208821Y184169D01*
X208746Y184253D01*
X208671Y184338D01*
X208661Y184347D01*
X208652Y184356D01*
X208624Y184375D01*
X208596Y184403D01*
X208493Y184478D01*
X208361Y184553D01*
X208202Y184628D01*
X208005Y184703D01*
X207780Y184750D01*
X207668Y184769D01*
X207471D01*
X207424Y184759D01*
X207359D01*
X207293Y184750D01*
X207134Y184713D01*
X206946Y184666D01*
X206759Y184581D01*
X206562Y184478D01*
X206468Y184403D01*
X206384Y184328D01*
X206374Y184319D01*
X206365Y184310D01*
X206337Y184281D01*
X206309Y184244D01*
X206271Y184206D01*
X206234Y184150D01*
X206187Y184084D01*
X206140Y184009D01*
X206093Y183916D01*
X206037Y183822D01*
X205990Y183719D01*
X205943Y183597D01*
X205906Y183475D01*
X205859Y183335D01*
X205831Y183194D01*
X205803Y183035D01*
X204622Y183241D01*
Y183250D01*
X204631Y183297D01*
X204650Y183354D01*
X204669Y183438D01*
X204697Y183531D01*
X204734Y183653D01*
X204772Y183775D01*
X204828Y183916D01*
X204884Y184056D01*
X204959Y184206D01*
X205034Y184366D01*
X205128Y184516D01*
X205222Y184666D01*
X205334Y184816D01*
X205465Y184947D01*
X205597Y185078D01*
X205606Y185087D01*
X205634Y185106D01*
X205672Y185134D01*
X205737Y185181D01*
X205812Y185228D01*
X205896Y185284D01*
X206009Y185350D01*
X206122Y185406D01*
X206253Y185472D01*
X206403Y185528D01*
X206562Y185584D01*
X206731Y185631D01*
X206909Y185678D01*
X207096Y185706D01*
X207302Y185725D01*
X207509Y185734D01*
X207584D01*
X207640Y185725D01*
D02*
G37*
G36*
X182652Y244925D02*
X182755D01*
X182867Y244916D01*
X182998Y244897D01*
X183148Y244869D01*
X183317Y244841D01*
X183486Y244794D01*
X183664Y244747D01*
X183851Y244681D01*
X184029Y244606D01*
X184217Y244522D01*
X184385Y244419D01*
X184554Y244297D01*
X184713Y244166D01*
X184723Y244156D01*
X184751Y244128D01*
X184788Y244091D01*
X184835Y244025D01*
X184901Y243950D01*
X184967Y243866D01*
X185042Y243763D01*
X185117Y243641D01*
X185191Y243510D01*
X185266Y243360D01*
X185332Y243210D01*
X185398Y243041D01*
X185445Y242863D01*
X185482Y242666D01*
X185510Y242469D01*
X185520Y242263D01*
Y242254D01*
Y242235D01*
Y242207D01*
Y242169D01*
X185510Y242113D01*
Y242057D01*
X185491Y241907D01*
X185463Y241738D01*
X185416Y241542D01*
X185360Y241335D01*
X185276Y241129D01*
Y241120D01*
X185266Y241101D01*
X185248Y241073D01*
X185229Y241035D01*
X185201Y240979D01*
X185173Y240923D01*
X185088Y240773D01*
X184985Y240604D01*
X184845Y240398D01*
X184685Y240182D01*
X184489Y239958D01*
X184479Y239948D01*
X184460Y239929D01*
X184432Y239892D01*
X184385Y239845D01*
X184320Y239779D01*
X184254Y239704D01*
X184160Y239620D01*
X184057Y239517D01*
X183945Y239405D01*
X183804Y239273D01*
X183664Y239133D01*
X183495Y238983D01*
X183317Y238824D01*
X183120Y238645D01*
X182905Y238467D01*
X182680Y238270D01*
X182670Y238261D01*
X182633Y238233D01*
X182577Y238186D01*
X182511Y238130D01*
X182427Y238055D01*
X182333Y237971D01*
X182108Y237783D01*
X181883Y237586D01*
X181658Y237390D01*
X181555Y237296D01*
X181461Y237202D01*
X181377Y237127D01*
X181311Y237061D01*
X181302Y237052D01*
X181264Y237005D01*
X181208Y236940D01*
X181133Y236865D01*
X181058Y236761D01*
X180974Y236658D01*
X180889Y236546D01*
X180814Y236424D01*
X185529D01*
Y235290D01*
X179184D01*
Y235299D01*
Y235309D01*
Y235365D01*
Y235440D01*
X179193Y235552D01*
X179212Y235674D01*
X179230Y235815D01*
X179268Y235956D01*
X179315Y236105D01*
Y236115D01*
X179324Y236133D01*
X179343Y236171D01*
X179362Y236218D01*
X179390Y236274D01*
X179418Y236340D01*
X179502Y236508D01*
X179615Y236705D01*
X179746Y236921D01*
X179905Y237146D01*
X180093Y237380D01*
X180102Y237390D01*
X180121Y237408D01*
X180149Y237446D01*
X180196Y237493D01*
X180252Y237549D01*
X180318Y237624D01*
X180393Y237708D01*
X180486Y237802D01*
X180590Y237896D01*
X180702Y238008D01*
X180833Y238130D01*
X180964Y238261D01*
X181114Y238392D01*
X181274Y238533D01*
X181452Y238683D01*
X181630Y238833D01*
X181649Y238852D01*
X181695Y238889D01*
X181780Y238955D01*
X181883Y239048D01*
X182014Y239151D01*
X182155Y239283D01*
X182314Y239423D01*
X182483Y239573D01*
X182839Y239901D01*
X183186Y240239D01*
X183345Y240407D01*
X183495Y240576D01*
X183636Y240726D01*
X183748Y240876D01*
X183757Y240885D01*
X183776Y240914D01*
X183804Y240951D01*
X183832Y241007D01*
X183879Y241073D01*
X183926Y241148D01*
X183973Y241242D01*
X184029Y241335D01*
X184132Y241551D01*
X184226Y241785D01*
X184254Y241916D01*
X184282Y242038D01*
X184301Y242169D01*
X184310Y242291D01*
Y242301D01*
Y242320D01*
Y242357D01*
X184301Y242413D01*
X184292Y242469D01*
X184282Y242535D01*
X184245Y242704D01*
X184189Y242891D01*
X184095Y243088D01*
X184039Y243182D01*
X183973Y243285D01*
X183898Y243379D01*
X183804Y243472D01*
X183795Y243482D01*
X183786Y243491D01*
X183748Y243519D01*
X183711Y243547D01*
X183664Y243585D01*
X183598Y243622D01*
X183533Y243669D01*
X183448Y243716D01*
X183364Y243763D01*
X183261Y243810D01*
X183036Y243885D01*
X182783Y243941D01*
X182642Y243950D01*
X182492Y243960D01*
X182408D01*
X182352Y243950D01*
X182277Y243941D01*
X182192Y243932D01*
X182099Y243913D01*
X182005Y243894D01*
X181780Y243838D01*
X181555Y243744D01*
X181442Y243688D01*
X181330Y243613D01*
X181227Y243538D01*
X181124Y243444D01*
X181114Y243435D01*
X181105Y243425D01*
X181077Y243388D01*
X181049Y243350D01*
X181011Y243304D01*
X180964Y243238D01*
X180918Y243163D01*
X180871Y243079D01*
X180824Y242985D01*
X180777Y242882D01*
X180739Y242760D01*
X180693Y242638D01*
X180665Y242507D01*
X180636Y242357D01*
X180627Y242207D01*
X180618Y242038D01*
X179409Y242160D01*
Y242179D01*
X179418Y242216D01*
X179427Y242291D01*
X179437Y242385D01*
X179465Y242498D01*
X179493Y242629D01*
X179530Y242769D01*
X179568Y242929D01*
X179624Y243088D01*
X179690Y243257D01*
X179765Y243425D01*
X179849Y243603D01*
X179952Y243772D01*
X180065Y243932D01*
X180196Y244081D01*
X180336Y244222D01*
X180346Y244231D01*
X180374Y244250D01*
X180421Y244288D01*
X180486Y244335D01*
X180571Y244391D01*
X180665Y244447D01*
X180786Y244513D01*
X180918Y244578D01*
X181068Y244644D01*
X181227Y244709D01*
X181405Y244766D01*
X181602Y244822D01*
X181808Y244869D01*
X182033Y244906D01*
X182267Y244925D01*
X182520Y244934D01*
X182586D01*
X182652Y244925D01*
D02*
G37*
G36*
X415937Y34697D02*
X416062Y34685D01*
X416187Y34673D01*
X416337Y34648D01*
X416500Y34610D01*
X416837Y34523D01*
X417012Y34460D01*
X417200Y34385D01*
X417362Y34298D01*
X417537Y34185D01*
X417687Y34073D01*
X417837Y33935D01*
X417850Y33923D01*
X417874Y33898D01*
X417912Y33860D01*
X417949Y33798D01*
X418012Y33710D01*
X418074Y33610D01*
X418137Y33498D01*
X418212Y33360D01*
X418287Y33198D01*
X418349Y33023D01*
X418412Y32836D01*
X418474Y32623D01*
X418512Y32398D01*
X418549Y32148D01*
X418574Y31873D01*
X418587Y31586D01*
Y25212D01*
X417012D01*
Y31061D01*
Y31073D01*
Y31098D01*
Y31148D01*
Y31211D01*
Y31286D01*
X417000Y31386D01*
X416987Y31586D01*
X416975Y31798D01*
X416950Y32023D01*
X416900Y32236D01*
X416850Y32411D01*
X416837Y32436D01*
X416825Y32486D01*
X416787Y32561D01*
X416725Y32661D01*
X416650Y32761D01*
X416550Y32873D01*
X416437Y32985D01*
X416300Y33085D01*
X416287Y33098D01*
X416225Y33123D01*
X416150Y33173D01*
X416037Y33223D01*
X415900Y33260D01*
X415737Y33310D01*
X415563Y33335D01*
X415363Y33348D01*
X415263D01*
X415200Y33335D01*
X415113Y33323D01*
X415013Y33310D01*
X414788Y33260D01*
X414525Y33185D01*
X414250Y33073D01*
X414113Y32998D01*
X413988Y32910D01*
X413851Y32798D01*
X413726Y32685D01*
X413713Y32673D01*
X413700Y32661D01*
X413663Y32611D01*
X413625Y32561D01*
X413576Y32486D01*
X413526Y32411D01*
X413463Y32298D01*
X413413Y32186D01*
X413351Y32048D01*
X413288Y31886D01*
X413238Y31723D01*
X413188Y31536D01*
X413151Y31323D01*
X413113Y31098D01*
X413101Y30861D01*
X413088Y30599D01*
Y25212D01*
X411514D01*
Y31248D01*
Y31261D01*
Y31298D01*
Y31348D01*
Y31423D01*
X411501Y31511D01*
X411489Y31611D01*
X411464Y31836D01*
X411414Y32098D01*
X411351Y32361D01*
X411251Y32611D01*
X411126Y32823D01*
X411114Y32848D01*
X411051Y32910D01*
X410964Y32985D01*
X410826Y33085D01*
X410651Y33185D01*
X410439Y33260D01*
X410176Y33323D01*
X409877Y33348D01*
X409764D01*
X409639Y33335D01*
X409477Y33310D01*
X409289Y33260D01*
X409077Y33198D01*
X408852Y33110D01*
X408639Y32998D01*
X408614Y32985D01*
X408552Y32936D01*
X408452Y32848D01*
X408327Y32736D01*
X408189Y32598D01*
X408064Y32423D01*
X407939Y32211D01*
X407827Y31973D01*
Y31961D01*
X407814Y31948D01*
X407802Y31898D01*
X407789Y31848D01*
X407765Y31773D01*
X407752Y31698D01*
X407727Y31598D01*
X407702Y31473D01*
X407677Y31348D01*
X407652Y31198D01*
X407640Y31036D01*
X407615Y30861D01*
X407602Y30673D01*
X407590Y30474D01*
X407577Y30261D01*
Y30024D01*
Y25212D01*
X406003D01*
Y34498D01*
X407415D01*
Y33210D01*
X407440Y33223D01*
X407465Y33260D01*
X407490Y33310D01*
X407590Y33435D01*
X407727Y33585D01*
X407890Y33760D01*
X408089Y33948D01*
X408314Y34123D01*
X408577Y34285D01*
X408589D01*
X408614Y34298D01*
X408652Y34323D01*
X408702Y34348D01*
X408777Y34385D01*
X408852Y34423D01*
X409052Y34498D01*
X409302Y34573D01*
X409577Y34648D01*
X409889Y34697D01*
X410226Y34710D01*
X410326D01*
X410401Y34697D01*
X410489D01*
X410589Y34685D01*
X410826Y34660D01*
X411089Y34597D01*
X411376Y34523D01*
X411651Y34423D01*
X411913Y34273D01*
X411926D01*
X411939Y34248D01*
X412026Y34198D01*
X412138Y34098D01*
X412276Y33960D01*
X412426Y33798D01*
X412588Y33598D01*
X412726Y33360D01*
X412838Y33085D01*
X412851Y33098D01*
X412888Y33160D01*
X412951Y33235D01*
X413038Y33335D01*
X413151Y33460D01*
X413288Y33598D01*
X413438Y33748D01*
X413613Y33898D01*
X413813Y34048D01*
X414025Y34198D01*
X414263Y34335D01*
X414525Y34460D01*
X414788Y34560D01*
X415088Y34635D01*
X415388Y34697D01*
X415713Y34710D01*
X415850D01*
X415937Y34697D01*
D02*
G37*
G36*
X401029D02*
X401154Y34685D01*
X401279Y34673D01*
X401429Y34648D01*
X401591Y34610D01*
X401928Y34523D01*
X402104Y34460D01*
X402291Y34385D01*
X402453Y34298D01*
X402628Y34185D01*
X402778Y34073D01*
X402928Y33935D01*
X402941Y33923D01*
X402966Y33898D01*
X403003Y33860D01*
X403041Y33798D01*
X403103Y33710D01*
X403166Y33610D01*
X403228Y33498D01*
X403303Y33360D01*
X403378Y33198D01*
X403441Y33023D01*
X403503Y32836D01*
X403566Y32623D01*
X403603Y32398D01*
X403641Y32148D01*
X403666Y31873D01*
X403678Y31586D01*
Y25212D01*
X402104D01*
Y31061D01*
Y31073D01*
Y31098D01*
Y31148D01*
Y31211D01*
Y31286D01*
X402091Y31386D01*
X402079Y31586D01*
X402066Y31798D01*
X402041Y32023D01*
X401991Y32236D01*
X401941Y32411D01*
X401928Y32436D01*
X401916Y32486D01*
X401879Y32561D01*
X401816Y32661D01*
X401741Y32761D01*
X401641Y32873D01*
X401529Y32985D01*
X401391Y33085D01*
X401379Y33098D01*
X401316Y33123D01*
X401241Y33173D01*
X401129Y33223D01*
X400991Y33260D01*
X400829Y33310D01*
X400654Y33335D01*
X400454Y33348D01*
X400354D01*
X400291Y33335D01*
X400204Y33323D01*
X400104Y33310D01*
X399879Y33260D01*
X399617Y33185D01*
X399342Y33073D01*
X399204Y32998D01*
X399079Y32910D01*
X398942Y32798D01*
X398817Y32685D01*
X398804Y32673D01*
X398792Y32661D01*
X398754Y32611D01*
X398717Y32561D01*
X398667Y32486D01*
X398617Y32411D01*
X398554Y32298D01*
X398504Y32186D01*
X398442Y32048D01*
X398379Y31886D01*
X398330Y31723D01*
X398279Y31536D01*
X398242Y31323D01*
X398204Y31098D01*
X398192Y30861D01*
X398180Y30599D01*
Y25212D01*
X396605D01*
Y31248D01*
Y31261D01*
Y31298D01*
Y31348D01*
Y31423D01*
X396592Y31511D01*
X396580Y31611D01*
X396555Y31836D01*
X396505Y32098D01*
X396442Y32361D01*
X396343Y32611D01*
X396217Y32823D01*
X396205Y32848D01*
X396143Y32910D01*
X396055Y32985D01*
X395918Y33085D01*
X395743Y33185D01*
X395530Y33260D01*
X395268Y33323D01*
X394968Y33348D01*
X394855D01*
X394730Y33335D01*
X394568Y33310D01*
X394380Y33260D01*
X394168Y33198D01*
X393943Y33110D01*
X393731Y32998D01*
X393706Y32985D01*
X393643Y32936D01*
X393543Y32848D01*
X393418Y32736D01*
X393281Y32598D01*
X393156Y32423D01*
X393031Y32211D01*
X392918Y31973D01*
Y31961D01*
X392906Y31948D01*
X392893Y31898D01*
X392881Y31848D01*
X392856Y31773D01*
X392843Y31698D01*
X392818Y31598D01*
X392793Y31473D01*
X392768Y31348D01*
X392743Y31198D01*
X392731Y31036D01*
X392706Y30861D01*
X392693Y30673D01*
X392681Y30474D01*
X392668Y30261D01*
Y30024D01*
Y25212D01*
X391094D01*
Y34498D01*
X392506D01*
Y33210D01*
X392531Y33223D01*
X392556Y33260D01*
X392581Y33310D01*
X392681Y33435D01*
X392818Y33585D01*
X392981Y33760D01*
X393181Y33948D01*
X393406Y34123D01*
X393668Y34285D01*
X393681D01*
X393706Y34298D01*
X393743Y34323D01*
X393793Y34348D01*
X393868Y34385D01*
X393943Y34423D01*
X394143Y34498D01*
X394393Y34573D01*
X394668Y34648D01*
X394980Y34697D01*
X395318Y34710D01*
X395418D01*
X395493Y34697D01*
X395580D01*
X395680Y34685D01*
X395918Y34660D01*
X396180Y34597D01*
X396467Y34523D01*
X396742Y34423D01*
X397005Y34273D01*
X397017D01*
X397030Y34248D01*
X397117Y34198D01*
X397230Y34098D01*
X397367Y33960D01*
X397517Y33798D01*
X397680Y33598D01*
X397817Y33360D01*
X397930Y33085D01*
X397942Y33098D01*
X397980Y33160D01*
X398042Y33235D01*
X398130Y33335D01*
X398242Y33460D01*
X398379Y33598D01*
X398529Y33748D01*
X398704Y33898D01*
X398904Y34048D01*
X399117Y34198D01*
X399354Y34335D01*
X399617Y34460D01*
X399879Y34560D01*
X400179Y34635D01*
X400479Y34697D01*
X400804Y34710D01*
X400941D01*
X401029Y34697D01*
D02*
G37*
G36*
X430109Y29062D02*
X425273D01*
Y30649D01*
X430109D01*
Y29062D01*
D02*
G37*
G36*
X472073Y36510D02*
X467837D01*
Y25213D01*
X466137D01*
Y36510D01*
X461913D01*
Y38022D01*
X472073D01*
Y36510D01*
D02*
G37*
G36*
X442118Y38009D02*
X442268Y37997D01*
X442431Y37984D01*
X442593Y37972D01*
X442968Y37922D01*
X443368Y37859D01*
X443755Y37759D01*
X443930Y37697D01*
X444105Y37622D01*
X444118D01*
X444143Y37609D01*
X444193Y37584D01*
X444255Y37547D01*
X444330Y37509D01*
X444418Y37459D01*
X444618Y37322D01*
X444830Y37159D01*
X445067Y36947D01*
X445292Y36709D01*
X445492Y36422D01*
Y36410D01*
X445517Y36385D01*
X445542Y36347D01*
X445567Y36285D01*
X445617Y36210D01*
X445655Y36122D01*
X445755Y35910D01*
X445842Y35660D01*
X445930Y35372D01*
X445980Y35060D01*
X446005Y34735D01*
Y34722D01*
Y34697D01*
Y34660D01*
X445992Y34598D01*
Y34523D01*
X445980Y34435D01*
X445955Y34235D01*
X445892Y33998D01*
X445817Y33735D01*
X445705Y33460D01*
X445555Y33185D01*
Y33173D01*
X445530Y33148D01*
X445505Y33110D01*
X445467Y33061D01*
X445367Y32936D01*
X445217Y32773D01*
X445030Y32586D01*
X444793Y32386D01*
X444518Y32198D01*
X444205Y32023D01*
X444218D01*
X444255Y32011D01*
X444318Y31986D01*
X444393Y31961D01*
X444493Y31923D01*
X444605Y31873D01*
X444868Y31748D01*
X445155Y31586D01*
X445455Y31386D01*
X445742Y31136D01*
X445867Y30998D01*
X445992Y30849D01*
X446005Y30836D01*
X446017Y30811D01*
X446055Y30761D01*
X446092Y30699D01*
X446142Y30624D01*
X446192Y30536D01*
X446255Y30424D01*
X446317Y30299D01*
X446367Y30161D01*
X446430Y30024D01*
X446530Y29686D01*
X446605Y29324D01*
X446617Y29124D01*
X446630Y28911D01*
Y28899D01*
Y28874D01*
Y28824D01*
Y28762D01*
X446617Y28674D01*
X446605Y28587D01*
X446580Y28362D01*
X446530Y28112D01*
X446467Y27824D01*
X446367Y27537D01*
X446242Y27237D01*
Y27225D01*
X446230Y27199D01*
X446205Y27162D01*
X446180Y27112D01*
X446092Y26974D01*
X445980Y26800D01*
X445855Y26612D01*
X445692Y26412D01*
X445505Y26225D01*
X445305Y26050D01*
X445280Y26037D01*
X445205Y25987D01*
X445080Y25912D01*
X444917Y25812D01*
X444718Y25712D01*
X444468Y25612D01*
X444193Y25512D01*
X443893Y25425D01*
X443880D01*
X443855Y25412D01*
X443805Y25400D01*
X443743Y25387D01*
X443668Y25375D01*
X443568Y25362D01*
X443455Y25337D01*
X443318Y25325D01*
X443181Y25300D01*
X443018Y25275D01*
X442856Y25262D01*
X442668Y25250D01*
X442268Y25225D01*
X441831Y25213D01*
X436957Y25212D01*
Y38022D01*
X441993Y38022D01*
X442118Y38009D01*
D02*
G37*
G36*
X378410Y25212D02*
X376623D01*
Y26999D01*
X378410D01*
Y25212D01*
D02*
G37*
G36*
X371711D02*
X370137D01*
Y35222D01*
X370124D01*
X370112Y35197D01*
X370074Y35172D01*
X370037Y35135D01*
X369912Y35022D01*
X369737Y34885D01*
X369524Y34722D01*
X369262Y34535D01*
X368962Y34335D01*
X368637Y34135D01*
X368625D01*
X368600Y34110D01*
X368550Y34085D01*
X368487Y34048D01*
X368400Y33998D01*
X368312Y33948D01*
X368087Y33835D01*
X367837Y33710D01*
X367562Y33573D01*
X367275Y33448D01*
X367000Y33335D01*
Y34848D01*
X367012Y34860D01*
X367062Y34873D01*
X367125Y34910D01*
X367225Y34960D01*
X367337Y35022D01*
X367462Y35097D01*
X367612Y35172D01*
X367775Y35272D01*
X368137Y35485D01*
X368525Y35747D01*
X368912Y36035D01*
X369299Y36347D01*
X369312Y36360D01*
X369337Y36385D01*
X369399Y36435D01*
X369462Y36497D01*
X369537Y36584D01*
X369637Y36672D01*
X369737Y36785D01*
X369849Y36897D01*
X370074Y37159D01*
X370299Y37447D01*
X370512Y37759D01*
X370612Y37909D01*
X370686Y38072D01*
X371711D01*
Y25212D01*
D02*
G37*
G36*
X454878Y38234D02*
X455027Y38222D01*
X455215Y38197D01*
X455415Y38172D01*
X455640Y38147D01*
X455890Y38097D01*
X456140Y38034D01*
X456402Y37972D01*
X456677Y37884D01*
X456952Y37797D01*
X457227Y37672D01*
X457502Y37547D01*
X457777Y37397D01*
X457789Y37384D01*
X457839Y37359D01*
X457914Y37309D01*
X458014Y37247D01*
X458127Y37159D01*
X458264Y37047D01*
X458414Y36922D01*
X458589Y36785D01*
X458751Y36622D01*
X458939Y36447D01*
X459114Y36247D01*
X459301Y36035D01*
X459476Y35810D01*
X459639Y35560D01*
X459801Y35297D01*
X459951Y35022D01*
X459964Y35010D01*
X459989Y34960D01*
X460026Y34873D01*
X460064Y34760D01*
X460126Y34610D01*
X460189Y34448D01*
X460251Y34248D01*
X460326Y34023D01*
X460401Y33785D01*
X460463Y33523D01*
X460526Y33235D01*
X460588Y32936D01*
X460626Y32623D01*
X460663Y32298D01*
X460689Y31948D01*
X460701Y31598D01*
Y31573D01*
Y31511D01*
Y31411D01*
X460689Y31273D01*
X460676Y31098D01*
X460663Y30898D01*
X460639Y30674D01*
X460601Y30436D01*
X460564Y30174D01*
X460513Y29886D01*
X460451Y29599D01*
X460364Y29311D01*
X460276Y28999D01*
X460176Y28699D01*
X460051Y28399D01*
X459914Y28112D01*
X459901Y28099D01*
X459876Y28049D01*
X459826Y27962D01*
X459764Y27862D01*
X459689Y27737D01*
X459589Y27587D01*
X459476Y27424D01*
X459339Y27250D01*
X459189Y27062D01*
X459026Y26874D01*
X458839Y26675D01*
X458639Y26487D01*
X458427Y26300D01*
X458189Y26112D01*
X457939Y25950D01*
X457677Y25787D01*
X457664Y25775D01*
X457614Y25750D01*
X457539Y25712D01*
X457427Y25662D01*
X457289Y25600D01*
X457139Y25537D01*
X456952Y25462D01*
X456752Y25400D01*
X456527Y25325D01*
X456290Y25250D01*
X456027Y25187D01*
X455752Y25125D01*
X455477Y25075D01*
X455177Y25038D01*
X454878Y25013D01*
X454565Y25000D01*
X454390D01*
X454265Y25013D01*
X454103Y25025D01*
X453915Y25050D01*
X453715Y25075D01*
X453478Y25113D01*
X453240Y25150D01*
X452978Y25213D01*
X452715Y25275D01*
X452441Y25362D01*
X452153Y25462D01*
X451878Y25575D01*
X451603Y25712D01*
X451328Y25862D01*
X451316Y25875D01*
X451266Y25900D01*
X451191Y25950D01*
X451091Y26025D01*
X450979Y26112D01*
X450841Y26225D01*
X450691Y26350D01*
X450529Y26487D01*
X450354Y26650D01*
X450179Y26825D01*
X449991Y27025D01*
X449816Y27237D01*
X449641Y27462D01*
X449466Y27712D01*
X449316Y27974D01*
X449166Y28249D01*
X449154Y28262D01*
X449141Y28312D01*
X449104Y28399D01*
X449054Y28512D01*
X449004Y28649D01*
X448941Y28812D01*
X448867Y29011D01*
X448804Y29211D01*
X448741Y29449D01*
X448667Y29699D01*
X448604Y29961D01*
X448554Y30236D01*
X448504Y30524D01*
X448479Y30824D01*
X448454Y31136D01*
X448442Y31448D01*
Y31461D01*
Y31486D01*
Y31523D01*
Y31586D01*
X448454Y31661D01*
Y31761D01*
Y31861D01*
X448467Y31973D01*
X448492Y32248D01*
X448529Y32548D01*
X448592Y32898D01*
X448654Y33273D01*
X448741Y33660D01*
X448854Y34073D01*
X449004Y34485D01*
X449166Y34897D01*
X449366Y35310D01*
X449591Y35710D01*
X449854Y36085D01*
X450154Y36435D01*
X450179Y36460D01*
X450229Y36510D01*
X450329Y36597D01*
X450466Y36722D01*
X450629Y36860D01*
X450841Y37009D01*
X451078Y37172D01*
X451353Y37347D01*
X451653Y37509D01*
X451991Y37672D01*
X452353Y37822D01*
X452741Y37959D01*
X453165Y38084D01*
X453615Y38172D01*
X454078Y38222D01*
X454578Y38247D01*
X454753D01*
X454878Y38234D01*
D02*
G37*
G36*
X385145Y38059D02*
X385245Y38047D01*
X385370Y38034D01*
X385495Y38022D01*
X385770Y37972D01*
X386070Y37897D01*
X386382Y37784D01*
X386682Y37647D01*
X386695D01*
X386720Y37622D01*
X386757Y37609D01*
X386820Y37572D01*
X386957Y37472D01*
X387145Y37347D01*
X387345Y37172D01*
X387557Y36972D01*
X387770Y36722D01*
X387970Y36447D01*
Y36435D01*
X387995Y36410D01*
X388020Y36372D01*
X388057Y36310D01*
X388095Y36235D01*
X388145Y36147D01*
X388195Y36035D01*
X388257Y35922D01*
X388320Y35785D01*
X388382Y35647D01*
X388507Y35322D01*
X388644Y34948D01*
X388757Y34548D01*
Y34535D01*
X388769Y34498D01*
X388782Y34435D01*
X388807Y34348D01*
X388832Y34235D01*
X388857Y34098D01*
X388882Y33935D01*
X388907Y33748D01*
X388932Y33548D01*
X388957Y33310D01*
X388982Y33073D01*
X389007Y32798D01*
X389032Y32511D01*
X389044Y32198D01*
X389057Y31873D01*
Y31523D01*
Y31498D01*
Y31423D01*
Y31311D01*
X389044Y31148D01*
Y30961D01*
X389032Y30736D01*
X389019Y30499D01*
X388994Y30224D01*
X388969Y29936D01*
X388944Y29649D01*
X388857Y29037D01*
X388744Y28437D01*
X388669Y28162D01*
X388582Y27887D01*
Y27874D01*
X388557Y27824D01*
X388532Y27749D01*
X388494Y27662D01*
X388445Y27537D01*
X388382Y27412D01*
X388320Y27262D01*
X388232Y27099D01*
X388045Y26762D01*
X387807Y26400D01*
X387520Y26062D01*
X387357Y25900D01*
X387195Y25750D01*
X387182Y25737D01*
X387157Y25712D01*
X387107Y25675D01*
X387032Y25637D01*
X386945Y25575D01*
X386832Y25512D01*
X386707Y25450D01*
X386570Y25375D01*
X386408Y25300D01*
X386233Y25237D01*
X386045Y25175D01*
X385833Y25113D01*
X385620Y25075D01*
X385383Y25038D01*
X385145Y25013D01*
X384883Y25000D01*
X384795D01*
X384708Y25013D01*
X384571Y25025D01*
X384421Y25038D01*
X384233Y25075D01*
X384033Y25113D01*
X383821Y25162D01*
X383596Y25237D01*
X383358Y25325D01*
X383108Y25425D01*
X382871Y25550D01*
X382634Y25700D01*
X382396Y25875D01*
X382171Y26087D01*
X381971Y26312D01*
X381959Y26337D01*
X381921Y26387D01*
X381859Y26487D01*
X381771Y26625D01*
X381684Y26799D01*
X381571Y27012D01*
X381459Y27274D01*
X381346Y27574D01*
X381221Y27912D01*
X381109Y28299D01*
X380996Y28724D01*
X380909Y29186D01*
X380821Y29711D01*
X380759Y30261D01*
X380722Y30873D01*
X380709Y31523D01*
Y31536D01*
Y31548D01*
Y31623D01*
Y31748D01*
X380722Y31898D01*
Y32098D01*
X380734Y32311D01*
X380746Y32561D01*
X380771Y32836D01*
X380796Y33123D01*
X380821Y33423D01*
X380909Y34023D01*
X381021Y34635D01*
X381096Y34910D01*
X381171Y35185D01*
Y35197D01*
X381196Y35247D01*
X381221Y35322D01*
X381259Y35410D01*
X381309Y35535D01*
X381371Y35660D01*
X381434Y35810D01*
X381521Y35972D01*
X381709Y36322D01*
X381946Y36672D01*
X382234Y37009D01*
X382396Y37172D01*
X382559Y37322D01*
X382571Y37334D01*
X382596Y37359D01*
X382659Y37397D01*
X382721Y37434D01*
X382821Y37497D01*
X382921Y37559D01*
X383058Y37622D01*
X383196Y37697D01*
X383358Y37772D01*
X383533Y37834D01*
X383721Y37897D01*
X383933Y37959D01*
X384146Y37997D01*
X384383Y38034D01*
X384621Y38059D01*
X384883Y38072D01*
X385058D01*
X385145Y38059D01*
D02*
G37*
G36*
X417150Y53866D02*
X417275Y53854D01*
X417400Y53841D01*
X417550Y53816D01*
X417712Y53779D01*
X418049Y53691D01*
X418224Y53629D01*
X418412Y53554D01*
X418574Y53466D01*
X418749Y53354D01*
X418899Y53242D01*
X419049Y53104D01*
X419062Y53092D01*
X419087Y53067D01*
X419124Y53029D01*
X419162Y52967D01*
X419224Y52879D01*
X419287Y52779D01*
X419349Y52667D01*
X419424Y52529D01*
X419499Y52367D01*
X419562Y52192D01*
X419624Y52004D01*
X419687Y51792D01*
X419724Y51567D01*
X419762Y51317D01*
X419786Y51042D01*
X419799Y50755D01*
Y44381D01*
X418224D01*
Y50230D01*
Y50242D01*
Y50267D01*
Y50317D01*
Y50380D01*
Y50455D01*
X418212Y50555D01*
X418199Y50755D01*
X418187Y50967D01*
X418162Y51192D01*
X418112Y51405D01*
X418062Y51579D01*
X418049Y51604D01*
X418037Y51654D01*
X417999Y51729D01*
X417937Y51829D01*
X417862Y51929D01*
X417762Y52042D01*
X417649Y52154D01*
X417512Y52254D01*
X417500Y52267D01*
X417437Y52292D01*
X417362Y52342D01*
X417250Y52392D01*
X417112Y52429D01*
X416950Y52479D01*
X416775Y52504D01*
X416575Y52517D01*
X416475D01*
X416412Y52504D01*
X416325Y52492D01*
X416225Y52479D01*
X416000Y52429D01*
X415737Y52354D01*
X415463Y52242D01*
X415325Y52167D01*
X415200Y52079D01*
X415063Y51967D01*
X414938Y51854D01*
X414925Y51842D01*
X414913Y51829D01*
X414875Y51779D01*
X414838Y51729D01*
X414788Y51654D01*
X414738Y51579D01*
X414675Y51467D01*
X414625Y51354D01*
X414563Y51217D01*
X414500Y51055D01*
X414450Y50892D01*
X414400Y50705D01*
X414363Y50492D01*
X414325Y50267D01*
X414313Y50030D01*
X414300Y49767D01*
Y44381D01*
X412726D01*
Y50417D01*
Y50430D01*
Y50467D01*
Y50517D01*
Y50592D01*
X412713Y50680D01*
X412701Y50780D01*
X412676Y51005D01*
X412626Y51267D01*
X412563Y51529D01*
X412463Y51779D01*
X412338Y51992D01*
X412326Y52017D01*
X412263Y52079D01*
X412176Y52154D01*
X412038Y52254D01*
X411864Y52354D01*
X411651Y52429D01*
X411389Y52492D01*
X411089Y52517D01*
X410976D01*
X410851Y52504D01*
X410689Y52479D01*
X410501Y52429D01*
X410289Y52367D01*
X410064Y52279D01*
X409851Y52167D01*
X409827Y52154D01*
X409764Y52104D01*
X409664Y52017D01*
X409539Y51904D01*
X409402Y51767D01*
X409277Y51592D01*
X409152Y51379D01*
X409039Y51142D01*
Y51129D01*
X409027Y51117D01*
X409014Y51067D01*
X409002Y51017D01*
X408977Y50942D01*
X408964Y50867D01*
X408939Y50767D01*
X408914Y50642D01*
X408889Y50517D01*
X408864Y50367D01*
X408852Y50205D01*
X408827Y50030D01*
X408814Y49842D01*
X408802Y49642D01*
X408789Y49430D01*
Y49193D01*
Y44381D01*
X407215D01*
Y53666D01*
X408627D01*
Y52379D01*
X408652Y52392D01*
X408677Y52429D01*
X408702Y52479D01*
X408802Y52604D01*
X408939Y52754D01*
X409102Y52929D01*
X409302Y53116D01*
X409527Y53292D01*
X409789Y53454D01*
X409801D01*
X409827Y53466D01*
X409864Y53491D01*
X409914Y53516D01*
X409989Y53554D01*
X410064Y53591D01*
X410264Y53666D01*
X410514Y53741D01*
X410789Y53816D01*
X411101Y53866D01*
X411439Y53879D01*
X411539D01*
X411614Y53866D01*
X411701D01*
X411801Y53854D01*
X412038Y53829D01*
X412301Y53766D01*
X412588Y53691D01*
X412863Y53591D01*
X413126Y53441D01*
X413138D01*
X413151Y53417D01*
X413238Y53366D01*
X413351Y53267D01*
X413488Y53129D01*
X413638Y52967D01*
X413801Y52767D01*
X413938Y52529D01*
X414050Y52254D01*
X414063Y52267D01*
X414100Y52329D01*
X414163Y52404D01*
X414250Y52504D01*
X414363Y52629D01*
X414500Y52767D01*
X414650Y52917D01*
X414825Y53067D01*
X415025Y53217D01*
X415238Y53366D01*
X415475Y53504D01*
X415737Y53629D01*
X416000Y53729D01*
X416300Y53804D01*
X416600Y53866D01*
X416925Y53879D01*
X417062D01*
X417150Y53866D01*
D02*
G37*
G36*
X402241D02*
X402366Y53854D01*
X402491Y53841D01*
X402641Y53816D01*
X402803Y53779D01*
X403141Y53691D01*
X403316Y53629D01*
X403503Y53554D01*
X403666Y53466D01*
X403840Y53354D01*
X403991Y53242D01*
X404141Y53104D01*
X404153Y53092D01*
X404178Y53067D01*
X404215Y53029D01*
X404253Y52967D01*
X404315Y52879D01*
X404378Y52779D01*
X404440Y52667D01*
X404515Y52529D01*
X404590Y52367D01*
X404653Y52192D01*
X404715Y52004D01*
X404778Y51792D01*
X404815Y51567D01*
X404853Y51317D01*
X404878Y51042D01*
X404890Y50755D01*
Y44381D01*
X403316D01*
Y50230D01*
Y50242D01*
Y50267D01*
Y50317D01*
Y50380D01*
Y50455D01*
X403303Y50555D01*
X403291Y50755D01*
X403278Y50967D01*
X403253Y51192D01*
X403203Y51405D01*
X403153Y51579D01*
X403141Y51604D01*
X403128Y51654D01*
X403091Y51729D01*
X403028Y51829D01*
X402953Y51929D01*
X402853Y52042D01*
X402741Y52154D01*
X402603Y52254D01*
X402591Y52267D01*
X402528Y52292D01*
X402453Y52342D01*
X402341Y52392D01*
X402203Y52429D01*
X402041Y52479D01*
X401866Y52504D01*
X401666Y52517D01*
X401566D01*
X401504Y52504D01*
X401416Y52492D01*
X401316Y52479D01*
X401091Y52429D01*
X400829Y52354D01*
X400554Y52242D01*
X400416Y52167D01*
X400291Y52079D01*
X400154Y51967D01*
X400029Y51854D01*
X400017Y51842D01*
X400004Y51829D01*
X399967Y51779D01*
X399929Y51729D01*
X399879Y51654D01*
X399829Y51579D01*
X399767Y51467D01*
X399717Y51354D01*
X399654Y51217D01*
X399592Y51055D01*
X399542Y50892D01*
X399492Y50705D01*
X399454Y50492D01*
X399417Y50267D01*
X399404Y50030D01*
X399392Y49767D01*
Y44381D01*
X397817D01*
Y50417D01*
Y50430D01*
Y50467D01*
Y50517D01*
Y50592D01*
X397805Y50680D01*
X397792Y50780D01*
X397767Y51005D01*
X397717Y51267D01*
X397655Y51529D01*
X397555Y51779D01*
X397430Y51992D01*
X397417Y52017D01*
X397355Y52079D01*
X397267Y52154D01*
X397130Y52254D01*
X396955Y52354D01*
X396742Y52429D01*
X396480Y52492D01*
X396180Y52517D01*
X396068D01*
X395943Y52504D01*
X395780Y52479D01*
X395593Y52429D01*
X395380Y52367D01*
X395155Y52279D01*
X394943Y52167D01*
X394918Y52154D01*
X394855Y52104D01*
X394755Y52017D01*
X394630Y51904D01*
X394493Y51767D01*
X394368Y51592D01*
X394243Y51379D01*
X394131Y51142D01*
Y51129D01*
X394118Y51117D01*
X394105Y51067D01*
X394093Y51017D01*
X394068Y50942D01*
X394055Y50867D01*
X394031Y50767D01*
X394006Y50642D01*
X393981Y50517D01*
X393956Y50367D01*
X393943Y50205D01*
X393918Y50030D01*
X393906Y49842D01*
X393893Y49642D01*
X393881Y49430D01*
Y49193D01*
Y44381D01*
X392306D01*
Y53666D01*
X393718D01*
Y52379D01*
X393743Y52392D01*
X393768Y52429D01*
X393793Y52479D01*
X393893Y52604D01*
X394031Y52754D01*
X394193Y52929D01*
X394393Y53116D01*
X394618Y53292D01*
X394880Y53454D01*
X394893D01*
X394918Y53466D01*
X394955Y53491D01*
X395005Y53516D01*
X395080Y53554D01*
X395155Y53591D01*
X395355Y53666D01*
X395605Y53741D01*
X395880Y53816D01*
X396193Y53866D01*
X396530Y53879D01*
X396630D01*
X396705Y53866D01*
X396792D01*
X396892Y53854D01*
X397130Y53829D01*
X397392Y53766D01*
X397680Y53691D01*
X397955Y53591D01*
X398217Y53441D01*
X398229D01*
X398242Y53417D01*
X398330Y53366D01*
X398442Y53267D01*
X398579Y53129D01*
X398729Y52967D01*
X398892Y52767D01*
X399029Y52529D01*
X399142Y52254D01*
X399154Y52267D01*
X399192Y52329D01*
X399254Y52404D01*
X399342Y52504D01*
X399454Y52629D01*
X399592Y52767D01*
X399742Y52917D01*
X399916Y53067D01*
X400117Y53217D01*
X400329Y53366D01*
X400566Y53504D01*
X400829Y53629D01*
X401091Y53729D01*
X401391Y53804D01*
X401691Y53866D01*
X402016Y53879D01*
X402154D01*
X402241Y53866D01*
D02*
G37*
G36*
X431321Y48230D02*
X426485D01*
Y49817D01*
X431321D01*
Y48230D01*
D02*
G37*
G36*
X389819Y55528D02*
X384683D01*
X383996Y52067D01*
X384008Y52079D01*
X384046Y52104D01*
X384108Y52142D01*
X384196Y52192D01*
X384296Y52254D01*
X384433Y52329D01*
X384571Y52392D01*
X384733Y52479D01*
X384908Y52554D01*
X385095Y52617D01*
X385508Y52754D01*
X385720Y52804D01*
X385945Y52842D01*
X386183Y52867D01*
X386420Y52879D01*
X386495D01*
X386582Y52867D01*
X386707D01*
X386845Y52842D01*
X387020Y52817D01*
X387207Y52779D01*
X387407Y52729D01*
X387620Y52667D01*
X387857Y52592D01*
X388095Y52504D01*
X388332Y52392D01*
X388569Y52254D01*
X388807Y52104D01*
X389032Y51917D01*
X389257Y51717D01*
X389269Y51704D01*
X389307Y51667D01*
X389369Y51592D01*
X389444Y51504D01*
X389532Y51392D01*
X389619Y51255D01*
X389732Y51092D01*
X389844Y50905D01*
X389944Y50705D01*
X390057Y50480D01*
X390144Y50230D01*
X390244Y49967D01*
X390307Y49680D01*
X390369Y49380D01*
X390406Y49055D01*
X390419Y48718D01*
Y48693D01*
Y48643D01*
X390406Y48555D01*
Y48430D01*
X390394Y48280D01*
X390369Y48105D01*
X390331Y47905D01*
X390294Y47693D01*
X390232Y47468D01*
X390169Y47218D01*
X390082Y46968D01*
X389982Y46718D01*
X389869Y46468D01*
X389732Y46206D01*
X389569Y45956D01*
X389394Y45718D01*
X389382Y45706D01*
X389332Y45656D01*
X389269Y45581D01*
X389169Y45481D01*
X389044Y45356D01*
X388894Y45231D01*
X388719Y45094D01*
X388520Y44944D01*
X388282Y44794D01*
X388032Y44656D01*
X387757Y44531D01*
X387457Y44406D01*
X387132Y44306D01*
X386795Y44231D01*
X386420Y44181D01*
X386033Y44169D01*
X385958D01*
X385870Y44181D01*
X385745D01*
X385595Y44194D01*
X385420Y44219D01*
X385233Y44256D01*
X385020Y44294D01*
X384795Y44344D01*
X384571Y44406D01*
X384333Y44481D01*
X384083Y44581D01*
X383846Y44694D01*
X383608Y44819D01*
X383383Y44969D01*
X383171Y45144D01*
X383158Y45156D01*
X383121Y45194D01*
X383071Y45244D01*
X382996Y45318D01*
X382908Y45419D01*
X382821Y45543D01*
X382709Y45681D01*
X382608Y45831D01*
X382496Y46006D01*
X382383Y46206D01*
X382284Y46418D01*
X382184Y46656D01*
X382096Y46906D01*
X382021Y47168D01*
X381959Y47443D01*
X381921Y47743D01*
X383571Y47880D01*
Y47868D01*
X383583Y47830D01*
X383596Y47768D01*
X383608Y47680D01*
X383633Y47580D01*
X383658Y47468D01*
X383746Y47193D01*
X383858Y46906D01*
X383996Y46606D01*
X384183Y46306D01*
X384296Y46181D01*
X384408Y46056D01*
X384421Y46043D01*
X384445Y46031D01*
X384483Y46006D01*
X384533Y45968D01*
X384595Y45918D01*
X384670Y45868D01*
X384870Y45756D01*
X385108Y45643D01*
X385383Y45556D01*
X385695Y45481D01*
X385858Y45469D01*
X386033Y45456D01*
X386145D01*
X386220Y45469D01*
X386320Y45481D01*
X386432Y45506D01*
X386558Y45531D01*
X386695Y45568D01*
X387007Y45668D01*
X387157Y45731D01*
X387320Y45818D01*
X387482Y45918D01*
X387645Y46031D01*
X387807Y46156D01*
X387957Y46306D01*
X387970Y46318D01*
X387995Y46343D01*
X388032Y46393D01*
X388082Y46468D01*
X388145Y46543D01*
X388207Y46656D01*
X388282Y46781D01*
X388357Y46918D01*
X388419Y47068D01*
X388494Y47243D01*
X388557Y47431D01*
X388619Y47630D01*
X388669Y47843D01*
X388707Y48080D01*
X388732Y48318D01*
X388744Y48580D01*
Y48593D01*
Y48643D01*
Y48705D01*
X388732Y48805D01*
X388719Y48918D01*
X388707Y49043D01*
X388682Y49193D01*
X388644Y49355D01*
X388557Y49692D01*
X388494Y49867D01*
X388419Y50042D01*
X388332Y50217D01*
X388232Y50392D01*
X388120Y50555D01*
X387982Y50705D01*
X387970Y50717D01*
X387945Y50742D01*
X387907Y50780D01*
X387845Y50830D01*
X387770Y50892D01*
X387682Y50955D01*
X387570Y51030D01*
X387457Y51104D01*
X387320Y51167D01*
X387170Y51242D01*
X387007Y51304D01*
X386832Y51367D01*
X386632Y51417D01*
X386432Y51455D01*
X386220Y51479D01*
X385995Y51492D01*
X385870D01*
X385795Y51479D01*
X385720D01*
X385533Y51455D01*
X385320Y51405D01*
X385095Y51342D01*
X384858Y51255D01*
X384621Y51142D01*
X384608D01*
X384595Y51129D01*
X384520Y51080D01*
X384408Y51005D01*
X384283Y50905D01*
X384121Y50767D01*
X383971Y50617D01*
X383808Y50442D01*
X383671Y50255D01*
X382196Y50442D01*
X383433Y57028D01*
X389819D01*
Y55528D01*
D02*
G37*
G36*
X468487Y57178D02*
X468637D01*
X468949Y57165D01*
X469274Y57140D01*
X469586Y57103D01*
X469736Y57091D01*
X469861Y57066D01*
X469874D01*
X469899Y57053D01*
X469949D01*
X470024Y57028D01*
X470099Y57016D01*
X470199Y56991D01*
X470411Y56928D01*
X470661Y56853D01*
X470936Y56741D01*
X471198Y56616D01*
X471448Y56466D01*
X471461D01*
X471473Y56441D01*
X471548Y56391D01*
X471673Y56291D01*
X471811Y56153D01*
X471973Y55966D01*
X472148Y55766D01*
X472323Y55516D01*
X472473Y55229D01*
Y55216D01*
X472486Y55191D01*
X472510Y55153D01*
X472536Y55091D01*
X472560Y55016D01*
X472598Y54929D01*
X472635Y54829D01*
X472673Y54716D01*
X472748Y54454D01*
X472810Y54154D01*
X472860Y53829D01*
X472873Y53479D01*
Y53467D01*
Y53404D01*
X472860Y53316D01*
Y53204D01*
X472835Y53067D01*
X472823Y52904D01*
X472785Y52729D01*
X472748Y52529D01*
X472685Y52317D01*
X472623Y52092D01*
X472536Y51867D01*
X472435Y51629D01*
X472310Y51392D01*
X472173Y51167D01*
X472011Y50942D01*
X471823Y50717D01*
X471811Y50705D01*
X471773Y50667D01*
X471711Y50617D01*
X471623Y50542D01*
X471498Y50455D01*
X471348Y50367D01*
X471173Y50255D01*
X470961Y50155D01*
X470723Y50055D01*
X470448Y49955D01*
X470149Y49855D01*
X469799Y49767D01*
X469424Y49692D01*
X469011Y49642D01*
X468562Y49605D01*
X468074Y49592D01*
X464787D01*
Y44381D01*
X463088D01*
Y57190D01*
X468349D01*
X468487Y57178D01*
D02*
G37*
G36*
X447429Y55678D02*
X443193D01*
Y44381D01*
X441493D01*
Y55678D01*
X437270Y55678D01*
Y57190D01*
X447429Y57190D01*
Y55678D01*
D02*
G37*
G36*
X379622Y44381D02*
X377835D01*
Y46168D01*
X379622D01*
Y44381D01*
D02*
G37*
G36*
X455090Y57403D02*
X455240Y57390D01*
X455427Y57365D01*
X455627Y57340D01*
X455852Y57316D01*
X456102Y57266D01*
X456352Y57203D01*
X456614Y57140D01*
X456889Y57053D01*
X457164Y56966D01*
X457439Y56841D01*
X457714Y56716D01*
X457989Y56566D01*
X458002Y56553D01*
X458052Y56528D01*
X458127Y56478D01*
X458227Y56416D01*
X458339Y56328D01*
X458477Y56216D01*
X458627Y56091D01*
X458801Y55953D01*
X458964Y55791D01*
X459151Y55616D01*
X459326Y55416D01*
X459514Y55203D01*
X459689Y54979D01*
X459851Y54729D01*
X460014Y54466D01*
X460164Y54191D01*
X460176Y54179D01*
X460201Y54129D01*
X460239Y54041D01*
X460276Y53929D01*
X460339Y53779D01*
X460401Y53616D01*
X460463Y53417D01*
X460538Y53191D01*
X460614Y52954D01*
X460676Y52692D01*
X460738Y52404D01*
X460801Y52104D01*
X460838Y51792D01*
X460876Y51467D01*
X460901Y51117D01*
X460913Y50767D01*
Y50742D01*
Y50680D01*
Y50580D01*
X460901Y50442D01*
X460888Y50267D01*
X460876Y50067D01*
X460851Y49842D01*
X460813Y49605D01*
X460776Y49342D01*
X460726Y49055D01*
X460663Y48768D01*
X460576Y48480D01*
X460489Y48168D01*
X460389Y47868D01*
X460264Y47568D01*
X460126Y47281D01*
X460114Y47268D01*
X460089Y47218D01*
X460039Y47131D01*
X459976Y47031D01*
X459901Y46906D01*
X459801Y46756D01*
X459689Y46593D01*
X459551Y46418D01*
X459401Y46231D01*
X459239Y46043D01*
X459051Y45843D01*
X458852Y45656D01*
X458639Y45469D01*
X458402Y45281D01*
X458152Y45119D01*
X457889Y44956D01*
X457877Y44944D01*
X457827Y44919D01*
X457752Y44881D01*
X457639Y44831D01*
X457502Y44769D01*
X457352Y44706D01*
X457164Y44631D01*
X456964Y44569D01*
X456740Y44494D01*
X456502Y44419D01*
X456240Y44356D01*
X455965Y44294D01*
X455690Y44244D01*
X455390Y44206D01*
X455090Y44181D01*
X454777Y44169D01*
X454603D01*
X454478Y44181D01*
X454315Y44194D01*
X454128Y44219D01*
X453928Y44244D01*
X453690Y44281D01*
X453453Y44319D01*
X453190Y44381D01*
X452928Y44444D01*
X452653Y44531D01*
X452366Y44631D01*
X452091Y44744D01*
X451816Y44881D01*
X451541Y45031D01*
X451528Y45044D01*
X451478Y45069D01*
X451403Y45119D01*
X451303Y45194D01*
X451191Y45281D01*
X451054Y45394D01*
X450904Y45518D01*
X450741Y45656D01*
X450566Y45818D01*
X450391Y45993D01*
X450204Y46193D01*
X450029Y46406D01*
X449854Y46631D01*
X449679Y46881D01*
X449529Y47143D01*
X449379Y47418D01*
X449366Y47431D01*
X449354Y47481D01*
X449316Y47568D01*
X449266Y47680D01*
X449216Y47818D01*
X449154Y47980D01*
X449079Y48180D01*
X449016Y48380D01*
X448954Y48618D01*
X448879Y48868D01*
X448816Y49130D01*
X448767Y49405D01*
X448717Y49692D01*
X448692Y49992D01*
X448667Y50305D01*
X448654Y50617D01*
Y50630D01*
Y50655D01*
Y50692D01*
Y50755D01*
X448667Y50830D01*
Y50930D01*
Y51030D01*
X448679Y51142D01*
X448704Y51417D01*
X448741Y51717D01*
X448804Y52067D01*
X448867Y52442D01*
X448954Y52829D01*
X449067Y53242D01*
X449216Y53654D01*
X449379Y54066D01*
X449579Y54479D01*
X449804Y54879D01*
X450066Y55254D01*
X450366Y55603D01*
X450391Y55628D01*
X450441Y55678D01*
X450541Y55766D01*
X450679Y55891D01*
X450841Y56028D01*
X451054Y56178D01*
X451291Y56341D01*
X451566Y56516D01*
X451866Y56678D01*
X452203Y56841D01*
X452566Y56991D01*
X452953Y57128D01*
X453378Y57253D01*
X453828Y57340D01*
X454290Y57390D01*
X454790Y57415D01*
X454965D01*
X455090Y57403D01*
D02*
G37*
G36*
X371436Y57228D02*
X371536Y57215D01*
X371661Y57203D01*
X371786Y57190D01*
X372061Y57140D01*
X372361Y57066D01*
X372673Y56953D01*
X372973Y56816D01*
X372986D01*
X373011Y56791D01*
X373048Y56778D01*
X373111Y56741D01*
X373248Y56641D01*
X373436Y56516D01*
X373636Y56341D01*
X373848Y56141D01*
X374061Y55891D01*
X374261Y55616D01*
Y55603D01*
X374286Y55578D01*
X374311Y55541D01*
X374348Y55478D01*
X374386Y55403D01*
X374436Y55316D01*
X374486Y55203D01*
X374548Y55091D01*
X374610Y54954D01*
X374673Y54816D01*
X374798Y54491D01*
X374935Y54116D01*
X375048Y53716D01*
Y53704D01*
X375060Y53666D01*
X375073Y53604D01*
X375098Y53516D01*
X375123Y53404D01*
X375148Y53267D01*
X375173Y53104D01*
X375198Y52917D01*
X375223Y52717D01*
X375248Y52479D01*
X375273Y52242D01*
X375298Y51967D01*
X375323Y51679D01*
X375335Y51367D01*
X375348Y51042D01*
Y50692D01*
Y50667D01*
Y50592D01*
Y50480D01*
X375335Y50317D01*
Y50130D01*
X375323Y49905D01*
X375310Y49667D01*
X375285Y49392D01*
X375260Y49105D01*
X375235Y48818D01*
X375148Y48205D01*
X375035Y47605D01*
X374960Y47330D01*
X374873Y47056D01*
Y47043D01*
X374848Y46993D01*
X374823Y46918D01*
X374785Y46831D01*
X374735Y46706D01*
X374673Y46581D01*
X374610Y46431D01*
X374523Y46268D01*
X374336Y45931D01*
X374098Y45568D01*
X373811Y45231D01*
X373648Y45069D01*
X373486Y44919D01*
X373473Y44906D01*
X373448Y44881D01*
X373398Y44844D01*
X373323Y44806D01*
X373236Y44744D01*
X373123Y44681D01*
X372998Y44619D01*
X372861Y44544D01*
X372699Y44469D01*
X372524Y44406D01*
X372336Y44344D01*
X372124Y44281D01*
X371911Y44244D01*
X371674Y44206D01*
X371436Y44181D01*
X371174Y44169D01*
X371086D01*
X370999Y44181D01*
X370862Y44194D01*
X370712Y44206D01*
X370524Y44244D01*
X370324Y44281D01*
X370112Y44331D01*
X369887Y44406D01*
X369649Y44494D01*
X369399Y44594D01*
X369162Y44719D01*
X368924Y44869D01*
X368687Y45044D01*
X368462Y45256D01*
X368262Y45481D01*
X368250Y45506D01*
X368212Y45556D01*
X368150Y45656D01*
X368062Y45793D01*
X367975Y45968D01*
X367862Y46181D01*
X367750Y46443D01*
X367637Y46743D01*
X367512Y47081D01*
X367400Y47468D01*
X367287Y47893D01*
X367200Y48355D01*
X367112Y48880D01*
X367050Y49430D01*
X367012Y50042D01*
X367000Y50692D01*
Y50705D01*
Y50717D01*
Y50792D01*
Y50917D01*
X367012Y51067D01*
Y51267D01*
X367025Y51479D01*
X367038Y51729D01*
X367062Y52004D01*
X367088Y52292D01*
X367112Y52592D01*
X367200Y53191D01*
X367312Y53804D01*
X367387Y54079D01*
X367462Y54354D01*
Y54366D01*
X367487Y54416D01*
X367512Y54491D01*
X367550Y54579D01*
X367600Y54704D01*
X367662Y54829D01*
X367725Y54979D01*
X367812Y55141D01*
X368000Y55491D01*
X368237Y55841D01*
X368525Y56178D01*
X368687Y56341D01*
X368849Y56491D01*
X368862Y56503D01*
X368887Y56528D01*
X368950Y56566D01*
X369012Y56603D01*
X369112Y56666D01*
X369212Y56728D01*
X369349Y56791D01*
X369487Y56866D01*
X369649Y56941D01*
X369824Y57003D01*
X370012Y57066D01*
X370224Y57128D01*
X370437Y57165D01*
X370674Y57203D01*
X370911Y57228D01*
X371174Y57241D01*
X371349D01*
X371436Y57228D01*
D02*
G37*
G36*
X402628Y74559D02*
X401054D01*
Y76371D01*
X402628D01*
Y74559D01*
D02*
G37*
G36*
X380509Y76408D02*
X380647Y76396D01*
X380796Y76371D01*
X380959Y76346D01*
X381146Y76321D01*
X381534Y76208D01*
X381746Y76146D01*
X381946Y76058D01*
X382159Y75971D01*
X382359Y75846D01*
X382559Y75721D01*
X382746Y75571D01*
X382758Y75559D01*
X382783Y75533D01*
X382833Y75483D01*
X382896Y75421D01*
X382971Y75334D01*
X383058Y75221D01*
X383158Y75096D01*
X383258Y74959D01*
X383358Y74809D01*
X383458Y74621D01*
X383546Y74434D01*
X383646Y74221D01*
X383733Y73996D01*
X383796Y73759D01*
X383858Y73509D01*
X383908Y73234D01*
X382346Y73109D01*
Y73122D01*
X382334Y73147D01*
X382321Y73197D01*
X382309Y73259D01*
X382284Y73334D01*
X382259Y73422D01*
X382196Y73622D01*
X382109Y73846D01*
X382009Y74071D01*
X381884Y74284D01*
X381746Y74459D01*
X381734Y74471D01*
X381721Y74484D01*
X381684Y74521D01*
X381634Y74559D01*
X381571Y74621D01*
X381496Y74671D01*
X381309Y74796D01*
X381084Y74921D01*
X380809Y75034D01*
X380509Y75109D01*
X380347Y75121D01*
X380172Y75134D01*
X380047D01*
X379909Y75109D01*
X379722Y75084D01*
X379522Y75034D01*
X379297Y74959D01*
X379072Y74846D01*
X378847Y74709D01*
X378834D01*
X378810Y74684D01*
X378772Y74659D01*
X378722Y74609D01*
X378597Y74484D01*
X378422Y74309D01*
X378235Y74084D01*
X378035Y73809D01*
X377847Y73496D01*
X377672Y73122D01*
Y73109D01*
X377660Y73072D01*
X377635Y73009D01*
X377610Y72934D01*
X377572Y72822D01*
X377535Y72697D01*
X377497Y72534D01*
X377460Y72359D01*
X377422Y72159D01*
X377385Y71947D01*
X377347Y71697D01*
X377310Y71435D01*
X377285Y71147D01*
X377260Y70835D01*
X377247Y70510D01*
X377235Y70160D01*
X377247Y70172D01*
X377260Y70197D01*
X377297Y70247D01*
X377335Y70297D01*
X377385Y70372D01*
X377460Y70460D01*
X377622Y70647D01*
X377822Y70860D01*
X378060Y71072D01*
X378322Y71272D01*
X378622Y71447D01*
X378634D01*
X378660Y71459D01*
X378709Y71484D01*
X378759Y71509D01*
X378847Y71547D01*
X378934Y71585D01*
X379034Y71622D01*
X379147Y71659D01*
X379409Y71734D01*
X379697Y71810D01*
X380009Y71859D01*
X380347Y71872D01*
X380421D01*
X380496Y71859D01*
X380609D01*
X380746Y71835D01*
X380909Y71810D01*
X381084Y71772D01*
X381271Y71722D01*
X381471Y71659D01*
X381696Y71585D01*
X381909Y71497D01*
X382134Y71385D01*
X382371Y71247D01*
X382596Y71097D01*
X382808Y70910D01*
X383021Y70710D01*
X383033Y70697D01*
X383071Y70660D01*
X383121Y70585D01*
X383196Y70497D01*
X383283Y70385D01*
X383371Y70247D01*
X383471Y70085D01*
X383583Y69897D01*
X383683Y69697D01*
X383783Y69473D01*
X383871Y69223D01*
X383958Y68960D01*
X384033Y68673D01*
X384083Y68373D01*
X384121Y68060D01*
X384133Y67723D01*
Y67710D01*
Y67673D01*
Y67611D01*
X384121Y67523D01*
Y67411D01*
X384108Y67286D01*
X384096Y67148D01*
X384071Y66986D01*
X384008Y66636D01*
X383908Y66261D01*
X383783Y65873D01*
X383608Y65474D01*
Y65461D01*
X383583Y65424D01*
X383558Y65374D01*
X383508Y65311D01*
X383458Y65224D01*
X383396Y65124D01*
X383233Y64899D01*
X383021Y64636D01*
X382783Y64374D01*
X382496Y64124D01*
X382171Y63899D01*
X382159D01*
X382134Y63874D01*
X382084Y63849D01*
X382009Y63811D01*
X381921Y63774D01*
X381821Y63724D01*
X381709Y63674D01*
X381571Y63624D01*
X381434Y63574D01*
X381271Y63524D01*
X380921Y63437D01*
X380534Y63374D01*
X380322Y63362D01*
X380109Y63349D01*
X380022D01*
X379922Y63362D01*
X379784Y63374D01*
X379622Y63399D01*
X379422Y63424D01*
X379209Y63474D01*
X378972Y63524D01*
X378722Y63599D01*
X378472Y63699D01*
X378197Y63811D01*
X377935Y63962D01*
X377660Y64124D01*
X377397Y64311D01*
X377147Y64536D01*
X376910Y64786D01*
X376897Y64799D01*
X376860Y64861D01*
X376797Y64936D01*
X376722Y65061D01*
X376623Y65224D01*
X376522Y65424D01*
X376410Y65648D01*
X376298Y65924D01*
X376173Y66236D01*
X376060Y66586D01*
X375960Y66973D01*
X375873Y67411D01*
X375785Y67873D01*
X375723Y68398D01*
X375685Y68948D01*
X375673Y69548D01*
Y69560D01*
Y69585D01*
Y69635D01*
Y69710D01*
Y69798D01*
X375685Y69897D01*
Y70022D01*
X375698Y70160D01*
Y70297D01*
X375710Y70460D01*
X375748Y70810D01*
X375785Y71197D01*
X375848Y71610D01*
X375910Y72047D01*
X376010Y72497D01*
X376110Y72947D01*
X376248Y73397D01*
X376398Y73821D01*
X376585Y74234D01*
X376797Y74609D01*
X377035Y74946D01*
X377047Y74959D01*
X377085Y75009D01*
X377160Y75084D01*
X377260Y75171D01*
X377372Y75284D01*
X377522Y75409D01*
X377697Y75546D01*
X377885Y75683D01*
X378110Y75821D01*
X378347Y75958D01*
X378610Y76083D01*
X378897Y76196D01*
X379209Y76283D01*
X379534Y76358D01*
X379884Y76408D01*
X380259Y76421D01*
X380409D01*
X380509Y76408D01*
D02*
G37*
G36*
X395418Y73047D02*
X395518D01*
X395643Y73022D01*
X395780Y73009D01*
X395930Y72984D01*
X396255Y72909D01*
X396605Y72797D01*
X396780Y72734D01*
X396955Y72647D01*
X397130Y72559D01*
X397305Y72447D01*
X397317Y72434D01*
X397342Y72422D01*
X397392Y72384D01*
X397455Y72334D01*
X397530Y72272D01*
X397617Y72197D01*
X397717Y72109D01*
X397817Y71997D01*
X397930Y71884D01*
X398042Y71760D01*
X398154Y71610D01*
X398267Y71459D01*
X398379Y71285D01*
X398492Y71110D01*
X398679Y70710D01*
Y70697D01*
X398704Y70660D01*
X398729Y70597D01*
X398754Y70510D01*
X398792Y70410D01*
X398829Y70285D01*
X398867Y70147D01*
X398917Y69985D01*
X398967Y69810D01*
X399004Y69623D01*
X399042Y69423D01*
X399079Y69210D01*
X399129Y68760D01*
X399154Y68273D01*
Y68260D01*
Y68210D01*
Y68135D01*
X399142Y68035D01*
Y67910D01*
X399129Y67761D01*
X399117Y67598D01*
X399092Y67423D01*
X399067Y67223D01*
X399029Y67023D01*
X398942Y66586D01*
X398817Y66136D01*
X398642Y65698D01*
Y65686D01*
X398617Y65648D01*
X398592Y65586D01*
X398542Y65511D01*
X398492Y65411D01*
X398429Y65311D01*
X398267Y65049D01*
X398055Y64774D01*
X397805Y64486D01*
X397505Y64199D01*
X397155Y63949D01*
X397142Y63937D01*
X397117Y63924D01*
X397055Y63899D01*
X396992Y63861D01*
X396892Y63811D01*
X396792Y63762D01*
X396667Y63712D01*
X396530Y63649D01*
X396380Y63599D01*
X396230Y63537D01*
X395880Y63449D01*
X395505Y63374D01*
X395305Y63362D01*
X395105Y63349D01*
X394968D01*
X394905Y63362D01*
X394818D01*
X394630Y63387D01*
X394418Y63424D01*
X394180Y63487D01*
X393931Y63562D01*
X393693Y63674D01*
X393681D01*
X393668Y63686D01*
X393593Y63737D01*
X393481Y63799D01*
X393331Y63899D01*
X393168Y64024D01*
X392993Y64161D01*
X392831Y64324D01*
X392668Y64511D01*
Y60000D01*
X391094D01*
Y72847D01*
X392531D01*
Y71647D01*
X392556Y71672D01*
X392581Y71697D01*
X392618Y71747D01*
X392718Y71884D01*
X392856Y72034D01*
X393031Y72209D01*
X393218Y72384D01*
X393431Y72547D01*
X393668Y72697D01*
X393681D01*
X393693Y72709D01*
X393731Y72734D01*
X393781Y72759D01*
X393843Y72784D01*
X393918Y72809D01*
X394105Y72884D01*
X394330Y72947D01*
X394593Y73009D01*
X394893Y73047D01*
X395218Y73059D01*
X395330D01*
X395418Y73047D01*
D02*
G37*
G36*
X409589D02*
X409677D01*
X409889Y73022D01*
X410126Y72984D01*
X410376Y72922D01*
X410651Y72847D01*
X410914Y72747D01*
X410926D01*
X410939Y72734D01*
X410976Y72722D01*
X411026Y72697D01*
X411151Y72622D01*
X411314Y72534D01*
X411476Y72422D01*
X411651Y72284D01*
X411814Y72134D01*
X411964Y71959D01*
X411976Y71934D01*
X412026Y71872D01*
X412088Y71772D01*
X412163Y71634D01*
X412238Y71459D01*
X412326Y71260D01*
X412401Y71047D01*
X412463Y70797D01*
Y70772D01*
X412476Y70710D01*
X412488Y70597D01*
X412501Y70522D01*
X412513Y70447D01*
Y70347D01*
X412526Y70235D01*
Y70110D01*
X412538Y69960D01*
Y69810D01*
X412551Y69647D01*
Y69460D01*
Y69260D01*
Y63562D01*
X410976D01*
Y69210D01*
Y69223D01*
Y69248D01*
Y69298D01*
Y69373D01*
Y69448D01*
X410964Y69535D01*
X410951Y69748D01*
X410926Y69985D01*
X410901Y70222D01*
X410851Y70447D01*
X410789Y70647D01*
X410776Y70672D01*
X410751Y70722D01*
X410701Y70810D01*
X410639Y70922D01*
X410551Y71047D01*
X410439Y71172D01*
X410301Y71297D01*
X410139Y71410D01*
X410114Y71422D01*
X410051Y71459D01*
X409964Y71497D01*
X409827Y71560D01*
X409664Y71610D01*
X409477Y71647D01*
X409264Y71684D01*
X409039Y71697D01*
X408939D01*
X408877Y71684D01*
X408789Y71672D01*
X408689Y71659D01*
X408452Y71622D01*
X408177Y71535D01*
X407890Y71422D01*
X407739Y71347D01*
X407602Y71260D01*
X407452Y71160D01*
X407315Y71047D01*
X407302Y71035D01*
X407290Y71022D01*
X407252Y70972D01*
X407202Y70922D01*
X407152Y70847D01*
X407090Y70747D01*
X407015Y70635D01*
X406952Y70510D01*
X406890Y70360D01*
X406815Y70185D01*
X406752Y69985D01*
X406702Y69760D01*
X406652Y69523D01*
X406627Y69248D01*
X406602Y68960D01*
X406590Y68635D01*
Y63562D01*
X405015D01*
Y72847D01*
X406427D01*
Y71522D01*
X406440Y71535D01*
X406477Y71585D01*
X406540Y71659D01*
X406615Y71760D01*
X406727Y71884D01*
X406852Y72009D01*
X407002Y72147D01*
X407177Y72297D01*
X407377Y72434D01*
X407590Y72572D01*
X407840Y72709D01*
X408102Y72822D01*
X408389Y72922D01*
X408689Y72997D01*
X409027Y73047D01*
X409377Y73059D01*
X409514D01*
X409589Y73047D01*
D02*
G37*
G36*
X402628Y63562D02*
X401054D01*
Y72847D01*
X402628D01*
Y63562D01*
D02*
G37*
G36*
X371711D02*
X370137D01*
Y73572D01*
X370124D01*
X370112Y73547D01*
X370074Y73521D01*
X370037Y73484D01*
X369912Y73372D01*
X369737Y73234D01*
X369524Y73072D01*
X369262Y72884D01*
X368962Y72684D01*
X368637Y72484D01*
X368625D01*
X368600Y72459D01*
X368550Y72434D01*
X368487Y72397D01*
X368400Y72347D01*
X368312Y72297D01*
X368087Y72184D01*
X367837Y72059D01*
X367562Y71922D01*
X367275Y71797D01*
X367000Y71684D01*
Y73197D01*
X367012Y73209D01*
X367062Y73222D01*
X367125Y73259D01*
X367225Y73309D01*
X367337Y73372D01*
X367462Y73446D01*
X367612Y73521D01*
X367775Y73622D01*
X368137Y73834D01*
X368525Y74096D01*
X368912Y74384D01*
X369299Y74696D01*
X369312Y74709D01*
X369337Y74734D01*
X369399Y74784D01*
X369462Y74846D01*
X369537Y74934D01*
X369637Y75021D01*
X369737Y75134D01*
X369849Y75246D01*
X370074Y75508D01*
X370299Y75796D01*
X370512Y76108D01*
X370612Y76258D01*
X370686Y76421D01*
X371711D01*
Y63562D01*
D02*
G37*
G36*
X233533Y49000D02*
X232353D01*
Y56508D01*
X232343D01*
X232334Y56489D01*
X232306Y56470D01*
X232278Y56442D01*
X232184Y56357D01*
X232053Y56254D01*
X231893Y56133D01*
X231696Y55992D01*
X231472Y55842D01*
X231228Y55692D01*
X231218D01*
X231200Y55673D01*
X231162Y55655D01*
X231115Y55626D01*
X231050Y55589D01*
X230984Y55552D01*
X230815Y55467D01*
X230628Y55373D01*
X230422Y55270D01*
X230206Y55177D01*
X230000Y55092D01*
Y56226D01*
X230009Y56236D01*
X230047Y56245D01*
X230094Y56273D01*
X230169Y56311D01*
X230253Y56357D01*
X230347Y56414D01*
X230459Y56470D01*
X230581Y56545D01*
X230853Y56704D01*
X231143Y56901D01*
X231434Y57117D01*
X231725Y57351D01*
X231734Y57360D01*
X231753Y57379D01*
X231800Y57417D01*
X231846Y57463D01*
X231903Y57529D01*
X231978Y57595D01*
X232053Y57679D01*
X232137Y57763D01*
X232306Y57960D01*
X232474Y58176D01*
X232634Y58410D01*
X232709Y58523D01*
X232765Y58644D01*
X233533D01*
Y49000D01*
D02*
G37*
G36*
X183034Y175930D02*
X181852D01*
Y183438D01*
X181843D01*
X181834Y183419D01*
X181806Y183400D01*
X181777Y183372D01*
X181684Y183288D01*
X181553Y183185D01*
X181393Y183063D01*
X181196Y182922D01*
X180972Y182772D01*
X180728Y182622D01*
X180718D01*
X180700Y182604D01*
X180662Y182585D01*
X180615Y182557D01*
X180550Y182519D01*
X180484Y182482D01*
X180315Y182397D01*
X180128Y182304D01*
X179922Y182201D01*
X179706Y182107D01*
X179500Y182022D01*
Y183157D01*
X179509Y183166D01*
X179547Y183175D01*
X179594Y183204D01*
X179669Y183241D01*
X179753Y183288D01*
X179847Y183344D01*
X179959Y183400D01*
X180081Y183475D01*
X180353Y183635D01*
X180644Y183832D01*
X180934Y184047D01*
X181225Y184281D01*
X181234Y184291D01*
X181253Y184310D01*
X181299Y184347D01*
X181346Y184394D01*
X181403Y184459D01*
X181478Y184525D01*
X181553Y184609D01*
X181637Y184694D01*
X181806Y184891D01*
X181974Y185106D01*
X182134Y185340D01*
X182209Y185453D01*
X182265Y185575D01*
X183034D01*
Y175930D01*
D02*
G37*
%LPC*%
G36*
X361550Y240642D02*
X361475D01*
X361419Y240632D01*
X361353Y240623D01*
X361269Y240614D01*
X361184Y240595D01*
X361081Y240567D01*
X360875Y240501D01*
X360762Y240454D01*
X360641Y240398D01*
X360528Y240333D01*
X360416Y240248D01*
X360303Y240164D01*
X360200Y240061D01*
X360191Y240051D01*
X360172Y240033D01*
X360153Y240004D01*
X360116Y239958D01*
X360069Y239901D01*
X360022Y239836D01*
X359975Y239751D01*
X359928Y239658D01*
X359872Y239555D01*
X359825Y239442D01*
X359778Y239320D01*
X359732Y239189D01*
X359694Y239048D01*
X359675Y238889D01*
X359657Y238730D01*
X359647Y238561D01*
Y238552D01*
Y238533D01*
Y238505D01*
Y238458D01*
X359657Y238402D01*
Y238336D01*
X359675Y238186D01*
X359713Y238008D01*
X359750Y237811D01*
X359816Y237605D01*
X359900Y237390D01*
Y237380D01*
X359910Y237361D01*
X359928Y237333D01*
X359947Y237296D01*
X360003Y237202D01*
X360088Y237080D01*
X360191Y236940D01*
X360313Y236799D01*
X360463Y236668D01*
X360622Y236546D01*
X360631D01*
X360641Y236537D01*
X360669Y236518D01*
X360706Y236499D01*
X360791Y236452D01*
X360913Y236405D01*
X361063Y236349D01*
X361231Y236302D01*
X361409Y236265D01*
X361597Y236255D01*
X361672D01*
X361719Y236265D01*
X361784Y236274D01*
X361859Y236283D01*
X362037Y236330D01*
X362243Y236405D01*
X362346Y236452D01*
X362459Y236508D01*
X362562Y236574D01*
X362675Y236658D01*
X362778Y236752D01*
X362881Y236855D01*
X362890Y236865D01*
X362909Y236883D01*
X362928Y236921D01*
X362965Y236968D01*
X363003Y237024D01*
X363050Y237099D01*
X363106Y237183D01*
X363153Y237286D01*
X363199Y237399D01*
X363256Y237521D01*
X363302Y237652D01*
X363340Y237802D01*
X363377Y237961D01*
X363406Y238130D01*
X363415Y238308D01*
X363424Y238495D01*
Y238505D01*
Y238542D01*
Y238589D01*
X363415Y238664D01*
X363406Y238739D01*
X363396Y238842D01*
X363377Y238945D01*
X363359Y239067D01*
X363293Y239311D01*
X363256Y239442D01*
X363199Y239573D01*
X363134Y239704D01*
X363068Y239826D01*
X362984Y239948D01*
X362890Y240061D01*
X362881Y240070D01*
X362862Y240089D01*
X362834Y240117D01*
X362796Y240154D01*
X362740Y240192D01*
X362684Y240248D01*
X362609Y240295D01*
X362525Y240351D01*
X362431Y240407D01*
X362337Y240454D01*
X362103Y240548D01*
X361981Y240585D01*
X361840Y240614D01*
X361700Y240632D01*
X361550Y240642D01*
D02*
G37*
G36*
X340122Y243004D02*
X337104Y238664D01*
X340122D01*
Y243004D01*
D02*
G37*
G36*
X287587Y244119D02*
X287512D01*
X287456Y244110D01*
X287381Y244100D01*
X287306Y244081D01*
X287119Y244035D01*
X287016Y243997D01*
X286912Y243950D01*
X286800Y243894D01*
X286697Y243828D01*
X286584Y243744D01*
X286481Y243650D01*
X286378Y243547D01*
X286285Y243425D01*
X286275Y243416D01*
X286256Y243388D01*
X286228Y243332D01*
X286191Y243247D01*
X286144Y243154D01*
X286097Y243022D01*
X286041Y242872D01*
X285985Y242694D01*
X285928Y242479D01*
X285872Y242244D01*
X285825Y241982D01*
X285778Y241682D01*
X285741Y241363D01*
X285713Y240998D01*
X285694Y240604D01*
X285685Y240182D01*
Y240173D01*
Y240154D01*
Y240126D01*
Y240079D01*
Y240023D01*
Y239958D01*
X285694Y239883D01*
Y239798D01*
X285703Y239611D01*
X285713Y239395D01*
X285732Y239151D01*
X285750Y238899D01*
X285816Y238374D01*
X285863Y238111D01*
X285919Y237858D01*
X285985Y237614D01*
X286060Y237390D01*
X286144Y237193D01*
X286238Y237033D01*
X286247Y237024D01*
X286266Y236996D01*
X286294Y236958D01*
X286341Y236912D01*
X286388Y236855D01*
X286453Y236790D01*
X286528Y236715D01*
X286613Y236649D01*
X286716Y236574D01*
X286819Y236499D01*
X287053Y236377D01*
X287175Y236330D01*
X287316Y236293D01*
X287456Y236265D01*
X287606Y236255D01*
X287644D01*
X287681Y236265D01*
X287737D01*
X287812Y236283D01*
X287887Y236293D01*
X287981Y236321D01*
X288075Y236349D01*
X288187Y236396D01*
X288290Y236443D01*
X288403Y236508D01*
X288515Y236583D01*
X288637Y236677D01*
X288750Y236780D01*
X288862Y236893D01*
X288965Y237033D01*
X288974Y237043D01*
X288993Y237071D01*
X289021Y237118D01*
X289049Y237193D01*
X289096Y237286D01*
X289143Y237408D01*
X289190Y237549D01*
X289246Y237727D01*
X289303Y237924D01*
X289349Y238149D01*
X289396Y238402D01*
X289443Y238692D01*
X289471Y239011D01*
X289499Y239367D01*
X289518Y239761D01*
X289527Y240182D01*
Y240192D01*
Y240211D01*
Y240239D01*
Y240286D01*
Y240342D01*
Y240407D01*
X289518Y240482D01*
Y240567D01*
X289509Y240754D01*
X289499Y240970D01*
X289481Y241213D01*
X289462Y241467D01*
X289396Y241991D01*
X289349Y242254D01*
X289293Y242516D01*
X289228Y242751D01*
X289162Y242976D01*
X289068Y243172D01*
X288974Y243332D01*
X288965Y243341D01*
X288946Y243369D01*
X288918Y243407D01*
X288871Y243454D01*
X288825Y243519D01*
X288759Y243585D01*
X288684Y243650D01*
X288590Y243725D01*
X288496Y243800D01*
X288393Y243866D01*
X288159Y243997D01*
X288028Y244044D01*
X287887Y244081D01*
X287737Y244110D01*
X287587Y244119D01*
D02*
G37*
G36*
X284659Y184759D02*
X284584D01*
X284527Y184750D01*
X284462Y184741D01*
X284377Y184722D01*
X284293Y184703D01*
X284190Y184675D01*
X284087Y184647D01*
X283974Y184600D01*
X283862Y184553D01*
X283749Y184487D01*
X283637Y184413D01*
X283515Y184328D01*
X283403Y184225D01*
X283290Y184113D01*
X283281Y184103D01*
X283262Y184084D01*
X283234Y184047D01*
X283196Y184000D01*
X283159Y183935D01*
X283103Y183860D01*
X283056Y183766D01*
X283000Y183663D01*
X282943Y183550D01*
X282896Y183428D01*
X282840Y183288D01*
X282803Y183147D01*
X282765Y182988D01*
X282737Y182819D01*
X282718Y182641D01*
X282709Y182454D01*
Y182444D01*
Y182416D01*
Y182369D01*
X282718Y182304D01*
X282728Y182219D01*
X282737Y182135D01*
X282756Y182032D01*
X282775Y181919D01*
X282840Y181685D01*
X282887Y181563D01*
X282943Y181441D01*
X283000Y181310D01*
X283075Y181188D01*
X283159Y181076D01*
X283253Y180963D01*
X283262Y180954D01*
X283281Y180935D01*
X283309Y180907D01*
X283356Y180879D01*
X283403Y180832D01*
X283468Y180785D01*
X283543Y180729D01*
X283628Y180682D01*
X283731Y180626D01*
X283834Y180570D01*
X284068Y180485D01*
X284190Y180448D01*
X284331Y180420D01*
X284471Y180401D01*
X284621Y180392D01*
X284705D01*
X284762Y180401D01*
X284827Y180410D01*
X284912Y180420D01*
X285005Y180439D01*
X285099Y180467D01*
X285315Y180532D01*
X285427Y180579D01*
X285540Y180635D01*
X285652Y180701D01*
X285765Y180776D01*
X285868Y180860D01*
X285971Y180963D01*
X285980Y180973D01*
X285989Y180992D01*
X286018Y181020D01*
X286055Y181066D01*
X286093Y181123D01*
X286139Y181198D01*
X286186Y181282D01*
X286243Y181376D01*
X286289Y181479D01*
X286336Y181601D01*
X286383Y181732D01*
X286421Y181873D01*
X286458Y182022D01*
X286486Y182191D01*
X286496Y182360D01*
X286505Y182547D01*
Y182557D01*
Y182594D01*
Y182641D01*
X286496Y182716D01*
X286486Y182801D01*
X286477Y182904D01*
X286458Y183007D01*
X286439Y183129D01*
X286374Y183382D01*
X286327Y183522D01*
X286280Y183653D01*
X286214Y183785D01*
X286139Y183916D01*
X286055Y184047D01*
X285961Y184160D01*
X285952Y184169D01*
X285933Y184188D01*
X285905Y184216D01*
X285868Y184253D01*
X285811Y184300D01*
X285755Y184347D01*
X285680Y184403D01*
X285596Y184459D01*
X285408Y184572D01*
X285183Y184666D01*
X285062Y184703D01*
X284940Y184731D01*
X284799Y184750D01*
X284659Y184759D01*
D02*
G37*
G36*
X258083Y244128D02*
X258017D01*
X257971Y244119D01*
X257914D01*
X257839Y244110D01*
X257689Y244072D01*
X257511Y244025D01*
X257324Y243941D01*
X257136Y243838D01*
X257043Y243763D01*
X256958Y243688D01*
Y243678D01*
X256940Y243669D01*
X256893Y243613D01*
X256818Y243519D01*
X256743Y243397D01*
X256658Y243247D01*
X256583Y243069D01*
X256536Y242872D01*
X256527Y242769D01*
X256518Y242657D01*
Y242647D01*
Y242629D01*
Y242591D01*
X256527Y242544D01*
Y242488D01*
X256536Y242423D01*
X256574Y242263D01*
X256621Y242085D01*
X256696Y241898D01*
X256808Y241710D01*
X256874Y241626D01*
X256949Y241542D01*
X256958D01*
X256968Y241523D01*
X256996Y241504D01*
X257033Y241476D01*
X257127Y241401D01*
X257258Y241326D01*
X257418Y241251D01*
X257614Y241176D01*
X257839Y241129D01*
X257961Y241120D01*
X258092Y241110D01*
X258158D01*
X258205Y241120D01*
X258261D01*
X258336Y241129D01*
X258486Y241167D01*
X258664Y241213D01*
X258852Y241289D01*
X259039Y241392D01*
X259123Y241457D01*
X259208Y241532D01*
X259217Y241542D01*
X259226Y241551D01*
X259245Y241579D01*
X259273Y241607D01*
X259348Y241701D01*
X259433Y241823D01*
X259508Y241982D01*
X259583Y242160D01*
X259629Y242366D01*
X259648Y242479D01*
Y242591D01*
Y242601D01*
Y242619D01*
Y242657D01*
X259639Y242704D01*
Y242751D01*
X259629Y242816D01*
X259592Y242966D01*
X259536Y243144D01*
X259461Y243322D01*
X259348Y243510D01*
X259273Y243594D01*
X259198Y243678D01*
X259189Y243688D01*
X259179Y243697D01*
X259151Y243716D01*
X259114Y243754D01*
X259020Y243819D01*
X258889Y243903D01*
X258730Y243988D01*
X258542Y244063D01*
X258327Y244110D01*
X258205Y244119D01*
X258083Y244128D01*
D02*
G37*
G36*
X258055Y240145D02*
X257971D01*
X257914Y240136D01*
X257849Y240126D01*
X257764Y240117D01*
X257670Y240098D01*
X257567Y240079D01*
X257352Y240014D01*
X257239Y239967D01*
X257118Y239911D01*
X257005Y239845D01*
X256893Y239779D01*
X256780Y239686D01*
X256677Y239592D01*
X256668Y239583D01*
X256658Y239564D01*
X256630Y239536D01*
X256593Y239489D01*
X256555Y239442D01*
X256508Y239377D01*
X256452Y239301D01*
X256405Y239217D01*
X256358Y239114D01*
X256302Y239011D01*
X256218Y238777D01*
X256180Y238645D01*
X256161Y238514D01*
X256143Y238364D01*
X256133Y238214D01*
Y238205D01*
Y238195D01*
Y238167D01*
Y238130D01*
X256143Y238027D01*
X256161Y237905D01*
X256190Y237755D01*
X256236Y237586D01*
X256293Y237418D01*
X256368Y237239D01*
Y237230D01*
X256377Y237221D01*
X256415Y237164D01*
X256471Y237080D01*
X256546Y236977D01*
X256639Y236855D01*
X256761Y236733D01*
X256902Y236611D01*
X257071Y236508D01*
X257080D01*
X257089Y236499D01*
X257118Y236490D01*
X257155Y236471D01*
X257249Y236424D01*
X257380Y236387D01*
X257530Y236340D01*
X257708Y236293D01*
X257896Y236265D01*
X258092Y236255D01*
X258177D01*
X258233Y236265D01*
X258308Y236274D01*
X258392Y236283D01*
X258486Y236302D01*
X258589Y236321D01*
X258805Y236387D01*
X258927Y236434D01*
X259039Y236480D01*
X259161Y236546D01*
X259273Y236611D01*
X259386Y236696D01*
X259489Y236790D01*
X259498Y236799D01*
X259517Y236818D01*
X259536Y236846D01*
X259573Y236893D01*
X259620Y236940D01*
X259667Y237005D01*
X259714Y237080D01*
X259770Y237164D01*
X259817Y237258D01*
X259864Y237371D01*
X259957Y237605D01*
X259995Y237736D01*
X260014Y237877D01*
X260032Y238027D01*
X260042Y238177D01*
Y238186D01*
Y238214D01*
Y238261D01*
X260032Y238317D01*
X260023Y238392D01*
X260014Y238477D01*
X259995Y238570D01*
X259967Y238673D01*
X259901Y238899D01*
X259854Y239011D01*
X259798Y239133D01*
X259732Y239245D01*
X259657Y239367D01*
X259573Y239480D01*
X259470Y239583D01*
X259461Y239592D01*
X259442Y239611D01*
X259414Y239639D01*
X259367Y239667D01*
X259311Y239714D01*
X259245Y239761D01*
X259170Y239808D01*
X259086Y239864D01*
X258983Y239920D01*
X258880Y239967D01*
X258636Y240061D01*
X258505Y240089D01*
X258364Y240117D01*
X258214Y240136D01*
X258055Y240145D01*
D02*
G37*
G36*
X233600Y240642D02*
X233525D01*
X233469Y240632D01*
X233403Y240623D01*
X233319Y240614D01*
X233235Y240595D01*
X233131Y240567D01*
X232925Y240501D01*
X232813Y240454D01*
X232691Y240398D01*
X232578Y240333D01*
X232466Y240248D01*
X232353Y240164D01*
X232250Y240061D01*
X232241Y240051D01*
X232222Y240033D01*
X232204Y240004D01*
X232166Y239958D01*
X232119Y239901D01*
X232072Y239836D01*
X232025Y239751D01*
X231979Y239658D01*
X231922Y239555D01*
X231875Y239442D01*
X231829Y239320D01*
X231782Y239189D01*
X231744Y239048D01*
X231726Y238889D01*
X231707Y238730D01*
X231697Y238561D01*
Y238552D01*
Y238533D01*
Y238505D01*
Y238458D01*
X231707Y238402D01*
Y238336D01*
X231726Y238186D01*
X231763Y238008D01*
X231800Y237811D01*
X231866Y237605D01*
X231950Y237390D01*
Y237380D01*
X231960Y237361D01*
X231979Y237333D01*
X231997Y237296D01*
X232054Y237202D01*
X232138Y237080D01*
X232241Y236940D01*
X232363Y236799D01*
X232513Y236668D01*
X232672Y236546D01*
X232682D01*
X232691Y236537D01*
X232719Y236518D01*
X232757Y236499D01*
X232841Y236452D01*
X232963Y236405D01*
X233113Y236349D01*
X233281Y236302D01*
X233459Y236265D01*
X233647Y236255D01*
X233722D01*
X233769Y236265D01*
X233834Y236274D01*
X233909Y236283D01*
X234087Y236330D01*
X234294Y236405D01*
X234397Y236452D01*
X234509Y236508D01*
X234612Y236574D01*
X234725Y236658D01*
X234828Y236752D01*
X234931Y236855D01*
X234940Y236865D01*
X234959Y236883D01*
X234978Y236921D01*
X235015Y236968D01*
X235053Y237024D01*
X235100Y237099D01*
X235156Y237183D01*
X235203Y237286D01*
X235250Y237399D01*
X235306Y237521D01*
X235353Y237652D01*
X235390Y237802D01*
X235428Y237961D01*
X235456Y238130D01*
X235465Y238308D01*
X235475Y238495D01*
Y238505D01*
Y238542D01*
Y238589D01*
X235465Y238664D01*
X235456Y238739D01*
X235446Y238842D01*
X235428Y238945D01*
X235409Y239067D01*
X235343Y239311D01*
X235306Y239442D01*
X235250Y239573D01*
X235184Y239704D01*
X235118Y239826D01*
X235034Y239948D01*
X234940Y240061D01*
X234931Y240070D01*
X234912Y240089D01*
X234884Y240117D01*
X234847Y240154D01*
X234790Y240192D01*
X234734Y240248D01*
X234659Y240295D01*
X234575Y240351D01*
X234481Y240407D01*
X234387Y240454D01*
X234153Y240548D01*
X234031Y240585D01*
X233891Y240614D01*
X233750Y240632D01*
X233600Y240642D01*
D02*
G37*
G36*
X327309Y149312D02*
X321059Y148999D01*
X320746D01*
X320434Y148687D01*
X320121Y148375D01*
Y132750D01*
X320434Y132437D01*
X327934D01*
X329809Y132750D01*
X331684Y133375D01*
X333871Y134937D01*
X334184Y135562D01*
X335121Y136812D01*
X336059Y138687D01*
X336371Y141187D01*
Y141500D01*
Y141812D01*
X336059Y143062D01*
X335434Y144937D01*
X333871Y146812D01*
X333559Y147125D01*
X331996Y148062D01*
X330121Y148999D01*
X327309Y149312D01*
D02*
G37*
G36*
X223873D02*
X216998Y148999D01*
X216685D01*
X216373Y148687D01*
X216060Y148375D01*
Y132750D01*
X216373D01*
X216685Y132437D01*
X224498D01*
X226060Y132750D01*
X227935Y133375D01*
X229810Y134937D01*
X230123Y135562D01*
X231060Y136812D01*
X231998Y138687D01*
X232310Y141187D01*
Y141500D01*
Y141812D01*
X231998Y143062D01*
X231373Y144937D01*
X229810Y146812D01*
X229498Y147125D01*
X228248Y148062D01*
X226373Y148999D01*
X223873Y149312D01*
D02*
G37*
G36*
X425745Y147125D02*
X425433D01*
X425120Y146500D01*
X420120Y125875D01*
Y125562D01*
X420433Y125250D01*
X420745Y124937D01*
X430433D01*
X430745Y125250D01*
X430433Y125875D01*
X426058Y146500D01*
Y146812D01*
X425745Y147125D01*
D02*
G37*
G36*
X304766Y54192D02*
X304691D01*
X304635Y54183D01*
X304569Y54174D01*
X304485Y54164D01*
X304401Y54146D01*
X304298Y54117D01*
X304091Y54052D01*
X303979Y54005D01*
X303857Y53949D01*
X303745Y53883D01*
X303632Y53799D01*
X303520Y53714D01*
X303417Y53611D01*
X303407Y53602D01*
X303389Y53583D01*
X303370Y53555D01*
X303332Y53508D01*
X303285Y53452D01*
X303239Y53386D01*
X303192Y53302D01*
X303145Y53208D01*
X303088Y53105D01*
X303042Y52993D01*
X302995Y52871D01*
X302948Y52740D01*
X302910Y52599D01*
X302892Y52440D01*
X302873Y52280D01*
X302864Y52112D01*
Y52102D01*
Y52084D01*
Y52056D01*
Y52009D01*
X302873Y51952D01*
Y51887D01*
X302892Y51737D01*
X302929Y51559D01*
X302967Y51362D01*
X303032Y51156D01*
X303117Y50940D01*
Y50931D01*
X303126Y50912D01*
X303145Y50884D01*
X303164Y50846D01*
X303220Y50753D01*
X303304Y50631D01*
X303407Y50490D01*
X303529Y50350D01*
X303679Y50218D01*
X303838Y50097D01*
X303848D01*
X303857Y50087D01*
X303885Y50068D01*
X303923Y50050D01*
X304007Y50003D01*
X304129Y49956D01*
X304279Y49900D01*
X304448Y49853D01*
X304626Y49815D01*
X304813Y49806D01*
X304888D01*
X304935Y49815D01*
X305001Y49825D01*
X305075Y49834D01*
X305254Y49881D01*
X305460Y49956D01*
X305563Y50003D01*
X305675Y50059D01*
X305779Y50125D01*
X305891Y50209D01*
X305994Y50303D01*
X306097Y50406D01*
X306106Y50415D01*
X306125Y50434D01*
X306144Y50472D01*
X306182Y50518D01*
X306219Y50575D01*
X306266Y50650D01*
X306322Y50734D01*
X306369Y50837D01*
X306416Y50950D01*
X306472Y51071D01*
X306519Y51203D01*
X306556Y51353D01*
X306594Y51512D01*
X306622Y51681D01*
X306631Y51859D01*
X306641Y52046D01*
Y52056D01*
Y52093D01*
Y52140D01*
X306631Y52215D01*
X306622Y52290D01*
X306613Y52393D01*
X306594Y52496D01*
X306575Y52618D01*
X306509Y52861D01*
X306472Y52993D01*
X306416Y53124D01*
X306350Y53255D01*
X306285Y53377D01*
X306200Y53499D01*
X306106Y53611D01*
X306097Y53621D01*
X306078Y53639D01*
X306050Y53668D01*
X306013Y53705D01*
X305957Y53742D01*
X305900Y53799D01*
X305825Y53846D01*
X305741Y53902D01*
X305647Y53958D01*
X305553Y54005D01*
X305319Y54099D01*
X305197Y54136D01*
X305057Y54164D01*
X304916Y54183D01*
X304766Y54192D01*
D02*
G37*
G36*
X208139Y243004D02*
X205121Y238664D01*
X208139D01*
Y243004D01*
D02*
G37*
G36*
X441456Y36510D02*
X438657Y36510D01*
Y32636D01*
X441693Y32636D01*
X441806Y32648D01*
X442043D01*
X442306Y32673D01*
X442568Y32698D01*
X442818Y32723D01*
X442930Y32748D01*
X443031Y32773D01*
X443043D01*
X443055Y32785D01*
X443130Y32810D01*
X443256Y32861D01*
X443393Y32923D01*
X443543Y33023D01*
X443705Y33123D01*
X443855Y33260D01*
X443993Y33410D01*
X444005Y33435D01*
X444043Y33498D01*
X444105Y33585D01*
X444168Y33723D01*
X444218Y33885D01*
X444280Y34073D01*
X444318Y34298D01*
X444330Y34535D01*
Y34548D01*
Y34560D01*
Y34598D01*
Y34648D01*
X444318Y34760D01*
X444293Y34910D01*
X444255Y35085D01*
X444193Y35285D01*
X444118Y35472D01*
X444018Y35660D01*
X444005Y35685D01*
X443968Y35735D01*
X443893Y35822D01*
X443793Y35922D01*
X443668Y36035D01*
X443518Y36147D01*
X443343Y36247D01*
X443143Y36322D01*
X443130D01*
X443118Y36335D01*
X443080D01*
X443031Y36347D01*
X442968Y36372D01*
X442893Y36385D01*
X442806Y36397D01*
X442693Y36422D01*
X442568Y36435D01*
X442418Y36447D01*
X442268Y36472D01*
X442093Y36485D01*
X441893Y36497D01*
X441681D01*
X441456Y36510D01*
D02*
G37*
G36*
X441831Y31123D02*
X438657Y31123D01*
Y26725D01*
X442118Y26725D01*
X442293Y26737D01*
X442481D01*
X442681Y26750D01*
X442856Y26762D01*
X442993Y26775D01*
X443018D01*
X443093Y26800D01*
X443205Y26825D01*
X443330Y26862D01*
X443493Y26912D01*
X443655Y26974D01*
X443818Y27037D01*
X443968Y27125D01*
X443980Y27137D01*
X444030Y27174D01*
X444105Y27225D01*
X444205Y27312D01*
X444305Y27412D01*
X444405Y27537D01*
X444518Y27674D01*
X444618Y27837D01*
X444630Y27862D01*
X444655Y27924D01*
X444705Y28024D01*
X444755Y28149D01*
X444793Y28312D01*
X444842Y28499D01*
X444868Y28699D01*
X444880Y28924D01*
Y28937D01*
Y28962D01*
Y28999D01*
Y29049D01*
X444855Y29174D01*
X444830Y29349D01*
X444780Y29536D01*
X444718Y29749D01*
X444618Y29961D01*
X444493Y30161D01*
X444480Y30186D01*
X444430Y30249D01*
X444343Y30336D01*
X444230Y30449D01*
X444080Y30574D01*
X443905Y30699D01*
X443693Y30811D01*
X443468Y30898D01*
X443455D01*
X443443Y30911D01*
X443405Y30924D01*
X443355Y30936D01*
X443280Y30949D01*
X443205Y30973D01*
X443106Y30986D01*
X442993Y31011D01*
X442868Y31036D01*
X442731Y31049D01*
X442581Y31074D01*
X442418Y31086D01*
X442231Y31098D01*
X442043Y31111D01*
X441831Y31123D01*
D02*
G37*
G36*
X454578Y36785D02*
X454503D01*
X454403Y36772D01*
X454278Y36760D01*
X454115Y36747D01*
X453940Y36722D01*
X453740Y36685D01*
X453515Y36635D01*
X453278Y36560D01*
X453028Y36485D01*
X452778Y36385D01*
X452516Y36260D01*
X452253Y36122D01*
X451991Y35960D01*
X451728Y35760D01*
X451478Y35547D01*
X451466Y35535D01*
X451428Y35485D01*
X451366Y35410D01*
X451278Y35310D01*
X451178Y35172D01*
X451066Y35010D01*
X450953Y34797D01*
X450841Y34573D01*
X450716Y34298D01*
X450604Y33998D01*
X450491Y33660D01*
X450391Y33285D01*
X450316Y32873D01*
X450241Y32436D01*
X450204Y31948D01*
X450191Y31423D01*
Y31411D01*
Y31398D01*
Y31323D01*
X450204Y31198D01*
X450216Y31036D01*
X450229Y30849D01*
X450254Y30624D01*
X450291Y30374D01*
X450341Y30099D01*
X450416Y29811D01*
X450491Y29511D01*
X450591Y29211D01*
X450716Y28911D01*
X450854Y28612D01*
X451016Y28312D01*
X451216Y28037D01*
X451428Y27774D01*
X451441Y27762D01*
X451491Y27712D01*
X451553Y27649D01*
X451653Y27562D01*
X451778Y27462D01*
X451928Y27349D01*
X452091Y27237D01*
X452291Y27112D01*
X452503Y26987D01*
X452741Y26874D01*
X453003Y26762D01*
X453278Y26662D01*
X453565Y26575D01*
X453878Y26512D01*
X454215Y26462D01*
X454553Y26450D01*
X454640D01*
X454740Y26462D01*
X454878Y26475D01*
X455040Y26487D01*
X455227Y26525D01*
X455440Y26562D01*
X455665Y26612D01*
X455915Y26687D01*
X456165Y26775D01*
X456427Y26887D01*
X456702Y27012D01*
X456964Y27162D01*
X457227Y27349D01*
X457477Y27549D01*
X457714Y27787D01*
X457727Y27799D01*
X457764Y27849D01*
X457827Y27924D01*
X457914Y28037D01*
X458002Y28174D01*
X458102Y28349D01*
X458214Y28537D01*
X458339Y28774D01*
X458452Y29024D01*
X458564Y29311D01*
X458664Y29624D01*
X458764Y29961D01*
X458839Y30336D01*
X458901Y30724D01*
X458939Y31149D01*
X458951Y31598D01*
Y31611D01*
Y31673D01*
Y31748D01*
X458939Y31861D01*
Y31998D01*
X458926Y32148D01*
X458901Y32336D01*
X458889Y32523D01*
X458852Y32736D01*
X458826Y32948D01*
X458727Y33410D01*
X458589Y33873D01*
X458514Y34098D01*
X458414Y34323D01*
Y34335D01*
X458389Y34373D01*
X458364Y34435D01*
X458314Y34523D01*
X458264Y34610D01*
X458189Y34722D01*
X458027Y34985D01*
X457802Y35285D01*
X457539Y35585D01*
X457227Y35872D01*
X457052Y36010D01*
X456865Y36135D01*
X456852Y36147D01*
X456814Y36160D01*
X456764Y36197D01*
X456689Y36235D01*
X456590Y36285D01*
X456477Y36335D01*
X456352Y36397D01*
X456202Y36460D01*
X456040Y36522D01*
X455865Y36585D01*
X455677Y36635D01*
X455477Y36685D01*
X455040Y36760D01*
X454815Y36772D01*
X454578Y36785D01*
D02*
G37*
G36*
X384858Y36772D02*
X384758D01*
X384683Y36760D01*
X384583Y36747D01*
X384483Y36722D01*
X384233Y36660D01*
X384096Y36609D01*
X383958Y36547D01*
X383808Y36472D01*
X383671Y36385D01*
X383521Y36272D01*
X383383Y36147D01*
X383246Y36010D01*
X383121Y35847D01*
X383108Y35835D01*
X383083Y35797D01*
X383046Y35722D01*
X382996Y35610D01*
X382933Y35485D01*
X382871Y35310D01*
X382796Y35110D01*
X382721Y34873D01*
X382646Y34585D01*
X382571Y34273D01*
X382509Y33923D01*
X382446Y33523D01*
X382396Y33098D01*
X382359Y32611D01*
X382334Y32086D01*
X382321Y31523D01*
Y31511D01*
Y31486D01*
Y31448D01*
Y31386D01*
Y31311D01*
Y31223D01*
X382334Y31123D01*
Y31011D01*
X382346Y30761D01*
X382359Y30474D01*
X382383Y30149D01*
X382408Y29811D01*
X382496Y29111D01*
X382559Y28761D01*
X382634Y28424D01*
X382721Y28099D01*
X382821Y27799D01*
X382933Y27537D01*
X383058Y27324D01*
X383071Y27312D01*
X383096Y27274D01*
X383133Y27224D01*
X383196Y27162D01*
X383258Y27087D01*
X383346Y26999D01*
X383446Y26899D01*
X383558Y26812D01*
X383696Y26712D01*
X383833Y26612D01*
X384146Y26450D01*
X384308Y26387D01*
X384496Y26337D01*
X384683Y26300D01*
X384883Y26287D01*
X384933D01*
X384983Y26300D01*
X385058D01*
X385158Y26325D01*
X385258Y26337D01*
X385383Y26375D01*
X385508Y26412D01*
X385658Y26475D01*
X385795Y26537D01*
X385945Y26625D01*
X386095Y26725D01*
X386258Y26850D01*
X386408Y26987D01*
X386558Y27137D01*
X386695Y27324D01*
X386707Y27337D01*
X386732Y27374D01*
X386770Y27437D01*
X386807Y27537D01*
X386870Y27662D01*
X386932Y27824D01*
X386995Y28012D01*
X387070Y28249D01*
X387145Y28512D01*
X387207Y28812D01*
X387270Y29149D01*
X387332Y29536D01*
X387370Y29961D01*
X387407Y30436D01*
X387432Y30961D01*
X387445Y31523D01*
Y31536D01*
Y31561D01*
Y31598D01*
Y31661D01*
Y31736D01*
Y31823D01*
X387432Y31923D01*
Y32036D01*
X387420Y32286D01*
X387407Y32573D01*
X387382Y32898D01*
X387357Y33235D01*
X387270Y33935D01*
X387207Y34285D01*
X387132Y34635D01*
X387045Y34948D01*
X386957Y35247D01*
X386832Y35510D01*
X386707Y35722D01*
X386695Y35735D01*
X386670Y35772D01*
X386632Y35822D01*
X386570Y35885D01*
X386507Y35972D01*
X386420Y36060D01*
X386320Y36147D01*
X386195Y36247D01*
X386070Y36347D01*
X385933Y36435D01*
X385620Y36609D01*
X385445Y36672D01*
X385258Y36722D01*
X385058Y36760D01*
X384858Y36772D01*
D02*
G37*
G36*
X468461Y55678D02*
X464787D01*
Y51105D01*
X468249D01*
X468362Y51117D01*
X468499D01*
X468649Y51142D01*
X468824Y51155D01*
X468999Y51180D01*
X469386Y51255D01*
X469774Y51354D01*
X469949Y51430D01*
X470124Y51505D01*
X470286Y51604D01*
X470424Y51704D01*
X470436Y51717D01*
X470448Y51729D01*
X470486Y51767D01*
X470536Y51817D01*
X470586Y51879D01*
X470648Y51954D01*
X470711Y52042D01*
X470773Y52154D01*
X470836Y52267D01*
X470898Y52392D01*
X470961Y52542D01*
X471011Y52692D01*
X471098Y53042D01*
X471111Y53229D01*
X471123Y53429D01*
Y53442D01*
Y53467D01*
Y53504D01*
Y53566D01*
X471111Y53629D01*
X471098Y53716D01*
X471073Y53904D01*
X471023Y54116D01*
X470948Y54341D01*
X470848Y54579D01*
X470711Y54804D01*
Y54816D01*
X470698Y54829D01*
X470636Y54891D01*
X470549Y54991D01*
X470424Y55116D01*
X470274Y55241D01*
X470086Y55366D01*
X469874Y55466D01*
X469636Y55553D01*
X469611D01*
X469549Y55578D01*
X469499D01*
X469436Y55591D01*
X469361Y55603D01*
X469286Y55616D01*
X469174Y55628D01*
X469061Y55641D01*
X468936Y55653D01*
X468799D01*
X468637Y55666D01*
X468461Y55678D01*
D02*
G37*
G36*
X454790Y55953D02*
X454715D01*
X454615Y55941D01*
X454490Y55928D01*
X454328Y55916D01*
X454153Y55891D01*
X453953Y55853D01*
X453728Y55803D01*
X453490Y55728D01*
X453240Y55653D01*
X452990Y55553D01*
X452728Y55429D01*
X452466Y55291D01*
X452203Y55128D01*
X451941Y54929D01*
X451691Y54716D01*
X451678Y54704D01*
X451641Y54654D01*
X451578Y54579D01*
X451491Y54479D01*
X451391Y54341D01*
X451278Y54179D01*
X451166Y53966D01*
X451054Y53741D01*
X450928Y53467D01*
X450816Y53166D01*
X450704Y52829D01*
X450604Y52454D01*
X450529Y52042D01*
X450454Y51604D01*
X450416Y51117D01*
X450404Y50592D01*
Y50580D01*
Y50567D01*
Y50492D01*
X450416Y50367D01*
X450429Y50205D01*
X450441Y50017D01*
X450466Y49792D01*
X450504Y49542D01*
X450554Y49268D01*
X450629Y48980D01*
X450704Y48680D01*
X450803Y48380D01*
X450928Y48080D01*
X451066Y47780D01*
X451228Y47481D01*
X451428Y47206D01*
X451641Y46943D01*
X451653Y46931D01*
X451703Y46881D01*
X451766Y46818D01*
X451866Y46731D01*
X451991Y46631D01*
X452141Y46518D01*
X452303Y46406D01*
X452503Y46281D01*
X452715Y46156D01*
X452953Y46043D01*
X453215Y45931D01*
X453490Y45831D01*
X453778Y45743D01*
X454090Y45681D01*
X454428Y45631D01*
X454765Y45619D01*
X454852D01*
X454953Y45631D01*
X455090Y45644D01*
X455252Y45656D01*
X455440Y45693D01*
X455652Y45731D01*
X455877Y45781D01*
X456127Y45856D01*
X456377Y45943D01*
X456640Y46056D01*
X456914Y46181D01*
X457177Y46331D01*
X457439Y46518D01*
X457689Y46718D01*
X457927Y46956D01*
X457939Y46968D01*
X457977Y47018D01*
X458039Y47093D01*
X458127Y47206D01*
X458214Y47343D01*
X458314Y47518D01*
X458427Y47705D01*
X458551Y47943D01*
X458664Y48193D01*
X458777Y48480D01*
X458876Y48793D01*
X458976Y49130D01*
X459051Y49505D01*
X459114Y49892D01*
X459151Y50317D01*
X459164Y50767D01*
Y50780D01*
Y50842D01*
Y50917D01*
X459151Y51030D01*
Y51167D01*
X459139Y51317D01*
X459114Y51505D01*
X459101Y51692D01*
X459064Y51904D01*
X459039Y52117D01*
X458939Y52579D01*
X458801Y53042D01*
X458727Y53267D01*
X458627Y53492D01*
Y53504D01*
X458601Y53541D01*
X458577Y53604D01*
X458526Y53691D01*
X458477Y53779D01*
X458402Y53891D01*
X458239Y54154D01*
X458014Y54454D01*
X457752Y54754D01*
X457439Y55041D01*
X457264Y55178D01*
X457077Y55304D01*
X457064Y55316D01*
X457027Y55328D01*
X456977Y55366D01*
X456902Y55403D01*
X456802Y55454D01*
X456689Y55503D01*
X456564Y55566D01*
X456415Y55628D01*
X456252Y55691D01*
X456077Y55753D01*
X455890Y55803D01*
X455690Y55853D01*
X455252Y55928D01*
X455027Y55941D01*
X454790Y55953D01*
D02*
G37*
G36*
X371149Y55941D02*
X371049D01*
X370974Y55928D01*
X370874Y55916D01*
X370774Y55891D01*
X370524Y55828D01*
X370387Y55778D01*
X370249Y55716D01*
X370099Y55641D01*
X369962Y55553D01*
X369812Y55441D01*
X369674Y55316D01*
X369537Y55178D01*
X369412Y55016D01*
X369399Y55003D01*
X369374Y54966D01*
X369337Y54891D01*
X369287Y54779D01*
X369224Y54654D01*
X369162Y54479D01*
X369087Y54279D01*
X369012Y54041D01*
X368937Y53754D01*
X368862Y53441D01*
X368800Y53092D01*
X368737Y52692D01*
X368687Y52267D01*
X368650Y51779D01*
X368625Y51255D01*
X368612Y50692D01*
Y50680D01*
Y50655D01*
Y50617D01*
Y50555D01*
Y50480D01*
Y50392D01*
X368625Y50292D01*
Y50180D01*
X368637Y49930D01*
X368650Y49642D01*
X368675Y49317D01*
X368699Y48980D01*
X368787Y48280D01*
X368849Y47930D01*
X368924Y47593D01*
X369012Y47268D01*
X369112Y46968D01*
X369224Y46706D01*
X369349Y46493D01*
X369362Y46481D01*
X369387Y46443D01*
X369424Y46393D01*
X369487Y46331D01*
X369549Y46256D01*
X369637Y46168D01*
X369737Y46068D01*
X369849Y45981D01*
X369987Y45881D01*
X370124Y45781D01*
X370437Y45619D01*
X370599Y45556D01*
X370787Y45506D01*
X370974Y45469D01*
X371174Y45456D01*
X371224D01*
X371274Y45469D01*
X371349D01*
X371449Y45493D01*
X371549Y45506D01*
X371674Y45543D01*
X371799Y45581D01*
X371949Y45643D01*
X372086Y45706D01*
X372236Y45793D01*
X372386Y45893D01*
X372549Y46018D01*
X372699Y46156D01*
X372849Y46306D01*
X372986Y46493D01*
X372998Y46506D01*
X373023Y46543D01*
X373061Y46606D01*
X373098Y46706D01*
X373161Y46831D01*
X373223Y46993D01*
X373286Y47181D01*
X373361Y47418D01*
X373436Y47680D01*
X373498Y47980D01*
X373561Y48318D01*
X373623Y48705D01*
X373661Y49130D01*
X373698Y49605D01*
X373723Y50130D01*
X373736Y50692D01*
Y50705D01*
Y50730D01*
Y50767D01*
Y50830D01*
Y50905D01*
Y50992D01*
X373723Y51092D01*
Y51205D01*
X373711Y51455D01*
X373698Y51742D01*
X373673Y52067D01*
X373648Y52404D01*
X373561Y53104D01*
X373498Y53454D01*
X373423Y53804D01*
X373336Y54116D01*
X373248Y54416D01*
X373123Y54679D01*
X372998Y54891D01*
X372986Y54904D01*
X372961Y54941D01*
X372924Y54991D01*
X372861Y55054D01*
X372799Y55141D01*
X372711Y55229D01*
X372611Y55316D01*
X372486Y55416D01*
X372361Y55516D01*
X372224Y55603D01*
X371911Y55778D01*
X371736Y55841D01*
X371549Y55891D01*
X371349Y55928D01*
X371149Y55941D01*
D02*
G37*
G36*
X380022Y70485D02*
X379922D01*
X379847Y70472D01*
X379759Y70460D01*
X379647Y70447D01*
X379534Y70422D01*
X379397Y70385D01*
X379122Y70297D01*
X378972Y70235D01*
X378810Y70160D01*
X378660Y70072D01*
X378509Y69960D01*
X378360Y69847D01*
X378222Y69710D01*
X378210Y69697D01*
X378185Y69672D01*
X378160Y69635D01*
X378110Y69573D01*
X378047Y69497D01*
X377985Y69410D01*
X377922Y69298D01*
X377860Y69173D01*
X377785Y69035D01*
X377722Y68885D01*
X377660Y68723D01*
X377597Y68548D01*
X377547Y68360D01*
X377522Y68148D01*
X377497Y67935D01*
X377485Y67710D01*
Y67698D01*
Y67673D01*
Y67635D01*
Y67573D01*
X377497Y67498D01*
Y67411D01*
X377522Y67211D01*
X377572Y66973D01*
X377622Y66711D01*
X377710Y66436D01*
X377822Y66148D01*
Y66136D01*
X377835Y66111D01*
X377860Y66073D01*
X377885Y66023D01*
X377960Y65898D01*
X378072Y65736D01*
X378210Y65549D01*
X378372Y65361D01*
X378572Y65186D01*
X378784Y65024D01*
X378797D01*
X378810Y65011D01*
X378847Y64986D01*
X378897Y64961D01*
X379009Y64899D01*
X379172Y64836D01*
X379372Y64761D01*
X379597Y64699D01*
X379834Y64649D01*
X380084Y64636D01*
X380184D01*
X380247Y64649D01*
X380334Y64661D01*
X380434Y64674D01*
X380672Y64736D01*
X380946Y64836D01*
X381084Y64899D01*
X381234Y64974D01*
X381371Y65061D01*
X381521Y65174D01*
X381659Y65299D01*
X381796Y65436D01*
X381809Y65449D01*
X381834Y65474D01*
X381859Y65524D01*
X381909Y65586D01*
X381959Y65661D01*
X382021Y65761D01*
X382096Y65873D01*
X382159Y66011D01*
X382221Y66161D01*
X382296Y66323D01*
X382359Y66498D01*
X382408Y66698D01*
X382458Y66911D01*
X382496Y67136D01*
X382509Y67373D01*
X382521Y67623D01*
Y67635D01*
Y67685D01*
Y67748D01*
X382509Y67848D01*
X382496Y67948D01*
X382483Y68085D01*
X382458Y68223D01*
X382434Y68385D01*
X382346Y68710D01*
X382296Y68885D01*
X382221Y69060D01*
X382134Y69235D01*
X382046Y69398D01*
X381934Y69560D01*
X381809Y69710D01*
X381796Y69722D01*
X381771Y69748D01*
X381734Y69785D01*
X381684Y69835D01*
X381609Y69885D01*
X381534Y69960D01*
X381434Y70022D01*
X381321Y70097D01*
X381196Y70172D01*
X381071Y70235D01*
X380759Y70360D01*
X380597Y70410D01*
X380409Y70447D01*
X380222Y70472D01*
X380022Y70485D01*
D02*
G37*
G36*
X395068Y71822D02*
X394968D01*
X394893Y71810D01*
X394805Y71797D01*
X394705Y71772D01*
X394593Y71747D01*
X394468Y71709D01*
X394330Y71659D01*
X394193Y71585D01*
X394043Y71509D01*
X393893Y71422D01*
X393731Y71310D01*
X393581Y71185D01*
X393431Y71035D01*
X393281Y70872D01*
X393268Y70860D01*
X393243Y70835D01*
X393206Y70772D01*
X393168Y70697D01*
X393106Y70597D01*
X393043Y70485D01*
X392968Y70335D01*
X392906Y70185D01*
X392831Y69997D01*
X392756Y69798D01*
X392693Y69573D01*
X392643Y69323D01*
X392593Y69060D01*
X392556Y68773D01*
X392531Y68460D01*
X392518Y68135D01*
Y68110D01*
Y68060D01*
Y67960D01*
X392531Y67848D01*
X392543Y67698D01*
X392556Y67523D01*
X392581Y67336D01*
X392606Y67136D01*
X392693Y66698D01*
X392756Y66486D01*
X392831Y66261D01*
X392906Y66048D01*
X393006Y65848D01*
X393118Y65661D01*
X393243Y65486D01*
X393256Y65474D01*
X393281Y65449D01*
X393318Y65411D01*
X393368Y65349D01*
X393443Y65286D01*
X393531Y65224D01*
X393618Y65136D01*
X393731Y65061D01*
X393993Y64911D01*
X394293Y64774D01*
X394455Y64711D01*
X394618Y64674D01*
X394805Y64649D01*
X394993Y64636D01*
X395093D01*
X395168Y64649D01*
X395255Y64661D01*
X395368Y64686D01*
X395480Y64711D01*
X395618Y64749D01*
X395755Y64799D01*
X395893Y64849D01*
X396043Y64924D01*
X396193Y65011D01*
X396343Y65111D01*
X396505Y65236D01*
X396655Y65374D01*
X396792Y65524D01*
X396805Y65536D01*
X396830Y65561D01*
X396867Y65623D01*
X396905Y65686D01*
X396967Y65786D01*
X397030Y65898D01*
X397092Y66036D01*
X397167Y66198D01*
X397242Y66386D01*
X397305Y66586D01*
X397367Y66811D01*
X397430Y67061D01*
X397467Y67323D01*
X397505Y67623D01*
X397530Y67935D01*
X397542Y68273D01*
Y68298D01*
Y68348D01*
Y68448D01*
X397530Y68560D01*
X397517Y68710D01*
X397505Y68885D01*
X397480Y69073D01*
X397455Y69273D01*
X397367Y69697D01*
X397305Y69922D01*
X397230Y70147D01*
X397142Y70360D01*
X397055Y70560D01*
X396930Y70760D01*
X396805Y70935D01*
X396792Y70947D01*
X396767Y70972D01*
X396730Y71022D01*
X396680Y71072D01*
X396605Y71135D01*
X396517Y71210D01*
X396430Y71297D01*
X396317Y71385D01*
X396068Y71547D01*
X395768Y71684D01*
X395605Y71734D01*
X395430Y71785D01*
X395255Y71810D01*
X395068Y71822D01*
D02*
G37*
%LPD*%
D10*
X475000Y15000D02*
G03*
X485000Y25000I0J10000D01*
G01*
X355000Y25000D02*
G03*
X365000Y15000I10000J0D01*
G01*
X485000Y75000D02*
G03*
X475000Y85000I-10000J0D01*
G01*
X365000D02*
G03*
X355000Y75000I0J-10000D01*
G01*
Y25000D02*
Y75000D01*
X365000Y15000D02*
X475000D01*
X365000Y85000D02*
X475000D01*
X485000Y25000D02*
Y75000D01*
X355000Y25000D02*
X355000D01*
D11*
X230000Y41720D02*
X235000D01*
M02*
