G04*
G04 #@! TF.GenerationSoftware,Altium Limited,Altium Designer,23.8.1 (32)*
G04*
G04 Layer_Physical_Order=1*
G04 Layer_Color=255*
%FSLAX44Y44*%
%MOMM*%
G71*
G04*
G04 #@! TF.SameCoordinates,EABBD3BE-967A-4A3B-942A-E4C863628C70*
G04*
G04*
G04 #@! TF.FilePolarity,Positive*
G04*
G01*
G75*
%ADD12R,0.3000X0.8000*%
%ADD13R,0.4000X0.8000*%
%ADD19C,0.2040*%
%ADD20C,1.5000*%
%ADD21R,1.5000X1.5000*%
%ADD22C,3.0000*%
G36*
X152998Y187894D02*
Y187519D01*
Y187295D01*
Y186920D01*
Y186470D01*
Y185945D01*
Y185345D01*
Y184595D01*
Y183770D01*
Y182796D01*
Y181746D01*
Y180546D01*
Y179196D01*
Y177697D01*
Y175972D01*
Y174173D01*
Y172223D01*
Y170049D01*
Y167724D01*
Y165175D01*
Y162401D01*
Y159477D01*
Y156402D01*
Y153028D01*
Y149429D01*
Y145605D01*
Y141556D01*
X152998Y137282D01*
Y132783D01*
Y127985D01*
Y68000D01*
X99499Y97992D01*
X152998Y127985D01*
X99499Y157977D01*
X152998Y187969D01*
Y187894D01*
D02*
G37*
G36*
X99499Y157977D02*
X46000Y127985D01*
X99499Y97992D01*
X46000Y68000D01*
Y127985D01*
Y132783D01*
Y137282D01*
X46000Y141556D01*
Y145605D01*
Y149429D01*
Y153028D01*
Y156402D01*
Y159477D01*
Y162401D01*
Y165175D01*
Y167724D01*
Y170049D01*
Y172223D01*
Y174173D01*
Y175972D01*
Y177697D01*
Y179196D01*
Y180546D01*
Y181746D01*
Y182796D01*
Y183770D01*
Y184595D01*
Y185345D01*
Y185945D01*
Y186470D01*
Y186919D01*
Y187294D01*
Y187519D01*
Y187894D01*
Y187969D01*
X99499Y157977D01*
D02*
G37*
D12*
X307500Y35220D02*
D03*
X302500D02*
D03*
X297500D02*
D03*
X292500D02*
D03*
X287500D02*
D03*
X282500D02*
D03*
X277500D02*
D03*
X272500D02*
D03*
X267500D02*
D03*
X262500D02*
D03*
X257500D02*
D03*
X252500D02*
D03*
X247500D02*
D03*
X242500D02*
D03*
X237500D02*
D03*
X232500D02*
D03*
D13*
X223000Y10220D02*
D03*
X317000D02*
D03*
D19*
X282700Y199440D02*
Y203300D01*
Y121947D02*
Y199440D01*
X359525Y215475D02*
X371000Y204000D01*
X359525Y215475D02*
Y224215D01*
X371000Y146000D02*
Y204000D01*
X358900Y224840D02*
X359525Y224215D01*
X307500Y35220D02*
Y82500D01*
X371000Y146000D01*
X302500Y88500D02*
X359000Y145000D01*
Y199340D01*
X358900Y199440D02*
X359000Y199340D01*
X335000Y213000D02*
Y223340D01*
X333500Y224840D02*
X335000Y223340D01*
Y213000D02*
X347000Y201000D01*
X308100Y214900D02*
Y224840D01*
Y214900D02*
X319000Y204000D01*
Y132000D02*
Y204000D01*
X308100Y130100D02*
Y201900D01*
X282700Y224840D02*
X283225Y224315D01*
X295000Y125000D02*
Y203700D01*
X283225Y215475D02*
X295000Y203700D01*
X283225Y215475D02*
Y224315D01*
X259000Y215000D02*
Y223140D01*
X257300Y224840D02*
X259000Y223140D01*
Y215000D02*
X267860Y206140D01*
Y35582D02*
Y206140D01*
X233720Y214280D02*
Y223020D01*
X231900Y224840D02*
X233720Y223020D01*
Y214280D02*
X244000Y204000D01*
X206500Y224840D02*
X208980Y222360D01*
Y215020D02*
Y222360D01*
X219501Y126499D02*
Y204499D01*
X208980Y215020D02*
X219501Y204499D01*
X206500Y132500D02*
Y199440D01*
X193800Y133200D02*
Y206068D01*
X183491Y216377D02*
X193800Y206068D01*
X181100Y224840D02*
X183491Y222449D01*
Y216377D02*
Y222449D01*
X181100Y137900D02*
Y199440D01*
Y137900D02*
X232500Y86500D01*
Y35220D02*
Y86500D01*
X272500Y35220D02*
Y111748D01*
X282700Y121947D01*
X302500Y35220D02*
Y88500D01*
X333500Y137500D02*
Y202500D01*
X257300Y119447D02*
Y202700D01*
X244000Y116770D02*
Y204000D01*
X237500Y35220D02*
Y89500D01*
X193800Y133200D02*
X237500Y89500D01*
X206500Y132500D02*
X242500Y96500D01*
X219501Y126499D02*
X247500Y98500D01*
Y35222D02*
Y98500D01*
X297500Y35222D02*
Y92500D01*
X347000Y142000D01*
Y201000D01*
X292500Y35222D02*
Y96500D01*
X333500Y137500D01*
X287500Y35222D02*
Y100500D01*
X319000Y132000D01*
X282500Y35222D02*
Y104500D01*
X308100Y130100D01*
X277500Y107500D02*
X295000Y125000D01*
X277500Y35222D02*
Y107500D01*
X267500Y35222D02*
X267860Y35582D01*
X262500Y35222D02*
Y114247D01*
X257300Y119447D02*
X262500Y114247D01*
X231900Y123100D02*
X252500Y102500D01*
Y35222D02*
Y102500D01*
X244000Y116770D02*
X257500Y103270D01*
Y35222D02*
Y103270D01*
X231900Y123100D02*
Y203100D01*
X242500Y35222D02*
Y96500D01*
D20*
X358900Y224840D02*
D03*
Y199440D02*
D03*
X333500Y224840D02*
D03*
Y199440D02*
D03*
X308100Y224840D02*
D03*
X282700D02*
D03*
X257300D02*
D03*
X231900D02*
D03*
X206500D02*
D03*
X181100D02*
D03*
X308100Y199440D02*
D03*
X282700D02*
D03*
X257300D02*
D03*
X231900D02*
D03*
X206500D02*
D03*
D21*
X181100D02*
D03*
D22*
X520000Y30000D02*
D03*
Y220000D02*
D03*
X30000D02*
D03*
Y30000D02*
D03*
M02*
