G04*
G04 #@! TF.GenerationSoftware,Altium Limited,Altium Designer,23.9.2 (47)*
G04*
G04 Layer_Physical_Order=2*
G04 Layer_Color=16711680*
%FSLAX44Y44*%
%MOMM*%
G71*
G04*
G04 #@! TF.SameCoordinates,58B7A3E4-DE2A-4233-B81C-AD47A70DC6F2*
G04*
G04*
G04 #@! TF.FilePolarity,Positive*
G04*
G01*
G75*
%ADD19C,0.2040*%
%ADD20C,1.5000*%
%ADD21R,1.5000X1.5000*%
%ADD22C,3.0000*%
%ADD23R,1.8000X2.2000*%
%ADD24R,0.6000X1.3000*%
D19*
X345000Y54541D02*
Y108000D01*
X371000Y134000D01*
X360577Y214423D02*
X371000Y204000D01*
Y134000D02*
Y204000D01*
X358900Y224840D02*
X360577Y223163D01*
Y214423D02*
Y223163D01*
X335000Y54541D02*
Y110000D01*
X358900Y133900D01*
Y199440D01*
X333500Y224840D02*
X335000Y223340D01*
Y214497D02*
Y223340D01*
Y214497D02*
X348000Y201497D01*
Y135000D02*
Y201497D01*
X308100Y214900D02*
Y224840D01*
X320800Y130800D02*
Y202200D01*
X308100Y214900D02*
X320800Y202200D01*
X282700Y224840D02*
X284420Y223120D01*
Y214280D02*
Y223120D01*
Y214280D02*
X295000Y203700D01*
X259720Y214280D02*
Y222420D01*
X257300Y224840D02*
X259720Y222420D01*
Y214280D02*
X269000Y205000D01*
Y133000D02*
Y205000D01*
X233720Y212554D02*
Y223020D01*
X231900Y224840D02*
X233720Y223020D01*
Y212554D02*
X245000Y201274D01*
X208874Y212000D02*
Y222466D01*
X206500Y224840D02*
X208874Y222466D01*
Y212000D02*
X220000Y200874D01*
Y134521D02*
Y200874D01*
X181100Y224840D02*
X193800Y212140D01*
Y130200D02*
Y212140D01*
X181100Y126210D02*
Y199440D01*
Y126210D02*
X195155Y112155D01*
X195000Y112000D02*
X195155Y112155D01*
X195000Y54541D02*
Y112000D01*
X333500Y131500D02*
Y201674D01*
X282700Y130837D02*
Y199440D01*
X257300Y134300D02*
Y203700D01*
X234380Y55161D02*
Y132620D01*
X231900Y135100D02*
Y202100D01*
Y135100D02*
X234380Y132620D01*
Y55161D02*
X235000Y54541D01*
X305000Y115000D02*
X320800Y130800D01*
X206500Y129500D02*
Y199440D01*
X205000Y54541D02*
Y119000D01*
X193800Y130200D02*
X205000Y119000D01*
X295000Y131000D02*
Y203700D01*
X245000Y54541D02*
Y201274D01*
X325000Y54541D02*
X326000Y55541D01*
Y113000D01*
X348000Y135000D01*
X315000Y54541D02*
Y113000D01*
X315000Y54541D02*
X315000Y54541D01*
Y113000D02*
X333500Y131500D01*
X305000Y54541D02*
Y115000D01*
X295000Y120000D02*
X308100Y133100D01*
X295000Y54541D02*
Y120000D01*
X308100Y133100D02*
Y201900D01*
X285000Y121000D02*
X295000Y131000D01*
X285000Y54541D02*
Y121000D01*
X275000Y123137D02*
X282700Y130837D01*
X275000Y54541D02*
Y123137D01*
X255000Y132000D02*
X257300Y134300D01*
X255000Y54541D02*
Y132000D01*
X264000Y55541D02*
Y128000D01*
Y55541D02*
X265000Y54541D01*
X264000Y128000D02*
X269000Y133000D01*
X215000Y54541D02*
Y121000D01*
X206500Y129500D02*
X215000Y121000D01*
X225000Y54541D02*
Y129521D01*
X220000Y134521D02*
X225000Y129521D01*
D20*
X358900Y224840D02*
D03*
Y199440D02*
D03*
X333500Y224840D02*
D03*
Y199440D02*
D03*
X308100Y224840D02*
D03*
X282700D02*
D03*
X257300D02*
D03*
X231900D02*
D03*
X206500D02*
D03*
X181100D02*
D03*
X308100Y199440D02*
D03*
X282700D02*
D03*
X257300D02*
D03*
X231900D02*
D03*
X206500D02*
D03*
D21*
X181100D02*
D03*
D22*
X520000Y30000D02*
D03*
Y220000D02*
D03*
X30000D02*
D03*
Y30000D02*
D03*
D23*
X171000Y22041D02*
D03*
X369000D02*
D03*
D24*
X315000Y54541D02*
D03*
X305000D02*
D03*
X325000D02*
D03*
X335000D02*
D03*
X345000D02*
D03*
X285000D02*
D03*
X275000D02*
D03*
X295000D02*
D03*
X265000D02*
D03*
X255000D02*
D03*
X245000D02*
D03*
X235000D02*
D03*
X225000D02*
D03*
X215000D02*
D03*
X205000D02*
D03*
X195000D02*
D03*
M02*
