G04*
G04 #@! TF.GenerationSoftware,Altium Limited,Altium Designer,23.9.2 (47)*
G04*
G04 Layer_Color=16711935*
%FSLAX44Y44*%
%MOMM*%
G71*
G04*
G04 #@! TF.SameCoordinates,58B7A3E4-DE2A-4233-B81C-AD47A70DC6F2*
G04*
G04*
G04 #@! TF.FilePolarity,Negative*
G04*
G01*
G75*
%ADD16C,1.7032*%
%ADD17R,1.7032X1.7032*%
%ADD18C,3.2032*%
%ADD25R,2.0032X2.4032*%
%ADD26R,0.8032X1.5032*%
D16*
X358900Y224840D02*
D03*
Y199440D02*
D03*
X333500Y224840D02*
D03*
Y199440D02*
D03*
X308100Y224840D02*
D03*
X282700D02*
D03*
X257300D02*
D03*
X231900D02*
D03*
X206500D02*
D03*
X181100D02*
D03*
X308100Y199440D02*
D03*
X282700D02*
D03*
X257300D02*
D03*
X231900D02*
D03*
X206500D02*
D03*
D17*
X181100D02*
D03*
D18*
X520000Y30000D02*
D03*
Y220000D02*
D03*
X30000D02*
D03*
Y30000D02*
D03*
D25*
X171000Y22041D02*
D03*
X369000D02*
D03*
D26*
X315000Y54541D02*
D03*
X305000D02*
D03*
X325000D02*
D03*
X335000D02*
D03*
X345000D02*
D03*
X285000D02*
D03*
X275000D02*
D03*
X295000D02*
D03*
X265000D02*
D03*
X255000D02*
D03*
X245000D02*
D03*
X235000D02*
D03*
X225000D02*
D03*
X215000D02*
D03*
X205000D02*
D03*
X195000D02*
D03*
M02*
