G04*
G04 #@! TF.GenerationSoftware,Altium Limited,Altium Designer,23.8.1 (32)*
G04*
G04 Layer_Physical_Order=2*
G04 Layer_Color=16711680*
%FSLAX44Y44*%
%MOMM*%
G71*
G04*
G04 #@! TF.SameCoordinates,E5E329DE-7035-4BFE-8E71-FBE8A5C100D7*
G04*
G04*
G04 #@! TF.FilePolarity,Positive*
G04*
G01*
G75*
%ADD19C,0.2040*%
%ADD20C,1.5000*%
%ADD21R,1.5000X1.5000*%
%ADD22C,3.0000*%
%ADD23R,1.8000X2.2000*%
%ADD24R,0.6000X1.3000*%
D19*
X158180Y217820D02*
X168400Y207600D01*
X158180Y217820D02*
Y222360D01*
X168400Y120600D02*
Y207600D01*
X155700Y224840D02*
X158180Y222360D01*
X365000Y54541D02*
Y104000D01*
X389000Y214000D02*
X394860Y208140D01*
Y133860D02*
Y208140D01*
X365000Y104000D02*
X394860Y133860D01*
X384300Y224840D02*
X389000Y220140D01*
Y214000D02*
Y220140D01*
X360000Y214000D02*
Y223740D01*
X345000Y54541D02*
Y108000D01*
X371000Y134000D02*
Y203000D01*
X345000Y108000D02*
X371000Y134000D01*
X360000Y214000D02*
X371000Y203000D01*
X358900Y224840D02*
X360000Y223740D01*
X358900Y199440D02*
Y202100D01*
Y133900D02*
Y199440D01*
X333500Y214500D02*
X348000Y200000D01*
Y135000D02*
Y200000D01*
X333500Y214500D02*
Y224840D01*
X308000Y215000D02*
Y224740D01*
X320800Y202200D02*
X320800D01*
X308000Y215000D02*
X320800Y202200D01*
X308000Y224740D02*
X308100Y224840D01*
X282700D02*
X284000Y223540D01*
Y215000D02*
Y223540D01*
X295000Y131000D02*
Y204000D01*
X284000Y215000D02*
X295000Y204000D01*
X257300Y214700D02*
Y224840D01*
Y214700D02*
X269000Y203000D01*
X231900Y214374D02*
Y224840D01*
Y214374D02*
X242460Y203814D01*
Y203814D02*
X245000Y201274D01*
X242460Y203814D02*
Y203814D01*
X206500Y224840D02*
X207720Y223620D01*
Y214280D02*
Y223620D01*
Y214280D02*
X220000Y202000D01*
Y134521D02*
Y202000D01*
X182195Y213000D02*
X182474D01*
X181000Y224740D02*
X181100Y224840D01*
X181000Y214195D02*
Y224740D01*
Y214195D02*
X182195Y213000D01*
X193800Y199440D02*
Y201674D01*
X182474Y213000D02*
X193800Y201674D01*
X193800Y130200D02*
Y199440D01*
Y130200D02*
X205000Y119000D01*
Y54541D02*
Y119000D01*
X193800Y199440D02*
X193800Y199440D01*
X175000Y54541D02*
X175000Y54541D01*
Y100000D01*
X155700Y119300D02*
Y199440D01*
Y119300D02*
X175000Y100000D01*
X231900Y135100D02*
Y203100D01*
X206500Y199440D02*
Y203500D01*
Y129500D02*
Y199440D01*
X181100D02*
Y206068D01*
Y126210D02*
Y199440D01*
X257300Y134300D02*
Y202700D01*
X355000Y54541D02*
X355000Y54541D01*
Y105000D01*
X384000Y134000D01*
Y202681D01*
X269000Y133000D02*
Y203000D01*
X185000Y54541D02*
X185000Y54541D01*
Y104000D01*
X168400Y120600D02*
X185000Y104000D01*
X335000Y54541D02*
Y110000D01*
X358900Y133900D01*
X320800Y130800D02*
Y202200D01*
X181100Y126210D02*
X195155Y112155D01*
X195000Y112000D02*
X195155Y112155D01*
X195000Y54541D02*
Y112000D01*
X333500Y131500D02*
Y201674D01*
X282700Y130837D02*
Y203300D01*
X234380Y55161D02*
Y132620D01*
X231900Y135100D02*
X234380Y132620D01*
Y55161D02*
X235000Y54541D01*
X305000Y115000D02*
X320800Y130800D01*
X245000Y54541D02*
Y201274D01*
X325000Y54541D02*
X326000Y55541D01*
Y113000D01*
X348000Y135000D01*
X315000Y54541D02*
Y113000D01*
X315000Y54541D02*
X315000Y54541D01*
Y113000D02*
X333500Y131500D01*
X305000Y54541D02*
Y115000D01*
X295000Y120000D02*
X308100Y133100D01*
X295000Y54541D02*
Y120000D01*
X308100Y133100D02*
Y201900D01*
X285000Y121000D02*
X295000Y131000D01*
X285000Y54541D02*
Y121000D01*
X275000Y123137D02*
X282700Y130837D01*
X275000Y54541D02*
Y123137D01*
X255000Y132000D02*
X257300Y134300D01*
X255000Y54541D02*
Y132000D01*
X264000Y55541D02*
Y128000D01*
Y55541D02*
X265000Y54541D01*
X264000Y128000D02*
X269000Y133000D01*
X215000Y54541D02*
Y121000D01*
X206500Y129500D02*
X215000Y121000D01*
X225000Y54541D02*
Y129521D01*
X220000Y134521D02*
X225000Y129521D01*
D20*
X155700Y224840D02*
D03*
X231900D02*
D03*
X206500D02*
D03*
X308100D02*
D03*
X282700D02*
D03*
X384300D02*
D03*
X358900D02*
D03*
X206500Y199440D02*
D03*
X231900D02*
D03*
X282700D02*
D03*
X308100D02*
D03*
X358900D02*
D03*
X384300D02*
D03*
X257300Y224840D02*
D03*
X181100D02*
D03*
X333500D02*
D03*
X181100Y199440D02*
D03*
X257300D02*
D03*
X333500D02*
D03*
D21*
X155700D02*
D03*
D22*
X520000Y30000D02*
D03*
Y220000D02*
D03*
X30000D02*
D03*
Y30000D02*
D03*
D23*
X151000Y22041D02*
D03*
X389000D02*
D03*
D24*
X335000Y54541D02*
D03*
X325000D02*
D03*
X345000D02*
D03*
X355000D02*
D03*
X365000D02*
D03*
X305000D02*
D03*
X295000D02*
D03*
X315000D02*
D03*
X285000D02*
D03*
X275000D02*
D03*
X265000D02*
D03*
X255000D02*
D03*
X245000D02*
D03*
X235000D02*
D03*
X225000D02*
D03*
X215000D02*
D03*
X205000D02*
D03*
X195000D02*
D03*
X185000D02*
D03*
X175000D02*
D03*
M02*
