G04*
G04 #@! TF.GenerationSoftware,Altium Limited,Altium Designer,23.8.1 (32)*
G04*
G04 Layer_Color=65535*
%FSLAX44Y44*%
%MOMM*%
G71*
G04*
G04 #@! TF.SameCoordinates,E5E329DE-7035-4BFE-8E71-FBE8A5C100D7*
G04*
G04*
G04 #@! TF.FilePolarity,Positive*
G04*
G01*
G75*
%ADD10C,0.2000*%
%ADD11C,0.1000*%
G36*
X381751Y245084D02*
X381855D01*
X381967Y245075D01*
X382098Y245056D01*
X382248Y245028D01*
X382417Y245000D01*
X382586Y244953D01*
X382764Y244906D01*
X382951Y244841D01*
X383129Y244766D01*
X383317Y244681D01*
X383485Y244578D01*
X383654Y244456D01*
X383813Y244325D01*
X383823Y244316D01*
X383851Y244288D01*
X383888Y244250D01*
X383935Y244185D01*
X384001Y244110D01*
X384067Y244025D01*
X384141Y243922D01*
X384216Y243800D01*
X384291Y243669D01*
X384366Y243519D01*
X384432Y243369D01*
X384498Y243200D01*
X384544Y243022D01*
X384582Y242826D01*
X384610Y242629D01*
X384619Y242423D01*
Y242413D01*
Y242394D01*
Y242366D01*
Y242329D01*
X384610Y242273D01*
Y242216D01*
X384591Y242066D01*
X384563Y241898D01*
X384516Y241701D01*
X384460Y241495D01*
X384376Y241289D01*
Y241279D01*
X384366Y241260D01*
X384348Y241232D01*
X384329Y241195D01*
X384301Y241138D01*
X384273Y241082D01*
X384188Y240932D01*
X384085Y240764D01*
X383945Y240557D01*
X383785Y240342D01*
X383588Y240117D01*
X383579Y240107D01*
X383560Y240089D01*
X383532Y240051D01*
X383485Y240004D01*
X383420Y239939D01*
X383354Y239864D01*
X383260Y239779D01*
X383157Y239676D01*
X383045Y239564D01*
X382904Y239433D01*
X382764Y239292D01*
X382595Y239142D01*
X382417Y238983D01*
X382220Y238805D01*
X382005Y238627D01*
X381780Y238430D01*
X381770Y238421D01*
X381733Y238392D01*
X381676Y238346D01*
X381611Y238289D01*
X381526Y238214D01*
X381433Y238130D01*
X381208Y237943D01*
X380983Y237746D01*
X380758Y237549D01*
X380655Y237455D01*
X380561Y237361D01*
X380477Y237286D01*
X380411Y237221D01*
X380402Y237211D01*
X380364Y237164D01*
X380308Y237099D01*
X380233Y237024D01*
X380158Y236921D01*
X380074Y236818D01*
X379989Y236705D01*
X379914Y236583D01*
X384629D01*
Y235449D01*
X378284D01*
Y235459D01*
Y235468D01*
Y235524D01*
Y235599D01*
X378293Y235712D01*
X378312Y235834D01*
X378330Y235974D01*
X378368Y236115D01*
X378415Y236265D01*
Y236274D01*
X378424Y236293D01*
X378443Y236330D01*
X378462Y236377D01*
X378490Y236434D01*
X378518Y236499D01*
X378602Y236668D01*
X378715Y236865D01*
X378846Y237080D01*
X379005Y237305D01*
X379193Y237539D01*
X379202Y237549D01*
X379221Y237568D01*
X379249Y237605D01*
X379296Y237652D01*
X379352Y237708D01*
X379418Y237783D01*
X379493Y237868D01*
X379586Y237961D01*
X379689Y238055D01*
X379802Y238167D01*
X379933Y238289D01*
X380064Y238421D01*
X380214Y238552D01*
X380374Y238692D01*
X380552Y238842D01*
X380730Y238992D01*
X380749Y239011D01*
X380795Y239048D01*
X380880Y239114D01*
X380983Y239208D01*
X381114Y239311D01*
X381255Y239442D01*
X381414Y239583D01*
X381583Y239733D01*
X381939Y240061D01*
X382286Y240398D01*
X382445Y240567D01*
X382595Y240735D01*
X382736Y240885D01*
X382848Y241035D01*
X382857Y241045D01*
X382876Y241073D01*
X382904Y241110D01*
X382932Y241167D01*
X382979Y241232D01*
X383026Y241307D01*
X383073Y241401D01*
X383129Y241495D01*
X383232Y241710D01*
X383326Y241945D01*
X383354Y242076D01*
X383382Y242198D01*
X383401Y242329D01*
X383410Y242451D01*
Y242460D01*
Y242479D01*
Y242516D01*
X383401Y242572D01*
X383392Y242629D01*
X383382Y242694D01*
X383345Y242863D01*
X383288Y243050D01*
X383195Y243247D01*
X383139Y243341D01*
X383073Y243444D01*
X382998Y243538D01*
X382904Y243632D01*
X382895Y243641D01*
X382886Y243650D01*
X382848Y243678D01*
X382811Y243707D01*
X382764Y243744D01*
X382698Y243782D01*
X382632Y243828D01*
X382548Y243875D01*
X382464Y243922D01*
X382361Y243969D01*
X382136Y244044D01*
X381883Y244100D01*
X381742Y244110D01*
X381592Y244119D01*
X381508D01*
X381451Y244110D01*
X381376Y244100D01*
X381292Y244091D01*
X381199Y244072D01*
X381105Y244053D01*
X380880Y243997D01*
X380655Y243903D01*
X380542Y243847D01*
X380430Y243772D01*
X380327Y243697D01*
X380224Y243603D01*
X380214Y243594D01*
X380205Y243585D01*
X380177Y243547D01*
X380149Y243510D01*
X380111Y243463D01*
X380064Y243397D01*
X380018Y243322D01*
X379971Y243238D01*
X379924Y243144D01*
X379877Y243041D01*
X379839Y242919D01*
X379793Y242798D01*
X379764Y242666D01*
X379736Y242516D01*
X379727Y242366D01*
X379718Y242198D01*
X378508Y242320D01*
Y242338D01*
X378518Y242376D01*
X378527Y242451D01*
X378537Y242544D01*
X378565Y242657D01*
X378593Y242788D01*
X378630Y242929D01*
X378668Y243088D01*
X378724Y243247D01*
X378790Y243416D01*
X378865Y243585D01*
X378949Y243763D01*
X379052Y243932D01*
X379165Y244091D01*
X379296Y244241D01*
X379436Y244381D01*
X379446Y244391D01*
X379474Y244410D01*
X379521Y244447D01*
X379586Y244494D01*
X379671Y244550D01*
X379764Y244606D01*
X379886Y244672D01*
X380018Y244738D01*
X380168Y244803D01*
X380327Y244869D01*
X380505Y244925D01*
X380702Y244981D01*
X380908Y245028D01*
X381133Y245066D01*
X381367Y245084D01*
X381620Y245094D01*
X381686D01*
X381751Y245084D01*
D02*
G37*
G36*
X389221D02*
X389296Y245075D01*
X389390Y245066D01*
X389484Y245056D01*
X389690Y245019D01*
X389915Y244963D01*
X390149Y244878D01*
X390374Y244775D01*
X390384D01*
X390402Y244756D01*
X390430Y244747D01*
X390477Y244719D01*
X390580Y244644D01*
X390721Y244550D01*
X390871Y244419D01*
X391030Y244269D01*
X391190Y244081D01*
X391340Y243875D01*
Y243866D01*
X391358Y243847D01*
X391377Y243819D01*
X391405Y243772D01*
X391433Y243716D01*
X391471Y243650D01*
X391508Y243566D01*
X391555Y243482D01*
X391602Y243379D01*
X391649Y243276D01*
X391743Y243032D01*
X391846Y242751D01*
X391930Y242451D01*
Y242441D01*
X391939Y242413D01*
X391949Y242366D01*
X391968Y242301D01*
X391986Y242216D01*
X392005Y242113D01*
X392024Y241991D01*
X392043Y241851D01*
X392061Y241701D01*
X392080Y241523D01*
X392099Y241345D01*
X392118Y241138D01*
X392136Y240923D01*
X392146Y240689D01*
X392155Y240445D01*
Y240182D01*
Y240164D01*
Y240107D01*
Y240023D01*
X392146Y239901D01*
Y239761D01*
X392136Y239592D01*
X392127Y239414D01*
X392108Y239208D01*
X392089Y238992D01*
X392071Y238777D01*
X392005Y238317D01*
X391921Y237868D01*
X391865Y237661D01*
X391799Y237455D01*
Y237446D01*
X391780Y237408D01*
X391761Y237352D01*
X391733Y237286D01*
X391696Y237193D01*
X391649Y237099D01*
X391602Y236986D01*
X391536Y236865D01*
X391396Y236611D01*
X391218Y236340D01*
X391002Y236087D01*
X390880Y235965D01*
X390759Y235852D01*
X390749Y235843D01*
X390730Y235824D01*
X390693Y235796D01*
X390637Y235768D01*
X390571Y235721D01*
X390487Y235674D01*
X390393Y235627D01*
X390290Y235571D01*
X390168Y235515D01*
X390037Y235468D01*
X389896Y235421D01*
X389737Y235374D01*
X389578Y235346D01*
X389399Y235318D01*
X389221Y235299D01*
X389025Y235290D01*
X388959D01*
X388893Y235299D01*
X388790Y235309D01*
X388678Y235318D01*
X388537Y235346D01*
X388387Y235374D01*
X388228Y235412D01*
X388059Y235468D01*
X387881Y235534D01*
X387694Y235609D01*
X387516Y235702D01*
X387337Y235815D01*
X387159Y235946D01*
X386991Y236105D01*
X386841Y236274D01*
X386831Y236293D01*
X386803Y236330D01*
X386756Y236405D01*
X386691Y236508D01*
X386625Y236640D01*
X386541Y236799D01*
X386456Y236996D01*
X386372Y237221D01*
X386278Y237474D01*
X386194Y237764D01*
X386110Y238083D01*
X386044Y238430D01*
X385979Y238824D01*
X385932Y239236D01*
X385904Y239695D01*
X385894Y240182D01*
Y240192D01*
Y240201D01*
Y240257D01*
Y240351D01*
X385904Y240464D01*
Y240614D01*
X385913Y240773D01*
X385922Y240960D01*
X385941Y241167D01*
X385960Y241382D01*
X385979Y241607D01*
X386044Y242057D01*
X386128Y242516D01*
X386185Y242722D01*
X386241Y242929D01*
Y242938D01*
X386260Y242976D01*
X386278Y243032D01*
X386306Y243097D01*
X386344Y243191D01*
X386391Y243285D01*
X386438Y243397D01*
X386503Y243519D01*
X386644Y243782D01*
X386822Y244044D01*
X387038Y244297D01*
X387159Y244419D01*
X387281Y244531D01*
X387291Y244541D01*
X387309Y244559D01*
X387356Y244588D01*
X387403Y244616D01*
X387478Y244663D01*
X387553Y244709D01*
X387656Y244756D01*
X387759Y244813D01*
X387881Y244869D01*
X388012Y244916D01*
X388153Y244963D01*
X388312Y245009D01*
X388472Y245037D01*
X388650Y245066D01*
X388828Y245084D01*
X389025Y245094D01*
X389156D01*
X389221Y245084D01*
D02*
G37*
G36*
X388012Y185725D02*
X388097Y185715D01*
X388190Y185706D01*
X388303Y185697D01*
X388415Y185669D01*
X388687Y185612D01*
X388968Y185518D01*
X389118Y185462D01*
X389268Y185397D01*
X389418Y185322D01*
X389568Y185228D01*
X389578Y185219D01*
X389606Y185209D01*
X389643Y185172D01*
X389699Y185134D01*
X389765Y185078D01*
X389840Y185022D01*
X389915Y184947D01*
X390009Y184862D01*
X390102Y184759D01*
X390196Y184656D01*
X390299Y184534D01*
X390393Y184403D01*
X390487Y184263D01*
X390580Y184113D01*
X390674Y183953D01*
X390749Y183785D01*
X390759Y183775D01*
X390768Y183738D01*
X390787Y183691D01*
X390815Y183616D01*
X390843Y183513D01*
X390880Y183400D01*
X390918Y183260D01*
X390955Y183100D01*
X390993Y182922D01*
X391021Y182716D01*
X391058Y182500D01*
X391087Y182257D01*
X391115Y181994D01*
X391133Y181713D01*
X391152Y181404D01*
Y181085D01*
Y181076D01*
Y181066D01*
Y181038D01*
Y181001D01*
Y180907D01*
X391143Y180785D01*
Y180626D01*
X391133Y180448D01*
X391115Y180251D01*
X391105Y180026D01*
X391077Y179801D01*
X391058Y179558D01*
X390983Y179070D01*
X390937Y178827D01*
X390880Y178592D01*
X390824Y178367D01*
X390749Y178152D01*
Y178142D01*
X390730Y178105D01*
X390712Y178049D01*
X390674Y177974D01*
X390627Y177880D01*
X390580Y177777D01*
X390524Y177664D01*
X390449Y177533D01*
X390280Y177271D01*
X390074Y176989D01*
X389840Y176727D01*
X389699Y176605D01*
X389559Y176493D01*
X389549Y176483D01*
X389521Y176465D01*
X389484Y176437D01*
X389418Y176408D01*
X389343Y176362D01*
X389249Y176315D01*
X389146Y176268D01*
X389034Y176211D01*
X388903Y176155D01*
X388762Y176108D01*
X388612Y176062D01*
X388443Y176015D01*
X388275Y175987D01*
X388097Y175958D01*
X387909Y175940D01*
X387712Y175930D01*
X387600D01*
X387525Y175940D01*
X387431Y175949D01*
X387319Y175968D01*
X387188Y175987D01*
X387056Y176005D01*
X386766Y176080D01*
X386606Y176127D01*
X386456Y176193D01*
X386297Y176258D01*
X386147Y176343D01*
X386007Y176437D01*
X385866Y176549D01*
X385857Y176558D01*
X385838Y176577D01*
X385800Y176615D01*
X385754Y176661D01*
X385697Y176727D01*
X385632Y176811D01*
X385566Y176896D01*
X385491Y177008D01*
X385416Y177121D01*
X385341Y177261D01*
X385275Y177402D01*
X385210Y177561D01*
X385144Y177730D01*
X385088Y177917D01*
X385051Y178114D01*
X385013Y178320D01*
X386147Y178424D01*
Y178414D01*
X386157Y178386D01*
X386166Y178349D01*
X386175Y178292D01*
X386194Y178227D01*
X386213Y178152D01*
X386269Y177974D01*
X386344Y177786D01*
X386438Y177589D01*
X386550Y177411D01*
X386616Y177327D01*
X386691Y177252D01*
X386700D01*
X386710Y177233D01*
X386766Y177196D01*
X386850Y177139D01*
X386972Y177074D01*
X387122Y177008D01*
X387300Y176952D01*
X387506Y176915D01*
X387731Y176896D01*
X387825D01*
X387928Y176905D01*
X388059Y176924D01*
X388200Y176952D01*
X388368Y176999D01*
X388528Y177055D01*
X388687Y177139D01*
X388697D01*
X388706Y177149D01*
X388753Y177186D01*
X388828Y177243D01*
X388922Y177318D01*
X389034Y177411D01*
X389146Y177524D01*
X389249Y177655D01*
X389353Y177805D01*
Y177814D01*
X389362Y177824D01*
X389381Y177852D01*
X389399Y177880D01*
X389446Y177974D01*
X389503Y178105D01*
X389578Y178264D01*
X389652Y178461D01*
X389728Y178676D01*
X389793Y178930D01*
Y178939D01*
X389803Y178958D01*
X389812Y179005D01*
X389821Y179051D01*
X389831Y179117D01*
X389849Y179192D01*
X389868Y179276D01*
X389887Y179380D01*
X389915Y179595D01*
X389943Y179839D01*
X389962Y180101D01*
X389971Y180373D01*
Y180392D01*
Y180439D01*
Y180504D01*
Y180598D01*
X389953Y180579D01*
X389934Y180551D01*
X389906Y180514D01*
X389831Y180410D01*
X389718Y180279D01*
X389578Y180139D01*
X389409Y179989D01*
X389212Y179839D01*
X388997Y179698D01*
X388987D01*
X388968Y179679D01*
X388940Y179670D01*
X388893Y179642D01*
X388837Y179614D01*
X388762Y179586D01*
X388687Y179558D01*
X388603Y179529D01*
X388406Y179464D01*
X388181Y179408D01*
X387937Y179370D01*
X387675Y179351D01*
X387619D01*
X387562Y179361D01*
X387478D01*
X387375Y179380D01*
X387253Y179398D01*
X387122Y179426D01*
X386981Y179464D01*
X386822Y179501D01*
X386663Y179558D01*
X386494Y179632D01*
X386325Y179717D01*
X386157Y179811D01*
X385988Y179932D01*
X385819Y180064D01*
X385660Y180214D01*
X385650Y180223D01*
X385622Y180251D01*
X385585Y180307D01*
X385529Y180373D01*
X385472Y180457D01*
X385397Y180560D01*
X385322Y180682D01*
X385247Y180823D01*
X385172Y180973D01*
X385098Y181151D01*
X385023Y181338D01*
X384966Y181535D01*
X384910Y181760D01*
X384873Y181985D01*
X384844Y182229D01*
X384835Y182491D01*
Y182510D01*
Y182557D01*
X384844Y182632D01*
Y182735D01*
X384863Y182857D01*
X384882Y182997D01*
X384910Y183157D01*
X384938Y183335D01*
X384985Y183513D01*
X385041Y183710D01*
X385116Y183906D01*
X385191Y184103D01*
X385294Y184300D01*
X385407Y184487D01*
X385538Y184675D01*
X385688Y184844D01*
X385697Y184853D01*
X385725Y184881D01*
X385772Y184928D01*
X385847Y184984D01*
X385932Y185050D01*
X386025Y185125D01*
X386147Y185209D01*
X386278Y185294D01*
X386428Y185369D01*
X386597Y185453D01*
X386775Y185528D01*
X386963Y185593D01*
X387169Y185650D01*
X387384Y185697D01*
X387619Y185725D01*
X387853Y185734D01*
X387947D01*
X388012Y185725D01*
D02*
G37*
G36*
X381817Y176090D02*
X380636D01*
Y183597D01*
X380627D01*
X380617Y183578D01*
X380589Y183560D01*
X380561Y183531D01*
X380467Y183447D01*
X380336Y183344D01*
X380177Y183222D01*
X379980Y183082D01*
X379755Y182932D01*
X379511Y182782D01*
X379502D01*
X379483Y182763D01*
X379446Y182744D01*
X379399Y182716D01*
X379333Y182679D01*
X379268Y182641D01*
X379099Y182557D01*
X378912Y182463D01*
X378705Y182360D01*
X378490Y182266D01*
X378284Y182182D01*
Y183316D01*
X378293Y183325D01*
X378330Y183335D01*
X378377Y183363D01*
X378452Y183400D01*
X378537Y183447D01*
X378630Y183503D01*
X378743Y183560D01*
X378865Y183635D01*
X379137Y183794D01*
X379427Y183991D01*
X379718Y184206D01*
X380008Y184441D01*
X380018Y184450D01*
X380036Y184469D01*
X380083Y184506D01*
X380130Y184553D01*
X380186Y184619D01*
X380261Y184684D01*
X380336Y184769D01*
X380420Y184853D01*
X380589Y185050D01*
X380758Y185266D01*
X380917Y185500D01*
X380992Y185612D01*
X381049Y185734D01*
X381817D01*
Y176090D01*
D02*
G37*
G36*
X355817Y235449D02*
X354636D01*
Y242957D01*
X354627D01*
X354617Y242938D01*
X354589Y242919D01*
X354561Y242891D01*
X354467Y242807D01*
X354336Y242704D01*
X354177Y242582D01*
X353980Y242441D01*
X353755Y242291D01*
X353511Y242141D01*
X353502D01*
X353483Y242123D01*
X353446Y242104D01*
X353399Y242076D01*
X353333Y242038D01*
X353268Y242001D01*
X353099Y241916D01*
X352911Y241823D01*
X352705Y241720D01*
X352490Y241626D01*
X352284Y241542D01*
Y242676D01*
X352293Y242685D01*
X352330Y242694D01*
X352377Y242722D01*
X352452Y242760D01*
X352537Y242807D01*
X352630Y242863D01*
X352743Y242919D01*
X352865Y242994D01*
X353136Y243154D01*
X353427Y243350D01*
X353718Y243566D01*
X354008Y243800D01*
X354017Y243810D01*
X354036Y243828D01*
X354083Y243866D01*
X354130Y243913D01*
X354186Y243978D01*
X354261Y244044D01*
X354336Y244128D01*
X354421Y244213D01*
X354589Y244410D01*
X354758Y244625D01*
X354917Y244859D01*
X354992Y244972D01*
X355048Y245094D01*
X355817D01*
Y235449D01*
D02*
G37*
G36*
X362172Y245084D02*
X362284Y245075D01*
X362406Y245056D01*
X362537Y245028D01*
X362687Y245000D01*
X362846Y244963D01*
X363015Y244916D01*
X363184Y244859D01*
X363353Y244784D01*
X363521Y244700D01*
X363681Y244606D01*
X363840Y244494D01*
X363990Y244363D01*
X363999Y244353D01*
X364027Y244325D01*
X364065Y244288D01*
X364112Y244231D01*
X364168Y244166D01*
X364234Y244072D01*
X364299Y243978D01*
X364374Y243866D01*
X364449Y243744D01*
X364515Y243603D01*
X364580Y243463D01*
X364637Y243304D01*
X364683Y243135D01*
X364730Y242957D01*
X364749Y242779D01*
X364758Y242582D01*
Y242572D01*
Y242554D01*
Y242516D01*
X364749Y242469D01*
Y242413D01*
X364740Y242338D01*
X364712Y242179D01*
X364674Y242001D01*
X364608Y241804D01*
X364524Y241607D01*
X364402Y241410D01*
Y241401D01*
X364384Y241392D01*
X364337Y241326D01*
X364252Y241242D01*
X364140Y241129D01*
X363990Y241007D01*
X363812Y240885D01*
X363596Y240764D01*
X363343Y240651D01*
X363353D01*
X363381Y240642D01*
X363428Y240623D01*
X363484Y240595D01*
X363559Y240567D01*
X363643Y240529D01*
X363840Y240426D01*
X364056Y240295D01*
X364281Y240136D01*
X364496Y239948D01*
X364590Y239836D01*
X364683Y239723D01*
X364693Y239714D01*
X364702Y239695D01*
X364730Y239658D01*
X364758Y239611D01*
X364796Y239545D01*
X364833Y239480D01*
X364871Y239386D01*
X364918Y239292D01*
X364965Y239189D01*
X365002Y239067D01*
X365077Y238814D01*
X365133Y238514D01*
X365143Y238364D01*
X365152Y238195D01*
Y238186D01*
Y238139D01*
X365143Y238074D01*
Y237989D01*
X365124Y237886D01*
X365105Y237764D01*
X365077Y237624D01*
X365040Y237474D01*
X364993Y237314D01*
X364937Y237146D01*
X364871Y236977D01*
X364787Y236799D01*
X364683Y236621D01*
X364571Y236452D01*
X364431Y236283D01*
X364281Y236124D01*
X364271Y236115D01*
X364243Y236087D01*
X364187Y236049D01*
X364121Y235993D01*
X364037Y235927D01*
X363934Y235862D01*
X363802Y235787D01*
X363671Y235712D01*
X363512Y235627D01*
X363334Y235552D01*
X363146Y235487D01*
X362940Y235421D01*
X362725Y235365D01*
X362490Y235327D01*
X362247Y235299D01*
X361984Y235290D01*
X361919D01*
X361844Y235299D01*
X361750D01*
X361628Y235318D01*
X361488Y235337D01*
X361328Y235356D01*
X361159Y235393D01*
X360981Y235440D01*
X360794Y235496D01*
X360606Y235562D01*
X360419Y235646D01*
X360222Y235740D01*
X360035Y235852D01*
X359857Y235974D01*
X359688Y236124D01*
X359679Y236133D01*
X359650Y236162D01*
X359613Y236208D01*
X359557Y236274D01*
X359491Y236359D01*
X359416Y236462D01*
X359341Y236574D01*
X359257Y236705D01*
X359172Y236846D01*
X359098Y237005D01*
X359022Y237183D01*
X358957Y237371D01*
X358910Y237568D01*
X358863Y237774D01*
X358835Y237989D01*
X358826Y238224D01*
Y238233D01*
Y238261D01*
Y238317D01*
X358835Y238383D01*
X358844Y238458D01*
X358854Y238552D01*
X358863Y238655D01*
X358882Y238767D01*
X358938Y239020D01*
X359022Y239283D01*
X359079Y239414D01*
X359144Y239545D01*
X359210Y239667D01*
X359294Y239789D01*
X359304Y239798D01*
X359313Y239817D01*
X359341Y239845D01*
X359379Y239892D01*
X359435Y239948D01*
X359491Y240004D01*
X359566Y240070D01*
X359641Y240136D01*
X359735Y240211D01*
X359838Y240276D01*
X359950Y240351D01*
X360072Y240426D01*
X360203Y240492D01*
X360344Y240548D01*
X360494Y240604D01*
X360653Y240651D01*
X360644D01*
X360625Y240660D01*
X360578Y240679D01*
X360532Y240698D01*
X360475Y240726D01*
X360400Y240764D01*
X360241Y240848D01*
X360063Y240960D01*
X359875Y241092D01*
X359707Y241242D01*
X359557Y241420D01*
Y241429D01*
X359538Y241438D01*
X359529Y241467D01*
X359501Y241504D01*
X359472Y241560D01*
X359444Y241616D01*
X359388Y241757D01*
X359322Y241926D01*
X359266Y242132D01*
X359229Y242357D01*
X359210Y242610D01*
Y242619D01*
Y242657D01*
X359219Y242713D01*
Y242788D01*
X359229Y242872D01*
X359247Y242976D01*
X359276Y243097D01*
X359304Y243229D01*
X359341Y243360D01*
X359397Y243500D01*
X359454Y243650D01*
X359529Y243800D01*
X359613Y243941D01*
X359716Y244091D01*
X359828Y244231D01*
X359960Y244372D01*
X359969Y244381D01*
X359997Y244400D01*
X360035Y244438D01*
X360100Y244485D01*
X360175Y244541D01*
X360260Y244597D01*
X360372Y244663D01*
X360494Y244738D01*
X360625Y244803D01*
X360775Y244869D01*
X360944Y244925D01*
X361122Y244981D01*
X361319Y245028D01*
X361516Y245066D01*
X361740Y245084D01*
X361965Y245094D01*
X362087D01*
X362172Y245084D01*
D02*
G37*
G36*
X367133Y184497D02*
X367124Y184487D01*
X367096Y184450D01*
X367040Y184394D01*
X366974Y184319D01*
X366890Y184216D01*
X366796Y184103D01*
X366684Y183963D01*
X366562Y183803D01*
X366431Y183625D01*
X366281Y183428D01*
X366130Y183213D01*
X365971Y182979D01*
X365812Y182735D01*
X365643Y182472D01*
X365475Y182191D01*
X365306Y181891D01*
X365296Y181873D01*
X365268Y181816D01*
X365221Y181732D01*
X365156Y181610D01*
X365081Y181470D01*
X364996Y181292D01*
X364903Y181095D01*
X364800Y180870D01*
X364687Y180626D01*
X364575Y180373D01*
X364453Y180092D01*
X364340Y179811D01*
X364228Y179511D01*
X364115Y179201D01*
X364012Y178883D01*
X363919Y178564D01*
Y178555D01*
X363900Y178508D01*
X363881Y178442D01*
X363862Y178358D01*
X363834Y178245D01*
X363797Y178105D01*
X363769Y177955D01*
X363731Y177786D01*
X363694Y177599D01*
X363656Y177393D01*
X363619Y177177D01*
X363581Y176943D01*
X363544Y176708D01*
X363516Y176455D01*
X363469Y175930D01*
X362260D01*
Y175940D01*
Y175987D01*
X362269Y176043D01*
Y176127D01*
X362278Y176240D01*
X362288Y176371D01*
X362307Y176521D01*
X362325Y176689D01*
X362344Y176886D01*
X362372Y177093D01*
X362410Y177318D01*
X362457Y177552D01*
X362503Y177814D01*
X362560Y178077D01*
X362625Y178367D01*
X362700Y178658D01*
Y178667D01*
X362710Y178676D01*
X362719Y178733D01*
X362747Y178817D01*
X362775Y178930D01*
X362822Y179080D01*
X362878Y179248D01*
X362934Y179436D01*
X363009Y179651D01*
X363094Y179876D01*
X363187Y180120D01*
X363281Y180382D01*
X363394Y180645D01*
X363637Y181198D01*
X363919Y181760D01*
X363928Y181779D01*
X363956Y181826D01*
X364003Y181901D01*
X364059Y182013D01*
X364134Y182135D01*
X364218Y182285D01*
X364322Y182454D01*
X364434Y182632D01*
X364556Y182829D01*
X364687Y183035D01*
X364968Y183457D01*
X365287Y183878D01*
X365446Y184084D01*
X365615Y184281D01*
X360919D01*
Y185415D01*
X367133D01*
Y184497D01*
D02*
G37*
G36*
X357817Y175930D02*
X356636D01*
Y183438D01*
X356627D01*
X356617Y183419D01*
X356589Y183400D01*
X356561Y183372D01*
X356467Y183288D01*
X356336Y183185D01*
X356177Y183063D01*
X355980Y182922D01*
X355755Y182772D01*
X355511Y182622D01*
X355502D01*
X355483Y182604D01*
X355446Y182585D01*
X355399Y182557D01*
X355333Y182519D01*
X355268Y182482D01*
X355099Y182397D01*
X354911Y182304D01*
X354705Y182201D01*
X354490Y182107D01*
X354284Y182022D01*
Y183157D01*
X354293Y183166D01*
X354330Y183175D01*
X354377Y183204D01*
X354452Y183241D01*
X354537Y183288D01*
X354630Y183344D01*
X354743Y183400D01*
X354865Y183475D01*
X355136Y183635D01*
X355427Y183832D01*
X355718Y184047D01*
X356008Y184281D01*
X356017Y184291D01*
X356036Y184310D01*
X356083Y184347D01*
X356130Y184394D01*
X356186Y184459D01*
X356261Y184525D01*
X356336Y184609D01*
X356421Y184694D01*
X356589Y184891D01*
X356758Y185106D01*
X356917Y185340D01*
X356992Y185453D01*
X357048Y185575D01*
X357817D01*
Y175930D01*
D02*
G37*
G36*
X335915Y245084D02*
X336018Y245075D01*
X336131Y245056D01*
X336253Y245037D01*
X336393Y245019D01*
X336684Y244934D01*
X336843Y244888D01*
X336993Y244822D01*
X337153Y244756D01*
X337303Y244663D01*
X337453Y244569D01*
X337593Y244456D01*
X337602Y244447D01*
X337621Y244428D01*
X337659Y244391D01*
X337705Y244344D01*
X337762Y244278D01*
X337827Y244194D01*
X337902Y244100D01*
X337977Y243997D01*
X338052Y243885D01*
X338127Y243744D01*
X338193Y243603D01*
X338268Y243444D01*
X338334Y243276D01*
X338380Y243097D01*
X338427Y242910D01*
X338465Y242704D01*
X337293Y242610D01*
Y242619D01*
X337284Y242638D01*
X337274Y242676D01*
X337265Y242722D01*
X337246Y242779D01*
X337228Y242844D01*
X337181Y242994D01*
X337115Y243163D01*
X337040Y243332D01*
X336946Y243491D01*
X336843Y243622D01*
X336834Y243632D01*
X336824Y243641D01*
X336796Y243669D01*
X336759Y243697D01*
X336712Y243744D01*
X336656Y243782D01*
X336515Y243875D01*
X336347Y243969D01*
X336140Y244053D01*
X335915Y244110D01*
X335793Y244119D01*
X335662Y244128D01*
X335569D01*
X335466Y244110D01*
X335325Y244091D01*
X335175Y244053D01*
X335006Y243997D01*
X334837Y243913D01*
X334669Y243810D01*
X334660D01*
X334641Y243791D01*
X334613Y243772D01*
X334575Y243735D01*
X334481Y243641D01*
X334350Y243510D01*
X334210Y243341D01*
X334060Y243135D01*
X333919Y242901D01*
X333788Y242619D01*
Y242610D01*
X333778Y242582D01*
X333760Y242535D01*
X333741Y242479D01*
X333713Y242394D01*
X333685Y242301D01*
X333657Y242179D01*
X333629Y242048D01*
X333600Y241898D01*
X333572Y241738D01*
X333544Y241551D01*
X333516Y241354D01*
X333497Y241138D01*
X333479Y240904D01*
X333469Y240660D01*
X333460Y240398D01*
X333469Y240407D01*
X333479Y240426D01*
X333507Y240464D01*
X333535Y240501D01*
X333572Y240557D01*
X333629Y240623D01*
X333750Y240764D01*
X333900Y240923D01*
X334078Y241082D01*
X334275Y241232D01*
X334500Y241363D01*
X334510D01*
X334528Y241373D01*
X334566Y241392D01*
X334603Y241410D01*
X334669Y241438D01*
X334734Y241467D01*
X334809Y241495D01*
X334894Y241523D01*
X335091Y241579D01*
X335306Y241635D01*
X335541Y241673D01*
X335793Y241682D01*
X335850D01*
X335906Y241673D01*
X335990D01*
X336093Y241654D01*
X336215Y241635D01*
X336347Y241607D01*
X336487Y241570D01*
X336637Y241523D01*
X336806Y241467D01*
X336965Y241401D01*
X337134Y241317D01*
X337312Y241213D01*
X337481Y241101D01*
X337640Y240960D01*
X337799Y240811D01*
X337809Y240801D01*
X337837Y240773D01*
X337874Y240717D01*
X337930Y240651D01*
X337996Y240567D01*
X338062Y240464D01*
X338137Y240342D01*
X338221Y240201D01*
X338296Y240051D01*
X338371Y239883D01*
X338437Y239695D01*
X338502Y239498D01*
X338559Y239283D01*
X338596Y239058D01*
X338624Y238824D01*
X338633Y238570D01*
Y238561D01*
Y238533D01*
Y238486D01*
X338624Y238421D01*
Y238336D01*
X338615Y238242D01*
X338605Y238139D01*
X338587Y238017D01*
X338540Y237755D01*
X338465Y237474D01*
X338371Y237183D01*
X338240Y236883D01*
Y236874D01*
X338221Y236846D01*
X338202Y236808D01*
X338165Y236761D01*
X338127Y236696D01*
X338080Y236621D01*
X337959Y236452D01*
X337799Y236255D01*
X337621Y236059D01*
X337406Y235871D01*
X337162Y235702D01*
X337153D01*
X337134Y235684D01*
X337096Y235665D01*
X337040Y235637D01*
X336974Y235609D01*
X336899Y235571D01*
X336815Y235534D01*
X336712Y235496D01*
X336609Y235459D01*
X336487Y235421D01*
X336225Y235356D01*
X335934Y235309D01*
X335775Y235299D01*
X335616Y235290D01*
X335550D01*
X335475Y235299D01*
X335372Y235309D01*
X335250Y235327D01*
X335100Y235346D01*
X334941Y235384D01*
X334763Y235421D01*
X334575Y235478D01*
X334388Y235552D01*
X334182Y235637D01*
X333985Y235749D01*
X333778Y235871D01*
X333582Y236012D01*
X333394Y236180D01*
X333216Y236368D01*
X333207Y236377D01*
X333179Y236424D01*
X333132Y236480D01*
X333075Y236574D01*
X333000Y236696D01*
X332925Y236846D01*
X332841Y237015D01*
X332757Y237221D01*
X332663Y237455D01*
X332579Y237717D01*
X332504Y238008D01*
X332438Y238336D01*
X332373Y238683D01*
X332326Y239076D01*
X332298Y239489D01*
X332288Y239939D01*
Y239948D01*
Y239967D01*
Y240004D01*
Y240061D01*
Y240126D01*
X332298Y240201D01*
Y240295D01*
X332307Y240398D01*
Y240501D01*
X332316Y240623D01*
X332344Y240885D01*
X332373Y241176D01*
X332419Y241485D01*
X332466Y241813D01*
X332541Y242151D01*
X332616Y242488D01*
X332719Y242826D01*
X332832Y243144D01*
X332972Y243454D01*
X333132Y243735D01*
X333310Y243988D01*
X333319Y243997D01*
X333347Y244035D01*
X333404Y244091D01*
X333479Y244156D01*
X333563Y244241D01*
X333675Y244335D01*
X333806Y244438D01*
X333947Y244541D01*
X334116Y244644D01*
X334294Y244747D01*
X334491Y244841D01*
X334706Y244925D01*
X334941Y244991D01*
X335184Y245047D01*
X335447Y245084D01*
X335728Y245094D01*
X335840D01*
X335915Y245084D01*
D02*
G37*
G36*
X329317Y235449D02*
X328136D01*
Y242957D01*
X328127D01*
X328117Y242938D01*
X328089Y242919D01*
X328061Y242891D01*
X327967Y242807D01*
X327836Y242704D01*
X327677Y242582D01*
X327480Y242441D01*
X327255Y242291D01*
X327011Y242141D01*
X327002D01*
X326983Y242123D01*
X326946Y242104D01*
X326899Y242076D01*
X326833Y242038D01*
X326768Y242001D01*
X326599Y241916D01*
X326412Y241823D01*
X326205Y241720D01*
X325990Y241626D01*
X325784Y241542D01*
Y242676D01*
X325793Y242685D01*
X325830Y242694D01*
X325877Y242722D01*
X325952Y242760D01*
X326037Y242807D01*
X326130Y242863D01*
X326243Y242919D01*
X326365Y242994D01*
X326637Y243154D01*
X326927Y243350D01*
X327218Y243566D01*
X327508Y243800D01*
X327518Y243810D01*
X327536Y243828D01*
X327583Y243866D01*
X327630Y243913D01*
X327686Y243978D01*
X327761Y244044D01*
X327836Y244128D01*
X327921Y244213D01*
X328089Y244410D01*
X328258Y244625D01*
X328417Y244859D01*
X328492Y244972D01*
X328549Y245094D01*
X329317D01*
Y235449D01*
D02*
G37*
G36*
X342758Y184450D02*
X338906D01*
X338391Y181854D01*
X338400Y181863D01*
X338428Y181882D01*
X338475Y181910D01*
X338541Y181948D01*
X338616Y181994D01*
X338719Y182051D01*
X338822Y182097D01*
X338944Y182163D01*
X339075Y182219D01*
X339216Y182266D01*
X339525Y182369D01*
X339684Y182407D01*
X339853Y182435D01*
X340031Y182454D01*
X340209Y182463D01*
X340265D01*
X340331Y182454D01*
X340425D01*
X340528Y182435D01*
X340659Y182416D01*
X340800Y182388D01*
X340950Y182351D01*
X341109Y182304D01*
X341287Y182248D01*
X341465Y182182D01*
X341643Y182097D01*
X341821Y181994D01*
X341999Y181882D01*
X342168Y181741D01*
X342337Y181591D01*
X342346Y181582D01*
X342374Y181554D01*
X342421Y181498D01*
X342477Y181432D01*
X342543Y181348D01*
X342609Y181245D01*
X342693Y181123D01*
X342777Y180982D01*
X342852Y180832D01*
X342937Y180664D01*
X343002Y180476D01*
X343077Y180279D01*
X343124Y180064D01*
X343171Y179839D01*
X343199Y179595D01*
X343208Y179342D01*
Y179323D01*
Y179286D01*
X343199Y179220D01*
Y179126D01*
X343190Y179014D01*
X343171Y178883D01*
X343143Y178733D01*
X343115Y178573D01*
X343068Y178405D01*
X343021Y178217D01*
X342955Y178030D01*
X342880Y177842D01*
X342796Y177655D01*
X342693Y177458D01*
X342571Y177271D01*
X342440Y177093D01*
X342430Y177083D01*
X342393Y177046D01*
X342346Y176989D01*
X342271Y176915D01*
X342177Y176821D01*
X342065Y176727D01*
X341934Y176624D01*
X341784Y176511D01*
X341606Y176399D01*
X341418Y176296D01*
X341212Y176202D01*
X340987Y176108D01*
X340743Y176033D01*
X340490Y175977D01*
X340209Y175940D01*
X339919Y175930D01*
X339862D01*
X339797Y175940D01*
X339703D01*
X339591Y175949D01*
X339459Y175968D01*
X339319Y175996D01*
X339159Y176024D01*
X338991Y176062D01*
X338822Y176108D01*
X338644Y176165D01*
X338456Y176240D01*
X338278Y176324D01*
X338100Y176418D01*
X337932Y176530D01*
X337772Y176661D01*
X337763Y176671D01*
X337735Y176699D01*
X337697Y176736D01*
X337641Y176793D01*
X337575Y176868D01*
X337510Y176961D01*
X337425Y177064D01*
X337351Y177177D01*
X337266Y177308D01*
X337182Y177458D01*
X337107Y177617D01*
X337032Y177796D01*
X336966Y177983D01*
X336910Y178180D01*
X336863Y178386D01*
X336835Y178611D01*
X338072Y178714D01*
Y178705D01*
X338082Y178676D01*
X338091Y178630D01*
X338100Y178564D01*
X338119Y178489D01*
X338138Y178405D01*
X338203Y178199D01*
X338288Y177983D01*
X338391Y177758D01*
X338531Y177533D01*
X338616Y177439D01*
X338700Y177346D01*
X338710Y177336D01*
X338728Y177327D01*
X338756Y177308D01*
X338794Y177280D01*
X338841Y177243D01*
X338897Y177205D01*
X339047Y177121D01*
X339225Y177036D01*
X339431Y176971D01*
X339666Y176915D01*
X339787Y176905D01*
X339919Y176896D01*
X340003D01*
X340059Y176905D01*
X340134Y176915D01*
X340219Y176933D01*
X340312Y176952D01*
X340415Y176980D01*
X340650Y177055D01*
X340762Y177102D01*
X340884Y177167D01*
X341006Y177243D01*
X341128Y177327D01*
X341250Y177421D01*
X341362Y177533D01*
X341371Y177542D01*
X341390Y177561D01*
X341418Y177599D01*
X341456Y177655D01*
X341503Y177711D01*
X341549Y177796D01*
X341606Y177889D01*
X341662Y177992D01*
X341709Y178105D01*
X341765Y178236D01*
X341812Y178377D01*
X341859Y178527D01*
X341896Y178686D01*
X341924Y178864D01*
X341943Y179042D01*
X341953Y179239D01*
Y179248D01*
Y179286D01*
Y179333D01*
X341943Y179408D01*
X341934Y179492D01*
X341924Y179586D01*
X341906Y179698D01*
X341878Y179820D01*
X341812Y180073D01*
X341765Y180204D01*
X341709Y180336D01*
X341643Y180467D01*
X341568Y180598D01*
X341484Y180720D01*
X341381Y180832D01*
X341371Y180842D01*
X341353Y180860D01*
X341325Y180889D01*
X341278Y180926D01*
X341221Y180973D01*
X341156Y181020D01*
X341072Y181076D01*
X340987Y181132D01*
X340884Y181179D01*
X340771Y181235D01*
X340650Y181282D01*
X340518Y181329D01*
X340368Y181367D01*
X340219Y181395D01*
X340059Y181413D01*
X339891Y181423D01*
X339797D01*
X339740Y181413D01*
X339684D01*
X339544Y181395D01*
X339384Y181357D01*
X339216Y181310D01*
X339038Y181245D01*
X338859Y181160D01*
X338850D01*
X338841Y181151D01*
X338784Y181113D01*
X338700Y181057D01*
X338606Y180982D01*
X338485Y180879D01*
X338372Y180767D01*
X338250Y180635D01*
X338147Y180495D01*
X337041Y180635D01*
X337969Y185575D01*
X342758D01*
Y184450D01*
D02*
G37*
G36*
X333817Y176090D02*
X332636D01*
Y183597D01*
X332627D01*
X332617Y183578D01*
X332589Y183560D01*
X332561Y183531D01*
X332467Y183447D01*
X332336Y183344D01*
X332177Y183222D01*
X331980Y183082D01*
X331755Y182932D01*
X331511Y182782D01*
X331502D01*
X331483Y182763D01*
X331446Y182744D01*
X331399Y182716D01*
X331333Y182679D01*
X331268Y182641D01*
X331099Y182557D01*
X330912Y182463D01*
X330705Y182360D01*
X330490Y182266D01*
X330284Y182182D01*
Y183316D01*
X330293Y183325D01*
X330331Y183335D01*
X330377Y183363D01*
X330452Y183400D01*
X330537Y183447D01*
X330630Y183503D01*
X330743Y183560D01*
X330865Y183635D01*
X331137Y183794D01*
X331427Y183991D01*
X331718Y184206D01*
X332008Y184441D01*
X332018Y184450D01*
X332036Y184469D01*
X332083Y184506D01*
X332130Y184553D01*
X332186Y184619D01*
X332261Y184684D01*
X332336Y184769D01*
X332421Y184853D01*
X332589Y185050D01*
X332758Y185266D01*
X332917Y185500D01*
X332992Y185612D01*
X333049Y185734D01*
X333817D01*
Y176090D01*
D02*
G37*
G36*
X315303Y238664D02*
X316596D01*
Y237586D01*
X315303D01*
Y235290D01*
X314122D01*
Y237586D01*
X309951D01*
Y238664D01*
X314337Y244897D01*
X315303D01*
Y238664D01*
D02*
G37*
G36*
X307317Y235290D02*
X306136D01*
Y242798D01*
X306127D01*
X306117Y242779D01*
X306089Y242760D01*
X306061Y242732D01*
X305967Y242647D01*
X305836Y242544D01*
X305677Y242423D01*
X305480Y242282D01*
X305255Y242132D01*
X305011Y241982D01*
X305002D01*
X304983Y241963D01*
X304946Y241945D01*
X304899Y241916D01*
X304833Y241879D01*
X304768Y241842D01*
X304599Y241757D01*
X304412Y241663D01*
X304205Y241560D01*
X303990Y241467D01*
X303784Y241382D01*
Y242516D01*
X303793Y242526D01*
X303831Y242535D01*
X303877Y242563D01*
X303952Y242601D01*
X304037Y242647D01*
X304130Y242704D01*
X304243Y242760D01*
X304365Y242835D01*
X304636Y242994D01*
X304927Y243191D01*
X305218Y243407D01*
X305508Y243641D01*
X305518Y243650D01*
X305536Y243669D01*
X305583Y243707D01*
X305630Y243754D01*
X305686Y243819D01*
X305761Y243885D01*
X305836Y243969D01*
X305921Y244053D01*
X306089Y244250D01*
X306258Y244466D01*
X306417Y244700D01*
X306492Y244813D01*
X306549Y244934D01*
X307317D01*
Y235290D01*
D02*
G37*
G36*
X314484Y185725D02*
X314559D01*
X314634Y185715D01*
X314728Y185706D01*
X314831Y185697D01*
X315056Y185650D01*
X315290Y185593D01*
X315543Y185509D01*
X315796Y185397D01*
X315806D01*
X315825Y185378D01*
X315862Y185359D01*
X315909Y185331D01*
X315965Y185303D01*
X316021Y185256D01*
X316171Y185153D01*
X316340Y185022D01*
X316509Y184862D01*
X316668Y184675D01*
X316809Y184469D01*
Y184459D01*
X316827Y184441D01*
X316846Y184413D01*
X316865Y184366D01*
X316893Y184319D01*
X316921Y184253D01*
X316987Y184094D01*
X317052Y183916D01*
X317109Y183700D01*
X317146Y183475D01*
X317165Y183232D01*
Y183222D01*
Y183204D01*
Y183175D01*
X317155Y183129D01*
Y183072D01*
X317146Y183007D01*
X317127Y182857D01*
X317080Y182679D01*
X317024Y182491D01*
X316940Y182294D01*
X316827Y182097D01*
Y182088D01*
X316809Y182079D01*
X316790Y182051D01*
X316762Y182013D01*
X316687Y181919D01*
X316574Y181807D01*
X316434Y181676D01*
X316265Y181544D01*
X316068Y181413D01*
X315834Y181292D01*
X315843D01*
X315871Y181282D01*
X315918Y181273D01*
X315975Y181254D01*
X316049Y181226D01*
X316124Y181198D01*
X316321Y181113D01*
X316528Y181010D01*
X316752Y180860D01*
X316968Y180692D01*
X317062Y180588D01*
X317155Y180476D01*
X317165Y180467D01*
X317174Y180448D01*
X317202Y180410D01*
X317230Y180364D01*
X317268Y180307D01*
X317305Y180232D01*
X317352Y180148D01*
X317399Y180054D01*
X317437Y179942D01*
X317484Y179829D01*
X317521Y179698D01*
X317558Y179567D01*
X317615Y179267D01*
X317624Y179098D01*
X317633Y178930D01*
Y178920D01*
Y178873D01*
X317624Y178808D01*
Y178723D01*
X317605Y178611D01*
X317587Y178489D01*
X317558Y178349D01*
X317521Y178189D01*
X317474Y178030D01*
X317409Y177861D01*
X317334Y177683D01*
X317249Y177505D01*
X317137Y177327D01*
X317015Y177139D01*
X316874Y176971D01*
X316715Y176802D01*
X316705Y176793D01*
X316677Y176765D01*
X316621Y176718D01*
X316546Y176671D01*
X316462Y176596D01*
X316349Y176530D01*
X316227Y176446D01*
X316078Y176371D01*
X315918Y176287D01*
X315740Y176202D01*
X315553Y176137D01*
X315347Y176071D01*
X315131Y176015D01*
X314897Y175968D01*
X314653Y175940D01*
X314391Y175930D01*
X314334D01*
X314269Y175940D01*
X314184D01*
X314072Y175949D01*
X313950Y175968D01*
X313809Y175996D01*
X313650Y176024D01*
X313491Y176062D01*
X313322Y176118D01*
X313144Y176174D01*
X312975Y176249D01*
X312797Y176333D01*
X312619Y176437D01*
X312450Y176549D01*
X312291Y176680D01*
X312282Y176689D01*
X312254Y176718D01*
X312216Y176755D01*
X312160Y176821D01*
X312094Y176896D01*
X312019Y176980D01*
X311944Y177083D01*
X311860Y177205D01*
X311776Y177336D01*
X311691Y177486D01*
X311616Y177645D01*
X311541Y177824D01*
X311476Y178011D01*
X311419Y178208D01*
X311373Y178414D01*
X311344Y178639D01*
X312525Y178798D01*
Y178789D01*
X312535Y178752D01*
X312544Y178705D01*
X312563Y178630D01*
X312582Y178555D01*
X312610Y178452D01*
X312647Y178349D01*
X312685Y178236D01*
X312778Y178002D01*
X312900Y177758D01*
X313041Y177533D01*
X313125Y177439D01*
X313210Y177346D01*
X313219D01*
X313228Y177327D01*
X313256Y177308D01*
X313294Y177280D01*
X313341Y177243D01*
X313397Y177205D01*
X313538Y177130D01*
X313716Y177046D01*
X313922Y176971D01*
X314147Y176924D01*
X314269Y176915D01*
X314400Y176905D01*
X314484D01*
X314541Y176915D01*
X314615Y176924D01*
X314690Y176933D01*
X314784Y176952D01*
X314887Y176980D01*
X315112Y177046D01*
X315225Y177093D01*
X315347Y177149D01*
X315468Y177214D01*
X315581Y177289D01*
X315693Y177374D01*
X315806Y177477D01*
X315815Y177486D01*
X315834Y177505D01*
X315862Y177533D01*
X315900Y177580D01*
X315937Y177636D01*
X315984Y177702D01*
X316040Y177777D01*
X316096Y177871D01*
X316143Y177964D01*
X316199Y178077D01*
X316293Y178320D01*
X316321Y178452D01*
X316349Y178592D01*
X316368Y178742D01*
X316378Y178902D01*
Y178911D01*
Y178939D01*
Y178976D01*
X316368Y179042D01*
X316359Y179108D01*
X316349Y179192D01*
X316331Y179276D01*
X316312Y179380D01*
X316246Y179586D01*
X316209Y179698D01*
X316153Y179811D01*
X316087Y179923D01*
X316021Y180036D01*
X315937Y180139D01*
X315843Y180242D01*
X315834Y180251D01*
X315815Y180261D01*
X315787Y180289D01*
X315749Y180326D01*
X315693Y180364D01*
X315628Y180410D01*
X315562Y180457D01*
X315478Y180504D01*
X315384Y180551D01*
X315281Y180598D01*
X315047Y180682D01*
X314784Y180748D01*
X314644Y180757D01*
X314494Y180767D01*
X314437D01*
X314362Y180757D01*
X314269Y180748D01*
X314147Y180739D01*
X314006Y180720D01*
X313847Y180682D01*
X313669Y180645D01*
X313800Y181676D01*
X313819D01*
X313866Y181666D01*
X313931Y181657D01*
X314062D01*
X314119Y181666D01*
X314184D01*
X314259Y181676D01*
X314344Y181695D01*
X314437Y181704D01*
X314653Y181751D01*
X314878Y181826D01*
X315112Y181919D01*
X315347Y182051D01*
X315356Y182060D01*
X315375Y182069D01*
X315403Y182088D01*
X315440Y182126D01*
X315487Y182163D01*
X315543Y182219D01*
X315590Y182276D01*
X315656Y182351D01*
X315712Y182426D01*
X315759Y182519D01*
X315815Y182622D01*
X315862Y182726D01*
X315900Y182847D01*
X315928Y182979D01*
X315946Y183110D01*
X315956Y183260D01*
Y183269D01*
Y183288D01*
Y183325D01*
X315946Y183372D01*
Y183428D01*
X315937Y183494D01*
X315900Y183644D01*
X315853Y183813D01*
X315768Y183991D01*
X315665Y184169D01*
X315590Y184253D01*
X315515Y184338D01*
X315506Y184347D01*
X315497Y184356D01*
X315468Y184375D01*
X315440Y184403D01*
X315337Y184478D01*
X315206Y184553D01*
X315047Y184628D01*
X314850Y184703D01*
X314625Y184750D01*
X314512Y184769D01*
X314315D01*
X314269Y184759D01*
X314203D01*
X314137Y184750D01*
X313978Y184713D01*
X313791Y184666D01*
X313603Y184581D01*
X313406Y184478D01*
X313313Y184403D01*
X313228Y184328D01*
X313219Y184319D01*
X313210Y184310D01*
X313181Y184281D01*
X313153Y184244D01*
X313116Y184206D01*
X313078Y184150D01*
X313032Y184084D01*
X312985Y184009D01*
X312938Y183916D01*
X312882Y183822D01*
X312835Y183719D01*
X312788Y183597D01*
X312750Y183475D01*
X312703Y183335D01*
X312675Y183194D01*
X312647Y183035D01*
X311466Y183241D01*
Y183250D01*
X311476Y183297D01*
X311494Y183354D01*
X311513Y183438D01*
X311541Y183531D01*
X311579Y183653D01*
X311616Y183775D01*
X311672Y183916D01*
X311729Y184056D01*
X311804Y184206D01*
X311879Y184366D01*
X311972Y184516D01*
X312066Y184666D01*
X312179Y184816D01*
X312310Y184947D01*
X312441Y185078D01*
X312450Y185087D01*
X312479Y185106D01*
X312516Y185134D01*
X312582Y185181D01*
X312657Y185228D01*
X312741Y185284D01*
X312853Y185350D01*
X312966Y185406D01*
X313097Y185472D01*
X313247Y185528D01*
X313406Y185584D01*
X313575Y185631D01*
X313753Y185678D01*
X313941Y185706D01*
X314147Y185725D01*
X314353Y185734D01*
X314428D01*
X314484Y185725D01*
D02*
G37*
G36*
X308317Y176090D02*
X307136D01*
Y183597D01*
X307127D01*
X307117Y183578D01*
X307089Y183560D01*
X307061Y183531D01*
X306967Y183447D01*
X306836Y183344D01*
X306677Y183222D01*
X306480Y183082D01*
X306255Y182932D01*
X306011Y182782D01*
X306002D01*
X305983Y182763D01*
X305946Y182744D01*
X305899Y182716D01*
X305833Y182679D01*
X305768Y182641D01*
X305599Y182557D01*
X305412Y182463D01*
X305205Y182360D01*
X304990Y182266D01*
X304784Y182182D01*
Y183316D01*
X304793Y183325D01*
X304830Y183335D01*
X304877Y183363D01*
X304952Y183400D01*
X305037Y183447D01*
X305130Y183503D01*
X305243Y183560D01*
X305365Y183635D01*
X305637Y183794D01*
X305927Y183991D01*
X306218Y184206D01*
X306508Y184441D01*
X306518Y184450D01*
X306536Y184469D01*
X306583Y184506D01*
X306630Y184553D01*
X306686Y184619D01*
X306761Y184684D01*
X306836Y184769D01*
X306921Y184853D01*
X307089Y185050D01*
X307258Y185266D01*
X307417Y185500D01*
X307492Y185612D01*
X307549Y185734D01*
X308317D01*
Y176090D01*
D02*
G37*
G36*
X288653Y244925D02*
X288756D01*
X288869Y244916D01*
X289000Y244897D01*
X289150Y244869D01*
X289318Y244841D01*
X289487Y244794D01*
X289665Y244747D01*
X289853Y244681D01*
X290031Y244606D01*
X290218Y244522D01*
X290387Y244419D01*
X290555Y244297D01*
X290715Y244166D01*
X290724Y244156D01*
X290752Y244128D01*
X290790Y244091D01*
X290837Y244025D01*
X290902Y243950D01*
X290968Y243866D01*
X291043Y243763D01*
X291118Y243641D01*
X291193Y243510D01*
X291268Y243360D01*
X291334Y243210D01*
X291399Y243041D01*
X291446Y242863D01*
X291483Y242666D01*
X291511Y242469D01*
X291521Y242263D01*
Y242254D01*
Y242235D01*
Y242207D01*
Y242169D01*
X291511Y242113D01*
Y242057D01*
X291493Y241907D01*
X291465Y241738D01*
X291418Y241542D01*
X291362Y241335D01*
X291277Y241129D01*
Y241120D01*
X291268Y241101D01*
X291249Y241073D01*
X291230Y241035D01*
X291202Y240979D01*
X291174Y240923D01*
X291090Y240773D01*
X290987Y240604D01*
X290846Y240398D01*
X290687Y240182D01*
X290490Y239958D01*
X290480Y239948D01*
X290462Y239929D01*
X290434Y239892D01*
X290387Y239845D01*
X290321Y239779D01*
X290256Y239704D01*
X290162Y239620D01*
X290059Y239517D01*
X289946Y239405D01*
X289806Y239273D01*
X289665Y239133D01*
X289496Y238983D01*
X289318Y238824D01*
X289121Y238645D01*
X288906Y238467D01*
X288681Y238270D01*
X288672Y238261D01*
X288634Y238233D01*
X288578Y238186D01*
X288512Y238130D01*
X288428Y238055D01*
X288334Y237971D01*
X288109Y237783D01*
X287884Y237586D01*
X287659Y237390D01*
X287556Y237296D01*
X287463Y237202D01*
X287378Y237127D01*
X287313Y237061D01*
X287303Y237052D01*
X287266Y237005D01*
X287209Y236940D01*
X287134Y236865D01*
X287059Y236761D01*
X286975Y236658D01*
X286891Y236546D01*
X286816Y236424D01*
X291530D01*
Y235290D01*
X285185D01*
Y235299D01*
Y235309D01*
Y235365D01*
Y235440D01*
X285194Y235552D01*
X285213Y235674D01*
X285232Y235815D01*
X285269Y235956D01*
X285316Y236105D01*
Y236115D01*
X285326Y236133D01*
X285344Y236171D01*
X285363Y236218D01*
X285391Y236274D01*
X285419Y236340D01*
X285504Y236508D01*
X285616Y236705D01*
X285747Y236921D01*
X285907Y237146D01*
X286094Y237380D01*
X286103Y237390D01*
X286122Y237408D01*
X286150Y237446D01*
X286197Y237493D01*
X286254Y237549D01*
X286319Y237624D01*
X286394Y237708D01*
X286488Y237802D01*
X286591Y237896D01*
X286703Y238008D01*
X286835Y238130D01*
X286966Y238261D01*
X287116Y238392D01*
X287275Y238533D01*
X287453Y238683D01*
X287631Y238833D01*
X287650Y238852D01*
X287697Y238889D01*
X287781Y238955D01*
X287884Y239048D01*
X288016Y239151D01*
X288156Y239283D01*
X288316Y239423D01*
X288484Y239573D01*
X288840Y239901D01*
X289187Y240239D01*
X289347Y240407D01*
X289496Y240576D01*
X289637Y240726D01*
X289750Y240876D01*
X289759Y240885D01*
X289778Y240914D01*
X289806Y240951D01*
X289834Y241007D01*
X289881Y241073D01*
X289928Y241148D01*
X289974Y241242D01*
X290031Y241335D01*
X290134Y241551D01*
X290228Y241785D01*
X290256Y241916D01*
X290284Y242038D01*
X290303Y242169D01*
X290312Y242291D01*
Y242301D01*
Y242320D01*
Y242357D01*
X290303Y242413D01*
X290293Y242469D01*
X290284Y242535D01*
X290246Y242704D01*
X290190Y242891D01*
X290096Y243088D01*
X290040Y243182D01*
X289974Y243285D01*
X289899Y243379D01*
X289806Y243472D01*
X289796Y243482D01*
X289787Y243491D01*
X289750Y243519D01*
X289712Y243547D01*
X289665Y243585D01*
X289599Y243622D01*
X289534Y243669D01*
X289450Y243716D01*
X289365Y243763D01*
X289262Y243810D01*
X289037Y243885D01*
X288784Y243941D01*
X288643Y243950D01*
X288494Y243960D01*
X288409D01*
X288353Y243950D01*
X288278Y243941D01*
X288194Y243932D01*
X288100Y243913D01*
X288006Y243894D01*
X287781Y243838D01*
X287556Y243744D01*
X287444Y243688D01*
X287331Y243613D01*
X287228Y243538D01*
X287125Y243444D01*
X287116Y243435D01*
X287106Y243425D01*
X287078Y243388D01*
X287050Y243350D01*
X287013Y243304D01*
X286966Y243238D01*
X286919Y243163D01*
X286872Y243079D01*
X286825Y242985D01*
X286778Y242882D01*
X286741Y242760D01*
X286694Y242638D01*
X286666Y242507D01*
X286638Y242357D01*
X286628Y242207D01*
X286619Y242038D01*
X285410Y242160D01*
Y242179D01*
X285419Y242216D01*
X285429Y242291D01*
X285438Y242385D01*
X285466Y242498D01*
X285494Y242629D01*
X285532Y242769D01*
X285569Y242929D01*
X285625Y243088D01*
X285691Y243257D01*
X285766Y243425D01*
X285851Y243603D01*
X285954Y243772D01*
X286066Y243932D01*
X286197Y244081D01*
X286338Y244222D01*
X286347Y244231D01*
X286375Y244250D01*
X286422Y244288D01*
X286488Y244335D01*
X286572Y244391D01*
X286666Y244447D01*
X286788Y244513D01*
X286919Y244578D01*
X287069Y244644D01*
X287228Y244709D01*
X287406Y244766D01*
X287603Y244822D01*
X287809Y244869D01*
X288034Y244906D01*
X288269Y244925D01*
X288522Y244934D01*
X288587D01*
X288653Y244925D01*
D02*
G37*
G36*
X282317Y235290D02*
X281136D01*
Y242798D01*
X281127D01*
X281117Y242779D01*
X281089Y242760D01*
X281061Y242732D01*
X280967Y242647D01*
X280836Y242544D01*
X280677Y242423D01*
X280480Y242282D01*
X280255Y242132D01*
X280011Y241982D01*
X280002D01*
X279983Y241963D01*
X279946Y241945D01*
X279899Y241916D01*
X279833Y241879D01*
X279768Y241842D01*
X279599Y241757D01*
X279412Y241663D01*
X279205Y241560D01*
X278990Y241467D01*
X278783Y241382D01*
Y242516D01*
X278793Y242526D01*
X278830Y242535D01*
X278877Y242563D01*
X278952Y242601D01*
X279037Y242647D01*
X279130Y242704D01*
X279243Y242760D01*
X279365Y242835D01*
X279636Y242994D01*
X279927Y243191D01*
X280217Y243407D01*
X280508Y243641D01*
X280518Y243650D01*
X280536Y243669D01*
X280583Y243707D01*
X280630Y243754D01*
X280686Y243819D01*
X280761Y243885D01*
X280836Y243969D01*
X280921Y244053D01*
X281089Y244250D01*
X281258Y244466D01*
X281417Y244700D01*
X281492Y244813D01*
X281549Y244934D01*
X282317D01*
Y235290D01*
D02*
G37*
G36*
X290778Y175930D02*
X289597D01*
Y183438D01*
X289587D01*
X289578Y183419D01*
X289550Y183400D01*
X289522Y183372D01*
X289428Y183288D01*
X289297Y183185D01*
X289137Y183063D01*
X288941Y182922D01*
X288716Y182772D01*
X288472Y182622D01*
X288463D01*
X288444Y182604D01*
X288406Y182585D01*
X288360Y182557D01*
X288294Y182519D01*
X288228Y182482D01*
X288060Y182397D01*
X287872Y182304D01*
X287666Y182201D01*
X287450Y182107D01*
X287244Y182022D01*
Y183157D01*
X287254Y183166D01*
X287291Y183175D01*
X287338Y183204D01*
X287413Y183241D01*
X287497Y183288D01*
X287591Y183344D01*
X287703Y183400D01*
X287825Y183475D01*
X288097Y183635D01*
X288388Y183832D01*
X288678Y184047D01*
X288969Y184281D01*
X288978Y184291D01*
X288997Y184310D01*
X289044Y184347D01*
X289091Y184394D01*
X289147Y184459D01*
X289222Y184525D01*
X289297Y184609D01*
X289381Y184694D01*
X289550Y184891D01*
X289718Y185106D01*
X289878Y185340D01*
X289953Y185453D01*
X290009Y185575D01*
X290778D01*
Y175930D01*
D02*
G37*
G36*
X283317D02*
X282136D01*
Y183438D01*
X282127D01*
X282117Y183419D01*
X282089Y183400D01*
X282061Y183372D01*
X281967Y183288D01*
X281836Y183185D01*
X281677Y183063D01*
X281480Y182922D01*
X281255Y182772D01*
X281011Y182622D01*
X281002D01*
X280983Y182604D01*
X280946Y182585D01*
X280899Y182557D01*
X280833Y182519D01*
X280768Y182482D01*
X280599Y182397D01*
X280412Y182304D01*
X280205Y182201D01*
X279990Y182107D01*
X279784Y182022D01*
Y183157D01*
X279793Y183166D01*
X279830Y183175D01*
X279877Y183204D01*
X279952Y183241D01*
X280037Y183288D01*
X280130Y183344D01*
X280243Y183400D01*
X280365Y183475D01*
X280637Y183635D01*
X280927Y183832D01*
X281218Y184047D01*
X281508Y184281D01*
X281518Y184291D01*
X281536Y184310D01*
X281583Y184347D01*
X281630Y184394D01*
X281686Y184459D01*
X281761Y184525D01*
X281836Y184609D01*
X281921Y184694D01*
X282089Y184891D01*
X282258Y185106D01*
X282417Y185340D01*
X282492Y185453D01*
X282549Y185575D01*
X283317D01*
Y175930D01*
D02*
G37*
G36*
X255458Y235449D02*
X254277D01*
Y242957D01*
X254267D01*
X254258Y242938D01*
X254230Y242919D01*
X254202Y242891D01*
X254108Y242807D01*
X253977Y242704D01*
X253817Y242582D01*
X253621Y242441D01*
X253396Y242291D01*
X253152Y242141D01*
X253143D01*
X253124Y242123D01*
X253086Y242104D01*
X253039Y242076D01*
X252974Y242038D01*
X252908Y242001D01*
X252740Y241916D01*
X252552Y241823D01*
X252346Y241720D01*
X252130Y241626D01*
X251924Y241542D01*
Y242676D01*
X251933Y242685D01*
X251971Y242694D01*
X252018Y242722D01*
X252093Y242760D01*
X252177Y242807D01*
X252271Y242863D01*
X252383Y242919D01*
X252505Y242994D01*
X252777Y243154D01*
X253068Y243350D01*
X253358Y243566D01*
X253649Y243800D01*
X253658Y243810D01*
X253677Y243828D01*
X253724Y243866D01*
X253771Y243913D01*
X253827Y243978D01*
X253902Y244044D01*
X253977Y244128D01*
X254061Y244213D01*
X254230Y244410D01*
X254398Y244625D01*
X254558Y244859D01*
X254633Y244972D01*
X254689Y245094D01*
X255458D01*
Y235449D01*
D02*
G37*
G36*
X261803Y245084D02*
X261878Y245075D01*
X261972Y245066D01*
X262065Y245056D01*
X262271Y245019D01*
X262496Y244963D01*
X262731Y244878D01*
X262956Y244775D01*
X262965D01*
X262984Y244756D01*
X263012Y244747D01*
X263059Y244719D01*
X263162Y244644D01*
X263302Y244550D01*
X263452Y244419D01*
X263612Y244269D01*
X263771Y244081D01*
X263921Y243875D01*
Y243866D01*
X263940Y243847D01*
X263959Y243819D01*
X263987Y243772D01*
X264015Y243716D01*
X264052Y243650D01*
X264090Y243566D01*
X264137Y243482D01*
X264184Y243379D01*
X264230Y243276D01*
X264324Y243032D01*
X264427Y242751D01*
X264512Y242451D01*
Y242441D01*
X264521Y242413D01*
X264530Y242366D01*
X264549Y242301D01*
X264568Y242216D01*
X264587Y242113D01*
X264605Y241991D01*
X264624Y241851D01*
X264643Y241701D01*
X264662Y241523D01*
X264680Y241345D01*
X264699Y241138D01*
X264718Y240923D01*
X264727Y240689D01*
X264736Y240445D01*
Y240182D01*
Y240164D01*
Y240107D01*
Y240023D01*
X264727Y239901D01*
Y239761D01*
X264718Y239592D01*
X264708Y239414D01*
X264690Y239208D01*
X264671Y238992D01*
X264652Y238777D01*
X264587Y238317D01*
X264502Y237868D01*
X264446Y237661D01*
X264380Y237455D01*
Y237446D01*
X264362Y237408D01*
X264343Y237352D01*
X264315Y237286D01*
X264277Y237193D01*
X264230Y237099D01*
X264184Y236986D01*
X264118Y236865D01*
X263977Y236611D01*
X263799Y236340D01*
X263584Y236087D01*
X263462Y235965D01*
X263340Y235852D01*
X263331Y235843D01*
X263312Y235824D01*
X263274Y235796D01*
X263218Y235768D01*
X263153Y235721D01*
X263068Y235674D01*
X262974Y235627D01*
X262871Y235571D01*
X262750Y235515D01*
X262618Y235468D01*
X262478Y235421D01*
X262318Y235374D01*
X262159Y235346D01*
X261981Y235318D01*
X261803Y235299D01*
X261606Y235290D01*
X261540D01*
X261475Y235299D01*
X261372Y235309D01*
X261259Y235318D01*
X261119Y235346D01*
X260969Y235374D01*
X260809Y235412D01*
X260641Y235468D01*
X260463Y235534D01*
X260275Y235609D01*
X260097Y235702D01*
X259919Y235815D01*
X259741Y235946D01*
X259572Y236105D01*
X259422Y236274D01*
X259413Y236293D01*
X259385Y236330D01*
X259338Y236405D01*
X259272Y236508D01*
X259207Y236640D01*
X259122Y236799D01*
X259038Y236996D01*
X258954Y237221D01*
X258860Y237474D01*
X258776Y237764D01*
X258691Y238083D01*
X258626Y238430D01*
X258560Y238824D01*
X258513Y239236D01*
X258485Y239695D01*
X258476Y240182D01*
Y240192D01*
Y240201D01*
Y240257D01*
Y240351D01*
X258485Y240464D01*
Y240614D01*
X258494Y240773D01*
X258504Y240960D01*
X258522Y241167D01*
X258541Y241382D01*
X258560Y241607D01*
X258626Y242057D01*
X258710Y242516D01*
X258766Y242722D01*
X258822Y242929D01*
Y242938D01*
X258841Y242976D01*
X258860Y243032D01*
X258888Y243097D01*
X258925Y243191D01*
X258972Y243285D01*
X259019Y243397D01*
X259085Y243519D01*
X259225Y243782D01*
X259403Y244044D01*
X259619Y244297D01*
X259741Y244419D01*
X259863Y244531D01*
X259872Y244541D01*
X259891Y244559D01*
X259938Y244588D01*
X259985Y244616D01*
X260060Y244663D01*
X260135Y244709D01*
X260238Y244756D01*
X260341Y244813D01*
X260463Y244869D01*
X260594Y244916D01*
X260734Y244963D01*
X260894Y245009D01*
X261053Y245037D01*
X261231Y245066D01*
X261409Y245084D01*
X261606Y245094D01*
X261737D01*
X261803Y245084D01*
D02*
G37*
G36*
X259677Y185725D02*
X259762Y185715D01*
X259855Y185706D01*
X259968Y185697D01*
X260080Y185669D01*
X260352Y185612D01*
X260633Y185518D01*
X260783Y185462D01*
X260933Y185397D01*
X261083Y185322D01*
X261233Y185228D01*
X261243Y185219D01*
X261271Y185209D01*
X261308Y185172D01*
X261364Y185134D01*
X261430Y185078D01*
X261505Y185022D01*
X261580Y184947D01*
X261674Y184862D01*
X261767Y184759D01*
X261861Y184656D01*
X261964Y184534D01*
X262058Y184403D01*
X262152Y184263D01*
X262245Y184113D01*
X262339Y183953D01*
X262414Y183785D01*
X262423Y183775D01*
X262433Y183738D01*
X262452Y183691D01*
X262480Y183616D01*
X262508Y183513D01*
X262545Y183400D01*
X262583Y183260D01*
X262620Y183100D01*
X262658Y182922D01*
X262686Y182716D01*
X262723Y182500D01*
X262752Y182257D01*
X262780Y181994D01*
X262798Y181713D01*
X262817Y181404D01*
Y181085D01*
Y181076D01*
Y181066D01*
Y181038D01*
Y181001D01*
Y180907D01*
X262808Y180785D01*
Y180626D01*
X262798Y180448D01*
X262780Y180251D01*
X262770Y180026D01*
X262742Y179801D01*
X262723Y179558D01*
X262648Y179070D01*
X262602Y178827D01*
X262545Y178592D01*
X262489Y178367D01*
X262414Y178152D01*
Y178142D01*
X262395Y178105D01*
X262377Y178049D01*
X262339Y177974D01*
X262292Y177880D01*
X262245Y177777D01*
X262189Y177664D01*
X262114Y177533D01*
X261945Y177271D01*
X261739Y176989D01*
X261505Y176727D01*
X261364Y176605D01*
X261224Y176493D01*
X261214Y176483D01*
X261186Y176465D01*
X261149Y176437D01*
X261083Y176408D01*
X261008Y176362D01*
X260914Y176315D01*
X260811Y176268D01*
X260699Y176211D01*
X260568Y176155D01*
X260427Y176108D01*
X260277Y176062D01*
X260108Y176015D01*
X259940Y175987D01*
X259762Y175958D01*
X259574Y175940D01*
X259377Y175930D01*
X259265D01*
X259190Y175940D01*
X259096Y175949D01*
X258984Y175968D01*
X258853Y175987D01*
X258721Y176005D01*
X258431Y176080D01*
X258271Y176127D01*
X258121Y176193D01*
X257962Y176258D01*
X257812Y176343D01*
X257672Y176437D01*
X257531Y176549D01*
X257522Y176558D01*
X257503Y176577D01*
X257465Y176615D01*
X257418Y176661D01*
X257362Y176727D01*
X257297Y176811D01*
X257231Y176896D01*
X257156Y177008D01*
X257081Y177121D01*
X257006Y177261D01*
X256940Y177402D01*
X256875Y177561D01*
X256809Y177730D01*
X256753Y177917D01*
X256716Y178114D01*
X256678Y178320D01*
X257812Y178424D01*
Y178414D01*
X257822Y178386D01*
X257831Y178349D01*
X257840Y178292D01*
X257859Y178227D01*
X257878Y178152D01*
X257934Y177974D01*
X258009Y177786D01*
X258103Y177589D01*
X258215Y177411D01*
X258281Y177327D01*
X258356Y177252D01*
X258365D01*
X258375Y177233D01*
X258431Y177196D01*
X258515Y177139D01*
X258637Y177074D01*
X258787Y177008D01*
X258965Y176952D01*
X259171Y176915D01*
X259396Y176896D01*
X259490D01*
X259593Y176905D01*
X259724Y176924D01*
X259865Y176952D01*
X260033Y176999D01*
X260193Y177055D01*
X260352Y177139D01*
X260361D01*
X260371Y177149D01*
X260418Y177186D01*
X260493Y177243D01*
X260586Y177318D01*
X260699Y177411D01*
X260811Y177524D01*
X260914Y177655D01*
X261018Y177805D01*
Y177814D01*
X261027Y177824D01*
X261046Y177852D01*
X261064Y177880D01*
X261111Y177974D01*
X261168Y178105D01*
X261243Y178264D01*
X261318Y178461D01*
X261392Y178676D01*
X261458Y178930D01*
Y178939D01*
X261467Y178958D01*
X261477Y179005D01*
X261486Y179051D01*
X261496Y179117D01*
X261514Y179192D01*
X261533Y179276D01*
X261552Y179380D01*
X261580Y179595D01*
X261608Y179839D01*
X261627Y180101D01*
X261636Y180373D01*
Y180392D01*
Y180439D01*
Y180504D01*
Y180598D01*
X261617Y180579D01*
X261599Y180551D01*
X261571Y180514D01*
X261496Y180410D01*
X261383Y180279D01*
X261243Y180139D01*
X261074Y179989D01*
X260877Y179839D01*
X260661Y179698D01*
X260652D01*
X260633Y179679D01*
X260605Y179670D01*
X260558Y179642D01*
X260502Y179614D01*
X260427Y179586D01*
X260352Y179558D01*
X260268Y179529D01*
X260071Y179464D01*
X259846Y179408D01*
X259602Y179370D01*
X259340Y179351D01*
X259284D01*
X259227Y179361D01*
X259143D01*
X259040Y179380D01*
X258918Y179398D01*
X258787Y179426D01*
X258646Y179464D01*
X258487Y179501D01*
X258328Y179558D01*
X258159Y179632D01*
X257990Y179717D01*
X257822Y179811D01*
X257653Y179932D01*
X257484Y180064D01*
X257325Y180214D01*
X257315Y180223D01*
X257287Y180251D01*
X257250Y180307D01*
X257194Y180373D01*
X257137Y180457D01*
X257062Y180560D01*
X256987Y180682D01*
X256912Y180823D01*
X256837Y180973D01*
X256762Y181151D01*
X256687Y181338D01*
X256631Y181535D01*
X256575Y181760D01*
X256537Y181985D01*
X256509Y182229D01*
X256500Y182491D01*
Y182510D01*
Y182557D01*
X256509Y182632D01*
Y182735D01*
X256528Y182857D01*
X256547Y182997D01*
X256575Y183157D01*
X256603Y183335D01*
X256650Y183513D01*
X256706Y183710D01*
X256781Y183906D01*
X256856Y184103D01*
X256959Y184300D01*
X257072Y184487D01*
X257203Y184675D01*
X257353Y184844D01*
X257362Y184853D01*
X257390Y184881D01*
X257437Y184928D01*
X257512Y184984D01*
X257597Y185050D01*
X257690Y185125D01*
X257812Y185209D01*
X257943Y185294D01*
X258093Y185369D01*
X258262Y185453D01*
X258440Y185528D01*
X258628Y185593D01*
X258834Y185650D01*
X259049Y185697D01*
X259284Y185725D01*
X259518Y185734D01*
X259612D01*
X259677Y185725D01*
D02*
G37*
G36*
X232270Y245084D02*
X232383Y245075D01*
X232505Y245056D01*
X232636Y245028D01*
X232786Y245000D01*
X232945Y244963D01*
X233114Y244916D01*
X233283Y244859D01*
X233451Y244784D01*
X233620Y244700D01*
X233779Y244606D01*
X233939Y244494D01*
X234089Y244363D01*
X234098Y244353D01*
X234126Y244325D01*
X234164Y244288D01*
X234210Y244231D01*
X234267Y244166D01*
X234332Y244072D01*
X234398Y243978D01*
X234473Y243866D01*
X234548Y243744D01*
X234613Y243603D01*
X234679Y243463D01*
X234735Y243304D01*
X234782Y243135D01*
X234829Y242957D01*
X234848Y242779D01*
X234857Y242582D01*
Y242572D01*
Y242554D01*
Y242516D01*
X234848Y242469D01*
Y242413D01*
X234839Y242338D01*
X234810Y242179D01*
X234773Y242001D01*
X234707Y241804D01*
X234623Y241607D01*
X234501Y241410D01*
Y241401D01*
X234482Y241392D01*
X234435Y241326D01*
X234351Y241242D01*
X234239Y241129D01*
X234089Y241007D01*
X233911Y240885D01*
X233695Y240764D01*
X233442Y240651D01*
X233451D01*
X233479Y240642D01*
X233526Y240623D01*
X233582Y240595D01*
X233657Y240567D01*
X233742Y240529D01*
X233939Y240426D01*
X234154Y240295D01*
X234379Y240136D01*
X234595Y239948D01*
X234688Y239836D01*
X234782Y239723D01*
X234792Y239714D01*
X234801Y239695D01*
X234829Y239658D01*
X234857Y239611D01*
X234895Y239545D01*
X234932Y239480D01*
X234970Y239386D01*
X235016Y239292D01*
X235063Y239189D01*
X235101Y239067D01*
X235176Y238814D01*
X235232Y238514D01*
X235242Y238364D01*
X235251Y238195D01*
Y238186D01*
Y238139D01*
X235242Y238074D01*
Y237989D01*
X235223Y237886D01*
X235204Y237764D01*
X235176Y237624D01*
X235138Y237474D01*
X235091Y237314D01*
X235035Y237146D01*
X234970Y236977D01*
X234885Y236799D01*
X234782Y236621D01*
X234670Y236452D01*
X234529Y236283D01*
X234379Y236124D01*
X234370Y236115D01*
X234342Y236087D01*
X234286Y236049D01*
X234220Y235993D01*
X234135Y235927D01*
X234032Y235862D01*
X233901Y235787D01*
X233770Y235712D01*
X233611Y235627D01*
X233433Y235552D01*
X233245Y235487D01*
X233039Y235421D01*
X232823Y235365D01*
X232589Y235327D01*
X232345Y235299D01*
X232083Y235290D01*
X232017D01*
X231942Y235299D01*
X231849D01*
X231727Y235318D01*
X231586Y235337D01*
X231427Y235356D01*
X231258Y235393D01*
X231080Y235440D01*
X230893Y235496D01*
X230705Y235562D01*
X230518Y235646D01*
X230321Y235740D01*
X230133Y235852D01*
X229955Y235974D01*
X229787Y236124D01*
X229777Y236133D01*
X229749Y236162D01*
X229712Y236208D01*
X229655Y236274D01*
X229590Y236359D01*
X229515Y236462D01*
X229440Y236574D01*
X229356Y236705D01*
X229271Y236846D01*
X229196Y237005D01*
X229121Y237183D01*
X229056Y237371D01*
X229009Y237568D01*
X228962Y237774D01*
X228934Y237989D01*
X228924Y238224D01*
Y238233D01*
Y238261D01*
Y238317D01*
X228934Y238383D01*
X228943Y238458D01*
X228953Y238552D01*
X228962Y238655D01*
X228981Y238767D01*
X229037Y239020D01*
X229121Y239283D01*
X229177Y239414D01*
X229243Y239545D01*
X229309Y239667D01*
X229393Y239789D01*
X229402Y239798D01*
X229412Y239817D01*
X229440Y239845D01*
X229477Y239892D01*
X229534Y239948D01*
X229590Y240004D01*
X229665Y240070D01*
X229740Y240136D01*
X229834Y240211D01*
X229937Y240276D01*
X230049Y240351D01*
X230171Y240426D01*
X230302Y240492D01*
X230443Y240548D01*
X230593Y240604D01*
X230752Y240651D01*
X230743D01*
X230724Y240660D01*
X230677Y240679D01*
X230630Y240698D01*
X230574Y240726D01*
X230499Y240764D01*
X230340Y240848D01*
X230161Y240960D01*
X229974Y241092D01*
X229805Y241242D01*
X229655Y241420D01*
Y241429D01*
X229637Y241438D01*
X229627Y241467D01*
X229599Y241504D01*
X229571Y241560D01*
X229543Y241616D01*
X229487Y241757D01*
X229421Y241926D01*
X229365Y242132D01*
X229327Y242357D01*
X229309Y242610D01*
Y242619D01*
Y242657D01*
X229318Y242713D01*
Y242788D01*
X229327Y242872D01*
X229346Y242976D01*
X229374Y243097D01*
X229402Y243229D01*
X229440Y243360D01*
X229496Y243500D01*
X229552Y243650D01*
X229627Y243800D01*
X229712Y243941D01*
X229815Y244091D01*
X229927Y244231D01*
X230058Y244372D01*
X230068Y244381D01*
X230096Y244400D01*
X230133Y244438D01*
X230199Y244485D01*
X230274Y244541D01*
X230358Y244597D01*
X230471Y244663D01*
X230593Y244738D01*
X230724Y244803D01*
X230874Y244869D01*
X231043Y244925D01*
X231221Y244981D01*
X231418Y245028D01*
X231614Y245066D01*
X231839Y245084D01*
X232064Y245094D01*
X232186D01*
X232270Y245084D01*
D02*
G37*
G36*
X237714Y184497D02*
X237705Y184487D01*
X237677Y184450D01*
X237620Y184394D01*
X237555Y184319D01*
X237470Y184216D01*
X237377Y184103D01*
X237264Y183963D01*
X237142Y183803D01*
X237011Y183625D01*
X236861Y183428D01*
X236711Y183213D01*
X236552Y182979D01*
X236392Y182735D01*
X236224Y182472D01*
X236055Y182191D01*
X235886Y181891D01*
X235877Y181873D01*
X235849Y181816D01*
X235802Y181732D01*
X235736Y181610D01*
X235661Y181470D01*
X235577Y181292D01*
X235483Y181095D01*
X235380Y180870D01*
X235268Y180626D01*
X235155Y180373D01*
X235033Y180092D01*
X234921Y179811D01*
X234809Y179511D01*
X234696Y179201D01*
X234593Y178883D01*
X234499Y178564D01*
Y178555D01*
X234480Y178508D01*
X234462Y178442D01*
X234443Y178358D01*
X234415Y178245D01*
X234377Y178105D01*
X234349Y177955D01*
X234312Y177786D01*
X234274Y177599D01*
X234237Y177393D01*
X234199Y177177D01*
X234162Y176943D01*
X234124Y176708D01*
X234096Y176455D01*
X234049Y175930D01*
X232840D01*
Y175940D01*
Y175987D01*
X232850Y176043D01*
Y176127D01*
X232859Y176240D01*
X232868Y176371D01*
X232887Y176521D01*
X232906Y176689D01*
X232925Y176886D01*
X232953Y177093D01*
X232990Y177318D01*
X233037Y177552D01*
X233084Y177814D01*
X233140Y178077D01*
X233206Y178367D01*
X233281Y178658D01*
Y178667D01*
X233290Y178676D01*
X233300Y178733D01*
X233328Y178817D01*
X233356Y178930D01*
X233403Y179080D01*
X233459Y179248D01*
X233515Y179436D01*
X233590Y179651D01*
X233674Y179876D01*
X233768Y180120D01*
X233862Y180382D01*
X233974Y180645D01*
X234218Y181198D01*
X234499Y181760D01*
X234509Y181779D01*
X234537Y181826D01*
X234584Y181901D01*
X234640Y182013D01*
X234715Y182135D01*
X234799Y182285D01*
X234902Y182454D01*
X235015Y182632D01*
X235137Y182829D01*
X235268Y183035D01*
X235549Y183457D01*
X235868Y183878D01*
X236027Y184084D01*
X236196Y184281D01*
X231500D01*
Y185415D01*
X237714D01*
Y184497D01*
D02*
G37*
G36*
X207966Y245084D02*
X208069Y245075D01*
X208181Y245056D01*
X208303Y245037D01*
X208444Y245019D01*
X208734Y244934D01*
X208894Y244888D01*
X209043Y244822D01*
X209203Y244756D01*
X209353Y244663D01*
X209503Y244569D01*
X209643Y244456D01*
X209653Y244447D01*
X209671Y244428D01*
X209709Y244391D01*
X209756Y244344D01*
X209812Y244278D01*
X209878Y244194D01*
X209953Y244100D01*
X210028Y243997D01*
X210103Y243885D01*
X210177Y243744D01*
X210243Y243603D01*
X210318Y243444D01*
X210384Y243276D01*
X210431Y243097D01*
X210477Y242910D01*
X210515Y242704D01*
X209343Y242610D01*
Y242619D01*
X209334Y242638D01*
X209325Y242676D01*
X209315Y242722D01*
X209296Y242779D01*
X209278Y242844D01*
X209231Y242994D01*
X209165Y243163D01*
X209090Y243332D01*
X208997Y243491D01*
X208894Y243622D01*
X208884Y243632D01*
X208875Y243641D01*
X208847Y243669D01*
X208809Y243697D01*
X208762Y243744D01*
X208706Y243782D01*
X208565Y243875D01*
X208397Y243969D01*
X208190Y244053D01*
X207966Y244110D01*
X207844Y244119D01*
X207712Y244128D01*
X207619D01*
X207516Y244110D01*
X207375Y244091D01*
X207225Y244053D01*
X207056Y243997D01*
X206888Y243913D01*
X206719Y243810D01*
X206710D01*
X206691Y243791D01*
X206663Y243772D01*
X206625Y243735D01*
X206532Y243641D01*
X206400Y243510D01*
X206260Y243341D01*
X206110Y243135D01*
X205969Y242901D01*
X205838Y242619D01*
Y242610D01*
X205829Y242582D01*
X205810Y242535D01*
X205791Y242479D01*
X205763Y242394D01*
X205735Y242301D01*
X205707Y242179D01*
X205679Y242048D01*
X205651Y241898D01*
X205622Y241738D01*
X205594Y241551D01*
X205566Y241354D01*
X205547Y241138D01*
X205529Y240904D01*
X205519Y240660D01*
X205510Y240398D01*
X205519Y240407D01*
X205529Y240426D01*
X205557Y240464D01*
X205585Y240501D01*
X205622Y240557D01*
X205679Y240623D01*
X205800Y240764D01*
X205951Y240923D01*
X206129Y241082D01*
X206325Y241232D01*
X206550Y241363D01*
X206560D01*
X206578Y241373D01*
X206616Y241392D01*
X206653Y241410D01*
X206719Y241438D01*
X206785Y241467D01*
X206860Y241495D01*
X206944Y241523D01*
X207141Y241579D01*
X207356Y241635D01*
X207591Y241673D01*
X207844Y241682D01*
X207900D01*
X207956Y241673D01*
X208041D01*
X208144Y241654D01*
X208265Y241635D01*
X208397Y241607D01*
X208537Y241570D01*
X208687Y241523D01*
X208856Y241467D01*
X209015Y241401D01*
X209184Y241317D01*
X209362Y241213D01*
X209531Y241101D01*
X209690Y240960D01*
X209849Y240811D01*
X209859Y240801D01*
X209887Y240773D01*
X209924Y240717D01*
X209981Y240651D01*
X210046Y240567D01*
X210112Y240464D01*
X210187Y240342D01*
X210271Y240201D01*
X210346Y240051D01*
X210421Y239883D01*
X210487Y239695D01*
X210552Y239498D01*
X210609Y239283D01*
X210646Y239058D01*
X210674Y238824D01*
X210684Y238570D01*
Y238561D01*
Y238533D01*
Y238486D01*
X210674Y238421D01*
Y238336D01*
X210665Y238242D01*
X210655Y238139D01*
X210637Y238017D01*
X210590Y237755D01*
X210515Y237474D01*
X210421Y237183D01*
X210290Y236883D01*
Y236874D01*
X210271Y236846D01*
X210252Y236808D01*
X210215Y236761D01*
X210177Y236696D01*
X210131Y236621D01*
X210009Y236452D01*
X209849Y236255D01*
X209671Y236059D01*
X209456Y235871D01*
X209212Y235702D01*
X209203D01*
X209184Y235684D01*
X209146Y235665D01*
X209090Y235637D01*
X209025Y235609D01*
X208950Y235571D01*
X208865Y235534D01*
X208762Y235496D01*
X208659Y235459D01*
X208537Y235421D01*
X208275Y235356D01*
X207984Y235309D01*
X207825Y235299D01*
X207666Y235290D01*
X207600D01*
X207525Y235299D01*
X207422Y235309D01*
X207300Y235327D01*
X207150Y235346D01*
X206991Y235384D01*
X206813Y235421D01*
X206625Y235478D01*
X206438Y235552D01*
X206232Y235637D01*
X206035Y235749D01*
X205829Y235871D01*
X205632Y236012D01*
X205444Y236180D01*
X205266Y236368D01*
X205257Y236377D01*
X205229Y236424D01*
X205182Y236480D01*
X205126Y236574D01*
X205051Y236696D01*
X204976Y236846D01*
X204891Y237015D01*
X204807Y237221D01*
X204713Y237455D01*
X204629Y237717D01*
X204554Y238008D01*
X204488Y238336D01*
X204423Y238683D01*
X204376Y239076D01*
X204348Y239489D01*
X204338Y239939D01*
Y239948D01*
Y239967D01*
Y240004D01*
Y240061D01*
Y240126D01*
X204348Y240201D01*
Y240295D01*
X204357Y240398D01*
Y240501D01*
X204366Y240623D01*
X204395Y240885D01*
X204423Y241176D01*
X204470Y241485D01*
X204517Y241813D01*
X204591Y242151D01*
X204666Y242488D01*
X204769Y242826D01*
X204882Y243144D01*
X205023Y243454D01*
X205182Y243735D01*
X205360Y243988D01*
X205369Y243997D01*
X205397Y244035D01*
X205454Y244091D01*
X205529Y244156D01*
X205613Y244241D01*
X205725Y244335D01*
X205857Y244438D01*
X205997Y244541D01*
X206166Y244644D01*
X206344Y244747D01*
X206541Y244841D01*
X206756Y244925D01*
X206991Y244991D01*
X207234Y245047D01*
X207497Y245084D01*
X207778Y245094D01*
X207891D01*
X207966Y245084D01*
D02*
G37*
G36*
X210424Y184450D02*
X206571D01*
X206056Y181854D01*
X206065Y181863D01*
X206093Y181882D01*
X206140Y181910D01*
X206206Y181948D01*
X206281Y181994D01*
X206384Y182051D01*
X206487Y182097D01*
X206609Y182163D01*
X206740Y182219D01*
X206881Y182266D01*
X207190Y182369D01*
X207349Y182407D01*
X207518Y182435D01*
X207696Y182454D01*
X207874Y182463D01*
X207930D01*
X207996Y182454D01*
X208090D01*
X208193Y182435D01*
X208324Y182416D01*
X208465Y182388D01*
X208615Y182351D01*
X208774Y182304D01*
X208952Y182248D01*
X209130Y182182D01*
X209308Y182097D01*
X209486Y181994D01*
X209664Y181882D01*
X209833Y181741D01*
X210002Y181591D01*
X210011Y181582D01*
X210039Y181554D01*
X210086Y181498D01*
X210142Y181432D01*
X210208Y181348D01*
X210273Y181245D01*
X210358Y181123D01*
X210442Y180982D01*
X210517Y180832D01*
X210602Y180664D01*
X210667Y180476D01*
X210742Y180279D01*
X210789Y180064D01*
X210836Y179839D01*
X210864Y179595D01*
X210873Y179342D01*
Y179323D01*
Y179286D01*
X210864Y179220D01*
Y179126D01*
X210855Y179014D01*
X210836Y178883D01*
X210808Y178733D01*
X210780Y178573D01*
X210733Y178405D01*
X210686Y178217D01*
X210620Y178030D01*
X210545Y177842D01*
X210461Y177655D01*
X210358Y177458D01*
X210236Y177271D01*
X210105Y177093D01*
X210095Y177083D01*
X210058Y177046D01*
X210011Y176989D01*
X209936Y176915D01*
X209842Y176821D01*
X209730Y176727D01*
X209599Y176624D01*
X209449Y176511D01*
X209271Y176399D01*
X209083Y176296D01*
X208877Y176202D01*
X208652Y176108D01*
X208408Y176033D01*
X208155Y175977D01*
X207874Y175940D01*
X207584Y175930D01*
X207527D01*
X207462Y175940D01*
X207368D01*
X207255Y175949D01*
X207124Y175968D01*
X206984Y175996D01*
X206824Y176024D01*
X206656Y176062D01*
X206487Y176108D01*
X206309Y176165D01*
X206122Y176240D01*
X205943Y176324D01*
X205765Y176418D01*
X205597Y176530D01*
X205437Y176661D01*
X205428Y176671D01*
X205400Y176699D01*
X205362Y176736D01*
X205306Y176793D01*
X205240Y176868D01*
X205175Y176961D01*
X205091Y177064D01*
X205016Y177177D01*
X204931Y177308D01*
X204847Y177458D01*
X204772Y177617D01*
X204697Y177796D01*
X204631Y177983D01*
X204575Y178180D01*
X204528Y178386D01*
X204500Y178611D01*
X205737Y178714D01*
Y178705D01*
X205747Y178676D01*
X205756Y178630D01*
X205765Y178564D01*
X205784Y178489D01*
X205803Y178405D01*
X205868Y178199D01*
X205953Y177983D01*
X206056Y177758D01*
X206196Y177533D01*
X206281Y177439D01*
X206365Y177346D01*
X206374Y177336D01*
X206393Y177327D01*
X206421Y177308D01*
X206459Y177280D01*
X206506Y177243D01*
X206562Y177205D01*
X206712Y177121D01*
X206890Y177036D01*
X207096Y176971D01*
X207330Y176915D01*
X207452Y176905D01*
X207584Y176896D01*
X207668D01*
X207724Y176905D01*
X207799Y176915D01*
X207883Y176933D01*
X207977Y176952D01*
X208080Y176980D01*
X208315Y177055D01*
X208427Y177102D01*
X208549Y177167D01*
X208671Y177243D01*
X208793Y177327D01*
X208915Y177421D01*
X209027Y177533D01*
X209036Y177542D01*
X209055Y177561D01*
X209083Y177599D01*
X209121Y177655D01*
X209168Y177711D01*
X209214Y177796D01*
X209271Y177889D01*
X209327Y177992D01*
X209374Y178105D01*
X209430Y178236D01*
X209477Y178377D01*
X209524Y178527D01*
X209561Y178686D01*
X209589Y178864D01*
X209608Y179042D01*
X209617Y179239D01*
Y179248D01*
Y179286D01*
Y179333D01*
X209608Y179408D01*
X209599Y179492D01*
X209589Y179586D01*
X209571Y179698D01*
X209543Y179820D01*
X209477Y180073D01*
X209430Y180204D01*
X209374Y180336D01*
X209308Y180467D01*
X209233Y180598D01*
X209149Y180720D01*
X209046Y180832D01*
X209036Y180842D01*
X209018Y180860D01*
X208990Y180889D01*
X208943Y180926D01*
X208886Y180973D01*
X208821Y181020D01*
X208736Y181076D01*
X208652Y181132D01*
X208549Y181179D01*
X208437Y181235D01*
X208315Y181282D01*
X208183Y181329D01*
X208034Y181367D01*
X207883Y181395D01*
X207724Y181413D01*
X207556Y181423D01*
X207462D01*
X207405Y181413D01*
X207349D01*
X207209Y181395D01*
X207049Y181357D01*
X206881Y181310D01*
X206703Y181245D01*
X206525Y181160D01*
X206515D01*
X206506Y181151D01*
X206450Y181113D01*
X206365Y181057D01*
X206271Y180982D01*
X206150Y180879D01*
X206037Y180767D01*
X205915Y180635D01*
X205812Y180495D01*
X204706Y180635D01*
X205634Y185575D01*
X210424D01*
Y184450D01*
D02*
G37*
G36*
X277622Y156499D02*
X279184Y156187D01*
X282934Y155249D01*
X284809Y153999D01*
X286684Y152749D01*
X286997Y152437D01*
X287622Y152124D01*
X288247Y151187D01*
X289184Y150249D01*
X291059Y146812D01*
X291997Y144937D01*
X292309Y142750D01*
Y140562D01*
Y140250D01*
X291997Y139937D01*
X291684Y139625D01*
X290747Y139312D01*
X286059D01*
X285747Y139625D01*
X285122Y139937D01*
X284809Y140562D01*
Y141500D01*
Y141812D01*
Y142125D01*
X284497Y143687D01*
X283559Y145875D01*
X281997Y147750D01*
X281684Y148062D01*
X280434Y148999D01*
X278559Y149624D01*
X276059Y149937D01*
X275122D01*
X273247Y149624D01*
X271060Y148999D01*
X268872Y147750D01*
X268560Y147437D01*
X267622Y146187D01*
X266685Y144312D01*
X266060Y142125D01*
Y141500D01*
X265747Y140250D01*
Y138062D01*
Y135250D01*
X265435Y131812D01*
Y127750D01*
X266060Y119625D01*
Y119000D01*
X266685Y117437D01*
X267310Y115562D01*
X268872Y113687D01*
X269497Y113375D01*
X270747Y112750D01*
X272935Y111812D01*
X275435Y111500D01*
X276059D01*
X277622Y111812D01*
X279809Y112437D01*
X281684Y113687D01*
X281997Y114000D01*
X283247Y115250D01*
X284184Y117125D01*
X284809Y119625D01*
Y121187D01*
Y121500D01*
X285122Y122125D01*
X285434Y122437D01*
X286372Y122750D01*
X291059D01*
X291684Y122437D01*
X291997Y122125D01*
X292309Y121187D01*
Y119312D01*
Y119000D01*
X291997Y118375D01*
Y117125D01*
X291372Y115562D01*
X289809Y111812D01*
X288559Y110250D01*
X286997Y108375D01*
X286684Y108062D01*
X286372Y107750D01*
X285122Y107125D01*
X283872Y106187D01*
X282309Y105250D01*
X280434Y104625D01*
X278247Y104312D01*
X275747Y104000D01*
X274497D01*
X273247Y104312D01*
X271685Y104625D01*
X267935Y105875D01*
X265747Y106812D01*
X263872Y108375D01*
X263560Y108687D01*
X263247Y109312D01*
X262310Y110250D01*
X261372Y111500D01*
X259810Y114937D01*
X258872Y116812D01*
X258560Y119312D01*
Y119937D01*
Y121187D01*
Y123375D01*
Y126187D01*
Y129625D01*
Y133375D01*
Y141500D01*
Y141812D01*
X258872Y142750D01*
Y143687D01*
X259497Y145250D01*
X261060Y148999D01*
X262310Y150874D01*
X263872Y152437D01*
X264185Y152749D01*
X264810Y153062D01*
X265747Y153687D01*
X267310Y154624D01*
X270747Y156187D01*
X272935Y156499D01*
X275435Y156812D01*
X276684D01*
X277622Y156499D01*
D02*
G37*
G36*
X92624Y155562D02*
X92937Y154937D01*
Y105875D01*
Y105562D01*
Y105250D01*
X92312Y104937D01*
X91687Y104625D01*
X84499D01*
X84187Y104937D01*
X83874Y105562D01*
X69187Y142125D01*
X68875Y142437D01*
X68562D01*
X68250Y142125D01*
Y105562D01*
Y105250D01*
X67937Y104937D01*
X67625Y104312D01*
X66687Y104000D01*
X62937D01*
X62625Y104312D01*
X62000Y104625D01*
X61687Y105562D01*
Y154312D01*
Y154624D01*
X62000Y155249D01*
X62312Y155562D01*
X63250Y155874D01*
X70125D01*
X70437Y155562D01*
X70750Y154937D01*
X85124Y118062D01*
X85749Y117750D01*
X86062D01*
X86687Y118062D01*
Y154937D01*
Y155249D01*
X86999Y155562D01*
X87312Y155874D01*
X88249Y156187D01*
X92312D01*
X92624Y155562D01*
D02*
G37*
G36*
X329809Y156499D02*
X331371Y156187D01*
X335121Y155249D01*
X336684Y153999D01*
X338559Y152749D01*
X338871Y152437D01*
X339184Y152124D01*
X340121Y151187D01*
X341059Y150249D01*
X342934Y146812D01*
X344184Y142750D01*
Y142437D01*
Y141812D01*
Y140875D01*
X343871Y139625D01*
X343246Y136812D01*
X341684Y133687D01*
X341371Y133062D01*
X340121Y131500D01*
X337934Y129625D01*
X335121Y128062D01*
X334809Y127750D01*
X334184Y127125D01*
X333871Y126500D01*
Y125875D01*
X334184Y125562D01*
X342934Y107125D01*
Y106812D01*
Y106500D01*
Y105562D01*
X341996Y104937D01*
X336996D01*
X336371Y105250D01*
X335434Y105562D01*
X335121Y106500D01*
X326371Y124937D01*
Y125250D01*
X325746Y125562D01*
X325121Y125875D01*
X321059Y125562D01*
X320746Y125250D01*
X320434Y124937D01*
X320121D01*
Y106500D01*
Y106187D01*
X319809Y105875D01*
X319496Y105250D01*
X318559Y104937D01*
X313872D01*
X313559Y105250D01*
X313247Y105562D01*
X312934Y106500D01*
Y155249D01*
Y155562D01*
X313247Y156187D01*
X313559Y156499D01*
X314184Y156812D01*
X328559D01*
X329809Y156499D01*
D02*
G37*
G36*
X226060D02*
X227623Y156187D01*
X231060Y155249D01*
X232935Y153999D01*
X234810Y152749D01*
X235123Y152437D01*
X235435Y152124D01*
X236373Y151187D01*
X237310Y150249D01*
X239185Y146812D01*
X239810Y144937D01*
X240123Y142750D01*
Y142437D01*
Y141812D01*
Y140875D01*
Y139625D01*
X239498Y136812D01*
X237935Y133687D01*
X237623Y133062D01*
X236373Y131500D01*
X234185Y129625D01*
X231373Y128062D01*
X231060Y127750D01*
X230435Y127125D01*
X229810Y126500D01*
Y125875D01*
X230123Y125562D01*
X239185Y107125D01*
Y106812D01*
X239498Y106500D01*
X239185Y105562D01*
X238560Y104937D01*
X233248D01*
X232935Y105250D01*
X232310Y105562D01*
X231685Y106500D01*
X223560Y124937D01*
X223248Y125250D01*
X221998Y125875D01*
X216998Y125562D01*
X216685Y125250D01*
X216373Y124937D01*
X216060D01*
Y106500D01*
Y106187D01*
X215748Y105875D01*
X215435Y105250D01*
X214498Y104937D01*
X210435D01*
X210123Y105250D01*
X209498Y105562D01*
X209185Y106500D01*
Y155249D01*
Y155562D01*
X209498Y156187D01*
X209810Y156499D01*
X210748Y156812D01*
X224810D01*
X226060Y156499D01*
D02*
G37*
G36*
X530744Y155562D02*
X531056Y154937D01*
Y150874D01*
Y150562D01*
X530744Y149937D01*
X530432Y149312D01*
X529494Y148999D01*
X512307D01*
X511994Y148687D01*
Y148375D01*
Y135250D01*
X512307D01*
X512619Y134937D01*
X529494D01*
X529807Y134625D01*
X530119Y134312D01*
X530432Y133375D01*
Y129312D01*
Y129000D01*
Y128687D01*
X529807Y128375D01*
X529182Y128062D01*
X512619D01*
X512307Y127750D01*
X511994Y127437D01*
X511369Y112437D01*
Y112125D01*
X511682Y111812D01*
X511994Y111500D01*
X512307Y111812D01*
X530432D01*
X531056Y111500D01*
X531681Y111187D01*
X531994Y110250D01*
Y105875D01*
Y105562D01*
X531681Y105250D01*
X531369Y104937D01*
X530119Y104625D01*
X505744D01*
X505119Y104937D01*
X504494Y105250D01*
X504182Y105875D01*
Y154937D01*
Y155249D01*
X504494Y155562D01*
X505119Y155874D01*
X506057Y156187D01*
X530432D01*
X530744Y155562D01*
D02*
G37*
G36*
X486370D02*
X486682Y154937D01*
Y150874D01*
Y150562D01*
X486370Y149937D01*
X486057Y149312D01*
X485120Y148999D01*
X474495D01*
X474182Y148687D01*
X473870Y148375D01*
Y147750D01*
Y146812D01*
Y144937D01*
Y142437D01*
Y138687D01*
Y136187D01*
Y133687D01*
Y130875D01*
Y127437D01*
Y105875D01*
Y105562D01*
X473557Y105250D01*
X473245Y104937D01*
X472307Y104625D01*
X468245D01*
X467932Y104937D01*
X467307Y105250D01*
X466995Y105875D01*
Y148375D01*
Y148687D01*
X466682Y148999D01*
X456370D01*
X456057Y149312D01*
X455745Y149937D01*
X455432Y150874D01*
Y154937D01*
Y155249D01*
X455745Y155562D01*
X456057Y155874D01*
X456682Y156187D01*
X486057D01*
X486370Y155562D01*
D02*
G37*
G36*
X428870Y155874D02*
X429495Y155249D01*
X443245Y105875D01*
X442933Y105250D01*
X442620Y104937D01*
X441683Y104625D01*
X437308D01*
X436370Y104937D01*
X435745Y105562D01*
X432308Y116812D01*
Y117125D01*
X431995Y117437D01*
X431683Y117750D01*
X418558D01*
X417933Y117437D01*
X417308Y116812D01*
X414495Y105562D01*
X414183Y105250D01*
X413870Y104937D01*
X412933Y104625D01*
X408245D01*
X407933Y104937D01*
X407308Y105250D01*
X406996Y105875D01*
X421058Y155249D01*
Y155562D01*
X421370Y155874D01*
X421683Y156187D01*
X428558D01*
X428870Y155874D01*
D02*
G37*
G36*
X389496Y155562D02*
X389808Y154937D01*
Y150874D01*
Y150562D01*
Y149937D01*
X389183Y149312D01*
X388558Y148999D01*
X370746D01*
X369808Y148375D01*
Y135250D01*
X370121Y134937D01*
X387308D01*
X387933Y134625D01*
X388246Y134312D01*
X388558Y133375D01*
Y129312D01*
Y129000D01*
X388246Y128687D01*
X387933Y128375D01*
X386996Y128062D01*
X370433D01*
X370121Y127750D01*
X369808Y127437D01*
Y112437D01*
X370746D01*
Y112125D01*
Y111812D01*
X371058Y111500D01*
X371371Y111812D01*
X389183D01*
X389808Y111500D01*
X390121Y111187D01*
X390433Y110250D01*
Y105875D01*
Y105562D01*
X390121Y105250D01*
X389808Y104937D01*
X388871Y104625D01*
X364184D01*
X363871Y104937D01*
X363246Y105250D01*
X362934Y105875D01*
Y154937D01*
Y155249D01*
X363246Y155562D01*
X363559Y155874D01*
X364496Y156187D01*
X389183D01*
X389496Y155562D01*
D02*
G37*
G36*
X187936D02*
X188248Y154937D01*
Y150874D01*
Y150562D01*
X187936Y149937D01*
X187623Y149312D01*
X186686Y148999D01*
X169186D01*
X168248Y148375D01*
Y135250D01*
X168561Y134937D01*
X185748D01*
X186061Y134625D01*
X186373Y134312D01*
X186686Y133375D01*
Y129312D01*
Y129000D01*
Y128687D01*
X186061Y128375D01*
X185436Y128062D01*
X168873D01*
X167623Y127437D01*
Y112437D01*
X168873D01*
Y112125D01*
Y111812D01*
Y111500D01*
X169186Y111812D01*
X186998D01*
X187623Y111500D01*
X187936Y111187D01*
X188248Y110250D01*
Y105875D01*
Y105562D01*
X187936Y105250D01*
X187623Y104937D01*
X186686Y104625D01*
X162623D01*
X162311Y104937D01*
X161686Y105250D01*
X161373Y105875D01*
Y154937D01*
Y155249D01*
X161686Y155562D01*
X161998Y155874D01*
X162936Y156187D01*
X187623D01*
X187936Y155562D01*
D02*
G37*
G36*
X142624D02*
X142936Y154937D01*
Y150874D01*
Y150562D01*
X142624Y149937D01*
X142311Y149312D01*
X141374Y148999D01*
X130436D01*
Y148687D01*
X130749D01*
Y148375D01*
Y147750D01*
Y146812D01*
Y144937D01*
Y142437D01*
Y138687D01*
Y136187D01*
Y133687D01*
Y130875D01*
Y127437D01*
Y105875D01*
Y105562D01*
X130436Y105250D01*
X130124Y104937D01*
X129186Y104625D01*
X124499D01*
X124186Y104937D01*
X123561Y105250D01*
X123249Y105875D01*
Y148375D01*
Y148687D01*
Y148999D01*
X113249D01*
X112624Y149312D01*
X111999Y149937D01*
X111686Y150874D01*
Y154937D01*
Y155249D01*
X111999Y155562D01*
X112624Y155874D01*
X113561Y156187D01*
X142311D01*
X142624Y155562D01*
D02*
G37*
G36*
X38562D02*
X38875Y154937D01*
Y105875D01*
Y105562D01*
X38562Y105250D01*
X38250Y104937D01*
X37312Y104625D01*
X33250D01*
X32625Y104937D01*
X32000Y105250D01*
Y105875D01*
Y154937D01*
Y155249D01*
Y155562D01*
X32625Y155874D01*
X33563Y156187D01*
X38250D01*
X38562Y155562D01*
D02*
G37*
G36*
X314468Y58628D02*
X314571D01*
X314683Y58619D01*
X314815Y58600D01*
X314965Y58572D01*
X315133Y58544D01*
X315302Y58497D01*
X315480Y58450D01*
X315667Y58384D01*
X315846Y58309D01*
X316033Y58225D01*
X316202Y58122D01*
X316371Y58000D01*
X316530Y57869D01*
X316539Y57859D01*
X316567Y57831D01*
X316605Y57794D01*
X316652Y57728D01*
X316717Y57653D01*
X316783Y57569D01*
X316858Y57466D01*
X316933Y57344D01*
X317008Y57213D01*
X317083Y57063D01*
X317148Y56913D01*
X317214Y56744D01*
X317261Y56566D01*
X317298Y56369D01*
X317327Y56172D01*
X317336Y55966D01*
Y55957D01*
Y55938D01*
Y55910D01*
Y55872D01*
X317327Y55816D01*
Y55760D01*
X317308Y55610D01*
X317280Y55441D01*
X317233Y55244D01*
X317176Y55038D01*
X317092Y54832D01*
Y54823D01*
X317083Y54804D01*
X317064Y54776D01*
X317045Y54738D01*
X317017Y54682D01*
X316989Y54626D01*
X316905Y54476D01*
X316802Y54307D01*
X316661Y54101D01*
X316502Y53885D01*
X316305Y53660D01*
X316296Y53651D01*
X316277Y53632D01*
X316249Y53595D01*
X316202Y53548D01*
X316136Y53482D01*
X316071Y53407D01*
X315977Y53323D01*
X315874Y53220D01*
X315761Y53108D01*
X315621Y52976D01*
X315480Y52836D01*
X315311Y52686D01*
X315133Y52526D01*
X314937Y52348D01*
X314721Y52170D01*
X314496Y51973D01*
X314487Y51964D01*
X314449Y51936D01*
X314393Y51889D01*
X314327Y51833D01*
X314243Y51758D01*
X314149Y51673D01*
X313924Y51486D01*
X313699Y51289D01*
X313474Y51092D01*
X313371Y50999D01*
X313277Y50905D01*
X313193Y50830D01*
X313128Y50764D01*
X313118Y50755D01*
X313081Y50708D01*
X313025Y50642D01*
X312950Y50567D01*
X312875Y50464D01*
X312790Y50361D01*
X312706Y50249D01*
X312631Y50127D01*
X317345D01*
Y48993D01*
X311000D01*
Y49002D01*
Y49012D01*
Y49068D01*
Y49143D01*
X311009Y49255D01*
X311028Y49377D01*
X311047Y49518D01*
X311084Y49658D01*
X311131Y49808D01*
Y49818D01*
X311141Y49837D01*
X311159Y49874D01*
X311178Y49921D01*
X311206Y49977D01*
X311234Y50043D01*
X311319Y50211D01*
X311431Y50408D01*
X311562Y50624D01*
X311722Y50849D01*
X311909Y51083D01*
X311919Y51092D01*
X311937Y51111D01*
X311965Y51149D01*
X312012Y51196D01*
X312069Y51252D01*
X312134Y51327D01*
X312209Y51411D01*
X312303Y51505D01*
X312406Y51599D01*
X312518Y51711D01*
X312650Y51833D01*
X312781Y51964D01*
X312931Y52095D01*
X313090Y52236D01*
X313268Y52386D01*
X313446Y52536D01*
X313465Y52554D01*
X313512Y52592D01*
X313596Y52658D01*
X313699Y52751D01*
X313831Y52854D01*
X313971Y52986D01*
X314130Y53126D01*
X314299Y53276D01*
X314655Y53604D01*
X315002Y53942D01*
X315161Y54110D01*
X315311Y54279D01*
X315452Y54429D01*
X315564Y54579D01*
X315574Y54588D01*
X315593Y54616D01*
X315621Y54654D01*
X315649Y54710D01*
X315696Y54776D01*
X315742Y54851D01*
X315789Y54945D01*
X315846Y55038D01*
X315949Y55254D01*
X316042Y55488D01*
X316071Y55619D01*
X316099Y55741D01*
X316117Y55872D01*
X316127Y55994D01*
Y56004D01*
Y56022D01*
Y56060D01*
X316117Y56116D01*
X316108Y56172D01*
X316099Y56238D01*
X316061Y56407D01*
X316005Y56594D01*
X315911Y56791D01*
X315855Y56885D01*
X315789Y56988D01*
X315714Y57081D01*
X315621Y57175D01*
X315611Y57185D01*
X315602Y57194D01*
X315564Y57222D01*
X315527Y57250D01*
X315480Y57288D01*
X315415Y57325D01*
X315349Y57372D01*
X315264Y57419D01*
X315180Y57466D01*
X315077Y57513D01*
X314852Y57588D01*
X314599Y57644D01*
X314459Y57653D01*
X314308Y57663D01*
X314224D01*
X314168Y57653D01*
X314093Y57644D01*
X314009Y57635D01*
X313915Y57616D01*
X313821Y57597D01*
X313596Y57541D01*
X313371Y57447D01*
X313259Y57391D01*
X313146Y57316D01*
X313043Y57241D01*
X312940Y57147D01*
X312931Y57138D01*
X312921Y57128D01*
X312893Y57091D01*
X312865Y57053D01*
X312828Y57007D01*
X312781Y56941D01*
X312734Y56866D01*
X312687Y56782D01*
X312640Y56688D01*
X312593Y56585D01*
X312556Y56463D01*
X312509Y56341D01*
X312481Y56210D01*
X312453Y56060D01*
X312443Y55910D01*
X312434Y55741D01*
X311225Y55863D01*
Y55882D01*
X311234Y55919D01*
X311244Y55994D01*
X311253Y56088D01*
X311281Y56200D01*
X311309Y56332D01*
X311347Y56472D01*
X311384Y56632D01*
X311441Y56791D01*
X311506Y56960D01*
X311581Y57128D01*
X311665Y57306D01*
X311768Y57475D01*
X311881Y57635D01*
X312012Y57784D01*
X312153Y57925D01*
X312162Y57934D01*
X312190Y57953D01*
X312237Y57991D01*
X312303Y58038D01*
X312387Y58094D01*
X312481Y58150D01*
X312603Y58216D01*
X312734Y58281D01*
X312884Y58347D01*
X313043Y58412D01*
X313221Y58469D01*
X313418Y58525D01*
X313624Y58572D01*
X313849Y58609D01*
X314084Y58628D01*
X314337Y58637D01*
X314402D01*
X314468Y58628D01*
D02*
G37*
G36*
X321938D02*
X322013Y58619D01*
X322107Y58609D01*
X322200Y58600D01*
X322406Y58562D01*
X322631Y58506D01*
X322866Y58422D01*
X323091Y58319D01*
X323100D01*
X323119Y58300D01*
X323147Y58291D01*
X323194Y58262D01*
X323297Y58187D01*
X323437Y58094D01*
X323587Y57962D01*
X323747Y57812D01*
X323906Y57625D01*
X324056Y57419D01*
Y57410D01*
X324075Y57391D01*
X324094Y57363D01*
X324122Y57316D01*
X324150Y57260D01*
X324187Y57194D01*
X324225Y57110D01*
X324272Y57025D01*
X324319Y56922D01*
X324365Y56819D01*
X324459Y56575D01*
X324562Y56294D01*
X324646Y55994D01*
Y55985D01*
X324656Y55957D01*
X324665Y55910D01*
X324684Y55844D01*
X324703Y55760D01*
X324721Y55657D01*
X324740Y55535D01*
X324759Y55394D01*
X324778Y55244D01*
X324796Y55066D01*
X324815Y54888D01*
X324834Y54682D01*
X324853Y54467D01*
X324862Y54232D01*
X324871Y53988D01*
Y53726D01*
Y53707D01*
Y53651D01*
Y53567D01*
X324862Y53445D01*
Y53304D01*
X324853Y53136D01*
X324843Y52958D01*
X324825Y52751D01*
X324806Y52536D01*
X324787Y52320D01*
X324721Y51861D01*
X324637Y51411D01*
X324581Y51205D01*
X324515Y50999D01*
Y50989D01*
X324496Y50952D01*
X324478Y50896D01*
X324450Y50830D01*
X324412Y50736D01*
X324365Y50642D01*
X324319Y50530D01*
X324253Y50408D01*
X324112Y50155D01*
X323934Y49883D01*
X323719Y49630D01*
X323597Y49508D01*
X323475Y49396D01*
X323465Y49387D01*
X323447Y49368D01*
X323409Y49340D01*
X323353Y49312D01*
X323288Y49265D01*
X323203Y49218D01*
X323109Y49171D01*
X323006Y49115D01*
X322884Y49058D01*
X322753Y49012D01*
X322613Y48965D01*
X322453Y48918D01*
X322294Y48890D01*
X322116Y48862D01*
X321938Y48843D01*
X321741Y48834D01*
X321675D01*
X321610Y48843D01*
X321507Y48852D01*
X321394Y48862D01*
X321254Y48890D01*
X321104Y48918D01*
X320944Y48955D01*
X320776Y49012D01*
X320597Y49077D01*
X320410Y49152D01*
X320232Y49246D01*
X320054Y49358D01*
X319876Y49490D01*
X319707Y49649D01*
X319557Y49818D01*
X319548Y49837D01*
X319520Y49874D01*
X319473Y49949D01*
X319407Y50052D01*
X319342Y50183D01*
X319257Y50343D01*
X319173Y50539D01*
X319088Y50764D01*
X318995Y51017D01*
X318911Y51308D01*
X318826Y51627D01*
X318761Y51973D01*
X318695Y52367D01*
X318648Y52779D01*
X318620Y53239D01*
X318610Y53726D01*
Y53735D01*
Y53745D01*
Y53801D01*
Y53895D01*
X318620Y54007D01*
Y54157D01*
X318629Y54317D01*
X318639Y54504D01*
X318657Y54710D01*
X318676Y54926D01*
X318695Y55151D01*
X318761Y55601D01*
X318845Y56060D01*
X318901Y56266D01*
X318957Y56472D01*
Y56482D01*
X318976Y56519D01*
X318995Y56575D01*
X319023Y56641D01*
X319060Y56735D01*
X319107Y56828D01*
X319154Y56941D01*
X319220Y57063D01*
X319360Y57325D01*
X319538Y57588D01*
X319754Y57841D01*
X319876Y57962D01*
X319998Y58075D01*
X320007Y58084D01*
X320026Y58103D01*
X320073Y58131D01*
X320120Y58159D01*
X320195Y58206D01*
X320270Y58253D01*
X320373Y58300D01*
X320476Y58356D01*
X320597Y58412D01*
X320729Y58459D01*
X320869Y58506D01*
X321029Y58553D01*
X321188Y58581D01*
X321366Y58609D01*
X321544Y58628D01*
X321741Y58637D01*
X321872D01*
X321938Y58628D01*
D02*
G37*
G36*
X183320Y238664D02*
X184613D01*
Y237586D01*
X183320D01*
Y235290D01*
X182139D01*
Y237586D01*
X177968D01*
Y238664D01*
X182354Y244897D01*
X183320D01*
Y238664D01*
D02*
G37*
G36*
X182640Y185725D02*
X182715D01*
X182790Y185715D01*
X182883Y185706D01*
X182987Y185697D01*
X183211Y185650D01*
X183446Y185593D01*
X183699Y185509D01*
X183952Y185397D01*
X183961D01*
X183980Y185378D01*
X184018Y185359D01*
X184065Y185331D01*
X184121Y185303D01*
X184177Y185256D01*
X184327Y185153D01*
X184496Y185022D01*
X184664Y184862D01*
X184824Y184675D01*
X184964Y184469D01*
Y184459D01*
X184983Y184441D01*
X185002Y184413D01*
X185021Y184366D01*
X185049Y184319D01*
X185077Y184253D01*
X185142Y184094D01*
X185208Y183916D01*
X185264Y183700D01*
X185302Y183475D01*
X185320Y183232D01*
Y183222D01*
Y183204D01*
Y183175D01*
X185311Y183129D01*
Y183072D01*
X185302Y183007D01*
X185283Y182857D01*
X185236Y182679D01*
X185180Y182491D01*
X185095Y182294D01*
X184983Y182097D01*
Y182088D01*
X184964Y182079D01*
X184946Y182051D01*
X184917Y182013D01*
X184842Y181919D01*
X184730Y181807D01*
X184589Y181676D01*
X184421Y181544D01*
X184224Y181413D01*
X183990Y181292D01*
X183999D01*
X184027Y181282D01*
X184074Y181273D01*
X184130Y181254D01*
X184205Y181226D01*
X184280Y181198D01*
X184477Y181113D01*
X184683Y181010D01*
X184908Y180860D01*
X185124Y180692D01*
X185217Y180588D01*
X185311Y180476D01*
X185320Y180467D01*
X185330Y180448D01*
X185358Y180410D01*
X185386Y180364D01*
X185424Y180307D01*
X185461Y180232D01*
X185508Y180148D01*
X185555Y180054D01*
X185592Y179942D01*
X185639Y179829D01*
X185676Y179698D01*
X185714Y179567D01*
X185770Y179267D01*
X185780Y179098D01*
X185789Y178930D01*
Y178920D01*
Y178873D01*
X185780Y178808D01*
Y178723D01*
X185761Y178611D01*
X185742Y178489D01*
X185714Y178349D01*
X185676Y178189D01*
X185630Y178030D01*
X185564Y177861D01*
X185489Y177683D01*
X185405Y177505D01*
X185292Y177327D01*
X185170Y177139D01*
X185030Y176971D01*
X184870Y176802D01*
X184861Y176793D01*
X184833Y176765D01*
X184777Y176718D01*
X184702Y176671D01*
X184617Y176596D01*
X184505Y176530D01*
X184383Y176446D01*
X184233Y176371D01*
X184074Y176287D01*
X183896Y176202D01*
X183708Y176137D01*
X183502Y176071D01*
X183286Y176015D01*
X183052Y175968D01*
X182808Y175940D01*
X182546Y175930D01*
X182490D01*
X182424Y175940D01*
X182340D01*
X182227Y175949D01*
X182106Y175968D01*
X181965Y175996D01*
X181806Y176024D01*
X181646Y176062D01*
X181478Y176118D01*
X181299Y176174D01*
X181131Y176249D01*
X180953Y176333D01*
X180775Y176437D01*
X180606Y176549D01*
X180447Y176680D01*
X180437Y176689D01*
X180409Y176718D01*
X180372Y176755D01*
X180315Y176821D01*
X180250Y176896D01*
X180175Y176980D01*
X180100Y177083D01*
X180016Y177205D01*
X179931Y177336D01*
X179847Y177486D01*
X179772Y177645D01*
X179697Y177824D01*
X179631Y178011D01*
X179575Y178208D01*
X179528Y178414D01*
X179500Y178639D01*
X180681Y178798D01*
Y178789D01*
X180690Y178752D01*
X180700Y178705D01*
X180718Y178630D01*
X180737Y178555D01*
X180765Y178452D01*
X180803Y178349D01*
X180840Y178236D01*
X180934Y178002D01*
X181056Y177758D01*
X181196Y177533D01*
X181281Y177439D01*
X181365Y177346D01*
X181374D01*
X181384Y177327D01*
X181412Y177308D01*
X181450Y177280D01*
X181496Y177243D01*
X181553Y177205D01*
X181693Y177130D01*
X181871Y177046D01*
X182078Y176971D01*
X182302Y176924D01*
X182424Y176915D01*
X182556Y176905D01*
X182640D01*
X182696Y176915D01*
X182771Y176924D01*
X182846Y176933D01*
X182940Y176952D01*
X183043Y176980D01*
X183268Y177046D01*
X183380Y177093D01*
X183502Y177149D01*
X183624Y177214D01*
X183736Y177289D01*
X183849Y177374D01*
X183961Y177477D01*
X183971Y177486D01*
X183990Y177505D01*
X184018Y177533D01*
X184055Y177580D01*
X184093Y177636D01*
X184139Y177702D01*
X184196Y177777D01*
X184252Y177871D01*
X184299Y177964D01*
X184355Y178077D01*
X184449Y178320D01*
X184477Y178452D01*
X184505Y178592D01*
X184524Y178742D01*
X184533Y178902D01*
Y178911D01*
Y178939D01*
Y178976D01*
X184524Y179042D01*
X184514Y179108D01*
X184505Y179192D01*
X184486Y179276D01*
X184468Y179380D01*
X184402Y179586D01*
X184364Y179698D01*
X184308Y179811D01*
X184242Y179923D01*
X184177Y180036D01*
X184093Y180139D01*
X183999Y180242D01*
X183990Y180251D01*
X183971Y180261D01*
X183943Y180289D01*
X183905Y180326D01*
X183849Y180364D01*
X183783Y180410D01*
X183718Y180457D01*
X183633Y180504D01*
X183540Y180551D01*
X183437Y180598D01*
X183202Y180682D01*
X182940Y180748D01*
X182799Y180757D01*
X182649Y180767D01*
X182593D01*
X182518Y180757D01*
X182424Y180748D01*
X182302Y180739D01*
X182162Y180720D01*
X182003Y180682D01*
X181824Y180645D01*
X181956Y181676D01*
X181974D01*
X182021Y181666D01*
X182087Y181657D01*
X182218D01*
X182274Y181666D01*
X182340D01*
X182415Y181676D01*
X182499Y181695D01*
X182593Y181704D01*
X182808Y181751D01*
X183034Y181826D01*
X183268Y181919D01*
X183502Y182051D01*
X183512Y182060D01*
X183530Y182069D01*
X183558Y182088D01*
X183596Y182126D01*
X183643Y182163D01*
X183699Y182219D01*
X183746Y182276D01*
X183811Y182351D01*
X183868Y182426D01*
X183915Y182519D01*
X183971Y182622D01*
X184018Y182726D01*
X184055Y182847D01*
X184083Y182979D01*
X184102Y183110D01*
X184111Y183260D01*
Y183269D01*
Y183288D01*
Y183325D01*
X184102Y183372D01*
Y183428D01*
X184093Y183494D01*
X184055Y183644D01*
X184008Y183813D01*
X183924Y183991D01*
X183821Y184169D01*
X183746Y184253D01*
X183671Y184338D01*
X183661Y184347D01*
X183652Y184356D01*
X183624Y184375D01*
X183596Y184403D01*
X183493Y184478D01*
X183361Y184553D01*
X183202Y184628D01*
X183005Y184703D01*
X182780Y184750D01*
X182668Y184769D01*
X182471D01*
X182424Y184759D01*
X182359D01*
X182293Y184750D01*
X182134Y184713D01*
X181946Y184666D01*
X181759Y184581D01*
X181562Y184478D01*
X181468Y184403D01*
X181384Y184328D01*
X181374Y184319D01*
X181365Y184310D01*
X181337Y184281D01*
X181309Y184244D01*
X181271Y184206D01*
X181234Y184150D01*
X181187Y184084D01*
X181140Y184009D01*
X181093Y183916D01*
X181037Y183822D01*
X180990Y183719D01*
X180943Y183597D01*
X180906Y183475D01*
X180859Y183335D01*
X180831Y183194D01*
X180803Y183035D01*
X179622Y183241D01*
Y183250D01*
X179631Y183297D01*
X179650Y183354D01*
X179669Y183438D01*
X179697Y183531D01*
X179734Y183653D01*
X179772Y183775D01*
X179828Y183916D01*
X179884Y184056D01*
X179959Y184206D01*
X180034Y184366D01*
X180128Y184516D01*
X180222Y184666D01*
X180334Y184816D01*
X180465Y184947D01*
X180597Y185078D01*
X180606Y185087D01*
X180634Y185106D01*
X180672Y185134D01*
X180737Y185181D01*
X180812Y185228D01*
X180896Y185284D01*
X181009Y185350D01*
X181122Y185406D01*
X181253Y185472D01*
X181403Y185528D01*
X181562Y185584D01*
X181731Y185631D01*
X181909Y185678D01*
X182096Y185706D01*
X182302Y185725D01*
X182509Y185734D01*
X182584D01*
X182640Y185725D01*
D02*
G37*
G36*
X156651Y244925D02*
X156755D01*
X156867Y244916D01*
X156998Y244897D01*
X157148Y244869D01*
X157317Y244841D01*
X157486Y244794D01*
X157664Y244747D01*
X157851Y244681D01*
X158029Y244606D01*
X158217Y244522D01*
X158385Y244419D01*
X158554Y244297D01*
X158714Y244166D01*
X158723Y244156D01*
X158751Y244128D01*
X158788Y244091D01*
X158835Y244025D01*
X158901Y243950D01*
X158967Y243866D01*
X159042Y243763D01*
X159116Y243641D01*
X159192Y243510D01*
X159267Y243360D01*
X159332Y243210D01*
X159398Y243041D01*
X159445Y242863D01*
X159482Y242666D01*
X159510Y242469D01*
X159520Y242263D01*
Y242254D01*
Y242235D01*
Y242207D01*
Y242169D01*
X159510Y242113D01*
Y242057D01*
X159491Y241907D01*
X159463Y241738D01*
X159416Y241542D01*
X159360Y241335D01*
X159276Y241129D01*
Y241120D01*
X159267Y241101D01*
X159248Y241073D01*
X159229Y241035D01*
X159201Y240979D01*
X159173Y240923D01*
X159088Y240773D01*
X158985Y240604D01*
X158845Y240398D01*
X158685Y240182D01*
X158489Y239958D01*
X158479Y239948D01*
X158460Y239929D01*
X158432Y239892D01*
X158385Y239845D01*
X158320Y239779D01*
X158254Y239704D01*
X158160Y239620D01*
X158057Y239517D01*
X157945Y239405D01*
X157804Y239273D01*
X157664Y239133D01*
X157495Y238983D01*
X157317Y238824D01*
X157120Y238645D01*
X156905Y238467D01*
X156680Y238270D01*
X156670Y238261D01*
X156633Y238233D01*
X156576Y238186D01*
X156511Y238130D01*
X156427Y238055D01*
X156333Y237971D01*
X156108Y237783D01*
X155883Y237586D01*
X155658Y237390D01*
X155555Y237296D01*
X155461Y237202D01*
X155377Y237127D01*
X155311Y237061D01*
X155302Y237052D01*
X155264Y237005D01*
X155208Y236940D01*
X155133Y236865D01*
X155058Y236761D01*
X154974Y236658D01*
X154889Y236546D01*
X154815Y236424D01*
X159529D01*
Y235290D01*
X153184D01*
Y235299D01*
Y235309D01*
Y235365D01*
Y235440D01*
X153193Y235552D01*
X153212Y235674D01*
X153230Y235815D01*
X153268Y235956D01*
X153315Y236105D01*
Y236115D01*
X153324Y236133D01*
X153343Y236171D01*
X153362Y236218D01*
X153390Y236274D01*
X153418Y236340D01*
X153502Y236508D01*
X153615Y236705D01*
X153746Y236921D01*
X153905Y237146D01*
X154093Y237380D01*
X154102Y237390D01*
X154121Y237408D01*
X154149Y237446D01*
X154196Y237493D01*
X154252Y237549D01*
X154318Y237624D01*
X154393Y237708D01*
X154486Y237802D01*
X154590Y237896D01*
X154702Y238008D01*
X154833Y238130D01*
X154964Y238261D01*
X155114Y238392D01*
X155274Y238533D01*
X155452Y238683D01*
X155630Y238833D01*
X155649Y238852D01*
X155695Y238889D01*
X155780Y238955D01*
X155883Y239048D01*
X156014Y239151D01*
X156155Y239283D01*
X156314Y239423D01*
X156483Y239573D01*
X156839Y239901D01*
X157186Y240239D01*
X157345Y240407D01*
X157495Y240576D01*
X157636Y240726D01*
X157748Y240876D01*
X157758Y240885D01*
X157776Y240914D01*
X157804Y240951D01*
X157832Y241007D01*
X157879Y241073D01*
X157926Y241148D01*
X157973Y241242D01*
X158029Y241335D01*
X158132Y241551D01*
X158226Y241785D01*
X158254Y241916D01*
X158282Y242038D01*
X158301Y242169D01*
X158310Y242291D01*
Y242301D01*
Y242320D01*
Y242357D01*
X158301Y242413D01*
X158292Y242469D01*
X158282Y242535D01*
X158245Y242704D01*
X158189Y242891D01*
X158095Y243088D01*
X158039Y243182D01*
X157973Y243285D01*
X157898Y243379D01*
X157804Y243472D01*
X157795Y243482D01*
X157786Y243491D01*
X157748Y243519D01*
X157711Y243547D01*
X157664Y243585D01*
X157598Y243622D01*
X157533Y243669D01*
X157448Y243716D01*
X157364Y243763D01*
X157261Y243810D01*
X157036Y243885D01*
X156783Y243941D01*
X156642Y243950D01*
X156492Y243960D01*
X156408D01*
X156352Y243950D01*
X156277Y243941D01*
X156192Y243932D01*
X156098Y243913D01*
X156005Y243894D01*
X155780Y243838D01*
X155555Y243744D01*
X155442Y243688D01*
X155330Y243613D01*
X155227Y243538D01*
X155124Y243444D01*
X155114Y243435D01*
X155105Y243425D01*
X155077Y243388D01*
X155049Y243350D01*
X155011Y243304D01*
X154964Y243238D01*
X154918Y243163D01*
X154871Y243079D01*
X154824Y242985D01*
X154777Y242882D01*
X154740Y242760D01*
X154693Y242638D01*
X154664Y242507D01*
X154636Y242357D01*
X154627Y242207D01*
X154618Y242038D01*
X153409Y242160D01*
Y242179D01*
X153418Y242216D01*
X153427Y242291D01*
X153437Y242385D01*
X153465Y242498D01*
X153493Y242629D01*
X153530Y242769D01*
X153568Y242929D01*
X153624Y243088D01*
X153690Y243257D01*
X153765Y243425D01*
X153849Y243603D01*
X153952Y243772D01*
X154065Y243932D01*
X154196Y244081D01*
X154337Y244222D01*
X154346Y244231D01*
X154374Y244250D01*
X154421Y244288D01*
X154486Y244335D01*
X154571Y244391D01*
X154664Y244447D01*
X154786Y244513D01*
X154918Y244578D01*
X155068Y244644D01*
X155227Y244709D01*
X155405Y244766D01*
X155602Y244822D01*
X155808Y244869D01*
X156033Y244906D01*
X156267Y244925D01*
X156520Y244934D01*
X156586D01*
X156651Y244925D01*
D02*
G37*
G36*
X415937Y34697D02*
X416062Y34685D01*
X416187Y34673D01*
X416337Y34648D01*
X416500Y34610D01*
X416837Y34523D01*
X417012Y34460D01*
X417200Y34385D01*
X417362Y34298D01*
X417537Y34185D01*
X417687Y34073D01*
X417837Y33935D01*
X417850Y33923D01*
X417874Y33898D01*
X417912Y33860D01*
X417949Y33798D01*
X418012Y33710D01*
X418074Y33610D01*
X418137Y33498D01*
X418212Y33360D01*
X418287Y33198D01*
X418349Y33023D01*
X418412Y32836D01*
X418474Y32623D01*
X418512Y32398D01*
X418549Y32148D01*
X418574Y31873D01*
X418587Y31586D01*
Y25212D01*
X417012D01*
Y31061D01*
Y31073D01*
Y31098D01*
Y31148D01*
Y31211D01*
Y31286D01*
X417000Y31386D01*
X416987Y31586D01*
X416975Y31798D01*
X416950Y32023D01*
X416900Y32236D01*
X416850Y32411D01*
X416837Y32436D01*
X416825Y32486D01*
X416787Y32561D01*
X416725Y32661D01*
X416650Y32761D01*
X416550Y32873D01*
X416437Y32985D01*
X416300Y33085D01*
X416287Y33098D01*
X416225Y33123D01*
X416150Y33173D01*
X416037Y33223D01*
X415900Y33260D01*
X415737Y33310D01*
X415563Y33335D01*
X415363Y33348D01*
X415263D01*
X415200Y33335D01*
X415113Y33323D01*
X415013Y33310D01*
X414788Y33260D01*
X414525Y33185D01*
X414250Y33073D01*
X414113Y32998D01*
X413988Y32910D01*
X413851Y32798D01*
X413726Y32685D01*
X413713Y32673D01*
X413700Y32661D01*
X413663Y32611D01*
X413625Y32561D01*
X413576Y32486D01*
X413526Y32411D01*
X413463Y32298D01*
X413413Y32186D01*
X413351Y32048D01*
X413288Y31886D01*
X413238Y31723D01*
X413188Y31536D01*
X413151Y31323D01*
X413113Y31098D01*
X413101Y30861D01*
X413088Y30599D01*
Y25212D01*
X411514D01*
Y31248D01*
Y31261D01*
Y31298D01*
Y31348D01*
Y31423D01*
X411501Y31511D01*
X411489Y31611D01*
X411464Y31836D01*
X411414Y32098D01*
X411351Y32361D01*
X411251Y32611D01*
X411126Y32823D01*
X411114Y32848D01*
X411051Y32910D01*
X410964Y32985D01*
X410826Y33085D01*
X410651Y33185D01*
X410439Y33260D01*
X410176Y33323D01*
X409877Y33348D01*
X409764D01*
X409639Y33335D01*
X409477Y33310D01*
X409289Y33260D01*
X409077Y33198D01*
X408852Y33110D01*
X408639Y32998D01*
X408614Y32985D01*
X408552Y32936D01*
X408452Y32848D01*
X408327Y32736D01*
X408189Y32598D01*
X408064Y32423D01*
X407939Y32211D01*
X407827Y31973D01*
Y31961D01*
X407814Y31948D01*
X407802Y31898D01*
X407789Y31848D01*
X407765Y31773D01*
X407752Y31698D01*
X407727Y31598D01*
X407702Y31473D01*
X407677Y31348D01*
X407652Y31198D01*
X407640Y31036D01*
X407615Y30861D01*
X407602Y30673D01*
X407590Y30474D01*
X407577Y30261D01*
Y30024D01*
Y25212D01*
X406003D01*
Y34498D01*
X407415D01*
Y33210D01*
X407440Y33223D01*
X407465Y33260D01*
X407490Y33310D01*
X407590Y33435D01*
X407727Y33585D01*
X407890Y33760D01*
X408089Y33948D01*
X408314Y34123D01*
X408577Y34285D01*
X408589D01*
X408614Y34298D01*
X408652Y34323D01*
X408702Y34348D01*
X408777Y34385D01*
X408852Y34423D01*
X409052Y34498D01*
X409302Y34573D01*
X409577Y34648D01*
X409889Y34697D01*
X410226Y34710D01*
X410326D01*
X410401Y34697D01*
X410489D01*
X410589Y34685D01*
X410826Y34660D01*
X411089Y34597D01*
X411376Y34523D01*
X411651Y34423D01*
X411913Y34273D01*
X411926D01*
X411939Y34248D01*
X412026Y34198D01*
X412138Y34098D01*
X412276Y33960D01*
X412426Y33798D01*
X412588Y33598D01*
X412726Y33360D01*
X412838Y33085D01*
X412851Y33098D01*
X412888Y33160D01*
X412951Y33235D01*
X413038Y33335D01*
X413151Y33460D01*
X413288Y33598D01*
X413438Y33748D01*
X413613Y33898D01*
X413813Y34048D01*
X414025Y34198D01*
X414263Y34335D01*
X414525Y34460D01*
X414788Y34560D01*
X415088Y34635D01*
X415388Y34697D01*
X415713Y34710D01*
X415850D01*
X415937Y34697D01*
D02*
G37*
G36*
X401029D02*
X401154Y34685D01*
X401279Y34673D01*
X401429Y34648D01*
X401591Y34610D01*
X401928Y34523D01*
X402104Y34460D01*
X402291Y34385D01*
X402453Y34298D01*
X402628Y34185D01*
X402778Y34073D01*
X402928Y33935D01*
X402941Y33923D01*
X402966Y33898D01*
X403003Y33860D01*
X403041Y33798D01*
X403103Y33710D01*
X403166Y33610D01*
X403228Y33498D01*
X403303Y33360D01*
X403378Y33198D01*
X403441Y33023D01*
X403503Y32836D01*
X403566Y32623D01*
X403603Y32398D01*
X403641Y32148D01*
X403666Y31873D01*
X403678Y31586D01*
Y25212D01*
X402104D01*
Y31061D01*
Y31073D01*
Y31098D01*
Y31148D01*
Y31211D01*
Y31286D01*
X402091Y31386D01*
X402079Y31586D01*
X402066Y31798D01*
X402041Y32023D01*
X401991Y32236D01*
X401941Y32411D01*
X401928Y32436D01*
X401916Y32486D01*
X401879Y32561D01*
X401816Y32661D01*
X401741Y32761D01*
X401641Y32873D01*
X401529Y32985D01*
X401391Y33085D01*
X401379Y33098D01*
X401316Y33123D01*
X401241Y33173D01*
X401129Y33223D01*
X400991Y33260D01*
X400829Y33310D01*
X400654Y33335D01*
X400454Y33348D01*
X400354D01*
X400291Y33335D01*
X400204Y33323D01*
X400104Y33310D01*
X399879Y33260D01*
X399617Y33185D01*
X399342Y33073D01*
X399204Y32998D01*
X399079Y32910D01*
X398942Y32798D01*
X398817Y32685D01*
X398804Y32673D01*
X398792Y32661D01*
X398754Y32611D01*
X398717Y32561D01*
X398667Y32486D01*
X398617Y32411D01*
X398554Y32298D01*
X398504Y32186D01*
X398442Y32048D01*
X398379Y31886D01*
X398330Y31723D01*
X398279Y31536D01*
X398242Y31323D01*
X398204Y31098D01*
X398192Y30861D01*
X398180Y30599D01*
Y25212D01*
X396605D01*
Y31248D01*
Y31261D01*
Y31298D01*
Y31348D01*
Y31423D01*
X396592Y31511D01*
X396580Y31611D01*
X396555Y31836D01*
X396505Y32098D01*
X396442Y32361D01*
X396343Y32611D01*
X396217Y32823D01*
X396205Y32848D01*
X396143Y32910D01*
X396055Y32985D01*
X395918Y33085D01*
X395743Y33185D01*
X395530Y33260D01*
X395268Y33323D01*
X394968Y33348D01*
X394855D01*
X394730Y33335D01*
X394568Y33310D01*
X394380Y33260D01*
X394168Y33198D01*
X393943Y33110D01*
X393731Y32998D01*
X393706Y32985D01*
X393643Y32936D01*
X393543Y32848D01*
X393418Y32736D01*
X393281Y32598D01*
X393156Y32423D01*
X393031Y32211D01*
X392918Y31973D01*
Y31961D01*
X392906Y31948D01*
X392893Y31898D01*
X392881Y31848D01*
X392856Y31773D01*
X392843Y31698D01*
X392818Y31598D01*
X392793Y31473D01*
X392768Y31348D01*
X392743Y31198D01*
X392731Y31036D01*
X392706Y30861D01*
X392693Y30673D01*
X392681Y30474D01*
X392668Y30261D01*
Y30024D01*
Y25212D01*
X391094D01*
Y34498D01*
X392506D01*
Y33210D01*
X392531Y33223D01*
X392556Y33260D01*
X392581Y33310D01*
X392681Y33435D01*
X392818Y33585D01*
X392981Y33760D01*
X393181Y33948D01*
X393406Y34123D01*
X393668Y34285D01*
X393681D01*
X393706Y34298D01*
X393743Y34323D01*
X393793Y34348D01*
X393868Y34385D01*
X393943Y34423D01*
X394143Y34498D01*
X394393Y34573D01*
X394668Y34648D01*
X394980Y34697D01*
X395318Y34710D01*
X395418D01*
X395493Y34697D01*
X395580D01*
X395680Y34685D01*
X395918Y34660D01*
X396180Y34597D01*
X396467Y34523D01*
X396742Y34423D01*
X397005Y34273D01*
X397017D01*
X397030Y34248D01*
X397117Y34198D01*
X397230Y34098D01*
X397367Y33960D01*
X397517Y33798D01*
X397680Y33598D01*
X397817Y33360D01*
X397930Y33085D01*
X397942Y33098D01*
X397980Y33160D01*
X398042Y33235D01*
X398130Y33335D01*
X398242Y33460D01*
X398379Y33598D01*
X398529Y33748D01*
X398704Y33898D01*
X398904Y34048D01*
X399117Y34198D01*
X399354Y34335D01*
X399617Y34460D01*
X399879Y34560D01*
X400179Y34635D01*
X400479Y34697D01*
X400804Y34710D01*
X400941D01*
X401029Y34697D01*
D02*
G37*
G36*
X430109Y29062D02*
X425273D01*
Y30649D01*
X430109D01*
Y29062D01*
D02*
G37*
G36*
X472073Y36510D02*
X467837D01*
Y25213D01*
X466137D01*
Y36510D01*
X461913D01*
Y38022D01*
X472073D01*
Y36510D01*
D02*
G37*
G36*
X442118Y38009D02*
X442268Y37997D01*
X442431Y37984D01*
X442593Y37972D01*
X442968Y37922D01*
X443368Y37859D01*
X443755Y37759D01*
X443930Y37697D01*
X444105Y37622D01*
X444118D01*
X444143Y37609D01*
X444193Y37584D01*
X444255Y37547D01*
X444330Y37509D01*
X444418Y37459D01*
X444618Y37322D01*
X444830Y37159D01*
X445067Y36947D01*
X445292Y36709D01*
X445492Y36422D01*
Y36410D01*
X445517Y36385D01*
X445542Y36347D01*
X445567Y36285D01*
X445617Y36210D01*
X445655Y36122D01*
X445755Y35910D01*
X445842Y35660D01*
X445930Y35372D01*
X445980Y35060D01*
X446005Y34735D01*
Y34722D01*
Y34697D01*
Y34660D01*
X445992Y34598D01*
Y34523D01*
X445980Y34435D01*
X445955Y34235D01*
X445892Y33998D01*
X445817Y33735D01*
X445705Y33460D01*
X445555Y33185D01*
Y33173D01*
X445530Y33148D01*
X445505Y33110D01*
X445467Y33061D01*
X445367Y32936D01*
X445217Y32773D01*
X445030Y32586D01*
X444793Y32386D01*
X444518Y32198D01*
X444205Y32023D01*
X444218D01*
X444255Y32011D01*
X444318Y31986D01*
X444393Y31961D01*
X444493Y31923D01*
X444605Y31873D01*
X444868Y31748D01*
X445155Y31586D01*
X445455Y31386D01*
X445742Y31136D01*
X445867Y30998D01*
X445992Y30849D01*
X446005Y30836D01*
X446017Y30811D01*
X446055Y30761D01*
X446092Y30699D01*
X446142Y30624D01*
X446192Y30536D01*
X446255Y30424D01*
X446317Y30299D01*
X446367Y30161D01*
X446430Y30024D01*
X446530Y29686D01*
X446605Y29324D01*
X446617Y29124D01*
X446630Y28911D01*
Y28899D01*
Y28874D01*
Y28824D01*
Y28762D01*
X446617Y28674D01*
X446605Y28587D01*
X446580Y28362D01*
X446530Y28112D01*
X446467Y27824D01*
X446367Y27537D01*
X446242Y27237D01*
Y27225D01*
X446230Y27199D01*
X446205Y27162D01*
X446180Y27112D01*
X446092Y26974D01*
X445980Y26800D01*
X445855Y26612D01*
X445692Y26412D01*
X445505Y26225D01*
X445305Y26050D01*
X445280Y26037D01*
X445205Y25987D01*
X445080Y25912D01*
X444917Y25812D01*
X444718Y25712D01*
X444468Y25612D01*
X444193Y25512D01*
X443893Y25425D01*
X443880D01*
X443855Y25412D01*
X443805Y25400D01*
X443743Y25387D01*
X443668Y25375D01*
X443568Y25362D01*
X443455Y25337D01*
X443318Y25325D01*
X443181Y25300D01*
X443018Y25275D01*
X442856Y25262D01*
X442668Y25250D01*
X442268Y25225D01*
X441831Y25213D01*
X436957Y25212D01*
Y38022D01*
X441993Y38022D01*
X442118Y38009D01*
D02*
G37*
G36*
X378410Y25212D02*
X376623D01*
Y26999D01*
X378410D01*
Y25212D01*
D02*
G37*
G36*
X371711D02*
X370137D01*
Y35222D01*
X370124D01*
X370112Y35197D01*
X370074Y35172D01*
X370037Y35135D01*
X369912Y35022D01*
X369737Y34885D01*
X369524Y34722D01*
X369262Y34535D01*
X368962Y34335D01*
X368637Y34135D01*
X368625D01*
X368600Y34110D01*
X368550Y34085D01*
X368487Y34048D01*
X368400Y33998D01*
X368312Y33948D01*
X368087Y33835D01*
X367837Y33710D01*
X367562Y33573D01*
X367275Y33448D01*
X367000Y33335D01*
Y34848D01*
X367012Y34860D01*
X367062Y34873D01*
X367125Y34910D01*
X367225Y34960D01*
X367337Y35022D01*
X367462Y35097D01*
X367612Y35172D01*
X367775Y35272D01*
X368137Y35485D01*
X368525Y35747D01*
X368912Y36035D01*
X369299Y36347D01*
X369312Y36360D01*
X369337Y36385D01*
X369399Y36435D01*
X369462Y36497D01*
X369537Y36584D01*
X369637Y36672D01*
X369737Y36785D01*
X369849Y36897D01*
X370074Y37159D01*
X370299Y37447D01*
X370512Y37759D01*
X370612Y37909D01*
X370686Y38072D01*
X371711D01*
Y25212D01*
D02*
G37*
G36*
X454878Y38234D02*
X455027Y38222D01*
X455215Y38197D01*
X455415Y38172D01*
X455640Y38147D01*
X455890Y38097D01*
X456140Y38034D01*
X456402Y37972D01*
X456677Y37884D01*
X456952Y37797D01*
X457227Y37672D01*
X457502Y37547D01*
X457777Y37397D01*
X457789Y37384D01*
X457839Y37359D01*
X457914Y37309D01*
X458014Y37247D01*
X458127Y37159D01*
X458264Y37047D01*
X458414Y36922D01*
X458589Y36785D01*
X458751Y36622D01*
X458939Y36447D01*
X459114Y36247D01*
X459301Y36035D01*
X459476Y35810D01*
X459639Y35560D01*
X459801Y35297D01*
X459951Y35022D01*
X459964Y35010D01*
X459989Y34960D01*
X460026Y34873D01*
X460064Y34760D01*
X460126Y34610D01*
X460189Y34448D01*
X460251Y34248D01*
X460326Y34023D01*
X460401Y33785D01*
X460463Y33523D01*
X460526Y33235D01*
X460588Y32936D01*
X460626Y32623D01*
X460663Y32298D01*
X460689Y31948D01*
X460701Y31598D01*
Y31573D01*
Y31511D01*
Y31411D01*
X460689Y31273D01*
X460676Y31098D01*
X460663Y30898D01*
X460639Y30674D01*
X460601Y30436D01*
X460564Y30174D01*
X460513Y29886D01*
X460451Y29599D01*
X460364Y29311D01*
X460276Y28999D01*
X460176Y28699D01*
X460051Y28399D01*
X459914Y28112D01*
X459901Y28099D01*
X459876Y28049D01*
X459826Y27962D01*
X459764Y27862D01*
X459689Y27737D01*
X459589Y27587D01*
X459476Y27424D01*
X459339Y27250D01*
X459189Y27062D01*
X459026Y26874D01*
X458839Y26675D01*
X458639Y26487D01*
X458427Y26300D01*
X458189Y26112D01*
X457939Y25950D01*
X457677Y25787D01*
X457664Y25775D01*
X457614Y25750D01*
X457539Y25712D01*
X457427Y25662D01*
X457289Y25600D01*
X457139Y25537D01*
X456952Y25462D01*
X456752Y25400D01*
X456527Y25325D01*
X456290Y25250D01*
X456027Y25187D01*
X455752Y25125D01*
X455477Y25075D01*
X455177Y25038D01*
X454878Y25013D01*
X454565Y25000D01*
X454390D01*
X454265Y25013D01*
X454103Y25025D01*
X453915Y25050D01*
X453715Y25075D01*
X453478Y25113D01*
X453240Y25150D01*
X452978Y25213D01*
X452715Y25275D01*
X452441Y25362D01*
X452153Y25462D01*
X451878Y25575D01*
X451603Y25712D01*
X451328Y25862D01*
X451316Y25875D01*
X451266Y25900D01*
X451191Y25950D01*
X451091Y26025D01*
X450979Y26112D01*
X450841Y26225D01*
X450691Y26350D01*
X450529Y26487D01*
X450354Y26650D01*
X450179Y26825D01*
X449991Y27025D01*
X449816Y27237D01*
X449641Y27462D01*
X449466Y27712D01*
X449316Y27974D01*
X449166Y28249D01*
X449154Y28262D01*
X449141Y28312D01*
X449104Y28399D01*
X449054Y28512D01*
X449004Y28649D01*
X448941Y28812D01*
X448867Y29011D01*
X448804Y29211D01*
X448741Y29449D01*
X448667Y29699D01*
X448604Y29961D01*
X448554Y30236D01*
X448504Y30524D01*
X448479Y30824D01*
X448454Y31136D01*
X448442Y31448D01*
Y31461D01*
Y31486D01*
Y31523D01*
Y31586D01*
X448454Y31661D01*
Y31761D01*
Y31861D01*
X448467Y31973D01*
X448492Y32248D01*
X448529Y32548D01*
X448592Y32898D01*
X448654Y33273D01*
X448741Y33660D01*
X448854Y34073D01*
X449004Y34485D01*
X449166Y34897D01*
X449366Y35310D01*
X449591Y35710D01*
X449854Y36085D01*
X450154Y36435D01*
X450179Y36460D01*
X450229Y36510D01*
X450329Y36597D01*
X450466Y36722D01*
X450629Y36860D01*
X450841Y37009D01*
X451078Y37172D01*
X451353Y37347D01*
X451653Y37509D01*
X451991Y37672D01*
X452353Y37822D01*
X452741Y37959D01*
X453165Y38084D01*
X453615Y38172D01*
X454078Y38222D01*
X454578Y38247D01*
X454753D01*
X454878Y38234D01*
D02*
G37*
G36*
X385145Y38059D02*
X385245Y38047D01*
X385370Y38034D01*
X385495Y38022D01*
X385770Y37972D01*
X386070Y37897D01*
X386382Y37784D01*
X386682Y37647D01*
X386695D01*
X386720Y37622D01*
X386757Y37609D01*
X386820Y37572D01*
X386957Y37472D01*
X387145Y37347D01*
X387345Y37172D01*
X387557Y36972D01*
X387770Y36722D01*
X387970Y36447D01*
Y36435D01*
X387995Y36410D01*
X388020Y36372D01*
X388057Y36310D01*
X388095Y36235D01*
X388145Y36147D01*
X388195Y36035D01*
X388257Y35922D01*
X388320Y35785D01*
X388382Y35647D01*
X388507Y35322D01*
X388644Y34948D01*
X388757Y34548D01*
Y34535D01*
X388769Y34498D01*
X388782Y34435D01*
X388807Y34348D01*
X388832Y34235D01*
X388857Y34098D01*
X388882Y33935D01*
X388907Y33748D01*
X388932Y33548D01*
X388957Y33310D01*
X388982Y33073D01*
X389007Y32798D01*
X389032Y32511D01*
X389044Y32198D01*
X389057Y31873D01*
Y31523D01*
Y31498D01*
Y31423D01*
Y31311D01*
X389044Y31148D01*
Y30961D01*
X389032Y30736D01*
X389019Y30499D01*
X388994Y30224D01*
X388969Y29936D01*
X388944Y29649D01*
X388857Y29037D01*
X388744Y28437D01*
X388669Y28162D01*
X388582Y27887D01*
Y27874D01*
X388557Y27824D01*
X388532Y27749D01*
X388494Y27662D01*
X388445Y27537D01*
X388382Y27412D01*
X388320Y27262D01*
X388232Y27099D01*
X388045Y26762D01*
X387807Y26400D01*
X387520Y26062D01*
X387357Y25900D01*
X387195Y25750D01*
X387182Y25737D01*
X387157Y25712D01*
X387107Y25675D01*
X387032Y25637D01*
X386945Y25575D01*
X386832Y25512D01*
X386707Y25450D01*
X386570Y25375D01*
X386408Y25300D01*
X386233Y25237D01*
X386045Y25175D01*
X385833Y25113D01*
X385620Y25075D01*
X385383Y25038D01*
X385145Y25013D01*
X384883Y25000D01*
X384795D01*
X384708Y25013D01*
X384571Y25025D01*
X384421Y25038D01*
X384233Y25075D01*
X384033Y25113D01*
X383821Y25162D01*
X383596Y25237D01*
X383358Y25325D01*
X383108Y25425D01*
X382871Y25550D01*
X382634Y25700D01*
X382396Y25875D01*
X382171Y26087D01*
X381971Y26312D01*
X381959Y26337D01*
X381921Y26387D01*
X381859Y26487D01*
X381771Y26625D01*
X381684Y26799D01*
X381571Y27012D01*
X381459Y27274D01*
X381346Y27574D01*
X381221Y27912D01*
X381109Y28299D01*
X380996Y28724D01*
X380909Y29186D01*
X380821Y29711D01*
X380759Y30261D01*
X380722Y30873D01*
X380709Y31523D01*
Y31536D01*
Y31548D01*
Y31623D01*
Y31748D01*
X380722Y31898D01*
Y32098D01*
X380734Y32311D01*
X380746Y32561D01*
X380771Y32836D01*
X380796Y33123D01*
X380821Y33423D01*
X380909Y34023D01*
X381021Y34635D01*
X381096Y34910D01*
X381171Y35185D01*
Y35197D01*
X381196Y35247D01*
X381221Y35322D01*
X381259Y35410D01*
X381309Y35535D01*
X381371Y35660D01*
X381434Y35810D01*
X381521Y35972D01*
X381709Y36322D01*
X381946Y36672D01*
X382234Y37009D01*
X382396Y37172D01*
X382559Y37322D01*
X382571Y37334D01*
X382596Y37359D01*
X382659Y37397D01*
X382721Y37434D01*
X382821Y37497D01*
X382921Y37559D01*
X383058Y37622D01*
X383196Y37697D01*
X383358Y37772D01*
X383533Y37834D01*
X383721Y37897D01*
X383933Y37959D01*
X384146Y37997D01*
X384383Y38034D01*
X384621Y38059D01*
X384883Y38072D01*
X385058D01*
X385145Y38059D01*
D02*
G37*
G36*
X417150Y53866D02*
X417275Y53854D01*
X417400Y53841D01*
X417550Y53816D01*
X417712Y53779D01*
X418049Y53691D01*
X418224Y53629D01*
X418412Y53554D01*
X418574Y53466D01*
X418749Y53354D01*
X418899Y53242D01*
X419049Y53104D01*
X419062Y53092D01*
X419087Y53067D01*
X419124Y53029D01*
X419162Y52967D01*
X419224Y52879D01*
X419287Y52779D01*
X419349Y52667D01*
X419424Y52529D01*
X419499Y52367D01*
X419562Y52192D01*
X419624Y52004D01*
X419687Y51792D01*
X419724Y51567D01*
X419762Y51317D01*
X419786Y51042D01*
X419799Y50755D01*
Y44381D01*
X418224D01*
Y50230D01*
Y50242D01*
Y50267D01*
Y50317D01*
Y50380D01*
Y50455D01*
X418212Y50555D01*
X418199Y50755D01*
X418187Y50967D01*
X418162Y51192D01*
X418112Y51405D01*
X418062Y51579D01*
X418049Y51604D01*
X418037Y51654D01*
X417999Y51729D01*
X417937Y51829D01*
X417862Y51929D01*
X417762Y52042D01*
X417649Y52154D01*
X417512Y52254D01*
X417500Y52267D01*
X417437Y52292D01*
X417362Y52342D01*
X417250Y52392D01*
X417112Y52429D01*
X416950Y52479D01*
X416775Y52504D01*
X416575Y52517D01*
X416475D01*
X416412Y52504D01*
X416325Y52492D01*
X416225Y52479D01*
X416000Y52429D01*
X415737Y52354D01*
X415463Y52242D01*
X415325Y52167D01*
X415200Y52079D01*
X415063Y51967D01*
X414938Y51854D01*
X414925Y51842D01*
X414913Y51829D01*
X414875Y51779D01*
X414838Y51729D01*
X414788Y51654D01*
X414738Y51579D01*
X414675Y51467D01*
X414625Y51354D01*
X414563Y51217D01*
X414500Y51055D01*
X414450Y50892D01*
X414400Y50705D01*
X414363Y50492D01*
X414325Y50267D01*
X414313Y50030D01*
X414300Y49767D01*
Y44381D01*
X412726D01*
Y50417D01*
Y50430D01*
Y50467D01*
Y50517D01*
Y50592D01*
X412713Y50680D01*
X412701Y50780D01*
X412676Y51005D01*
X412626Y51267D01*
X412563Y51529D01*
X412463Y51779D01*
X412338Y51992D01*
X412326Y52017D01*
X412263Y52079D01*
X412176Y52154D01*
X412038Y52254D01*
X411864Y52354D01*
X411651Y52429D01*
X411389Y52492D01*
X411089Y52517D01*
X410976D01*
X410851Y52504D01*
X410689Y52479D01*
X410501Y52429D01*
X410289Y52367D01*
X410064Y52279D01*
X409851Y52167D01*
X409827Y52154D01*
X409764Y52104D01*
X409664Y52017D01*
X409539Y51904D01*
X409402Y51767D01*
X409277Y51592D01*
X409152Y51379D01*
X409039Y51142D01*
Y51129D01*
X409027Y51117D01*
X409014Y51067D01*
X409002Y51017D01*
X408977Y50942D01*
X408964Y50867D01*
X408939Y50767D01*
X408914Y50642D01*
X408889Y50517D01*
X408864Y50367D01*
X408852Y50205D01*
X408827Y50030D01*
X408814Y49842D01*
X408802Y49642D01*
X408789Y49430D01*
Y49193D01*
Y44381D01*
X407215D01*
Y53666D01*
X408627D01*
Y52379D01*
X408652Y52392D01*
X408677Y52429D01*
X408702Y52479D01*
X408802Y52604D01*
X408939Y52754D01*
X409102Y52929D01*
X409302Y53116D01*
X409527Y53292D01*
X409789Y53454D01*
X409801D01*
X409827Y53466D01*
X409864Y53491D01*
X409914Y53516D01*
X409989Y53554D01*
X410064Y53591D01*
X410264Y53666D01*
X410514Y53741D01*
X410789Y53816D01*
X411101Y53866D01*
X411439Y53879D01*
X411539D01*
X411614Y53866D01*
X411701D01*
X411801Y53854D01*
X412038Y53829D01*
X412301Y53766D01*
X412588Y53691D01*
X412863Y53591D01*
X413126Y53441D01*
X413138D01*
X413151Y53417D01*
X413238Y53366D01*
X413351Y53267D01*
X413488Y53129D01*
X413638Y52967D01*
X413801Y52767D01*
X413938Y52529D01*
X414050Y52254D01*
X414063Y52267D01*
X414100Y52329D01*
X414163Y52404D01*
X414250Y52504D01*
X414363Y52629D01*
X414500Y52767D01*
X414650Y52917D01*
X414825Y53067D01*
X415025Y53217D01*
X415238Y53366D01*
X415475Y53504D01*
X415737Y53629D01*
X416000Y53729D01*
X416300Y53804D01*
X416600Y53866D01*
X416925Y53879D01*
X417062D01*
X417150Y53866D01*
D02*
G37*
G36*
X402241D02*
X402366Y53854D01*
X402491Y53841D01*
X402641Y53816D01*
X402803Y53779D01*
X403141Y53691D01*
X403316Y53629D01*
X403503Y53554D01*
X403666Y53466D01*
X403840Y53354D01*
X403991Y53242D01*
X404141Y53104D01*
X404153Y53092D01*
X404178Y53067D01*
X404215Y53029D01*
X404253Y52967D01*
X404315Y52879D01*
X404378Y52779D01*
X404440Y52667D01*
X404515Y52529D01*
X404590Y52367D01*
X404653Y52192D01*
X404715Y52004D01*
X404778Y51792D01*
X404815Y51567D01*
X404853Y51317D01*
X404878Y51042D01*
X404890Y50755D01*
Y44381D01*
X403316D01*
Y50230D01*
Y50242D01*
Y50267D01*
Y50317D01*
Y50380D01*
Y50455D01*
X403303Y50555D01*
X403291Y50755D01*
X403278Y50967D01*
X403253Y51192D01*
X403203Y51405D01*
X403153Y51579D01*
X403141Y51604D01*
X403128Y51654D01*
X403091Y51729D01*
X403028Y51829D01*
X402953Y51929D01*
X402853Y52042D01*
X402741Y52154D01*
X402603Y52254D01*
X402591Y52267D01*
X402528Y52292D01*
X402453Y52342D01*
X402341Y52392D01*
X402203Y52429D01*
X402041Y52479D01*
X401866Y52504D01*
X401666Y52517D01*
X401566D01*
X401504Y52504D01*
X401416Y52492D01*
X401316Y52479D01*
X401091Y52429D01*
X400829Y52354D01*
X400554Y52242D01*
X400416Y52167D01*
X400291Y52079D01*
X400154Y51967D01*
X400029Y51854D01*
X400017Y51842D01*
X400004Y51829D01*
X399967Y51779D01*
X399929Y51729D01*
X399879Y51654D01*
X399829Y51579D01*
X399767Y51467D01*
X399717Y51354D01*
X399654Y51217D01*
X399592Y51055D01*
X399542Y50892D01*
X399492Y50705D01*
X399454Y50492D01*
X399417Y50267D01*
X399404Y50030D01*
X399392Y49767D01*
Y44381D01*
X397817D01*
Y50417D01*
Y50430D01*
Y50467D01*
Y50517D01*
Y50592D01*
X397805Y50680D01*
X397792Y50780D01*
X397767Y51005D01*
X397717Y51267D01*
X397655Y51529D01*
X397555Y51779D01*
X397430Y51992D01*
X397417Y52017D01*
X397355Y52079D01*
X397267Y52154D01*
X397130Y52254D01*
X396955Y52354D01*
X396742Y52429D01*
X396480Y52492D01*
X396180Y52517D01*
X396068D01*
X395943Y52504D01*
X395780Y52479D01*
X395593Y52429D01*
X395380Y52367D01*
X395155Y52279D01*
X394943Y52167D01*
X394918Y52154D01*
X394855Y52104D01*
X394755Y52017D01*
X394630Y51904D01*
X394493Y51767D01*
X394368Y51592D01*
X394243Y51379D01*
X394131Y51142D01*
Y51129D01*
X394118Y51117D01*
X394105Y51067D01*
X394093Y51017D01*
X394068Y50942D01*
X394055Y50867D01*
X394031Y50767D01*
X394006Y50642D01*
X393981Y50517D01*
X393956Y50367D01*
X393943Y50205D01*
X393918Y50030D01*
X393906Y49842D01*
X393893Y49642D01*
X393881Y49430D01*
Y49193D01*
Y44381D01*
X392306D01*
Y53666D01*
X393718D01*
Y52379D01*
X393743Y52392D01*
X393768Y52429D01*
X393793Y52479D01*
X393893Y52604D01*
X394031Y52754D01*
X394193Y52929D01*
X394393Y53116D01*
X394618Y53292D01*
X394880Y53454D01*
X394893D01*
X394918Y53466D01*
X394955Y53491D01*
X395005Y53516D01*
X395080Y53554D01*
X395155Y53591D01*
X395355Y53666D01*
X395605Y53741D01*
X395880Y53816D01*
X396193Y53866D01*
X396530Y53879D01*
X396630D01*
X396705Y53866D01*
X396792D01*
X396892Y53854D01*
X397130Y53829D01*
X397392Y53766D01*
X397680Y53691D01*
X397955Y53591D01*
X398217Y53441D01*
X398229D01*
X398242Y53417D01*
X398330Y53366D01*
X398442Y53267D01*
X398579Y53129D01*
X398729Y52967D01*
X398892Y52767D01*
X399029Y52529D01*
X399142Y52254D01*
X399154Y52267D01*
X399192Y52329D01*
X399254Y52404D01*
X399342Y52504D01*
X399454Y52629D01*
X399592Y52767D01*
X399742Y52917D01*
X399916Y53067D01*
X400117Y53217D01*
X400329Y53366D01*
X400566Y53504D01*
X400829Y53629D01*
X401091Y53729D01*
X401391Y53804D01*
X401691Y53866D01*
X402016Y53879D01*
X402154D01*
X402241Y53866D01*
D02*
G37*
G36*
X431321Y48230D02*
X426485D01*
Y49817D01*
X431321D01*
Y48230D01*
D02*
G37*
G36*
X389819Y55528D02*
X384683D01*
X383996Y52067D01*
X384008Y52079D01*
X384046Y52104D01*
X384108Y52142D01*
X384196Y52192D01*
X384296Y52254D01*
X384433Y52329D01*
X384571Y52392D01*
X384733Y52479D01*
X384908Y52554D01*
X385095Y52617D01*
X385508Y52754D01*
X385720Y52804D01*
X385945Y52842D01*
X386183Y52867D01*
X386420Y52879D01*
X386495D01*
X386582Y52867D01*
X386707D01*
X386845Y52842D01*
X387020Y52817D01*
X387207Y52779D01*
X387407Y52729D01*
X387620Y52667D01*
X387857Y52592D01*
X388095Y52504D01*
X388332Y52392D01*
X388569Y52254D01*
X388807Y52104D01*
X389032Y51917D01*
X389257Y51717D01*
X389269Y51704D01*
X389307Y51667D01*
X389369Y51592D01*
X389444Y51504D01*
X389532Y51392D01*
X389619Y51255D01*
X389732Y51092D01*
X389844Y50905D01*
X389944Y50705D01*
X390057Y50480D01*
X390144Y50230D01*
X390244Y49967D01*
X390307Y49680D01*
X390369Y49380D01*
X390406Y49055D01*
X390419Y48718D01*
Y48693D01*
Y48643D01*
X390406Y48555D01*
Y48430D01*
X390394Y48280D01*
X390369Y48105D01*
X390331Y47905D01*
X390294Y47693D01*
X390232Y47468D01*
X390169Y47218D01*
X390082Y46968D01*
X389982Y46718D01*
X389869Y46468D01*
X389732Y46206D01*
X389569Y45956D01*
X389394Y45718D01*
X389382Y45706D01*
X389332Y45656D01*
X389269Y45581D01*
X389169Y45481D01*
X389044Y45356D01*
X388894Y45231D01*
X388719Y45094D01*
X388520Y44944D01*
X388282Y44794D01*
X388032Y44656D01*
X387757Y44531D01*
X387457Y44406D01*
X387132Y44306D01*
X386795Y44231D01*
X386420Y44181D01*
X386033Y44169D01*
X385958D01*
X385870Y44181D01*
X385745D01*
X385595Y44194D01*
X385420Y44219D01*
X385233Y44256D01*
X385020Y44294D01*
X384795Y44344D01*
X384571Y44406D01*
X384333Y44481D01*
X384083Y44581D01*
X383846Y44694D01*
X383608Y44819D01*
X383383Y44969D01*
X383171Y45144D01*
X383158Y45156D01*
X383121Y45194D01*
X383071Y45244D01*
X382996Y45318D01*
X382908Y45419D01*
X382821Y45543D01*
X382709Y45681D01*
X382608Y45831D01*
X382496Y46006D01*
X382383Y46206D01*
X382284Y46418D01*
X382184Y46656D01*
X382096Y46906D01*
X382021Y47168D01*
X381959Y47443D01*
X381921Y47743D01*
X383571Y47880D01*
Y47868D01*
X383583Y47830D01*
X383596Y47768D01*
X383608Y47680D01*
X383633Y47580D01*
X383658Y47468D01*
X383746Y47193D01*
X383858Y46906D01*
X383996Y46606D01*
X384183Y46306D01*
X384296Y46181D01*
X384408Y46056D01*
X384421Y46043D01*
X384445Y46031D01*
X384483Y46006D01*
X384533Y45968D01*
X384595Y45918D01*
X384670Y45868D01*
X384870Y45756D01*
X385108Y45643D01*
X385383Y45556D01*
X385695Y45481D01*
X385858Y45469D01*
X386033Y45456D01*
X386145D01*
X386220Y45469D01*
X386320Y45481D01*
X386432Y45506D01*
X386558Y45531D01*
X386695Y45568D01*
X387007Y45668D01*
X387157Y45731D01*
X387320Y45818D01*
X387482Y45918D01*
X387645Y46031D01*
X387807Y46156D01*
X387957Y46306D01*
X387970Y46318D01*
X387995Y46343D01*
X388032Y46393D01*
X388082Y46468D01*
X388145Y46543D01*
X388207Y46656D01*
X388282Y46781D01*
X388357Y46918D01*
X388419Y47068D01*
X388494Y47243D01*
X388557Y47431D01*
X388619Y47630D01*
X388669Y47843D01*
X388707Y48080D01*
X388732Y48318D01*
X388744Y48580D01*
Y48593D01*
Y48643D01*
Y48705D01*
X388732Y48805D01*
X388719Y48918D01*
X388707Y49043D01*
X388682Y49193D01*
X388644Y49355D01*
X388557Y49692D01*
X388494Y49867D01*
X388419Y50042D01*
X388332Y50217D01*
X388232Y50392D01*
X388120Y50555D01*
X387982Y50705D01*
X387970Y50717D01*
X387945Y50742D01*
X387907Y50780D01*
X387845Y50830D01*
X387770Y50892D01*
X387682Y50955D01*
X387570Y51030D01*
X387457Y51104D01*
X387320Y51167D01*
X387170Y51242D01*
X387007Y51304D01*
X386832Y51367D01*
X386632Y51417D01*
X386432Y51455D01*
X386220Y51479D01*
X385995Y51492D01*
X385870D01*
X385795Y51479D01*
X385720D01*
X385533Y51455D01*
X385320Y51405D01*
X385095Y51342D01*
X384858Y51255D01*
X384621Y51142D01*
X384608D01*
X384595Y51129D01*
X384520Y51080D01*
X384408Y51005D01*
X384283Y50905D01*
X384121Y50767D01*
X383971Y50617D01*
X383808Y50442D01*
X383671Y50255D01*
X382196Y50442D01*
X383433Y57028D01*
X389819D01*
Y55528D01*
D02*
G37*
G36*
X468487Y57178D02*
X468637D01*
X468949Y57165D01*
X469274Y57140D01*
X469586Y57103D01*
X469736Y57091D01*
X469861Y57066D01*
X469874D01*
X469899Y57053D01*
X469949D01*
X470024Y57028D01*
X470099Y57016D01*
X470199Y56991D01*
X470411Y56928D01*
X470661Y56853D01*
X470936Y56741D01*
X471198Y56616D01*
X471448Y56466D01*
X471461D01*
X471473Y56441D01*
X471548Y56391D01*
X471673Y56291D01*
X471811Y56153D01*
X471973Y55966D01*
X472148Y55766D01*
X472323Y55516D01*
X472473Y55229D01*
Y55216D01*
X472486Y55191D01*
X472510Y55153D01*
X472536Y55091D01*
X472560Y55016D01*
X472598Y54929D01*
X472635Y54829D01*
X472673Y54716D01*
X472748Y54454D01*
X472810Y54154D01*
X472860Y53829D01*
X472873Y53479D01*
Y53467D01*
Y53404D01*
X472860Y53316D01*
Y53204D01*
X472835Y53067D01*
X472823Y52904D01*
X472785Y52729D01*
X472748Y52529D01*
X472685Y52317D01*
X472623Y52092D01*
X472536Y51867D01*
X472435Y51629D01*
X472310Y51392D01*
X472173Y51167D01*
X472011Y50942D01*
X471823Y50717D01*
X471811Y50705D01*
X471773Y50667D01*
X471711Y50617D01*
X471623Y50542D01*
X471498Y50455D01*
X471348Y50367D01*
X471173Y50255D01*
X470961Y50155D01*
X470723Y50055D01*
X470448Y49955D01*
X470149Y49855D01*
X469799Y49767D01*
X469424Y49692D01*
X469011Y49642D01*
X468562Y49605D01*
X468074Y49592D01*
X464787D01*
Y44381D01*
X463088D01*
Y57190D01*
X468349D01*
X468487Y57178D01*
D02*
G37*
G36*
X447429Y55678D02*
X443193D01*
Y44381D01*
X441493D01*
Y55678D01*
X437270Y55678D01*
Y57190D01*
X447429Y57190D01*
Y55678D01*
D02*
G37*
G36*
X379622Y44381D02*
X377835D01*
Y46168D01*
X379622D01*
Y44381D01*
D02*
G37*
G36*
X455090Y57403D02*
X455240Y57390D01*
X455427Y57365D01*
X455627Y57340D01*
X455852Y57316D01*
X456102Y57266D01*
X456352Y57203D01*
X456614Y57140D01*
X456889Y57053D01*
X457164Y56966D01*
X457439Y56841D01*
X457714Y56716D01*
X457989Y56566D01*
X458002Y56553D01*
X458052Y56528D01*
X458127Y56478D01*
X458227Y56416D01*
X458339Y56328D01*
X458477Y56216D01*
X458627Y56091D01*
X458801Y55953D01*
X458964Y55791D01*
X459151Y55616D01*
X459326Y55416D01*
X459514Y55203D01*
X459689Y54979D01*
X459851Y54729D01*
X460014Y54466D01*
X460164Y54191D01*
X460176Y54179D01*
X460201Y54129D01*
X460239Y54041D01*
X460276Y53929D01*
X460339Y53779D01*
X460401Y53616D01*
X460463Y53417D01*
X460538Y53191D01*
X460614Y52954D01*
X460676Y52692D01*
X460738Y52404D01*
X460801Y52104D01*
X460838Y51792D01*
X460876Y51467D01*
X460901Y51117D01*
X460913Y50767D01*
Y50742D01*
Y50680D01*
Y50580D01*
X460901Y50442D01*
X460888Y50267D01*
X460876Y50067D01*
X460851Y49842D01*
X460813Y49605D01*
X460776Y49342D01*
X460726Y49055D01*
X460663Y48768D01*
X460576Y48480D01*
X460489Y48168D01*
X460389Y47868D01*
X460264Y47568D01*
X460126Y47281D01*
X460114Y47268D01*
X460089Y47218D01*
X460039Y47131D01*
X459976Y47031D01*
X459901Y46906D01*
X459801Y46756D01*
X459689Y46593D01*
X459551Y46418D01*
X459401Y46231D01*
X459239Y46043D01*
X459051Y45843D01*
X458852Y45656D01*
X458639Y45469D01*
X458402Y45281D01*
X458152Y45119D01*
X457889Y44956D01*
X457877Y44944D01*
X457827Y44919D01*
X457752Y44881D01*
X457639Y44831D01*
X457502Y44769D01*
X457352Y44706D01*
X457164Y44631D01*
X456964Y44569D01*
X456740Y44494D01*
X456502Y44419D01*
X456240Y44356D01*
X455965Y44294D01*
X455690Y44244D01*
X455390Y44206D01*
X455090Y44181D01*
X454777Y44169D01*
X454603D01*
X454478Y44181D01*
X454315Y44194D01*
X454128Y44219D01*
X453928Y44244D01*
X453690Y44281D01*
X453453Y44319D01*
X453190Y44381D01*
X452928Y44444D01*
X452653Y44531D01*
X452366Y44631D01*
X452091Y44744D01*
X451816Y44881D01*
X451541Y45031D01*
X451528Y45044D01*
X451478Y45069D01*
X451403Y45119D01*
X451303Y45194D01*
X451191Y45281D01*
X451054Y45394D01*
X450904Y45518D01*
X450741Y45656D01*
X450566Y45818D01*
X450391Y45993D01*
X450204Y46193D01*
X450029Y46406D01*
X449854Y46631D01*
X449679Y46881D01*
X449529Y47143D01*
X449379Y47418D01*
X449366Y47431D01*
X449354Y47481D01*
X449316Y47568D01*
X449266Y47680D01*
X449216Y47818D01*
X449154Y47980D01*
X449079Y48180D01*
X449016Y48380D01*
X448954Y48618D01*
X448879Y48868D01*
X448816Y49130D01*
X448767Y49405D01*
X448717Y49692D01*
X448692Y49992D01*
X448667Y50305D01*
X448654Y50617D01*
Y50630D01*
Y50655D01*
Y50692D01*
Y50755D01*
X448667Y50830D01*
Y50930D01*
Y51030D01*
X448679Y51142D01*
X448704Y51417D01*
X448741Y51717D01*
X448804Y52067D01*
X448867Y52442D01*
X448954Y52829D01*
X449067Y53242D01*
X449216Y53654D01*
X449379Y54066D01*
X449579Y54479D01*
X449804Y54879D01*
X450066Y55254D01*
X450366Y55603D01*
X450391Y55628D01*
X450441Y55678D01*
X450541Y55766D01*
X450679Y55891D01*
X450841Y56028D01*
X451054Y56178D01*
X451291Y56341D01*
X451566Y56516D01*
X451866Y56678D01*
X452203Y56841D01*
X452566Y56991D01*
X452953Y57128D01*
X453378Y57253D01*
X453828Y57340D01*
X454290Y57390D01*
X454790Y57415D01*
X454965D01*
X455090Y57403D01*
D02*
G37*
G36*
X371436Y57228D02*
X371536Y57215D01*
X371661Y57203D01*
X371786Y57190D01*
X372061Y57140D01*
X372361Y57066D01*
X372673Y56953D01*
X372973Y56816D01*
X372986D01*
X373011Y56791D01*
X373048Y56778D01*
X373111Y56741D01*
X373248Y56641D01*
X373436Y56516D01*
X373636Y56341D01*
X373848Y56141D01*
X374061Y55891D01*
X374261Y55616D01*
Y55603D01*
X374286Y55578D01*
X374311Y55541D01*
X374348Y55478D01*
X374386Y55403D01*
X374436Y55316D01*
X374486Y55203D01*
X374548Y55091D01*
X374610Y54954D01*
X374673Y54816D01*
X374798Y54491D01*
X374935Y54116D01*
X375048Y53716D01*
Y53704D01*
X375060Y53666D01*
X375073Y53604D01*
X375098Y53516D01*
X375123Y53404D01*
X375148Y53267D01*
X375173Y53104D01*
X375198Y52917D01*
X375223Y52717D01*
X375248Y52479D01*
X375273Y52242D01*
X375298Y51967D01*
X375323Y51679D01*
X375335Y51367D01*
X375348Y51042D01*
Y50692D01*
Y50667D01*
Y50592D01*
Y50480D01*
X375335Y50317D01*
Y50130D01*
X375323Y49905D01*
X375310Y49667D01*
X375285Y49392D01*
X375260Y49105D01*
X375235Y48818D01*
X375148Y48205D01*
X375035Y47605D01*
X374960Y47330D01*
X374873Y47056D01*
Y47043D01*
X374848Y46993D01*
X374823Y46918D01*
X374785Y46831D01*
X374735Y46706D01*
X374673Y46581D01*
X374610Y46431D01*
X374523Y46268D01*
X374336Y45931D01*
X374098Y45568D01*
X373811Y45231D01*
X373648Y45069D01*
X373486Y44919D01*
X373473Y44906D01*
X373448Y44881D01*
X373398Y44844D01*
X373323Y44806D01*
X373236Y44744D01*
X373123Y44681D01*
X372998Y44619D01*
X372861Y44544D01*
X372699Y44469D01*
X372524Y44406D01*
X372336Y44344D01*
X372124Y44281D01*
X371911Y44244D01*
X371674Y44206D01*
X371436Y44181D01*
X371174Y44169D01*
X371086D01*
X370999Y44181D01*
X370862Y44194D01*
X370712Y44206D01*
X370524Y44244D01*
X370324Y44281D01*
X370112Y44331D01*
X369887Y44406D01*
X369649Y44494D01*
X369399Y44594D01*
X369162Y44719D01*
X368924Y44869D01*
X368687Y45044D01*
X368462Y45256D01*
X368262Y45481D01*
X368250Y45506D01*
X368212Y45556D01*
X368150Y45656D01*
X368062Y45793D01*
X367975Y45968D01*
X367862Y46181D01*
X367750Y46443D01*
X367637Y46743D01*
X367512Y47081D01*
X367400Y47468D01*
X367287Y47893D01*
X367200Y48355D01*
X367112Y48880D01*
X367050Y49430D01*
X367012Y50042D01*
X367000Y50692D01*
Y50705D01*
Y50717D01*
Y50792D01*
Y50917D01*
X367012Y51067D01*
Y51267D01*
X367025Y51479D01*
X367038Y51729D01*
X367062Y52004D01*
X367088Y52292D01*
X367112Y52592D01*
X367200Y53191D01*
X367312Y53804D01*
X367387Y54079D01*
X367462Y54354D01*
Y54366D01*
X367487Y54416D01*
X367512Y54491D01*
X367550Y54579D01*
X367600Y54704D01*
X367662Y54829D01*
X367725Y54979D01*
X367812Y55141D01*
X368000Y55491D01*
X368237Y55841D01*
X368525Y56178D01*
X368687Y56341D01*
X368849Y56491D01*
X368862Y56503D01*
X368887Y56528D01*
X368950Y56566D01*
X369012Y56603D01*
X369112Y56666D01*
X369212Y56728D01*
X369349Y56791D01*
X369487Y56866D01*
X369649Y56941D01*
X369824Y57003D01*
X370012Y57066D01*
X370224Y57128D01*
X370437Y57165D01*
X370674Y57203D01*
X370911Y57228D01*
X371174Y57241D01*
X371349D01*
X371436Y57228D01*
D02*
G37*
G36*
X404040Y74559D02*
X402466D01*
Y76371D01*
X404040D01*
Y74559D01*
D02*
G37*
G36*
X396830Y73047D02*
X396930D01*
X397055Y73022D01*
X397192Y73009D01*
X397342Y72984D01*
X397667Y72909D01*
X398017Y72797D01*
X398192Y72734D01*
X398367Y72647D01*
X398542Y72559D01*
X398717Y72447D01*
X398729Y72434D01*
X398754Y72422D01*
X398804Y72384D01*
X398867Y72334D01*
X398942Y72272D01*
X399029Y72197D01*
X399129Y72109D01*
X399229Y71997D01*
X399342Y71884D01*
X399454Y71760D01*
X399567Y71610D01*
X399679Y71459D01*
X399792Y71285D01*
X399904Y71110D01*
X400092Y70710D01*
Y70697D01*
X400117Y70660D01*
X400141Y70597D01*
X400167Y70510D01*
X400204Y70410D01*
X400242Y70285D01*
X400279Y70147D01*
X400329Y69985D01*
X400379Y69810D01*
X400416Y69623D01*
X400454Y69423D01*
X400491Y69210D01*
X400541Y68760D01*
X400566Y68273D01*
Y68260D01*
Y68210D01*
Y68135D01*
X400554Y68035D01*
Y67910D01*
X400541Y67761D01*
X400529Y67598D01*
X400504Y67423D01*
X400479Y67223D01*
X400441Y67023D01*
X400354Y66586D01*
X400229Y66136D01*
X400054Y65698D01*
Y65686D01*
X400029Y65648D01*
X400004Y65586D01*
X399954Y65511D01*
X399904Y65411D01*
X399842Y65311D01*
X399679Y65049D01*
X399467Y64774D01*
X399217Y64486D01*
X398917Y64199D01*
X398567Y63949D01*
X398554Y63937D01*
X398529Y63924D01*
X398467Y63899D01*
X398404Y63861D01*
X398304Y63811D01*
X398204Y63762D01*
X398079Y63712D01*
X397942Y63649D01*
X397792Y63599D01*
X397642Y63537D01*
X397292Y63449D01*
X396917Y63374D01*
X396717Y63362D01*
X396517Y63349D01*
X396380D01*
X396317Y63362D01*
X396230D01*
X396043Y63387D01*
X395830Y63424D01*
X395593Y63487D01*
X395343Y63562D01*
X395105Y63674D01*
X395093D01*
X395080Y63686D01*
X395005Y63737D01*
X394893Y63799D01*
X394743Y63899D01*
X394580Y64024D01*
X394406Y64161D01*
X394243Y64324D01*
X394081Y64511D01*
Y60000D01*
X392506D01*
Y72847D01*
X393943D01*
Y71647D01*
X393968Y71672D01*
X393993Y71697D01*
X394031Y71747D01*
X394131Y71884D01*
X394268Y72034D01*
X394443Y72209D01*
X394630Y72384D01*
X394843Y72547D01*
X395080Y72697D01*
X395093D01*
X395105Y72709D01*
X395143Y72734D01*
X395193Y72759D01*
X395255Y72784D01*
X395330Y72809D01*
X395518Y72884D01*
X395743Y72947D01*
X396005Y73009D01*
X396305Y73047D01*
X396630Y73059D01*
X396742D01*
X396830Y73047D01*
D02*
G37*
G36*
X411001D02*
X411089D01*
X411301Y73022D01*
X411539Y72984D01*
X411788Y72922D01*
X412063Y72847D01*
X412326Y72747D01*
X412338D01*
X412351Y72734D01*
X412388Y72722D01*
X412438Y72697D01*
X412563Y72622D01*
X412726Y72534D01*
X412888Y72422D01*
X413063Y72284D01*
X413226Y72134D01*
X413376Y71959D01*
X413388Y71934D01*
X413438Y71872D01*
X413501Y71772D01*
X413576Y71634D01*
X413651Y71459D01*
X413738Y71260D01*
X413813Y71047D01*
X413876Y70797D01*
Y70772D01*
X413888Y70710D01*
X413900Y70597D01*
X413913Y70522D01*
X413926Y70447D01*
Y70347D01*
X413938Y70235D01*
Y70110D01*
X413951Y69960D01*
Y69810D01*
X413963Y69647D01*
Y69460D01*
Y69260D01*
Y63562D01*
X412388D01*
Y69210D01*
Y69223D01*
Y69248D01*
Y69298D01*
Y69373D01*
Y69448D01*
X412376Y69535D01*
X412363Y69748D01*
X412338Y69985D01*
X412313Y70222D01*
X412263Y70447D01*
X412201Y70647D01*
X412188Y70672D01*
X412163Y70722D01*
X412113Y70810D01*
X412051Y70922D01*
X411964Y71047D01*
X411851Y71172D01*
X411713Y71297D01*
X411551Y71410D01*
X411526Y71422D01*
X411464Y71459D01*
X411376Y71497D01*
X411239Y71560D01*
X411076Y71610D01*
X410889Y71647D01*
X410676Y71684D01*
X410451Y71697D01*
X410351D01*
X410289Y71684D01*
X410201Y71672D01*
X410101Y71659D01*
X409864Y71622D01*
X409589Y71535D01*
X409302Y71422D01*
X409152Y71347D01*
X409014Y71260D01*
X408864Y71160D01*
X408727Y71047D01*
X408714Y71035D01*
X408702Y71022D01*
X408664Y70972D01*
X408614Y70922D01*
X408564Y70847D01*
X408502Y70747D01*
X408427Y70635D01*
X408364Y70510D01*
X408302Y70360D01*
X408227Y70185D01*
X408164Y69985D01*
X408114Y69760D01*
X408064Y69523D01*
X408040Y69248D01*
X408014Y68960D01*
X408002Y68635D01*
Y63562D01*
X406427D01*
Y72847D01*
X407840D01*
Y71522D01*
X407852Y71535D01*
X407890Y71585D01*
X407952Y71659D01*
X408027Y71760D01*
X408139Y71884D01*
X408264Y72009D01*
X408414Y72147D01*
X408589Y72297D01*
X408789Y72434D01*
X409002Y72572D01*
X409252Y72709D01*
X409514Y72822D01*
X409801Y72922D01*
X410101Y72997D01*
X410439Y73047D01*
X410789Y73059D01*
X410926D01*
X411001Y73047D01*
D02*
G37*
G36*
X404040Y63562D02*
X402466D01*
Y72847D01*
X404040D01*
Y63562D01*
D02*
G37*
G36*
X371624Y76408D02*
X371761D01*
X371911Y76396D01*
X372086Y76371D01*
X372286Y76333D01*
X372511Y76296D01*
X372736Y76233D01*
X372973Y76171D01*
X373223Y76083D01*
X373461Y75983D01*
X373711Y75871D01*
X373936Y75733D01*
X374161Y75571D01*
X374373Y75396D01*
X374386Y75384D01*
X374423Y75346D01*
X374473Y75296D01*
X374535Y75209D01*
X374623Y75109D01*
X374711Y74996D01*
X374810Y74859D01*
X374911Y74696D01*
X375010Y74521D01*
X375110Y74321D01*
X375198Y74121D01*
X375285Y73896D01*
X375348Y73659D01*
X375398Y73397D01*
X375435Y73134D01*
X375448Y72859D01*
Y72847D01*
Y72822D01*
Y72784D01*
Y72734D01*
X375435Y72659D01*
Y72584D01*
X375410Y72384D01*
X375373Y72159D01*
X375310Y71897D01*
X375235Y71622D01*
X375123Y71347D01*
Y71335D01*
X375110Y71310D01*
X375085Y71272D01*
X375060Y71222D01*
X375023Y71147D01*
X374985Y71072D01*
X374873Y70872D01*
X374735Y70647D01*
X374548Y70372D01*
X374336Y70085D01*
X374073Y69785D01*
X374061Y69773D01*
X374036Y69748D01*
X373998Y69697D01*
X373936Y69635D01*
X373848Y69548D01*
X373761Y69448D01*
X373636Y69335D01*
X373498Y69198D01*
X373348Y69048D01*
X373161Y68873D01*
X372973Y68685D01*
X372748Y68485D01*
X372511Y68273D01*
X372249Y68035D01*
X371961Y67798D01*
X371661Y67536D01*
X371649Y67523D01*
X371599Y67486D01*
X371524Y67423D01*
X371436Y67348D01*
X371324Y67248D01*
X371199Y67136D01*
X370899Y66886D01*
X370599Y66623D01*
X370299Y66361D01*
X370162Y66236D01*
X370037Y66111D01*
X369924Y66011D01*
X369837Y65924D01*
X369824Y65911D01*
X369774Y65848D01*
X369699Y65761D01*
X369599Y65661D01*
X369499Y65524D01*
X369387Y65386D01*
X369274Y65236D01*
X369174Y65074D01*
X375460D01*
Y63562D01*
X367000D01*
Y63574D01*
Y63587D01*
Y63661D01*
Y63762D01*
X367012Y63911D01*
X367038Y64074D01*
X367062Y64261D01*
X367112Y64449D01*
X367175Y64649D01*
Y64661D01*
X367187Y64686D01*
X367212Y64736D01*
X367237Y64799D01*
X367275Y64874D01*
X367312Y64961D01*
X367425Y65186D01*
X367575Y65449D01*
X367750Y65736D01*
X367962Y66036D01*
X368212Y66348D01*
X368225Y66361D01*
X368250Y66386D01*
X368287Y66436D01*
X368350Y66498D01*
X368425Y66573D01*
X368512Y66673D01*
X368612Y66786D01*
X368737Y66911D01*
X368875Y67036D01*
X369025Y67186D01*
X369199Y67348D01*
X369374Y67523D01*
X369574Y67698D01*
X369787Y67885D01*
X370024Y68085D01*
X370262Y68285D01*
X370287Y68310D01*
X370349Y68360D01*
X370462Y68448D01*
X370599Y68573D01*
X370774Y68710D01*
X370961Y68885D01*
X371174Y69073D01*
X371399Y69273D01*
X371874Y69710D01*
X372336Y70160D01*
X372549Y70385D01*
X372748Y70610D01*
X372936Y70810D01*
X373086Y71010D01*
X373098Y71022D01*
X373123Y71060D01*
X373161Y71110D01*
X373198Y71185D01*
X373261Y71272D01*
X373323Y71372D01*
X373386Y71497D01*
X373461Y71622D01*
X373598Y71909D01*
X373723Y72222D01*
X373761Y72397D01*
X373798Y72559D01*
X373823Y72734D01*
X373836Y72897D01*
Y72909D01*
Y72934D01*
Y72984D01*
X373823Y73059D01*
X373811Y73134D01*
X373798Y73222D01*
X373748Y73446D01*
X373673Y73696D01*
X373548Y73959D01*
X373473Y74084D01*
X373386Y74221D01*
X373286Y74346D01*
X373161Y74471D01*
X373148Y74484D01*
X373136Y74496D01*
X373086Y74534D01*
X373036Y74571D01*
X372973Y74621D01*
X372886Y74671D01*
X372799Y74734D01*
X372686Y74796D01*
X372574Y74859D01*
X372436Y74921D01*
X372136Y75021D01*
X371799Y75096D01*
X371611Y75109D01*
X371411Y75121D01*
X371299D01*
X371224Y75109D01*
X371124Y75096D01*
X371012Y75084D01*
X370886Y75059D01*
X370761Y75034D01*
X370462Y74959D01*
X370162Y74834D01*
X370012Y74759D01*
X369862Y74659D01*
X369724Y74559D01*
X369587Y74434D01*
X369574Y74421D01*
X369562Y74409D01*
X369524Y74359D01*
X369487Y74309D01*
X369437Y74246D01*
X369374Y74159D01*
X369312Y74059D01*
X369249Y73946D01*
X369187Y73821D01*
X369124Y73684D01*
X369074Y73521D01*
X369012Y73359D01*
X368974Y73184D01*
X368937Y72984D01*
X368924Y72784D01*
X368912Y72559D01*
X367300Y72722D01*
Y72747D01*
X367312Y72797D01*
X367325Y72897D01*
X367337Y73022D01*
X367375Y73172D01*
X367412Y73347D01*
X367462Y73534D01*
X367512Y73747D01*
X367587Y73959D01*
X367675Y74184D01*
X367775Y74409D01*
X367887Y74646D01*
X368025Y74871D01*
X368175Y75084D01*
X368350Y75284D01*
X368537Y75471D01*
X368550Y75483D01*
X368587Y75508D01*
X368650Y75559D01*
X368737Y75621D01*
X368849Y75696D01*
X368974Y75771D01*
X369137Y75858D01*
X369312Y75946D01*
X369512Y76033D01*
X369724Y76121D01*
X369962Y76196D01*
X370224Y76271D01*
X370499Y76333D01*
X370799Y76383D01*
X371111Y76408D01*
X371449Y76421D01*
X371536D01*
X371624Y76408D01*
D02*
G37*
G36*
X381584D02*
X381684Y76396D01*
X381809Y76383D01*
X381934Y76371D01*
X382209Y76321D01*
X382509Y76246D01*
X382821Y76133D01*
X383121Y75996D01*
X383133D01*
X383158Y75971D01*
X383196Y75958D01*
X383258Y75921D01*
X383396Y75821D01*
X383583Y75696D01*
X383783Y75521D01*
X383996Y75321D01*
X384208Y75071D01*
X384408Y74796D01*
Y74784D01*
X384433Y74759D01*
X384458Y74721D01*
X384496Y74659D01*
X384533Y74584D01*
X384583Y74496D01*
X384633Y74384D01*
X384695Y74271D01*
X384758Y74134D01*
X384820Y73996D01*
X384945Y73671D01*
X385083Y73297D01*
X385195Y72897D01*
Y72884D01*
X385208Y72847D01*
X385220Y72784D01*
X385245Y72697D01*
X385270Y72584D01*
X385295Y72447D01*
X385320Y72284D01*
X385345Y72097D01*
X385370Y71897D01*
X385395Y71659D01*
X385420Y71422D01*
X385445Y71147D01*
X385470Y70860D01*
X385483Y70547D01*
X385495Y70222D01*
Y69872D01*
Y69847D01*
Y69773D01*
Y69660D01*
X385483Y69497D01*
Y69310D01*
X385470Y69085D01*
X385458Y68848D01*
X385433Y68573D01*
X385408Y68285D01*
X385383Y67998D01*
X385295Y67386D01*
X385183Y66786D01*
X385108Y66511D01*
X385020Y66236D01*
Y66223D01*
X384995Y66173D01*
X384970Y66098D01*
X384933Y66011D01*
X384883Y65886D01*
X384820Y65761D01*
X384758Y65611D01*
X384670Y65449D01*
X384483Y65111D01*
X384246Y64749D01*
X383958Y64411D01*
X383796Y64249D01*
X383633Y64099D01*
X383621Y64086D01*
X383596Y64061D01*
X383546Y64024D01*
X383471Y63987D01*
X383383Y63924D01*
X383271Y63861D01*
X383146Y63799D01*
X383008Y63724D01*
X382846Y63649D01*
X382671Y63587D01*
X382483Y63524D01*
X382271Y63462D01*
X382059Y63424D01*
X381821Y63387D01*
X381584Y63362D01*
X381321Y63349D01*
X381234D01*
X381146Y63362D01*
X381009Y63374D01*
X380859Y63387D01*
X380672Y63424D01*
X380471Y63462D01*
X380259Y63512D01*
X380034Y63587D01*
X379797Y63674D01*
X379547Y63774D01*
X379309Y63899D01*
X379072Y64049D01*
X378834Y64224D01*
X378610Y64436D01*
X378410Y64661D01*
X378397Y64686D01*
X378360Y64736D01*
X378297Y64836D01*
X378210Y64974D01*
X378122Y65149D01*
X378010Y65361D01*
X377897Y65623D01*
X377785Y65924D01*
X377660Y66261D01*
X377547Y66648D01*
X377435Y67073D01*
X377347Y67536D01*
X377260Y68060D01*
X377197Y68610D01*
X377160Y69223D01*
X377147Y69872D01*
Y69885D01*
Y69897D01*
Y69972D01*
Y70097D01*
X377160Y70247D01*
Y70447D01*
X377172Y70660D01*
X377185Y70910D01*
X377210Y71185D01*
X377235Y71472D01*
X377260Y71772D01*
X377347Y72372D01*
X377460Y72984D01*
X377535Y73259D01*
X377610Y73534D01*
Y73547D01*
X377635Y73597D01*
X377660Y73671D01*
X377697Y73759D01*
X377747Y73884D01*
X377810Y74009D01*
X377872Y74159D01*
X377960Y74321D01*
X378147Y74671D01*
X378385Y75021D01*
X378672Y75359D01*
X378834Y75521D01*
X378997Y75671D01*
X379009Y75683D01*
X379034Y75708D01*
X379097Y75746D01*
X379159Y75783D01*
X379259Y75846D01*
X379359Y75908D01*
X379497Y75971D01*
X379634Y76046D01*
X379797Y76121D01*
X379972Y76183D01*
X380159Y76246D01*
X380372Y76308D01*
X380584Y76346D01*
X380821Y76383D01*
X381059Y76408D01*
X381321Y76421D01*
X381496D01*
X381584Y76408D01*
D02*
G37*
G36*
X223533Y49000D02*
X222353D01*
Y56508D01*
X222343D01*
X222334Y56489D01*
X222306Y56470D01*
X222278Y56442D01*
X222184Y56357D01*
X222053Y56254D01*
X221893Y56133D01*
X221696Y55992D01*
X221472Y55842D01*
X221228Y55692D01*
X221218D01*
X221200Y55673D01*
X221162Y55655D01*
X221115Y55626D01*
X221050Y55589D01*
X220984Y55552D01*
X220815Y55467D01*
X220628Y55373D01*
X220422Y55270D01*
X220206Y55177D01*
X220000Y55092D01*
Y56226D01*
X220009Y56236D01*
X220047Y56245D01*
X220094Y56273D01*
X220169Y56311D01*
X220253Y56357D01*
X220347Y56414D01*
X220459Y56470D01*
X220581Y56545D01*
X220853Y56704D01*
X221143Y56901D01*
X221434Y57117D01*
X221725Y57351D01*
X221734Y57360D01*
X221753Y57379D01*
X221800Y57417D01*
X221846Y57463D01*
X221903Y57529D01*
X221978Y57595D01*
X222053Y57679D01*
X222137Y57763D01*
X222306Y57960D01*
X222474Y58176D01*
X222634Y58410D01*
X222709Y58523D01*
X222765Y58644D01*
X223533D01*
Y49000D01*
D02*
G37*
G36*
X158034Y175930D02*
X156853D01*
Y183438D01*
X156843D01*
X156834Y183419D01*
X156806Y183400D01*
X156777Y183372D01*
X156684Y183288D01*
X156553Y183185D01*
X156393Y183063D01*
X156196Y182922D01*
X155971Y182772D01*
X155728Y182622D01*
X155718D01*
X155700Y182604D01*
X155662Y182585D01*
X155615Y182557D01*
X155550Y182519D01*
X155484Y182482D01*
X155315Y182397D01*
X155128Y182304D01*
X154922Y182201D01*
X154706Y182107D01*
X154500Y182022D01*
Y183157D01*
X154509Y183166D01*
X154547Y183175D01*
X154594Y183204D01*
X154669Y183241D01*
X154753Y183288D01*
X154847Y183344D01*
X154959Y183400D01*
X155081Y183475D01*
X155353Y183635D01*
X155644Y183832D01*
X155934Y184047D01*
X156225Y184281D01*
X156234Y184291D01*
X156253Y184310D01*
X156299Y184347D01*
X156346Y184394D01*
X156403Y184459D01*
X156478Y184525D01*
X156553Y184609D01*
X156637Y184694D01*
X156806Y184891D01*
X156974Y185106D01*
X157134Y185340D01*
X157209Y185453D01*
X157265Y185575D01*
X158034D01*
Y175930D01*
D02*
G37*
%LPC*%
G36*
X389006Y244119D02*
X388931D01*
X388875Y244110D01*
X388800Y244100D01*
X388725Y244081D01*
X388537Y244035D01*
X388434Y243997D01*
X388331Y243950D01*
X388218Y243894D01*
X388115Y243828D01*
X388003Y243744D01*
X387900Y243650D01*
X387797Y243547D01*
X387703Y243425D01*
X387694Y243416D01*
X387675Y243388D01*
X387647Y243332D01*
X387609Y243247D01*
X387562Y243154D01*
X387516Y243022D01*
X387459Y242872D01*
X387403Y242694D01*
X387347Y242479D01*
X387291Y242244D01*
X387244Y241982D01*
X387197Y241682D01*
X387159Y241363D01*
X387131Y240998D01*
X387113Y240604D01*
X387103Y240182D01*
Y240173D01*
Y240154D01*
Y240126D01*
Y240079D01*
Y240023D01*
Y239958D01*
X387113Y239883D01*
Y239798D01*
X387122Y239611D01*
X387131Y239395D01*
X387150Y239151D01*
X387169Y238899D01*
X387234Y238374D01*
X387281Y238111D01*
X387337Y237858D01*
X387403Y237614D01*
X387478Y237390D01*
X387562Y237193D01*
X387656Y237033D01*
X387665Y237024D01*
X387684Y236996D01*
X387712Y236958D01*
X387759Y236912D01*
X387806Y236855D01*
X387872Y236790D01*
X387947Y236715D01*
X388031Y236649D01*
X388134Y236574D01*
X388237Y236499D01*
X388472Y236377D01*
X388593Y236330D01*
X388734Y236293D01*
X388875Y236265D01*
X389025Y236255D01*
X389062D01*
X389100Y236265D01*
X389156D01*
X389231Y236283D01*
X389306Y236293D01*
X389399Y236321D01*
X389493Y236349D01*
X389606Y236396D01*
X389709Y236443D01*
X389821Y236508D01*
X389934Y236583D01*
X390056Y236677D01*
X390168Y236780D01*
X390280Y236893D01*
X390384Y237033D01*
X390393Y237043D01*
X390412Y237071D01*
X390440Y237118D01*
X390468Y237193D01*
X390515Y237286D01*
X390562Y237408D01*
X390608Y237549D01*
X390665Y237727D01*
X390721Y237924D01*
X390768Y238149D01*
X390815Y238402D01*
X390862Y238692D01*
X390890Y239011D01*
X390918Y239367D01*
X390937Y239761D01*
X390946Y240182D01*
Y240192D01*
Y240211D01*
Y240239D01*
Y240286D01*
Y240342D01*
Y240407D01*
X390937Y240482D01*
Y240567D01*
X390927Y240754D01*
X390918Y240970D01*
X390899Y241213D01*
X390880Y241467D01*
X390815Y241991D01*
X390768Y242254D01*
X390712Y242516D01*
X390646Y242751D01*
X390580Y242976D01*
X390487Y243172D01*
X390393Y243332D01*
X390384Y243341D01*
X390365Y243369D01*
X390337Y243407D01*
X390290Y243454D01*
X390243Y243519D01*
X390177Y243585D01*
X390102Y243650D01*
X390009Y243725D01*
X389915Y243800D01*
X389812Y243866D01*
X389578Y243997D01*
X389446Y244044D01*
X389306Y244081D01*
X389156Y244110D01*
X389006Y244119D01*
D02*
G37*
G36*
X387994Y184759D02*
X387919D01*
X387862Y184750D01*
X387797Y184741D01*
X387712Y184722D01*
X387628Y184703D01*
X387525Y184675D01*
X387422Y184647D01*
X387309Y184600D01*
X387197Y184553D01*
X387084Y184487D01*
X386972Y184413D01*
X386850Y184328D01*
X386738Y184225D01*
X386625Y184113D01*
X386616Y184103D01*
X386597Y184084D01*
X386569Y184047D01*
X386531Y184000D01*
X386494Y183935D01*
X386438Y183860D01*
X386391Y183766D01*
X386335Y183663D01*
X386278Y183550D01*
X386231Y183428D01*
X386175Y183288D01*
X386138Y183147D01*
X386100Y182988D01*
X386072Y182819D01*
X386054Y182641D01*
X386044Y182454D01*
Y182444D01*
Y182416D01*
Y182369D01*
X386054Y182304D01*
X386063Y182219D01*
X386072Y182135D01*
X386091Y182032D01*
X386110Y181919D01*
X386175Y181685D01*
X386222Y181563D01*
X386278Y181441D01*
X386335Y181310D01*
X386410Y181188D01*
X386494Y181076D01*
X386588Y180963D01*
X386597Y180954D01*
X386616Y180935D01*
X386644Y180907D01*
X386691Y180879D01*
X386738Y180832D01*
X386803Y180785D01*
X386878Y180729D01*
X386963Y180682D01*
X387066Y180626D01*
X387169Y180570D01*
X387403Y180485D01*
X387525Y180448D01*
X387665Y180420D01*
X387806Y180401D01*
X387956Y180392D01*
X388040D01*
X388097Y180401D01*
X388162Y180410D01*
X388247Y180420D01*
X388340Y180439D01*
X388434Y180467D01*
X388650Y180532D01*
X388762Y180579D01*
X388875Y180635D01*
X388987Y180701D01*
X389100Y180776D01*
X389203Y180860D01*
X389306Y180963D01*
X389315Y180973D01*
X389324Y180992D01*
X389353Y181020D01*
X389390Y181066D01*
X389428Y181123D01*
X389474Y181198D01*
X389521Y181282D01*
X389578Y181376D01*
X389624Y181479D01*
X389671Y181601D01*
X389718Y181732D01*
X389756Y181873D01*
X389793Y182022D01*
X389821Y182191D01*
X389831Y182360D01*
X389840Y182547D01*
Y182557D01*
Y182594D01*
Y182641D01*
X389831Y182716D01*
X389821Y182801D01*
X389812Y182904D01*
X389793Y183007D01*
X389774Y183129D01*
X389709Y183382D01*
X389662Y183522D01*
X389615Y183653D01*
X389549Y183785D01*
X389474Y183916D01*
X389390Y184047D01*
X389296Y184160D01*
X389287Y184169D01*
X389268Y184188D01*
X389240Y184216D01*
X389203Y184253D01*
X389146Y184300D01*
X389090Y184347D01*
X389015Y184403D01*
X388931Y184459D01*
X388743Y184572D01*
X388518Y184666D01*
X388397Y184703D01*
X388275Y184731D01*
X388134Y184750D01*
X387994Y184759D01*
D02*
G37*
G36*
X361984Y244128D02*
X361919D01*
X361872Y244119D01*
X361815D01*
X361740Y244110D01*
X361591Y244072D01*
X361413Y244025D01*
X361225Y243941D01*
X361038Y243838D01*
X360944Y243763D01*
X360859Y243688D01*
Y243678D01*
X360841Y243669D01*
X360794Y243613D01*
X360719Y243519D01*
X360644Y243397D01*
X360560Y243247D01*
X360485Y243069D01*
X360438Y242872D01*
X360428Y242769D01*
X360419Y242657D01*
Y242647D01*
Y242629D01*
Y242591D01*
X360428Y242544D01*
Y242488D01*
X360438Y242423D01*
X360475Y242263D01*
X360522Y242085D01*
X360597Y241898D01*
X360709Y241710D01*
X360775Y241626D01*
X360850Y241542D01*
X360859D01*
X360869Y241523D01*
X360897Y241504D01*
X360934Y241476D01*
X361028Y241401D01*
X361159Y241326D01*
X361319Y241251D01*
X361516Y241176D01*
X361740Y241129D01*
X361862Y241120D01*
X361994Y241110D01*
X362059D01*
X362106Y241120D01*
X362162D01*
X362237Y241129D01*
X362387Y241167D01*
X362565Y241213D01*
X362753Y241289D01*
X362940Y241392D01*
X363025Y241457D01*
X363109Y241532D01*
X363118Y241542D01*
X363128Y241551D01*
X363146Y241579D01*
X363175Y241607D01*
X363250Y241701D01*
X363334Y241823D01*
X363409Y241982D01*
X363484Y242160D01*
X363531Y242366D01*
X363549Y242479D01*
Y242591D01*
Y242601D01*
Y242619D01*
Y242657D01*
X363540Y242704D01*
Y242751D01*
X363531Y242816D01*
X363493Y242966D01*
X363437Y243144D01*
X363362Y243322D01*
X363250Y243510D01*
X363175Y243594D01*
X363100Y243678D01*
X363090Y243688D01*
X363081Y243697D01*
X363053Y243716D01*
X363015Y243754D01*
X362921Y243819D01*
X362790Y243903D01*
X362631Y243988D01*
X362444Y244063D01*
X362228Y244110D01*
X362106Y244119D01*
X361984Y244128D01*
D02*
G37*
G36*
X361956Y240145D02*
X361872D01*
X361815Y240136D01*
X361750Y240126D01*
X361665Y240117D01*
X361572Y240098D01*
X361469Y240079D01*
X361253Y240014D01*
X361141Y239967D01*
X361019Y239911D01*
X360906Y239845D01*
X360794Y239779D01*
X360681Y239686D01*
X360578Y239592D01*
X360569Y239583D01*
X360560Y239564D01*
X360532Y239536D01*
X360494Y239489D01*
X360457Y239442D01*
X360410Y239377D01*
X360353Y239301D01*
X360307Y239217D01*
X360260Y239114D01*
X360203Y239011D01*
X360119Y238777D01*
X360082Y238645D01*
X360063Y238514D01*
X360044Y238364D01*
X360035Y238214D01*
Y238205D01*
Y238195D01*
Y238167D01*
Y238130D01*
X360044Y238027D01*
X360063Y237905D01*
X360091Y237755D01*
X360138Y237586D01*
X360194Y237418D01*
X360269Y237239D01*
Y237230D01*
X360278Y237221D01*
X360316Y237164D01*
X360372Y237080D01*
X360447Y236977D01*
X360541Y236855D01*
X360663Y236733D01*
X360803Y236611D01*
X360972Y236508D01*
X360981D01*
X360991Y236499D01*
X361019Y236490D01*
X361056Y236471D01*
X361150Y236424D01*
X361281Y236387D01*
X361431Y236340D01*
X361609Y236293D01*
X361797Y236265D01*
X361994Y236255D01*
X362078D01*
X362134Y236265D01*
X362209Y236274D01*
X362294Y236283D01*
X362387Y236302D01*
X362490Y236321D01*
X362706Y236387D01*
X362828Y236434D01*
X362940Y236480D01*
X363062Y236546D01*
X363175Y236611D01*
X363287Y236696D01*
X363390Y236790D01*
X363400Y236799D01*
X363418Y236818D01*
X363437Y236846D01*
X363475Y236893D01*
X363521Y236940D01*
X363568Y237005D01*
X363615Y237080D01*
X363671Y237164D01*
X363718Y237258D01*
X363765Y237371D01*
X363859Y237605D01*
X363896Y237736D01*
X363915Y237877D01*
X363934Y238027D01*
X363943Y238177D01*
Y238186D01*
Y238214D01*
Y238261D01*
X363934Y238317D01*
X363924Y238392D01*
X363915Y238477D01*
X363896Y238570D01*
X363868Y238673D01*
X363802Y238899D01*
X363756Y239011D01*
X363699Y239133D01*
X363634Y239245D01*
X363559Y239367D01*
X363475Y239480D01*
X363371Y239583D01*
X363362Y239592D01*
X363343Y239611D01*
X363315Y239639D01*
X363268Y239667D01*
X363212Y239714D01*
X363146Y239761D01*
X363071Y239808D01*
X362987Y239864D01*
X362884Y239920D01*
X362781Y239967D01*
X362537Y240061D01*
X362406Y240089D01*
X362265Y240117D01*
X362115Y240136D01*
X361956Y240145D01*
D02*
G37*
G36*
X335550Y240642D02*
X335475D01*
X335419Y240632D01*
X335353Y240623D01*
X335269Y240614D01*
X335184Y240595D01*
X335081Y240567D01*
X334875Y240501D01*
X334763Y240454D01*
X334641Y240398D01*
X334528Y240333D01*
X334416Y240248D01*
X334303Y240164D01*
X334200Y240061D01*
X334191Y240051D01*
X334172Y240033D01*
X334153Y240004D01*
X334116Y239958D01*
X334069Y239901D01*
X334022Y239836D01*
X333975Y239751D01*
X333928Y239658D01*
X333872Y239555D01*
X333825Y239442D01*
X333778Y239320D01*
X333732Y239189D01*
X333694Y239048D01*
X333675Y238889D01*
X333657Y238730D01*
X333647Y238561D01*
Y238552D01*
Y238533D01*
Y238505D01*
Y238458D01*
X333657Y238402D01*
Y238336D01*
X333675Y238186D01*
X333713Y238008D01*
X333750Y237811D01*
X333816Y237605D01*
X333900Y237390D01*
Y237380D01*
X333910Y237361D01*
X333928Y237333D01*
X333947Y237296D01*
X334003Y237202D01*
X334088Y237080D01*
X334191Y236940D01*
X334313Y236799D01*
X334463Y236668D01*
X334622Y236546D01*
X334631D01*
X334641Y236537D01*
X334669Y236518D01*
X334706Y236499D01*
X334791Y236452D01*
X334912Y236405D01*
X335062Y236349D01*
X335231Y236302D01*
X335409Y236265D01*
X335597Y236255D01*
X335672D01*
X335719Y236265D01*
X335784Y236274D01*
X335859Y236283D01*
X336037Y236330D01*
X336243Y236405D01*
X336347Y236452D01*
X336459Y236508D01*
X336562Y236574D01*
X336675Y236658D01*
X336778Y236752D01*
X336881Y236855D01*
X336890Y236865D01*
X336909Y236883D01*
X336928Y236921D01*
X336965Y236968D01*
X337003Y237024D01*
X337049Y237099D01*
X337106Y237183D01*
X337153Y237286D01*
X337199Y237399D01*
X337256Y237521D01*
X337303Y237652D01*
X337340Y237802D01*
X337378Y237961D01*
X337406Y238130D01*
X337415Y238308D01*
X337424Y238495D01*
Y238505D01*
Y238542D01*
Y238589D01*
X337415Y238664D01*
X337406Y238739D01*
X337396Y238842D01*
X337378Y238945D01*
X337359Y239067D01*
X337293Y239311D01*
X337256Y239442D01*
X337199Y239573D01*
X337134Y239704D01*
X337068Y239826D01*
X336984Y239948D01*
X336890Y240061D01*
X336881Y240070D01*
X336862Y240089D01*
X336834Y240117D01*
X336796Y240154D01*
X336740Y240192D01*
X336684Y240248D01*
X336609Y240295D01*
X336525Y240351D01*
X336431Y240407D01*
X336337Y240454D01*
X336103Y240548D01*
X335981Y240585D01*
X335840Y240614D01*
X335700Y240632D01*
X335550Y240642D01*
D02*
G37*
G36*
X314122Y243004D02*
X311104Y238664D01*
X314122D01*
Y243004D01*
D02*
G37*
G36*
X261587Y244119D02*
X261512D01*
X261456Y244110D01*
X261381Y244100D01*
X261306Y244081D01*
X261119Y244035D01*
X261016Y243997D01*
X260912Y243950D01*
X260800Y243894D01*
X260697Y243828D01*
X260584Y243744D01*
X260481Y243650D01*
X260378Y243547D01*
X260285Y243425D01*
X260275Y243416D01*
X260256Y243388D01*
X260228Y243332D01*
X260191Y243247D01*
X260144Y243154D01*
X260097Y243022D01*
X260041Y242872D01*
X259985Y242694D01*
X259928Y242479D01*
X259872Y242244D01*
X259825Y241982D01*
X259778Y241682D01*
X259741Y241363D01*
X259713Y240998D01*
X259694Y240604D01*
X259685Y240182D01*
Y240173D01*
Y240154D01*
Y240126D01*
Y240079D01*
Y240023D01*
Y239958D01*
X259694Y239883D01*
Y239798D01*
X259703Y239611D01*
X259713Y239395D01*
X259732Y239151D01*
X259750Y238899D01*
X259816Y238374D01*
X259863Y238111D01*
X259919Y237858D01*
X259985Y237614D01*
X260060Y237390D01*
X260144Y237193D01*
X260238Y237033D01*
X260247Y237024D01*
X260266Y236996D01*
X260294Y236958D01*
X260341Y236912D01*
X260388Y236855D01*
X260453Y236790D01*
X260528Y236715D01*
X260613Y236649D01*
X260716Y236574D01*
X260819Y236499D01*
X261053Y236377D01*
X261175Y236330D01*
X261315Y236293D01*
X261456Y236265D01*
X261606Y236255D01*
X261644D01*
X261681Y236265D01*
X261737D01*
X261812Y236283D01*
X261887Y236293D01*
X261981Y236321D01*
X262075Y236349D01*
X262187Y236396D01*
X262290Y236443D01*
X262403Y236508D01*
X262515Y236583D01*
X262637Y236677D01*
X262750Y236780D01*
X262862Y236893D01*
X262965Y237033D01*
X262974Y237043D01*
X262993Y237071D01*
X263021Y237118D01*
X263049Y237193D01*
X263096Y237286D01*
X263143Y237408D01*
X263190Y237549D01*
X263246Y237727D01*
X263302Y237924D01*
X263349Y238149D01*
X263396Y238402D01*
X263443Y238692D01*
X263471Y239011D01*
X263499Y239367D01*
X263518Y239761D01*
X263527Y240182D01*
Y240192D01*
Y240211D01*
Y240239D01*
Y240286D01*
Y240342D01*
Y240407D01*
X263518Y240482D01*
Y240567D01*
X263509Y240754D01*
X263499Y240970D01*
X263481Y241213D01*
X263462Y241467D01*
X263396Y241991D01*
X263349Y242254D01*
X263293Y242516D01*
X263228Y242751D01*
X263162Y242976D01*
X263068Y243172D01*
X262974Y243332D01*
X262965Y243341D01*
X262946Y243369D01*
X262918Y243407D01*
X262871Y243454D01*
X262824Y243519D01*
X262759Y243585D01*
X262684Y243650D01*
X262590Y243725D01*
X262496Y243800D01*
X262393Y243866D01*
X262159Y243997D01*
X262028Y244044D01*
X261887Y244081D01*
X261737Y244110D01*
X261587Y244119D01*
D02*
G37*
G36*
X259659Y184759D02*
X259584D01*
X259527Y184750D01*
X259462Y184741D01*
X259377Y184722D01*
X259293Y184703D01*
X259190Y184675D01*
X259087Y184647D01*
X258974Y184600D01*
X258862Y184553D01*
X258749Y184487D01*
X258637Y184413D01*
X258515Y184328D01*
X258403Y184225D01*
X258290Y184113D01*
X258281Y184103D01*
X258262Y184084D01*
X258234Y184047D01*
X258196Y184000D01*
X258159Y183935D01*
X258103Y183860D01*
X258056Y183766D01*
X258000Y183663D01*
X257943Y183550D01*
X257896Y183428D01*
X257840Y183288D01*
X257803Y183147D01*
X257765Y182988D01*
X257737Y182819D01*
X257718Y182641D01*
X257709Y182454D01*
Y182444D01*
Y182416D01*
Y182369D01*
X257718Y182304D01*
X257728Y182219D01*
X257737Y182135D01*
X257756Y182032D01*
X257775Y181919D01*
X257840Y181685D01*
X257887Y181563D01*
X257943Y181441D01*
X258000Y181310D01*
X258075Y181188D01*
X258159Y181076D01*
X258253Y180963D01*
X258262Y180954D01*
X258281Y180935D01*
X258309Y180907D01*
X258356Y180879D01*
X258403Y180832D01*
X258468Y180785D01*
X258543Y180729D01*
X258628Y180682D01*
X258731Y180626D01*
X258834Y180570D01*
X259068Y180485D01*
X259190Y180448D01*
X259331Y180420D01*
X259471Y180401D01*
X259621Y180392D01*
X259705D01*
X259762Y180401D01*
X259827Y180410D01*
X259912Y180420D01*
X260005Y180439D01*
X260099Y180467D01*
X260315Y180532D01*
X260427Y180579D01*
X260540Y180635D01*
X260652Y180701D01*
X260765Y180776D01*
X260868Y180860D01*
X260971Y180963D01*
X260980Y180973D01*
X260989Y180992D01*
X261018Y181020D01*
X261055Y181066D01*
X261093Y181123D01*
X261139Y181198D01*
X261186Y181282D01*
X261243Y181376D01*
X261289Y181479D01*
X261336Y181601D01*
X261383Y181732D01*
X261421Y181873D01*
X261458Y182022D01*
X261486Y182191D01*
X261496Y182360D01*
X261505Y182547D01*
Y182557D01*
Y182594D01*
Y182641D01*
X261496Y182716D01*
X261486Y182801D01*
X261477Y182904D01*
X261458Y183007D01*
X261439Y183129D01*
X261374Y183382D01*
X261327Y183522D01*
X261280Y183653D01*
X261214Y183785D01*
X261139Y183916D01*
X261055Y184047D01*
X260961Y184160D01*
X260952Y184169D01*
X260933Y184188D01*
X260905Y184216D01*
X260868Y184253D01*
X260811Y184300D01*
X260755Y184347D01*
X260680Y184403D01*
X260596Y184459D01*
X260408Y184572D01*
X260183Y184666D01*
X260062Y184703D01*
X259940Y184731D01*
X259799Y184750D01*
X259659Y184759D01*
D02*
G37*
G36*
X232083Y244128D02*
X232017D01*
X231971Y244119D01*
X231914D01*
X231839Y244110D01*
X231689Y244072D01*
X231511Y244025D01*
X231324Y243941D01*
X231136Y243838D01*
X231043Y243763D01*
X230958Y243688D01*
Y243678D01*
X230940Y243669D01*
X230893Y243613D01*
X230818Y243519D01*
X230743Y243397D01*
X230658Y243247D01*
X230583Y243069D01*
X230536Y242872D01*
X230527Y242769D01*
X230518Y242657D01*
Y242647D01*
Y242629D01*
Y242591D01*
X230527Y242544D01*
Y242488D01*
X230536Y242423D01*
X230574Y242263D01*
X230621Y242085D01*
X230696Y241898D01*
X230808Y241710D01*
X230874Y241626D01*
X230949Y241542D01*
X230958D01*
X230968Y241523D01*
X230996Y241504D01*
X231033Y241476D01*
X231127Y241401D01*
X231258Y241326D01*
X231418Y241251D01*
X231614Y241176D01*
X231839Y241129D01*
X231961Y241120D01*
X232092Y241110D01*
X232158D01*
X232205Y241120D01*
X232261D01*
X232336Y241129D01*
X232486Y241167D01*
X232664Y241213D01*
X232852Y241289D01*
X233039Y241392D01*
X233123Y241457D01*
X233208Y241532D01*
X233217Y241542D01*
X233226Y241551D01*
X233245Y241579D01*
X233273Y241607D01*
X233348Y241701D01*
X233433Y241823D01*
X233508Y241982D01*
X233582Y242160D01*
X233629Y242366D01*
X233648Y242479D01*
Y242591D01*
Y242601D01*
Y242619D01*
Y242657D01*
X233639Y242704D01*
Y242751D01*
X233629Y242816D01*
X233592Y242966D01*
X233536Y243144D01*
X233461Y243322D01*
X233348Y243510D01*
X233273Y243594D01*
X233198Y243678D01*
X233189Y243688D01*
X233179Y243697D01*
X233151Y243716D01*
X233114Y243754D01*
X233020Y243819D01*
X232889Y243903D01*
X232730Y243988D01*
X232542Y244063D01*
X232327Y244110D01*
X232205Y244119D01*
X232083Y244128D01*
D02*
G37*
G36*
X232055Y240145D02*
X231971D01*
X231914Y240136D01*
X231849Y240126D01*
X231764Y240117D01*
X231670Y240098D01*
X231567Y240079D01*
X231352Y240014D01*
X231239Y239967D01*
X231117Y239911D01*
X231005Y239845D01*
X230893Y239779D01*
X230780Y239686D01*
X230677Y239592D01*
X230668Y239583D01*
X230658Y239564D01*
X230630Y239536D01*
X230593Y239489D01*
X230555Y239442D01*
X230508Y239377D01*
X230452Y239301D01*
X230405Y239217D01*
X230358Y239114D01*
X230302Y239011D01*
X230218Y238777D01*
X230180Y238645D01*
X230161Y238514D01*
X230143Y238364D01*
X230133Y238214D01*
Y238205D01*
Y238195D01*
Y238167D01*
Y238130D01*
X230143Y238027D01*
X230161Y237905D01*
X230190Y237755D01*
X230236Y237586D01*
X230293Y237418D01*
X230368Y237239D01*
Y237230D01*
X230377Y237221D01*
X230415Y237164D01*
X230471Y237080D01*
X230546Y236977D01*
X230639Y236855D01*
X230761Y236733D01*
X230902Y236611D01*
X231071Y236508D01*
X231080D01*
X231089Y236499D01*
X231117Y236490D01*
X231155Y236471D01*
X231249Y236424D01*
X231380Y236387D01*
X231530Y236340D01*
X231708Y236293D01*
X231896Y236265D01*
X232092Y236255D01*
X232177D01*
X232233Y236265D01*
X232308Y236274D01*
X232392Y236283D01*
X232486Y236302D01*
X232589Y236321D01*
X232805Y236387D01*
X232927Y236434D01*
X233039Y236480D01*
X233161Y236546D01*
X233273Y236611D01*
X233386Y236696D01*
X233489Y236790D01*
X233498Y236799D01*
X233517Y236818D01*
X233536Y236846D01*
X233573Y236893D01*
X233620Y236940D01*
X233667Y237005D01*
X233714Y237080D01*
X233770Y237164D01*
X233817Y237258D01*
X233864Y237371D01*
X233957Y237605D01*
X233995Y237736D01*
X234014Y237877D01*
X234032Y238027D01*
X234042Y238177D01*
Y238186D01*
Y238214D01*
Y238261D01*
X234032Y238317D01*
X234023Y238392D01*
X234014Y238477D01*
X233995Y238570D01*
X233967Y238673D01*
X233901Y238899D01*
X233854Y239011D01*
X233798Y239133D01*
X233732Y239245D01*
X233657Y239367D01*
X233573Y239480D01*
X233470Y239583D01*
X233461Y239592D01*
X233442Y239611D01*
X233414Y239639D01*
X233367Y239667D01*
X233311Y239714D01*
X233245Y239761D01*
X233170Y239808D01*
X233086Y239864D01*
X232983Y239920D01*
X232880Y239967D01*
X232636Y240061D01*
X232505Y240089D01*
X232364Y240117D01*
X232214Y240136D01*
X232055Y240145D01*
D02*
G37*
G36*
X207600Y240642D02*
X207525D01*
X207469Y240632D01*
X207403Y240623D01*
X207319Y240614D01*
X207234Y240595D01*
X207131Y240567D01*
X206925Y240501D01*
X206813Y240454D01*
X206691Y240398D01*
X206578Y240333D01*
X206466Y240248D01*
X206353Y240164D01*
X206250Y240061D01*
X206241Y240051D01*
X206222Y240033D01*
X206203Y240004D01*
X206166Y239958D01*
X206119Y239901D01*
X206072Y239836D01*
X206025Y239751D01*
X205979Y239658D01*
X205922Y239555D01*
X205875Y239442D01*
X205829Y239320D01*
X205782Y239189D01*
X205744Y239048D01*
X205725Y238889D01*
X205707Y238730D01*
X205697Y238561D01*
Y238552D01*
Y238533D01*
Y238505D01*
Y238458D01*
X205707Y238402D01*
Y238336D01*
X205725Y238186D01*
X205763Y238008D01*
X205800Y237811D01*
X205866Y237605D01*
X205951Y237390D01*
Y237380D01*
X205960Y237361D01*
X205979Y237333D01*
X205997Y237296D01*
X206054Y237202D01*
X206138Y237080D01*
X206241Y236940D01*
X206363Y236799D01*
X206513Y236668D01*
X206672Y236546D01*
X206681D01*
X206691Y236537D01*
X206719Y236518D01*
X206756Y236499D01*
X206841Y236452D01*
X206963Y236405D01*
X207113Y236349D01*
X207281Y236302D01*
X207460Y236265D01*
X207647Y236255D01*
X207722D01*
X207769Y236265D01*
X207834Y236274D01*
X207909Y236283D01*
X208087Y236330D01*
X208294Y236405D01*
X208397Y236452D01*
X208509Y236508D01*
X208612Y236574D01*
X208725Y236658D01*
X208828Y236752D01*
X208931Y236855D01*
X208940Y236865D01*
X208959Y236883D01*
X208978Y236921D01*
X209015Y236968D01*
X209053Y237024D01*
X209100Y237099D01*
X209156Y237183D01*
X209203Y237286D01*
X209250Y237399D01*
X209306Y237521D01*
X209353Y237652D01*
X209390Y237802D01*
X209428Y237961D01*
X209456Y238130D01*
X209465Y238308D01*
X209475Y238495D01*
Y238505D01*
Y238542D01*
Y238589D01*
X209465Y238664D01*
X209456Y238739D01*
X209446Y238842D01*
X209428Y238945D01*
X209409Y239067D01*
X209343Y239311D01*
X209306Y239442D01*
X209250Y239573D01*
X209184Y239704D01*
X209118Y239826D01*
X209034Y239948D01*
X208940Y240061D01*
X208931Y240070D01*
X208912Y240089D01*
X208884Y240117D01*
X208847Y240154D01*
X208790Y240192D01*
X208734Y240248D01*
X208659Y240295D01*
X208575Y240351D01*
X208481Y240407D01*
X208387Y240454D01*
X208153Y240548D01*
X208031Y240585D01*
X207891Y240614D01*
X207750Y240632D01*
X207600Y240642D01*
D02*
G37*
G36*
X327309Y149312D02*
X321059Y148999D01*
X320746D01*
X320434Y148687D01*
X320121Y148375D01*
Y132750D01*
X320434Y132437D01*
X327934D01*
X329809Y132750D01*
X331684Y133375D01*
X333871Y134937D01*
X334184Y135562D01*
X335121Y136812D01*
X336059Y138687D01*
X336371Y141187D01*
Y141500D01*
Y141812D01*
X336059Y143062D01*
X335434Y144937D01*
X333871Y146812D01*
X333559Y147125D01*
X331996Y148062D01*
X330121Y148999D01*
X327309Y149312D01*
D02*
G37*
G36*
X223873D02*
X216998Y148999D01*
X216685D01*
X216373Y148687D01*
X216060Y148375D01*
Y132750D01*
X216373D01*
X216685Y132437D01*
X224498D01*
X226060Y132750D01*
X227935Y133375D01*
X229810Y134937D01*
X230123Y135562D01*
X231060Y136812D01*
X231998Y138687D01*
X232310Y141187D01*
Y141500D01*
Y141812D01*
X231998Y143062D01*
X231373Y144937D01*
X229810Y146812D01*
X229498Y147125D01*
X228248Y148062D01*
X226373Y148999D01*
X223873Y149312D01*
D02*
G37*
G36*
X425745Y147125D02*
X425433D01*
X425120Y146500D01*
X420120Y125875D01*
Y125562D01*
X420433Y125250D01*
X420745Y124937D01*
X430433D01*
X430745Y125250D01*
X430433Y125875D01*
X426058Y146500D01*
Y146812D01*
X425745Y147125D01*
D02*
G37*
G36*
X321722Y57663D02*
X321647D01*
X321591Y57653D01*
X321516Y57644D01*
X321441Y57625D01*
X321254Y57578D01*
X321151Y57541D01*
X321047Y57494D01*
X320935Y57438D01*
X320832Y57372D01*
X320719Y57288D01*
X320616Y57194D01*
X320513Y57091D01*
X320420Y56969D01*
X320410Y56960D01*
X320391Y56932D01*
X320363Y56875D01*
X320326Y56791D01*
X320279Y56697D01*
X320232Y56566D01*
X320176Y56416D01*
X320120Y56238D01*
X320063Y56022D01*
X320007Y55788D01*
X319960Y55526D01*
X319913Y55226D01*
X319876Y54907D01*
X319848Y54542D01*
X319829Y54148D01*
X319820Y53726D01*
Y53717D01*
Y53698D01*
Y53670D01*
Y53623D01*
Y53567D01*
Y53501D01*
X319829Y53426D01*
Y53342D01*
X319838Y53154D01*
X319848Y52939D01*
X319867Y52695D01*
X319885Y52442D01*
X319951Y51917D01*
X319998Y51655D01*
X320054Y51402D01*
X320120Y51158D01*
X320195Y50933D01*
X320279Y50736D01*
X320373Y50577D01*
X320382Y50567D01*
X320401Y50539D01*
X320429Y50502D01*
X320476Y50455D01*
X320522Y50399D01*
X320588Y50333D01*
X320663Y50258D01*
X320747Y50193D01*
X320851Y50118D01*
X320954Y50043D01*
X321188Y49921D01*
X321310Y49874D01*
X321450Y49837D01*
X321591Y49808D01*
X321741Y49799D01*
X321778D01*
X321816Y49808D01*
X321872D01*
X321947Y49827D01*
X322022Y49837D01*
X322116Y49865D01*
X322210Y49893D01*
X322322Y49939D01*
X322425Y49986D01*
X322538Y50052D01*
X322650Y50127D01*
X322772Y50221D01*
X322884Y50324D01*
X322997Y50436D01*
X323100Y50577D01*
X323109Y50586D01*
X323128Y50614D01*
X323156Y50661D01*
X323184Y50736D01*
X323231Y50830D01*
X323278Y50952D01*
X323325Y51092D01*
X323381Y51270D01*
X323437Y51467D01*
X323484Y51692D01*
X323531Y51945D01*
X323578Y52236D01*
X323606Y52554D01*
X323634Y52911D01*
X323653Y53304D01*
X323662Y53726D01*
Y53735D01*
Y53754D01*
Y53782D01*
Y53829D01*
Y53885D01*
Y53951D01*
X323653Y54026D01*
Y54110D01*
X323644Y54298D01*
X323634Y54513D01*
X323615Y54757D01*
X323597Y55010D01*
X323531Y55535D01*
X323484Y55797D01*
X323428Y56060D01*
X323362Y56294D01*
X323297Y56519D01*
X323203Y56716D01*
X323109Y56875D01*
X323100Y56885D01*
X323081Y56913D01*
X323053Y56950D01*
X323006Y56997D01*
X322959Y57063D01*
X322894Y57128D01*
X322819Y57194D01*
X322725Y57269D01*
X322631Y57344D01*
X322528Y57410D01*
X322294Y57541D01*
X322163Y57588D01*
X322022Y57625D01*
X321872Y57653D01*
X321722Y57663D01*
D02*
G37*
G36*
X182139Y243004D02*
X179121Y238664D01*
X182139D01*
Y243004D01*
D02*
G37*
G36*
X441456Y36510D02*
X438657Y36510D01*
Y32636D01*
X441693Y32636D01*
X441806Y32648D01*
X442043D01*
X442306Y32673D01*
X442568Y32698D01*
X442818Y32723D01*
X442930Y32748D01*
X443031Y32773D01*
X443043D01*
X443055Y32785D01*
X443130Y32810D01*
X443256Y32861D01*
X443393Y32923D01*
X443543Y33023D01*
X443705Y33123D01*
X443855Y33260D01*
X443993Y33410D01*
X444005Y33435D01*
X444043Y33498D01*
X444105Y33585D01*
X444168Y33723D01*
X444218Y33885D01*
X444280Y34073D01*
X444318Y34298D01*
X444330Y34535D01*
Y34548D01*
Y34560D01*
Y34598D01*
Y34648D01*
X444318Y34760D01*
X444293Y34910D01*
X444255Y35085D01*
X444193Y35285D01*
X444118Y35472D01*
X444018Y35660D01*
X444005Y35685D01*
X443968Y35735D01*
X443893Y35822D01*
X443793Y35922D01*
X443668Y36035D01*
X443518Y36147D01*
X443343Y36247D01*
X443143Y36322D01*
X443130D01*
X443118Y36335D01*
X443080D01*
X443031Y36347D01*
X442968Y36372D01*
X442893Y36385D01*
X442806Y36397D01*
X442693Y36422D01*
X442568Y36435D01*
X442418Y36447D01*
X442268Y36472D01*
X442093Y36485D01*
X441893Y36497D01*
X441681D01*
X441456Y36510D01*
D02*
G37*
G36*
X441831Y31123D02*
X438657Y31123D01*
Y26725D01*
X442118Y26725D01*
X442293Y26737D01*
X442481D01*
X442681Y26750D01*
X442856Y26762D01*
X442993Y26775D01*
X443018D01*
X443093Y26800D01*
X443205Y26825D01*
X443330Y26862D01*
X443493Y26912D01*
X443655Y26974D01*
X443818Y27037D01*
X443968Y27125D01*
X443980Y27137D01*
X444030Y27174D01*
X444105Y27225D01*
X444205Y27312D01*
X444305Y27412D01*
X444405Y27537D01*
X444518Y27674D01*
X444618Y27837D01*
X444630Y27862D01*
X444655Y27924D01*
X444705Y28024D01*
X444755Y28149D01*
X444793Y28312D01*
X444842Y28499D01*
X444868Y28699D01*
X444880Y28924D01*
Y28937D01*
Y28962D01*
Y28999D01*
Y29049D01*
X444855Y29174D01*
X444830Y29349D01*
X444780Y29536D01*
X444718Y29749D01*
X444618Y29961D01*
X444493Y30161D01*
X444480Y30186D01*
X444430Y30249D01*
X444343Y30336D01*
X444230Y30449D01*
X444080Y30574D01*
X443905Y30699D01*
X443693Y30811D01*
X443468Y30898D01*
X443455D01*
X443443Y30911D01*
X443405Y30924D01*
X443355Y30936D01*
X443280Y30949D01*
X443205Y30973D01*
X443106Y30986D01*
X442993Y31011D01*
X442868Y31036D01*
X442731Y31049D01*
X442581Y31074D01*
X442418Y31086D01*
X442231Y31098D01*
X442043Y31111D01*
X441831Y31123D01*
D02*
G37*
G36*
X454578Y36785D02*
X454503D01*
X454403Y36772D01*
X454278Y36760D01*
X454115Y36747D01*
X453940Y36722D01*
X453740Y36685D01*
X453515Y36635D01*
X453278Y36560D01*
X453028Y36485D01*
X452778Y36385D01*
X452516Y36260D01*
X452253Y36122D01*
X451991Y35960D01*
X451728Y35760D01*
X451478Y35547D01*
X451466Y35535D01*
X451428Y35485D01*
X451366Y35410D01*
X451278Y35310D01*
X451178Y35172D01*
X451066Y35010D01*
X450953Y34797D01*
X450841Y34573D01*
X450716Y34298D01*
X450604Y33998D01*
X450491Y33660D01*
X450391Y33285D01*
X450316Y32873D01*
X450241Y32436D01*
X450204Y31948D01*
X450191Y31423D01*
Y31411D01*
Y31398D01*
Y31323D01*
X450204Y31198D01*
X450216Y31036D01*
X450229Y30849D01*
X450254Y30624D01*
X450291Y30374D01*
X450341Y30099D01*
X450416Y29811D01*
X450491Y29511D01*
X450591Y29211D01*
X450716Y28911D01*
X450854Y28612D01*
X451016Y28312D01*
X451216Y28037D01*
X451428Y27774D01*
X451441Y27762D01*
X451491Y27712D01*
X451553Y27649D01*
X451653Y27562D01*
X451778Y27462D01*
X451928Y27349D01*
X452091Y27237D01*
X452291Y27112D01*
X452503Y26987D01*
X452741Y26874D01*
X453003Y26762D01*
X453278Y26662D01*
X453565Y26575D01*
X453878Y26512D01*
X454215Y26462D01*
X454553Y26450D01*
X454640D01*
X454740Y26462D01*
X454878Y26475D01*
X455040Y26487D01*
X455227Y26525D01*
X455440Y26562D01*
X455665Y26612D01*
X455915Y26687D01*
X456165Y26775D01*
X456427Y26887D01*
X456702Y27012D01*
X456964Y27162D01*
X457227Y27349D01*
X457477Y27549D01*
X457714Y27787D01*
X457727Y27799D01*
X457764Y27849D01*
X457827Y27924D01*
X457914Y28037D01*
X458002Y28174D01*
X458102Y28349D01*
X458214Y28537D01*
X458339Y28774D01*
X458452Y29024D01*
X458564Y29311D01*
X458664Y29624D01*
X458764Y29961D01*
X458839Y30336D01*
X458901Y30724D01*
X458939Y31149D01*
X458951Y31598D01*
Y31611D01*
Y31673D01*
Y31748D01*
X458939Y31861D01*
Y31998D01*
X458926Y32148D01*
X458901Y32336D01*
X458889Y32523D01*
X458852Y32736D01*
X458826Y32948D01*
X458727Y33410D01*
X458589Y33873D01*
X458514Y34098D01*
X458414Y34323D01*
Y34335D01*
X458389Y34373D01*
X458364Y34435D01*
X458314Y34523D01*
X458264Y34610D01*
X458189Y34722D01*
X458027Y34985D01*
X457802Y35285D01*
X457539Y35585D01*
X457227Y35872D01*
X457052Y36010D01*
X456865Y36135D01*
X456852Y36147D01*
X456814Y36160D01*
X456764Y36197D01*
X456689Y36235D01*
X456590Y36285D01*
X456477Y36335D01*
X456352Y36397D01*
X456202Y36460D01*
X456040Y36522D01*
X455865Y36585D01*
X455677Y36635D01*
X455477Y36685D01*
X455040Y36760D01*
X454815Y36772D01*
X454578Y36785D01*
D02*
G37*
G36*
X384858Y36772D02*
X384758D01*
X384683Y36760D01*
X384583Y36747D01*
X384483Y36722D01*
X384233Y36660D01*
X384096Y36609D01*
X383958Y36547D01*
X383808Y36472D01*
X383671Y36385D01*
X383521Y36272D01*
X383383Y36147D01*
X383246Y36010D01*
X383121Y35847D01*
X383108Y35835D01*
X383083Y35797D01*
X383046Y35722D01*
X382996Y35610D01*
X382933Y35485D01*
X382871Y35310D01*
X382796Y35110D01*
X382721Y34873D01*
X382646Y34585D01*
X382571Y34273D01*
X382509Y33923D01*
X382446Y33523D01*
X382396Y33098D01*
X382359Y32611D01*
X382334Y32086D01*
X382321Y31523D01*
Y31511D01*
Y31486D01*
Y31448D01*
Y31386D01*
Y31311D01*
Y31223D01*
X382334Y31123D01*
Y31011D01*
X382346Y30761D01*
X382359Y30474D01*
X382383Y30149D01*
X382408Y29811D01*
X382496Y29111D01*
X382559Y28761D01*
X382634Y28424D01*
X382721Y28099D01*
X382821Y27799D01*
X382933Y27537D01*
X383058Y27324D01*
X383071Y27312D01*
X383096Y27274D01*
X383133Y27224D01*
X383196Y27162D01*
X383258Y27087D01*
X383346Y26999D01*
X383446Y26899D01*
X383558Y26812D01*
X383696Y26712D01*
X383833Y26612D01*
X384146Y26450D01*
X384308Y26387D01*
X384496Y26337D01*
X384683Y26300D01*
X384883Y26287D01*
X384933D01*
X384983Y26300D01*
X385058D01*
X385158Y26325D01*
X385258Y26337D01*
X385383Y26375D01*
X385508Y26412D01*
X385658Y26475D01*
X385795Y26537D01*
X385945Y26625D01*
X386095Y26725D01*
X386258Y26850D01*
X386408Y26987D01*
X386558Y27137D01*
X386695Y27324D01*
X386707Y27337D01*
X386732Y27374D01*
X386770Y27437D01*
X386807Y27537D01*
X386870Y27662D01*
X386932Y27824D01*
X386995Y28012D01*
X387070Y28249D01*
X387145Y28512D01*
X387207Y28812D01*
X387270Y29149D01*
X387332Y29536D01*
X387370Y29961D01*
X387407Y30436D01*
X387432Y30961D01*
X387445Y31523D01*
Y31536D01*
Y31561D01*
Y31598D01*
Y31661D01*
Y31736D01*
Y31823D01*
X387432Y31923D01*
Y32036D01*
X387420Y32286D01*
X387407Y32573D01*
X387382Y32898D01*
X387357Y33235D01*
X387270Y33935D01*
X387207Y34285D01*
X387132Y34635D01*
X387045Y34948D01*
X386957Y35247D01*
X386832Y35510D01*
X386707Y35722D01*
X386695Y35735D01*
X386670Y35772D01*
X386632Y35822D01*
X386570Y35885D01*
X386507Y35972D01*
X386420Y36060D01*
X386320Y36147D01*
X386195Y36247D01*
X386070Y36347D01*
X385933Y36435D01*
X385620Y36609D01*
X385445Y36672D01*
X385258Y36722D01*
X385058Y36760D01*
X384858Y36772D01*
D02*
G37*
G36*
X468461Y55678D02*
X464787D01*
Y51105D01*
X468249D01*
X468362Y51117D01*
X468499D01*
X468649Y51142D01*
X468824Y51155D01*
X468999Y51180D01*
X469386Y51255D01*
X469774Y51354D01*
X469949Y51430D01*
X470124Y51505D01*
X470286Y51604D01*
X470424Y51704D01*
X470436Y51717D01*
X470448Y51729D01*
X470486Y51767D01*
X470536Y51817D01*
X470586Y51879D01*
X470648Y51954D01*
X470711Y52042D01*
X470773Y52154D01*
X470836Y52267D01*
X470898Y52392D01*
X470961Y52542D01*
X471011Y52692D01*
X471098Y53042D01*
X471111Y53229D01*
X471123Y53429D01*
Y53442D01*
Y53467D01*
Y53504D01*
Y53566D01*
X471111Y53629D01*
X471098Y53716D01*
X471073Y53904D01*
X471023Y54116D01*
X470948Y54341D01*
X470848Y54579D01*
X470711Y54804D01*
Y54816D01*
X470698Y54829D01*
X470636Y54891D01*
X470549Y54991D01*
X470424Y55116D01*
X470274Y55241D01*
X470086Y55366D01*
X469874Y55466D01*
X469636Y55553D01*
X469611D01*
X469549Y55578D01*
X469499D01*
X469436Y55591D01*
X469361Y55603D01*
X469286Y55616D01*
X469174Y55628D01*
X469061Y55641D01*
X468936Y55653D01*
X468799D01*
X468637Y55666D01*
X468461Y55678D01*
D02*
G37*
G36*
X454790Y55953D02*
X454715D01*
X454615Y55941D01*
X454490Y55928D01*
X454328Y55916D01*
X454153Y55891D01*
X453953Y55853D01*
X453728Y55803D01*
X453490Y55728D01*
X453240Y55653D01*
X452990Y55553D01*
X452728Y55429D01*
X452466Y55291D01*
X452203Y55128D01*
X451941Y54929D01*
X451691Y54716D01*
X451678Y54704D01*
X451641Y54654D01*
X451578Y54579D01*
X451491Y54479D01*
X451391Y54341D01*
X451278Y54179D01*
X451166Y53966D01*
X451054Y53741D01*
X450928Y53467D01*
X450816Y53166D01*
X450704Y52829D01*
X450604Y52454D01*
X450529Y52042D01*
X450454Y51604D01*
X450416Y51117D01*
X450404Y50592D01*
Y50580D01*
Y50567D01*
Y50492D01*
X450416Y50367D01*
X450429Y50205D01*
X450441Y50017D01*
X450466Y49792D01*
X450504Y49542D01*
X450554Y49268D01*
X450629Y48980D01*
X450704Y48680D01*
X450803Y48380D01*
X450928Y48080D01*
X451066Y47780D01*
X451228Y47481D01*
X451428Y47206D01*
X451641Y46943D01*
X451653Y46931D01*
X451703Y46881D01*
X451766Y46818D01*
X451866Y46731D01*
X451991Y46631D01*
X452141Y46518D01*
X452303Y46406D01*
X452503Y46281D01*
X452715Y46156D01*
X452953Y46043D01*
X453215Y45931D01*
X453490Y45831D01*
X453778Y45743D01*
X454090Y45681D01*
X454428Y45631D01*
X454765Y45619D01*
X454852D01*
X454953Y45631D01*
X455090Y45644D01*
X455252Y45656D01*
X455440Y45693D01*
X455652Y45731D01*
X455877Y45781D01*
X456127Y45856D01*
X456377Y45943D01*
X456640Y46056D01*
X456914Y46181D01*
X457177Y46331D01*
X457439Y46518D01*
X457689Y46718D01*
X457927Y46956D01*
X457939Y46968D01*
X457977Y47018D01*
X458039Y47093D01*
X458127Y47206D01*
X458214Y47343D01*
X458314Y47518D01*
X458427Y47705D01*
X458551Y47943D01*
X458664Y48193D01*
X458777Y48480D01*
X458876Y48793D01*
X458976Y49130D01*
X459051Y49505D01*
X459114Y49892D01*
X459151Y50317D01*
X459164Y50767D01*
Y50780D01*
Y50842D01*
Y50917D01*
X459151Y51030D01*
Y51167D01*
X459139Y51317D01*
X459114Y51505D01*
X459101Y51692D01*
X459064Y51904D01*
X459039Y52117D01*
X458939Y52579D01*
X458801Y53042D01*
X458727Y53267D01*
X458627Y53492D01*
Y53504D01*
X458601Y53541D01*
X458577Y53604D01*
X458526Y53691D01*
X458477Y53779D01*
X458402Y53891D01*
X458239Y54154D01*
X458014Y54454D01*
X457752Y54754D01*
X457439Y55041D01*
X457264Y55178D01*
X457077Y55304D01*
X457064Y55316D01*
X457027Y55328D01*
X456977Y55366D01*
X456902Y55403D01*
X456802Y55454D01*
X456689Y55503D01*
X456564Y55566D01*
X456415Y55628D01*
X456252Y55691D01*
X456077Y55753D01*
X455890Y55803D01*
X455690Y55853D01*
X455252Y55928D01*
X455027Y55941D01*
X454790Y55953D01*
D02*
G37*
G36*
X371149Y55941D02*
X371049D01*
X370974Y55928D01*
X370874Y55916D01*
X370774Y55891D01*
X370524Y55828D01*
X370387Y55778D01*
X370249Y55716D01*
X370099Y55641D01*
X369962Y55553D01*
X369812Y55441D01*
X369674Y55316D01*
X369537Y55178D01*
X369412Y55016D01*
X369399Y55003D01*
X369374Y54966D01*
X369337Y54891D01*
X369287Y54779D01*
X369224Y54654D01*
X369162Y54479D01*
X369087Y54279D01*
X369012Y54041D01*
X368937Y53754D01*
X368862Y53441D01*
X368800Y53092D01*
X368737Y52692D01*
X368687Y52267D01*
X368650Y51779D01*
X368625Y51255D01*
X368612Y50692D01*
Y50680D01*
Y50655D01*
Y50617D01*
Y50555D01*
Y50480D01*
Y50392D01*
X368625Y50292D01*
Y50180D01*
X368637Y49930D01*
X368650Y49642D01*
X368675Y49317D01*
X368699Y48980D01*
X368787Y48280D01*
X368849Y47930D01*
X368924Y47593D01*
X369012Y47268D01*
X369112Y46968D01*
X369224Y46706D01*
X369349Y46493D01*
X369362Y46481D01*
X369387Y46443D01*
X369424Y46393D01*
X369487Y46331D01*
X369549Y46256D01*
X369637Y46168D01*
X369737Y46068D01*
X369849Y45981D01*
X369987Y45881D01*
X370124Y45781D01*
X370437Y45619D01*
X370599Y45556D01*
X370787Y45506D01*
X370974Y45469D01*
X371174Y45456D01*
X371224D01*
X371274Y45469D01*
X371349D01*
X371449Y45493D01*
X371549Y45506D01*
X371674Y45543D01*
X371799Y45581D01*
X371949Y45643D01*
X372086Y45706D01*
X372236Y45793D01*
X372386Y45893D01*
X372549Y46018D01*
X372699Y46156D01*
X372849Y46306D01*
X372986Y46493D01*
X372998Y46506D01*
X373023Y46543D01*
X373061Y46606D01*
X373098Y46706D01*
X373161Y46831D01*
X373223Y46993D01*
X373286Y47181D01*
X373361Y47418D01*
X373436Y47680D01*
X373498Y47980D01*
X373561Y48318D01*
X373623Y48705D01*
X373661Y49130D01*
X373698Y49605D01*
X373723Y50130D01*
X373736Y50692D01*
Y50705D01*
Y50730D01*
Y50767D01*
Y50830D01*
Y50905D01*
Y50992D01*
X373723Y51092D01*
Y51205D01*
X373711Y51455D01*
X373698Y51742D01*
X373673Y52067D01*
X373648Y52404D01*
X373561Y53104D01*
X373498Y53454D01*
X373423Y53804D01*
X373336Y54116D01*
X373248Y54416D01*
X373123Y54679D01*
X372998Y54891D01*
X372986Y54904D01*
X372961Y54941D01*
X372924Y54991D01*
X372861Y55054D01*
X372799Y55141D01*
X372711Y55229D01*
X372611Y55316D01*
X372486Y55416D01*
X372361Y55516D01*
X372224Y55603D01*
X371911Y55778D01*
X371736Y55841D01*
X371549Y55891D01*
X371349Y55928D01*
X371149Y55941D01*
D02*
G37*
G36*
X396480Y71822D02*
X396380D01*
X396305Y71810D01*
X396217Y71797D01*
X396118Y71772D01*
X396005Y71747D01*
X395880Y71709D01*
X395743Y71659D01*
X395605Y71585D01*
X395455Y71509D01*
X395305Y71422D01*
X395143Y71310D01*
X394993Y71185D01*
X394843Y71035D01*
X394693Y70872D01*
X394680Y70860D01*
X394655Y70835D01*
X394618Y70772D01*
X394580Y70697D01*
X394518Y70597D01*
X394455Y70485D01*
X394380Y70335D01*
X394318Y70185D01*
X394243Y69997D01*
X394168Y69798D01*
X394105Y69573D01*
X394055Y69323D01*
X394006Y69060D01*
X393968Y68773D01*
X393943Y68460D01*
X393931Y68135D01*
Y68110D01*
Y68060D01*
Y67960D01*
X393943Y67848D01*
X393956Y67698D01*
X393968Y67523D01*
X393993Y67336D01*
X394018Y67136D01*
X394105Y66698D01*
X394168Y66486D01*
X394243Y66261D01*
X394318Y66048D01*
X394418Y65848D01*
X394530Y65661D01*
X394655Y65486D01*
X394668Y65474D01*
X394693Y65449D01*
X394730Y65411D01*
X394780Y65349D01*
X394855Y65286D01*
X394943Y65224D01*
X395030Y65136D01*
X395143Y65061D01*
X395405Y64911D01*
X395705Y64774D01*
X395868Y64711D01*
X396030Y64674D01*
X396217Y64649D01*
X396405Y64636D01*
X396505D01*
X396580Y64649D01*
X396667Y64661D01*
X396780Y64686D01*
X396892Y64711D01*
X397030Y64749D01*
X397167Y64799D01*
X397305Y64849D01*
X397455Y64924D01*
X397605Y65011D01*
X397755Y65111D01*
X397917Y65236D01*
X398067Y65374D01*
X398204Y65524D01*
X398217Y65536D01*
X398242Y65561D01*
X398279Y65623D01*
X398317Y65686D01*
X398379Y65786D01*
X398442Y65898D01*
X398504Y66036D01*
X398579Y66198D01*
X398654Y66386D01*
X398717Y66586D01*
X398779Y66811D01*
X398842Y67061D01*
X398879Y67323D01*
X398917Y67623D01*
X398942Y67935D01*
X398954Y68273D01*
Y68298D01*
Y68348D01*
Y68448D01*
X398942Y68560D01*
X398929Y68710D01*
X398917Y68885D01*
X398892Y69073D01*
X398867Y69273D01*
X398779Y69697D01*
X398717Y69922D01*
X398642Y70147D01*
X398554Y70360D01*
X398467Y70560D01*
X398342Y70760D01*
X398217Y70935D01*
X398204Y70947D01*
X398180Y70972D01*
X398142Y71022D01*
X398092Y71072D01*
X398017Y71135D01*
X397930Y71210D01*
X397842Y71297D01*
X397730Y71385D01*
X397480Y71547D01*
X397180Y71684D01*
X397017Y71734D01*
X396842Y71785D01*
X396667Y71810D01*
X396480Y71822D01*
D02*
G37*
G36*
X381296Y75121D02*
X381196D01*
X381121Y75109D01*
X381021Y75096D01*
X380921Y75071D01*
X380672Y75009D01*
X380534Y74959D01*
X380396Y74896D01*
X380247Y74821D01*
X380109Y74734D01*
X379959Y74621D01*
X379822Y74496D01*
X379684Y74359D01*
X379559Y74196D01*
X379547Y74184D01*
X379522Y74146D01*
X379484Y74071D01*
X379434Y73959D01*
X379372Y73834D01*
X379309Y73659D01*
X379234Y73459D01*
X379159Y73222D01*
X379084Y72934D01*
X379009Y72622D01*
X378947Y72272D01*
X378884Y71872D01*
X378834Y71447D01*
X378797Y70960D01*
X378772Y70435D01*
X378759Y69872D01*
Y69860D01*
Y69835D01*
Y69798D01*
Y69735D01*
Y69660D01*
Y69573D01*
X378772Y69473D01*
Y69360D01*
X378784Y69110D01*
X378797Y68823D01*
X378822Y68498D01*
X378847Y68160D01*
X378934Y67461D01*
X378997Y67111D01*
X379072Y66773D01*
X379159Y66448D01*
X379259Y66148D01*
X379372Y65886D01*
X379497Y65673D01*
X379509Y65661D01*
X379534Y65623D01*
X379572Y65574D01*
X379634Y65511D01*
X379697Y65436D01*
X379784Y65349D01*
X379884Y65249D01*
X379997Y65161D01*
X380134Y65061D01*
X380272Y64961D01*
X380584Y64799D01*
X380746Y64736D01*
X380934Y64686D01*
X381121Y64649D01*
X381321Y64636D01*
X381371D01*
X381421Y64649D01*
X381496D01*
X381596Y64674D01*
X381696Y64686D01*
X381821Y64724D01*
X381946Y64761D01*
X382096Y64824D01*
X382234Y64886D01*
X382383Y64974D01*
X382533Y65074D01*
X382696Y65199D01*
X382846Y65336D01*
X382996Y65486D01*
X383133Y65673D01*
X383146Y65686D01*
X383171Y65724D01*
X383208Y65786D01*
X383246Y65886D01*
X383308Y66011D01*
X383371Y66173D01*
X383433Y66361D01*
X383508Y66598D01*
X383583Y66861D01*
X383646Y67161D01*
X383708Y67498D01*
X383771Y67885D01*
X383808Y68310D01*
X383846Y68785D01*
X383871Y69310D01*
X383883Y69872D01*
Y69885D01*
Y69910D01*
Y69947D01*
Y70010D01*
Y70085D01*
Y70172D01*
X383871Y70272D01*
Y70385D01*
X383858Y70635D01*
X383846Y70922D01*
X383821Y71247D01*
X383796Y71585D01*
X383708Y72284D01*
X383646Y72634D01*
X383571Y72984D01*
X383483Y73297D01*
X383396Y73597D01*
X383271Y73859D01*
X383146Y74071D01*
X383133Y74084D01*
X383108Y74121D01*
X383071Y74171D01*
X383008Y74234D01*
X382946Y74321D01*
X382858Y74409D01*
X382758Y74496D01*
X382634Y74596D01*
X382509Y74696D01*
X382371Y74784D01*
X382059Y74959D01*
X381884Y75021D01*
X381696Y75071D01*
X381496Y75109D01*
X381296Y75121D01*
D02*
G37*
%LPD*%
D10*
X475000Y15000D02*
G03*
X485000Y25000I0J10000D01*
G01*
X355000Y25000D02*
G03*
X365000Y15000I10000J0D01*
G01*
X485000Y75000D02*
G03*
X475000Y85000I-10000J0D01*
G01*
X365000D02*
G03*
X355000Y75000I0J-10000D01*
G01*
Y25000D02*
Y75000D01*
X365000Y15000D02*
X475000D01*
X365000Y85000D02*
X475000D01*
X485000Y25000D02*
Y75000D01*
X355000Y25000D02*
X355000D01*
D11*
X220000Y41720D02*
X225000D01*
M02*
