G04*
G04 #@! TF.GenerationSoftware,Altium Limited,Altium Designer,23.9.2 (47)*
G04*
G04 Layer_Color=65535*
%FSLAX44Y44*%
%MOMM*%
G71*
G04*
G04 #@! TF.SameCoordinates,E7A4BE84-EE4C-4B8F-86C3-5DBB0D0320C3*
G04*
G04*
G04 #@! TF.FilePolarity,Positive*
G04*
G01*
G75*
%ADD10C,0.2000*%
%ADD11C,0.1000*%
G36*
X381862Y245081D02*
X381973Y245067D01*
X382111Y245053D01*
X382264Y245026D01*
X382416Y244998D01*
X382777Y244901D01*
X383138Y244762D01*
X383318Y244679D01*
X383498Y244582D01*
X383665Y244457D01*
X383817Y244318D01*
X383831Y244305D01*
X383859Y244291D01*
X383886Y244235D01*
X383942Y244180D01*
X384011Y244110D01*
X384081Y244013D01*
X384150Y243916D01*
X384233Y243791D01*
X384372Y243528D01*
X384510Y243195D01*
X384566Y243029D01*
X384594Y242834D01*
X384621Y242640D01*
X384635Y242432D01*
Y242404D01*
Y242335D01*
X384621Y242224D01*
X384608Y242072D01*
X384580Y241905D01*
X384524Y241711D01*
X384469Y241503D01*
X384386Y241295D01*
X384372Y241267D01*
X384344Y241198D01*
X384289Y241087D01*
X384205Y240934D01*
X384094Y240768D01*
X383956Y240560D01*
X383789Y240352D01*
X383595Y240116D01*
X383567Y240089D01*
X383498Y240005D01*
X383429Y239936D01*
X383359Y239867D01*
X383276Y239783D01*
X383165Y239672D01*
X383054Y239562D01*
X382916Y239437D01*
X382777Y239298D01*
X382611Y239145D01*
X382430Y238993D01*
X382236Y238813D01*
X382014Y238632D01*
X381792Y238438D01*
X381778Y238424D01*
X381751Y238396D01*
X381695Y238355D01*
X381626Y238299D01*
X381543Y238216D01*
X381446Y238133D01*
X381224Y237953D01*
X380988Y237745D01*
X380766Y237537D01*
X380572Y237356D01*
X380489Y237287D01*
X380419Y237218D01*
X380405Y237204D01*
X380364Y237162D01*
X380308Y237107D01*
X380239Y237024D01*
X380170Y236926D01*
X380087Y236829D01*
X379920Y236594D01*
X384649D01*
Y235456D01*
X378284D01*
Y235470D01*
Y235526D01*
Y235609D01*
X378297Y235720D01*
X378311Y235845D01*
X378339Y235983D01*
X378367Y236122D01*
X378422Y236275D01*
Y236289D01*
X378436Y236302D01*
X378464Y236386D01*
X378519Y236510D01*
X378602Y236677D01*
X378713Y236871D01*
X378852Y237093D01*
X379005Y237315D01*
X379199Y237551D01*
Y237564D01*
X379227Y237578D01*
X379296Y237661D01*
X379421Y237786D01*
X379601Y237967D01*
X379809Y238175D01*
X380073Y238424D01*
X380392Y238702D01*
X380738Y238993D01*
X380752Y239007D01*
X380808Y239048D01*
X380891Y239118D01*
X380988Y239201D01*
X381113Y239312D01*
X381265Y239437D01*
X381418Y239575D01*
X381598Y239728D01*
X381945Y240061D01*
X382291Y240394D01*
X382458Y240560D01*
X382611Y240726D01*
X382749Y240879D01*
X382860Y241031D01*
Y241045D01*
X382888Y241059D01*
X382916Y241101D01*
X382943Y241156D01*
X383040Y241309D01*
X383151Y241489D01*
X383248Y241711D01*
X383345Y241947D01*
X383401Y242210D01*
X383429Y242460D01*
Y242474D01*
Y242488D01*
X383415Y242571D01*
X383401Y242710D01*
X383359Y242862D01*
X383304Y243056D01*
X383207Y243251D01*
X383082Y243445D01*
X382916Y243639D01*
X382888Y243666D01*
X382818Y243722D01*
X382721Y243791D01*
X382569Y243888D01*
X382375Y243972D01*
X382153Y244055D01*
X381889Y244110D01*
X381598Y244124D01*
X381515D01*
X381459Y244110D01*
X381293Y244096D01*
X381099Y244055D01*
X380891Y243999D01*
X380655Y243902D01*
X380433Y243778D01*
X380225Y243611D01*
X380197Y243583D01*
X380142Y243514D01*
X380059Y243403D01*
X379976Y243237D01*
X379878Y243042D01*
X379795Y242793D01*
X379740Y242515D01*
X379712Y242197D01*
X378506Y242321D01*
Y242335D01*
X378519Y242377D01*
Y242446D01*
X378533Y242543D01*
X378561Y242654D01*
X378589Y242779D01*
X378630Y242931D01*
X378672Y243084D01*
X378783Y243417D01*
X378949Y243750D01*
X379046Y243916D01*
X379171Y244083D01*
X379296Y244235D01*
X379435Y244374D01*
X379449Y244388D01*
X379476Y244401D01*
X379518Y244443D01*
X379587Y244485D01*
X379670Y244540D01*
X379767Y244596D01*
X379878Y244665D01*
X380017Y244734D01*
X380170Y244804D01*
X380336Y244873D01*
X380516Y244928D01*
X380710Y244984D01*
X380919Y245026D01*
X381141Y245067D01*
X381376Y245081D01*
X381626Y245095D01*
X381764D01*
X381862Y245081D01*
D02*
G37*
G36*
X389323D02*
X389503Y245053D01*
X389711Y245012D01*
X389933Y244956D01*
X390169Y244887D01*
X390391Y244776D01*
X390405D01*
X390418Y244762D01*
X390488Y244720D01*
X390599Y244651D01*
X390737Y244554D01*
X390890Y244415D01*
X391056Y244263D01*
X391209Y244083D01*
X391362Y243874D01*
X391375Y243847D01*
X391431Y243778D01*
X391486Y243653D01*
X391583Y243472D01*
X391667Y243264D01*
X391777Y243029D01*
X391875Y242751D01*
X391958Y242446D01*
Y242432D01*
X391972Y242404D01*
X391986Y242363D01*
X391999Y242293D01*
X392013Y242210D01*
X392027Y242113D01*
X392055Y241988D01*
X392069Y241850D01*
X392096Y241697D01*
X392110Y241531D01*
X392124Y241337D01*
X392152Y241143D01*
X392166Y240921D01*
Y240699D01*
X392180Y240449D01*
Y240186D01*
Y240172D01*
Y240116D01*
Y240019D01*
Y239908D01*
X392166Y239756D01*
Y239589D01*
X392152Y239409D01*
X392138Y239215D01*
X392096Y238771D01*
X392027Y238313D01*
X391944Y237869D01*
X391889Y237661D01*
X391819Y237453D01*
Y237440D01*
X391805Y237412D01*
X391777Y237356D01*
X391750Y237287D01*
X391722Y237190D01*
X391667Y237093D01*
X391556Y236857D01*
X391417Y236607D01*
X391237Y236330D01*
X391029Y236080D01*
X390779Y235845D01*
X390765D01*
X390751Y235817D01*
X390710Y235789D01*
X390654Y235762D01*
X390585Y235720D01*
X390516Y235665D01*
X390308Y235567D01*
X390058Y235470D01*
X389767Y235373D01*
X389420Y235318D01*
X389045Y235290D01*
X388907D01*
X388810Y235304D01*
X388699Y235318D01*
X388560Y235345D01*
X388408Y235373D01*
X388241Y235415D01*
X388075Y235470D01*
X387894Y235526D01*
X387714Y235609D01*
X387534Y235706D01*
X387354Y235817D01*
X387173Y235956D01*
X387007Y236108D01*
X386854Y236275D01*
X386840Y236289D01*
X386813Y236330D01*
X386771Y236399D01*
X386702Y236510D01*
X386632Y236635D01*
X386563Y236802D01*
X386466Y236996D01*
X386383Y237218D01*
X386300Y237467D01*
X386216Y237759D01*
X386133Y238078D01*
X386064Y238438D01*
X385994Y238826D01*
X385953Y239242D01*
X385925Y239700D01*
X385911Y240186D01*
Y240199D01*
Y240255D01*
Y240352D01*
Y240463D01*
X385925Y240616D01*
Y240782D01*
X385939Y240962D01*
X385953Y241170D01*
X385994Y241600D01*
X386064Y242058D01*
X386147Y242515D01*
X386202Y242724D01*
X386258Y242931D01*
Y242945D01*
X386272Y242973D01*
X386300Y243029D01*
X386327Y243098D01*
X386355Y243195D01*
X386410Y243292D01*
X386521Y243528D01*
X386660Y243778D01*
X386840Y244041D01*
X387048Y244305D01*
X387298Y244526D01*
X387312D01*
X387326Y244554D01*
X387367Y244582D01*
X387423Y244610D01*
X387492Y244665D01*
X387575Y244707D01*
X387783Y244818D01*
X388033Y244915D01*
X388324Y245012D01*
X388671Y245067D01*
X389045Y245095D01*
X389170D01*
X389323Y245081D01*
D02*
G37*
G36*
X388019Y185721D02*
X388088D01*
X388186Y185708D01*
X388421Y185666D01*
X388685Y185611D01*
X388976Y185513D01*
X389267Y185389D01*
X389559Y185222D01*
X389572D01*
X389586Y185194D01*
X389628Y185167D01*
X389683Y185125D01*
X389822Y185014D01*
X390002Y184862D01*
X390183Y184654D01*
X390391Y184404D01*
X390571Y184113D01*
X390737Y183780D01*
Y183766D01*
X390751Y183738D01*
X390779Y183683D01*
X390807Y183613D01*
X390835Y183516D01*
X390876Y183392D01*
X390904Y183253D01*
X390945Y183100D01*
X390987Y182920D01*
X391029Y182712D01*
X391056Y182490D01*
X391084Y182254D01*
X391112Y181991D01*
X391140Y181714D01*
X391153Y181408D01*
Y181089D01*
Y181075D01*
Y181006D01*
Y180909D01*
Y180784D01*
X391140Y180632D01*
Y180452D01*
X391126Y180243D01*
X391098Y180035D01*
X391056Y179564D01*
X390987Y179065D01*
X390890Y178593D01*
X390821Y178357D01*
X390751Y178149D01*
Y178135D01*
X390737Y178108D01*
X390710Y178052D01*
X390682Y177969D01*
X390640Y177886D01*
X390585Y177775D01*
X390446Y177539D01*
X390280Y177276D01*
X390086Y176998D01*
X389836Y176735D01*
X389559Y176499D01*
X389545D01*
X389517Y176471D01*
X389475Y176444D01*
X389420Y176416D01*
X389337Y176374D01*
X389254Y176319D01*
X389142Y176263D01*
X389032Y176222D01*
X388768Y176111D01*
X388449Y176014D01*
X388102Y175958D01*
X387714Y175930D01*
X387603D01*
X387534Y175944D01*
X387437D01*
X387326Y175958D01*
X387062Y176014D01*
X386771Y176083D01*
X386466Y176194D01*
X386161Y176346D01*
X386008Y176444D01*
X385870Y176554D01*
X385856Y176568D01*
X385842Y176582D01*
X385800Y176624D01*
X385759Y176665D01*
X385703Y176735D01*
X385634Y176818D01*
X385495Y177012D01*
X385356Y177262D01*
X385218Y177567D01*
X385107Y177913D01*
X385024Y178316D01*
X386161Y178413D01*
Y178399D01*
X386175Y178371D01*
Y178344D01*
X386189Y178288D01*
X386230Y178135D01*
X386286Y177969D01*
X386355Y177775D01*
X386452Y177581D01*
X386563Y177400D01*
X386702Y177248D01*
X386716Y177234D01*
X386771Y177192D01*
X386868Y177137D01*
X386979Y177081D01*
X387132Y177012D01*
X387312Y176957D01*
X387520Y176915D01*
X387742Y176901D01*
X387839D01*
X387936Y176915D01*
X388061Y176929D01*
X388213Y176957D01*
X388366Y176998D01*
X388532Y177054D01*
X388685Y177137D01*
X388699Y177151D01*
X388754Y177178D01*
X388837Y177234D01*
X388921Y177317D01*
X389032Y177414D01*
X389142Y177525D01*
X389254Y177650D01*
X389364Y177803D01*
X389378Y177817D01*
X389406Y177886D01*
X389462Y177983D01*
X389517Y178108D01*
X389586Y178274D01*
X389656Y178468D01*
X389725Y178690D01*
X389794Y178940D01*
Y178954D01*
X389808Y178967D01*
Y179009D01*
X389822Y179065D01*
X389850Y179203D01*
X389891Y179384D01*
X389919Y179606D01*
X389947Y179841D01*
X389961Y180105D01*
X389975Y180382D01*
Y180396D01*
Y180438D01*
Y180507D01*
Y180618D01*
X389961Y180590D01*
X389905Y180521D01*
X389822Y180424D01*
X389725Y180285D01*
X389586Y180146D01*
X389420Y179994D01*
X389226Y179841D01*
X389004Y179703D01*
X388976Y179689D01*
X388893Y179647D01*
X388768Y179592D01*
X388615Y179536D01*
X388408Y179467D01*
X388186Y179411D01*
X387936Y179370D01*
X387673Y179356D01*
X387561D01*
X387478Y179370D01*
X387367Y179384D01*
X387256Y179398D01*
X387118Y179425D01*
X386979Y179467D01*
X386660Y179564D01*
X386494Y179633D01*
X386327Y179716D01*
X386147Y179813D01*
X385980Y179938D01*
X385814Y180063D01*
X385662Y180216D01*
X385648Y180230D01*
X385620Y180257D01*
X385592Y180299D01*
X385537Y180368D01*
X385467Y180465D01*
X385398Y180562D01*
X385329Y180687D01*
X385259Y180826D01*
X385176Y180979D01*
X385107Y181145D01*
X385037Y181339D01*
X384968Y181533D01*
X384913Y181755D01*
X384885Y181991D01*
X384857Y182227D01*
X384843Y182490D01*
Y182504D01*
Y182560D01*
Y182629D01*
X384857Y182726D01*
X384871Y182851D01*
X384885Y183003D01*
X384913Y183156D01*
X384954Y183336D01*
X385051Y183697D01*
X385121Y183891D01*
X385204Y184099D01*
X385301Y184293D01*
X385426Y184473D01*
X385551Y184667D01*
X385703Y184834D01*
X385717Y184848D01*
X385745Y184876D01*
X385786Y184917D01*
X385856Y184973D01*
X385939Y185042D01*
X386050Y185125D01*
X386161Y185194D01*
X386300Y185292D01*
X386438Y185375D01*
X386605Y185444D01*
X386979Y185597D01*
X387173Y185652D01*
X387395Y185694D01*
X387617Y185721D01*
X387853Y185735D01*
X387950D01*
X388019Y185721D01*
D02*
G37*
G36*
X381820Y176097D02*
X380641D01*
Y183600D01*
X380627Y183586D01*
X380558Y183530D01*
X380475Y183447D01*
X380336Y183350D01*
X380183Y183225D01*
X379989Y183086D01*
X379767Y182934D01*
X379518Y182781D01*
X379504D01*
X379490Y182768D01*
X379407Y182712D01*
X379268Y182643D01*
X379102Y182560D01*
X378908Y182462D01*
X378700Y182365D01*
X378492Y182268D01*
X378284Y182185D01*
Y183322D01*
X378297D01*
X378325Y183350D01*
X378381Y183364D01*
X378450Y183405D01*
X378533Y183447D01*
X378630Y183503D01*
X378866Y183641D01*
X379143Y183794D01*
X379421Y183988D01*
X379712Y184210D01*
X380003Y184446D01*
X380017Y184459D01*
X380031Y184473D01*
X380073Y184515D01*
X380128Y184557D01*
X380253Y184695D01*
X380419Y184862D01*
X380586Y185056D01*
X380766Y185278D01*
X380919Y185500D01*
X381057Y185735D01*
X381820D01*
Y176097D01*
D02*
G37*
G36*
X355820Y235456D02*
X354641D01*
Y242959D01*
X354627Y242945D01*
X354558Y242890D01*
X354475Y242807D01*
X354336Y242710D01*
X354184Y242585D01*
X353989Y242446D01*
X353768Y242293D01*
X353518Y242141D01*
X353504D01*
X353490Y242127D01*
X353407Y242072D01*
X353268Y242002D01*
X353102Y241919D01*
X352908Y241822D01*
X352700Y241725D01*
X352492Y241628D01*
X352284Y241545D01*
Y242682D01*
X352297D01*
X352325Y242710D01*
X352381Y242724D01*
X352450Y242765D01*
X352533Y242807D01*
X352630Y242862D01*
X352866Y243001D01*
X353143Y243153D01*
X353421Y243347D01*
X353712Y243569D01*
X354003Y243805D01*
X354017Y243819D01*
X354031Y243833D01*
X354073Y243874D01*
X354128Y243916D01*
X354253Y244055D01*
X354419Y244221D01*
X354586Y244415D01*
X354766Y244637D01*
X354919Y244859D01*
X355057Y245095D01*
X355820D01*
Y235456D01*
D02*
G37*
G36*
X362172Y245081D02*
X362283Y245067D01*
X362407Y245053D01*
X362546Y245040D01*
X362685Y244998D01*
X363018Y244915D01*
X363351Y244790D01*
X363517Y244707D01*
X363683Y244610D01*
X363836Y244485D01*
X363988Y244360D01*
X364002Y244346D01*
X364016Y244332D01*
X364058Y244291D01*
X364113Y244235D01*
X364169Y244152D01*
X364238Y244069D01*
X364377Y243861D01*
X364515Y243597D01*
X364640Y243292D01*
X364737Y242945D01*
X364751Y242765D01*
X364765Y242571D01*
Y242557D01*
Y242543D01*
Y242460D01*
X364751Y242335D01*
X364724Y242183D01*
X364682Y241988D01*
X364613Y241794D01*
X364529Y241600D01*
X364405Y241406D01*
X364391Y241378D01*
X364335Y241323D01*
X364252Y241239D01*
X364141Y241129D01*
X363988Y241004D01*
X363808Y240879D01*
X363600Y240754D01*
X363351Y240643D01*
X363364D01*
X363392Y240629D01*
X363434Y240616D01*
X363489Y240588D01*
X363656Y240518D01*
X363850Y240421D01*
X364058Y240283D01*
X364280Y240130D01*
X364488Y239936D01*
X364682Y239714D01*
Y239700D01*
X364696Y239686D01*
X364751Y239603D01*
X364835Y239464D01*
X364918Y239284D01*
X365001Y239062D01*
X365084Y238799D01*
X365140Y238507D01*
X365153Y238188D01*
Y238175D01*
Y238133D01*
Y238064D01*
X365140Y237980D01*
X365126Y237883D01*
X365112Y237759D01*
X365084Y237620D01*
X365042Y237467D01*
X364945Y237148D01*
X364876Y236968D01*
X364779Y236802D01*
X364682Y236621D01*
X364571Y236455D01*
X364432Y236289D01*
X364280Y236122D01*
X364266Y236108D01*
X364238Y236080D01*
X364197Y236039D01*
X364127Y235997D01*
X364030Y235928D01*
X363933Y235859D01*
X363808Y235789D01*
X363670Y235706D01*
X363517Y235623D01*
X363337Y235553D01*
X363143Y235484D01*
X362948Y235415D01*
X362727Y235373D01*
X362491Y235332D01*
X362255Y235304D01*
X361992Y235290D01*
X361853D01*
X361756Y235304D01*
X361631Y235318D01*
X361492Y235332D01*
X361340Y235359D01*
X361173Y235401D01*
X360799Y235498D01*
X360605Y235567D01*
X360424Y235637D01*
X360230Y235734D01*
X360036Y235845D01*
X359856Y235970D01*
X359689Y236122D01*
X359675Y236136D01*
X359648Y236164D01*
X359606Y236205D01*
X359551Y236275D01*
X359495Y236358D01*
X359412Y236455D01*
X359343Y236566D01*
X359259Y236705D01*
X359176Y236843D01*
X359107Y237010D01*
X358968Y237356D01*
X358913Y237564D01*
X358871Y237772D01*
X358843Y237994D01*
X358829Y238216D01*
Y238230D01*
Y238258D01*
Y238313D01*
X358843Y238369D01*
Y238452D01*
X358857Y238549D01*
X358885Y238771D01*
X358940Y239021D01*
X359024Y239270D01*
X359148Y239534D01*
X359301Y239783D01*
Y239797D01*
X359329Y239811D01*
X359384Y239880D01*
X359495Y239991D01*
X359648Y240130D01*
X359842Y240269D01*
X360078Y240421D01*
X360341Y240546D01*
X360660Y240643D01*
X360646D01*
X360632Y240657D01*
X360591Y240671D01*
X360535Y240699D01*
X360410Y240754D01*
X360244Y240837D01*
X360064Y240948D01*
X359883Y241087D01*
X359717Y241239D01*
X359565Y241406D01*
X359551Y241434D01*
X359509Y241489D01*
X359454Y241600D01*
X359398Y241739D01*
X359329Y241919D01*
X359273Y242127D01*
X359232Y242363D01*
X359218Y242612D01*
Y242626D01*
Y242654D01*
Y242710D01*
X359232Y242793D01*
X359245Y242876D01*
X359259Y242987D01*
X359315Y243223D01*
X359398Y243500D01*
X359537Y243791D01*
X359620Y243944D01*
X359717Y244096D01*
X359842Y244235D01*
X359967Y244374D01*
X359981Y244388D01*
X360008Y244401D01*
X360050Y244443D01*
X360105Y244485D01*
X360175Y244540D01*
X360272Y244596D01*
X360383Y244665D01*
X360494Y244734D01*
X360632Y244804D01*
X360785Y244873D01*
X360951Y244928D01*
X361132Y244984D01*
X361520Y245067D01*
X361742Y245081D01*
X361964Y245095D01*
X362089D01*
X362172Y245081D01*
D02*
G37*
G36*
X367140Y184473D02*
X367126Y184459D01*
X367098Y184432D01*
X367043Y184376D01*
X366987Y184293D01*
X366904Y184196D01*
X366793Y184085D01*
X366682Y183946D01*
X366557Y183780D01*
X366432Y183613D01*
X366280Y183419D01*
X366127Y183197D01*
X365975Y182976D01*
X365808Y182726D01*
X365642Y182462D01*
X365475Y182171D01*
X365309Y181880D01*
X365295Y181866D01*
X365267Y181811D01*
X365226Y181727D01*
X365156Y181602D01*
X365087Y181450D01*
X365004Y181284D01*
X364907Y181089D01*
X364810Y180868D01*
X364699Y180618D01*
X364574Y180368D01*
X364463Y180091D01*
X364352Y179800D01*
X364130Y179203D01*
X363922Y178565D01*
Y178552D01*
X363908Y178510D01*
X363894Y178440D01*
X363867Y178357D01*
X363839Y178246D01*
X363811Y178108D01*
X363770Y177955D01*
X363742Y177789D01*
X363700Y177595D01*
X363659Y177386D01*
X363589Y176943D01*
X363520Y176457D01*
X363478Y175930D01*
X362272D01*
Y175944D01*
Y175986D01*
Y176041D01*
X362286Y176124D01*
Y176236D01*
X362299Y176374D01*
X362313Y176527D01*
X362327Y176693D01*
X362355Y176887D01*
X362383Y177081D01*
X362424Y177317D01*
X362466Y177553D01*
X362508Y177803D01*
X362563Y178080D01*
X362702Y178649D01*
Y178662D01*
X362716Y178718D01*
X362743Y178801D01*
X362785Y178926D01*
X362826Y179065D01*
X362882Y179231D01*
X362938Y179425D01*
X363021Y179633D01*
X363104Y179869D01*
X363187Y180105D01*
X363395Y180632D01*
X363645Y181187D01*
X363922Y181741D01*
X363936Y181755D01*
X363964Y181811D01*
X364005Y181880D01*
X364061Y181991D01*
X364130Y182116D01*
X364227Y182268D01*
X364324Y182435D01*
X364435Y182615D01*
X364699Y183017D01*
X364976Y183433D01*
X365295Y183863D01*
X365628Y184265D01*
X360927D01*
Y185403D01*
X367140D01*
Y184473D01*
D02*
G37*
G36*
X357820Y175930D02*
X356641D01*
Y183433D01*
X356627Y183419D01*
X356558Y183364D01*
X356475Y183281D01*
X356336Y183183D01*
X356184Y183059D01*
X355989Y182920D01*
X355768Y182768D01*
X355518Y182615D01*
X355504D01*
X355490Y182601D01*
X355407Y182546D01*
X355268Y182476D01*
X355102Y182393D01*
X354908Y182296D01*
X354700Y182199D01*
X354492Y182102D01*
X354284Y182019D01*
Y183156D01*
X354297D01*
X354325Y183183D01*
X354381Y183197D01*
X354450Y183239D01*
X354533Y183281D01*
X354630Y183336D01*
X354866Y183475D01*
X355143Y183627D01*
X355421Y183822D01*
X355712Y184043D01*
X356003Y184279D01*
X356017Y184293D01*
X356031Y184307D01*
X356073Y184349D01*
X356128Y184390D01*
X356253Y184529D01*
X356419Y184695D01*
X356586Y184889D01*
X356766Y185111D01*
X356919Y185333D01*
X357057Y185569D01*
X357820D01*
Y175930D01*
D02*
G37*
G36*
X335935Y245081D02*
X336032D01*
X336143Y245067D01*
X336407Y245012D01*
X336698Y244942D01*
X337003Y244832D01*
X337308Y244665D01*
X337461Y244568D01*
X337599Y244457D01*
X337613Y244443D01*
X337627Y244429D01*
X337669Y244388D01*
X337710Y244346D01*
X337780Y244277D01*
X337835Y244193D01*
X337988Y243999D01*
X338140Y243750D01*
X338279Y243445D01*
X338404Y243098D01*
X338487Y242710D01*
X337308Y242612D01*
Y242626D01*
X337294Y242640D01*
X337281Y242724D01*
X337239Y242848D01*
X337183Y243001D01*
X337128Y243167D01*
X337045Y243334D01*
X336948Y243486D01*
X336851Y243611D01*
X336823Y243639D01*
X336767Y243694D01*
X336670Y243778D01*
X336532Y243874D01*
X336351Y243958D01*
X336157Y244041D01*
X335921Y244096D01*
X335672Y244124D01*
X335575D01*
X335464Y244110D01*
X335339Y244083D01*
X335173Y244041D01*
X335006Y243986D01*
X334840Y243916D01*
X334673Y243805D01*
X334646Y243791D01*
X334576Y243736D01*
X334479Y243639D01*
X334354Y243500D01*
X334216Y243334D01*
X334063Y243139D01*
X333924Y242890D01*
X333786Y242612D01*
Y242599D01*
X333772Y242571D01*
X333758Y242529D01*
X333730Y242474D01*
X333716Y242391D01*
X333689Y242293D01*
X333661Y242183D01*
X333633Y242044D01*
X333591Y241891D01*
X333564Y241725D01*
X333536Y241545D01*
X333522Y241350D01*
X333494Y241129D01*
X333481Y240907D01*
X333467Y240657D01*
Y240407D01*
X333481Y240421D01*
X333536Y240504D01*
X333633Y240616D01*
X333758Y240754D01*
X333897Y240921D01*
X334077Y241073D01*
X334271Y241226D01*
X334493Y241364D01*
X334507D01*
X334521Y241378D01*
X334604Y241420D01*
X334729Y241461D01*
X334895Y241531D01*
X335089Y241586D01*
X335311Y241628D01*
X335547Y241670D01*
X335797Y241683D01*
X335908D01*
X335991Y241670D01*
X336102Y241656D01*
X336213Y241642D01*
X336351Y241614D01*
X336490Y241572D01*
X336809Y241475D01*
X336975Y241406D01*
X337142Y241309D01*
X337308Y241212D01*
X337489Y241101D01*
X337655Y240962D01*
X337808Y240810D01*
X337821Y240796D01*
X337849Y240768D01*
X337891Y240726D01*
X337932Y240657D01*
X338002Y240560D01*
X338071Y240463D01*
X338140Y240338D01*
X338224Y240199D01*
X338307Y240047D01*
X338376Y239880D01*
X338445Y239686D01*
X338515Y239492D01*
X338556Y239284D01*
X338598Y239048D01*
X338626Y238813D01*
X338640Y238563D01*
Y238549D01*
Y238521D01*
Y238480D01*
Y238410D01*
X338626Y238327D01*
Y238244D01*
X338584Y238022D01*
X338543Y237759D01*
X338473Y237481D01*
X338376Y237176D01*
X338237Y236885D01*
Y236871D01*
X338224Y236857D01*
X338196Y236815D01*
X338168Y236760D01*
X338085Y236621D01*
X337960Y236441D01*
X337808Y236247D01*
X337627Y236053D01*
X337405Y235859D01*
X337170Y235692D01*
X337156D01*
X337142Y235678D01*
X337100Y235651D01*
X337045Y235637D01*
X336906Y235567D01*
X336726Y235498D01*
X336490Y235415D01*
X336227Y235359D01*
X335935Y235304D01*
X335616Y235290D01*
X335547D01*
X335478Y235304D01*
X335367D01*
X335242Y235318D01*
X335103Y235345D01*
X334937Y235387D01*
X334770Y235429D01*
X334576Y235484D01*
X334382Y235553D01*
X334188Y235637D01*
X333980Y235748D01*
X333786Y235872D01*
X333591Y236011D01*
X333397Y236178D01*
X333217Y236372D01*
X333203Y236386D01*
X333176Y236427D01*
X333134Y236483D01*
X333078Y236580D01*
X332995Y236705D01*
X332926Y236843D01*
X332843Y237024D01*
X332759Y237218D01*
X332662Y237453D01*
X332579Y237717D01*
X332510Y238008D01*
X332440Y238327D01*
X332371Y238688D01*
X332329Y239076D01*
X332302Y239492D01*
X332288Y239936D01*
Y239950D01*
Y239964D01*
Y240005D01*
Y240061D01*
X332302Y240199D01*
Y240394D01*
X332316Y240616D01*
X332343Y240879D01*
X332371Y241170D01*
X332413Y241489D01*
X332468Y241808D01*
X332537Y242155D01*
X332621Y242488D01*
X332718Y242820D01*
X332843Y243139D01*
X332981Y243445D01*
X333134Y243736D01*
X333314Y243986D01*
X333328Y243999D01*
X333356Y244027D01*
X333411Y244083D01*
X333481Y244166D01*
X333564Y244249D01*
X333675Y244332D01*
X333813Y244443D01*
X333952Y244540D01*
X334118Y244637D01*
X334299Y244748D01*
X334507Y244832D01*
X334715Y244928D01*
X334951Y244998D01*
X335200Y245053D01*
X335464Y245081D01*
X335741Y245095D01*
X335852D01*
X335935Y245081D01*
D02*
G37*
G36*
X329320Y235456D02*
X328141D01*
Y242959D01*
X328127Y242945D01*
X328058Y242890D01*
X327975Y242807D01*
X327836Y242710D01*
X327684Y242585D01*
X327489Y242446D01*
X327267Y242293D01*
X327018Y242141D01*
X327004D01*
X326990Y242127D01*
X326907Y242072D01*
X326768Y242002D01*
X326602Y241919D01*
X326408Y241822D01*
X326200Y241725D01*
X325992Y241628D01*
X325784Y241545D01*
Y242682D01*
X325798D01*
X325825Y242710D01*
X325881Y242724D01*
X325950Y242765D01*
X326033Y242807D01*
X326130Y242862D01*
X326366Y243001D01*
X326643Y243153D01*
X326921Y243347D01*
X327212Y243569D01*
X327503Y243805D01*
X327517Y243819D01*
X327531Y243833D01*
X327573Y243874D01*
X327628Y243916D01*
X327753Y244055D01*
X327919Y244221D01*
X328086Y244415D01*
X328266Y244637D01*
X328419Y244859D01*
X328557Y245095D01*
X329320D01*
Y235456D01*
D02*
G37*
G36*
X342751Y184446D02*
X338910D01*
X338397Y181852D01*
X338410Y181866D01*
X338438Y181880D01*
X338480Y181908D01*
X338549Y181949D01*
X338632Y181991D01*
X338729Y182046D01*
X338951Y182157D01*
X339229Y182268D01*
X339534Y182365D01*
X339867Y182435D01*
X340033Y182462D01*
X340338D01*
X340421Y182449D01*
X340532Y182435D01*
X340657Y182421D01*
X340796Y182393D01*
X340948Y182351D01*
X341281Y182254D01*
X341461Y182185D01*
X341642Y182088D01*
X341822Y181991D01*
X342002Y181880D01*
X342169Y181741D01*
X342335Y181589D01*
X342349Y181575D01*
X342377Y181547D01*
X342418Y181506D01*
X342474Y181436D01*
X342543Y181339D01*
X342613Y181242D01*
X342696Y181117D01*
X342779Y180979D01*
X342848Y180826D01*
X342932Y180660D01*
X343001Y180465D01*
X343070Y180271D01*
X343126Y180063D01*
X343167Y179827D01*
X343195Y179592D01*
X343209Y179342D01*
Y179328D01*
Y179286D01*
Y179217D01*
X343195Y179120D01*
X343181Y179009D01*
X343167Y178884D01*
X343140Y178732D01*
X343112Y178579D01*
X343029Y178219D01*
X342890Y177844D01*
X342807Y177650D01*
X342696Y177470D01*
X342585Y177276D01*
X342446Y177095D01*
X342432Y177081D01*
X342405Y177040D01*
X342349Y176984D01*
X342280Y176915D01*
X342183Y176832D01*
X342072Y176721D01*
X341933Y176624D01*
X341781Y176513D01*
X341614Y176402D01*
X341420Y176305D01*
X341212Y176208D01*
X340990Y176111D01*
X340754Y176041D01*
X340491Y175986D01*
X340213Y175944D01*
X339922Y175930D01*
X339797D01*
X339700Y175944D01*
X339589Y175958D01*
X339464Y175972D01*
X339312Y175986D01*
X339159Y176027D01*
X338813Y176111D01*
X338466Y176236D01*
X338286Y176319D01*
X338105Y176416D01*
X337939Y176527D01*
X337772Y176651D01*
X337759Y176665D01*
X337731Y176679D01*
X337703Y176735D01*
X337648Y176790D01*
X337578Y176859D01*
X337509Y176943D01*
X337426Y177054D01*
X337356Y177178D01*
X337273Y177303D01*
X337190Y177456D01*
X337038Y177789D01*
X336913Y178177D01*
X336871Y178385D01*
X336843Y178607D01*
X338078Y178704D01*
Y178690D01*
Y178662D01*
X338092Y178621D01*
X338105Y178552D01*
X338147Y178399D01*
X338202Y178191D01*
X338286Y177983D01*
X338397Y177747D01*
X338535Y177539D01*
X338702Y177345D01*
X338729Y177331D01*
X338785Y177276D01*
X338896Y177206D01*
X339048Y177123D01*
X339215Y177040D01*
X339423Y176971D01*
X339659Y176915D01*
X339922Y176901D01*
X340005D01*
X340061Y176915D01*
X340227Y176929D01*
X340421Y176984D01*
X340657Y177054D01*
X340893Y177165D01*
X341143Y177331D01*
X341254Y177428D01*
X341364Y177539D01*
X341378Y177553D01*
X341392Y177567D01*
X341420Y177608D01*
X341461Y177650D01*
X341559Y177803D01*
X341670Y177997D01*
X341767Y178232D01*
X341864Y178524D01*
X341933Y178871D01*
X341961Y179051D01*
Y179245D01*
Y179259D01*
Y179286D01*
Y179342D01*
X341947Y179411D01*
Y179494D01*
X341933Y179592D01*
X341891Y179813D01*
X341822Y180077D01*
X341725Y180340D01*
X341586Y180590D01*
X341392Y180826D01*
Y180840D01*
X341364Y180854D01*
X341295Y180923D01*
X341170Y181020D01*
X341004Y181131D01*
X340782Y181228D01*
X340532Y181325D01*
X340241Y181395D01*
X340075Y181422D01*
X339811D01*
X339700Y181408D01*
X339562Y181395D01*
X339395Y181353D01*
X339229Y181311D01*
X339048Y181242D01*
X338868Y181159D01*
X338854Y181145D01*
X338799Y181117D01*
X338716Y181048D01*
X338605Y180979D01*
X338494Y180881D01*
X338383Y180757D01*
X338258Y180632D01*
X338161Y180479D01*
X337051Y180632D01*
X337981Y185569D01*
X342751D01*
Y184446D01*
D02*
G37*
G36*
X333820Y176097D02*
X332641D01*
Y183600D01*
X332627Y183586D01*
X332558Y183530D01*
X332475Y183447D01*
X332336Y183350D01*
X332184Y183225D01*
X331989Y183086D01*
X331768Y182934D01*
X331518Y182781D01*
X331504D01*
X331490Y182768D01*
X331407Y182712D01*
X331268Y182643D01*
X331102Y182560D01*
X330908Y182462D01*
X330700Y182365D01*
X330492Y182268D01*
X330284Y182185D01*
Y183322D01*
X330298D01*
X330325Y183350D01*
X330381Y183364D01*
X330450Y183405D01*
X330533Y183447D01*
X330630Y183503D01*
X330866Y183641D01*
X331143Y183794D01*
X331421Y183988D01*
X331712Y184210D01*
X332003Y184446D01*
X332017Y184459D01*
X332031Y184473D01*
X332073Y184515D01*
X332128Y184557D01*
X332253Y184695D01*
X332419Y184862D01*
X332586Y185056D01*
X332766Y185278D01*
X332919Y185500D01*
X333057Y185735D01*
X333820D01*
Y176097D01*
D02*
G37*
G36*
X315294Y238674D02*
X316598D01*
Y237592D01*
X315294D01*
Y235290D01*
X314116D01*
Y237592D01*
X309941D01*
Y238674D01*
X314337Y244887D01*
X315294D01*
Y238674D01*
D02*
G37*
G36*
X307320Y235290D02*
X306141D01*
Y242793D01*
X306127Y242779D01*
X306058Y242724D01*
X305975Y242640D01*
X305836Y242543D01*
X305684Y242418D01*
X305489Y242280D01*
X305268Y242127D01*
X305018Y241975D01*
X305004D01*
X304990Y241961D01*
X304907Y241905D01*
X304768Y241836D01*
X304602Y241753D01*
X304408Y241656D01*
X304200Y241558D01*
X303992Y241461D01*
X303784Y241378D01*
Y242515D01*
X303797D01*
X303825Y242543D01*
X303881Y242557D01*
X303950Y242599D01*
X304033Y242640D01*
X304130Y242696D01*
X304366Y242834D01*
X304643Y242987D01*
X304921Y243181D01*
X305212Y243403D01*
X305503Y243639D01*
X305517Y243653D01*
X305531Y243666D01*
X305573Y243708D01*
X305628Y243750D01*
X305753Y243888D01*
X305919Y244055D01*
X306086Y244249D01*
X306266Y244471D01*
X306419Y244693D01*
X306557Y244928D01*
X307320D01*
Y235290D01*
D02*
G37*
G36*
X314644Y185721D02*
X314824Y185694D01*
X315046Y185652D01*
X315296Y185583D01*
X315546Y185500D01*
X315795Y185389D01*
X315809D01*
X315823Y185375D01*
X315906Y185333D01*
X316031Y185250D01*
X316169Y185153D01*
X316336Y185014D01*
X316502Y184862D01*
X316669Y184681D01*
X316807Y184473D01*
X316821Y184446D01*
X316863Y184376D01*
X316918Y184251D01*
X316988Y184099D01*
X317057Y183919D01*
X317113Y183710D01*
X317154Y183475D01*
X317168Y183239D01*
Y183211D01*
Y183128D01*
X317154Y183017D01*
X317127Y182865D01*
X317085Y182684D01*
X317015Y182490D01*
X316932Y182296D01*
X316821Y182102D01*
X316807Y182074D01*
X316766Y182019D01*
X316683Y181922D01*
X316572Y181811D01*
X316433Y181686D01*
X316267Y181547D01*
X316073Y181422D01*
X315837Y181297D01*
X315851D01*
X315878Y181284D01*
X315920Y181270D01*
X315975Y181256D01*
X316128Y181200D01*
X316322Y181117D01*
X316544Y181006D01*
X316766Y180868D01*
X316974Y180687D01*
X317168Y180479D01*
X317182Y180452D01*
X317237Y180368D01*
X317321Y180230D01*
X317404Y180049D01*
X317487Y179827D01*
X317570Y179564D01*
X317626Y179259D01*
X317640Y178926D01*
Y178912D01*
Y178871D01*
Y178801D01*
X317626Y178718D01*
X317612Y178607D01*
X317584Y178482D01*
X317556Y178344D01*
X317529Y178191D01*
X317418Y177858D01*
X317334Y177678D01*
X317251Y177511D01*
X317140Y177331D01*
X317015Y177151D01*
X316877Y176971D01*
X316710Y176804D01*
X316696Y176790D01*
X316669Y176763D01*
X316613Y176721D01*
X316544Y176665D01*
X316461Y176596D01*
X316350Y176527D01*
X316225Y176444D01*
X316073Y176374D01*
X315920Y176291D01*
X315740Y176208D01*
X315559Y176138D01*
X315351Y176069D01*
X315129Y176014D01*
X314894Y175972D01*
X314658Y175944D01*
X314394Y175930D01*
X314270D01*
X314186Y175944D01*
X314075Y175958D01*
X313951Y175972D01*
X313812Y176000D01*
X313659Y176027D01*
X313326Y176111D01*
X312980Y176249D01*
X312799Y176332D01*
X312633Y176430D01*
X312467Y176554D01*
X312300Y176679D01*
X312286Y176693D01*
X312259Y176721D01*
X312217Y176763D01*
X312175Y176818D01*
X312106Y176887D01*
X312037Y176984D01*
X311954Y177081D01*
X311870Y177206D01*
X311787Y177345D01*
X311704Y177484D01*
X311551Y177817D01*
X311427Y178205D01*
X311385Y178413D01*
X311357Y178635D01*
X312536Y178787D01*
Y178773D01*
X312550Y178746D01*
X312564Y178690D01*
X312578Y178621D01*
X312591Y178538D01*
X312619Y178440D01*
X312689Y178232D01*
X312786Y177983D01*
X312910Y177747D01*
X313049Y177525D01*
X313216Y177331D01*
X313243Y177317D01*
X313299Y177262D01*
X313410Y177192D01*
X313548Y177123D01*
X313715Y177040D01*
X313923Y176971D01*
X314159Y176915D01*
X314408Y176901D01*
X314492D01*
X314547Y176915D01*
X314699Y176929D01*
X314894Y176971D01*
X315116Y177040D01*
X315351Y177137D01*
X315587Y177276D01*
X315809Y177470D01*
X315837Y177498D01*
X315906Y177581D01*
X315989Y177705D01*
X316100Y177872D01*
X316211Y178080D01*
X316294Y178316D01*
X316364Y178593D01*
X316391Y178898D01*
Y178912D01*
Y178940D01*
Y178981D01*
X316378Y179037D01*
X316364Y179189D01*
X316322Y179370D01*
X316267Y179592D01*
X316169Y179813D01*
X316031Y180035D01*
X315851Y180243D01*
X315823Y180271D01*
X315753Y180327D01*
X315643Y180410D01*
X315490Y180507D01*
X315296Y180604D01*
X315060Y180687D01*
X314797Y180743D01*
X314505Y180770D01*
X314380D01*
X314283Y180757D01*
X314159Y180743D01*
X314020Y180715D01*
X313853Y180687D01*
X313673Y180646D01*
X313812Y181686D01*
X313881D01*
X313937Y181672D01*
X314117D01*
X314270Y181700D01*
X314450Y181727D01*
X314658Y181769D01*
X314894Y181838D01*
X315116Y181935D01*
X315351Y182060D01*
X315365D01*
X315379Y182074D01*
X315448Y182129D01*
X315546Y182227D01*
X315656Y182351D01*
X315767Y182532D01*
X315864Y182740D01*
X315934Y182976D01*
X315961Y183114D01*
Y183267D01*
Y183281D01*
Y183295D01*
Y183378D01*
X315934Y183489D01*
X315906Y183641D01*
X315851Y183808D01*
X315781Y183988D01*
X315670Y184168D01*
X315518Y184335D01*
X315504Y184349D01*
X315434Y184404D01*
X315337Y184473D01*
X315213Y184557D01*
X315046Y184626D01*
X314852Y184695D01*
X314630Y184751D01*
X314380Y184764D01*
X314270D01*
X314145Y184737D01*
X313978Y184709D01*
X313798Y184654D01*
X313618Y184584D01*
X313424Y184473D01*
X313243Y184335D01*
X313229Y184321D01*
X313174Y184251D01*
X313091Y184154D01*
X312994Y184016D01*
X312897Y183835D01*
X312799Y183613D01*
X312716Y183350D01*
X312661Y183045D01*
X311482Y183253D01*
Y183267D01*
X311496Y183308D01*
X311510Y183364D01*
X311524Y183447D01*
X311551Y183544D01*
X311593Y183655D01*
X311676Y183919D01*
X311815Y184224D01*
X311981Y184529D01*
X312189Y184820D01*
X312453Y185084D01*
X312467Y185097D01*
X312494Y185111D01*
X312536Y185139D01*
X312591Y185181D01*
X312661Y185236D01*
X312758Y185292D01*
X312855Y185347D01*
X312980Y185416D01*
X313257Y185527D01*
X313576Y185638D01*
X313951Y185708D01*
X314145Y185735D01*
X314492D01*
X314644Y185721D01*
D02*
G37*
G36*
X308320Y176097D02*
X307141D01*
Y183600D01*
X307127Y183586D01*
X307058Y183530D01*
X306975Y183447D01*
X306836Y183350D01*
X306684Y183225D01*
X306489Y183086D01*
X306268Y182934D01*
X306018Y182781D01*
X306004D01*
X305990Y182768D01*
X305907Y182712D01*
X305768Y182643D01*
X305602Y182560D01*
X305408Y182462D01*
X305200Y182365D01*
X304992Y182268D01*
X304784Y182185D01*
Y183322D01*
X304797D01*
X304825Y183350D01*
X304881Y183364D01*
X304950Y183405D01*
X305033Y183447D01*
X305130Y183503D01*
X305366Y183641D01*
X305643Y183794D01*
X305921Y183988D01*
X306212Y184210D01*
X306503Y184446D01*
X306517Y184459D01*
X306531Y184473D01*
X306573Y184515D01*
X306628Y184557D01*
X306753Y184695D01*
X306919Y184862D01*
X307086Y185056D01*
X307266Y185278D01*
X307419Y185500D01*
X307557Y185735D01*
X308320D01*
Y176097D01*
D02*
G37*
G36*
X288755Y244915D02*
X288866Y244901D01*
X289005Y244887D01*
X289157Y244859D01*
X289310Y244832D01*
X289670Y244734D01*
X290031Y244596D01*
X290211Y244513D01*
X290391Y244415D01*
X290558Y244291D01*
X290710Y244152D01*
X290724Y244138D01*
X290752Y244124D01*
X290780Y244069D01*
X290835Y244013D01*
X290905Y243944D01*
X290974Y243847D01*
X291043Y243750D01*
X291126Y243625D01*
X291265Y243361D01*
X291404Y243029D01*
X291459Y242862D01*
X291487Y242668D01*
X291515Y242474D01*
X291529Y242266D01*
Y242238D01*
Y242169D01*
X291515Y242058D01*
X291501Y241905D01*
X291473Y241739D01*
X291418Y241545D01*
X291362Y241337D01*
X291279Y241129D01*
X291265Y241101D01*
X291237Y241031D01*
X291182Y240921D01*
X291099Y240768D01*
X290988Y240602D01*
X290849Y240394D01*
X290683Y240186D01*
X290488Y239950D01*
X290461Y239922D01*
X290391Y239839D01*
X290322Y239769D01*
X290253Y239700D01*
X290170Y239617D01*
X290059Y239506D01*
X289948Y239395D01*
X289809Y239270D01*
X289670Y239132D01*
X289504Y238979D01*
X289324Y238826D01*
X289129Y238646D01*
X288908Y238466D01*
X288686Y238272D01*
X288672Y238258D01*
X288644Y238230D01*
X288589Y238188D01*
X288519Y238133D01*
X288436Y238050D01*
X288339Y237967D01*
X288117Y237786D01*
X287881Y237578D01*
X287659Y237370D01*
X287465Y237190D01*
X287382Y237121D01*
X287313Y237051D01*
X287299Y237037D01*
X287257Y236996D01*
X287202Y236940D01*
X287132Y236857D01*
X287063Y236760D01*
X286980Y236663D01*
X286813Y236427D01*
X291542D01*
Y235290D01*
X285177D01*
Y235304D01*
Y235359D01*
Y235443D01*
X285191Y235553D01*
X285205Y235678D01*
X285232Y235817D01*
X285260Y235956D01*
X285316Y236108D01*
Y236122D01*
X285329Y236136D01*
X285357Y236219D01*
X285413Y236344D01*
X285496Y236510D01*
X285607Y236705D01*
X285746Y236926D01*
X285898Y237148D01*
X286092Y237384D01*
Y237398D01*
X286120Y237412D01*
X286189Y237495D01*
X286314Y237620D01*
X286494Y237800D01*
X286702Y238008D01*
X286966Y238258D01*
X287285Y238535D01*
X287632Y238826D01*
X287645Y238840D01*
X287701Y238882D01*
X287784Y238951D01*
X287881Y239035D01*
X288006Y239145D01*
X288159Y239270D01*
X288311Y239409D01*
X288491Y239562D01*
X288838Y239894D01*
X289185Y240227D01*
X289351Y240394D01*
X289504Y240560D01*
X289643Y240713D01*
X289753Y240865D01*
Y240879D01*
X289781Y240893D01*
X289809Y240934D01*
X289837Y240990D01*
X289934Y241143D01*
X290045Y241323D01*
X290142Y241545D01*
X290239Y241780D01*
X290294Y242044D01*
X290322Y242293D01*
Y242307D01*
Y242321D01*
X290308Y242404D01*
X290294Y242543D01*
X290253Y242696D01*
X290197Y242890D01*
X290100Y243084D01*
X289975Y243278D01*
X289809Y243472D01*
X289781Y243500D01*
X289712Y243556D01*
X289615Y243625D01*
X289462Y243722D01*
X289268Y243805D01*
X289046Y243888D01*
X288783Y243944D01*
X288491Y243958D01*
X288408D01*
X288353Y243944D01*
X288186Y243930D01*
X287992Y243888D01*
X287784Y243833D01*
X287548Y243736D01*
X287327Y243611D01*
X287118Y243445D01*
X287091Y243417D01*
X287035Y243347D01*
X286952Y243237D01*
X286869Y243070D01*
X286772Y242876D01*
X286688Y242626D01*
X286633Y242349D01*
X286605Y242030D01*
X285399Y242155D01*
Y242169D01*
X285413Y242210D01*
Y242280D01*
X285427Y242377D01*
X285454Y242488D01*
X285482Y242612D01*
X285524Y242765D01*
X285565Y242918D01*
X285676Y243251D01*
X285843Y243583D01*
X285940Y243750D01*
X286064Y243916D01*
X286189Y244069D01*
X286328Y244207D01*
X286342Y244221D01*
X286370Y244235D01*
X286411Y244277D01*
X286481Y244318D01*
X286564Y244374D01*
X286661Y244429D01*
X286772Y244499D01*
X286910Y244568D01*
X287063Y244637D01*
X287229Y244707D01*
X287410Y244762D01*
X287604Y244818D01*
X287812Y244859D01*
X288034Y244901D01*
X288270Y244915D01*
X288519Y244928D01*
X288658D01*
X288755Y244915D01*
D02*
G37*
G36*
X282320Y235290D02*
X281141D01*
Y242793D01*
X281127Y242779D01*
X281058Y242724D01*
X280975Y242640D01*
X280836Y242543D01*
X280683Y242418D01*
X280489Y242280D01*
X280268Y242127D01*
X280018Y241975D01*
X280004D01*
X279990Y241961D01*
X279907Y241905D01*
X279768Y241836D01*
X279602Y241753D01*
X279408Y241656D01*
X279200Y241558D01*
X278992Y241461D01*
X278783Y241378D01*
Y242515D01*
X278797D01*
X278825Y242543D01*
X278881Y242557D01*
X278950Y242599D01*
X279033Y242640D01*
X279130Y242696D01*
X279366Y242834D01*
X279643Y242987D01*
X279921Y243181D01*
X280212Y243403D01*
X280503Y243639D01*
X280517Y243653D01*
X280531Y243666D01*
X280573Y243708D01*
X280628Y243750D01*
X280753Y243888D01*
X280919Y244055D01*
X281086Y244249D01*
X281266Y244471D01*
X281418Y244693D01*
X281557Y244928D01*
X282320D01*
Y235290D01*
D02*
G37*
G36*
X290781Y175930D02*
X289602D01*
Y183433D01*
X289589Y183419D01*
X289519Y183364D01*
X289436Y183281D01*
X289297Y183183D01*
X289145Y183059D01*
X288951Y182920D01*
X288729Y182768D01*
X288479Y182615D01*
X288465D01*
X288451Y182601D01*
X288368Y182546D01*
X288229Y182476D01*
X288063Y182393D01*
X287869Y182296D01*
X287661Y182199D01*
X287453Y182102D01*
X287245Y182019D01*
Y183156D01*
X287259D01*
X287286Y183183D01*
X287342Y183197D01*
X287411Y183239D01*
X287494Y183281D01*
X287591Y183336D01*
X287827Y183475D01*
X288105Y183627D01*
X288382Y183822D01*
X288673Y184043D01*
X288965Y184279D01*
X288978Y184293D01*
X288992Y184307D01*
X289034Y184349D01*
X289089Y184390D01*
X289214Y184529D01*
X289380Y184695D01*
X289547Y184889D01*
X289727Y185111D01*
X289880Y185333D01*
X290019Y185569D01*
X290781D01*
Y175930D01*
D02*
G37*
G36*
X283320D02*
X282141D01*
Y183433D01*
X282127Y183419D01*
X282058Y183364D01*
X281975Y183281D01*
X281836Y183183D01*
X281684Y183059D01*
X281489Y182920D01*
X281268Y182768D01*
X281018Y182615D01*
X281004D01*
X280990Y182601D01*
X280907Y182546D01*
X280768Y182476D01*
X280602Y182393D01*
X280408Y182296D01*
X280200Y182199D01*
X279992Y182102D01*
X279784Y182019D01*
Y183156D01*
X279797D01*
X279825Y183183D01*
X279881Y183197D01*
X279950Y183239D01*
X280033Y183281D01*
X280130Y183336D01*
X280366Y183475D01*
X280643Y183627D01*
X280921Y183822D01*
X281212Y184043D01*
X281503Y184279D01*
X281517Y184293D01*
X281531Y184307D01*
X281573Y184349D01*
X281628Y184390D01*
X281753Y184529D01*
X281919Y184695D01*
X282086Y184889D01*
X282266Y185111D01*
X282419Y185333D01*
X282557Y185569D01*
X283320D01*
Y175930D01*
D02*
G37*
G36*
X255461Y235456D02*
X254282D01*
Y242959D01*
X254268Y242945D01*
X254199Y242890D01*
X254115Y242807D01*
X253977Y242710D01*
X253824Y242585D01*
X253630Y242446D01*
X253408Y242293D01*
X253158Y242141D01*
X253145D01*
X253131Y242127D01*
X253048Y242072D01*
X252909Y242002D01*
X252742Y241919D01*
X252548Y241822D01*
X252340Y241725D01*
X252132Y241628D01*
X251924Y241545D01*
Y242682D01*
X251938D01*
X251966Y242710D01*
X252021Y242724D01*
X252091Y242765D01*
X252174Y242807D01*
X252271Y242862D01*
X252507Y243001D01*
X252784Y243153D01*
X253061Y243347D01*
X253353Y243569D01*
X253644Y243805D01*
X253658Y243819D01*
X253672Y243833D01*
X253713Y243874D01*
X253769Y243916D01*
X253894Y244055D01*
X254060Y244221D01*
X254226Y244415D01*
X254407Y244637D01*
X254559Y244859D01*
X254698Y245095D01*
X255461D01*
Y235456D01*
D02*
G37*
G36*
X261896Y245081D02*
X262076Y245053D01*
X262284Y245012D01*
X262506Y244956D01*
X262742Y244887D01*
X262963Y244776D01*
X262977D01*
X262991Y244762D01*
X263060Y244720D01*
X263171Y244651D01*
X263310Y244554D01*
X263463Y244415D01*
X263629Y244263D01*
X263782Y244083D01*
X263934Y243874D01*
X263948Y243847D01*
X264004Y243778D01*
X264059Y243653D01*
X264156Y243472D01*
X264239Y243264D01*
X264350Y243029D01*
X264447Y242751D01*
X264531Y242446D01*
Y242432D01*
X264544Y242404D01*
X264558Y242363D01*
X264572Y242293D01*
X264586Y242210D01*
X264600Y242113D01*
X264628Y241988D01*
X264641Y241850D01*
X264669Y241697D01*
X264683Y241531D01*
X264697Y241337D01*
X264725Y241143D01*
X264739Y240921D01*
Y240699D01*
X264752Y240449D01*
Y240186D01*
Y240172D01*
Y240116D01*
Y240019D01*
Y239908D01*
X264739Y239756D01*
Y239589D01*
X264725Y239409D01*
X264711Y239215D01*
X264669Y238771D01*
X264600Y238313D01*
X264517Y237869D01*
X264461Y237661D01*
X264392Y237453D01*
Y237440D01*
X264378Y237412D01*
X264350Y237356D01*
X264322Y237287D01*
X264295Y237190D01*
X264239Y237093D01*
X264128Y236857D01*
X263990Y236607D01*
X263809Y236330D01*
X263601Y236080D01*
X263352Y235845D01*
X263338D01*
X263324Y235817D01*
X263282Y235789D01*
X263227Y235762D01*
X263158Y235720D01*
X263088Y235665D01*
X262880Y235567D01*
X262631Y235470D01*
X262339Y235373D01*
X261993Y235318D01*
X261618Y235290D01*
X261479D01*
X261382Y235304D01*
X261271Y235318D01*
X261133Y235345D01*
X260980Y235373D01*
X260814Y235415D01*
X260647Y235470D01*
X260467Y235526D01*
X260287Y235609D01*
X260107Y235706D01*
X259926Y235817D01*
X259746Y235956D01*
X259580Y236108D01*
X259427Y236275D01*
X259413Y236289D01*
X259385Y236330D01*
X259344Y236399D01*
X259274Y236510D01*
X259205Y236635D01*
X259136Y236802D01*
X259039Y236996D01*
X258955Y237218D01*
X258872Y237467D01*
X258789Y237759D01*
X258706Y238078D01*
X258636Y238438D01*
X258567Y238826D01*
X258526Y239242D01*
X258498Y239700D01*
X258484Y240186D01*
Y240199D01*
Y240255D01*
Y240352D01*
Y240463D01*
X258498Y240616D01*
Y240782D01*
X258512Y240962D01*
X258526Y241170D01*
X258567Y241600D01*
X258636Y242058D01*
X258720Y242515D01*
X258775Y242724D01*
X258831Y242931D01*
Y242945D01*
X258845Y242973D01*
X258872Y243029D01*
X258900Y243098D01*
X258928Y243195D01*
X258983Y243292D01*
X259094Y243528D01*
X259233Y243778D01*
X259413Y244041D01*
X259621Y244305D01*
X259871Y244526D01*
X259885D01*
X259898Y244554D01*
X259940Y244582D01*
X259996Y244610D01*
X260065Y244665D01*
X260148Y244707D01*
X260356Y244818D01*
X260606Y244915D01*
X260897Y245012D01*
X261244Y245067D01*
X261618Y245095D01*
X261743D01*
X261896Y245081D01*
D02*
G37*
G36*
X259676Y185721D02*
X259745D01*
X259842Y185708D01*
X260078Y185666D01*
X260341Y185611D01*
X260633Y185513D01*
X260924Y185389D01*
X261215Y185222D01*
X261229D01*
X261243Y185194D01*
X261285Y185167D01*
X261340Y185125D01*
X261479Y185014D01*
X261659Y184862D01*
X261839Y184654D01*
X262047Y184404D01*
X262228Y184113D01*
X262394Y183780D01*
Y183766D01*
X262408Y183738D01*
X262436Y183683D01*
X262463Y183613D01*
X262491Y183516D01*
X262533Y183392D01*
X262561Y183253D01*
X262602Y183100D01*
X262644Y182920D01*
X262685Y182712D01*
X262713Y182490D01*
X262741Y182254D01*
X262768Y181991D01*
X262796Y181714D01*
X262810Y181408D01*
Y181089D01*
Y181075D01*
Y181006D01*
Y180909D01*
Y180784D01*
X262796Y180632D01*
Y180452D01*
X262782Y180243D01*
X262755Y180035D01*
X262713Y179564D01*
X262644Y179065D01*
X262547Y178593D01*
X262477Y178357D01*
X262408Y178149D01*
Y178135D01*
X262394Y178108D01*
X262366Y178052D01*
X262339Y177969D01*
X262297Y177886D01*
X262241Y177775D01*
X262103Y177539D01*
X261936Y177276D01*
X261742Y176998D01*
X261493Y176735D01*
X261215Y176499D01*
X261201D01*
X261174Y176471D01*
X261132Y176444D01*
X261077Y176416D01*
X260993Y176374D01*
X260910Y176319D01*
X260799Y176263D01*
X260688Y176222D01*
X260425Y176111D01*
X260106Y176014D01*
X259759Y175958D01*
X259371Y175930D01*
X259260D01*
X259191Y175944D01*
X259093D01*
X258982Y175958D01*
X258719Y176014D01*
X258428Y176083D01*
X258123Y176194D01*
X257817Y176346D01*
X257665Y176444D01*
X257526Y176554D01*
X257512Y176568D01*
X257498Y176582D01*
X257457Y176624D01*
X257415Y176665D01*
X257360Y176735D01*
X257290Y176818D01*
X257152Y177012D01*
X257013Y177262D01*
X256874Y177567D01*
X256763Y177913D01*
X256680Y178316D01*
X257817Y178413D01*
Y178399D01*
X257831Y178371D01*
Y178344D01*
X257845Y178288D01*
X257887Y178135D01*
X257942Y177969D01*
X258012Y177775D01*
X258109Y177581D01*
X258220Y177400D01*
X258358Y177248D01*
X258372Y177234D01*
X258428Y177192D01*
X258525Y177137D01*
X258636Y177081D01*
X258788Y177012D01*
X258969Y176957D01*
X259177Y176915D01*
X259398Y176901D01*
X259496D01*
X259593Y176915D01*
X259718Y176929D01*
X259870Y176957D01*
X260023Y176998D01*
X260189Y177054D01*
X260341Y177137D01*
X260355Y177151D01*
X260411Y177178D01*
X260494Y177234D01*
X260577Y177317D01*
X260688Y177414D01*
X260799Y177525D01*
X260910Y177650D01*
X261021Y177803D01*
X261035Y177817D01*
X261063Y177886D01*
X261118Y177983D01*
X261174Y178108D01*
X261243Y178274D01*
X261312Y178468D01*
X261382Y178690D01*
X261451Y178940D01*
Y178954D01*
X261465Y178967D01*
Y179009D01*
X261479Y179065D01*
X261507Y179203D01*
X261548Y179384D01*
X261576Y179606D01*
X261604Y179841D01*
X261617Y180105D01*
X261631Y180382D01*
Y180396D01*
Y180438D01*
Y180507D01*
Y180618D01*
X261617Y180590D01*
X261562Y180521D01*
X261479Y180424D01*
X261382Y180285D01*
X261243Y180146D01*
X261077Y179994D01*
X260882Y179841D01*
X260660Y179703D01*
X260633Y179689D01*
X260550Y179647D01*
X260425Y179592D01*
X260272Y179536D01*
X260064Y179467D01*
X259842Y179411D01*
X259593Y179370D01*
X259329Y179356D01*
X259218D01*
X259135Y179370D01*
X259024Y179384D01*
X258913Y179398D01*
X258774Y179425D01*
X258636Y179467D01*
X258317Y179564D01*
X258150Y179633D01*
X257984Y179716D01*
X257804Y179813D01*
X257637Y179938D01*
X257471Y180063D01*
X257318Y180216D01*
X257304Y180230D01*
X257277Y180257D01*
X257249Y180299D01*
X257193Y180368D01*
X257124Y180465D01*
X257055Y180562D01*
X256985Y180687D01*
X256916Y180826D01*
X256833Y180979D01*
X256763Y181145D01*
X256694Y181339D01*
X256625Y181533D01*
X256569Y181755D01*
X256542Y181991D01*
X256514Y182227D01*
X256500Y182490D01*
Y182504D01*
Y182560D01*
Y182629D01*
X256514Y182726D01*
X256528Y182851D01*
X256542Y183003D01*
X256569Y183156D01*
X256611Y183336D01*
X256708Y183697D01*
X256777Y183891D01*
X256861Y184099D01*
X256958Y184293D01*
X257083Y184473D01*
X257207Y184667D01*
X257360Y184834D01*
X257374Y184848D01*
X257401Y184876D01*
X257443Y184917D01*
X257512Y184973D01*
X257596Y185042D01*
X257707Y185125D01*
X257817Y185194D01*
X257956Y185292D01*
X258095Y185375D01*
X258261Y185444D01*
X258636Y185597D01*
X258830Y185652D01*
X259052Y185694D01*
X259274Y185721D01*
X259509Y185735D01*
X259606D01*
X259676Y185721D01*
D02*
G37*
G36*
X232267Y245081D02*
X232378Y245067D01*
X232502Y245053D01*
X232641Y245040D01*
X232780Y244998D01*
X233113Y244915D01*
X233445Y244790D01*
X233612Y244707D01*
X233778Y244610D01*
X233931Y244485D01*
X234083Y244360D01*
X234097Y244346D01*
X234111Y244332D01*
X234153Y244291D01*
X234208Y244235D01*
X234264Y244152D01*
X234333Y244069D01*
X234472Y243861D01*
X234610Y243597D01*
X234735Y243292D01*
X234832Y242945D01*
X234846Y242765D01*
X234860Y242571D01*
Y242557D01*
Y242543D01*
Y242460D01*
X234846Y242335D01*
X234818Y242183D01*
X234777Y241988D01*
X234708Y241794D01*
X234624Y241600D01*
X234499Y241406D01*
X234486Y241378D01*
X234430Y241323D01*
X234347Y241239D01*
X234236Y241129D01*
X234083Y241004D01*
X233903Y240879D01*
X233695Y240754D01*
X233445Y240643D01*
X233459D01*
X233487Y240629D01*
X233529Y240616D01*
X233584Y240588D01*
X233751Y240518D01*
X233945Y240421D01*
X234153Y240283D01*
X234375Y240130D01*
X234583Y239936D01*
X234777Y239714D01*
Y239700D01*
X234791Y239686D01*
X234846Y239603D01*
X234929Y239464D01*
X235013Y239284D01*
X235096Y239062D01*
X235179Y238799D01*
X235235Y238507D01*
X235248Y238188D01*
Y238175D01*
Y238133D01*
Y238064D01*
X235235Y237980D01*
X235221Y237883D01*
X235207Y237759D01*
X235179Y237620D01*
X235137Y237467D01*
X235040Y237148D01*
X234971Y236968D01*
X234874Y236802D01*
X234777Y236621D01*
X234666Y236455D01*
X234527Y236289D01*
X234375Y236122D01*
X234361Y236108D01*
X234333Y236080D01*
X234291Y236039D01*
X234222Y235997D01*
X234125Y235928D01*
X234028Y235859D01*
X233903Y235789D01*
X233764Y235706D01*
X233612Y235623D01*
X233432Y235553D01*
X233237Y235484D01*
X233043Y235415D01*
X232821Y235373D01*
X232586Y235332D01*
X232350Y235304D01*
X232086Y235290D01*
X231948D01*
X231851Y235304D01*
X231726Y235318D01*
X231587Y235332D01*
X231434Y235359D01*
X231268Y235401D01*
X230894Y235498D01*
X230700Y235567D01*
X230519Y235637D01*
X230325Y235734D01*
X230131Y235845D01*
X229951Y235970D01*
X229784Y236122D01*
X229770Y236136D01*
X229743Y236164D01*
X229701Y236205D01*
X229646Y236275D01*
X229590Y236358D01*
X229507Y236455D01*
X229438Y236566D01*
X229354Y236705D01*
X229271Y236843D01*
X229202Y237010D01*
X229063Y237356D01*
X229008Y237564D01*
X228966Y237772D01*
X228938Y237994D01*
X228924Y238216D01*
Y238230D01*
Y238258D01*
Y238313D01*
X228938Y238369D01*
Y238452D01*
X228952Y238549D01*
X228980Y238771D01*
X229035Y239021D01*
X229118Y239270D01*
X229243Y239534D01*
X229396Y239783D01*
Y239797D01*
X229424Y239811D01*
X229479Y239880D01*
X229590Y239991D01*
X229743Y240130D01*
X229937Y240269D01*
X230173Y240421D01*
X230436Y240546D01*
X230755Y240643D01*
X230741D01*
X230727Y240657D01*
X230686Y240671D01*
X230630Y240699D01*
X230505Y240754D01*
X230339Y240837D01*
X230159Y240948D01*
X229978Y241087D01*
X229812Y241239D01*
X229659Y241406D01*
X229646Y241434D01*
X229604Y241489D01*
X229548Y241600D01*
X229493Y241739D01*
X229424Y241919D01*
X229368Y242127D01*
X229326Y242363D01*
X229313Y242612D01*
Y242626D01*
Y242654D01*
Y242710D01*
X229326Y242793D01*
X229340Y242876D01*
X229354Y242987D01*
X229410Y243223D01*
X229493Y243500D01*
X229632Y243791D01*
X229715Y243944D01*
X229812Y244096D01*
X229937Y244235D01*
X230062Y244374D01*
X230075Y244388D01*
X230103Y244401D01*
X230145Y244443D01*
X230200Y244485D01*
X230270Y244540D01*
X230367Y244596D01*
X230478Y244665D01*
X230589Y244734D01*
X230727Y244804D01*
X230880Y244873D01*
X231046Y244928D01*
X231227Y244984D01*
X231615Y245067D01*
X231837Y245081D01*
X232059Y245095D01*
X232183D01*
X232267Y245081D01*
D02*
G37*
G36*
X237713Y184473D02*
X237699Y184459D01*
X237671Y184432D01*
X237616Y184376D01*
X237561Y184293D01*
X237477Y184196D01*
X237366Y184085D01*
X237255Y183946D01*
X237131Y183780D01*
X237006Y183613D01*
X236853Y183419D01*
X236701Y183197D01*
X236548Y182976D01*
X236382Y182726D01*
X236215Y182462D01*
X236049Y182171D01*
X235882Y181880D01*
X235868Y181866D01*
X235841Y181811D01*
X235799Y181727D01*
X235730Y181602D01*
X235660Y181450D01*
X235577Y181284D01*
X235480Y181089D01*
X235383Y180868D01*
X235272Y180618D01*
X235147Y180368D01*
X235036Y180091D01*
X234925Y179800D01*
X234704Y179203D01*
X234496Y178565D01*
Y178552D01*
X234482Y178510D01*
X234468Y178440D01*
X234440Y178357D01*
X234412Y178246D01*
X234385Y178108D01*
X234343Y177955D01*
X234315Y177789D01*
X234274Y177595D01*
X234232Y177386D01*
X234163Y176943D01*
X234093Y176457D01*
X234052Y175930D01*
X232845D01*
Y175944D01*
Y175986D01*
Y176041D01*
X232859Y176124D01*
Y176236D01*
X232873Y176374D01*
X232887Y176527D01*
X232901Y176693D01*
X232928Y176887D01*
X232956Y177081D01*
X232998Y177317D01*
X233039Y177553D01*
X233081Y177803D01*
X233137Y178080D01*
X233275Y178649D01*
Y178662D01*
X233289Y178718D01*
X233317Y178801D01*
X233358Y178926D01*
X233400Y179065D01*
X233455Y179231D01*
X233511Y179425D01*
X233594Y179633D01*
X233677Y179869D01*
X233761Y180105D01*
X233969Y180632D01*
X234218Y181187D01*
X234496Y181741D01*
X234509Y181755D01*
X234537Y181811D01*
X234579Y181880D01*
X234634Y181991D01*
X234704Y182116D01*
X234801Y182268D01*
X234898Y182435D01*
X235009Y182615D01*
X235272Y183017D01*
X235550Y183433D01*
X235868Y183863D01*
X236201Y184265D01*
X231500D01*
Y185403D01*
X237713D01*
Y184473D01*
D02*
G37*
G36*
X207986Y245081D02*
X208083D01*
X208194Y245067D01*
X208457Y245012D01*
X208748Y244942D01*
X209054Y244832D01*
X209359Y244665D01*
X209511Y244568D01*
X209650Y244457D01*
X209664Y244443D01*
X209678Y244429D01*
X209719Y244388D01*
X209761Y244346D01*
X209830Y244277D01*
X209886Y244193D01*
X210038Y243999D01*
X210191Y243750D01*
X210329Y243445D01*
X210454Y243098D01*
X210538Y242710D01*
X209359Y242612D01*
Y242626D01*
X209345Y242640D01*
X209331Y242724D01*
X209289Y242848D01*
X209234Y243001D01*
X209178Y243167D01*
X209095Y243334D01*
X208998Y243486D01*
X208901Y243611D01*
X208873Y243639D01*
X208818Y243694D01*
X208721Y243778D01*
X208582Y243874D01*
X208402Y243958D01*
X208208Y244041D01*
X207972Y244096D01*
X207722Y244124D01*
X207625D01*
X207514Y244110D01*
X207389Y244083D01*
X207223Y244041D01*
X207057Y243986D01*
X206890Y243916D01*
X206724Y243805D01*
X206696Y243791D01*
X206627Y243736D01*
X206530Y243639D01*
X206405Y243500D01*
X206266Y243334D01*
X206113Y243139D01*
X205975Y242890D01*
X205836Y242612D01*
Y242599D01*
X205822Y242571D01*
X205808Y242529D01*
X205781Y242474D01*
X205767Y242391D01*
X205739Y242293D01*
X205711Y242183D01*
X205684Y242044D01*
X205642Y241891D01*
X205614Y241725D01*
X205586Y241545D01*
X205573Y241350D01*
X205545Y241129D01*
X205531Y240907D01*
X205517Y240657D01*
Y240407D01*
X205531Y240421D01*
X205586Y240504D01*
X205684Y240616D01*
X205808Y240754D01*
X205947Y240921D01*
X206127Y241073D01*
X206322Y241226D01*
X206544Y241364D01*
X206557D01*
X206571Y241378D01*
X206654Y241420D01*
X206779Y241461D01*
X206946Y241531D01*
X207140Y241586D01*
X207362Y241628D01*
X207598Y241670D01*
X207847Y241683D01*
X207958D01*
X208041Y241670D01*
X208152Y241656D01*
X208263Y241642D01*
X208402Y241614D01*
X208540Y241572D01*
X208860Y241475D01*
X209026Y241406D01*
X209192Y241309D01*
X209359Y241212D01*
X209539Y241101D01*
X209705Y240962D01*
X209858Y240810D01*
X209872Y240796D01*
X209900Y240768D01*
X209941Y240726D01*
X209983Y240657D01*
X210052Y240560D01*
X210121Y240463D01*
X210191Y240338D01*
X210274Y240199D01*
X210357Y240047D01*
X210427Y239880D01*
X210496Y239686D01*
X210565Y239492D01*
X210607Y239284D01*
X210648Y239048D01*
X210676Y238813D01*
X210690Y238563D01*
Y238549D01*
Y238521D01*
Y238480D01*
Y238410D01*
X210676Y238327D01*
Y238244D01*
X210635Y238022D01*
X210593Y237759D01*
X210524Y237481D01*
X210427Y237176D01*
X210288Y236885D01*
Y236871D01*
X210274Y236857D01*
X210246Y236815D01*
X210219Y236760D01*
X210135Y236621D01*
X210011Y236441D01*
X209858Y236247D01*
X209678Y236053D01*
X209456Y235859D01*
X209220Y235692D01*
X209206D01*
X209192Y235678D01*
X209151Y235651D01*
X209095Y235637D01*
X208957Y235567D01*
X208776Y235498D01*
X208540Y235415D01*
X208277Y235359D01*
X207986Y235304D01*
X207667Y235290D01*
X207598D01*
X207528Y235304D01*
X207417D01*
X207292Y235318D01*
X207154Y235345D01*
X206987Y235387D01*
X206821Y235429D01*
X206627Y235484D01*
X206432Y235553D01*
X206238Y235637D01*
X206030Y235748D01*
X205836Y235872D01*
X205642Y236011D01*
X205448Y236178D01*
X205268Y236372D01*
X205254Y236386D01*
X205226Y236427D01*
X205184Y236483D01*
X205129Y236580D01*
X205046Y236705D01*
X204976Y236843D01*
X204893Y237024D01*
X204810Y237218D01*
X204713Y237453D01*
X204630Y237717D01*
X204560Y238008D01*
X204491Y238327D01*
X204422Y238688D01*
X204380Y239076D01*
X204352Y239492D01*
X204338Y239936D01*
Y239950D01*
Y239964D01*
Y240005D01*
Y240061D01*
X204352Y240199D01*
Y240394D01*
X204366Y240616D01*
X204394Y240879D01*
X204422Y241170D01*
X204463Y241489D01*
X204519Y241808D01*
X204588Y242155D01*
X204671Y242488D01*
X204768Y242820D01*
X204893Y243139D01*
X205032Y243445D01*
X205184Y243736D01*
X205365Y243986D01*
X205378Y243999D01*
X205406Y244027D01*
X205462Y244083D01*
X205531Y244166D01*
X205614Y244249D01*
X205725Y244332D01*
X205864Y244443D01*
X206003Y244540D01*
X206169Y244637D01*
X206349Y244748D01*
X206557Y244832D01*
X206765Y244928D01*
X207001Y244998D01*
X207251Y245053D01*
X207514Y245081D01*
X207792Y245095D01*
X207903D01*
X207986Y245081D01*
D02*
G37*
G36*
X210408Y184446D02*
X206566D01*
X206053Y181852D01*
X206067Y181866D01*
X206095Y181880D01*
X206136Y181908D01*
X206206Y181949D01*
X206289Y181991D01*
X206386Y182046D01*
X206608Y182157D01*
X206885Y182268D01*
X207190Y182365D01*
X207523Y182435D01*
X207690Y182462D01*
X207995D01*
X208078Y182449D01*
X208189Y182435D01*
X208314Y182421D01*
X208452Y182393D01*
X208605Y182351D01*
X208938Y182254D01*
X209118Y182185D01*
X209298Y182088D01*
X209479Y181991D01*
X209659Y181880D01*
X209825Y181741D01*
X209992Y181589D01*
X210006Y181575D01*
X210033Y181547D01*
X210075Y181506D01*
X210131Y181436D01*
X210200Y181339D01*
X210269Y181242D01*
X210352Y181117D01*
X210436Y180979D01*
X210505Y180826D01*
X210588Y180660D01*
X210658Y180465D01*
X210727Y180271D01*
X210782Y180063D01*
X210824Y179827D01*
X210852Y179592D01*
X210866Y179342D01*
Y179328D01*
Y179286D01*
Y179217D01*
X210852Y179120D01*
X210838Y179009D01*
X210824Y178884D01*
X210796Y178732D01*
X210769Y178579D01*
X210685Y178219D01*
X210547Y177844D01*
X210463Y177650D01*
X210352Y177470D01*
X210242Y177276D01*
X210103Y177095D01*
X210089Y177081D01*
X210061Y177040D01*
X210006Y176984D01*
X209936Y176915D01*
X209839Y176832D01*
X209728Y176721D01*
X209590Y176624D01*
X209437Y176513D01*
X209271Y176402D01*
X209077Y176305D01*
X208869Y176208D01*
X208647Y176111D01*
X208411Y176041D01*
X208147Y175986D01*
X207870Y175944D01*
X207579Y175930D01*
X207454D01*
X207357Y175944D01*
X207246Y175958D01*
X207121Y175972D01*
X206969Y175986D01*
X206816Y176027D01*
X206469Y176111D01*
X206123Y176236D01*
X205942Y176319D01*
X205762Y176416D01*
X205596Y176527D01*
X205429Y176651D01*
X205415Y176665D01*
X205388Y176679D01*
X205360Y176735D01*
X205304Y176790D01*
X205235Y176859D01*
X205166Y176943D01*
X205082Y177054D01*
X205013Y177178D01*
X204930Y177303D01*
X204847Y177456D01*
X204694Y177789D01*
X204569Y178177D01*
X204528Y178385D01*
X204500Y178607D01*
X205734Y178704D01*
Y178690D01*
Y178662D01*
X205748Y178621D01*
X205762Y178552D01*
X205804Y178399D01*
X205859Y178191D01*
X205942Y177983D01*
X206053Y177747D01*
X206192Y177539D01*
X206358Y177345D01*
X206386Y177331D01*
X206442Y177276D01*
X206553Y177206D01*
X206705Y177123D01*
X206871Y177040D01*
X207080Y176971D01*
X207315Y176915D01*
X207579Y176901D01*
X207662D01*
X207717Y176915D01*
X207884Y176929D01*
X208078Y176984D01*
X208314Y177054D01*
X208550Y177165D01*
X208799Y177331D01*
X208910Y177428D01*
X209021Y177539D01*
X209035Y177553D01*
X209049Y177567D01*
X209077Y177608D01*
X209118Y177650D01*
X209215Y177803D01*
X209326Y177997D01*
X209423Y178232D01*
X209520Y178524D01*
X209590Y178871D01*
X209617Y179051D01*
Y179245D01*
Y179259D01*
Y179286D01*
Y179342D01*
X209604Y179411D01*
Y179494D01*
X209590Y179592D01*
X209548Y179813D01*
X209479Y180077D01*
X209382Y180340D01*
X209243Y180590D01*
X209049Y180826D01*
Y180840D01*
X209021Y180854D01*
X208952Y180923D01*
X208827Y181020D01*
X208661Y181131D01*
X208439Y181228D01*
X208189Y181325D01*
X207898Y181395D01*
X207731Y181422D01*
X207468D01*
X207357Y181408D01*
X207218Y181395D01*
X207052Y181353D01*
X206885Y181311D01*
X206705Y181242D01*
X206525Y181159D01*
X206511Y181145D01*
X206455Y181117D01*
X206372Y181048D01*
X206261Y180979D01*
X206150Y180881D01*
X206039Y180757D01*
X205915Y180632D01*
X205818Y180479D01*
X204708Y180632D01*
X205637Y185569D01*
X210408D01*
Y184446D01*
D02*
G37*
G36*
X279210Y155849D02*
X282914Y154923D01*
X286617Y152609D01*
X287080D01*
X287543Y152146D01*
X289395Y149831D01*
X291247Y146590D01*
X292173Y142424D01*
Y140572D01*
Y140109D01*
Y139646D01*
X291710Y139184D01*
X290784Y138721D01*
X286154D01*
X285691Y139184D01*
X285228Y139646D01*
X284765Y140572D01*
Y141498D01*
Y141961D01*
X284303Y143813D01*
X283377Y145665D01*
X281525Y147516D01*
X281062Y147979D01*
X280136Y148905D01*
X278284Y149368D01*
X275970Y149831D01*
X275044D01*
X273192Y149368D01*
X270877Y148905D01*
X268563Y147516D01*
X268100Y147053D01*
X267174Y146128D01*
X266248Y144276D01*
X265785Y141961D01*
Y141498D01*
Y140109D01*
Y137795D01*
X265322Y135017D01*
Y131776D01*
Y127610D01*
X265785Y119277D01*
Y118814D01*
X266248Y116962D01*
X267174Y115111D01*
X268563Y113259D01*
X269025Y112796D01*
X270414Y112333D01*
X272266Y111407D01*
X275044Y110944D01*
X275507D01*
X277358Y111407D01*
X279210Y111870D01*
X281525Y113259D01*
X281988Y113722D01*
X282914Y115111D01*
X284303Y116962D01*
X284765Y119277D01*
Y120666D01*
Y121129D01*
Y121592D01*
X285228Y122055D01*
X286154Y122518D01*
X291710D01*
X292173Y121592D01*
Y120666D01*
Y118814D01*
Y118351D01*
Y117888D01*
X291247Y115111D01*
X289858Y111870D01*
X287080Y108167D01*
X286154Y107704D01*
X283840Y106315D01*
X280136Y104463D01*
X275507Y104000D01*
X274581D01*
X271340Y104463D01*
X267637Y105852D01*
X263470Y108167D01*
X262544Y109092D01*
X261155Y111407D01*
X259304Y114648D01*
X258378Y118814D01*
Y119277D01*
Y120666D01*
Y122981D01*
Y126221D01*
Y129462D01*
Y133165D01*
Y141498D01*
Y141961D01*
Y142424D01*
X259304Y145202D01*
X260693Y148442D01*
X263470Y151683D01*
X263933D01*
X264396Y152609D01*
X266711Y153998D01*
X270414Y155386D01*
X275044Y156312D01*
X276432D01*
X279210Y155849D01*
D02*
G37*
G36*
X92645Y155386D02*
Y154460D01*
Y105852D01*
Y105389D01*
X92182Y104926D01*
X91256Y104463D01*
X84312D01*
X83386Y105389D01*
X69035Y141961D01*
X68109D01*
Y105389D01*
Y104926D01*
X67183Y104463D01*
X66258Y104000D01*
X62554D01*
X62091Y104463D01*
X61628Y105389D01*
Y153998D01*
Y154460D01*
Y154923D01*
X62091Y155386D01*
X69961D01*
X70424Y154923D01*
Y154460D01*
X85238Y117888D01*
X85701Y117425D01*
X86164D01*
X86627Y117888D01*
Y154460D01*
Y154923D01*
Y155386D01*
X87090Y155849D01*
X92182D01*
X92645Y155386D01*
D02*
G37*
G36*
X331059Y155849D02*
X334763Y154923D01*
X338004Y152609D01*
X338929Y152146D01*
X340318Y149831D01*
X342633Y146590D01*
X344022Y142424D01*
Y141498D01*
X343559Y139184D01*
X343096Y136406D01*
X341707Y133165D01*
X341244Y132702D01*
X339855Y131313D01*
X338004Y129462D01*
X335226Y127610D01*
X334763D01*
X333837Y126684D01*
X333374Y126221D01*
X333837Y125295D01*
X342633Y106778D01*
Y106315D01*
Y105852D01*
X341707Y104926D01*
X336152D01*
X335689Y105389D01*
X335226Y106315D01*
X326430Y124832D01*
Y125295D01*
X325504D01*
X324578Y125758D01*
X320875Y125295D01*
X320412D01*
X319949Y124832D01*
Y106315D01*
Y105852D01*
X319486Y105389D01*
X318560Y104926D01*
X313468D01*
X313005Y105389D01*
X312542Y106315D01*
Y154923D01*
Y155386D01*
Y155849D01*
X313005Y156312D01*
X328282D01*
X331059Y155849D01*
D02*
G37*
G36*
X227361D02*
X231064Y154923D01*
X234768Y152609D01*
X235694Y152146D01*
X237083Y149831D01*
X238934Y146590D01*
X239860Y142424D01*
Y141498D01*
Y139184D01*
X238934Y136406D01*
X237546Y133165D01*
X237083Y132702D01*
X235694Y131313D01*
X233842Y129462D01*
X231064Y127610D01*
X230601D01*
X230138Y126684D01*
X229676Y126221D01*
X230138Y125295D01*
X238934Y106778D01*
X239397Y106315D01*
X238934Y105852D01*
X238471Y104926D01*
X232453D01*
X231990Y105389D01*
X231527Y106315D01*
X223194Y124832D01*
X222731Y125295D01*
X221806Y125758D01*
X216713Y125295D01*
X216250D01*
X215787Y124832D01*
Y106315D01*
Y105852D01*
X215324Y105389D01*
X214398Y104926D01*
X209769D01*
X209306Y105389D01*
X208843Y106315D01*
Y154923D01*
Y155386D01*
X209306Y155849D01*
X209769Y156312D01*
X224583D01*
X227361Y155849D01*
D02*
G37*
G36*
X530587Y155386D02*
Y154460D01*
Y150757D01*
Y150294D01*
Y149831D01*
X530124Y149368D01*
X529198Y148905D01*
X512069D01*
X511606Y148442D01*
Y135017D01*
X512069D01*
Y134554D01*
X529661D01*
X530124Y134091D01*
Y133165D01*
Y128999D01*
Y128536D01*
X529661Y128073D01*
X528735Y127610D01*
X512069D01*
X511606Y127147D01*
X511143Y111870D01*
Y111407D01*
X511606Y110944D01*
X512069Y111407D01*
X531050D01*
X531513Y110944D01*
X531976Y110018D01*
Y105852D01*
X531513Y105389D01*
X531050Y104926D01*
X529661Y104463D01*
X505125D01*
X504199Y104926D01*
X503736Y105852D01*
Y154460D01*
Y154923D01*
X504199Y155386D01*
X504662Y155849D01*
X530124D01*
X530587Y155386D01*
D02*
G37*
G36*
X486144D02*
Y154460D01*
Y150757D01*
Y150294D01*
Y149831D01*
X485682Y149368D01*
X484756Y148905D01*
X473645D01*
Y148442D01*
Y147516D01*
Y146590D01*
Y144739D01*
Y141961D01*
Y138258D01*
Y133165D01*
Y127147D01*
Y105852D01*
Y105389D01*
X473182Y104926D01*
X472256Y104463D01*
X467627D01*
X467164Y104926D01*
X466701Y105852D01*
Y148442D01*
Y148905D01*
X456516D01*
X456053Y149368D01*
X455591Y149831D01*
X455127Y150757D01*
Y154460D01*
Y154923D01*
Y155386D01*
X455591Y155849D01*
X485682D01*
X486144Y155386D01*
D02*
G37*
G36*
X429203Y154923D02*
X443091Y105852D01*
Y105389D01*
X442165Y104926D01*
X441239Y104463D01*
X437073D01*
X435684Y105389D01*
X431981Y116499D01*
X431518Y116962D01*
X430592Y117425D01*
X418092D01*
X417166Y116499D01*
X413926Y105389D01*
Y104926D01*
X413463Y104463D01*
X408371D01*
X407908Y104926D01*
X407445Y105389D01*
X406982Y105852D01*
X420870Y154923D01*
Y155386D01*
X421333Y155849D01*
X428277D01*
X429203Y154923D01*
D02*
G37*
G36*
X389390Y155386D02*
X389853Y154460D01*
Y150757D01*
Y150294D01*
Y149831D01*
X388927Y149368D01*
X388001Y148905D01*
X370872D01*
X369484Y148442D01*
Y135017D01*
Y134554D01*
X387538D01*
X388001Y134091D01*
Y133165D01*
Y128999D01*
Y128536D01*
X387538Y128073D01*
X386612Y127610D01*
X369484D01*
Y127147D01*
Y111870D01*
X370872D01*
Y111407D01*
Y110944D01*
X371335Y111407D01*
X389853D01*
X390316Y110944D01*
Y110018D01*
Y105852D01*
Y105389D01*
X389853Y104926D01*
X388927Y104463D01*
X363928D01*
X363465Y104926D01*
X363002Y105852D01*
Y154460D01*
Y154923D01*
Y155386D01*
X363465Y155849D01*
X388927D01*
X389390Y155386D01*
D02*
G37*
G36*
X188011D02*
Y154460D01*
Y150757D01*
Y150294D01*
Y149831D01*
X187548Y149368D01*
X186622Y148905D01*
X169030D01*
X168104Y148442D01*
Y135017D01*
Y134554D01*
X186159D01*
X186622Y134091D01*
Y133165D01*
Y128999D01*
Y128536D01*
X186159Y128073D01*
X185233Y127610D01*
X168567D01*
X167642Y127147D01*
Y111870D01*
X168567D01*
Y111407D01*
Y110944D01*
X169030Y111407D01*
X187548D01*
X188011Y110944D01*
Y110018D01*
Y105852D01*
Y105389D01*
X187548Y104926D01*
X186622Y104463D01*
X162086D01*
X161623Y104926D01*
X161160Y105852D01*
Y154460D01*
Y154923D01*
Y155386D01*
X161623Y155849D01*
X187548D01*
X188011Y155386D01*
D02*
G37*
G36*
X142643D02*
Y154460D01*
Y150757D01*
Y150294D01*
Y149831D01*
X142180Y149368D01*
X141254Y148905D01*
X130606D01*
Y148442D01*
Y147516D01*
Y146590D01*
Y144739D01*
Y141961D01*
Y138258D01*
Y133165D01*
Y127147D01*
Y105852D01*
Y105389D01*
X129680Y104926D01*
X128755Y104463D01*
X124125D01*
X123662Y104926D01*
X123199Y105852D01*
Y148442D01*
Y148905D01*
X113015D01*
X112552Y149368D01*
X111626Y149831D01*
X111163Y150757D01*
Y154460D01*
Y154923D01*
X111626Y155386D01*
X112089Y155849D01*
X142180D01*
X142643Y155386D01*
D02*
G37*
G36*
X38481D02*
Y154460D01*
Y105852D01*
Y105389D01*
X38018Y104926D01*
X37092Y104463D01*
X32463D01*
X32000Y104926D01*
Y105852D01*
Y154460D01*
Y154923D01*
Y155386D01*
X32463Y155849D01*
X38018D01*
X38481Y155386D01*
D02*
G37*
G36*
X314578Y58625D02*
X314689Y58611D01*
X314828Y58597D01*
X314980Y58569D01*
X315133Y58541D01*
X315493Y58444D01*
X315854Y58306D01*
X316034Y58222D01*
X316215Y58125D01*
X316381Y58001D01*
X316534Y57862D01*
X316547Y57848D01*
X316575Y57834D01*
X316603Y57779D01*
X316658Y57723D01*
X316728Y57654D01*
X316797Y57557D01*
X316866Y57460D01*
X316950Y57335D01*
X317088Y57071D01*
X317227Y56739D01*
X317282Y56572D01*
X317310Y56378D01*
X317338Y56184D01*
X317352Y55976D01*
Y55948D01*
Y55879D01*
X317338Y55768D01*
X317324Y55615D01*
X317296Y55449D01*
X317241Y55255D01*
X317185Y55047D01*
X317102Y54839D01*
X317088Y54811D01*
X317061Y54742D01*
X317005Y54631D01*
X316922Y54478D01*
X316811Y54312D01*
X316672Y54104D01*
X316506Y53896D01*
X316312Y53660D01*
X316284Y53632D01*
X316215Y53549D01*
X316145Y53479D01*
X316076Y53410D01*
X315993Y53327D01*
X315882Y53216D01*
X315771Y53105D01*
X315632Y52980D01*
X315493Y52842D01*
X315327Y52689D01*
X315147Y52536D01*
X314953Y52356D01*
X314731Y52176D01*
X314509Y51982D01*
X314495Y51968D01*
X314467Y51940D01*
X314412Y51898D01*
X314342Y51843D01*
X314259Y51760D01*
X314162Y51677D01*
X313940Y51496D01*
X313704Y51288D01*
X313482Y51080D01*
X313288Y50900D01*
X313205Y50831D01*
X313136Y50761D01*
X313122Y50747D01*
X313080Y50706D01*
X313025Y50650D01*
X312955Y50567D01*
X312886Y50470D01*
X312803Y50373D01*
X312637Y50137D01*
X317366D01*
Y49000D01*
X311000D01*
Y49014D01*
Y49069D01*
Y49153D01*
X311014Y49264D01*
X311028Y49388D01*
X311056Y49527D01*
X311083Y49666D01*
X311139Y49818D01*
Y49832D01*
X311152Y49846D01*
X311180Y49929D01*
X311236Y50054D01*
X311319Y50220D01*
X311430Y50415D01*
X311569Y50637D01*
X311721Y50858D01*
X311915Y51094D01*
Y51108D01*
X311943Y51122D01*
X312012Y51205D01*
X312137Y51330D01*
X312318Y51510D01*
X312526Y51718D01*
X312789Y51968D01*
X313108Y52245D01*
X313455Y52536D01*
X313469Y52550D01*
X313524Y52592D01*
X313607Y52661D01*
X313704Y52744D01*
X313829Y52855D01*
X313982Y52980D01*
X314134Y53119D01*
X314314Y53271D01*
X314661Y53604D01*
X315008Y53937D01*
X315174Y54104D01*
X315327Y54270D01*
X315466Y54422D01*
X315577Y54575D01*
Y54589D01*
X315604Y54603D01*
X315632Y54644D01*
X315660Y54700D01*
X315757Y54852D01*
X315868Y55033D01*
X315965Y55255D01*
X316062Y55490D01*
X316117Y55754D01*
X316145Y56003D01*
Y56017D01*
Y56031D01*
X316131Y56115D01*
X316117Y56253D01*
X316076Y56406D01*
X316020Y56600D01*
X315923Y56794D01*
X315798Y56988D01*
X315632Y57182D01*
X315604Y57210D01*
X315535Y57266D01*
X315438Y57335D01*
X315285Y57432D01*
X315091Y57515D01*
X314869Y57598D01*
X314606Y57654D01*
X314314Y57668D01*
X314231D01*
X314176Y57654D01*
X314009Y57640D01*
X313815Y57598D01*
X313607Y57543D01*
X313372Y57446D01*
X313150Y57321D01*
X312942Y57155D01*
X312914Y57127D01*
X312858Y57057D01*
X312775Y56947D01*
X312692Y56780D01*
X312595Y56586D01*
X312512Y56336D01*
X312456Y56059D01*
X312428Y55740D01*
X311222Y55865D01*
Y55879D01*
X311236Y55920D01*
Y55990D01*
X311250Y56087D01*
X311277Y56198D01*
X311305Y56322D01*
X311347Y56475D01*
X311388Y56628D01*
X311499Y56961D01*
X311666Y57293D01*
X311763Y57460D01*
X311888Y57626D01*
X312012Y57779D01*
X312151Y57917D01*
X312165Y57931D01*
X312193Y57945D01*
X312234Y57987D01*
X312304Y58028D01*
X312387Y58084D01*
X312484Y58139D01*
X312595Y58209D01*
X312733Y58278D01*
X312886Y58347D01*
X313053Y58417D01*
X313233Y58472D01*
X313427Y58528D01*
X313635Y58569D01*
X313857Y58611D01*
X314093Y58625D01*
X314342Y58639D01*
X314481D01*
X314578Y58625D01*
D02*
G37*
G36*
X322039D02*
X322220Y58597D01*
X322427Y58555D01*
X322649Y58500D01*
X322885Y58431D01*
X323107Y58320D01*
X323121D01*
X323135Y58306D01*
X323204Y58264D01*
X323315Y58195D01*
X323454Y58098D01*
X323606Y57959D01*
X323773Y57806D01*
X323925Y57626D01*
X324078Y57418D01*
X324092Y57390D01*
X324147Y57321D01*
X324203Y57196D01*
X324300Y57016D01*
X324383Y56808D01*
X324494Y56572D01*
X324591Y56295D01*
X324674Y55990D01*
Y55976D01*
X324688Y55948D01*
X324702Y55907D01*
X324716Y55837D01*
X324730Y55754D01*
X324744Y55657D01*
X324771Y55532D01*
X324785Y55393D01*
X324813Y55241D01*
X324827Y55074D01*
X324841Y54880D01*
X324868Y54686D01*
X324882Y54464D01*
Y54242D01*
X324896Y53993D01*
Y53729D01*
Y53715D01*
Y53660D01*
Y53563D01*
Y53452D01*
X324882Y53299D01*
Y53133D01*
X324868Y52952D01*
X324855Y52758D01*
X324813Y52315D01*
X324744Y51857D01*
X324660Y51413D01*
X324605Y51205D01*
X324535Y50997D01*
Y50983D01*
X324522Y50955D01*
X324494Y50900D01*
X324466Y50831D01*
X324439Y50734D01*
X324383Y50637D01*
X324272Y50401D01*
X324133Y50151D01*
X323953Y49874D01*
X323745Y49624D01*
X323495Y49388D01*
X323481D01*
X323468Y49361D01*
X323426Y49333D01*
X323371Y49305D01*
X323301Y49264D01*
X323232Y49208D01*
X323024Y49111D01*
X322774Y49014D01*
X322483Y48917D01*
X322136Y48861D01*
X321762Y48834D01*
X321623D01*
X321526Y48847D01*
X321415Y48861D01*
X321277Y48889D01*
X321124Y48917D01*
X320957Y48958D01*
X320791Y49014D01*
X320611Y49069D01*
X320430Y49153D01*
X320250Y49250D01*
X320070Y49361D01*
X319890Y49499D01*
X319723Y49652D01*
X319571Y49818D01*
X319557Y49832D01*
X319529Y49874D01*
X319487Y49943D01*
X319418Y50054D01*
X319349Y50179D01*
X319279Y50345D01*
X319182Y50539D01*
X319099Y50761D01*
X319016Y51011D01*
X318933Y51302D01*
X318850Y51621D01*
X318780Y51982D01*
X318711Y52370D01*
X318669Y52786D01*
X318641Y53244D01*
X318628Y53729D01*
Y53743D01*
Y53798D01*
Y53896D01*
Y54007D01*
X318641Y54159D01*
Y54325D01*
X318655Y54506D01*
X318669Y54714D01*
X318711Y55144D01*
X318780Y55601D01*
X318863Y56059D01*
X318919Y56267D01*
X318974Y56475D01*
Y56489D01*
X318988Y56517D01*
X319016Y56572D01*
X319044Y56642D01*
X319071Y56739D01*
X319127Y56836D01*
X319238Y57071D01*
X319377Y57321D01*
X319557Y57585D01*
X319765Y57848D01*
X320014Y58070D01*
X320028D01*
X320042Y58098D01*
X320084Y58125D01*
X320139Y58153D01*
X320209Y58209D01*
X320292Y58250D01*
X320500Y58361D01*
X320750Y58458D01*
X321041Y58555D01*
X321387Y58611D01*
X321762Y58639D01*
X321887D01*
X322039Y58625D01*
D02*
G37*
G36*
X183321Y238674D02*
X184625D01*
Y237592D01*
X183321D01*
Y235290D01*
X182142D01*
Y237592D01*
X177968D01*
Y238674D01*
X182364Y244887D01*
X183321D01*
Y238674D01*
D02*
G37*
G36*
X182787Y185721D02*
X182967Y185694D01*
X183189Y185652D01*
X183439Y185583D01*
X183688Y185500D01*
X183938Y185389D01*
X183952D01*
X183966Y185375D01*
X184049Y185333D01*
X184174Y185250D01*
X184312Y185153D01*
X184479Y185014D01*
X184645Y184862D01*
X184812Y184681D01*
X184950Y184473D01*
X184964Y184446D01*
X185006Y184376D01*
X185061Y184251D01*
X185131Y184099D01*
X185200Y183919D01*
X185255Y183710D01*
X185297Y183475D01*
X185311Y183239D01*
Y183211D01*
Y183128D01*
X185297Y183017D01*
X185269Y182865D01*
X185228Y182684D01*
X185158Y182490D01*
X185075Y182296D01*
X184964Y182102D01*
X184950Y182074D01*
X184909Y182019D01*
X184825Y181922D01*
X184715Y181811D01*
X184576Y181686D01*
X184409Y181547D01*
X184215Y181422D01*
X183979Y181297D01*
X183993D01*
X184021Y181284D01*
X184063Y181270D01*
X184118Y181256D01*
X184271Y181200D01*
X184465Y181117D01*
X184687Y181006D01*
X184909Y180868D01*
X185117Y180687D01*
X185311Y180479D01*
X185325Y180452D01*
X185380Y180368D01*
X185463Y180230D01*
X185547Y180049D01*
X185630Y179827D01*
X185713Y179564D01*
X185769Y179259D01*
X185782Y178926D01*
Y178912D01*
Y178871D01*
Y178801D01*
X185769Y178718D01*
X185755Y178607D01*
X185727Y178482D01*
X185699Y178344D01*
X185671Y178191D01*
X185560Y177858D01*
X185477Y177678D01*
X185394Y177511D01*
X185283Y177331D01*
X185158Y177151D01*
X185020Y176971D01*
X184853Y176804D01*
X184839Y176790D01*
X184812Y176763D01*
X184756Y176721D01*
X184687Y176665D01*
X184604Y176596D01*
X184493Y176527D01*
X184368Y176444D01*
X184215Y176374D01*
X184063Y176291D01*
X183882Y176208D01*
X183702Y176138D01*
X183494Y176069D01*
X183272Y176014D01*
X183036Y175972D01*
X182801Y175944D01*
X182537Y175930D01*
X182412D01*
X182329Y175944D01*
X182218Y175958D01*
X182093Y175972D01*
X181955Y176000D01*
X181802Y176027D01*
X181469Y176111D01*
X181123Y176249D01*
X180942Y176332D01*
X180776Y176430D01*
X180609Y176554D01*
X180443Y176679D01*
X180429Y176693D01*
X180401Y176721D01*
X180360Y176763D01*
X180318Y176818D01*
X180249Y176887D01*
X180180Y176984D01*
X180096Y177081D01*
X180013Y177206D01*
X179930Y177345D01*
X179847Y177484D01*
X179694Y177817D01*
X179569Y178205D01*
X179528Y178413D01*
X179500Y178635D01*
X180679Y178787D01*
Y178773D01*
X180693Y178746D01*
X180707Y178690D01*
X180720Y178621D01*
X180734Y178538D01*
X180762Y178440D01*
X180831Y178232D01*
X180928Y177983D01*
X181053Y177747D01*
X181192Y177525D01*
X181358Y177331D01*
X181386Y177317D01*
X181442Y177262D01*
X181553Y177192D01*
X181691Y177123D01*
X181858Y177040D01*
X182066Y176971D01*
X182301Y176915D01*
X182551Y176901D01*
X182634D01*
X182690Y176915D01*
X182842Y176929D01*
X183036Y176971D01*
X183258Y177040D01*
X183494Y177137D01*
X183730Y177276D01*
X183952Y177470D01*
X183979Y177498D01*
X184049Y177581D01*
X184132Y177705D01*
X184243Y177872D01*
X184354Y178080D01*
X184437Y178316D01*
X184506Y178593D01*
X184534Y178898D01*
Y178912D01*
Y178940D01*
Y178981D01*
X184520Y179037D01*
X184506Y179189D01*
X184465Y179370D01*
X184409Y179592D01*
X184312Y179813D01*
X184174Y180035D01*
X183993Y180243D01*
X183966Y180271D01*
X183896Y180327D01*
X183785Y180410D01*
X183633Y180507D01*
X183439Y180604D01*
X183203Y180687D01*
X182939Y180743D01*
X182648Y180770D01*
X182523D01*
X182426Y180757D01*
X182301Y180743D01*
X182163Y180715D01*
X181996Y180687D01*
X181816Y180646D01*
X181955Y181686D01*
X182024D01*
X182080Y181672D01*
X182260D01*
X182412Y181700D01*
X182593Y181727D01*
X182801Y181769D01*
X183036Y181838D01*
X183258Y181935D01*
X183494Y182060D01*
X183508D01*
X183522Y182074D01*
X183591Y182129D01*
X183688Y182227D01*
X183799Y182351D01*
X183910Y182532D01*
X184007Y182740D01*
X184077Y182976D01*
X184104Y183114D01*
Y183267D01*
Y183281D01*
Y183295D01*
Y183378D01*
X184077Y183489D01*
X184049Y183641D01*
X183993Y183808D01*
X183924Y183988D01*
X183813Y184168D01*
X183661Y184335D01*
X183647Y184349D01*
X183577Y184404D01*
X183480Y184473D01*
X183355Y184557D01*
X183189Y184626D01*
X182995Y184695D01*
X182773Y184751D01*
X182523Y184764D01*
X182412D01*
X182288Y184737D01*
X182121Y184709D01*
X181941Y184654D01*
X181761Y184584D01*
X181566Y184473D01*
X181386Y184335D01*
X181372Y184321D01*
X181317Y184251D01*
X181234Y184154D01*
X181136Y184016D01*
X181039Y183835D01*
X180942Y183613D01*
X180859Y183350D01*
X180804Y183045D01*
X179625Y183253D01*
Y183267D01*
X179639Y183308D01*
X179653Y183364D01*
X179666Y183447D01*
X179694Y183544D01*
X179736Y183655D01*
X179819Y183919D01*
X179958Y184224D01*
X180124Y184529D01*
X180332Y184820D01*
X180596Y185084D01*
X180609Y185097D01*
X180637Y185111D01*
X180679Y185139D01*
X180734Y185181D01*
X180804Y185236D01*
X180901Y185292D01*
X180998Y185347D01*
X181123Y185416D01*
X181400Y185527D01*
X181719Y185638D01*
X182093Y185708D01*
X182288Y185735D01*
X182634D01*
X182787Y185721D01*
D02*
G37*
G36*
X156762Y244915D02*
X156873Y244901D01*
X157011Y244887D01*
X157164Y244859D01*
X157316Y244832D01*
X157677Y244734D01*
X158038Y244596D01*
X158218Y244513D01*
X158398Y244415D01*
X158565Y244291D01*
X158717Y244152D01*
X158731Y244138D01*
X158759Y244124D01*
X158786Y244069D01*
X158842Y244013D01*
X158911Y243944D01*
X158981Y243847D01*
X159050Y243750D01*
X159133Y243625D01*
X159272Y243361D01*
X159411Y243029D01*
X159466Y242862D01*
X159494Y242668D01*
X159522Y242474D01*
X159535Y242266D01*
Y242238D01*
Y242169D01*
X159522Y242058D01*
X159508Y241905D01*
X159480Y241739D01*
X159424Y241545D01*
X159369Y241337D01*
X159286Y241129D01*
X159272Y241101D01*
X159244Y241031D01*
X159189Y240921D01*
X159105Y240768D01*
X158995Y240602D01*
X158856Y240394D01*
X158689Y240186D01*
X158495Y239950D01*
X158468Y239922D01*
X158398Y239839D01*
X158329Y239769D01*
X158259Y239700D01*
X158176Y239617D01*
X158065Y239506D01*
X157954Y239395D01*
X157816Y239270D01*
X157677Y239132D01*
X157511Y238979D01*
X157330Y238826D01*
X157136Y238646D01*
X156914Y238466D01*
X156692Y238272D01*
X156678Y238258D01*
X156651Y238230D01*
X156595Y238188D01*
X156526Y238133D01*
X156443Y238050D01*
X156346Y237967D01*
X156124Y237786D01*
X155888Y237578D01*
X155666Y237370D01*
X155472Y237190D01*
X155389Y237121D01*
X155319Y237051D01*
X155306Y237037D01*
X155264Y236996D01*
X155208Y236940D01*
X155139Y236857D01*
X155070Y236760D01*
X154986Y236663D01*
X154820Y236427D01*
X159549D01*
Y235290D01*
X153184D01*
Y235304D01*
Y235359D01*
Y235443D01*
X153197Y235553D01*
X153211Y235678D01*
X153239Y235817D01*
X153267Y235956D01*
X153322Y236108D01*
Y236122D01*
X153336Y236136D01*
X153364Y236219D01*
X153419Y236344D01*
X153503Y236510D01*
X153614Y236705D01*
X153752Y236926D01*
X153905Y237148D01*
X154099Y237384D01*
Y237398D01*
X154127Y237412D01*
X154196Y237495D01*
X154321Y237620D01*
X154501Y237800D01*
X154709Y238008D01*
X154973Y238258D01*
X155292Y238535D01*
X155638Y238826D01*
X155652Y238840D01*
X155708Y238882D01*
X155791Y238951D01*
X155888Y239035D01*
X156013Y239145D01*
X156165Y239270D01*
X156318Y239409D01*
X156498Y239562D01*
X156845Y239894D01*
X157192Y240227D01*
X157358Y240394D01*
X157511Y240560D01*
X157649Y240713D01*
X157760Y240865D01*
Y240879D01*
X157788Y240893D01*
X157816Y240934D01*
X157843Y240990D01*
X157941Y241143D01*
X158051Y241323D01*
X158148Y241545D01*
X158246Y241780D01*
X158301Y242044D01*
X158329Y242293D01*
Y242307D01*
Y242321D01*
X158315Y242404D01*
X158301Y242543D01*
X158259Y242696D01*
X158204Y242890D01*
X158107Y243084D01*
X157982Y243278D01*
X157816Y243472D01*
X157788Y243500D01*
X157719Y243556D01*
X157621Y243625D01*
X157469Y243722D01*
X157275Y243805D01*
X157053Y243888D01*
X156789Y243944D01*
X156498Y243958D01*
X156415D01*
X156360Y243944D01*
X156193Y243930D01*
X155999Y243888D01*
X155791Y243833D01*
X155555Y243736D01*
X155333Y243611D01*
X155125Y243445D01*
X155098Y243417D01*
X155042Y243347D01*
X154959Y243237D01*
X154876Y243070D01*
X154778Y242876D01*
X154695Y242626D01*
X154640Y242349D01*
X154612Y242030D01*
X153406Y242155D01*
Y242169D01*
X153419Y242210D01*
Y242280D01*
X153433Y242377D01*
X153461Y242488D01*
X153489Y242612D01*
X153530Y242765D01*
X153572Y242918D01*
X153683Y243251D01*
X153849Y243583D01*
X153946Y243750D01*
X154071Y243916D01*
X154196Y244069D01*
X154335Y244207D01*
X154349Y244221D01*
X154376Y244235D01*
X154418Y244277D01*
X154487Y244318D01*
X154571Y244374D01*
X154668Y244429D01*
X154778Y244499D01*
X154917Y244568D01*
X155070Y244637D01*
X155236Y244707D01*
X155416Y244762D01*
X155611Y244818D01*
X155819Y244859D01*
X156040Y244901D01*
X156276Y244915D01*
X156526Y244928D01*
X156665D01*
X156762Y244915D01*
D02*
G37*
G36*
X416013Y43703D02*
X416143D01*
X416273Y43684D01*
X416587Y43629D01*
X416921Y43536D01*
X417272Y43388D01*
X417624Y43203D01*
X417921Y42944D01*
X417958Y42906D01*
X418032Y42795D01*
X418161Y42629D01*
X418217Y42499D01*
X418291Y42369D01*
X418365Y42203D01*
X418421Y42036D01*
X418495Y41851D01*
X418550Y41629D01*
X418587Y41407D01*
X418624Y41147D01*
X418661Y40888D01*
Y40592D01*
Y34222D01*
X417087D01*
Y40055D01*
Y40073D01*
Y40092D01*
Y40203D01*
Y40370D01*
X417069Y40573D01*
X417050Y40796D01*
X417032Y41018D01*
X416995Y41240D01*
X416939Y41407D01*
Y41425D01*
X416902Y41481D01*
X416865Y41555D01*
X416810Y41647D01*
X416736Y41758D01*
X416643Y41870D01*
X416532Y41981D01*
X416384Y42092D01*
X416365Y42110D01*
X416310Y42129D01*
X416236Y42166D01*
X416106Y42221D01*
X415976Y42277D01*
X415810Y42314D01*
X415643Y42333D01*
X415439Y42351D01*
X415347D01*
X415273Y42333D01*
X415088Y42314D01*
X414865Y42277D01*
X414606Y42184D01*
X414328Y42073D01*
X414051Y41907D01*
X413791Y41684D01*
X413773Y41647D01*
X413699Y41555D01*
X413588Y41407D01*
X413477Y41184D01*
X413347Y40888D01*
X413254Y40536D01*
X413180Y40111D01*
X413143Y39611D01*
Y34222D01*
X411569D01*
Y40240D01*
Y40259D01*
Y40296D01*
Y40333D01*
Y40407D01*
X411551Y40610D01*
X411514Y40833D01*
X411477Y41092D01*
X411403Y41351D01*
X411310Y41592D01*
X411181Y41814D01*
X411162Y41832D01*
X411106Y41907D01*
X411014Y41981D01*
X410884Y42092D01*
X410718Y42184D01*
X410495Y42277D01*
X410236Y42333D01*
X409921Y42351D01*
X409810D01*
X409681Y42333D01*
X409533Y42314D01*
X409347Y42258D01*
X409125Y42203D01*
X408922Y42110D01*
X408699Y41999D01*
X408681Y41981D01*
X408607Y41925D01*
X408514Y41851D01*
X408385Y41740D01*
X408255Y41592D01*
X408125Y41407D01*
X407996Y41203D01*
X407885Y40962D01*
X407866Y40925D01*
X407848Y40833D01*
X407811Y40684D01*
X407755Y40481D01*
X407700Y40203D01*
X407662Y39870D01*
X407644Y39481D01*
X407625Y39037D01*
Y34222D01*
X406051D01*
Y43517D01*
X407459D01*
Y42184D01*
X407477Y42221D01*
X407533Y42295D01*
X407644Y42425D01*
X407774Y42573D01*
X407940Y42758D01*
X408144Y42944D01*
X408366Y43129D01*
X408625Y43295D01*
X408662Y43314D01*
X408755Y43369D01*
X408903Y43425D01*
X409107Y43517D01*
X409347Y43592D01*
X409625Y43647D01*
X409940Y43703D01*
X410273Y43721D01*
X410440D01*
X410644Y43703D01*
X410866Y43666D01*
X411144Y43610D01*
X411421Y43536D01*
X411699Y43425D01*
X411958Y43277D01*
X411995Y43258D01*
X412069Y43203D01*
X412180Y43110D01*
X412329Y42962D01*
X412477Y42795D01*
X412643Y42592D01*
X412791Y42351D01*
X412903Y42073D01*
X412921Y42092D01*
X412958Y42147D01*
X413014Y42221D01*
X413106Y42333D01*
X413217Y42462D01*
X413347Y42592D01*
X413495Y42740D01*
X413680Y42906D01*
X413884Y43055D01*
X414088Y43203D01*
X414328Y43332D01*
X414588Y43462D01*
X414865Y43573D01*
X415162Y43647D01*
X415458Y43703D01*
X415791Y43721D01*
X415921D01*
X416013Y43703D01*
D02*
G37*
G36*
X401089D02*
X401219D01*
X401348Y43684D01*
X401663Y43629D01*
X401996Y43536D01*
X402348Y43388D01*
X402700Y43203D01*
X402996Y42944D01*
X403033Y42906D01*
X403107Y42795D01*
X403237Y42629D01*
X403293Y42499D01*
X403367Y42369D01*
X403441Y42203D01*
X403496Y42036D01*
X403570Y41851D01*
X403626Y41629D01*
X403663Y41407D01*
X403700Y41147D01*
X403737Y40888D01*
Y40592D01*
Y34222D01*
X402163D01*
Y40055D01*
Y40073D01*
Y40092D01*
Y40203D01*
Y40370D01*
X402145Y40573D01*
X402126Y40796D01*
X402108Y41018D01*
X402070Y41240D01*
X402015Y41407D01*
Y41425D01*
X401978Y41481D01*
X401941Y41555D01*
X401885Y41647D01*
X401811Y41758D01*
X401719Y41870D01*
X401608Y41981D01*
X401459Y42092D01*
X401441Y42110D01*
X401385Y42129D01*
X401311Y42166D01*
X401182Y42221D01*
X401052Y42277D01*
X400885Y42314D01*
X400719Y42333D01*
X400515Y42351D01*
X400422D01*
X400348Y42333D01*
X400163Y42314D01*
X399941Y42277D01*
X399682Y42184D01*
X399404Y42073D01*
X399126Y41907D01*
X398867Y41684D01*
X398848Y41647D01*
X398774Y41555D01*
X398663Y41407D01*
X398552Y41184D01*
X398423Y40888D01*
X398330Y40536D01*
X398256Y40111D01*
X398219Y39611D01*
Y34222D01*
X396645D01*
Y40240D01*
Y40259D01*
Y40296D01*
Y40333D01*
Y40407D01*
X396627Y40610D01*
X396590Y40833D01*
X396553Y41092D01*
X396478Y41351D01*
X396386Y41592D01*
X396256Y41814D01*
X396238Y41832D01*
X396182Y41907D01*
X396090Y41981D01*
X395960Y42092D01*
X395793Y42184D01*
X395571Y42277D01*
X395312Y42333D01*
X394997Y42351D01*
X394886D01*
X394756Y42333D01*
X394608Y42314D01*
X394423Y42258D01*
X394201Y42203D01*
X393997Y42110D01*
X393775Y41999D01*
X393756Y41981D01*
X393682Y41925D01*
X393590Y41851D01*
X393460Y41740D01*
X393331Y41592D01*
X393201Y41407D01*
X393071Y41203D01*
X392960Y40962D01*
X392942Y40925D01*
X392923Y40833D01*
X392886Y40684D01*
X392831Y40481D01*
X392775Y40203D01*
X392738Y39870D01*
X392719Y39481D01*
X392701Y39037D01*
Y34222D01*
X391127D01*
Y43517D01*
X392534D01*
Y42184D01*
X392553Y42221D01*
X392608Y42295D01*
X392719Y42425D01*
X392849Y42573D01*
X393016Y42758D01*
X393219Y42944D01*
X393442Y43129D01*
X393701Y43295D01*
X393738Y43314D01*
X393830Y43369D01*
X393979Y43425D01*
X394182Y43517D01*
X394423Y43592D01*
X394701Y43647D01*
X395016Y43703D01*
X395349Y43721D01*
X395516D01*
X395719Y43703D01*
X395941Y43666D01*
X396219Y43610D01*
X396497Y43536D01*
X396775Y43425D01*
X397034Y43277D01*
X397071Y43258D01*
X397145Y43203D01*
X397256Y43110D01*
X397404Y42962D01*
X397552Y42795D01*
X397719Y42592D01*
X397867Y42351D01*
X397978Y42073D01*
X397997Y42092D01*
X398034Y42147D01*
X398089Y42221D01*
X398182Y42333D01*
X398293Y42462D01*
X398423Y42592D01*
X398571Y42740D01*
X398756Y42906D01*
X398960Y43055D01*
X399163Y43203D01*
X399404Y43332D01*
X399663Y43462D01*
X399941Y43573D01*
X400237Y43647D01*
X400533Y43703D01*
X400867Y43721D01*
X400997D01*
X401089Y43703D01*
D02*
G37*
G36*
X430216Y38074D02*
X425346D01*
Y39648D01*
X430216D01*
Y38074D01*
D02*
G37*
G36*
X472174Y45517D02*
X467952D01*
Y34222D01*
X466249D01*
Y45517D01*
X462027D01*
Y47036D01*
X472174D01*
Y45517D01*
D02*
G37*
G36*
X442214Y47017D02*
X442363D01*
X442696Y46980D01*
X443066Y46943D01*
X443455Y46869D01*
X443844Y46776D01*
X444196Y46647D01*
X444214D01*
X444233Y46628D01*
X444344Y46573D01*
X444510Y46480D01*
X444696Y46351D01*
X444918Y46184D01*
X445159Y45980D01*
X445381Y45721D01*
X445584Y45443D01*
X445603Y45406D01*
X445658Y45295D01*
X445751Y45147D01*
X445844Y44925D01*
X445936Y44666D01*
X446029Y44388D01*
X446084Y44073D01*
X446103Y43758D01*
Y43721D01*
Y43629D01*
X446084Y43462D01*
X446047Y43258D01*
X445992Y43018D01*
X445899Y42758D01*
X445788Y42499D01*
X445640Y42221D01*
X445621Y42184D01*
X445566Y42110D01*
X445455Y41962D01*
X445307Y41814D01*
X445121Y41629D01*
X444899Y41425D01*
X444622Y41240D01*
X444307Y41055D01*
X444325D01*
X444362Y41036D01*
X444418Y41018D01*
X444492Y40981D01*
X444714Y40907D01*
X444973Y40777D01*
X445251Y40610D01*
X445566Y40407D01*
X445844Y40166D01*
X446103Y39870D01*
X446121Y39833D01*
X446195Y39722D01*
X446307Y39555D01*
X446418Y39333D01*
X446529Y39037D01*
X446640Y38722D01*
X446714Y38351D01*
X446732Y37944D01*
Y37926D01*
Y37907D01*
Y37796D01*
X446714Y37611D01*
X446677Y37389D01*
X446640Y37129D01*
X446566Y36852D01*
X446473Y36555D01*
X446344Y36259D01*
X446325Y36222D01*
X446269Y36129D01*
X446195Y36000D01*
X446084Y35815D01*
X445936Y35629D01*
X445788Y35426D01*
X445603Y35222D01*
X445399Y35055D01*
X445381Y35037D01*
X445307Y34981D01*
X445177Y34907D01*
X445010Y34833D01*
X444807Y34722D01*
X444566Y34611D01*
X444307Y34518D01*
X443992Y34426D01*
X443955D01*
X443844Y34389D01*
X443659Y34370D01*
X443418Y34333D01*
X443122Y34296D01*
X442770Y34259D01*
X442381Y34241D01*
X441937Y34222D01*
X437048Y34222D01*
Y47036D01*
X442085Y47036D01*
X442214Y47017D01*
D02*
G37*
G36*
X378443Y34222D02*
X376647D01*
Y36018D01*
X378443D01*
Y34222D01*
D02*
G37*
G36*
X371722D02*
X370148D01*
Y44240D01*
X370129Y44221D01*
X370037Y44147D01*
X369926Y44036D01*
X369740Y43906D01*
X369537Y43740D01*
X369277Y43555D01*
X368981Y43351D01*
X368648Y43147D01*
X368629D01*
X368611Y43129D01*
X368500Y43055D01*
X368315Y42962D01*
X368092Y42851D01*
X367833Y42721D01*
X367556Y42592D01*
X367278Y42462D01*
X367000Y42351D01*
Y43869D01*
X367019D01*
X367056Y43906D01*
X367130Y43925D01*
X367222Y43980D01*
X367333Y44036D01*
X367463Y44110D01*
X367778Y44295D01*
X368148Y44499D01*
X368518Y44758D01*
X368907Y45054D01*
X369296Y45369D01*
X369315Y45388D01*
X369333Y45406D01*
X369389Y45462D01*
X369463Y45517D01*
X369629Y45703D01*
X369851Y45925D01*
X370074Y46184D01*
X370314Y46480D01*
X370518Y46776D01*
X370703Y47091D01*
X371722D01*
Y34222D01*
D02*
G37*
G36*
X454972Y47239D02*
X455139D01*
X455306Y47221D01*
X455528Y47184D01*
X455750Y47147D01*
X456231Y47054D01*
X456787Y46906D01*
X457324Y46684D01*
X457602Y46554D01*
X457879Y46406D01*
X457898Y46388D01*
X457935Y46369D01*
X458009Y46314D01*
X458120Y46258D01*
X458231Y46165D01*
X458379Y46054D01*
X458694Y45795D01*
X459027Y45462D01*
X459398Y45054D01*
X459750Y44573D01*
X460046Y44036D01*
Y44018D01*
X460083Y43962D01*
X460120Y43888D01*
X460157Y43777D01*
X460231Y43629D01*
X460287Y43462D01*
X460361Y43258D01*
X460435Y43036D01*
X460490Y42795D01*
X460564Y42536D01*
X460638Y42240D01*
X460694Y41944D01*
X460768Y41295D01*
X460805Y40592D01*
Y40573D01*
Y40499D01*
Y40407D01*
X460787Y40259D01*
Y40092D01*
X460768Y39888D01*
X460731Y39666D01*
X460713Y39425D01*
X460620Y38888D01*
X460472Y38296D01*
X460268Y37703D01*
X460157Y37407D01*
X460009Y37111D01*
Y37092D01*
X459972Y37037D01*
X459935Y36963D01*
X459861Y36852D01*
X459787Y36722D01*
X459694Y36592D01*
X459435Y36240D01*
X459120Y35870D01*
X458750Y35481D01*
X458305Y35111D01*
X457787Y34778D01*
X457768D01*
X457731Y34741D01*
X457639Y34704D01*
X457528Y34648D01*
X457398Y34592D01*
X457250Y34537D01*
X457065Y34463D01*
X456861Y34389D01*
X456639Y34315D01*
X456398Y34241D01*
X455861Y34130D01*
X455287Y34037D01*
X454676Y34000D01*
X454491D01*
X454380Y34018D01*
X454213D01*
X454028Y34056D01*
X453824Y34074D01*
X453584Y34111D01*
X453084Y34222D01*
X452547Y34370D01*
X451991Y34592D01*
X451713Y34722D01*
X451436Y34870D01*
X451417Y34889D01*
X451380Y34907D01*
X451306Y34963D01*
X451195Y35037D01*
X451084Y35111D01*
X450954Y35222D01*
X450639Y35500D01*
X450288Y35833D01*
X449917Y36240D01*
X449584Y36703D01*
X449269Y37240D01*
Y37259D01*
X449232Y37315D01*
X449195Y37389D01*
X449158Y37500D01*
X449103Y37648D01*
X449047Y37814D01*
X448973Y38000D01*
X448917Y38203D01*
X448843Y38444D01*
X448769Y38685D01*
X448658Y39240D01*
X448584Y39814D01*
X448547Y40444D01*
Y40462D01*
Y40481D01*
Y40592D01*
X448566Y40759D01*
Y40981D01*
X448603Y41240D01*
X448640Y41555D01*
X448695Y41907D01*
X448769Y42277D01*
X448843Y42666D01*
X448954Y43073D01*
X449103Y43481D01*
X449269Y43906D01*
X449454Y44314D01*
X449695Y44721D01*
X449954Y45092D01*
X450251Y45443D01*
X450269Y45462D01*
X450325Y45517D01*
X450436Y45610D01*
X450565Y45721D01*
X450732Y45869D01*
X450936Y46017D01*
X451176Y46184D01*
X451454Y46351D01*
X451750Y46517D01*
X452084Y46684D01*
X452454Y46832D01*
X452843Y46980D01*
X453269Y47091D01*
X453713Y47184D01*
X454176Y47239D01*
X454676Y47258D01*
X454843D01*
X454972Y47239D01*
D02*
G37*
G36*
X385294Y47073D02*
X385535Y47036D01*
X385813Y46980D01*
X386109Y46906D01*
X386424Y46814D01*
X386720Y46665D01*
X386739D01*
X386757Y46647D01*
X386850Y46591D01*
X386998Y46499D01*
X387183Y46369D01*
X387387Y46184D01*
X387609Y45980D01*
X387813Y45739D01*
X388016Y45462D01*
X388035Y45425D01*
X388109Y45332D01*
X388183Y45166D01*
X388313Y44925D01*
X388424Y44647D01*
X388572Y44332D01*
X388701Y43962D01*
X388812Y43555D01*
Y43536D01*
X388831Y43499D01*
X388850Y43443D01*
X388868Y43351D01*
X388887Y43240D01*
X388905Y43110D01*
X388942Y42944D01*
X388961Y42758D01*
X388998Y42555D01*
X389016Y42333D01*
X389035Y42073D01*
X389072Y41814D01*
X389090Y41518D01*
Y41221D01*
X389109Y40888D01*
Y40536D01*
Y40518D01*
Y40444D01*
Y40314D01*
Y40166D01*
X389090Y39962D01*
Y39740D01*
X389072Y39499D01*
X389053Y39240D01*
X388998Y38648D01*
X388905Y38037D01*
X388794Y37444D01*
X388720Y37166D01*
X388627Y36889D01*
Y36870D01*
X388609Y36833D01*
X388572Y36759D01*
X388535Y36666D01*
X388498Y36537D01*
X388424Y36407D01*
X388276Y36092D01*
X388090Y35759D01*
X387850Y35389D01*
X387572Y35055D01*
X387239Y34741D01*
X387220D01*
X387202Y34704D01*
X387146Y34667D01*
X387072Y34629D01*
X386979Y34574D01*
X386887Y34500D01*
X386609Y34370D01*
X386276Y34241D01*
X385887Y34111D01*
X385424Y34037D01*
X384924Y34000D01*
X384739D01*
X384609Y34018D01*
X384461Y34037D01*
X384276Y34074D01*
X384072Y34111D01*
X383850Y34167D01*
X383628Y34241D01*
X383387Y34315D01*
X383147Y34426D01*
X382906Y34555D01*
X382665Y34704D01*
X382424Y34889D01*
X382202Y35092D01*
X381998Y35315D01*
X381980Y35333D01*
X381943Y35389D01*
X381887Y35481D01*
X381795Y35629D01*
X381702Y35796D01*
X381610Y36018D01*
X381480Y36277D01*
X381369Y36574D01*
X381258Y36907D01*
X381147Y37296D01*
X381036Y37722D01*
X380943Y38203D01*
X380850Y38722D01*
X380795Y39277D01*
X380758Y39888D01*
X380739Y40536D01*
Y40555D01*
Y40629D01*
Y40759D01*
Y40907D01*
X380758Y41110D01*
Y41333D01*
X380776Y41573D01*
X380795Y41851D01*
X380850Y42425D01*
X380943Y43036D01*
X381054Y43647D01*
X381128Y43925D01*
X381202Y44203D01*
Y44221D01*
X381221Y44258D01*
X381258Y44332D01*
X381295Y44425D01*
X381332Y44554D01*
X381406Y44684D01*
X381554Y44999D01*
X381739Y45332D01*
X381980Y45684D01*
X382258Y46036D01*
X382591Y46332D01*
X382609D01*
X382628Y46369D01*
X382683Y46406D01*
X382758Y46443D01*
X382850Y46517D01*
X382961Y46573D01*
X383239Y46721D01*
X383572Y46851D01*
X383961Y46980D01*
X384424Y47054D01*
X384924Y47091D01*
X385091D01*
X385294Y47073D01*
D02*
G37*
G36*
X417217Y62871D02*
X417347D01*
X417476Y62853D01*
X417791Y62797D01*
X418124Y62705D01*
X418476Y62557D01*
X418828Y62372D01*
X419124Y62112D01*
X419161Y62075D01*
X419235Y61964D01*
X419365Y61797D01*
X419421Y61668D01*
X419495Y61538D01*
X419569Y61372D01*
X419624Y61205D01*
X419698Y61020D01*
X419754Y60798D01*
X419791Y60575D01*
X419828Y60316D01*
X419865Y60057D01*
Y59761D01*
Y53391D01*
X418291D01*
Y59224D01*
Y59242D01*
Y59261D01*
Y59372D01*
Y59538D01*
X418272Y59742D01*
X418254Y59964D01*
X418235Y60187D01*
X418198Y60409D01*
X418143Y60575D01*
Y60594D01*
X418106Y60649D01*
X418069Y60724D01*
X418013Y60816D01*
X417939Y60927D01*
X417847Y61038D01*
X417735Y61150D01*
X417587Y61261D01*
X417569Y61279D01*
X417513Y61298D01*
X417439Y61335D01*
X417310Y61390D01*
X417180Y61446D01*
X417013Y61483D01*
X416847Y61501D01*
X416643Y61520D01*
X416550D01*
X416476Y61501D01*
X416291Y61483D01*
X416069Y61446D01*
X415810Y61353D01*
X415532Y61242D01*
X415254Y61075D01*
X414995Y60853D01*
X414977Y60816D01*
X414902Y60724D01*
X414791Y60575D01*
X414680Y60353D01*
X414551Y60057D01*
X414458Y59705D01*
X414384Y59279D01*
X414347Y58779D01*
Y53391D01*
X412773D01*
Y59409D01*
Y59427D01*
Y59464D01*
Y59502D01*
Y59576D01*
X412755Y59779D01*
X412718Y60001D01*
X412680Y60261D01*
X412606Y60520D01*
X412514Y60761D01*
X412384Y60983D01*
X412366Y61001D01*
X412310Y61075D01*
X412217Y61150D01*
X412088Y61261D01*
X411921Y61353D01*
X411699Y61446D01*
X411440Y61501D01*
X411125Y61520D01*
X411014D01*
X410884Y61501D01*
X410736Y61483D01*
X410551Y61427D01*
X410329Y61372D01*
X410125Y61279D01*
X409903Y61168D01*
X409884Y61150D01*
X409810Y61094D01*
X409718Y61020D01*
X409588Y60909D01*
X409459Y60761D01*
X409329Y60575D01*
X409199Y60372D01*
X409088Y60131D01*
X409070Y60094D01*
X409051Y60001D01*
X409014Y59853D01*
X408959Y59650D01*
X408903Y59372D01*
X408866Y59039D01*
X408848Y58650D01*
X408829Y58205D01*
Y53391D01*
X407255D01*
Y62686D01*
X408662D01*
Y61353D01*
X408681Y61390D01*
X408736Y61464D01*
X408848Y61594D01*
X408977Y61742D01*
X409144Y61927D01*
X409347Y62112D01*
X409570Y62298D01*
X409829Y62464D01*
X409866Y62483D01*
X409958Y62538D01*
X410107Y62594D01*
X410310Y62686D01*
X410551Y62760D01*
X410829Y62816D01*
X411144Y62871D01*
X411477Y62890D01*
X411643D01*
X411847Y62871D01*
X412069Y62835D01*
X412347Y62779D01*
X412625Y62705D01*
X412903Y62594D01*
X413162Y62446D01*
X413199Y62427D01*
X413273Y62372D01*
X413384Y62279D01*
X413532Y62131D01*
X413680Y61964D01*
X413847Y61761D01*
X413995Y61520D01*
X414106Y61242D01*
X414125Y61261D01*
X414162Y61316D01*
X414217Y61390D01*
X414310Y61501D01*
X414421Y61631D01*
X414551Y61761D01*
X414699Y61909D01*
X414884Y62075D01*
X415088Y62223D01*
X415291Y62372D01*
X415532Y62501D01*
X415791Y62631D01*
X416069Y62742D01*
X416365Y62816D01*
X416661Y62871D01*
X416995Y62890D01*
X417124D01*
X417217Y62871D01*
D02*
G37*
G36*
X402293D02*
X402422D01*
X402552Y62853D01*
X402867Y62797D01*
X403200Y62705D01*
X403552Y62557D01*
X403904Y62372D01*
X404200Y62112D01*
X404237Y62075D01*
X404311Y61964D01*
X404440Y61797D01*
X404496Y61668D01*
X404570Y61538D01*
X404644Y61372D01*
X404700Y61205D01*
X404774Y61020D01*
X404829Y60798D01*
X404866Y60575D01*
X404903Y60316D01*
X404940Y60057D01*
Y59761D01*
Y53391D01*
X403367D01*
Y59224D01*
Y59242D01*
Y59261D01*
Y59372D01*
Y59538D01*
X403348Y59742D01*
X403330Y59964D01*
X403311Y60187D01*
X403274Y60409D01*
X403218Y60575D01*
Y60594D01*
X403181Y60649D01*
X403144Y60724D01*
X403089Y60816D01*
X403015Y60927D01*
X402922Y61038D01*
X402811Y61150D01*
X402663Y61261D01*
X402644Y61279D01*
X402589Y61298D01*
X402515Y61335D01*
X402385Y61390D01*
X402256Y61446D01*
X402089Y61483D01*
X401922Y61501D01*
X401719Y61520D01*
X401626D01*
X401552Y61501D01*
X401367Y61483D01*
X401145Y61446D01*
X400885Y61353D01*
X400608Y61242D01*
X400330Y61075D01*
X400071Y60853D01*
X400052Y60816D01*
X399978Y60724D01*
X399867Y60575D01*
X399756Y60353D01*
X399626Y60057D01*
X399534Y59705D01*
X399460Y59279D01*
X399422Y58779D01*
Y53391D01*
X397849D01*
Y59409D01*
Y59427D01*
Y59464D01*
Y59502D01*
Y59576D01*
X397830Y59779D01*
X397793Y60001D01*
X397756Y60261D01*
X397682Y60520D01*
X397589Y60761D01*
X397460Y60983D01*
X397441Y61001D01*
X397386Y61075D01*
X397293Y61150D01*
X397164Y61261D01*
X396997Y61353D01*
X396775Y61446D01*
X396515Y61501D01*
X396201Y61520D01*
X396090D01*
X395960Y61501D01*
X395812Y61483D01*
X395627Y61427D01*
X395404Y61372D01*
X395201Y61279D01*
X394979Y61168D01*
X394960Y61150D01*
X394886Y61094D01*
X394793Y61020D01*
X394664Y60909D01*
X394534Y60761D01*
X394404Y60575D01*
X394275Y60372D01*
X394164Y60131D01*
X394145Y60094D01*
X394127Y60001D01*
X394090Y59853D01*
X394034Y59650D01*
X393979Y59372D01*
X393942Y59039D01*
X393923Y58650D01*
X393905Y58205D01*
Y53391D01*
X392331D01*
Y62686D01*
X393738D01*
Y61353D01*
X393756Y61390D01*
X393812Y61464D01*
X393923Y61594D01*
X394053Y61742D01*
X394219Y61927D01*
X394423Y62112D01*
X394645Y62298D01*
X394905Y62464D01*
X394941Y62483D01*
X395034Y62538D01*
X395182Y62594D01*
X395386Y62686D01*
X395627Y62760D01*
X395904Y62816D01*
X396219Y62871D01*
X396553Y62890D01*
X396719D01*
X396923Y62871D01*
X397145Y62835D01*
X397423Y62779D01*
X397701Y62705D01*
X397978Y62594D01*
X398237Y62446D01*
X398274Y62427D01*
X398349Y62372D01*
X398460Y62279D01*
X398608Y62131D01*
X398756Y61964D01*
X398923Y61761D01*
X399071Y61520D01*
X399182Y61242D01*
X399200Y61261D01*
X399237Y61316D01*
X399293Y61390D01*
X399385Y61501D01*
X399497Y61631D01*
X399626Y61761D01*
X399774Y61909D01*
X399959Y62075D01*
X400163Y62223D01*
X400367Y62372D01*
X400608Y62501D01*
X400867Y62631D01*
X401145Y62742D01*
X401441Y62816D01*
X401737Y62871D01*
X402070Y62890D01*
X402200D01*
X402293Y62871D01*
D02*
G37*
G36*
X431419Y57242D02*
X426549D01*
Y58816D01*
X431419D01*
Y57242D01*
D02*
G37*
G36*
X389831Y64538D02*
X384702D01*
X384017Y61075D01*
X384035Y61094D01*
X384072Y61112D01*
X384128Y61150D01*
X384220Y61205D01*
X384332Y61261D01*
X384461Y61335D01*
X384757Y61483D01*
X385128Y61631D01*
X385535Y61761D01*
X385979Y61853D01*
X386202Y61890D01*
X386609D01*
X386720Y61872D01*
X386868Y61853D01*
X387035Y61835D01*
X387220Y61797D01*
X387424Y61742D01*
X387868Y61612D01*
X388109Y61520D01*
X388350Y61390D01*
X388590Y61261D01*
X388831Y61112D01*
X389053Y60927D01*
X389275Y60724D01*
X389294Y60705D01*
X389331Y60668D01*
X389386Y60613D01*
X389461Y60520D01*
X389553Y60390D01*
X389646Y60261D01*
X389757Y60094D01*
X389868Y59909D01*
X389961Y59705D01*
X390072Y59483D01*
X390164Y59224D01*
X390257Y58965D01*
X390331Y58687D01*
X390386Y58372D01*
X390424Y58057D01*
X390442Y57724D01*
Y57705D01*
Y57650D01*
Y57557D01*
X390424Y57428D01*
X390405Y57280D01*
X390386Y57113D01*
X390349Y56909D01*
X390312Y56705D01*
X390201Y56224D01*
X390016Y55724D01*
X389905Y55465D01*
X389757Y55224D01*
X389609Y54965D01*
X389424Y54724D01*
X389405Y54706D01*
X389368Y54650D01*
X389294Y54576D01*
X389201Y54483D01*
X389072Y54372D01*
X388924Y54224D01*
X388739Y54095D01*
X388535Y53946D01*
X388313Y53798D01*
X388053Y53669D01*
X387776Y53539D01*
X387479Y53410D01*
X387165Y53317D01*
X386813Y53243D01*
X386442Y53187D01*
X386054Y53169D01*
X385887D01*
X385757Y53187D01*
X385609Y53206D01*
X385443Y53224D01*
X385239Y53243D01*
X385035Y53298D01*
X384572Y53410D01*
X384109Y53576D01*
X383869Y53687D01*
X383628Y53817D01*
X383406Y53965D01*
X383184Y54132D01*
X383165Y54150D01*
X383128Y54169D01*
X383091Y54243D01*
X383017Y54317D01*
X382924Y54409D01*
X382832Y54521D01*
X382721Y54669D01*
X382628Y54835D01*
X382517Y55002D01*
X382406Y55206D01*
X382202Y55650D01*
X382035Y56168D01*
X381980Y56446D01*
X381943Y56743D01*
X383591Y56872D01*
Y56854D01*
Y56817D01*
X383609Y56761D01*
X383628Y56668D01*
X383683Y56465D01*
X383758Y56187D01*
X383869Y55909D01*
X384017Y55595D01*
X384202Y55317D01*
X384424Y55058D01*
X384461Y55039D01*
X384535Y54965D01*
X384683Y54872D01*
X384887Y54761D01*
X385109Y54650D01*
X385387Y54557D01*
X385702Y54483D01*
X386054Y54465D01*
X386165D01*
X386239Y54483D01*
X386461Y54502D01*
X386720Y54576D01*
X387035Y54669D01*
X387350Y54817D01*
X387683Y55039D01*
X387831Y55169D01*
X387979Y55317D01*
X387998Y55335D01*
X388016Y55354D01*
X388053Y55409D01*
X388109Y55465D01*
X388238Y55669D01*
X388387Y55928D01*
X388516Y56243D01*
X388646Y56631D01*
X388739Y57094D01*
X388775Y57335D01*
Y57594D01*
Y57613D01*
Y57650D01*
Y57724D01*
X388757Y57817D01*
Y57928D01*
X388739Y58057D01*
X388683Y58354D01*
X388590Y58705D01*
X388461Y59057D01*
X388276Y59390D01*
X388016Y59705D01*
Y59724D01*
X387979Y59742D01*
X387887Y59835D01*
X387720Y59964D01*
X387498Y60113D01*
X387202Y60242D01*
X386868Y60372D01*
X386479Y60464D01*
X386257Y60501D01*
X385905D01*
X385757Y60483D01*
X385572Y60464D01*
X385350Y60409D01*
X385128Y60353D01*
X384887Y60261D01*
X384646Y60150D01*
X384628Y60131D01*
X384554Y60094D01*
X384443Y60001D01*
X384295Y59909D01*
X384146Y59779D01*
X383998Y59613D01*
X383832Y59446D01*
X383702Y59242D01*
X382221Y59446D01*
X383461Y66038D01*
X389831D01*
Y64538D01*
D02*
G37*
G36*
X468730Y66186D02*
X469045Y66167D01*
X469378Y66149D01*
X469693Y66112D01*
X469971Y66075D01*
X470008D01*
X470137Y66038D01*
X470304Y66001D01*
X470526Y65945D01*
X470767Y65853D01*
X471026Y65742D01*
X471304Y65612D01*
X471545Y65464D01*
X471582Y65445D01*
X471656Y65390D01*
X471767Y65279D01*
X471915Y65149D01*
X472082Y64982D01*
X472248Y64760D01*
X472434Y64520D01*
X472582Y64242D01*
X472600Y64205D01*
X472637Y64112D01*
X472711Y63945D01*
X472785Y63723D01*
X472841Y63464D01*
X472915Y63168D01*
X472952Y62835D01*
X472971Y62483D01*
Y62464D01*
Y62409D01*
Y62334D01*
X472952Y62205D01*
X472933Y62075D01*
X472915Y61909D01*
X472878Y61723D01*
X472841Y61520D01*
X472711Y61094D01*
X472637Y60872D01*
X472526Y60631D01*
X472397Y60390D01*
X472267Y60168D01*
X472100Y59946D01*
X471915Y59724D01*
X471897Y59705D01*
X471860Y59668D01*
X471804Y59613D01*
X471711Y59557D01*
X471600Y59465D01*
X471452Y59372D01*
X471267Y59261D01*
X471063Y59168D01*
X470823Y59057D01*
X470545Y58946D01*
X470248Y58853D01*
X469897Y58779D01*
X469526Y58705D01*
X469119Y58650D01*
X468656Y58613D01*
X468175Y58594D01*
X464897D01*
Y53391D01*
X463194D01*
Y66205D01*
X468452D01*
X468730Y66186D01*
D02*
G37*
G36*
X447510Y64686D02*
X443288D01*
Y53391D01*
X441585D01*
Y64686D01*
X437363Y64686D01*
Y66205D01*
X447510Y66205D01*
Y64686D01*
D02*
G37*
G36*
X379647Y53391D02*
X377851D01*
Y55187D01*
X379647D01*
Y53391D01*
D02*
G37*
G36*
X455176Y66408D02*
X455343D01*
X455509Y66390D01*
X455732Y66353D01*
X455954Y66316D01*
X456435Y66223D01*
X456991Y66075D01*
X457528Y65853D01*
X457805Y65723D01*
X458083Y65575D01*
X458102Y65556D01*
X458139Y65538D01*
X458213Y65482D01*
X458324Y65427D01*
X458435Y65334D01*
X458583Y65223D01*
X458898Y64964D01*
X459231Y64631D01*
X459602Y64223D01*
X459953Y63742D01*
X460250Y63205D01*
Y63186D01*
X460287Y63131D01*
X460324Y63057D01*
X460361Y62946D01*
X460435Y62797D01*
X460490Y62631D01*
X460564Y62427D01*
X460638Y62205D01*
X460694Y61964D01*
X460768Y61705D01*
X460842Y61409D01*
X460898Y61112D01*
X460972Y60464D01*
X461009Y59761D01*
Y59742D01*
Y59668D01*
Y59576D01*
X460990Y59427D01*
Y59261D01*
X460972Y59057D01*
X460935Y58835D01*
X460916Y58594D01*
X460824Y58057D01*
X460676Y57465D01*
X460472Y56872D01*
X460361Y56576D01*
X460213Y56280D01*
Y56261D01*
X460176Y56206D01*
X460139Y56132D01*
X460064Y56020D01*
X459990Y55891D01*
X459898Y55761D01*
X459638Y55409D01*
X459324Y55039D01*
X458953Y54650D01*
X458509Y54280D01*
X457990Y53946D01*
X457972D01*
X457935Y53910D01*
X457842Y53872D01*
X457731Y53817D01*
X457602Y53761D01*
X457454Y53706D01*
X457268Y53632D01*
X457065Y53558D01*
X456842Y53484D01*
X456602Y53410D01*
X456065Y53298D01*
X455491Y53206D01*
X454880Y53169D01*
X454695D01*
X454584Y53187D01*
X454417D01*
X454232Y53224D01*
X454028Y53243D01*
X453787Y53280D01*
X453287Y53391D01*
X452750Y53539D01*
X452195Y53761D01*
X451917Y53891D01*
X451639Y54039D01*
X451621Y54058D01*
X451584Y54076D01*
X451510Y54132D01*
X451399Y54206D01*
X451287Y54280D01*
X451158Y54391D01*
X450843Y54669D01*
X450491Y55002D01*
X450121Y55409D01*
X449788Y55872D01*
X449473Y56409D01*
Y56428D01*
X449436Y56483D01*
X449399Y56557D01*
X449362Y56669D01*
X449306Y56817D01*
X449251Y56983D01*
X449177Y57168D01*
X449121Y57372D01*
X449047Y57613D01*
X448973Y57853D01*
X448862Y58409D01*
X448788Y58983D01*
X448751Y59613D01*
Y59631D01*
Y59650D01*
Y59761D01*
X448769Y59927D01*
Y60150D01*
X448806Y60409D01*
X448843Y60724D01*
X448899Y61075D01*
X448973Y61446D01*
X449047Y61835D01*
X449158Y62242D01*
X449306Y62649D01*
X449473Y63075D01*
X449658Y63483D01*
X449899Y63890D01*
X450158Y64260D01*
X450454Y64612D01*
X450473Y64631D01*
X450528Y64686D01*
X450639Y64779D01*
X450769Y64890D01*
X450936Y65038D01*
X451139Y65186D01*
X451380Y65353D01*
X451658Y65519D01*
X451954Y65686D01*
X452287Y65853D01*
X452658Y66001D01*
X453047Y66149D01*
X453473Y66260D01*
X453917Y66353D01*
X454380Y66408D01*
X454880Y66427D01*
X455046D01*
X455176Y66408D01*
D02*
G37*
G36*
X371555Y66241D02*
X371796Y66205D01*
X372074Y66149D01*
X372370Y66075D01*
X372685Y65982D01*
X372981Y65834D01*
X372999D01*
X373018Y65816D01*
X373111Y65760D01*
X373259Y65668D01*
X373444Y65538D01*
X373647Y65353D01*
X373870Y65149D01*
X374073Y64908D01*
X374277Y64631D01*
X374296Y64594D01*
X374370Y64501D01*
X374444Y64334D01*
X374573Y64094D01*
X374684Y63816D01*
X374832Y63501D01*
X374962Y63131D01*
X375073Y62723D01*
Y62705D01*
X375092Y62668D01*
X375110Y62612D01*
X375129Y62520D01*
X375147Y62409D01*
X375166Y62279D01*
X375203Y62112D01*
X375221Y61927D01*
X375258Y61723D01*
X375277Y61501D01*
X375295Y61242D01*
X375332Y60983D01*
X375351Y60686D01*
Y60390D01*
X375369Y60057D01*
Y59705D01*
Y59687D01*
Y59613D01*
Y59483D01*
Y59335D01*
X375351Y59131D01*
Y58909D01*
X375332Y58668D01*
X375314Y58409D01*
X375258Y57817D01*
X375166Y57205D01*
X375055Y56613D01*
X374981Y56335D01*
X374888Y56057D01*
Y56039D01*
X374869Y56002D01*
X374832Y55928D01*
X374795Y55835D01*
X374758Y55706D01*
X374684Y55576D01*
X374536Y55261D01*
X374351Y54928D01*
X374110Y54557D01*
X373833Y54224D01*
X373499Y53910D01*
X373481D01*
X373462Y53872D01*
X373407Y53835D01*
X373333Y53798D01*
X373240Y53743D01*
X373148Y53669D01*
X372870Y53539D01*
X372536Y53410D01*
X372148Y53280D01*
X371685Y53206D01*
X371185Y53169D01*
X371000D01*
X370870Y53187D01*
X370722Y53206D01*
X370537Y53243D01*
X370333Y53280D01*
X370111Y53335D01*
X369889Y53410D01*
X369648Y53484D01*
X369407Y53595D01*
X369166Y53724D01*
X368926Y53872D01*
X368685Y54058D01*
X368463Y54261D01*
X368259Y54483D01*
X368241Y54502D01*
X368204Y54557D01*
X368148Y54650D01*
X368055Y54798D01*
X367963Y54965D01*
X367870Y55187D01*
X367741Y55446D01*
X367630Y55743D01*
X367518Y56076D01*
X367407Y56465D01*
X367296Y56891D01*
X367204Y57372D01*
X367111Y57891D01*
X367056Y58446D01*
X367019Y59057D01*
X367000Y59705D01*
Y59724D01*
Y59798D01*
Y59927D01*
Y60075D01*
X367019Y60279D01*
Y60501D01*
X367037Y60742D01*
X367056Y61020D01*
X367111Y61594D01*
X367204Y62205D01*
X367315Y62816D01*
X367389Y63094D01*
X367463Y63372D01*
Y63390D01*
X367481Y63427D01*
X367518Y63501D01*
X367556Y63594D01*
X367593Y63723D01*
X367667Y63853D01*
X367815Y64168D01*
X368000Y64501D01*
X368241Y64853D01*
X368518Y65205D01*
X368852Y65501D01*
X368870D01*
X368889Y65538D01*
X368944Y65575D01*
X369018Y65612D01*
X369111Y65686D01*
X369222Y65742D01*
X369500Y65890D01*
X369833Y66019D01*
X370222Y66149D01*
X370685Y66223D01*
X371185Y66260D01*
X371351D01*
X371555Y66241D01*
D02*
G37*
G36*
X171322Y62718D02*
X166600D01*
Y68106D01*
X171322D01*
Y62718D01*
D02*
G37*
G36*
X149935Y58107D02*
X150324Y58052D01*
X151157Y57940D01*
X152157Y57718D01*
X153213Y57385D01*
X154268Y56885D01*
X155323Y56274D01*
X155379D01*
X155435Y56163D01*
X155768Y55941D01*
X156268Y55496D01*
X156879Y54941D01*
X157545Y54219D01*
X158212Y53330D01*
X158879Y52274D01*
X159434Y51108D01*
Y51052D01*
X159490Y50941D01*
X159545Y50774D01*
X159656Y50552D01*
X159767Y50219D01*
X159879Y49830D01*
X160156Y48941D01*
X160434Y47830D01*
X160656Y46608D01*
X160823Y45219D01*
X160878Y43775D01*
Y43720D01*
Y43609D01*
Y43386D01*
Y43053D01*
X160823Y42664D01*
Y42220D01*
X160712Y41220D01*
X160490Y39998D01*
X160212Y38720D01*
X159823Y37387D01*
X159323Y36054D01*
Y35998D01*
X159268Y35887D01*
X159156Y35721D01*
X159045Y35498D01*
X158657Y34887D01*
X158156Y34110D01*
X157545Y33276D01*
X156768Y32443D01*
X155879Y31610D01*
X154824Y30832D01*
X154768D01*
X154712Y30777D01*
X154546Y30666D01*
X154324Y30554D01*
X153768Y30277D01*
X152990Y29943D01*
X152046Y29610D01*
X151046Y29332D01*
X149880Y29110D01*
X148713Y29055D01*
X148324D01*
X147880Y29110D01*
X147324Y29166D01*
X146658Y29277D01*
X145935Y29443D01*
X145213Y29666D01*
X144491Y29999D01*
X144436Y30054D01*
X144158Y30166D01*
X143825Y30388D01*
X143380Y30721D01*
X142936Y31054D01*
X142380Y31499D01*
X141880Y31999D01*
X141436Y32554D01*
Y19000D01*
X136714D01*
Y57552D01*
X140992D01*
Y53885D01*
X141047Y53996D01*
X141269Y54219D01*
X141547Y54607D01*
X141992Y55052D01*
X142492Y55607D01*
X143047Y56107D01*
X143714Y56607D01*
X144380Y57052D01*
X144491Y57107D01*
X144713Y57218D01*
X145158Y57385D01*
X145713Y57607D01*
X146380Y57829D01*
X147158Y57996D01*
X148046Y58107D01*
X149046Y58163D01*
X149657D01*
X149935Y58107D01*
D02*
G37*
G36*
X192486D02*
X193097Y58052D01*
X193820Y57940D01*
X194597Y57774D01*
X195430Y57552D01*
X196208Y57218D01*
X196319Y57163D01*
X196541Y57052D01*
X196930Y56885D01*
X197375Y56607D01*
X197930Y56274D01*
X198430Y55830D01*
X198930Y55385D01*
X199375Y54830D01*
X199430Y54774D01*
X199541Y54552D01*
X199708Y54274D01*
X199986Y53885D01*
X200208Y53330D01*
X200430Y52774D01*
X200708Y52108D01*
X200874Y51385D01*
Y51330D01*
X200930Y51108D01*
X200985Y50774D01*
X201041Y50330D01*
Y49664D01*
X201096Y48886D01*
X201152Y47941D01*
Y46775D01*
Y29666D01*
X196430D01*
Y46553D01*
Y46608D01*
Y46664D01*
Y47053D01*
Y47553D01*
X196375Y48164D01*
X196319Y48886D01*
X196208Y49608D01*
X196042Y50275D01*
X195875Y50886D01*
Y50941D01*
X195764Y51108D01*
X195597Y51385D01*
X195430Y51719D01*
X195153Y52052D01*
X194819Y52441D01*
X194375Y52830D01*
X193875Y53163D01*
X193820Y53219D01*
X193653Y53330D01*
X193319Y53441D01*
X192931Y53608D01*
X192486Y53774D01*
X191931Y53941D01*
X191264Y53996D01*
X190598Y54052D01*
X190320D01*
X190098Y53996D01*
X189542Y53941D01*
X188820Y53830D01*
X188042Y53552D01*
X187153Y53219D01*
X186265Y52774D01*
X185431Y52108D01*
X185320Y51997D01*
X185098Y51719D01*
X184932Y51497D01*
X184765Y51219D01*
X184543Y50886D01*
X184376Y50497D01*
X184154Y50052D01*
X183932Y49497D01*
X183765Y48886D01*
X183598Y48219D01*
X183487Y47497D01*
X183376Y46719D01*
X183265Y45775D01*
Y44831D01*
Y29666D01*
X178543D01*
Y57552D01*
X182765D01*
Y53552D01*
X182821Y53608D01*
X182932Y53774D01*
X183098Y53996D01*
X183321Y54274D01*
X183654Y54607D01*
X184043Y54996D01*
X184487Y55441D01*
X185043Y55885D01*
X185598Y56274D01*
X186265Y56718D01*
X186987Y57107D01*
X187764Y57441D01*
X188653Y57718D01*
X189542Y57940D01*
X190542Y58107D01*
X191597Y58163D01*
X192042D01*
X192486Y58107D01*
D02*
G37*
G36*
X171322Y29666D02*
X166600D01*
Y57552D01*
X171322D01*
Y29666D01*
D02*
G37*
G36*
X74332Y68217D02*
X74776Y68162D01*
X75332Y68106D01*
X75943Y67995D01*
X76554Y67884D01*
X77998Y67495D01*
X79442Y66940D01*
X80165Y66606D01*
X80887Y66217D01*
X81553Y65717D01*
X82164Y65162D01*
X82220Y65106D01*
X82331Y65051D01*
X82442Y64829D01*
X82664Y64606D01*
X82942Y64329D01*
X83220Y63940D01*
X83498Y63551D01*
X83831Y63051D01*
X84386Y61996D01*
X84942Y60662D01*
X85164Y59996D01*
X85275Y59218D01*
X85386Y58440D01*
X85442Y57607D01*
Y57496D01*
Y57218D01*
X85386Y56774D01*
X85331Y56163D01*
X85220Y55496D01*
X84997Y54718D01*
X84775Y53885D01*
X84442Y53052D01*
X84386Y52941D01*
X84275Y52663D01*
X84053Y52219D01*
X83720Y51608D01*
X83275Y50941D01*
X82720Y50108D01*
X82053Y49275D01*
X81276Y48330D01*
X81165Y48219D01*
X80887Y47886D01*
X80609Y47608D01*
X80331Y47330D01*
X79998Y46997D01*
X79553Y46553D01*
X79109Y46108D01*
X78554Y45608D01*
X77998Y45053D01*
X77332Y44442D01*
X76609Y43831D01*
X75832Y43109D01*
X74943Y42386D01*
X74054Y41609D01*
X73999Y41553D01*
X73888Y41442D01*
X73665Y41276D01*
X73387Y41053D01*
X73054Y40720D01*
X72665Y40387D01*
X71777Y39664D01*
X70832Y38831D01*
X69943Y37998D01*
X69166Y37276D01*
X68832Y36998D01*
X68555Y36720D01*
X68499Y36665D01*
X68333Y36498D01*
X68110Y36276D01*
X67832Y35943D01*
X67555Y35554D01*
X67221Y35165D01*
X66555Y34221D01*
X85497D01*
Y29666D01*
X60000D01*
Y29721D01*
Y29943D01*
Y30277D01*
X60056Y30721D01*
X60111Y31221D01*
X60222Y31776D01*
X60333Y32332D01*
X60556Y32943D01*
Y32998D01*
X60611Y33054D01*
X60722Y33387D01*
X60944Y33887D01*
X61278Y34554D01*
X61722Y35332D01*
X62277Y36220D01*
X62889Y37109D01*
X63666Y38054D01*
Y38109D01*
X63777Y38165D01*
X64055Y38498D01*
X64555Y38998D01*
X65277Y39720D01*
X66111Y40553D01*
X67166Y41553D01*
X68444Y42664D01*
X69832Y43831D01*
X69888Y43886D01*
X70110Y44053D01*
X70443Y44331D01*
X70832Y44664D01*
X71332Y45108D01*
X71943Y45608D01*
X72554Y46164D01*
X73276Y46775D01*
X74665Y48108D01*
X76054Y49441D01*
X76720Y50108D01*
X77332Y50774D01*
X77887Y51385D01*
X78331Y51997D01*
Y52052D01*
X78443Y52108D01*
X78554Y52274D01*
X78665Y52497D01*
X79054Y53108D01*
X79498Y53830D01*
X79887Y54718D01*
X80276Y55663D01*
X80498Y56718D01*
X80609Y57718D01*
Y57774D01*
Y57829D01*
X80553Y58163D01*
X80498Y58718D01*
X80331Y59329D01*
X80109Y60107D01*
X79720Y60884D01*
X79220Y61662D01*
X78554Y62440D01*
X78443Y62551D01*
X78165Y62773D01*
X77776Y63051D01*
X77165Y63440D01*
X76387Y63773D01*
X75498Y64106D01*
X74443Y64329D01*
X73276Y64384D01*
X72943D01*
X72721Y64329D01*
X72054Y64273D01*
X71277Y64106D01*
X70443Y63884D01*
X69499Y63495D01*
X68610Y62995D01*
X67777Y62329D01*
X67666Y62218D01*
X67444Y61940D01*
X67110Y61496D01*
X66777Y60829D01*
X66388Y60051D01*
X66055Y59051D01*
X65833Y57940D01*
X65722Y56663D01*
X60889Y57163D01*
Y57218D01*
X60944Y57385D01*
Y57663D01*
X61000Y58052D01*
X61111Y58496D01*
X61222Y58996D01*
X61389Y59607D01*
X61555Y60218D01*
X62000Y61551D01*
X62666Y62884D01*
X63055Y63551D01*
X63555Y64218D01*
X64055Y64829D01*
X64611Y65384D01*
X64666Y65440D01*
X64777Y65495D01*
X64944Y65662D01*
X65222Y65828D01*
X65555Y66051D01*
X65944Y66273D01*
X66388Y66551D01*
X66944Y66828D01*
X67555Y67106D01*
X68221Y67384D01*
X68944Y67606D01*
X69721Y67828D01*
X70554Y67995D01*
X71443Y68162D01*
X72388Y68217D01*
X73387Y68273D01*
X73943D01*
X74332Y68217D01*
D02*
G37*
G36*
X104218D02*
X104940Y68106D01*
X105773Y67939D01*
X106662Y67717D01*
X107606Y67439D01*
X108495Y66995D01*
X108551D01*
X108606Y66940D01*
X108884Y66773D01*
X109328Y66495D01*
X109884Y66106D01*
X110495Y65551D01*
X111161Y64940D01*
X111772Y64218D01*
X112383Y63384D01*
X112439Y63273D01*
X112661Y62995D01*
X112883Y62495D01*
X113272Y61773D01*
X113606Y60940D01*
X114050Y59996D01*
X114439Y58885D01*
X114772Y57663D01*
Y57607D01*
X114828Y57496D01*
X114883Y57329D01*
X114939Y57052D01*
X114994Y56718D01*
X115050Y56329D01*
X115161Y55830D01*
X115217Y55274D01*
X115328Y54663D01*
X115383Y53996D01*
X115439Y53219D01*
X115550Y52441D01*
X115605Y51552D01*
Y50663D01*
X115661Y49664D01*
Y48608D01*
Y48552D01*
Y48330D01*
Y47941D01*
Y47497D01*
X115605Y46886D01*
Y46219D01*
X115550Y45497D01*
X115494Y44720D01*
X115328Y42942D01*
X115050Y41109D01*
X114717Y39331D01*
X114494Y38498D01*
X114217Y37665D01*
Y37609D01*
X114161Y37498D01*
X114050Y37276D01*
X113939Y36998D01*
X113828Y36609D01*
X113606Y36220D01*
X113161Y35276D01*
X112606Y34276D01*
X111883Y33165D01*
X111050Y32165D01*
X110050Y31221D01*
X109995D01*
X109939Y31110D01*
X109773Y30999D01*
X109550Y30888D01*
X109273Y30721D01*
X108995Y30499D01*
X108162Y30110D01*
X107162Y29721D01*
X105995Y29332D01*
X104607Y29110D01*
X103107Y28999D01*
X102551D01*
X102162Y29055D01*
X101718Y29110D01*
X101162Y29221D01*
X100551Y29332D01*
X99885Y29499D01*
X99218Y29721D01*
X98496Y29943D01*
X97774Y30277D01*
X97052Y30665D01*
X96330Y31110D01*
X95607Y31665D01*
X94941Y32276D01*
X94330Y32943D01*
X94274Y32998D01*
X94163Y33165D01*
X93996Y33443D01*
X93719Y33887D01*
X93441Y34387D01*
X93163Y35054D01*
X92774Y35832D01*
X92441Y36720D01*
X92108Y37720D01*
X91775Y38887D01*
X91441Y40164D01*
X91163Y41609D01*
X90886Y43164D01*
X90719Y44831D01*
X90608Y46664D01*
X90552Y48608D01*
Y48664D01*
Y48886D01*
Y49275D01*
Y49719D01*
X90608Y50330D01*
Y50997D01*
X90663Y51719D01*
X90719Y52552D01*
X90886Y54274D01*
X91163Y56107D01*
X91497Y57940D01*
X91719Y58774D01*
X91941Y59607D01*
Y59662D01*
X91997Y59774D01*
X92108Y59996D01*
X92219Y60273D01*
X92330Y60662D01*
X92552Y61051D01*
X92997Y61996D01*
X93552Y62995D01*
X94274Y64051D01*
X95107Y65106D01*
X96107Y65995D01*
X96163D01*
X96219Y66106D01*
X96385Y66217D01*
X96607Y66328D01*
X96885Y66551D01*
X97218Y66717D01*
X98052Y67162D01*
X99052Y67551D01*
X100218Y67939D01*
X101607Y68162D01*
X103107Y68273D01*
X103607D01*
X104218Y68217D01*
D02*
G37*
G36*
X223536Y49000D02*
X222358D01*
Y56503D01*
X222344Y56489D01*
X222274Y56434D01*
X222191Y56350D01*
X222052Y56253D01*
X221900Y56128D01*
X221706Y55990D01*
X221484Y55837D01*
X221234Y55685D01*
X221220D01*
X221206Y55671D01*
X221123Y55615D01*
X220985Y55546D01*
X220818Y55463D01*
X220624Y55366D01*
X220416Y55269D01*
X220208Y55171D01*
X220000Y55088D01*
Y56225D01*
X220014D01*
X220042Y56253D01*
X220097Y56267D01*
X220166Y56309D01*
X220250Y56350D01*
X220347Y56406D01*
X220583Y56544D01*
X220860Y56697D01*
X221137Y56891D01*
X221428Y57113D01*
X221720Y57349D01*
X221733Y57363D01*
X221747Y57376D01*
X221789Y57418D01*
X221845Y57460D01*
X221969Y57598D01*
X222136Y57765D01*
X222302Y57959D01*
X222482Y58181D01*
X222635Y58403D01*
X222774Y58639D01*
X223536D01*
Y49000D01*
D02*
G37*
G36*
X158036Y175930D02*
X156858D01*
Y183433D01*
X156844Y183419D01*
X156774Y183364D01*
X156691Y183281D01*
X156552Y183183D01*
X156400Y183059D01*
X156206Y182920D01*
X155984Y182768D01*
X155734Y182615D01*
X155720D01*
X155707Y182601D01*
X155623Y182546D01*
X155485Y182476D01*
X155318Y182393D01*
X155124Y182296D01*
X154916Y182199D01*
X154708Y182102D01*
X154500Y182019D01*
Y183156D01*
X154514D01*
X154542Y183183D01*
X154597Y183197D01*
X154666Y183239D01*
X154750Y183281D01*
X154847Y183336D01*
X155083Y183475D01*
X155360Y183627D01*
X155637Y183822D01*
X155928Y184043D01*
X156220Y184279D01*
X156234Y184293D01*
X156247Y184307D01*
X156289Y184349D01*
X156344Y184390D01*
X156469Y184529D01*
X156636Y184695D01*
X156802Y184889D01*
X156982Y185111D01*
X157135Y185333D01*
X157274Y185569D01*
X158036D01*
Y175930D01*
D02*
G37*
%LPC*%
G36*
X389032Y244124D02*
X388948D01*
X388893Y244110D01*
X388740Y244083D01*
X388560Y244041D01*
X388352Y243958D01*
X388130Y243833D01*
X388019Y243750D01*
X387908Y243666D01*
X387811Y243556D01*
X387714Y243431D01*
Y243417D01*
X387686Y243389D01*
X387659Y243334D01*
X387617Y243264D01*
X387575Y243153D01*
X387520Y243029D01*
X387478Y242876D01*
X387423Y242696D01*
X387367Y242488D01*
X387312Y242252D01*
X387256Y241988D01*
X387215Y241697D01*
X387173Y241364D01*
X387146Y241004D01*
X387132Y240616D01*
X387118Y240186D01*
Y240158D01*
Y240089D01*
Y239964D01*
X387132Y239797D01*
Y239617D01*
X387146Y239395D01*
X387159Y239159D01*
X387187Y238910D01*
X387256Y238369D01*
X387298Y238105D01*
X387354Y237856D01*
X387409Y237620D01*
X387492Y237398D01*
X387575Y237204D01*
X387673Y237037D01*
Y237024D01*
X387700Y237010D01*
X387770Y236913D01*
X387894Y236788D01*
X388047Y236649D01*
X388255Y236510D01*
X388491Y236386D01*
X388754Y236289D01*
X388893Y236275D01*
X389045Y236261D01*
X389129D01*
X389184Y236275D01*
X389323Y236302D01*
X389517Y236358D01*
X389725Y236455D01*
X389961Y236594D01*
X390072Y236677D01*
X390183Y236788D01*
X390294Y236899D01*
X390405Y237037D01*
Y237051D01*
X390432Y237079D01*
X390460Y237121D01*
X390488Y237190D01*
X390543Y237287D01*
X390585Y237412D01*
X390640Y237551D01*
X390696Y237717D01*
X390737Y237925D01*
X390793Y238147D01*
X390848Y238410D01*
X390890Y238688D01*
X390918Y239021D01*
X390945Y239367D01*
X390973Y239756D01*
Y240186D01*
Y240199D01*
Y240213D01*
Y240283D01*
Y240407D01*
X390959Y240574D01*
Y240754D01*
X390945Y240976D01*
X390932Y241212D01*
X390904Y241475D01*
X390835Y242002D01*
X390793Y242266D01*
X390737Y242515D01*
X390682Y242751D01*
X390599Y242973D01*
X390516Y243167D01*
X390418Y243334D01*
Y243347D01*
X390391Y243361D01*
X390363Y243403D01*
X390321Y243458D01*
X390196Y243583D01*
X390044Y243736D01*
X389836Y243874D01*
X389600Y243999D01*
X389475Y244055D01*
X389337Y244096D01*
X389184Y244110D01*
X389032Y244124D01*
D02*
G37*
G36*
X388144Y184764D02*
X387922D01*
X387867Y184751D01*
X387714Y184737D01*
X387534Y184681D01*
X387312Y184612D01*
X387076Y184487D01*
X386840Y184335D01*
X386729Y184224D01*
X386618Y184113D01*
Y184099D01*
X386591Y184085D01*
X386563Y184043D01*
X386535Y184002D01*
X386438Y183863D01*
X386341Y183669D01*
X386230Y183433D01*
X386133Y183142D01*
X386078Y182809D01*
X386050Y182449D01*
Y182435D01*
Y182407D01*
Y182365D01*
X386064Y182296D01*
Y182213D01*
X386078Y182129D01*
X386119Y181922D01*
X386189Y181686D01*
X386272Y181436D01*
X386410Y181187D01*
X386591Y180965D01*
X386618Y180937D01*
X386688Y180881D01*
X386813Y180784D01*
X386965Y180687D01*
X387173Y180576D01*
X387409Y180479D01*
X387673Y180424D01*
X387964Y180396D01*
X388047D01*
X388102Y180410D01*
X388255Y180424D01*
X388435Y180465D01*
X388657Y180535D01*
X388879Y180632D01*
X389101Y180770D01*
X389309Y180965D01*
X389337Y180992D01*
X389392Y181075D01*
X389475Y181200D01*
X389586Y181381D01*
X389683Y181602D01*
X389767Y181866D01*
X389822Y182185D01*
X389850Y182546D01*
Y182560D01*
Y182587D01*
Y182643D01*
X389836Y182712D01*
Y182809D01*
X389822Y182906D01*
X389781Y183128D01*
X389725Y183392D01*
X389628Y183669D01*
X389489Y183932D01*
X389309Y184168D01*
Y184182D01*
X389281Y184196D01*
X389212Y184265D01*
X389101Y184362D01*
X388948Y184473D01*
X388754Y184570D01*
X388532Y184667D01*
X388283Y184737D01*
X388144Y184764D01*
D02*
G37*
G36*
X361992Y244124D02*
X361880D01*
X361756Y244096D01*
X361589Y244069D01*
X361409Y244013D01*
X361215Y243944D01*
X361035Y243833D01*
X360854Y243680D01*
X360840Y243666D01*
X360785Y243611D01*
X360716Y243514D01*
X360646Y243389D01*
X360563Y243237D01*
X360494Y243056D01*
X360438Y242862D01*
X360424Y242640D01*
Y242626D01*
Y242612D01*
X360438Y242529D01*
X360452Y242404D01*
X360480Y242252D01*
X360535Y242072D01*
X360605Y241891D01*
X360716Y241697D01*
X360854Y241531D01*
X360868Y241517D01*
X360938Y241461D01*
X361035Y241392D01*
X361159Y241323D01*
X361326Y241239D01*
X361520Y241170D01*
X361742Y241115D01*
X361992Y241101D01*
X362019D01*
X362102Y241115D01*
X362227Y241129D01*
X362394Y241156D01*
X362574Y241212D01*
X362754Y241281D01*
X362948Y241392D01*
X363115Y241531D01*
X363129Y241545D01*
X363184Y241614D01*
X363254Y241697D01*
X363337Y241822D01*
X363420Y241975D01*
X363489Y242155D01*
X363545Y242363D01*
X363559Y242585D01*
Y242599D01*
Y242612D01*
Y242696D01*
X363531Y242820D01*
X363503Y242973D01*
X363448Y243139D01*
X363364Y243320D01*
X363254Y243500D01*
X363101Y243680D01*
X363087Y243694D01*
X363018Y243750D01*
X362921Y243819D01*
X362796Y243902D01*
X362629Y243986D01*
X362449Y244055D01*
X362227Y244110D01*
X361992Y244124D01*
D02*
G37*
G36*
X361950Y240144D02*
X361867D01*
X361811Y240130D01*
X361659Y240116D01*
X361465Y240075D01*
X361243Y240005D01*
X361021Y239908D01*
X360785Y239769D01*
X360577Y239589D01*
X360549Y239562D01*
X360494Y239492D01*
X360410Y239367D01*
X360313Y239215D01*
X360202Y239007D01*
X360119Y238771D01*
X360064Y238507D01*
X360036Y238216D01*
Y238188D01*
Y238133D01*
X360050Y238036D01*
X360064Y237911D01*
X360092Y237759D01*
X360133Y237592D01*
X360189Y237426D01*
X360258Y237245D01*
X360272Y237232D01*
X360299Y237162D01*
X360355Y237079D01*
X360438Y236982D01*
X360535Y236857D01*
X360660Y236732D01*
X360799Y236621D01*
X360965Y236510D01*
X360993Y236497D01*
X361048Y236469D01*
X361146Y236427D01*
X361270Y236386D01*
X361423Y236344D01*
X361603Y236302D01*
X361797Y236275D01*
X361992Y236261D01*
X362075D01*
X362130Y236275D01*
X362297Y236289D01*
X362491Y236330D01*
X362713Y236399D01*
X362948Y236483D01*
X363170Y236621D01*
X363392Y236802D01*
X363420Y236829D01*
X363475Y236899D01*
X363573Y237024D01*
X363670Y237176D01*
X363767Y237370D01*
X363864Y237606D01*
X363919Y237883D01*
X363947Y238175D01*
Y238188D01*
Y238216D01*
Y238258D01*
X363933Y238313D01*
X363919Y238466D01*
X363878Y238674D01*
X363808Y238882D01*
X363711Y239118D01*
X363573Y239353D01*
X363378Y239575D01*
X363351Y239603D01*
X363281Y239659D01*
X363156Y239756D01*
X362990Y239867D01*
X362782Y239964D01*
X362532Y240061D01*
X362255Y240116D01*
X361950Y240144D01*
D02*
G37*
G36*
X335561Y240643D02*
X335478D01*
X335422Y240629D01*
X335284Y240616D01*
X335089Y240574D01*
X334881Y240504D01*
X334646Y240394D01*
X334424Y240255D01*
X334202Y240061D01*
X334174Y240033D01*
X334118Y239964D01*
X334021Y239839D01*
X333924Y239659D01*
X333827Y239450D01*
X333730Y239187D01*
X333675Y238896D01*
X333647Y238563D01*
Y238535D01*
Y238466D01*
X333661Y238341D01*
X333675Y238188D01*
X333703Y238008D01*
X333758Y237814D01*
X333813Y237606D01*
X333897Y237398D01*
X333910Y237370D01*
X333952Y237301D01*
X334008Y237204D01*
X334091Y237079D01*
X334188Y236954D01*
X334313Y236802D01*
X334451Y236677D01*
X334618Y236552D01*
X334646Y236538D01*
X334701Y236510D01*
X334798Y236455D01*
X334923Y236413D01*
X335062Y236358D01*
X335228Y236302D01*
X335408Y236275D01*
X335602Y236261D01*
X335672D01*
X335727Y236275D01*
X335866Y236289D01*
X336046Y236330D01*
X336240Y236413D01*
X336462Y236510D01*
X336684Y236663D01*
X336795Y236746D01*
X336892Y236857D01*
Y236871D01*
X336920Y236885D01*
X336975Y236968D01*
X337059Y237107D01*
X337170Y237287D01*
X337267Y237523D01*
X337350Y237800D01*
X337405Y238119D01*
X337433Y238494D01*
Y238507D01*
Y238535D01*
Y238591D01*
X337419Y238660D01*
Y238743D01*
X337405Y238840D01*
X337364Y239062D01*
X337308Y239312D01*
X337211Y239575D01*
X337072Y239825D01*
X336892Y240061D01*
X336865Y240089D01*
X336795Y240158D01*
X336684Y240241D01*
X336532Y240352D01*
X336338Y240463D01*
X336116Y240546D01*
X335852Y240616D01*
X335561Y240643D01*
D02*
G37*
G36*
X314116Y242973D02*
X311092Y238674D01*
X314116D01*
Y242973D01*
D02*
G37*
G36*
X261604Y244124D02*
X261521D01*
X261466Y244110D01*
X261313Y244083D01*
X261133Y244041D01*
X260925Y243958D01*
X260703Y243833D01*
X260592Y243750D01*
X260481Y243666D01*
X260384Y243556D01*
X260287Y243431D01*
Y243417D01*
X260259Y243389D01*
X260231Y243334D01*
X260190Y243264D01*
X260148Y243153D01*
X260093Y243029D01*
X260051Y242876D01*
X259996Y242696D01*
X259940Y242488D01*
X259885Y242252D01*
X259829Y241988D01*
X259788Y241697D01*
X259746Y241364D01*
X259718Y241004D01*
X259704Y240616D01*
X259690Y240186D01*
Y240158D01*
Y240089D01*
Y239964D01*
X259704Y239797D01*
Y239617D01*
X259718Y239395D01*
X259732Y239159D01*
X259760Y238910D01*
X259829Y238369D01*
X259871Y238105D01*
X259926Y237856D01*
X259982Y237620D01*
X260065Y237398D01*
X260148Y237204D01*
X260245Y237037D01*
Y237024D01*
X260273Y237010D01*
X260342Y236913D01*
X260467Y236788D01*
X260620Y236649D01*
X260828Y236510D01*
X261063Y236386D01*
X261327Y236289D01*
X261466Y236275D01*
X261618Y236261D01*
X261701D01*
X261757Y236275D01*
X261896Y236302D01*
X262090Y236358D01*
X262298Y236455D01*
X262533Y236594D01*
X262644Y236677D01*
X262755Y236788D01*
X262866Y236899D01*
X262977Y237037D01*
Y237051D01*
X263005Y237079D01*
X263033Y237121D01*
X263060Y237190D01*
X263116Y237287D01*
X263158Y237412D01*
X263213Y237551D01*
X263269Y237717D01*
X263310Y237925D01*
X263366Y238147D01*
X263421Y238410D01*
X263463Y238688D01*
X263490Y239021D01*
X263518Y239367D01*
X263546Y239756D01*
Y240186D01*
Y240199D01*
Y240213D01*
Y240283D01*
Y240407D01*
X263532Y240574D01*
Y240754D01*
X263518Y240976D01*
X263504Y241212D01*
X263477Y241475D01*
X263407Y242002D01*
X263366Y242266D01*
X263310Y242515D01*
X263255Y242751D01*
X263171Y242973D01*
X263088Y243167D01*
X262991Y243334D01*
Y243347D01*
X262963Y243361D01*
X262936Y243403D01*
X262894Y243458D01*
X262769Y243583D01*
X262617Y243736D01*
X262409Y243874D01*
X262173Y243999D01*
X262048Y244055D01*
X261909Y244096D01*
X261757Y244110D01*
X261604Y244124D01*
D02*
G37*
G36*
X259801Y184764D02*
X259579D01*
X259523Y184751D01*
X259371Y184737D01*
X259191Y184681D01*
X258969Y184612D01*
X258733Y184487D01*
X258497Y184335D01*
X258386Y184224D01*
X258275Y184113D01*
Y184099D01*
X258247Y184085D01*
X258220Y184043D01*
X258192Y184002D01*
X258095Y183863D01*
X257998Y183669D01*
X257887Y183433D01*
X257790Y183142D01*
X257734Y182809D01*
X257707Y182449D01*
Y182435D01*
Y182407D01*
Y182365D01*
X257720Y182296D01*
Y182213D01*
X257734Y182129D01*
X257776Y181922D01*
X257845Y181686D01*
X257928Y181436D01*
X258067Y181187D01*
X258247Y180965D01*
X258275Y180937D01*
X258344Y180881D01*
X258469Y180784D01*
X258622Y180687D01*
X258830Y180576D01*
X259066Y180479D01*
X259329Y180424D01*
X259620Y180396D01*
X259704D01*
X259759Y180410D01*
X259912Y180424D01*
X260092Y180465D01*
X260314Y180535D01*
X260536Y180632D01*
X260758Y180770D01*
X260966Y180965D01*
X260993Y180992D01*
X261049Y181075D01*
X261132Y181200D01*
X261243Y181381D01*
X261340Y181602D01*
X261423Y181866D01*
X261479Y182185D01*
X261507Y182546D01*
Y182560D01*
Y182587D01*
Y182643D01*
X261493Y182712D01*
Y182809D01*
X261479Y182906D01*
X261437Y183128D01*
X261382Y183392D01*
X261285Y183669D01*
X261146Y183932D01*
X260966Y184168D01*
Y184182D01*
X260938Y184196D01*
X260868Y184265D01*
X260758Y184362D01*
X260605Y184473D01*
X260411Y184570D01*
X260189Y184667D01*
X259939Y184737D01*
X259801Y184764D01*
D02*
G37*
G36*
X232086Y244124D02*
X231975D01*
X231851Y244096D01*
X231684Y244069D01*
X231504Y244013D01*
X231310Y243944D01*
X231129Y243833D01*
X230949Y243680D01*
X230935Y243666D01*
X230880Y243611D01*
X230811Y243514D01*
X230741Y243389D01*
X230658Y243237D01*
X230589Y243056D01*
X230533Y242862D01*
X230519Y242640D01*
Y242626D01*
Y242612D01*
X230533Y242529D01*
X230547Y242404D01*
X230575Y242252D01*
X230630Y242072D01*
X230700Y241891D01*
X230811Y241697D01*
X230949Y241531D01*
X230963Y241517D01*
X231032Y241461D01*
X231129Y241392D01*
X231254Y241323D01*
X231421Y241239D01*
X231615Y241170D01*
X231837Y241115D01*
X232086Y241101D01*
X232114D01*
X232197Y241115D01*
X232322Y241129D01*
X232488Y241156D01*
X232669Y241212D01*
X232849Y241281D01*
X233043Y241392D01*
X233210Y241531D01*
X233224Y241545D01*
X233279Y241614D01*
X233348Y241697D01*
X233432Y241822D01*
X233515Y241975D01*
X233584Y242155D01*
X233640Y242363D01*
X233654Y242585D01*
Y242599D01*
Y242612D01*
Y242696D01*
X233626Y242820D01*
X233598Y242973D01*
X233542Y243139D01*
X233459Y243320D01*
X233348Y243500D01*
X233196Y243680D01*
X233182Y243694D01*
X233113Y243750D01*
X233015Y243819D01*
X232891Y243902D01*
X232724Y243986D01*
X232544Y244055D01*
X232322Y244110D01*
X232086Y244124D01*
D02*
G37*
G36*
X232045Y240144D02*
X231961D01*
X231906Y240130D01*
X231754Y240116D01*
X231559Y240075D01*
X231338Y240005D01*
X231116Y239908D01*
X230880Y239769D01*
X230672Y239589D01*
X230644Y239562D01*
X230589Y239492D01*
X230505Y239367D01*
X230408Y239215D01*
X230297Y239007D01*
X230214Y238771D01*
X230159Y238507D01*
X230131Y238216D01*
Y238188D01*
Y238133D01*
X230145Y238036D01*
X230159Y237911D01*
X230186Y237759D01*
X230228Y237592D01*
X230284Y237426D01*
X230353Y237245D01*
X230367Y237232D01*
X230394Y237162D01*
X230450Y237079D01*
X230533Y236982D01*
X230630Y236857D01*
X230755Y236732D01*
X230894Y236621D01*
X231060Y236510D01*
X231088Y236497D01*
X231143Y236469D01*
X231240Y236427D01*
X231365Y236386D01*
X231518Y236344D01*
X231698Y236302D01*
X231892Y236275D01*
X232086Y236261D01*
X232170D01*
X232225Y236275D01*
X232391Y236289D01*
X232586Y236330D01*
X232808Y236399D01*
X233043Y236483D01*
X233265Y236621D01*
X233487Y236802D01*
X233515Y236829D01*
X233570Y236899D01*
X233667Y237024D01*
X233764Y237176D01*
X233862Y237370D01*
X233959Y237606D01*
X234014Y237883D01*
X234042Y238175D01*
Y238188D01*
Y238216D01*
Y238258D01*
X234028Y238313D01*
X234014Y238466D01*
X233972Y238674D01*
X233903Y238882D01*
X233806Y239118D01*
X233667Y239353D01*
X233473Y239575D01*
X233445Y239603D01*
X233376Y239659D01*
X233251Y239756D01*
X233085Y239867D01*
X232877Y239964D01*
X232627Y240061D01*
X232350Y240116D01*
X232045Y240144D01*
D02*
G37*
G36*
X207611Y240643D02*
X207528D01*
X207473Y240629D01*
X207334Y240616D01*
X207140Y240574D01*
X206932Y240504D01*
X206696Y240394D01*
X206474Y240255D01*
X206252Y240061D01*
X206224Y240033D01*
X206169Y239964D01*
X206072Y239839D01*
X205975Y239659D01*
X205878Y239450D01*
X205781Y239187D01*
X205725Y238896D01*
X205697Y238563D01*
Y238535D01*
Y238466D01*
X205711Y238341D01*
X205725Y238188D01*
X205753Y238008D01*
X205808Y237814D01*
X205864Y237606D01*
X205947Y237398D01*
X205961Y237370D01*
X206003Y237301D01*
X206058Y237204D01*
X206141Y237079D01*
X206238Y236954D01*
X206363Y236802D01*
X206502Y236677D01*
X206668Y236552D01*
X206696Y236538D01*
X206751Y236510D01*
X206849Y236455D01*
X206973Y236413D01*
X207112Y236358D01*
X207278Y236302D01*
X207459Y236275D01*
X207653Y236261D01*
X207722D01*
X207778Y236275D01*
X207916Y236289D01*
X208097Y236330D01*
X208291Y236413D01*
X208513Y236510D01*
X208735Y236663D01*
X208846Y236746D01*
X208943Y236857D01*
Y236871D01*
X208970Y236885D01*
X209026Y236968D01*
X209109Y237107D01*
X209220Y237287D01*
X209317Y237523D01*
X209400Y237800D01*
X209456Y238119D01*
X209484Y238494D01*
Y238507D01*
Y238535D01*
Y238591D01*
X209470Y238660D01*
Y238743D01*
X209456Y238840D01*
X209414Y239062D01*
X209359Y239312D01*
X209262Y239575D01*
X209123Y239825D01*
X208943Y240061D01*
X208915Y240089D01*
X208846Y240158D01*
X208735Y240241D01*
X208582Y240352D01*
X208388Y240463D01*
X208166Y240546D01*
X207903Y240616D01*
X207611Y240643D01*
D02*
G37*
G36*
X327356Y149368D02*
X320875Y148905D01*
X320412D01*
X319949Y148442D01*
Y132702D01*
Y132239D01*
X327819D01*
X329671Y132702D01*
X331522Y133165D01*
X333374Y134554D01*
X333837Y135017D01*
X334763Y136406D01*
X335689Y138258D01*
X336152Y140572D01*
Y141035D01*
X335689Y142887D01*
X335226Y144739D01*
X333374Y146590D01*
X332911Y147053D01*
X331985Y147979D01*
X329671Y148905D01*
X327356Y149368D01*
D02*
G37*
G36*
X223657D02*
X216713Y148905D01*
X216250D01*
X215787Y148442D01*
Y132702D01*
X216250D01*
Y132239D01*
X224120D01*
X225509Y132702D01*
X227361Y133165D01*
X229213Y134554D01*
X229676Y135017D01*
X230601Y136406D01*
X231527Y138258D01*
X231990Y140572D01*
Y141035D01*
X231527Y142887D01*
X231064Y144739D01*
X229213Y146590D01*
X228750Y147053D01*
X227824Y147979D01*
X225972Y148905D01*
X223657Y149368D01*
D02*
G37*
G36*
X425962Y146590D02*
X425499D01*
X425036Y146128D01*
X419944Y125758D01*
Y125295D01*
X420407Y124832D01*
X430129D01*
Y125758D01*
X425962Y146128D01*
Y146590D01*
D02*
G37*
G36*
X321748Y57668D02*
X321665D01*
X321609Y57654D01*
X321457Y57626D01*
X321277Y57585D01*
X321068Y57501D01*
X320847Y57376D01*
X320736Y57293D01*
X320625Y57210D01*
X320528Y57099D01*
X320430Y56974D01*
Y56961D01*
X320403Y56933D01*
X320375Y56877D01*
X320333Y56808D01*
X320292Y56697D01*
X320236Y56572D01*
X320195Y56420D01*
X320139Y56239D01*
X320084Y56031D01*
X320028Y55795D01*
X319973Y55532D01*
X319931Y55241D01*
X319890Y54908D01*
X319862Y54547D01*
X319848Y54159D01*
X319834Y53729D01*
Y53701D01*
Y53632D01*
Y53507D01*
X319848Y53341D01*
Y53161D01*
X319862Y52939D01*
X319876Y52703D01*
X319904Y52453D01*
X319973Y51912D01*
X320014Y51649D01*
X320070Y51399D01*
X320125Y51164D01*
X320209Y50942D01*
X320292Y50747D01*
X320389Y50581D01*
Y50567D01*
X320417Y50553D01*
X320486Y50456D01*
X320611Y50331D01*
X320763Y50193D01*
X320971Y50054D01*
X321207Y49929D01*
X321471Y49832D01*
X321609Y49818D01*
X321762Y49804D01*
X321845D01*
X321901Y49818D01*
X322039Y49846D01*
X322233Y49901D01*
X322441Y49998D01*
X322677Y50137D01*
X322788Y50220D01*
X322899Y50331D01*
X323010Y50442D01*
X323121Y50581D01*
Y50595D01*
X323149Y50623D01*
X323176Y50664D01*
X323204Y50734D01*
X323260Y50831D01*
X323301Y50955D01*
X323357Y51094D01*
X323412Y51261D01*
X323454Y51469D01*
X323509Y51691D01*
X323565Y51954D01*
X323606Y52231D01*
X323634Y52564D01*
X323662Y52911D01*
X323690Y53299D01*
Y53729D01*
Y53743D01*
Y53757D01*
Y53826D01*
Y53951D01*
X323676Y54117D01*
Y54298D01*
X323662Y54520D01*
X323648Y54755D01*
X323620Y55019D01*
X323551Y55546D01*
X323509Y55809D01*
X323454Y56059D01*
X323398Y56295D01*
X323315Y56517D01*
X323232Y56711D01*
X323135Y56877D01*
Y56891D01*
X323107Y56905D01*
X323079Y56947D01*
X323038Y57002D01*
X322913Y57127D01*
X322760Y57279D01*
X322552Y57418D01*
X322317Y57543D01*
X322192Y57598D01*
X322053Y57640D01*
X321901Y57654D01*
X321748Y57668D01*
D02*
G37*
G36*
X182142Y242973D02*
X179119Y238674D01*
X182142D01*
Y242973D01*
D02*
G37*
G36*
X441788Y45517D02*
X438752Y45517D01*
Y41666D01*
X441900Y41666D01*
X442140Y41684D01*
X442400Y41703D01*
X442659Y41721D01*
X442918Y41758D01*
X443122Y41796D01*
X443159Y41814D01*
X443233Y41832D01*
X443344Y41888D01*
X443492Y41962D01*
X443640Y42036D01*
X443807Y42147D01*
X443974Y42295D01*
X444103Y42444D01*
X444122Y42462D01*
X444159Y42518D01*
X444214Y42629D01*
X444270Y42758D01*
X444325Y42906D01*
X444381Y43092D01*
X444418Y43314D01*
X444436Y43555D01*
Y43592D01*
Y43666D01*
X444418Y43777D01*
X444399Y43925D01*
X444362Y44110D01*
X444307Y44295D01*
X444233Y44480D01*
X444122Y44666D01*
X444103Y44684D01*
X444066Y44740D01*
X443992Y44832D01*
X443899Y44925D01*
X443770Y45036D01*
X443622Y45147D01*
X443437Y45258D01*
X443233Y45332D01*
X443214D01*
X443122Y45369D01*
X442992Y45388D01*
X442788Y45425D01*
X442511Y45462D01*
X442196Y45480D01*
X441788Y45517D01*
D02*
G37*
G36*
X442122Y40148D02*
X438752Y40148D01*
Y35740D01*
X442400Y35741D01*
X442788Y35759D01*
X442955Y35778D01*
X443103Y35796D01*
X443122D01*
X443196Y35815D01*
X443307Y35833D01*
X443437Y35870D01*
X443751Y35981D01*
X444066Y36129D01*
X444085Y36148D01*
X444140Y36185D01*
X444214Y36240D01*
X444307Y36315D01*
X444399Y36426D01*
X444529Y36537D01*
X444622Y36685D01*
X444733Y36852D01*
X444751Y36870D01*
X444770Y36926D01*
X444807Y37037D01*
X444862Y37166D01*
X444918Y37315D01*
X444955Y37500D01*
X444973Y37722D01*
X444992Y37944D01*
Y37981D01*
Y38055D01*
X444973Y38203D01*
X444936Y38370D01*
X444899Y38555D01*
X444825Y38759D01*
X444733Y38963D01*
X444603Y39166D01*
X444585Y39185D01*
X444529Y39259D01*
X444455Y39351D01*
X444344Y39462D01*
X444196Y39592D01*
X444011Y39722D01*
X443807Y39833D01*
X443566Y39925D01*
X443529Y39944D01*
X443455Y39962D01*
X443288Y39999D01*
X443085Y40036D01*
X442826Y40073D01*
X442511Y40111D01*
X442122Y40148D01*
D02*
G37*
G36*
X454676Y45795D02*
X454509D01*
X454380Y45777D01*
X454213Y45758D01*
X454047Y45721D01*
X453843Y45684D01*
X453621Y45647D01*
X453139Y45499D01*
X452880Y45388D01*
X452621Y45277D01*
X452343Y45128D01*
X452084Y44962D01*
X451824Y44777D01*
X451584Y44555D01*
X451565Y44536D01*
X451528Y44499D01*
X451473Y44425D01*
X451380Y44314D01*
X451287Y44184D01*
X451176Y44018D01*
X451065Y43814D01*
X450936Y43573D01*
X450825Y43314D01*
X450695Y42999D01*
X450584Y42666D01*
X450491Y42295D01*
X450399Y41888D01*
X450343Y41425D01*
X450306Y40944D01*
X450288Y40425D01*
Y40407D01*
Y40333D01*
Y40203D01*
X450306Y40036D01*
X450325Y39851D01*
X450362Y39629D01*
X450399Y39370D01*
X450436Y39111D01*
X450584Y38518D01*
X450695Y38222D01*
X450806Y37907D01*
X450954Y37611D01*
X451121Y37315D01*
X451306Y37037D01*
X451528Y36778D01*
X451547Y36759D01*
X451584Y36722D01*
X451658Y36648D01*
X451750Y36574D01*
X451880Y36463D01*
X452028Y36352D01*
X452195Y36240D01*
X452380Y36111D01*
X452602Y35981D01*
X452843Y35870D01*
X453102Y35759D01*
X453380Y35648D01*
X453676Y35574D01*
X453972Y35500D01*
X454306Y35463D01*
X454658Y35444D01*
X454750D01*
X454843Y35463D01*
X454972D01*
X455139Y35481D01*
X455324Y35518D01*
X455546Y35555D01*
X455769Y35611D01*
X456028Y35685D01*
X456269Y35778D01*
X456546Y35870D01*
X456805Y36000D01*
X457065Y36167D01*
X457324Y36333D01*
X457583Y36537D01*
X457824Y36778D01*
X457842Y36796D01*
X457879Y36833D01*
X457935Y36926D01*
X458028Y37037D01*
X458120Y37166D01*
X458213Y37333D01*
X458324Y37537D01*
X458453Y37759D01*
X458565Y38018D01*
X458676Y38314D01*
X458768Y38629D01*
X458879Y38963D01*
X458953Y39333D01*
X459009Y39740D01*
X459046Y40166D01*
X459064Y40610D01*
Y40629D01*
Y40684D01*
Y40759D01*
Y40870D01*
X459046Y40999D01*
Y41166D01*
X459027Y41333D01*
X458990Y41536D01*
X458935Y41962D01*
X458842Y42407D01*
X458713Y42888D01*
X458527Y43332D01*
Y43351D01*
X458509Y43388D01*
X458472Y43443D01*
X458435Y43517D01*
X458305Y43740D01*
X458139Y43999D01*
X457916Y44295D01*
X457639Y44591D01*
X457324Y44888D01*
X456972Y45147D01*
X456954D01*
X456935Y45184D01*
X456880Y45203D01*
X456787Y45258D01*
X456694Y45295D01*
X456583Y45351D01*
X456306Y45480D01*
X455972Y45591D01*
X455583Y45703D01*
X455139Y45777D01*
X454676Y45795D01*
D02*
G37*
G36*
X384906Y45795D02*
X384794D01*
X384720Y45777D01*
X384517Y45739D01*
X384276Y45684D01*
X383998Y45573D01*
X383702Y45406D01*
X383554Y45295D01*
X383406Y45184D01*
X383276Y45036D01*
X383147Y44869D01*
Y44851D01*
X383109Y44814D01*
X383072Y44740D01*
X383017Y44647D01*
X382961Y44499D01*
X382887Y44332D01*
X382832Y44129D01*
X382758Y43888D01*
X382683Y43610D01*
X382609Y43295D01*
X382535Y42944D01*
X382480Y42555D01*
X382424Y42110D01*
X382387Y41629D01*
X382369Y41110D01*
X382350Y40536D01*
Y40499D01*
Y40407D01*
Y40240D01*
X382369Y40018D01*
Y39777D01*
X382387Y39481D01*
X382406Y39166D01*
X382443Y38833D01*
X382535Y38111D01*
X382591Y37759D01*
X382665Y37426D01*
X382739Y37111D01*
X382850Y36814D01*
X382961Y36555D01*
X383091Y36333D01*
Y36315D01*
X383128Y36296D01*
X383220Y36166D01*
X383387Y36000D01*
X383591Y35815D01*
X383869Y35629D01*
X384183Y35463D01*
X384535Y35333D01*
X384720Y35315D01*
X384924Y35296D01*
X385035D01*
X385109Y35315D01*
X385294Y35352D01*
X385554Y35426D01*
X385831Y35555D01*
X386146Y35740D01*
X386294Y35852D01*
X386442Y36000D01*
X386590Y36148D01*
X386739Y36333D01*
Y36352D01*
X386776Y36389D01*
X386813Y36444D01*
X386850Y36537D01*
X386924Y36666D01*
X386979Y36833D01*
X387053Y37018D01*
X387127Y37240D01*
X387183Y37518D01*
X387257Y37814D01*
X387331Y38166D01*
X387387Y38537D01*
X387424Y38981D01*
X387461Y39444D01*
X387498Y39962D01*
Y40536D01*
Y40555D01*
Y40573D01*
Y40666D01*
Y40833D01*
X387479Y41055D01*
Y41295D01*
X387461Y41592D01*
X387442Y41907D01*
X387405Y42258D01*
X387313Y42962D01*
X387257Y43314D01*
X387183Y43647D01*
X387109Y43962D01*
X386998Y44258D01*
X386887Y44517D01*
X386757Y44740D01*
Y44758D01*
X386720Y44777D01*
X386683Y44832D01*
X386628Y44906D01*
X386461Y45073D01*
X386257Y45277D01*
X385979Y45462D01*
X385665Y45628D01*
X385498Y45703D01*
X385313Y45758D01*
X385109Y45777D01*
X384906Y45795D01*
D02*
G37*
G36*
X468563Y64686D02*
X464897D01*
Y60113D01*
X468341D01*
X468471Y60131D01*
X468601D01*
X468749Y60150D01*
X469100Y60187D01*
X469489Y60261D01*
X469878Y60372D01*
X470230Y60520D01*
X470397Y60613D01*
X470526Y60724D01*
X470563Y60761D01*
X470637Y60835D01*
X470748Y60983D01*
X470878Y61168D01*
X471008Y61409D01*
X471119Y61705D01*
X471193Y62038D01*
X471230Y62427D01*
Y62446D01*
Y62464D01*
Y62557D01*
X471211Y62723D01*
X471174Y62909D01*
X471137Y63112D01*
X471063Y63353D01*
X470952Y63575D01*
X470823Y63797D01*
X470804Y63816D01*
X470748Y63890D01*
X470656Y63983D01*
X470545Y64112D01*
X470378Y64242D01*
X470193Y64353D01*
X469989Y64464D01*
X469749Y64556D01*
X469730D01*
X469656Y64575D01*
X469545Y64594D01*
X469397Y64631D01*
X469175Y64649D01*
X468897Y64668D01*
X468563Y64686D01*
D02*
G37*
G36*
X454880Y64964D02*
X454713D01*
X454584Y64945D01*
X454417Y64927D01*
X454250Y64890D01*
X454047Y64853D01*
X453824Y64816D01*
X453343Y64668D01*
X453084Y64556D01*
X452824Y64445D01*
X452547Y64297D01*
X452287Y64131D01*
X452028Y63945D01*
X451787Y63723D01*
X451769Y63705D01*
X451732Y63668D01*
X451676Y63594D01*
X451584Y63483D01*
X451491Y63353D01*
X451380Y63186D01*
X451269Y62983D01*
X451139Y62742D01*
X451028Y62483D01*
X450899Y62168D01*
X450788Y61835D01*
X450695Y61464D01*
X450602Y61057D01*
X450547Y60594D01*
X450510Y60113D01*
X450491Y59594D01*
Y59576D01*
Y59502D01*
Y59372D01*
X450510Y59205D01*
X450528Y59020D01*
X450565Y58798D01*
X450602Y58539D01*
X450639Y58279D01*
X450788Y57687D01*
X450899Y57391D01*
X451010Y57076D01*
X451158Y56780D01*
X451325Y56483D01*
X451510Y56206D01*
X451732Y55946D01*
X451750Y55928D01*
X451787Y55891D01*
X451862Y55817D01*
X451954Y55743D01*
X452084Y55631D01*
X452232Y55520D01*
X452398Y55409D01*
X452584Y55280D01*
X452806Y55150D01*
X453047Y55039D01*
X453306Y54928D01*
X453584Y54817D01*
X453880Y54743D01*
X454176Y54669D01*
X454509Y54632D01*
X454861Y54613D01*
X454954D01*
X455046Y54632D01*
X455176D01*
X455343Y54650D01*
X455528Y54687D01*
X455750Y54724D01*
X455972Y54780D01*
X456231Y54854D01*
X456472Y54946D01*
X456750Y55039D01*
X457009Y55169D01*
X457268Y55335D01*
X457528Y55502D01*
X457787Y55706D01*
X458028Y55946D01*
X458046Y55965D01*
X458083Y56002D01*
X458139Y56094D01*
X458231Y56206D01*
X458324Y56335D01*
X458416Y56502D01*
X458527Y56705D01*
X458657Y56928D01*
X458768Y57187D01*
X458879Y57483D01*
X458972Y57798D01*
X459083Y58131D01*
X459157Y58502D01*
X459213Y58909D01*
X459250Y59335D01*
X459268Y59779D01*
Y59798D01*
Y59853D01*
Y59927D01*
Y60038D01*
X459250Y60168D01*
Y60335D01*
X459231Y60501D01*
X459194Y60705D01*
X459139Y61131D01*
X459046Y61575D01*
X458916Y62057D01*
X458731Y62501D01*
Y62520D01*
X458713Y62557D01*
X458676Y62612D01*
X458639Y62686D01*
X458509Y62909D01*
X458342Y63168D01*
X458120Y63464D01*
X457842Y63760D01*
X457528Y64057D01*
X457176Y64316D01*
X457157D01*
X457139Y64353D01*
X457083Y64371D01*
X456991Y64427D01*
X456898Y64464D01*
X456787Y64520D01*
X456509Y64649D01*
X456176Y64760D01*
X455787Y64871D01*
X455343Y64945D01*
X454880Y64964D01*
D02*
G37*
G36*
X371166Y64964D02*
X371055D01*
X370981Y64945D01*
X370777Y64908D01*
X370537Y64853D01*
X370259Y64742D01*
X369963Y64575D01*
X369814Y64464D01*
X369666Y64353D01*
X369537Y64205D01*
X369407Y64038D01*
Y64019D01*
X369370Y63983D01*
X369333Y63908D01*
X369277Y63816D01*
X369222Y63668D01*
X369148Y63501D01*
X369092Y63297D01*
X369018Y63057D01*
X368944Y62779D01*
X368870Y62464D01*
X368796Y62112D01*
X368741Y61723D01*
X368685Y61279D01*
X368648Y60798D01*
X368629Y60279D01*
X368611Y59705D01*
Y59668D01*
Y59576D01*
Y59409D01*
X368629Y59187D01*
Y58946D01*
X368648Y58650D01*
X368666Y58335D01*
X368703Y58002D01*
X368796Y57280D01*
X368852Y56928D01*
X368926Y56594D01*
X369000Y56280D01*
X369111Y55983D01*
X369222Y55724D01*
X369352Y55502D01*
Y55483D01*
X369389Y55465D01*
X369481Y55335D01*
X369648Y55169D01*
X369851Y54983D01*
X370129Y54798D01*
X370444Y54632D01*
X370796Y54502D01*
X370981Y54483D01*
X371185Y54465D01*
X371296D01*
X371370Y54483D01*
X371555Y54521D01*
X371814Y54595D01*
X372092Y54724D01*
X372407Y54909D01*
X372555Y55020D01*
X372703Y55169D01*
X372851Y55317D01*
X372999Y55502D01*
Y55520D01*
X373036Y55557D01*
X373073Y55613D01*
X373111Y55706D01*
X373185Y55835D01*
X373240Y56002D01*
X373314Y56187D01*
X373388Y56409D01*
X373444Y56687D01*
X373518Y56983D01*
X373592Y57335D01*
X373647Y57705D01*
X373685Y58150D01*
X373722Y58613D01*
X373759Y59131D01*
Y59705D01*
Y59724D01*
Y59742D01*
Y59835D01*
Y60001D01*
X373740Y60224D01*
Y60464D01*
X373722Y60761D01*
X373703Y61075D01*
X373666Y61427D01*
X373573Y62131D01*
X373518Y62483D01*
X373444Y62816D01*
X373370Y63131D01*
X373259Y63427D01*
X373148Y63686D01*
X373018Y63908D01*
Y63927D01*
X372981Y63945D01*
X372944Y64001D01*
X372888Y64075D01*
X372722Y64242D01*
X372518Y64445D01*
X372240Y64631D01*
X371925Y64797D01*
X371759Y64871D01*
X371574Y64927D01*
X371370Y64945D01*
X371166Y64964D01*
D02*
G37*
G36*
X148602Y54441D02*
X148324D01*
X148102Y54385D01*
X147547Y54274D01*
X146824Y54107D01*
X145991Y53774D01*
X145102Y53274D01*
X144602Y52941D01*
X144158Y52552D01*
X143714Y52108D01*
X143269Y51608D01*
Y51552D01*
X143158Y51497D01*
X143047Y51330D01*
X142936Y51108D01*
X142769Y50774D01*
X142547Y50441D01*
X142325Y49997D01*
X142158Y49552D01*
X141936Y48997D01*
X141714Y48386D01*
X141547Y47719D01*
X141325Y46997D01*
X141214Y46164D01*
X141103Y45331D01*
X140992Y44442D01*
Y43442D01*
Y43386D01*
Y43220D01*
Y42942D01*
X141047Y42553D01*
Y42109D01*
X141103Y41609D01*
X141269Y40442D01*
X141547Y39109D01*
X141880Y37831D01*
X142436Y36554D01*
X142769Y35998D01*
X143158Y35498D01*
X143269Y35387D01*
X143547Y35110D01*
X143991Y34665D01*
X144602Y34221D01*
X145380Y33776D01*
X146269Y33332D01*
X147269Y33054D01*
X147824Y32999D01*
X148380Y32943D01*
X148713D01*
X148935Y32999D01*
X149491Y33110D01*
X150268Y33276D01*
X151102Y33610D01*
X151990Y34054D01*
X152879Y34721D01*
X153324Y35110D01*
X153768Y35554D01*
Y35609D01*
X153879Y35665D01*
X153990Y35832D01*
X154101Y36054D01*
X154324Y36332D01*
X154490Y36720D01*
X154712Y37109D01*
X154935Y37609D01*
X155101Y38109D01*
X155323Y38776D01*
X155546Y39442D01*
X155712Y40164D01*
X155823Y40998D01*
X155934Y41887D01*
X156046Y42831D01*
Y43831D01*
Y43886D01*
Y44053D01*
Y44331D01*
X155990Y44720D01*
Y45164D01*
X155934Y45664D01*
X155768Y46831D01*
X155490Y48108D01*
X155101Y49386D01*
X154546Y50663D01*
X154213Y51274D01*
X153824Y51774D01*
Y51830D01*
X153713Y51885D01*
X153435Y52219D01*
X152990Y52608D01*
X152379Y53108D01*
X151602Y53608D01*
X150713Y54052D01*
X149713Y54330D01*
X149157Y54385D01*
X148602Y54441D01*
D02*
G37*
G36*
X103051Y64384D02*
X102718D01*
X102496Y64329D01*
X101885Y64218D01*
X101162Y64051D01*
X100329Y63718D01*
X99440Y63218D01*
X98996Y62884D01*
X98552Y62551D01*
X98163Y62107D01*
X97774Y61607D01*
Y61551D01*
X97663Y61440D01*
X97552Y61218D01*
X97385Y60940D01*
X97218Y60496D01*
X96996Y59996D01*
X96830Y59385D01*
X96607Y58663D01*
X96385Y57829D01*
X96163Y56885D01*
X95941Y55830D01*
X95774Y54663D01*
X95607Y53330D01*
X95496Y51885D01*
X95441Y50330D01*
X95385Y48608D01*
Y48497D01*
Y48219D01*
Y47719D01*
X95441Y47053D01*
Y46330D01*
X95496Y45442D01*
X95552Y44497D01*
X95663Y43497D01*
X95941Y41331D01*
X96107Y40276D01*
X96330Y39276D01*
X96552Y38331D01*
X96885Y37443D01*
X97218Y36665D01*
X97607Y35998D01*
Y35943D01*
X97718Y35887D01*
X97996Y35498D01*
X98496Y34998D01*
X99107Y34443D01*
X99940Y33887D01*
X100885Y33387D01*
X101940Y32998D01*
X102496Y32943D01*
X103107Y32887D01*
X103440D01*
X103662Y32943D01*
X104218Y33054D01*
X104995Y33276D01*
X105829Y33665D01*
X106773Y34221D01*
X107217Y34554D01*
X107662Y34998D01*
X108106Y35443D01*
X108551Y35998D01*
Y36054D01*
X108662Y36165D01*
X108773Y36332D01*
X108884Y36609D01*
X109106Y36998D01*
X109273Y37498D01*
X109495Y38054D01*
X109717Y38720D01*
X109884Y39553D01*
X110106Y40442D01*
X110328Y41498D01*
X110495Y42609D01*
X110606Y43942D01*
X110717Y45331D01*
X110828Y46886D01*
Y48608D01*
Y48664D01*
Y48719D01*
Y48997D01*
Y49497D01*
X110772Y50163D01*
Y50886D01*
X110717Y51774D01*
X110661Y52719D01*
X110550Y53774D01*
X110273Y55885D01*
X110106Y56940D01*
X109884Y57940D01*
X109662Y58885D01*
X109328Y59774D01*
X108995Y60551D01*
X108606Y61218D01*
Y61273D01*
X108495Y61329D01*
X108384Y61496D01*
X108217Y61718D01*
X107717Y62218D01*
X107106Y62829D01*
X106273Y63384D01*
X105329Y63884D01*
X104829Y64106D01*
X104273Y64273D01*
X103662Y64329D01*
X103051Y64384D01*
D02*
G37*
%LPD*%
D10*
X475000Y15000D02*
G03*
X485000Y25000I0J10000D01*
G01*
X355000Y25000D02*
G03*
X365000Y15000I10000J0D01*
G01*
X485000Y75000D02*
G03*
X475000Y85000I-10000J0D01*
G01*
X365000D02*
G03*
X355000Y75000I0J-10000D01*
G01*
Y25000D02*
Y75000D01*
X365000Y15000D02*
X475000D01*
X365000Y85000D02*
X475000D01*
X485000Y25000D02*
Y75000D01*
X355000Y25000D02*
X355000D01*
D11*
X220000Y41720D02*
X225000D01*
M02*
