G04*
G04 #@! TF.GenerationSoftware,Altium Limited,Altium Designer,23.9.2 (47)*
G04*
G04 Layer_Color=65535*
%FSLAX44Y44*%
%MOMM*%
G71*
G04*
G04 #@! TF.SameCoordinates,35F43EC8-9B02-491F-93BC-FA8834C0D824*
G04*
G04*
G04 #@! TF.FilePolarity,Positive*
G04*
G01*
G75*
%ADD10C,0.2000*%
%ADD11C,0.1000*%
G36*
X359462Y211073D02*
X359610Y211054D01*
X359777Y211036D01*
X359962Y211017D01*
X360147Y210962D01*
X360592Y210851D01*
X361036Y210684D01*
X361258Y210573D01*
X361481Y210443D01*
X361684Y210277D01*
X361888Y210110D01*
X361907Y210091D01*
X361925Y210073D01*
X361981Y210017D01*
X362055Y209943D01*
X362129Y209832D01*
X362221Y209721D01*
X362406Y209443D01*
X362592Y209091D01*
X362758Y208684D01*
X362888Y208221D01*
X362906Y207980D01*
X362925Y207721D01*
Y207703D01*
Y207684D01*
Y207573D01*
X362906Y207406D01*
X362869Y207203D01*
X362814Y206943D01*
X362721Y206684D01*
X362610Y206425D01*
X362444Y206166D01*
X362425Y206129D01*
X362351Y206055D01*
X362240Y205944D01*
X362092Y205795D01*
X361888Y205629D01*
X361647Y205462D01*
X361370Y205296D01*
X361036Y205147D01*
X361055D01*
X361092Y205129D01*
X361147Y205110D01*
X361221Y205073D01*
X361444Y204981D01*
X361703Y204851D01*
X361981Y204666D01*
X362277Y204462D01*
X362555Y204203D01*
X362814Y203907D01*
Y203888D01*
X362832Y203870D01*
X362906Y203759D01*
X363018Y203573D01*
X363129Y203333D01*
X363240Y203036D01*
X363351Y202685D01*
X363425Y202296D01*
X363443Y201870D01*
Y201852D01*
Y201796D01*
Y201703D01*
X363425Y201592D01*
X363406Y201463D01*
X363388Y201296D01*
X363351Y201111D01*
X363295Y200907D01*
X363166Y200481D01*
X363073Y200240D01*
X362943Y200018D01*
X362814Y199778D01*
X362666Y199555D01*
X362481Y199333D01*
X362277Y199111D01*
X362258Y199093D01*
X362221Y199056D01*
X362166Y199000D01*
X362073Y198944D01*
X361944Y198852D01*
X361814Y198759D01*
X361647Y198667D01*
X361462Y198556D01*
X361258Y198444D01*
X361018Y198352D01*
X360759Y198259D01*
X360499Y198167D01*
X360203Y198111D01*
X359888Y198056D01*
X359573Y198018D01*
X359222Y198000D01*
X359036D01*
X358907Y198018D01*
X358740Y198037D01*
X358555Y198056D01*
X358351Y198093D01*
X358129Y198148D01*
X357629Y198278D01*
X357370Y198370D01*
X357129Y198463D01*
X356870Y198592D01*
X356611Y198741D01*
X356370Y198907D01*
X356148Y199111D01*
X356129Y199130D01*
X356092Y199167D01*
X356037Y199222D01*
X355963Y199315D01*
X355889Y199426D01*
X355778Y199555D01*
X355685Y199704D01*
X355574Y199889D01*
X355463Y200074D01*
X355370Y200296D01*
X355185Y200759D01*
X355111Y201037D01*
X355055Y201315D01*
X355018Y201611D01*
X355000Y201907D01*
Y201926D01*
Y201963D01*
Y202037D01*
X355018Y202111D01*
Y202222D01*
X355037Y202351D01*
X355074Y202648D01*
X355148Y202981D01*
X355259Y203314D01*
X355426Y203666D01*
X355629Y203999D01*
Y204018D01*
X355666Y204036D01*
X355741Y204129D01*
X355889Y204277D01*
X356092Y204462D01*
X356352Y204648D01*
X356666Y204851D01*
X357018Y205018D01*
X357444Y205147D01*
X357425D01*
X357407Y205166D01*
X357351Y205184D01*
X357277Y205222D01*
X357111Y205296D01*
X356889Y205407D01*
X356648Y205555D01*
X356407Y205740D01*
X356185Y205944D01*
X355981Y206166D01*
X355963Y206203D01*
X355907Y206277D01*
X355833Y206425D01*
X355759Y206610D01*
X355666Y206851D01*
X355592Y207129D01*
X355537Y207444D01*
X355518Y207777D01*
Y207795D01*
Y207832D01*
Y207906D01*
X355537Y208018D01*
X355555Y208129D01*
X355574Y208277D01*
X355648Y208591D01*
X355759Y208962D01*
X355944Y209351D01*
X356055Y209554D01*
X356185Y209758D01*
X356352Y209943D01*
X356518Y210128D01*
X356537Y210147D01*
X356574Y210165D01*
X356629Y210221D01*
X356703Y210277D01*
X356796Y210351D01*
X356926Y210425D01*
X357074Y210517D01*
X357222Y210610D01*
X357407Y210702D01*
X357611Y210795D01*
X357833Y210869D01*
X358074Y210943D01*
X358592Y211054D01*
X358888Y211073D01*
X359184Y211091D01*
X359351D01*
X359462Y211073D01*
D02*
G37*
G36*
X338104Y209406D02*
X338086Y209388D01*
X338049Y209351D01*
X337975Y209277D01*
X337901Y209165D01*
X337789Y209036D01*
X337641Y208888D01*
X337493Y208703D01*
X337327Y208480D01*
X337160Y208258D01*
X336956Y207999D01*
X336753Y207703D01*
X336549Y207406D01*
X336327Y207073D01*
X336105Y206721D01*
X335882Y206332D01*
X335660Y205944D01*
X335642Y205925D01*
X335605Y205851D01*
X335549Y205740D01*
X335456Y205573D01*
X335364Y205370D01*
X335253Y205147D01*
X335123Y204888D01*
X334994Y204592D01*
X334845Y204259D01*
X334679Y203925D01*
X334531Y203555D01*
X334382Y203166D01*
X334086Y202370D01*
X333808Y201518D01*
Y201500D01*
X333790Y201444D01*
X333771Y201352D01*
X333734Y201240D01*
X333697Y201092D01*
X333660Y200907D01*
X333605Y200703D01*
X333568Y200481D01*
X333512Y200222D01*
X333457Y199944D01*
X333364Y199352D01*
X333271Y198704D01*
X333216Y198000D01*
X331605D01*
Y198018D01*
Y198074D01*
Y198148D01*
X331623Y198259D01*
Y198407D01*
X331642Y198592D01*
X331660Y198796D01*
X331679Y199018D01*
X331716Y199278D01*
X331753Y199537D01*
X331809Y199852D01*
X331864Y200166D01*
X331920Y200500D01*
X331994Y200870D01*
X332179Y201629D01*
Y201648D01*
X332197Y201722D01*
X332234Y201833D01*
X332290Y202000D01*
X332346Y202185D01*
X332420Y202407D01*
X332494Y202666D01*
X332605Y202944D01*
X332716Y203259D01*
X332827Y203573D01*
X333105Y204277D01*
X333438Y205018D01*
X333808Y205758D01*
X333827Y205777D01*
X333864Y205851D01*
X333919Y205944D01*
X333994Y206092D01*
X334086Y206258D01*
X334216Y206462D01*
X334345Y206684D01*
X334493Y206925D01*
X334845Y207462D01*
X335216Y208018D01*
X335642Y208591D01*
X336086Y209128D01*
X329809D01*
Y210647D01*
X338104D01*
Y209406D01*
D02*
G37*
G36*
X309313Y211073D02*
X309442D01*
X309590Y211054D01*
X309942Y210980D01*
X310331Y210888D01*
X310739Y210739D01*
X311146Y210517D01*
X311350Y210388D01*
X311535Y210240D01*
X311553Y210221D01*
X311572Y210202D01*
X311627Y210147D01*
X311683Y210091D01*
X311775Y209999D01*
X311850Y209888D01*
X312053Y209628D01*
X312257Y209295D01*
X312442Y208888D01*
X312609Y208425D01*
X312720Y207906D01*
X311146Y207777D01*
Y207795D01*
X311127Y207814D01*
X311109Y207925D01*
X311053Y208092D01*
X310979Y208295D01*
X310905Y208517D01*
X310794Y208740D01*
X310665Y208943D01*
X310535Y209110D01*
X310498Y209147D01*
X310424Y209221D01*
X310294Y209332D01*
X310109Y209462D01*
X309868Y209573D01*
X309609Y209684D01*
X309294Y209758D01*
X308961Y209795D01*
X308831D01*
X308683Y209777D01*
X308517Y209739D01*
X308294Y209684D01*
X308072Y209610D01*
X307850Y209517D01*
X307628Y209369D01*
X307591Y209351D01*
X307498Y209277D01*
X307369Y209147D01*
X307202Y208962D01*
X307017Y208740D01*
X306813Y208480D01*
X306628Y208147D01*
X306443Y207777D01*
Y207758D01*
X306424Y207721D01*
X306406Y207666D01*
X306369Y207592D01*
X306350Y207481D01*
X306313Y207351D01*
X306276Y207203D01*
X306239Y207018D01*
X306183Y206814D01*
X306147Y206592D01*
X306109Y206351D01*
X306091Y206092D01*
X306054Y205795D01*
X306035Y205499D01*
X306017Y205166D01*
Y204833D01*
X306035Y204851D01*
X306109Y204962D01*
X306239Y205110D01*
X306406Y205296D01*
X306591Y205518D01*
X306832Y205721D01*
X307091Y205925D01*
X307387Y206110D01*
X307406D01*
X307424Y206129D01*
X307535Y206184D01*
X307702Y206240D01*
X307924Y206332D01*
X308183Y206406D01*
X308479Y206462D01*
X308794Y206518D01*
X309128Y206536D01*
X309276D01*
X309387Y206518D01*
X309535Y206499D01*
X309683Y206481D01*
X309868Y206444D01*
X310054Y206388D01*
X310479Y206258D01*
X310702Y206166D01*
X310924Y206036D01*
X311146Y205907D01*
X311387Y205758D01*
X311609Y205573D01*
X311812Y205370D01*
X311831Y205351D01*
X311868Y205314D01*
X311924Y205259D01*
X311979Y205166D01*
X312072Y205036D01*
X312164Y204907D01*
X312257Y204740D01*
X312368Y204555D01*
X312479Y204351D01*
X312572Y204129D01*
X312664Y203870D01*
X312757Y203610D01*
X312812Y203333D01*
X312868Y203018D01*
X312905Y202703D01*
X312924Y202370D01*
Y202351D01*
Y202314D01*
Y202259D01*
Y202166D01*
X312905Y202055D01*
Y201944D01*
X312850Y201648D01*
X312794Y201296D01*
X312701Y200926D01*
X312572Y200518D01*
X312386Y200129D01*
Y200111D01*
X312368Y200092D01*
X312331Y200037D01*
X312294Y199963D01*
X312183Y199778D01*
X312016Y199537D01*
X311812Y199278D01*
X311572Y199018D01*
X311276Y198759D01*
X310961Y198537D01*
X310942D01*
X310924Y198519D01*
X310868Y198481D01*
X310794Y198463D01*
X310609Y198370D01*
X310368Y198278D01*
X310054Y198167D01*
X309702Y198093D01*
X309313Y198018D01*
X308887Y198000D01*
X308794D01*
X308702Y198018D01*
X308554D01*
X308387Y198037D01*
X308202Y198074D01*
X307980Y198130D01*
X307757Y198185D01*
X307498Y198259D01*
X307239Y198352D01*
X306980Y198463D01*
X306702Y198611D01*
X306443Y198778D01*
X306183Y198963D01*
X305924Y199185D01*
X305683Y199444D01*
X305665Y199463D01*
X305628Y199518D01*
X305572Y199592D01*
X305498Y199722D01*
X305387Y199889D01*
X305295Y200074D01*
X305184Y200315D01*
X305072Y200574D01*
X304943Y200889D01*
X304832Y201240D01*
X304739Y201629D01*
X304647Y202055D01*
X304554Y202537D01*
X304499Y203055D01*
X304461Y203610D01*
X304443Y204203D01*
Y204222D01*
Y204240D01*
Y204296D01*
Y204370D01*
X304461Y204555D01*
Y204814D01*
X304480Y205110D01*
X304517Y205462D01*
X304554Y205851D01*
X304610Y206277D01*
X304684Y206703D01*
X304776Y207166D01*
X304887Y207610D01*
X305017Y208055D01*
X305184Y208480D01*
X305369Y208888D01*
X305572Y209277D01*
X305813Y209610D01*
X305832Y209628D01*
X305869Y209666D01*
X305943Y209739D01*
X306035Y209851D01*
X306147Y209962D01*
X306295Y210073D01*
X306480Y210221D01*
X306665Y210351D01*
X306887Y210480D01*
X307128Y210628D01*
X307406Y210739D01*
X307683Y210869D01*
X307998Y210962D01*
X308331Y211036D01*
X308683Y211073D01*
X309054Y211091D01*
X309202D01*
X309313Y211073D01*
D02*
G37*
G36*
X286928Y209369D02*
X281798D01*
X281113Y205907D01*
X281132Y205925D01*
X281169Y205944D01*
X281224Y205981D01*
X281317Y206036D01*
X281428Y206092D01*
X281558Y206166D01*
X281854Y206314D01*
X282224Y206462D01*
X282632Y206592D01*
X283076Y206684D01*
X283298Y206721D01*
X283706D01*
X283817Y206703D01*
X283965Y206684D01*
X284132Y206666D01*
X284317Y206629D01*
X284520Y206573D01*
X284965Y206444D01*
X285206Y206351D01*
X285446Y206221D01*
X285687Y206092D01*
X285928Y205944D01*
X286150Y205758D01*
X286372Y205555D01*
X286391Y205536D01*
X286428Y205499D01*
X286483Y205444D01*
X286557Y205351D01*
X286650Y205222D01*
X286742Y205092D01*
X286854Y204925D01*
X286965Y204740D01*
X287057Y204536D01*
X287168Y204314D01*
X287261Y204055D01*
X287353Y203796D01*
X287428Y203518D01*
X287483Y203203D01*
X287520Y202888D01*
X287539Y202555D01*
Y202537D01*
Y202481D01*
Y202388D01*
X287520Y202259D01*
X287502Y202111D01*
X287483Y201944D01*
X287446Y201740D01*
X287409Y201537D01*
X287298Y201055D01*
X287113Y200555D01*
X287002Y200296D01*
X286854Y200055D01*
X286705Y199796D01*
X286520Y199555D01*
X286502Y199537D01*
X286465Y199481D01*
X286391Y199407D01*
X286298Y199315D01*
X286168Y199204D01*
X286020Y199056D01*
X285835Y198926D01*
X285631Y198778D01*
X285409Y198630D01*
X285150Y198500D01*
X284872Y198370D01*
X284576Y198241D01*
X284261Y198148D01*
X283909Y198074D01*
X283539Y198018D01*
X283150Y198000D01*
X282984D01*
X282854Y198018D01*
X282706Y198037D01*
X282539Y198056D01*
X282335Y198074D01*
X282132Y198130D01*
X281669Y198241D01*
X281206Y198407D01*
X280965Y198519D01*
X280725Y198648D01*
X280502Y198796D01*
X280280Y198963D01*
X280262Y198981D01*
X280225Y199000D01*
X280188Y199074D01*
X280114Y199148D01*
X280021Y199241D01*
X279928Y199352D01*
X279817Y199500D01*
X279725Y199667D01*
X279613Y199833D01*
X279502Y200037D01*
X279299Y200481D01*
X279132Y201000D01*
X279077Y201277D01*
X279039Y201574D01*
X280688Y201703D01*
Y201685D01*
Y201648D01*
X280706Y201592D01*
X280725Y201500D01*
X280780Y201296D01*
X280854Y201018D01*
X280965Y200741D01*
X281113Y200426D01*
X281299Y200148D01*
X281521Y199889D01*
X281558Y199870D01*
X281632Y199796D01*
X281780Y199704D01*
X281984Y199592D01*
X282206Y199481D01*
X282484Y199389D01*
X282798Y199315D01*
X283150Y199296D01*
X283261D01*
X283335Y199315D01*
X283558Y199333D01*
X283817Y199407D01*
X284132Y199500D01*
X284446Y199648D01*
X284780Y199870D01*
X284928Y200000D01*
X285076Y200148D01*
X285095Y200166D01*
X285113Y200185D01*
X285150Y200240D01*
X285206Y200296D01*
X285335Y200500D01*
X285483Y200759D01*
X285613Y201074D01*
X285742Y201463D01*
X285835Y201926D01*
X285872Y202166D01*
Y202425D01*
Y202444D01*
Y202481D01*
Y202555D01*
X285854Y202648D01*
Y202759D01*
X285835Y202888D01*
X285780Y203185D01*
X285687Y203536D01*
X285557Y203888D01*
X285372Y204222D01*
X285113Y204536D01*
Y204555D01*
X285076Y204573D01*
X284983Y204666D01*
X284817Y204796D01*
X284594Y204944D01*
X284298Y205073D01*
X283965Y205203D01*
X283576Y205296D01*
X283354Y205333D01*
X283002D01*
X282854Y205314D01*
X282669Y205296D01*
X282447Y205240D01*
X282224Y205184D01*
X281984Y205092D01*
X281743Y204981D01*
X281724Y204962D01*
X281650Y204925D01*
X281539Y204833D01*
X281391Y204740D01*
X281243Y204610D01*
X281095Y204444D01*
X280928Y204277D01*
X280799Y204074D01*
X279317Y204277D01*
X280558Y210869D01*
X286928D01*
Y209369D01*
D02*
G37*
G36*
X279210Y158849D02*
X282914Y157923D01*
X286617Y155609D01*
X287080D01*
X287543Y155146D01*
X289395Y152831D01*
X291247Y149591D01*
X292173Y145424D01*
Y143572D01*
Y143109D01*
Y142646D01*
X291710Y142184D01*
X290784Y141721D01*
X286154D01*
X285691Y142184D01*
X285228Y142646D01*
X284765Y143572D01*
Y144498D01*
Y144961D01*
X284303Y146813D01*
X283377Y148665D01*
X281525Y150516D01*
X281062Y150979D01*
X280136Y151905D01*
X278284Y152368D01*
X275970Y152831D01*
X275044D01*
X273192Y152368D01*
X270877Y151905D01*
X268563Y150516D01*
X268100Y150053D01*
X267174Y149128D01*
X266248Y147276D01*
X265785Y144961D01*
Y144498D01*
Y143109D01*
Y140795D01*
X265322Y138017D01*
Y134776D01*
Y130610D01*
X265785Y122277D01*
Y121814D01*
X266248Y119962D01*
X267174Y118111D01*
X268563Y116259D01*
X269025Y115796D01*
X270414Y115333D01*
X272266Y114407D01*
X275044Y113944D01*
X275507D01*
X277358Y114407D01*
X279210Y114870D01*
X281525Y116259D01*
X281988Y116722D01*
X282914Y118111D01*
X284303Y119962D01*
X284765Y122277D01*
Y123666D01*
Y124129D01*
Y124592D01*
X285228Y125055D01*
X286154Y125518D01*
X291710D01*
X292173Y124592D01*
Y123666D01*
Y121814D01*
Y121351D01*
Y120888D01*
X291247Y118111D01*
X289858Y114870D01*
X287080Y111166D01*
X286154Y110703D01*
X283840Y109315D01*
X280136Y107463D01*
X275507Y107000D01*
X274581D01*
X271340Y107463D01*
X267637Y108852D01*
X263470Y111166D01*
X262544Y112092D01*
X261155Y114407D01*
X259304Y117648D01*
X258378Y121814D01*
Y122277D01*
Y123666D01*
Y125981D01*
Y129221D01*
Y132462D01*
Y136165D01*
Y144498D01*
Y144961D01*
Y145424D01*
X259304Y148202D01*
X260693Y151442D01*
X263470Y154683D01*
X263933D01*
X264396Y155609D01*
X266711Y156998D01*
X270414Y158386D01*
X275044Y159312D01*
X276432D01*
X279210Y158849D01*
D02*
G37*
G36*
X92645Y158386D02*
Y157460D01*
Y108852D01*
Y108389D01*
X92182Y107926D01*
X91256Y107463D01*
X84312D01*
X83386Y108389D01*
X69035Y144961D01*
X68109D01*
Y108389D01*
Y107926D01*
X67183Y107463D01*
X66258Y107000D01*
X62554D01*
X62091Y107463D01*
X61628Y108389D01*
Y156998D01*
Y157460D01*
Y157923D01*
X62091Y158386D01*
X69961D01*
X70424Y157923D01*
Y157460D01*
X85238Y120888D01*
X85701Y120425D01*
X86164D01*
X86627Y120888D01*
Y157460D01*
Y157923D01*
Y158386D01*
X87090Y158849D01*
X92182D01*
X92645Y158386D01*
D02*
G37*
G36*
X331059Y158849D02*
X334763Y157923D01*
X338004Y155609D01*
X338929Y155146D01*
X340318Y152831D01*
X342633Y149591D01*
X344022Y145424D01*
Y144498D01*
X343559Y142184D01*
X343096Y139406D01*
X341707Y136165D01*
X341244Y135702D01*
X339855Y134313D01*
X338004Y132462D01*
X335226Y130610D01*
X334763D01*
X333837Y129684D01*
X333374Y129221D01*
X333837Y128295D01*
X342633Y109778D01*
Y109315D01*
Y108852D01*
X341707Y107926D01*
X336152D01*
X335689Y108389D01*
X335226Y109315D01*
X326430Y127832D01*
Y128295D01*
X325504D01*
X324578Y128758D01*
X320875Y128295D01*
X320412D01*
X319949Y127832D01*
Y109315D01*
Y108852D01*
X319486Y108389D01*
X318560Y107926D01*
X313468D01*
X313005Y108389D01*
X312542Y109315D01*
Y157923D01*
Y158386D01*
Y158849D01*
X313005Y159312D01*
X328282D01*
X331059Y158849D01*
D02*
G37*
G36*
X227361D02*
X231064Y157923D01*
X234768Y155609D01*
X235694Y155146D01*
X237083Y152831D01*
X238934Y149591D01*
X239860Y145424D01*
Y144498D01*
Y142184D01*
X238934Y139406D01*
X237546Y136165D01*
X237083Y135702D01*
X235694Y134313D01*
X233842Y132462D01*
X231064Y130610D01*
X230601D01*
X230138Y129684D01*
X229676Y129221D01*
X230138Y128295D01*
X238934Y109778D01*
X239397Y109315D01*
X238934Y108852D01*
X238471Y107926D01*
X232453D01*
X231990Y108389D01*
X231527Y109315D01*
X223194Y127832D01*
X222731Y128295D01*
X221806Y128758D01*
X216713Y128295D01*
X216250D01*
X215787Y127832D01*
Y109315D01*
Y108852D01*
X215324Y108389D01*
X214398Y107926D01*
X209769D01*
X209306Y108389D01*
X208843Y109315D01*
Y157923D01*
Y158386D01*
X209306Y158849D01*
X209769Y159312D01*
X224583D01*
X227361Y158849D01*
D02*
G37*
G36*
X530587Y158386D02*
Y157460D01*
Y153757D01*
Y153294D01*
Y152831D01*
X530124Y152368D01*
X529198Y151905D01*
X512069D01*
X511606Y151442D01*
Y138017D01*
X512069D01*
Y137554D01*
X529661D01*
X530124Y137091D01*
Y136165D01*
Y131999D01*
Y131536D01*
X529661Y131073D01*
X528735Y130610D01*
X512069D01*
X511606Y130147D01*
X511143Y114870D01*
Y114407D01*
X511606Y113944D01*
X512069Y114407D01*
X531050D01*
X531513Y113944D01*
X531976Y113018D01*
Y108852D01*
X531513Y108389D01*
X531050Y107926D01*
X529661Y107463D01*
X505125D01*
X504199Y107926D01*
X503736Y108852D01*
Y157460D01*
Y157923D01*
X504199Y158386D01*
X504662Y158849D01*
X530124D01*
X530587Y158386D01*
D02*
G37*
G36*
X486144D02*
Y157460D01*
Y153757D01*
Y153294D01*
Y152831D01*
X485682Y152368D01*
X484756Y151905D01*
X473645D01*
Y151442D01*
Y150516D01*
Y149591D01*
Y147739D01*
Y144961D01*
Y141258D01*
Y136165D01*
Y130147D01*
Y108852D01*
Y108389D01*
X473182Y107926D01*
X472256Y107463D01*
X467627D01*
X467164Y107926D01*
X466701Y108852D01*
Y151442D01*
Y151905D01*
X456516D01*
X456053Y152368D01*
X455591Y152831D01*
X455127Y153757D01*
Y157460D01*
Y157923D01*
Y158386D01*
X455591Y158849D01*
X485682D01*
X486144Y158386D01*
D02*
G37*
G36*
X429203Y157923D02*
X443091Y108852D01*
Y108389D01*
X442165Y107926D01*
X441239Y107463D01*
X437073D01*
X435684Y108389D01*
X431981Y119499D01*
X431518Y119962D01*
X430592Y120425D01*
X418092D01*
X417166Y119499D01*
X413926Y108389D01*
Y107926D01*
X413463Y107463D01*
X408371D01*
X407908Y107926D01*
X407445Y108389D01*
X406982Y108852D01*
X420870Y157923D01*
Y158386D01*
X421333Y158849D01*
X428277D01*
X429203Y157923D01*
D02*
G37*
G36*
X389390Y158386D02*
X389853Y157460D01*
Y153757D01*
Y153294D01*
Y152831D01*
X388927Y152368D01*
X388001Y151905D01*
X370872D01*
X369484Y151442D01*
Y138017D01*
Y137554D01*
X387538D01*
X388001Y137091D01*
Y136165D01*
Y131999D01*
Y131536D01*
X387538Y131073D01*
X386612Y130610D01*
X369484D01*
Y130147D01*
Y114870D01*
X370872D01*
Y114407D01*
Y113944D01*
X371335Y114407D01*
X389853D01*
X390316Y113944D01*
Y113018D01*
Y108852D01*
Y108389D01*
X389853Y107926D01*
X388927Y107463D01*
X363928D01*
X363465Y107926D01*
X363002Y108852D01*
Y157460D01*
Y157923D01*
Y158386D01*
X363465Y158849D01*
X388927D01*
X389390Y158386D01*
D02*
G37*
G36*
X188011D02*
Y157460D01*
Y153757D01*
Y153294D01*
Y152831D01*
X187548Y152368D01*
X186622Y151905D01*
X169030D01*
X168104Y151442D01*
Y138017D01*
Y137554D01*
X186159D01*
X186622Y137091D01*
Y136165D01*
Y131999D01*
Y131536D01*
X186159Y131073D01*
X185233Y130610D01*
X168567D01*
X167642Y130147D01*
Y114870D01*
X168567D01*
Y114407D01*
Y113944D01*
X169030Y114407D01*
X187548D01*
X188011Y113944D01*
Y113018D01*
Y108852D01*
Y108389D01*
X187548Y107926D01*
X186622Y107463D01*
X162086D01*
X161623Y107926D01*
X161160Y108852D01*
Y157460D01*
Y157923D01*
Y158386D01*
X161623Y158849D01*
X187548D01*
X188011Y158386D01*
D02*
G37*
G36*
X142643D02*
Y157460D01*
Y153757D01*
Y153294D01*
Y152831D01*
X142180Y152368D01*
X141254Y151905D01*
X130606D01*
Y151442D01*
Y150516D01*
Y149591D01*
Y147739D01*
Y144961D01*
Y141258D01*
Y136165D01*
Y130147D01*
Y108852D01*
Y108389D01*
X129680Y107926D01*
X128755Y107463D01*
X124125D01*
X123662Y107926D01*
X123199Y108852D01*
Y151442D01*
Y151905D01*
X113015D01*
X112552Y152368D01*
X111626Y152831D01*
X111163Y153757D01*
Y157460D01*
Y157923D01*
X111626Y158386D01*
X112089Y158849D01*
X142180D01*
X142643Y158386D01*
D02*
G37*
G36*
X38481D02*
Y157460D01*
Y108852D01*
Y108389D01*
X38018Y107926D01*
X37092Y107463D01*
X32463D01*
X32000Y107926D01*
Y108852D01*
Y157460D01*
Y157923D01*
Y158386D01*
X32463Y158849D01*
X38018D01*
X38481Y158386D01*
D02*
G37*
G36*
X288342Y56791D02*
X288453Y56777D01*
X288578Y56763D01*
X288717Y56750D01*
X288855Y56708D01*
X289188Y56625D01*
X289521Y56500D01*
X289688Y56417D01*
X289854Y56320D01*
X290007Y56195D01*
X290159Y56070D01*
X290173Y56056D01*
X290187Y56042D01*
X290228Y56001D01*
X290284Y55945D01*
X290339Y55862D01*
X290409Y55779D01*
X290547Y55571D01*
X290686Y55307D01*
X290811Y55002D01*
X290908Y54655D01*
X290922Y54475D01*
X290936Y54281D01*
Y54267D01*
Y54253D01*
Y54170D01*
X290922Y54045D01*
X290894Y53893D01*
X290853Y53698D01*
X290783Y53504D01*
X290700Y53310D01*
X290575Y53116D01*
X290561Y53088D01*
X290506Y53033D01*
X290422Y52950D01*
X290312Y52839D01*
X290159Y52714D01*
X289979Y52589D01*
X289771Y52464D01*
X289521Y52353D01*
X289535D01*
X289563Y52339D01*
X289604Y52326D01*
X289660Y52298D01*
X289826Y52228D01*
X290020Y52131D01*
X290228Y51993D01*
X290450Y51840D01*
X290658Y51646D01*
X290853Y51424D01*
Y51410D01*
X290866Y51396D01*
X290922Y51313D01*
X291005Y51174D01*
X291088Y50994D01*
X291171Y50772D01*
X291255Y50509D01*
X291310Y50217D01*
X291324Y49899D01*
Y49885D01*
Y49843D01*
Y49774D01*
X291310Y49690D01*
X291296Y49593D01*
X291282Y49469D01*
X291255Y49330D01*
X291213Y49177D01*
X291116Y48858D01*
X291047Y48678D01*
X290949Y48512D01*
X290853Y48331D01*
X290742Y48165D01*
X290603Y47998D01*
X290450Y47832D01*
X290436Y47818D01*
X290409Y47790D01*
X290367Y47749D01*
X290298Y47707D01*
X290201Y47638D01*
X290104Y47569D01*
X289979Y47499D01*
X289840Y47416D01*
X289688Y47333D01*
X289507Y47263D01*
X289313Y47194D01*
X289119Y47125D01*
X288897Y47083D01*
X288661Y47042D01*
X288426Y47014D01*
X288162Y47000D01*
X288023D01*
X287926Y47014D01*
X287801Y47028D01*
X287663Y47042D01*
X287510Y47069D01*
X287344Y47111D01*
X286969Y47208D01*
X286775Y47277D01*
X286595Y47347D01*
X286401Y47444D01*
X286206Y47555D01*
X286026Y47680D01*
X285860Y47832D01*
X285846Y47846D01*
X285818Y47874D01*
X285777Y47915D01*
X285721Y47985D01*
X285666Y48068D01*
X285583Y48165D01*
X285513Y48276D01*
X285430Y48415D01*
X285347Y48553D01*
X285277Y48720D01*
X285139Y49066D01*
X285083Y49274D01*
X285042Y49482D01*
X285014Y49704D01*
X285000Y49926D01*
Y49940D01*
Y49968D01*
Y50023D01*
X285014Y50079D01*
Y50162D01*
X285028Y50259D01*
X285056Y50481D01*
X285111Y50731D01*
X285194Y50980D01*
X285319Y51244D01*
X285471Y51493D01*
Y51507D01*
X285499Y51521D01*
X285555Y51590D01*
X285666Y51701D01*
X285818Y51840D01*
X286012Y51979D01*
X286248Y52131D01*
X286512Y52256D01*
X286831Y52353D01*
X286817D01*
X286803Y52367D01*
X286761Y52381D01*
X286706Y52409D01*
X286581Y52464D01*
X286415Y52547D01*
X286234Y52658D01*
X286054Y52797D01*
X285888Y52950D01*
X285735Y53116D01*
X285721Y53144D01*
X285679Y53199D01*
X285624Y53310D01*
X285569Y53449D01*
X285499Y53629D01*
X285444Y53837D01*
X285402Y54073D01*
X285388Y54323D01*
Y54336D01*
Y54364D01*
Y54420D01*
X285402Y54503D01*
X285416Y54586D01*
X285430Y54697D01*
X285485Y54933D01*
X285569Y55210D01*
X285707Y55501D01*
X285791Y55654D01*
X285888Y55806D01*
X286012Y55945D01*
X286137Y56084D01*
X286151Y56098D01*
X286179Y56111D01*
X286220Y56153D01*
X286276Y56195D01*
X286345Y56250D01*
X286442Y56306D01*
X286553Y56375D01*
X286664Y56444D01*
X286803Y56514D01*
X286955Y56583D01*
X287122Y56638D01*
X287302Y56694D01*
X287691Y56777D01*
X287912Y56791D01*
X288134Y56805D01*
X288259D01*
X288342Y56791D01*
D02*
G37*
G36*
X260421Y202518D02*
X262162D01*
Y201074D01*
X260421D01*
Y198000D01*
X258847D01*
Y201074D01*
X253274D01*
Y202518D01*
X259144Y210814D01*
X260421D01*
Y202518D01*
D02*
G37*
G36*
X232371Y211073D02*
X232612Y211036D01*
X232908Y210980D01*
X233242Y210888D01*
X233575Y210777D01*
X233908Y210628D01*
X233927D01*
X233945Y210610D01*
X234056Y210554D01*
X234223Y210443D01*
X234408Y210313D01*
X234630Y210128D01*
X234852Y209925D01*
X235075Y209684D01*
X235260Y209406D01*
X235278Y209369D01*
X235334Y209277D01*
X235408Y209110D01*
X235501Y208906D01*
X235593Y208666D01*
X235667Y208388D01*
X235723Y208073D01*
X235741Y207758D01*
Y207721D01*
Y207610D01*
X235723Y207462D01*
X235686Y207258D01*
X235630Y207018D01*
X235538Y206758D01*
X235427Y206499D01*
X235278Y206240D01*
X235260Y206203D01*
X235204Y206129D01*
X235093Y205999D01*
X234945Y205851D01*
X234760Y205684D01*
X234538Y205499D01*
X234278Y205333D01*
X233964Y205166D01*
X233982D01*
X234019Y205147D01*
X234075Y205129D01*
X234149Y205110D01*
X234352Y205036D01*
X234612Y204925D01*
X234908Y204777D01*
X235204Y204592D01*
X235482Y204351D01*
X235741Y204074D01*
X235760Y204036D01*
X235834Y203925D01*
X235945Y203740D01*
X236056Y203499D01*
X236167Y203203D01*
X236278Y202851D01*
X236352Y202444D01*
X236371Y202000D01*
Y201981D01*
Y201926D01*
Y201833D01*
X236352Y201722D01*
X236334Y201574D01*
X236297Y201407D01*
X236260Y201222D01*
X236223Y201018D01*
X236075Y200574D01*
X235963Y200333D01*
X235852Y200111D01*
X235704Y199870D01*
X235538Y199629D01*
X235352Y199389D01*
X235130Y199167D01*
X235112Y199148D01*
X235075Y199111D01*
X235001Y199056D01*
X234908Y198981D01*
X234797Y198889D01*
X234649Y198796D01*
X234482Y198685D01*
X234278Y198592D01*
X234075Y198481D01*
X233834Y198370D01*
X233593Y198278D01*
X233316Y198185D01*
X233019Y198111D01*
X232705Y198056D01*
X232390Y198018D01*
X232038Y198000D01*
X231871D01*
X231760Y198018D01*
X231612Y198037D01*
X231445Y198056D01*
X231260Y198093D01*
X231056Y198130D01*
X230612Y198241D01*
X230149Y198426D01*
X229909Y198537D01*
X229686Y198667D01*
X229464Y198833D01*
X229242Y199000D01*
X229223Y199018D01*
X229186Y199056D01*
X229131Y199111D01*
X229075Y199185D01*
X228983Y199278D01*
X228890Y199407D01*
X228779Y199537D01*
X228668Y199704D01*
X228557Y199889D01*
X228446Y200074D01*
X228242Y200518D01*
X228075Y201037D01*
X228020Y201315D01*
X227983Y201611D01*
X229557Y201814D01*
Y201796D01*
X229575Y201759D01*
X229594Y201685D01*
X229612Y201592D01*
X229631Y201481D01*
X229668Y201352D01*
X229760Y201074D01*
X229890Y200741D01*
X230057Y200426D01*
X230242Y200129D01*
X230464Y199870D01*
X230501Y199852D01*
X230575Y199778D01*
X230723Y199685D01*
X230908Y199592D01*
X231131Y199481D01*
X231408Y199389D01*
X231723Y199315D01*
X232056Y199296D01*
X232167D01*
X232242Y199315D01*
X232445Y199333D01*
X232705Y199389D01*
X233001Y199481D01*
X233316Y199611D01*
X233630Y199796D01*
X233927Y200055D01*
X233964Y200092D01*
X234056Y200203D01*
X234167Y200370D01*
X234315Y200592D01*
X234464Y200870D01*
X234575Y201185D01*
X234667Y201555D01*
X234704Y201963D01*
Y201981D01*
Y202018D01*
Y202074D01*
X234686Y202148D01*
X234667Y202351D01*
X234612Y202592D01*
X234538Y202888D01*
X234408Y203185D01*
X234223Y203481D01*
X233982Y203759D01*
X233945Y203796D01*
X233853Y203870D01*
X233704Y203981D01*
X233501Y204111D01*
X233242Y204240D01*
X232927Y204351D01*
X232575Y204425D01*
X232186Y204462D01*
X232019D01*
X231890Y204444D01*
X231723Y204425D01*
X231538Y204388D01*
X231316Y204351D01*
X231075Y204296D01*
X231260Y205684D01*
X231353D01*
X231427Y205666D01*
X231668D01*
X231871Y205703D01*
X232112Y205740D01*
X232390Y205795D01*
X232705Y205888D01*
X233001Y206018D01*
X233316Y206184D01*
X233334D01*
X233353Y206203D01*
X233445Y206277D01*
X233575Y206406D01*
X233723Y206573D01*
X233871Y206814D01*
X234001Y207092D01*
X234093Y207406D01*
X234130Y207592D01*
Y207795D01*
Y207814D01*
Y207832D01*
Y207943D01*
X234093Y208092D01*
X234056Y208295D01*
X233982Y208517D01*
X233890Y208758D01*
X233741Y208999D01*
X233538Y209221D01*
X233519Y209240D01*
X233427Y209314D01*
X233297Y209406D01*
X233130Y209517D01*
X232908Y209610D01*
X232649Y209702D01*
X232353Y209777D01*
X232019Y209795D01*
X231871D01*
X231705Y209758D01*
X231482Y209721D01*
X231242Y209647D01*
X231001Y209554D01*
X230742Y209406D01*
X230501Y209221D01*
X230483Y209203D01*
X230408Y209110D01*
X230297Y208980D01*
X230168Y208795D01*
X230038Y208554D01*
X229909Y208258D01*
X229797Y207906D01*
X229723Y207499D01*
X228149Y207777D01*
Y207795D01*
X228168Y207851D01*
X228186Y207925D01*
X228205Y208036D01*
X228242Y208166D01*
X228298Y208314D01*
X228409Y208666D01*
X228594Y209073D01*
X228816Y209480D01*
X229094Y209869D01*
X229446Y210221D01*
X229464Y210240D01*
X229501Y210258D01*
X229557Y210295D01*
X229631Y210351D01*
X229723Y210425D01*
X229853Y210499D01*
X229983Y210573D01*
X230149Y210665D01*
X230520Y210814D01*
X230945Y210962D01*
X231445Y211054D01*
X231705Y211091D01*
X232167D01*
X232371Y211073D01*
D02*
G37*
G36*
X207407Y210851D02*
X207555Y210832D01*
X207740Y210814D01*
X207944Y210777D01*
X208147Y210739D01*
X208629Y210610D01*
X209110Y210425D01*
X209351Y210313D01*
X209592Y210184D01*
X209814Y210017D01*
X210018Y209832D01*
X210036Y209814D01*
X210073Y209795D01*
X210110Y209721D01*
X210184Y209647D01*
X210277Y209554D01*
X210369Y209425D01*
X210462Y209295D01*
X210573Y209128D01*
X210758Y208777D01*
X210943Y208332D01*
X211017Y208110D01*
X211054Y207851D01*
X211091Y207592D01*
X211110Y207314D01*
Y207277D01*
Y207184D01*
X211091Y207036D01*
X211073Y206832D01*
X211036Y206610D01*
X210962Y206351D01*
X210888Y206073D01*
X210777Y205795D01*
X210758Y205758D01*
X210721Y205666D01*
X210647Y205518D01*
X210536Y205314D01*
X210388Y205092D01*
X210203Y204814D01*
X209981Y204536D01*
X209721Y204222D01*
X209684Y204185D01*
X209592Y204074D01*
X209499Y203981D01*
X209406Y203888D01*
X209295Y203777D01*
X209147Y203629D01*
X208999Y203481D01*
X208814Y203314D01*
X208629Y203129D01*
X208407Y202925D01*
X208166Y202722D01*
X207907Y202481D01*
X207610Y202240D01*
X207314Y201981D01*
X207295Y201963D01*
X207258Y201926D01*
X207184Y201870D01*
X207092Y201796D01*
X206981Y201685D01*
X206851Y201574D01*
X206555Y201333D01*
X206240Y201055D01*
X205944Y200777D01*
X205685Y200537D01*
X205574Y200444D01*
X205481Y200352D01*
X205462Y200333D01*
X205407Y200278D01*
X205333Y200203D01*
X205240Y200092D01*
X205148Y199963D01*
X205037Y199833D01*
X204814Y199518D01*
X211129D01*
Y198000D01*
X202629D01*
Y198018D01*
Y198093D01*
Y198204D01*
X202648Y198352D01*
X202666Y198519D01*
X202703Y198704D01*
X202740Y198889D01*
X202815Y199093D01*
Y199111D01*
X202833Y199130D01*
X202870Y199241D01*
X202944Y199407D01*
X203055Y199629D01*
X203203Y199889D01*
X203389Y200185D01*
X203592Y200481D01*
X203852Y200796D01*
Y200814D01*
X203888Y200833D01*
X203981Y200944D01*
X204148Y201111D01*
X204388Y201352D01*
X204666Y201629D01*
X205018Y201963D01*
X205444Y202333D01*
X205907Y202722D01*
X205925Y202740D01*
X205999Y202796D01*
X206110Y202888D01*
X206240Y202999D01*
X206407Y203148D01*
X206610Y203314D01*
X206814Y203499D01*
X207055Y203703D01*
X207518Y204147D01*
X207981Y204592D01*
X208203Y204814D01*
X208407Y205036D01*
X208592Y205240D01*
X208740Y205444D01*
Y205462D01*
X208777Y205481D01*
X208814Y205536D01*
X208851Y205610D01*
X208981Y205814D01*
X209129Y206055D01*
X209258Y206351D01*
X209388Y206666D01*
X209462Y207018D01*
X209499Y207351D01*
Y207369D01*
Y207388D01*
X209480Y207499D01*
X209462Y207684D01*
X209406Y207888D01*
X209332Y208147D01*
X209203Y208406D01*
X209036Y208666D01*
X208814Y208925D01*
X208777Y208962D01*
X208684Y209036D01*
X208555Y209128D01*
X208351Y209258D01*
X208092Y209369D01*
X207796Y209480D01*
X207444Y209554D01*
X207055Y209573D01*
X206944D01*
X206870Y209554D01*
X206647Y209536D01*
X206388Y209480D01*
X206110Y209406D01*
X205796Y209277D01*
X205499Y209110D01*
X205222Y208888D01*
X205185Y208851D01*
X205111Y208758D01*
X205000Y208610D01*
X204888Y208388D01*
X204759Y208129D01*
X204648Y207795D01*
X204574Y207425D01*
X204537Y206999D01*
X202926Y207166D01*
Y207184D01*
X202944Y207240D01*
Y207332D01*
X202963Y207462D01*
X203000Y207610D01*
X203037Y207777D01*
X203092Y207980D01*
X203148Y208184D01*
X203296Y208629D01*
X203518Y209073D01*
X203648Y209295D01*
X203814Y209517D01*
X203981Y209721D01*
X204166Y209906D01*
X204185Y209925D01*
X204222Y209943D01*
X204277Y209999D01*
X204370Y210054D01*
X204481Y210128D01*
X204611Y210202D01*
X204759Y210295D01*
X204944Y210388D01*
X205148Y210480D01*
X205370Y210573D01*
X205611Y210647D01*
X205870Y210721D01*
X206147Y210777D01*
X206444Y210832D01*
X206759Y210851D01*
X207092Y210869D01*
X207277D01*
X207407Y210851D01*
D02*
G37*
G36*
X416013Y43703D02*
X416143D01*
X416273Y43684D01*
X416587Y43629D01*
X416921Y43536D01*
X417272Y43388D01*
X417624Y43203D01*
X417921Y42944D01*
X417958Y42906D01*
X418032Y42795D01*
X418161Y42629D01*
X418217Y42499D01*
X418291Y42369D01*
X418365Y42203D01*
X418421Y42036D01*
X418495Y41851D01*
X418550Y41629D01*
X418587Y41407D01*
X418624Y41147D01*
X418661Y40888D01*
Y40592D01*
Y34222D01*
X417087D01*
Y40055D01*
Y40073D01*
Y40092D01*
Y40203D01*
Y40370D01*
X417069Y40573D01*
X417050Y40796D01*
X417032Y41018D01*
X416995Y41240D01*
X416939Y41407D01*
Y41425D01*
X416902Y41481D01*
X416865Y41555D01*
X416810Y41647D01*
X416736Y41758D01*
X416643Y41870D01*
X416532Y41981D01*
X416384Y42092D01*
X416365Y42110D01*
X416310Y42129D01*
X416236Y42166D01*
X416106Y42221D01*
X415976Y42277D01*
X415810Y42314D01*
X415643Y42333D01*
X415439Y42351D01*
X415347D01*
X415273Y42333D01*
X415088Y42314D01*
X414865Y42277D01*
X414606Y42184D01*
X414328Y42073D01*
X414051Y41907D01*
X413791Y41684D01*
X413773Y41647D01*
X413699Y41555D01*
X413588Y41407D01*
X413477Y41184D01*
X413347Y40888D01*
X413254Y40536D01*
X413180Y40111D01*
X413143Y39611D01*
Y34222D01*
X411569D01*
Y40240D01*
Y40259D01*
Y40296D01*
Y40333D01*
Y40407D01*
X411551Y40610D01*
X411514Y40833D01*
X411477Y41092D01*
X411403Y41351D01*
X411310Y41592D01*
X411181Y41814D01*
X411162Y41832D01*
X411106Y41907D01*
X411014Y41981D01*
X410884Y42092D01*
X410718Y42184D01*
X410495Y42277D01*
X410236Y42333D01*
X409921Y42351D01*
X409810D01*
X409681Y42333D01*
X409533Y42314D01*
X409347Y42258D01*
X409125Y42203D01*
X408922Y42110D01*
X408699Y41999D01*
X408681Y41981D01*
X408607Y41925D01*
X408514Y41851D01*
X408385Y41740D01*
X408255Y41592D01*
X408125Y41407D01*
X407996Y41203D01*
X407885Y40962D01*
X407866Y40925D01*
X407848Y40833D01*
X407811Y40684D01*
X407755Y40481D01*
X407700Y40203D01*
X407662Y39870D01*
X407644Y39481D01*
X407625Y39037D01*
Y34222D01*
X406051D01*
Y43517D01*
X407459D01*
Y42184D01*
X407477Y42221D01*
X407533Y42295D01*
X407644Y42425D01*
X407774Y42573D01*
X407940Y42758D01*
X408144Y42944D01*
X408366Y43129D01*
X408625Y43295D01*
X408662Y43314D01*
X408755Y43369D01*
X408903Y43425D01*
X409107Y43517D01*
X409347Y43592D01*
X409625Y43647D01*
X409940Y43703D01*
X410273Y43721D01*
X410440D01*
X410644Y43703D01*
X410866Y43666D01*
X411144Y43610D01*
X411421Y43536D01*
X411699Y43425D01*
X411958Y43277D01*
X411995Y43258D01*
X412069Y43203D01*
X412180Y43110D01*
X412329Y42962D01*
X412477Y42795D01*
X412643Y42592D01*
X412791Y42351D01*
X412903Y42073D01*
X412921Y42092D01*
X412958Y42147D01*
X413014Y42221D01*
X413106Y42333D01*
X413217Y42462D01*
X413347Y42592D01*
X413495Y42740D01*
X413680Y42906D01*
X413884Y43055D01*
X414088Y43203D01*
X414328Y43332D01*
X414588Y43462D01*
X414865Y43573D01*
X415162Y43647D01*
X415458Y43703D01*
X415791Y43721D01*
X415921D01*
X416013Y43703D01*
D02*
G37*
G36*
X401089D02*
X401219D01*
X401348Y43684D01*
X401663Y43629D01*
X401996Y43536D01*
X402348Y43388D01*
X402700Y43203D01*
X402996Y42944D01*
X403033Y42906D01*
X403107Y42795D01*
X403237Y42629D01*
X403293Y42499D01*
X403367Y42369D01*
X403441Y42203D01*
X403496Y42036D01*
X403570Y41851D01*
X403626Y41629D01*
X403663Y41407D01*
X403700Y41147D01*
X403737Y40888D01*
Y40592D01*
Y34222D01*
X402163D01*
Y40055D01*
Y40073D01*
Y40092D01*
Y40203D01*
Y40370D01*
X402145Y40573D01*
X402126Y40796D01*
X402108Y41018D01*
X402070Y41240D01*
X402015Y41407D01*
Y41425D01*
X401978Y41481D01*
X401941Y41555D01*
X401885Y41647D01*
X401811Y41758D01*
X401719Y41870D01*
X401608Y41981D01*
X401459Y42092D01*
X401441Y42110D01*
X401385Y42129D01*
X401311Y42166D01*
X401182Y42221D01*
X401052Y42277D01*
X400885Y42314D01*
X400719Y42333D01*
X400515Y42351D01*
X400422D01*
X400348Y42333D01*
X400163Y42314D01*
X399941Y42277D01*
X399682Y42184D01*
X399404Y42073D01*
X399126Y41907D01*
X398867Y41684D01*
X398848Y41647D01*
X398774Y41555D01*
X398663Y41407D01*
X398552Y41184D01*
X398423Y40888D01*
X398330Y40536D01*
X398256Y40111D01*
X398219Y39611D01*
Y34222D01*
X396645D01*
Y40240D01*
Y40259D01*
Y40296D01*
Y40333D01*
Y40407D01*
X396627Y40610D01*
X396590Y40833D01*
X396553Y41092D01*
X396478Y41351D01*
X396386Y41592D01*
X396256Y41814D01*
X396238Y41832D01*
X396182Y41907D01*
X396090Y41981D01*
X395960Y42092D01*
X395793Y42184D01*
X395571Y42277D01*
X395312Y42333D01*
X394997Y42351D01*
X394886D01*
X394756Y42333D01*
X394608Y42314D01*
X394423Y42258D01*
X394201Y42203D01*
X393997Y42110D01*
X393775Y41999D01*
X393756Y41981D01*
X393682Y41925D01*
X393590Y41851D01*
X393460Y41740D01*
X393331Y41592D01*
X393201Y41407D01*
X393071Y41203D01*
X392960Y40962D01*
X392942Y40925D01*
X392923Y40833D01*
X392886Y40684D01*
X392831Y40481D01*
X392775Y40203D01*
X392738Y39870D01*
X392719Y39481D01*
X392701Y39037D01*
Y34222D01*
X391127D01*
Y43517D01*
X392534D01*
Y42184D01*
X392553Y42221D01*
X392608Y42295D01*
X392719Y42425D01*
X392849Y42573D01*
X393016Y42758D01*
X393219Y42944D01*
X393442Y43129D01*
X393701Y43295D01*
X393738Y43314D01*
X393830Y43369D01*
X393979Y43425D01*
X394182Y43517D01*
X394423Y43592D01*
X394701Y43647D01*
X395016Y43703D01*
X395349Y43721D01*
X395516D01*
X395719Y43703D01*
X395941Y43666D01*
X396219Y43610D01*
X396497Y43536D01*
X396775Y43425D01*
X397034Y43277D01*
X397071Y43258D01*
X397145Y43203D01*
X397256Y43110D01*
X397404Y42962D01*
X397552Y42795D01*
X397719Y42592D01*
X397867Y42351D01*
X397978Y42073D01*
X397997Y42092D01*
X398034Y42147D01*
X398089Y42221D01*
X398182Y42333D01*
X398293Y42462D01*
X398423Y42592D01*
X398571Y42740D01*
X398756Y42906D01*
X398960Y43055D01*
X399163Y43203D01*
X399404Y43332D01*
X399663Y43462D01*
X399941Y43573D01*
X400237Y43647D01*
X400533Y43703D01*
X400867Y43721D01*
X400997D01*
X401089Y43703D01*
D02*
G37*
G36*
X430216Y38074D02*
X425346D01*
Y39648D01*
X430216D01*
Y38074D01*
D02*
G37*
G36*
X472174Y45517D02*
X467952D01*
Y34222D01*
X466249D01*
Y45517D01*
X462027D01*
Y47036D01*
X472174D01*
Y45517D01*
D02*
G37*
G36*
X442214Y47017D02*
X442363D01*
X442696Y46980D01*
X443066Y46943D01*
X443455Y46869D01*
X443844Y46776D01*
X444196Y46647D01*
X444214D01*
X444233Y46628D01*
X444344Y46573D01*
X444510Y46480D01*
X444696Y46351D01*
X444918Y46184D01*
X445159Y45980D01*
X445381Y45721D01*
X445584Y45443D01*
X445603Y45406D01*
X445658Y45295D01*
X445751Y45147D01*
X445844Y44925D01*
X445936Y44666D01*
X446029Y44388D01*
X446084Y44073D01*
X446103Y43758D01*
Y43721D01*
Y43629D01*
X446084Y43462D01*
X446047Y43258D01*
X445992Y43018D01*
X445899Y42758D01*
X445788Y42499D01*
X445640Y42221D01*
X445621Y42184D01*
X445566Y42110D01*
X445455Y41962D01*
X445307Y41814D01*
X445121Y41629D01*
X444899Y41425D01*
X444622Y41240D01*
X444307Y41055D01*
X444325D01*
X444362Y41036D01*
X444418Y41018D01*
X444492Y40981D01*
X444714Y40907D01*
X444973Y40777D01*
X445251Y40610D01*
X445566Y40407D01*
X445844Y40166D01*
X446103Y39870D01*
X446121Y39833D01*
X446195Y39722D01*
X446307Y39555D01*
X446418Y39333D01*
X446529Y39037D01*
X446640Y38722D01*
X446714Y38351D01*
X446732Y37944D01*
Y37926D01*
Y37907D01*
Y37796D01*
X446714Y37611D01*
X446677Y37389D01*
X446640Y37129D01*
X446566Y36852D01*
X446473Y36555D01*
X446344Y36259D01*
X446325Y36222D01*
X446269Y36129D01*
X446195Y36000D01*
X446084Y35815D01*
X445936Y35629D01*
X445788Y35426D01*
X445603Y35222D01*
X445399Y35055D01*
X445381Y35037D01*
X445307Y34981D01*
X445177Y34907D01*
X445010Y34833D01*
X444807Y34722D01*
X444566Y34611D01*
X444307Y34518D01*
X443992Y34426D01*
X443955D01*
X443844Y34389D01*
X443659Y34370D01*
X443418Y34333D01*
X443122Y34296D01*
X442770Y34259D01*
X442381Y34241D01*
X441937Y34222D01*
X437048Y34222D01*
Y47036D01*
X442085Y47036D01*
X442214Y47017D01*
D02*
G37*
G36*
X378443Y34222D02*
X376647D01*
Y36018D01*
X378443D01*
Y34222D01*
D02*
G37*
G36*
X371722D02*
X370148D01*
Y44240D01*
X370129Y44221D01*
X370037Y44147D01*
X369926Y44036D01*
X369740Y43906D01*
X369537Y43740D01*
X369277Y43555D01*
X368981Y43351D01*
X368648Y43147D01*
X368629D01*
X368611Y43129D01*
X368500Y43055D01*
X368315Y42962D01*
X368092Y42851D01*
X367833Y42721D01*
X367556Y42592D01*
X367278Y42462D01*
X367000Y42351D01*
Y43869D01*
X367019D01*
X367056Y43906D01*
X367130Y43925D01*
X367222Y43980D01*
X367333Y44036D01*
X367463Y44110D01*
X367778Y44295D01*
X368148Y44499D01*
X368518Y44758D01*
X368907Y45054D01*
X369296Y45369D01*
X369315Y45388D01*
X369333Y45406D01*
X369389Y45462D01*
X369463Y45517D01*
X369629Y45703D01*
X369851Y45925D01*
X370074Y46184D01*
X370314Y46480D01*
X370518Y46776D01*
X370703Y47091D01*
X371722D01*
Y34222D01*
D02*
G37*
G36*
X454972Y47239D02*
X455139D01*
X455306Y47221D01*
X455528Y47184D01*
X455750Y47147D01*
X456231Y47054D01*
X456787Y46906D01*
X457324Y46684D01*
X457602Y46554D01*
X457879Y46406D01*
X457898Y46388D01*
X457935Y46369D01*
X458009Y46314D01*
X458120Y46258D01*
X458231Y46165D01*
X458379Y46054D01*
X458694Y45795D01*
X459027Y45462D01*
X459398Y45054D01*
X459750Y44573D01*
X460046Y44036D01*
Y44018D01*
X460083Y43962D01*
X460120Y43888D01*
X460157Y43777D01*
X460231Y43629D01*
X460287Y43462D01*
X460361Y43258D01*
X460435Y43036D01*
X460490Y42795D01*
X460564Y42536D01*
X460638Y42240D01*
X460694Y41944D01*
X460768Y41296D01*
X460805Y40592D01*
Y40573D01*
Y40499D01*
Y40407D01*
X460787Y40259D01*
Y40092D01*
X460768Y39888D01*
X460731Y39666D01*
X460713Y39425D01*
X460620Y38888D01*
X460472Y38296D01*
X460268Y37703D01*
X460157Y37407D01*
X460009Y37111D01*
Y37092D01*
X459972Y37037D01*
X459935Y36963D01*
X459861Y36852D01*
X459787Y36722D01*
X459694Y36592D01*
X459435Y36240D01*
X459120Y35870D01*
X458750Y35481D01*
X458305Y35111D01*
X457787Y34778D01*
X457768D01*
X457731Y34741D01*
X457639Y34704D01*
X457528Y34648D01*
X457398Y34593D01*
X457250Y34537D01*
X457065Y34463D01*
X456861Y34389D01*
X456639Y34315D01*
X456398Y34241D01*
X455861Y34130D01*
X455287Y34037D01*
X454676Y34000D01*
X454491D01*
X454380Y34019D01*
X454213D01*
X454028Y34056D01*
X453824Y34074D01*
X453584Y34111D01*
X453084Y34222D01*
X452547Y34370D01*
X451991Y34593D01*
X451713Y34722D01*
X451436Y34870D01*
X451417Y34889D01*
X451380Y34907D01*
X451306Y34963D01*
X451195Y35037D01*
X451084Y35111D01*
X450954Y35222D01*
X450639Y35500D01*
X450288Y35833D01*
X449917Y36240D01*
X449584Y36704D01*
X449269Y37240D01*
Y37259D01*
X449232Y37315D01*
X449195Y37389D01*
X449158Y37500D01*
X449103Y37648D01*
X449047Y37815D01*
X448973Y38000D01*
X448917Y38203D01*
X448843Y38444D01*
X448769Y38685D01*
X448658Y39240D01*
X448584Y39814D01*
X448547Y40444D01*
Y40462D01*
Y40481D01*
Y40592D01*
X448566Y40759D01*
Y40981D01*
X448603Y41240D01*
X448640Y41555D01*
X448695Y41907D01*
X448769Y42277D01*
X448843Y42666D01*
X448954Y43073D01*
X449103Y43481D01*
X449269Y43906D01*
X449454Y44314D01*
X449695Y44721D01*
X449954Y45092D01*
X450251Y45443D01*
X450269Y45462D01*
X450325Y45517D01*
X450436Y45610D01*
X450565Y45721D01*
X450732Y45869D01*
X450936Y46017D01*
X451176Y46184D01*
X451454Y46351D01*
X451750Y46517D01*
X452084Y46684D01*
X452454Y46832D01*
X452843Y46980D01*
X453269Y47091D01*
X453713Y47184D01*
X454176Y47239D01*
X454676Y47258D01*
X454843D01*
X454972Y47239D01*
D02*
G37*
G36*
X385294Y47073D02*
X385535Y47036D01*
X385813Y46980D01*
X386109Y46906D01*
X386424Y46814D01*
X386720Y46665D01*
X386739D01*
X386757Y46647D01*
X386850Y46591D01*
X386998Y46499D01*
X387183Y46369D01*
X387387Y46184D01*
X387609Y45980D01*
X387813Y45739D01*
X388016Y45462D01*
X388035Y45425D01*
X388109Y45332D01*
X388183Y45166D01*
X388313Y44925D01*
X388424Y44647D01*
X388572Y44332D01*
X388701Y43962D01*
X388812Y43555D01*
Y43536D01*
X388831Y43499D01*
X388850Y43443D01*
X388868Y43351D01*
X388887Y43240D01*
X388905Y43110D01*
X388942Y42944D01*
X388961Y42758D01*
X388998Y42555D01*
X389016Y42333D01*
X389035Y42073D01*
X389072Y41814D01*
X389090Y41518D01*
Y41221D01*
X389109Y40888D01*
Y40536D01*
Y40518D01*
Y40444D01*
Y40314D01*
Y40166D01*
X389090Y39962D01*
Y39740D01*
X389072Y39499D01*
X389053Y39240D01*
X388998Y38648D01*
X388905Y38037D01*
X388794Y37444D01*
X388720Y37166D01*
X388627Y36889D01*
Y36870D01*
X388609Y36833D01*
X388572Y36759D01*
X388535Y36666D01*
X388498Y36537D01*
X388424Y36407D01*
X388276Y36092D01*
X388090Y35759D01*
X387850Y35389D01*
X387572Y35055D01*
X387239Y34741D01*
X387220D01*
X387202Y34704D01*
X387146Y34667D01*
X387072Y34630D01*
X386979Y34574D01*
X386887Y34500D01*
X386609Y34370D01*
X386276Y34241D01*
X385887Y34111D01*
X385424Y34037D01*
X384924Y34000D01*
X384739D01*
X384609Y34018D01*
X384461Y34037D01*
X384276Y34074D01*
X384072Y34111D01*
X383850Y34167D01*
X383628Y34241D01*
X383387Y34315D01*
X383147Y34426D01*
X382906Y34555D01*
X382665Y34704D01*
X382424Y34889D01*
X382202Y35092D01*
X381998Y35315D01*
X381980Y35333D01*
X381943Y35389D01*
X381887Y35481D01*
X381795Y35629D01*
X381702Y35796D01*
X381610Y36018D01*
X381480Y36277D01*
X381369Y36574D01*
X381258Y36907D01*
X381147Y37296D01*
X381036Y37722D01*
X380943Y38203D01*
X380850Y38722D01*
X380795Y39277D01*
X380758Y39888D01*
X380739Y40536D01*
Y40555D01*
Y40629D01*
Y40759D01*
Y40907D01*
X380758Y41110D01*
Y41333D01*
X380776Y41573D01*
X380795Y41851D01*
X380850Y42425D01*
X380943Y43036D01*
X381054Y43647D01*
X381128Y43925D01*
X381202Y44203D01*
Y44221D01*
X381221Y44258D01*
X381258Y44332D01*
X381295Y44425D01*
X381332Y44555D01*
X381406Y44684D01*
X381554Y44999D01*
X381739Y45332D01*
X381980Y45684D01*
X382258Y46036D01*
X382591Y46332D01*
X382609D01*
X382628Y46369D01*
X382683Y46406D01*
X382758Y46443D01*
X382850Y46517D01*
X382961Y46573D01*
X383239Y46721D01*
X383572Y46851D01*
X383961Y46980D01*
X384424Y47054D01*
X384924Y47091D01*
X385091D01*
X385294Y47073D01*
D02*
G37*
G36*
X417217Y62871D02*
X417347D01*
X417476Y62853D01*
X417791Y62797D01*
X418124Y62705D01*
X418476Y62557D01*
X418828Y62372D01*
X419124Y62112D01*
X419161Y62075D01*
X419235Y61964D01*
X419365Y61798D01*
X419421Y61668D01*
X419495Y61538D01*
X419569Y61372D01*
X419624Y61205D01*
X419698Y61020D01*
X419754Y60798D01*
X419791Y60575D01*
X419828Y60316D01*
X419865Y60057D01*
Y59761D01*
Y53391D01*
X418291D01*
Y59224D01*
Y59242D01*
Y59261D01*
Y59372D01*
Y59538D01*
X418272Y59742D01*
X418254Y59964D01*
X418235Y60187D01*
X418198Y60409D01*
X418143Y60575D01*
Y60594D01*
X418106Y60649D01*
X418069Y60724D01*
X418013Y60816D01*
X417939Y60927D01*
X417847Y61038D01*
X417735Y61150D01*
X417587Y61261D01*
X417569Y61279D01*
X417513Y61298D01*
X417439Y61335D01*
X417310Y61390D01*
X417180Y61446D01*
X417013Y61483D01*
X416847Y61501D01*
X416643Y61520D01*
X416550D01*
X416476Y61501D01*
X416291Y61483D01*
X416069Y61446D01*
X415810Y61353D01*
X415532Y61242D01*
X415254Y61075D01*
X414995Y60853D01*
X414977Y60816D01*
X414902Y60724D01*
X414791Y60575D01*
X414680Y60353D01*
X414551Y60057D01*
X414458Y59705D01*
X414384Y59279D01*
X414347Y58779D01*
Y53391D01*
X412773D01*
Y59409D01*
Y59427D01*
Y59465D01*
Y59502D01*
Y59576D01*
X412755Y59779D01*
X412718Y60002D01*
X412680Y60261D01*
X412606Y60520D01*
X412514Y60761D01*
X412384Y60983D01*
X412366Y61001D01*
X412310Y61075D01*
X412217Y61150D01*
X412088Y61261D01*
X411921Y61353D01*
X411699Y61446D01*
X411440Y61501D01*
X411125Y61520D01*
X411014D01*
X410884Y61501D01*
X410736Y61483D01*
X410551Y61427D01*
X410329Y61372D01*
X410125Y61279D01*
X409903Y61168D01*
X409884Y61150D01*
X409810Y61094D01*
X409718Y61020D01*
X409588Y60909D01*
X409459Y60761D01*
X409329Y60575D01*
X409199Y60372D01*
X409088Y60131D01*
X409070Y60094D01*
X409051Y60002D01*
X409014Y59853D01*
X408959Y59650D01*
X408903Y59372D01*
X408866Y59039D01*
X408848Y58650D01*
X408829Y58205D01*
Y53391D01*
X407255D01*
Y62686D01*
X408662D01*
Y61353D01*
X408681Y61390D01*
X408736Y61464D01*
X408848Y61594D01*
X408977Y61742D01*
X409144Y61927D01*
X409347Y62112D01*
X409570Y62298D01*
X409829Y62464D01*
X409866Y62483D01*
X409958Y62538D01*
X410107Y62594D01*
X410310Y62686D01*
X410551Y62760D01*
X410829Y62816D01*
X411144Y62871D01*
X411477Y62890D01*
X411643D01*
X411847Y62871D01*
X412069Y62835D01*
X412347Y62779D01*
X412625Y62705D01*
X412903Y62594D01*
X413162Y62446D01*
X413199Y62427D01*
X413273Y62372D01*
X413384Y62279D01*
X413532Y62131D01*
X413680Y61964D01*
X413847Y61761D01*
X413995Y61520D01*
X414106Y61242D01*
X414125Y61261D01*
X414162Y61316D01*
X414217Y61390D01*
X414310Y61501D01*
X414421Y61631D01*
X414551Y61761D01*
X414699Y61909D01*
X414884Y62075D01*
X415088Y62223D01*
X415291Y62372D01*
X415532Y62501D01*
X415791Y62631D01*
X416069Y62742D01*
X416365Y62816D01*
X416661Y62871D01*
X416995Y62890D01*
X417124D01*
X417217Y62871D01*
D02*
G37*
G36*
X402293D02*
X402422D01*
X402552Y62853D01*
X402867Y62797D01*
X403200Y62705D01*
X403552Y62557D01*
X403904Y62372D01*
X404200Y62112D01*
X404237Y62075D01*
X404311Y61964D01*
X404440Y61798D01*
X404496Y61668D01*
X404570Y61538D01*
X404644Y61372D01*
X404700Y61205D01*
X404774Y61020D01*
X404829Y60798D01*
X404866Y60575D01*
X404903Y60316D01*
X404940Y60057D01*
Y59761D01*
Y53391D01*
X403367D01*
Y59224D01*
Y59242D01*
Y59261D01*
Y59372D01*
Y59538D01*
X403348Y59742D01*
X403330Y59964D01*
X403311Y60187D01*
X403274Y60409D01*
X403218Y60575D01*
Y60594D01*
X403181Y60649D01*
X403144Y60724D01*
X403089Y60816D01*
X403015Y60927D01*
X402922Y61038D01*
X402811Y61150D01*
X402663Y61261D01*
X402644Y61279D01*
X402589Y61298D01*
X402515Y61335D01*
X402385Y61390D01*
X402256Y61446D01*
X402089Y61483D01*
X401922Y61501D01*
X401719Y61520D01*
X401626D01*
X401552Y61501D01*
X401367Y61483D01*
X401145Y61446D01*
X400885Y61353D01*
X400608Y61242D01*
X400330Y61075D01*
X400071Y60853D01*
X400052Y60816D01*
X399978Y60724D01*
X399867Y60575D01*
X399756Y60353D01*
X399626Y60057D01*
X399534Y59705D01*
X399460Y59279D01*
X399422Y58779D01*
Y53391D01*
X397849D01*
Y59409D01*
Y59427D01*
Y59465D01*
Y59502D01*
Y59576D01*
X397830Y59779D01*
X397793Y60002D01*
X397756Y60261D01*
X397682Y60520D01*
X397589Y60761D01*
X397460Y60983D01*
X397441Y61001D01*
X397386Y61075D01*
X397293Y61150D01*
X397164Y61261D01*
X396997Y61353D01*
X396775Y61446D01*
X396515Y61501D01*
X396201Y61520D01*
X396090D01*
X395960Y61501D01*
X395812Y61483D01*
X395627Y61427D01*
X395404Y61372D01*
X395201Y61279D01*
X394979Y61168D01*
X394960Y61150D01*
X394886Y61094D01*
X394793Y61020D01*
X394664Y60909D01*
X394534Y60761D01*
X394404Y60575D01*
X394275Y60372D01*
X394164Y60131D01*
X394145Y60094D01*
X394127Y60002D01*
X394090Y59853D01*
X394034Y59650D01*
X393979Y59372D01*
X393942Y59039D01*
X393923Y58650D01*
X393905Y58205D01*
Y53391D01*
X392331D01*
Y62686D01*
X393738D01*
Y61353D01*
X393756Y61390D01*
X393812Y61464D01*
X393923Y61594D01*
X394053Y61742D01*
X394219Y61927D01*
X394423Y62112D01*
X394645Y62298D01*
X394905Y62464D01*
X394941Y62483D01*
X395034Y62538D01*
X395182Y62594D01*
X395386Y62686D01*
X395627Y62760D01*
X395904Y62816D01*
X396219Y62871D01*
X396553Y62890D01*
X396719D01*
X396923Y62871D01*
X397145Y62835D01*
X397423Y62779D01*
X397701Y62705D01*
X397978Y62594D01*
X398237Y62446D01*
X398274Y62427D01*
X398349Y62372D01*
X398460Y62279D01*
X398608Y62131D01*
X398756Y61964D01*
X398923Y61761D01*
X399071Y61520D01*
X399182Y61242D01*
X399200Y61261D01*
X399237Y61316D01*
X399293Y61390D01*
X399385Y61501D01*
X399497Y61631D01*
X399626Y61761D01*
X399774Y61909D01*
X399959Y62075D01*
X400163Y62223D01*
X400367Y62372D01*
X400608Y62501D01*
X400867Y62631D01*
X401145Y62742D01*
X401441Y62816D01*
X401737Y62871D01*
X402070Y62890D01*
X402200D01*
X402293Y62871D01*
D02*
G37*
G36*
X431419Y57242D02*
X426549D01*
Y58816D01*
X431419D01*
Y57242D01*
D02*
G37*
G36*
X389831Y64538D02*
X384702D01*
X384017Y61075D01*
X384035Y61094D01*
X384072Y61112D01*
X384128Y61150D01*
X384220Y61205D01*
X384332Y61261D01*
X384461Y61335D01*
X384757Y61483D01*
X385128Y61631D01*
X385535Y61761D01*
X385979Y61853D01*
X386202Y61890D01*
X386609D01*
X386720Y61872D01*
X386868Y61853D01*
X387035Y61835D01*
X387220Y61798D01*
X387424Y61742D01*
X387868Y61612D01*
X388109Y61520D01*
X388350Y61390D01*
X388590Y61261D01*
X388831Y61112D01*
X389053Y60927D01*
X389275Y60724D01*
X389294Y60705D01*
X389331Y60668D01*
X389386Y60613D01*
X389461Y60520D01*
X389553Y60390D01*
X389646Y60261D01*
X389757Y60094D01*
X389868Y59909D01*
X389961Y59705D01*
X390072Y59483D01*
X390164Y59224D01*
X390257Y58965D01*
X390331Y58687D01*
X390386Y58372D01*
X390424Y58057D01*
X390442Y57724D01*
Y57705D01*
Y57650D01*
Y57557D01*
X390424Y57428D01*
X390405Y57280D01*
X390386Y57113D01*
X390349Y56909D01*
X390312Y56705D01*
X390201Y56224D01*
X390016Y55724D01*
X389905Y55465D01*
X389757Y55224D01*
X389609Y54965D01*
X389424Y54724D01*
X389405Y54706D01*
X389368Y54650D01*
X389294Y54576D01*
X389201Y54483D01*
X389072Y54372D01*
X388924Y54224D01*
X388739Y54095D01*
X388535Y53946D01*
X388313Y53798D01*
X388053Y53669D01*
X387776Y53539D01*
X387479Y53410D01*
X387165Y53317D01*
X386813Y53243D01*
X386442Y53187D01*
X386054Y53169D01*
X385887D01*
X385757Y53187D01*
X385609Y53206D01*
X385443Y53224D01*
X385239Y53243D01*
X385035Y53298D01*
X384572Y53410D01*
X384109Y53576D01*
X383869Y53687D01*
X383628Y53817D01*
X383406Y53965D01*
X383184Y54132D01*
X383165Y54150D01*
X383128Y54169D01*
X383091Y54243D01*
X383017Y54317D01*
X382924Y54409D01*
X382832Y54521D01*
X382721Y54669D01*
X382628Y54835D01*
X382517Y55002D01*
X382406Y55206D01*
X382202Y55650D01*
X382035Y56168D01*
X381980Y56446D01*
X381943Y56743D01*
X383591Y56872D01*
Y56854D01*
Y56817D01*
X383609Y56761D01*
X383628Y56669D01*
X383683Y56465D01*
X383758Y56187D01*
X383869Y55909D01*
X384017Y55595D01*
X384202Y55317D01*
X384424Y55058D01*
X384461Y55039D01*
X384535Y54965D01*
X384683Y54872D01*
X384887Y54761D01*
X385109Y54650D01*
X385387Y54558D01*
X385702Y54483D01*
X386054Y54465D01*
X386165D01*
X386239Y54483D01*
X386461Y54502D01*
X386720Y54576D01*
X387035Y54669D01*
X387350Y54817D01*
X387683Y55039D01*
X387831Y55169D01*
X387979Y55317D01*
X387998Y55335D01*
X388016Y55354D01*
X388053Y55409D01*
X388109Y55465D01*
X388238Y55669D01*
X388387Y55928D01*
X388516Y56243D01*
X388646Y56631D01*
X388739Y57094D01*
X388775Y57335D01*
Y57594D01*
Y57613D01*
Y57650D01*
Y57724D01*
X388757Y57817D01*
Y57928D01*
X388739Y58057D01*
X388683Y58354D01*
X388590Y58705D01*
X388461Y59057D01*
X388276Y59390D01*
X388016Y59705D01*
Y59724D01*
X387979Y59742D01*
X387887Y59835D01*
X387720Y59964D01*
X387498Y60113D01*
X387202Y60242D01*
X386868Y60372D01*
X386479Y60464D01*
X386257Y60501D01*
X385905D01*
X385757Y60483D01*
X385572Y60464D01*
X385350Y60409D01*
X385128Y60353D01*
X384887Y60261D01*
X384646Y60150D01*
X384628Y60131D01*
X384554Y60094D01*
X384443Y60002D01*
X384295Y59909D01*
X384146Y59779D01*
X383998Y59613D01*
X383832Y59446D01*
X383702Y59242D01*
X382221Y59446D01*
X383461Y66038D01*
X389831D01*
Y64538D01*
D02*
G37*
G36*
X468730Y66186D02*
X469045Y66167D01*
X469378Y66149D01*
X469693Y66112D01*
X469971Y66075D01*
X470008D01*
X470137Y66038D01*
X470304Y66001D01*
X470526Y65945D01*
X470767Y65853D01*
X471026Y65742D01*
X471304Y65612D01*
X471545Y65464D01*
X471582Y65445D01*
X471656Y65390D01*
X471767Y65279D01*
X471915Y65149D01*
X472082Y64982D01*
X472248Y64760D01*
X472434Y64520D01*
X472582Y64242D01*
X472600Y64205D01*
X472637Y64112D01*
X472711Y63945D01*
X472785Y63723D01*
X472841Y63464D01*
X472915Y63168D01*
X472952Y62835D01*
X472971Y62483D01*
Y62464D01*
Y62409D01*
Y62335D01*
X472952Y62205D01*
X472933Y62075D01*
X472915Y61909D01*
X472878Y61723D01*
X472841Y61520D01*
X472711Y61094D01*
X472637Y60872D01*
X472526Y60631D01*
X472397Y60390D01*
X472267Y60168D01*
X472100Y59946D01*
X471915Y59724D01*
X471897Y59705D01*
X471860Y59668D01*
X471804Y59613D01*
X471711Y59557D01*
X471600Y59465D01*
X471452Y59372D01*
X471267Y59261D01*
X471063Y59168D01*
X470823Y59057D01*
X470545Y58946D01*
X470248Y58854D01*
X469897Y58779D01*
X469526Y58705D01*
X469119Y58650D01*
X468656Y58613D01*
X468175Y58594D01*
X464897D01*
Y53391D01*
X463194D01*
Y66205D01*
X468452D01*
X468730Y66186D01*
D02*
G37*
G36*
X447510Y64686D02*
X443288D01*
Y53391D01*
X441585D01*
Y64686D01*
X437363Y64686D01*
Y66205D01*
X447510Y66205D01*
Y64686D01*
D02*
G37*
G36*
X379647Y53391D02*
X377851D01*
Y55187D01*
X379647D01*
Y53391D01*
D02*
G37*
G36*
X455176Y66408D02*
X455343D01*
X455509Y66390D01*
X455732Y66353D01*
X455954Y66316D01*
X456435Y66223D01*
X456991Y66075D01*
X457528Y65853D01*
X457805Y65723D01*
X458083Y65575D01*
X458102Y65557D01*
X458139Y65538D01*
X458213Y65482D01*
X458324Y65427D01*
X458435Y65334D01*
X458583Y65223D01*
X458898Y64964D01*
X459231Y64631D01*
X459602Y64223D01*
X459953Y63742D01*
X460250Y63205D01*
Y63186D01*
X460287Y63131D01*
X460324Y63057D01*
X460361Y62946D01*
X460435Y62797D01*
X460490Y62631D01*
X460564Y62427D01*
X460638Y62205D01*
X460694Y61964D01*
X460768Y61705D01*
X460842Y61409D01*
X460898Y61112D01*
X460972Y60464D01*
X461009Y59761D01*
Y59742D01*
Y59668D01*
Y59576D01*
X460990Y59427D01*
Y59261D01*
X460972Y59057D01*
X460935Y58835D01*
X460916Y58594D01*
X460824Y58057D01*
X460676Y57465D01*
X460472Y56872D01*
X460361Y56576D01*
X460213Y56280D01*
Y56261D01*
X460176Y56206D01*
X460139Y56132D01*
X460064Y56020D01*
X459990Y55891D01*
X459898Y55761D01*
X459638Y55409D01*
X459324Y55039D01*
X458953Y54650D01*
X458509Y54280D01*
X457990Y53947D01*
X457972D01*
X457935Y53910D01*
X457842Y53872D01*
X457731Y53817D01*
X457602Y53761D01*
X457454Y53706D01*
X457268Y53632D01*
X457065Y53558D01*
X456842Y53484D01*
X456602Y53410D01*
X456065Y53299D01*
X455491Y53206D01*
X454880Y53169D01*
X454695D01*
X454584Y53187D01*
X454417D01*
X454232Y53224D01*
X454028Y53243D01*
X453787Y53280D01*
X453287Y53391D01*
X452750Y53539D01*
X452195Y53761D01*
X451917Y53891D01*
X451639Y54039D01*
X451621Y54058D01*
X451584Y54076D01*
X451510Y54132D01*
X451399Y54206D01*
X451287Y54280D01*
X451158Y54391D01*
X450843Y54669D01*
X450491Y55002D01*
X450121Y55409D01*
X449788Y55872D01*
X449473Y56409D01*
Y56428D01*
X449436Y56483D01*
X449399Y56557D01*
X449362Y56669D01*
X449306Y56817D01*
X449251Y56983D01*
X449177Y57168D01*
X449121Y57372D01*
X449047Y57613D01*
X448973Y57854D01*
X448862Y58409D01*
X448788Y58983D01*
X448751Y59613D01*
Y59631D01*
Y59650D01*
Y59761D01*
X448769Y59927D01*
Y60150D01*
X448806Y60409D01*
X448843Y60724D01*
X448899Y61075D01*
X448973Y61446D01*
X449047Y61835D01*
X449158Y62242D01*
X449306Y62649D01*
X449473Y63075D01*
X449658Y63483D01*
X449899Y63890D01*
X450158Y64260D01*
X450454Y64612D01*
X450473Y64631D01*
X450528Y64686D01*
X450639Y64779D01*
X450769Y64890D01*
X450936Y65038D01*
X451139Y65186D01*
X451380Y65353D01*
X451658Y65519D01*
X451954Y65686D01*
X452287Y65853D01*
X452658Y66001D01*
X453047Y66149D01*
X453473Y66260D01*
X453917Y66353D01*
X454380Y66408D01*
X454880Y66427D01*
X455046D01*
X455176Y66408D01*
D02*
G37*
G36*
X371555Y66241D02*
X371796Y66205D01*
X372074Y66149D01*
X372370Y66075D01*
X372685Y65982D01*
X372981Y65834D01*
X372999D01*
X373018Y65816D01*
X373111Y65760D01*
X373259Y65668D01*
X373444Y65538D01*
X373647Y65353D01*
X373870Y65149D01*
X374073Y64908D01*
X374277Y64631D01*
X374296Y64594D01*
X374370Y64501D01*
X374444Y64334D01*
X374573Y64094D01*
X374684Y63816D01*
X374832Y63501D01*
X374962Y63131D01*
X375073Y62723D01*
Y62705D01*
X375092Y62668D01*
X375110Y62612D01*
X375129Y62520D01*
X375147Y62409D01*
X375166Y62279D01*
X375203Y62112D01*
X375221Y61927D01*
X375258Y61723D01*
X375277Y61501D01*
X375295Y61242D01*
X375332Y60983D01*
X375351Y60687D01*
Y60390D01*
X375369Y60057D01*
Y59705D01*
Y59687D01*
Y59613D01*
Y59483D01*
Y59335D01*
X375351Y59131D01*
Y58909D01*
X375332Y58668D01*
X375314Y58409D01*
X375258Y57817D01*
X375166Y57205D01*
X375055Y56613D01*
X374981Y56335D01*
X374888Y56057D01*
Y56039D01*
X374869Y56002D01*
X374832Y55928D01*
X374795Y55835D01*
X374758Y55706D01*
X374684Y55576D01*
X374536Y55261D01*
X374351Y54928D01*
X374110Y54558D01*
X373833Y54224D01*
X373499Y53910D01*
X373481D01*
X373462Y53872D01*
X373407Y53835D01*
X373333Y53798D01*
X373240Y53743D01*
X373148Y53669D01*
X372870Y53539D01*
X372536Y53410D01*
X372148Y53280D01*
X371685Y53206D01*
X371185Y53169D01*
X371000D01*
X370870Y53187D01*
X370722Y53206D01*
X370537Y53243D01*
X370333Y53280D01*
X370111Y53335D01*
X369889Y53410D01*
X369648Y53484D01*
X369407Y53595D01*
X369166Y53724D01*
X368926Y53872D01*
X368685Y54058D01*
X368463Y54261D01*
X368259Y54483D01*
X368241Y54502D01*
X368204Y54558D01*
X368148Y54650D01*
X368055Y54798D01*
X367963Y54965D01*
X367870Y55187D01*
X367741Y55446D01*
X367630Y55743D01*
X367518Y56076D01*
X367407Y56465D01*
X367296Y56891D01*
X367204Y57372D01*
X367111Y57891D01*
X367056Y58446D01*
X367019Y59057D01*
X367000Y59705D01*
Y59724D01*
Y59798D01*
Y59927D01*
Y60075D01*
X367019Y60279D01*
Y60501D01*
X367037Y60742D01*
X367056Y61020D01*
X367111Y61594D01*
X367204Y62205D01*
X367315Y62816D01*
X367389Y63094D01*
X367463Y63372D01*
Y63390D01*
X367481Y63427D01*
X367518Y63501D01*
X367556Y63594D01*
X367593Y63723D01*
X367667Y63853D01*
X367815Y64168D01*
X368000Y64501D01*
X368241Y64853D01*
X368518Y65205D01*
X368852Y65501D01*
X368870D01*
X368889Y65538D01*
X368944Y65575D01*
X369018Y65612D01*
X369111Y65686D01*
X369222Y65742D01*
X369500Y65890D01*
X369833Y66019D01*
X370222Y66149D01*
X370685Y66223D01*
X371185Y66260D01*
X371351D01*
X371555Y66241D01*
D02*
G37*
G36*
X156277Y65994D02*
X150770D01*
Y72279D01*
X156277D01*
Y65994D01*
D02*
G37*
G36*
X131331Y60616D02*
X131785Y60551D01*
X132757Y60422D01*
X133923Y60162D01*
X135154Y59774D01*
X136385Y59191D01*
X137616Y58478D01*
X137681D01*
X137746Y58348D01*
X138135Y58089D01*
X138718Y57571D01*
X139431Y56923D01*
X140208Y56080D01*
X140986Y55044D01*
X141763Y53812D01*
X142411Y52452D01*
Y52387D01*
X142476Y52257D01*
X142541Y52063D01*
X142670Y51804D01*
X142800Y51415D01*
X142929Y50961D01*
X143253Y49925D01*
X143577Y48629D01*
X143837Y47203D01*
X144031Y45583D01*
X144096Y43899D01*
Y43834D01*
Y43704D01*
Y43445D01*
Y43056D01*
X144031Y42603D01*
Y42084D01*
X143901Y40918D01*
X143642Y39493D01*
X143318Y38002D01*
X142865Y36447D01*
X142282Y34892D01*
Y34827D01*
X142217Y34698D01*
X142087Y34503D01*
X141958Y34244D01*
X141504Y33531D01*
X140921Y32624D01*
X140208Y31652D01*
X139301Y30680D01*
X138264Y29709D01*
X137033Y28801D01*
X136968D01*
X136903Y28737D01*
X136709Y28607D01*
X136450Y28477D01*
X135802Y28154D01*
X134895Y27765D01*
X133793Y27376D01*
X132627Y27052D01*
X131266Y26793D01*
X129906Y26728D01*
X129452D01*
X128934Y26793D01*
X128286Y26858D01*
X127508Y26987D01*
X126666Y27181D01*
X125823Y27441D01*
X124981Y27829D01*
X124916Y27894D01*
X124592Y28024D01*
X124204Y28283D01*
X123685Y28672D01*
X123167Y29061D01*
X122519Y29579D01*
X121936Y30162D01*
X121417Y30810D01*
Y15000D01*
X115910D01*
Y59968D01*
X120899D01*
Y55691D01*
X120964Y55821D01*
X121223Y56080D01*
X121547Y56534D01*
X122065Y57052D01*
X122648Y57700D01*
X123296Y58283D01*
X124074Y58867D01*
X124852Y59385D01*
X124981Y59450D01*
X125240Y59579D01*
X125759Y59774D01*
X126407Y60033D01*
X127184Y60292D01*
X128091Y60486D01*
X129128Y60616D01*
X130294Y60681D01*
X131007D01*
X131331Y60616D01*
D02*
G37*
G36*
X180964Y60616D02*
X181677Y60551D01*
X182519Y60422D01*
X183427Y60227D01*
X184398Y59968D01*
X185306Y59579D01*
X185435Y59514D01*
X185694Y59385D01*
X186148Y59191D01*
X186666Y58867D01*
X187314Y58478D01*
X187897Y57959D01*
X188481Y57441D01*
X188999Y56793D01*
X189064Y56728D01*
X189193Y56469D01*
X189388Y56145D01*
X189712Y55691D01*
X189971Y55044D01*
X190230Y54396D01*
X190554Y53618D01*
X190749Y52776D01*
Y52711D01*
X190813Y52452D01*
X190878Y52063D01*
X190943Y51545D01*
Y50767D01*
X191008Y49860D01*
X191072Y48758D01*
Y47398D01*
Y27441D01*
X185565D01*
Y47139D01*
Y47203D01*
Y47268D01*
Y47722D01*
Y48305D01*
X185500Y49018D01*
X185435Y49860D01*
X185306Y50702D01*
X185111Y51480D01*
X184917Y52193D01*
Y52257D01*
X184787Y52452D01*
X184593Y52776D01*
X184398Y53165D01*
X184074Y53553D01*
X183686Y54007D01*
X183167Y54460D01*
X182584Y54849D01*
X182519Y54914D01*
X182325Y55044D01*
X181936Y55173D01*
X181483Y55368D01*
X180964Y55562D01*
X180316Y55756D01*
X179539Y55821D01*
X178761Y55886D01*
X178437D01*
X178178Y55821D01*
X177530Y55756D01*
X176688Y55627D01*
X175781Y55303D01*
X174744Y54914D01*
X173707Y54396D01*
X172735Y53618D01*
X172606Y53488D01*
X172347Y53165D01*
X172152Y52905D01*
X171958Y52581D01*
X171699Y52193D01*
X171504Y51739D01*
X171245Y51221D01*
X170986Y50573D01*
X170791Y49860D01*
X170597Y49082D01*
X170467Y48240D01*
X170338Y47333D01*
X170208Y46231D01*
Y45130D01*
Y27441D01*
X164701D01*
Y59968D01*
X169625D01*
Y55303D01*
X169690Y55368D01*
X169820Y55562D01*
X170014Y55821D01*
X170273Y56145D01*
X170662Y56534D01*
X171115Y56987D01*
X171634Y57506D01*
X172282Y58024D01*
X172930Y58478D01*
X173707Y58996D01*
X174550Y59450D01*
X175457Y59838D01*
X176493Y60162D01*
X177530Y60422D01*
X178696Y60616D01*
X179928Y60681D01*
X180446D01*
X180964Y60616D01*
D02*
G37*
G36*
X156277Y27441D02*
X150770D01*
Y59968D01*
X156277D01*
Y27441D01*
D02*
G37*
G36*
X77616Y72409D02*
X78134Y72344D01*
X78717Y72279D01*
X79365Y72214D01*
X80013Y72020D01*
X81568Y71631D01*
X83123Y71048D01*
X83901Y70659D01*
X84678Y70206D01*
X85391Y69623D01*
X86104Y69039D01*
X86169Y68975D01*
X86234Y68910D01*
X86428Y68715D01*
X86687Y68456D01*
X86946Y68067D01*
X87270Y67679D01*
X87918Y66707D01*
X88566Y65476D01*
X89149Y64050D01*
X89603Y62430D01*
X89668Y61588D01*
X89732Y60681D01*
Y60616D01*
Y60551D01*
Y60162D01*
X89668Y59579D01*
X89538Y58867D01*
X89344Y57959D01*
X89020Y57052D01*
X88631Y56145D01*
X88048Y55238D01*
X87983Y55108D01*
X87724Y54849D01*
X87335Y54460D01*
X86817Y53942D01*
X86104Y53359D01*
X85262Y52776D01*
X84290Y52193D01*
X83123Y51674D01*
X83188D01*
X83318Y51609D01*
X83512Y51545D01*
X83771Y51415D01*
X84549Y51091D01*
X85456Y50637D01*
X86428Y49990D01*
X87465Y49277D01*
X88436Y48370D01*
X89344Y47333D01*
Y47268D01*
X89409Y47203D01*
X89668Y46814D01*
X90056Y46167D01*
X90445Y45324D01*
X90834Y44288D01*
X91223Y43056D01*
X91482Y41696D01*
X91547Y40205D01*
Y40141D01*
Y39946D01*
Y39622D01*
X91482Y39234D01*
X91417Y38780D01*
X91352Y38197D01*
X91223Y37549D01*
X91028Y36836D01*
X90575Y35346D01*
X90251Y34503D01*
X89797Y33726D01*
X89344Y32884D01*
X88825Y32106D01*
X88177Y31328D01*
X87465Y30551D01*
X87400Y30486D01*
X87270Y30357D01*
X87076Y30162D01*
X86752Y29968D01*
X86298Y29644D01*
X85845Y29320D01*
X85262Y28996D01*
X84614Y28607D01*
X83901Y28218D01*
X83059Y27894D01*
X82151Y27570D01*
X81244Y27246D01*
X80208Y27052D01*
X79106Y26858D01*
X78004Y26728D01*
X76773Y26663D01*
X76125D01*
X75672Y26728D01*
X75089Y26793D01*
X74441Y26858D01*
X73728Y26987D01*
X72950Y27181D01*
X71201Y27635D01*
X70294Y27959D01*
X69451Y28283D01*
X68544Y28737D01*
X67637Y29255D01*
X66795Y29838D01*
X66017Y30551D01*
X65953Y30616D01*
X65823Y30745D01*
X65628Y30940D01*
X65369Y31264D01*
X65110Y31652D01*
X64721Y32106D01*
X64397Y32624D01*
X64009Y33272D01*
X63620Y33920D01*
X63296Y34698D01*
X62648Y36318D01*
X62389Y37290D01*
X62194Y38261D01*
X62065Y39298D01*
X62000Y40335D01*
Y40400D01*
Y40529D01*
Y40789D01*
X62065Y41048D01*
Y41437D01*
X62130Y41890D01*
X62259Y42927D01*
X62518Y44093D01*
X62907Y45259D01*
X63490Y46491D01*
X64203Y47657D01*
Y47722D01*
X64333Y47786D01*
X64592Y48110D01*
X65110Y48629D01*
X65823Y49277D01*
X66730Y49925D01*
X67832Y50637D01*
X69063Y51221D01*
X70553Y51674D01*
X70488D01*
X70423Y51739D01*
X70229Y51804D01*
X69970Y51933D01*
X69387Y52193D01*
X68609Y52581D01*
X67767Y53100D01*
X66925Y53748D01*
X66147Y54460D01*
X65434Y55238D01*
X65369Y55367D01*
X65175Y55627D01*
X64916Y56145D01*
X64657Y56793D01*
X64333Y57635D01*
X64074Y58607D01*
X63879Y59709D01*
X63814Y60875D01*
Y60940D01*
Y61069D01*
Y61329D01*
X63879Y61718D01*
X63944Y62106D01*
X64009Y62625D01*
X64268Y63726D01*
X64657Y65022D01*
X65305Y66383D01*
X65693Y67095D01*
X66147Y67808D01*
X66730Y68456D01*
X67313Y69104D01*
X67378Y69169D01*
X67508Y69234D01*
X67702Y69428D01*
X67961Y69623D01*
X68285Y69882D01*
X68739Y70141D01*
X69257Y70465D01*
X69776Y70789D01*
X70423Y71113D01*
X71136Y71437D01*
X71914Y71696D01*
X72756Y71955D01*
X74570Y72344D01*
X75607Y72409D01*
X76644Y72474D01*
X77227D01*
X77616Y72409D01*
D02*
G37*
G36*
X252537Y47000D02*
X251358D01*
Y54503D01*
X251344Y54489D01*
X251274Y54433D01*
X251191Y54350D01*
X251052Y54253D01*
X250900Y54128D01*
X250706Y53990D01*
X250484Y53837D01*
X250234Y53685D01*
X250220D01*
X250207Y53671D01*
X250123Y53615D01*
X249985Y53546D01*
X249818Y53463D01*
X249624Y53366D01*
X249416Y53268D01*
X249208Y53171D01*
X249000Y53088D01*
Y54225D01*
X249014D01*
X249042Y54253D01*
X249097Y54267D01*
X249166Y54309D01*
X249250Y54350D01*
X249347Y54406D01*
X249583Y54544D01*
X249860Y54697D01*
X250137Y54891D01*
X250429Y55113D01*
X250720Y55349D01*
X250734Y55363D01*
X250747Y55377D01*
X250789Y55418D01*
X250844Y55460D01*
X250969Y55598D01*
X251136Y55765D01*
X251302Y55959D01*
X251483Y56181D01*
X251635Y56403D01*
X251774Y56638D01*
X252537D01*
Y47000D01*
D02*
G37*
G36*
X185722Y198000D02*
X184148D01*
Y208018D01*
X184129Y207999D01*
X184037Y207925D01*
X183926Y207814D01*
X183741Y207684D01*
X183537Y207518D01*
X183277Y207332D01*
X182981Y207129D01*
X182648Y206925D01*
X182630D01*
X182611Y206907D01*
X182500Y206832D01*
X182315Y206740D01*
X182092Y206629D01*
X181833Y206499D01*
X181556Y206369D01*
X181278Y206240D01*
X181000Y206129D01*
Y207647D01*
X181019D01*
X181056Y207684D01*
X181130Y207703D01*
X181222Y207758D01*
X181333Y207814D01*
X181463Y207888D01*
X181778Y208073D01*
X182148Y208277D01*
X182518Y208536D01*
X182907Y208832D01*
X183296Y209147D01*
X183315Y209165D01*
X183333Y209184D01*
X183389Y209240D01*
X183463Y209295D01*
X183629Y209480D01*
X183852Y209702D01*
X184074Y209962D01*
X184314Y210258D01*
X184518Y210554D01*
X184703Y210869D01*
X185722D01*
Y198000D01*
D02*
G37*
%LPC*%
G36*
X359222Y209795D02*
X359073D01*
X358907Y209758D01*
X358685Y209721D01*
X358444Y209647D01*
X358185Y209554D01*
X357944Y209406D01*
X357703Y209203D01*
X357685Y209184D01*
X357611Y209110D01*
X357518Y208980D01*
X357425Y208814D01*
X357314Y208610D01*
X357222Y208369D01*
X357148Y208110D01*
X357129Y207814D01*
Y207795D01*
Y207777D01*
X357148Y207666D01*
X357166Y207499D01*
X357203Y207295D01*
X357277Y207055D01*
X357370Y206814D01*
X357518Y206555D01*
X357703Y206332D01*
X357722Y206314D01*
X357814Y206240D01*
X357944Y206147D01*
X358111Y206055D01*
X358333Y205944D01*
X358592Y205851D01*
X358888Y205777D01*
X359222Y205758D01*
X359259D01*
X359370Y205777D01*
X359536Y205795D01*
X359759Y205833D01*
X359999Y205907D01*
X360240Y205999D01*
X360499Y206147D01*
X360721Y206332D01*
X360740Y206351D01*
X360814Y206444D01*
X360907Y206555D01*
X361018Y206721D01*
X361129Y206925D01*
X361221Y207166D01*
X361295Y207444D01*
X361314Y207740D01*
Y207758D01*
Y207777D01*
Y207888D01*
X361277Y208055D01*
X361240Y208258D01*
X361166Y208480D01*
X361055Y208721D01*
X360907Y208962D01*
X360703Y209203D01*
X360684Y209221D01*
X360592Y209295D01*
X360462Y209388D01*
X360295Y209499D01*
X360073Y209610D01*
X359833Y209702D01*
X359536Y209777D01*
X359222Y209795D01*
D02*
G37*
G36*
X359166Y204481D02*
X359055D01*
X358981Y204462D01*
X358777Y204444D01*
X358518Y204388D01*
X358222Y204296D01*
X357925Y204166D01*
X357611Y203981D01*
X357333Y203740D01*
X357296Y203703D01*
X357222Y203610D01*
X357111Y203444D01*
X356981Y203240D01*
X356833Y202962D01*
X356722Y202648D01*
X356648Y202296D01*
X356611Y201907D01*
Y201870D01*
Y201796D01*
X356629Y201666D01*
X356648Y201500D01*
X356685Y201296D01*
X356740Y201074D01*
X356814Y200852D01*
X356907Y200611D01*
X356926Y200592D01*
X356963Y200500D01*
X357037Y200389D01*
X357148Y200259D01*
X357277Y200092D01*
X357444Y199926D01*
X357629Y199778D01*
X357851Y199629D01*
X357888Y199611D01*
X357962Y199574D01*
X358092Y199518D01*
X358259Y199463D01*
X358462Y199407D01*
X358703Y199352D01*
X358962Y199315D01*
X359222Y199296D01*
X359333D01*
X359407Y199315D01*
X359629Y199333D01*
X359888Y199389D01*
X360184Y199481D01*
X360499Y199592D01*
X360796Y199778D01*
X361092Y200018D01*
X361129Y200055D01*
X361203Y200148D01*
X361333Y200315D01*
X361462Y200518D01*
X361592Y200777D01*
X361721Y201092D01*
X361795Y201463D01*
X361832Y201852D01*
Y201870D01*
Y201907D01*
Y201963D01*
X361814Y202037D01*
X361795Y202240D01*
X361740Y202518D01*
X361647Y202796D01*
X361518Y203111D01*
X361333Y203425D01*
X361073Y203722D01*
X361036Y203759D01*
X360944Y203833D01*
X360777Y203962D01*
X360555Y204111D01*
X360277Y204240D01*
X359944Y204370D01*
X359573Y204444D01*
X359166Y204481D01*
D02*
G37*
G36*
X308813Y205147D02*
X308702D01*
X308628Y205129D01*
X308442Y205110D01*
X308183Y205055D01*
X307906Y204962D01*
X307591Y204814D01*
X307295Y204629D01*
X306998Y204370D01*
X306961Y204333D01*
X306887Y204240D01*
X306758Y204074D01*
X306628Y203833D01*
X306498Y203555D01*
X306369Y203203D01*
X306295Y202814D01*
X306258Y202370D01*
Y202333D01*
Y202240D01*
X306276Y202074D01*
X306295Y201870D01*
X306332Y201629D01*
X306406Y201370D01*
X306480Y201092D01*
X306591Y200814D01*
X306609Y200777D01*
X306665Y200685D01*
X306739Y200555D01*
X306850Y200389D01*
X306980Y200222D01*
X307146Y200018D01*
X307332Y199852D01*
X307554Y199685D01*
X307591Y199667D01*
X307665Y199629D01*
X307794Y199555D01*
X307961Y199500D01*
X308146Y199426D01*
X308368Y199352D01*
X308609Y199315D01*
X308868Y199296D01*
X308961D01*
X309035Y199315D01*
X309220Y199333D01*
X309461Y199389D01*
X309720Y199500D01*
X310016Y199629D01*
X310313Y199833D01*
X310461Y199944D01*
X310590Y200092D01*
Y200111D01*
X310627Y200129D01*
X310702Y200240D01*
X310813Y200426D01*
X310961Y200666D01*
X311090Y200981D01*
X311201Y201352D01*
X311276Y201777D01*
X311313Y202277D01*
Y202296D01*
Y202333D01*
Y202407D01*
X311294Y202500D01*
Y202611D01*
X311276Y202740D01*
X311220Y203036D01*
X311146Y203370D01*
X311016Y203722D01*
X310831Y204055D01*
X310590Y204370D01*
X310553Y204407D01*
X310461Y204499D01*
X310313Y204610D01*
X310109Y204759D01*
X309850Y204907D01*
X309554Y205018D01*
X309202Y205110D01*
X308813Y205147D01*
D02*
G37*
G36*
X327356Y152368D02*
X320875Y151905D01*
X320412D01*
X319949Y151442D01*
Y135702D01*
Y135239D01*
X327819D01*
X329671Y135702D01*
X331522Y136165D01*
X333374Y137554D01*
X333837Y138017D01*
X334763Y139406D01*
X335689Y141258D01*
X336152Y143572D01*
Y144035D01*
X335689Y145887D01*
X335226Y147739D01*
X333374Y149591D01*
X332911Y150053D01*
X331985Y150979D01*
X329671Y151905D01*
X327356Y152368D01*
D02*
G37*
G36*
X223657D02*
X216713Y151905D01*
X216250D01*
X215787Y151442D01*
Y135702D01*
X216250D01*
Y135239D01*
X224120D01*
X225509Y135702D01*
X227361Y136165D01*
X229213Y137554D01*
X229676Y138017D01*
X230601Y139406D01*
X231527Y141258D01*
X231990Y143572D01*
Y144035D01*
X231527Y145887D01*
X231064Y147739D01*
X229213Y149591D01*
X228750Y150053D01*
X227824Y150979D01*
X225972Y151905D01*
X223657Y152368D01*
D02*
G37*
G36*
X425962Y149591D02*
X425499D01*
X425036Y149128D01*
X419944Y128758D01*
Y128295D01*
X420407Y127832D01*
X430129D01*
Y128758D01*
X425962Y149128D01*
Y149591D01*
D02*
G37*
G36*
X288162Y55834D02*
X288051D01*
X287926Y55806D01*
X287760Y55779D01*
X287579Y55723D01*
X287385Y55654D01*
X287205Y55543D01*
X287025Y55390D01*
X287011Y55377D01*
X286955Y55321D01*
X286886Y55224D01*
X286817Y55099D01*
X286733Y54947D01*
X286664Y54766D01*
X286609Y54572D01*
X286595Y54350D01*
Y54336D01*
Y54323D01*
X286609Y54239D01*
X286623Y54114D01*
X286650Y53962D01*
X286706Y53782D01*
X286775Y53601D01*
X286886Y53407D01*
X287025Y53241D01*
X287039Y53227D01*
X287108Y53171D01*
X287205Y53102D01*
X287330Y53033D01*
X287496Y52950D01*
X287691Y52880D01*
X287912Y52825D01*
X288162Y52811D01*
X288190D01*
X288273Y52825D01*
X288398Y52839D01*
X288564Y52866D01*
X288745Y52922D01*
X288925Y52991D01*
X289119Y53102D01*
X289285Y53241D01*
X289299Y53255D01*
X289355Y53324D01*
X289424Y53407D01*
X289507Y53532D01*
X289590Y53685D01*
X289660Y53865D01*
X289715Y54073D01*
X289729Y54295D01*
Y54309D01*
Y54323D01*
Y54406D01*
X289701Y54531D01*
X289674Y54683D01*
X289618Y54850D01*
X289535Y55030D01*
X289424Y55210D01*
X289272Y55390D01*
X289258Y55404D01*
X289188Y55460D01*
X289091Y55529D01*
X288966Y55612D01*
X288800Y55696D01*
X288620Y55765D01*
X288398Y55820D01*
X288162Y55834D01*
D02*
G37*
G36*
X288120Y51854D02*
X288037D01*
X287982Y51840D01*
X287829Y51826D01*
X287635Y51785D01*
X287413Y51715D01*
X287191Y51618D01*
X286955Y51480D01*
X286747Y51299D01*
X286720Y51272D01*
X286664Y51202D01*
X286581Y51077D01*
X286484Y50925D01*
X286373Y50717D01*
X286290Y50481D01*
X286234Y50217D01*
X286206Y49926D01*
Y49899D01*
Y49843D01*
X286220Y49746D01*
X286234Y49621D01*
X286262Y49469D01*
X286304Y49302D01*
X286359Y49136D01*
X286428Y48955D01*
X286442Y48942D01*
X286470Y48872D01*
X286525Y48789D01*
X286609Y48692D01*
X286706Y48567D01*
X286831Y48442D01*
X286969Y48331D01*
X287136Y48220D01*
X287164Y48207D01*
X287219Y48179D01*
X287316Y48137D01*
X287441Y48096D01*
X287593Y48054D01*
X287774Y48012D01*
X287968Y47985D01*
X288162Y47971D01*
X288245D01*
X288301Y47985D01*
X288467Y47998D01*
X288661Y48040D01*
X288883Y48109D01*
X289119Y48193D01*
X289341Y48331D01*
X289563Y48512D01*
X289590Y48539D01*
X289646Y48609D01*
X289743Y48734D01*
X289840Y48886D01*
X289937Y49080D01*
X290034Y49316D01*
X290090Y49593D01*
X290117Y49885D01*
Y49899D01*
Y49926D01*
Y49968D01*
X290104Y50023D01*
X290090Y50176D01*
X290048Y50384D01*
X289979Y50592D01*
X289882Y50828D01*
X289743Y51063D01*
X289549Y51285D01*
X289521Y51313D01*
X289452Y51369D01*
X289327Y51466D01*
X289160Y51577D01*
X288953Y51674D01*
X288703Y51771D01*
X288426Y51826D01*
X288120Y51854D01*
D02*
G37*
G36*
X258847Y208258D02*
X254811Y202518D01*
X258847D01*
Y208258D01*
D02*
G37*
G36*
X441788Y45517D02*
X438752Y45517D01*
Y41666D01*
X441900Y41666D01*
X442140Y41684D01*
X442400Y41703D01*
X442659Y41722D01*
X442918Y41758D01*
X443122Y41796D01*
X443159Y41814D01*
X443233Y41833D01*
X443344Y41888D01*
X443492Y41962D01*
X443640Y42036D01*
X443807Y42147D01*
X443974Y42295D01*
X444103Y42444D01*
X444122Y42462D01*
X444159Y42518D01*
X444214Y42629D01*
X444270Y42758D01*
X444325Y42906D01*
X444381Y43092D01*
X444418Y43314D01*
X444436Y43555D01*
Y43592D01*
Y43666D01*
X444418Y43777D01*
X444399Y43925D01*
X444362Y44110D01*
X444307Y44295D01*
X444233Y44480D01*
X444122Y44666D01*
X444103Y44684D01*
X444066Y44740D01*
X443992Y44832D01*
X443899Y44925D01*
X443770Y45036D01*
X443622Y45147D01*
X443437Y45258D01*
X443233Y45332D01*
X443214D01*
X443122Y45369D01*
X442992Y45388D01*
X442788Y45425D01*
X442511Y45462D01*
X442196Y45480D01*
X441788Y45517D01*
D02*
G37*
G36*
X442122Y40148D02*
X438752Y40148D01*
Y35741D01*
X442400Y35741D01*
X442788Y35759D01*
X442955Y35778D01*
X443103Y35796D01*
X443122D01*
X443196Y35815D01*
X443307Y35833D01*
X443437Y35870D01*
X443751Y35981D01*
X444066Y36129D01*
X444085Y36148D01*
X444140Y36185D01*
X444214Y36240D01*
X444307Y36315D01*
X444399Y36426D01*
X444529Y36537D01*
X444622Y36685D01*
X444733Y36852D01*
X444751Y36870D01*
X444770Y36926D01*
X444807Y37037D01*
X444862Y37166D01*
X444918Y37315D01*
X444955Y37500D01*
X444973Y37722D01*
X444992Y37944D01*
Y37981D01*
Y38055D01*
X444973Y38203D01*
X444936Y38370D01*
X444899Y38555D01*
X444825Y38759D01*
X444733Y38963D01*
X444603Y39166D01*
X444585Y39185D01*
X444529Y39259D01*
X444455Y39351D01*
X444344Y39462D01*
X444196Y39592D01*
X444011Y39722D01*
X443807Y39833D01*
X443566Y39925D01*
X443529Y39944D01*
X443455Y39962D01*
X443288Y39999D01*
X443085Y40036D01*
X442826Y40073D01*
X442511Y40111D01*
X442122Y40148D01*
D02*
G37*
G36*
X454676Y45795D02*
X454509D01*
X454380Y45777D01*
X454213Y45758D01*
X454047Y45721D01*
X453843Y45684D01*
X453621Y45647D01*
X453139Y45499D01*
X452880Y45388D01*
X452621Y45277D01*
X452343Y45128D01*
X452084Y44962D01*
X451824Y44777D01*
X451584Y44555D01*
X451565Y44536D01*
X451528Y44499D01*
X451473Y44425D01*
X451380Y44314D01*
X451287Y44184D01*
X451176Y44018D01*
X451065Y43814D01*
X450936Y43573D01*
X450825Y43314D01*
X450695Y42999D01*
X450584Y42666D01*
X450491Y42295D01*
X450399Y41888D01*
X450343Y41425D01*
X450306Y40944D01*
X450288Y40425D01*
Y40407D01*
Y40333D01*
Y40203D01*
X450306Y40036D01*
X450325Y39851D01*
X450362Y39629D01*
X450399Y39370D01*
X450436Y39111D01*
X450584Y38518D01*
X450695Y38222D01*
X450806Y37907D01*
X450954Y37611D01*
X451121Y37315D01*
X451306Y37037D01*
X451528Y36778D01*
X451547Y36759D01*
X451584Y36722D01*
X451658Y36648D01*
X451750Y36574D01*
X451880Y36463D01*
X452028Y36352D01*
X452195Y36240D01*
X452380Y36111D01*
X452602Y35981D01*
X452843Y35870D01*
X453102Y35759D01*
X453380Y35648D01*
X453676Y35574D01*
X453972Y35500D01*
X454306Y35463D01*
X454658Y35444D01*
X454750D01*
X454843Y35463D01*
X454972D01*
X455139Y35481D01*
X455324Y35518D01*
X455546Y35555D01*
X455769Y35611D01*
X456028Y35685D01*
X456269Y35778D01*
X456546Y35870D01*
X456805Y36000D01*
X457065Y36167D01*
X457324Y36333D01*
X457583Y36537D01*
X457824Y36778D01*
X457842Y36796D01*
X457879Y36833D01*
X457935Y36926D01*
X458028Y37037D01*
X458120Y37166D01*
X458213Y37333D01*
X458324Y37537D01*
X458453Y37759D01*
X458565Y38018D01*
X458676Y38314D01*
X458768Y38629D01*
X458879Y38963D01*
X458953Y39333D01*
X459009Y39740D01*
X459046Y40166D01*
X459064Y40610D01*
Y40629D01*
Y40684D01*
Y40759D01*
Y40870D01*
X459046Y40999D01*
Y41166D01*
X459027Y41333D01*
X458990Y41536D01*
X458935Y41962D01*
X458842Y42407D01*
X458713Y42888D01*
X458527Y43332D01*
Y43351D01*
X458509Y43388D01*
X458472Y43443D01*
X458435Y43518D01*
X458305Y43740D01*
X458139Y43999D01*
X457916Y44295D01*
X457639Y44591D01*
X457324Y44888D01*
X456972Y45147D01*
X456954D01*
X456935Y45184D01*
X456880Y45203D01*
X456787Y45258D01*
X456694Y45295D01*
X456583Y45351D01*
X456306Y45480D01*
X455972Y45591D01*
X455583Y45703D01*
X455139Y45777D01*
X454676Y45795D01*
D02*
G37*
G36*
X384906Y45795D02*
X384794D01*
X384720Y45777D01*
X384517Y45739D01*
X384276Y45684D01*
X383998Y45573D01*
X383702Y45406D01*
X383554Y45295D01*
X383406Y45184D01*
X383276Y45036D01*
X383147Y44869D01*
Y44851D01*
X383109Y44814D01*
X383072Y44740D01*
X383017Y44647D01*
X382961Y44499D01*
X382887Y44332D01*
X382832Y44129D01*
X382758Y43888D01*
X382683Y43610D01*
X382609Y43295D01*
X382535Y42944D01*
X382480Y42555D01*
X382424Y42110D01*
X382387Y41629D01*
X382369Y41110D01*
X382350Y40536D01*
Y40499D01*
Y40407D01*
Y40240D01*
X382369Y40018D01*
Y39777D01*
X382387Y39481D01*
X382406Y39166D01*
X382443Y38833D01*
X382535Y38111D01*
X382591Y37759D01*
X382665Y37426D01*
X382739Y37111D01*
X382850Y36814D01*
X382961Y36555D01*
X383091Y36333D01*
Y36315D01*
X383128Y36296D01*
X383220Y36167D01*
X383387Y36000D01*
X383591Y35815D01*
X383869Y35629D01*
X384183Y35463D01*
X384535Y35333D01*
X384720Y35315D01*
X384924Y35296D01*
X385035D01*
X385109Y35315D01*
X385294Y35352D01*
X385554Y35426D01*
X385831Y35555D01*
X386146Y35741D01*
X386294Y35852D01*
X386442Y36000D01*
X386590Y36148D01*
X386739Y36333D01*
Y36352D01*
X386776Y36389D01*
X386813Y36444D01*
X386850Y36537D01*
X386924Y36666D01*
X386979Y36833D01*
X387053Y37018D01*
X387127Y37240D01*
X387183Y37518D01*
X387257Y37814D01*
X387331Y38166D01*
X387387Y38537D01*
X387424Y38981D01*
X387461Y39444D01*
X387498Y39962D01*
Y40536D01*
Y40555D01*
Y40573D01*
Y40666D01*
Y40833D01*
X387479Y41055D01*
Y41295D01*
X387461Y41592D01*
X387442Y41907D01*
X387405Y42258D01*
X387313Y42962D01*
X387257Y43314D01*
X387183Y43647D01*
X387109Y43962D01*
X386998Y44258D01*
X386887Y44517D01*
X386757Y44740D01*
Y44758D01*
X386720Y44777D01*
X386683Y44832D01*
X386628Y44906D01*
X386461Y45073D01*
X386257Y45277D01*
X385979Y45462D01*
X385665Y45628D01*
X385498Y45703D01*
X385313Y45758D01*
X385109Y45777D01*
X384906Y45795D01*
D02*
G37*
G36*
X468563Y64686D02*
X464897D01*
Y60113D01*
X468341D01*
X468471Y60131D01*
X468601D01*
X468749Y60150D01*
X469100Y60187D01*
X469489Y60261D01*
X469878Y60372D01*
X470230Y60520D01*
X470397Y60613D01*
X470526Y60724D01*
X470563Y60761D01*
X470637Y60835D01*
X470748Y60983D01*
X470878Y61168D01*
X471008Y61409D01*
X471119Y61705D01*
X471193Y62038D01*
X471230Y62427D01*
Y62446D01*
Y62464D01*
Y62557D01*
X471211Y62723D01*
X471174Y62909D01*
X471137Y63112D01*
X471063Y63353D01*
X470952Y63575D01*
X470823Y63797D01*
X470804Y63816D01*
X470748Y63890D01*
X470656Y63983D01*
X470545Y64112D01*
X470378Y64242D01*
X470193Y64353D01*
X469989Y64464D01*
X469749Y64557D01*
X469730D01*
X469656Y64575D01*
X469545Y64594D01*
X469397Y64631D01*
X469175Y64649D01*
X468897Y64668D01*
X468563Y64686D01*
D02*
G37*
G36*
X454880Y64964D02*
X454713D01*
X454584Y64945D01*
X454417Y64927D01*
X454250Y64890D01*
X454047Y64853D01*
X453824Y64816D01*
X453343Y64668D01*
X453084Y64557D01*
X452824Y64446D01*
X452547Y64297D01*
X452287Y64131D01*
X452028Y63945D01*
X451787Y63723D01*
X451769Y63705D01*
X451732Y63668D01*
X451676Y63594D01*
X451584Y63483D01*
X451491Y63353D01*
X451380Y63186D01*
X451269Y62983D01*
X451139Y62742D01*
X451028Y62483D01*
X450899Y62168D01*
X450788Y61835D01*
X450695Y61464D01*
X450602Y61057D01*
X450547Y60594D01*
X450510Y60113D01*
X450491Y59594D01*
Y59576D01*
Y59502D01*
Y59372D01*
X450510Y59205D01*
X450528Y59020D01*
X450565Y58798D01*
X450602Y58539D01*
X450639Y58279D01*
X450788Y57687D01*
X450899Y57391D01*
X451010Y57076D01*
X451158Y56780D01*
X451325Y56483D01*
X451510Y56206D01*
X451732Y55946D01*
X451750Y55928D01*
X451787Y55891D01*
X451862Y55817D01*
X451954Y55743D01*
X452084Y55632D01*
X452232Y55521D01*
X452398Y55409D01*
X452584Y55280D01*
X452806Y55150D01*
X453047Y55039D01*
X453306Y54928D01*
X453584Y54817D01*
X453880Y54743D01*
X454176Y54669D01*
X454509Y54632D01*
X454861Y54613D01*
X454954D01*
X455046Y54632D01*
X455176D01*
X455343Y54650D01*
X455528Y54687D01*
X455750Y54724D01*
X455972Y54780D01*
X456231Y54854D01*
X456472Y54946D01*
X456750Y55039D01*
X457009Y55169D01*
X457268Y55335D01*
X457528Y55502D01*
X457787Y55706D01*
X458028Y55946D01*
X458046Y55965D01*
X458083Y56002D01*
X458139Y56094D01*
X458231Y56206D01*
X458324Y56335D01*
X458416Y56502D01*
X458527Y56705D01*
X458657Y56928D01*
X458768Y57187D01*
X458879Y57483D01*
X458972Y57798D01*
X459083Y58131D01*
X459157Y58502D01*
X459213Y58909D01*
X459250Y59335D01*
X459268Y59779D01*
Y59798D01*
Y59853D01*
Y59927D01*
Y60038D01*
X459250Y60168D01*
Y60335D01*
X459231Y60501D01*
X459194Y60705D01*
X459139Y61131D01*
X459046Y61575D01*
X458916Y62057D01*
X458731Y62501D01*
Y62520D01*
X458713Y62557D01*
X458676Y62612D01*
X458639Y62686D01*
X458509Y62909D01*
X458342Y63168D01*
X458120Y63464D01*
X457842Y63760D01*
X457528Y64057D01*
X457176Y64316D01*
X457157D01*
X457139Y64353D01*
X457083Y64371D01*
X456991Y64427D01*
X456898Y64464D01*
X456787Y64520D01*
X456509Y64649D01*
X456176Y64760D01*
X455787Y64871D01*
X455343Y64945D01*
X454880Y64964D01*
D02*
G37*
G36*
X371166Y64964D02*
X371055D01*
X370981Y64945D01*
X370777Y64908D01*
X370537Y64853D01*
X370259Y64742D01*
X369963Y64575D01*
X369814Y64464D01*
X369666Y64353D01*
X369537Y64205D01*
X369407Y64038D01*
Y64020D01*
X369370Y63983D01*
X369333Y63909D01*
X369277Y63816D01*
X369222Y63668D01*
X369148Y63501D01*
X369092Y63297D01*
X369018Y63057D01*
X368944Y62779D01*
X368870Y62464D01*
X368796Y62112D01*
X368741Y61723D01*
X368685Y61279D01*
X368648Y60798D01*
X368629Y60279D01*
X368611Y59705D01*
Y59668D01*
Y59576D01*
Y59409D01*
X368629Y59187D01*
Y58946D01*
X368648Y58650D01*
X368666Y58335D01*
X368703Y58002D01*
X368796Y57280D01*
X368852Y56928D01*
X368926Y56594D01*
X369000Y56280D01*
X369111Y55983D01*
X369222Y55724D01*
X369352Y55502D01*
Y55483D01*
X369389Y55465D01*
X369481Y55335D01*
X369648Y55169D01*
X369851Y54984D01*
X370129Y54798D01*
X370444Y54632D01*
X370796Y54502D01*
X370981Y54483D01*
X371185Y54465D01*
X371296D01*
X371370Y54483D01*
X371555Y54521D01*
X371814Y54595D01*
X372092Y54724D01*
X372407Y54909D01*
X372555Y55020D01*
X372703Y55169D01*
X372851Y55317D01*
X372999Y55502D01*
Y55520D01*
X373036Y55557D01*
X373073Y55613D01*
X373111Y55706D01*
X373185Y55835D01*
X373240Y56002D01*
X373314Y56187D01*
X373388Y56409D01*
X373444Y56687D01*
X373518Y56983D01*
X373592Y57335D01*
X373647Y57705D01*
X373685Y58150D01*
X373722Y58613D01*
X373759Y59131D01*
Y59705D01*
Y59724D01*
Y59742D01*
Y59835D01*
Y60002D01*
X373740Y60224D01*
Y60464D01*
X373722Y60761D01*
X373703Y61075D01*
X373666Y61427D01*
X373573Y62131D01*
X373518Y62483D01*
X373444Y62816D01*
X373370Y63131D01*
X373259Y63427D01*
X373148Y63686D01*
X373018Y63909D01*
Y63927D01*
X372981Y63945D01*
X372944Y64001D01*
X372888Y64075D01*
X372722Y64242D01*
X372518Y64445D01*
X372240Y64631D01*
X371925Y64797D01*
X371759Y64871D01*
X371574Y64927D01*
X371370Y64945D01*
X371166Y64964D01*
D02*
G37*
G36*
X129776Y56340D02*
X129452D01*
X129193Y56275D01*
X128545Y56145D01*
X127703Y55951D01*
X126731Y55562D01*
X125694Y54979D01*
X125111Y54590D01*
X124592Y54136D01*
X124074Y53618D01*
X123556Y53035D01*
Y52970D01*
X123426Y52905D01*
X123296Y52711D01*
X123167Y52452D01*
X122972Y52063D01*
X122713Y51674D01*
X122454Y51156D01*
X122260Y50637D01*
X122001Y49990D01*
X121741Y49277D01*
X121547Y48499D01*
X121288Y47657D01*
X121158Y46685D01*
X121029Y45713D01*
X120899Y44676D01*
Y43510D01*
Y43445D01*
Y43251D01*
Y42927D01*
X120964Y42473D01*
Y41955D01*
X121029Y41372D01*
X121223Y40011D01*
X121547Y38456D01*
X121936Y36966D01*
X122584Y35475D01*
X122972Y34827D01*
X123426Y34244D01*
X123556Y34115D01*
X123880Y33791D01*
X124398Y33272D01*
X125111Y32754D01*
X126018Y32236D01*
X127055Y31717D01*
X128221Y31393D01*
X128869Y31328D01*
X129517Y31264D01*
X129906D01*
X130165Y31328D01*
X130813Y31458D01*
X131720Y31652D01*
X132692Y32041D01*
X133729Y32559D01*
X134765Y33337D01*
X135284Y33791D01*
X135802Y34309D01*
Y34374D01*
X135932Y34439D01*
X136061Y34633D01*
X136191Y34892D01*
X136450Y35216D01*
X136644Y35670D01*
X136903Y36123D01*
X137163Y36707D01*
X137357Y37290D01*
X137616Y38067D01*
X137875Y38845D01*
X138070Y39687D01*
X138199Y40659D01*
X138329Y41696D01*
X138459Y42797D01*
Y43964D01*
Y44028D01*
Y44223D01*
Y44547D01*
X138394Y45000D01*
Y45519D01*
X138329Y46102D01*
X138135Y47463D01*
X137811Y48953D01*
X137357Y50443D01*
X136709Y51933D01*
X136320Y52646D01*
X135867Y53229D01*
Y53294D01*
X135737Y53359D01*
X135413Y53748D01*
X134895Y54201D01*
X134182Y54784D01*
X133275Y55367D01*
X132238Y55886D01*
X131072Y56210D01*
X130424Y56275D01*
X129776Y56340D01*
D02*
G37*
G36*
X76773Y67938D02*
X76255D01*
X75672Y67808D01*
X74894Y67679D01*
X74052Y67420D01*
X73145Y67095D01*
X72302Y66577D01*
X71460Y65864D01*
X71395Y65800D01*
X71136Y65540D01*
X70812Y65087D01*
X70488Y64504D01*
X70099Y63791D01*
X69776Y62949D01*
X69516Y62042D01*
X69451Y61005D01*
Y60940D01*
Y60875D01*
X69516Y60486D01*
X69581Y59903D01*
X69711Y59191D01*
X69970Y58348D01*
X70294Y57506D01*
X70812Y56599D01*
X71460Y55821D01*
X71525Y55756D01*
X71849Y55497D01*
X72302Y55173D01*
X72886Y54849D01*
X73663Y54460D01*
X74570Y54136D01*
X75607Y53877D01*
X76773Y53812D01*
X76903D01*
X77292Y53877D01*
X77875Y53942D01*
X78652Y54072D01*
X79495Y54331D01*
X80337Y54655D01*
X81244Y55173D01*
X82022Y55821D01*
X82087Y55886D01*
X82346Y56210D01*
X82670Y56599D01*
X83059Y57182D01*
X83447Y57895D01*
X83771Y58737D01*
X84030Y59709D01*
X84095Y60746D01*
Y60810D01*
Y60875D01*
Y61264D01*
X83966Y61847D01*
X83836Y62560D01*
X83577Y63337D01*
X83188Y64180D01*
X82670Y65022D01*
X81957Y65864D01*
X81892Y65929D01*
X81568Y66188D01*
X81115Y66512D01*
X80532Y66901D01*
X79754Y67290D01*
X78912Y67614D01*
X77875Y67873D01*
X76773Y67938D01*
D02*
G37*
G36*
X76579Y49342D02*
X76190D01*
X75931Y49277D01*
X75218Y49212D01*
X74311Y49018D01*
X73274Y48694D01*
X72238Y48240D01*
X71136Y47592D01*
X70164Y46750D01*
X70035Y46620D01*
X69776Y46296D01*
X69387Y45713D01*
X68933Y45000D01*
X68415Y44028D01*
X68026Y42927D01*
X67767Y41696D01*
X67637Y40335D01*
Y40205D01*
Y39946D01*
X67702Y39493D01*
X67767Y38909D01*
X67896Y38197D01*
X68091Y37419D01*
X68350Y36642D01*
X68674Y35799D01*
X68739Y35735D01*
X68868Y35410D01*
X69127Y35022D01*
X69516Y34568D01*
X69970Y33985D01*
X70553Y33402D01*
X71201Y32884D01*
X71979Y32365D01*
X72108Y32300D01*
X72367Y32171D01*
X72821Y31976D01*
X73404Y31782D01*
X74117Y31588D01*
X74959Y31393D01*
X75866Y31264D01*
X76773Y31199D01*
X77162D01*
X77421Y31264D01*
X78199Y31328D01*
X79106Y31523D01*
X80143Y31847D01*
X81244Y32236D01*
X82281Y32884D01*
X83318Y33726D01*
X83447Y33856D01*
X83707Y34179D01*
X84160Y34763D01*
X84614Y35475D01*
X85067Y36383D01*
X85521Y37484D01*
X85780Y38780D01*
X85910Y40141D01*
Y40205D01*
Y40335D01*
Y40529D01*
X85845Y40789D01*
X85780Y41501D01*
X85585Y42473D01*
X85262Y43445D01*
X84808Y44547D01*
X84160Y45648D01*
X83253Y46685D01*
X83123Y46814D01*
X82799Y47074D01*
X82216Y47527D01*
X81439Y48046D01*
X80467Y48499D01*
X79300Y48953D01*
X78004Y49212D01*
X76579Y49342D01*
D02*
G37*
%LPD*%
D10*
X475000Y15000D02*
G03*
X485000Y25000I0J10000D01*
G01*
X355000Y25000D02*
G03*
X365000Y15000I10000J0D01*
G01*
X485000Y75000D02*
G03*
X475000Y85000I-10000J0D01*
G01*
X365000D02*
G03*
X355000Y75000I0J-10000D01*
G01*
X371600Y216651D02*
Y242051D01*
X168400D02*
X320800D01*
X168400Y216651D02*
Y242051D01*
Y216651D02*
X320800D01*
X371600D01*
X320800Y242051D02*
X371600D01*
X355000Y25000D02*
Y75000D01*
X365000Y15000D02*
X475000D01*
X365000Y85000D02*
X475000D01*
X485000Y25000D02*
Y75000D01*
X355000Y25000D02*
X355000D01*
D11*
X250000Y41722D02*
X255000D01*
M02*
