G04*
G04 #@! TF.GenerationSoftware,Altium Limited,Altium Designer,24.10.1 (45)*
G04*
G04 Layer_Color=65535*
%FSLAX44Y44*%
%MOMM*%
G71*
G04*
G04 #@! TF.SameCoordinates,BF3B0F7F-E1BB-4F91-8F98-76733F7D73F5*
G04*
G04*
G04 #@! TF.FilePolarity,Positive*
G04*
G01*
G75*
%ADD10C,0.2540*%
%ADD11C,0.1000*%
%ADD12C,0.2500*%
%ADD13C,0.1524*%
%ADD14C,0.1500*%
%ADD15C,0.2000*%
%ADD16C,0.1270*%
%ADD17C,0.4500*%
G36*
X230500Y233216D02*
Y224000D01*
X161000D01*
Y233216D01*
D01*
Y249390D01*
X230500D01*
Y233216D01*
D02*
G37*
G36*
X472250Y304216D02*
X379750D01*
Y321390D01*
X472250D01*
Y304216D01*
D02*
G37*
G36*
Y295000D02*
X379750D01*
Y304216D01*
X472250D01*
Y295000D01*
D02*
G37*
G36*
X420489Y24331D02*
X421155Y24164D01*
X421822Y23748D01*
X421905D01*
X421988Y23664D01*
X422322Y23248D01*
X422655Y22665D01*
X422821Y21915D01*
Y21582D01*
Y21498D01*
Y21415D01*
X422738Y21332D01*
X422571Y21248D01*
X421738D01*
X421655Y21332D01*
X421572Y21415D01*
X421488Y21582D01*
Y21748D01*
Y21832D01*
X421405Y22165D01*
X421238Y22498D01*
X420905Y22831D01*
X420822Y22915D01*
X420655Y23081D01*
X420322Y23165D01*
X419905Y23248D01*
X419739D01*
X419406Y23165D01*
X418989Y23081D01*
X418572Y22831D01*
X418489Y22748D01*
X418322Y22581D01*
X418156Y22248D01*
X418073Y21832D01*
Y21748D01*
Y21498D01*
Y21082D01*
X417989Y20582D01*
Y19999D01*
Y19249D01*
X418073Y17749D01*
Y17666D01*
X418156Y17333D01*
X418322Y16999D01*
X418572Y16666D01*
X418656Y16583D01*
X418906Y16500D01*
X419239Y16333D01*
X419739Y16250D01*
X419822D01*
X420155Y16333D01*
X420489Y16416D01*
X420905Y16666D01*
X420989Y16750D01*
X421155Y16999D01*
X421405Y17333D01*
X421488Y17749D01*
Y17999D01*
Y18082D01*
Y18166D01*
X421572Y18249D01*
X421738Y18333D01*
X422738D01*
X422821Y18166D01*
Y17999D01*
Y17666D01*
Y17583D01*
Y17499D01*
X422655Y16999D01*
X422405Y16416D01*
X421905Y15750D01*
X421738Y15667D01*
X421322Y15417D01*
X420655Y15083D01*
X419822Y15000D01*
X419655D01*
X419072Y15083D01*
X418406Y15333D01*
X417656Y15750D01*
X417489Y15916D01*
X417239Y16333D01*
X416906Y16916D01*
X416740Y17666D01*
Y17749D01*
Y17999D01*
Y18416D01*
Y18999D01*
Y19582D01*
Y20249D01*
Y21748D01*
Y21832D01*
Y21915D01*
X416906Y22415D01*
X417156Y22998D01*
X417656Y23581D01*
X417739D01*
X417823Y23748D01*
X418239Y23998D01*
X418906Y24248D01*
X419739Y24414D01*
X419989D01*
X420489Y24331D01*
D02*
G37*
G36*
X386914Y24248D02*
Y24081D01*
Y15333D01*
Y15250D01*
X386831Y15167D01*
X386664Y15083D01*
X385414D01*
X385248Y15250D01*
X382665Y21832D01*
X382498D01*
Y15250D01*
Y15167D01*
X382332Y15083D01*
X382165Y15000D01*
X381499D01*
X381415Y15083D01*
X381332Y15250D01*
Y23998D01*
Y24081D01*
Y24164D01*
X381415Y24248D01*
X382832D01*
X382915Y24164D01*
Y24081D01*
X385581Y17499D01*
X385664Y17416D01*
X385747D01*
X385831Y17499D01*
Y24081D01*
Y24164D01*
Y24248D01*
X385914Y24331D01*
X386831D01*
X386914Y24248D01*
D02*
G37*
G36*
X429820Y24331D02*
X430486Y24164D01*
X431069Y23748D01*
X431236Y23664D01*
X431486Y23248D01*
X431902Y22665D01*
X432152Y21915D01*
Y21748D01*
X432069Y21332D01*
X431986Y20832D01*
X431736Y20249D01*
X431652Y20165D01*
X431403Y19915D01*
X431069Y19582D01*
X430569Y19249D01*
X430486D01*
X430319Y19082D01*
X430236Y18999D01*
X430319Y18832D01*
X431902Y15500D01*
Y15417D01*
Y15333D01*
X431736Y15167D01*
X430736D01*
X430653Y15250D01*
X430569Y15417D01*
X428986Y18749D01*
Y18832D01*
X428820D01*
X428653Y18916D01*
X427987Y18832D01*
X427903D01*
X427820Y18749D01*
Y15417D01*
Y15333D01*
X427737Y15250D01*
X427570Y15167D01*
X426654D01*
X426570Y15250D01*
X426487Y15417D01*
Y24164D01*
Y24248D01*
Y24331D01*
X426570Y24414D01*
X429320D01*
X429820Y24331D01*
D02*
G37*
G36*
X411158D02*
X411824Y24164D01*
X412491Y23748D01*
X412657Y23664D01*
X412907Y23248D01*
X413241Y22665D01*
X413407Y21915D01*
Y21748D01*
Y21332D01*
X413241Y20832D01*
X412990Y20249D01*
X412907Y20165D01*
X412657Y19915D01*
X412324Y19582D01*
X411824Y19249D01*
X411741D01*
X411657Y19082D01*
X411574Y18999D01*
X411657Y18832D01*
X413241Y15500D01*
X413324Y15417D01*
X413241Y15333D01*
X413157Y15167D01*
X412074D01*
X411991Y15250D01*
X411908Y15417D01*
X410408Y18749D01*
X410325Y18832D01*
X410158Y18916D01*
X409241Y18832D01*
X409158D01*
X409075Y18749D01*
Y15417D01*
Y15333D01*
X408992Y15250D01*
X408825Y15167D01*
X407992D01*
X407909Y15250D01*
X407825Y15417D01*
Y24164D01*
Y24248D01*
X407909Y24331D01*
X407992Y24414D01*
X410658D01*
X411158Y24331D01*
D02*
G37*
G36*
X465727Y24248D02*
Y24081D01*
Y23414D01*
Y23331D01*
Y23248D01*
X465644Y23165D01*
X465477Y23081D01*
X462395D01*
X462311Y22998D01*
Y20582D01*
X462395D01*
Y20499D01*
X465560D01*
X465644Y20415D01*
Y20249D01*
Y19499D01*
Y19416D01*
X465560Y19332D01*
X465394Y19249D01*
X462395D01*
X462311Y19166D01*
X462228Y16416D01*
Y16333D01*
X462311Y16250D01*
X462395Y16333D01*
X465810D01*
X465894Y16250D01*
X465977Y16083D01*
Y15333D01*
X465894Y15250D01*
X465810Y15167D01*
X465560Y15083D01*
X461145D01*
X460978Y15167D01*
X460895Y15333D01*
Y24081D01*
Y24164D01*
X460978Y24248D01*
X461062Y24331D01*
X465644D01*
X465727Y24248D01*
D02*
G37*
G36*
X457729D02*
Y24081D01*
Y23414D01*
Y23331D01*
Y23248D01*
X457646Y23165D01*
X457479Y23081D01*
X455480D01*
Y22998D01*
Y22831D01*
Y22665D01*
Y22332D01*
Y21832D01*
Y21165D01*
Y20249D01*
Y19166D01*
Y15333D01*
Y15250D01*
X455396Y15167D01*
X455230Y15083D01*
X454397D01*
X454313Y15167D01*
X454230Y15333D01*
Y22998D01*
Y23081D01*
X452397D01*
X452314Y23165D01*
X452230Y23248D01*
X452147Y23414D01*
Y24081D01*
Y24164D01*
Y24248D01*
X452230Y24331D01*
X457646D01*
X457729Y24248D01*
D02*
G37*
G36*
X447482Y24164D02*
X449981Y15333D01*
Y15250D01*
X449814Y15167D01*
X449648Y15083D01*
X448898D01*
X448648Y15250D01*
X447982Y17249D01*
X447898Y17333D01*
X447732Y17416D01*
X445482D01*
X445316Y17249D01*
X444732Y15250D01*
Y15167D01*
X444649Y15083D01*
X443733D01*
X443649Y15167D01*
X443566Y15250D01*
X443483Y15333D01*
X445982Y24164D01*
Y24248D01*
X446065Y24331D01*
X447315D01*
X447482Y24164D01*
D02*
G37*
G36*
X440317Y24248D02*
X440400Y24081D01*
Y23414D01*
Y23331D01*
Y23248D01*
X440234Y23165D01*
X440067Y23081D01*
X436984D01*
X436735Y22998D01*
Y20582D01*
Y20499D01*
X439984D01*
X440067Y20415D01*
Y20249D01*
Y19499D01*
Y19416D01*
X439984Y19332D01*
X439817Y19249D01*
X436735D01*
Y19166D01*
Y16416D01*
X436984D01*
Y16333D01*
Y16250D01*
X437068Y16333D01*
X440400D01*
X440484Y16250D01*
Y16083D01*
Y15333D01*
Y15250D01*
X440400Y15167D01*
X440234Y15083D01*
X435735D01*
X435651Y15167D01*
X435568Y15333D01*
Y24081D01*
Y24164D01*
Y24248D01*
X435651Y24331D01*
X440234D01*
X440317Y24248D01*
D02*
G37*
G36*
X404076D02*
Y24081D01*
Y23414D01*
Y23331D01*
Y23248D01*
X403993Y23165D01*
X403826Y23081D01*
X400660D01*
X400494Y22998D01*
Y20582D01*
Y20499D01*
X403743D01*
X403826Y20415D01*
Y20249D01*
Y19499D01*
Y19416D01*
X403743Y19332D01*
X403576Y19249D01*
X400577D01*
X400410Y19166D01*
Y16416D01*
X400577D01*
Y16333D01*
Y16250D01*
X400660Y16333D01*
X403993D01*
X404076Y16250D01*
Y16083D01*
Y15333D01*
Y15250D01*
X403993Y15167D01*
X403826Y15083D01*
X399411D01*
X399327Y15167D01*
X399244Y15333D01*
Y24081D01*
Y24164D01*
Y24248D01*
X399327Y24331D01*
X403993D01*
X404076Y24248D01*
D02*
G37*
G36*
X395912D02*
Y24081D01*
Y23414D01*
Y23331D01*
Y23248D01*
X395828Y23165D01*
X395662Y23081D01*
X393745D01*
Y22998D01*
Y22831D01*
Y22665D01*
Y22332D01*
Y21832D01*
Y21165D01*
Y20249D01*
Y19166D01*
Y15333D01*
Y15250D01*
X393579Y15167D01*
X393412Y15083D01*
X392579D01*
X392496Y15167D01*
X392412Y15333D01*
Y22998D01*
Y23081D01*
X390580D01*
X390496Y23165D01*
X390330Y23248D01*
X390246Y23414D01*
Y24081D01*
Y24164D01*
X390330Y24248D01*
X390413Y24331D01*
X395828D01*
X395912Y24248D01*
D02*
G37*
G36*
X377166D02*
Y24081D01*
Y15333D01*
Y15250D01*
X377083Y15167D01*
X376916Y15083D01*
X376083D01*
X376000Y15167D01*
Y15333D01*
Y24081D01*
Y24164D01*
Y24248D01*
X376083Y24331D01*
X377083D01*
X377166Y24248D01*
D02*
G37*
%LPC*%
G36*
X195420Y241159D02*
D01*
Y237173D01*
X195405Y237517D01*
X195375Y237840D01*
X195323Y238139D01*
X195263Y238424D01*
X195180Y238679D01*
X195098Y238926D01*
X195001Y239143D01*
X194911Y239338D01*
X194813Y239518D01*
X194716Y239668D01*
X194634Y239803D01*
X194551Y239908D01*
X194491Y239990D01*
X194439Y240050D01*
X194409Y240088D01*
X194394Y240102D01*
X194199Y240290D01*
X193982Y240455D01*
X193764Y240590D01*
X193540Y240717D01*
X193315Y240814D01*
X193090Y240904D01*
X192865Y240972D01*
X192655Y241024D01*
X192453Y241069D01*
X192273Y241106D01*
X192108Y241129D01*
X191959Y241144D01*
X191846Y241152D01*
X191794D01*
X191756Y241159D01*
X187965D01*
X191681D01*
X191337Y241144D01*
X191179Y241129D01*
X191022Y241114D01*
X190880Y241091D01*
X190737Y241061D01*
X190610Y241032D01*
X190497Y241009D01*
X190392Y240979D01*
X190295Y240949D01*
X190213Y240927D01*
X190145Y240897D01*
X190093Y240882D01*
X190048Y240867D01*
X190025Y240852D01*
X190018D01*
X189823Y240754D01*
X189636Y240649D01*
X189463Y240529D01*
X189321Y240417D01*
X189194Y240320D01*
X189141Y240275D01*
X189104Y240230D01*
X189066Y240200D01*
X189044Y240177D01*
X189029Y240162D01*
X189021Y240155D01*
X188864Y239975D01*
X188722Y239795D01*
X188602Y239615D01*
X188497Y239458D01*
X188452Y239383D01*
X188414Y239316D01*
X188384Y239256D01*
X188354Y239203D01*
X188339Y239166D01*
X188324Y239136D01*
X188309Y239113D01*
Y239106D01*
X188249Y238956D01*
X188197Y238791D01*
X188107Y238461D01*
X188047Y238132D01*
X188025Y237974D01*
X188010Y237825D01*
X187995Y237682D01*
X187980Y237547D01*
X187972Y237435D01*
Y237330D01*
X187965Y237248D01*
Y237135D01*
X187980Y236798D01*
X188010Y236483D01*
X188055Y236191D01*
X188122Y235914D01*
X188197Y235652D01*
X188287Y235419D01*
X188377Y235202D01*
X188474Y235007D01*
X188564Y234835D01*
X188654Y234685D01*
X188744Y234558D01*
X188819Y234453D01*
X188886Y234363D01*
X188931Y234303D01*
X188969Y234273D01*
X188976Y234258D01*
X189171Y234078D01*
X189381Y233913D01*
X189606Y233778D01*
X189830Y233659D01*
X190055Y233554D01*
X190280Y233471D01*
X190505Y233404D01*
X190715Y233344D01*
X190917Y233306D01*
X191104Y233269D01*
X191269Y233246D01*
X191412Y233231D01*
X191531Y233224D01*
X191584D01*
X191621Y233216D01*
X195420D01*
Y241159D01*
D02*
G37*
G36*
X203535Y241024D02*
X196634D01*
Y233344D01*
X198185D01*
Y236551D01*
X198680D01*
X198845Y236536D01*
X198979Y236521D01*
X199092Y236506D01*
X199174Y236491D01*
X199234Y236476D01*
X199264Y236468D01*
X199279Y236461D01*
X199369Y236423D01*
X199459Y236371D01*
X199534Y236318D01*
X199601Y236266D01*
X199661Y236214D01*
X199706Y236176D01*
X199736Y236146D01*
X199744Y236139D01*
X199789Y236086D01*
X199841Y236026D01*
X199901Y235951D01*
X199961Y235869D01*
X200096Y235682D01*
X200231Y235487D01*
X200358Y235307D01*
X200418Y235232D01*
X200463Y235157D01*
X200501Y235097D01*
X200538Y235052D01*
X200553Y235022D01*
X200560Y235015D01*
X201677Y233344D01*
X203535D01*
X202591Y234842D01*
X202494Y235007D01*
X202396Y235150D01*
X202306Y235292D01*
X202216Y235412D01*
X202141Y235524D01*
X202067Y235629D01*
X201999Y235719D01*
X201939Y235802D01*
X201887Y235869D01*
X201842Y235929D01*
X201797Y235974D01*
X201767Y236019D01*
X201744Y236049D01*
X201722Y236071D01*
X201714Y236079D01*
X201707Y236086D01*
X201580Y236214D01*
X201445Y236334D01*
X201302Y236446D01*
X201175Y236543D01*
X201055Y236618D01*
X201010Y236656D01*
X200965Y236678D01*
X200928Y236701D01*
X200905Y236716D01*
X200890Y236731D01*
X200883D01*
X201070Y236761D01*
X201242Y236805D01*
X201400Y236850D01*
X201550Y236903D01*
X201684Y236963D01*
X201812Y237023D01*
X201924Y237083D01*
X202022Y237143D01*
X202112Y237203D01*
X202187Y237255D01*
X202254Y237308D01*
X202306Y237353D01*
X202351Y237390D01*
X202381Y237420D01*
X202396Y237435D01*
X202404Y237442D01*
X202494Y237555D01*
X202569Y237667D01*
X202644Y237780D01*
X202696Y237899D01*
X202749Y238019D01*
X202786Y238139D01*
X202853Y238364D01*
X202868Y238469D01*
X202883Y238566D01*
X202898Y238649D01*
X202906Y238724D01*
X202913Y238784D01*
Y238829D01*
Y238859D01*
Y238866D01*
Y238993D01*
X202898Y239113D01*
X202861Y239346D01*
X202808Y239548D01*
X202778Y239638D01*
X202749Y239728D01*
X202711Y239803D01*
X202681Y239870D01*
X202651Y239930D01*
X202629Y239983D01*
X202606Y240020D01*
X202591Y240050D01*
X202584Y240065D01*
X202576Y240072D01*
X202509Y240170D01*
X202441Y240260D01*
X202291Y240410D01*
X202141Y240544D01*
X201999Y240642D01*
X201872Y240717D01*
X201819Y240747D01*
X201767Y240777D01*
X201729Y240792D01*
X201699Y240807D01*
X201684Y240814D01*
X201677D01*
X201565Y240852D01*
X201445Y240882D01*
X201310Y240912D01*
X201167Y240934D01*
X200868Y240972D01*
X200576Y241002D01*
X200441Y241009D01*
X200313Y241017D01*
X200193D01*
X200096Y241024D01*
X203535D01*
D02*
G37*
G36*
X201677Y233344D02*
X201048D01*
X201677D01*
D01*
D02*
G37*
%LPD*%
G36*
X191869Y239825D02*
X192041Y239803D01*
X192198Y239773D01*
X192341Y239728D01*
X192483Y239683D01*
X192603Y239630D01*
X192723Y239570D01*
X192828Y239510D01*
X192925Y239443D01*
X193008Y239391D01*
X193075Y239331D01*
X193135Y239286D01*
X193180Y239241D01*
X193210Y239211D01*
X193232Y239188D01*
X193240Y239181D01*
X193345Y239053D01*
X193435Y238911D01*
X193510Y238754D01*
X193577Y238596D01*
X193637Y238431D01*
X193682Y238274D01*
X193719Y238109D01*
X193749Y237952D01*
X193772Y237802D01*
X193794Y237660D01*
X193809Y237540D01*
X193817Y237427D01*
X193824Y237337D01*
Y237270D01*
Y237225D01*
Y237218D01*
Y237210D01*
X193817Y236970D01*
X193802Y236738D01*
X193772Y236528D01*
X193734Y236334D01*
X193682Y236154D01*
X193637Y235989D01*
X193577Y235846D01*
X193525Y235711D01*
X193472Y235592D01*
X193412Y235494D01*
X193367Y235404D01*
X193322Y235337D01*
X193277Y235277D01*
X193247Y235240D01*
X193232Y235217D01*
X193225Y235210D01*
X193113Y235090D01*
X192985Y234992D01*
X192858Y234902D01*
X192730Y234827D01*
X192603Y234760D01*
X192476Y234708D01*
X192356Y234662D01*
X192236Y234625D01*
X192123Y234595D01*
X192019Y234580D01*
X191929Y234565D01*
X191854Y234550D01*
X191786D01*
X191741Y234543D01*
X191696D01*
X191524Y234550D01*
X191367Y234573D01*
X191209Y234603D01*
X191067Y234648D01*
X190932Y234700D01*
X190805Y234752D01*
X190685Y234812D01*
X190580Y234880D01*
X190482Y234940D01*
X190400Y235000D01*
X190333Y235052D01*
X190273Y235105D01*
X190220Y235150D01*
X190190Y235180D01*
X190168Y235202D01*
X190160Y235210D01*
X190055Y235344D01*
X189965Y235487D01*
X189883Y235644D01*
X189816Y235802D01*
X189756Y235966D01*
X189711Y236131D01*
X189666Y236296D01*
X189636Y236453D01*
X189613Y236603D01*
X189591Y236738D01*
X189576Y236866D01*
X189568Y236970D01*
Y237060D01*
X189561Y237128D01*
Y237173D01*
Y237188D01*
X189568Y237427D01*
X189583Y237652D01*
X189613Y237862D01*
X189651Y238057D01*
X189696Y238237D01*
X189748Y238402D01*
X189801Y238544D01*
X189853Y238679D01*
X189905Y238791D01*
X189958Y238896D01*
X190010Y238979D01*
X190055Y239053D01*
X190093Y239106D01*
X190123Y239143D01*
X190138Y239166D01*
X190145Y239173D01*
X190258Y239293D01*
X190385Y239391D01*
X190505Y239480D01*
X190640Y239555D01*
X190767Y239615D01*
X190895Y239675D01*
X191022Y239713D01*
X191142Y239750D01*
X191254Y239780D01*
X191359Y239795D01*
X191457Y239810D01*
X191539Y239825D01*
X191606D01*
X191651Y239833D01*
X191696D01*
X191869Y239825D01*
D02*
G37*
G36*
X195420Y233216D02*
X191696D01*
X192003Y233231D01*
X192296Y233261D01*
X192573Y233314D01*
X192835Y233381D01*
X193075Y233464D01*
X193300Y233546D01*
X193502Y233643D01*
X193682Y233741D01*
X193847Y233838D01*
X193989Y233936D01*
X194116Y234026D01*
X194214Y234100D01*
X194296Y234168D01*
X194356Y234220D01*
X194386Y234250D01*
X194401Y234265D01*
X194581Y234468D01*
X194738Y234692D01*
X194873Y234925D01*
X194993Y235165D01*
X195091Y235404D01*
X195173Y235644D01*
X195240Y235884D01*
X195293Y236116D01*
X195338Y236326D01*
X195368Y236528D01*
X195390Y236708D01*
X195405Y236866D01*
X195413Y236933D01*
Y236993D01*
X195420Y237045D01*
Y233216D01*
D02*
G37*
G36*
X199969Y239720D02*
X200163D01*
X200246Y239713D01*
X200366D01*
X200411Y239705D01*
X200478D01*
X200501Y239698D01*
X200523D01*
X200658Y239668D01*
X200770Y239623D01*
X200875Y239578D01*
X200958Y239526D01*
X201025Y239480D01*
X201070Y239436D01*
X201100Y239406D01*
X201108Y239398D01*
X201175Y239301D01*
X201227Y239196D01*
X201265Y239091D01*
X201295Y238993D01*
X201310Y238904D01*
X201317Y238836D01*
Y238806D01*
Y238784D01*
Y238776D01*
Y238769D01*
X201310Y238649D01*
X201295Y238536D01*
X201265Y238431D01*
X201242Y238349D01*
X201212Y238282D01*
X201182Y238237D01*
X201167Y238199D01*
X201160Y238192D01*
X201092Y238117D01*
X201025Y238049D01*
X200950Y237989D01*
X200883Y237945D01*
X200815Y237915D01*
X200763Y237892D01*
X200733Y237877D01*
X200718Y237869D01*
X200658Y237854D01*
X200576Y237840D01*
X200486Y237825D01*
X200388Y237817D01*
X200276Y237810D01*
X200156Y237802D01*
X199924Y237795D01*
X199804Y237787D01*
X199699D01*
X199594Y237780D01*
X198185D01*
Y239728D01*
X199849D01*
X199969Y239720D01*
D02*
G37*
%LPC*%
G36*
X432837Y312174D02*
X432770D01*
X432448Y312159D01*
X432298Y312152D01*
X432155Y312129D01*
X432021Y312114D01*
X431901Y312092D01*
X431781Y312062D01*
X431676Y312039D01*
X431579Y312017D01*
X431496Y311987D01*
X431421Y311964D01*
X431361Y311949D01*
X431316Y311927D01*
X431279Y311919D01*
X431256Y311904D01*
X431249D01*
X431032Y311792D01*
X430837Y311672D01*
X430672Y311537D01*
X430537Y311417D01*
X430432Y311297D01*
X430395Y311252D01*
X430357Y311207D01*
X430335Y311177D01*
X430312Y311147D01*
X430305Y311132D01*
X430297Y311125D01*
X430237Y311028D01*
X430192Y310930D01*
X430110Y310735D01*
X430050Y310555D01*
X430013Y310383D01*
X429997Y310308D01*
X429983Y310241D01*
X429975Y310173D01*
Y310121D01*
X429968Y310083D01*
Y310053D01*
Y310031D01*
Y310023D01*
X429975Y309859D01*
X429997Y309694D01*
X430035Y309544D01*
X430080Y309394D01*
X430132Y309259D01*
X430192Y309132D01*
X430252Y309019D01*
X430320Y308907D01*
X430387Y308810D01*
X430447Y308727D01*
X430507Y308652D01*
X430560Y308592D01*
X430605Y308547D01*
X430642Y308510D01*
X430664Y308487D01*
X430672Y308480D01*
X430777Y308398D01*
X430889Y308315D01*
X431017Y308240D01*
X431159Y308165D01*
X431444Y308038D01*
X431736Y307925D01*
X431871Y307880D01*
X431998Y307836D01*
X432111Y307798D01*
X432215Y307768D01*
X432298Y307746D01*
X432365Y307731D01*
X432403Y307723D01*
X432418Y307716D01*
X432590Y307671D01*
X432747Y307633D01*
X432890Y307596D01*
X433017Y307558D01*
X433137Y307528D01*
X433234Y307498D01*
X433324Y307476D01*
X433399Y307453D01*
X433467Y307438D01*
X433527Y307423D01*
X433572Y307408D01*
X433602Y307393D01*
X433632Y307386D01*
X433647D01*
X433662Y307378D01*
X433797Y307326D01*
X433916Y307266D01*
X434014Y307206D01*
X434089Y307154D01*
X434149Y307109D01*
X434186Y307071D01*
X434209Y307049D01*
X434216Y307041D01*
X434268Y306966D01*
X434314Y306891D01*
X434343Y306817D01*
X434358Y306742D01*
X434374Y306682D01*
X434381Y306629D01*
Y306599D01*
Y306584D01*
X434374Y306509D01*
X434366Y306427D01*
X434321Y306292D01*
X434261Y306165D01*
X434194Y306052D01*
X434119Y305962D01*
X434059Y305895D01*
X434014Y305857D01*
X434006Y305850D01*
X433999Y305842D01*
X433924Y305790D01*
X433841Y305737D01*
X433662Y305662D01*
X433474Y305603D01*
X433287Y305565D01*
X433204Y305558D01*
X433122Y305543D01*
X433055Y305535D01*
X432987D01*
X432942Y305528D01*
X432867D01*
X432740Y305535D01*
X432620Y305543D01*
X432395Y305580D01*
X432298Y305610D01*
X432201Y305640D01*
X432118Y305670D01*
X432043Y305707D01*
X431976Y305737D01*
X431916Y305767D01*
X431863Y305797D01*
X431818Y305827D01*
X431788Y305850D01*
X431766Y305865D01*
X431751Y305880D01*
X431743D01*
X431669Y305947D01*
X431601Y306030D01*
X431481Y306202D01*
X431391Y306389D01*
X431316Y306569D01*
X431286Y306659D01*
X431264Y306734D01*
X431241Y306809D01*
X431226Y306869D01*
X431211Y306921D01*
X431204Y306966D01*
X431196Y306989D01*
Y306996D01*
X429690Y306846D01*
X429728Y306614D01*
X429773Y306389D01*
X429833Y306187D01*
X429900Y306000D01*
X429975Y305820D01*
X430050Y305662D01*
X430132Y305513D01*
X430215Y305385D01*
X430290Y305265D01*
X430365Y305168D01*
X430432Y305078D01*
X430492Y305011D01*
X430545Y304951D01*
X430589Y304913D01*
X430612Y304891D01*
X430620Y304883D01*
X430777Y304763D01*
X430942Y304666D01*
X431114Y304576D01*
X431294Y304501D01*
X431481Y304434D01*
X431669Y304381D01*
X431848Y304336D01*
X432028Y304299D01*
X432193Y304269D01*
X432350Y304254D01*
X432493Y304239D01*
X432613Y304224D01*
X432710D01*
X432785Y304216D01*
X429690D01*
D01*
X435932D01*
X433040D01*
X433212Y304231D01*
X433377Y304239D01*
X433534Y304261D01*
X433684Y304284D01*
X433819Y304306D01*
X433946Y304329D01*
X434066Y304359D01*
X434171Y304381D01*
X434261Y304404D01*
X434336Y304426D01*
X434403Y304449D01*
X434456Y304471D01*
X434493Y304479D01*
X434516Y304494D01*
X434523D01*
X434763Y304613D01*
X434868Y304674D01*
X434973Y304741D01*
X435063Y304816D01*
X435153Y304883D01*
X435228Y304958D01*
X435295Y305026D01*
X435363Y305093D01*
X435415Y305153D01*
X435460Y305205D01*
X435497Y305250D01*
X435527Y305295D01*
X435550Y305325D01*
X435557Y305340D01*
X435565Y305348D01*
X435632Y305460D01*
X435685Y305573D01*
X435737Y305678D01*
X435775Y305790D01*
X435842Y306000D01*
X435887Y306187D01*
X435902Y306277D01*
X435910Y306352D01*
X435924Y306419D01*
Y306479D01*
X435932Y306524D01*
Y306592D01*
X435917Y306854D01*
X435887Y307086D01*
X435865Y307199D01*
X435835Y307296D01*
X435805Y307393D01*
X435782Y307476D01*
X435752Y307551D01*
X435722Y307618D01*
X435700Y307678D01*
X435670Y307723D01*
X435655Y307761D01*
X435640Y307791D01*
X435625Y307806D01*
Y307813D01*
X435497Y307993D01*
X435363Y308150D01*
X435220Y308285D01*
X435085Y308398D01*
X434958Y308480D01*
X434906Y308517D01*
X434860Y308547D01*
X434823Y308570D01*
X434793Y308585D01*
X434778Y308600D01*
X434771D01*
X434666Y308652D01*
X434546Y308705D01*
X434418Y308757D01*
X434283Y308810D01*
X434006Y308899D01*
X433736Y308982D01*
X433602Y309019D01*
X433489Y309057D01*
X433377Y309087D01*
X433287Y309109D01*
X433204Y309124D01*
X433152Y309139D01*
X433115Y309154D01*
X433100D01*
X432897Y309207D01*
X432718Y309252D01*
X432545Y309304D01*
X432403Y309349D01*
X432268Y309394D01*
X432155Y309439D01*
X432051Y309477D01*
X431961Y309514D01*
X431893Y309551D01*
X431826Y309581D01*
X431781Y309604D01*
X431736Y309626D01*
X431713Y309649D01*
X431691Y309664D01*
X431684Y309671D01*
X431676D01*
X431601Y309746D01*
X431549Y309821D01*
X431504Y309904D01*
X431481Y309971D01*
X431466Y310038D01*
X431459Y310091D01*
X431451Y310121D01*
Y310136D01*
X431459Y310241D01*
X431489Y310338D01*
X431526Y310421D01*
X431571Y310488D01*
X431616Y310541D01*
X431654Y310578D01*
X431684Y310600D01*
X431691Y310608D01*
X431848Y310705D01*
X432021Y310773D01*
X432193Y310825D01*
X432365Y310855D01*
X432523Y310878D01*
X432583Y310885D01*
X432643D01*
X432687Y310893D01*
X432875D01*
X432987Y310885D01*
X433085Y310870D01*
X433182Y310855D01*
X433272Y310833D01*
X433347Y310810D01*
X433422Y310788D01*
X433489Y310765D01*
X433542Y310735D01*
X433594Y310713D01*
X433632Y310690D01*
X433669Y310675D01*
X433692Y310653D01*
X433714Y310645D01*
X433729Y310630D01*
X433789Y310578D01*
X433841Y310518D01*
X433939Y310391D01*
X434014Y310248D01*
X434074Y310106D01*
X434111Y309986D01*
X434126Y309926D01*
X434141Y309881D01*
X434149Y309836D01*
X434156Y309806D01*
X434164Y309791D01*
Y309784D01*
X435715Y309851D01*
X435700Y310046D01*
X435670Y310226D01*
X435632Y310398D01*
X435580Y310563D01*
X435520Y310713D01*
X435452Y310848D01*
X435385Y310975D01*
X435318Y311087D01*
X435243Y311192D01*
X435175Y311282D01*
X435115Y311357D01*
X435055Y311425D01*
X435010Y311470D01*
X434973Y311507D01*
X434950Y311530D01*
X434943Y311537D01*
X434801Y311649D01*
X434643Y311747D01*
X434471Y311829D01*
X434299Y311904D01*
X434119Y311964D01*
X433939Y312017D01*
X433759Y312062D01*
X433587Y312092D01*
X433422Y312122D01*
X433265Y312144D01*
X433130Y312152D01*
X433010Y312167D01*
X432905D01*
X432837Y312174D01*
D02*
G37*
G36*
X448460D02*
X444669D01*
X448385D01*
X448041Y312159D01*
X447883Y312144D01*
X447726Y312129D01*
X447584Y312106D01*
X447441Y312076D01*
X447314Y312047D01*
X447201Y312024D01*
X447097Y311994D01*
X446999Y311964D01*
X446917Y311942D01*
X446849Y311912D01*
X446797Y311897D01*
X446752Y311882D01*
X446729Y311867D01*
X446722D01*
X446527Y311769D01*
X446340Y311664D01*
X446167Y311544D01*
X446025Y311432D01*
X445898Y311335D01*
X445845Y311290D01*
X445808Y311245D01*
X445770Y311215D01*
X445748Y311192D01*
X445733Y311177D01*
X445725Y311170D01*
X445568Y310990D01*
X445426Y310810D01*
X445306Y310630D01*
X445201Y310473D01*
X445156Y310398D01*
X445118Y310331D01*
X445088Y310271D01*
X445059Y310218D01*
X445043Y310181D01*
X445028Y310151D01*
X445014Y310128D01*
Y310121D01*
X444954Y309971D01*
X444901Y309806D01*
X444811Y309477D01*
X444751Y309147D01*
X444729Y308989D01*
X444714Y308840D01*
X444699Y308697D01*
X444684Y308562D01*
X444676Y308450D01*
Y308345D01*
X444669Y308263D01*
Y308285D01*
Y308150D01*
X444684Y307813D01*
X444714Y307498D01*
X444759Y307206D01*
X444826Y306929D01*
X444901Y306667D01*
X444991Y306434D01*
X445081Y306217D01*
X445178Y306022D01*
X445268Y305850D01*
X445358Y305700D01*
X445448Y305573D01*
X445523Y305468D01*
X445591Y305378D01*
X445635Y305318D01*
X445673Y305288D01*
X445680Y305273D01*
X445875Y305093D01*
X446085Y304928D01*
X446310Y304793D01*
X446535Y304674D01*
X446759Y304569D01*
X446984Y304486D01*
X447209Y304419D01*
X447419Y304359D01*
X447621Y304321D01*
X447808Y304284D01*
X447973Y304261D01*
X448116Y304246D01*
X448236Y304239D01*
X448288D01*
X448325Y304231D01*
X452124D01*
X448400D01*
X448708Y304246D01*
X449000Y304276D01*
X449277Y304329D01*
X449539Y304396D01*
X449779Y304479D01*
X450004Y304561D01*
X450206Y304659D01*
X450386Y304756D01*
X450551Y304853D01*
X450693Y304951D01*
X450821Y305041D01*
X450918Y305116D01*
X451000Y305183D01*
X451060Y305235D01*
X451090Y305265D01*
X451105Y305280D01*
X451285Y305483D01*
X451442Y305707D01*
X451577Y305940D01*
X451697Y306180D01*
X451795Y306419D01*
X451877Y306659D01*
X451945Y306899D01*
X451997Y307131D01*
X452042Y307341D01*
X452072Y307543D01*
X452094Y307723D01*
X452109Y307880D01*
X452117Y307948D01*
Y308008D01*
X452124Y308060D01*
Y308188D01*
X452109Y308532D01*
X452079Y308855D01*
X452027Y309154D01*
X451967Y309439D01*
X451885Y309694D01*
X451802Y309941D01*
X451705Y310158D01*
X451615Y310353D01*
X451517Y310533D01*
X451420Y310683D01*
X451338Y310818D01*
X451255Y310923D01*
X451195Y311005D01*
X451143Y311065D01*
X451113Y311103D01*
X451098Y311117D01*
X450903Y311305D01*
X450686Y311470D01*
X450468Y311604D01*
X450244Y311732D01*
X450019Y311829D01*
X449794Y311919D01*
X449569Y311987D01*
X449360Y312039D01*
X449157Y312084D01*
X448977Y312122D01*
X448812Y312144D01*
X448663Y312159D01*
X448550Y312167D01*
X448498D01*
X448460Y312174D01*
D02*
G37*
G36*
X396594D02*
X392802D01*
X396519D01*
X396174Y312159D01*
X396017Y312144D01*
X395859Y312129D01*
X395717Y312106D01*
X395575Y312076D01*
X395447Y312047D01*
X395335Y312024D01*
X395230Y311994D01*
X395133Y311964D01*
X395050Y311942D01*
X394983Y311912D01*
X394930Y311897D01*
X394885Y311882D01*
X394863Y311867D01*
X394855D01*
X394661Y311769D01*
X394473Y311664D01*
X394301Y311544D01*
X394159Y311432D01*
X394031Y311335D01*
X393979Y311290D01*
X393941Y311245D01*
X393904Y311215D01*
X393881Y311192D01*
X393866Y311177D01*
X393859Y311170D01*
X393701Y310990D01*
X393559Y310810D01*
X393439Y310630D01*
X393334Y310473D01*
X393289Y310398D01*
X393252Y310331D01*
X393222Y310271D01*
X393192Y310218D01*
X393177Y310181D01*
X393162Y310151D01*
X393147Y310128D01*
Y310121D01*
X393087Y309971D01*
X393035Y309806D01*
X392945Y309477D01*
X392885Y309147D01*
X392862Y308989D01*
X392847Y308840D01*
X392832Y308697D01*
X392817Y308562D01*
X392810Y308450D01*
Y308345D01*
X392802Y308263D01*
D01*
Y308150D01*
X392817Y307813D01*
X392847Y307498D01*
X392892Y307206D01*
X392960Y306929D01*
X393035Y306667D01*
X393125Y306434D01*
X393214Y306217D01*
X393312Y306022D01*
X393402Y305850D01*
X393492Y305700D01*
X393582Y305573D01*
X393657Y305468D01*
X393724Y305378D01*
X393769Y305318D01*
X393806Y305288D01*
X393814Y305273D01*
X394009Y305093D01*
X394218Y304928D01*
X394443Y304793D01*
X394668Y304674D01*
X394893Y304569D01*
X395118Y304486D01*
X395342Y304419D01*
X395552Y304359D01*
X395755Y304321D01*
X395942Y304284D01*
X396107Y304261D01*
X396249Y304246D01*
X396369Y304239D01*
X396421D01*
X396459Y304231D01*
X400258D01*
X396534D01*
X396841Y304246D01*
X397133Y304276D01*
X397411Y304329D01*
X397673Y304396D01*
X397912Y304479D01*
X398137Y304561D01*
X398340Y304659D01*
X398519Y304756D01*
X398684Y304853D01*
X398827Y304951D01*
X398954Y305041D01*
X399051Y305116D01*
X399134Y305183D01*
X399194Y305235D01*
X399224Y305265D01*
X399239Y305280D01*
X399419Y305483D01*
X399576Y305707D01*
X399711Y305940D01*
X399831Y306180D01*
X399928Y306419D01*
X400011Y306659D01*
X400078Y306899D01*
X400130Y307131D01*
X400175Y307341D01*
X400205Y307543D01*
X400228Y307723D01*
X400243Y307880D01*
X400250Y307948D01*
Y308008D01*
X400258Y308060D01*
Y308188D01*
X400243Y308532D01*
X400213Y308855D01*
X400160Y309154D01*
X400101Y309439D01*
X400018Y309694D01*
X399936Y309941D01*
X399838Y310158D01*
X399748Y310353D01*
X399651Y310533D01*
X399553Y310683D01*
X399471Y310818D01*
X399389Y310923D01*
X399329Y311005D01*
X399276Y311065D01*
X399246Y311103D01*
X399231Y311117D01*
X399036Y311305D01*
X398819Y311470D01*
X398602Y311604D01*
X398377Y311732D01*
X398152Y311829D01*
X397928Y311919D01*
X397703Y311987D01*
X397493Y312039D01*
X397291Y312084D01*
X397111Y312122D01*
X396946Y312144D01*
X396796Y312159D01*
X396684Y312167D01*
X396631D01*
X396594Y312174D01*
D02*
G37*
G36*
X410553Y312039D02*
X408358D01*
X409114D01*
Y306899D01*
X405960Y312039D01*
X404454D01*
Y304359D01*
X407382D01*
X405893D01*
Y309387D01*
X408995Y304359D01*
X410553D01*
Y312039D01*
D02*
G37*
G36*
X391806D02*
X385362D01*
Y304359D01*
X391806D01*
Y305385D01*
Y304359D01*
X388434D01*
X388584Y304366D01*
X388726Y304374D01*
X388853Y304381D01*
X388981Y304396D01*
X389093Y304411D01*
X389198Y304426D01*
X389288Y304441D01*
X389370Y304449D01*
X389445Y304464D01*
X389513Y304479D01*
X389558Y304494D01*
X389603Y304501D01*
X389633Y304509D01*
X389648Y304516D01*
X389655D01*
X389895Y304606D01*
X390112Y304711D01*
X390210Y304756D01*
X390300Y304808D01*
X390382Y304861D01*
X390457Y304906D01*
X390517Y304951D01*
X390577Y304996D01*
X390629Y305033D01*
X390667Y305063D01*
X390697Y305093D01*
X390727Y305116D01*
X390734Y305123D01*
X390742Y305131D01*
X390839Y305228D01*
X390929Y305340D01*
X391101Y305558D01*
X391236Y305790D01*
X391356Y306000D01*
X391409Y306105D01*
X391446Y306194D01*
X391483Y306277D01*
X391513Y306344D01*
X391536Y306404D01*
X391551Y306449D01*
X391566Y306479D01*
Y306487D01*
X391648Y306756D01*
X391708Y307034D01*
X391746Y307304D01*
X391761Y307438D01*
X391776Y307566D01*
X391783Y307678D01*
X391791Y307783D01*
X391798Y307880D01*
X391806Y307963D01*
Y305385D01*
Y307963D01*
Y308315D01*
D01*
X391798Y308510D01*
X391783Y308690D01*
X391768Y308862D01*
X391746Y309019D01*
X391723Y309169D01*
X391701Y309304D01*
X391678Y309431D01*
X391656Y309544D01*
X391633Y309641D01*
X391611Y309731D01*
X391588Y309799D01*
X391573Y309859D01*
X391558Y309904D01*
X391551Y309926D01*
Y309933D01*
X391446Y310203D01*
X391326Y310443D01*
X391266Y310548D01*
X391206Y310653D01*
X391146Y310750D01*
X391086Y310833D01*
X391034Y310908D01*
X390981Y310983D01*
X390937Y311035D01*
X390899Y311087D01*
X390862Y311125D01*
X390839Y311155D01*
X390824Y311170D01*
X390817Y311177D01*
X390629Y311357D01*
X390434Y311507D01*
X390240Y311627D01*
X390060Y311724D01*
X389970Y311762D01*
X389895Y311799D01*
X389828Y311829D01*
X389768Y311852D01*
X389723Y311867D01*
X389685Y311882D01*
X389663Y311889D01*
X389655D01*
X389558Y311919D01*
X389445Y311942D01*
X389213Y311979D01*
X388973Y312002D01*
X388734Y312024D01*
X388629D01*
X388524Y312032D01*
X388434D01*
X388351Y312039D01*
X391806D01*
D02*
G37*
G36*
X466638Y312039D02*
X460539D01*
Y304359D01*
X466638D01*
X464368D01*
Y310743D01*
X466638D01*
Y312039D01*
D02*
G37*
G36*
X456800D02*
X453338D01*
Y304359D01*
X460239D01*
D01*
X459295Y305857D01*
X459198Y306022D01*
X459100Y306165D01*
X459010Y306307D01*
X458921Y306427D01*
X458846Y306539D01*
X458771Y306644D01*
X458703Y306734D01*
X458643Y306817D01*
X458591Y306884D01*
X458546Y306944D01*
X458501Y306989D01*
X458471Y307034D01*
X458448Y307064D01*
X458426Y307086D01*
X458419Y307094D01*
X458411Y307101D01*
X458284Y307229D01*
X458149Y307348D01*
X458006Y307461D01*
X457879Y307558D01*
X457759Y307633D01*
X457714Y307671D01*
X457669Y307693D01*
X457632Y307716D01*
X457609Y307731D01*
X457594Y307746D01*
X457587D01*
X457774Y307776D01*
X457946Y307820D01*
X458104Y307866D01*
X458254Y307918D01*
X458388Y307978D01*
X458516Y308038D01*
X458628Y308098D01*
X458726Y308158D01*
X458816Y308218D01*
X458890Y308270D01*
X458958Y308323D01*
X459010Y308368D01*
X459055Y308405D01*
X459085Y308435D01*
X459100Y308450D01*
X459108Y308457D01*
X459198Y308570D01*
X459273Y308682D01*
X459348Y308795D01*
X459400Y308915D01*
X459453Y309034D01*
X459490Y309154D01*
X459557Y309379D01*
X459572Y309484D01*
X459587Y309581D01*
X459602Y309664D01*
X459610Y309739D01*
X459617Y309799D01*
Y309844D01*
Y309874D01*
Y309881D01*
Y310009D01*
X459602Y310128D01*
X459565Y310361D01*
X459512Y310563D01*
X459482Y310653D01*
X459453Y310743D01*
X459415Y310818D01*
X459385Y310885D01*
X459355Y310945D01*
X459333Y310998D01*
X459310Y311035D01*
X459295Y311065D01*
X459288Y311080D01*
X459280Y311087D01*
X459213Y311185D01*
X459145Y311275D01*
X458995Y311425D01*
X458846Y311560D01*
X458703Y311657D01*
X458576Y311732D01*
X458523Y311762D01*
X458471Y311792D01*
X458433Y311807D01*
X458404Y311822D01*
X458388Y311829D01*
X458381D01*
X458269Y311867D01*
X458149Y311897D01*
X458014Y311927D01*
X457872Y311949D01*
X457572Y311987D01*
X457280Y312017D01*
X457145Y312024D01*
X457017Y312032D01*
X456897D01*
X456800Y312039D01*
D02*
G37*
G36*
X443380Y312039D02*
X437243D01*
Y304359D01*
X438794D01*
Y307723D01*
X441829D01*
Y304359D01*
X443380D01*
Y312039D01*
D02*
G37*
G36*
X426101D02*
X420002D01*
Y304359D01*
Y310743D01*
X422280D01*
Y304359D01*
X420002D01*
X426101D01*
X423831D01*
Y310743D01*
X426101D01*
Y312039D01*
D02*
G37*
G36*
X415671Y312174D02*
X411880D01*
X415596D01*
X415251Y312159D01*
X415094Y312144D01*
X414937Y312129D01*
X414794Y312106D01*
X414652Y312076D01*
X414524Y312047D01*
X414412Y312024D01*
X414307Y311994D01*
X414210Y311964D01*
X414127Y311942D01*
X414060Y311912D01*
X414007Y311897D01*
X413963Y311882D01*
X413940Y311867D01*
X413932D01*
X413738Y311769D01*
X413550Y311664D01*
X413378Y311544D01*
X413236Y311432D01*
X413108Y311335D01*
X413056Y311290D01*
X413018Y311245D01*
X412981Y311215D01*
X412958Y311192D01*
X412943Y311177D01*
X412936Y311170D01*
X412779Y310990D01*
X412636Y310810D01*
X412516Y310630D01*
X412411Y310473D01*
X412366Y310398D01*
X412329Y310331D01*
X412299Y310271D01*
X412269Y310218D01*
X412254Y310181D01*
X412239Y310151D01*
X412224Y310128D01*
Y310121D01*
X412164Y309971D01*
X412112Y309806D01*
X412022Y309477D01*
X411962Y309147D01*
X411939Y308989D01*
X411924Y308840D01*
X411909Y308697D01*
X411894Y308562D01*
X411887Y308450D01*
Y308345D01*
X411880Y308263D01*
Y308150D01*
X411894Y307813D01*
X411924Y307498D01*
X411969Y307206D01*
X412037Y306929D01*
X412112Y306667D01*
X412202Y306434D01*
X412292Y306217D01*
X412389Y306022D01*
X412479Y305850D01*
X412569Y305700D01*
X412659Y305573D01*
X412734Y305468D01*
X412801Y305378D01*
X412846Y305318D01*
X412883Y305288D01*
X412891Y305273D01*
X413086Y305093D01*
X413296Y304928D01*
X413520Y304793D01*
X413745Y304674D01*
X413970Y304569D01*
X414195Y304486D01*
X414420Y304419D01*
X414629Y304359D01*
X414832Y304321D01*
X415019Y304284D01*
X415184Y304261D01*
X415326Y304246D01*
X415446Y304239D01*
X415499D01*
X415536Y304231D01*
X419335D01*
X415611D01*
X415918Y304246D01*
X416210Y304276D01*
X416488Y304329D01*
X416750Y304396D01*
X416990Y304479D01*
X417215Y304561D01*
X417417Y304659D01*
X417597Y304756D01*
X417761Y304853D01*
X417904Y304951D01*
X418031Y305041D01*
X418129Y305116D01*
X418211Y305183D01*
X418271Y305235D01*
X418301Y305265D01*
X418316Y305280D01*
X418496Y305483D01*
X418653Y305707D01*
X418788Y305940D01*
X418908Y306180D01*
X419005Y306419D01*
X419088Y306659D01*
X419155Y306899D01*
X419208Y307131D01*
X419253Y307341D01*
X419282Y307543D01*
X419305Y307723D01*
X419320Y307880D01*
X419328Y307948D01*
Y308008D01*
X419335Y308060D01*
Y308188D01*
X419320Y308532D01*
X419290Y308855D01*
X419238Y309154D01*
X419178Y309439D01*
X419095Y309694D01*
X419013Y309941D01*
X418915Y310158D01*
X418825Y310353D01*
X418728Y310533D01*
X418631Y310683D01*
X418548Y310818D01*
X418466Y310923D01*
X418406Y311005D01*
X418353Y311065D01*
X418323Y311103D01*
X418308Y311117D01*
X418114Y311305D01*
X417896Y311470D01*
X417679Y311604D01*
X417454Y311732D01*
X417229Y311829D01*
X417005Y311919D01*
X416780Y311987D01*
X416570Y312039D01*
X416368Y312084D01*
X416188Y312122D01*
X416023Y312144D01*
X415873Y312159D01*
X415761Y312167D01*
X415708D01*
X415671Y312174D01*
D02*
G37*
%LPD*%
G36*
X448573Y310840D02*
X448745Y310818D01*
X448902Y310788D01*
X449045Y310743D01*
X449187Y310698D01*
X449307Y310645D01*
X449427Y310585D01*
X449532Y310525D01*
X449629Y310458D01*
X449712Y310406D01*
X449779Y310346D01*
X449839Y310301D01*
X449884Y310256D01*
X449914Y310226D01*
X449936Y310203D01*
X449944Y310196D01*
X450049Y310068D01*
X450139Y309926D01*
X450214Y309769D01*
X450281Y309611D01*
X450341Y309447D01*
X450386Y309289D01*
X450424Y309124D01*
X450453Y308967D01*
X450476Y308817D01*
X450498Y308675D01*
X450513Y308555D01*
X450521Y308442D01*
X450528Y308353D01*
Y308285D01*
Y308240D01*
Y308233D01*
Y308225D01*
X450521Y307985D01*
X450506Y307753D01*
X450476Y307543D01*
X450438Y307348D01*
X450386Y307169D01*
X450341Y307004D01*
X450281Y306861D01*
X450229Y306726D01*
X450176Y306607D01*
X450116Y306509D01*
X450071Y306419D01*
X450026Y306352D01*
X449981Y306292D01*
X449951Y306255D01*
X449936Y306232D01*
X449929Y306224D01*
X449817Y306105D01*
X449689Y306007D01*
X449562Y305917D01*
X449434Y305842D01*
X449307Y305775D01*
X449180Y305723D01*
X449060Y305678D01*
X448940Y305640D01*
X448827Y305610D01*
X448722Y305595D01*
X448633Y305580D01*
X448558Y305565D01*
X448490D01*
X448445Y305558D01*
X448400D01*
X448228Y305565D01*
X448071Y305588D01*
X447913Y305618D01*
X447771Y305662D01*
X447636Y305715D01*
X447509Y305767D01*
X447389Y305827D01*
X447284Y305895D01*
X447187Y305955D01*
X447104Y306015D01*
X447037Y306067D01*
X446977Y306120D01*
X446924Y306165D01*
X446894Y306194D01*
X446872Y306217D01*
X446864Y306224D01*
X446759Y306359D01*
X446670Y306502D01*
X446587Y306659D01*
X446520Y306817D01*
X446460Y306981D01*
X446415Y307146D01*
X446370Y307311D01*
X446340Y307468D01*
X446317Y307618D01*
X446295Y307753D01*
X446280Y307880D01*
X446272Y307985D01*
Y308075D01*
X446265Y308143D01*
Y308188D01*
Y308203D01*
X446272Y308442D01*
X446287Y308667D01*
X446317Y308877D01*
X446355Y309072D01*
X446400Y309252D01*
X446452Y309417D01*
X446505Y309559D01*
X446557Y309694D01*
X446609Y309806D01*
X446662Y309911D01*
X446714Y309993D01*
X446759Y310068D01*
X446797Y310121D01*
X446827Y310158D01*
X446842Y310181D01*
X446849Y310188D01*
X446962Y310308D01*
X447089Y310406D01*
X447209Y310495D01*
X447344Y310570D01*
X447471Y310630D01*
X447599Y310690D01*
X447726Y310728D01*
X447846Y310765D01*
X447958Y310795D01*
X448063Y310810D01*
X448161Y310825D01*
X448243Y310840D01*
X448310D01*
X448355Y310848D01*
X448400D01*
X448573Y310840D01*
D02*
G37*
G36*
X396706D02*
X396879Y310818D01*
X397036Y310788D01*
X397178Y310743D01*
X397321Y310698D01*
X397440Y310645D01*
X397560Y310585D01*
X397665Y310525D01*
X397763Y310458D01*
X397845Y310406D01*
X397912Y310346D01*
X397972Y310301D01*
X398017Y310256D01*
X398047Y310226D01*
X398070Y310203D01*
X398077Y310196D01*
X398182Y310068D01*
X398272Y309926D01*
X398347Y309769D01*
X398414Y309611D01*
X398475Y309447D01*
X398519Y309289D01*
X398557Y309124D01*
X398587Y308967D01*
X398609Y308817D01*
X398632Y308675D01*
X398647Y308555D01*
X398654Y308442D01*
X398662Y308353D01*
Y308285D01*
Y308240D01*
Y308233D01*
Y308225D01*
X398654Y307985D01*
X398639Y307753D01*
X398609Y307543D01*
X398572Y307348D01*
X398519Y307169D01*
X398475Y307004D01*
X398414Y306861D01*
X398362Y306726D01*
X398310Y306607D01*
X398250Y306509D01*
X398205Y306419D01*
X398160Y306352D01*
X398115Y306292D01*
X398085Y306255D01*
X398070Y306232D01*
X398062Y306224D01*
X397950Y306105D01*
X397823Y306007D01*
X397695Y305917D01*
X397568Y305842D01*
X397440Y305775D01*
X397313Y305723D01*
X397193Y305678D01*
X397073Y305640D01*
X396961Y305610D01*
X396856Y305595D01*
X396766Y305580D01*
X396691Y305565D01*
X396624D01*
X396579Y305558D01*
X396534D01*
X396362Y305565D01*
X396204Y305588D01*
X396047Y305618D01*
X395904Y305662D01*
X395770Y305715D01*
X395642Y305767D01*
X395522Y305827D01*
X395417Y305895D01*
X395320Y305955D01*
X395238Y306015D01*
X395170Y306067D01*
X395110Y306120D01*
X395058Y306165D01*
X395028Y306194D01*
X395005Y306217D01*
X394998Y306224D01*
X394893Y306359D01*
X394803Y306502D01*
X394720Y306659D01*
X394653Y306817D01*
X394593Y306981D01*
X394548Y307146D01*
X394503Y307311D01*
X394473Y307468D01*
X394451Y307618D01*
X394428Y307753D01*
X394413Y307880D01*
X394406Y307985D01*
Y308075D01*
X394398Y308143D01*
Y308188D01*
Y308203D01*
X394406Y308442D01*
X394421Y308667D01*
X394451Y308877D01*
X394488Y309072D01*
X394533Y309252D01*
X394586Y309417D01*
X394638Y309559D01*
X394691Y309694D01*
X394743Y309806D01*
X394795Y309911D01*
X394848Y309993D01*
X394893Y310068D01*
X394930Y310121D01*
X394960Y310158D01*
X394975Y310181D01*
X394983Y310188D01*
X395095Y310308D01*
X395223Y310406D01*
X395342Y310495D01*
X395477Y310570D01*
X395605Y310630D01*
X395732Y310690D01*
X395859Y310728D01*
X395979Y310765D01*
X396092Y310795D01*
X396197Y310810D01*
X396294Y310825D01*
X396376Y310840D01*
X396444D01*
X396489Y310848D01*
X396534D01*
X396706Y310840D01*
D02*
G37*
G36*
X388082Y310735D02*
X388209Y310728D01*
X388329D01*
X388434Y310720D01*
X388524Y310713D01*
X388606Y310705D01*
X388674Y310698D01*
X388734Y310690D01*
X388778Y310683D01*
X388816D01*
X388846Y310675D01*
X388868Y310668D01*
X388883D01*
X389041Y310623D01*
X389183Y310570D01*
X389303Y310511D01*
X389408Y310451D01*
X389490Y310391D01*
X389550Y310346D01*
X389588Y310316D01*
X389603Y310301D01*
X389700Y310196D01*
X389790Y310076D01*
X389865Y309949D01*
X389933Y309829D01*
X389977Y309724D01*
X390015Y309641D01*
X390030Y309604D01*
X390037Y309581D01*
X390045Y309566D01*
Y309559D01*
X390075Y309469D01*
X390097Y309364D01*
X390142Y309147D01*
X390172Y308922D01*
X390187Y308697D01*
X390195Y308600D01*
X390202Y308502D01*
Y308420D01*
X390210Y308345D01*
Y308278D01*
Y308233D01*
Y308203D01*
Y308195D01*
Y308030D01*
X390202Y307880D01*
X390195Y307731D01*
X390187Y307596D01*
X390172Y307476D01*
X390157Y307356D01*
X390142Y307251D01*
X390127Y307154D01*
X390112Y307071D01*
X390097Y306996D01*
X390082Y306936D01*
X390067Y306884D01*
X390060Y306839D01*
X390052Y306809D01*
X390045Y306794D01*
Y306786D01*
X389985Y306607D01*
X389917Y306449D01*
X389850Y306322D01*
X389783Y306224D01*
X389730Y306142D01*
X389685Y306090D01*
X389648Y306052D01*
X389640Y306045D01*
X389543Y305970D01*
X389438Y305902D01*
X389333Y305842D01*
X389236Y305797D01*
X389146Y305767D01*
X389078Y305745D01*
X389026Y305730D01*
X389018Y305723D01*
X389011D01*
X388951Y305707D01*
X388891Y305700D01*
X388741Y305685D01*
X388591Y305670D01*
X388434Y305662D01*
X388299D01*
X388232Y305655D01*
X386913D01*
Y310743D01*
X387939D01*
X388082Y310735D01*
D02*
G37*
G36*
X462817Y304359D02*
X460539D01*
Y310743D01*
X462817D01*
Y304359D01*
D02*
G37*
G36*
X456673Y310735D02*
X456867D01*
X456950Y310728D01*
X457070D01*
X457115Y310720D01*
X457182D01*
X457205Y310713D01*
X457227D01*
X457362Y310683D01*
X457474Y310638D01*
X457579Y310593D01*
X457662Y310541D01*
X457729Y310495D01*
X457774Y310451D01*
X457804Y310421D01*
X457812Y310413D01*
X457879Y310316D01*
X457931Y310211D01*
X457969Y310106D01*
X457999Y310009D01*
X458014Y309919D01*
X458021Y309851D01*
Y309821D01*
Y309799D01*
Y309791D01*
Y309784D01*
X458014Y309664D01*
X457999Y309551D01*
X457969Y309447D01*
X457946Y309364D01*
X457916Y309297D01*
X457887Y309252D01*
X457872Y309214D01*
X457864Y309207D01*
X457797Y309132D01*
X457729Y309064D01*
X457654Y309004D01*
X457587Y308960D01*
X457519Y308930D01*
X457467Y308907D01*
X457437Y308892D01*
X457422Y308885D01*
X457362Y308870D01*
X457280Y308855D01*
X457190Y308840D01*
X457092Y308832D01*
X456980Y308825D01*
X456860Y308817D01*
X456628Y308810D01*
X456508Y308802D01*
X456403D01*
X456298Y308795D01*
X454889D01*
Y310743D01*
X456553D01*
X456673Y310735D01*
D02*
G37*
G36*
X455549Y307551D02*
X455684Y307536D01*
X455796Y307521D01*
X455878Y307506D01*
X455938Y307491D01*
X455968Y307483D01*
X455983Y307476D01*
X456073Y307438D01*
X456163Y307386D01*
X456238Y307334D01*
X456306Y307281D01*
X456365Y307229D01*
X456410Y307191D01*
X456440Y307161D01*
X456448Y307154D01*
X456493Y307101D01*
X456545Y307041D01*
X456605Y306966D01*
X456665Y306884D01*
X456800Y306697D01*
X456935Y306502D01*
X457062Y306322D01*
X457122Y306247D01*
X457167Y306172D01*
X457205Y306112D01*
X457242Y306067D01*
X457257Y306037D01*
X457265Y306030D01*
X458381Y304359D01*
X454889D01*
Y307566D01*
X455384D01*
X455549Y307551D01*
D02*
G37*
G36*
X441829Y309019D02*
X438794D01*
Y312039D01*
X441829D01*
Y309019D01*
D02*
G37*
G36*
X415783Y310840D02*
X415956Y310818D01*
X416113Y310788D01*
X416255Y310743D01*
X416398Y310698D01*
X416518Y310645D01*
X416637Y310585D01*
X416742Y310525D01*
X416840Y310458D01*
X416922Y310406D01*
X416990Y310346D01*
X417050Y310301D01*
X417095Y310256D01*
X417125Y310226D01*
X417147Y310203D01*
X417155Y310196D01*
X417259Y310068D01*
X417349Y309926D01*
X417424Y309769D01*
X417492Y309611D01*
X417552Y309447D01*
X417597Y309289D01*
X417634Y309124D01*
X417664Y308967D01*
X417687Y308817D01*
X417709Y308675D01*
X417724Y308555D01*
X417732Y308442D01*
X417739Y308353D01*
Y308285D01*
Y308240D01*
Y308233D01*
Y308225D01*
X417732Y307985D01*
X417716Y307753D01*
X417687Y307543D01*
X417649Y307348D01*
X417597Y307169D01*
X417552Y307004D01*
X417492Y306861D01*
X417439Y306726D01*
X417387Y306607D01*
X417327Y306509D01*
X417282Y306419D01*
X417237Y306352D01*
X417192Y306292D01*
X417162Y306255D01*
X417147Y306232D01*
X417140Y306224D01*
X417027Y306105D01*
X416900Y306007D01*
X416772Y305917D01*
X416645Y305842D01*
X416518Y305775D01*
X416390Y305723D01*
X416270Y305678D01*
X416151Y305640D01*
X416038Y305610D01*
X415933Y305595D01*
X415843Y305580D01*
X415768Y305565D01*
X415701D01*
X415656Y305558D01*
X415611D01*
X415439Y305565D01*
X415281Y305588D01*
X415124Y305618D01*
X414982Y305662D01*
X414847Y305715D01*
X414719Y305767D01*
X414599Y305827D01*
X414495Y305895D01*
X414397Y305955D01*
X414315Y306015D01*
X414247Y306067D01*
X414187Y306120D01*
X414135Y306165D01*
X414105Y306194D01*
X414082Y306217D01*
X414075Y306224D01*
X413970Y306359D01*
X413880Y306502D01*
X413798Y306659D01*
X413730Y306817D01*
X413670Y306981D01*
X413625Y307146D01*
X413580Y307311D01*
X413550Y307468D01*
X413528Y307618D01*
X413505Y307753D01*
X413490Y307880D01*
X413483Y307985D01*
Y308075D01*
X413475Y308143D01*
Y308188D01*
Y308203D01*
X413483Y308442D01*
X413498Y308667D01*
X413528Y308877D01*
X413565Y309072D01*
X413610Y309252D01*
X413663Y309417D01*
X413715Y309559D01*
X413768Y309694D01*
X413820Y309806D01*
X413873Y309911D01*
X413925Y309993D01*
X413970Y310068D01*
X414007Y310121D01*
X414037Y310158D01*
X414052Y310181D01*
X414060Y310188D01*
X414172Y310308D01*
X414300Y310406D01*
X414420Y310495D01*
X414554Y310570D01*
X414682Y310630D01*
X414809Y310690D01*
X414937Y310728D01*
X415056Y310765D01*
X415169Y310795D01*
X415274Y310810D01*
X415371Y310825D01*
X415454Y310840D01*
X415521D01*
X415566Y310848D01*
X415611D01*
X415783Y310840D01*
D02*
G37*
%LPC*%
G36*
X429153Y23165D02*
X427987Y23081D01*
X427903D01*
X427820Y22998D01*
Y20165D01*
Y20082D01*
X429236D01*
X429570Y20165D01*
X429903Y20249D01*
X430236Y20499D01*
X430319Y20582D01*
X430486Y20832D01*
X430653Y21165D01*
X430736Y21582D01*
Y21665D01*
X430653Y21998D01*
X430569Y22332D01*
X430236Y22665D01*
X430153Y22748D01*
X429986Y22915D01*
X429570Y23081D01*
X429153Y23165D01*
D02*
G37*
G36*
X410491D02*
X409241Y23081D01*
X409158D01*
X409075Y22998D01*
Y20165D01*
X409158D01*
Y20082D01*
X410574D01*
X410824Y20165D01*
X411158Y20249D01*
X411491Y20499D01*
X411574Y20582D01*
X411741Y20832D01*
X411908Y21165D01*
X411991Y21582D01*
Y21665D01*
X411908Y21998D01*
X411824Y22332D01*
X411491Y22665D01*
X411408Y22748D01*
X411241Y22915D01*
X410908Y23081D01*
X410491Y23165D01*
D02*
G37*
G36*
X446898Y22665D02*
X446815D01*
X446732Y22581D01*
X445816Y18916D01*
Y18832D01*
X445899Y18749D01*
X447648D01*
Y18916D01*
X446898Y22581D01*
Y22665D01*
D02*
G37*
%LPD*%
D10*
X69500Y-1324D02*
G03*
X69500Y-1324I-5000J0D01*
G01*
X343500Y321000D02*
G03*
X343500Y270751I0J-25125D01*
G01*
X84500Y243000D02*
G03*
X61864Y242223I-11136J-5677D01*
G01*
X341000Y318500D02*
X343500Y321000D01*
X341000Y323500D02*
X343500Y321000D01*
X84500Y243000D02*
Y249072D01*
X79500Y243000D02*
X84500D01*
X250540Y318721D02*
Y310390D01*
X252206Y308724D01*
X255538D01*
X257204Y310390D01*
Y318721D01*
X267201Y317055D02*
X265535Y318721D01*
X262203D01*
X260537Y317055D01*
Y315389D01*
X262203Y313723D01*
X265535D01*
X267201Y312057D01*
Y310390D01*
X265535Y308724D01*
X262203D01*
X260537Y310390D01*
X270534Y318721D02*
Y308724D01*
X275532D01*
X277198Y310390D01*
Y312057D01*
X275532Y313723D01*
X270534D01*
X275532D01*
X277198Y315389D01*
Y317055D01*
X275532Y318721D01*
X270534D01*
X280530Y313723D02*
X287195D01*
X297192Y317055D02*
X295525Y318721D01*
X292193D01*
X290527Y317055D01*
Y310390D01*
X292193Y308724D01*
X295525D01*
X297192Y310390D01*
X250540Y290632D02*
Y300629D01*
X253872Y297297D01*
X257204Y300629D01*
Y290632D01*
X265535Y300629D02*
X262203D01*
X260537Y298963D01*
Y292298D01*
X262203Y290632D01*
X265535D01*
X267201Y292298D01*
Y298963D01*
X265535Y300629D01*
X270534D02*
Y290632D01*
X275532D01*
X277198Y292298D01*
Y298963D01*
X275532Y300629D01*
X270534D01*
X287195D02*
X280530D01*
Y290632D01*
X287195D01*
X280530Y295630D02*
X283863D01*
X257204Y280871D02*
X255538Y282537D01*
X252206D01*
X250540Y280871D01*
Y279205D01*
X252206Y277538D01*
X255538D01*
X257204Y275872D01*
Y274206D01*
X255538Y272540D01*
X252206D01*
X250540Y274206D01*
X267201Y282537D02*
X260537D01*
Y272540D01*
X267201D01*
X260537Y277538D02*
X263869D01*
X270534Y282537D02*
Y272540D01*
X277198D01*
X287195Y282537D02*
X280530D01*
Y272540D01*
X287195D01*
X280530Y277538D02*
X283863D01*
X297192Y280871D02*
X295525Y282537D01*
X292193D01*
X290527Y280871D01*
Y274206D01*
X292193Y272540D01*
X295525D01*
X297192Y274206D01*
X300524Y282537D02*
X307188D01*
X303856D01*
Y272540D01*
X392205Y372537D02*
X385540D01*
Y362540D01*
X392205D01*
X385540Y367538D02*
X388872D01*
X395537Y372537D02*
X402201Y362540D01*
Y372537D02*
X395537Y362540D01*
X405534Y372537D02*
X412198D01*
X408866D01*
Y362540D01*
X422195Y372537D02*
X415530D01*
Y362540D01*
X422195D01*
X415530Y367538D02*
X418863D01*
X425527Y362540D02*
Y372537D01*
X430526D01*
X432192Y370871D01*
Y367538D01*
X430526Y365872D01*
X425527D01*
X428859D02*
X432192Y362540D01*
X435524D02*
Y372537D01*
X442188Y362540D01*
Y372537D01*
X445521Y362540D02*
Y369204D01*
X448853Y372537D01*
X452185Y369204D01*
Y362540D01*
Y367538D01*
X445521D01*
X455518Y372537D02*
Y362540D01*
X462182D01*
X29732Y349209D02*
X23067D01*
X29732Y355873D01*
Y357539D01*
X28066Y359206D01*
X24733D01*
X23067Y357539D01*
X33064D02*
X34730Y359206D01*
X38062D01*
X39728Y357539D01*
Y350875D01*
X38062Y349209D01*
X34730D01*
X33064Y350875D01*
Y357539D01*
X43061Y354207D02*
X49725D01*
X53057Y349209D02*
Y359206D01*
X58056D01*
X59722Y357539D01*
Y354207D01*
X58056Y352541D01*
X53057D01*
X63054Y359206D02*
X66386D01*
X64720D01*
Y349209D01*
X63054D01*
X66386D01*
X71385D02*
Y359206D01*
X78049Y349209D01*
Y359206D01*
X30205Y373871D02*
X28538Y375537D01*
X25206D01*
X23540Y373871D01*
Y372205D01*
X25206Y370538D01*
X28538D01*
X30205Y368872D01*
Y367206D01*
X28538Y365540D01*
X25206D01*
X23540Y367206D01*
X40201Y375537D02*
X33537D01*
Y365540D01*
X40201D01*
X33537Y370538D02*
X36869D01*
X50198Y373871D02*
X48532Y375537D01*
X45200D01*
X43534Y373871D01*
Y367206D01*
X45200Y365540D01*
X48532D01*
X50198Y367206D01*
Y370538D01*
X46866D01*
X60195Y373871D02*
X58529Y375537D01*
X55196D01*
X53530Y373871D01*
Y367206D01*
X55196Y365540D01*
X58529D01*
X60195Y367206D01*
Y370538D01*
X56863D01*
X70192Y375537D02*
X63527D01*
Y365540D01*
X70192D01*
X63527Y370538D02*
X66859D01*
X73524Y365540D02*
Y375537D01*
X78522D01*
X80188Y373871D01*
Y370538D01*
X78522Y368872D01*
X73524D01*
X76856D02*
X80188Y365540D01*
X24540Y274537D02*
Y267872D01*
X27872Y264540D01*
X31205Y267872D01*
Y274537D01*
X34537Y264540D02*
Y274537D01*
X39535D01*
X41201Y272871D01*
Y269538D01*
X39535Y267872D01*
X34537D01*
X37869D02*
X41201Y264540D01*
X51198Y274537D02*
X44534D01*
Y264540D01*
X51198D01*
X44534Y269538D02*
X47866D01*
X61195Y274537D02*
X54530D01*
Y269538D01*
X57863D01*
X54530D01*
Y264540D01*
X81188Y272871D02*
X79522Y274537D01*
X76190D01*
X74524Y272871D01*
Y271204D01*
X76190Y269538D01*
X79522D01*
X81188Y267872D01*
Y266206D01*
X79522Y264540D01*
X76190D01*
X74524Y266206D01*
X91185Y274537D02*
X84521D01*
Y264540D01*
X91185D01*
X84521Y269538D02*
X87853D01*
X94517Y274537D02*
Y264540D01*
X101182D01*
X111179Y274537D02*
X104514D01*
Y264540D01*
X111179D01*
X104514Y269538D02*
X107846D01*
X121175Y272871D02*
X119509Y274537D01*
X116177D01*
X114511Y272871D01*
Y266206D01*
X116177Y264540D01*
X119509D01*
X121175Y266206D01*
X124508Y274537D02*
X131172D01*
X127840D01*
Y264540D01*
X132040Y118040D02*
X135426D01*
X133733D01*
Y128197D01*
X132040Y126504D01*
X42705Y92371D02*
X41038Y94037D01*
X37706D01*
X36040Y92371D01*
Y90704D01*
X37706Y89038D01*
X41038D01*
X42705Y87372D01*
Y85706D01*
X41038Y84040D01*
X37706D01*
X36040Y85706D01*
X46037Y94037D02*
Y84040D01*
X51035D01*
X52701Y85706D01*
Y87372D01*
X51035Y89038D01*
X46037D01*
X51035D01*
X52701Y90704D01*
Y92371D01*
X51035Y94037D01*
X46037D01*
X56034D02*
Y85706D01*
X57700Y84040D01*
X61032D01*
X62698Y85706D01*
Y94037D01*
X76027Y84040D02*
Y90704D01*
X79359Y94037D01*
X82692Y90704D01*
Y84040D01*
Y89038D01*
X76027D01*
X86024Y94037D02*
Y84040D01*
X92688D01*
X96021Y94037D02*
X102685D01*
X99353D01*
Y84040D01*
X106018D02*
Y85706D01*
X107684D01*
Y84040D01*
X106018D01*
X131009Y94037D02*
X124345D01*
Y89038D01*
X127677D01*
X124345D01*
Y84040D01*
X134342Y94037D02*
Y85706D01*
X136008Y84040D01*
X139340D01*
X141006Y85706D01*
Y94037D01*
X144338Y84040D02*
Y94037D01*
X151003Y84040D01*
Y94037D01*
X161000Y92371D02*
X159334Y94037D01*
X156001D01*
X154335Y92371D01*
Y85706D01*
X156001Y84040D01*
X159334D01*
X161000Y85706D01*
X164332Y94037D02*
X170996D01*
X167664D01*
Y84040D01*
X174329Y94037D02*
X177661D01*
X175995D01*
Y84040D01*
X174329D01*
X177661D01*
X187658Y94037D02*
X184326D01*
X182659Y92371D01*
Y85706D01*
X184326Y84040D01*
X187658D01*
X189324Y85706D01*
Y92371D01*
X187658Y94037D01*
X192656Y84040D02*
Y94037D01*
X199321Y84040D01*
Y94037D01*
X163811Y118040D02*
X157040D01*
X163811Y124811D01*
Y126504D01*
X162118Y128197D01*
X158733D01*
X157040Y126504D01*
X182040D02*
X183733Y128197D01*
X187118D01*
X188811Y126504D01*
Y124811D01*
X187118Y123118D01*
X185426D01*
X187118D01*
X188811Y121426D01*
Y119733D01*
X187118Y118040D01*
X183733D01*
X182040Y119733D01*
D11*
X262786Y57050D02*
G03*
X262786Y57050I-2121J0D01*
G01*
X382071Y155565D02*
G03*
X382071Y155565I-2121J0D01*
G01*
X356660Y338229D02*
X360660Y334229D01*
X352660D02*
X356660Y338229D01*
D12*
X153250Y230000D02*
G03*
X153250Y230000I-1250J0D01*
G01*
D13*
X146000Y251952D02*
Y258048D01*
X55706Y10534D02*
Y49142D01*
Y10534D02*
X72450D01*
X55706Y49142D02*
X72450D01*
X111550D02*
X132450D01*
X111550Y10534D02*
X132450D01*
X171550Y49142D02*
X188294D01*
X171550Y10534D02*
X188294D01*
Y49142D01*
X126460Y249002D02*
X131540D01*
X141998Y182960D02*
Y188040D01*
X142000Y169952D02*
Y176048D01*
X252174Y137329D02*
X258270D01*
X338915Y101134D02*
X345011D01*
X252626Y232041D02*
X258722D01*
X337208Y194449D02*
X343304D01*
X233452Y4580D02*
X239548D01*
X434920Y129452D02*
Y135548D01*
X256952Y100920D02*
X263048D01*
X338026Y137075D02*
X344122D01*
X252880Y195084D02*
X258976D01*
X336700Y231787D02*
X342796D01*
X273383Y92752D02*
Y99102D01*
Y92752D02*
X279733D01*
X324183D02*
Y99102D01*
X317833Y92752D02*
X324183D01*
Y139742D02*
Y146092D01*
X317833D02*
X324183D01*
X273383D02*
X279733D01*
X273383Y139742D02*
Y146092D01*
X262207Y129074D02*
Y135678D01*
X263802Y223532D02*
Y230136D01*
X274978Y234200D02*
Y240550D01*
X281328D01*
X319428D02*
X325778D01*
Y234200D02*
Y240550D01*
X319428Y187210D02*
X325778D01*
Y193560D01*
X274978Y187210D02*
X281328D01*
X274978D02*
Y193560D01*
D14*
X-6500Y288500D02*
X131500D01*
X248000Y327000D02*
X379000D01*
X176000Y304000D02*
X215000D01*
X231000Y185000D02*
Y290000D01*
X176000Y169000D02*
X215000D01*
X161000Y185000D02*
Y289000D01*
Y174000D02*
Y185000D01*
Y174000D02*
X166000Y169000D01*
X176000D01*
X215000Y169000D02*
X227000D01*
X231000Y173000D01*
Y185000D01*
Y290000D02*
Y299000D01*
X226000Y304000D02*
X231000Y299000D01*
X215000Y304000D02*
X226000D01*
X161000Y289000D02*
Y299000D01*
X166000Y304000D01*
X176000D01*
X177000Y272000D02*
Y298000D01*
X181000Y193000D02*
Y219000D01*
X131500Y288500D02*
X170000Y327000D01*
X248000D01*
X323500Y296000D02*
X328500D01*
X327500Y311500D02*
X330000Y309000D01*
X327326Y281326D02*
X330000Y284000D01*
X239000Y70000D02*
Y327000D01*
X387000Y255000D02*
X491000D01*
X379000Y263000D02*
X387000Y255000D01*
X379000Y263000D02*
Y299000D01*
Y298000D02*
Y393000D01*
X214000Y-51000D02*
Y8000D01*
X-3000Y103000D02*
X239000Y103000D01*
X214000Y8000D02*
Y45000D01*
X239000Y70000D01*
X197000Y135500D02*
X197000D01*
D15*
X120000Y328000D02*
X120020Y302950D01*
X121800Y135300D02*
X198000D01*
Y160700D01*
X121800Y160700D02*
X198000Y160700D01*
X121800Y135300D02*
X121800Y160700D01*
X36800Y173250D02*
Y221000D01*
X55900Y148100D02*
X87300D01*
X106400Y173250D02*
Y221000D01*
X81300D02*
X106400D01*
X36800D02*
X61900D01*
X119500Y213500D02*
X150500D01*
X119500Y218500D02*
X150500D01*
X119500Y213500D02*
Y218500D01*
X150500Y213500D02*
Y218500D01*
X171332Y316997D02*
X168666D01*
X169999D01*
Y310333D01*
X168666Y309000D01*
X167333D01*
X166000Y310333D01*
X179329Y309000D02*
X173997D01*
X179329Y314332D01*
Y315665D01*
X177996Y316997D01*
X175330D01*
X173997Y315665D01*
X195324D02*
X193991Y316997D01*
X191325D01*
X189992Y315665D01*
Y314332D01*
X191325Y312999D01*
X193991D01*
X195324Y311666D01*
Y310333D01*
X193991Y309000D01*
X191325D01*
X189992Y310333D01*
X197990Y316997D02*
Y309000D01*
Y312999D01*
X203321D01*
Y316997D01*
Y309000D01*
X209986Y316997D02*
X207320D01*
X205987Y315665D01*
Y310333D01*
X207320Y309000D01*
X209986D01*
X211319Y310333D01*
Y315665D01*
X209986Y316997D01*
X213985Y309000D02*
Y316997D01*
X217983D01*
X219316Y315665D01*
Y312999D01*
X217983Y311666D01*
X213985D01*
X216650D02*
X219316Y309000D01*
X221982Y316997D02*
X227313D01*
X224648D01*
Y309000D01*
X166881Y295406D02*
Y295786D01*
X167262Y296548D01*
X167643Y296929D01*
X168404Y297310D01*
X169928D01*
X170690Y296929D01*
X171070Y296548D01*
X171451Y295786D01*
Y295025D01*
X171070Y294263D01*
X170309Y293120D01*
X166500Y289312D01*
X171832D01*
X185000Y297664D02*
X188047Y289666D01*
X191094Y297664D02*
X188047Y289666D01*
X192122Y287000D02*
X198216D01*
X199245Y297664D02*
Y289666D01*
Y297664D02*
X202672D01*
X203815Y297283D01*
X204196Y296903D01*
X204577Y296141D01*
Y295379D01*
X204196Y294617D01*
X203815Y294237D01*
X202672Y293856D01*
X199245D01*
X201911D02*
X204577Y289666D01*
X211318Y297664D02*
X206367D01*
Y289666D01*
X211318D01*
X206367Y293856D02*
X209414D01*
X212651Y297664D02*
Y289666D01*
Y297664D02*
X217603D01*
X212651Y293856D02*
X215698D01*
X185000Y281664D02*
X188047Y273666D01*
X191094Y281664D02*
X188047Y273666D01*
X192122Y271000D02*
X198216D01*
X199245Y281664D02*
Y273666D01*
X203815D01*
X204691Y281664D02*
Y273666D01*
Y281664D02*
X207357D01*
X208500Y281283D01*
X209261Y280522D01*
X209642Y279760D01*
X210023Y278617D01*
Y276713D01*
X209642Y275571D01*
X209261Y274809D01*
X208500Y274047D01*
X207357Y273666D01*
X204691D01*
X214098Y281664D02*
X213337Y281283D01*
X212575Y280522D01*
X212194Y279760D01*
X211813Y278617D01*
Y276713D01*
X212194Y275571D01*
X212575Y274809D01*
X213337Y274047D01*
X214098Y273666D01*
X215622D01*
X216384Y274047D01*
X217146Y274809D01*
X217526Y275571D01*
X217907Y276713D01*
Y278617D01*
X217526Y279760D01*
X217146Y280522D01*
X216384Y281283D01*
X215622Y281664D01*
X214098D01*
X183666Y266188D02*
X182904Y265426D01*
X182143Y264284D01*
X181381Y262760D01*
X181000Y260856D01*
Y259332D01*
X181381Y257428D01*
X182143Y255904D01*
X182904Y254762D01*
X183666Y254000D01*
X182904Y265426D02*
X182143Y263903D01*
X181762Y262760D01*
X181381Y260856D01*
Y259332D01*
X181762Y257428D01*
X182143Y256285D01*
X182904Y254762D01*
X185190Y260475D02*
X188617D01*
X189760Y260856D01*
X190141Y261237D01*
X190522Y261998D01*
Y263141D01*
X190141Y263903D01*
X189760Y264284D01*
X188617Y264664D01*
X185190D01*
Y256666D01*
X194597Y264664D02*
X193835Y264284D01*
X193074Y263522D01*
X192693Y262760D01*
X192312Y261617D01*
Y259713D01*
X192693Y258570D01*
X193074Y257809D01*
X193835Y257047D01*
X194597Y256666D01*
X196121D01*
X196882Y257047D01*
X197644Y257809D01*
X198025Y258570D01*
X198406Y259713D01*
Y261617D01*
X198025Y262760D01*
X197644Y263522D01*
X196882Y264284D01*
X196121Y264664D01*
X194597D01*
X202938D02*
Y256666D01*
X200272Y264664D02*
X205604D01*
X206556Y266188D02*
X207318Y265426D01*
X208080Y264284D01*
X208842Y262760D01*
X209223Y260856D01*
Y259332D01*
X208842Y257428D01*
X208080Y255904D01*
X207318Y254762D01*
X206556Y254000D01*
X207318Y265426D02*
X208080Y263903D01*
X208461Y262760D01*
X208842Y260856D01*
Y259332D01*
X208461Y257428D01*
X208080Y256285D01*
X207318Y254762D01*
X168000Y279475D02*
X168762Y279856D01*
X169904Y280998D01*
Y273000D01*
X171381Y217094D02*
Y217475D01*
X171762Y218237D01*
X172143Y218617D01*
X172904Y218998D01*
X174428D01*
X175190Y218617D01*
X175570Y218237D01*
X175951Y217475D01*
Y216713D01*
X175570Y215951D01*
X174809Y214809D01*
X171000Y211000D01*
X176332D01*
X187000Y218664D02*
X190047Y210666D01*
X193094Y218664D02*
X190047Y210666D01*
X194122Y208000D02*
X200216D01*
X201245Y218664D02*
Y210666D01*
Y218664D02*
X204672D01*
X205815Y218284D01*
X206196Y217903D01*
X206577Y217141D01*
Y216379D01*
X206196Y215617D01*
X205815Y215237D01*
X204672Y214856D01*
X201245D01*
X203911D02*
X206577Y210666D01*
X213318Y218664D02*
X208367D01*
Y210666D01*
X213318D01*
X208367Y214856D02*
X211414D01*
X214651Y218664D02*
Y210666D01*
Y218664D02*
X219603D01*
X214651Y214856D02*
X217698D01*
X171262Y203498D02*
X175451D01*
X173166Y200451D01*
X174309D01*
X175070Y200070D01*
X175451Y199690D01*
X175832Y198547D01*
Y197785D01*
X175451Y196643D01*
X174690Y195881D01*
X173547Y195500D01*
X172404D01*
X171262Y195881D01*
X170881Y196262D01*
X170500Y197024D01*
X187000Y202664D02*
X190047Y194666D01*
X193094Y202664D02*
X190047Y194666D01*
X194122Y192000D02*
X200216D01*
X206577Y201522D02*
X205815Y202283D01*
X204672Y202664D01*
X203149D01*
X202006Y202283D01*
X201245Y201522D01*
Y200760D01*
X201625Y199998D01*
X202006Y199617D01*
X202768Y199237D01*
X205053Y198475D01*
X205815Y198094D01*
X206196Y197713D01*
X206577Y196951D01*
Y195809D01*
X205815Y195047D01*
X204672Y194666D01*
X203149D01*
X202006Y195047D01*
X201245Y195809D01*
X213318Y202664D02*
X208367D01*
Y194666D01*
X213318D01*
X208367Y198856D02*
X211414D01*
X220364Y200760D02*
X219983Y201522D01*
X219222Y202283D01*
X218460Y202664D01*
X216936D01*
X216175Y202283D01*
X215413Y201522D01*
X215032Y200760D01*
X214651Y199617D01*
Y197713D01*
X215032Y196570D01*
X215413Y195809D01*
X216175Y195047D01*
X216936Y194666D01*
X218460D01*
X219222Y195047D01*
X219983Y195809D01*
X220364Y196570D01*
Y197713D01*
X218460D02*
X220364D01*
X176666Y187188D02*
X175904Y186426D01*
X175143Y185284D01*
X174381Y183760D01*
X174000Y181856D01*
Y180332D01*
X174381Y178428D01*
X175143Y176904D01*
X175904Y175762D01*
X176666Y175000D01*
X175904Y186426D02*
X175143Y184903D01*
X174762Y183760D01*
X174381Y181856D01*
Y180332D01*
X174762Y178428D01*
X175143Y177285D01*
X175904Y175762D01*
X178190Y181475D02*
X181617D01*
X182760Y181856D01*
X183141Y182236D01*
X183522Y182998D01*
Y184141D01*
X183141Y184903D01*
X182760Y185284D01*
X181617Y185664D01*
X178190D01*
Y177666D01*
X191025Y183760D02*
X190644Y184522D01*
X189882Y185284D01*
X189121Y185664D01*
X187597D01*
X186835Y185284D01*
X186074Y184522D01*
X185693Y183760D01*
X185312Y182617D01*
Y180713D01*
X185693Y179571D01*
X186074Y178809D01*
X186835Y178047D01*
X187597Y177666D01*
X189121D01*
X189882Y178047D01*
X190644Y178809D01*
X191025Y179571D01*
X204127Y185664D02*
X200318D01*
X199937Y182236D01*
X200318Y182617D01*
X201461Y182998D01*
X202603D01*
X203746Y182617D01*
X204508Y181856D01*
X204889Y180713D01*
Y179951D01*
X204508Y178809D01*
X203746Y178047D01*
X202603Y177666D01*
X201461D01*
X200318Y178047D01*
X199937Y178428D01*
X199556Y179190D01*
X206679Y185664D02*
X209726Y177666D01*
X212773Y185664D02*
X209726Y177666D01*
X213801Y187188D02*
X214563Y186426D01*
X215324Y185284D01*
X216086Y183760D01*
X216467Y181856D01*
Y180332D01*
X216086Y178428D01*
X215324Y176904D01*
X214563Y175762D01*
X213801Y175000D01*
X214563Y186426D02*
X215324Y184903D01*
X215705Y183760D01*
X216086Y181856D01*
Y180332D01*
X215705Y178428D01*
X215324Y177285D01*
X214563Y175762D01*
X428332Y348665D02*
X426999Y349997D01*
X424333D01*
X423000Y348665D01*
Y343333D01*
X424333Y342000D01*
X426999D01*
X428332Y343333D01*
Y345999D01*
X425666D01*
X430997Y342000D02*
Y349997D01*
X436329Y342000D01*
Y349997D01*
X438995D02*
Y342000D01*
X442994D01*
X444327Y343333D01*
Y348665D01*
X442994Y349997D01*
X438995D01*
X422000Y287997D02*
Y282666D01*
X424666Y280000D01*
X427332Y282666D01*
Y287997D01*
X429997D02*
Y280000D01*
X433996D01*
X435329Y281333D01*
Y282666D01*
X433996Y283999D01*
X429997D01*
X433996D01*
X435329Y285332D01*
Y286665D01*
X433996Y287997D01*
X429997D01*
X437995D02*
Y281333D01*
X439328Y280000D01*
X441994D01*
X443326Y281333D01*
Y287997D01*
X451324Y286665D02*
X449991Y287997D01*
X447325D01*
X445992Y286665D01*
Y285332D01*
X447325Y283999D01*
X449991D01*
X451324Y282666D01*
Y281333D01*
X449991Y280000D01*
X447325D01*
X445992Y281333D01*
D16*
X388000Y352000D02*
X416000D01*
X388000Y326000D02*
Y352000D01*
Y326000D02*
X416000D01*
Y352000D01*
X388000Y290000D02*
X416000D01*
X388000Y264000D02*
Y290000D01*
Y264000D02*
X416000D01*
Y290000D01*
X137508Y265894D02*
Y273892D01*
X141507D01*
X142839Y272559D01*
Y269893D01*
X141507Y268560D01*
X137508D01*
X140174D02*
X142839Y265894D01*
X145505Y272559D02*
X146838Y273892D01*
X149504D01*
X150837Y272559D01*
Y271226D01*
X149504Y269893D01*
X148171D01*
X149504D01*
X150837Y268560D01*
Y267227D01*
X149504Y265894D01*
X146838D01*
X145505Y267227D01*
X334270Y312897D02*
Y306125D01*
X335625Y304770D01*
X338334D01*
X339688Y306125D01*
Y312897D01*
X347816D02*
X342397D01*
Y308834D01*
X345107D01*
X342397D01*
Y304770D01*
X350525D02*
Y312897D01*
X354589D01*
X355943Y311543D01*
Y308834D01*
X354589Y307479D01*
X350525D01*
X334270Y287897D02*
Y279770D01*
X338334D01*
X339688Y281125D01*
Y286543D01*
X338334Y287897D01*
X334270D01*
X347816D02*
X342397D01*
Y283834D01*
X345107D01*
X342397D01*
Y279770D01*
X350525D02*
Y287897D01*
X354589D01*
X355943Y286543D01*
Y283834D01*
X354589Y282479D01*
X350525D01*
X338334Y300397D02*
X335625D01*
X334270Y299043D01*
Y293625D01*
X335625Y292270D01*
X338334D01*
X339688Y293625D01*
Y299043D01*
X338334Y300397D01*
X342397Y292270D02*
Y300397D01*
X346461D01*
X347816Y299043D01*
Y296334D01*
X346461Y294979D01*
X342397D01*
X355943Y300397D02*
X350525D01*
Y292270D01*
X355943D01*
X350525Y296334D02*
X353234D01*
X358652Y292270D02*
Y300397D01*
X364071Y292270D01*
Y300397D01*
X37688Y-20957D02*
X36334Y-19603D01*
X33625D01*
X32270Y-20957D01*
Y-22312D01*
X33625Y-23666D01*
X36334D01*
X37688Y-25021D01*
Y-26376D01*
X36334Y-27730D01*
X33625D01*
X32270Y-26376D01*
X40397Y-19603D02*
Y-27730D01*
X43107Y-25021D01*
X45816Y-27730D01*
Y-19603D01*
X48525D02*
Y-27730D01*
X52589D01*
X53943Y-26376D01*
Y-20957D01*
X52589Y-19603D01*
X48525D01*
X56652Y-27730D02*
X62070Y-22312D01*
X70198Y-19603D02*
X67489D01*
X68843D01*
Y-26376D01*
X67489Y-27730D01*
X66134D01*
X64780Y-26376D01*
X72907Y-19603D02*
X78325D01*
X75616D01*
Y-27730D01*
X81034D02*
Y-22312D01*
X83744Y-19603D01*
X86453Y-22312D01*
Y-27730D01*
Y-23666D01*
X81034D01*
X94580Y-20957D02*
X93226Y-19603D01*
X90517D01*
X89162Y-20957D01*
Y-26376D01*
X90517Y-27730D01*
X93226D01*
X94580Y-26376D01*
Y-23666D01*
X91871D01*
X114334Y-19603D02*
X111625D01*
X110270Y-20957D01*
Y-26376D01*
X111625Y-27730D01*
X114334D01*
X115688Y-26376D01*
Y-20957D01*
X114334Y-19603D01*
X118397Y-27730D02*
Y-19603D01*
X122461D01*
X123816Y-20957D01*
Y-23666D01*
X122461Y-25021D01*
X118397D01*
X131943Y-19603D02*
X126525D01*
Y-27730D01*
X131943D01*
X126525Y-23666D02*
X129234D01*
X134652Y-27730D02*
Y-19603D01*
X140070Y-27730D01*
Y-19603D01*
X160270D02*
Y-26376D01*
X161625Y-27730D01*
X164334D01*
X165688Y-26376D01*
Y-19603D01*
X168397Y-27730D02*
Y-22312D01*
X171107Y-19603D01*
X173816Y-22312D01*
Y-27730D01*
Y-23666D01*
X168397D01*
X176525Y-27730D02*
Y-19603D01*
X180588D01*
X181943Y-20957D01*
Y-23666D01*
X180588Y-25021D01*
X176525D01*
X179234D02*
X181943Y-27730D01*
X184652Y-19603D02*
X190070D01*
X187361D01*
Y-27730D01*
X90770Y239270D02*
X93479D01*
X92125D01*
Y247397D01*
X90770Y246043D01*
X97543Y239270D02*
Y240625D01*
X98897D01*
Y239270D01*
X97543D01*
X109734D02*
X104316D01*
X109734Y244688D01*
Y246043D01*
X108379Y247397D01*
X105670D01*
X104316Y246043D01*
X112443Y247397D02*
Y241979D01*
X115152Y239270D01*
X117861Y241979D01*
Y247397D01*
X29834Y239270D02*
Y247397D01*
X25770Y243334D01*
X31188D01*
X33897Y239270D02*
Y240625D01*
X35252D01*
Y239270D01*
X33897D01*
X46089Y247397D02*
X40670D01*
Y243334D01*
X43379Y244688D01*
X44734D01*
X46089Y243334D01*
Y240625D01*
X44734Y239270D01*
X42025D01*
X40670Y240625D01*
X48798Y247397D02*
Y241979D01*
X51507Y239270D01*
X54216Y241979D01*
Y247397D01*
X426667Y334999D02*
X424001D01*
X425334D01*
Y328334D01*
X424001Y327001D01*
X422668D01*
X421335Y328334D01*
X433332Y327001D02*
Y334999D01*
X429333Y331000D01*
X434664D01*
X427667Y272999D02*
X425001D01*
X426334D01*
Y266334D01*
X425001Y265001D01*
X423668D01*
X422336Y266334D01*
X430333Y271666D02*
X431666Y272999D01*
X434332D01*
X435664Y271666D01*
Y270333D01*
X434332Y269000D01*
X432999D01*
X434332D01*
X435664Y267667D01*
Y266334D01*
X434332Y265001D01*
X431666D01*
X430333Y266334D01*
X32582Y65709D02*
X31227Y67064D01*
X28518D01*
X27164Y65709D01*
Y64355D01*
X28518Y63000D01*
X31227D01*
X32582Y61645D01*
Y60291D01*
X31227Y58936D01*
X28518D01*
X27164Y60291D01*
X35291Y67064D02*
Y58936D01*
X38000Y61645D01*
X40709Y58936D01*
Y67064D01*
X43418Y65709D02*
X44773Y67064D01*
X47482D01*
X48837Y65709D01*
Y64355D01*
X47482Y63000D01*
X46127D01*
X47482D01*
X48837Y61645D01*
Y60291D01*
X47482Y58936D01*
X44773D01*
X43418Y60291D01*
X356000Y52064D02*
X353291D01*
X354645D01*
Y45291D01*
X353291Y43936D01*
X351936D01*
X350582Y45291D01*
X358709Y43936D02*
X361418D01*
X360064D01*
Y52064D01*
X358709Y50709D01*
X293582Y252709D02*
X292227Y254064D01*
X289518D01*
X288164Y252709D01*
Y251355D01*
X289518Y250000D01*
X292227D01*
X293582Y248645D01*
Y247291D01*
X292227Y245936D01*
X289518D01*
X288164Y247291D01*
X296291Y254064D02*
Y245936D01*
X299000Y248645D01*
X301709Y245936D01*
Y254064D01*
X309837Y245936D02*
X304418D01*
X309837Y251355D01*
Y252709D01*
X308482Y254064D01*
X305773D01*
X304418Y252709D01*
X293936Y157709D02*
X292582Y159064D01*
X289873D01*
X288518Y157709D01*
Y156355D01*
X289873Y155000D01*
X292582D01*
X293936Y153645D01*
Y152291D01*
X292582Y150936D01*
X289873D01*
X288518Y152291D01*
X296645Y159064D02*
Y150936D01*
X299355Y153645D01*
X302064Y150936D01*
Y159064D01*
X304773Y150936D02*
X307482D01*
X306127D01*
Y159064D01*
X304773Y157709D01*
X107582Y234064D02*
Y227291D01*
X108936Y225936D01*
X111645D01*
X113000Y227291D01*
Y234064D01*
X115709Y225936D02*
X118418D01*
X117064D01*
Y234064D01*
X115709Y232709D01*
X328841Y245936D02*
Y254064D01*
X332905D01*
X334259Y252709D01*
Y250000D01*
X332905Y248645D01*
X328841D01*
X331550D02*
X334259Y245936D01*
X336968D02*
X339677D01*
X338323D01*
Y254064D01*
X336968Y252709D01*
X343741D02*
X345096Y254064D01*
X347805D01*
X349159Y252709D01*
Y251355D01*
X347805Y250000D01*
X346450D01*
X347805D01*
X349159Y248645D01*
Y247291D01*
X347805Y245936D01*
X345096D01*
X343741Y247291D01*
X246277Y170319D02*
Y178447D01*
X250340D01*
X251695Y177092D01*
Y174383D01*
X250340Y173028D01*
X246277D01*
X248986D02*
X251695Y170319D01*
X254404D02*
X257113D01*
X255759D01*
Y178447D01*
X254404Y177092D01*
X266595Y170319D02*
X261177D01*
X266595Y175737D01*
Y177092D01*
X265241Y178447D01*
X262532D01*
X261177Y177092D01*
X334195Y150936D02*
Y159064D01*
X338259D01*
X339614Y157709D01*
Y155000D01*
X338259Y153645D01*
X334195D01*
X336904D02*
X339614Y150936D01*
X342323D02*
X345032D01*
X343677D01*
Y159064D01*
X342323Y157709D01*
X349096Y150936D02*
X351805D01*
X350450D01*
Y159064D01*
X349096Y157709D01*
X250984Y78314D02*
Y86442D01*
X255047D01*
X256402Y85087D01*
Y82378D01*
X255047Y81023D01*
X250984D01*
X253693D02*
X256402Y78314D01*
X259111D02*
X261820D01*
X260466D01*
Y86442D01*
X259111Y85087D01*
X265884D02*
X267239Y86442D01*
X269948D01*
X271302Y85087D01*
Y79669D01*
X269948Y78314D01*
X267239D01*
X265884Y79669D01*
Y85087D01*
X408227Y128436D02*
Y136564D01*
X412291D01*
X413645Y135209D01*
Y132500D01*
X412291Y131145D01*
X408227D01*
X410936D02*
X413645Y128436D01*
X421773Y136564D02*
X416355D01*
Y132500D01*
X419064Y133855D01*
X420418D01*
X421773Y132500D01*
Y129791D01*
X420418Y128436D01*
X417709D01*
X416355Y129791D01*
X231082Y-14484D02*
Y-6356D01*
X235145D01*
X236500Y-7711D01*
Y-10420D01*
X235145Y-11775D01*
X231082D01*
X233791D02*
X236500Y-14484D01*
X239209D02*
X241918D01*
X240564D01*
Y-6356D01*
X239209Y-7711D01*
X51064Y327418D02*
X42936D01*
Y323354D01*
X44291Y322000D01*
X49709D01*
X51064Y323354D01*
Y327418D01*
X42936Y319291D02*
Y316582D01*
Y317936D01*
X51064D01*
X49709Y319291D01*
X334727Y170936D02*
Y179064D01*
X338791D01*
X340145Y177709D01*
Y175000D01*
X338791Y173645D01*
X334727D01*
X337436D02*
X340145Y170936D01*
X342855Y172291D02*
X344209Y170936D01*
X346918D01*
X348273Y172291D01*
Y177709D01*
X346918Y179064D01*
X344209D01*
X342855Y177709D01*
Y176355D01*
X344209Y175000D01*
X348273D01*
X250425Y245884D02*
Y254012D01*
X254489D01*
X255844Y252657D01*
Y249948D01*
X254489Y248593D01*
X250425D01*
X253134D02*
X255844Y245884D01*
X258553Y252657D02*
X259907Y254012D01*
X262616D01*
X263971Y252657D01*
Y251303D01*
X262616Y249948D01*
X263971Y248593D01*
Y247239D01*
X262616Y245884D01*
X259907D01*
X258553Y247239D01*
Y248593D01*
X259907Y249948D01*
X258553Y251303D01*
Y252657D01*
X259907Y249948D02*
X262616D01*
X336227Y78436D02*
Y86564D01*
X340291D01*
X341646Y85209D01*
Y82500D01*
X340291Y81145D01*
X336227D01*
X338936D02*
X341646Y78436D01*
X344355Y86564D02*
X349773D01*
Y85209D01*
X344355Y79791D01*
Y78436D01*
X249338Y150664D02*
Y158792D01*
X253402D01*
X254757Y157437D01*
Y154728D01*
X253402Y153373D01*
X249338D01*
X252047D02*
X254757Y150664D01*
X262884Y158792D02*
X260175Y157437D01*
X257466Y154728D01*
Y152019D01*
X258820Y150664D01*
X261529D01*
X262884Y152019D01*
Y153373D01*
X261529Y154728D01*
X257466D01*
X388646Y142064D02*
X385936D01*
X387291D01*
Y135291D01*
X385936Y133936D01*
X384582D01*
X383227Y135291D01*
X396773Y142064D02*
X394064Y140709D01*
X391355Y138000D01*
Y135291D01*
X392709Y133936D01*
X395418D01*
X396773Y135291D01*
Y136645D01*
X395418Y138000D01*
X391355D01*
X37727Y121436D02*
Y129564D01*
X41791D01*
X43145Y128209D01*
Y125500D01*
X41791Y124145D01*
X37727D01*
X40436D02*
X43145Y121436D01*
X49918D02*
Y129564D01*
X45855Y125500D01*
X51273D01*
X115227Y168936D02*
Y177064D01*
X119291D01*
X120645Y175709D01*
Y173000D01*
X119291Y171645D01*
X115227D01*
X117936D02*
X120645Y168936D01*
X128773D02*
X123355D01*
X128773Y174354D01*
Y175709D01*
X127418Y177064D01*
X124709D01*
X123355Y175709D01*
X205645Y144564D02*
X202936D01*
X204291D01*
Y137791D01*
X202936Y136436D01*
X201582D01*
X200227Y137791D01*
X213773Y136436D02*
X208355D01*
X213773Y141854D01*
Y143209D01*
X212418Y144564D01*
X209709D01*
X208355Y143209D01*
X120645Y188209D02*
X119291Y189564D01*
X116582D01*
X115227Y188209D01*
Y182791D01*
X116582Y181436D01*
X119291D01*
X120645Y182791D01*
X128773Y181436D02*
X123355D01*
X128773Y186854D01*
Y188209D01*
X127418Y189564D01*
X124709D01*
X123355Y188209D01*
X96645Y376064D02*
X93936D01*
X95291D01*
Y369291D01*
X93936Y367936D01*
X92582D01*
X91227Y369291D01*
X104773Y376064D02*
X99355D01*
Y372000D01*
X102064Y373354D01*
X103418D01*
X104773Y372000D01*
Y369291D01*
X103418Y367936D01*
X100709D01*
X99355Y369291D01*
X141000Y247709D02*
X139645Y249064D01*
X136936D01*
X135582Y247709D01*
Y242291D01*
X136936Y240936D01*
X139645D01*
X141000Y242291D01*
X143709Y240936D02*
X146418D01*
X145064D01*
Y249064D01*
X143709Y247709D01*
D17*
X298000Y66000D02*
X305000Y73000D01*
X298000Y66000D02*
X298000D01*
X291000Y73000D02*
X298000Y66000D01*
Y66000D02*
Y66000D01*
Y66000D02*
Y85000D01*
X361000Y204000D02*
X368000Y211000D01*
X361000Y218000D02*
X368000Y211000D01*
X335000D02*
X368000D01*
M02*
