G04*
G04 #@! TF.GenerationSoftware,Altium Limited,Altium Designer,24.10.1 (45)*
G04*
G04 Layer_Physical_Order=1*
G04 Layer_Color=255*
%FSLAX44Y44*%
%MOMM*%
G71*
G04*
G04 #@! TF.SameCoordinates,BF3B0F7F-E1BB-4F91-8F98-76733F7D73F5*
G04*
G04*
G04 #@! TF.FilePolarity,Positive*
G04*
G01*
G75*
%ADD10C,0.2540*%
%ADD12C,0.2500*%
%ADD18R,0.5500X0.5500*%
%ADD19R,1.2446X2.5000*%
%ADD20R,2.0000X2.0000*%
%ADD21R,0.3000X1.1500*%
%ADD22R,0.6000X1.1500*%
%ADD23R,1.1500X0.3000*%
%ADD24R,1.1500X0.6000*%
%ADD25R,0.5500X0.5500*%
%ADD26R,1.0000X3.7000*%
%ADD27R,1.1900X3.3000*%
%ADD28R,1.5000X0.6000*%
G04:AMPARAMS|DCode=29|XSize=0.6mm|YSize=1.1mm|CornerRadius=0.15mm|HoleSize=0mm|Usage=FLASHONLY|Rotation=0.000|XOffset=0mm|YOffset=0mm|HoleType=Round|Shape=RoundedRectangle|*
%AMROUNDEDRECTD29*
21,1,0.6000,0.8000,0,0,0.0*
21,1,0.3000,1.1000,0,0,0.0*
1,1,0.3000,0.1500,-0.4000*
1,1,0.3000,-0.1500,-0.4000*
1,1,0.3000,-0.1500,0.4000*
1,1,0.3000,0.1500,0.4000*
%
%ADD29ROUNDEDRECTD29*%
%ADD46C,0.5000*%
%ADD47C,0.5900*%
%ADD48C,0.6000*%
%ADD49C,0.2040*%
%ADD50C,1.0000*%
%ADD51C,0.1966*%
%ADD52R,1.0000X2.1000*%
%ADD53C,0.4000*%
%ADD54R,2.1000X1.0000*%
%ADD55R,1.6000X1.6000*%
%ADD56C,1.6000*%
%ADD57C,1.5000*%
%ADD58C,0.5000*%
G36*
X457078Y381741D02*
X460247Y380429D01*
X463098Y378524D01*
X465523Y376098D01*
X467429Y373247D01*
X468741Y370078D01*
X469410Y366715D01*
Y365000D01*
Y72000D01*
X370000D01*
Y-32410D01*
X30285D01*
X26922Y-31741D01*
X23753Y-30429D01*
X20902Y-28523D01*
X18476Y-26098D01*
X16571Y-23247D01*
X15259Y-20078D01*
X14590Y-16715D01*
Y-15000D01*
Y365000D01*
Y366715D01*
X15259Y370078D01*
X16571Y373247D01*
X18476Y376098D01*
X20902Y378524D01*
X23753Y380429D01*
X26922Y381741D01*
X30285Y382410D01*
X120151D01*
X120560Y380540D01*
X120560Y380370D01*
Y360462D01*
X120499Y360000D01*
Y351101D01*
X77000D01*
X75162Y350859D01*
X73450Y350149D01*
X71979Y349021D01*
X59979Y337021D01*
X58851Y335550D01*
X58141Y333838D01*
X57899Y332000D01*
Y327040D01*
X52960D01*
Y302960D01*
X57899D01*
Y288000D01*
X58141Y286162D01*
X58851Y284450D01*
X59979Y282979D01*
X65979Y276979D01*
X67450Y275851D01*
X69162Y275141D01*
X71000Y274899D01*
X71000Y274899D01*
X134059D01*
X135781Y273177D01*
Y260695D01*
X134290Y259370D01*
X130270D01*
Y254080D01*
X129000D01*
Y252810D01*
X123710D01*
Y248790D01*
X124210Y248710D01*
Y246397D01*
X121866Y244054D01*
X120752Y242386D01*
X120361Y240420D01*
Y229000D01*
X120391Y228852D01*
Y225000D01*
X120665Y223619D01*
X121448Y222448D01*
X122619Y221665D01*
X124000Y221391D01*
X127000D01*
X128381Y221665D01*
X129552Y222448D01*
X131401Y221543D01*
X131924Y221194D01*
X133500Y220881D01*
X133730D01*
Y229000D01*
X136270D01*
Y220881D01*
X136500D01*
X138076Y221194D01*
X138599Y221543D01*
X140448Y222448D01*
X141619Y221665D01*
X143000Y221391D01*
X146000D01*
X147381Y221665D01*
X148552Y222448D01*
X149335Y223619D01*
X149383Y223861D01*
X152872D01*
X153861Y222871D01*
Y199995D01*
X151828Y199762D01*
X150714Y201429D01*
X149639Y202504D01*
Y203000D01*
X149609Y203148D01*
Y207000D01*
X149335Y208381D01*
X148552Y209552D01*
X147381Y210335D01*
X146000Y210609D01*
X143000D01*
X141619Y210335D01*
X140448Y209552D01*
X139665Y208381D01*
X139391Y207000D01*
Y203148D01*
X139361Y203000D01*
Y200375D01*
X139391Y200228D01*
Y199000D01*
X139665Y197619D01*
X140448Y196448D01*
X141619Y195665D01*
X141941Y195601D01*
Y190790D01*
X138190D01*
Y185500D01*
X135650D01*
Y190790D01*
X131630D01*
X130639Y192419D01*
Y203000D01*
X130609Y203148D01*
Y207000D01*
X130335Y208381D01*
X129552Y209552D01*
X128381Y210335D01*
X127000Y210609D01*
X124000D01*
X122619Y210335D01*
X121448Y209552D01*
X120665Y208381D01*
X120391Y207000D01*
Y203148D01*
X120361Y203000D01*
Y178139D01*
X106450D01*
X104483Y177748D01*
X102816Y176634D01*
X97723Y171540D01*
X89010D01*
Y134460D01*
X104990D01*
Y164273D01*
X108579Y167861D01*
X136920D01*
X136920Y167861D01*
X138673Y168210D01*
X141710D01*
X141941Y166266D01*
Y162708D01*
X137273Y158040D01*
X124460D01*
Y137960D01*
X144540D01*
Y150773D01*
X150714Y156946D01*
X151828Y158614D01*
X152219Y160580D01*
Y172101D01*
X154252Y172333D01*
X155366Y170666D01*
X175567Y150466D01*
X175260Y149322D01*
Y146678D01*
X175944Y144125D01*
X177266Y141835D01*
X179135Y139966D01*
X181425Y138644D01*
X183978Y137960D01*
X186622D01*
X189175Y138644D01*
X191465Y139966D01*
X193334Y141835D01*
X194656Y144125D01*
X195340Y146678D01*
Y149322D01*
X194656Y151875D01*
X193334Y154165D01*
X191465Y156034D01*
X189175Y157356D01*
X186622Y158040D01*
X183978D01*
X182834Y157733D01*
X164139Y176429D01*
Y225000D01*
X163748Y226966D01*
X162634Y228634D01*
X158634Y232634D01*
X156967Y233748D01*
X155000Y234139D01*
X149639D01*
Y244340D01*
X149248Y246306D01*
X148336Y247670D01*
X148927Y249710D01*
X149810D01*
Y255000D01*
Y260290D01*
X146059D01*
Y273213D01*
X147069Y274530D01*
X147779Y276242D01*
X148021Y278080D01*
X147779Y279918D01*
X147069Y281630D01*
X145941Y283101D01*
X142021Y287021D01*
X140550Y288149D01*
X138838Y288859D01*
X137000Y289101D01*
X73941D01*
X72101Y290941D01*
Y302960D01*
X77040D01*
Y327040D01*
X72152D01*
X72122Y329080D01*
X79941Y336899D01*
X125100D01*
X126938Y337141D01*
X128650Y337851D01*
X130121Y338979D01*
X130602Y339460D01*
X134640D01*
Y346039D01*
X134701Y346500D01*
Y360000D01*
X134640Y360462D01*
Y380370D01*
X134640Y380540D01*
X135049Y382410D01*
X145551D01*
X145960Y380540D01*
X145960Y380370D01*
Y339460D01*
X149646D01*
Y337000D01*
X149901Y335716D01*
X150628Y334628D01*
X157628Y327628D01*
X158716Y326901D01*
X160000Y326646D01*
X197902D01*
X202645Y321902D01*
Y125389D01*
X194611Y117354D01*
X82000D01*
X80716Y117099D01*
X79628Y116372D01*
X66628Y103372D01*
X65901Y102284D01*
X65645Y101000D01*
Y80389D01*
X64611Y79355D01*
X55000D01*
X53716Y79099D01*
X52628Y78372D01*
X42628Y68372D01*
X41901Y67284D01*
X41646Y66000D01*
Y-3000D01*
X41901Y-4284D01*
X42628Y-5372D01*
X56628Y-19372D01*
X57716Y-20099D01*
X59000Y-20354D01*
X158000D01*
X159284Y-20099D01*
X160372Y-19372D01*
X164372Y-15372D01*
X165099Y-14284D01*
X165354Y-13000D01*
Y-11544D01*
X170263D01*
Y17536D01*
X172075Y18086D01*
X292093D01*
X293377Y18341D01*
X294465Y19068D01*
X309208Y33811D01*
X311997Y33735D01*
X312151Y33572D01*
X311460Y31903D01*
Y30097D01*
X312151Y28428D01*
X313428Y27151D01*
X315097Y26460D01*
X316903D01*
X318572Y27151D01*
X319849Y28428D01*
X320540Y30097D01*
Y31903D01*
X319849Y33572D01*
X319175Y34246D01*
Y38116D01*
X320194Y38426D01*
X320662Y38133D01*
X321910Y36868D01*
Y35248D01*
X322715Y33303D01*
X324203Y31815D01*
X326148Y31010D01*
X328252D01*
X330196Y31815D01*
X331685Y33303D01*
X332490Y35248D01*
X334460Y35079D01*
Y28760D01*
X348540D01*
Y53840D01*
X337144D01*
X335840Y55340D01*
X336549Y57136D01*
X338365Y58953D01*
X339194Y59118D01*
X340206Y59794D01*
X340882Y60806D01*
X341120Y62000D01*
X340882Y63194D01*
X340206Y64206D01*
X339194Y64882D01*
X338000Y65120D01*
X337000D01*
X335806Y64882D01*
X334794Y64206D01*
X329387Y58799D01*
X329156Y58787D01*
X327224Y59522D01*
X327001Y60647D01*
X325898Y62298D01*
X324247Y63401D01*
X322300Y63788D01*
X320472Y63424D01*
X320346Y63513D01*
X319572Y65409D01*
X329081Y74918D01*
X379866D01*
X381046Y75152D01*
X382046Y75820D01*
X421432Y115207D01*
X422101Y116207D01*
X422335Y117387D01*
Y173206D01*
X422101Y174385D01*
X421432Y175385D01*
X404185Y192633D01*
X403185Y193301D01*
X402006Y193535D01*
X401035D01*
Y198133D01*
X400801Y199313D01*
X400132Y200313D01*
X398083Y202362D01*
X397740Y202591D01*
Y215764D01*
X399436Y216898D01*
X399648Y216810D01*
X401752D01*
X403697Y217615D01*
X405185Y219103D01*
X405990Y221048D01*
Y223152D01*
X405185Y225096D01*
X403697Y226585D01*
X401752Y227390D01*
X401921Y229360D01*
X408240D01*
Y243440D01*
X383160D01*
Y232044D01*
X381660Y230740D01*
X379872Y231540D01*
X375173Y236239D01*
X374772Y236839D01*
X373998Y237613D01*
X373882Y238194D01*
X373206Y239206D01*
X372194Y239883D01*
X371000Y240120D01*
X369806Y239883D01*
X368794Y239206D01*
X368669Y239019D01*
X366629Y239638D01*
Y246083D01*
X391933Y271387D01*
X394359Y271143D01*
X394380Y271128D01*
X396142Y269366D01*
X398318Y268110D01*
X400744Y267460D01*
X403256D01*
X405682Y268110D01*
X407858Y269366D01*
X409634Y271142D01*
X410890Y273318D01*
X411540Y275744D01*
Y278256D01*
X410890Y280682D01*
X409634Y282858D01*
X407858Y284634D01*
X405682Y285890D01*
X403256Y286540D01*
X400744D01*
X398318Y285890D01*
X396142Y284634D01*
X394366Y282858D01*
X393595Y281522D01*
X390894D01*
X390893Y281522D01*
X389122Y281170D01*
X387620Y280167D01*
X387620Y280166D01*
X362000Y254546D01*
X356273Y260273D01*
X354771Y261277D01*
X353000Y261629D01*
X353000Y261629D01*
X280000D01*
X280000Y261629D01*
X278229Y261277D01*
X276727Y260273D01*
X276727Y260273D01*
X258792Y242339D01*
X256263D01*
X256263Y242339D01*
X254491Y241986D01*
X254379Y241911D01*
X250884D01*
Y233791D01*
X250884Y232331D01*
X250884Y230291D01*
Y222171D01*
X260464D01*
Y223546D01*
X268338D01*
Y221840D01*
X287418D01*
Y231920D01*
X268338D01*
Y230295D01*
X262147D01*
X261353Y231081D01*
X261231Y231450D01*
X262481Y233433D01*
X262481Y233433D01*
X263983Y234436D01*
X281917Y252371D01*
X305159D01*
X305940Y250486D01*
X303727Y248273D01*
X302723Y246771D01*
X302371Y245000D01*
X302371Y245000D01*
Y211258D01*
X300331Y210413D01*
X294492Y216252D01*
X293404Y216979D01*
X292120Y217234D01*
X287418D01*
Y218920D01*
X268338D01*
Y208840D01*
X287418D01*
Y210526D01*
X290730D01*
X295646Y205611D01*
Y185000D01*
X295901Y183716D01*
X296628Y182628D01*
X300928Y178328D01*
X302016Y177601D01*
X303300Y177346D01*
X382160D01*
Y173829D01*
X375200D01*
X375200Y173829D01*
X373429Y173477D01*
X372160Y172629D01*
X277000D01*
X277000Y172629D01*
X275229Y172277D01*
X273727Y171273D01*
X273727Y171273D01*
X263727Y161273D01*
X262723Y159771D01*
X262371Y158000D01*
X262371Y158000D01*
Y152917D01*
X257800Y148346D01*
X256530D01*
X254759Y147994D01*
X253569Y147199D01*
X250432D01*
Y139079D01*
X250432Y137619D01*
X250432Y135579D01*
Y127459D01*
X260012D01*
Y128961D01*
X266743D01*
Y127382D01*
X285823D01*
Y137462D01*
X266743D01*
Y135710D01*
X260329D01*
X260012Y137619D01*
X260012Y139147D01*
X261489Y139441D01*
X262990Y140444D01*
X270273Y147727D01*
X270273Y147727D01*
X271277Y149229D01*
X271629Y151000D01*
X271629Y151000D01*
Y156083D01*
X278917Y163371D01*
X360007D01*
X361097Y161331D01*
X360723Y160771D01*
X360371Y159000D01*
X360371Y159000D01*
Y113917D01*
X348793Y102339D01*
X346753Y103184D01*
Y111004D01*
X337173D01*
Y109693D01*
X330823D01*
Y111462D01*
X311743D01*
Y101382D01*
X330823D01*
Y102943D01*
X335731D01*
X337173Y101501D01*
X337173Y99384D01*
Y91264D01*
X346753D01*
Y91425D01*
X349054D01*
X349054Y91425D01*
X350825Y91777D01*
X352327Y92781D01*
X368273Y108727D01*
X368273Y108727D01*
X369277Y110229D01*
X369629Y112000D01*
X369629Y112000D01*
Y146362D01*
X371669Y146981D01*
X371794Y146794D01*
X372806Y146118D01*
X374000Y145880D01*
X375194Y146118D01*
X376206Y146794D01*
X376882Y147806D01*
X377120Y149000D01*
Y153708D01*
X379620Y156208D01*
X381660Y155660D01*
D01*
X383160Y154356D01*
Y142960D01*
X408240D01*
Y157040D01*
X401921D01*
X401752Y159010D01*
X403697Y159815D01*
X405185Y161304D01*
X405990Y163248D01*
Y165352D01*
X405185Y167297D01*
X403697Y168785D01*
X401752Y169590D01*
X399648D01*
X399436Y169502D01*
X397740Y170636D01*
Y181102D01*
X399780Y181947D01*
X411665Y170063D01*
Y120530D01*
X402425Y111290D01*
X401884Y111651D01*
X400705Y111885D01*
X399525Y111651D01*
X398525Y110982D01*
X395339Y107796D01*
X394671Y106796D01*
X394436Y105617D01*
X394332Y105513D01*
X393153Y105278D01*
X392153Y104610D01*
X388967Y101424D01*
X388298Y100424D01*
X388064Y99244D01*
X388298Y98065D01*
X388660Y97524D01*
X376723Y85588D01*
X325938D01*
X324758Y85354D01*
X323758Y84685D01*
X298868Y59795D01*
X298199Y58795D01*
X298068Y58135D01*
X293367D01*
X292187Y57901D01*
X291187Y57232D01*
X290481Y56527D01*
X287996Y56776D01*
X272645Y72128D01*
X271550Y72860D01*
X271109Y72947D01*
X262212Y81844D01*
X262572Y83651D01*
X263046Y84125D01*
X284500D01*
X285791Y84382D01*
X286886Y85114D01*
X297386Y95614D01*
X298118Y96708D01*
X298375Y98000D01*
Y105536D01*
X308886Y116047D01*
X311743D01*
Y114382D01*
X330823D01*
Y124462D01*
X311743D01*
Y122797D01*
X307488D01*
X306196Y122540D01*
X305102Y121808D01*
X292614Y109320D01*
X291882Y108226D01*
X291625Y106934D01*
Y99398D01*
X283102Y90875D01*
X265290D01*
Y94570D01*
X260000D01*
Y97110D01*
X265290D01*
Y99965D01*
X266669Y101309D01*
X267226Y101382D01*
X285823D01*
Y111462D01*
X266743D01*
Y110840D01*
X260211D01*
X259960Y110790D01*
X258448D01*
X257603Y112830D01*
X260820Y116047D01*
X266743D01*
Y114382D01*
X285823D01*
Y124462D01*
X266743D01*
Y122797D01*
X259422D01*
X258130Y122540D01*
X257036Y121808D01*
X250394Y115167D01*
X249266Y115387D01*
X248354Y115926D01*
Y289337D01*
X285663Y326646D01*
X300000D01*
X301284Y326901D01*
X302372Y327628D01*
X307772Y333028D01*
X308499Y334116D01*
X308754Y335400D01*
Y339460D01*
X312440D01*
Y380370D01*
X312440Y380540D01*
X312849Y382410D01*
X323351D01*
X323760Y380540D01*
X323760Y380370D01*
Y339460D01*
X337840D01*
Y380370D01*
X337840Y380540D01*
X338249Y382410D01*
X348751D01*
X349160Y380540D01*
X349160Y380370D01*
Y339460D01*
X356694D01*
X365427Y330727D01*
X366929Y329723D01*
X367953Y329520D01*
X368097Y329460D01*
X368253D01*
X368700Y329371D01*
X369147Y329460D01*
X369903D01*
X371572Y330151D01*
X372849Y331428D01*
X373540Y333097D01*
Y334903D01*
X372849Y336572D01*
X371572Y337849D01*
X371274Y337972D01*
X363240Y346006D01*
Y380370D01*
X363240Y380540D01*
X363649Y382410D01*
X453715D01*
X457078Y381741D01*
D02*
G37*
G36*
X357371Y246083D02*
Y231000D01*
X357371Y231000D01*
X357723Y229228D01*
X358727Y227727D01*
X370339Y216115D01*
X369790Y214075D01*
X332418D01*
Y218920D01*
X314525D01*
X312623Y220664D01*
X312623Y221506D01*
X313338Y221840D01*
X313669Y221840D01*
X332418D01*
Y223419D01*
X334958D01*
Y221917D01*
X344538D01*
Y229744D01*
X345038Y231577D01*
X345038Y233330D01*
Y235597D01*
X339748D01*
X334458D01*
Y233646D01*
X333813Y232611D01*
X332901Y231839D01*
X332418Y231920D01*
Y231920D01*
X313669D01*
X313338Y231920D01*
X311629Y232719D01*
Y243083D01*
X320917Y252371D01*
X351083D01*
X357371Y246083D01*
D02*
G37*
G36*
X382160Y197591D02*
X381817Y197362D01*
X379767Y195313D01*
X379099Y194313D01*
X378865Y193133D01*
Y188267D01*
X379099Y187087D01*
X379767Y186087D01*
X378915Y184054D01*
X346869D01*
X345046Y184579D01*
Y192699D01*
X345046Y194159D01*
X345046Y196199D01*
Y204319D01*
X335466D01*
Y204319D01*
X333426Y204014D01*
X333227Y204213D01*
X333247Y206719D01*
X333876Y207325D01*
X382160D01*
Y197591D01*
D02*
G37*
G36*
X248234Y96113D02*
X249125Y95580D01*
Y86783D01*
X249382Y85492D01*
X250114Y84397D01*
X267155Y67355D01*
X268250Y66624D01*
X268691Y66536D01*
X271857Y63370D01*
X271419Y60923D01*
X270702Y60445D01*
X270317Y59868D01*
X270000Y59700D01*
X267834Y59578D01*
X262206Y65206D01*
X261194Y65882D01*
X260000Y66120D01*
X255000D01*
X253806Y65882D01*
X252794Y65206D01*
X252118Y64194D01*
X251880Y63000D01*
X252118Y61806D01*
X252794Y60794D01*
X253806Y60118D01*
X255000Y59880D01*
X258708D01*
X261208Y57380D01*
X260760Y55340D01*
D01*
X259456Y53840D01*
X248060D01*
Y29375D01*
X169117D01*
X156920Y41571D01*
X157701Y43456D01*
X170263D01*
Y54641D01*
X203996D01*
X205280Y54897D01*
X206368Y55624D01*
X247085Y96341D01*
X248234Y96113D01*
D02*
G37*
G36*
X294137Y38917D02*
X296187Y36867D01*
X297187Y36199D01*
X298367Y35965D01*
X299208D01*
X299989Y34080D01*
X290703Y24794D01*
X284156D01*
X283468Y26834D01*
X283918Y27508D01*
X284175Y28800D01*
Y39260D01*
X293909D01*
X294137Y38917D01*
D02*
G37*
G36*
X298360Y380540D02*
X298360Y380370D01*
Y339460D01*
X302045D01*
Y336789D01*
X298611Y333354D01*
X284273D01*
X282990Y333099D01*
X281901Y332372D01*
X242628Y293099D01*
X241901Y292010D01*
X241646Y290727D01*
Y100389D01*
X202607Y61350D01*
X170263D01*
Y72536D01*
X153737D01*
Y47420D01*
X151852Y46639D01*
X150263Y48229D01*
Y72536D01*
X133737D01*
Y43456D01*
X145490D01*
X162267Y26679D01*
X161486Y24794D01*
X154167D01*
X152883Y24539D01*
X151795Y23812D01*
X145519Y17536D01*
X133737D01*
Y-11544D01*
X150263D01*
Y12792D01*
X151852Y14381D01*
X153737Y13601D01*
Y-11544D01*
X153737D01*
X154530Y-13584D01*
X154489Y-13645D01*
X60389D01*
X48355Y-1611D01*
Y64611D01*
X56389Y72646D01*
X66000D01*
X67284Y72901D01*
X68372Y73628D01*
X71372Y76628D01*
X72099Y77716D01*
X72354Y79000D01*
Y99611D01*
X83389Y110646D01*
X196000D01*
X197284Y110901D01*
X198372Y111628D01*
X208372Y121628D01*
X209099Y122716D01*
X209354Y124000D01*
Y323291D01*
X209099Y324575D01*
X208372Y325663D01*
X201663Y332372D01*
X200575Y333099D01*
X199291Y333354D01*
X161389D01*
X157324Y337420D01*
X158169Y339460D01*
X160040D01*
Y380370D01*
X160040Y380540D01*
X160449Y382410D01*
X170951D01*
X171360Y380540D01*
X171360Y380370D01*
Y339460D01*
X185440D01*
Y380370D01*
X185440Y380540D01*
X185849Y382410D01*
X196351D01*
X196760Y380540D01*
X196760Y380370D01*
Y339460D01*
X210840D01*
Y380370D01*
X210840Y380540D01*
X211249Y382410D01*
X221751D01*
X222160Y380540D01*
X222160Y380370D01*
Y339460D01*
X236240D01*
Y380370D01*
X236240Y380540D01*
X236649Y382410D01*
X247151D01*
X247560Y380540D01*
X247560Y380370D01*
Y339460D01*
X249871D01*
X250676Y337420D01*
X216628Y303372D01*
X215901Y302284D01*
X215646Y301000D01*
Y117389D01*
X202610Y104354D01*
X129000D01*
X127716Y104099D01*
X126628Y103372D01*
X102611Y79355D01*
X90000D01*
X88716Y79099D01*
X87628Y78372D01*
X83946Y74690D01*
X83219Y73602D01*
X83007Y72536D01*
X73737D01*
Y43456D01*
X90263D01*
Y71265D01*
X91697Y72517D01*
X93737Y72226D01*
X93737Y70606D01*
Y43456D01*
X110263D01*
Y72536D01*
X108165D01*
X107320Y74576D01*
X130389Y97646D01*
X204000D01*
X205284Y97901D01*
X206372Y98628D01*
X221372Y113628D01*
X222099Y114716D01*
X222354Y116000D01*
Y299611D01*
X256972Y334228D01*
X257699Y335316D01*
X257954Y336600D01*
Y339460D01*
X261640D01*
Y380370D01*
X261640Y380540D01*
X262049Y382410D01*
X272551D01*
X272960Y380540D01*
X272960Y380370D01*
Y356574D01*
X272896Y356250D01*
Y341639D01*
X229628Y298372D01*
X228901Y297284D01*
X228645Y296000D01*
Y107389D01*
X203610Y82354D01*
X130000D01*
X128716Y82099D01*
X127628Y81372D01*
X122628Y76372D01*
X121901Y75284D01*
X121646Y74000D01*
Y34390D01*
X116610Y29354D01*
X98727D01*
X97443Y29099D01*
X96355Y28372D01*
X85519Y17536D01*
X73737D01*
Y-11544D01*
X90263D01*
Y12792D01*
X91852Y14381D01*
X93737Y13601D01*
Y-11544D01*
X110263D01*
Y17536D01*
X97672D01*
X96892Y19421D01*
X100117Y22645D01*
X118000D01*
X119284Y22901D01*
X120372Y23628D01*
X127372Y30628D01*
X128099Y31716D01*
X128355Y33000D01*
Y72611D01*
X131390Y75645D01*
X205000D01*
X206284Y75901D01*
X207372Y76628D01*
X234372Y103628D01*
X235099Y104716D01*
X235354Y106000D01*
Y294611D01*
X278622Y337878D01*
X279349Y338966D01*
X279447Y339460D01*
X287040D01*
Y380370D01*
X287040Y380540D01*
X287449Y382410D01*
X297951D01*
X298360Y380540D01*
D02*
G37*
G36*
X463084Y69460D02*
Y69158D01*
Y68977D01*
Y68675D01*
Y68313D01*
Y67891D01*
Y67409D01*
Y66805D01*
Y66142D01*
Y65358D01*
Y64513D01*
Y63548D01*
Y62462D01*
Y61255D01*
Y59868D01*
Y58420D01*
Y56852D01*
Y55102D01*
Y53232D01*
Y51181D01*
Y48949D01*
Y46596D01*
Y44123D01*
Y41409D01*
Y38513D01*
Y35436D01*
Y32179D01*
Y28740D01*
Y25121D01*
Y21260D01*
Y-27000D01*
X420042Y-2870D01*
X463084Y21260D01*
X420042Y45390D01*
X463084Y69520D01*
Y69460D01*
D02*
G37*
G36*
X420042Y45390D02*
X377000Y21260D01*
X420042Y-2870D01*
X377000Y-27000D01*
Y21260D01*
Y25121D01*
Y28740D01*
Y32179D01*
Y35436D01*
Y38513D01*
Y41409D01*
Y44123D01*
Y46596D01*
Y48949D01*
Y51181D01*
Y53232D01*
Y55102D01*
Y56852D01*
Y58420D01*
Y59868D01*
Y61255D01*
Y62462D01*
Y63548D01*
Y64513D01*
Y65358D01*
Y66142D01*
Y66805D01*
Y67409D01*
Y67891D01*
Y68313D01*
Y68675D01*
Y68977D01*
Y69158D01*
Y69460D01*
Y69520D01*
X420042Y45390D01*
D02*
G37*
%LPC*%
G36*
X403322Y349040D02*
X403270D01*
Y340270D01*
X412040D01*
Y340322D01*
X411356Y342875D01*
X410034Y345165D01*
X408165Y347034D01*
X405875Y348356D01*
X403322Y349040D01*
D02*
G37*
G36*
X400730D02*
X400678D01*
X398125Y348356D01*
X395835Y347034D01*
X393966Y345165D01*
X392644Y342875D01*
X391960Y340322D01*
Y340270D01*
X400730D01*
Y349040D01*
D02*
G37*
G36*
X412040Y337730D02*
X403270D01*
Y328960D01*
X403322D01*
X405875Y329644D01*
X408165Y330966D01*
X410034Y332835D01*
X411356Y335125D01*
X412040Y337678D01*
Y337730D01*
D02*
G37*
G36*
X400730D02*
X391960D01*
Y337678D01*
X392644Y335125D01*
X393966Y332835D01*
X395835Y330966D01*
X398125Y329644D01*
X400678Y328960D01*
X400730D01*
Y337730D01*
D02*
G37*
G36*
X117040Y327040D02*
X92960D01*
Y302960D01*
X117040D01*
Y309861D01*
X125000D01*
X126966Y310252D01*
X128634Y311366D01*
X129748Y313034D01*
X130139Y315000D01*
X129748Y316966D01*
X128634Y318634D01*
X126966Y319748D01*
X125000Y320139D01*
X117040D01*
Y327040D01*
D02*
G37*
G36*
X156370Y260290D02*
X152350D01*
Y256270D01*
X156370D01*
Y260290D01*
D02*
G37*
G36*
X127730Y259370D02*
X123710D01*
Y255350D01*
X127730D01*
Y259370D01*
D02*
G37*
G36*
X156370Y253730D02*
X152350D01*
Y249710D01*
X156370D01*
Y253730D01*
D02*
G37*
G36*
X450040Y243440D02*
X424960D01*
Y229360D01*
X450040D01*
Y243440D01*
D02*
G37*
G36*
X80090Y236040D02*
X72870D01*
Y218270D01*
X80090D01*
Y236040D01*
D02*
G37*
G36*
X70330D02*
X63110D01*
Y218270D01*
X70330D01*
Y236040D01*
D02*
G37*
G36*
X287418Y205920D02*
X268338D01*
Y203897D01*
X260718D01*
Y204954D01*
X251138D01*
Y197127D01*
X250638Y195294D01*
X250638Y193541D01*
Y191274D01*
X255928D01*
X261218D01*
Y193541D01*
X261218Y195294D01*
X261669Y197147D01*
X268338D01*
Y195840D01*
X287418D01*
Y205920D01*
D02*
G37*
G36*
X80090Y215730D02*
X72870D01*
Y197960D01*
X80090D01*
Y215730D01*
D02*
G37*
G36*
X70330D02*
X63110D01*
Y197960D01*
X70330D01*
Y215730D01*
D02*
G37*
G36*
X261218Y188734D02*
X257198D01*
Y184714D01*
X261218D01*
Y188734D01*
D02*
G37*
G36*
X254658D02*
X250638D01*
Y184714D01*
X254658D01*
Y188734D01*
D02*
G37*
G36*
X54690Y172040D02*
X47470D01*
Y154270D01*
X54690D01*
Y172040D01*
D02*
G37*
G36*
X44930D02*
X37710D01*
Y154270D01*
X44930D01*
Y172040D01*
D02*
G37*
G36*
X346364Y147445D02*
X342344D01*
Y143425D01*
X346364D01*
Y147445D01*
D02*
G37*
G36*
X339804D02*
X335784D01*
Y143425D01*
X339804D01*
Y147445D01*
D02*
G37*
G36*
X161222Y158040D02*
X158578D01*
X156025Y157356D01*
X153735Y156034D01*
X151866Y154165D01*
X150544Y151875D01*
X149860Y149322D01*
Y146678D01*
X150544Y144125D01*
X151866Y141835D01*
X153735Y139966D01*
X156025Y138644D01*
X158578Y137960D01*
X161222D01*
X163775Y138644D01*
X166065Y139966D01*
X167934Y141835D01*
X169256Y144125D01*
X169940Y146678D01*
Y149322D01*
X169256Y151875D01*
X167934Y154165D01*
X166065Y156034D01*
X163775Y157356D01*
X161222Y158040D01*
D02*
G37*
G36*
X346364Y140885D02*
X341074D01*
X335784D01*
Y138618D01*
X335784Y136865D01*
X334275Y135583D01*
X330823D01*
Y137462D01*
X311743D01*
Y127382D01*
X330823D01*
Y128834D01*
X336284D01*
Y127205D01*
X345864D01*
Y135032D01*
X346364Y136865D01*
X346364Y138618D01*
Y140885D01*
D02*
G37*
G36*
X54690Y151730D02*
X47470D01*
Y133960D01*
X54690D01*
Y151730D01*
D02*
G37*
G36*
X44930D02*
X37710D01*
Y133960D01*
X44930D01*
Y151730D01*
D02*
G37*
G36*
X441270Y137790D02*
Y133770D01*
X445290D01*
Y137790D01*
X441270D01*
D02*
G37*
G36*
X445290Y131230D02*
X441270D01*
Y127210D01*
X445290D01*
Y131230D01*
D02*
G37*
G36*
X450040Y157040D02*
X424960D01*
Y142960D01*
X426465D01*
Y137290D01*
X425050D01*
Y127710D01*
X432877D01*
X434710Y127210D01*
X436463Y127210D01*
X438730D01*
Y132500D01*
Y137790D01*
X436463D01*
X434710Y137790D01*
X433215Y139105D01*
Y142960D01*
X450040D01*
Y157040D01*
D02*
G37*
G36*
X241790Y14950D02*
X237770D01*
Y10930D01*
X241790D01*
Y14950D01*
D02*
G37*
G36*
X235230D02*
X231210D01*
Y10930D01*
X235230D01*
Y14950D01*
D02*
G37*
G36*
X262140Y12040D02*
X248060D01*
Y2875D01*
X243105D01*
X241790Y4370D01*
X241790Y6123D01*
Y8390D01*
X236500D01*
X231210D01*
Y6123D01*
X231210Y4370D01*
X231710Y2537D01*
Y-5290D01*
X241290D01*
Y-3875D01*
X248060D01*
Y-13040D01*
X262140D01*
Y12040D01*
D02*
G37*
G36*
X348540D02*
X334460D01*
Y-13040D01*
X348540D01*
Y12040D01*
D02*
G37*
G36*
X345038Y242157D02*
X341018D01*
Y238137D01*
X345038D01*
Y242157D01*
D02*
G37*
G36*
X338478D02*
X334458D01*
Y238137D01*
X338478D01*
Y242157D01*
D02*
G37*
%LPD*%
D10*
X252500Y86783D02*
X269542Y69742D01*
X270258D02*
X285610Y54390D01*
Y47240D02*
Y54390D01*
X269542Y69742D02*
X270258D01*
X252500Y86783D02*
Y112500D01*
X284500Y87500D02*
X295000Y98000D01*
X260000Y87500D02*
X284500D01*
X285610Y47240D02*
X285800Y47050D01*
X259422Y119422D02*
X276283D01*
X252500Y112500D02*
X259422Y119422D01*
X295000Y98000D02*
Y106934D01*
X429840Y146270D02*
X433570Y150000D01*
X429840Y132500D02*
Y146270D01*
X433570Y150000D02*
X437500D01*
X295000Y106934D02*
X307488Y119422D01*
X330558Y210700D02*
X389950D01*
X322878Y213880D02*
X327378D01*
X330558Y210700D01*
X307488Y119422D02*
X321283D01*
X315800Y31200D02*
Y47050D01*
Y31200D02*
X316000Y31000D01*
X280800Y28800D02*
Y47050D01*
X278000Y26000D02*
X280800Y28800D01*
X167719Y26000D02*
X278000D01*
X142000Y51719D02*
X167719Y26000D01*
X142000Y51719D02*
Y57996D01*
X236500Y-500D02*
X255100D01*
X339661Y226793D02*
X339748Y226707D01*
X322965Y226793D02*
X339661D01*
X322878Y226880D02*
X322965Y226793D01*
X339580Y200205D02*
X340256Y199529D01*
X322878Y200880D02*
X323554Y200205D01*
X339580D01*
X255674Y226961D02*
X255714Y226921D01*
X277838D01*
X277878Y226880D01*
X277520Y200522D02*
X277878Y200880D01*
X256286Y200522D02*
X277520D01*
X255928Y200164D02*
X256286Y200522D01*
X255222Y132249D02*
X255309Y132336D01*
X276196D01*
X276283Y132422D01*
X321283Y106422D02*
X321387Y106318D01*
X321497Y132208D02*
X340860D01*
X321387Y106318D02*
X341859D01*
X340860Y132208D02*
X341074Y131995D01*
X341859Y106318D02*
X341963Y106214D01*
X321283Y132422D02*
X321497Y132208D01*
D12*
X232000Y296000D02*
X276250Y340250D01*
X205000Y79000D02*
X232000Y106000D01*
Y296000D01*
X245000Y290727D02*
X284273Y330000D01*
X245000Y99000D02*
Y290727D01*
X203996Y57996D02*
X245000Y99000D01*
X69000Y101000D02*
X82000Y114000D01*
X196000D02*
X206000Y124000D01*
X82000Y114000D02*
X196000D01*
X206000Y124000D02*
Y323291D01*
X160000Y330000D02*
X199291D01*
X206000Y323291D01*
X130000Y79000D02*
X205000D01*
X219000Y301000D02*
X254600Y336600D01*
X204000Y101000D02*
X219000Y116000D01*
Y301000D01*
X276250Y356250D02*
X280000Y360000D01*
X276250Y340250D02*
Y356250D01*
X254600Y336600D02*
Y360000D01*
X129000Y101000D02*
X204000D01*
X153000Y337000D02*
X160000Y330000D01*
X104000Y76000D02*
X129000Y101000D01*
X90000Y76000D02*
X104000D01*
X86318Y72318D02*
X90000Y76000D01*
X86318Y62314D02*
Y72318D01*
X82000Y57996D02*
X86318Y62314D01*
X292093Y21440D02*
X310590Y39937D01*
Y46840D02*
X310800Y47050D01*
X310590Y39937D02*
Y46840D01*
X277878Y213880D02*
X292120D01*
X299000Y185000D02*
Y207000D01*
X292120Y213880D02*
X299000Y207000D01*
Y185000D02*
X303300Y180700D01*
X389950D01*
X368700Y334000D02*
X369000D01*
X142000Y2996D02*
Y9273D01*
X154167Y21440D01*
X292093D01*
X284273Y330000D02*
X300000D01*
X305400Y335400D02*
Y360000D01*
X300000Y330000D02*
X305400Y335400D01*
X153000Y337000D02*
Y360000D01*
X69000Y79000D02*
Y101000D01*
X66000Y76000D02*
X69000Y79000D01*
X55000Y76000D02*
X66000D01*
X45000Y66000D02*
X55000Y76000D01*
X45000Y-3000D02*
Y66000D01*
X59000Y-17000D02*
X158000D01*
X45000Y-3000D02*
X59000Y-17000D01*
X158000D02*
X162000Y-13000D01*
Y2996D01*
X125000Y33000D02*
Y74000D01*
X130000Y79000D01*
X82000Y9273D02*
X98727Y26000D01*
X82000Y2996D02*
Y9273D01*
X98727Y26000D02*
X118000D01*
X125000Y33000D01*
X162000Y57996D02*
X203996D01*
X356200Y346500D02*
Y360000D01*
D18*
X151080Y255000D02*
D03*
X140920D02*
D03*
X136920Y185500D02*
D03*
X147080D02*
D03*
X136920Y173000D02*
D03*
X147080D02*
D03*
X429840Y132500D02*
D03*
X440000D02*
D03*
D19*
X102000Y57996D02*
D03*
X142000D02*
D03*
X162000D02*
D03*
X82000Y2996D02*
D03*
Y57996D02*
D03*
X102000Y2996D02*
D03*
X142000D02*
D03*
X162000D02*
D03*
D20*
X65000Y315000D02*
D03*
X105000D02*
D03*
D21*
X280800Y47050D02*
D03*
X315800D02*
D03*
X310800D02*
D03*
X305800D02*
D03*
X300800D02*
D03*
X295800D02*
D03*
X290800D02*
D03*
X285800D02*
D03*
D22*
X322300D02*
D03*
X274300D02*
D03*
X266300D02*
D03*
X330300D02*
D03*
D23*
X389950Y175700D02*
D03*
Y210700D02*
D03*
Y205700D02*
D03*
Y200700D02*
D03*
Y195700D02*
D03*
Y190700D02*
D03*
Y185700D02*
D03*
Y180700D02*
D03*
D24*
Y217200D02*
D03*
Y169200D02*
D03*
Y161200D02*
D03*
Y225200D02*
D03*
D25*
X129000Y254080D02*
D03*
Y243920D02*
D03*
X255222Y132249D02*
D03*
Y142409D02*
D03*
X341963Y106214D02*
D03*
Y96054D02*
D03*
X255674Y226961D02*
D03*
Y237121D02*
D03*
X340256Y199529D02*
D03*
Y189369D02*
D03*
X236500Y9660D02*
D03*
Y-500D02*
D03*
X260000Y106000D02*
D03*
Y95840D02*
D03*
X341074Y131995D02*
D03*
Y142155D02*
D03*
X255928Y200164D02*
D03*
Y190004D02*
D03*
X339748Y226707D02*
D03*
Y236867D02*
D03*
D26*
X356200Y360000D02*
D03*
X330800D02*
D03*
X305400D02*
D03*
X280000D02*
D03*
X254600D02*
D03*
X229200D02*
D03*
X203800D02*
D03*
X178400D02*
D03*
X153000D02*
D03*
X127600D02*
D03*
D27*
X97000Y153000D02*
D03*
X46200D02*
D03*
X71600Y217000D02*
D03*
D28*
X276283Y106422D02*
D03*
X321283D02*
D03*
Y119422D02*
D03*
X276283D02*
D03*
X321283Y132422D02*
D03*
X276283D02*
D03*
X277878Y226880D02*
D03*
X322878D02*
D03*
X277878Y213880D02*
D03*
X322878D02*
D03*
Y200880D02*
D03*
X277878D02*
D03*
D29*
X144500Y203000D02*
D03*
X125500D02*
D03*
Y229000D02*
D03*
X135000D02*
D03*
X144500D02*
D03*
D46*
X260211Y106211D02*
X276072D01*
X276283Y106422D01*
X260000Y106000D02*
X260211Y106211D01*
X341963Y96054D02*
X349054D01*
X365000Y112000D02*
Y159000D01*
X349054Y96054D02*
X365000Y112000D01*
Y159000D02*
X374000Y168000D01*
X362000Y231000D02*
X374000Y219000D01*
X362000Y231000D02*
Y248000D01*
X390893Y276893D01*
X401893D01*
X402000Y277000D01*
X353000Y257000D02*
X362000Y248000D01*
X255674Y237121D02*
X256263Y237710D01*
X260709D01*
X280000Y257000D01*
X319000D01*
X353000D01*
X307000Y195000D02*
Y245000D01*
X319000Y257000D01*
X307000Y195000D02*
X312631Y189369D01*
X340256D01*
X267000Y158000D02*
X277000Y168000D01*
X267000Y151000D02*
Y158000D01*
X259717Y143717D02*
X267000Y151000D01*
X255222Y142409D02*
X256530Y143717D01*
X259717D01*
X277000Y168000D02*
X374000D01*
X389910Y217240D02*
X389950Y217200D01*
X374000Y219000D02*
X375760Y217240D01*
X389910D01*
X356200Y346500D02*
X368700Y334000D01*
X374000Y168000D02*
X375200Y169200D01*
X389950D01*
D47*
X274300Y47050D02*
Y56847D01*
X322300Y47050D02*
Y58700D01*
D48*
X105000Y315000D02*
X125000D01*
X140920Y256000D02*
Y278080D01*
X144500Y229000D02*
Y244340D01*
X148000Y229000D02*
X155000D01*
X148000Y229000D02*
X148000Y229000D01*
X144500D02*
X144500Y229000D01*
X148000D01*
X155000Y229000D02*
X159000Y225000D01*
Y174300D02*
X185300Y148000D01*
X159000Y174300D02*
Y225000D01*
X134500Y148000D02*
X147080Y160580D01*
Y173000D01*
X130000Y173000D02*
X136920D01*
X136920Y173000D01*
X106450Y173000D02*
X130000D01*
X125500Y177500D02*
X130000Y173000D01*
X97000Y163550D02*
X106450Y173000D01*
X97000Y153000D02*
Y163550D01*
X144500Y200375D02*
X147080Y197796D01*
Y185500D02*
Y197796D01*
X144500Y200375D02*
Y203000D01*
X147080Y173000D02*
Y185500D01*
X125500Y177500D02*
Y203000D01*
X140920Y247920D02*
X144500Y244340D01*
X125500Y240420D02*
X129000Y243920D01*
X125500Y229000D02*
Y240420D01*
X129000Y243920D02*
X136920D01*
X140920Y247920D01*
Y256000D01*
D49*
X371000Y236199D02*
Y237000D01*
Y236199D02*
X372566Y234633D01*
Y234434D02*
X381800Y225200D01*
X372566Y234434D02*
Y234633D01*
X330300Y47050D02*
Y55300D01*
X337000Y62000D02*
X338000D01*
X330300Y55300D02*
X337000Y62000D01*
X374000Y149000D02*
Y155000D01*
X380200Y161200D01*
X389950D01*
X381800Y225200D02*
X389950D01*
X255000Y63000D02*
X260000D01*
X266300Y47050D02*
Y56700D01*
X260000Y63000D02*
X266300Y56700D01*
D50*
X127600Y346500D02*
Y360000D01*
X77000Y344000D02*
X125100D01*
X127600Y346500D01*
X65000Y315000D02*
Y332000D01*
X77000Y344000D01*
X71000Y282000D02*
X137000D01*
X65000Y288000D02*
Y315000D01*
Y288000D02*
X71000Y282000D01*
X137000D02*
X140920Y278080D01*
D51*
X402501Y107007D02*
X406085Y110591D01*
X400705Y108803D02*
X402501Y107007D01*
X397519Y105617D02*
X400705Y108803D01*
X397519Y105617D02*
X399315Y103821D01*
X396128Y100634D02*
X399315Y103821D01*
X394332Y102430D02*
X396128Y100634D01*
X391146Y99244D02*
X394332Y102430D01*
X391146Y99244D02*
X392942Y97448D01*
X392247Y96753D02*
X392942Y97448D01*
X406085Y110591D02*
X414747Y119253D01*
X383633Y186581D02*
X392203D01*
Y185947D02*
X400139D01*
X381947Y188267D02*
Y193133D01*
X383997Y195183D01*
X389433D01*
X389950Y195700D01*
Y190700D02*
X394200D01*
X395447Y191947D02*
X396633D01*
X397953Y193267D01*
X394200Y190700D02*
X395447Y191947D01*
X381947Y188267D02*
X383633Y186581D01*
X390467Y200183D02*
X395903D01*
X397953Y198133D01*
Y193267D02*
Y198133D01*
X389950Y200700D02*
X390467Y200183D01*
X389950Y190700D02*
X390197Y190453D01*
X402006D01*
X301047Y51053D02*
Y57615D01*
X304553Y40367D02*
Y41553D01*
X298367Y39047D02*
X303233D01*
X296317Y41097D02*
X298367Y39047D01*
X296317Y41097D02*
Y46533D01*
X295800Y47050D02*
X296317Y46533D01*
X299553Y52547D02*
X301047Y51053D01*
X299553Y52547D02*
Y53733D01*
X305553Y42553D02*
Y45430D01*
X298233Y55053D02*
X299553Y53733D01*
X293367Y55053D02*
X298233D01*
X291317Y53003D02*
X293367Y55053D01*
X304553Y41553D02*
X305553Y42553D01*
X291317Y47567D02*
Y53003D01*
X303233Y39047D02*
X304553Y40367D01*
X290800Y47050D02*
X291317Y47567D01*
X301047Y47297D02*
Y51053D01*
X419253Y117387D02*
Y173206D01*
X379866Y78000D02*
X419253Y117387D01*
X327804Y78000D02*
X379866D01*
X301047Y57615D02*
X325938Y82506D01*
X378000D01*
X392247Y96753D01*
X414747Y119253D02*
Y171339D01*
X400139Y185947D02*
X414747Y171339D01*
X305553Y55749D02*
X327804Y78000D01*
X402006Y190453D02*
X419253Y173206D01*
X305553Y47297D02*
Y55749D01*
Y47297D02*
X305800Y47050D01*
D52*
X341500Y-500D02*
D03*
X255100D02*
D03*
X341500Y41300D02*
D03*
X255100D02*
D03*
D53*
X269400Y36300D02*
D03*
X327200D02*
D03*
X400700Y164300D02*
D03*
Y222100D02*
D03*
D54*
X437500Y236400D02*
D03*
Y150000D02*
D03*
X395700Y236400D02*
D03*
Y150000D02*
D03*
D55*
X134500Y148000D02*
D03*
D56*
X159900D02*
D03*
X185300D02*
D03*
D57*
X402000Y339000D02*
D03*
Y277000D02*
D03*
D58*
X269000Y96000D02*
D03*
X274300Y56847D02*
D03*
X260000Y87500D02*
D03*
X406446Y194785D02*
D03*
X417052Y184179D02*
D03*
X425456Y171754D02*
D03*
X422655Y112017D02*
D03*
X412049Y101411D02*
D03*
X401442Y90804D02*
D03*
X390836Y80197D02*
D03*
X363408Y71797D02*
D03*
X348408D02*
D03*
X333409D02*
D03*
X294152Y34546D02*
D03*
X302260Y67600D02*
D03*
X312866Y78207D02*
D03*
X323953Y88310D02*
D03*
X338948Y88709D02*
D03*
X353948D02*
D03*
X368948D02*
D03*
X382288Y95566D02*
D03*
X391184Y107644D02*
D03*
X403262Y116540D02*
D03*
X408544Y130579D02*
D03*
Y160579D02*
D03*
X402856Y174458D02*
D03*
X375962Y187172D02*
D03*
X379061Y201849D02*
D03*
X128047Y293601D02*
D03*
X359000Y18000D02*
D03*
X24000Y-17000D02*
D03*
X102000Y-27000D02*
D03*
X150000D02*
D03*
X240000Y-26000D02*
D03*
X296000D02*
D03*
X342000Y-27000D02*
D03*
X464000Y276000D02*
D03*
X91000Y360000D02*
D03*
X19000Y27000D02*
D03*
X20000Y72000D02*
D03*
X19000Y119000D02*
D03*
Y148000D02*
D03*
X18000Y194000D02*
D03*
X19000Y232000D02*
D03*
X20000Y301000D02*
D03*
Y328000D02*
D03*
X465000Y106000D02*
D03*
X464000Y213000D02*
D03*
Y187000D02*
D03*
X421000Y356000D02*
D03*
X361000Y271000D02*
D03*
X92000Y90000D02*
D03*
X119000Y81000D02*
D03*
X466052Y336000D02*
D03*
X441052Y286000D02*
D03*
X466052Y236000D02*
D03*
Y136000D02*
D03*
X441052Y86000D02*
D03*
X316052Y336000D02*
D03*
Y236000D02*
D03*
X241052Y86000D02*
D03*
X216052Y336000D02*
D03*
X191052Y286000D02*
D03*
X216052Y36000D02*
D03*
X191052Y-14000D02*
D03*
X166052Y336000D02*
D03*
Y236000D02*
D03*
Y136000D02*
D03*
Y36000D02*
D03*
X116052Y236000D02*
D03*
X91052Y186000D02*
D03*
X116052Y136000D02*
D03*
Y36000D02*
D03*
X41052Y286000D02*
D03*
Y186000D02*
D03*
X66052Y136000D02*
D03*
X41052Y86000D02*
D03*
X66052Y36000D02*
D03*
X298000Y133000D02*
D03*
X251000Y123000D02*
D03*
Y163000D02*
D03*
X252000Y209000D02*
D03*
Y259000D02*
D03*
Y219000D02*
D03*
X226000Y276000D02*
D03*
Y162000D02*
D03*
X225000Y111000D02*
D03*
X207000Y73000D02*
D03*
X186000Y89000D02*
D03*
X131000Y107000D02*
D03*
X186000D02*
D03*
X198000Y130000D02*
D03*
X199000Y166000D02*
D03*
X239000Y245000D02*
D03*
Y192000D02*
D03*
Y173000D02*
D03*
Y145000D02*
D03*
X269000Y323000D02*
D03*
X250000D02*
D03*
X226000Y297000D02*
D03*
Y258000D02*
D03*
X224000Y88000D02*
D03*
X239000Y122000D02*
D03*
Y206000D02*
D03*
Y277000D02*
D03*
X246000Y301000D02*
D03*
X230000Y323000D02*
D03*
X212000D02*
D03*
Y268000D02*
D03*
X225000Y188000D02*
D03*
Y138000D02*
D03*
X156000Y107000D02*
D03*
X208000Y115000D02*
D03*
X108000Y101000D02*
D03*
X213000Y153000D02*
D03*
X210000Y96000D02*
D03*
X186000Y71000D02*
D03*
X125000Y315000D02*
D03*
X371000Y237000D02*
D03*
X350000D02*
D03*
X224000Y37000D02*
D03*
Y9000D02*
D03*
X338000Y62000D02*
D03*
X374000Y149000D02*
D03*
X316000Y31000D02*
D03*
X322300Y58700D02*
D03*
X369000Y334000D02*
D03*
X374000Y168000D02*
D03*
Y219000D02*
D03*
X255000Y63000D02*
D03*
M02*
