M48
;Layer_Color=9474304
;FILE_FORMAT=2:4
METRIC,LZ
;TYPE=PLATED
T01F00S00C0.2540
T03F00S00C0.9900
T04F00S00C1.1000
;TYPE=NON_PLATED
T05F00S00C0.6500
%
T01
X191052Y-014
X224Y009
Y037
X216052Y036
X207Y073
X21Y096
X208Y115
X225Y111
X224Y088
X241052Y086
X26Y0875
X269Y096
X2743Y056847
X255Y063
X30226Y0676
X312866Y078207
X323953Y08831
X338948Y088709
X353948
X368948
X382288Y095566
X391184Y107644
X403262Y11654
X422655Y112017
X412049Y101411
X401442Y090804
X390836Y080197
X363408Y071797
X348408
X333409
X338Y062
X3223Y0587
X316Y031
X294152Y034546
X296Y-026
X342Y-027
X359Y018
X441052Y086
X465Y106
X251Y123
X239Y122
X24Y-026
X15Y-027
X102
X116052Y036
X119Y081
X108Y101
X092Y09
X041052Y086
X02Y072
X019Y027
X024Y-017
X066052Y036
X166052
X186Y071
Y089
Y107
X156
X131
X019Y119
Y148
X018Y194
X041052Y186
X091052
X116052Y236
X166052
X128047Y293601
X125Y315
X166052Y336
X091Y36
X02Y328
Y301
X041052Y286
X019Y232
X066052Y136
X116052
X166052
X198Y13
X225Y138
X239Y145
Y173
Y192
Y206
X252Y209
Y219
X239Y245
X226Y258
Y276
X239Y277
X246Y301
X226Y297
X23Y323
X212
X216052Y336
X25Y323
X269
X316052Y336
X369Y334
X361Y271
X371Y237
X35
X316052Y236
X374Y219
X379061Y201849
X375962Y187172
X374Y168
Y149
X408544Y160579
X402856Y174458
X406446Y194785
X417052Y184179
X425456Y171754
X464Y187
Y213
X466052Y236
X464Y276
X441052Y286
X466052Y336
X421Y356
X408544Y130579
X466052Y136
X298Y133
X251Y163
X226Y162
X213Y153
X199Y166
X225Y188
X212Y268
X191052Y286
X252Y259
T03
X402Y277
Y339
T04
X1345Y148
X1599
X1853
T05
X2694Y0363
X3272
X4007Y1643
Y2221
M30
