G04*
G04 #@! TF.GenerationSoftware,Altium Limited,Altium Designer,24.6.1 (21)*
G04*
G04 Layer_Physical_Order=1*
G04 Layer_Color=255*
%FSLAX44Y44*%
%MOMM*%
G71*
G04*
G04 #@! TF.SameCoordinates,8DCAB7A9-A94A-4F5B-9992-067C88242E54*
G04*
G04*
G04 #@! TF.FilePolarity,Positive*
G04*
G01*
G75*
%ADD14C,0.2540*%
%ADD15R,0.7600X2.4000*%
%ADD16R,0.5500X0.5500*%
%ADD17R,1.2000X1.9000*%
%ADD18R,1.1000X0.6000*%
%ADD19R,1.0000X3.7000*%
%ADD20R,1.3000X1.5500*%
%ADD21R,0.3000X0.4000*%
%ADD22R,0.5500X0.5500*%
%ADD35C,0.3810*%
%ADD36C,0.7620*%
%ADD37C,1.5000*%
%ADD38C,1.6000*%
%ADD39R,1.6000X1.6000*%
%ADD40R,1.6000X1.6000*%
%ADD41C,0.5080*%
G36*
X320449Y384372D02*
X322289Y383610D01*
X323945Y382503D01*
X325353Y381095D01*
X326460Y379439D01*
X327222Y377599D01*
X327610Y375646D01*
Y374650D01*
Y120534D01*
X327558Y119286D01*
X220878D01*
Y2590D01*
X40688D01*
X35389Y3287D01*
X30227Y4670D01*
X25289Y6716D01*
X20661Y9388D01*
X16421Y12642D01*
X12642Y16421D01*
X9388Y20661D01*
X6716Y25289D01*
X4670Y30227D01*
X3287Y35389D01*
X2590Y40688D01*
Y43361D01*
Y374650D01*
Y375646D01*
X2978Y377599D01*
X3740Y379439D01*
X4847Y381095D01*
X6255Y382503D01*
X7911Y383610D01*
X9751Y384372D01*
X11704Y384760D01*
X318496D01*
X320449Y384372D01*
D02*
G37*
G36*
X316106Y114399D02*
Y114098D01*
Y113917D01*
Y113615D01*
Y113253D01*
Y112831D01*
Y112348D01*
Y111745D01*
Y111081D01*
Y110297D01*
Y109453D01*
Y108487D01*
Y107402D01*
Y106195D01*
Y104808D01*
Y103360D01*
Y101791D01*
Y100042D01*
Y98172D01*
Y96121D01*
Y93889D01*
Y91536D01*
Y89063D01*
Y86348D01*
Y83453D01*
Y80376D01*
Y77118D01*
Y73680D01*
Y70060D01*
Y66200D01*
Y17940D01*
X273064Y42070D01*
X316106Y66200D01*
X273064Y90330D01*
X316106Y114460D01*
Y114399D01*
D02*
G37*
G36*
X273064Y90330D02*
X230022Y66200D01*
X273064Y42070D01*
X230022Y17940D01*
Y66200D01*
Y70060D01*
Y73680D01*
Y77118D01*
Y80376D01*
Y83453D01*
Y86348D01*
Y89063D01*
Y91536D01*
Y93889D01*
Y96121D01*
Y98172D01*
Y100042D01*
Y101791D01*
Y103360D01*
Y104808D01*
Y106195D01*
Y107402D01*
Y108487D01*
Y109453D01*
Y110297D01*
Y111081D01*
Y111745D01*
Y112348D01*
Y112831D01*
Y113253D01*
Y113615D01*
Y113917D01*
Y114098D01*
Y114399D01*
Y114460D01*
X273064Y90330D01*
D02*
G37*
%LPC*%
G36*
X260786Y379856D02*
X246706D01*
Y338776D01*
X260786D01*
Y379856D01*
D02*
G37*
G36*
X159186D02*
X145106D01*
Y338776D01*
X159186D01*
Y379856D01*
D02*
G37*
G36*
X181400Y306072D02*
X173630D01*
Y297052D01*
X181400D01*
Y306072D01*
D02*
G37*
G36*
X171090D02*
X163320D01*
Y297052D01*
X171090D01*
Y306072D01*
D02*
G37*
G36*
X181400Y294512D02*
X173630D01*
Y285492D01*
X181400D01*
Y294512D01*
D02*
G37*
G36*
X171090D02*
X163320D01*
Y285492D01*
X171090D01*
Y294512D01*
D02*
G37*
G36*
X108386Y379856D02*
X94306D01*
Y338776D01*
X97578D01*
Y322792D01*
X97884Y321253D01*
X98756Y319948D01*
X118820Y299884D01*
Y285992D01*
X123338D01*
Y270650D01*
X122068Y270525D01*
X121801Y271866D01*
X120929Y273170D01*
X79968Y314131D01*
Y338776D01*
X82986D01*
Y379856D01*
X68906D01*
Y338776D01*
X71924D01*
Y315615D01*
X70750Y315129D01*
X56511Y329369D01*
Y338776D01*
X57586D01*
Y379856D01*
X43506D01*
Y338776D01*
X44581D01*
Y326898D01*
X45035Y324615D01*
X46328Y322680D01*
X74365Y294644D01*
Y285164D01*
X70289D01*
Y265084D01*
X90369D01*
Y285164D01*
X86294D01*
Y294770D01*
X87467Y295256D01*
X114063Y268660D01*
Y247162D01*
X113199Y245870D01*
X112893Y244331D01*
Y204603D01*
X113199Y203064D01*
X114063Y201771D01*
Y182370D01*
X114369Y180831D01*
X115241Y179526D01*
X124418Y170348D01*
X125723Y169476D01*
X127262Y169170D01*
X155125D01*
Y163773D01*
X154069Y163067D01*
X153573Y163273D01*
X151751D01*
X150068Y162575D01*
X148779Y161287D01*
X148222Y159941D01*
X141936Y153655D01*
X141064Y152350D01*
X140758Y150811D01*
Y99072D01*
X138940D01*
Y90997D01*
X124304D01*
X122021Y90543D01*
X120086Y89250D01*
X109433Y78596D01*
X98288D01*
Y55516D01*
X114368D01*
Y66661D01*
X126775Y79067D01*
X138940D01*
Y70992D01*
X150370D01*
X150620Y70992D01*
Y70992D01*
X151640D01*
Y70992D01*
X162777Y70992D01*
X163840Y70492D01*
X164383Y70492D01*
X168910D01*
Y85032D01*
Y99572D01*
X164383D01*
X163840Y99572D01*
X163026Y100505D01*
Y115562D01*
X164583D01*
X166266Y116259D01*
X167555Y117548D01*
X168252Y119231D01*
Y121053D01*
X167555Y122736D01*
X166266Y124025D01*
X164583Y124722D01*
X163026D01*
Y155288D01*
X163169Y156007D01*
Y169170D01*
X216664D01*
X216997Y168837D01*
X218680Y168140D01*
X220502D01*
X222185Y168837D01*
X223474Y170126D01*
X224171Y171809D01*
Y173631D01*
X223474Y175314D01*
X222815Y175973D01*
X223341Y177243D01*
X234109D01*
X234134Y177219D01*
X235817Y176522D01*
X237639D01*
X239322Y177219D01*
X240611Y178508D01*
X241308Y180191D01*
Y182013D01*
X240611Y183696D01*
X239322Y184985D01*
X237639Y185682D01*
X237574D01*
X236594Y186382D01*
X236594Y186952D01*
Y190652D01*
X220514D01*
Y186558D01*
X220514Y186382D01*
X220089Y185288D01*
X132292D01*
Y190522D01*
X133558Y190534D01*
X133562Y190534D01*
X136328D01*
Y195074D01*
Y199614D01*
X133890D01*
X133558Y199614D01*
X132620Y200416D01*
Y206492D01*
X135900D01*
Y226072D01*
X131382D01*
Y285992D01*
X135900D01*
Y305572D01*
X124508D01*
X105622Y324458D01*
Y338776D01*
X108386D01*
Y379856D01*
D02*
G37*
G36*
X133786D02*
X119706D01*
Y338776D01*
X122724D01*
Y329782D01*
X123030Y328242D01*
X123902Y326937D01*
X142790Y308050D01*
Y261084D01*
X142232Y259737D01*
Y257915D01*
X142929Y256232D01*
X144218Y254943D01*
X145901Y254246D01*
X147723D01*
X149406Y254943D01*
X150695Y256232D01*
X151392Y257915D01*
Y259737D01*
X150834Y261084D01*
Y309716D01*
X150528Y311255D01*
X149656Y312560D01*
X130768Y331448D01*
Y338776D01*
X133786D01*
Y379856D01*
D02*
G37*
G36*
X286186D02*
X272106D01*
Y338776D01*
X277751D01*
X312805Y303721D01*
Y280302D01*
X311535Y280296D01*
X291458D01*
Y260216D01*
X311535D01*
X312805Y260210D01*
Y246184D01*
X311538Y246178D01*
X310854Y248731D01*
X309532Y251021D01*
X307663Y252890D01*
X305373Y254212D01*
X302820Y254896D01*
X300176D01*
X297623Y254212D01*
X295333Y252890D01*
X293464Y251021D01*
X292142Y248731D01*
X291458Y246178D01*
Y243534D01*
X292142Y240981D01*
X293464Y238691D01*
X295333Y236822D01*
X297623Y235500D01*
X300176Y234816D01*
X302820D01*
X305373Y235500D01*
X307663Y236822D01*
X309532Y238691D01*
X310854Y240981D01*
X311538Y243534D01*
X312805Y243528D01*
Y220784D01*
X311538Y220778D01*
X310854Y223331D01*
X309532Y225621D01*
X307663Y227490D01*
X305373Y228812D01*
X302820Y229496D01*
X300176D01*
X297623Y228812D01*
X295333Y227490D01*
X293464Y225621D01*
X292142Y223331D01*
X291458Y220778D01*
Y218134D01*
X292142Y215581D01*
X293464Y213291D01*
X295333Y211422D01*
X297623Y210100D01*
X300176Y209416D01*
X302820D01*
X305373Y210100D01*
X307663Y211422D01*
X309532Y213291D01*
X310854Y215581D01*
X311538Y218134D01*
X312805Y218128D01*
Y211767D01*
X300805Y199767D01*
X256434D01*
X254151Y199313D01*
X252216Y198020D01*
X251890Y197532D01*
X251391Y197433D01*
X250687Y196962D01*
X247014D01*
Y191956D01*
X246734Y191676D01*
X245441Y189741D01*
X244987Y187458D01*
Y167317D01*
X191362Y113692D01*
X190069Y111757D01*
X189615Y109474D01*
Y108842D01*
X188345Y108660D01*
X187966Y109039D01*
X186283Y109736D01*
X184461D01*
X182778Y109039D01*
X181489Y107750D01*
X180792Y106067D01*
Y104245D01*
X181489Y102562D01*
X182778Y101273D01*
X183819Y100842D01*
X183566Y99572D01*
X176540Y99572D01*
X175270Y99572D01*
X171450D01*
Y85032D01*
Y70492D01*
X175270D01*
X176520Y70492D01*
X177790Y70492D01*
X181610D01*
Y85032D01*
X184150D01*
Y70492D01*
X189220Y70492D01*
X190283Y70992D01*
X192513Y70992D01*
X193039Y69722D01*
X192205Y68888D01*
X191508Y67205D01*
Y65383D01*
X191823Y64623D01*
Y60072D01*
X189990D01*
X189740Y60072D01*
X188720D01*
X188470Y60072D01*
X177290D01*
X177040Y60072D01*
X176020D01*
X175770Y60072D01*
X164590D01*
X164340Y60072D01*
X163320D01*
X163070Y60072D01*
X151890D01*
X151640Y60072D01*
X150620D01*
X150370Y60072D01*
X138940D01*
Y45424D01*
X129250D01*
Y45684D01*
X128482D01*
Y65307D01*
X129040Y66653D01*
Y68475D01*
X128343Y70158D01*
X127054Y71447D01*
X125371Y72144D01*
X123549D01*
X121866Y71447D01*
X120577Y70158D01*
X119880Y68475D01*
Y66653D01*
X120438Y65307D01*
Y45684D01*
X119670D01*
Y37087D01*
X119170Y36024D01*
X119170Y35041D01*
Y32004D01*
X124460D01*
X129750D01*
Y35041D01*
X129750Y36024D01*
X129710Y36110D01*
X130516Y37380D01*
X138940D01*
Y31992D01*
X140758D01*
Y26641D01*
X140200Y25295D01*
Y23473D01*
X140897Y21790D01*
X142186Y20501D01*
X143869Y19804D01*
X145691D01*
X147374Y20501D01*
X148663Y21790D01*
X149360Y23473D01*
Y25295D01*
X148802Y26641D01*
Y31992D01*
X150370D01*
X150620Y31992D01*
X151640D01*
X151890Y31992D01*
X153458D01*
Y26641D01*
X152900Y25295D01*
Y23473D01*
X153597Y21790D01*
X153701Y21686D01*
Y17737D01*
X154007Y16198D01*
X154879Y14893D01*
X156868Y12904D01*
X158173Y12032D01*
X159712Y11726D01*
X186675D01*
X188214Y12032D01*
X189519Y12904D01*
X210870Y34255D01*
X211742Y35560D01*
X212048Y37099D01*
Y101882D01*
X212606Y103229D01*
Y105051D01*
X211909Y106734D01*
X210620Y108023D01*
X208937Y108720D01*
X207115D01*
X205432Y108023D01*
X204143Y106734D01*
X203446Y105051D01*
Y103229D01*
X204004Y101882D01*
Y38765D01*
X202593Y37355D01*
X201420Y37841D01*
Y60072D01*
X199867D01*
Y63596D01*
X199971Y63700D01*
X200668Y65383D01*
Y67205D01*
X199971Y68888D01*
X199137Y69722D01*
X199663Y70992D01*
X201420D01*
Y97671D01*
X201545Y98298D01*
Y107003D01*
X255170Y160628D01*
X255170Y160628D01*
X256463Y162563D01*
X256917Y164846D01*
X256917Y164846D01*
Y177669D01*
X258187Y178311D01*
X259439Y177792D01*
X261261D01*
X262944Y178489D01*
X264233Y179778D01*
X264930Y181461D01*
Y183283D01*
X264233Y184966D01*
X262944Y186255D01*
X262944Y186255D01*
X262767Y186365D01*
X262503Y186567D01*
X262805Y187837D01*
X303276D01*
X305559Y188291D01*
X307494Y189584D01*
X322988Y205078D01*
X324281Y207013D01*
X324735Y209296D01*
Y306192D01*
X324281Y308475D01*
X322988Y310410D01*
X286186Y347211D01*
Y379856D01*
D02*
G37*
G36*
X181400Y226572D02*
X173630D01*
Y217552D01*
X181400D01*
Y226572D01*
D02*
G37*
G36*
X171090D02*
X163320D01*
Y217552D01*
X171090D01*
Y226572D01*
D02*
G37*
G36*
X235386Y379856D02*
X221306D01*
Y338776D01*
X224324D01*
Y255270D01*
X224630Y253731D01*
X225502Y252426D01*
X236605Y241322D01*
X237024Y240312D01*
Y216784D01*
X236094Y215962D01*
X221014D01*
Y214919D01*
X210658D01*
X210366Y215211D01*
X208683Y215908D01*
X206861D01*
X205178Y215211D01*
X204428Y214461D01*
X203158Y214988D01*
Y330312D01*
X205103Y332257D01*
X205975Y333562D01*
X206281Y335101D01*
Y338776D01*
X209986D01*
Y379856D01*
X195906D01*
Y338776D01*
X198237D01*
Y336767D01*
X196292Y334822D01*
X195420Y333517D01*
X195114Y331978D01*
Y308641D01*
X193844Y308256D01*
X193344Y309004D01*
X181568Y320780D01*
Y338776D01*
X184586D01*
Y379856D01*
X170506D01*
Y338776D01*
X173524D01*
Y319114D01*
X173830Y317574D01*
X174702Y316269D01*
X186478Y304494D01*
Y207914D01*
X181124Y202561D01*
X179778Y202003D01*
X178489Y200714D01*
X177792Y199031D01*
Y197209D01*
X178489Y195526D01*
X179778Y194237D01*
X181461Y193540D01*
X183283D01*
X184385Y193997D01*
X185869Y193734D01*
X187157Y192446D01*
X188841Y191748D01*
X190663D01*
X192346Y192446D01*
X193634Y193734D01*
X193949Y194494D01*
X201980Y202525D01*
X202852Y203830D01*
X203158Y205369D01*
Y207668D01*
X204428Y208195D01*
X205178Y207445D01*
X206861Y206748D01*
X208683D01*
X208988Y206874D01*
X221014D01*
Y197462D01*
X220514D01*
Y193192D01*
X236594D01*
Y197462D01*
X236094D01*
Y198993D01*
X237111Y199673D01*
X243890Y206452D01*
X244762Y207757D01*
X245068Y209296D01*
Y240312D01*
X245626Y241659D01*
Y243481D01*
X244929Y245164D01*
X243640Y246453D01*
X242294Y247010D01*
X232368Y256936D01*
Y338776D01*
X235386D01*
Y379856D01*
D02*
G37*
G36*
X280984Y215482D02*
Y211462D01*
X285004D01*
Y215482D01*
X280984D01*
D02*
G37*
G36*
X181400Y215012D02*
X173630D01*
Y205992D01*
X181400D01*
Y215012D01*
D02*
G37*
G36*
X171090D02*
X163320D01*
Y205992D01*
X171090D01*
Y215012D01*
D02*
G37*
G36*
X285004Y208922D02*
X280984D01*
Y204902D01*
X285004D01*
Y208922D01*
D02*
G37*
G36*
X253641Y278646D02*
X251819D01*
X250136Y277949D01*
X248847Y276660D01*
X248150Y274977D01*
Y273155D01*
X248847Y271472D01*
X248951Y271368D01*
Y215962D01*
X247014D01*
Y205882D01*
X262094D01*
Y206535D01*
X264764D01*
Y205402D01*
X273361D01*
X274424Y204902D01*
X275407Y204902D01*
X278444D01*
Y210192D01*
Y215482D01*
X275407D01*
X274424Y215482D01*
X273361Y214982D01*
X264764D01*
Y214580D01*
X262094D01*
Y215962D01*
X256995D01*
Y272395D01*
X257310Y273155D01*
Y274977D01*
X256613Y276660D01*
X255324Y277949D01*
X253641Y278646D01*
D02*
G37*
G36*
X138868Y199614D02*
Y196344D01*
X141638D01*
Y199614D01*
X138868D01*
D02*
G37*
G36*
X141638Y193804D02*
X138868D01*
Y190534D01*
X141638D01*
Y193804D01*
D02*
G37*
G36*
X30851Y285164D02*
X28207D01*
X25654Y284480D01*
X23365Y283158D01*
X21495Y281289D01*
X20173Y279000D01*
X19489Y276446D01*
Y273802D01*
X20173Y271249D01*
X21495Y268960D01*
X23365Y267090D01*
X23565Y266975D01*
Y151866D01*
X22082Y151010D01*
X20306Y149234D01*
X19050Y147058D01*
X18400Y144632D01*
Y142120D01*
X19050Y139694D01*
X20306Y137518D01*
X22082Y135742D01*
X24258Y134486D01*
X26684Y133836D01*
X29196D01*
X31622Y134486D01*
X33798Y135742D01*
X35574Y137518D01*
X36830Y139694D01*
X37480Y142120D01*
Y144632D01*
X36830Y147058D01*
X35574Y149234D01*
X35494Y149314D01*
Y266975D01*
X35694Y267090D01*
X37563Y268960D01*
X38885Y271249D01*
X39569Y273802D01*
Y276446D01*
X38885Y279000D01*
X37563Y281289D01*
X35694Y283158D01*
X33405Y284480D01*
X30851Y285164D01*
D02*
G37*
G36*
X56251D02*
X53608D01*
X51054Y284480D01*
X48765Y283158D01*
X46895Y281289D01*
X45574Y279000D01*
X44889Y276446D01*
Y273802D01*
X45574Y271249D01*
X46895Y268960D01*
X48765Y267090D01*
X48965Y266975D01*
Y77955D01*
X49419Y75672D01*
X50712Y73737D01*
X54288Y70161D01*
Y55516D01*
X70368D01*
Y78596D01*
X62723D01*
X60894Y80425D01*
Y266975D01*
X61094Y267090D01*
X62963Y268960D01*
X64285Y271249D01*
X64969Y273802D01*
Y276446D01*
X64285Y279000D01*
X62963Y281289D01*
X61094Y283158D01*
X58805Y284480D01*
X56251Y285164D01*
D02*
G37*
G36*
X30024Y35186D02*
X29972D01*
Y26416D01*
X38742D01*
Y26468D01*
X38058Y29021D01*
X36736Y31311D01*
X34867Y33180D01*
X32577Y34502D01*
X30024Y35186D01*
D02*
G37*
G36*
X27432D02*
X27380D01*
X24827Y34502D01*
X22537Y33180D01*
X20668Y31311D01*
X19346Y29021D01*
X18662Y26468D01*
Y26416D01*
X27432D01*
Y35186D01*
D02*
G37*
G36*
X129750Y29464D02*
X125730D01*
Y25444D01*
X129750D01*
Y29464D01*
D02*
G37*
G36*
X123190D02*
X119170D01*
Y25444D01*
X123190D01*
Y29464D01*
D02*
G37*
G36*
X38742Y23876D02*
X29972D01*
Y15106D01*
X30024D01*
X32577Y15790D01*
X34867Y17112D01*
X36736Y18981D01*
X38058Y21271D01*
X38742Y23824D01*
Y23876D01*
D02*
G37*
G36*
X27432D02*
X18662D01*
Y23824D01*
X19346Y21271D01*
X20668Y18981D01*
X22537Y17112D01*
X24827Y15790D01*
X27380Y15106D01*
X27432D01*
Y23876D01*
D02*
G37*
%LPD*%
D14*
X185372Y105156D02*
X194310D01*
X195580Y103886D01*
X124460Y40894D02*
X124968Y41402D01*
X142250D02*
X144780Y43932D01*
Y46032D01*
X196088Y66294D02*
X196342Y66040D01*
X195580Y85032D02*
Y98298D01*
X182118Y45270D02*
X182880Y46032D01*
X60706Y65434D02*
X62328Y67056D01*
D15*
X195580Y85032D02*
D03*
X182880D02*
D03*
X170180D02*
D03*
X157480D02*
D03*
X144780D02*
D03*
X195580Y46032D02*
D03*
X182880D02*
D03*
X170180D02*
D03*
X157480D02*
D03*
X144780D02*
D03*
D16*
X269554Y210192D02*
D03*
X279714D02*
D03*
D17*
X62328Y67056D02*
D03*
X106328D02*
D03*
D18*
X254554Y210922D02*
D03*
Y191922D02*
D03*
X228554Y210922D02*
D03*
Y201422D02*
D03*
Y191922D02*
D03*
D19*
X50546Y359316D02*
D03*
X75946D02*
D03*
X101346D02*
D03*
X126746D02*
D03*
X152146D02*
D03*
X177546D02*
D03*
X202946D02*
D03*
X228346D02*
D03*
X253746D02*
D03*
X279146D02*
D03*
D20*
X127360Y216282D02*
D03*
Y295782D02*
D03*
X172360Y216282D02*
D03*
Y295782D02*
D03*
D21*
X128598Y195074D02*
D03*
X137598D02*
D03*
D22*
X124460Y30734D02*
D03*
Y40894D02*
D03*
D35*
X159147Y156007D02*
Y173193D01*
X218729D01*
X127262D02*
X159147D01*
X159004Y120226D02*
Y155864D01*
X159147Y156007D01*
X159004Y120226D02*
X163588D01*
X144780Y150811D02*
X152662Y158693D01*
X144780Y85032D02*
Y150811D01*
X157480Y24384D02*
Y46032D01*
X157723Y17737D02*
Y24141D01*
X157480Y24384D02*
X157723Y24141D01*
Y17737D02*
X159712Y15748D01*
X186675D01*
X159004Y86556D02*
Y120226D01*
X163588D02*
X163672Y120142D01*
X157480Y85032D02*
X159004Y86556D01*
X124460Y40894D02*
Y67564D01*
X128360Y181266D02*
X236982D01*
X144780Y24384D02*
Y43932D01*
X124968Y41402D02*
X142250D01*
X208116Y211328D02*
X208547Y210896D01*
X207772Y211328D02*
X208116D01*
X208547Y210896D02*
X228528D01*
X208026Y37099D02*
Y104140D01*
X186675Y15748D02*
X208026Y37099D01*
X170180Y24892D02*
Y46032D01*
X182880Y24638D02*
Y46032D01*
X199136Y331978D02*
X202259Y335101D01*
Y358629D02*
X202946Y359316D01*
X202259Y335101D02*
Y358629D01*
X199136Y205369D02*
Y331978D01*
X190095Y196328D02*
X199136Y205369D01*
X189752Y196328D02*
X190095D01*
X228528Y210896D02*
X228554Y210922D01*
X182372Y198120D02*
X190500Y206248D01*
Y306160D01*
X177546Y319114D02*
X190500Y306160D01*
X219348Y172963D02*
X219591Y172720D01*
X218729Y173193D02*
X218959Y172963D01*
X219348D01*
X236982Y181102D02*
Y181266D01*
X75946Y312465D02*
Y359316D01*
Y312465D02*
X118085Y270326D01*
X116915Y244331D02*
X118085Y245500D01*
Y182370D02*
X127262Y173193D01*
X116915Y204603D02*
X118085Y203433D01*
Y245500D02*
Y270326D01*
X116915Y204603D02*
Y244331D01*
X118085Y182370D02*
Y203433D01*
X236728Y181102D02*
X236982D01*
X128270Y181356D02*
X128360Y181266D01*
X254068Y210922D02*
X254554D01*
X252730Y274066D02*
X252973Y273823D01*
Y212017D02*
Y273823D01*
Y212017D02*
X254068Y210922D01*
X146812Y258826D02*
Y309716D01*
X126746Y329782D02*
X146812Y309716D01*
X126746Y329782D02*
Y359316D01*
X228346Y255270D02*
Y359316D01*
X241046Y209296D02*
Y242570D01*
X228346Y255270D02*
X241046Y242570D01*
X254919Y210557D02*
X269189D01*
X254554Y210922D02*
X254919Y210557D01*
X269189D02*
X269554Y210192D01*
X234267Y202517D02*
X241046Y209296D01*
X229649Y202517D02*
X234267D01*
X228554Y201422D02*
X229649Y202517D01*
X228046Y200914D02*
X228554Y201422D01*
X27940Y143376D02*
X29529Y144965D01*
X177546Y319114D02*
Y359316D01*
X195845Y46297D02*
Y66051D01*
X196088Y66294D01*
X101600Y322792D02*
Y359062D01*
X101346Y359316D02*
X101600Y359062D01*
X127360Y295782D02*
Y297032D01*
X101600Y322792D02*
X127360Y297032D01*
Y216282D02*
Y295782D01*
X128598Y195074D02*
Y215044D01*
X127360Y216282D02*
X128598Y215044D01*
X128270Y194979D02*
X128365Y195074D01*
X128270Y181356D02*
Y194979D01*
X128365Y195074D02*
X128598D01*
D36*
X195580Y103886D02*
Y109474D01*
Y98298D02*
Y103886D01*
X106328Y67056D02*
X124304Y85032D01*
X144780D01*
X195580Y109474D02*
X250952Y164846D01*
Y187458D01*
X252864Y189370D01*
Y191112D01*
X253674Y191922D02*
X254554D01*
X303276Y193802D02*
X318770Y209296D01*
X256434Y193802D02*
X303276D01*
X252864Y191112D02*
X253674Y191922D01*
X29529Y144965D02*
Y275124D01*
X54929Y77955D02*
Y275124D01*
Y77955D02*
X62328Y70556D01*
Y67056D02*
Y70556D01*
X80329Y275124D02*
Y297115D01*
X50546Y326898D02*
X80329Y297115D01*
X50546Y326898D02*
Y359316D01*
X318770Y209296D02*
Y306192D01*
X279146Y345816D02*
X318770Y306192D01*
X279146Y345816D02*
Y359316D01*
D37*
X28702Y25146D02*
D03*
X27940Y143376D02*
D03*
D38*
X29529Y275124D02*
D03*
X54929D02*
D03*
X301498Y244856D02*
D03*
Y219456D02*
D03*
D39*
X80329Y275124D02*
D03*
D40*
X301498Y270256D02*
D03*
D41*
X152662Y158693D02*
D03*
X185372Y105156D02*
D03*
X157480Y24384D02*
D03*
X132080Y72644D02*
D03*
X163672Y120142D02*
D03*
X124460Y67564D02*
D03*
X144780Y24384D02*
D03*
X207772Y211328D02*
D03*
X208026Y104140D02*
D03*
X170180Y24892D02*
D03*
X182880Y24638D02*
D03*
X137000Y148800D02*
D03*
X314800Y352000D02*
D03*
X289400D02*
D03*
X276700Y326600D02*
D03*
X289400Y301200D02*
D03*
X276700Y275800D02*
D03*
X289400Y250400D02*
D03*
X276700Y225000D02*
D03*
X264000Y352000D02*
D03*
Y301200D02*
D03*
Y250400D02*
D03*
X238600Y352000D02*
D03*
Y301200D02*
D03*
X225900Y225000D02*
D03*
X213200Y352000D02*
D03*
Y301200D02*
D03*
Y250400D02*
D03*
X187800Y352000D02*
D03*
X162400D02*
D03*
Y250400D02*
D03*
X137000Y352000D02*
D03*
Y250400D02*
D03*
X111600Y352000D02*
D03*
Y301200D02*
D03*
Y250400D02*
D03*
Y199600D02*
D03*
X98900Y123400D02*
D03*
X111600Y47200D02*
D03*
X86200Y352000D02*
D03*
Y250400D02*
D03*
X73500Y225000D02*
D03*
X86200Y199600D02*
D03*
X73500Y174200D02*
D03*
X86200Y148800D02*
D03*
X73500Y123400D02*
D03*
X86200Y98000D02*
D03*
X73500Y72600D02*
D03*
X86200Y47200D02*
D03*
X73500Y21800D02*
D03*
X60800Y352000D02*
D03*
Y301200D02*
D03*
X48100Y72600D02*
D03*
Y21800D02*
D03*
X35400Y352000D02*
D03*
X22700Y326600D02*
D03*
X35400Y301200D02*
D03*
X22700Y123400D02*
D03*
X35400Y98000D02*
D03*
X22700Y72600D02*
D03*
X35400Y47200D02*
D03*
X189752Y196328D02*
D03*
X260350Y182372D02*
D03*
X182372Y198120D02*
D03*
X219591Y172720D02*
D03*
X236728Y181102D02*
D03*
X252730Y274066D02*
D03*
X146812Y258826D02*
D03*
X241046Y242570D02*
D03*
X196088Y66294D02*
D03*
X128270Y181356D02*
D03*
M02*
