G04*
G04 #@! TF.GenerationSoftware,Altium Limited,Altium Designer,23.9.2 (47)*
G04*
G04 Layer_Color=65535*
%FSLAX44Y44*%
%MOMM*%
G71*
G04*
G04 #@! TF.SameCoordinates,A9C3D319-5A17-451D-A4C5-16098FC82B81*
G04*
G04*
G04 #@! TF.FilePolarity,Positive*
G04*
G01*
G75*
%ADD10C,0.2000*%
%ADD11C,0.1000*%
G36*
X279210Y158849D02*
X282914Y157923D01*
X286617Y155609D01*
X287080D01*
X287543Y155146D01*
X289395Y152831D01*
X291247Y149591D01*
X292173Y145424D01*
Y143572D01*
Y143109D01*
Y142646D01*
X291710Y142184D01*
X290784Y141721D01*
X286154D01*
X285691Y142184D01*
X285228Y142646D01*
X284765Y143572D01*
Y144498D01*
Y144961D01*
X284303Y146813D01*
X283377Y148665D01*
X281525Y150516D01*
X281062Y150979D01*
X280136Y151905D01*
X278284Y152368D01*
X275970Y152831D01*
X275044D01*
X273192Y152368D01*
X270877Y151905D01*
X268563Y150516D01*
X268100Y150053D01*
X267174Y149128D01*
X266248Y147276D01*
X265785Y144961D01*
Y144498D01*
Y143109D01*
Y140795D01*
X265322Y138017D01*
Y134776D01*
Y130610D01*
X265785Y122277D01*
Y121814D01*
X266248Y119962D01*
X267174Y118111D01*
X268563Y116259D01*
X269025Y115796D01*
X270414Y115333D01*
X272266Y114407D01*
X275044Y113944D01*
X275507D01*
X277358Y114407D01*
X279210Y114870D01*
X281525Y116259D01*
X281988Y116722D01*
X282914Y118111D01*
X284303Y119962D01*
X284765Y122277D01*
Y123666D01*
Y124129D01*
Y124592D01*
X285228Y125055D01*
X286154Y125518D01*
X291710D01*
X292173Y124592D01*
Y123666D01*
Y121814D01*
Y121351D01*
Y120888D01*
X291247Y118111D01*
X289858Y114870D01*
X287080Y111166D01*
X286154Y110703D01*
X283840Y109315D01*
X280136Y107463D01*
X275507Y107000D01*
X274581D01*
X271340Y107463D01*
X267637Y108852D01*
X263470Y111166D01*
X262544Y112092D01*
X261155Y114407D01*
X259304Y117648D01*
X258378Y121814D01*
Y122277D01*
Y123666D01*
Y125981D01*
Y129221D01*
Y132462D01*
Y136165D01*
Y144498D01*
Y144961D01*
Y145424D01*
X259304Y148202D01*
X260693Y151442D01*
X263470Y154683D01*
X263933D01*
X264396Y155609D01*
X266711Y156998D01*
X270414Y158386D01*
X275044Y159312D01*
X276432D01*
X279210Y158849D01*
D02*
G37*
G36*
X92645Y158386D02*
Y157460D01*
Y108852D01*
Y108389D01*
X92182Y107926D01*
X91256Y107463D01*
X84312D01*
X83386Y108389D01*
X69035Y144961D01*
X68109D01*
Y108389D01*
Y107926D01*
X67183Y107463D01*
X66258Y107000D01*
X62554D01*
X62091Y107463D01*
X61628Y108389D01*
Y156998D01*
Y157460D01*
Y157923D01*
X62091Y158386D01*
X69961D01*
X70424Y157923D01*
Y157460D01*
X85238Y120888D01*
X85701Y120425D01*
X86164D01*
X86627Y120888D01*
Y157460D01*
Y157923D01*
Y158386D01*
X87090Y158849D01*
X92182D01*
X92645Y158386D01*
D02*
G37*
G36*
X331059Y158849D02*
X334763Y157923D01*
X338004Y155609D01*
X338929Y155146D01*
X340318Y152831D01*
X342633Y149591D01*
X344022Y145424D01*
Y144498D01*
X343559Y142184D01*
X343096Y139406D01*
X341707Y136165D01*
X341244Y135702D01*
X339855Y134313D01*
X338004Y132462D01*
X335226Y130610D01*
X334763D01*
X333837Y129684D01*
X333374Y129221D01*
X333837Y128295D01*
X342633Y109778D01*
Y109315D01*
Y108852D01*
X341707Y107926D01*
X336152D01*
X335689Y108389D01*
X335226Y109315D01*
X326430Y127832D01*
Y128295D01*
X325504D01*
X324578Y128758D01*
X320875Y128295D01*
X320412D01*
X319949Y127832D01*
Y109315D01*
Y108852D01*
X319486Y108389D01*
X318560Y107926D01*
X313468D01*
X313005Y108389D01*
X312542Y109315D01*
Y157923D01*
Y158386D01*
Y158849D01*
X313005Y159312D01*
X328282D01*
X331059Y158849D01*
D02*
G37*
G36*
X227361D02*
X231064Y157923D01*
X234768Y155609D01*
X235694Y155146D01*
X237083Y152831D01*
X238934Y149591D01*
X239860Y145424D01*
Y144498D01*
Y142184D01*
X238934Y139406D01*
X237546Y136165D01*
X237083Y135702D01*
X235694Y134313D01*
X233842Y132462D01*
X231064Y130610D01*
X230601D01*
X230138Y129684D01*
X229676Y129221D01*
X230138Y128295D01*
X238934Y109778D01*
X239397Y109315D01*
X238934Y108852D01*
X238471Y107926D01*
X232453D01*
X231990Y108389D01*
X231527Y109315D01*
X223194Y127832D01*
X222731Y128295D01*
X221806Y128758D01*
X216713Y128295D01*
X216250D01*
X215787Y127832D01*
Y109315D01*
Y108852D01*
X215324Y108389D01*
X214398Y107926D01*
X209769D01*
X209306Y108389D01*
X208843Y109315D01*
Y157923D01*
Y158386D01*
X209306Y158849D01*
X209769Y159312D01*
X224583D01*
X227361Y158849D01*
D02*
G37*
G36*
X530587Y158386D02*
Y157460D01*
Y153757D01*
Y153294D01*
Y152831D01*
X530124Y152368D01*
X529198Y151905D01*
X512069D01*
X511606Y151442D01*
Y138017D01*
X512069D01*
Y137554D01*
X529661D01*
X530124Y137091D01*
Y136165D01*
Y131999D01*
Y131536D01*
X529661Y131073D01*
X528735Y130610D01*
X512069D01*
X511606Y130147D01*
X511143Y114870D01*
Y114407D01*
X511606Y113944D01*
X512069Y114407D01*
X531050D01*
X531513Y113944D01*
X531976Y113018D01*
Y108852D01*
X531513Y108389D01*
X531050Y107926D01*
X529661Y107463D01*
X505125D01*
X504199Y107926D01*
X503736Y108852D01*
Y157460D01*
Y157923D01*
X504199Y158386D01*
X504662Y158849D01*
X530124D01*
X530587Y158386D01*
D02*
G37*
G36*
X486144D02*
Y157460D01*
Y153757D01*
Y153294D01*
Y152831D01*
X485682Y152368D01*
X484756Y151905D01*
X473645D01*
Y151442D01*
Y150516D01*
Y149591D01*
Y147739D01*
Y144961D01*
Y141258D01*
Y136165D01*
Y130147D01*
Y108852D01*
Y108389D01*
X473182Y107926D01*
X472256Y107463D01*
X467627D01*
X467164Y107926D01*
X466701Y108852D01*
Y151442D01*
Y151905D01*
X456516D01*
X456053Y152368D01*
X455591Y152831D01*
X455127Y153757D01*
Y157460D01*
Y157923D01*
Y158386D01*
X455591Y158849D01*
X485682D01*
X486144Y158386D01*
D02*
G37*
G36*
X429203Y157923D02*
X443091Y108852D01*
Y108389D01*
X442165Y107926D01*
X441239Y107463D01*
X437073D01*
X435684Y108389D01*
X431981Y119499D01*
X431518Y119962D01*
X430592Y120425D01*
X418092D01*
X417166Y119499D01*
X413926Y108389D01*
Y107926D01*
X413463Y107463D01*
X408371D01*
X407908Y107926D01*
X407445Y108389D01*
X406982Y108852D01*
X420870Y157923D01*
Y158386D01*
X421333Y158849D01*
X428277D01*
X429203Y157923D01*
D02*
G37*
G36*
X389390Y158386D02*
X389853Y157460D01*
Y153757D01*
Y153294D01*
Y152831D01*
X388927Y152368D01*
X388001Y151905D01*
X370872D01*
X369484Y151442D01*
Y138017D01*
Y137554D01*
X387538D01*
X388001Y137091D01*
Y136165D01*
Y131999D01*
Y131536D01*
X387538Y131073D01*
X386612Y130610D01*
X369484D01*
Y130147D01*
Y114870D01*
X370872D01*
Y114407D01*
Y113944D01*
X371335Y114407D01*
X389853D01*
X390316Y113944D01*
Y113018D01*
Y108852D01*
Y108389D01*
X389853Y107926D01*
X388927Y107463D01*
X363928D01*
X363465Y107926D01*
X363002Y108852D01*
Y157460D01*
Y157923D01*
Y158386D01*
X363465Y158849D01*
X388927D01*
X389390Y158386D01*
D02*
G37*
G36*
X188011D02*
Y157460D01*
Y153757D01*
Y153294D01*
Y152831D01*
X187548Y152368D01*
X186622Y151905D01*
X169030D01*
X168104Y151442D01*
Y138017D01*
Y137554D01*
X186159D01*
X186622Y137091D01*
Y136165D01*
Y131999D01*
Y131536D01*
X186159Y131073D01*
X185233Y130610D01*
X168567D01*
X167642Y130147D01*
Y114870D01*
X168567D01*
Y114407D01*
Y113944D01*
X169030Y114407D01*
X187548D01*
X188011Y113944D01*
Y113018D01*
Y108852D01*
Y108389D01*
X187548Y107926D01*
X186622Y107463D01*
X162086D01*
X161623Y107926D01*
X161160Y108852D01*
Y157460D01*
Y157923D01*
Y158386D01*
X161623Y158849D01*
X187548D01*
X188011Y158386D01*
D02*
G37*
G36*
X142643D02*
Y157460D01*
Y153757D01*
Y153294D01*
Y152831D01*
X142180Y152368D01*
X141254Y151905D01*
X130606D01*
Y151442D01*
Y150516D01*
Y149591D01*
Y147739D01*
Y144961D01*
Y141258D01*
Y136165D01*
Y130147D01*
Y108852D01*
Y108389D01*
X129680Y107926D01*
X128755Y107463D01*
X124125D01*
X123662Y107926D01*
X123199Y108852D01*
Y151442D01*
Y151905D01*
X113015D01*
X112552Y152368D01*
X111626Y152831D01*
X111163Y153757D01*
Y157460D01*
Y157923D01*
X111626Y158386D01*
X112089Y158849D01*
X142180D01*
X142643Y158386D01*
D02*
G37*
G36*
X38481D02*
Y157460D01*
Y108852D01*
Y108389D01*
X38018Y107926D01*
X37092Y107463D01*
X32463D01*
X32000Y107926D01*
Y108852D01*
Y157460D01*
Y157923D01*
Y158386D01*
X32463Y158849D01*
X38018D01*
X38481Y158386D01*
D02*
G37*
G36*
X264743Y56625D02*
X264854Y56611D01*
X264992Y56597D01*
X265145Y56569D01*
X265298Y56542D01*
X265658Y56444D01*
X266019Y56306D01*
X266199Y56223D01*
X266379Y56125D01*
X266546Y56001D01*
X266698Y55862D01*
X266712Y55848D01*
X266740Y55834D01*
X266768Y55779D01*
X266823Y55723D01*
X266892Y55654D01*
X266962Y55557D01*
X267031Y55460D01*
X267114Y55335D01*
X267253Y55071D01*
X267392Y54739D01*
X267447Y54572D01*
X267475Y54378D01*
X267503Y54184D01*
X267516Y53976D01*
Y53948D01*
Y53879D01*
X267503Y53768D01*
X267489Y53615D01*
X267461Y53449D01*
X267405Y53255D01*
X267350Y53047D01*
X267267Y52839D01*
X267253Y52811D01*
X267225Y52741D01*
X267170Y52631D01*
X267087Y52478D01*
X266976Y52312D01*
X266837Y52104D01*
X266670Y51896D01*
X266476Y51660D01*
X266449Y51632D01*
X266379Y51549D01*
X266310Y51480D01*
X266241Y51410D01*
X266157Y51327D01*
X266046Y51216D01*
X265935Y51105D01*
X265797Y50980D01*
X265658Y50842D01*
X265492Y50689D01*
X265311Y50536D01*
X265117Y50356D01*
X264895Y50176D01*
X264673Y49982D01*
X264660Y49968D01*
X264632Y49940D01*
X264576Y49899D01*
X264507Y49843D01*
X264424Y49760D01*
X264327Y49677D01*
X264105Y49496D01*
X263869Y49288D01*
X263647Y49080D01*
X263453Y48900D01*
X263370Y48831D01*
X263300Y48761D01*
X263287Y48747D01*
X263245Y48706D01*
X263190Y48650D01*
X263120Y48567D01*
X263051Y48470D01*
X262968Y48373D01*
X262801Y48137D01*
X267530D01*
Y47000D01*
X261165D01*
Y47014D01*
Y47069D01*
Y47153D01*
X261179Y47263D01*
X261192Y47388D01*
X261220Y47527D01*
X261248Y47666D01*
X261303Y47818D01*
Y47832D01*
X261317Y47846D01*
X261345Y47929D01*
X261401Y48054D01*
X261484Y48220D01*
X261595Y48415D01*
X261733Y48636D01*
X261886Y48858D01*
X262080Y49094D01*
Y49108D01*
X262108Y49122D01*
X262177Y49205D01*
X262302Y49330D01*
X262482Y49510D01*
X262690Y49718D01*
X262954Y49968D01*
X263273Y50245D01*
X263619Y50536D01*
X263633Y50550D01*
X263689Y50592D01*
X263772Y50661D01*
X263869Y50745D01*
X263994Y50855D01*
X264146Y50980D01*
X264299Y51119D01*
X264479Y51272D01*
X264826Y51604D01*
X265173Y51937D01*
X265339Y52104D01*
X265492Y52270D01*
X265630Y52423D01*
X265741Y52575D01*
Y52589D01*
X265769Y52603D01*
X265797Y52644D01*
X265825Y52700D01*
X265922Y52853D01*
X266033Y53033D01*
X266130Y53255D01*
X266227Y53490D01*
X266282Y53754D01*
X266310Y54004D01*
Y54017D01*
Y54031D01*
X266296Y54114D01*
X266282Y54253D01*
X266241Y54406D01*
X266185Y54600D01*
X266088Y54794D01*
X265963Y54988D01*
X265797Y55182D01*
X265769Y55210D01*
X265700Y55266D01*
X265603Y55335D01*
X265450Y55432D01*
X265256Y55515D01*
X265034Y55598D01*
X264771Y55654D01*
X264479Y55668D01*
X264396D01*
X264341Y55654D01*
X264174Y55640D01*
X263980Y55598D01*
X263772Y55543D01*
X263536Y55446D01*
X263314Y55321D01*
X263106Y55155D01*
X263079Y55127D01*
X263023Y55058D01*
X262940Y54947D01*
X262857Y54780D01*
X262760Y54586D01*
X262676Y54336D01*
X262621Y54059D01*
X262593Y53740D01*
X261387Y53865D01*
Y53879D01*
X261401Y53920D01*
Y53990D01*
X261414Y54087D01*
X261442Y54198D01*
X261470Y54323D01*
X261511Y54475D01*
X261553Y54628D01*
X261664Y54960D01*
X261830Y55293D01*
X261928Y55460D01*
X262052Y55626D01*
X262177Y55779D01*
X262316Y55917D01*
X262330Y55931D01*
X262357Y55945D01*
X262399Y55987D01*
X262468Y56028D01*
X262552Y56084D01*
X262649Y56139D01*
X262760Y56209D01*
X262898Y56278D01*
X263051Y56347D01*
X263217Y56417D01*
X263398Y56472D01*
X263592Y56528D01*
X263800Y56569D01*
X264022Y56611D01*
X264257Y56625D01*
X264507Y56638D01*
X264646D01*
X264743Y56625D01*
D02*
G37*
G36*
X275390Y56791D02*
X275570Y56763D01*
X275792Y56722D01*
X276042Y56652D01*
X276291Y56569D01*
X276541Y56458D01*
X276555D01*
X276569Y56444D01*
X276652Y56403D01*
X276777Y56320D01*
X276915Y56223D01*
X277082Y56084D01*
X277248Y55931D01*
X277415Y55751D01*
X277553Y55543D01*
X277567Y55515D01*
X277609Y55446D01*
X277664Y55321D01*
X277734Y55168D01*
X277803Y54988D01*
X277859Y54780D01*
X277900Y54544D01*
X277914Y54309D01*
Y54281D01*
Y54198D01*
X277900Y54087D01*
X277872Y53934D01*
X277831Y53754D01*
X277761Y53560D01*
X277678Y53366D01*
X277567Y53171D01*
X277553Y53144D01*
X277512Y53088D01*
X277429Y52991D01*
X277318Y52880D01*
X277179Y52755D01*
X277013Y52617D01*
X276818Y52492D01*
X276583Y52367D01*
X276597D01*
X276624Y52353D01*
X276666Y52339D01*
X276721Y52326D01*
X276874Y52270D01*
X277068Y52187D01*
X277290Y52076D01*
X277512Y51937D01*
X277720Y51757D01*
X277914Y51549D01*
X277928Y51521D01*
X277983Y51438D01*
X278067Y51299D01*
X278150Y51119D01*
X278233Y50897D01*
X278316Y50634D01*
X278372Y50328D01*
X278386Y49996D01*
Y49982D01*
Y49940D01*
Y49871D01*
X278372Y49788D01*
X278358Y49677D01*
X278330Y49552D01*
X278302Y49413D01*
X278275Y49261D01*
X278164Y48928D01*
X278080Y48747D01*
X277997Y48581D01*
X277886Y48401D01*
X277761Y48220D01*
X277623Y48040D01*
X277456Y47874D01*
X277442Y47860D01*
X277415Y47832D01*
X277359Y47790D01*
X277290Y47735D01*
X277207Y47666D01*
X277096Y47596D01*
X276971Y47513D01*
X276818Y47444D01*
X276666Y47361D01*
X276486Y47277D01*
X276305Y47208D01*
X276097Y47139D01*
X275875Y47083D01*
X275640Y47042D01*
X275404Y47014D01*
X275140Y47000D01*
X275016D01*
X274932Y47014D01*
X274821Y47028D01*
X274697Y47042D01*
X274558Y47069D01*
X274405Y47097D01*
X274072Y47180D01*
X273726Y47319D01*
X273545Y47402D01*
X273379Y47499D01*
X273213Y47624D01*
X273046Y47749D01*
X273032Y47763D01*
X273005Y47790D01*
X272963Y47832D01*
X272921Y47888D01*
X272852Y47957D01*
X272783Y48054D01*
X272700Y48151D01*
X272616Y48276D01*
X272533Y48415D01*
X272450Y48553D01*
X272297Y48886D01*
X272173Y49274D01*
X272131Y49482D01*
X272103Y49704D01*
X273282Y49857D01*
Y49843D01*
X273296Y49815D01*
X273310Y49760D01*
X273324Y49690D01*
X273337Y49607D01*
X273365Y49510D01*
X273435Y49302D01*
X273532Y49053D01*
X273656Y48817D01*
X273795Y48595D01*
X273962Y48401D01*
X273989Y48387D01*
X274045Y48331D01*
X274156Y48262D01*
X274294Y48193D01*
X274461Y48109D01*
X274669Y48040D01*
X274905Y47985D01*
X275154Y47971D01*
X275237D01*
X275293Y47985D01*
X275445Y47998D01*
X275640Y48040D01*
X275861Y48109D01*
X276097Y48207D01*
X276333Y48345D01*
X276555Y48539D01*
X276583Y48567D01*
X276652Y48650D01*
X276735Y48775D01*
X276846Y48942D01*
X276957Y49150D01*
X277040Y49385D01*
X277110Y49663D01*
X277137Y49968D01*
Y49982D01*
Y50009D01*
Y50051D01*
X277124Y50107D01*
X277110Y50259D01*
X277068Y50439D01*
X277013Y50661D01*
X276915Y50883D01*
X276777Y51105D01*
X276597Y51313D01*
X276569Y51341D01*
X276499Y51396D01*
X276388Y51480D01*
X276236Y51577D01*
X276042Y51674D01*
X275806Y51757D01*
X275543Y51812D01*
X275251Y51840D01*
X275126D01*
X275029Y51826D01*
X274905Y51812D01*
X274766Y51785D01*
X274599Y51757D01*
X274419Y51715D01*
X274558Y52755D01*
X274627D01*
X274683Y52741D01*
X274863D01*
X275016Y52769D01*
X275196Y52797D01*
X275404Y52839D01*
X275640Y52908D01*
X275861Y53005D01*
X276097Y53130D01*
X276111D01*
X276125Y53144D01*
X276194Y53199D01*
X276291Y53296D01*
X276402Y53421D01*
X276513Y53601D01*
X276610Y53809D01*
X276680Y54045D01*
X276707Y54184D01*
Y54336D01*
Y54350D01*
Y54364D01*
Y54447D01*
X276680Y54558D01*
X276652Y54711D01*
X276597Y54877D01*
X276527Y55058D01*
X276416Y55238D01*
X276264Y55404D01*
X276250Y55418D01*
X276180Y55474D01*
X276083Y55543D01*
X275959Y55626D01*
X275792Y55696D01*
X275598Y55765D01*
X275376Y55820D01*
X275126Y55834D01*
X275016D01*
X274891Y55806D01*
X274724Y55779D01*
X274544Y55723D01*
X274364Y55654D01*
X274170Y55543D01*
X273989Y55404D01*
X273975Y55390D01*
X273920Y55321D01*
X273837Y55224D01*
X273740Y55085D01*
X273643Y54905D01*
X273545Y54683D01*
X273462Y54420D01*
X273407Y54114D01*
X272228Y54323D01*
Y54336D01*
X272242Y54378D01*
X272256Y54433D01*
X272270Y54517D01*
X272297Y54614D01*
X272339Y54725D01*
X272422Y54988D01*
X272561Y55293D01*
X272727Y55598D01*
X272935Y55890D01*
X273199Y56153D01*
X273213Y56167D01*
X273240Y56181D01*
X273282Y56209D01*
X273337Y56250D01*
X273407Y56306D01*
X273504Y56361D01*
X273601Y56417D01*
X273726Y56486D01*
X274003Y56597D01*
X274322Y56708D01*
X274697Y56777D01*
X274891Y56805D01*
X275237D01*
X275390Y56791D01*
D02*
G37*
G36*
X288353Y50384D02*
X289657D01*
Y49302D01*
X288353D01*
Y47000D01*
X287174D01*
Y49302D01*
X283000D01*
Y50384D01*
X287396Y56597D01*
X288353D01*
Y50384D01*
D02*
G37*
G36*
X312147Y205518D02*
X313888D01*
Y204074D01*
X312147D01*
Y201000D01*
X310574D01*
Y204074D01*
X305000D01*
Y205518D01*
X310870Y213813D01*
X312147D01*
Y205518D01*
D02*
G37*
G36*
X283757Y213934D02*
X283998Y213897D01*
X284294Y213841D01*
X284627Y213749D01*
X284961Y213638D01*
X285294Y213490D01*
X285313D01*
X285331Y213471D01*
X285442Y213416D01*
X285609Y213305D01*
X285794Y213175D01*
X286016Y212990D01*
X286238Y212786D01*
X286461Y212545D01*
X286646Y212267D01*
X286664Y212230D01*
X286720Y212138D01*
X286794Y211971D01*
X286887Y211768D01*
X286979Y211527D01*
X287053Y211249D01*
X287109Y210934D01*
X287127Y210620D01*
Y210583D01*
Y210471D01*
X287109Y210323D01*
X287072Y210120D01*
X287016Y209879D01*
X286924Y209620D01*
X286812Y209360D01*
X286664Y209101D01*
X286646Y209064D01*
X286590Y208990D01*
X286479Y208860D01*
X286331Y208712D01*
X286146Y208546D01*
X285924Y208361D01*
X285664Y208194D01*
X285350Y208027D01*
X285368D01*
X285405Y208009D01*
X285461Y207990D01*
X285535Y207972D01*
X285739Y207898D01*
X285998Y207787D01*
X286294Y207638D01*
X286590Y207453D01*
X286868Y207213D01*
X287127Y206935D01*
X287146Y206898D01*
X287220Y206787D01*
X287331Y206601D01*
X287442Y206361D01*
X287553Y206064D01*
X287664Y205713D01*
X287738Y205305D01*
X287757Y204861D01*
Y204842D01*
Y204787D01*
Y204694D01*
X287738Y204583D01*
X287720Y204435D01*
X287683Y204268D01*
X287646Y204083D01*
X287609Y203880D01*
X287460Y203435D01*
X287349Y203194D01*
X287238Y202972D01*
X287090Y202731D01*
X286924Y202491D01*
X286738Y202250D01*
X286516Y202028D01*
X286498Y202009D01*
X286461Y201972D01*
X286387Y201917D01*
X286294Y201843D01*
X286183Y201750D01*
X286035Y201658D01*
X285868Y201546D01*
X285664Y201454D01*
X285461Y201343D01*
X285220Y201232D01*
X284979Y201139D01*
X284702Y201047D01*
X284405Y200972D01*
X284090Y200917D01*
X283776Y200880D01*
X283424Y200861D01*
X283257D01*
X283146Y200880D01*
X282998Y200898D01*
X282831Y200917D01*
X282646Y200954D01*
X282442Y200991D01*
X281998Y201102D01*
X281535Y201287D01*
X281294Y201398D01*
X281072Y201528D01*
X280850Y201695D01*
X280628Y201861D01*
X280609Y201880D01*
X280572Y201917D01*
X280517Y201972D01*
X280461Y202046D01*
X280369Y202139D01*
X280276Y202269D01*
X280165Y202398D01*
X280054Y202565D01*
X279943Y202750D01*
X279832Y202935D01*
X279628Y203380D01*
X279461Y203898D01*
X279406Y204176D01*
X279369Y204472D01*
X280943Y204676D01*
Y204657D01*
X280961Y204620D01*
X280980Y204546D01*
X280998Y204454D01*
X281017Y204342D01*
X281054Y204213D01*
X281146Y203935D01*
X281276Y203602D01*
X281443Y203287D01*
X281628Y202991D01*
X281850Y202731D01*
X281887Y202713D01*
X281961Y202639D01*
X282109Y202546D01*
X282294Y202454D01*
X282517Y202343D01*
X282794Y202250D01*
X283109Y202176D01*
X283442Y202157D01*
X283554D01*
X283628Y202176D01*
X283831Y202194D01*
X284090Y202250D01*
X284387Y202343D01*
X284702Y202472D01*
X285016Y202657D01*
X285313Y202917D01*
X285350Y202954D01*
X285442Y203065D01*
X285553Y203231D01*
X285702Y203454D01*
X285850Y203731D01*
X285961Y204046D01*
X286053Y204417D01*
X286090Y204824D01*
Y204842D01*
Y204879D01*
Y204935D01*
X286072Y205009D01*
X286053Y205213D01*
X285998Y205453D01*
X285924Y205750D01*
X285794Y206046D01*
X285609Y206342D01*
X285368Y206620D01*
X285331Y206657D01*
X285238Y206731D01*
X285090Y206842D01*
X284887Y206972D01*
X284627Y207101D01*
X284313Y207213D01*
X283961Y207287D01*
X283572Y207324D01*
X283405D01*
X283276Y207305D01*
X283109Y207287D01*
X282924Y207250D01*
X282702Y207213D01*
X282461Y207157D01*
X282646Y208546D01*
X282739D01*
X282813Y208527D01*
X283054D01*
X283257Y208564D01*
X283498Y208601D01*
X283776Y208657D01*
X284090Y208749D01*
X284387Y208879D01*
X284702Y209046D01*
X284720D01*
X284739Y209064D01*
X284831Y209138D01*
X284961Y209268D01*
X285109Y209435D01*
X285257Y209675D01*
X285387Y209953D01*
X285479Y210268D01*
X285516Y210453D01*
Y210657D01*
Y210675D01*
Y210694D01*
Y210805D01*
X285479Y210953D01*
X285442Y211157D01*
X285368Y211379D01*
X285276Y211619D01*
X285127Y211860D01*
X284924Y212082D01*
X284905Y212101D01*
X284813Y212175D01*
X284683Y212267D01*
X284516Y212379D01*
X284294Y212471D01*
X284035Y212564D01*
X283739Y212638D01*
X283405Y212656D01*
X283257D01*
X283091Y212619D01*
X282868Y212582D01*
X282628Y212508D01*
X282387Y212416D01*
X282128Y212267D01*
X281887Y212082D01*
X281868Y212064D01*
X281794Y211971D01*
X281683Y211842D01*
X281554Y211656D01*
X281424Y211416D01*
X281294Y211119D01*
X281183Y210768D01*
X281109Y210360D01*
X279535Y210638D01*
Y210657D01*
X279554Y210712D01*
X279573Y210786D01*
X279591Y210897D01*
X279628Y211027D01*
X279684Y211175D01*
X279795Y211527D01*
X279980Y211934D01*
X280202Y212342D01*
X280480Y212730D01*
X280832Y213082D01*
X280850Y213101D01*
X280887Y213119D01*
X280943Y213156D01*
X281017Y213212D01*
X281109Y213286D01*
X281239Y213360D01*
X281369Y213434D01*
X281535Y213527D01*
X281906Y213675D01*
X282331Y213823D01*
X282831Y213916D01*
X283091Y213953D01*
X283554D01*
X283757Y213934D01*
D02*
G37*
G36*
X258487Y213827D02*
X258635Y213809D01*
X258820Y213790D01*
X259024Y213753D01*
X259228Y213716D01*
X259709Y213587D01*
X260191Y213402D01*
X260431Y213290D01*
X260672Y213161D01*
X260894Y212994D01*
X261098Y212809D01*
X261117Y212791D01*
X261154Y212772D01*
X261190Y212698D01*
X261265Y212624D01*
X261357Y212531D01*
X261450Y212402D01*
X261542Y212272D01*
X261653Y212105D01*
X261839Y211754D01*
X262024Y211309D01*
X262098Y211087D01*
X262135Y210828D01*
X262172Y210569D01*
X262190Y210291D01*
Y210254D01*
Y210161D01*
X262172Y210013D01*
X262153Y209809D01*
X262116Y209587D01*
X262042Y209328D01*
X261968Y209050D01*
X261857Y208772D01*
X261839Y208735D01*
X261802Y208643D01*
X261728Y208495D01*
X261616Y208291D01*
X261468Y208069D01*
X261283Y207791D01*
X261061Y207513D01*
X260802Y207198D01*
X260765Y207161D01*
X260672Y207050D01*
X260579Y206958D01*
X260487Y206865D01*
X260376Y206754D01*
X260228Y206606D01*
X260079Y206458D01*
X259894Y206291D01*
X259709Y206106D01*
X259487Y205902D01*
X259246Y205699D01*
X258987Y205458D01*
X258691Y205217D01*
X258395Y204958D01*
X258376Y204939D01*
X258339Y204902D01*
X258265Y204847D01*
X258172Y204773D01*
X258061Y204662D01*
X257932Y204551D01*
X257635Y204310D01*
X257321Y204032D01*
X257024Y203754D01*
X256765Y203514D01*
X256654Y203421D01*
X256561Y203328D01*
X256543Y203310D01*
X256487Y203254D01*
X256413Y203180D01*
X256321Y203069D01*
X256228Y202940D01*
X256117Y202810D01*
X255895Y202495D01*
X262209D01*
Y200977D01*
X253710D01*
Y200995D01*
Y201069D01*
Y201180D01*
X253728Y201329D01*
X253747Y201495D01*
X253784Y201681D01*
X253821Y201866D01*
X253895Y202069D01*
Y202088D01*
X253913Y202106D01*
X253951Y202218D01*
X254025Y202384D01*
X254136Y202606D01*
X254284Y202866D01*
X254469Y203162D01*
X254673Y203458D01*
X254932Y203773D01*
Y203791D01*
X254969Y203810D01*
X255061Y203921D01*
X255228Y204088D01*
X255469Y204328D01*
X255747Y204606D01*
X256098Y204939D01*
X256524Y205310D01*
X256987Y205699D01*
X257006Y205717D01*
X257080Y205773D01*
X257191Y205865D01*
X257321Y205976D01*
X257487Y206124D01*
X257691Y206291D01*
X257895Y206476D01*
X258135Y206680D01*
X258598Y207124D01*
X259061Y207569D01*
X259283Y207791D01*
X259487Y208013D01*
X259672Y208217D01*
X259820Y208421D01*
Y208439D01*
X259857Y208458D01*
X259894Y208513D01*
X259931Y208587D01*
X260061Y208791D01*
X260209Y209032D01*
X260339Y209328D01*
X260468Y209643D01*
X260543Y209994D01*
X260579Y210328D01*
Y210346D01*
Y210365D01*
X260561Y210476D01*
X260543Y210661D01*
X260487Y210865D01*
X260413Y211124D01*
X260283Y211383D01*
X260117Y211642D01*
X259894Y211902D01*
X259857Y211939D01*
X259765Y212013D01*
X259635Y212105D01*
X259431Y212235D01*
X259172Y212346D01*
X258876Y212457D01*
X258524Y212531D01*
X258135Y212550D01*
X258024D01*
X257950Y212531D01*
X257728Y212513D01*
X257469Y212457D01*
X257191Y212383D01*
X256876Y212253D01*
X256580Y212087D01*
X256302Y211865D01*
X256265Y211828D01*
X256191Y211735D01*
X256080Y211587D01*
X255969Y211365D01*
X255839Y211105D01*
X255728Y210772D01*
X255654Y210402D01*
X255617Y209976D01*
X254006Y210143D01*
Y210161D01*
X254025Y210217D01*
Y210309D01*
X254043Y210439D01*
X254080Y210587D01*
X254117Y210754D01*
X254173Y210957D01*
X254228Y211161D01*
X254376Y211605D01*
X254599Y212050D01*
X254728Y212272D01*
X254895Y212494D01*
X255061Y212698D01*
X255247Y212883D01*
X255265Y212902D01*
X255302Y212920D01*
X255358Y212976D01*
X255450Y213031D01*
X255562Y213105D01*
X255691Y213179D01*
X255839Y213272D01*
X256024Y213365D01*
X256228Y213457D01*
X256450Y213550D01*
X256691Y213624D01*
X256950Y213698D01*
X257228Y213753D01*
X257524Y213809D01*
X257839Y213827D01*
X258172Y213846D01*
X258358D01*
X258487Y213827D01*
D02*
G37*
G36*
X416013Y42703D02*
X416143D01*
X416273Y42684D01*
X416587Y42629D01*
X416921Y42536D01*
X417272Y42388D01*
X417624Y42203D01*
X417921Y41943D01*
X417958Y41906D01*
X418032Y41795D01*
X418161Y41629D01*
X418217Y41499D01*
X418291Y41370D01*
X418365Y41203D01*
X418421Y41036D01*
X418495Y40851D01*
X418550Y40629D01*
X418587Y40407D01*
X418624Y40147D01*
X418661Y39888D01*
Y39592D01*
Y33222D01*
X417087D01*
Y39055D01*
Y39074D01*
Y39092D01*
Y39203D01*
Y39370D01*
X417069Y39573D01*
X417050Y39796D01*
X417032Y40018D01*
X416995Y40240D01*
X416939Y40407D01*
Y40425D01*
X416902Y40481D01*
X416865Y40555D01*
X416810Y40647D01*
X416736Y40759D01*
X416643Y40870D01*
X416532Y40981D01*
X416384Y41092D01*
X416365Y41110D01*
X416310Y41129D01*
X416236Y41166D01*
X416106Y41221D01*
X415976Y41277D01*
X415810Y41314D01*
X415643Y41333D01*
X415439Y41351D01*
X415347D01*
X415273Y41333D01*
X415088Y41314D01*
X414865Y41277D01*
X414606Y41184D01*
X414328Y41073D01*
X414051Y40907D01*
X413791Y40684D01*
X413773Y40647D01*
X413699Y40555D01*
X413588Y40407D01*
X413477Y40184D01*
X413347Y39888D01*
X413254Y39536D01*
X413180Y39111D01*
X413143Y38610D01*
Y33222D01*
X411569D01*
Y39240D01*
Y39259D01*
Y39296D01*
Y39333D01*
Y39407D01*
X411551Y39610D01*
X411514Y39833D01*
X411477Y40092D01*
X411403Y40351D01*
X411310Y40592D01*
X411181Y40814D01*
X411162Y40833D01*
X411106Y40907D01*
X411014Y40981D01*
X410884Y41092D01*
X410718Y41184D01*
X410495Y41277D01*
X410236Y41333D01*
X409921Y41351D01*
X409810D01*
X409681Y41333D01*
X409533Y41314D01*
X409347Y41258D01*
X409125Y41203D01*
X408922Y41110D01*
X408699Y40999D01*
X408681Y40981D01*
X408607Y40925D01*
X408514Y40851D01*
X408385Y40740D01*
X408255Y40592D01*
X408125Y40407D01*
X407996Y40203D01*
X407885Y39962D01*
X407866Y39925D01*
X407848Y39833D01*
X407811Y39685D01*
X407755Y39481D01*
X407700Y39203D01*
X407662Y38870D01*
X407644Y38481D01*
X407625Y38036D01*
Y33222D01*
X406051D01*
Y42517D01*
X407459D01*
Y41184D01*
X407477Y41221D01*
X407533Y41295D01*
X407644Y41425D01*
X407774Y41573D01*
X407940Y41758D01*
X408144Y41943D01*
X408366Y42129D01*
X408625Y42295D01*
X408662Y42314D01*
X408755Y42369D01*
X408903Y42425D01*
X409107Y42517D01*
X409347Y42592D01*
X409625Y42647D01*
X409940Y42703D01*
X410273Y42721D01*
X410440D01*
X410644Y42703D01*
X410866Y42666D01*
X411144Y42610D01*
X411421Y42536D01*
X411699Y42425D01*
X411958Y42277D01*
X411995Y42258D01*
X412069Y42203D01*
X412180Y42110D01*
X412329Y41962D01*
X412477Y41795D01*
X412643Y41592D01*
X412791Y41351D01*
X412903Y41073D01*
X412921Y41092D01*
X412958Y41147D01*
X413014Y41221D01*
X413106Y41333D01*
X413217Y41462D01*
X413347Y41592D01*
X413495Y41740D01*
X413680Y41906D01*
X413884Y42055D01*
X414088Y42203D01*
X414328Y42332D01*
X414588Y42462D01*
X414865Y42573D01*
X415162Y42647D01*
X415458Y42703D01*
X415791Y42721D01*
X415921D01*
X416013Y42703D01*
D02*
G37*
G36*
X401089D02*
X401219D01*
X401348Y42684D01*
X401663Y42629D01*
X401996Y42536D01*
X402348Y42388D01*
X402700Y42203D01*
X402996Y41943D01*
X403033Y41906D01*
X403107Y41795D01*
X403237Y41629D01*
X403293Y41499D01*
X403367Y41370D01*
X403441Y41203D01*
X403496Y41036D01*
X403570Y40851D01*
X403626Y40629D01*
X403663Y40407D01*
X403700Y40147D01*
X403737Y39888D01*
Y39592D01*
Y33222D01*
X402163D01*
Y39055D01*
Y39074D01*
Y39092D01*
Y39203D01*
Y39370D01*
X402145Y39573D01*
X402126Y39796D01*
X402108Y40018D01*
X402070Y40240D01*
X402015Y40407D01*
Y40425D01*
X401978Y40481D01*
X401941Y40555D01*
X401885Y40647D01*
X401811Y40759D01*
X401719Y40870D01*
X401608Y40981D01*
X401459Y41092D01*
X401441Y41110D01*
X401385Y41129D01*
X401311Y41166D01*
X401182Y41221D01*
X401052Y41277D01*
X400885Y41314D01*
X400719Y41333D01*
X400515Y41351D01*
X400422D01*
X400348Y41333D01*
X400163Y41314D01*
X399941Y41277D01*
X399682Y41184D01*
X399404Y41073D01*
X399126Y40907D01*
X398867Y40684D01*
X398848Y40647D01*
X398774Y40555D01*
X398663Y40407D01*
X398552Y40184D01*
X398423Y39888D01*
X398330Y39536D01*
X398256Y39111D01*
X398219Y38610D01*
Y33222D01*
X396645D01*
Y39240D01*
Y39259D01*
Y39296D01*
Y39333D01*
Y39407D01*
X396627Y39610D01*
X396590Y39833D01*
X396553Y40092D01*
X396478Y40351D01*
X396386Y40592D01*
X396256Y40814D01*
X396238Y40833D01*
X396182Y40907D01*
X396090Y40981D01*
X395960Y41092D01*
X395793Y41184D01*
X395571Y41277D01*
X395312Y41333D01*
X394997Y41351D01*
X394886D01*
X394756Y41333D01*
X394608Y41314D01*
X394423Y41258D01*
X394201Y41203D01*
X393997Y41110D01*
X393775Y40999D01*
X393756Y40981D01*
X393682Y40925D01*
X393590Y40851D01*
X393460Y40740D01*
X393331Y40592D01*
X393201Y40407D01*
X393071Y40203D01*
X392960Y39962D01*
X392942Y39925D01*
X392923Y39833D01*
X392886Y39685D01*
X392831Y39481D01*
X392775Y39203D01*
X392738Y38870D01*
X392719Y38481D01*
X392701Y38036D01*
Y33222D01*
X391127D01*
Y42517D01*
X392534D01*
Y41184D01*
X392553Y41221D01*
X392608Y41295D01*
X392719Y41425D01*
X392849Y41573D01*
X393016Y41758D01*
X393219Y41943D01*
X393442Y42129D01*
X393701Y42295D01*
X393738Y42314D01*
X393830Y42369D01*
X393979Y42425D01*
X394182Y42517D01*
X394423Y42592D01*
X394701Y42647D01*
X395016Y42703D01*
X395349Y42721D01*
X395516D01*
X395719Y42703D01*
X395941Y42666D01*
X396219Y42610D01*
X396497Y42536D01*
X396775Y42425D01*
X397034Y42277D01*
X397071Y42258D01*
X397145Y42203D01*
X397256Y42110D01*
X397404Y41962D01*
X397552Y41795D01*
X397719Y41592D01*
X397867Y41351D01*
X397978Y41073D01*
X397997Y41092D01*
X398034Y41147D01*
X398089Y41221D01*
X398182Y41333D01*
X398293Y41462D01*
X398423Y41592D01*
X398571Y41740D01*
X398756Y41906D01*
X398960Y42055D01*
X399163Y42203D01*
X399404Y42332D01*
X399663Y42462D01*
X399941Y42573D01*
X400237Y42647D01*
X400533Y42703D01*
X400867Y42721D01*
X400997D01*
X401089Y42703D01*
D02*
G37*
G36*
X430216Y37074D02*
X425346D01*
Y38648D01*
X430216D01*
Y37074D01*
D02*
G37*
G36*
X472174Y44517D02*
X467952D01*
Y33222D01*
X466249D01*
Y44517D01*
X462027D01*
Y46036D01*
X472174D01*
Y44517D01*
D02*
G37*
G36*
X442214Y46017D02*
X442363D01*
X442696Y45980D01*
X443066Y45943D01*
X443455Y45869D01*
X443844Y45777D01*
X444196Y45647D01*
X444214D01*
X444233Y45628D01*
X444344Y45573D01*
X444510Y45480D01*
X444696Y45351D01*
X444918Y45184D01*
X445159Y44980D01*
X445381Y44721D01*
X445584Y44443D01*
X445603Y44406D01*
X445658Y44295D01*
X445751Y44147D01*
X445844Y43925D01*
X445936Y43666D01*
X446029Y43388D01*
X446084Y43073D01*
X446103Y42758D01*
Y42721D01*
Y42629D01*
X446084Y42462D01*
X446047Y42258D01*
X445992Y42018D01*
X445899Y41758D01*
X445788Y41499D01*
X445640Y41221D01*
X445621Y41184D01*
X445566Y41110D01*
X445455Y40962D01*
X445307Y40814D01*
X445121Y40629D01*
X444899Y40425D01*
X444622Y40240D01*
X444307Y40055D01*
X444325D01*
X444362Y40036D01*
X444418Y40018D01*
X444492Y39981D01*
X444714Y39907D01*
X444973Y39777D01*
X445251Y39611D01*
X445566Y39407D01*
X445844Y39166D01*
X446103Y38870D01*
X446121Y38833D01*
X446195Y38722D01*
X446307Y38555D01*
X446418Y38333D01*
X446529Y38037D01*
X446640Y37722D01*
X446714Y37351D01*
X446732Y36944D01*
Y36926D01*
Y36907D01*
Y36796D01*
X446714Y36611D01*
X446677Y36389D01*
X446640Y36129D01*
X446566Y35852D01*
X446473Y35555D01*
X446344Y35259D01*
X446325Y35222D01*
X446269Y35129D01*
X446195Y35000D01*
X446084Y34815D01*
X445936Y34629D01*
X445788Y34426D01*
X445603Y34222D01*
X445399Y34056D01*
X445381Y34037D01*
X445307Y33981D01*
X445177Y33907D01*
X445010Y33833D01*
X444807Y33722D01*
X444566Y33611D01*
X444307Y33519D01*
X443992Y33426D01*
X443955D01*
X443844Y33389D01*
X443659Y33370D01*
X443418Y33333D01*
X443122Y33296D01*
X442770Y33259D01*
X442381Y33241D01*
X441937Y33222D01*
X437048Y33222D01*
Y46036D01*
X442085Y46036D01*
X442214Y46017D01*
D02*
G37*
G36*
X378443Y33222D02*
X376647D01*
Y35018D01*
X378443D01*
Y33222D01*
D02*
G37*
G36*
X371722D02*
X370148D01*
Y43240D01*
X370129Y43221D01*
X370037Y43147D01*
X369926Y43036D01*
X369740Y42906D01*
X369537Y42740D01*
X369277Y42555D01*
X368981Y42351D01*
X368648Y42147D01*
X368629D01*
X368611Y42129D01*
X368500Y42055D01*
X368315Y41962D01*
X368092Y41851D01*
X367833Y41721D01*
X367556Y41592D01*
X367278Y41462D01*
X367000Y41351D01*
Y42869D01*
X367019D01*
X367056Y42906D01*
X367130Y42925D01*
X367222Y42980D01*
X367333Y43036D01*
X367463Y43110D01*
X367778Y43295D01*
X368148Y43499D01*
X368518Y43758D01*
X368907Y44054D01*
X369296Y44369D01*
X369315Y44388D01*
X369333Y44406D01*
X369389Y44462D01*
X369463Y44517D01*
X369629Y44703D01*
X369851Y44925D01*
X370074Y45184D01*
X370314Y45480D01*
X370518Y45777D01*
X370703Y46091D01*
X371722D01*
Y33222D01*
D02*
G37*
G36*
X454972Y46239D02*
X455139D01*
X455306Y46221D01*
X455528Y46184D01*
X455750Y46147D01*
X456231Y46054D01*
X456787Y45906D01*
X457324Y45684D01*
X457602Y45554D01*
X457879Y45406D01*
X457898Y45388D01*
X457935Y45369D01*
X458009Y45314D01*
X458120Y45258D01*
X458231Y45165D01*
X458379Y45054D01*
X458694Y44795D01*
X459027Y44462D01*
X459398Y44054D01*
X459750Y43573D01*
X460046Y43036D01*
Y43018D01*
X460083Y42962D01*
X460120Y42888D01*
X460157Y42777D01*
X460231Y42629D01*
X460287Y42462D01*
X460361Y42258D01*
X460435Y42036D01*
X460490Y41795D01*
X460564Y41536D01*
X460638Y41240D01*
X460694Y40944D01*
X460768Y40296D01*
X460805Y39592D01*
Y39573D01*
Y39499D01*
Y39407D01*
X460787Y39259D01*
Y39092D01*
X460768Y38888D01*
X460731Y38666D01*
X460713Y38425D01*
X460620Y37888D01*
X460472Y37296D01*
X460268Y36703D01*
X460157Y36407D01*
X460009Y36111D01*
Y36092D01*
X459972Y36037D01*
X459935Y35963D01*
X459861Y35852D01*
X459787Y35722D01*
X459694Y35592D01*
X459435Y35240D01*
X459120Y34870D01*
X458750Y34481D01*
X458305Y34111D01*
X457787Y33778D01*
X457768D01*
X457731Y33741D01*
X457639Y33704D01*
X457528Y33648D01*
X457398Y33593D01*
X457250Y33537D01*
X457065Y33463D01*
X456861Y33389D01*
X456639Y33315D01*
X456398Y33241D01*
X455861Y33130D01*
X455287Y33037D01*
X454676Y33000D01*
X454491D01*
X454380Y33019D01*
X454213D01*
X454028Y33056D01*
X453824Y33074D01*
X453584Y33111D01*
X453084Y33222D01*
X452547Y33370D01*
X451991Y33593D01*
X451713Y33722D01*
X451436Y33870D01*
X451417Y33889D01*
X451380Y33907D01*
X451306Y33963D01*
X451195Y34037D01*
X451084Y34111D01*
X450954Y34222D01*
X450639Y34500D01*
X450288Y34833D01*
X449917Y35240D01*
X449584Y35703D01*
X449269Y36240D01*
Y36259D01*
X449232Y36314D01*
X449195Y36389D01*
X449158Y36500D01*
X449103Y36648D01*
X449047Y36814D01*
X448973Y37000D01*
X448917Y37203D01*
X448843Y37444D01*
X448769Y37685D01*
X448658Y38240D01*
X448584Y38814D01*
X448547Y39444D01*
Y39462D01*
Y39481D01*
Y39592D01*
X448566Y39759D01*
Y39981D01*
X448603Y40240D01*
X448640Y40555D01*
X448695Y40907D01*
X448769Y41277D01*
X448843Y41666D01*
X448954Y42073D01*
X449103Y42481D01*
X449269Y42906D01*
X449454Y43314D01*
X449695Y43721D01*
X449954Y44092D01*
X450251Y44443D01*
X450269Y44462D01*
X450325Y44517D01*
X450436Y44610D01*
X450565Y44721D01*
X450732Y44869D01*
X450936Y45017D01*
X451176Y45184D01*
X451454Y45351D01*
X451750Y45517D01*
X452084Y45684D01*
X452454Y45832D01*
X452843Y45980D01*
X453269Y46091D01*
X453713Y46184D01*
X454176Y46239D01*
X454676Y46258D01*
X454843D01*
X454972Y46239D01*
D02*
G37*
G36*
X385294Y46073D02*
X385535Y46036D01*
X385813Y45980D01*
X386109Y45906D01*
X386424Y45813D01*
X386720Y45665D01*
X386739D01*
X386757Y45647D01*
X386850Y45591D01*
X386998Y45499D01*
X387183Y45369D01*
X387387Y45184D01*
X387609Y44980D01*
X387813Y44739D01*
X388016Y44462D01*
X388035Y44425D01*
X388109Y44332D01*
X388183Y44166D01*
X388313Y43925D01*
X388424Y43647D01*
X388572Y43332D01*
X388701Y42962D01*
X388812Y42555D01*
Y42536D01*
X388831Y42499D01*
X388850Y42443D01*
X388868Y42351D01*
X388887Y42240D01*
X388905Y42110D01*
X388942Y41943D01*
X388961Y41758D01*
X388998Y41555D01*
X389016Y41333D01*
X389035Y41073D01*
X389072Y40814D01*
X389090Y40518D01*
Y40222D01*
X389109Y39888D01*
Y39536D01*
Y39518D01*
Y39444D01*
Y39314D01*
Y39166D01*
X389090Y38962D01*
Y38740D01*
X389072Y38499D01*
X389053Y38240D01*
X388998Y37648D01*
X388905Y37037D01*
X388794Y36444D01*
X388720Y36166D01*
X388627Y35889D01*
Y35870D01*
X388609Y35833D01*
X388572Y35759D01*
X388535Y35666D01*
X388498Y35537D01*
X388424Y35407D01*
X388276Y35092D01*
X388090Y34759D01*
X387850Y34389D01*
X387572Y34056D01*
X387239Y33741D01*
X387220D01*
X387202Y33704D01*
X387146Y33667D01*
X387072Y33630D01*
X386979Y33574D01*
X386887Y33500D01*
X386609Y33370D01*
X386276Y33241D01*
X385887Y33111D01*
X385424Y33037D01*
X384924Y33000D01*
X384739D01*
X384609Y33019D01*
X384461Y33037D01*
X384276Y33074D01*
X384072Y33111D01*
X383850Y33167D01*
X383628Y33241D01*
X383387Y33315D01*
X383147Y33426D01*
X382906Y33556D01*
X382665Y33704D01*
X382424Y33889D01*
X382202Y34093D01*
X381998Y34315D01*
X381980Y34333D01*
X381943Y34389D01*
X381887Y34481D01*
X381795Y34629D01*
X381702Y34796D01*
X381610Y35018D01*
X381480Y35278D01*
X381369Y35574D01*
X381258Y35907D01*
X381147Y36296D01*
X381036Y36722D01*
X380943Y37203D01*
X380850Y37722D01*
X380795Y38277D01*
X380758Y38888D01*
X380739Y39536D01*
Y39555D01*
Y39629D01*
Y39759D01*
Y39907D01*
X380758Y40110D01*
Y40333D01*
X380776Y40573D01*
X380795Y40851D01*
X380850Y41425D01*
X380943Y42036D01*
X381054Y42647D01*
X381128Y42925D01*
X381202Y43203D01*
Y43221D01*
X381221Y43258D01*
X381258Y43332D01*
X381295Y43425D01*
X381332Y43555D01*
X381406Y43684D01*
X381554Y43999D01*
X381739Y44332D01*
X381980Y44684D01*
X382258Y45036D01*
X382591Y45332D01*
X382609D01*
X382628Y45369D01*
X382683Y45406D01*
X382758Y45443D01*
X382850Y45517D01*
X382961Y45573D01*
X383239Y45721D01*
X383572Y45851D01*
X383961Y45980D01*
X384424Y46054D01*
X384924Y46091D01*
X385091D01*
X385294Y46073D01*
D02*
G37*
G36*
X417217Y61872D02*
X417347D01*
X417476Y61853D01*
X417791Y61797D01*
X418124Y61705D01*
X418476Y61557D01*
X418828Y61372D01*
X419124Y61112D01*
X419161Y61075D01*
X419235Y60964D01*
X419365Y60798D01*
X419421Y60668D01*
X419495Y60538D01*
X419569Y60372D01*
X419624Y60205D01*
X419698Y60020D01*
X419754Y59798D01*
X419791Y59576D01*
X419828Y59316D01*
X419865Y59057D01*
Y58761D01*
Y52391D01*
X418291D01*
Y58224D01*
Y58242D01*
Y58261D01*
Y58372D01*
Y58538D01*
X418272Y58742D01*
X418254Y58964D01*
X418235Y59187D01*
X418198Y59409D01*
X418143Y59576D01*
Y59594D01*
X418106Y59650D01*
X418069Y59724D01*
X418013Y59816D01*
X417939Y59927D01*
X417847Y60038D01*
X417735Y60149D01*
X417587Y60261D01*
X417569Y60279D01*
X417513Y60298D01*
X417439Y60335D01*
X417310Y60390D01*
X417180Y60446D01*
X417013Y60483D01*
X416847Y60501D01*
X416643Y60520D01*
X416550D01*
X416476Y60501D01*
X416291Y60483D01*
X416069Y60446D01*
X415810Y60353D01*
X415532Y60242D01*
X415254Y60075D01*
X414995Y59853D01*
X414977Y59816D01*
X414902Y59724D01*
X414791Y59576D01*
X414680Y59353D01*
X414551Y59057D01*
X414458Y58705D01*
X414384Y58279D01*
X414347Y57779D01*
Y52391D01*
X412773D01*
Y58409D01*
Y58427D01*
Y58464D01*
Y58502D01*
Y58576D01*
X412755Y58779D01*
X412718Y59001D01*
X412680Y59261D01*
X412606Y59520D01*
X412514Y59761D01*
X412384Y59983D01*
X412366Y60001D01*
X412310Y60075D01*
X412217Y60149D01*
X412088Y60261D01*
X411921Y60353D01*
X411699Y60446D01*
X411440Y60501D01*
X411125Y60520D01*
X411014D01*
X410884Y60501D01*
X410736Y60483D01*
X410551Y60427D01*
X410329Y60372D01*
X410125Y60279D01*
X409903Y60168D01*
X409884Y60149D01*
X409810Y60094D01*
X409718Y60020D01*
X409588Y59909D01*
X409459Y59761D01*
X409329Y59576D01*
X409199Y59372D01*
X409088Y59131D01*
X409070Y59094D01*
X409051Y59001D01*
X409014Y58853D01*
X408959Y58650D01*
X408903Y58372D01*
X408866Y58039D01*
X408848Y57650D01*
X408829Y57205D01*
Y52391D01*
X407255D01*
Y61686D01*
X408662D01*
Y60353D01*
X408681Y60390D01*
X408736Y60464D01*
X408848Y60594D01*
X408977Y60742D01*
X409144Y60927D01*
X409347Y61112D01*
X409570Y61297D01*
X409829Y61464D01*
X409866Y61483D01*
X409958Y61538D01*
X410107Y61594D01*
X410310Y61686D01*
X410551Y61760D01*
X410829Y61816D01*
X411144Y61872D01*
X411477Y61890D01*
X411643D01*
X411847Y61872D01*
X412069Y61835D01*
X412347Y61779D01*
X412625Y61705D01*
X412903Y61594D01*
X413162Y61446D01*
X413199Y61427D01*
X413273Y61372D01*
X413384Y61279D01*
X413532Y61131D01*
X413680Y60964D01*
X413847Y60760D01*
X413995Y60520D01*
X414106Y60242D01*
X414125Y60261D01*
X414162Y60316D01*
X414217Y60390D01*
X414310Y60501D01*
X414421Y60631D01*
X414551Y60760D01*
X414699Y60909D01*
X414884Y61075D01*
X415088Y61223D01*
X415291Y61372D01*
X415532Y61501D01*
X415791Y61631D01*
X416069Y61742D01*
X416365Y61816D01*
X416661Y61872D01*
X416995Y61890D01*
X417124D01*
X417217Y61872D01*
D02*
G37*
G36*
X402293D02*
X402422D01*
X402552Y61853D01*
X402867Y61797D01*
X403200Y61705D01*
X403552Y61557D01*
X403904Y61372D01*
X404200Y61112D01*
X404237Y61075D01*
X404311Y60964D01*
X404440Y60798D01*
X404496Y60668D01*
X404570Y60538D01*
X404644Y60372D01*
X404700Y60205D01*
X404774Y60020D01*
X404829Y59798D01*
X404866Y59576D01*
X404903Y59316D01*
X404940Y59057D01*
Y58761D01*
Y52391D01*
X403367D01*
Y58224D01*
Y58242D01*
Y58261D01*
Y58372D01*
Y58538D01*
X403348Y58742D01*
X403330Y58964D01*
X403311Y59187D01*
X403274Y59409D01*
X403218Y59576D01*
Y59594D01*
X403181Y59650D01*
X403144Y59724D01*
X403089Y59816D01*
X403015Y59927D01*
X402922Y60038D01*
X402811Y60149D01*
X402663Y60261D01*
X402644Y60279D01*
X402589Y60298D01*
X402515Y60335D01*
X402385Y60390D01*
X402256Y60446D01*
X402089Y60483D01*
X401922Y60501D01*
X401719Y60520D01*
X401626D01*
X401552Y60501D01*
X401367Y60483D01*
X401145Y60446D01*
X400885Y60353D01*
X400608Y60242D01*
X400330Y60075D01*
X400071Y59853D01*
X400052Y59816D01*
X399978Y59724D01*
X399867Y59576D01*
X399756Y59353D01*
X399626Y59057D01*
X399534Y58705D01*
X399460Y58279D01*
X399422Y57779D01*
Y52391D01*
X397849D01*
Y58409D01*
Y58427D01*
Y58464D01*
Y58502D01*
Y58576D01*
X397830Y58779D01*
X397793Y59001D01*
X397756Y59261D01*
X397682Y59520D01*
X397589Y59761D01*
X397460Y59983D01*
X397441Y60001D01*
X397386Y60075D01*
X397293Y60149D01*
X397164Y60261D01*
X396997Y60353D01*
X396775Y60446D01*
X396515Y60501D01*
X396201Y60520D01*
X396090D01*
X395960Y60501D01*
X395812Y60483D01*
X395627Y60427D01*
X395404Y60372D01*
X395201Y60279D01*
X394979Y60168D01*
X394960Y60149D01*
X394886Y60094D01*
X394793Y60020D01*
X394664Y59909D01*
X394534Y59761D01*
X394404Y59576D01*
X394275Y59372D01*
X394164Y59131D01*
X394145Y59094D01*
X394127Y59001D01*
X394090Y58853D01*
X394034Y58650D01*
X393979Y58372D01*
X393942Y58039D01*
X393923Y57650D01*
X393905Y57205D01*
Y52391D01*
X392331D01*
Y61686D01*
X393738D01*
Y60353D01*
X393756Y60390D01*
X393812Y60464D01*
X393923Y60594D01*
X394053Y60742D01*
X394219Y60927D01*
X394423Y61112D01*
X394645Y61297D01*
X394905Y61464D01*
X394941Y61483D01*
X395034Y61538D01*
X395182Y61594D01*
X395386Y61686D01*
X395627Y61760D01*
X395904Y61816D01*
X396219Y61872D01*
X396553Y61890D01*
X396719D01*
X396923Y61872D01*
X397145Y61835D01*
X397423Y61779D01*
X397701Y61705D01*
X397978Y61594D01*
X398237Y61446D01*
X398274Y61427D01*
X398349Y61372D01*
X398460Y61279D01*
X398608Y61131D01*
X398756Y60964D01*
X398923Y60760D01*
X399071Y60520D01*
X399182Y60242D01*
X399200Y60261D01*
X399237Y60316D01*
X399293Y60390D01*
X399385Y60501D01*
X399497Y60631D01*
X399626Y60760D01*
X399774Y60909D01*
X399959Y61075D01*
X400163Y61223D01*
X400367Y61372D01*
X400608Y61501D01*
X400867Y61631D01*
X401145Y61742D01*
X401441Y61816D01*
X401737Y61872D01*
X402070Y61890D01*
X402200D01*
X402293Y61872D01*
D02*
G37*
G36*
X431419Y56242D02*
X426549D01*
Y57816D01*
X431419D01*
Y56242D01*
D02*
G37*
G36*
X389831Y63538D02*
X384702D01*
X384017Y60075D01*
X384035Y60094D01*
X384072Y60113D01*
X384128Y60149D01*
X384220Y60205D01*
X384332Y60261D01*
X384461Y60335D01*
X384757Y60483D01*
X385128Y60631D01*
X385535Y60760D01*
X385979Y60853D01*
X386202Y60890D01*
X386609D01*
X386720Y60872D01*
X386868Y60853D01*
X387035Y60835D01*
X387220Y60798D01*
X387424Y60742D01*
X387868Y60612D01*
X388109Y60520D01*
X388350Y60390D01*
X388590Y60261D01*
X388831Y60113D01*
X389053Y59927D01*
X389275Y59724D01*
X389294Y59705D01*
X389331Y59668D01*
X389386Y59612D01*
X389461Y59520D01*
X389553Y59390D01*
X389646Y59261D01*
X389757Y59094D01*
X389868Y58909D01*
X389961Y58705D01*
X390072Y58483D01*
X390164Y58224D01*
X390257Y57965D01*
X390331Y57687D01*
X390386Y57372D01*
X390424Y57057D01*
X390442Y56724D01*
Y56705D01*
Y56650D01*
Y56557D01*
X390424Y56428D01*
X390405Y56280D01*
X390386Y56113D01*
X390349Y55909D01*
X390312Y55705D01*
X390201Y55224D01*
X390016Y54724D01*
X389905Y54465D01*
X389757Y54224D01*
X389609Y53965D01*
X389424Y53724D01*
X389405Y53706D01*
X389368Y53650D01*
X389294Y53576D01*
X389201Y53484D01*
X389072Y53372D01*
X388924Y53224D01*
X388739Y53095D01*
X388535Y52947D01*
X388313Y52798D01*
X388053Y52669D01*
X387776Y52539D01*
X387479Y52410D01*
X387165Y52317D01*
X386813Y52243D01*
X386442Y52187D01*
X386054Y52169D01*
X385887D01*
X385757Y52187D01*
X385609Y52206D01*
X385443Y52224D01*
X385239Y52243D01*
X385035Y52298D01*
X384572Y52410D01*
X384109Y52576D01*
X383869Y52687D01*
X383628Y52817D01*
X383406Y52965D01*
X383184Y53132D01*
X383165Y53150D01*
X383128Y53169D01*
X383091Y53243D01*
X383017Y53317D01*
X382924Y53409D01*
X382832Y53520D01*
X382721Y53669D01*
X382628Y53835D01*
X382517Y54002D01*
X382406Y54206D01*
X382202Y54650D01*
X382035Y55168D01*
X381980Y55446D01*
X381943Y55743D01*
X383591Y55872D01*
Y55854D01*
Y55817D01*
X383609Y55761D01*
X383628Y55669D01*
X383683Y55465D01*
X383758Y55187D01*
X383869Y54909D01*
X384017Y54594D01*
X384202Y54317D01*
X384424Y54057D01*
X384461Y54039D01*
X384535Y53965D01*
X384683Y53872D01*
X384887Y53761D01*
X385109Y53650D01*
X385387Y53558D01*
X385702Y53484D01*
X386054Y53465D01*
X386165D01*
X386239Y53484D01*
X386461Y53502D01*
X386720Y53576D01*
X387035Y53669D01*
X387350Y53817D01*
X387683Y54039D01*
X387831Y54169D01*
X387979Y54317D01*
X387998Y54335D01*
X388016Y54354D01*
X388053Y54409D01*
X388109Y54465D01*
X388238Y54669D01*
X388387Y54928D01*
X388516Y55243D01*
X388646Y55631D01*
X388739Y56094D01*
X388775Y56335D01*
Y56594D01*
Y56613D01*
Y56650D01*
Y56724D01*
X388757Y56817D01*
Y56928D01*
X388739Y57057D01*
X388683Y57354D01*
X388590Y57705D01*
X388461Y58057D01*
X388276Y58390D01*
X388016Y58705D01*
Y58724D01*
X387979Y58742D01*
X387887Y58835D01*
X387720Y58964D01*
X387498Y59113D01*
X387202Y59242D01*
X386868Y59372D01*
X386479Y59464D01*
X386257Y59501D01*
X385905D01*
X385757Y59483D01*
X385572Y59464D01*
X385350Y59409D01*
X385128Y59353D01*
X384887Y59261D01*
X384646Y59150D01*
X384628Y59131D01*
X384554Y59094D01*
X384443Y59001D01*
X384295Y58909D01*
X384146Y58779D01*
X383998Y58613D01*
X383832Y58446D01*
X383702Y58242D01*
X382221Y58446D01*
X383461Y65038D01*
X389831D01*
Y63538D01*
D02*
G37*
G36*
X468730Y65186D02*
X469045Y65167D01*
X469378Y65149D01*
X469693Y65112D01*
X469971Y65075D01*
X470008D01*
X470137Y65038D01*
X470304Y65001D01*
X470526Y64945D01*
X470767Y64853D01*
X471026Y64742D01*
X471304Y64612D01*
X471545Y64464D01*
X471582Y64445D01*
X471656Y64390D01*
X471767Y64279D01*
X471915Y64149D01*
X472082Y63982D01*
X472248Y63760D01*
X472434Y63520D01*
X472582Y63242D01*
X472600Y63205D01*
X472637Y63112D01*
X472711Y62945D01*
X472785Y62723D01*
X472841Y62464D01*
X472915Y62168D01*
X472952Y61835D01*
X472971Y61483D01*
Y61464D01*
Y61409D01*
Y61335D01*
X472952Y61205D01*
X472933Y61075D01*
X472915Y60909D01*
X472878Y60724D01*
X472841Y60520D01*
X472711Y60094D01*
X472637Y59872D01*
X472526Y59631D01*
X472397Y59390D01*
X472267Y59168D01*
X472100Y58946D01*
X471915Y58724D01*
X471897Y58705D01*
X471860Y58668D01*
X471804Y58613D01*
X471711Y58557D01*
X471600Y58464D01*
X471452Y58372D01*
X471267Y58261D01*
X471063Y58168D01*
X470823Y58057D01*
X470545Y57946D01*
X470248Y57853D01*
X469897Y57779D01*
X469526Y57705D01*
X469119Y57650D01*
X468656Y57613D01*
X468175Y57594D01*
X464897D01*
Y52391D01*
X463194D01*
Y65205D01*
X468452D01*
X468730Y65186D01*
D02*
G37*
G36*
X447510Y63686D02*
X443288D01*
Y52391D01*
X441585D01*
Y63686D01*
X437363Y63686D01*
Y65205D01*
X447510Y65205D01*
Y63686D01*
D02*
G37*
G36*
X379647Y52391D02*
X377851D01*
Y54187D01*
X379647D01*
Y52391D01*
D02*
G37*
G36*
X455176Y65408D02*
X455343D01*
X455509Y65390D01*
X455732Y65353D01*
X455954Y65316D01*
X456435Y65223D01*
X456991Y65075D01*
X457528Y64853D01*
X457805Y64723D01*
X458083Y64575D01*
X458102Y64556D01*
X458139Y64538D01*
X458213Y64482D01*
X458324Y64427D01*
X458435Y64334D01*
X458583Y64223D01*
X458898Y63964D01*
X459231Y63631D01*
X459602Y63223D01*
X459953Y62742D01*
X460250Y62205D01*
Y62186D01*
X460287Y62131D01*
X460324Y62057D01*
X460361Y61946D01*
X460435Y61797D01*
X460490Y61631D01*
X460564Y61427D01*
X460638Y61205D01*
X460694Y60964D01*
X460768Y60705D01*
X460842Y60409D01*
X460898Y60113D01*
X460972Y59464D01*
X461009Y58761D01*
Y58742D01*
Y58668D01*
Y58576D01*
X460990Y58428D01*
Y58261D01*
X460972Y58057D01*
X460935Y57835D01*
X460916Y57594D01*
X460824Y57057D01*
X460676Y56465D01*
X460472Y55872D01*
X460361Y55576D01*
X460213Y55280D01*
Y55261D01*
X460176Y55206D01*
X460139Y55132D01*
X460064Y55020D01*
X459990Y54891D01*
X459898Y54761D01*
X459638Y54409D01*
X459324Y54039D01*
X458953Y53650D01*
X458509Y53280D01*
X457990Y52947D01*
X457972D01*
X457935Y52909D01*
X457842Y52873D01*
X457731Y52817D01*
X457602Y52761D01*
X457454Y52706D01*
X457268Y52632D01*
X457065Y52558D01*
X456842Y52484D01*
X456602Y52410D01*
X456065Y52298D01*
X455491Y52206D01*
X454880Y52169D01*
X454695D01*
X454584Y52187D01*
X454417D01*
X454232Y52224D01*
X454028Y52243D01*
X453787Y52280D01*
X453287Y52391D01*
X452750Y52539D01*
X452195Y52761D01*
X451917Y52891D01*
X451639Y53039D01*
X451621Y53058D01*
X451584Y53076D01*
X451510Y53132D01*
X451399Y53206D01*
X451287Y53280D01*
X451158Y53391D01*
X450843Y53669D01*
X450491Y54002D01*
X450121Y54409D01*
X449788Y54872D01*
X449473Y55409D01*
Y55428D01*
X449436Y55483D01*
X449399Y55557D01*
X449362Y55669D01*
X449306Y55817D01*
X449251Y55983D01*
X449177Y56168D01*
X449121Y56372D01*
X449047Y56613D01*
X448973Y56854D01*
X448862Y57409D01*
X448788Y57983D01*
X448751Y58613D01*
Y58631D01*
Y58650D01*
Y58761D01*
X448769Y58927D01*
Y59150D01*
X448806Y59409D01*
X448843Y59724D01*
X448899Y60075D01*
X448973Y60446D01*
X449047Y60835D01*
X449158Y61242D01*
X449306Y61649D01*
X449473Y62075D01*
X449658Y62483D01*
X449899Y62890D01*
X450158Y63260D01*
X450454Y63612D01*
X450473Y63631D01*
X450528Y63686D01*
X450639Y63779D01*
X450769Y63890D01*
X450936Y64038D01*
X451139Y64186D01*
X451380Y64353D01*
X451658Y64519D01*
X451954Y64686D01*
X452287Y64853D01*
X452658Y65001D01*
X453047Y65149D01*
X453473Y65260D01*
X453917Y65353D01*
X454380Y65408D01*
X454880Y65427D01*
X455046D01*
X455176Y65408D01*
D02*
G37*
G36*
X371555Y65242D02*
X371796Y65205D01*
X372074Y65149D01*
X372370Y65075D01*
X372685Y64982D01*
X372981Y64834D01*
X372999D01*
X373018Y64816D01*
X373111Y64760D01*
X373259Y64668D01*
X373444Y64538D01*
X373647Y64353D01*
X373870Y64149D01*
X374073Y63908D01*
X374277Y63631D01*
X374296Y63594D01*
X374370Y63501D01*
X374444Y63334D01*
X374573Y63094D01*
X374684Y62816D01*
X374832Y62501D01*
X374962Y62131D01*
X375073Y61723D01*
Y61705D01*
X375092Y61668D01*
X375110Y61612D01*
X375129Y61520D01*
X375147Y61409D01*
X375166Y61279D01*
X375203Y61112D01*
X375221Y60927D01*
X375258Y60724D01*
X375277Y60501D01*
X375295Y60242D01*
X375332Y59983D01*
X375351Y59687D01*
Y59390D01*
X375369Y59057D01*
Y58705D01*
Y58687D01*
Y58613D01*
Y58483D01*
Y58335D01*
X375351Y58131D01*
Y57909D01*
X375332Y57668D01*
X375314Y57409D01*
X375258Y56817D01*
X375166Y56206D01*
X375055Y55613D01*
X374981Y55335D01*
X374888Y55057D01*
Y55039D01*
X374869Y55002D01*
X374832Y54928D01*
X374795Y54835D01*
X374758Y54706D01*
X374684Y54576D01*
X374536Y54261D01*
X374351Y53928D01*
X374110Y53558D01*
X373833Y53224D01*
X373499Y52909D01*
X373481D01*
X373462Y52873D01*
X373407Y52835D01*
X373333Y52798D01*
X373240Y52743D01*
X373148Y52669D01*
X372870Y52539D01*
X372536Y52410D01*
X372148Y52280D01*
X371685Y52206D01*
X371185Y52169D01*
X371000D01*
X370870Y52187D01*
X370722Y52206D01*
X370537Y52243D01*
X370333Y52280D01*
X370111Y52336D01*
X369889Y52410D01*
X369648Y52484D01*
X369407Y52595D01*
X369166Y52724D01*
X368926Y52873D01*
X368685Y53058D01*
X368463Y53261D01*
X368259Y53484D01*
X368241Y53502D01*
X368204Y53558D01*
X368148Y53650D01*
X368055Y53798D01*
X367963Y53965D01*
X367870Y54187D01*
X367741Y54446D01*
X367630Y54743D01*
X367518Y55076D01*
X367407Y55465D01*
X367296Y55891D01*
X367204Y56372D01*
X367111Y56891D01*
X367056Y57446D01*
X367019Y58057D01*
X367000Y58705D01*
Y58724D01*
Y58798D01*
Y58927D01*
Y59075D01*
X367019Y59279D01*
Y59501D01*
X367037Y59742D01*
X367056Y60020D01*
X367111Y60594D01*
X367204Y61205D01*
X367315Y61816D01*
X367389Y62094D01*
X367463Y62372D01*
Y62390D01*
X367481Y62427D01*
X367518Y62501D01*
X367556Y62594D01*
X367593Y62723D01*
X367667Y62853D01*
X367815Y63168D01*
X368000Y63501D01*
X368241Y63853D01*
X368518Y64205D01*
X368852Y64501D01*
X368870D01*
X368889Y64538D01*
X368944Y64575D01*
X369018Y64612D01*
X369111Y64686D01*
X369222Y64742D01*
X369500Y64890D01*
X369833Y65019D01*
X370222Y65149D01*
X370685Y65223D01*
X371185Y65260D01*
X371351D01*
X371555Y65242D01*
D02*
G37*
G36*
X166092Y74994D02*
X160584D01*
Y81279D01*
X166092D01*
Y74994D01*
D02*
G37*
G36*
X141145Y69616D02*
X141599Y69551D01*
X142571Y69422D01*
X143737Y69162D01*
X144968Y68774D01*
X146199Y68190D01*
X147430Y67478D01*
X147495D01*
X147560Y67348D01*
X147949Y67089D01*
X148532Y66571D01*
X149245Y65923D01*
X150022Y65080D01*
X150800Y64044D01*
X151577Y62812D01*
X152225Y61452D01*
Y61387D01*
X152290Y61257D01*
X152355Y61063D01*
X152485Y60804D01*
X152614Y60415D01*
X152744Y59962D01*
X153068Y58925D01*
X153392Y57629D01*
X153651Y56203D01*
X153845Y54584D01*
X153910Y52899D01*
Y52834D01*
Y52704D01*
Y52445D01*
Y52056D01*
X153845Y51603D01*
Y51084D01*
X153716Y49918D01*
X153456Y48493D01*
X153132Y47002D01*
X152679Y45447D01*
X152096Y43892D01*
Y43827D01*
X152031Y43698D01*
X151901Y43503D01*
X151772Y43244D01*
X151318Y42531D01*
X150735Y41624D01*
X150022Y40652D01*
X149115Y39681D01*
X148078Y38709D01*
X146847Y37801D01*
X146783D01*
X146718Y37737D01*
X146523Y37607D01*
X146264Y37478D01*
X145616Y37153D01*
X144709Y36765D01*
X143608Y36376D01*
X142441Y36052D01*
X141081Y35793D01*
X139720Y35728D01*
X139266D01*
X138748Y35793D01*
X138100Y35858D01*
X137322Y35987D01*
X136480Y36181D01*
X135638Y36441D01*
X134795Y36830D01*
X134731Y36894D01*
X134407Y37024D01*
X134018Y37283D01*
X133499Y37672D01*
X132981Y38061D01*
X132333Y38579D01*
X131750Y39162D01*
X131232Y39810D01*
Y24000D01*
X125724D01*
Y68968D01*
X130713D01*
Y64692D01*
X130778Y64821D01*
X131037Y65080D01*
X131361Y65534D01*
X131880Y66052D01*
X132463Y66700D01*
X133111Y67283D01*
X133888Y67867D01*
X134666Y68385D01*
X134795Y68450D01*
X135055Y68579D01*
X135573Y68774D01*
X136221Y69033D01*
X136999Y69292D01*
X137906Y69486D01*
X138942Y69616D01*
X140109Y69681D01*
X140821D01*
X141145Y69616D01*
D02*
G37*
G36*
X190779Y69616D02*
X191491Y69551D01*
X192334Y69422D01*
X193241Y69227D01*
X194213Y68968D01*
X195120Y68579D01*
X195250Y68514D01*
X195509Y68385D01*
X195962Y68190D01*
X196481Y67867D01*
X197129Y67478D01*
X197712Y66959D01*
X198295Y66441D01*
X198813Y65793D01*
X198878Y65728D01*
X199008Y65469D01*
X199202Y65145D01*
X199526Y64692D01*
X199785Y64044D01*
X200044Y63396D01*
X200368Y62618D01*
X200563Y61776D01*
Y61711D01*
X200627Y61452D01*
X200692Y61063D01*
X200757Y60545D01*
Y59767D01*
X200822Y58860D01*
X200887Y57758D01*
Y56398D01*
Y36441D01*
X195379D01*
Y56139D01*
Y56203D01*
Y56268D01*
Y56722D01*
Y57305D01*
X195314Y58018D01*
X195250Y58860D01*
X195120Y59702D01*
X194925Y60480D01*
X194731Y61193D01*
Y61257D01*
X194602Y61452D01*
X194407Y61776D01*
X194213Y62165D01*
X193889Y62553D01*
X193500Y63007D01*
X192982Y63460D01*
X192398Y63849D01*
X192334Y63914D01*
X192139Y64044D01*
X191751Y64173D01*
X191297Y64368D01*
X190779Y64562D01*
X190131Y64756D01*
X189353Y64821D01*
X188576Y64886D01*
X188252D01*
X187992Y64821D01*
X187344Y64756D01*
X186502Y64627D01*
X185595Y64303D01*
X184558Y63914D01*
X183522Y63396D01*
X182550Y62618D01*
X182420Y62488D01*
X182161Y62165D01*
X181966Y61905D01*
X181772Y61581D01*
X181513Y61193D01*
X181318Y60739D01*
X181059Y60221D01*
X180800Y59573D01*
X180606Y58860D01*
X180411Y58082D01*
X180282Y57240D01*
X180152Y56333D01*
X180023Y55231D01*
Y54130D01*
Y36441D01*
X174515D01*
Y68968D01*
X179439D01*
Y64303D01*
X179504Y64368D01*
X179634Y64562D01*
X179828Y64821D01*
X180087Y65145D01*
X180476Y65534D01*
X180930Y65987D01*
X181448Y66506D01*
X182096Y67024D01*
X182744Y67478D01*
X183522Y67996D01*
X184364Y68450D01*
X185271Y68838D01*
X186308Y69162D01*
X187344Y69422D01*
X188511Y69616D01*
X189742Y69681D01*
X190260D01*
X190779Y69616D01*
D02*
G37*
G36*
X166092Y36441D02*
X160584D01*
Y68968D01*
X166092D01*
Y36441D01*
D02*
G37*
G36*
X95011Y52251D02*
X101102D01*
Y47197D01*
X95011D01*
Y36441D01*
X89503D01*
Y47197D01*
X70000D01*
Y52251D01*
X90540Y81279D01*
X95011D01*
Y52251D01*
D02*
G37*
G36*
X255536Y47000D02*
X254358D01*
Y54503D01*
X254344Y54489D01*
X254274Y54433D01*
X254191Y54350D01*
X254053Y54253D01*
X253900Y54128D01*
X253706Y53990D01*
X253484Y53837D01*
X253234Y53685D01*
X253220D01*
X253207Y53671D01*
X253123Y53615D01*
X252985Y53546D01*
X252818Y53463D01*
X252624Y53366D01*
X252416Y53268D01*
X252208Y53171D01*
X252000Y53088D01*
Y54225D01*
X252014D01*
X252042Y54253D01*
X252097Y54267D01*
X252166Y54309D01*
X252250Y54350D01*
X252347Y54406D01*
X252582Y54544D01*
X252860Y54697D01*
X253137Y54891D01*
X253428Y55113D01*
X253720Y55349D01*
X253734Y55363D01*
X253747Y55377D01*
X253789Y55418D01*
X253845Y55460D01*
X253969Y55598D01*
X254136Y55765D01*
X254302Y55959D01*
X254482Y56181D01*
X254635Y56403D01*
X254774Y56638D01*
X255536D01*
Y47000D01*
D02*
G37*
G36*
X234622Y200977D02*
X233048D01*
Y210994D01*
X233029Y210976D01*
X232937Y210902D01*
X232826Y210791D01*
X232640Y210661D01*
X232437Y210494D01*
X232178Y210309D01*
X231881Y210105D01*
X231548Y209902D01*
X231530D01*
X231511Y209883D01*
X231400Y209809D01*
X231215Y209717D01*
X230993Y209606D01*
X230733Y209476D01*
X230455Y209346D01*
X230178Y209217D01*
X229900Y209106D01*
Y210624D01*
X229918D01*
X229956Y210661D01*
X230030Y210680D01*
X230122Y210735D01*
X230233Y210791D01*
X230363Y210865D01*
X230678Y211050D01*
X231048Y211254D01*
X231418Y211513D01*
X231807Y211809D01*
X232196Y212124D01*
X232215Y212142D01*
X232233Y212161D01*
X232289Y212216D01*
X232363Y212272D01*
X232529Y212457D01*
X232752Y212679D01*
X232974Y212939D01*
X233214Y213235D01*
X233418Y213531D01*
X233603Y213846D01*
X234622D01*
Y200977D01*
D02*
G37*
%LPC*%
G36*
X327356Y152368D02*
X320875Y151905D01*
X320412D01*
X319949Y151442D01*
Y135702D01*
Y135239D01*
X327819D01*
X329671Y135702D01*
X331522Y136165D01*
X333374Y137554D01*
X333837Y138017D01*
X334763Y139406D01*
X335689Y141258D01*
X336152Y143572D01*
Y144035D01*
X335689Y145887D01*
X335226Y147739D01*
X333374Y149591D01*
X332911Y150053D01*
X331985Y150979D01*
X329671Y151905D01*
X327356Y152368D01*
D02*
G37*
G36*
X223657D02*
X216713Y151905D01*
X216250D01*
X215787Y151442D01*
Y135702D01*
X216250D01*
Y135239D01*
X224120D01*
X225509Y135702D01*
X227361Y136165D01*
X229213Y137554D01*
X229676Y138017D01*
X230601Y139406D01*
X231527Y141258D01*
X231990Y143572D01*
Y144035D01*
X231527Y145887D01*
X231064Y147739D01*
X229213Y149591D01*
X228750Y150053D01*
X227824Y150979D01*
X225972Y151905D01*
X223657Y152368D01*
D02*
G37*
G36*
X425962Y149591D02*
X425499D01*
X425036Y149128D01*
X419944Y128758D01*
Y128295D01*
X420407Y127832D01*
X430129D01*
Y128758D01*
X425962Y149128D01*
Y149591D01*
D02*
G37*
G36*
X287174Y54683D02*
X284151Y50384D01*
X287174D01*
Y54683D01*
D02*
G37*
G36*
X310574Y211258D02*
X306537Y205518D01*
X310574D01*
Y211258D01*
D02*
G37*
G36*
X441788Y44517D02*
X438752Y44517D01*
Y40666D01*
X441900Y40666D01*
X442140Y40684D01*
X442400Y40703D01*
X442659Y40722D01*
X442918Y40759D01*
X443122Y40795D01*
X443159Y40814D01*
X443233Y40833D01*
X443344Y40888D01*
X443492Y40962D01*
X443640Y41036D01*
X443807Y41147D01*
X443974Y41295D01*
X444103Y41444D01*
X444122Y41462D01*
X444159Y41518D01*
X444214Y41629D01*
X444270Y41758D01*
X444325Y41906D01*
X444381Y42092D01*
X444418Y42314D01*
X444436Y42555D01*
Y42592D01*
Y42666D01*
X444418Y42777D01*
X444399Y42925D01*
X444362Y43110D01*
X444307Y43295D01*
X444233Y43480D01*
X444122Y43666D01*
X444103Y43684D01*
X444066Y43740D01*
X443992Y43832D01*
X443899Y43925D01*
X443770Y44036D01*
X443622Y44147D01*
X443437Y44258D01*
X443233Y44332D01*
X443214D01*
X443122Y44369D01*
X442992Y44388D01*
X442788Y44425D01*
X442511Y44462D01*
X442196Y44480D01*
X441788Y44517D01*
D02*
G37*
G36*
X442122Y39148D02*
X438752Y39148D01*
Y34741D01*
X442400Y34741D01*
X442788Y34759D01*
X442955Y34778D01*
X443103Y34796D01*
X443122D01*
X443196Y34815D01*
X443307Y34833D01*
X443437Y34870D01*
X443751Y34981D01*
X444066Y35129D01*
X444085Y35148D01*
X444140Y35185D01*
X444214Y35240D01*
X444307Y35315D01*
X444399Y35426D01*
X444529Y35537D01*
X444622Y35685D01*
X444733Y35852D01*
X444751Y35870D01*
X444770Y35926D01*
X444807Y36037D01*
X444862Y36166D01*
X444918Y36314D01*
X444955Y36500D01*
X444973Y36722D01*
X444992Y36944D01*
Y36981D01*
Y37055D01*
X444973Y37203D01*
X444936Y37370D01*
X444899Y37555D01*
X444825Y37759D01*
X444733Y37963D01*
X444603Y38166D01*
X444585Y38185D01*
X444529Y38259D01*
X444455Y38351D01*
X444344Y38462D01*
X444196Y38592D01*
X444011Y38722D01*
X443807Y38833D01*
X443566Y38925D01*
X443529Y38944D01*
X443455Y38962D01*
X443288Y38999D01*
X443085Y39036D01*
X442826Y39074D01*
X442511Y39111D01*
X442122Y39148D01*
D02*
G37*
G36*
X454676Y44795D02*
X454509D01*
X454380Y44777D01*
X454213Y44758D01*
X454047Y44721D01*
X453843Y44684D01*
X453621Y44647D01*
X453139Y44499D01*
X452880Y44388D01*
X452621Y44277D01*
X452343Y44128D01*
X452084Y43962D01*
X451824Y43777D01*
X451584Y43555D01*
X451565Y43536D01*
X451528Y43499D01*
X451473Y43425D01*
X451380Y43314D01*
X451287Y43184D01*
X451176Y43018D01*
X451065Y42814D01*
X450936Y42573D01*
X450825Y42314D01*
X450695Y41999D01*
X450584Y41666D01*
X450491Y41295D01*
X450399Y40888D01*
X450343Y40425D01*
X450306Y39944D01*
X450288Y39425D01*
Y39407D01*
Y39333D01*
Y39203D01*
X450306Y39036D01*
X450325Y38851D01*
X450362Y38629D01*
X450399Y38370D01*
X450436Y38111D01*
X450584Y37518D01*
X450695Y37222D01*
X450806Y36907D01*
X450954Y36611D01*
X451121Y36314D01*
X451306Y36037D01*
X451528Y35777D01*
X451547Y35759D01*
X451584Y35722D01*
X451658Y35648D01*
X451750Y35574D01*
X451880Y35463D01*
X452028Y35352D01*
X452195Y35240D01*
X452380Y35111D01*
X452602Y34981D01*
X452843Y34870D01*
X453102Y34759D01*
X453380Y34648D01*
X453676Y34574D01*
X453972Y34500D01*
X454306Y34463D01*
X454658Y34444D01*
X454750D01*
X454843Y34463D01*
X454972D01*
X455139Y34481D01*
X455324Y34518D01*
X455546Y34555D01*
X455769Y34611D01*
X456028Y34685D01*
X456269Y34778D01*
X456546Y34870D01*
X456805Y35000D01*
X457065Y35166D01*
X457324Y35333D01*
X457583Y35537D01*
X457824Y35777D01*
X457842Y35796D01*
X457879Y35833D01*
X457935Y35926D01*
X458028Y36037D01*
X458120Y36166D01*
X458213Y36333D01*
X458324Y36537D01*
X458453Y36759D01*
X458565Y37018D01*
X458676Y37314D01*
X458768Y37629D01*
X458879Y37963D01*
X458953Y38333D01*
X459009Y38740D01*
X459046Y39166D01*
X459064Y39611D01*
Y39629D01*
Y39685D01*
Y39759D01*
Y39870D01*
X459046Y39999D01*
Y40166D01*
X459027Y40333D01*
X458990Y40536D01*
X458935Y40962D01*
X458842Y41407D01*
X458713Y41888D01*
X458527Y42332D01*
Y42351D01*
X458509Y42388D01*
X458472Y42443D01*
X458435Y42518D01*
X458305Y42740D01*
X458139Y42999D01*
X457916Y43295D01*
X457639Y43591D01*
X457324Y43888D01*
X456972Y44147D01*
X456954D01*
X456935Y44184D01*
X456880Y44203D01*
X456787Y44258D01*
X456694Y44295D01*
X456583Y44351D01*
X456306Y44480D01*
X455972Y44591D01*
X455583Y44703D01*
X455139Y44777D01*
X454676Y44795D01*
D02*
G37*
G36*
X384906Y44795D02*
X384794D01*
X384720Y44777D01*
X384517Y44739D01*
X384276Y44684D01*
X383998Y44573D01*
X383702Y44406D01*
X383554Y44295D01*
X383406Y44184D01*
X383276Y44036D01*
X383147Y43869D01*
Y43851D01*
X383109Y43814D01*
X383072Y43740D01*
X383017Y43647D01*
X382961Y43499D01*
X382887Y43332D01*
X382832Y43129D01*
X382758Y42888D01*
X382683Y42610D01*
X382609Y42295D01*
X382535Y41943D01*
X382480Y41555D01*
X382424Y41110D01*
X382387Y40629D01*
X382369Y40110D01*
X382350Y39536D01*
Y39499D01*
Y39407D01*
Y39240D01*
X382369Y39018D01*
Y38777D01*
X382387Y38481D01*
X382406Y38166D01*
X382443Y37833D01*
X382535Y37111D01*
X382591Y36759D01*
X382665Y36426D01*
X382739Y36111D01*
X382850Y35814D01*
X382961Y35555D01*
X383091Y35333D01*
Y35315D01*
X383128Y35296D01*
X383220Y35166D01*
X383387Y35000D01*
X383591Y34815D01*
X383869Y34629D01*
X384183Y34463D01*
X384535Y34333D01*
X384720Y34315D01*
X384924Y34296D01*
X385035D01*
X385109Y34315D01*
X385294Y34352D01*
X385554Y34426D01*
X385831Y34555D01*
X386146Y34741D01*
X386294Y34852D01*
X386442Y35000D01*
X386590Y35148D01*
X386739Y35333D01*
Y35352D01*
X386776Y35389D01*
X386813Y35444D01*
X386850Y35537D01*
X386924Y35666D01*
X386979Y35833D01*
X387053Y36018D01*
X387127Y36240D01*
X387183Y36518D01*
X387257Y36814D01*
X387331Y37166D01*
X387387Y37537D01*
X387424Y37981D01*
X387461Y38444D01*
X387498Y38962D01*
Y39536D01*
Y39555D01*
Y39573D01*
Y39666D01*
Y39833D01*
X387479Y40055D01*
Y40296D01*
X387461Y40592D01*
X387442Y40907D01*
X387405Y41258D01*
X387313Y41962D01*
X387257Y42314D01*
X387183Y42647D01*
X387109Y42962D01*
X386998Y43258D01*
X386887Y43517D01*
X386757Y43740D01*
Y43758D01*
X386720Y43777D01*
X386683Y43832D01*
X386628Y43906D01*
X386461Y44073D01*
X386257Y44277D01*
X385979Y44462D01*
X385665Y44628D01*
X385498Y44703D01*
X385313Y44758D01*
X385109Y44777D01*
X384906Y44795D01*
D02*
G37*
G36*
X468563Y63686D02*
X464897D01*
Y59113D01*
X468341D01*
X468471Y59131D01*
X468601D01*
X468749Y59150D01*
X469100Y59187D01*
X469489Y59261D01*
X469878Y59372D01*
X470230Y59520D01*
X470397Y59612D01*
X470526Y59724D01*
X470563Y59761D01*
X470637Y59835D01*
X470748Y59983D01*
X470878Y60168D01*
X471008Y60409D01*
X471119Y60705D01*
X471193Y61038D01*
X471230Y61427D01*
Y61446D01*
Y61464D01*
Y61557D01*
X471211Y61723D01*
X471174Y61909D01*
X471137Y62112D01*
X471063Y62353D01*
X470952Y62575D01*
X470823Y62797D01*
X470804Y62816D01*
X470748Y62890D01*
X470656Y62983D01*
X470545Y63112D01*
X470378Y63242D01*
X470193Y63353D01*
X469989Y63464D01*
X469749Y63557D01*
X469730D01*
X469656Y63575D01*
X469545Y63594D01*
X469397Y63631D01*
X469175Y63649D01*
X468897Y63668D01*
X468563Y63686D01*
D02*
G37*
G36*
X454880Y63964D02*
X454713D01*
X454584Y63945D01*
X454417Y63927D01*
X454250Y63890D01*
X454047Y63853D01*
X453824Y63816D01*
X453343Y63668D01*
X453084Y63557D01*
X452824Y63446D01*
X452547Y63297D01*
X452287Y63131D01*
X452028Y62945D01*
X451787Y62723D01*
X451769Y62705D01*
X451732Y62668D01*
X451676Y62594D01*
X451584Y62483D01*
X451491Y62353D01*
X451380Y62186D01*
X451269Y61983D01*
X451139Y61742D01*
X451028Y61483D01*
X450899Y61168D01*
X450788Y60835D01*
X450695Y60464D01*
X450602Y60057D01*
X450547Y59594D01*
X450510Y59113D01*
X450491Y58594D01*
Y58576D01*
Y58502D01*
Y58372D01*
X450510Y58205D01*
X450528Y58020D01*
X450565Y57798D01*
X450602Y57539D01*
X450639Y57279D01*
X450788Y56687D01*
X450899Y56391D01*
X451010Y56076D01*
X451158Y55780D01*
X451325Y55483D01*
X451510Y55206D01*
X451732Y54946D01*
X451750Y54928D01*
X451787Y54891D01*
X451862Y54817D01*
X451954Y54743D01*
X452084Y54632D01*
X452232Y54521D01*
X452398Y54409D01*
X452584Y54280D01*
X452806Y54150D01*
X453047Y54039D01*
X453306Y53928D01*
X453584Y53817D01*
X453880Y53743D01*
X454176Y53669D01*
X454509Y53632D01*
X454861Y53613D01*
X454954D01*
X455046Y53632D01*
X455176D01*
X455343Y53650D01*
X455528Y53687D01*
X455750Y53724D01*
X455972Y53780D01*
X456231Y53854D01*
X456472Y53946D01*
X456750Y54039D01*
X457009Y54169D01*
X457268Y54335D01*
X457528Y54502D01*
X457787Y54706D01*
X458028Y54946D01*
X458046Y54965D01*
X458083Y55002D01*
X458139Y55094D01*
X458231Y55206D01*
X458324Y55335D01*
X458416Y55502D01*
X458527Y55705D01*
X458657Y55928D01*
X458768Y56187D01*
X458879Y56483D01*
X458972Y56798D01*
X459083Y57131D01*
X459157Y57502D01*
X459213Y57909D01*
X459250Y58335D01*
X459268Y58779D01*
Y58798D01*
Y58853D01*
Y58927D01*
Y59039D01*
X459250Y59168D01*
Y59335D01*
X459231Y59501D01*
X459194Y59705D01*
X459139Y60131D01*
X459046Y60575D01*
X458916Y61057D01*
X458731Y61501D01*
Y61520D01*
X458713Y61557D01*
X458676Y61612D01*
X458639Y61686D01*
X458509Y61909D01*
X458342Y62168D01*
X458120Y62464D01*
X457842Y62760D01*
X457528Y63057D01*
X457176Y63316D01*
X457157D01*
X457139Y63353D01*
X457083Y63371D01*
X456991Y63427D01*
X456898Y63464D01*
X456787Y63520D01*
X456509Y63649D01*
X456176Y63760D01*
X455787Y63871D01*
X455343Y63945D01*
X454880Y63964D01*
D02*
G37*
G36*
X371166Y63964D02*
X371055D01*
X370981Y63945D01*
X370777Y63908D01*
X370537Y63853D01*
X370259Y63742D01*
X369963Y63575D01*
X369814Y63464D01*
X369666Y63353D01*
X369537Y63205D01*
X369407Y63038D01*
Y63020D01*
X369370Y62983D01*
X369333Y62909D01*
X369277Y62816D01*
X369222Y62668D01*
X369148Y62501D01*
X369092Y62297D01*
X369018Y62057D01*
X368944Y61779D01*
X368870Y61464D01*
X368796Y61112D01*
X368741Y60724D01*
X368685Y60279D01*
X368648Y59798D01*
X368629Y59279D01*
X368611Y58705D01*
Y58668D01*
Y58576D01*
Y58409D01*
X368629Y58187D01*
Y57946D01*
X368648Y57650D01*
X368666Y57335D01*
X368703Y57002D01*
X368796Y56280D01*
X368852Y55928D01*
X368926Y55594D01*
X369000Y55280D01*
X369111Y54983D01*
X369222Y54724D01*
X369352Y54502D01*
Y54483D01*
X369389Y54465D01*
X369481Y54335D01*
X369648Y54169D01*
X369851Y53983D01*
X370129Y53798D01*
X370444Y53632D01*
X370796Y53502D01*
X370981Y53484D01*
X371185Y53465D01*
X371296D01*
X371370Y53484D01*
X371555Y53520D01*
X371814Y53595D01*
X372092Y53724D01*
X372407Y53909D01*
X372555Y54021D01*
X372703Y54169D01*
X372851Y54317D01*
X372999Y54502D01*
Y54520D01*
X373036Y54557D01*
X373073Y54613D01*
X373111Y54706D01*
X373185Y54835D01*
X373240Y55002D01*
X373314Y55187D01*
X373388Y55409D01*
X373444Y55687D01*
X373518Y55983D01*
X373592Y56335D01*
X373647Y56705D01*
X373685Y57150D01*
X373722Y57613D01*
X373759Y58131D01*
Y58705D01*
Y58724D01*
Y58742D01*
Y58835D01*
Y59001D01*
X373740Y59224D01*
Y59464D01*
X373722Y59761D01*
X373703Y60075D01*
X373666Y60427D01*
X373573Y61131D01*
X373518Y61483D01*
X373444Y61816D01*
X373370Y62131D01*
X373259Y62427D01*
X373148Y62686D01*
X373018Y62909D01*
Y62927D01*
X372981Y62945D01*
X372944Y63001D01*
X372888Y63075D01*
X372722Y63242D01*
X372518Y63445D01*
X372240Y63631D01*
X371925Y63797D01*
X371759Y63871D01*
X371574Y63927D01*
X371370Y63945D01*
X371166Y63964D01*
D02*
G37*
G36*
X139590Y65339D02*
X139266D01*
X139007Y65275D01*
X138359Y65145D01*
X137517Y64951D01*
X136545Y64562D01*
X135508Y63979D01*
X134925Y63590D01*
X134407Y63136D01*
X133888Y62618D01*
X133370Y62035D01*
Y61970D01*
X133240Y61905D01*
X133111Y61711D01*
X132981Y61452D01*
X132787Y61063D01*
X132528Y60674D01*
X132268Y60156D01*
X132074Y59637D01*
X131815Y58990D01*
X131556Y58277D01*
X131361Y57499D01*
X131102Y56657D01*
X130972Y55685D01*
X130843Y54713D01*
X130713Y53676D01*
Y52510D01*
Y52445D01*
Y52251D01*
Y51927D01*
X130778Y51473D01*
Y50955D01*
X130843Y50372D01*
X131037Y49011D01*
X131361Y47456D01*
X131750Y45966D01*
X132398Y44475D01*
X132787Y43827D01*
X133240Y43244D01*
X133370Y43115D01*
X133694Y42791D01*
X134212Y42272D01*
X134925Y41754D01*
X135832Y41236D01*
X136869Y40717D01*
X138035Y40393D01*
X138683Y40328D01*
X139331Y40264D01*
X139720D01*
X139979Y40328D01*
X140627Y40458D01*
X141534Y40652D01*
X142506Y41041D01*
X143543Y41560D01*
X144579Y42337D01*
X145098Y42791D01*
X145616Y43309D01*
Y43374D01*
X145746Y43439D01*
X145875Y43633D01*
X146005Y43892D01*
X146264Y44216D01*
X146459Y44670D01*
X146718Y45123D01*
X146977Y45707D01*
X147171Y46290D01*
X147430Y47067D01*
X147690Y47845D01*
X147884Y48687D01*
X148014Y49659D01*
X148143Y50696D01*
X148273Y51797D01*
Y52964D01*
Y53028D01*
Y53223D01*
Y53547D01*
X148208Y54000D01*
Y54519D01*
X148143Y55102D01*
X147949Y56462D01*
X147625Y57953D01*
X147171Y59443D01*
X146523Y60933D01*
X146135Y61646D01*
X145681Y62229D01*
Y62294D01*
X145551Y62359D01*
X145227Y62748D01*
X144709Y63201D01*
X143996Y63784D01*
X143089Y64368D01*
X142052Y64886D01*
X140886Y65210D01*
X140238Y65275D01*
X139590Y65339D01*
D02*
G37*
G36*
X89503Y72337D02*
X75378Y52251D01*
X89503D01*
Y72337D01*
D02*
G37*
%LPD*%
D10*
X475000Y15000D02*
G03*
X485000Y25000I0J10000D01*
G01*
X355000Y25000D02*
G03*
X365000Y15000I10000J0D01*
G01*
X485000Y75000D02*
G03*
X475000Y85000I-10000J0D01*
G01*
X365000D02*
G03*
X355000Y75000I0J-10000D01*
G01*
Y25000D02*
Y75000D01*
X365000Y15000D02*
X475000D01*
X365000Y85000D02*
X475000D01*
X485000Y25000D02*
Y75000D01*
X355000Y25000D02*
X355000D01*
D11*
X260000Y43000D02*
X265000D01*
M02*
