G04*
G04 #@! TF.GenerationSoftware,Altium Limited,Altium Designer,23.5.1 (21)*
G04*
G04 Layer_Color=65535*
%FSLAX44Y44*%
%MOMM*%
G71*
G04*
G04 #@! TF.SameCoordinates,34F56F4F-A135-4B17-BADB-48D754938E37*
G04*
G04*
G04 #@! TF.FilePolarity,Positive*
G04*
G01*
G75*
%ADD10C,0.2000*%
%ADD11C,0.1000*%
G36*
X485682Y158849D02*
X486144Y158618D01*
X486376Y157692D01*
Y153757D01*
Y153525D01*
X486144Y152831D01*
X485913Y152137D01*
X484987Y151905D01*
X475034D01*
X474803Y152137D01*
X474340D01*
X474108Y151905D01*
Y151674D01*
X473877Y151442D01*
Y151211D01*
Y150748D01*
Y149591D01*
Y147970D01*
Y146581D01*
Y145193D01*
Y143572D01*
Y141489D01*
Y139174D01*
Y136628D01*
Y133619D01*
Y130379D01*
Y108852D01*
Y108620D01*
X473645Y108157D01*
X473182Y107694D01*
X472256Y107463D01*
X468090D01*
X467627Y107694D01*
X467164Y108157D01*
X466932Y108852D01*
Y151442D01*
Y151674D01*
X466701Y151905D01*
X466470Y152137D01*
Y151905D01*
X456516D01*
X456053Y152137D01*
X455359Y152600D01*
X455127Y153757D01*
Y157692D01*
Y157923D01*
X455359Y158386D01*
X455822Y158849D01*
X456748Y159081D01*
X485219D01*
X485682Y158849D01*
D02*
G37*
G36*
X141948D02*
X142411Y158618D01*
X142643Y157692D01*
Y153757D01*
Y153525D01*
X142411Y152831D01*
X142180Y152137D01*
X141254Y151905D01*
X131301D01*
X130838Y152137D01*
X130375D01*
Y151905D01*
X130606Y151674D01*
Y151442D01*
Y151211D01*
Y150748D01*
Y149591D01*
Y147970D01*
Y146581D01*
Y145193D01*
Y143572D01*
Y141489D01*
Y139174D01*
Y136628D01*
Y133619D01*
Y130379D01*
Y108852D01*
Y108620D01*
X130375Y108157D01*
X129912Y107694D01*
X128986Y107463D01*
X124357D01*
X123894Y107694D01*
X123431Y108157D01*
X123199Y108852D01*
Y151442D01*
Y151674D01*
Y151905D01*
Y152137D01*
X122968D01*
X122736Y151905D01*
X113246D01*
X112552Y152137D01*
X111626Y152600D01*
X111394Y153757D01*
Y157692D01*
Y157923D01*
X111626Y158386D01*
X112320Y158849D01*
X113477Y159081D01*
X141485D01*
X141948Y158849D01*
D02*
G37*
G36*
X277590Y159312D02*
X279210Y159081D01*
X281062Y158618D01*
X282914Y157923D01*
X284997Y156998D01*
X286849Y155609D01*
X287080Y155377D01*
X287543Y154914D01*
X288469Y153988D01*
X289395Y153063D01*
X290321Y151442D01*
X291247Y149822D01*
X291710Y147739D01*
X292173Y145424D01*
Y143572D01*
Y143341D01*
X291941Y142878D01*
X291710Y142184D01*
X290784Y141952D01*
X286154D01*
X285691Y142184D01*
X284997Y142646D01*
X284765Y143572D01*
Y144498D01*
Y144730D01*
Y145193D01*
X284534Y145887D01*
X284303Y146813D01*
X283377Y148665D01*
X281756Y150516D01*
X281293Y150979D01*
X280136Y151674D01*
X278284Y152368D01*
X275970Y152831D01*
X274118D01*
X273192Y152600D01*
X271109Y151905D01*
X268794Y150516D01*
X268331Y150053D01*
X267405Y149128D01*
X266479Y147276D01*
X265785Y144961D01*
Y144730D01*
Y144498D01*
X265553Y143109D01*
Y140795D01*
Y138017D01*
X265322Y134545D01*
Y130841D01*
X265553Y126675D01*
X265785Y122508D01*
Y122277D01*
X266016Y121814D01*
Y121120D01*
X266248Y120194D01*
X267174Y118111D01*
X268794Y116259D01*
X269025D01*
X269257Y116027D01*
X270646Y115333D01*
X272729Y114407D01*
X275275Y114176D01*
X275970D01*
X276664Y114407D01*
X277358D01*
X279442Y115101D01*
X281525Y116259D01*
X281756D01*
X281988Y116722D01*
X282914Y117879D01*
X284071Y119962D01*
X284765Y122508D01*
Y123897D01*
Y124129D01*
X284997Y124823D01*
X285460Y125286D01*
X286386Y125518D01*
X291015D01*
X291478Y125286D01*
X291941Y124823D01*
X292173Y123897D01*
Y122046D01*
Y121814D01*
X291941Y121120D01*
X291710Y119731D01*
X291478Y118342D01*
X290784Y116722D01*
X289858Y114870D01*
X288701Y113018D01*
X287080Y111398D01*
X286849Y111166D01*
X286154Y110703D01*
X285228Y110009D01*
X283840Y109315D01*
X282219Y108389D01*
X280368Y107694D01*
X278053Y107232D01*
X275507Y107000D01*
X274349D01*
X273192Y107232D01*
X271572Y107463D01*
X269720Y108157D01*
X267637Y108852D01*
X265785Y110009D01*
X263702Y111398D01*
X263470Y111629D01*
X263007Y112092D01*
X262081Y113018D01*
X261155Y114407D01*
X260230Y116027D01*
X259304Y117648D01*
X258841Y119731D01*
X258378Y122046D01*
Y122277D01*
Y122508D01*
Y123203D01*
Y123897D01*
Y126212D01*
X258146Y129221D01*
Y132462D01*
Y136397D01*
Y140332D01*
X258378Y144498D01*
Y144730D01*
X258609Y145655D01*
X258841Y146813D01*
X259304Y148202D01*
X259998Y149822D01*
X260924Y151674D01*
X262081Y153525D01*
X263702Y155146D01*
X263933Y155377D01*
X264628Y155840D01*
X265553Y156535D01*
X267174Y157460D01*
X268794Y158155D01*
X270646Y158849D01*
X272960Y159312D01*
X275275Y159544D01*
X276432D01*
X277590Y159312D01*
D02*
G37*
G36*
X92182Y158849D02*
X92645Y158618D01*
X92877Y157692D01*
Y108852D01*
Y108620D01*
X92645Y108157D01*
X92414Y107694D01*
X91488Y107463D01*
X85007D01*
X84544Y107694D01*
X84081Y107926D01*
X83618Y108389D01*
X69035Y144961D01*
X69267D01*
X69035Y145193D01*
X68572D01*
X68109Y144961D01*
Y108389D01*
Y108157D01*
X67878Y107694D01*
X67415Y107232D01*
X66489Y107000D01*
X63017D01*
X62554Y107232D01*
X61860Y107694D01*
X61628Y108389D01*
Y157229D01*
Y157460D01*
X61860Y157923D01*
X62323Y158386D01*
X63249Y158618D01*
X69730D01*
X70193Y158155D01*
X70424Y157692D01*
X85238Y121120D01*
X85701Y120888D01*
X86396D01*
X86627Y121120D01*
Y157692D01*
Y157923D01*
X86858Y158386D01*
X87321Y158849D01*
X88016Y159081D01*
X91719D01*
X92182Y158849D01*
D02*
G37*
G36*
X329671Y159312D02*
X331291Y159081D01*
X332911Y158618D01*
X334995Y157923D01*
X336846Y156998D01*
X338467Y155609D01*
X338698Y155377D01*
X339161Y154914D01*
X339855Y153988D01*
X340781Y153063D01*
X341707Y151442D01*
X342633Y149822D01*
X343559Y147739D01*
X344022Y145424D01*
Y145193D01*
Y144498D01*
Y143572D01*
X343790Y142415D01*
X343096Y139637D01*
X341707Y136628D01*
Y136397D01*
X341244Y135934D01*
X340087Y134545D01*
X338004Y132462D01*
X335226Y130841D01*
X334763Y130610D01*
X334069Y129916D01*
X333606Y129221D01*
X333837Y128758D01*
X334069Y128295D01*
X342864Y109778D01*
Y109546D01*
Y109315D01*
X342633Y108620D01*
X341939Y107926D01*
X341707Y107694D01*
X341476D01*
X341013Y107926D01*
X336846D01*
X336152Y108157D01*
X335457Y108620D01*
X335226Y109315D01*
X326430Y127832D01*
X326199Y128064D01*
X325736Y128527D01*
X324810Y128990D01*
X320875Y128295D01*
X320643Y128064D01*
X320180Y127832D01*
X319949D01*
Y109315D01*
Y109083D01*
X319718Y108620D01*
X319486Y108157D01*
X318560Y107926D01*
X313931D01*
X313468Y108157D01*
X313005Y108620D01*
X312773Y109315D01*
Y158155D01*
Y158386D01*
X313005Y158849D01*
X313468Y159312D01*
X314162Y159544D01*
X328513D01*
X329671Y159312D01*
D02*
G37*
G36*
X226203D02*
X227592Y159081D01*
X229213Y158618D01*
X231064Y157923D01*
X232916Y156998D01*
X234768Y155609D01*
X234999Y155377D01*
X235462Y154914D01*
X236157Y153988D01*
X237083Y153063D01*
X238008Y151442D01*
X238934Y149822D01*
X239629Y147739D01*
X239860Y145424D01*
Y145193D01*
Y144498D01*
Y143572D01*
Y142415D01*
X239166Y139637D01*
X238703Y138249D01*
X237777Y136628D01*
Y136397D01*
X237314Y135934D01*
X236157Y134545D01*
X234074Y132462D01*
X231064Y130841D01*
X230833Y130610D01*
X230138Y129916D01*
X229676Y129221D01*
Y128758D01*
X230138Y128295D01*
X238934Y109778D01*
X239166Y109546D01*
Y109315D01*
Y108620D01*
X238471Y107926D01*
X238240Y107694D01*
X238008D01*
X237546Y107926D01*
X233379D01*
X232685Y108157D01*
X231990Y108620D01*
X231527Y109315D01*
X223194Y127832D01*
X222963Y128064D01*
X221806Y128990D01*
X216945Y128295D01*
X216713Y128064D01*
X216250Y127832D01*
X216019D01*
Y109315D01*
Y109083D01*
X215787Y108620D01*
X215556Y108157D01*
X214630Y107926D01*
X210464D01*
X210001Y108157D01*
X209306Y108620D01*
X209075Y109315D01*
Y158155D01*
Y158386D01*
X209306Y158849D01*
X209769Y159312D01*
X210695Y159544D01*
X225046D01*
X226203Y159312D01*
D02*
G37*
G36*
X530124Y158849D02*
X530587Y158618D01*
X530818Y157692D01*
Y153757D01*
Y153525D01*
X530587Y152831D01*
X530355Y152137D01*
X529430Y151905D01*
X512069D01*
X511838Y151674D01*
Y151442D01*
Y138249D01*
X512069Y138017D01*
X512301Y137786D01*
Y137554D01*
X529198D01*
X529661Y137323D01*
X530124Y137091D01*
X530355Y136165D01*
Y132230D01*
Y131999D01*
X530124Y131536D01*
X529892Y131073D01*
X528966Y130841D01*
X512301D01*
X512069Y130610D01*
X511838Y130379D01*
X511375Y115101D01*
Y114870D01*
Y114639D01*
X511606Y114407D01*
X511838D01*
X512069Y114639D01*
X530124D01*
X531050Y114407D01*
X531744Y114176D01*
X531976Y113250D01*
Y108852D01*
Y108620D01*
X531744Y108157D01*
X531050Y107694D01*
X529892Y107463D01*
X505820D01*
X505125Y107694D01*
X504199Y108157D01*
X503968Y108852D01*
Y157692D01*
Y157923D01*
X504199Y158386D01*
X504894Y158849D01*
X506051Y159081D01*
X529661D01*
X530124Y158849D01*
D02*
G37*
G36*
X428971Y158618D02*
X429434Y158155D01*
X443091Y108852D01*
Y108620D01*
X442860Y108389D01*
X442397Y107926D01*
X441471Y107463D01*
X437536D01*
X437073Y107694D01*
X436379Y107926D01*
X435684Y108389D01*
X432212Y119499D01*
Y119731D01*
X431981Y120194D01*
X431518Y120425D01*
X430823Y120657D01*
X418555D01*
X418324Y120425D01*
X417861Y120194D01*
X417166Y119499D01*
X414157Y108389D01*
Y108157D01*
X413926Y107926D01*
X413694Y107694D01*
X412769Y107463D01*
X408139D01*
X407676Y107926D01*
X407213Y108157D01*
X406982Y108852D01*
X421101Y158155D01*
Y158386D01*
X421333Y158618D01*
X421796Y158849D01*
X422490Y159081D01*
X428508D01*
X428971Y158618D01*
D02*
G37*
G36*
X389159Y158849D02*
X389622Y158618D01*
X389853Y157692D01*
Y153757D01*
Y153525D01*
X389622Y152831D01*
X389159Y152137D01*
X388233Y151905D01*
X370872D01*
X369715Y151442D01*
Y138249D01*
Y138017D01*
Y137786D01*
X369947Y137554D01*
X387075D01*
X387538Y137323D01*
X388001Y137091D01*
X388233Y136165D01*
Y132230D01*
Y131999D01*
X388001Y131536D01*
X387770Y131073D01*
X386844Y130841D01*
X369947D01*
X369715Y130610D01*
Y130379D01*
Y115101D01*
X370872D01*
Y114870D01*
Y114639D01*
Y114407D01*
X371104D01*
X371335Y114639D01*
X389159D01*
X389622Y114407D01*
X390084Y114176D01*
X390316Y113250D01*
Y108852D01*
Y108620D01*
X390084Y108157D01*
X389853Y107694D01*
X388927Y107463D01*
X364160D01*
X363697Y107694D01*
X363234Y108157D01*
X363002Y108852D01*
Y157692D01*
Y157923D01*
X363234Y158386D01*
X363697Y158849D01*
X364391Y159081D01*
X388464D01*
X389159Y158849D01*
D02*
G37*
G36*
X187548D02*
X188011Y158618D01*
X188242Y157692D01*
Y153757D01*
Y153525D01*
X188011Y152831D01*
X187548Y152137D01*
X186622Y151905D01*
X169030D01*
X168104Y151442D01*
Y138249D01*
Y138017D01*
Y137786D01*
X168336Y137554D01*
X185465D01*
X185928Y137323D01*
X186391Y137091D01*
X186622Y136165D01*
Y132230D01*
Y131999D01*
X186391Y131536D01*
X186159Y131073D01*
X185233Y130841D01*
X168567D01*
X167642Y130379D01*
Y115101D01*
X168567D01*
Y114870D01*
Y114639D01*
Y114407D01*
X168799D01*
X169030Y114639D01*
X186854D01*
X187548Y114407D01*
X188011Y114176D01*
X188242Y113250D01*
Y108852D01*
Y108620D01*
X188011Y108157D01*
X187548Y107694D01*
X186622Y107463D01*
X162549D01*
X162086Y107694D01*
X161623Y108157D01*
X161392Y108852D01*
Y157692D01*
Y157923D01*
X161623Y158386D01*
X162086Y158849D01*
X162781Y159081D01*
X186854D01*
X187548Y158849D01*
D02*
G37*
G36*
X38018D02*
X38481Y158618D01*
X38713Y157692D01*
Y108852D01*
Y108620D01*
X38481Y108157D01*
X38250Y107694D01*
X37324Y107463D01*
X33157D01*
X32463Y107694D01*
X32000Y108157D01*
Y108852D01*
Y157692D01*
Y157923D01*
Y158386D01*
X32463Y158849D01*
X33389Y159081D01*
X37555D01*
X38018Y158849D01*
D02*
G37*
G36*
X264625Y56625D02*
X264722Y56618D01*
X264840Y56611D01*
X264972Y56590D01*
X265124Y56569D01*
X265284Y56535D01*
X265457Y56493D01*
X265630Y56444D01*
X265818Y56382D01*
X265998Y56306D01*
X266178Y56216D01*
X266352Y56118D01*
X266518Y56001D01*
X266677Y55862D01*
X266684Y55855D01*
X266712Y55827D01*
X266754Y55786D01*
X266802Y55723D01*
X266865Y55654D01*
X266934Y55564D01*
X267010Y55460D01*
X267087Y55342D01*
X267156Y55210D01*
X267232Y55065D01*
X267302Y54905D01*
X267364Y54739D01*
X267412Y54558D01*
X267454Y54371D01*
X267482Y54170D01*
X267489Y53962D01*
Y53955D01*
Y53934D01*
Y53906D01*
Y53865D01*
X267482Y53809D01*
X267475Y53754D01*
X267468Y53685D01*
X267461Y53608D01*
X267433Y53435D01*
X267392Y53241D01*
X267329Y53040D01*
X267253Y52832D01*
Y52825D01*
X267239Y52804D01*
X267225Y52776D01*
X267204Y52735D01*
X267184Y52686D01*
X267149Y52624D01*
X267114Y52554D01*
X267066Y52478D01*
X267017Y52395D01*
X266962Y52305D01*
X266823Y52104D01*
X266747Y52000D01*
X266664Y51889D01*
X266567Y51778D01*
X266469Y51660D01*
X266462Y51653D01*
X266442Y51632D01*
X266414Y51597D01*
X266365Y51549D01*
X266303Y51486D01*
X266227Y51410D01*
X266143Y51320D01*
X266040Y51216D01*
X265922Y51105D01*
X265783Y50980D01*
X265637Y50842D01*
X265471Y50689D01*
X265291Y50529D01*
X265096Y50356D01*
X264881Y50169D01*
X264653Y49975D01*
X264639Y49968D01*
X264604Y49933D01*
X264556Y49892D01*
X264486Y49829D01*
X264396Y49760D01*
X264306Y49677D01*
X264202Y49587D01*
X264091Y49489D01*
X263855Y49288D01*
X263744Y49184D01*
X263633Y49087D01*
X263529Y48990D01*
X263439Y48907D01*
X263356Y48831D01*
X263293Y48761D01*
X263280Y48747D01*
X263245Y48706D01*
X263190Y48643D01*
X263120Y48567D01*
X263044Y48470D01*
X262961Y48366D01*
X262878Y48248D01*
X262801Y48130D01*
X267503D01*
Y47000D01*
X261165D01*
Y47007D01*
Y47021D01*
Y47042D01*
Y47069D01*
Y47111D01*
X261172Y47153D01*
X261179Y47263D01*
X261192Y47381D01*
X261213Y47520D01*
X261248Y47666D01*
X261297Y47811D01*
Y47818D01*
X261310Y47839D01*
X261324Y47874D01*
X261345Y47922D01*
X261366Y47985D01*
X261401Y48054D01*
X261442Y48130D01*
X261484Y48214D01*
X261532Y48311D01*
X261595Y48408D01*
X261726Y48623D01*
X261886Y48851D01*
X262073Y49087D01*
X262080Y49094D01*
X262101Y49115D01*
X262129Y49150D01*
X262170Y49198D01*
X262226Y49261D01*
X262295Y49330D01*
X262371Y49413D01*
X262468Y49503D01*
X262572Y49607D01*
X262683Y49718D01*
X262808Y49836D01*
X262947Y49968D01*
X263099Y50100D01*
X263259Y50238D01*
X263432Y50384D01*
X263612Y50536D01*
X263619Y50543D01*
X263633Y50550D01*
X263654Y50571D01*
X263682Y50592D01*
X263717Y50627D01*
X263758Y50661D01*
X263862Y50751D01*
X263994Y50855D01*
X264133Y50987D01*
X264292Y51126D01*
X264459Y51278D01*
X264639Y51438D01*
X264812Y51604D01*
X264992Y51771D01*
X265159Y51944D01*
X265325Y52111D01*
X265471Y52270D01*
X265610Y52429D01*
X265721Y52575D01*
X265727Y52582D01*
X265741Y52610D01*
X265769Y52651D01*
X265811Y52700D01*
X265852Y52769D01*
X265894Y52846D01*
X265949Y52936D01*
X265998Y53033D01*
X266046Y53137D01*
X266102Y53248D01*
X266192Y53490D01*
X266227Y53615D01*
X266254Y53740D01*
X266268Y53865D01*
X266275Y53990D01*
Y53997D01*
Y54024D01*
Y54059D01*
X266268Y54108D01*
X266261Y54170D01*
X266248Y54239D01*
X266234Y54316D01*
X266213Y54399D01*
X266185Y54489D01*
X266150Y54586D01*
X266109Y54683D01*
X266060Y54780D01*
X266005Y54884D01*
X265935Y54981D01*
X265859Y55078D01*
X265769Y55168D01*
X265762Y55175D01*
X265748Y55189D01*
X265721Y55210D01*
X265679Y55245D01*
X265630Y55279D01*
X265568Y55321D01*
X265499Y55370D01*
X265422Y55411D01*
X265332Y55460D01*
X265235Y55501D01*
X265124Y55543D01*
X265013Y55578D01*
X264888Y55612D01*
X264757Y55633D01*
X264618Y55647D01*
X264472Y55654D01*
X264389D01*
X264334Y55647D01*
X264257Y55640D01*
X264174Y55626D01*
X264084Y55612D01*
X263980Y55592D01*
X263876Y55564D01*
X263765Y55529D01*
X263654Y55487D01*
X263536Y55439D01*
X263425Y55377D01*
X263314Y55307D01*
X263203Y55231D01*
X263106Y55141D01*
X263099Y55134D01*
X263085Y55120D01*
X263058Y55085D01*
X263030Y55051D01*
X262988Y54995D01*
X262947Y54933D01*
X262898Y54857D01*
X262857Y54773D01*
X262808Y54683D01*
X262760Y54572D01*
X262718Y54461D01*
X262676Y54336D01*
X262649Y54198D01*
X262621Y54052D01*
X262607Y53899D01*
X262600Y53733D01*
X261387Y53858D01*
Y53865D01*
Y53872D01*
X261394Y53893D01*
Y53920D01*
X261401Y53990D01*
X261421Y54080D01*
X261442Y54191D01*
X261470Y54323D01*
X261504Y54468D01*
X261546Y54621D01*
X261602Y54787D01*
X261664Y54953D01*
X261740Y55127D01*
X261830Y55300D01*
X261928Y55467D01*
X262045Y55626D01*
X262170Y55779D01*
X262316Y55917D01*
X262323Y55924D01*
X262351Y55945D01*
X262399Y55987D01*
X262461Y56028D01*
X262545Y56084D01*
X262642Y56146D01*
X262760Y56209D01*
X262891Y56278D01*
X263044Y56340D01*
X263203Y56403D01*
X263384Y56465D01*
X263578Y56521D01*
X263786Y56569D01*
X264008Y56604D01*
X264244Y56625D01*
X264493Y56632D01*
X264556D01*
X264625Y56625D01*
D02*
G37*
G36*
X275237Y56798D02*
X275307D01*
X275390Y56784D01*
X275480Y56777D01*
X275577Y56763D01*
X275688Y56743D01*
X275799Y56722D01*
X276042Y56659D01*
X276173Y56625D01*
X276298Y56576D01*
X276423Y56528D01*
X276548Y56465D01*
X276555Y56458D01*
X276576Y56451D01*
X276610Y56431D01*
X276659Y56403D01*
X276714Y56368D01*
X276777Y56326D01*
X276846Y56278D01*
X276922Y56223D01*
X277089Y56091D01*
X277255Y55931D01*
X277415Y55751D01*
X277491Y55647D01*
X277560Y55543D01*
X277567Y55536D01*
X277574Y55515D01*
X277595Y55487D01*
X277616Y55439D01*
X277644Y55390D01*
X277671Y55321D01*
X277706Y55252D01*
X277741Y55168D01*
X277768Y55078D01*
X277803Y54988D01*
X277859Y54780D01*
X277900Y54551D01*
X277907Y54433D01*
X277914Y54309D01*
Y54302D01*
Y54281D01*
Y54246D01*
X277907Y54205D01*
Y54149D01*
X277893Y54087D01*
X277886Y54011D01*
X277872Y53934D01*
X277831Y53754D01*
X277768Y53567D01*
X277734Y53470D01*
X277685Y53366D01*
X277637Y53268D01*
X277574Y53171D01*
X277567Y53165D01*
X277560Y53151D01*
X277540Y53123D01*
X277512Y53088D01*
X277477Y53047D01*
X277435Y52998D01*
X277387Y52943D01*
X277325Y52880D01*
X277262Y52818D01*
X277186Y52755D01*
X277110Y52686D01*
X277020Y52617D01*
X276922Y52554D01*
X276818Y52485D01*
X276707Y52423D01*
X276590Y52367D01*
X276597D01*
X276624Y52360D01*
X276673Y52346D01*
X276728Y52326D01*
X276805Y52305D01*
X276888Y52270D01*
X276978Y52235D01*
X277075Y52187D01*
X277179Y52138D01*
X277290Y52076D01*
X277401Y52013D01*
X277512Y51937D01*
X277616Y51854D01*
X277720Y51764D01*
X277824Y51660D01*
X277914Y51549D01*
X277921Y51542D01*
X277935Y51521D01*
X277956Y51486D01*
X277990Y51438D01*
X278025Y51375D01*
X278067Y51306D01*
X278108Y51223D01*
X278150Y51126D01*
X278191Y51015D01*
X278240Y50897D01*
X278275Y50772D01*
X278309Y50634D01*
X278344Y50488D01*
X278365Y50335D01*
X278379Y50176D01*
X278386Y50002D01*
Y49989D01*
Y49947D01*
X278379Y49878D01*
X278372Y49795D01*
X278358Y49683D01*
X278337Y49559D01*
X278309Y49420D01*
X278268Y49268D01*
X278219Y49101D01*
X278164Y48935D01*
X278087Y48754D01*
X277997Y48574D01*
X277893Y48394D01*
X277768Y48214D01*
X277623Y48040D01*
X277463Y47874D01*
X277449Y47867D01*
X277422Y47839D01*
X277373Y47790D01*
X277297Y47735D01*
X277207Y47673D01*
X277103Y47596D01*
X276971Y47520D01*
X276832Y47437D01*
X276673Y47354D01*
X276493Y47277D01*
X276305Y47201D01*
X276097Y47139D01*
X275882Y47083D01*
X275646Y47035D01*
X275404Y47007D01*
X275147Y47000D01*
X275092D01*
X275022Y47007D01*
X274939Y47014D01*
X274828Y47021D01*
X274704Y47042D01*
X274565Y47062D01*
X274412Y47097D01*
X274253Y47132D01*
X274079Y47180D01*
X273906Y47243D01*
X273726Y47319D01*
X273552Y47402D01*
X273379Y47499D01*
X273206Y47617D01*
X273046Y47749D01*
X273039Y47756D01*
X273011Y47784D01*
X272970Y47825D01*
X272914Y47888D01*
X272852Y47964D01*
X272776Y48054D01*
X272700Y48158D01*
X272616Y48276D01*
X272533Y48408D01*
X272450Y48560D01*
X272374Y48720D01*
X272297Y48893D01*
X272235Y49080D01*
X272173Y49274D01*
X272131Y49482D01*
X272103Y49704D01*
X273282Y49864D01*
Y49850D01*
X273289Y49822D01*
X273303Y49767D01*
X273324Y49697D01*
X273344Y49614D01*
X273372Y49524D01*
X273407Y49420D01*
X273441Y49309D01*
X273538Y49066D01*
X273656Y48831D01*
X273726Y48713D01*
X273802Y48602D01*
X273878Y48505D01*
X273968Y48415D01*
X273975Y48408D01*
X273989Y48394D01*
X274017Y48373D01*
X274059Y48345D01*
X274100Y48311D01*
X274163Y48276D01*
X274225Y48234D01*
X274301Y48200D01*
X274384Y48158D01*
X274475Y48116D01*
X274572Y48082D01*
X274676Y48047D01*
X274787Y48019D01*
X274905Y47998D01*
X275022Y47985D01*
X275154Y47978D01*
X275189D01*
X275237Y47985D01*
X275293D01*
X275369Y47998D01*
X275452Y48005D01*
X275543Y48026D01*
X275646Y48047D01*
X275751Y48082D01*
X275868Y48116D01*
X275986Y48165D01*
X276104Y48220D01*
X276222Y48290D01*
X276340Y48366D01*
X276451Y48449D01*
X276562Y48553D01*
X276569Y48560D01*
X276590Y48581D01*
X276617Y48609D01*
X276652Y48657D01*
X276694Y48713D01*
X276742Y48782D01*
X276798Y48858D01*
X276853Y48948D01*
X276902Y49046D01*
X276957Y49156D01*
X277006Y49268D01*
X277047Y49399D01*
X277082Y49531D01*
X277110Y49670D01*
X277130Y49822D01*
X277137Y49975D01*
Y49982D01*
Y50009D01*
Y50051D01*
X277130Y50114D01*
X277124Y50176D01*
X277110Y50259D01*
X277096Y50349D01*
X277068Y50446D01*
X277040Y50550D01*
X277006Y50661D01*
X276964Y50772D01*
X276915Y50883D01*
X276853Y50994D01*
X276777Y51105D01*
X276700Y51209D01*
X276603Y51313D01*
X276597Y51320D01*
X276583Y51334D01*
X276548Y51362D01*
X276506Y51396D01*
X276458Y51438D01*
X276395Y51480D01*
X276319Y51528D01*
X276236Y51577D01*
X276146Y51625D01*
X276042Y51674D01*
X275931Y51715D01*
X275813Y51757D01*
X275688Y51792D01*
X275549Y51819D01*
X275411Y51833D01*
X275258Y51840D01*
X275196D01*
X275126Y51833D01*
X275029Y51826D01*
X274905Y51812D01*
X274766Y51785D01*
X274606Y51757D01*
X274426Y51715D01*
X274558Y52748D01*
X274579D01*
X274599Y52741D01*
X274627D01*
X274690Y52735D01*
X274821D01*
X274870Y52741D01*
X274939Y52748D01*
X275016Y52755D01*
X275099Y52769D01*
X275196Y52783D01*
X275300Y52804D01*
X275404Y52832D01*
X275633Y52901D01*
X275751Y52943D01*
X275868Y52998D01*
X275986Y53054D01*
X276097Y53123D01*
X276104Y53130D01*
X276125Y53144D01*
X276153Y53165D01*
X276194Y53199D01*
X276236Y53241D01*
X276291Y53289D01*
X276340Y53352D01*
X276402Y53421D01*
X276458Y53504D01*
X276513Y53594D01*
X276562Y53692D01*
X276603Y53802D01*
X276645Y53920D01*
X276673Y54052D01*
X276694Y54191D01*
X276700Y54336D01*
Y54343D01*
Y54364D01*
Y54399D01*
X276694Y54447D01*
X276687Y54496D01*
X276680Y54565D01*
X276666Y54635D01*
X276645Y54711D01*
X276590Y54877D01*
X276555Y54967D01*
X276513Y55058D01*
X276465Y55148D01*
X276402Y55238D01*
X276333Y55321D01*
X276257Y55404D01*
X276250Y55411D01*
X276236Y55425D01*
X276215Y55446D01*
X276180Y55474D01*
X276132Y55501D01*
X276083Y55543D01*
X276021Y55578D01*
X275952Y55619D01*
X275875Y55661D01*
X275792Y55696D01*
X275695Y55737D01*
X275598Y55765D01*
X275487Y55793D01*
X275376Y55813D01*
X275251Y55827D01*
X275126Y55834D01*
X275057D01*
X275016Y55827D01*
X274953Y55820D01*
X274884Y55813D01*
X274807Y55799D01*
X274724Y55779D01*
X274544Y55730D01*
X274454Y55696D01*
X274357Y55647D01*
X274260Y55598D01*
X274163Y55543D01*
X274072Y55474D01*
X273982Y55397D01*
X273975Y55390D01*
X273962Y55377D01*
X273941Y55349D01*
X273906Y55314D01*
X273871Y55272D01*
X273830Y55217D01*
X273788Y55148D01*
X273740Y55078D01*
X273691Y54988D01*
X273643Y54891D01*
X273587Y54787D01*
X273545Y54669D01*
X273497Y54544D01*
X273462Y54413D01*
X273428Y54267D01*
X273400Y54108D01*
X272221Y54316D01*
Y54323D01*
Y54330D01*
X272235Y54371D01*
X272249Y54426D01*
X272270Y54510D01*
X272297Y54614D01*
X272332Y54725D01*
X272374Y54850D01*
X272422Y54988D01*
X272484Y55134D01*
X272554Y55286D01*
X272637Y55439D01*
X272727Y55592D01*
X272824Y55744D01*
X272935Y55890D01*
X273060Y56028D01*
X273199Y56153D01*
X273206Y56160D01*
X273233Y56181D01*
X273275Y56216D01*
X273337Y56257D01*
X273414Y56306D01*
X273504Y56361D01*
X273608Y56417D01*
X273726Y56479D01*
X273857Y56542D01*
X274003Y56597D01*
X274156Y56652D01*
X274322Y56701D01*
X274502Y56743D01*
X274697Y56777D01*
X274898Y56798D01*
X275106Y56805D01*
X275182D01*
X275237Y56798D01*
D02*
G37*
G36*
X288339Y50377D02*
X289636D01*
Y49295D01*
X288339D01*
Y47000D01*
X287160D01*
Y49295D01*
X283000D01*
Y50377D01*
X287375Y56597D01*
X288339D01*
Y50377D01*
D02*
G37*
G36*
X312119Y205503D02*
X313848D01*
Y204060D01*
X312119D01*
Y201000D01*
X310547D01*
Y204060D01*
X305000D01*
Y205503D01*
X310834Y213796D01*
X312119D01*
Y205503D01*
D02*
G37*
G36*
X283548Y213925D02*
X283640D01*
X283751Y213907D01*
X283871Y213898D01*
X284001Y213879D01*
X284149Y213851D01*
X284297Y213824D01*
X284620Y213740D01*
X284796Y213694D01*
X284962Y213629D01*
X285129Y213565D01*
X285295Y213482D01*
X285305Y213472D01*
X285332Y213463D01*
X285378Y213435D01*
X285443Y213398D01*
X285517Y213352D01*
X285600Y213297D01*
X285693Y213232D01*
X285795Y213158D01*
X286016Y212982D01*
X286238Y212770D01*
X286451Y212529D01*
X286553Y212391D01*
X286645Y212252D01*
X286654Y212243D01*
X286664Y212215D01*
X286691Y212178D01*
X286719Y212113D01*
X286756Y212048D01*
X286793Y211956D01*
X286839Y211864D01*
X286886Y211753D01*
X286922Y211632D01*
X286969Y211512D01*
X287043Y211235D01*
X287098Y210930D01*
X287107Y210773D01*
X287117Y210606D01*
Y210597D01*
Y210569D01*
Y210523D01*
X287107Y210467D01*
Y210394D01*
X287089Y210310D01*
X287080Y210209D01*
X287061Y210107D01*
X287006Y209867D01*
X286922Y209617D01*
X286876Y209487D01*
X286812Y209349D01*
X286747Y209219D01*
X286664Y209090D01*
X286654Y209081D01*
X286645Y209062D01*
X286617Y209025D01*
X286580Y208979D01*
X286534Y208923D01*
X286479Y208859D01*
X286414Y208785D01*
X286331Y208702D01*
X286248Y208618D01*
X286146Y208535D01*
X286044Y208443D01*
X285924Y208350D01*
X285795Y208267D01*
X285656Y208175D01*
X285508Y208091D01*
X285351Y208017D01*
X285360D01*
X285397Y208008D01*
X285462Y207990D01*
X285536Y207962D01*
X285637Y207934D01*
X285748Y207888D01*
X285868Y207842D01*
X285998Y207777D01*
X286137Y207712D01*
X286285Y207629D01*
X286432Y207546D01*
X286580Y207444D01*
X286719Y207333D01*
X286858Y207213D01*
X286996Y207074D01*
X287117Y206926D01*
X287126Y206917D01*
X287144Y206889D01*
X287172Y206843D01*
X287218Y206779D01*
X287264Y206695D01*
X287320Y206603D01*
X287376Y206492D01*
X287431Y206362D01*
X287486Y206215D01*
X287551Y206057D01*
X287597Y205891D01*
X287644Y205706D01*
X287690Y205512D01*
X287718Y205308D01*
X287736Y205096D01*
X287745Y204865D01*
Y204846D01*
Y204791D01*
X287736Y204698D01*
X287727Y204587D01*
X287708Y204439D01*
X287681Y204273D01*
X287644Y204088D01*
X287588Y203885D01*
X287523Y203663D01*
X287449Y203441D01*
X287348Y203200D01*
X287227Y202960D01*
X287089Y202720D01*
X286922Y202479D01*
X286728Y202248D01*
X286516Y202026D01*
X286497Y202017D01*
X286460Y201980D01*
X286395Y201915D01*
X286294Y201841D01*
X286173Y201758D01*
X286035Y201656D01*
X285859Y201555D01*
X285674Y201444D01*
X285462Y201333D01*
X285221Y201231D01*
X284972Y201129D01*
X284694Y201046D01*
X284408Y200972D01*
X284093Y200907D01*
X283770Y200870D01*
X283428Y200861D01*
X283354D01*
X283261Y200870D01*
X283150Y200880D01*
X283002Y200889D01*
X282836Y200917D01*
X282651Y200944D01*
X282448Y200991D01*
X282235Y201037D01*
X282004Y201102D01*
X281773Y201185D01*
X281532Y201287D01*
X281301Y201397D01*
X281070Y201527D01*
X280839Y201684D01*
X280626Y201860D01*
X280617Y201869D01*
X280580Y201906D01*
X280525Y201961D01*
X280450Y202045D01*
X280367Y202146D01*
X280266Y202267D01*
X280164Y202405D01*
X280053Y202563D01*
X279942Y202738D01*
X279831Y202942D01*
X279729Y203154D01*
X279628Y203385D01*
X279544Y203635D01*
X279461Y203894D01*
X279406Y204171D01*
X279369Y204467D01*
X280940Y204680D01*
Y204661D01*
X280950Y204624D01*
X280968Y204550D01*
X280996Y204458D01*
X281024Y204347D01*
X281061Y204227D01*
X281107Y204088D01*
X281153Y203940D01*
X281283Y203617D01*
X281440Y203302D01*
X281532Y203145D01*
X281634Y202997D01*
X281736Y202868D01*
X281856Y202747D01*
X281865Y202738D01*
X281884Y202720D01*
X281921Y202692D01*
X281976Y202655D01*
X282031Y202609D01*
X282115Y202563D01*
X282198Y202507D01*
X282300Y202461D01*
X282411Y202405D01*
X282531Y202350D01*
X282660Y202304D01*
X282799Y202257D01*
X282947Y202220D01*
X283104Y202193D01*
X283261Y202174D01*
X283437Y202165D01*
X283483D01*
X283548Y202174D01*
X283622D01*
X283724Y202193D01*
X283834Y202202D01*
X283955Y202230D01*
X284093Y202257D01*
X284232Y202304D01*
X284389Y202350D01*
X284546Y202415D01*
X284704Y202488D01*
X284861Y202581D01*
X285018Y202683D01*
X285166Y202794D01*
X285314Y202932D01*
X285323Y202942D01*
X285351Y202969D01*
X285388Y203006D01*
X285434Y203071D01*
X285489Y203145D01*
X285554Y203237D01*
X285628Y203339D01*
X285702Y203459D01*
X285767Y203589D01*
X285841Y203737D01*
X285905Y203885D01*
X285961Y204060D01*
X286007Y204236D01*
X286044Y204421D01*
X286072Y204624D01*
X286081Y204828D01*
Y204837D01*
Y204874D01*
Y204929D01*
X286072Y205013D01*
X286063Y205096D01*
X286044Y205207D01*
X286026Y205327D01*
X285989Y205456D01*
X285952Y205595D01*
X285905Y205743D01*
X285850Y205891D01*
X285785Y206039D01*
X285702Y206187D01*
X285600Y206335D01*
X285499Y206473D01*
X285369Y206612D01*
X285360Y206621D01*
X285341Y206640D01*
X285295Y206677D01*
X285240Y206723D01*
X285175Y206779D01*
X285092Y206834D01*
X284990Y206899D01*
X284879Y206963D01*
X284759Y207028D01*
X284620Y207093D01*
X284472Y207148D01*
X284315Y207204D01*
X284149Y207250D01*
X283964Y207287D01*
X283779Y207306D01*
X283575Y207315D01*
X283492D01*
X283400Y207306D01*
X283270Y207296D01*
X283104Y207278D01*
X282919Y207241D01*
X282706Y207204D01*
X282466Y207148D01*
X282642Y208526D01*
X282670D01*
X282697Y208517D01*
X282734D01*
X282817Y208507D01*
X282993D01*
X283058Y208517D01*
X283150Y208526D01*
X283252Y208535D01*
X283363Y208554D01*
X283492Y208572D01*
X283631Y208600D01*
X283770Y208637D01*
X284075Y208729D01*
X284232Y208785D01*
X284389Y208859D01*
X284546Y208933D01*
X284694Y209025D01*
X284704Y209034D01*
X284731Y209053D01*
X284768Y209081D01*
X284824Y209127D01*
X284879Y209182D01*
X284953Y209247D01*
X285018Y209330D01*
X285101Y209423D01*
X285175Y209534D01*
X285249Y209654D01*
X285314Y209783D01*
X285369Y209931D01*
X285425Y210088D01*
X285462Y210264D01*
X285489Y210449D01*
X285499Y210643D01*
Y210652D01*
Y210680D01*
Y210726D01*
X285489Y210791D01*
X285480Y210856D01*
X285471Y210948D01*
X285452Y211041D01*
X285425Y211142D01*
X285351Y211364D01*
X285305Y211485D01*
X285249Y211605D01*
X285184Y211725D01*
X285101Y211845D01*
X285009Y211956D01*
X284907Y212067D01*
X284898Y212076D01*
X284879Y212095D01*
X284851Y212122D01*
X284805Y212159D01*
X284741Y212196D01*
X284676Y212252D01*
X284592Y212298D01*
X284500Y212354D01*
X284398Y212409D01*
X284287Y212455D01*
X284158Y212511D01*
X284029Y212548D01*
X283881Y212585D01*
X283733Y212612D01*
X283566Y212631D01*
X283400Y212640D01*
X283307D01*
X283252Y212631D01*
X283169Y212622D01*
X283076Y212612D01*
X282975Y212594D01*
X282864Y212566D01*
X282623Y212502D01*
X282503Y212455D01*
X282374Y212391D01*
X282244Y212326D01*
X282115Y212252D01*
X281994Y212159D01*
X281874Y212058D01*
X281865Y212048D01*
X281847Y212030D01*
X281819Y211993D01*
X281773Y211947D01*
X281726Y211891D01*
X281671Y211817D01*
X281616Y211725D01*
X281551Y211632D01*
X281486Y211512D01*
X281421Y211383D01*
X281347Y211244D01*
X281292Y211087D01*
X281227Y210921D01*
X281181Y210745D01*
X281135Y210551D01*
X281098Y210338D01*
X279526Y210615D01*
Y210625D01*
Y210634D01*
X279544Y210689D01*
X279563Y210763D01*
X279591Y210874D01*
X279628Y211013D01*
X279674Y211161D01*
X279729Y211327D01*
X279794Y211512D01*
X279877Y211706D01*
X279970Y211910D01*
X280081Y212113D01*
X280201Y212317D01*
X280330Y212520D01*
X280478Y212714D01*
X280645Y212899D01*
X280830Y213065D01*
X280839Y213075D01*
X280876Y213102D01*
X280931Y213149D01*
X281014Y213204D01*
X281116Y213269D01*
X281236Y213343D01*
X281375Y213417D01*
X281532Y213500D01*
X281708Y213583D01*
X281902Y213657D01*
X282106Y213731D01*
X282327Y213796D01*
X282568Y213851D01*
X282827Y213898D01*
X283095Y213925D01*
X283372Y213935D01*
X283474D01*
X283548Y213925D01*
D02*
G37*
G36*
X258323Y213810D02*
X258453Y213801D01*
X258610Y213791D01*
X258786Y213764D01*
X258989Y213736D01*
X259202Y213690D01*
X259433Y213634D01*
X259664Y213569D01*
X259914Y213486D01*
X260154Y213384D01*
X260394Y213264D01*
X260625Y213135D01*
X260847Y212978D01*
X261060Y212793D01*
X261069Y212784D01*
X261106Y212747D01*
X261162Y212691D01*
X261227Y212608D01*
X261310Y212515D01*
X261402Y212395D01*
X261504Y212257D01*
X261606Y212099D01*
X261698Y211924D01*
X261800Y211730D01*
X261892Y211517D01*
X261975Y211295D01*
X262040Y211055D01*
X262096Y210805D01*
X262133Y210537D01*
X262142Y210259D01*
Y210250D01*
Y210222D01*
Y210186D01*
Y210130D01*
X262133Y210056D01*
X262123Y209982D01*
X262114Y209890D01*
X262105Y209788D01*
X262068Y209557D01*
X262012Y209298D01*
X261929Y209030D01*
X261828Y208752D01*
Y208743D01*
X261809Y208715D01*
X261791Y208678D01*
X261763Y208623D01*
X261735Y208558D01*
X261689Y208475D01*
X261643Y208383D01*
X261578Y208281D01*
X261513Y208170D01*
X261439Y208050D01*
X261254Y207782D01*
X261152Y207643D01*
X261042Y207495D01*
X260912Y207347D01*
X260783Y207190D01*
X260774Y207181D01*
X260746Y207153D01*
X260709Y207107D01*
X260644Y207042D01*
X260561Y206959D01*
X260459Y206857D01*
X260348Y206737D01*
X260210Y206598D01*
X260052Y206450D01*
X259867Y206284D01*
X259673Y206099D01*
X259451Y205896D01*
X259211Y205683D01*
X258952Y205452D01*
X258666Y205202D01*
X258360Y204943D01*
X258342Y204934D01*
X258296Y204888D01*
X258231Y204832D01*
X258139Y204749D01*
X258018Y204657D01*
X257898Y204546D01*
X257759Y204426D01*
X257612Y204296D01*
X257297Y204028D01*
X257149Y203889D01*
X257001Y203760D01*
X256863Y203630D01*
X256742Y203519D01*
X256631Y203418D01*
X256548Y203325D01*
X256530Y203307D01*
X256483Y203251D01*
X256409Y203168D01*
X256317Y203066D01*
X256215Y202937D01*
X256104Y202798D01*
X255993Y202641D01*
X255892Y202484D01*
X262160D01*
Y200977D01*
X253710D01*
Y200986D01*
Y201005D01*
Y201032D01*
Y201069D01*
Y201125D01*
X253719Y201180D01*
X253728Y201328D01*
X253747Y201485D01*
X253775Y201670D01*
X253821Y201864D01*
X253885Y202059D01*
Y202068D01*
X253904Y202096D01*
X253923Y202142D01*
X253950Y202206D01*
X253978Y202290D01*
X254024Y202382D01*
X254080Y202484D01*
X254135Y202595D01*
X254200Y202724D01*
X254283Y202854D01*
X254459Y203140D01*
X254671Y203445D01*
X254921Y203760D01*
X254930Y203769D01*
X254958Y203797D01*
X254995Y203843D01*
X255050Y203908D01*
X255124Y203991D01*
X255217Y204083D01*
X255319Y204194D01*
X255448Y204314D01*
X255587Y204453D01*
X255735Y204601D01*
X255901Y204758D01*
X256086Y204934D01*
X256289Y205110D01*
X256502Y205295D01*
X256733Y205489D01*
X256973Y205692D01*
X256983Y205701D01*
X257001Y205711D01*
X257029Y205738D01*
X257066Y205766D01*
X257112Y205812D01*
X257168Y205858D01*
X257306Y205979D01*
X257482Y206117D01*
X257667Y206293D01*
X257880Y206478D01*
X258102Y206681D01*
X258342Y206894D01*
X258573Y207116D01*
X258813Y207338D01*
X259035Y207569D01*
X259257Y207791D01*
X259451Y208004D01*
X259636Y208216D01*
X259784Y208410D01*
X259793Y208420D01*
X259812Y208457D01*
X259849Y208512D01*
X259904Y208577D01*
X259960Y208669D01*
X260015Y208771D01*
X260089Y208891D01*
X260154Y209021D01*
X260219Y209159D01*
X260293Y209307D01*
X260413Y209631D01*
X260459Y209797D01*
X260496Y209964D01*
X260515Y210130D01*
X260524Y210296D01*
Y210306D01*
Y210343D01*
Y210389D01*
X260515Y210454D01*
X260505Y210537D01*
X260487Y210629D01*
X260468Y210731D01*
X260441Y210842D01*
X260404Y210962D01*
X260357Y211092D01*
X260302Y211221D01*
X260237Y211350D01*
X260163Y211489D01*
X260071Y211619D01*
X259969Y211748D01*
X259849Y211868D01*
X259840Y211877D01*
X259821Y211896D01*
X259784Y211924D01*
X259729Y211970D01*
X259664Y212016D01*
X259581Y212072D01*
X259488Y212136D01*
X259387Y212192D01*
X259266Y212257D01*
X259137Y212312D01*
X258989Y212367D01*
X258841Y212414D01*
X258675Y212460D01*
X258499Y212488D01*
X258314Y212506D01*
X258120Y212515D01*
X258009D01*
X257935Y212506D01*
X257833Y212497D01*
X257722Y212478D01*
X257602Y212460D01*
X257463Y212432D01*
X257325Y212395D01*
X257177Y212349D01*
X257029Y212293D01*
X256872Y212229D01*
X256724Y212146D01*
X256576Y212053D01*
X256428Y211951D01*
X256299Y211831D01*
X256289Y211822D01*
X256271Y211803D01*
X256234Y211757D01*
X256197Y211711D01*
X256141Y211637D01*
X256086Y211554D01*
X256021Y211452D01*
X255966Y211341D01*
X255901Y211221D01*
X255836Y211073D01*
X255781Y210925D01*
X255725Y210759D01*
X255688Y210574D01*
X255651Y210380D01*
X255633Y210176D01*
X255624Y209954D01*
X254006Y210121D01*
Y210130D01*
Y210139D01*
X254015Y210167D01*
Y210204D01*
X254024Y210296D01*
X254052Y210417D01*
X254080Y210565D01*
X254117Y210740D01*
X254163Y210934D01*
X254218Y211138D01*
X254292Y211360D01*
X254375Y211582D01*
X254477Y211813D01*
X254597Y212044D01*
X254727Y212266D01*
X254884Y212478D01*
X255050Y212682D01*
X255245Y212867D01*
X255254Y212876D01*
X255291Y212904D01*
X255355Y212959D01*
X255439Y213015D01*
X255550Y213089D01*
X255679Y213172D01*
X255836Y213255D01*
X256012Y213347D01*
X256215Y213431D01*
X256428Y213514D01*
X256668Y213597D01*
X256927Y213671D01*
X257205Y213736D01*
X257500Y213782D01*
X257815Y213810D01*
X258148Y213819D01*
X258231D01*
X258323Y213810D01*
D02*
G37*
G36*
X415798Y34680D02*
X415900D01*
X416011Y34662D01*
X416140Y34652D01*
X416288Y34625D01*
X416455Y34597D01*
X416621Y34551D01*
X416787Y34504D01*
X416963Y34440D01*
X417148Y34366D01*
X417314Y34283D01*
X417481Y34172D01*
X417638Y34061D01*
X417786Y33922D01*
X417795Y33913D01*
X417823Y33885D01*
X417860Y33839D01*
X417906Y33774D01*
X417962Y33700D01*
X418026Y33598D01*
X418091Y33478D01*
X418165Y33340D01*
X418230Y33182D01*
X418295Y33016D01*
X418359Y32822D01*
X418415Y32609D01*
X418470Y32378D01*
X418507Y32128D01*
X418526Y31860D01*
X418535Y31574D01*
Y25213D01*
X416963D01*
Y31047D01*
Y31056D01*
Y31093D01*
Y31139D01*
Y31204D01*
Y31278D01*
X416954Y31370D01*
X416945Y31574D01*
X416926Y31795D01*
X416898Y32017D01*
X416861Y32230D01*
X416834Y32322D01*
X416806Y32406D01*
Y32415D01*
X416797Y32424D01*
X416778Y32470D01*
X416741Y32554D01*
X416686Y32646D01*
X416603Y32748D01*
X416510Y32859D01*
X416390Y32970D01*
X416251Y33071D01*
X416233Y33081D01*
X416177Y33108D01*
X416094Y33155D01*
X415983Y33201D01*
X415844Y33247D01*
X415687Y33293D01*
X415502Y33321D01*
X415308Y33330D01*
X415216D01*
X415151Y33321D01*
X415068Y33312D01*
X414966Y33293D01*
X414855Y33275D01*
X414744Y33247D01*
X414615Y33210D01*
X414485Y33173D01*
X414356Y33118D01*
X414217Y33053D01*
X414079Y32979D01*
X413949Y32887D01*
X413820Y32794D01*
X413690Y32674D01*
X413681Y32665D01*
X413662Y32646D01*
X413635Y32609D01*
X413589Y32554D01*
X413542Y32480D01*
X413487Y32397D01*
X413431Y32295D01*
X413367Y32175D01*
X413311Y32036D01*
X413246Y31879D01*
X413191Y31712D01*
X413145Y31527D01*
X413098Y31315D01*
X413071Y31093D01*
X413052Y30852D01*
X413043Y30594D01*
Y25213D01*
X411471D01*
Y31232D01*
Y31241D01*
Y31278D01*
Y31333D01*
X411462Y31407D01*
Y31490D01*
X411453Y31592D01*
X411444Y31703D01*
X411425Y31823D01*
X411379Y32073D01*
X411305Y32332D01*
X411212Y32581D01*
X411148Y32702D01*
X411083Y32803D01*
Y32812D01*
X411064Y32822D01*
X411046Y32850D01*
X411009Y32887D01*
X410972Y32924D01*
X410917Y32970D01*
X410852Y33016D01*
X410787Y33071D01*
X410704Y33118D01*
X410611Y33164D01*
X410510Y33210D01*
X410390Y33247D01*
X410269Y33284D01*
X410131Y33312D01*
X409983Y33321D01*
X409826Y33330D01*
X409761D01*
X409715Y33321D01*
X409659D01*
X409585Y33312D01*
X409428Y33284D01*
X409243Y33247D01*
X409030Y33182D01*
X408818Y33099D01*
X408605Y32979D01*
X408596D01*
X408577Y32961D01*
X408550Y32942D01*
X408513Y32914D01*
X408411Y32831D01*
X408291Y32720D01*
X408152Y32572D01*
X408023Y32397D01*
X407893Y32193D01*
X407782Y31953D01*
Y31943D01*
X407773Y31925D01*
X407764Y31879D01*
X407745Y31832D01*
X407727Y31758D01*
X407699Y31675D01*
X407681Y31574D01*
X407662Y31463D01*
X407634Y31333D01*
X407616Y31185D01*
X407588Y31028D01*
X407570Y30852D01*
X407560Y30668D01*
X407542Y30464D01*
X407533Y30252D01*
Y30020D01*
Y25213D01*
X405961D01*
Y34486D01*
X407366D01*
Y33173D01*
X407375Y33182D01*
X407385Y33201D01*
X407412Y33238D01*
X407449Y33284D01*
X407486Y33349D01*
X407542Y33414D01*
X407671Y33571D01*
X407838Y33746D01*
X408041Y33922D01*
X408263Y34107D01*
X408522Y34273D01*
X408531Y34283D01*
X408559Y34292D01*
X408596Y34310D01*
X408651Y34338D01*
X408716Y34366D01*
X408799Y34403D01*
X408901Y34440D01*
X409003Y34486D01*
X409123Y34523D01*
X409243Y34560D01*
X409382Y34597D01*
X409530Y34625D01*
X409844Y34671D01*
X410010Y34689D01*
X410279D01*
X410353Y34680D01*
X410436D01*
X410537Y34671D01*
X410658Y34652D01*
X410778Y34634D01*
X411046Y34588D01*
X411323Y34504D01*
X411610Y34403D01*
X411739Y34329D01*
X411869Y34255D01*
X411878Y34246D01*
X411897Y34236D01*
X411934Y34209D01*
X411980Y34181D01*
X412026Y34135D01*
X412091Y34079D01*
X412229Y33950D01*
X412387Y33774D01*
X412535Y33571D01*
X412673Y33330D01*
X412793Y33062D01*
Y33071D01*
X412803Y33081D01*
X412849Y33136D01*
X412904Y33210D01*
X412997Y33321D01*
X413108Y33441D01*
X413237Y33580D01*
X413394Y33728D01*
X413570Y33876D01*
X413764Y34024D01*
X413986Y34172D01*
X414217Y34310D01*
X414476Y34440D01*
X414744Y34541D01*
X415040Y34615D01*
X415345Y34671D01*
X415502Y34689D01*
X415733D01*
X415798Y34680D01*
D02*
G37*
G36*
X400913D02*
X401015D01*
X401125Y34662D01*
X401255Y34652D01*
X401403Y34625D01*
X401569Y34597D01*
X401736Y34551D01*
X401902Y34504D01*
X402078Y34440D01*
X402263Y34366D01*
X402429Y34283D01*
X402595Y34172D01*
X402753Y34061D01*
X402901Y33922D01*
X402910Y33913D01*
X402938Y33885D01*
X402975Y33839D01*
X403021Y33774D01*
X403076Y33700D01*
X403141Y33598D01*
X403206Y33478D01*
X403280Y33340D01*
X403344Y33182D01*
X403409Y33016D01*
X403474Y32822D01*
X403529Y32609D01*
X403585Y32378D01*
X403622Y32128D01*
X403640Y31860D01*
X403649Y31574D01*
Y25213D01*
X402078D01*
Y31047D01*
Y31056D01*
Y31093D01*
Y31139D01*
Y31204D01*
Y31278D01*
X402068Y31370D01*
X402059Y31574D01*
X402041Y31795D01*
X402013Y32017D01*
X401976Y32230D01*
X401948Y32322D01*
X401921Y32406D01*
Y32415D01*
X401911Y32424D01*
X401893Y32470D01*
X401856Y32554D01*
X401800Y32646D01*
X401717Y32748D01*
X401625Y32859D01*
X401505Y32970D01*
X401366Y33071D01*
X401347Y33081D01*
X401292Y33108D01*
X401209Y33155D01*
X401098Y33201D01*
X400959Y33247D01*
X400802Y33293D01*
X400617Y33321D01*
X400423Y33330D01*
X400330D01*
X400266Y33321D01*
X400182Y33312D01*
X400081Y33293D01*
X399970Y33275D01*
X399859Y33247D01*
X399729Y33210D01*
X399600Y33173D01*
X399470Y33118D01*
X399332Y33053D01*
X399193Y32979D01*
X399064Y32887D01*
X398934Y32794D01*
X398805Y32674D01*
X398796Y32665D01*
X398777Y32646D01*
X398749Y32609D01*
X398703Y32554D01*
X398657Y32480D01*
X398601Y32397D01*
X398546Y32295D01*
X398481Y32175D01*
X398426Y32036D01*
X398361Y31879D01*
X398306Y31712D01*
X398259Y31527D01*
X398213Y31315D01*
X398185Y31093D01*
X398167Y30852D01*
X398158Y30594D01*
Y25213D01*
X396586D01*
Y31232D01*
Y31241D01*
Y31278D01*
Y31333D01*
X396577Y31407D01*
Y31490D01*
X396567Y31592D01*
X396558Y31703D01*
X396540Y31823D01*
X396493Y32073D01*
X396419Y32332D01*
X396327Y32581D01*
X396262Y32702D01*
X396198Y32803D01*
Y32812D01*
X396179Y32822D01*
X396161Y32850D01*
X396124Y32887D01*
X396087Y32924D01*
X396031Y32970D01*
X395966Y33016D01*
X395902Y33071D01*
X395818Y33118D01*
X395726Y33164D01*
X395624Y33210D01*
X395504Y33247D01*
X395384Y33284D01*
X395245Y33312D01*
X395097Y33321D01*
X394940Y33330D01*
X394875D01*
X394829Y33321D01*
X394774D01*
X394700Y33312D01*
X394543Y33284D01*
X394358Y33247D01*
X394145Y33182D01*
X393932Y33099D01*
X393720Y32979D01*
X393711D01*
X393692Y32961D01*
X393664Y32942D01*
X393627Y32914D01*
X393526Y32831D01*
X393405Y32720D01*
X393267Y32572D01*
X393137Y32397D01*
X393008Y32193D01*
X392897Y31953D01*
Y31943D01*
X392888Y31925D01*
X392878Y31879D01*
X392860Y31832D01*
X392841Y31758D01*
X392814Y31675D01*
X392795Y31574D01*
X392777Y31463D01*
X392749Y31333D01*
X392730Y31185D01*
X392703Y31028D01*
X392684Y30852D01*
X392675Y30668D01*
X392657Y30464D01*
X392647Y30252D01*
Y30020D01*
Y25213D01*
X391076D01*
Y34486D01*
X392481D01*
Y33173D01*
X392490Y33182D01*
X392499Y33201D01*
X392527Y33238D01*
X392564Y33284D01*
X392601Y33349D01*
X392657Y33414D01*
X392786Y33571D01*
X392952Y33746D01*
X393156Y33922D01*
X393378Y34107D01*
X393637Y34273D01*
X393646Y34283D01*
X393674Y34292D01*
X393711Y34310D01*
X393766Y34338D01*
X393831Y34366D01*
X393914Y34403D01*
X394016Y34440D01*
X394117Y34486D01*
X394238Y34523D01*
X394358Y34560D01*
X394496Y34597D01*
X394644Y34625D01*
X394959Y34671D01*
X395125Y34689D01*
X395393D01*
X395467Y34680D01*
X395550D01*
X395652Y34671D01*
X395772Y34652D01*
X395892Y34634D01*
X396161Y34588D01*
X396438Y34504D01*
X396725Y34403D01*
X396854Y34329D01*
X396983Y34255D01*
X396993Y34246D01*
X397011Y34236D01*
X397048Y34209D01*
X397094Y34181D01*
X397141Y34135D01*
X397205Y34079D01*
X397344Y33950D01*
X397501Y33774D01*
X397649Y33571D01*
X397788Y33330D01*
X397908Y33062D01*
Y33071D01*
X397917Y33081D01*
X397963Y33136D01*
X398019Y33210D01*
X398111Y33321D01*
X398222Y33441D01*
X398352Y33580D01*
X398509Y33728D01*
X398685Y33876D01*
X398879Y34024D01*
X399101Y34172D01*
X399332Y34310D01*
X399591Y34440D01*
X399859Y34541D01*
X400155Y34615D01*
X400460Y34671D01*
X400617Y34689D01*
X400848D01*
X400913Y34680D01*
D02*
G37*
G36*
X430037Y29050D02*
X425192D01*
Y30631D01*
X430037D01*
Y29050D01*
D02*
G37*
G36*
X471937Y36502D02*
X467703D01*
Y25213D01*
X466011D01*
Y36502D01*
X461795D01*
Y38009D01*
X471937D01*
Y36502D01*
D02*
G37*
G36*
X441899Y37999D02*
X442028D01*
X442167Y37990D01*
X442333Y37972D01*
X442500Y37962D01*
X442685Y37935D01*
X442879Y37916D01*
X443267Y37842D01*
X443655Y37740D01*
X443840Y37685D01*
X444007Y37611D01*
X444016D01*
X444044Y37592D01*
X444090Y37574D01*
X444155Y37537D01*
X444229Y37500D01*
X444312Y37445D01*
X444413Y37389D01*
X444515Y37315D01*
X444626Y37241D01*
X444737Y37149D01*
X444848Y37056D01*
X444968Y36945D01*
X445079Y36825D01*
X445190Y36705D01*
X445292Y36566D01*
X445393Y36418D01*
X445403Y36409D01*
X445412Y36381D01*
X445440Y36335D01*
X445477Y36280D01*
X445514Y36206D01*
X445551Y36113D01*
X445597Y36021D01*
X445652Y35910D01*
X445699Y35780D01*
X445745Y35651D01*
X445819Y35364D01*
X445883Y35050D01*
X445893Y34893D01*
X445902Y34726D01*
Y34717D01*
Y34689D01*
Y34643D01*
X445893Y34588D01*
Y34514D01*
X445874Y34430D01*
X445865Y34329D01*
X445846Y34227D01*
X445791Y33987D01*
X445708Y33728D01*
X445662Y33589D01*
X445597Y33460D01*
X445532Y33321D01*
X445449Y33182D01*
X445440Y33173D01*
X445430Y33155D01*
X445403Y33118D01*
X445366Y33062D01*
X445320Y32998D01*
X445264Y32933D01*
X445190Y32850D01*
X445116Y32766D01*
X445024Y32674D01*
X444931Y32581D01*
X444820Y32489D01*
X444700Y32387D01*
X444561Y32286D01*
X444423Y32193D01*
X444275Y32101D01*
X444108Y32017D01*
X444118D01*
X444164Y31999D01*
X444219Y31981D01*
X444302Y31953D01*
X444395Y31916D01*
X444506Y31869D01*
X444635Y31814D01*
X444765Y31740D01*
X444913Y31666D01*
X445061Y31583D01*
X445209Y31490D01*
X445356Y31379D01*
X445495Y31268D01*
X445643Y31139D01*
X445773Y31000D01*
X445893Y30852D01*
X445902Y30843D01*
X445920Y30815D01*
X445948Y30769D01*
X445994Y30705D01*
X446041Y30631D01*
X446096Y30538D01*
X446152Y30427D01*
X446207Y30307D01*
X446263Y30168D01*
X446327Y30020D01*
X446373Y29863D01*
X446420Y29688D01*
X446466Y29512D01*
X446494Y29318D01*
X446512Y29124D01*
X446521Y28920D01*
Y28911D01*
Y28883D01*
Y28828D01*
X446512Y28763D01*
Y28689D01*
X446503Y28597D01*
X446494Y28486D01*
X446475Y28375D01*
X446429Y28116D01*
X446355Y27829D01*
X446263Y27533D01*
X446133Y27238D01*
Y27228D01*
X446115Y27201D01*
X446096Y27164D01*
X446068Y27108D01*
X446031Y27043D01*
X445985Y26969D01*
X445874Y26803D01*
X445736Y26609D01*
X445578Y26415D01*
X445403Y26220D01*
X445199Y26054D01*
X445190D01*
X445172Y26035D01*
X445144Y26017D01*
X445098Y25989D01*
X445042Y25952D01*
X444977Y25915D01*
X444903Y25869D01*
X444820Y25823D01*
X444719Y25767D01*
X444617Y25721D01*
X444376Y25610D01*
X444108Y25518D01*
X443803Y25425D01*
X443794D01*
X443766Y25416D01*
X443720Y25407D01*
X443655Y25388D01*
X443572Y25379D01*
X443470Y25361D01*
X443359Y25342D01*
X443230Y25324D01*
X443091Y25296D01*
X442934Y25277D01*
X442758Y25259D01*
X442583Y25250D01*
X442389Y25231D01*
X442185Y25222D01*
X441963Y25213D01*
X436869Y25213D01*
Y38009D01*
X441797Y38009D01*
X441899Y37999D01*
D02*
G37*
G36*
X378409Y25213D02*
X376625D01*
Y26997D01*
X378409D01*
Y25213D01*
D02*
G37*
G36*
X371715D02*
X370144D01*
Y35216D01*
X370134Y35207D01*
X370116Y35189D01*
X370088Y35161D01*
X370042Y35124D01*
X369986Y35078D01*
X369912Y35013D01*
X369829Y34948D01*
X369746Y34874D01*
X369635Y34800D01*
X369524Y34708D01*
X369404Y34625D01*
X369274Y34523D01*
X369127Y34430D01*
X368979Y34329D01*
X368646Y34125D01*
X368636Y34116D01*
X368609Y34098D01*
X368553Y34070D01*
X368489Y34042D01*
X368415Y33996D01*
X368322Y33940D01*
X368211Y33885D01*
X368100Y33820D01*
X367841Y33691D01*
X367564Y33561D01*
X367277Y33432D01*
X367000Y33321D01*
Y34837D01*
X367019Y34847D01*
X367056Y34865D01*
X367129Y34902D01*
X367222Y34948D01*
X367333Y35004D01*
X367472Y35078D01*
X367619Y35161D01*
X367777Y35253D01*
X367952Y35364D01*
X368137Y35475D01*
X368526Y35734D01*
X368923Y36021D01*
X369302Y36335D01*
X369311Y36344D01*
X369348Y36372D01*
X369395Y36418D01*
X369459Y36483D01*
X369543Y36566D01*
X369635Y36659D01*
X369737Y36770D01*
X369848Y36881D01*
X369959Y37010D01*
X370079Y37149D01*
X370310Y37435D01*
X370523Y37740D01*
X370615Y37898D01*
X370698Y38055D01*
X371715D01*
Y25213D01*
D02*
G37*
G36*
X454630Y38221D02*
X454750D01*
X454907Y38203D01*
X455092Y38184D01*
X455295Y38156D01*
X455517Y38129D01*
X455758Y38083D01*
X456017Y38027D01*
X456285Y37953D01*
X456553Y37870D01*
X456830Y37777D01*
X457108Y37657D01*
X457385Y37528D01*
X457653Y37380D01*
X457672Y37371D01*
X457718Y37343D01*
X457792Y37297D01*
X457884Y37223D01*
X458004Y37139D01*
X458143Y37038D01*
X458291Y36908D01*
X458457Y36770D01*
X458633Y36613D01*
X458809Y36437D01*
X458994Y36243D01*
X459169Y36030D01*
X459345Y35799D01*
X459521Y35559D01*
X459678Y35300D01*
X459826Y35022D01*
X459835Y35004D01*
X459863Y34957D01*
X459900Y34874D01*
X459946Y34754D01*
X460001Y34615D01*
X460066Y34440D01*
X460131Y34246D01*
X460205Y34024D01*
X460270Y33783D01*
X460334Y33515D01*
X460399Y33238D01*
X460454Y32933D01*
X460510Y32618D01*
X460547Y32286D01*
X460565Y31944D01*
X460575Y31592D01*
Y31583D01*
Y31574D01*
Y31546D01*
Y31509D01*
Y31463D01*
X460565Y31398D01*
Y31259D01*
X460547Y31093D01*
X460538Y30899D01*
X460510Y30668D01*
X460473Y30427D01*
X460436Y30159D01*
X460381Y29882D01*
X460316Y29595D01*
X460242Y29299D01*
X460149Y28994D01*
X460048Y28698D01*
X459927Y28402D01*
X459789Y28107D01*
X459780Y28088D01*
X459752Y28042D01*
X459706Y27959D01*
X459641Y27857D01*
X459567Y27727D01*
X459465Y27580D01*
X459345Y27413D01*
X459216Y27238D01*
X459068Y27053D01*
X458901Y26868D01*
X458716Y26674D01*
X458522Y26479D01*
X458300Y26294D01*
X458069Y26109D01*
X457820Y25943D01*
X457561Y25786D01*
X457542Y25777D01*
X457496Y25749D01*
X457413Y25712D01*
X457311Y25666D01*
X457172Y25601D01*
X457015Y25536D01*
X456839Y25462D01*
X456636Y25398D01*
X456405Y25324D01*
X456165Y25250D01*
X455915Y25185D01*
X455638Y25120D01*
X455360Y25074D01*
X455064Y25037D01*
X454759Y25009D01*
X454454Y25000D01*
X454371D01*
X454278Y25009D01*
X454149Y25018D01*
X453992Y25028D01*
X453807Y25046D01*
X453594Y25074D01*
X453372Y25111D01*
X453123Y25157D01*
X452864Y25213D01*
X452596Y25287D01*
X452328Y25370D01*
X452050Y25462D01*
X451764Y25582D01*
X451486Y25712D01*
X451218Y25869D01*
X451200Y25878D01*
X451153Y25906D01*
X451079Y25962D01*
X450987Y26026D01*
X450867Y26119D01*
X450728Y26220D01*
X450580Y26350D01*
X450414Y26489D01*
X450247Y26655D01*
X450062Y26831D01*
X449887Y27025D01*
X449711Y27238D01*
X449535Y27469D01*
X449369Y27709D01*
X449212Y27968D01*
X449064Y28245D01*
X449055Y28264D01*
X449036Y28310D01*
X448999Y28393D01*
X448953Y28513D01*
X448898Y28652D01*
X448833Y28819D01*
X448768Y29003D01*
X448703Y29216D01*
X448629Y29447D01*
X448565Y29697D01*
X448500Y29956D01*
X448445Y30233D01*
X448398Y30529D01*
X448361Y30825D01*
X448343Y31130D01*
X448334Y31444D01*
Y31453D01*
Y31481D01*
Y31527D01*
Y31583D01*
X448343Y31657D01*
Y31749D01*
X448352Y31851D01*
X448361Y31971D01*
X448371Y32101D01*
X448389Y32239D01*
X448408Y32387D01*
X448426Y32544D01*
X448481Y32887D01*
X448546Y33256D01*
X448639Y33654D01*
X448750Y34061D01*
X448888Y34477D01*
X449055Y34893D01*
X449249Y35300D01*
X449480Y35697D01*
X449609Y35891D01*
X449739Y36076D01*
X449887Y36252D01*
X450044Y36428D01*
X450053Y36437D01*
X450062Y36446D01*
X450090Y36474D01*
X450127Y36502D01*
X450164Y36548D01*
X450220Y36594D01*
X450358Y36714D01*
X450525Y36844D01*
X450728Y37001D01*
X450969Y37158D01*
X451237Y37334D01*
X451542Y37500D01*
X451875Y37657D01*
X452235Y37814D01*
X452623Y37953D01*
X453049Y38064D01*
X453493Y38156D01*
X453724Y38184D01*
X453964Y38212D01*
X454204Y38221D01*
X454454Y38231D01*
X454537D01*
X454630Y38221D01*
D02*
G37*
G36*
X385047Y38045D02*
X385131D01*
X385242Y38036D01*
X385353Y38018D01*
X385482Y37999D01*
X385759Y37953D01*
X386064Y37879D01*
X386379Y37777D01*
X386527Y37713D01*
X386675Y37639D01*
X386684D01*
X386712Y37620D01*
X386749Y37592D01*
X386804Y37565D01*
X386869Y37518D01*
X386943Y37463D01*
X387035Y37408D01*
X387128Y37334D01*
X387331Y37167D01*
X387544Y36955D01*
X387756Y36714D01*
X387951Y36437D01*
X387960Y36428D01*
X387969Y36400D01*
X387997Y36354D01*
X388034Y36298D01*
X388080Y36224D01*
X388126Y36132D01*
X388182Y36030D01*
X388237Y35910D01*
X388302Y35780D01*
X388367Y35632D01*
X388431Y35475D01*
X388505Y35309D01*
X388570Y35133D01*
X388625Y34948D01*
X388690Y34745D01*
X388746Y34541D01*
Y34532D01*
X388755Y34486D01*
X388773Y34430D01*
X388792Y34338D01*
X388810Y34227D01*
X388838Y34088D01*
X388866Y33931D01*
X388894Y33746D01*
X388921Y33543D01*
X388949Y33312D01*
X388977Y33062D01*
X388995Y32794D01*
X389014Y32507D01*
X389032Y32193D01*
X389041Y31869D01*
Y31518D01*
Y31509D01*
Y31490D01*
Y31463D01*
Y31416D01*
Y31370D01*
Y31305D01*
X389032Y31232D01*
Y31148D01*
X389023Y30954D01*
X389014Y30732D01*
X389005Y30492D01*
X388986Y30224D01*
X388958Y29937D01*
X388931Y29641D01*
X388847Y29040D01*
X388792Y28735D01*
X388727Y28439D01*
X388653Y28153D01*
X388570Y27885D01*
X388561Y27866D01*
X388551Y27820D01*
X388524Y27755D01*
X388487Y27654D01*
X388431Y27543D01*
X388376Y27404D01*
X388302Y27256D01*
X388228Y27099D01*
X388135Y26932D01*
X388024Y26757D01*
X387914Y26581D01*
X387793Y26396D01*
X387655Y26220D01*
X387507Y26054D01*
X387350Y25897D01*
X387183Y25749D01*
X387174Y25740D01*
X387137Y25721D01*
X387091Y25684D01*
X387017Y25629D01*
X386924Y25573D01*
X386823Y25508D01*
X386693Y25444D01*
X386554Y25379D01*
X386388Y25305D01*
X386212Y25240D01*
X386027Y25176D01*
X385824Y25120D01*
X385602Y25074D01*
X385371Y25037D01*
X385131Y25009D01*
X384872Y25000D01*
X384789D01*
X384696Y25009D01*
X384567Y25018D01*
X384409Y25037D01*
X384225Y25074D01*
X384030Y25111D01*
X383809Y25166D01*
X383577Y25231D01*
X383346Y25324D01*
X383106Y25425D01*
X382856Y25555D01*
X382616Y25703D01*
X382385Y25878D01*
X382163Y26082D01*
X381959Y26313D01*
Y26322D01*
X381950Y26331D01*
X381932Y26359D01*
X381904Y26387D01*
X381876Y26433D01*
X381839Y26488D01*
X381802Y26544D01*
X381765Y26618D01*
X381719Y26701D01*
X381664Y26794D01*
X381617Y26895D01*
X381562Y27006D01*
X381506Y27136D01*
X381451Y27265D01*
X381386Y27413D01*
X381331Y27561D01*
X381275Y27727D01*
X381211Y27903D01*
X381155Y28088D01*
X381100Y28291D01*
X381044Y28495D01*
X380998Y28717D01*
X380942Y28939D01*
X380896Y29188D01*
X380859Y29438D01*
X380822Y29697D01*
X380785Y29974D01*
X380757Y30261D01*
X380730Y30557D01*
X380720Y30862D01*
X380702Y31185D01*
Y31518D01*
Y31527D01*
Y31546D01*
Y31574D01*
Y31620D01*
Y31675D01*
Y31740D01*
X380711Y31814D01*
Y31897D01*
X380720Y32082D01*
X380730Y32304D01*
X380739Y32554D01*
X380757Y32822D01*
X380785Y33108D01*
X380813Y33404D01*
X380896Y34014D01*
X380952Y34320D01*
X381016Y34615D01*
X381081Y34902D01*
X381164Y35170D01*
X381174Y35189D01*
X381183Y35235D01*
X381211Y35300D01*
X381247Y35401D01*
X381303Y35512D01*
X381358Y35651D01*
X381432Y35799D01*
X381516Y35956D01*
X381599Y36123D01*
X381710Y36298D01*
X381821Y36483D01*
X381941Y36659D01*
X382080Y36834D01*
X382228Y37001D01*
X382385Y37158D01*
X382551Y37306D01*
X382560Y37315D01*
X382597Y37343D01*
X382644Y37380D01*
X382718Y37426D01*
X382810Y37482D01*
X382921Y37546D01*
X383041Y37611D01*
X383189Y37685D01*
X383346Y37750D01*
X383522Y37814D01*
X383716Y37879D01*
X383919Y37935D01*
X384141Y37990D01*
X384372Y38027D01*
X384613Y38045D01*
X384872Y38055D01*
X384973D01*
X385047Y38045D01*
D02*
G37*
G36*
X417000Y53849D02*
X417102D01*
X417213Y53830D01*
X417342Y53821D01*
X417490Y53794D01*
X417657Y53766D01*
X417823Y53720D01*
X417990Y53673D01*
X418165Y53609D01*
X418350Y53535D01*
X418517Y53451D01*
X418683Y53341D01*
X418840Y53229D01*
X418988Y53091D01*
X418997Y53082D01*
X419025Y53054D01*
X419062Y53008D01*
X419108Y52943D01*
X419164Y52869D01*
X419228Y52767D01*
X419293Y52647D01*
X419367Y52508D01*
X419432Y52351D01*
X419496Y52185D01*
X419561Y51991D01*
X419617Y51778D01*
X419672Y51547D01*
X419709Y51297D01*
X419728Y51029D01*
X419737Y50742D01*
Y44381D01*
X418165D01*
Y50215D01*
Y50225D01*
Y50262D01*
Y50308D01*
Y50373D01*
Y50447D01*
X418156Y50539D01*
X418147Y50742D01*
X418128Y50964D01*
X418100Y51186D01*
X418063Y51399D01*
X418036Y51491D01*
X418008Y51575D01*
Y51584D01*
X417999Y51593D01*
X417980Y51639D01*
X417943Y51722D01*
X417888Y51815D01*
X417804Y51917D01*
X417712Y52028D01*
X417592Y52139D01*
X417453Y52240D01*
X417435Y52249D01*
X417379Y52277D01*
X417296Y52323D01*
X417185Y52370D01*
X417046Y52416D01*
X416889Y52462D01*
X416704Y52490D01*
X416510Y52499D01*
X416418D01*
X416353Y52490D01*
X416270Y52481D01*
X416168Y52462D01*
X416057Y52444D01*
X415946Y52416D01*
X415817Y52379D01*
X415687Y52342D01*
X415558Y52287D01*
X415419Y52222D01*
X415280Y52148D01*
X415151Y52055D01*
X415022Y51963D01*
X414892Y51843D01*
X414883Y51833D01*
X414864Y51815D01*
X414837Y51778D01*
X414790Y51722D01*
X414744Y51649D01*
X414689Y51565D01*
X414633Y51464D01*
X414569Y51343D01*
X414513Y51205D01*
X414448Y51048D01*
X414393Y50881D01*
X414347Y50696D01*
X414300Y50484D01*
X414273Y50262D01*
X414254Y50021D01*
X414245Y49762D01*
Y44381D01*
X412673D01*
Y50400D01*
Y50410D01*
Y50447D01*
Y50502D01*
X412664Y50576D01*
Y50659D01*
X412655Y50761D01*
X412645Y50872D01*
X412627Y50992D01*
X412581Y51242D01*
X412507Y51501D01*
X412414Y51750D01*
X412350Y51870D01*
X412285Y51972D01*
Y51981D01*
X412266Y51991D01*
X412248Y52018D01*
X412211Y52055D01*
X412174Y52092D01*
X412118Y52139D01*
X412054Y52185D01*
X411989Y52240D01*
X411906Y52287D01*
X411813Y52333D01*
X411712Y52379D01*
X411591Y52416D01*
X411471Y52453D01*
X411333Y52481D01*
X411185Y52490D01*
X411027Y52499D01*
X410963D01*
X410917Y52490D01*
X410861D01*
X410787Y52481D01*
X410630Y52453D01*
X410445Y52416D01*
X410232Y52351D01*
X410020Y52268D01*
X409807Y52148D01*
X409798D01*
X409779Y52129D01*
X409752Y52111D01*
X409715Y52083D01*
X409613Y52000D01*
X409493Y51889D01*
X409354Y51741D01*
X409225Y51565D01*
X409095Y51362D01*
X408984Y51122D01*
Y51112D01*
X408975Y51094D01*
X408966Y51048D01*
X408947Y51001D01*
X408929Y50927D01*
X408901Y50844D01*
X408882Y50742D01*
X408864Y50631D01*
X408836Y50502D01*
X408818Y50354D01*
X408790Y50197D01*
X408772Y50021D01*
X408762Y49836D01*
X408744Y49633D01*
X408735Y49420D01*
Y49189D01*
Y44381D01*
X407163D01*
Y53655D01*
X408568D01*
Y52342D01*
X408577Y52351D01*
X408587Y52370D01*
X408614Y52407D01*
X408651Y52453D01*
X408688Y52518D01*
X408744Y52582D01*
X408873Y52740D01*
X409040Y52915D01*
X409243Y53091D01*
X409465Y53276D01*
X409724Y53442D01*
X409733Y53451D01*
X409761Y53461D01*
X409798Y53479D01*
X409853Y53507D01*
X409918Y53535D01*
X410001Y53572D01*
X410103Y53609D01*
X410205Y53655D01*
X410325Y53692D01*
X410445Y53729D01*
X410584Y53766D01*
X410732Y53794D01*
X411046Y53840D01*
X411212Y53858D01*
X411481D01*
X411554Y53849D01*
X411638D01*
X411739Y53840D01*
X411860Y53821D01*
X411980Y53803D01*
X412248Y53756D01*
X412525Y53673D01*
X412812Y53572D01*
X412941Y53498D01*
X413071Y53424D01*
X413080Y53414D01*
X413098Y53405D01*
X413135Y53377D01*
X413182Y53350D01*
X413228Y53303D01*
X413293Y53248D01*
X413431Y53119D01*
X413589Y52943D01*
X413736Y52740D01*
X413875Y52499D01*
X413995Y52231D01*
Y52240D01*
X414005Y52249D01*
X414051Y52305D01*
X414106Y52379D01*
X414199Y52490D01*
X414310Y52610D01*
X414439Y52749D01*
X414596Y52897D01*
X414772Y53045D01*
X414966Y53193D01*
X415188Y53341D01*
X415419Y53479D01*
X415678Y53609D01*
X415946Y53710D01*
X416242Y53784D01*
X416547Y53840D01*
X416704Y53858D01*
X416936D01*
X417000Y53849D01*
D02*
G37*
G36*
X402115D02*
X402216D01*
X402327Y53830D01*
X402457Y53821D01*
X402605Y53794D01*
X402771Y53766D01*
X402938Y53720D01*
X403104Y53673D01*
X403280Y53609D01*
X403465Y53535D01*
X403631Y53451D01*
X403797Y53341D01*
X403955Y53229D01*
X404103Y53091D01*
X404112Y53082D01*
X404140Y53054D01*
X404176Y53008D01*
X404223Y52943D01*
X404278Y52869D01*
X404343Y52767D01*
X404408Y52647D01*
X404482Y52508D01*
X404546Y52351D01*
X404611Y52185D01*
X404676Y51991D01*
X404731Y51778D01*
X404787Y51547D01*
X404824Y51297D01*
X404842Y51029D01*
X404851Y50742D01*
Y44381D01*
X403280D01*
Y50215D01*
Y50225D01*
Y50262D01*
Y50308D01*
Y50373D01*
Y50447D01*
X403270Y50539D01*
X403261Y50742D01*
X403243Y50964D01*
X403215Y51186D01*
X403178Y51399D01*
X403150Y51491D01*
X403122Y51575D01*
Y51584D01*
X403113Y51593D01*
X403095Y51639D01*
X403058Y51722D01*
X403002Y51815D01*
X402919Y51917D01*
X402827Y52028D01*
X402706Y52139D01*
X402568Y52240D01*
X402549Y52249D01*
X402494Y52277D01*
X402411Y52323D01*
X402300Y52370D01*
X402161Y52416D01*
X402004Y52462D01*
X401819Y52490D01*
X401625Y52499D01*
X401532D01*
X401468Y52490D01*
X401384Y52481D01*
X401283Y52462D01*
X401172Y52444D01*
X401061Y52416D01*
X400931Y52379D01*
X400802Y52342D01*
X400672Y52287D01*
X400534Y52222D01*
X400395Y52148D01*
X400266Y52055D01*
X400136Y51963D01*
X400007Y51843D01*
X399997Y51833D01*
X399979Y51815D01*
X399951Y51778D01*
X399905Y51722D01*
X399859Y51649D01*
X399803Y51565D01*
X399748Y51464D01*
X399683Y51343D01*
X399628Y51205D01*
X399563Y51048D01*
X399507Y50881D01*
X399461Y50696D01*
X399415Y50484D01*
X399387Y50262D01*
X399369Y50021D01*
X399360Y49762D01*
Y44381D01*
X397788D01*
Y50400D01*
Y50410D01*
Y50447D01*
Y50502D01*
X397779Y50576D01*
Y50659D01*
X397769Y50761D01*
X397760Y50872D01*
X397742Y50992D01*
X397695Y51242D01*
X397621Y51501D01*
X397529Y51750D01*
X397464Y51870D01*
X397399Y51972D01*
Y51981D01*
X397381Y51991D01*
X397363Y52018D01*
X397326Y52055D01*
X397289Y52092D01*
X397233Y52139D01*
X397168Y52185D01*
X397104Y52240D01*
X397020Y52287D01*
X396928Y52333D01*
X396826Y52379D01*
X396706Y52416D01*
X396586Y52453D01*
X396447Y52481D01*
X396299Y52490D01*
X396142Y52499D01*
X396077D01*
X396031Y52490D01*
X395976D01*
X395902Y52481D01*
X395745Y52453D01*
X395560Y52416D01*
X395347Y52351D01*
X395134Y52268D01*
X394922Y52148D01*
X394912D01*
X394894Y52129D01*
X394866Y52111D01*
X394829Y52083D01*
X394728Y52000D01*
X394607Y51889D01*
X394469Y51741D01*
X394339Y51565D01*
X394210Y51362D01*
X394099Y51122D01*
Y51112D01*
X394090Y51094D01*
X394080Y51048D01*
X394062Y51001D01*
X394043Y50927D01*
X394016Y50844D01*
X393997Y50742D01*
X393979Y50631D01*
X393951Y50502D01*
X393932Y50354D01*
X393905Y50197D01*
X393886Y50021D01*
X393877Y49836D01*
X393858Y49633D01*
X393849Y49420D01*
Y49189D01*
Y44381D01*
X392277D01*
Y53655D01*
X393683D01*
Y52342D01*
X393692Y52351D01*
X393701Y52370D01*
X393729Y52407D01*
X393766Y52453D01*
X393803Y52518D01*
X393858Y52582D01*
X393988Y52740D01*
X394154Y52915D01*
X394358Y53091D01*
X394580Y53276D01*
X394838Y53442D01*
X394848Y53451D01*
X394875Y53461D01*
X394912Y53479D01*
X394968Y53507D01*
X395033Y53535D01*
X395116Y53572D01*
X395218Y53609D01*
X395319Y53655D01*
X395439Y53692D01*
X395560Y53729D01*
X395698Y53766D01*
X395846Y53794D01*
X396161Y53840D01*
X396327Y53858D01*
X396595D01*
X396669Y53849D01*
X396752D01*
X396854Y53840D01*
X396974Y53821D01*
X397094Y53803D01*
X397363Y53756D01*
X397640Y53673D01*
X397926Y53572D01*
X398056Y53498D01*
X398185Y53424D01*
X398195Y53414D01*
X398213Y53405D01*
X398250Y53377D01*
X398296Y53350D01*
X398343Y53303D01*
X398407Y53248D01*
X398546Y53119D01*
X398703Y52943D01*
X398851Y52740D01*
X398990Y52499D01*
X399110Y52231D01*
Y52240D01*
X399119Y52249D01*
X399165Y52305D01*
X399221Y52379D01*
X399313Y52490D01*
X399424Y52610D01*
X399554Y52749D01*
X399711Y52897D01*
X399887Y53045D01*
X400081Y53193D01*
X400303Y53341D01*
X400534Y53479D01*
X400793Y53609D01*
X401061Y53710D01*
X401357Y53784D01*
X401662Y53840D01*
X401819Y53858D01*
X402050D01*
X402115Y53849D01*
D02*
G37*
G36*
X431238Y48218D02*
X426394D01*
Y49799D01*
X431238D01*
Y48218D01*
D02*
G37*
G36*
X389790Y55513D02*
X384668D01*
X383984Y52065D01*
X383993Y52074D01*
X384040Y52101D01*
X384095Y52139D01*
X384188Y52194D01*
X384289Y52249D01*
X384409Y52323D01*
X384557Y52388D01*
X384715Y52471D01*
X384890Y52545D01*
X385075Y52619D01*
X385279Y52684D01*
X385482Y52740D01*
X385704Y52795D01*
X385926Y52832D01*
X386166Y52860D01*
X386397Y52869D01*
X386471D01*
X386564Y52860D01*
X386675Y52850D01*
X386823Y52832D01*
X386989Y52804D01*
X387183Y52767D01*
X387387Y52721D01*
X387599Y52666D01*
X387830Y52582D01*
X388061Y52490D01*
X388302Y52379D01*
X388542Y52240D01*
X388783Y52092D01*
X389014Y51907D01*
X389236Y51704D01*
X389245Y51695D01*
X389282Y51649D01*
X389347Y51584D01*
X389421Y51491D01*
X389504Y51380D01*
X389605Y51242D01*
X389707Y51075D01*
X389818Y50890D01*
X389920Y50687D01*
X390022Y50465D01*
X390123Y50215D01*
X390216Y49957D01*
X390280Y49670D01*
X390345Y49365D01*
X390382Y49050D01*
X390391Y48718D01*
Y48708D01*
Y48699D01*
Y48671D01*
Y48644D01*
X390382Y48551D01*
X390373Y48431D01*
X390364Y48274D01*
X390336Y48098D01*
X390308Y47904D01*
X390262Y47691D01*
X390206Y47460D01*
X390142Y47220D01*
X390059Y46970D01*
X389966Y46721D01*
X389846Y46462D01*
X389707Y46212D01*
X389550Y45963D01*
X389374Y45722D01*
X389356Y45704D01*
X389319Y45657D01*
X389245Y45583D01*
X389152Y45482D01*
X389023Y45361D01*
X388875Y45232D01*
X388699Y45093D01*
X388496Y44946D01*
X388265Y44798D01*
X388015Y44659D01*
X387738Y44529D01*
X387433Y44409D01*
X387109Y44317D01*
X386767Y44233D01*
X386397Y44187D01*
X386009Y44169D01*
X385935D01*
X385843Y44178D01*
X385722Y44187D01*
X385574Y44197D01*
X385399Y44224D01*
X385205Y44252D01*
X385001Y44289D01*
X384779Y44345D01*
X384548Y44409D01*
X384308Y44483D01*
X384067Y44576D01*
X383836Y44687D01*
X383596Y44816D01*
X383374Y44973D01*
X383161Y45140D01*
X383152Y45149D01*
X383115Y45186D01*
X383060Y45241D01*
X382986Y45315D01*
X382902Y45417D01*
X382801Y45537D01*
X382699Y45676D01*
X382588Y45833D01*
X382477Y46009D01*
X382375Y46203D01*
X382265Y46416D01*
X382163Y46647D01*
X382080Y46896D01*
X382006Y47164D01*
X381941Y47442D01*
X381904Y47738D01*
X383550Y47876D01*
Y47867D01*
X383559Y47821D01*
X383568Y47765D01*
X383587Y47682D01*
X383614Y47580D01*
X383642Y47460D01*
X383679Y47331D01*
X383725Y47192D01*
X383836Y46905D01*
X383901Y46748D01*
X383975Y46600D01*
X384067Y46452D01*
X384160Y46314D01*
X384271Y46184D01*
X384391Y46064D01*
X384400Y46055D01*
X384419Y46036D01*
X384456Y46009D01*
X384511Y45972D01*
X384576Y45925D01*
X384659Y45870D01*
X384742Y45824D01*
X384844Y45768D01*
X384955Y45704D01*
X385084Y45657D01*
X385214Y45602D01*
X385362Y45556D01*
X385510Y45519D01*
X385667Y45491D01*
X385833Y45472D01*
X386009Y45463D01*
X386064D01*
X386120Y45472D01*
X386203D01*
X386296Y45491D01*
X386416Y45509D01*
X386545Y45537D01*
X386684Y45574D01*
X386832Y45611D01*
X386989Y45667D01*
X387146Y45741D01*
X387313Y45824D01*
X387470Y45916D01*
X387636Y46036D01*
X387793Y46166D01*
X387941Y46314D01*
X387951Y46323D01*
X387978Y46351D01*
X388015Y46406D01*
X388061Y46471D01*
X388126Y46554D01*
X388191Y46656D01*
X388265Y46776D01*
X388339Y46915D01*
X388404Y47072D01*
X388478Y47238D01*
X388542Y47423D01*
X388607Y47627D01*
X388653Y47849D01*
X388690Y48080D01*
X388718Y48320D01*
X388727Y48579D01*
Y48597D01*
Y48634D01*
X388718Y48708D01*
Y48801D01*
X388709Y48912D01*
X388690Y49050D01*
X388662Y49189D01*
X388635Y49356D01*
X388588Y49522D01*
X388542Y49688D01*
X388478Y49864D01*
X388404Y50049D01*
X388320Y50225D01*
X388219Y50391D01*
X388098Y50557D01*
X387969Y50705D01*
X387960Y50715D01*
X387932Y50742D01*
X387895Y50779D01*
X387830Y50826D01*
X387756Y50890D01*
X387664Y50955D01*
X387562Y51020D01*
X387442Y51094D01*
X387303Y51168D01*
X387155Y51233D01*
X386998Y51306D01*
X386823Y51362D01*
X386628Y51408D01*
X386425Y51445D01*
X386212Y51473D01*
X385990Y51482D01*
X385916D01*
X385861Y51473D01*
X385796D01*
X385713Y51464D01*
X385630Y51454D01*
X385528Y51436D01*
X385316Y51399D01*
X385084Y51334D01*
X384844Y51251D01*
X384613Y51131D01*
X384604D01*
X384585Y51112D01*
X384557Y51094D01*
X384511Y51066D01*
X384400Y50992D01*
X384262Y50890D01*
X384114Y50761D01*
X383956Y50613D01*
X383799Y50437D01*
X383661Y50243D01*
X382181Y50437D01*
X383420Y57011D01*
X389790D01*
Y55513D01*
D02*
G37*
G36*
X468221Y57168D02*
X468350D01*
X468498Y57159D01*
X468812Y57150D01*
X469136Y57122D01*
X469450Y57094D01*
X469598Y57066D01*
X469728Y57048D01*
X469737D01*
X469774Y57039D01*
X469820Y57030D01*
X469885Y57020D01*
X469968Y57002D01*
X470061Y56974D01*
X470162Y56946D01*
X470283Y56919D01*
X470532Y56835D01*
X470791Y56724D01*
X471059Y56604D01*
X471309Y56447D01*
X471318Y56438D01*
X471337Y56428D01*
X471374Y56401D01*
X471410Y56364D01*
X471466Y56327D01*
X471531Y56271D01*
X471605Y56207D01*
X471679Y56133D01*
X471753Y56049D01*
X471836Y55957D01*
X472011Y55744D01*
X472178Y55495D01*
X472335Y55217D01*
X472344Y55208D01*
X472354Y55180D01*
X472372Y55134D01*
X472400Y55079D01*
X472428Y55005D01*
X472455Y54912D01*
X472492Y54811D01*
X472529Y54700D01*
X472566Y54579D01*
X472603Y54441D01*
X472631Y54302D01*
X472659Y54145D01*
X472705Y53821D01*
X472723Y53470D01*
Y53451D01*
Y53396D01*
X472714Y53313D01*
X472705Y53202D01*
X472696Y53054D01*
X472668Y52897D01*
X472640Y52712D01*
X472594Y52518D01*
X472538Y52305D01*
X472464Y52083D01*
X472381Y51852D01*
X472280Y51621D01*
X472159Y51390D01*
X472021Y51158D01*
X471864Y50927D01*
X471679Y50715D01*
X471669Y50705D01*
X471632Y50669D01*
X471568Y50613D01*
X471475Y50539D01*
X471355Y50456D01*
X471207Y50354D01*
X471031Y50252D01*
X470819Y50151D01*
X470578Y50049D01*
X470310Y49947D01*
X469996Y49846D01*
X469663Y49762D01*
X469284Y49689D01*
X469081Y49661D01*
X468868Y49633D01*
X468646Y49615D01*
X468415Y49596D01*
X468175Y49587D01*
X464652D01*
Y44381D01*
X462960D01*
Y57177D01*
X468091D01*
X468221Y57168D01*
D02*
G37*
G36*
X447317Y55670D02*
X443082D01*
Y44381D01*
X441390D01*
Y55670D01*
X437174Y55670D01*
Y57177D01*
X447317Y57177D01*
Y55670D01*
D02*
G37*
G36*
X379611Y44381D02*
X377827D01*
Y46166D01*
X379611D01*
Y44381D01*
D02*
G37*
G36*
X454833Y57390D02*
X454953D01*
X455111Y57372D01*
X455295Y57353D01*
X455499Y57325D01*
X455721Y57298D01*
X455961Y57251D01*
X456220Y57196D01*
X456488Y57122D01*
X456756Y57039D01*
X457034Y56946D01*
X457311Y56826D01*
X457588Y56697D01*
X457856Y56549D01*
X457875Y56540D01*
X457921Y56512D01*
X457995Y56466D01*
X458088Y56392D01*
X458208Y56308D01*
X458346Y56207D01*
X458494Y56077D01*
X458661Y55939D01*
X458837Y55781D01*
X459012Y55606D01*
X459197Y55412D01*
X459373Y55199D01*
X459548Y54968D01*
X459724Y54727D01*
X459881Y54468D01*
X460029Y54191D01*
X460038Y54173D01*
X460066Y54126D01*
X460103Y54043D01*
X460149Y53923D01*
X460205Y53784D01*
X460270Y53609D01*
X460334Y53414D01*
X460408Y53193D01*
X460473Y52952D01*
X460538Y52684D01*
X460602Y52407D01*
X460658Y52102D01*
X460713Y51787D01*
X460750Y51454D01*
X460769Y51112D01*
X460778Y50761D01*
Y50752D01*
Y50743D01*
Y50715D01*
Y50678D01*
Y50631D01*
X460769Y50567D01*
Y50428D01*
X460750Y50262D01*
X460741Y50068D01*
X460713Y49836D01*
X460676Y49596D01*
X460639Y49328D01*
X460584Y49050D01*
X460519Y48764D01*
X460445Y48468D01*
X460353Y48163D01*
X460251Y47867D01*
X460131Y47571D01*
X459992Y47275D01*
X459983Y47257D01*
X459955Y47211D01*
X459909Y47127D01*
X459844Y47026D01*
X459770Y46896D01*
X459669Y46748D01*
X459548Y46582D01*
X459419Y46406D01*
X459271Y46221D01*
X459105Y46037D01*
X458920Y45842D01*
X458726Y45648D01*
X458504Y45463D01*
X458273Y45278D01*
X458023Y45112D01*
X457764Y44955D01*
X457746Y44946D01*
X457699Y44918D01*
X457616Y44881D01*
X457514Y44834D01*
X457376Y44770D01*
X457219Y44705D01*
X457043Y44631D01*
X456839Y44566D01*
X456608Y44492D01*
X456368Y44419D01*
X456118Y44354D01*
X455841Y44289D01*
X455564Y44243D01*
X455268Y44206D01*
X454963Y44178D01*
X454658Y44169D01*
X454574D01*
X454482Y44178D01*
X454352Y44187D01*
X454195Y44197D01*
X454010Y44215D01*
X453798Y44243D01*
X453576Y44280D01*
X453326Y44326D01*
X453067Y44381D01*
X452799Y44455D01*
X452531Y44539D01*
X452254Y44631D01*
X451967Y44751D01*
X451690Y44881D01*
X451422Y45038D01*
X451403Y45047D01*
X451357Y45075D01*
X451283Y45130D01*
X451190Y45195D01*
X451070Y45288D01*
X450932Y45389D01*
X450784Y45519D01*
X450617Y45657D01*
X450451Y45824D01*
X450266Y45999D01*
X450090Y46194D01*
X449915Y46406D01*
X449739Y46637D01*
X449572Y46878D01*
X449415Y47137D01*
X449267Y47414D01*
X449258Y47432D01*
X449240Y47479D01*
X449203Y47562D01*
X449156Y47682D01*
X449101Y47821D01*
X449036Y47987D01*
X448971Y48172D01*
X448907Y48385D01*
X448833Y48616D01*
X448768Y48866D01*
X448703Y49124D01*
X448648Y49402D01*
X448602Y49698D01*
X448565Y49994D01*
X448546Y50299D01*
X448537Y50613D01*
Y50622D01*
Y50650D01*
Y50696D01*
Y50752D01*
X448546Y50826D01*
Y50918D01*
X448555Y51020D01*
X448565Y51140D01*
X448574Y51269D01*
X448592Y51408D01*
X448611Y51556D01*
X448629Y51713D01*
X448685Y52055D01*
X448750Y52425D01*
X448842Y52823D01*
X448953Y53229D01*
X449092Y53646D01*
X449258Y54062D01*
X449452Y54468D01*
X449683Y54866D01*
X449813Y55060D01*
X449942Y55245D01*
X450090Y55421D01*
X450247Y55596D01*
X450257Y55606D01*
X450266Y55615D01*
X450294Y55643D01*
X450331Y55670D01*
X450368Y55717D01*
X450423Y55763D01*
X450562Y55883D01*
X450728Y56013D01*
X450932Y56170D01*
X451172Y56327D01*
X451440Y56502D01*
X451745Y56669D01*
X452078Y56826D01*
X452439Y56983D01*
X452827Y57122D01*
X453252Y57233D01*
X453696Y57325D01*
X453927Y57353D01*
X454168Y57381D01*
X454408Y57390D01*
X454658Y57399D01*
X454741D01*
X454833Y57390D01*
D02*
G37*
G36*
X371345Y57214D02*
X371429D01*
X371540Y57205D01*
X371651Y57187D01*
X371780Y57168D01*
X372057Y57122D01*
X372362Y57048D01*
X372677Y56946D01*
X372825Y56881D01*
X372973Y56808D01*
X372982D01*
X373010Y56789D01*
X373047Y56761D01*
X373102Y56734D01*
X373167Y56687D01*
X373241Y56632D01*
X373333Y56576D01*
X373426Y56502D01*
X373629Y56336D01*
X373842Y56123D01*
X374054Y55883D01*
X374249Y55606D01*
X374258Y55596D01*
X374267Y55569D01*
X374295Y55522D01*
X374332Y55467D01*
X374378Y55393D01*
X374424Y55300D01*
X374480Y55199D01*
X374535Y55079D01*
X374600Y54949D01*
X374665Y54801D01*
X374729Y54644D01*
X374803Y54478D01*
X374868Y54302D01*
X374924Y54117D01*
X374988Y53914D01*
X375044Y53710D01*
Y53701D01*
X375053Y53655D01*
X375071Y53599D01*
X375090Y53507D01*
X375108Y53396D01*
X375136Y53257D01*
X375164Y53100D01*
X375192Y52915D01*
X375219Y52712D01*
X375247Y52481D01*
X375275Y52231D01*
X375293Y51963D01*
X375312Y51676D01*
X375330Y51362D01*
X375340Y51038D01*
Y50687D01*
Y50678D01*
Y50659D01*
Y50631D01*
Y50585D01*
Y50539D01*
Y50474D01*
X375330Y50400D01*
Y50317D01*
X375321Y50123D01*
X375312Y49901D01*
X375303Y49661D01*
X375284Y49393D01*
X375256Y49106D01*
X375229Y48810D01*
X375145Y48209D01*
X375090Y47904D01*
X375025Y47608D01*
X374951Y47322D01*
X374868Y47053D01*
X374859Y47035D01*
X374850Y46989D01*
X374822Y46924D01*
X374785Y46822D01*
X374729Y46711D01*
X374674Y46573D01*
X374600Y46425D01*
X374526Y46268D01*
X374433Y46101D01*
X374323Y45925D01*
X374212Y45750D01*
X374091Y45565D01*
X373953Y45389D01*
X373805Y45223D01*
X373648Y45066D01*
X373481Y44918D01*
X373472Y44908D01*
X373435Y44890D01*
X373389Y44853D01*
X373315Y44798D01*
X373222Y44742D01*
X373121Y44677D01*
X372991Y44613D01*
X372852Y44548D01*
X372686Y44474D01*
X372510Y44409D01*
X372325Y44345D01*
X372122Y44289D01*
X371900Y44243D01*
X371669Y44206D01*
X371429Y44178D01*
X371170Y44169D01*
X371087D01*
X370994Y44178D01*
X370865Y44187D01*
X370708Y44206D01*
X370523Y44243D01*
X370328Y44280D01*
X370107Y44335D01*
X369875Y44400D01*
X369644Y44492D01*
X369404Y44594D01*
X369154Y44724D01*
X368914Y44872D01*
X368683Y45047D01*
X368461Y45251D01*
X368257Y45482D01*
Y45491D01*
X368248Y45500D01*
X368230Y45528D01*
X368202Y45556D01*
X368174Y45602D01*
X368137Y45657D01*
X368100Y45713D01*
X368063Y45787D01*
X368017Y45870D01*
X367962Y45963D01*
X367915Y46064D01*
X367860Y46175D01*
X367804Y46305D01*
X367749Y46434D01*
X367684Y46582D01*
X367629Y46730D01*
X367573Y46896D01*
X367509Y47072D01*
X367453Y47257D01*
X367397Y47460D01*
X367342Y47664D01*
X367296Y47886D01*
X367240Y48107D01*
X367194Y48357D01*
X367157Y48607D01*
X367120Y48866D01*
X367083Y49143D01*
X367056Y49430D01*
X367028Y49725D01*
X367019Y50030D01*
X367000Y50354D01*
Y50687D01*
Y50696D01*
Y50715D01*
Y50742D01*
Y50789D01*
Y50844D01*
Y50909D01*
X367009Y50983D01*
Y51066D01*
X367019Y51251D01*
X367028Y51473D01*
X367037Y51722D01*
X367056Y51991D01*
X367083Y52277D01*
X367111Y52573D01*
X367194Y53183D01*
X367250Y53488D01*
X367314Y53784D01*
X367379Y54071D01*
X367462Y54339D01*
X367472Y54358D01*
X367481Y54404D01*
X367509Y54468D01*
X367546Y54570D01*
X367601Y54681D01*
X367656Y54820D01*
X367730Y54968D01*
X367814Y55125D01*
X367897Y55291D01*
X368008Y55467D01*
X368119Y55652D01*
X368239Y55827D01*
X368378Y56003D01*
X368526Y56170D01*
X368683Y56327D01*
X368849Y56475D01*
X368858Y56484D01*
X368895Y56512D01*
X368942Y56549D01*
X369016Y56595D01*
X369108Y56650D01*
X369219Y56715D01*
X369339Y56780D01*
X369487Y56854D01*
X369644Y56919D01*
X369820Y56983D01*
X370014Y57048D01*
X370217Y57103D01*
X370439Y57159D01*
X370671Y57196D01*
X370911Y57214D01*
X371170Y57224D01*
X371271D01*
X371345Y57214D01*
D02*
G37*
G36*
X394367Y74543D02*
X392795D01*
Y76346D01*
X394367D01*
Y74543D01*
D02*
G37*
G36*
X387165Y73018D02*
X387266Y73008D01*
X387387Y72990D01*
X387516Y72972D01*
X387664Y72953D01*
X387821Y72916D01*
X387988Y72879D01*
X388163Y72824D01*
X388339Y72768D01*
X388524Y72694D01*
X388699Y72611D01*
X388875Y72519D01*
X389051Y72408D01*
X389060Y72398D01*
X389088Y72380D01*
X389134Y72343D01*
X389199Y72297D01*
X389282Y72232D01*
X389365Y72158D01*
X389458Y72066D01*
X389568Y71964D01*
X389679Y71853D01*
X389790Y71723D01*
X389901Y71575D01*
X390022Y71427D01*
X390132Y71261D01*
X390234Y71076D01*
X390336Y70891D01*
X390428Y70688D01*
X390438Y70679D01*
X390447Y70642D01*
X390475Y70577D01*
X390502Y70494D01*
X390539Y70392D01*
X390576Y70272D01*
X390613Y70124D01*
X390659Y69967D01*
X390706Y69791D01*
X390743Y69606D01*
X390780Y69403D01*
X390817Y69190D01*
X390844Y68968D01*
X390872Y68737D01*
X390881Y68506D01*
X390891Y68256D01*
Y68238D01*
Y68192D01*
Y68118D01*
X390881Y68016D01*
X390872Y67896D01*
X390863Y67748D01*
X390844Y67581D01*
X390826Y67406D01*
X390798Y67211D01*
X390761Y67008D01*
X390669Y66574D01*
X390613Y66352D01*
X390549Y66130D01*
X390465Y65908D01*
X390373Y65695D01*
X390364Y65686D01*
X390345Y65649D01*
X390317Y65584D01*
X390280Y65510D01*
X390225Y65409D01*
X390160Y65307D01*
X390086Y65177D01*
X389994Y65048D01*
X389901Y64909D01*
X389790Y64771D01*
X389670Y64623D01*
X389532Y64475D01*
X389393Y64336D01*
X389236Y64198D01*
X389069Y64068D01*
X388894Y63948D01*
X388884Y63939D01*
X388847Y63920D01*
X388801Y63892D01*
X388727Y63855D01*
X388635Y63809D01*
X388533Y63754D01*
X388413Y63707D01*
X388274Y63652D01*
X388126Y63587D01*
X387969Y63541D01*
X387803Y63486D01*
X387627Y63439D01*
X387442Y63402D01*
X387248Y63375D01*
X387054Y63356D01*
X386850Y63347D01*
X386776D01*
X386721Y63356D01*
X386647D01*
X386573Y63365D01*
X386480Y63375D01*
X386379Y63384D01*
X386157Y63430D01*
X385926Y63486D01*
X385676Y63559D01*
X385436Y63671D01*
X385426D01*
X385408Y63689D01*
X385380Y63707D01*
X385334Y63735D01*
X385279Y63763D01*
X385223Y63800D01*
X385075Y63902D01*
X384918Y64022D01*
X384742Y64170D01*
X384576Y64327D01*
X384419Y64512D01*
Y60000D01*
X382847D01*
Y72824D01*
X384280D01*
Y71613D01*
X384289Y71622D01*
X384299Y71640D01*
X384326Y71677D01*
X384372Y71733D01*
X384419Y71788D01*
X384474Y71853D01*
X384613Y72010D01*
X384779Y72176D01*
X384973Y72352D01*
X385186Y72519D01*
X385417Y72667D01*
X385426D01*
X385445Y72685D01*
X385482Y72703D01*
X385528Y72722D01*
X385593Y72750D01*
X385667Y72777D01*
X385750Y72814D01*
X385852Y72851D01*
X385953Y72879D01*
X386074Y72916D01*
X386203Y72944D01*
X386342Y72972D01*
X386638Y73008D01*
X386961Y73027D01*
X387072D01*
X387165Y73018D01*
D02*
G37*
G36*
X401329D02*
X401421Y73008D01*
X401514Y72999D01*
X401625Y72990D01*
X401856Y72953D01*
X402115Y72898D01*
X402383Y72824D01*
X402651Y72722D01*
X402660D01*
X402679Y72713D01*
X402716Y72694D01*
X402771Y72667D01*
X402827Y72639D01*
X402891Y72602D01*
X403049Y72509D01*
X403215Y72398D01*
X403391Y72260D01*
X403557Y72102D01*
X403705Y71927D01*
Y71918D01*
X403723Y71908D01*
X403742Y71881D01*
X403760Y71844D01*
X403788Y71797D01*
X403825Y71742D01*
X403899Y71603D01*
X403982Y71437D01*
X404056Y71233D01*
X404130Y71012D01*
X404195Y70771D01*
Y70762D01*
Y70753D01*
X404204Y70725D01*
X404213Y70688D01*
Y70642D01*
X404223Y70577D01*
X404232Y70503D01*
X404241Y70420D01*
X404250Y70318D01*
X404260Y70207D01*
X404269Y70087D01*
Y69948D01*
X404278Y69791D01*
X404287Y69625D01*
Y69440D01*
Y69246D01*
Y63550D01*
X402716D01*
Y69181D01*
Y69190D01*
Y69227D01*
Y69273D01*
Y69338D01*
X402706Y69421D01*
Y69514D01*
X402697Y69615D01*
Y69717D01*
X402669Y69957D01*
X402642Y70189D01*
X402595Y70420D01*
X402568Y70521D01*
X402531Y70614D01*
Y70623D01*
X402522Y70632D01*
X402512Y70660D01*
X402494Y70697D01*
X402448Y70780D01*
X402383Y70891D01*
X402290Y71012D01*
X402179Y71141D01*
X402041Y71270D01*
X401874Y71381D01*
X401865D01*
X401856Y71391D01*
X401828Y71409D01*
X401791Y71427D01*
X401699Y71474D01*
X401569Y71529D01*
X401403Y71575D01*
X401218Y71622D01*
X401015Y71659D01*
X400783Y71668D01*
X400682D01*
X400617Y71659D01*
X400524Y71649D01*
X400423Y71631D01*
X400312Y71613D01*
X400192Y71585D01*
X400053Y71557D01*
X399914Y71511D01*
X399776Y71465D01*
X399628Y71400D01*
X399480Y71326D01*
X399332Y71243D01*
X399184Y71141D01*
X399045Y71030D01*
X399036Y71021D01*
X399017Y71002D01*
X398980Y70956D01*
X398934Y70901D01*
X398879Y70827D01*
X398814Y70734D01*
X398749Y70623D01*
X398685Y70484D01*
X398620Y70337D01*
X398555Y70161D01*
X398490Y69957D01*
X398435Y69736D01*
X398389Y69495D01*
X398352Y69227D01*
X398333Y68931D01*
X398324Y68608D01*
Y63550D01*
X396752D01*
Y72824D01*
X398167D01*
Y71501D01*
X398176Y71520D01*
X398213Y71566D01*
X398278Y71640D01*
X398352Y71742D01*
X398463Y71853D01*
X398592Y71982D01*
X398740Y72121D01*
X398916Y72269D01*
X399110Y72408D01*
X399332Y72546D01*
X399572Y72676D01*
X399840Y72787D01*
X400127Y72888D01*
X400432Y72962D01*
X400765Y73008D01*
X401116Y73027D01*
X401255D01*
X401329Y73018D01*
D02*
G37*
G36*
X394367Y63550D02*
X392795D01*
Y72824D01*
X394367D01*
Y63550D01*
D02*
G37*
G36*
X374119Y68053D02*
X375848D01*
Y66611D01*
X374119D01*
Y63550D01*
X372547D01*
Y66611D01*
X367000D01*
Y68053D01*
X372834Y76346D01*
X374119D01*
Y68053D01*
D02*
G37*
G36*
X255536Y47000D02*
X254358D01*
Y54503D01*
X254351Y54496D01*
X254337Y54482D01*
X254316Y54461D01*
X254281Y54433D01*
X254240Y54399D01*
X254184Y54350D01*
X254122Y54302D01*
X254060Y54246D01*
X253976Y54191D01*
X253893Y54121D01*
X253803Y54059D01*
X253706Y53983D01*
X253595Y53913D01*
X253484Y53837D01*
X253234Y53685D01*
X253227Y53678D01*
X253207Y53664D01*
X253165Y53643D01*
X253116Y53622D01*
X253061Y53587D01*
X252992Y53546D01*
X252908Y53504D01*
X252825Y53456D01*
X252631Y53359D01*
X252423Y53262D01*
X252208Y53165D01*
X252000Y53081D01*
Y54219D01*
X252014Y54225D01*
X252042Y54239D01*
X252097Y54267D01*
X252166Y54302D01*
X252250Y54343D01*
X252354Y54399D01*
X252465Y54461D01*
X252582Y54531D01*
X252714Y54614D01*
X252853Y54697D01*
X253144Y54891D01*
X253442Y55106D01*
X253727Y55342D01*
X253734Y55349D01*
X253761Y55370D01*
X253796Y55404D01*
X253845Y55453D01*
X253907Y55515D01*
X253976Y55585D01*
X254053Y55668D01*
X254136Y55751D01*
X254219Y55848D01*
X254309Y55952D01*
X254482Y56167D01*
X254642Y56396D01*
X254711Y56514D01*
X254774Y56632D01*
X255536D01*
Y47000D01*
D02*
G37*
G36*
X234615Y200977D02*
X233043D01*
Y210981D01*
X233034Y210971D01*
X233016Y210953D01*
X232988Y210925D01*
X232942Y210888D01*
X232886Y210842D01*
X232812Y210777D01*
X232729Y210713D01*
X232646Y210639D01*
X232535Y210565D01*
X232424Y210472D01*
X232304Y210389D01*
X232174Y210287D01*
X232027Y210195D01*
X231879Y210093D01*
X231546Y209890D01*
X231537Y209880D01*
X231509Y209862D01*
X231453Y209834D01*
X231388Y209806D01*
X231315Y209760D01*
X231222Y209705D01*
X231111Y209649D01*
X231000Y209585D01*
X230741Y209455D01*
X230464Y209326D01*
X230177Y209196D01*
X229900Y209085D01*
Y210602D01*
X229918Y210611D01*
X229956Y210629D01*
X230029Y210666D01*
X230122Y210713D01*
X230233Y210768D01*
X230371Y210842D01*
X230520Y210925D01*
X230677Y211018D01*
X230852Y211129D01*
X231037Y211239D01*
X231425Y211498D01*
X231823Y211785D01*
X232202Y212099D01*
X232211Y212109D01*
X232248Y212136D01*
X232295Y212183D01*
X232359Y212247D01*
X232442Y212330D01*
X232535Y212423D01*
X232637Y212534D01*
X232748Y212645D01*
X232859Y212774D01*
X232979Y212913D01*
X233210Y213200D01*
X233423Y213505D01*
X233515Y213662D01*
X233598Y213819D01*
X234615D01*
Y200977D01*
D02*
G37*
%LPC*%
G36*
X328745Y152368D02*
X327356D01*
X320875Y151905D01*
X320643D01*
X320180Y151674D01*
X319949Y151442D01*
Y135702D01*
Y135471D01*
X320180Y135239D01*
X328050D01*
X328745Y135471D01*
X329671D01*
X331754Y136397D01*
X332680Y136860D01*
X333606Y137786D01*
X333837Y138017D01*
X334069Y138249D01*
X334995Y139637D01*
X335689Y141489D01*
X336152Y142878D01*
Y144035D01*
Y144267D01*
Y144730D01*
X335920Y146118D01*
X334995Y147970D01*
X334532Y148896D01*
X333606Y149822D01*
Y150053D01*
X333143Y150285D01*
X331985Y151211D01*
X329902Y151905D01*
X328745Y152368D01*
D02*
G37*
G36*
X225046D02*
X223889D01*
X216945Y151905D01*
X216713D01*
X216250Y151674D01*
X216019Y151442D01*
Y135702D01*
X216250Y135471D01*
X216482Y135239D01*
X224352D01*
X225741Y135471D01*
X227592Y136397D01*
X228518Y136860D01*
X229444Y137786D01*
X229676Y138017D01*
X229907Y138249D01*
X230833Y139637D01*
X231527Y141489D01*
X231990Y142878D01*
Y144035D01*
Y144267D01*
Y144730D01*
X231759Y146118D01*
X230833Y147970D01*
X230370Y148896D01*
X229444Y149822D01*
Y150053D01*
X228981Y150285D01*
X227824Y151211D01*
X226203Y151905D01*
X225046Y152368D01*
D02*
G37*
G36*
X425731Y149822D02*
X425499D01*
X425036Y149359D01*
X420176Y128990D01*
Y128758D01*
Y128527D01*
X420407Y128064D01*
X420639Y127832D01*
X430360D01*
X430592Y128064D01*
X430360Y128990D01*
X425962Y149359D01*
Y149591D01*
X425731Y149822D01*
D02*
G37*
G36*
X287160Y54704D02*
X284151Y50377D01*
X287160D01*
Y54704D01*
D02*
G37*
G36*
X310547Y211272D02*
X306535Y205503D01*
X310547D01*
Y211272D01*
D02*
G37*
G36*
X441362Y36502D02*
X438561Y36502D01*
Y32628D01*
X441501Y32628D01*
X441594Y32637D01*
X441815D01*
X441945Y32646D01*
X442204Y32665D01*
X442472Y32692D01*
X442601Y32711D01*
X442721Y32729D01*
X442832Y32748D01*
X442934Y32776D01*
X442943D01*
X442962Y32785D01*
X442999Y32794D01*
X443045Y32813D01*
X443091Y32831D01*
X443156Y32859D01*
X443295Y32924D01*
X443452Y33007D01*
X443618Y33118D01*
X443766Y33247D01*
X443905Y33404D01*
Y33414D01*
X443923Y33423D01*
X443933Y33451D01*
X443960Y33488D01*
X443979Y33534D01*
X444007Y33580D01*
X444071Y33719D01*
X444136Y33876D01*
X444182Y34070D01*
X444219Y34292D01*
X444238Y34532D01*
Y34541D01*
Y34560D01*
Y34597D01*
Y34643D01*
X444229Y34699D01*
X444219Y34763D01*
X444201Y34911D01*
X444164Y35087D01*
X444108Y35272D01*
X444025Y35466D01*
X443923Y35651D01*
Y35660D01*
X443905Y35669D01*
X443868Y35734D01*
X443794Y35817D01*
X443702Y35919D01*
X443581Y36030D01*
X443424Y36141D01*
X443258Y36233D01*
X443054Y36317D01*
X443045D01*
X443027Y36326D01*
X442990Y36335D01*
X442943Y36344D01*
X442879Y36363D01*
X442805Y36372D01*
X442712Y36391D01*
X442601Y36409D01*
X442472Y36428D01*
X442333Y36446D01*
X442176Y36455D01*
X442000Y36474D01*
X441806Y36483D01*
X441594Y36492D01*
X441362Y36502D01*
D02*
G37*
G36*
X441732Y31121D02*
X438561Y31121D01*
Y26720D01*
X442019Y26720D01*
X442194Y26729D01*
X442389D01*
X442574Y26747D01*
X442749Y26757D01*
X442832Y26766D01*
X442897Y26775D01*
X442906D01*
X442925Y26784D01*
X442953D01*
X442999Y26794D01*
X443101Y26821D01*
X443239Y26858D01*
X443387Y26905D01*
X443554Y26960D01*
X443711Y27034D01*
X443868Y27117D01*
X443877D01*
X443886Y27127D01*
X443933Y27164D01*
X444007Y27219D01*
X444099Y27302D01*
X444201Y27404D01*
X444312Y27524D01*
X444413Y27663D01*
X444515Y27829D01*
Y27838D01*
X444524Y27848D01*
X444543Y27875D01*
X444552Y27912D01*
X444598Y28014D01*
X444645Y28143D01*
X444691Y28301D01*
X444737Y28486D01*
X444765Y28698D01*
X444774Y28920D01*
Y28929D01*
Y28948D01*
Y28994D01*
X444765Y29040D01*
Y29105D01*
X444756Y29170D01*
X444728Y29346D01*
X444682Y29540D01*
X444617Y29743D01*
X444524Y29956D01*
X444404Y30159D01*
Y30168D01*
X444386Y30187D01*
X444367Y30205D01*
X444339Y30242D01*
X444256Y30335D01*
X444136Y30446D01*
X443988Y30575D01*
X443812Y30695D01*
X443609Y30806D01*
X443378Y30899D01*
X443369D01*
X443350Y30908D01*
X443313Y30917D01*
X443258Y30936D01*
X443193Y30954D01*
X443110Y30973D01*
X443017Y30991D01*
X442906Y31010D01*
X442777Y31028D01*
X442638Y31047D01*
X442481Y31065D01*
X442315Y31084D01*
X442139Y31102D01*
X441945Y31111D01*
X441732Y31121D01*
D02*
G37*
G36*
X454463Y36770D02*
X454380D01*
X454288Y36760D01*
X454168Y36751D01*
X454010Y36733D01*
X453825Y36705D01*
X453622Y36668D01*
X453409Y36613D01*
X453169Y36548D01*
X452919Y36465D01*
X452670Y36363D01*
X452402Y36252D01*
X452143Y36104D01*
X451884Y35938D01*
X451625Y35753D01*
X451375Y35531D01*
X451357Y35512D01*
X451320Y35475D01*
X451255Y35401D01*
X451172Y35290D01*
X451079Y35161D01*
X450969Y34985D01*
X450848Y34791D01*
X450728Y34560D01*
X450608Y34292D01*
X450488Y33987D01*
X450386Y33645D01*
X450284Y33275D01*
X450201Y32868D01*
X450164Y32646D01*
X450136Y32424D01*
X450109Y32184D01*
X450099Y31934D01*
X450081Y31685D01*
Y31416D01*
Y31407D01*
Y31389D01*
Y31361D01*
Y31315D01*
X450090Y31259D01*
Y31195D01*
Y31121D01*
X450099Y31037D01*
X450118Y30843D01*
X450146Y30612D01*
X450183Y30363D01*
X450238Y30094D01*
X450303Y29808D01*
X450386Y29512D01*
X450488Y29207D01*
X450608Y28902D01*
X450747Y28606D01*
X450913Y28310D01*
X451098Y28033D01*
X451320Y27774D01*
X451338Y27755D01*
X451375Y27718D01*
X451449Y27654D01*
X451542Y27570D01*
X451671Y27469D01*
X451810Y27358D01*
X451986Y27238D01*
X452180Y27117D01*
X452392Y26988D01*
X452633Y26868D01*
X452892Y26757D01*
X453169Y26655D01*
X453456Y26572D01*
X453770Y26507D01*
X454103Y26470D01*
X454445Y26452D01*
X454528D01*
X454574Y26461D01*
X454630D01*
X454759Y26470D01*
X454926Y26489D01*
X455111Y26526D01*
X455323Y26562D01*
X455554Y26618D01*
X455795Y26692D01*
X456054Y26775D01*
X456312Y26886D01*
X456571Y27016D01*
X456839Y27173D01*
X457098Y27348D01*
X457348Y27561D01*
X457588Y27792D01*
X457607Y27811D01*
X457644Y27857D01*
X457699Y27931D01*
X457783Y28042D01*
X457875Y28180D01*
X457977Y28347D01*
X458097Y28541D01*
X458208Y28772D01*
X458328Y29031D01*
X458439Y29309D01*
X458541Y29623D01*
X458633Y29965D01*
X458716Y30335D01*
X458772Y30732D01*
X458818Y31148D01*
X458827Y31601D01*
Y31620D01*
Y31666D01*
Y31749D01*
X458818Y31860D01*
X458809Y31999D01*
X458800Y32156D01*
X458781Y32332D01*
X458763Y32526D01*
X458735Y32729D01*
X458698Y32951D01*
X458652Y33173D01*
X458605Y33404D01*
X458541Y33635D01*
X458467Y33867D01*
X458383Y34098D01*
X458291Y34320D01*
X458282Y34329D01*
X458263Y34375D01*
X458236Y34430D01*
X458189Y34514D01*
X458134Y34606D01*
X458069Y34726D01*
X457995Y34847D01*
X457903Y34985D01*
X457801Y35124D01*
X457681Y35272D01*
X457561Y35420D01*
X457422Y35568D01*
X457265Y35716D01*
X457108Y35864D01*
X456932Y35993D01*
X456747Y36123D01*
X456738Y36132D01*
X456701Y36150D01*
X456645Y36178D01*
X456571Y36224D01*
X456470Y36270D01*
X456359Y36326D01*
X456229Y36391D01*
X456081Y36446D01*
X455915Y36511D01*
X455739Y36566D01*
X455554Y36622D01*
X455351Y36668D01*
X455148Y36714D01*
X454926Y36742D01*
X454695Y36760D01*
X454463Y36770D01*
D02*
G37*
G36*
X384853Y36751D02*
X384807D01*
X384752Y36742D01*
X384678Y36733D01*
X384585Y36723D01*
X384474Y36705D01*
X384363Y36677D01*
X384234Y36640D01*
X384095Y36585D01*
X383956Y36529D01*
X383809Y36455D01*
X383670Y36363D01*
X383522Y36261D01*
X383383Y36141D01*
X383254Y35993D01*
X383124Y35836D01*
X383115Y35827D01*
X383087Y35780D01*
X383050Y35706D01*
X382995Y35605D01*
X382939Y35466D01*
X382875Y35300D01*
X382801Y35096D01*
X382727Y34856D01*
X382681Y34726D01*
X382644Y34578D01*
X382607Y34430D01*
X382579Y34264D01*
X382542Y34098D01*
X382505Y33913D01*
X382477Y33719D01*
X382449Y33515D01*
X382422Y33303D01*
X382394Y33081D01*
X382375Y32850D01*
X382357Y32609D01*
X382338Y32350D01*
X382329Y32082D01*
X382320Y31805D01*
Y31518D01*
Y31509D01*
Y31481D01*
Y31444D01*
Y31379D01*
Y31305D01*
X382329Y31222D01*
Y31121D01*
Y31010D01*
X382338Y30889D01*
Y30760D01*
X382357Y30464D01*
X382385Y30150D01*
X382412Y29817D01*
X382449Y29466D01*
X382496Y29114D01*
X382560Y28763D01*
X382625Y28421D01*
X382708Y28097D01*
X382810Y27811D01*
X382865Y27672D01*
X382921Y27552D01*
X382986Y27432D01*
X383050Y27330D01*
X383060Y27321D01*
X383087Y27284D01*
X383124Y27237D01*
X383180Y27173D01*
X383254Y27090D01*
X383346Y27006D01*
X383439Y26905D01*
X383559Y26812D01*
X383679Y26720D01*
X383818Y26618D01*
X383966Y26535D01*
X384132Y26461D01*
X384299Y26387D01*
X384483Y26341D01*
X384678Y26304D01*
X384872Y26294D01*
X384918D01*
X384973Y26304D01*
X385047Y26313D01*
X385140Y26322D01*
X385251Y26350D01*
X385371Y26378D01*
X385500Y26424D01*
X385639Y26479D01*
X385787Y26544D01*
X385935Y26627D01*
X386092Y26729D01*
X386240Y26849D01*
X386397Y26988D01*
X386545Y27145D01*
X386684Y27330D01*
X386693Y27339D01*
X386712Y27385D01*
X386749Y27450D01*
X386804Y27543D01*
X386860Y27672D01*
X386915Y27829D01*
X386989Y28014D01*
X387054Y28245D01*
X387091Y28375D01*
X387118Y28513D01*
X387155Y28652D01*
X387192Y28809D01*
X387220Y28976D01*
X387248Y29151D01*
X387285Y29336D01*
X387313Y29540D01*
X387331Y29743D01*
X387359Y29965D01*
X387377Y30196D01*
X387396Y30436D01*
X387405Y30686D01*
X387414Y30954D01*
X387424Y31232D01*
Y31518D01*
Y31527D01*
Y31555D01*
Y31601D01*
Y31657D01*
Y31731D01*
Y31814D01*
X387414Y31916D01*
Y32027D01*
X387405Y32147D01*
Y32285D01*
X387387Y32572D01*
X387359Y32887D01*
X387331Y33229D01*
X387294Y33571D01*
X387248Y33922D01*
X387183Y34273D01*
X387109Y34615D01*
X387026Y34939D01*
X386924Y35226D01*
X386869Y35364D01*
X386813Y35484D01*
X386749Y35605D01*
X386684Y35706D01*
X386675Y35716D01*
X386647Y35753D01*
X386610Y35799D01*
X386554Y35873D01*
X386480Y35947D01*
X386397Y36039D01*
X386296Y36132D01*
X386185Y36233D01*
X386055Y36326D01*
X385916Y36418D01*
X385769Y36511D01*
X385602Y36585D01*
X385426Y36659D01*
X385251Y36705D01*
X385057Y36742D01*
X384853Y36751D01*
D02*
G37*
G36*
X468128Y55670D02*
X464652D01*
Y51094D01*
X468110D01*
X468221Y51103D01*
X468350Y51112D01*
X468507Y51131D01*
X468674Y51149D01*
X468859Y51168D01*
X469238Y51242D01*
X469432Y51288D01*
X469626Y51353D01*
X469811Y51417D01*
X469987Y51501D01*
X470144Y51593D01*
X470283Y51704D01*
X470292Y51713D01*
X470310Y51732D01*
X470347Y51769D01*
X470393Y51815D01*
X470440Y51880D01*
X470504Y51954D01*
X470569Y52046D01*
X470634Y52148D01*
X470699Y52268D01*
X470754Y52388D01*
X470819Y52536D01*
X470865Y52684D01*
X470911Y52850D01*
X470948Y53035D01*
X470967Y53220D01*
X470976Y53424D01*
Y53433D01*
Y53461D01*
Y53498D01*
X470967Y53562D01*
Y53627D01*
X470957Y53710D01*
X470939Y53803D01*
X470930Y53895D01*
X470874Y54108D01*
X470800Y54339D01*
X470708Y54570D01*
X470643Y54681D01*
X470569Y54792D01*
Y54801D01*
X470551Y54820D01*
X470523Y54847D01*
X470495Y54885D01*
X470403Y54986D01*
X470283Y55106D01*
X470125Y55227D01*
X469950Y55356D01*
X469737Y55467D01*
X469497Y55550D01*
X469487D01*
X469478Y55559D01*
X469450D01*
X469413Y55569D01*
X469367Y55578D01*
X469302Y55587D01*
X469229Y55596D01*
X469136Y55615D01*
X469034Y55624D01*
X468923Y55633D01*
X468794Y55643D01*
X468646Y55652D01*
X468489Y55661D01*
X468313D01*
X468128Y55670D01*
D02*
G37*
G36*
X454667Y55939D02*
X454584D01*
X454491Y55929D01*
X454371Y55920D01*
X454214Y55901D01*
X454029Y55874D01*
X453825Y55837D01*
X453613Y55781D01*
X453372Y55717D01*
X453123Y55633D01*
X452873Y55532D01*
X452605Y55421D01*
X452346Y55273D01*
X452087Y55106D01*
X451828Y54921D01*
X451579Y54700D01*
X451560Y54681D01*
X451523Y54644D01*
X451459Y54570D01*
X451375Y54459D01*
X451283Y54330D01*
X451172Y54154D01*
X451052Y53960D01*
X450932Y53729D01*
X450811Y53461D01*
X450691Y53156D01*
X450589Y52814D01*
X450488Y52444D01*
X450405Y52037D01*
X450368Y51815D01*
X450340Y51593D01*
X450312Y51353D01*
X450303Y51103D01*
X450284Y50853D01*
Y50585D01*
Y50576D01*
Y50558D01*
Y50530D01*
Y50484D01*
X450294Y50428D01*
Y50363D01*
Y50289D01*
X450303Y50206D01*
X450321Y50012D01*
X450349Y49781D01*
X450386Y49531D01*
X450442Y49263D01*
X450506Y48977D01*
X450589Y48681D01*
X450691Y48376D01*
X450811Y48071D01*
X450950Y47775D01*
X451116Y47479D01*
X451301Y47201D01*
X451523Y46943D01*
X451542Y46924D01*
X451579Y46887D01*
X451653Y46822D01*
X451745Y46739D01*
X451875Y46637D01*
X452013Y46526D01*
X452189Y46406D01*
X452383Y46286D01*
X452596Y46157D01*
X452836Y46037D01*
X453095Y45925D01*
X453372Y45824D01*
X453659Y45741D01*
X453973Y45676D01*
X454306Y45639D01*
X454648Y45620D01*
X454731D01*
X454778Y45630D01*
X454833D01*
X454963Y45639D01*
X455129Y45657D01*
X455314Y45694D01*
X455527Y45731D01*
X455758Y45787D01*
X455998Y45861D01*
X456257Y45944D01*
X456516Y46055D01*
X456775Y46184D01*
X457043Y46342D01*
X457302Y46517D01*
X457551Y46730D01*
X457792Y46961D01*
X457810Y46979D01*
X457847Y47026D01*
X457903Y47100D01*
X457986Y47211D01*
X458078Y47349D01*
X458180Y47516D01*
X458300Y47710D01*
X458411Y47941D01*
X458531Y48200D01*
X458642Y48477D01*
X458744Y48792D01*
X458837Y49134D01*
X458920Y49504D01*
X458975Y49901D01*
X459021Y50317D01*
X459031Y50770D01*
Y50789D01*
Y50835D01*
Y50918D01*
X459021Y51029D01*
X459012Y51168D01*
X459003Y51325D01*
X458984Y51501D01*
X458966Y51695D01*
X458938Y51898D01*
X458901Y52120D01*
X458855Y52342D01*
X458809Y52573D01*
X458744Y52804D01*
X458670Y53035D01*
X458587Y53267D01*
X458494Y53488D01*
X458485Y53498D01*
X458467Y53544D01*
X458439Y53599D01*
X458393Y53683D01*
X458337Y53775D01*
X458273Y53895D01*
X458199Y54015D01*
X458106Y54154D01*
X458004Y54293D01*
X457884Y54441D01*
X457764Y54589D01*
X457625Y54737D01*
X457468Y54885D01*
X457311Y55032D01*
X457135Y55162D01*
X456950Y55291D01*
X456941Y55300D01*
X456904Y55319D01*
X456849Y55347D01*
X456775Y55393D01*
X456673Y55439D01*
X456562Y55495D01*
X456433Y55559D01*
X456285Y55615D01*
X456118Y55680D01*
X455943Y55735D01*
X455758Y55791D01*
X455554Y55837D01*
X455351Y55883D01*
X455129Y55911D01*
X454898Y55929D01*
X454667Y55939D01*
D02*
G37*
G36*
X371151Y55920D02*
X371105D01*
X371049Y55911D01*
X370976Y55901D01*
X370883Y55892D01*
X370772Y55874D01*
X370661Y55846D01*
X370532Y55809D01*
X370393Y55754D01*
X370254Y55698D01*
X370107Y55624D01*
X369968Y55532D01*
X369820Y55430D01*
X369681Y55310D01*
X369552Y55162D01*
X369422Y55005D01*
X369413Y54995D01*
X369385Y54949D01*
X369348Y54875D01*
X369293Y54774D01*
X369237Y54635D01*
X369173Y54468D01*
X369099Y54265D01*
X369025Y54025D01*
X368979Y53895D01*
X368942Y53747D01*
X368905Y53599D01*
X368877Y53433D01*
X368840Y53267D01*
X368803Y53082D01*
X368775Y52887D01*
X368747Y52684D01*
X368720Y52471D01*
X368692Y52249D01*
X368673Y52018D01*
X368655Y51778D01*
X368636Y51519D01*
X368627Y51251D01*
X368618Y50974D01*
Y50687D01*
Y50678D01*
Y50650D01*
Y50613D01*
Y50548D01*
Y50474D01*
X368627Y50391D01*
Y50289D01*
Y50178D01*
X368636Y50058D01*
Y49929D01*
X368655Y49633D01*
X368683Y49319D01*
X368710Y48986D01*
X368747Y48634D01*
X368794Y48283D01*
X368858Y47932D01*
X368923Y47590D01*
X369006Y47266D01*
X369108Y46979D01*
X369163Y46841D01*
X369219Y46721D01*
X369284Y46600D01*
X369348Y46499D01*
X369358Y46490D01*
X369385Y46452D01*
X369422Y46406D01*
X369478Y46342D01*
X369552Y46258D01*
X369644Y46175D01*
X369737Y46073D01*
X369857Y45981D01*
X369977Y45889D01*
X370116Y45787D01*
X370264Y45704D01*
X370430Y45630D01*
X370597Y45556D01*
X370781Y45509D01*
X370976Y45472D01*
X371170Y45463D01*
X371216D01*
X371271Y45472D01*
X371345Y45482D01*
X371438Y45491D01*
X371549Y45519D01*
X371669Y45546D01*
X371798Y45593D01*
X371937Y45648D01*
X372085Y45713D01*
X372233Y45796D01*
X372390Y45898D01*
X372538Y46018D01*
X372695Y46157D01*
X372843Y46314D01*
X372982Y46499D01*
X372991Y46508D01*
X373010Y46554D01*
X373047Y46619D01*
X373102Y46711D01*
X373158Y46841D01*
X373213Y46998D01*
X373287Y47183D01*
X373352Y47414D01*
X373389Y47544D01*
X373416Y47682D01*
X373453Y47821D01*
X373490Y47978D01*
X373518Y48144D01*
X373546Y48320D01*
X373583Y48505D01*
X373611Y48708D01*
X373629Y48912D01*
X373657Y49134D01*
X373675Y49365D01*
X373694Y49605D01*
X373703Y49855D01*
X373712Y50123D01*
X373722Y50400D01*
Y50687D01*
Y50696D01*
Y50724D01*
Y50770D01*
Y50826D01*
Y50900D01*
Y50983D01*
X373712Y51084D01*
Y51196D01*
X373703Y51316D01*
Y51454D01*
X373685Y51741D01*
X373657Y52055D01*
X373629Y52397D01*
X373592Y52740D01*
X373546Y53091D01*
X373481Y53442D01*
X373407Y53784D01*
X373324Y54108D01*
X373222Y54394D01*
X373167Y54533D01*
X373111Y54653D01*
X373047Y54774D01*
X372982Y54875D01*
X372973Y54885D01*
X372945Y54921D01*
X372908Y54968D01*
X372852Y55042D01*
X372779Y55116D01*
X372695Y55208D01*
X372594Y55300D01*
X372483Y55402D01*
X372353Y55495D01*
X372215Y55587D01*
X372067Y55680D01*
X371900Y55754D01*
X371725Y55827D01*
X371549Y55874D01*
X371355Y55911D01*
X371151Y55920D01*
D02*
G37*
G36*
X386804Y71797D02*
X386758D01*
X386712Y71788D01*
X386638Y71779D01*
X386545Y71770D01*
X386443Y71751D01*
X386333Y71714D01*
X386212Y71677D01*
X386074Y71631D01*
X385935Y71566D01*
X385787Y71492D01*
X385639Y71400D01*
X385482Y71289D01*
X385334Y71169D01*
X385186Y71021D01*
X385038Y70854D01*
X385029Y70845D01*
X385001Y70808D01*
X384964Y70753D01*
X384918Y70679D01*
X384863Y70586D01*
X384798Y70466D01*
X384724Y70327D01*
X384659Y70161D01*
X384585Y69985D01*
X384511Y69782D01*
X384446Y69560D01*
X384391Y69310D01*
X384345Y69051D01*
X384308Y68765D01*
X384280Y68460D01*
X384271Y68136D01*
Y68127D01*
Y68118D01*
Y68090D01*
Y68062D01*
X384280Y67970D01*
Y67840D01*
X384289Y67692D01*
X384308Y67526D01*
X384336Y67332D01*
X384363Y67138D01*
X384400Y66925D01*
X384446Y66703D01*
X384502Y66481D01*
X384576Y66269D01*
X384659Y66056D01*
X384752Y65852D01*
X384863Y65658D01*
X384992Y65492D01*
X385001Y65483D01*
X385029Y65455D01*
X385066Y65418D01*
X385121Y65362D01*
X385195Y65298D01*
X385279Y65224D01*
X385371Y65150D01*
X385482Y65067D01*
X385602Y64983D01*
X385732Y64909D01*
X385880Y64835D01*
X386037Y64771D01*
X386194Y64724D01*
X386370Y64678D01*
X386554Y64651D01*
X386739Y64641D01*
X386786D01*
X386841Y64651D01*
X386915Y64660D01*
X387007Y64669D01*
X387109Y64688D01*
X387229Y64715D01*
X387359Y64752D01*
X387488Y64798D01*
X387636Y64854D01*
X387784Y64928D01*
X387932Y65011D01*
X388089Y65113D01*
X388237Y65233D01*
X388385Y65362D01*
X388524Y65520D01*
X388533Y65529D01*
X388561Y65566D01*
X388598Y65612D01*
X388644Y65686D01*
X388699Y65778D01*
X388764Y65899D01*
X388829Y66037D01*
X388903Y66195D01*
X388968Y66379D01*
X389032Y66583D01*
X389097Y66805D01*
X389152Y67054D01*
X389208Y67323D01*
X389245Y67618D01*
X389263Y67933D01*
X389273Y68266D01*
Y68275D01*
Y68284D01*
Y68312D01*
Y68340D01*
Y68432D01*
X389263Y68552D01*
X389254Y68700D01*
X389236Y68867D01*
X389208Y69061D01*
X389180Y69255D01*
X389143Y69468D01*
X389097Y69689D01*
X389032Y69911D01*
X388968Y70124D01*
X388884Y70337D01*
X388783Y70540D01*
X388672Y70734D01*
X388542Y70910D01*
X388533Y70919D01*
X388505Y70947D01*
X388468Y70993D01*
X388413Y71048D01*
X388339Y71113D01*
X388256Y71187D01*
X388163Y71270D01*
X388052Y71354D01*
X387932Y71437D01*
X387793Y71520D01*
X387655Y71594D01*
X387497Y71659D01*
X387340Y71714D01*
X387165Y71760D01*
X386989Y71788D01*
X386804Y71797D01*
D02*
G37*
G36*
X372547Y73822D02*
X368535Y68053D01*
X372547D01*
Y73822D01*
D02*
G37*
%LPD*%
D10*
X475000Y15000D02*
G03*
X485000Y25000I0J10000D01*
G01*
X355000Y25000D02*
G03*
X365000Y15000I10000J0D01*
G01*
X485000Y75000D02*
G03*
X475000Y85000I-10000J0D01*
G01*
X365000D02*
G03*
X355000Y75000I0J-10000D01*
G01*
Y25000D02*
Y75000D01*
X365000Y15000D02*
X475000D01*
X365000Y85000D02*
X475000D01*
X485000Y25000D02*
Y75000D01*
X355000Y25000D02*
X355000D01*
D11*
X260000Y43000D02*
X265000D01*
M02*
