G04*
G04 #@! TF.GenerationSoftware,Altium Limited,Altium Designer,23.9.2 (47)*
G04*
G04 Layer_Color=32896*
%FSLAX44Y44*%
%MOMM*%
G71*
G04*
G04 #@! TF.SameCoordinates,A9C3D319-5A17-451D-A4C5-16098FC82B81*
G04*
G04*
G04 #@! TF.FilePolarity,Positive*
G04*
G01*
G75*
%ADD11C,0.1000*%
G36*
X230482Y214670D02*
X230686Y214373D01*
X230926Y214077D01*
X231148Y213818D01*
X231371Y213596D01*
X231537Y213411D01*
X231611Y213355D01*
X231667Y213300D01*
X231685Y213281D01*
X231704Y213263D01*
X232093Y212948D01*
X232482Y212652D01*
X232852Y212392D01*
X233222Y212189D01*
X233537Y212003D01*
X233667Y211929D01*
X233778Y211874D01*
X233870Y211818D01*
X233944Y211800D01*
X233981Y211763D01*
X234000D01*
Y210244D01*
X233722Y210355D01*
X233444Y210485D01*
X233167Y210615D01*
X232908Y210744D01*
X232685Y210855D01*
X232500Y210948D01*
X232389Y211022D01*
X232370Y211040D01*
X232352D01*
X232019Y211244D01*
X231722Y211448D01*
X231463Y211633D01*
X231259Y211800D01*
X231074Y211929D01*
X230963Y212040D01*
X230871Y212115D01*
X230852Y212133D01*
Y202115D01*
X229278D01*
Y214985D01*
X230297D01*
X230482Y214670D01*
D02*
G37*
G36*
X254296Y214966D02*
X254610Y214948D01*
X254907Y214892D01*
X255184Y214837D01*
X255443Y214762D01*
X255684Y214688D01*
X255906Y214596D01*
X256110Y214503D01*
X256295Y214411D01*
X256443Y214318D01*
X256573Y214244D01*
X256684Y214170D01*
X256777Y214114D01*
X256832Y214059D01*
X256869Y214040D01*
X256888Y214022D01*
X257073Y213837D01*
X257240Y213633D01*
X257406Y213411D01*
X257536Y213188D01*
X257758Y212744D01*
X257906Y212300D01*
X257962Y212096D01*
X258017Y211892D01*
X258054Y211726D01*
X258091Y211577D01*
X258110Y211448D01*
Y211355D01*
X258128Y211300D01*
Y211281D01*
X256517Y211115D01*
X256480Y211541D01*
X256406Y211911D01*
X256295Y212244D01*
X256166Y212503D01*
X256054Y212726D01*
X255943Y212874D01*
X255869Y212966D01*
X255832Y213003D01*
X255555Y213225D01*
X255258Y213392D01*
X254944Y213522D01*
X254666Y213596D01*
X254407Y213651D01*
X254184Y213670D01*
X254110Y213688D01*
X253999D01*
X253610Y213670D01*
X253258Y213596D01*
X252962Y213485D01*
X252703Y213374D01*
X252499Y213244D01*
X252370Y213151D01*
X252277Y213077D01*
X252240Y213040D01*
X252018Y212781D01*
X251851Y212522D01*
X251722Y212263D01*
X251648Y212003D01*
X251592Y211800D01*
X251574Y211615D01*
X251555Y211504D01*
Y211485D01*
Y211466D01*
X251592Y211133D01*
X251666Y210781D01*
X251796Y210466D01*
X251925Y210170D01*
X252073Y209930D01*
X252203Y209726D01*
X252240Y209652D01*
X252277Y209596D01*
X252314Y209578D01*
Y209559D01*
X252462Y209356D01*
X252647Y209152D01*
X252851Y208930D01*
X253073Y208708D01*
X253536Y208263D01*
X253999Y207819D01*
X254240Y207615D01*
X254444Y207430D01*
X254647Y207263D01*
X254814Y207115D01*
X254944Y207004D01*
X255055Y206911D01*
X255129Y206856D01*
X255147Y206837D01*
X255610Y206448D01*
X256036Y206078D01*
X256388Y205745D01*
X256666Y205467D01*
X256906Y205226D01*
X257073Y205060D01*
X257166Y204949D01*
X257203Y204930D01*
Y204912D01*
X257462Y204597D01*
X257666Y204300D01*
X257851Y204004D01*
X257999Y203745D01*
X258110Y203523D01*
X258184Y203356D01*
X258221Y203245D01*
X258239Y203227D01*
Y203208D01*
X258314Y203004D01*
X258351Y202819D01*
X258388Y202634D01*
X258406Y202467D01*
X258425Y202319D01*
Y202208D01*
Y202134D01*
Y202115D01*
X249925D01*
Y203634D01*
X256240D01*
X256017Y203949D01*
X255906Y204078D01*
X255814Y204208D01*
X255721Y204319D01*
X255647Y204393D01*
X255592Y204449D01*
X255573Y204467D01*
X255480Y204560D01*
X255369Y204652D01*
X255110Y204893D01*
X254814Y205171D01*
X254499Y205448D01*
X254203Y205689D01*
X254073Y205800D01*
X253962Y205911D01*
X253870Y205986D01*
X253796Y206041D01*
X253759Y206078D01*
X253740Y206097D01*
X253444Y206356D01*
X253147Y206597D01*
X252888Y206837D01*
X252647Y207041D01*
X252425Y207245D01*
X252240Y207430D01*
X252055Y207596D01*
X251907Y207745D01*
X251759Y207893D01*
X251648Y208004D01*
X251555Y208096D01*
X251462Y208189D01*
X251370Y208300D01*
X251333Y208337D01*
X251074Y208652D01*
X250851Y208930D01*
X250666Y209207D01*
X250518Y209430D01*
X250407Y209633D01*
X250333Y209781D01*
X250296Y209874D01*
X250277Y209911D01*
X250166Y210189D01*
X250092Y210466D01*
X250018Y210726D01*
X249981Y210948D01*
X249963Y211152D01*
X249944Y211300D01*
Y211392D01*
Y211429D01*
X249963Y211707D01*
X250000Y211966D01*
X250037Y212226D01*
X250111Y212448D01*
X250296Y212892D01*
X250481Y213244D01*
X250592Y213411D01*
X250685Y213540D01*
X250777Y213670D01*
X250870Y213762D01*
X250944Y213837D01*
X250981Y213911D01*
X251018Y213929D01*
X251036Y213948D01*
X251240Y214133D01*
X251462Y214300D01*
X251703Y214429D01*
X251944Y214540D01*
X252425Y214725D01*
X252907Y214855D01*
X253110Y214892D01*
X253314Y214929D01*
X253499Y214948D01*
X253647Y214966D01*
X253777Y214985D01*
X253962D01*
X254296Y214966D01*
D02*
G37*
G36*
X281273Y215054D02*
X281773Y214962D01*
X282199Y214813D01*
X282569Y214665D01*
X282736Y214573D01*
X282865Y214499D01*
X282995Y214425D01*
X283087Y214350D01*
X283162Y214295D01*
X283217Y214258D01*
X283254Y214239D01*
X283273Y214221D01*
X283624Y213869D01*
X283902Y213480D01*
X284124Y213073D01*
X284310Y212666D01*
X284421Y212314D01*
X284476Y212166D01*
X284513Y212036D01*
X284532Y211925D01*
X284550Y211851D01*
X284569Y211795D01*
Y211777D01*
X282995Y211499D01*
X282921Y211906D01*
X282810Y212258D01*
X282680Y212554D01*
X282551Y212795D01*
X282421Y212980D01*
X282310Y213110D01*
X282236Y213202D01*
X282217Y213221D01*
X281976Y213406D01*
X281717Y213554D01*
X281476Y213647D01*
X281236Y213721D01*
X281014Y213758D01*
X280847Y213795D01*
X280699D01*
X280366Y213776D01*
X280069Y213703D01*
X279810Y213610D01*
X279588Y213517D01*
X279421Y213406D01*
X279291Y213314D01*
X279199Y213240D01*
X279180Y213221D01*
X278977Y212999D01*
X278829Y212758D01*
X278736Y212517D01*
X278662Y212295D01*
X278625Y212092D01*
X278588Y211943D01*
Y211832D01*
Y211814D01*
Y211795D01*
Y211592D01*
X278625Y211406D01*
X278717Y211092D01*
X278847Y210814D01*
X278995Y210573D01*
X279143Y210406D01*
X279273Y210277D01*
X279366Y210203D01*
X279384Y210184D01*
X279403D01*
X279717Y210018D01*
X280014Y209888D01*
X280329Y209795D01*
X280606Y209740D01*
X280847Y209703D01*
X281051Y209666D01*
X281291D01*
X281365Y209684D01*
X281458D01*
X281643Y208296D01*
X281402Y208351D01*
X281180Y208388D01*
X280995Y208425D01*
X280828Y208444D01*
X280699Y208462D01*
X280532D01*
X280143Y208425D01*
X279792Y208351D01*
X279477Y208240D01*
X279217Y208111D01*
X279014Y207981D01*
X278866Y207870D01*
X278773Y207796D01*
X278736Y207759D01*
X278495Y207481D01*
X278310Y207185D01*
X278181Y206888D01*
X278106Y206592D01*
X278051Y206351D01*
X278032Y206148D01*
X278014Y206074D01*
Y206018D01*
Y205981D01*
Y205963D01*
X278051Y205555D01*
X278144Y205185D01*
X278255Y204870D01*
X278403Y204592D01*
X278551Y204370D01*
X278662Y204203D01*
X278755Y204092D01*
X278792Y204055D01*
X279088Y203796D01*
X279403Y203611D01*
X279717Y203481D01*
X280014Y203389D01*
X280273Y203333D01*
X280477Y203315D01*
X280551Y203296D01*
X280662D01*
X280995Y203315D01*
X281310Y203389D01*
X281588Y203481D01*
X281810Y203592D01*
X281995Y203685D01*
X282143Y203778D01*
X282217Y203852D01*
X282254Y203870D01*
X282476Y204129D01*
X282662Y204426D01*
X282828Y204740D01*
X282958Y205074D01*
X283050Y205352D01*
X283087Y205481D01*
X283106Y205592D01*
X283125Y205685D01*
X283143Y205759D01*
X283162Y205796D01*
Y205814D01*
X284735Y205611D01*
X284698Y205314D01*
X284643Y205037D01*
X284476Y204518D01*
X284272Y204074D01*
X284161Y203889D01*
X284050Y203703D01*
X283939Y203537D01*
X283828Y203407D01*
X283736Y203278D01*
X283643Y203185D01*
X283587Y203111D01*
X283532Y203055D01*
X283495Y203018D01*
X283476Y203000D01*
X283254Y202833D01*
X283032Y202667D01*
X282810Y202537D01*
X282569Y202426D01*
X282106Y202241D01*
X281662Y202130D01*
X281458Y202093D01*
X281273Y202055D01*
X281106Y202037D01*
X280958Y202019D01*
X280847Y202000D01*
X280680D01*
X280329Y202019D01*
X280014Y202055D01*
X279699Y202111D01*
X279403Y202185D01*
X279125Y202278D01*
X278884Y202370D01*
X278643Y202481D01*
X278440Y202593D01*
X278236Y202685D01*
X278069Y202796D01*
X277921Y202889D01*
X277810Y202981D01*
X277718Y203055D01*
X277644Y203111D01*
X277607Y203148D01*
X277588Y203167D01*
X277366Y203389D01*
X277181Y203629D01*
X277014Y203870D01*
X276866Y204111D01*
X276755Y204333D01*
X276644Y204574D01*
X276495Y205018D01*
X276458Y205222D01*
X276422Y205407D01*
X276384Y205574D01*
X276366Y205722D01*
X276347Y205833D01*
Y205926D01*
Y205981D01*
Y206000D01*
X276366Y206444D01*
X276440Y206851D01*
X276551Y207203D01*
X276662Y207499D01*
X276773Y207740D01*
X276884Y207925D01*
X276959Y208036D01*
X276977Y208073D01*
X277236Y208351D01*
X277514Y208592D01*
X277810Y208777D01*
X278106Y208925D01*
X278366Y209036D01*
X278569Y209110D01*
X278643Y209129D01*
X278699Y209147D01*
X278736Y209166D01*
X278755D01*
X278440Y209333D01*
X278181Y209499D01*
X277958Y209684D01*
X277773Y209851D01*
X277625Y209999D01*
X277514Y210129D01*
X277458Y210203D01*
X277440Y210240D01*
X277292Y210499D01*
X277181Y210758D01*
X277088Y211018D01*
X277033Y211258D01*
X276996Y211462D01*
X276977Y211610D01*
Y211721D01*
Y211758D01*
X276996Y212073D01*
X277051Y212388D01*
X277125Y212666D01*
X277218Y212906D01*
X277310Y213110D01*
X277384Y213277D01*
X277440Y213369D01*
X277458Y213406D01*
X277644Y213684D01*
X277866Y213925D01*
X278088Y214128D01*
X278310Y214314D01*
X278495Y214443D01*
X278662Y214554D01*
X278773Y214610D01*
X278792Y214628D01*
X278810D01*
X279143Y214776D01*
X279477Y214888D01*
X279810Y214980D01*
X280106Y215036D01*
X280347Y215073D01*
X280551Y215091D01*
X281014D01*
X281273Y215054D01*
D02*
G37*
G36*
X311000Y206657D02*
Y205212D01*
X305427D01*
Y202139D01*
X303853D01*
Y205212D01*
X302112D01*
Y206657D01*
X303853D01*
Y214952D01*
X305130D01*
X311000Y206657D01*
D02*
G37*
G36*
X292000Y70384D02*
Y69302D01*
X287826D01*
Y67000D01*
X286647D01*
Y69302D01*
X285343D01*
Y70384D01*
X286647D01*
Y76597D01*
X287604D01*
X292000Y70384D01*
D02*
G37*
G36*
X276510Y76777D02*
X276884Y76708D01*
X277203Y76597D01*
X277481Y76486D01*
X277605Y76417D01*
X277703Y76361D01*
X277799Y76306D01*
X277869Y76250D01*
X277924Y76209D01*
X277966Y76181D01*
X277994Y76167D01*
X278008Y76153D01*
X278271Y75890D01*
X278479Y75598D01*
X278645Y75293D01*
X278784Y74988D01*
X278867Y74725D01*
X278909Y74614D01*
X278937Y74517D01*
X278951Y74433D01*
X278965Y74378D01*
X278978Y74336D01*
Y74323D01*
X277799Y74114D01*
X277744Y74420D01*
X277661Y74683D01*
X277564Y74905D01*
X277467Y75085D01*
X277370Y75224D01*
X277286Y75321D01*
X277231Y75390D01*
X277217Y75404D01*
X277037Y75543D01*
X276843Y75654D01*
X276662Y75723D01*
X276482Y75779D01*
X276316Y75806D01*
X276191Y75834D01*
X276080D01*
X275830Y75820D01*
X275608Y75765D01*
X275414Y75696D01*
X275248Y75626D01*
X275123Y75543D01*
X275026Y75474D01*
X274956Y75418D01*
X274943Y75404D01*
X274790Y75238D01*
X274679Y75058D01*
X274610Y74877D01*
X274554Y74711D01*
X274527Y74558D01*
X274499Y74447D01*
Y74364D01*
Y74350D01*
Y74336D01*
Y74184D01*
X274527Y74045D01*
X274596Y73809D01*
X274693Y73601D01*
X274804Y73421D01*
X274915Y73296D01*
X275012Y73199D01*
X275081Y73144D01*
X275095Y73130D01*
X275109D01*
X275345Y73005D01*
X275567Y72908D01*
X275802Y72839D01*
X276010Y72797D01*
X276191Y72769D01*
X276343Y72741D01*
X276524D01*
X276579Y72755D01*
X276649D01*
X276787Y71715D01*
X276607Y71757D01*
X276440Y71785D01*
X276302Y71812D01*
X276177Y71826D01*
X276080Y71840D01*
X275955D01*
X275664Y71812D01*
X275400Y71757D01*
X275165Y71674D01*
X274970Y71577D01*
X274818Y71480D01*
X274707Y71396D01*
X274638Y71341D01*
X274610Y71313D01*
X274429Y71105D01*
X274291Y70883D01*
X274194Y70661D01*
X274138Y70439D01*
X274097Y70259D01*
X274083Y70107D01*
X274069Y70051D01*
Y70009D01*
Y69982D01*
Y69968D01*
X274097Y69663D01*
X274166Y69385D01*
X274249Y69150D01*
X274360Y68942D01*
X274471Y68775D01*
X274554Y68650D01*
X274624Y68567D01*
X274651Y68539D01*
X274873Y68345D01*
X275109Y68207D01*
X275345Y68109D01*
X275567Y68040D01*
X275761Y67998D01*
X275913Y67985D01*
X275969Y67971D01*
X276052D01*
X276302Y67985D01*
X276537Y68040D01*
X276745Y68109D01*
X276912Y68193D01*
X277051Y68262D01*
X277162Y68331D01*
X277217Y68387D01*
X277245Y68401D01*
X277411Y68595D01*
X277550Y68817D01*
X277675Y69053D01*
X277772Y69302D01*
X277841Y69510D01*
X277869Y69607D01*
X277883Y69690D01*
X277897Y69760D01*
X277910Y69815D01*
X277924Y69843D01*
Y69857D01*
X279103Y69704D01*
X279075Y69482D01*
X279034Y69274D01*
X278909Y68886D01*
X278757Y68553D01*
X278673Y68415D01*
X278590Y68276D01*
X278507Y68151D01*
X278424Y68054D01*
X278354Y67957D01*
X278285Y67888D01*
X278243Y67832D01*
X278202Y67790D01*
X278174Y67763D01*
X278160Y67749D01*
X277994Y67624D01*
X277827Y67499D01*
X277661Y67402D01*
X277481Y67319D01*
X277134Y67180D01*
X276801Y67097D01*
X276649Y67069D01*
X276510Y67042D01*
X276385Y67028D01*
X276274Y67014D01*
X276191Y67000D01*
X276066D01*
X275802Y67014D01*
X275567Y67042D01*
X275331Y67083D01*
X275109Y67139D01*
X274901Y67208D01*
X274721Y67277D01*
X274541Y67361D01*
X274388Y67444D01*
X274235Y67513D01*
X274111Y67596D01*
X274000Y67666D01*
X273916Y67735D01*
X273847Y67790D01*
X273792Y67832D01*
X273764Y67860D01*
X273750Y67874D01*
X273584Y68040D01*
X273445Y68220D01*
X273320Y68401D01*
X273209Y68581D01*
X273126Y68747D01*
X273043Y68928D01*
X272932Y69261D01*
X272904Y69413D01*
X272876Y69552D01*
X272848Y69677D01*
X272835Y69788D01*
X272821Y69871D01*
Y69940D01*
Y69982D01*
Y69996D01*
X272835Y70328D01*
X272890Y70634D01*
X272973Y70897D01*
X273057Y71119D01*
X273140Y71299D01*
X273223Y71438D01*
X273278Y71521D01*
X273292Y71549D01*
X273486Y71757D01*
X273694Y71937D01*
X273916Y72076D01*
X274138Y72187D01*
X274332Y72270D01*
X274485Y72326D01*
X274541Y72339D01*
X274582Y72353D01*
X274610Y72367D01*
X274624D01*
X274388Y72492D01*
X274194Y72617D01*
X274027Y72755D01*
X273889Y72880D01*
X273778Y72991D01*
X273694Y73088D01*
X273653Y73144D01*
X273639Y73171D01*
X273528Y73366D01*
X273445Y73560D01*
X273375Y73754D01*
X273334Y73934D01*
X273306Y74087D01*
X273292Y74198D01*
Y74281D01*
Y74309D01*
X273306Y74544D01*
X273348Y74780D01*
X273403Y74988D01*
X273473Y75168D01*
X273542Y75321D01*
X273597Y75446D01*
X273639Y75515D01*
X273653Y75543D01*
X273792Y75751D01*
X273958Y75931D01*
X274124Y76084D01*
X274291Y76223D01*
X274429Y76320D01*
X274554Y76403D01*
X274638Y76444D01*
X274651Y76458D01*
X274665D01*
X274915Y76569D01*
X275165Y76652D01*
X275414Y76722D01*
X275636Y76763D01*
X275816Y76791D01*
X275969Y76805D01*
X276316D01*
X276510Y76777D01*
D02*
G37*
G36*
X263907Y76625D02*
X264143Y76611D01*
X264365Y76569D01*
X264573Y76528D01*
X264767Y76472D01*
X264947Y76417D01*
X265114Y76347D01*
X265266Y76278D01*
X265405Y76209D01*
X265516Y76139D01*
X265613Y76084D01*
X265696Y76028D01*
X265766Y75987D01*
X265807Y75945D01*
X265835Y75931D01*
X265849Y75917D01*
X265988Y75779D01*
X266112Y75626D01*
X266237Y75460D01*
X266334Y75293D01*
X266501Y74960D01*
X266612Y74628D01*
X266653Y74475D01*
X266695Y74323D01*
X266723Y74198D01*
X266750Y74087D01*
X266764Y73990D01*
Y73920D01*
X266778Y73879D01*
Y73865D01*
X265572Y73740D01*
X265544Y74059D01*
X265488Y74336D01*
X265405Y74586D01*
X265308Y74780D01*
X265225Y74947D01*
X265142Y75058D01*
X265086Y75127D01*
X265058Y75155D01*
X264850Y75321D01*
X264629Y75446D01*
X264393Y75543D01*
X264185Y75598D01*
X263991Y75640D01*
X263824Y75654D01*
X263769Y75668D01*
X263685D01*
X263394Y75654D01*
X263131Y75598D01*
X262909Y75515D01*
X262715Y75432D01*
X262562Y75335D01*
X262465Y75266D01*
X262396Y75210D01*
X262368Y75182D01*
X262201Y74988D01*
X262077Y74794D01*
X261980Y74600D01*
X261924Y74406D01*
X261883Y74253D01*
X261869Y74114D01*
X261855Y74031D01*
Y74017D01*
Y74004D01*
X261883Y73754D01*
X261938Y73490D01*
X262035Y73255D01*
X262132Y73033D01*
X262243Y72853D01*
X262340Y72700D01*
X262368Y72644D01*
X262396Y72603D01*
X262423Y72589D01*
Y72575D01*
X262534Y72422D01*
X262673Y72270D01*
X262826Y72104D01*
X262992Y71937D01*
X263339Y71604D01*
X263685Y71272D01*
X263866Y71119D01*
X264018Y70980D01*
X264171Y70855D01*
X264296Y70745D01*
X264393Y70661D01*
X264476Y70592D01*
X264531Y70550D01*
X264545Y70536D01*
X264892Y70245D01*
X265211Y69968D01*
X265474Y69718D01*
X265683Y69510D01*
X265863Y69330D01*
X265988Y69205D01*
X266057Y69122D01*
X266085Y69108D01*
Y69094D01*
X266279Y68858D01*
X266431Y68636D01*
X266570Y68415D01*
X266681Y68220D01*
X266764Y68054D01*
X266820Y67929D01*
X266847Y67846D01*
X266861Y67832D01*
Y67818D01*
X266917Y67666D01*
X266945Y67527D01*
X266972Y67388D01*
X266986Y67263D01*
X267000Y67153D01*
Y67069D01*
Y67014D01*
Y67000D01*
X260634D01*
Y68137D01*
X265364D01*
X265197Y68373D01*
X265114Y68470D01*
X265045Y68567D01*
X264975Y68650D01*
X264920Y68706D01*
X264878Y68747D01*
X264864Y68761D01*
X264795Y68831D01*
X264712Y68900D01*
X264518Y69080D01*
X264296Y69288D01*
X264060Y69496D01*
X263838Y69677D01*
X263741Y69760D01*
X263658Y69843D01*
X263588Y69899D01*
X263533Y69940D01*
X263505Y69968D01*
X263491Y69982D01*
X263269Y70176D01*
X263048Y70356D01*
X262853Y70536D01*
X262673Y70689D01*
X262507Y70841D01*
X262368Y70980D01*
X262229Y71105D01*
X262118Y71216D01*
X262007Y71327D01*
X261924Y71410D01*
X261855Y71480D01*
X261786Y71549D01*
X261716Y71632D01*
X261688Y71660D01*
X261494Y71895D01*
X261328Y72104D01*
X261189Y72312D01*
X261078Y72478D01*
X260995Y72631D01*
X260940Y72741D01*
X260912Y72811D01*
X260898Y72839D01*
X260815Y73047D01*
X260759Y73255D01*
X260704Y73449D01*
X260676Y73615D01*
X260662Y73768D01*
X260648Y73879D01*
Y73948D01*
Y73976D01*
X260662Y74184D01*
X260690Y74378D01*
X260718Y74572D01*
X260773Y74739D01*
X260912Y75071D01*
X261050Y75335D01*
X261134Y75460D01*
X261203Y75557D01*
X261272Y75654D01*
X261342Y75723D01*
X261397Y75779D01*
X261425Y75834D01*
X261453Y75848D01*
X261467Y75862D01*
X261619Y76001D01*
X261786Y76125D01*
X261966Y76223D01*
X262146Y76306D01*
X262507Y76444D01*
X262867Y76542D01*
X263020Y76569D01*
X263172Y76597D01*
X263311Y76611D01*
X263422Y76625D01*
X263519Y76638D01*
X263658D01*
X263907Y76625D01*
D02*
G37*
G36*
X253365Y76403D02*
X253518Y76181D01*
X253698Y75959D01*
X253864Y75765D01*
X254031Y75598D01*
X254156Y75460D01*
X254211Y75418D01*
X254253Y75377D01*
X254266Y75363D01*
X254280Y75349D01*
X254572Y75113D01*
X254863Y74891D01*
X255140Y74697D01*
X255417Y74544D01*
X255653Y74406D01*
X255750Y74350D01*
X255834Y74309D01*
X255903Y74267D01*
X255958Y74253D01*
X255986Y74225D01*
X256000D01*
Y73088D01*
X255792Y73171D01*
X255584Y73268D01*
X255376Y73366D01*
X255182Y73463D01*
X255015Y73546D01*
X254877Y73615D01*
X254793Y73671D01*
X254780Y73685D01*
X254766D01*
X254516Y73837D01*
X254294Y73990D01*
X254100Y74128D01*
X253948Y74253D01*
X253809Y74350D01*
X253726Y74433D01*
X253656Y74489D01*
X253642Y74503D01*
Y67000D01*
X252464D01*
Y76638D01*
X253226D01*
X253365Y76403D01*
D02*
G37*
%LPC*%
G36*
X305427Y212397D02*
Y206657D01*
X309463D01*
X305427Y212397D01*
D02*
G37*
G36*
X287826Y74683D02*
Y70384D01*
X290849D01*
X287826Y74683D01*
D02*
G37*
%LPD*%
D11*
X280000Y62291D02*
X290000D01*
M02*
