G04*
G04 #@! TF.GenerationSoftware,Altium Limited,Altium Designer,23.5.1 (21)*
G04*
G04 Layer_Physical_Order=1*
G04 Layer_Color=255*
%FSLAX44Y44*%
%MOMM*%
G71*
G04*
G04 #@! TF.SameCoordinates,34F56F4F-A135-4B17-BADB-48D754938E37*
G04*
G04*
G04 #@! TF.FilePolarity,Positive*
G04*
G01*
G75*
%ADD12R,0.4000X0.8000*%
%ADD13R,0.3000X0.8000*%
%ADD19C,0.2040*%
%ADD20C,1.6000*%
%ADD21R,1.6000X1.6000*%
%ADD22C,3.0000*%
G36*
X214679Y205859D02*
Y205720D01*
Y205443D01*
Y205165D01*
Y204679D01*
Y204193D01*
Y203498D01*
Y202734D01*
Y201832D01*
Y200790D01*
Y199540D01*
Y198221D01*
Y196693D01*
Y195026D01*
Y193082D01*
Y191068D01*
Y188776D01*
Y186276D01*
Y183568D01*
Y180651D01*
Y177457D01*
Y174054D01*
Y170374D01*
Y166485D01*
Y164401D01*
Y162318D01*
Y160096D01*
Y157804D01*
Y155513D01*
Y153082D01*
Y150582D01*
Y148013D01*
Y145374D01*
Y142666D01*
Y139888D01*
Y136971D01*
Y134055D01*
Y130999D01*
X214679Y56000D01*
X147839Y93499D01*
X214679Y130999D01*
X147839Y168499D01*
X214679Y205998D01*
Y205859D01*
D02*
G37*
G36*
X147839Y168499D02*
X81000Y130999D01*
X147839Y93499D01*
X81000Y56000D01*
X81000Y130999D01*
Y134055D01*
Y136971D01*
Y139888D01*
Y142666D01*
Y145374D01*
Y148013D01*
Y150582D01*
Y153082D01*
Y155513D01*
Y157804D01*
Y160096D01*
Y162318D01*
Y164401D01*
Y166485D01*
Y170374D01*
Y174054D01*
Y177457D01*
Y180651D01*
Y183568D01*
Y186276D01*
Y188776D01*
Y191068D01*
Y193082D01*
Y195026D01*
Y196693D01*
Y198221D01*
Y199540D01*
Y200790D01*
Y201831D01*
Y202734D01*
Y203498D01*
Y204193D01*
Y204679D01*
Y205165D01*
Y205443D01*
Y205720D01*
Y205859D01*
Y205998D01*
X147839Y168499D01*
D02*
G37*
D12*
X253000Y10222D02*
D03*
X287000D02*
D03*
D13*
X277500Y35222D02*
D03*
X272500D02*
D03*
X267500D02*
D03*
X262500D02*
D03*
D19*
X277500Y198751D02*
X308100Y229351D01*
X277500Y35222D02*
Y198751D01*
X272500Y35222D02*
Y219151D01*
X282700Y229351D01*
X262500Y35222D02*
Y198751D01*
X231900Y229351D02*
X262500Y198751D01*
X267500Y35222D02*
Y219151D01*
X257300Y229351D02*
X267500Y219151D01*
D20*
X308100Y229351D02*
D03*
X282700D02*
D03*
X257300D02*
D03*
D21*
X231900D02*
D03*
D22*
X520000Y30000D02*
D03*
Y220000D02*
D03*
X30000D02*
D03*
Y30000D02*
D03*
M02*
