G04*
G04 #@! TF.GenerationSoftware,Altium Limited,Altium Designer,23.8.1 (32)*
G04*
G04 Layer_Color=8388736*
%FSLAX44Y44*%
%MOMM*%
G71*
G04*
G04 #@! TF.SameCoordinates,8D10C5A6-D087-465C-88DE-2456D22F2F40*
G04*
G04*
G04 #@! TF.FilePolarity,Negative*
G04*
G01*
G75*
%ADD23R,1.2400X0.7400*%
%ADD24R,1.2032X3.9032*%
%ADD25R,1.4032X2.1032*%
%ADD26R,1.5032X1.7532*%
%ADD27R,0.5032X0.6032*%
%ADD28R,0.9632X2.6032*%
%ADD29R,0.7532X0.7532*%
%ADD30R,0.7532X0.7532*%
%ADD31C,1.7032*%
%ADD32C,1.8032*%
%ADD33R,1.8032X1.8032*%
%ADD34R,1.8032X1.8032*%
D23*
X254554Y210922D02*
D03*
Y191922D02*
D03*
X228554Y210922D02*
D03*
Y201422D02*
D03*
Y191922D02*
D03*
D24*
X50546Y359316D02*
D03*
X75946D02*
D03*
X101346D02*
D03*
X126746D02*
D03*
X152146D02*
D03*
X177546D02*
D03*
X202946D02*
D03*
X228346D02*
D03*
X253746D02*
D03*
X279146D02*
D03*
D25*
X106328Y67056D02*
D03*
X62328D02*
D03*
D26*
X127360Y216282D02*
D03*
Y295782D02*
D03*
X172360Y216282D02*
D03*
Y295782D02*
D03*
D27*
X128598Y195074D02*
D03*
X137598D02*
D03*
D28*
X195580Y85032D02*
D03*
X182880D02*
D03*
X170180D02*
D03*
X157480D02*
D03*
X144780D02*
D03*
X195580Y46032D02*
D03*
X182880D02*
D03*
X170180D02*
D03*
X157480D02*
D03*
X144780D02*
D03*
D29*
X124460Y30734D02*
D03*
Y40894D02*
D03*
D30*
X279714Y210192D02*
D03*
X269554D02*
D03*
D31*
X28702Y25146D02*
D03*
X27940Y143376D02*
D03*
D32*
X29529Y275124D02*
D03*
X54929D02*
D03*
X301498Y244856D02*
D03*
Y219456D02*
D03*
D33*
X80329Y275124D02*
D03*
D34*
X301498Y270256D02*
D03*
M02*
