G04*
G04 #@! TF.GenerationSoftware,Altium Limited,Altium Designer,23.10.1 (27)*
G04*
G04 Layer_Color=65535*
%FSLAX44Y44*%
%MOMM*%
G71*
G04*
G04 #@! TF.SameCoordinates,E8663D54-F838-47F8-9E7A-4E2C6B29C732*
G04*
G04*
G04 #@! TF.FilePolarity,Positive*
G04*
G01*
G75*
%ADD10C,0.2000*%
%ADD11C,0.1000*%
G36*
X350303Y238664D02*
X351596D01*
Y237586D01*
X350303D01*
Y235290D01*
X349122D01*
Y237586D01*
X344951D01*
Y238664D01*
X349337Y244897D01*
X350303D01*
Y238664D01*
D02*
G37*
G36*
X342317Y235290D02*
X341136D01*
Y242798D01*
X341127D01*
X341117Y242779D01*
X341089Y242760D01*
X341061Y242732D01*
X340967Y242647D01*
X340836Y242544D01*
X340677Y242423D01*
X340480Y242282D01*
X340255Y242132D01*
X340011Y241982D01*
X340002D01*
X339983Y241963D01*
X339946Y241945D01*
X339899Y241916D01*
X339833Y241879D01*
X339768Y241842D01*
X339599Y241757D01*
X339412Y241663D01*
X339205Y241560D01*
X338990Y241467D01*
X338784Y241382D01*
Y242516D01*
X338793Y242526D01*
X338830Y242535D01*
X338877Y242563D01*
X338952Y242601D01*
X339037Y242647D01*
X339130Y242704D01*
X339243Y242760D01*
X339365Y242835D01*
X339636Y242994D01*
X339927Y243191D01*
X340218Y243407D01*
X340508Y243641D01*
X340518Y243650D01*
X340536Y243669D01*
X340583Y243707D01*
X340630Y243754D01*
X340686Y243819D01*
X340761Y243885D01*
X340836Y243969D01*
X340921Y244053D01*
X341089Y244250D01*
X341258Y244466D01*
X341417Y244700D01*
X341492Y244813D01*
X341549Y244934D01*
X342317D01*
Y235290D01*
D02*
G37*
G36*
X350484Y185725D02*
X350559D01*
X350634Y185715D01*
X350728Y185706D01*
X350831Y185697D01*
X351056Y185650D01*
X351290Y185593D01*
X351543Y185509D01*
X351796Y185397D01*
X351806D01*
X351824Y185378D01*
X351862Y185359D01*
X351909Y185331D01*
X351965Y185303D01*
X352021Y185256D01*
X352171Y185153D01*
X352340Y185022D01*
X352509Y184862D01*
X352668Y184675D01*
X352809Y184469D01*
Y184459D01*
X352827Y184441D01*
X352846Y184413D01*
X352865Y184366D01*
X352893Y184319D01*
X352921Y184253D01*
X352987Y184094D01*
X353052Y183916D01*
X353109Y183700D01*
X353146Y183475D01*
X353165Y183232D01*
Y183222D01*
Y183204D01*
Y183175D01*
X353155Y183129D01*
Y183072D01*
X353146Y183007D01*
X353127Y182857D01*
X353080Y182679D01*
X353024Y182491D01*
X352940Y182294D01*
X352827Y182097D01*
Y182088D01*
X352809Y182079D01*
X352790Y182051D01*
X352762Y182013D01*
X352687Y181919D01*
X352574Y181807D01*
X352434Y181676D01*
X352265Y181544D01*
X352068Y181413D01*
X351834Y181292D01*
X351843D01*
X351871Y181282D01*
X351918Y181273D01*
X351974Y181254D01*
X352049Y181226D01*
X352124Y181198D01*
X352321Y181113D01*
X352528Y181010D01*
X352752Y180860D01*
X352968Y180692D01*
X353062Y180588D01*
X353155Y180476D01*
X353165Y180467D01*
X353174Y180448D01*
X353202Y180410D01*
X353230Y180364D01*
X353268Y180307D01*
X353305Y180232D01*
X353352Y180148D01*
X353399Y180054D01*
X353437Y179942D01*
X353484Y179829D01*
X353521Y179698D01*
X353558Y179567D01*
X353615Y179267D01*
X353624Y179098D01*
X353633Y178930D01*
Y178920D01*
Y178873D01*
X353624Y178808D01*
Y178723D01*
X353605Y178611D01*
X353587Y178489D01*
X353558Y178349D01*
X353521Y178189D01*
X353474Y178030D01*
X353409Y177861D01*
X353334Y177683D01*
X353249Y177505D01*
X353137Y177327D01*
X353015Y177139D01*
X352874Y176971D01*
X352715Y176802D01*
X352705Y176793D01*
X352677Y176765D01*
X352621Y176718D01*
X352546Y176671D01*
X352462Y176596D01*
X352349Y176530D01*
X352228Y176446D01*
X352078Y176371D01*
X351918Y176287D01*
X351740Y176202D01*
X351553Y176137D01*
X351347Y176071D01*
X351131Y176015D01*
X350897Y175968D01*
X350653Y175940D01*
X350391Y175930D01*
X350334D01*
X350269Y175940D01*
X350184D01*
X350072Y175949D01*
X349950Y175968D01*
X349809Y175996D01*
X349650Y176024D01*
X349491Y176062D01*
X349322Y176118D01*
X349144Y176174D01*
X348975Y176249D01*
X348797Y176333D01*
X348619Y176437D01*
X348450Y176549D01*
X348291Y176680D01*
X348282Y176689D01*
X348254Y176718D01*
X348216Y176755D01*
X348160Y176821D01*
X348094Y176896D01*
X348019Y176980D01*
X347944Y177083D01*
X347860Y177205D01*
X347776Y177336D01*
X347691Y177486D01*
X347616Y177645D01*
X347541Y177824D01*
X347476Y178011D01*
X347419Y178208D01*
X347373Y178414D01*
X347344Y178639D01*
X348525Y178798D01*
Y178789D01*
X348535Y178752D01*
X348544Y178705D01*
X348563Y178630D01*
X348582Y178555D01*
X348610Y178452D01*
X348647Y178349D01*
X348685Y178236D01*
X348778Y178002D01*
X348900Y177758D01*
X349041Y177533D01*
X349125Y177439D01*
X349210Y177346D01*
X349219D01*
X349228Y177327D01*
X349256Y177308D01*
X349294Y177280D01*
X349341Y177243D01*
X349397Y177205D01*
X349538Y177130D01*
X349716Y177046D01*
X349922Y176971D01*
X350147Y176924D01*
X350269Y176915D01*
X350400Y176905D01*
X350484D01*
X350541Y176915D01*
X350616Y176924D01*
X350690Y176933D01*
X350784Y176952D01*
X350887Y176980D01*
X351112Y177046D01*
X351225Y177093D01*
X351347Y177149D01*
X351468Y177214D01*
X351581Y177289D01*
X351693Y177374D01*
X351806Y177477D01*
X351815Y177486D01*
X351834Y177505D01*
X351862Y177533D01*
X351899Y177580D01*
X351937Y177636D01*
X351984Y177702D01*
X352040Y177777D01*
X352096Y177871D01*
X352143Y177964D01*
X352199Y178077D01*
X352293Y178320D01*
X352321Y178452D01*
X352349Y178592D01*
X352368Y178742D01*
X352378Y178902D01*
Y178911D01*
Y178939D01*
Y178976D01*
X352368Y179042D01*
X352359Y179108D01*
X352349Y179192D01*
X352331Y179276D01*
X352312Y179380D01*
X352246Y179586D01*
X352209Y179698D01*
X352153Y179811D01*
X352087Y179923D01*
X352021Y180036D01*
X351937Y180139D01*
X351843Y180242D01*
X351834Y180251D01*
X351815Y180261D01*
X351787Y180289D01*
X351749Y180326D01*
X351693Y180364D01*
X351628Y180410D01*
X351562Y180457D01*
X351478Y180504D01*
X351384Y180551D01*
X351281Y180598D01*
X351047Y180682D01*
X350784Y180748D01*
X350644Y180757D01*
X350494Y180767D01*
X350437D01*
X350362Y180757D01*
X350269Y180748D01*
X350147Y180739D01*
X350006Y180720D01*
X349847Y180682D01*
X349669Y180645D01*
X349800Y181676D01*
X349819D01*
X349866Y181666D01*
X349931Y181657D01*
X350062D01*
X350119Y181666D01*
X350184D01*
X350259Y181676D01*
X350344Y181695D01*
X350437Y181704D01*
X350653Y181751D01*
X350878Y181826D01*
X351112Y181919D01*
X351347Y182051D01*
X351356Y182060D01*
X351375Y182069D01*
X351403Y182088D01*
X351440Y182126D01*
X351487Y182163D01*
X351543Y182219D01*
X351590Y182276D01*
X351656Y182351D01*
X351712Y182426D01*
X351759Y182519D01*
X351815Y182622D01*
X351862Y182726D01*
X351899Y182847D01*
X351928Y182979D01*
X351946Y183110D01*
X351956Y183260D01*
Y183269D01*
Y183288D01*
Y183325D01*
X351946Y183372D01*
Y183428D01*
X351937Y183494D01*
X351899Y183644D01*
X351853Y183813D01*
X351768Y183991D01*
X351665Y184169D01*
X351590Y184253D01*
X351515Y184338D01*
X351506Y184347D01*
X351497Y184356D01*
X351468Y184375D01*
X351440Y184403D01*
X351337Y184478D01*
X351206Y184553D01*
X351047Y184628D01*
X350850Y184703D01*
X350625Y184750D01*
X350512Y184769D01*
X350316D01*
X350269Y184759D01*
X350203D01*
X350137Y184750D01*
X349978Y184713D01*
X349791Y184666D01*
X349603Y184581D01*
X349406Y184478D01*
X349313Y184403D01*
X349228Y184328D01*
X349219Y184319D01*
X349210Y184310D01*
X349181Y184281D01*
X349153Y184244D01*
X349116Y184206D01*
X349078Y184150D01*
X349031Y184084D01*
X348985Y184009D01*
X348938Y183916D01*
X348881Y183822D01*
X348835Y183719D01*
X348788Y183597D01*
X348750Y183475D01*
X348703Y183335D01*
X348675Y183194D01*
X348647Y183035D01*
X347466Y183241D01*
Y183250D01*
X347476Y183297D01*
X347494Y183354D01*
X347513Y183438D01*
X347541Y183531D01*
X347579Y183653D01*
X347616Y183775D01*
X347673Y183916D01*
X347729Y184056D01*
X347804Y184206D01*
X347879Y184366D01*
X347972Y184516D01*
X348066Y184666D01*
X348179Y184816D01*
X348310Y184947D01*
X348441Y185078D01*
X348450Y185087D01*
X348479Y185106D01*
X348516Y185134D01*
X348582Y185181D01*
X348657Y185228D01*
X348741Y185284D01*
X348853Y185350D01*
X348966Y185406D01*
X349097Y185472D01*
X349247Y185528D01*
X349406Y185584D01*
X349575Y185631D01*
X349753Y185678D01*
X349941Y185706D01*
X350147Y185725D01*
X350353Y185734D01*
X350428D01*
X350484Y185725D01*
D02*
G37*
G36*
X344317Y176090D02*
X343136D01*
Y183597D01*
X343127D01*
X343117Y183578D01*
X343089Y183560D01*
X343061Y183531D01*
X342967Y183447D01*
X342836Y183344D01*
X342677Y183222D01*
X342480Y183082D01*
X342255Y182932D01*
X342011Y182782D01*
X342002D01*
X341983Y182763D01*
X341946Y182744D01*
X341899Y182716D01*
X341833Y182679D01*
X341768Y182641D01*
X341599Y182557D01*
X341412Y182463D01*
X341205Y182360D01*
X340990Y182266D01*
X340784Y182182D01*
Y183316D01*
X340793Y183325D01*
X340830Y183335D01*
X340877Y183363D01*
X340952Y183400D01*
X341037Y183447D01*
X341130Y183503D01*
X341243Y183560D01*
X341365Y183635D01*
X341637Y183794D01*
X341927Y183991D01*
X342218Y184206D01*
X342508Y184441D01*
X342518Y184450D01*
X342536Y184469D01*
X342583Y184506D01*
X342630Y184553D01*
X342686Y184619D01*
X342761Y184684D01*
X342836Y184769D01*
X342920Y184853D01*
X343089Y185050D01*
X343258Y185266D01*
X343417Y185500D01*
X343492Y185612D01*
X343549Y185734D01*
X344317D01*
Y176090D01*
D02*
G37*
G36*
X323653Y244925D02*
X323756D01*
X323868Y244916D01*
X324000Y244897D01*
X324150Y244869D01*
X324318Y244841D01*
X324487Y244794D01*
X324665Y244747D01*
X324853Y244681D01*
X325031Y244606D01*
X325218Y244522D01*
X325387Y244419D01*
X325555Y244297D01*
X325715Y244166D01*
X325724Y244156D01*
X325752Y244128D01*
X325790Y244091D01*
X325837Y244025D01*
X325902Y243950D01*
X325968Y243866D01*
X326043Y243763D01*
X326118Y243641D01*
X326193Y243510D01*
X326268Y243360D01*
X326334Y243210D01*
X326399Y243041D01*
X326446Y242863D01*
X326483Y242666D01*
X326511Y242469D01*
X326521Y242263D01*
Y242254D01*
Y242235D01*
Y242207D01*
Y242169D01*
X326511Y242113D01*
Y242057D01*
X326493Y241907D01*
X326465Y241738D01*
X326418Y241542D01*
X326362Y241335D01*
X326277Y241129D01*
Y241120D01*
X326268Y241101D01*
X326249Y241073D01*
X326230Y241035D01*
X326202Y240979D01*
X326174Y240923D01*
X326090Y240773D01*
X325987Y240604D01*
X325846Y240398D01*
X325687Y240182D01*
X325490Y239958D01*
X325481Y239948D01*
X325462Y239929D01*
X325434Y239892D01*
X325387Y239845D01*
X325321Y239779D01*
X325256Y239704D01*
X325162Y239620D01*
X325059Y239517D01*
X324946Y239405D01*
X324806Y239273D01*
X324665Y239133D01*
X324496Y238983D01*
X324318Y238824D01*
X324122Y238645D01*
X323906Y238467D01*
X323681Y238270D01*
X323672Y238261D01*
X323634Y238233D01*
X323578Y238186D01*
X323512Y238130D01*
X323428Y238055D01*
X323334Y237971D01*
X323109Y237783D01*
X322884Y237586D01*
X322659Y237390D01*
X322556Y237296D01*
X322463Y237202D01*
X322378Y237127D01*
X322313Y237061D01*
X322303Y237052D01*
X322266Y237005D01*
X322210Y236940D01*
X322135Y236865D01*
X322060Y236761D01*
X321975Y236658D01*
X321891Y236546D01*
X321816Y236424D01*
X326530D01*
Y235290D01*
X320185D01*
Y235299D01*
Y235309D01*
Y235365D01*
Y235440D01*
X320194Y235552D01*
X320213Y235674D01*
X320232Y235815D01*
X320269Y235956D01*
X320316Y236105D01*
Y236115D01*
X320326Y236133D01*
X320344Y236171D01*
X320363Y236218D01*
X320391Y236274D01*
X320419Y236340D01*
X320504Y236508D01*
X320616Y236705D01*
X320747Y236921D01*
X320907Y237146D01*
X321094Y237380D01*
X321104Y237390D01*
X321122Y237408D01*
X321150Y237446D01*
X321197Y237493D01*
X321254Y237549D01*
X321319Y237624D01*
X321394Y237708D01*
X321488Y237802D01*
X321591Y237896D01*
X321703Y238008D01*
X321835Y238130D01*
X321966Y238261D01*
X322116Y238392D01*
X322275Y238533D01*
X322453Y238683D01*
X322631Y238833D01*
X322650Y238852D01*
X322697Y238889D01*
X322781Y238955D01*
X322884Y239048D01*
X323016Y239151D01*
X323156Y239283D01*
X323316Y239423D01*
X323484Y239573D01*
X323840Y239901D01*
X324187Y240239D01*
X324347Y240407D01*
X324496Y240576D01*
X324637Y240726D01*
X324749Y240876D01*
X324759Y240885D01*
X324778Y240914D01*
X324806Y240951D01*
X324834Y241007D01*
X324881Y241073D01*
X324928Y241148D01*
X324974Y241242D01*
X325031Y241335D01*
X325134Y241551D01*
X325228Y241785D01*
X325256Y241916D01*
X325284Y242038D01*
X325303Y242169D01*
X325312Y242291D01*
Y242301D01*
Y242320D01*
Y242357D01*
X325303Y242413D01*
X325293Y242469D01*
X325284Y242535D01*
X325246Y242704D01*
X325190Y242891D01*
X325096Y243088D01*
X325040Y243182D01*
X324974Y243285D01*
X324899Y243379D01*
X324806Y243472D01*
X324796Y243482D01*
X324787Y243491D01*
X324749Y243519D01*
X324712Y243547D01*
X324665Y243585D01*
X324599Y243622D01*
X324534Y243669D01*
X324450Y243716D01*
X324365Y243763D01*
X324262Y243810D01*
X324037Y243885D01*
X323784Y243941D01*
X323643Y243950D01*
X323494Y243960D01*
X323409D01*
X323353Y243950D01*
X323278Y243941D01*
X323194Y243932D01*
X323100Y243913D01*
X323006Y243894D01*
X322781Y243838D01*
X322556Y243744D01*
X322444Y243688D01*
X322331Y243613D01*
X322228Y243538D01*
X322125Y243444D01*
X322116Y243435D01*
X322106Y243425D01*
X322078Y243388D01*
X322050Y243350D01*
X322013Y243304D01*
X321966Y243238D01*
X321919Y243163D01*
X321872Y243079D01*
X321825Y242985D01*
X321778Y242882D01*
X321741Y242760D01*
X321694Y242638D01*
X321666Y242507D01*
X321638Y242357D01*
X321628Y242207D01*
X321619Y242038D01*
X320410Y242160D01*
Y242179D01*
X320419Y242216D01*
X320429Y242291D01*
X320438Y242385D01*
X320466Y242498D01*
X320494Y242629D01*
X320532Y242769D01*
X320569Y242929D01*
X320625Y243088D01*
X320691Y243257D01*
X320766Y243425D01*
X320850Y243603D01*
X320954Y243772D01*
X321066Y243932D01*
X321197Y244081D01*
X321338Y244222D01*
X321347Y244231D01*
X321375Y244250D01*
X321422Y244288D01*
X321488Y244335D01*
X321572Y244391D01*
X321666Y244447D01*
X321788Y244513D01*
X321919Y244578D01*
X322069Y244644D01*
X322228Y244709D01*
X322406Y244766D01*
X322603Y244822D01*
X322809Y244869D01*
X323034Y244906D01*
X323269Y244925D01*
X323522Y244934D01*
X323587D01*
X323653Y244925D01*
D02*
G37*
G36*
X317317Y235290D02*
X316136D01*
Y242798D01*
X316127D01*
X316117Y242779D01*
X316089Y242760D01*
X316061Y242732D01*
X315967Y242647D01*
X315836Y242544D01*
X315677Y242423D01*
X315480Y242282D01*
X315255Y242132D01*
X315011Y241982D01*
X315002D01*
X314983Y241963D01*
X314946Y241945D01*
X314899Y241916D01*
X314833Y241879D01*
X314768Y241842D01*
X314599Y241757D01*
X314412Y241663D01*
X314205Y241560D01*
X313990Y241467D01*
X313783Y241382D01*
Y242516D01*
X313793Y242526D01*
X313830Y242535D01*
X313877Y242563D01*
X313952Y242601D01*
X314037Y242647D01*
X314130Y242704D01*
X314243Y242760D01*
X314365Y242835D01*
X314636Y242994D01*
X314927Y243191D01*
X315218Y243407D01*
X315508Y243641D01*
X315518Y243650D01*
X315536Y243669D01*
X315583Y243707D01*
X315630Y243754D01*
X315686Y243819D01*
X315761Y243885D01*
X315836Y243969D01*
X315921Y244053D01*
X316089Y244250D01*
X316258Y244466D01*
X316417Y244700D01*
X316492Y244813D01*
X316549Y244934D01*
X317317D01*
Y235290D01*
D02*
G37*
G36*
X326778Y176090D02*
X325597D01*
Y183597D01*
X325587D01*
X325578Y183578D01*
X325550Y183560D01*
X325522Y183531D01*
X325428Y183447D01*
X325297Y183344D01*
X325137Y183222D01*
X324941Y183082D01*
X324716Y182932D01*
X324472Y182782D01*
X324463D01*
X324444Y182763D01*
X324406Y182744D01*
X324360Y182716D01*
X324294Y182679D01*
X324228Y182641D01*
X324060Y182557D01*
X323872Y182463D01*
X323666Y182360D01*
X323450Y182266D01*
X323244Y182182D01*
Y183316D01*
X323254Y183325D01*
X323291Y183335D01*
X323338Y183363D01*
X323413Y183400D01*
X323497Y183447D01*
X323591Y183503D01*
X323703Y183560D01*
X323825Y183635D01*
X324097Y183794D01*
X324388Y183991D01*
X324678Y184206D01*
X324969Y184441D01*
X324978Y184450D01*
X324997Y184469D01*
X325044Y184506D01*
X325091Y184553D01*
X325147Y184619D01*
X325222Y184684D01*
X325297Y184769D01*
X325381Y184853D01*
X325550Y185050D01*
X325719Y185266D01*
X325878Y185500D01*
X325953Y185612D01*
X326009Y185734D01*
X326778D01*
Y176090D01*
D02*
G37*
G36*
X319317D02*
X318136D01*
Y183597D01*
X318127D01*
X318117Y183578D01*
X318089Y183560D01*
X318061Y183531D01*
X317967Y183447D01*
X317836Y183344D01*
X317677Y183222D01*
X317480Y183082D01*
X317255Y182932D01*
X317011Y182782D01*
X317002D01*
X316983Y182763D01*
X316946Y182744D01*
X316899Y182716D01*
X316833Y182679D01*
X316768Y182641D01*
X316599Y182557D01*
X316412Y182463D01*
X316205Y182360D01*
X315990Y182266D01*
X315784Y182182D01*
Y183316D01*
X315793Y183325D01*
X315830Y183335D01*
X315877Y183363D01*
X315952Y183400D01*
X316037Y183447D01*
X316130Y183503D01*
X316243Y183560D01*
X316365Y183635D01*
X316637Y183794D01*
X316927Y183991D01*
X317218Y184206D01*
X317508Y184441D01*
X317518Y184450D01*
X317536Y184469D01*
X317583Y184506D01*
X317630Y184553D01*
X317686Y184619D01*
X317761Y184684D01*
X317836Y184769D01*
X317920Y184853D01*
X318089Y185050D01*
X318258Y185266D01*
X318417Y185500D01*
X318492Y185612D01*
X318549Y185734D01*
X319317D01*
Y176090D01*
D02*
G37*
G36*
X290458Y235449D02*
X289277D01*
Y242957D01*
X289267D01*
X289258Y242938D01*
X289230Y242919D01*
X289202Y242891D01*
X289108Y242807D01*
X288977Y242704D01*
X288817Y242582D01*
X288621Y242441D01*
X288396Y242291D01*
X288152Y242141D01*
X288143D01*
X288124Y242123D01*
X288086Y242104D01*
X288039Y242076D01*
X287974Y242038D01*
X287908Y242001D01*
X287740Y241916D01*
X287552Y241823D01*
X287346Y241720D01*
X287130Y241626D01*
X286924Y241542D01*
Y242676D01*
X286933Y242685D01*
X286971Y242694D01*
X287018Y242722D01*
X287093Y242760D01*
X287177Y242807D01*
X287271Y242863D01*
X287383Y242919D01*
X287505Y242994D01*
X287777Y243154D01*
X288068Y243350D01*
X288358Y243566D01*
X288649Y243800D01*
X288658Y243810D01*
X288677Y243828D01*
X288724Y243866D01*
X288771Y243913D01*
X288827Y243978D01*
X288902Y244044D01*
X288977Y244128D01*
X289061Y244213D01*
X289230Y244410D01*
X289398Y244625D01*
X289558Y244859D01*
X289633Y244972D01*
X289689Y245094D01*
X290458D01*
Y235449D01*
D02*
G37*
G36*
X296803Y245084D02*
X296878Y245075D01*
X296972Y245066D01*
X297065Y245056D01*
X297271Y245019D01*
X297496Y244963D01*
X297731Y244878D01*
X297956Y244775D01*
X297965D01*
X297984Y244756D01*
X298012Y244747D01*
X298059Y244719D01*
X298162Y244644D01*
X298302Y244550D01*
X298452Y244419D01*
X298612Y244269D01*
X298771Y244081D01*
X298921Y243875D01*
Y243866D01*
X298940Y243847D01*
X298959Y243819D01*
X298987Y243772D01*
X299015Y243716D01*
X299052Y243650D01*
X299090Y243566D01*
X299137Y243482D01*
X299184Y243379D01*
X299230Y243276D01*
X299324Y243032D01*
X299427Y242751D01*
X299512Y242451D01*
Y242441D01*
X299521Y242413D01*
X299530Y242366D01*
X299549Y242301D01*
X299568Y242216D01*
X299587Y242113D01*
X299605Y241991D01*
X299624Y241851D01*
X299643Y241701D01*
X299662Y241523D01*
X299680Y241345D01*
X299699Y241138D01*
X299718Y240923D01*
X299727Y240689D01*
X299736Y240445D01*
Y240182D01*
Y240164D01*
Y240107D01*
Y240023D01*
X299727Y239901D01*
Y239761D01*
X299718Y239592D01*
X299708Y239414D01*
X299690Y239208D01*
X299671Y238992D01*
X299652Y238777D01*
X299587Y238317D01*
X299502Y237868D01*
X299446Y237661D01*
X299380Y237455D01*
Y237446D01*
X299362Y237408D01*
X299343Y237352D01*
X299315Y237286D01*
X299277Y237193D01*
X299230Y237099D01*
X299184Y236986D01*
X299118Y236865D01*
X298977Y236611D01*
X298799Y236340D01*
X298584Y236087D01*
X298462Y235965D01*
X298340Y235852D01*
X298331Y235843D01*
X298312Y235824D01*
X298274Y235796D01*
X298218Y235768D01*
X298153Y235721D01*
X298068Y235674D01*
X297974Y235627D01*
X297871Y235571D01*
X297750Y235515D01*
X297618Y235468D01*
X297478Y235421D01*
X297318Y235374D01*
X297159Y235346D01*
X296981Y235318D01*
X296803Y235299D01*
X296606Y235290D01*
X296541D01*
X296475Y235299D01*
X296372Y235309D01*
X296259Y235318D01*
X296119Y235346D01*
X295969Y235374D01*
X295809Y235412D01*
X295641Y235468D01*
X295463Y235534D01*
X295275Y235609D01*
X295097Y235702D01*
X294919Y235815D01*
X294741Y235946D01*
X294572Y236105D01*
X294422Y236274D01*
X294413Y236293D01*
X294385Y236330D01*
X294338Y236405D01*
X294272Y236508D01*
X294207Y236640D01*
X294122Y236799D01*
X294038Y236996D01*
X293954Y237221D01*
X293860Y237474D01*
X293776Y237764D01*
X293691Y238083D01*
X293626Y238430D01*
X293560Y238824D01*
X293513Y239236D01*
X293485Y239695D01*
X293476Y240182D01*
Y240192D01*
Y240201D01*
Y240257D01*
Y240351D01*
X293485Y240464D01*
Y240614D01*
X293494Y240773D01*
X293504Y240960D01*
X293522Y241167D01*
X293541Y241382D01*
X293560Y241607D01*
X293626Y242057D01*
X293710Y242516D01*
X293766Y242722D01*
X293822Y242929D01*
Y242938D01*
X293841Y242976D01*
X293860Y243032D01*
X293888Y243097D01*
X293925Y243191D01*
X293972Y243285D01*
X294019Y243397D01*
X294085Y243519D01*
X294225Y243782D01*
X294403Y244044D01*
X294619Y244297D01*
X294741Y244419D01*
X294863Y244531D01*
X294872Y244541D01*
X294891Y244559D01*
X294938Y244588D01*
X294985Y244616D01*
X295060Y244663D01*
X295135Y244709D01*
X295238Y244756D01*
X295341Y244813D01*
X295463Y244869D01*
X295594Y244916D01*
X295734Y244963D01*
X295894Y245009D01*
X296053Y245037D01*
X296231Y245066D01*
X296409Y245084D01*
X296606Y245094D01*
X296737D01*
X296803Y245084D01*
D02*
G37*
G36*
X295677Y185725D02*
X295762Y185715D01*
X295855Y185706D01*
X295968Y185697D01*
X296080Y185669D01*
X296352Y185612D01*
X296633Y185518D01*
X296783Y185462D01*
X296933Y185397D01*
X297083Y185322D01*
X297233Y185228D01*
X297243Y185219D01*
X297271Y185209D01*
X297308Y185172D01*
X297364Y185134D01*
X297430Y185078D01*
X297505Y185022D01*
X297580Y184947D01*
X297674Y184862D01*
X297767Y184759D01*
X297861Y184656D01*
X297964Y184534D01*
X298058Y184403D01*
X298152Y184263D01*
X298245Y184113D01*
X298339Y183953D01*
X298414Y183785D01*
X298424Y183775D01*
X298433Y183738D01*
X298452Y183691D01*
X298480Y183616D01*
X298508Y183513D01*
X298545Y183400D01*
X298583Y183260D01*
X298620Y183100D01*
X298658Y182922D01*
X298686Y182716D01*
X298723Y182500D01*
X298752Y182257D01*
X298780Y181994D01*
X298798Y181713D01*
X298817Y181404D01*
Y181085D01*
Y181076D01*
Y181066D01*
Y181038D01*
Y181001D01*
Y180907D01*
X298808Y180785D01*
Y180626D01*
X298798Y180448D01*
X298780Y180251D01*
X298770Y180026D01*
X298742Y179801D01*
X298723Y179558D01*
X298648Y179070D01*
X298602Y178827D01*
X298545Y178592D01*
X298489Y178367D01*
X298414Y178152D01*
Y178142D01*
X298395Y178105D01*
X298377Y178049D01*
X298339Y177974D01*
X298292Y177880D01*
X298245Y177777D01*
X298189Y177664D01*
X298114Y177533D01*
X297945Y177271D01*
X297739Y176989D01*
X297505Y176727D01*
X297364Y176605D01*
X297224Y176493D01*
X297214Y176483D01*
X297186Y176465D01*
X297149Y176437D01*
X297083Y176408D01*
X297008Y176362D01*
X296915Y176315D01*
X296811Y176268D01*
X296699Y176211D01*
X296568Y176155D01*
X296427Y176108D01*
X296277Y176062D01*
X296108Y176015D01*
X295940Y175987D01*
X295762Y175958D01*
X295574Y175940D01*
X295377Y175930D01*
X295265D01*
X295190Y175940D01*
X295096Y175949D01*
X294984Y175968D01*
X294853Y175987D01*
X294721Y176005D01*
X294431Y176080D01*
X294271Y176127D01*
X294121Y176193D01*
X293962Y176258D01*
X293812Y176343D01*
X293672Y176437D01*
X293531Y176549D01*
X293522Y176558D01*
X293503Y176577D01*
X293465Y176615D01*
X293419Y176661D01*
X293362Y176727D01*
X293297Y176811D01*
X293231Y176896D01*
X293156Y177008D01*
X293081Y177121D01*
X293006Y177261D01*
X292941Y177402D01*
X292875Y177561D01*
X292809Y177730D01*
X292753Y177917D01*
X292716Y178114D01*
X292678Y178320D01*
X293812Y178424D01*
Y178414D01*
X293822Y178386D01*
X293831Y178349D01*
X293840Y178292D01*
X293859Y178227D01*
X293878Y178152D01*
X293934Y177974D01*
X294009Y177786D01*
X294103Y177589D01*
X294215Y177411D01*
X294281Y177327D01*
X294356Y177252D01*
X294365D01*
X294375Y177233D01*
X294431Y177196D01*
X294515Y177139D01*
X294637Y177074D01*
X294787Y177008D01*
X294965Y176952D01*
X295171Y176915D01*
X295396Y176896D01*
X295490D01*
X295593Y176905D01*
X295724Y176924D01*
X295865Y176952D01*
X296033Y176999D01*
X296193Y177055D01*
X296352Y177139D01*
X296362D01*
X296371Y177149D01*
X296418Y177186D01*
X296493Y177243D01*
X296586Y177318D01*
X296699Y177411D01*
X296811Y177524D01*
X296915Y177655D01*
X297018Y177805D01*
Y177814D01*
X297027Y177824D01*
X297046Y177852D01*
X297064Y177880D01*
X297111Y177974D01*
X297168Y178105D01*
X297243Y178264D01*
X297318Y178461D01*
X297393Y178676D01*
X297458Y178930D01*
Y178939D01*
X297467Y178958D01*
X297477Y179005D01*
X297486Y179051D01*
X297496Y179117D01*
X297514Y179192D01*
X297533Y179276D01*
X297552Y179380D01*
X297580Y179595D01*
X297608Y179839D01*
X297627Y180101D01*
X297636Y180373D01*
Y180392D01*
Y180439D01*
Y180504D01*
Y180598D01*
X297617Y180579D01*
X297599Y180551D01*
X297571Y180514D01*
X297496Y180410D01*
X297383Y180279D01*
X297243Y180139D01*
X297074Y179989D01*
X296877Y179839D01*
X296661Y179698D01*
X296652D01*
X296633Y179679D01*
X296605Y179670D01*
X296558Y179642D01*
X296502Y179614D01*
X296427Y179586D01*
X296352Y179558D01*
X296268Y179529D01*
X296071Y179464D01*
X295846Y179408D01*
X295602Y179370D01*
X295340Y179351D01*
X295284D01*
X295227Y179361D01*
X295143D01*
X295040Y179380D01*
X294918Y179398D01*
X294787Y179426D01*
X294646Y179464D01*
X294487Y179501D01*
X294328Y179558D01*
X294159Y179632D01*
X293990Y179717D01*
X293822Y179811D01*
X293653Y179932D01*
X293484Y180064D01*
X293325Y180214D01*
X293315Y180223D01*
X293287Y180251D01*
X293250Y180307D01*
X293194Y180373D01*
X293137Y180457D01*
X293062Y180560D01*
X292987Y180682D01*
X292912Y180823D01*
X292837Y180973D01*
X292762Y181151D01*
X292687Y181338D01*
X292631Y181535D01*
X292575Y181760D01*
X292537Y181985D01*
X292509Y182229D01*
X292500Y182491D01*
Y182510D01*
Y182557D01*
X292509Y182632D01*
Y182735D01*
X292528Y182857D01*
X292547Y182997D01*
X292575Y183157D01*
X292603Y183335D01*
X292650Y183513D01*
X292706Y183710D01*
X292781Y183906D01*
X292856Y184103D01*
X292959Y184300D01*
X293072Y184487D01*
X293203Y184675D01*
X293353Y184844D01*
X293362Y184853D01*
X293390Y184881D01*
X293437Y184928D01*
X293512Y184984D01*
X293597Y185050D01*
X293690Y185125D01*
X293812Y185209D01*
X293943Y185294D01*
X294093Y185369D01*
X294262Y185453D01*
X294440Y185528D01*
X294628Y185593D01*
X294834Y185650D01*
X295049Y185697D01*
X295284Y185725D01*
X295518Y185734D01*
X295612D01*
X295677Y185725D01*
D02*
G37*
G36*
X267270Y245084D02*
X267383Y245075D01*
X267505Y245056D01*
X267636Y245028D01*
X267786Y245000D01*
X267945Y244963D01*
X268114Y244916D01*
X268283Y244859D01*
X268451Y244784D01*
X268620Y244700D01*
X268779Y244606D01*
X268939Y244494D01*
X269089Y244363D01*
X269098Y244353D01*
X269126Y244325D01*
X269164Y244288D01*
X269210Y244231D01*
X269267Y244166D01*
X269332Y244072D01*
X269398Y243978D01*
X269473Y243866D01*
X269548Y243744D01*
X269613Y243603D01*
X269679Y243463D01*
X269735Y243304D01*
X269782Y243135D01*
X269829Y242957D01*
X269848Y242779D01*
X269857Y242582D01*
Y242572D01*
Y242554D01*
Y242516D01*
X269848Y242469D01*
Y242413D01*
X269839Y242338D01*
X269810Y242179D01*
X269773Y242001D01*
X269707Y241804D01*
X269623Y241607D01*
X269501Y241410D01*
Y241401D01*
X269482Y241392D01*
X269436Y241326D01*
X269351Y241242D01*
X269239Y241129D01*
X269089Y241007D01*
X268911Y240885D01*
X268695Y240764D01*
X268442Y240651D01*
X268451D01*
X268479Y240642D01*
X268526Y240623D01*
X268582Y240595D01*
X268657Y240567D01*
X268742Y240529D01*
X268939Y240426D01*
X269154Y240295D01*
X269379Y240136D01*
X269595Y239948D01*
X269688Y239836D01*
X269782Y239723D01*
X269792Y239714D01*
X269801Y239695D01*
X269829Y239658D01*
X269857Y239611D01*
X269895Y239545D01*
X269932Y239480D01*
X269970Y239386D01*
X270017Y239292D01*
X270063Y239189D01*
X270101Y239067D01*
X270176Y238814D01*
X270232Y238514D01*
X270242Y238364D01*
X270251Y238195D01*
Y238186D01*
Y238139D01*
X270242Y238074D01*
Y237989D01*
X270223Y237886D01*
X270204Y237764D01*
X270176Y237624D01*
X270138Y237474D01*
X270091Y237314D01*
X270035Y237146D01*
X269970Y236977D01*
X269885Y236799D01*
X269782Y236621D01*
X269670Y236452D01*
X269529Y236283D01*
X269379Y236124D01*
X269370Y236115D01*
X269342Y236087D01*
X269286Y236049D01*
X269220Y235993D01*
X269135Y235927D01*
X269032Y235862D01*
X268901Y235787D01*
X268770Y235712D01*
X268611Y235627D01*
X268433Y235552D01*
X268245Y235487D01*
X268039Y235421D01*
X267823Y235365D01*
X267589Y235327D01*
X267345Y235299D01*
X267083Y235290D01*
X267017D01*
X266942Y235299D01*
X266849D01*
X266727Y235318D01*
X266586Y235337D01*
X266427Y235356D01*
X266258Y235393D01*
X266080Y235440D01*
X265893Y235496D01*
X265705Y235562D01*
X265518Y235646D01*
X265321Y235740D01*
X265133Y235852D01*
X264955Y235974D01*
X264787Y236124D01*
X264777Y236133D01*
X264749Y236162D01*
X264712Y236208D01*
X264655Y236274D01*
X264590Y236359D01*
X264515Y236462D01*
X264440Y236574D01*
X264356Y236705D01*
X264271Y236846D01*
X264196Y237005D01*
X264121Y237183D01*
X264056Y237371D01*
X264009Y237568D01*
X263962Y237774D01*
X263934Y237989D01*
X263924Y238224D01*
Y238233D01*
Y238261D01*
Y238317D01*
X263934Y238383D01*
X263943Y238458D01*
X263953Y238552D01*
X263962Y238655D01*
X263981Y238767D01*
X264037Y239020D01*
X264121Y239283D01*
X264177Y239414D01*
X264243Y239545D01*
X264309Y239667D01*
X264393Y239789D01*
X264402Y239798D01*
X264412Y239817D01*
X264440Y239845D01*
X264477Y239892D01*
X264534Y239948D01*
X264590Y240004D01*
X264665Y240070D01*
X264740Y240136D01*
X264834Y240211D01*
X264937Y240276D01*
X265049Y240351D01*
X265171Y240426D01*
X265302Y240492D01*
X265443Y240548D01*
X265593Y240604D01*
X265752Y240651D01*
X265743D01*
X265724Y240660D01*
X265677Y240679D01*
X265630Y240698D01*
X265574Y240726D01*
X265499Y240764D01*
X265340Y240848D01*
X265161Y240960D01*
X264974Y241092D01*
X264805Y241242D01*
X264655Y241420D01*
Y241429D01*
X264637Y241438D01*
X264627Y241467D01*
X264599Y241504D01*
X264571Y241560D01*
X264543Y241616D01*
X264487Y241757D01*
X264421Y241926D01*
X264365Y242132D01*
X264327Y242357D01*
X264309Y242610D01*
Y242619D01*
Y242657D01*
X264318Y242713D01*
Y242788D01*
X264327Y242872D01*
X264346Y242976D01*
X264374Y243097D01*
X264402Y243229D01*
X264440Y243360D01*
X264496Y243500D01*
X264552Y243650D01*
X264627Y243800D01*
X264712Y243941D01*
X264815Y244091D01*
X264927Y244231D01*
X265058Y244372D01*
X265068Y244381D01*
X265096Y244400D01*
X265133Y244438D01*
X265199Y244485D01*
X265274Y244541D01*
X265358Y244597D01*
X265471Y244663D01*
X265593Y244738D01*
X265724Y244803D01*
X265874Y244869D01*
X266043Y244925D01*
X266221Y244981D01*
X266418Y245028D01*
X266614Y245066D01*
X266839Y245084D01*
X267064Y245094D01*
X267186D01*
X267270Y245084D01*
D02*
G37*
G36*
X273714Y184816D02*
X273705Y184806D01*
X273676Y184769D01*
X273620Y184713D01*
X273555Y184638D01*
X273470Y184534D01*
X273377Y184422D01*
X273264Y184281D01*
X273142Y184122D01*
X273011Y183944D01*
X272861Y183747D01*
X272711Y183531D01*
X272552Y183297D01*
X272393Y183053D01*
X272224Y182791D01*
X272055Y182510D01*
X271886Y182210D01*
X271877Y182191D01*
X271849Y182135D01*
X271802Y182051D01*
X271736Y181929D01*
X271661Y181788D01*
X271577Y181610D01*
X271483Y181413D01*
X271380Y181188D01*
X271268Y180945D01*
X271155Y180692D01*
X271033Y180410D01*
X270921Y180129D01*
X270809Y179829D01*
X270696Y179520D01*
X270593Y179201D01*
X270499Y178883D01*
Y178873D01*
X270480Y178827D01*
X270462Y178761D01*
X270443Y178676D01*
X270415Y178564D01*
X270377Y178424D01*
X270349Y178274D01*
X270312Y178105D01*
X270274Y177917D01*
X270237Y177711D01*
X270199Y177496D01*
X270162Y177261D01*
X270124Y177027D01*
X270096Y176774D01*
X270049Y176249D01*
X268840D01*
Y176258D01*
Y176305D01*
X268850Y176362D01*
Y176446D01*
X268859Y176558D01*
X268868Y176689D01*
X268887Y176840D01*
X268906Y177008D01*
X268925Y177205D01*
X268953Y177411D01*
X268990Y177636D01*
X269037Y177871D01*
X269084Y178133D01*
X269140Y178395D01*
X269206Y178686D01*
X269281Y178976D01*
Y178986D01*
X269290Y178995D01*
X269300Y179051D01*
X269328Y179136D01*
X269356Y179248D01*
X269403Y179398D01*
X269459Y179567D01*
X269515Y179754D01*
X269590Y179970D01*
X269674Y180195D01*
X269768Y180439D01*
X269862Y180701D01*
X269974Y180963D01*
X270218Y181516D01*
X270499Y182079D01*
X270509Y182097D01*
X270537Y182144D01*
X270584Y182219D01*
X270640Y182332D01*
X270715Y182454D01*
X270799Y182604D01*
X270902Y182772D01*
X271015Y182950D01*
X271137Y183147D01*
X271268Y183354D01*
X271549Y183775D01*
X271868Y184197D01*
X272027Y184403D01*
X272196Y184600D01*
X267500D01*
Y185734D01*
X273714D01*
Y184816D01*
D02*
G37*
G36*
X242966Y245084D02*
X243069Y245075D01*
X243181Y245056D01*
X243303Y245037D01*
X243444Y245019D01*
X243734Y244934D01*
X243894Y244888D01*
X244043Y244822D01*
X244203Y244756D01*
X244353Y244663D01*
X244503Y244569D01*
X244643Y244456D01*
X244653Y244447D01*
X244671Y244428D01*
X244709Y244391D01*
X244756Y244344D01*
X244812Y244278D01*
X244878Y244194D01*
X244953Y244100D01*
X245028Y243997D01*
X245103Y243885D01*
X245177Y243744D01*
X245243Y243603D01*
X245318Y243444D01*
X245384Y243276D01*
X245431Y243097D01*
X245477Y242910D01*
X245515Y242704D01*
X244343Y242610D01*
Y242619D01*
X244334Y242638D01*
X244325Y242676D01*
X244315Y242722D01*
X244296Y242779D01*
X244278Y242844D01*
X244231Y242994D01*
X244165Y243163D01*
X244090Y243332D01*
X243997Y243491D01*
X243894Y243622D01*
X243884Y243632D01*
X243875Y243641D01*
X243847Y243669D01*
X243809Y243697D01*
X243762Y243744D01*
X243706Y243782D01*
X243565Y243875D01*
X243397Y243969D01*
X243190Y244053D01*
X242966Y244110D01*
X242844Y244119D01*
X242712Y244128D01*
X242619D01*
X242516Y244110D01*
X242375Y244091D01*
X242225Y244053D01*
X242056Y243997D01*
X241888Y243913D01*
X241719Y243810D01*
X241710D01*
X241691Y243791D01*
X241663Y243772D01*
X241625Y243735D01*
X241532Y243641D01*
X241400Y243510D01*
X241260Y243341D01*
X241110Y243135D01*
X240969Y242901D01*
X240838Y242619D01*
Y242610D01*
X240829Y242582D01*
X240810Y242535D01*
X240791Y242479D01*
X240763Y242394D01*
X240735Y242301D01*
X240707Y242179D01*
X240679Y242048D01*
X240651Y241898D01*
X240622Y241738D01*
X240594Y241551D01*
X240566Y241354D01*
X240547Y241138D01*
X240529Y240904D01*
X240519Y240660D01*
X240510Y240398D01*
X240519Y240407D01*
X240529Y240426D01*
X240557Y240464D01*
X240585Y240501D01*
X240622Y240557D01*
X240679Y240623D01*
X240800Y240764D01*
X240951Y240923D01*
X241129Y241082D01*
X241325Y241232D01*
X241550Y241363D01*
X241560D01*
X241578Y241373D01*
X241616Y241392D01*
X241653Y241410D01*
X241719Y241438D01*
X241785Y241467D01*
X241860Y241495D01*
X241944Y241523D01*
X242141Y241579D01*
X242356Y241635D01*
X242591Y241673D01*
X242844Y241682D01*
X242900D01*
X242956Y241673D01*
X243041D01*
X243144Y241654D01*
X243265Y241635D01*
X243397Y241607D01*
X243537Y241570D01*
X243687Y241523D01*
X243856Y241467D01*
X244015Y241401D01*
X244184Y241317D01*
X244362Y241213D01*
X244531Y241101D01*
X244690Y240960D01*
X244849Y240811D01*
X244859Y240801D01*
X244887Y240773D01*
X244925Y240717D01*
X244981Y240651D01*
X245046Y240567D01*
X245112Y240464D01*
X245187Y240342D01*
X245271Y240201D01*
X245346Y240051D01*
X245421Y239883D01*
X245487Y239695D01*
X245552Y239498D01*
X245609Y239283D01*
X245646Y239058D01*
X245674Y238824D01*
X245684Y238570D01*
Y238561D01*
Y238533D01*
Y238486D01*
X245674Y238421D01*
Y238336D01*
X245665Y238242D01*
X245655Y238139D01*
X245637Y238017D01*
X245590Y237755D01*
X245515Y237474D01*
X245421Y237183D01*
X245290Y236883D01*
Y236874D01*
X245271Y236846D01*
X245252Y236808D01*
X245215Y236761D01*
X245177Y236696D01*
X245131Y236621D01*
X245009Y236452D01*
X244849Y236255D01*
X244671Y236059D01*
X244456Y235871D01*
X244212Y235702D01*
X244203D01*
X244184Y235684D01*
X244146Y235665D01*
X244090Y235637D01*
X244025Y235609D01*
X243950Y235571D01*
X243865Y235534D01*
X243762Y235496D01*
X243659Y235459D01*
X243537Y235421D01*
X243275Y235356D01*
X242984Y235309D01*
X242825Y235299D01*
X242666Y235290D01*
X242600D01*
X242525Y235299D01*
X242422Y235309D01*
X242300Y235327D01*
X242150Y235346D01*
X241991Y235384D01*
X241813Y235421D01*
X241625Y235478D01*
X241438Y235552D01*
X241232Y235637D01*
X241035Y235749D01*
X240829Y235871D01*
X240632Y236012D01*
X240444Y236180D01*
X240266Y236368D01*
X240257Y236377D01*
X240229Y236424D01*
X240182Y236480D01*
X240126Y236574D01*
X240051Y236696D01*
X239976Y236846D01*
X239891Y237015D01*
X239807Y237221D01*
X239713Y237455D01*
X239629Y237717D01*
X239554Y238008D01*
X239488Y238336D01*
X239423Y238683D01*
X239376Y239076D01*
X239348Y239489D01*
X239338Y239939D01*
Y239948D01*
Y239967D01*
Y240004D01*
Y240061D01*
Y240126D01*
X239348Y240201D01*
Y240295D01*
X239357Y240398D01*
Y240501D01*
X239366Y240623D01*
X239395Y240885D01*
X239423Y241176D01*
X239470Y241485D01*
X239517Y241813D01*
X239591Y242151D01*
X239666Y242488D01*
X239769Y242826D01*
X239882Y243144D01*
X240023Y243454D01*
X240182Y243735D01*
X240360Y243988D01*
X240369Y243997D01*
X240397Y244035D01*
X240454Y244091D01*
X240529Y244156D01*
X240613Y244241D01*
X240725Y244335D01*
X240857Y244438D01*
X240997Y244541D01*
X241166Y244644D01*
X241344Y244747D01*
X241541Y244841D01*
X241756Y244925D01*
X241991Y244991D01*
X242234Y245047D01*
X242497Y245084D01*
X242778Y245094D01*
X242891D01*
X242966Y245084D01*
D02*
G37*
G36*
X246423Y184609D02*
X242571D01*
X242056Y182013D01*
X242065Y182022D01*
X242093Y182041D01*
X242140Y182069D01*
X242206Y182107D01*
X242281Y182154D01*
X242384Y182210D01*
X242487Y182257D01*
X242609Y182323D01*
X242740Y182379D01*
X242881Y182426D01*
X243190Y182529D01*
X243349Y182566D01*
X243518Y182594D01*
X243696Y182613D01*
X243874Y182622D01*
X243930D01*
X243996Y182613D01*
X244090D01*
X244193Y182594D01*
X244324Y182575D01*
X244465Y182547D01*
X244615Y182510D01*
X244774Y182463D01*
X244952Y182407D01*
X245130Y182341D01*
X245308Y182257D01*
X245486Y182154D01*
X245664Y182041D01*
X245833Y181901D01*
X246002Y181751D01*
X246011Y181741D01*
X246039Y181713D01*
X246086Y181657D01*
X246142Y181591D01*
X246208Y181507D01*
X246273Y181404D01*
X246358Y181282D01*
X246442Y181141D01*
X246517Y180992D01*
X246602Y180823D01*
X246667Y180635D01*
X246742Y180439D01*
X246789Y180223D01*
X246836Y179998D01*
X246864Y179754D01*
X246873Y179501D01*
Y179483D01*
Y179445D01*
X246864Y179380D01*
Y179286D01*
X246855Y179173D01*
X246836Y179042D01*
X246808Y178892D01*
X246780Y178733D01*
X246733Y178564D01*
X246686Y178377D01*
X246620Y178189D01*
X246545Y178002D01*
X246461Y177814D01*
X246358Y177617D01*
X246236Y177430D01*
X246105Y177252D01*
X246095Y177243D01*
X246058Y177205D01*
X246011Y177149D01*
X245936Y177074D01*
X245842Y176980D01*
X245730Y176886D01*
X245599Y176783D01*
X245449Y176671D01*
X245271Y176558D01*
X245083Y176455D01*
X244877Y176362D01*
X244652Y176268D01*
X244408Y176193D01*
X244155Y176137D01*
X243874Y176099D01*
X243584Y176090D01*
X243527D01*
X243462Y176099D01*
X243368D01*
X243256Y176108D01*
X243124Y176127D01*
X242984Y176155D01*
X242824Y176183D01*
X242656Y176221D01*
X242487Y176268D01*
X242309Y176324D01*
X242122Y176399D01*
X241943Y176483D01*
X241765Y176577D01*
X241597Y176689D01*
X241437Y176821D01*
X241428Y176830D01*
X241400Y176858D01*
X241362Y176896D01*
X241306Y176952D01*
X241240Y177027D01*
X241175Y177121D01*
X241091Y177224D01*
X241015Y177336D01*
X240931Y177467D01*
X240847Y177617D01*
X240772Y177777D01*
X240697Y177955D01*
X240631Y178142D01*
X240575Y178339D01*
X240528Y178545D01*
X240500Y178770D01*
X241737Y178873D01*
Y178864D01*
X241747Y178836D01*
X241756Y178789D01*
X241765Y178723D01*
X241784Y178648D01*
X241803Y178564D01*
X241868Y178358D01*
X241953Y178142D01*
X242056Y177917D01*
X242196Y177692D01*
X242281Y177599D01*
X242365Y177505D01*
X242374Y177496D01*
X242393Y177486D01*
X242421Y177467D01*
X242459Y177439D01*
X242506Y177402D01*
X242562Y177364D01*
X242712Y177280D01*
X242890Y177196D01*
X243096Y177130D01*
X243330Y177074D01*
X243452Y177064D01*
X243584Y177055D01*
X243668D01*
X243724Y177064D01*
X243799Y177074D01*
X243883Y177093D01*
X243977Y177111D01*
X244080Y177139D01*
X244315Y177214D01*
X244427Y177261D01*
X244549Y177327D01*
X244671Y177402D01*
X244793Y177486D01*
X244914Y177580D01*
X245027Y177692D01*
X245036Y177702D01*
X245055Y177721D01*
X245083Y177758D01*
X245121Y177814D01*
X245168Y177871D01*
X245214Y177955D01*
X245271Y178049D01*
X245327Y178152D01*
X245374Y178264D01*
X245430Y178395D01*
X245477Y178536D01*
X245524Y178686D01*
X245561Y178845D01*
X245589Y179023D01*
X245608Y179201D01*
X245617Y179398D01*
Y179408D01*
Y179445D01*
Y179492D01*
X245608Y179567D01*
X245599Y179651D01*
X245589Y179745D01*
X245571Y179858D01*
X245543Y179979D01*
X245477Y180232D01*
X245430Y180364D01*
X245374Y180495D01*
X245308Y180626D01*
X245233Y180757D01*
X245149Y180879D01*
X245046Y180992D01*
X245036Y181001D01*
X245018Y181020D01*
X244989Y181048D01*
X244943Y181085D01*
X244886Y181132D01*
X244821Y181179D01*
X244736Y181235D01*
X244652Y181292D01*
X244549Y181338D01*
X244436Y181395D01*
X244315Y181441D01*
X244183Y181488D01*
X244034Y181526D01*
X243883Y181554D01*
X243724Y181573D01*
X243556Y181582D01*
X243462D01*
X243405Y181573D01*
X243349D01*
X243209Y181554D01*
X243049Y181516D01*
X242881Y181470D01*
X242703Y181404D01*
X242525Y181320D01*
X242515D01*
X242506Y181310D01*
X242449Y181273D01*
X242365Y181217D01*
X242271Y181141D01*
X242150Y181038D01*
X242037Y180926D01*
X241915Y180795D01*
X241812Y180654D01*
X240706Y180795D01*
X241634Y185734D01*
X246423D01*
Y184609D01*
D02*
G37*
G36*
X277622Y156499D02*
X279184Y156187D01*
X282934Y155249D01*
X284809Y153999D01*
X286684Y152749D01*
X286997Y152437D01*
X287622Y152124D01*
X288247Y151187D01*
X289184Y150249D01*
X291059Y146812D01*
X291997Y144937D01*
X292309Y142750D01*
Y140562D01*
Y140250D01*
X291997Y139937D01*
X291684Y139625D01*
X290747Y139312D01*
X286059D01*
X285747Y139625D01*
X285122Y139937D01*
X284809Y140562D01*
Y141500D01*
Y141812D01*
Y142125D01*
X284497Y143687D01*
X283559Y145875D01*
X281997Y147750D01*
X281684Y148062D01*
X280434Y148999D01*
X278559Y149624D01*
X276059Y149937D01*
X275122D01*
X273247Y149624D01*
X271060Y148999D01*
X268872Y147750D01*
X268560Y147437D01*
X267622Y146187D01*
X266685Y144312D01*
X266060Y142125D01*
Y141500D01*
X265747Y140250D01*
Y138062D01*
Y135250D01*
X265435Y131812D01*
Y127750D01*
X266060Y119625D01*
Y119000D01*
X266685Y117437D01*
X267310Y115562D01*
X268872Y113687D01*
X269497Y113375D01*
X270747Y112750D01*
X272935Y111812D01*
X275435Y111500D01*
X276059D01*
X277622Y111812D01*
X279809Y112437D01*
X281684Y113687D01*
X281997Y114000D01*
X283247Y115250D01*
X284184Y117125D01*
X284809Y119625D01*
Y121187D01*
Y121500D01*
X285122Y122125D01*
X285434Y122437D01*
X286372Y122750D01*
X291059D01*
X291684Y122437D01*
X291997Y122125D01*
X292309Y121187D01*
Y119312D01*
Y119000D01*
X291997Y118375D01*
Y117125D01*
X291372Y115562D01*
X289809Y111812D01*
X288559Y110250D01*
X286997Y108375D01*
X286684Y108062D01*
X286372Y107750D01*
X285122Y107125D01*
X283872Y106187D01*
X282309Y105250D01*
X280434Y104625D01*
X278247Y104312D01*
X275747Y104000D01*
X274497D01*
X273247Y104312D01*
X271685Y104625D01*
X267935Y105875D01*
X265747Y106812D01*
X263872Y108375D01*
X263560Y108687D01*
X263247Y109312D01*
X262310Y110250D01*
X261372Y111500D01*
X259810Y114937D01*
X258872Y116812D01*
X258560Y119312D01*
Y119937D01*
Y121187D01*
Y123375D01*
Y126187D01*
Y129625D01*
Y133375D01*
Y141500D01*
Y141812D01*
X258872Y142750D01*
Y143687D01*
X259497Y145250D01*
X261060Y148999D01*
X262310Y150874D01*
X263872Y152437D01*
X264185Y152749D01*
X264810Y153062D01*
X265747Y153687D01*
X267310Y154624D01*
X270747Y156187D01*
X272935Y156499D01*
X275435Y156812D01*
X276684D01*
X277622Y156499D01*
D02*
G37*
G36*
X92624Y155562D02*
X92937Y154937D01*
Y105875D01*
Y105562D01*
Y105250D01*
X92312Y104937D01*
X91687Y104625D01*
X84499D01*
X84187Y104937D01*
X83874Y105562D01*
X69187Y142125D01*
X68875Y142437D01*
X68562D01*
X68250Y142125D01*
Y105562D01*
Y105250D01*
X67937Y104937D01*
X67625Y104312D01*
X66687Y104000D01*
X62937D01*
X62625Y104312D01*
X62000Y104625D01*
X61687Y105562D01*
Y154312D01*
Y154624D01*
X62000Y155249D01*
X62312Y155562D01*
X63250Y155874D01*
X70125D01*
X70437Y155562D01*
X70750Y154937D01*
X85124Y118062D01*
X85749Y117750D01*
X86062D01*
X86687Y118062D01*
Y154937D01*
Y155249D01*
X86999Y155562D01*
X87312Y155874D01*
X88249Y156187D01*
X92312D01*
X92624Y155562D01*
D02*
G37*
G36*
X329809Y156499D02*
X331371Y156187D01*
X335121Y155249D01*
X336684Y153999D01*
X338559Y152749D01*
X338871Y152437D01*
X339184Y152124D01*
X340121Y151187D01*
X341059Y150249D01*
X342934Y146812D01*
X344184Y142750D01*
Y142437D01*
Y141812D01*
Y140875D01*
X343871Y139625D01*
X343246Y136812D01*
X341684Y133687D01*
X341371Y133062D01*
X340121Y131500D01*
X337934Y129625D01*
X335121Y128062D01*
X334809Y127750D01*
X334184Y127125D01*
X333871Y126500D01*
Y125875D01*
X334184Y125562D01*
X342934Y107125D01*
Y106812D01*
Y106500D01*
Y105562D01*
X341996Y104937D01*
X336996D01*
X336371Y105250D01*
X335434Y105562D01*
X335121Y106500D01*
X326371Y124937D01*
Y125250D01*
X325746Y125562D01*
X325121Y125875D01*
X321059Y125562D01*
X320746Y125250D01*
X320434Y124937D01*
X320121D01*
Y106500D01*
Y106187D01*
X319809Y105875D01*
X319496Y105250D01*
X318559Y104937D01*
X313872D01*
X313559Y105250D01*
X313247Y105562D01*
X312934Y106500D01*
Y155249D01*
Y155562D01*
X313247Y156187D01*
X313559Y156499D01*
X314184Y156812D01*
X328559D01*
X329809Y156499D01*
D02*
G37*
G36*
X226060D02*
X227623Y156187D01*
X231060Y155249D01*
X232935Y153999D01*
X234810Y152749D01*
X235123Y152437D01*
X235435Y152124D01*
X236373Y151187D01*
X237310Y150249D01*
X239185Y146812D01*
X239810Y144937D01*
X240123Y142750D01*
Y142437D01*
Y141812D01*
Y140875D01*
Y139625D01*
X239498Y136812D01*
X237935Y133687D01*
X237623Y133062D01*
X236373Y131500D01*
X234185Y129625D01*
X231373Y128062D01*
X231060Y127750D01*
X230435Y127125D01*
X229810Y126500D01*
Y125875D01*
X230123Y125562D01*
X239185Y107125D01*
Y106812D01*
X239498Y106500D01*
X239185Y105562D01*
X238560Y104937D01*
X233248D01*
X232935Y105250D01*
X232310Y105562D01*
X231685Y106500D01*
X223560Y124937D01*
X223248Y125250D01*
X221998Y125875D01*
X216998Y125562D01*
X216685Y125250D01*
X216373Y124937D01*
X216060D01*
Y106500D01*
Y106187D01*
X215748Y105875D01*
X215435Y105250D01*
X214498Y104937D01*
X210435D01*
X210123Y105250D01*
X209498Y105562D01*
X209185Y106500D01*
Y155249D01*
Y155562D01*
X209498Y156187D01*
X209810Y156499D01*
X210748Y156812D01*
X224810D01*
X226060Y156499D01*
D02*
G37*
G36*
X530744Y155562D02*
X531056Y154937D01*
Y150874D01*
Y150562D01*
X530744Y149937D01*
X530432Y149312D01*
X529494Y148999D01*
X512307D01*
X511994Y148687D01*
Y148375D01*
Y135250D01*
X512307D01*
X512619Y134937D01*
X529494D01*
X529807Y134625D01*
X530119Y134312D01*
X530432Y133375D01*
Y129312D01*
Y129000D01*
Y128687D01*
X529807Y128375D01*
X529182Y128062D01*
X512619D01*
X512307Y127750D01*
X511994Y127437D01*
X511369Y112437D01*
Y112125D01*
X511682Y111812D01*
X511994Y111500D01*
X512307Y111812D01*
X530432D01*
X531056Y111500D01*
X531681Y111187D01*
X531994Y110250D01*
Y105875D01*
Y105562D01*
X531681Y105250D01*
X531369Y104937D01*
X530119Y104625D01*
X505744D01*
X505119Y104937D01*
X504494Y105250D01*
X504182Y105875D01*
Y154937D01*
Y155249D01*
X504494Y155562D01*
X505119Y155874D01*
X506057Y156187D01*
X530432D01*
X530744Y155562D01*
D02*
G37*
G36*
X486370D02*
X486682Y154937D01*
Y150874D01*
Y150562D01*
X486370Y149937D01*
X486057Y149312D01*
X485120Y148999D01*
X474495D01*
X474182Y148687D01*
X473870Y148375D01*
Y147750D01*
Y146812D01*
Y144937D01*
Y142437D01*
Y138687D01*
Y136187D01*
Y133687D01*
Y130875D01*
Y127437D01*
Y105875D01*
Y105562D01*
X473557Y105250D01*
X473245Y104937D01*
X472307Y104625D01*
X468245D01*
X467932Y104937D01*
X467307Y105250D01*
X466995Y105875D01*
Y148375D01*
Y148687D01*
X466682Y148999D01*
X456370D01*
X456057Y149312D01*
X455745Y149937D01*
X455432Y150874D01*
Y154937D01*
Y155249D01*
X455745Y155562D01*
X456057Y155874D01*
X456682Y156187D01*
X486057D01*
X486370Y155562D01*
D02*
G37*
G36*
X428870Y155874D02*
X429495Y155249D01*
X443245Y105875D01*
X442933Y105250D01*
X442620Y104937D01*
X441683Y104625D01*
X437308D01*
X436370Y104937D01*
X435745Y105562D01*
X432308Y116812D01*
Y117125D01*
X431995Y117437D01*
X431683Y117750D01*
X418558D01*
X417933Y117437D01*
X417308Y116812D01*
X414495Y105562D01*
X414183Y105250D01*
X413870Y104937D01*
X412933Y104625D01*
X408245D01*
X407933Y104937D01*
X407308Y105250D01*
X406996Y105875D01*
X421058Y155249D01*
Y155562D01*
X421370Y155874D01*
X421683Y156187D01*
X428558D01*
X428870Y155874D01*
D02*
G37*
G36*
X389496Y155562D02*
X389808Y154937D01*
Y150874D01*
Y150562D01*
Y149937D01*
X389183Y149312D01*
X388558Y148999D01*
X370746D01*
X369808Y148375D01*
Y135250D01*
X370121Y134937D01*
X387308D01*
X387933Y134625D01*
X388246Y134312D01*
X388558Y133375D01*
Y129312D01*
Y129000D01*
X388246Y128687D01*
X387933Y128375D01*
X386996Y128062D01*
X370433D01*
X370121Y127750D01*
X369808Y127437D01*
Y112437D01*
X370746D01*
Y112125D01*
Y111812D01*
X371058Y111500D01*
X371371Y111812D01*
X389183D01*
X389808Y111500D01*
X390121Y111187D01*
X390433Y110250D01*
Y105875D01*
Y105562D01*
X390121Y105250D01*
X389808Y104937D01*
X388871Y104625D01*
X364184D01*
X363871Y104937D01*
X363246Y105250D01*
X362934Y105875D01*
Y154937D01*
Y155249D01*
X363246Y155562D01*
X363559Y155874D01*
X364496Y156187D01*
X389183D01*
X389496Y155562D01*
D02*
G37*
G36*
X187936D02*
X188248Y154937D01*
Y150874D01*
Y150562D01*
X187936Y149937D01*
X187623Y149312D01*
X186686Y148999D01*
X169186D01*
X168248Y148375D01*
Y135250D01*
X168561Y134937D01*
X185748D01*
X186061Y134625D01*
X186373Y134312D01*
X186686Y133375D01*
Y129312D01*
Y129000D01*
Y128687D01*
X186061Y128375D01*
X185436Y128062D01*
X168873D01*
X167623Y127437D01*
Y112437D01*
X168873D01*
Y112125D01*
Y111812D01*
Y111500D01*
X169186Y111812D01*
X186998D01*
X187623Y111500D01*
X187936Y111187D01*
X188248Y110250D01*
Y105875D01*
Y105562D01*
X187936Y105250D01*
X187623Y104937D01*
X186686Y104625D01*
X162623D01*
X162311Y104937D01*
X161686Y105250D01*
X161373Y105875D01*
Y154937D01*
Y155249D01*
X161686Y155562D01*
X161998Y155874D01*
X162936Y156187D01*
X187623D01*
X187936Y155562D01*
D02*
G37*
G36*
X142624D02*
X142936Y154937D01*
Y150874D01*
Y150562D01*
X142624Y149937D01*
X142311Y149312D01*
X141374Y148999D01*
X130436D01*
Y148687D01*
X130749D01*
Y148375D01*
Y147750D01*
Y146812D01*
Y144937D01*
Y142437D01*
Y138687D01*
Y136187D01*
Y133687D01*
Y130875D01*
Y127437D01*
Y105875D01*
Y105562D01*
X130436Y105250D01*
X130124Y104937D01*
X129186Y104625D01*
X124499D01*
X124186Y104937D01*
X123561Y105250D01*
X123249Y105875D01*
Y148375D01*
Y148687D01*
Y148999D01*
X113249D01*
X112624Y149312D01*
X111999Y149937D01*
X111686Y150874D01*
Y154937D01*
Y155249D01*
X111999Y155562D01*
X112624Y155874D01*
X113561Y156187D01*
X142311D01*
X142624Y155562D01*
D02*
G37*
G36*
X38562D02*
X38875Y154937D01*
Y105875D01*
Y105562D01*
X38562Y105250D01*
X38250Y104937D01*
X37312Y104625D01*
X33250D01*
X32625Y104937D01*
X32000Y105250D01*
Y105875D01*
Y154937D01*
Y155249D01*
Y155562D01*
X32625Y155874D01*
X33563Y156187D01*
X38250D01*
X38562Y155562D01*
D02*
G37*
G36*
X306519Y51374D02*
X307812D01*
Y50296D01*
X306519D01*
Y48000D01*
X305338D01*
Y50296D01*
X301167D01*
Y51374D01*
X305553Y57607D01*
X306519D01*
Y51374D01*
D02*
G37*
G36*
X298533Y48000D02*
X297353D01*
Y55507D01*
X297343D01*
X297334Y55489D01*
X297306Y55470D01*
X297278Y55442D01*
X297184Y55357D01*
X297053Y55254D01*
X296893Y55133D01*
X296696Y54992D01*
X296472Y54842D01*
X296228Y54692D01*
X296218D01*
X296200Y54673D01*
X296162Y54655D01*
X296115Y54626D01*
X296050Y54589D01*
X295984Y54552D01*
X295815Y54467D01*
X295628Y54373D01*
X295422Y54270D01*
X295206Y54177D01*
X295000Y54092D01*
Y55226D01*
X295009Y55236D01*
X295047Y55245D01*
X295094Y55273D01*
X295169Y55311D01*
X295253Y55357D01*
X295347Y55414D01*
X295459Y55470D01*
X295581Y55545D01*
X295853Y55704D01*
X296143Y55901D01*
X296434Y56117D01*
X296725Y56351D01*
X296734Y56360D01*
X296753Y56379D01*
X296800Y56417D01*
X296846Y56463D01*
X296903Y56529D01*
X296978Y56595D01*
X297053Y56679D01*
X297137Y56763D01*
X297306Y56960D01*
X297474Y57176D01*
X297634Y57410D01*
X297709Y57523D01*
X297765Y57644D01*
X298533D01*
Y48000D01*
D02*
G37*
G36*
X218320Y238664D02*
X219613D01*
Y237586D01*
X218320D01*
Y235290D01*
X217139D01*
Y237586D01*
X212968D01*
Y238664D01*
X217354Y244897D01*
X218320D01*
Y238664D01*
D02*
G37*
G36*
X218640Y185725D02*
X218715D01*
X218790Y185715D01*
X218883Y185706D01*
X218987Y185697D01*
X219212Y185650D01*
X219446Y185593D01*
X219699Y185509D01*
X219952Y185397D01*
X219961D01*
X219980Y185378D01*
X220018Y185359D01*
X220065Y185331D01*
X220121Y185303D01*
X220177Y185256D01*
X220327Y185153D01*
X220496Y185022D01*
X220664Y184862D01*
X220824Y184675D01*
X220964Y184469D01*
Y184459D01*
X220983Y184441D01*
X221002Y184413D01*
X221021Y184366D01*
X221049Y184319D01*
X221077Y184253D01*
X221142Y184094D01*
X221208Y183916D01*
X221264Y183700D01*
X221302Y183475D01*
X221320Y183232D01*
Y183222D01*
Y183204D01*
Y183175D01*
X221311Y183129D01*
Y183072D01*
X221302Y183007D01*
X221283Y182857D01*
X221236Y182679D01*
X221180Y182491D01*
X221095Y182294D01*
X220983Y182097D01*
Y182088D01*
X220964Y182079D01*
X220945Y182051D01*
X220917Y182013D01*
X220842Y181919D01*
X220730Y181807D01*
X220589Y181676D01*
X220421Y181544D01*
X220224Y181413D01*
X219989Y181292D01*
X219999D01*
X220027Y181282D01*
X220074Y181273D01*
X220130Y181254D01*
X220205Y181226D01*
X220280Y181198D01*
X220477Y181113D01*
X220683Y181010D01*
X220908Y180860D01*
X221124Y180692D01*
X221217Y180588D01*
X221311Y180476D01*
X221320Y180467D01*
X221330Y180448D01*
X221358Y180410D01*
X221386Y180364D01*
X221423Y180307D01*
X221461Y180232D01*
X221508Y180148D01*
X221555Y180054D01*
X221592Y179942D01*
X221639Y179829D01*
X221677Y179698D01*
X221714Y179567D01*
X221770Y179267D01*
X221780Y179098D01*
X221789Y178930D01*
Y178920D01*
Y178873D01*
X221780Y178808D01*
Y178723D01*
X221761Y178611D01*
X221742Y178489D01*
X221714Y178349D01*
X221677Y178189D01*
X221630Y178030D01*
X221564Y177861D01*
X221489Y177683D01*
X221405Y177505D01*
X221292Y177327D01*
X221170Y177139D01*
X221030Y176971D01*
X220870Y176802D01*
X220861Y176793D01*
X220833Y176765D01*
X220777Y176718D01*
X220702Y176671D01*
X220617Y176596D01*
X220505Y176530D01*
X220383Y176446D01*
X220233Y176371D01*
X220074Y176287D01*
X219896Y176202D01*
X219708Y176137D01*
X219502Y176071D01*
X219286Y176015D01*
X219052Y175968D01*
X218808Y175940D01*
X218546Y175930D01*
X218490D01*
X218424Y175940D01*
X218340D01*
X218227Y175949D01*
X218106Y175968D01*
X217965Y175996D01*
X217806Y176024D01*
X217646Y176062D01*
X217478Y176118D01*
X217299Y176174D01*
X217131Y176249D01*
X216953Y176333D01*
X216775Y176437D01*
X216606Y176549D01*
X216447Y176680D01*
X216437Y176689D01*
X216409Y176718D01*
X216372Y176755D01*
X216315Y176821D01*
X216250Y176896D01*
X216175Y176980D01*
X216100Y177083D01*
X216015Y177205D01*
X215931Y177336D01*
X215847Y177486D01*
X215772Y177645D01*
X215697Y177824D01*
X215631Y178011D01*
X215575Y178208D01*
X215528Y178414D01*
X215500Y178639D01*
X216681Y178798D01*
Y178789D01*
X216690Y178752D01*
X216700Y178705D01*
X216718Y178630D01*
X216737Y178555D01*
X216765Y178452D01*
X216803Y178349D01*
X216840Y178236D01*
X216934Y178002D01*
X217056Y177758D01*
X217196Y177533D01*
X217281Y177439D01*
X217365Y177346D01*
X217374D01*
X217384Y177327D01*
X217412Y177308D01*
X217449Y177280D01*
X217496Y177243D01*
X217553Y177205D01*
X217693Y177130D01*
X217871Y177046D01*
X218078Y176971D01*
X218302Y176924D01*
X218424Y176915D01*
X218556Y176905D01*
X218640D01*
X218696Y176915D01*
X218771Y176924D01*
X218846Y176933D01*
X218940Y176952D01*
X219043Y176980D01*
X219268Y177046D01*
X219380Y177093D01*
X219502Y177149D01*
X219624Y177214D01*
X219736Y177289D01*
X219849Y177374D01*
X219961Y177477D01*
X219971Y177486D01*
X219989Y177505D01*
X220018Y177533D01*
X220055Y177580D01*
X220093Y177636D01*
X220139Y177702D01*
X220196Y177777D01*
X220252Y177871D01*
X220299Y177964D01*
X220355Y178077D01*
X220449Y178320D01*
X220477Y178452D01*
X220505Y178592D01*
X220524Y178742D01*
X220533Y178902D01*
Y178911D01*
Y178939D01*
Y178976D01*
X220524Y179042D01*
X220514Y179108D01*
X220505Y179192D01*
X220486Y179276D01*
X220467Y179380D01*
X220402Y179586D01*
X220364Y179698D01*
X220308Y179811D01*
X220243Y179923D01*
X220177Y180036D01*
X220093Y180139D01*
X219999Y180242D01*
X219989Y180251D01*
X219971Y180261D01*
X219943Y180289D01*
X219905Y180326D01*
X219849Y180364D01*
X219783Y180410D01*
X219718Y180457D01*
X219633Y180504D01*
X219540Y180551D01*
X219436Y180598D01*
X219202Y180682D01*
X218940Y180748D01*
X218799Y180757D01*
X218649Y180767D01*
X218593D01*
X218518Y180757D01*
X218424Y180748D01*
X218302Y180739D01*
X218162Y180720D01*
X218002Y180682D01*
X217824Y180645D01*
X217956Y181676D01*
X217974D01*
X218021Y181666D01*
X218087Y181657D01*
X218218D01*
X218274Y181666D01*
X218340D01*
X218415Y181676D01*
X218499Y181695D01*
X218593Y181704D01*
X218808Y181751D01*
X219034Y181826D01*
X219268Y181919D01*
X219502Y182051D01*
X219512Y182060D01*
X219530Y182069D01*
X219558Y182088D01*
X219596Y182126D01*
X219643Y182163D01*
X219699Y182219D01*
X219746Y182276D01*
X219811Y182351D01*
X219868Y182426D01*
X219914Y182519D01*
X219971Y182622D01*
X220018Y182726D01*
X220055Y182847D01*
X220083Y182979D01*
X220102Y183110D01*
X220111Y183260D01*
Y183269D01*
Y183288D01*
Y183325D01*
X220102Y183372D01*
Y183428D01*
X220093Y183494D01*
X220055Y183644D01*
X220008Y183813D01*
X219924Y183991D01*
X219821Y184169D01*
X219746Y184253D01*
X219671Y184338D01*
X219661Y184347D01*
X219652Y184356D01*
X219624Y184375D01*
X219596Y184403D01*
X219493Y184478D01*
X219361Y184553D01*
X219202Y184628D01*
X219005Y184703D01*
X218780Y184750D01*
X218668Y184769D01*
X218471D01*
X218424Y184759D01*
X218359D01*
X218293Y184750D01*
X218134Y184713D01*
X217946Y184666D01*
X217759Y184581D01*
X217562Y184478D01*
X217468Y184403D01*
X217384Y184328D01*
X217374Y184319D01*
X217365Y184310D01*
X217337Y184281D01*
X217309Y184244D01*
X217271Y184206D01*
X217234Y184150D01*
X217187Y184084D01*
X217140Y184009D01*
X217093Y183916D01*
X217037Y183822D01*
X216990Y183719D01*
X216943Y183597D01*
X216906Y183475D01*
X216859Y183335D01*
X216831Y183194D01*
X216803Y183035D01*
X215622Y183241D01*
Y183250D01*
X215631Y183297D01*
X215650Y183354D01*
X215669Y183438D01*
X215697Y183531D01*
X215734Y183653D01*
X215772Y183775D01*
X215828Y183916D01*
X215884Y184056D01*
X215959Y184206D01*
X216034Y184366D01*
X216128Y184516D01*
X216222Y184666D01*
X216334Y184816D01*
X216465Y184947D01*
X216597Y185078D01*
X216606Y185087D01*
X216634Y185106D01*
X216672Y185134D01*
X216737Y185181D01*
X216812Y185228D01*
X216896Y185284D01*
X217009Y185350D01*
X217122Y185406D01*
X217253Y185472D01*
X217403Y185528D01*
X217562Y185584D01*
X217731Y185631D01*
X217909Y185678D01*
X218096Y185706D01*
X218302Y185725D01*
X218509Y185734D01*
X218584D01*
X218640Y185725D01*
D02*
G37*
G36*
X191651Y244925D02*
X191755D01*
X191867Y244916D01*
X191998Y244897D01*
X192148Y244869D01*
X192317Y244841D01*
X192486Y244794D01*
X192664Y244747D01*
X192851Y244681D01*
X193029Y244606D01*
X193217Y244522D01*
X193385Y244419D01*
X193554Y244297D01*
X193713Y244166D01*
X193723Y244156D01*
X193751Y244128D01*
X193789Y244091D01*
X193835Y244025D01*
X193901Y243950D01*
X193967Y243866D01*
X194042Y243763D01*
X194116Y243641D01*
X194191Y243510D01*
X194266Y243360D01*
X194332Y243210D01*
X194398Y243041D01*
X194445Y242863D01*
X194482Y242666D01*
X194510Y242469D01*
X194520Y242263D01*
Y242254D01*
Y242235D01*
Y242207D01*
Y242169D01*
X194510Y242113D01*
Y242057D01*
X194491Y241907D01*
X194463Y241738D01*
X194416Y241542D01*
X194360Y241335D01*
X194276Y241129D01*
Y241120D01*
X194266Y241101D01*
X194248Y241073D01*
X194229Y241035D01*
X194201Y240979D01*
X194173Y240923D01*
X194088Y240773D01*
X193985Y240604D01*
X193845Y240398D01*
X193685Y240182D01*
X193489Y239958D01*
X193479Y239948D01*
X193460Y239929D01*
X193432Y239892D01*
X193385Y239845D01*
X193320Y239779D01*
X193254Y239704D01*
X193160Y239620D01*
X193057Y239517D01*
X192945Y239405D01*
X192804Y239273D01*
X192664Y239133D01*
X192495Y238983D01*
X192317Y238824D01*
X192120Y238645D01*
X191905Y238467D01*
X191680Y238270D01*
X191670Y238261D01*
X191633Y238233D01*
X191576Y238186D01*
X191511Y238130D01*
X191427Y238055D01*
X191333Y237971D01*
X191108Y237783D01*
X190883Y237586D01*
X190658Y237390D01*
X190555Y237296D01*
X190461Y237202D01*
X190377Y237127D01*
X190311Y237061D01*
X190302Y237052D01*
X190264Y237005D01*
X190208Y236940D01*
X190133Y236865D01*
X190058Y236761D01*
X189974Y236658D01*
X189890Y236546D01*
X189814Y236424D01*
X194529D01*
Y235290D01*
X188184D01*
Y235299D01*
Y235309D01*
Y235365D01*
Y235440D01*
X188193Y235552D01*
X188212Y235674D01*
X188230Y235815D01*
X188268Y235956D01*
X188315Y236105D01*
Y236115D01*
X188324Y236133D01*
X188343Y236171D01*
X188362Y236218D01*
X188390Y236274D01*
X188418Y236340D01*
X188502Y236508D01*
X188615Y236705D01*
X188746Y236921D01*
X188905Y237146D01*
X189093Y237380D01*
X189102Y237390D01*
X189121Y237408D01*
X189149Y237446D01*
X189196Y237493D01*
X189252Y237549D01*
X189318Y237624D01*
X189393Y237708D01*
X189486Y237802D01*
X189590Y237896D01*
X189702Y238008D01*
X189833Y238130D01*
X189964Y238261D01*
X190114Y238392D01*
X190274Y238533D01*
X190452Y238683D01*
X190630Y238833D01*
X190649Y238852D01*
X190695Y238889D01*
X190780Y238955D01*
X190883Y239048D01*
X191014Y239151D01*
X191155Y239283D01*
X191314Y239423D01*
X191483Y239573D01*
X191839Y239901D01*
X192186Y240239D01*
X192345Y240407D01*
X192495Y240576D01*
X192636Y240726D01*
X192748Y240876D01*
X192757Y240885D01*
X192776Y240914D01*
X192804Y240951D01*
X192833Y241007D01*
X192879Y241073D01*
X192926Y241148D01*
X192973Y241242D01*
X193029Y241335D01*
X193132Y241551D01*
X193226Y241785D01*
X193254Y241916D01*
X193282Y242038D01*
X193301Y242169D01*
X193311Y242291D01*
Y242301D01*
Y242320D01*
Y242357D01*
X193301Y242413D01*
X193292Y242469D01*
X193282Y242535D01*
X193245Y242704D01*
X193189Y242891D01*
X193095Y243088D01*
X193039Y243182D01*
X192973Y243285D01*
X192898Y243379D01*
X192804Y243472D01*
X192795Y243482D01*
X192786Y243491D01*
X192748Y243519D01*
X192711Y243547D01*
X192664Y243585D01*
X192598Y243622D01*
X192533Y243669D01*
X192448Y243716D01*
X192364Y243763D01*
X192261Y243810D01*
X192036Y243885D01*
X191783Y243941D01*
X191642Y243950D01*
X191492Y243960D01*
X191408D01*
X191352Y243950D01*
X191277Y243941D01*
X191192Y243932D01*
X191098Y243913D01*
X191005Y243894D01*
X190780Y243838D01*
X190555Y243744D01*
X190442Y243688D01*
X190330Y243613D01*
X190227Y243538D01*
X190124Y243444D01*
X190114Y243435D01*
X190105Y243425D01*
X190077Y243388D01*
X190049Y243350D01*
X190011Y243304D01*
X189964Y243238D01*
X189918Y243163D01*
X189871Y243079D01*
X189824Y242985D01*
X189777Y242882D01*
X189739Y242760D01*
X189693Y242638D01*
X189664Y242507D01*
X189636Y242357D01*
X189627Y242207D01*
X189618Y242038D01*
X188409Y242160D01*
Y242179D01*
X188418Y242216D01*
X188427Y242291D01*
X188437Y242385D01*
X188465Y242498D01*
X188493Y242629D01*
X188530Y242769D01*
X188568Y242929D01*
X188624Y243088D01*
X188690Y243257D01*
X188765Y243425D01*
X188849Y243603D01*
X188952Y243772D01*
X189065Y243932D01*
X189196Y244081D01*
X189336Y244222D01*
X189346Y244231D01*
X189374Y244250D01*
X189421Y244288D01*
X189486Y244335D01*
X189571Y244391D01*
X189664Y244447D01*
X189786Y244513D01*
X189918Y244578D01*
X190068Y244644D01*
X190227Y244709D01*
X190405Y244766D01*
X190602Y244822D01*
X190808Y244869D01*
X191033Y244906D01*
X191267Y244925D01*
X191520Y244934D01*
X191586D01*
X191651Y244925D01*
D02*
G37*
G36*
X415937Y43698D02*
X416062Y43685D01*
X416187Y43672D01*
X416337Y43647D01*
X416500Y43610D01*
X416837Y43523D01*
X417012Y43460D01*
X417200Y43385D01*
X417362Y43298D01*
X417537Y43185D01*
X417687Y43073D01*
X417837Y42935D01*
X417850Y42923D01*
X417874Y42898D01*
X417912Y42860D01*
X417949Y42798D01*
X418012Y42710D01*
X418074Y42610D01*
X418137Y42498D01*
X418212Y42360D01*
X418287Y42198D01*
X418349Y42023D01*
X418412Y41835D01*
X418474Y41623D01*
X418512Y41398D01*
X418549Y41148D01*
X418574Y40873D01*
X418587Y40586D01*
Y34213D01*
X417012D01*
Y40061D01*
Y40073D01*
Y40098D01*
Y40148D01*
Y40211D01*
Y40286D01*
X417000Y40386D01*
X416987Y40586D01*
X416975Y40798D01*
X416950Y41023D01*
X416900Y41236D01*
X416850Y41411D01*
X416837Y41436D01*
X416825Y41486D01*
X416787Y41561D01*
X416725Y41660D01*
X416650Y41761D01*
X416550Y41873D01*
X416437Y41986D01*
X416300Y42085D01*
X416287Y42098D01*
X416225Y42123D01*
X416150Y42173D01*
X416037Y42223D01*
X415900Y42260D01*
X415737Y42310D01*
X415563Y42335D01*
X415363Y42348D01*
X415263D01*
X415200Y42335D01*
X415113Y42323D01*
X415013Y42310D01*
X414788Y42260D01*
X414525Y42185D01*
X414250Y42073D01*
X414113Y41998D01*
X413988Y41911D01*
X413851Y41798D01*
X413726Y41686D01*
X413713Y41673D01*
X413700Y41660D01*
X413663Y41611D01*
X413625Y41561D01*
X413576Y41486D01*
X413526Y41411D01*
X413463Y41298D01*
X413413Y41186D01*
X413351Y41048D01*
X413288Y40886D01*
X413238Y40723D01*
X413188Y40536D01*
X413151Y40323D01*
X413113Y40098D01*
X413101Y39861D01*
X413088Y39599D01*
Y34213D01*
X411514D01*
Y40248D01*
Y40261D01*
Y40298D01*
Y40348D01*
Y40423D01*
X411501Y40511D01*
X411489Y40611D01*
X411464Y40836D01*
X411414Y41098D01*
X411351Y41361D01*
X411251Y41611D01*
X411126Y41823D01*
X411114Y41848D01*
X411051Y41911D01*
X410964Y41986D01*
X410826Y42085D01*
X410651Y42185D01*
X410439Y42260D01*
X410176Y42323D01*
X409877Y42348D01*
X409764D01*
X409639Y42335D01*
X409477Y42310D01*
X409289Y42260D01*
X409077Y42198D01*
X408852Y42110D01*
X408639Y41998D01*
X408614Y41986D01*
X408552Y41936D01*
X408452Y41848D01*
X408327Y41736D01*
X408189Y41598D01*
X408064Y41423D01*
X407939Y41211D01*
X407827Y40973D01*
Y40961D01*
X407814Y40948D01*
X407802Y40898D01*
X407789Y40848D01*
X407765Y40773D01*
X407752Y40698D01*
X407727Y40598D01*
X407702Y40473D01*
X407677Y40348D01*
X407652Y40198D01*
X407640Y40036D01*
X407615Y39861D01*
X407602Y39674D01*
X407590Y39474D01*
X407577Y39261D01*
Y39024D01*
Y34213D01*
X406003D01*
Y43498D01*
X407415D01*
Y42210D01*
X407440Y42223D01*
X407465Y42260D01*
X407490Y42310D01*
X407590Y42435D01*
X407727Y42585D01*
X407890Y42760D01*
X408089Y42948D01*
X408314Y43123D01*
X408577Y43285D01*
X408589D01*
X408614Y43298D01*
X408652Y43323D01*
X408702Y43348D01*
X408777Y43385D01*
X408852Y43423D01*
X409052Y43498D01*
X409302Y43573D01*
X409577Y43647D01*
X409889Y43698D01*
X410226Y43710D01*
X410326D01*
X410401Y43698D01*
X410489D01*
X410589Y43685D01*
X410826Y43660D01*
X411089Y43598D01*
X411376Y43523D01*
X411651Y43423D01*
X411913Y43273D01*
X411926D01*
X411939Y43248D01*
X412026Y43198D01*
X412138Y43098D01*
X412276Y42960D01*
X412426Y42798D01*
X412588Y42598D01*
X412726Y42360D01*
X412838Y42085D01*
X412851Y42098D01*
X412888Y42160D01*
X412951Y42235D01*
X413038Y42335D01*
X413151Y42460D01*
X413288Y42598D01*
X413438Y42748D01*
X413613Y42898D01*
X413813Y43048D01*
X414025Y43198D01*
X414263Y43335D01*
X414525Y43460D01*
X414788Y43560D01*
X415088Y43635D01*
X415388Y43698D01*
X415713Y43710D01*
X415850D01*
X415937Y43698D01*
D02*
G37*
G36*
X401029D02*
X401154Y43685D01*
X401279Y43672D01*
X401429Y43647D01*
X401591Y43610D01*
X401928Y43523D01*
X402104Y43460D01*
X402291Y43385D01*
X402453Y43298D01*
X402628Y43185D01*
X402778Y43073D01*
X402928Y42935D01*
X402941Y42923D01*
X402966Y42898D01*
X403003Y42860D01*
X403041Y42798D01*
X403103Y42710D01*
X403166Y42610D01*
X403228Y42498D01*
X403303Y42360D01*
X403378Y42198D01*
X403441Y42023D01*
X403503Y41835D01*
X403566Y41623D01*
X403603Y41398D01*
X403641Y41148D01*
X403666Y40873D01*
X403678Y40586D01*
Y34213D01*
X402104D01*
Y40061D01*
Y40073D01*
Y40098D01*
Y40148D01*
Y40211D01*
Y40286D01*
X402091Y40386D01*
X402079Y40586D01*
X402066Y40798D01*
X402041Y41023D01*
X401991Y41236D01*
X401941Y41411D01*
X401928Y41436D01*
X401916Y41486D01*
X401879Y41561D01*
X401816Y41660D01*
X401741Y41761D01*
X401641Y41873D01*
X401529Y41986D01*
X401391Y42085D01*
X401379Y42098D01*
X401316Y42123D01*
X401241Y42173D01*
X401129Y42223D01*
X400991Y42260D01*
X400829Y42310D01*
X400654Y42335D01*
X400454Y42348D01*
X400354D01*
X400291Y42335D01*
X400204Y42323D01*
X400104Y42310D01*
X399879Y42260D01*
X399617Y42185D01*
X399342Y42073D01*
X399204Y41998D01*
X399079Y41911D01*
X398942Y41798D01*
X398817Y41686D01*
X398804Y41673D01*
X398792Y41660D01*
X398754Y41611D01*
X398717Y41561D01*
X398667Y41486D01*
X398617Y41411D01*
X398554Y41298D01*
X398504Y41186D01*
X398442Y41048D01*
X398379Y40886D01*
X398330Y40723D01*
X398279Y40536D01*
X398242Y40323D01*
X398204Y40098D01*
X398192Y39861D01*
X398180Y39599D01*
Y34213D01*
X396605D01*
Y40248D01*
Y40261D01*
Y40298D01*
Y40348D01*
Y40423D01*
X396592Y40511D01*
X396580Y40611D01*
X396555Y40836D01*
X396505Y41098D01*
X396442Y41361D01*
X396343Y41611D01*
X396217Y41823D01*
X396205Y41848D01*
X396143Y41911D01*
X396055Y41986D01*
X395918Y42085D01*
X395743Y42185D01*
X395530Y42260D01*
X395268Y42323D01*
X394968Y42348D01*
X394855D01*
X394730Y42335D01*
X394568Y42310D01*
X394380Y42260D01*
X394168Y42198D01*
X393943Y42110D01*
X393731Y41998D01*
X393706Y41986D01*
X393643Y41936D01*
X393543Y41848D01*
X393418Y41736D01*
X393281Y41598D01*
X393156Y41423D01*
X393031Y41211D01*
X392918Y40973D01*
Y40961D01*
X392906Y40948D01*
X392893Y40898D01*
X392881Y40848D01*
X392856Y40773D01*
X392843Y40698D01*
X392818Y40598D01*
X392793Y40473D01*
X392768Y40348D01*
X392743Y40198D01*
X392731Y40036D01*
X392706Y39861D01*
X392693Y39674D01*
X392681Y39474D01*
X392668Y39261D01*
Y39024D01*
Y34213D01*
X391094D01*
Y43498D01*
X392506D01*
Y42210D01*
X392531Y42223D01*
X392556Y42260D01*
X392581Y42310D01*
X392681Y42435D01*
X392818Y42585D01*
X392981Y42760D01*
X393181Y42948D01*
X393406Y43123D01*
X393668Y43285D01*
X393681D01*
X393706Y43298D01*
X393743Y43323D01*
X393793Y43348D01*
X393868Y43385D01*
X393943Y43423D01*
X394143Y43498D01*
X394393Y43573D01*
X394668Y43647D01*
X394980Y43698D01*
X395318Y43710D01*
X395418D01*
X395493Y43698D01*
X395580D01*
X395680Y43685D01*
X395918Y43660D01*
X396180Y43598D01*
X396467Y43523D01*
X396742Y43423D01*
X397005Y43273D01*
X397017D01*
X397030Y43248D01*
X397117Y43198D01*
X397230Y43098D01*
X397367Y42960D01*
X397517Y42798D01*
X397680Y42598D01*
X397817Y42360D01*
X397930Y42085D01*
X397942Y42098D01*
X397980Y42160D01*
X398042Y42235D01*
X398130Y42335D01*
X398242Y42460D01*
X398379Y42598D01*
X398529Y42748D01*
X398704Y42898D01*
X398904Y43048D01*
X399117Y43198D01*
X399354Y43335D01*
X399617Y43460D01*
X399879Y43560D01*
X400179Y43635D01*
X400479Y43698D01*
X400804Y43710D01*
X400941D01*
X401029Y43698D01*
D02*
G37*
G36*
X430109Y38061D02*
X425273D01*
Y39649D01*
X430109D01*
Y38061D01*
D02*
G37*
G36*
X472073Y45510D02*
X467837D01*
Y34213D01*
X466137D01*
Y45510D01*
X461913D01*
Y47022D01*
X472073D01*
Y45510D01*
D02*
G37*
G36*
X442118Y47009D02*
X442268Y46997D01*
X442431Y46984D01*
X442593Y46972D01*
X442968Y46922D01*
X443368Y46859D01*
X443755Y46759D01*
X443930Y46697D01*
X444105Y46622D01*
X444118D01*
X444143Y46609D01*
X444193Y46584D01*
X444255Y46547D01*
X444330Y46509D01*
X444418Y46459D01*
X444618Y46322D01*
X444830Y46159D01*
X445067Y45947D01*
X445292Y45710D01*
X445492Y45422D01*
Y45410D01*
X445517Y45385D01*
X445542Y45347D01*
X445567Y45285D01*
X445617Y45210D01*
X445655Y45122D01*
X445755Y44910D01*
X445842Y44660D01*
X445930Y44372D01*
X445980Y44060D01*
X446005Y43735D01*
Y43723D01*
Y43698D01*
Y43660D01*
X445992Y43598D01*
Y43523D01*
X445980Y43435D01*
X445955Y43235D01*
X445892Y42998D01*
X445817Y42735D01*
X445705Y42460D01*
X445555Y42185D01*
Y42173D01*
X445530Y42148D01*
X445505Y42111D01*
X445467Y42060D01*
X445367Y41936D01*
X445217Y41773D01*
X445030Y41586D01*
X444793Y41386D01*
X444518Y41198D01*
X444205Y41023D01*
X444218D01*
X444255Y41011D01*
X444318Y40986D01*
X444393Y40961D01*
X444493Y40923D01*
X444605Y40873D01*
X444868Y40748D01*
X445155Y40586D01*
X445455Y40386D01*
X445742Y40136D01*
X445867Y39999D01*
X445992Y39848D01*
X446005Y39836D01*
X446017Y39811D01*
X446055Y39761D01*
X446092Y39699D01*
X446142Y39624D01*
X446192Y39536D01*
X446255Y39424D01*
X446317Y39299D01*
X446367Y39161D01*
X446430Y39024D01*
X446530Y38686D01*
X446605Y38324D01*
X446617Y38124D01*
X446630Y37912D01*
Y37899D01*
Y37874D01*
Y37824D01*
Y37762D01*
X446617Y37674D01*
X446605Y37587D01*
X446580Y37362D01*
X446530Y37112D01*
X446467Y36824D01*
X446367Y36537D01*
X446242Y36237D01*
Y36225D01*
X446230Y36200D01*
X446205Y36162D01*
X446180Y36112D01*
X446092Y35975D01*
X445980Y35800D01*
X445855Y35612D01*
X445692Y35412D01*
X445505Y35225D01*
X445305Y35050D01*
X445280Y35037D01*
X445205Y34987D01*
X445080Y34912D01*
X444917Y34812D01*
X444718Y34712D01*
X444468Y34612D01*
X444193Y34512D01*
X443893Y34425D01*
X443880D01*
X443855Y34412D01*
X443805Y34400D01*
X443743Y34387D01*
X443668Y34375D01*
X443568Y34362D01*
X443455Y34337D01*
X443318Y34325D01*
X443181Y34300D01*
X443018Y34275D01*
X442856Y34262D01*
X442668Y34250D01*
X442268Y34225D01*
X441831Y34213D01*
X436957Y34213D01*
Y47022D01*
X441993Y47022D01*
X442118Y47009D01*
D02*
G37*
G36*
X378410Y34213D02*
X376623D01*
Y36000D01*
X378410D01*
Y34213D01*
D02*
G37*
G36*
X371711D02*
X370137D01*
Y44222D01*
X370124D01*
X370112Y44197D01*
X370074Y44172D01*
X370037Y44135D01*
X369912Y44022D01*
X369737Y43885D01*
X369524Y43723D01*
X369262Y43535D01*
X368962Y43335D01*
X368637Y43135D01*
X368625D01*
X368600Y43110D01*
X368550Y43085D01*
X368487Y43048D01*
X368400Y42998D01*
X368312Y42948D01*
X368087Y42835D01*
X367837Y42710D01*
X367562Y42573D01*
X367275Y42448D01*
X367000Y42335D01*
Y43847D01*
X367012Y43860D01*
X367062Y43872D01*
X367125Y43910D01*
X367225Y43960D01*
X367337Y44022D01*
X367462Y44097D01*
X367612Y44172D01*
X367775Y44272D01*
X368137Y44485D01*
X368525Y44747D01*
X368912Y45035D01*
X369299Y45347D01*
X369312Y45360D01*
X369337Y45385D01*
X369399Y45435D01*
X369462Y45497D01*
X369537Y45585D01*
X369637Y45672D01*
X369737Y45785D01*
X369849Y45897D01*
X370074Y46159D01*
X370299Y46447D01*
X370512Y46759D01*
X370612Y46909D01*
X370686Y47072D01*
X371711D01*
Y34213D01*
D02*
G37*
G36*
X454878Y47234D02*
X455027Y47222D01*
X455215Y47197D01*
X455415Y47172D01*
X455640Y47147D01*
X455890Y47097D01*
X456140Y47034D01*
X456402Y46972D01*
X456677Y46884D01*
X456952Y46797D01*
X457227Y46672D01*
X457502Y46547D01*
X457777Y46397D01*
X457789Y46384D01*
X457839Y46359D01*
X457914Y46309D01*
X458014Y46247D01*
X458127Y46159D01*
X458264Y46047D01*
X458414Y45922D01*
X458589Y45785D01*
X458751Y45622D01*
X458939Y45447D01*
X459114Y45247D01*
X459301Y45035D01*
X459476Y44810D01*
X459639Y44560D01*
X459801Y44297D01*
X459951Y44022D01*
X459964Y44010D01*
X459989Y43960D01*
X460026Y43872D01*
X460064Y43760D01*
X460126Y43610D01*
X460189Y43448D01*
X460251Y43248D01*
X460326Y43023D01*
X460401Y42785D01*
X460463Y42523D01*
X460526Y42235D01*
X460588Y41936D01*
X460626Y41623D01*
X460663Y41298D01*
X460689Y40948D01*
X460701Y40598D01*
Y40573D01*
Y40511D01*
Y40411D01*
X460689Y40273D01*
X460676Y40099D01*
X460663Y39899D01*
X460639Y39674D01*
X460601Y39436D01*
X460564Y39174D01*
X460513Y38886D01*
X460451Y38599D01*
X460364Y38311D01*
X460276Y37999D01*
X460176Y37699D01*
X460051Y37399D01*
X459914Y37112D01*
X459901Y37099D01*
X459876Y37049D01*
X459826Y36962D01*
X459764Y36862D01*
X459689Y36737D01*
X459589Y36587D01*
X459476Y36424D01*
X459339Y36249D01*
X459189Y36062D01*
X459026Y35875D01*
X458839Y35675D01*
X458639Y35487D01*
X458427Y35300D01*
X458189Y35112D01*
X457939Y34950D01*
X457677Y34787D01*
X457664Y34775D01*
X457614Y34750D01*
X457539Y34712D01*
X457427Y34662D01*
X457289Y34600D01*
X457139Y34537D01*
X456952Y34462D01*
X456752Y34400D01*
X456527Y34325D01*
X456290Y34250D01*
X456027Y34188D01*
X455752Y34125D01*
X455477Y34075D01*
X455177Y34037D01*
X454878Y34012D01*
X454565Y34000D01*
X454390D01*
X454265Y34012D01*
X454103Y34025D01*
X453915Y34050D01*
X453715Y34075D01*
X453478Y34113D01*
X453240Y34150D01*
X452978Y34213D01*
X452715Y34275D01*
X452441Y34362D01*
X452153Y34462D01*
X451878Y34575D01*
X451603Y34712D01*
X451328Y34862D01*
X451316Y34875D01*
X451266Y34900D01*
X451191Y34950D01*
X451091Y35025D01*
X450979Y35112D01*
X450841Y35225D01*
X450691Y35350D01*
X450529Y35487D01*
X450354Y35650D01*
X450179Y35825D01*
X449991Y36024D01*
X449816Y36237D01*
X449641Y36462D01*
X449466Y36712D01*
X449316Y36974D01*
X449166Y37249D01*
X449154Y37262D01*
X449141Y37312D01*
X449104Y37399D01*
X449054Y37512D01*
X449004Y37649D01*
X448941Y37812D01*
X448867Y38012D01*
X448804Y38212D01*
X448741Y38449D01*
X448667Y38699D01*
X448604Y38961D01*
X448554Y39236D01*
X448504Y39524D01*
X448479Y39824D01*
X448454Y40136D01*
X448442Y40448D01*
Y40461D01*
Y40486D01*
Y40523D01*
Y40586D01*
X448454Y40661D01*
Y40761D01*
Y40861D01*
X448467Y40973D01*
X448492Y41248D01*
X448529Y41548D01*
X448592Y41898D01*
X448654Y42273D01*
X448741Y42660D01*
X448854Y43073D01*
X449004Y43485D01*
X449166Y43898D01*
X449366Y44310D01*
X449591Y44710D01*
X449854Y45085D01*
X450154Y45435D01*
X450179Y45460D01*
X450229Y45510D01*
X450329Y45597D01*
X450466Y45722D01*
X450629Y45859D01*
X450841Y46009D01*
X451078Y46172D01*
X451353Y46347D01*
X451653Y46509D01*
X451991Y46672D01*
X452353Y46822D01*
X452741Y46959D01*
X453165Y47084D01*
X453615Y47172D01*
X454078Y47222D01*
X454578Y47247D01*
X454753D01*
X454878Y47234D01*
D02*
G37*
G36*
X385145Y47059D02*
X385245Y47047D01*
X385370Y47034D01*
X385495Y47022D01*
X385770Y46972D01*
X386070Y46897D01*
X386382Y46784D01*
X386682Y46647D01*
X386695D01*
X386720Y46622D01*
X386757Y46609D01*
X386820Y46572D01*
X386957Y46472D01*
X387145Y46347D01*
X387345Y46172D01*
X387557Y45972D01*
X387770Y45722D01*
X387970Y45447D01*
Y45435D01*
X387995Y45410D01*
X388020Y45372D01*
X388057Y45310D01*
X388095Y45235D01*
X388145Y45147D01*
X388195Y45035D01*
X388257Y44922D01*
X388320Y44785D01*
X388382Y44647D01*
X388507Y44322D01*
X388644Y43948D01*
X388757Y43548D01*
Y43535D01*
X388769Y43498D01*
X388782Y43435D01*
X388807Y43348D01*
X388832Y43235D01*
X388857Y43098D01*
X388882Y42935D01*
X388907Y42748D01*
X388932Y42548D01*
X388957Y42310D01*
X388982Y42073D01*
X389007Y41798D01*
X389032Y41511D01*
X389044Y41198D01*
X389057Y40873D01*
Y40523D01*
Y40498D01*
Y40423D01*
Y40311D01*
X389044Y40148D01*
Y39961D01*
X389032Y39736D01*
X389019Y39499D01*
X388994Y39224D01*
X388969Y38936D01*
X388944Y38649D01*
X388857Y38036D01*
X388744Y37437D01*
X388669Y37162D01*
X388582Y36887D01*
Y36874D01*
X388557Y36824D01*
X388532Y36749D01*
X388494Y36662D01*
X388445Y36537D01*
X388382Y36412D01*
X388320Y36262D01*
X388232Y36100D01*
X388045Y35762D01*
X387807Y35400D01*
X387520Y35062D01*
X387357Y34900D01*
X387195Y34750D01*
X387182Y34737D01*
X387157Y34712D01*
X387107Y34675D01*
X387032Y34637D01*
X386945Y34575D01*
X386832Y34512D01*
X386707Y34450D01*
X386570Y34375D01*
X386408Y34300D01*
X386233Y34237D01*
X386045Y34175D01*
X385833Y34113D01*
X385620Y34075D01*
X385383Y34037D01*
X385145Y34012D01*
X384883Y34000D01*
X384795D01*
X384708Y34012D01*
X384571Y34025D01*
X384421Y34037D01*
X384233Y34075D01*
X384033Y34113D01*
X383821Y34162D01*
X383596Y34237D01*
X383358Y34325D01*
X383108Y34425D01*
X382871Y34550D01*
X382634Y34700D01*
X382396Y34875D01*
X382171Y35087D01*
X381971Y35312D01*
X381959Y35337D01*
X381921Y35387D01*
X381859Y35487D01*
X381771Y35625D01*
X381684Y35800D01*
X381571Y36012D01*
X381459Y36274D01*
X381346Y36574D01*
X381221Y36912D01*
X381109Y37299D01*
X380996Y37724D01*
X380909Y38186D01*
X380821Y38711D01*
X380759Y39261D01*
X380722Y39873D01*
X380709Y40523D01*
Y40536D01*
Y40548D01*
Y40623D01*
Y40748D01*
X380722Y40898D01*
Y41098D01*
X380734Y41311D01*
X380746Y41561D01*
X380771Y41835D01*
X380796Y42123D01*
X380821Y42423D01*
X380909Y43023D01*
X381021Y43635D01*
X381096Y43910D01*
X381171Y44185D01*
Y44197D01*
X381196Y44247D01*
X381221Y44322D01*
X381259Y44410D01*
X381309Y44535D01*
X381371Y44660D01*
X381434Y44810D01*
X381521Y44972D01*
X381709Y45322D01*
X381946Y45672D01*
X382234Y46009D01*
X382396Y46172D01*
X382559Y46322D01*
X382571Y46334D01*
X382596Y46359D01*
X382659Y46397D01*
X382721Y46434D01*
X382821Y46497D01*
X382921Y46559D01*
X383058Y46622D01*
X383196Y46697D01*
X383358Y46772D01*
X383533Y46834D01*
X383721Y46897D01*
X383933Y46959D01*
X384146Y46997D01*
X384383Y47034D01*
X384621Y47059D01*
X384883Y47072D01*
X385058D01*
X385145Y47059D01*
D02*
G37*
G36*
X417150Y62866D02*
X417275Y62854D01*
X417400Y62841D01*
X417550Y62816D01*
X417712Y62779D01*
X418049Y62691D01*
X418224Y62629D01*
X418412Y62554D01*
X418574Y62466D01*
X418749Y62354D01*
X418899Y62242D01*
X419049Y62104D01*
X419062Y62091D01*
X419087Y62067D01*
X419124Y62029D01*
X419162Y61967D01*
X419224Y61879D01*
X419287Y61779D01*
X419349Y61667D01*
X419424Y61529D01*
X419499Y61367D01*
X419562Y61192D01*
X419624Y61004D01*
X419687Y60792D01*
X419724Y60567D01*
X419762Y60317D01*
X419786Y60042D01*
X419799Y59755D01*
Y53381D01*
X418224D01*
Y59230D01*
Y59242D01*
Y59267D01*
Y59317D01*
Y59380D01*
Y59455D01*
X418212Y59555D01*
X418199Y59755D01*
X418187Y59967D01*
X418162Y60192D01*
X418112Y60405D01*
X418062Y60579D01*
X418049Y60604D01*
X418037Y60654D01*
X417999Y60729D01*
X417937Y60829D01*
X417862Y60929D01*
X417762Y61042D01*
X417649Y61154D01*
X417512Y61254D01*
X417500Y61267D01*
X417437Y61292D01*
X417362Y61342D01*
X417250Y61392D01*
X417112Y61429D01*
X416950Y61479D01*
X416775Y61504D01*
X416575Y61517D01*
X416475D01*
X416412Y61504D01*
X416325Y61492D01*
X416225Y61479D01*
X416000Y61429D01*
X415737Y61354D01*
X415463Y61242D01*
X415325Y61167D01*
X415200Y61079D01*
X415063Y60967D01*
X414938Y60854D01*
X414925Y60842D01*
X414913Y60829D01*
X414875Y60779D01*
X414838Y60729D01*
X414788Y60654D01*
X414738Y60579D01*
X414675Y60467D01*
X414625Y60354D01*
X414563Y60217D01*
X414500Y60055D01*
X414450Y59892D01*
X414400Y59705D01*
X414363Y59492D01*
X414325Y59267D01*
X414313Y59030D01*
X414300Y58767D01*
Y53381D01*
X412726D01*
Y59417D01*
Y59430D01*
Y59467D01*
Y59517D01*
Y59592D01*
X412713Y59680D01*
X412701Y59780D01*
X412676Y60005D01*
X412626Y60267D01*
X412563Y60529D01*
X412463Y60779D01*
X412338Y60992D01*
X412326Y61017D01*
X412263Y61079D01*
X412176Y61154D01*
X412038Y61254D01*
X411864Y61354D01*
X411651Y61429D01*
X411389Y61492D01*
X411089Y61517D01*
X410976D01*
X410851Y61504D01*
X410689Y61479D01*
X410501Y61429D01*
X410289Y61367D01*
X410064Y61279D01*
X409851Y61167D01*
X409827Y61154D01*
X409764Y61104D01*
X409664Y61017D01*
X409539Y60904D01*
X409402Y60767D01*
X409277Y60592D01*
X409152Y60380D01*
X409039Y60142D01*
Y60129D01*
X409027Y60117D01*
X409014Y60067D01*
X409002Y60017D01*
X408977Y59942D01*
X408964Y59867D01*
X408939Y59767D01*
X408914Y59642D01*
X408889Y59517D01*
X408864Y59367D01*
X408852Y59205D01*
X408827Y59030D01*
X408814Y58842D01*
X408802Y58642D01*
X408789Y58430D01*
Y58193D01*
Y53381D01*
X407215D01*
Y62666D01*
X408627D01*
Y61379D01*
X408652Y61392D01*
X408677Y61429D01*
X408702Y61479D01*
X408802Y61604D01*
X408939Y61754D01*
X409102Y61929D01*
X409302Y62116D01*
X409527Y62291D01*
X409789Y62454D01*
X409801D01*
X409827Y62466D01*
X409864Y62491D01*
X409914Y62516D01*
X409989Y62554D01*
X410064Y62591D01*
X410264Y62666D01*
X410514Y62741D01*
X410789Y62816D01*
X411101Y62866D01*
X411439Y62879D01*
X411539D01*
X411614Y62866D01*
X411701D01*
X411801Y62854D01*
X412038Y62829D01*
X412301Y62766D01*
X412588Y62691D01*
X412863Y62591D01*
X413126Y62442D01*
X413138D01*
X413151Y62417D01*
X413238Y62366D01*
X413351Y62267D01*
X413488Y62129D01*
X413638Y61967D01*
X413801Y61767D01*
X413938Y61529D01*
X414050Y61254D01*
X414063Y61267D01*
X414100Y61329D01*
X414163Y61404D01*
X414250Y61504D01*
X414363Y61629D01*
X414500Y61767D01*
X414650Y61917D01*
X414825Y62067D01*
X415025Y62217D01*
X415238Y62366D01*
X415475Y62504D01*
X415737Y62629D01*
X416000Y62729D01*
X416300Y62804D01*
X416600Y62866D01*
X416925Y62879D01*
X417062D01*
X417150Y62866D01*
D02*
G37*
G36*
X402241D02*
X402366Y62854D01*
X402491Y62841D01*
X402641Y62816D01*
X402803Y62779D01*
X403141Y62691D01*
X403316Y62629D01*
X403503Y62554D01*
X403666Y62466D01*
X403840Y62354D01*
X403991Y62242D01*
X404141Y62104D01*
X404153Y62091D01*
X404178Y62067D01*
X404215Y62029D01*
X404253Y61967D01*
X404315Y61879D01*
X404378Y61779D01*
X404440Y61667D01*
X404515Y61529D01*
X404590Y61367D01*
X404653Y61192D01*
X404715Y61004D01*
X404778Y60792D01*
X404815Y60567D01*
X404853Y60317D01*
X404878Y60042D01*
X404890Y59755D01*
Y53381D01*
X403316D01*
Y59230D01*
Y59242D01*
Y59267D01*
Y59317D01*
Y59380D01*
Y59455D01*
X403303Y59555D01*
X403291Y59755D01*
X403278Y59967D01*
X403253Y60192D01*
X403203Y60405D01*
X403153Y60579D01*
X403141Y60604D01*
X403128Y60654D01*
X403091Y60729D01*
X403028Y60829D01*
X402953Y60929D01*
X402853Y61042D01*
X402741Y61154D01*
X402603Y61254D01*
X402591Y61267D01*
X402528Y61292D01*
X402453Y61342D01*
X402341Y61392D01*
X402203Y61429D01*
X402041Y61479D01*
X401866Y61504D01*
X401666Y61517D01*
X401566D01*
X401504Y61504D01*
X401416Y61492D01*
X401316Y61479D01*
X401091Y61429D01*
X400829Y61354D01*
X400554Y61242D01*
X400416Y61167D01*
X400291Y61079D01*
X400154Y60967D01*
X400029Y60854D01*
X400017Y60842D01*
X400004Y60829D01*
X399967Y60779D01*
X399929Y60729D01*
X399879Y60654D01*
X399829Y60579D01*
X399767Y60467D01*
X399717Y60354D01*
X399654Y60217D01*
X399592Y60055D01*
X399542Y59892D01*
X399492Y59705D01*
X399454Y59492D01*
X399417Y59267D01*
X399404Y59030D01*
X399392Y58767D01*
Y53381D01*
X397817D01*
Y59417D01*
Y59430D01*
Y59467D01*
Y59517D01*
Y59592D01*
X397805Y59680D01*
X397792Y59780D01*
X397767Y60005D01*
X397717Y60267D01*
X397655Y60529D01*
X397555Y60779D01*
X397430Y60992D01*
X397417Y61017D01*
X397355Y61079D01*
X397267Y61154D01*
X397130Y61254D01*
X396955Y61354D01*
X396742Y61429D01*
X396480Y61492D01*
X396180Y61517D01*
X396068D01*
X395943Y61504D01*
X395780Y61479D01*
X395593Y61429D01*
X395380Y61367D01*
X395155Y61279D01*
X394943Y61167D01*
X394918Y61154D01*
X394855Y61104D01*
X394755Y61017D01*
X394630Y60904D01*
X394493Y60767D01*
X394368Y60592D01*
X394243Y60380D01*
X394131Y60142D01*
Y60129D01*
X394118Y60117D01*
X394105Y60067D01*
X394093Y60017D01*
X394068Y59942D01*
X394055Y59867D01*
X394031Y59767D01*
X394006Y59642D01*
X393981Y59517D01*
X393956Y59367D01*
X393943Y59205D01*
X393918Y59030D01*
X393906Y58842D01*
X393893Y58642D01*
X393881Y58430D01*
Y58193D01*
Y53381D01*
X392306D01*
Y62666D01*
X393718D01*
Y61379D01*
X393743Y61392D01*
X393768Y61429D01*
X393793Y61479D01*
X393893Y61604D01*
X394031Y61754D01*
X394193Y61929D01*
X394393Y62116D01*
X394618Y62291D01*
X394880Y62454D01*
X394893D01*
X394918Y62466D01*
X394955Y62491D01*
X395005Y62516D01*
X395080Y62554D01*
X395155Y62591D01*
X395355Y62666D01*
X395605Y62741D01*
X395880Y62816D01*
X396193Y62866D01*
X396530Y62879D01*
X396630D01*
X396705Y62866D01*
X396792D01*
X396892Y62854D01*
X397130Y62829D01*
X397392Y62766D01*
X397680Y62691D01*
X397955Y62591D01*
X398217Y62442D01*
X398229D01*
X398242Y62417D01*
X398330Y62366D01*
X398442Y62267D01*
X398579Y62129D01*
X398729Y61967D01*
X398892Y61767D01*
X399029Y61529D01*
X399142Y61254D01*
X399154Y61267D01*
X399192Y61329D01*
X399254Y61404D01*
X399342Y61504D01*
X399454Y61629D01*
X399592Y61767D01*
X399742Y61917D01*
X399916Y62067D01*
X400117Y62217D01*
X400329Y62366D01*
X400566Y62504D01*
X400829Y62629D01*
X401091Y62729D01*
X401391Y62804D01*
X401691Y62866D01*
X402016Y62879D01*
X402154D01*
X402241Y62866D01*
D02*
G37*
G36*
X431321Y57230D02*
X426485D01*
Y58817D01*
X431321D01*
Y57230D01*
D02*
G37*
G36*
X389819Y64528D02*
X384683D01*
X383996Y61067D01*
X384008Y61079D01*
X384046Y61104D01*
X384108Y61142D01*
X384196Y61192D01*
X384296Y61254D01*
X384433Y61329D01*
X384571Y61392D01*
X384733Y61479D01*
X384908Y61554D01*
X385095Y61617D01*
X385508Y61754D01*
X385720Y61804D01*
X385945Y61842D01*
X386183Y61867D01*
X386420Y61879D01*
X386495D01*
X386582Y61867D01*
X386707D01*
X386845Y61842D01*
X387020Y61817D01*
X387207Y61779D01*
X387407Y61729D01*
X387620Y61667D01*
X387857Y61592D01*
X388095Y61504D01*
X388332Y61392D01*
X388569Y61254D01*
X388807Y61104D01*
X389032Y60917D01*
X389257Y60717D01*
X389269Y60704D01*
X389307Y60667D01*
X389369Y60592D01*
X389444Y60504D01*
X389532Y60392D01*
X389619Y60255D01*
X389732Y60092D01*
X389844Y59905D01*
X389944Y59705D01*
X390057Y59480D01*
X390144Y59230D01*
X390244Y58967D01*
X390307Y58680D01*
X390369Y58380D01*
X390406Y58055D01*
X390419Y57718D01*
Y57693D01*
Y57643D01*
X390406Y57555D01*
Y57430D01*
X390394Y57280D01*
X390369Y57105D01*
X390331Y56905D01*
X390294Y56693D01*
X390232Y56468D01*
X390169Y56218D01*
X390082Y55968D01*
X389982Y55718D01*
X389869Y55468D01*
X389732Y55206D01*
X389569Y54956D01*
X389394Y54718D01*
X389382Y54706D01*
X389332Y54656D01*
X389269Y54581D01*
X389169Y54481D01*
X389044Y54356D01*
X388894Y54231D01*
X388719Y54094D01*
X388520Y53944D01*
X388282Y53794D01*
X388032Y53656D01*
X387757Y53531D01*
X387457Y53406D01*
X387132Y53306D01*
X386795Y53231D01*
X386420Y53181D01*
X386033Y53169D01*
X385958D01*
X385870Y53181D01*
X385745D01*
X385595Y53194D01*
X385420Y53219D01*
X385233Y53256D01*
X385020Y53294D01*
X384795Y53344D01*
X384571Y53406D01*
X384333Y53481D01*
X384083Y53581D01*
X383846Y53694D01*
X383608Y53819D01*
X383383Y53969D01*
X383171Y54144D01*
X383158Y54156D01*
X383121Y54194D01*
X383071Y54244D01*
X382996Y54318D01*
X382908Y54419D01*
X382821Y54543D01*
X382709Y54681D01*
X382608Y54831D01*
X382496Y55006D01*
X382383Y55206D01*
X382284Y55418D01*
X382184Y55656D01*
X382096Y55906D01*
X382021Y56168D01*
X381959Y56443D01*
X381921Y56743D01*
X383571Y56880D01*
Y56868D01*
X383583Y56830D01*
X383596Y56768D01*
X383608Y56680D01*
X383633Y56581D01*
X383658Y56468D01*
X383746Y56193D01*
X383858Y55906D01*
X383996Y55606D01*
X384183Y55306D01*
X384296Y55181D01*
X384408Y55056D01*
X384421Y55043D01*
X384445Y55031D01*
X384483Y55006D01*
X384533Y54968D01*
X384595Y54918D01*
X384670Y54868D01*
X384870Y54756D01*
X385108Y54644D01*
X385383Y54556D01*
X385695Y54481D01*
X385858Y54468D01*
X386033Y54456D01*
X386145D01*
X386220Y54468D01*
X386320Y54481D01*
X386432Y54506D01*
X386558Y54531D01*
X386695Y54569D01*
X387007Y54668D01*
X387157Y54731D01*
X387320Y54818D01*
X387482Y54918D01*
X387645Y55031D01*
X387807Y55156D01*
X387957Y55306D01*
X387970Y55318D01*
X387995Y55343D01*
X388032Y55393D01*
X388082Y55468D01*
X388145Y55543D01*
X388207Y55656D01*
X388282Y55781D01*
X388357Y55918D01*
X388419Y56068D01*
X388494Y56243D01*
X388557Y56431D01*
X388619Y56630D01*
X388669Y56843D01*
X388707Y57080D01*
X388732Y57318D01*
X388744Y57580D01*
Y57593D01*
Y57643D01*
Y57705D01*
X388732Y57805D01*
X388719Y57918D01*
X388707Y58043D01*
X388682Y58193D01*
X388644Y58355D01*
X388557Y58692D01*
X388494Y58867D01*
X388419Y59042D01*
X388332Y59217D01*
X388232Y59392D01*
X388120Y59555D01*
X387982Y59705D01*
X387970Y59717D01*
X387945Y59742D01*
X387907Y59780D01*
X387845Y59830D01*
X387770Y59892D01*
X387682Y59955D01*
X387570Y60030D01*
X387457Y60105D01*
X387320Y60167D01*
X387170Y60242D01*
X387007Y60304D01*
X386832Y60367D01*
X386632Y60417D01*
X386432Y60455D01*
X386220Y60479D01*
X385995Y60492D01*
X385870D01*
X385795Y60479D01*
X385720D01*
X385533Y60455D01*
X385320Y60405D01*
X385095Y60342D01*
X384858Y60255D01*
X384621Y60142D01*
X384608D01*
X384595Y60129D01*
X384520Y60080D01*
X384408Y60005D01*
X384283Y59905D01*
X384121Y59767D01*
X383971Y59617D01*
X383808Y59442D01*
X383671Y59255D01*
X382196Y59442D01*
X383433Y66028D01*
X389819D01*
Y64528D01*
D02*
G37*
G36*
X468487Y66178D02*
X468637D01*
X468949Y66165D01*
X469274Y66140D01*
X469586Y66103D01*
X469736Y66090D01*
X469861Y66066D01*
X469874D01*
X469899Y66053D01*
X469949D01*
X470024Y66028D01*
X470099Y66016D01*
X470199Y65991D01*
X470411Y65928D01*
X470661Y65853D01*
X470936Y65741D01*
X471198Y65616D01*
X471448Y65466D01*
X471461D01*
X471473Y65441D01*
X471548Y65391D01*
X471673Y65291D01*
X471811Y65153D01*
X471973Y64966D01*
X472148Y64766D01*
X472323Y64516D01*
X472473Y64229D01*
Y64216D01*
X472486Y64191D01*
X472510Y64153D01*
X472536Y64091D01*
X472560Y64016D01*
X472598Y63929D01*
X472635Y63829D01*
X472673Y63716D01*
X472748Y63454D01*
X472810Y63154D01*
X472860Y62829D01*
X472873Y62479D01*
Y62467D01*
Y62404D01*
X472860Y62316D01*
Y62204D01*
X472835Y62067D01*
X472823Y61904D01*
X472785Y61729D01*
X472748Y61529D01*
X472685Y61317D01*
X472623Y61092D01*
X472536Y60867D01*
X472435Y60629D01*
X472310Y60392D01*
X472173Y60167D01*
X472011Y59942D01*
X471823Y59717D01*
X471811Y59705D01*
X471773Y59667D01*
X471711Y59617D01*
X471623Y59542D01*
X471498Y59455D01*
X471348Y59367D01*
X471173Y59255D01*
X470961Y59155D01*
X470723Y59055D01*
X470448Y58955D01*
X470149Y58855D01*
X469799Y58767D01*
X469424Y58692D01*
X469011Y58643D01*
X468562Y58605D01*
X468074Y58593D01*
X464787D01*
Y53381D01*
X463088D01*
Y66191D01*
X468349D01*
X468487Y66178D01*
D02*
G37*
G36*
X447429Y64678D02*
X443193D01*
Y53381D01*
X441493D01*
Y64678D01*
X437270Y64678D01*
Y66191D01*
X447429Y66191D01*
Y64678D01*
D02*
G37*
G36*
X379622Y53381D02*
X377835D01*
Y55168D01*
X379622D01*
Y53381D01*
D02*
G37*
G36*
X455090Y66403D02*
X455240Y66391D01*
X455427Y66365D01*
X455627Y66340D01*
X455852Y66315D01*
X456102Y66266D01*
X456352Y66203D01*
X456614Y66140D01*
X456889Y66053D01*
X457164Y65966D01*
X457439Y65841D01*
X457714Y65716D01*
X457989Y65566D01*
X458002Y65553D01*
X458052Y65528D01*
X458127Y65478D01*
X458227Y65416D01*
X458339Y65328D01*
X458477Y65216D01*
X458627Y65091D01*
X458801Y64953D01*
X458964Y64791D01*
X459151Y64616D01*
X459326Y64416D01*
X459514Y64204D01*
X459689Y63979D01*
X459851Y63729D01*
X460014Y63466D01*
X460164Y63191D01*
X460176Y63179D01*
X460201Y63129D01*
X460239Y63041D01*
X460276Y62929D01*
X460339Y62779D01*
X460401Y62616D01*
X460463Y62417D01*
X460538Y62192D01*
X460614Y61954D01*
X460676Y61692D01*
X460738Y61404D01*
X460801Y61104D01*
X460838Y60792D01*
X460876Y60467D01*
X460901Y60117D01*
X460913Y59767D01*
Y59742D01*
Y59680D01*
Y59580D01*
X460901Y59442D01*
X460888Y59267D01*
X460876Y59067D01*
X460851Y58842D01*
X460813Y58605D01*
X460776Y58342D01*
X460726Y58055D01*
X460663Y57768D01*
X460576Y57480D01*
X460489Y57168D01*
X460389Y56868D01*
X460264Y56568D01*
X460126Y56281D01*
X460114Y56268D01*
X460089Y56218D01*
X460039Y56131D01*
X459976Y56031D01*
X459901Y55906D01*
X459801Y55756D01*
X459689Y55593D01*
X459551Y55418D01*
X459401Y55231D01*
X459239Y55043D01*
X459051Y54843D01*
X458852Y54656D01*
X458639Y54468D01*
X458402Y54281D01*
X458152Y54119D01*
X457889Y53956D01*
X457877Y53944D01*
X457827Y53919D01*
X457752Y53881D01*
X457639Y53831D01*
X457502Y53769D01*
X457352Y53706D01*
X457164Y53631D01*
X456964Y53569D01*
X456740Y53494D01*
X456502Y53419D01*
X456240Y53356D01*
X455965Y53294D01*
X455690Y53244D01*
X455390Y53206D01*
X455090Y53181D01*
X454777Y53169D01*
X454603D01*
X454478Y53181D01*
X454315Y53194D01*
X454128Y53219D01*
X453928Y53244D01*
X453690Y53281D01*
X453453Y53319D01*
X453190Y53381D01*
X452928Y53444D01*
X452653Y53531D01*
X452366Y53631D01*
X452091Y53744D01*
X451816Y53881D01*
X451541Y54031D01*
X451528Y54044D01*
X451478Y54069D01*
X451403Y54119D01*
X451303Y54194D01*
X451191Y54281D01*
X451054Y54394D01*
X450904Y54518D01*
X450741Y54656D01*
X450566Y54818D01*
X450391Y54993D01*
X450204Y55193D01*
X450029Y55406D01*
X449854Y55631D01*
X449679Y55881D01*
X449529Y56143D01*
X449379Y56418D01*
X449366Y56431D01*
X449354Y56480D01*
X449316Y56568D01*
X449266Y56680D01*
X449216Y56818D01*
X449154Y56980D01*
X449079Y57180D01*
X449016Y57380D01*
X448954Y57618D01*
X448879Y57868D01*
X448816Y58130D01*
X448767Y58405D01*
X448717Y58692D01*
X448692Y58992D01*
X448667Y59305D01*
X448654Y59617D01*
Y59630D01*
Y59655D01*
Y59692D01*
Y59755D01*
X448667Y59830D01*
Y59930D01*
Y60030D01*
X448679Y60142D01*
X448704Y60417D01*
X448741Y60717D01*
X448804Y61067D01*
X448867Y61442D01*
X448954Y61829D01*
X449067Y62242D01*
X449216Y62654D01*
X449379Y63066D01*
X449579Y63479D01*
X449804Y63879D01*
X450066Y64254D01*
X450366Y64603D01*
X450391Y64628D01*
X450441Y64678D01*
X450541Y64766D01*
X450679Y64891D01*
X450841Y65028D01*
X451054Y65178D01*
X451291Y65341D01*
X451566Y65516D01*
X451866Y65678D01*
X452203Y65841D01*
X452566Y65991D01*
X452953Y66128D01*
X453378Y66253D01*
X453828Y66340D01*
X454290Y66391D01*
X454790Y66416D01*
X454965D01*
X455090Y66403D01*
D02*
G37*
G36*
X371436Y66228D02*
X371536Y66216D01*
X371661Y66203D01*
X371786Y66191D01*
X372061Y66140D01*
X372361Y66066D01*
X372673Y65953D01*
X372973Y65816D01*
X372986D01*
X373011Y65791D01*
X373048Y65778D01*
X373111Y65741D01*
X373248Y65641D01*
X373436Y65516D01*
X373636Y65341D01*
X373848Y65141D01*
X374061Y64891D01*
X374261Y64616D01*
Y64603D01*
X374286Y64578D01*
X374311Y64541D01*
X374348Y64478D01*
X374386Y64404D01*
X374436Y64316D01*
X374486Y64204D01*
X374548Y64091D01*
X374610Y63954D01*
X374673Y63816D01*
X374798Y63491D01*
X374935Y63116D01*
X375048Y62716D01*
Y62704D01*
X375060Y62666D01*
X375073Y62604D01*
X375098Y62516D01*
X375123Y62404D01*
X375148Y62267D01*
X375173Y62104D01*
X375198Y61917D01*
X375223Y61717D01*
X375248Y61479D01*
X375273Y61242D01*
X375298Y60967D01*
X375323Y60679D01*
X375335Y60367D01*
X375348Y60042D01*
Y59692D01*
Y59667D01*
Y59592D01*
Y59480D01*
X375335Y59317D01*
Y59130D01*
X375323Y58905D01*
X375310Y58667D01*
X375285Y58393D01*
X375260Y58105D01*
X375235Y57818D01*
X375148Y57205D01*
X375035Y56605D01*
X374960Y56330D01*
X374873Y56056D01*
Y56043D01*
X374848Y55993D01*
X374823Y55918D01*
X374785Y55831D01*
X374735Y55706D01*
X374673Y55581D01*
X374610Y55431D01*
X374523Y55268D01*
X374336Y54931D01*
X374098Y54569D01*
X373811Y54231D01*
X373648Y54069D01*
X373486Y53919D01*
X373473Y53906D01*
X373448Y53881D01*
X373398Y53844D01*
X373323Y53806D01*
X373236Y53744D01*
X373123Y53681D01*
X372998Y53619D01*
X372861Y53544D01*
X372699Y53469D01*
X372524Y53406D01*
X372336Y53344D01*
X372124Y53281D01*
X371911Y53244D01*
X371674Y53206D01*
X371436Y53181D01*
X371174Y53169D01*
X371086D01*
X370999Y53181D01*
X370862Y53194D01*
X370712Y53206D01*
X370524Y53244D01*
X370324Y53281D01*
X370112Y53331D01*
X369887Y53406D01*
X369649Y53494D01*
X369399Y53594D01*
X369162Y53719D01*
X368924Y53869D01*
X368687Y54044D01*
X368462Y54256D01*
X368262Y54481D01*
X368250Y54506D01*
X368212Y54556D01*
X368150Y54656D01*
X368062Y54793D01*
X367975Y54968D01*
X367862Y55181D01*
X367750Y55443D01*
X367637Y55743D01*
X367512Y56081D01*
X367400Y56468D01*
X367287Y56893D01*
X367200Y57355D01*
X367112Y57880D01*
X367050Y58430D01*
X367012Y59042D01*
X367000Y59692D01*
Y59705D01*
Y59717D01*
Y59792D01*
Y59917D01*
X367012Y60067D01*
Y60267D01*
X367025Y60479D01*
X367038Y60729D01*
X367062Y61004D01*
X367088Y61292D01*
X367112Y61592D01*
X367200Y62192D01*
X367312Y62804D01*
X367387Y63079D01*
X367462Y63354D01*
Y63366D01*
X367487Y63416D01*
X367512Y63491D01*
X367550Y63579D01*
X367600Y63704D01*
X367662Y63829D01*
X367725Y63979D01*
X367812Y64141D01*
X368000Y64491D01*
X368237Y64841D01*
X368525Y65178D01*
X368687Y65341D01*
X368849Y65491D01*
X368862Y65503D01*
X368887Y65528D01*
X368950Y65566D01*
X369012Y65603D01*
X369112Y65666D01*
X369212Y65728D01*
X369349Y65791D01*
X369487Y65866D01*
X369649Y65941D01*
X369824Y66003D01*
X370012Y66066D01*
X370224Y66128D01*
X370437Y66165D01*
X370674Y66203D01*
X370911Y66228D01*
X371174Y66241D01*
X371349D01*
X371436Y66228D01*
D02*
G37*
G36*
X169885Y64676D02*
X165161D01*
Y70113D01*
X169885D01*
Y64676D01*
D02*
G37*
G36*
X148253Y60140D02*
X148553D01*
X148928Y60065D01*
X149340Y60027D01*
X149790Y59953D01*
X150765Y59728D01*
X151815Y59390D01*
X152340Y59203D01*
X152865Y58940D01*
X153389Y58678D01*
X153914Y58341D01*
X153952Y58303D01*
X154027Y58266D01*
X154177Y58153D01*
X154364Y58003D01*
X154589Y57816D01*
X154852Y57591D01*
X155151Y57328D01*
X155451Y56991D01*
X155789Y56653D01*
X156126Y56279D01*
X156464Y55829D01*
X156801Y55379D01*
X157138Y54854D01*
X157476Y54329D01*
X158038Y53129D01*
Y53092D01*
X158113Y52979D01*
X158188Y52792D01*
X158263Y52530D01*
X158376Y52229D01*
X158488Y51855D01*
X158601Y51442D01*
X158750Y50955D01*
X158900Y50430D01*
X159013Y49868D01*
X159125Y49268D01*
X159238Y48630D01*
X159388Y47281D01*
X159463Y45819D01*
Y45781D01*
Y45631D01*
Y45406D01*
X159425Y45106D01*
Y44731D01*
X159388Y44282D01*
X159350Y43794D01*
X159275Y43269D01*
X159200Y42670D01*
X159088Y42070D01*
X158826Y40757D01*
X158451Y39408D01*
X157926Y38096D01*
Y38058D01*
X157851Y37946D01*
X157776Y37758D01*
X157626Y37533D01*
X157476Y37233D01*
X157288Y36934D01*
X156801Y36146D01*
X156164Y35321D01*
X155414Y34459D01*
X154514Y33597D01*
X153464Y32847D01*
X153427Y32810D01*
X153352Y32772D01*
X153164Y32697D01*
X152977Y32585D01*
X152677Y32435D01*
X152377Y32285D01*
X152002Y32135D01*
X151590Y31947D01*
X151140Y31797D01*
X150690Y31610D01*
X149640Y31347D01*
X148516Y31122D01*
X147916Y31085D01*
X147316Y31047D01*
X146903D01*
X146716Y31085D01*
X146454D01*
X145891Y31160D01*
X145254Y31272D01*
X144542Y31460D01*
X143792Y31685D01*
X143080Y32022D01*
X143042D01*
X143005Y32060D01*
X142780Y32210D01*
X142442Y32397D01*
X141992Y32697D01*
X141505Y33072D01*
X140980Y33484D01*
X140493Y33972D01*
X140005Y34534D01*
Y21000D01*
X135281Y21000D01*
Y59540D01*
X139593Y59540D01*
Y55941D01*
X139668Y56016D01*
X139743Y56091D01*
X139855Y56241D01*
X140155Y56653D01*
X140568Y57103D01*
X141093Y57628D01*
X141655Y58153D01*
X142292Y58640D01*
X143005Y59090D01*
X143042D01*
X143080Y59128D01*
X143192Y59203D01*
X143342Y59278D01*
X143529Y59353D01*
X143754Y59428D01*
X144317Y59653D01*
X144992Y59840D01*
X145779Y60027D01*
X146679Y60140D01*
X147653Y60177D01*
X147991D01*
X148253Y60140D01*
D02*
G37*
G36*
X190767D02*
X191030D01*
X191667Y60065D01*
X192379Y59953D01*
X193129Y59765D01*
X193954Y59540D01*
X194741Y59240D01*
X194779D01*
X194816Y59203D01*
X194929Y59165D01*
X195079Y59090D01*
X195454Y58865D01*
X195941Y58603D01*
X196428Y58266D01*
X196953Y57853D01*
X197441Y57403D01*
X197890Y56878D01*
X197928Y56803D01*
X198078Y56616D01*
X198265Y56316D01*
X198490Y55904D01*
X198715Y55379D01*
X198978Y54779D01*
X199203Y54142D01*
X199390Y53392D01*
Y53317D01*
X199428Y53129D01*
X199465Y52792D01*
X199503Y52567D01*
X199540Y52342D01*
Y52042D01*
X199578Y51705D01*
Y51330D01*
X199615Y50880D01*
Y50430D01*
X199653Y49943D01*
Y49380D01*
Y48780D01*
Y31685D01*
X194929D01*
Y48630D01*
Y48668D01*
Y48743D01*
Y48893D01*
Y49118D01*
Y49343D01*
X194891Y49605D01*
X194854Y50243D01*
X194779Y50955D01*
X194704Y51667D01*
X194554Y52342D01*
X194366Y52942D01*
X194329Y53017D01*
X194254Y53167D01*
X194104Y53429D01*
X193916Y53767D01*
X193654Y54142D01*
X193317Y54517D01*
X192904Y54891D01*
X192417Y55229D01*
X192342Y55266D01*
X192154Y55379D01*
X191892Y55491D01*
X191480Y55679D01*
X190992Y55829D01*
X190430Y55941D01*
X189792Y56054D01*
X189118Y56091D01*
X188818D01*
X188630Y56054D01*
X188368Y56016D01*
X188068Y55979D01*
X187356Y55866D01*
X186531Y55604D01*
X185669Y55266D01*
X185219Y55041D01*
X184806Y54779D01*
X184356Y54479D01*
X183944Y54142D01*
X183906Y54104D01*
X183869Y54067D01*
X183757Y53917D01*
X183607Y53767D01*
X183457Y53542D01*
X183269Y53242D01*
X183044Y52904D01*
X182857Y52530D01*
X182669Y52080D01*
X182444Y51555D01*
X182257Y50955D01*
X182107Y50280D01*
X181957Y49568D01*
X181882Y48743D01*
X181807Y47881D01*
X181770Y46906D01*
Y31685D01*
X177046D01*
Y59540D01*
X181282D01*
Y55566D01*
X181320Y55604D01*
X181432Y55754D01*
X181620Y55979D01*
X181845Y56279D01*
X182182Y56653D01*
X182557Y57028D01*
X183007Y57441D01*
X183532Y57891D01*
X184132Y58303D01*
X184769Y58715D01*
X185519Y59128D01*
X186306Y59465D01*
X187168Y59765D01*
X188068Y59990D01*
X189080Y60140D01*
X190130Y60177D01*
X190542D01*
X190767Y60140D01*
D02*
G37*
G36*
X169885Y31685D02*
X165161D01*
Y59540D01*
X169885D01*
Y31685D01*
D02*
G37*
G36*
X109076Y45181D02*
X114249D01*
Y40870D01*
X109076D01*
Y31685D01*
X104352D01*
Y40870D01*
X87669D01*
Y45181D01*
X105214Y70112D01*
X109076D01*
Y45181D01*
D02*
G37*
G36*
X77134Y31685D02*
X72410D01*
Y61715D01*
X72373D01*
X72335Y61640D01*
X72223Y61565D01*
X72110Y61452D01*
X71735Y61115D01*
X71210Y60702D01*
X70573Y60215D01*
X69786Y59653D01*
X68886Y59053D01*
X67911Y58453D01*
X67874D01*
X67799Y58378D01*
X67649Y58303D01*
X67461Y58190D01*
X67199Y58040D01*
X66936Y57891D01*
X66262Y57553D01*
X65512Y57178D01*
X64687Y56766D01*
X63825Y56391D01*
X63000Y56054D01*
Y60590D01*
X63038Y60627D01*
X63187Y60665D01*
X63375Y60777D01*
X63675Y60927D01*
X64012Y61115D01*
X64387Y61340D01*
X64837Y61565D01*
X65324Y61865D01*
X66412Y62502D01*
X67574Y63289D01*
X68736Y64152D01*
X69898Y65089D01*
X69936Y65126D01*
X70011Y65201D01*
X70198Y65351D01*
X70386Y65539D01*
X70611Y65801D01*
X70911Y66063D01*
X71210Y66401D01*
X71548Y66738D01*
X72223Y67526D01*
X72898Y68388D01*
X73535Y69325D01*
X73835Y69775D01*
X74060Y70262D01*
X77134D01*
Y31685D01*
D02*
G37*
G36*
X238533Y48000D02*
X237353D01*
Y55507D01*
X237343D01*
X237334Y55489D01*
X237306Y55470D01*
X237278Y55442D01*
X237184Y55357D01*
X237053Y55254D01*
X236893Y55133D01*
X236696Y54992D01*
X236472Y54842D01*
X236228Y54692D01*
X236218D01*
X236200Y54673D01*
X236162Y54655D01*
X236115Y54626D01*
X236050Y54589D01*
X235984Y54552D01*
X235815Y54467D01*
X235628Y54373D01*
X235422Y54270D01*
X235206Y54177D01*
X235000Y54092D01*
Y55226D01*
X235009Y55236D01*
X235047Y55245D01*
X235094Y55273D01*
X235169Y55311D01*
X235253Y55357D01*
X235347Y55414D01*
X235459Y55470D01*
X235581Y55545D01*
X235853Y55704D01*
X236143Y55901D01*
X236434Y56117D01*
X236725Y56351D01*
X236734Y56360D01*
X236753Y56379D01*
X236800Y56417D01*
X236846Y56463D01*
X236903Y56529D01*
X236978Y56595D01*
X237053Y56679D01*
X237137Y56763D01*
X237306Y56960D01*
X237474Y57176D01*
X237634Y57410D01*
X237709Y57523D01*
X237765Y57644D01*
X238533D01*
Y48000D01*
D02*
G37*
G36*
X194034Y176090D02*
X192852D01*
Y183597D01*
X192843D01*
X192834Y183578D01*
X192806Y183560D01*
X192778Y183531D01*
X192684Y183447D01*
X192553Y183344D01*
X192393Y183222D01*
X192196Y183082D01*
X191971Y182932D01*
X191728Y182782D01*
X191718D01*
X191700Y182763D01*
X191662Y182744D01*
X191615Y182716D01*
X191550Y182679D01*
X191484Y182641D01*
X191315Y182557D01*
X191128Y182463D01*
X190922Y182360D01*
X190706Y182266D01*
X190500Y182182D01*
Y183316D01*
X190509Y183325D01*
X190547Y183335D01*
X190594Y183363D01*
X190669Y183400D01*
X190753Y183447D01*
X190847Y183503D01*
X190959Y183560D01*
X191081Y183635D01*
X191353Y183794D01*
X191644Y183991D01*
X191934Y184206D01*
X192225Y184441D01*
X192234Y184450D01*
X192253Y184469D01*
X192299Y184506D01*
X192346Y184553D01*
X192403Y184619D01*
X192478Y184684D01*
X192553Y184769D01*
X192637Y184853D01*
X192806Y185050D01*
X192974Y185266D01*
X193134Y185500D01*
X193209Y185612D01*
X193265Y185734D01*
X194034D01*
Y176090D01*
D02*
G37*
%LPC*%
G36*
X349122Y243004D02*
X346104Y238664D01*
X349122D01*
Y243004D01*
D02*
G37*
G36*
X296587Y244119D02*
X296512D01*
X296456Y244110D01*
X296381Y244100D01*
X296306Y244081D01*
X296119Y244035D01*
X296016Y243997D01*
X295912Y243950D01*
X295800Y243894D01*
X295697Y243828D01*
X295584Y243744D01*
X295481Y243650D01*
X295378Y243547D01*
X295285Y243425D01*
X295275Y243416D01*
X295256Y243388D01*
X295228Y243332D01*
X295191Y243247D01*
X295144Y243154D01*
X295097Y243022D01*
X295041Y242872D01*
X294985Y242694D01*
X294928Y242479D01*
X294872Y242244D01*
X294825Y241982D01*
X294778Y241682D01*
X294741Y241363D01*
X294713Y240998D01*
X294694Y240604D01*
X294685Y240182D01*
Y240173D01*
Y240154D01*
Y240126D01*
Y240079D01*
Y240023D01*
Y239958D01*
X294694Y239883D01*
Y239798D01*
X294703Y239611D01*
X294713Y239395D01*
X294732Y239151D01*
X294750Y238899D01*
X294816Y238374D01*
X294863Y238111D01*
X294919Y237858D01*
X294985Y237614D01*
X295060Y237390D01*
X295144Y237193D01*
X295238Y237033D01*
X295247Y237024D01*
X295266Y236996D01*
X295294Y236958D01*
X295341Y236912D01*
X295388Y236855D01*
X295453Y236790D01*
X295528Y236715D01*
X295613Y236649D01*
X295716Y236574D01*
X295819Y236499D01*
X296053Y236377D01*
X296175Y236330D01*
X296315Y236293D01*
X296456Y236265D01*
X296606Y236255D01*
X296644D01*
X296681Y236265D01*
X296737D01*
X296812Y236283D01*
X296887Y236293D01*
X296981Y236321D01*
X297075Y236349D01*
X297187Y236396D01*
X297290Y236443D01*
X297403Y236508D01*
X297515Y236583D01*
X297637Y236677D01*
X297750Y236780D01*
X297862Y236893D01*
X297965Y237033D01*
X297974Y237043D01*
X297993Y237071D01*
X298021Y237118D01*
X298049Y237193D01*
X298096Y237286D01*
X298143Y237408D01*
X298190Y237549D01*
X298246Y237727D01*
X298302Y237924D01*
X298349Y238149D01*
X298396Y238402D01*
X298443Y238692D01*
X298471Y239011D01*
X298499Y239367D01*
X298518Y239761D01*
X298527Y240182D01*
Y240192D01*
Y240211D01*
Y240239D01*
Y240286D01*
Y240342D01*
Y240407D01*
X298518Y240482D01*
Y240567D01*
X298509Y240754D01*
X298499Y240970D01*
X298481Y241213D01*
X298462Y241467D01*
X298396Y241991D01*
X298349Y242254D01*
X298293Y242516D01*
X298228Y242751D01*
X298162Y242976D01*
X298068Y243172D01*
X297974Y243332D01*
X297965Y243341D01*
X297946Y243369D01*
X297918Y243407D01*
X297871Y243454D01*
X297824Y243519D01*
X297759Y243585D01*
X297684Y243650D01*
X297590Y243725D01*
X297496Y243800D01*
X297393Y243866D01*
X297159Y243997D01*
X297028Y244044D01*
X296887Y244081D01*
X296737Y244110D01*
X296587Y244119D01*
D02*
G37*
G36*
X295659Y184759D02*
X295584D01*
X295527Y184750D01*
X295462Y184741D01*
X295377Y184722D01*
X295293Y184703D01*
X295190Y184675D01*
X295087Y184647D01*
X294974Y184600D01*
X294862Y184553D01*
X294749Y184487D01*
X294637Y184413D01*
X294515Y184328D01*
X294403Y184225D01*
X294290Y184113D01*
X294281Y184103D01*
X294262Y184084D01*
X294234Y184047D01*
X294196Y184000D01*
X294159Y183935D01*
X294103Y183860D01*
X294056Y183766D01*
X294000Y183663D01*
X293943Y183550D01*
X293897Y183428D01*
X293840Y183288D01*
X293803Y183147D01*
X293765Y182988D01*
X293737Y182819D01*
X293718Y182641D01*
X293709Y182454D01*
Y182444D01*
Y182416D01*
Y182369D01*
X293718Y182304D01*
X293728Y182219D01*
X293737Y182135D01*
X293756Y182032D01*
X293775Y181919D01*
X293840Y181685D01*
X293887Y181563D01*
X293943Y181441D01*
X294000Y181310D01*
X294075Y181188D01*
X294159Y181076D01*
X294253Y180963D01*
X294262Y180954D01*
X294281Y180935D01*
X294309Y180907D01*
X294356Y180879D01*
X294403Y180832D01*
X294468Y180785D01*
X294543Y180729D01*
X294628Y180682D01*
X294731Y180626D01*
X294834Y180570D01*
X295068Y180485D01*
X295190Y180448D01*
X295331Y180420D01*
X295471Y180401D01*
X295621Y180392D01*
X295705D01*
X295762Y180401D01*
X295827Y180410D01*
X295912Y180420D01*
X296005Y180439D01*
X296099Y180467D01*
X296315Y180532D01*
X296427Y180579D01*
X296540Y180635D01*
X296652Y180701D01*
X296765Y180776D01*
X296868Y180860D01*
X296971Y180963D01*
X296980Y180973D01*
X296989Y180992D01*
X297018Y181020D01*
X297055Y181066D01*
X297093Y181123D01*
X297139Y181198D01*
X297186Y181282D01*
X297243Y181376D01*
X297289Y181479D01*
X297336Y181601D01*
X297383Y181732D01*
X297421Y181873D01*
X297458Y182022D01*
X297486Y182191D01*
X297496Y182360D01*
X297505Y182547D01*
Y182557D01*
Y182594D01*
Y182641D01*
X297496Y182716D01*
X297486Y182801D01*
X297477Y182904D01*
X297458Y183007D01*
X297439Y183129D01*
X297374Y183382D01*
X297327Y183522D01*
X297280Y183653D01*
X297214Y183785D01*
X297139Y183916D01*
X297055Y184047D01*
X296961Y184160D01*
X296952Y184169D01*
X296933Y184188D01*
X296905Y184216D01*
X296868Y184253D01*
X296811Y184300D01*
X296755Y184347D01*
X296680Y184403D01*
X296596Y184459D01*
X296408Y184572D01*
X296183Y184666D01*
X296062Y184703D01*
X295940Y184731D01*
X295799Y184750D01*
X295659Y184759D01*
D02*
G37*
G36*
X267083Y244128D02*
X267017D01*
X266971Y244119D01*
X266914D01*
X266839Y244110D01*
X266689Y244072D01*
X266511Y244025D01*
X266324Y243941D01*
X266136Y243838D01*
X266043Y243763D01*
X265958Y243688D01*
Y243678D01*
X265940Y243669D01*
X265893Y243613D01*
X265818Y243519D01*
X265743Y243397D01*
X265658Y243247D01*
X265583Y243069D01*
X265536Y242872D01*
X265527Y242769D01*
X265518Y242657D01*
Y242647D01*
Y242629D01*
Y242591D01*
X265527Y242544D01*
Y242488D01*
X265536Y242423D01*
X265574Y242263D01*
X265621Y242085D01*
X265696Y241898D01*
X265808Y241710D01*
X265874Y241626D01*
X265949Y241542D01*
X265958D01*
X265968Y241523D01*
X265996Y241504D01*
X266033Y241476D01*
X266127Y241401D01*
X266258Y241326D01*
X266418Y241251D01*
X266614Y241176D01*
X266839Y241129D01*
X266961Y241120D01*
X267092Y241110D01*
X267158D01*
X267205Y241120D01*
X267261D01*
X267336Y241129D01*
X267486Y241167D01*
X267664Y241213D01*
X267852Y241289D01*
X268039Y241392D01*
X268123Y241457D01*
X268208Y241532D01*
X268217Y241542D01*
X268226Y241551D01*
X268245Y241579D01*
X268273Y241607D01*
X268348Y241701D01*
X268433Y241823D01*
X268508Y241982D01*
X268582Y242160D01*
X268629Y242366D01*
X268648Y242479D01*
Y242591D01*
Y242601D01*
Y242619D01*
Y242657D01*
X268639Y242704D01*
Y242751D01*
X268629Y242816D01*
X268592Y242966D01*
X268536Y243144D01*
X268461Y243322D01*
X268348Y243510D01*
X268273Y243594D01*
X268198Y243678D01*
X268189Y243688D01*
X268179Y243697D01*
X268151Y243716D01*
X268114Y243754D01*
X268020Y243819D01*
X267889Y243903D01*
X267730Y243988D01*
X267542Y244063D01*
X267327Y244110D01*
X267205Y244119D01*
X267083Y244128D01*
D02*
G37*
G36*
X267055Y240145D02*
X266971D01*
X266914Y240136D01*
X266849Y240126D01*
X266764Y240117D01*
X266670Y240098D01*
X266567Y240079D01*
X266352Y240014D01*
X266239Y239967D01*
X266118Y239911D01*
X266005Y239845D01*
X265893Y239779D01*
X265780Y239686D01*
X265677Y239592D01*
X265668Y239583D01*
X265658Y239564D01*
X265630Y239536D01*
X265593Y239489D01*
X265555Y239442D01*
X265508Y239377D01*
X265452Y239301D01*
X265405Y239217D01*
X265358Y239114D01*
X265302Y239011D01*
X265218Y238777D01*
X265180Y238645D01*
X265161Y238514D01*
X265143Y238364D01*
X265133Y238214D01*
Y238205D01*
Y238195D01*
Y238167D01*
Y238130D01*
X265143Y238027D01*
X265161Y237905D01*
X265190Y237755D01*
X265236Y237586D01*
X265293Y237418D01*
X265368Y237239D01*
Y237230D01*
X265377Y237221D01*
X265415Y237164D01*
X265471Y237080D01*
X265546Y236977D01*
X265640Y236855D01*
X265761Y236733D01*
X265902Y236611D01*
X266071Y236508D01*
X266080D01*
X266089Y236499D01*
X266118Y236490D01*
X266155Y236471D01*
X266249Y236424D01*
X266380Y236387D01*
X266530Y236340D01*
X266708Y236293D01*
X266896Y236265D01*
X267092Y236255D01*
X267177D01*
X267233Y236265D01*
X267308Y236274D01*
X267392Y236283D01*
X267486Y236302D01*
X267589Y236321D01*
X267805Y236387D01*
X267927Y236434D01*
X268039Y236480D01*
X268161Y236546D01*
X268273Y236611D01*
X268386Y236696D01*
X268489Y236790D01*
X268498Y236799D01*
X268517Y236818D01*
X268536Y236846D01*
X268573Y236893D01*
X268620Y236940D01*
X268667Y237005D01*
X268714Y237080D01*
X268770Y237164D01*
X268817Y237258D01*
X268864Y237371D01*
X268958Y237605D01*
X268995Y237736D01*
X269014Y237877D01*
X269032Y238027D01*
X269042Y238177D01*
Y238186D01*
Y238214D01*
Y238261D01*
X269032Y238317D01*
X269023Y238392D01*
X269014Y238477D01*
X268995Y238570D01*
X268967Y238673D01*
X268901Y238899D01*
X268854Y239011D01*
X268798Y239133D01*
X268732Y239245D01*
X268657Y239367D01*
X268573Y239480D01*
X268470Y239583D01*
X268461Y239592D01*
X268442Y239611D01*
X268414Y239639D01*
X268367Y239667D01*
X268311Y239714D01*
X268245Y239761D01*
X268170Y239808D01*
X268086Y239864D01*
X267983Y239920D01*
X267880Y239967D01*
X267636Y240061D01*
X267505Y240089D01*
X267364Y240117D01*
X267214Y240136D01*
X267055Y240145D01*
D02*
G37*
G36*
X242600Y240642D02*
X242525D01*
X242469Y240632D01*
X242403Y240623D01*
X242319Y240614D01*
X242234Y240595D01*
X242131Y240567D01*
X241925Y240501D01*
X241813Y240454D01*
X241691Y240398D01*
X241578Y240333D01*
X241466Y240248D01*
X241353Y240164D01*
X241250Y240061D01*
X241241Y240051D01*
X241222Y240033D01*
X241203Y240004D01*
X241166Y239958D01*
X241119Y239901D01*
X241072Y239836D01*
X241026Y239751D01*
X240979Y239658D01*
X240922Y239555D01*
X240875Y239442D01*
X240829Y239320D01*
X240782Y239189D01*
X240744Y239048D01*
X240725Y238889D01*
X240707Y238730D01*
X240697Y238561D01*
Y238552D01*
Y238533D01*
Y238505D01*
Y238458D01*
X240707Y238402D01*
Y238336D01*
X240725Y238186D01*
X240763Y238008D01*
X240800Y237811D01*
X240866Y237605D01*
X240951Y237390D01*
Y237380D01*
X240960Y237361D01*
X240979Y237333D01*
X240997Y237296D01*
X241054Y237202D01*
X241138Y237080D01*
X241241Y236940D01*
X241363Y236799D01*
X241513Y236668D01*
X241672Y236546D01*
X241681D01*
X241691Y236537D01*
X241719Y236518D01*
X241756Y236499D01*
X241841Y236452D01*
X241963Y236405D01*
X242113Y236349D01*
X242281Y236302D01*
X242460Y236265D01*
X242647Y236255D01*
X242722D01*
X242769Y236265D01*
X242834Y236274D01*
X242909Y236283D01*
X243087Y236330D01*
X243294Y236405D01*
X243397Y236452D01*
X243509Y236508D01*
X243612Y236574D01*
X243725Y236658D01*
X243828Y236752D01*
X243931Y236855D01*
X243940Y236865D01*
X243959Y236883D01*
X243978Y236921D01*
X244015Y236968D01*
X244053Y237024D01*
X244100Y237099D01*
X244156Y237183D01*
X244203Y237286D01*
X244250Y237399D01*
X244306Y237521D01*
X244353Y237652D01*
X244390Y237802D01*
X244428Y237961D01*
X244456Y238130D01*
X244465Y238308D01*
X244475Y238495D01*
Y238505D01*
Y238542D01*
Y238589D01*
X244465Y238664D01*
X244456Y238739D01*
X244447Y238842D01*
X244428Y238945D01*
X244409Y239067D01*
X244343Y239311D01*
X244306Y239442D01*
X244250Y239573D01*
X244184Y239704D01*
X244118Y239826D01*
X244034Y239948D01*
X243940Y240061D01*
X243931Y240070D01*
X243912Y240089D01*
X243884Y240117D01*
X243847Y240154D01*
X243790Y240192D01*
X243734Y240248D01*
X243659Y240295D01*
X243575Y240351D01*
X243481Y240407D01*
X243387Y240454D01*
X243153Y240548D01*
X243031Y240585D01*
X242891Y240614D01*
X242750Y240632D01*
X242600Y240642D01*
D02*
G37*
G36*
X327309Y149312D02*
X321059Y148999D01*
X320746D01*
X320434Y148687D01*
X320121Y148375D01*
Y132750D01*
X320434Y132437D01*
X327934D01*
X329809Y132750D01*
X331684Y133375D01*
X333871Y134937D01*
X334184Y135562D01*
X335121Y136812D01*
X336059Y138687D01*
X336371Y141187D01*
Y141500D01*
Y141812D01*
X336059Y143062D01*
X335434Y144937D01*
X333871Y146812D01*
X333559Y147125D01*
X331996Y148062D01*
X330121Y148999D01*
X327309Y149312D01*
D02*
G37*
G36*
X223873D02*
X216998Y148999D01*
X216685D01*
X216373Y148687D01*
X216060Y148375D01*
Y132750D01*
X216373D01*
X216685Y132437D01*
X224498D01*
X226060Y132750D01*
X227935Y133375D01*
X229810Y134937D01*
X230123Y135562D01*
X231060Y136812D01*
X231998Y138687D01*
X232310Y141187D01*
Y141500D01*
Y141812D01*
X231998Y143062D01*
X231373Y144937D01*
X229810Y146812D01*
X229498Y147125D01*
X228248Y148062D01*
X226373Y148999D01*
X223873Y149312D01*
D02*
G37*
G36*
X425745Y147125D02*
X425433D01*
X425120Y146500D01*
X420120Y125875D01*
Y125562D01*
X420433Y125250D01*
X420745Y124937D01*
X430433D01*
X430745Y125250D01*
X430433Y125875D01*
X426058Y146500D01*
Y146812D01*
X425745Y147125D01*
D02*
G37*
G36*
X305338Y55714D02*
X302320Y51374D01*
X305338D01*
Y55714D01*
D02*
G37*
G36*
X217139Y243004D02*
X214121Y238664D01*
X217139D01*
Y243004D01*
D02*
G37*
G36*
X441456Y45510D02*
X438657Y45510D01*
Y41636D01*
X441693Y41636D01*
X441806Y41648D01*
X442043D01*
X442306Y41673D01*
X442568Y41698D01*
X442818Y41723D01*
X442930Y41748D01*
X443031Y41773D01*
X443043D01*
X443055Y41785D01*
X443130Y41810D01*
X443256Y41860D01*
X443393Y41923D01*
X443543Y42023D01*
X443705Y42123D01*
X443855Y42260D01*
X443993Y42410D01*
X444005Y42435D01*
X444043Y42498D01*
X444105Y42585D01*
X444168Y42723D01*
X444218Y42885D01*
X444280Y43073D01*
X444318Y43298D01*
X444330Y43535D01*
Y43548D01*
Y43560D01*
Y43598D01*
Y43648D01*
X444318Y43760D01*
X444293Y43910D01*
X444255Y44085D01*
X444193Y44285D01*
X444118Y44472D01*
X444018Y44660D01*
X444005Y44685D01*
X443968Y44735D01*
X443893Y44822D01*
X443793Y44922D01*
X443668Y45035D01*
X443518Y45147D01*
X443343Y45247D01*
X443143Y45322D01*
X443130D01*
X443118Y45335D01*
X443080D01*
X443031Y45347D01*
X442968Y45372D01*
X442893Y45385D01*
X442806Y45397D01*
X442693Y45422D01*
X442568Y45435D01*
X442418Y45447D01*
X442268Y45472D01*
X442093Y45485D01*
X441893Y45497D01*
X441681D01*
X441456Y45510D01*
D02*
G37*
G36*
X441831Y40124D02*
X438657Y40123D01*
Y35725D01*
X442118Y35725D01*
X442293Y35737D01*
X442481D01*
X442681Y35750D01*
X442856Y35762D01*
X442993Y35775D01*
X443018D01*
X443093Y35800D01*
X443205Y35825D01*
X443330Y35862D01*
X443493Y35912D01*
X443655Y35975D01*
X443818Y36037D01*
X443968Y36124D01*
X443980Y36137D01*
X444030Y36174D01*
X444105Y36225D01*
X444205Y36312D01*
X444305Y36412D01*
X444405Y36537D01*
X444518Y36674D01*
X444618Y36837D01*
X444630Y36862D01*
X444655Y36924D01*
X444705Y37024D01*
X444755Y37149D01*
X444793Y37312D01*
X444842Y37499D01*
X444868Y37699D01*
X444880Y37924D01*
Y37936D01*
Y37961D01*
Y37999D01*
Y38049D01*
X444855Y38174D01*
X444830Y38349D01*
X444780Y38536D01*
X444718Y38749D01*
X444618Y38961D01*
X444493Y39161D01*
X444480Y39186D01*
X444430Y39249D01*
X444343Y39336D01*
X444230Y39449D01*
X444080Y39574D01*
X443905Y39699D01*
X443693Y39811D01*
X443468Y39899D01*
X443455D01*
X443443Y39911D01*
X443405Y39924D01*
X443355Y39936D01*
X443280Y39948D01*
X443205Y39973D01*
X443106Y39986D01*
X442993Y40011D01*
X442868Y40036D01*
X442731Y40048D01*
X442581Y40073D01*
X442418Y40086D01*
X442231Y40099D01*
X442043Y40111D01*
X441831Y40124D01*
D02*
G37*
G36*
X454578Y45785D02*
X454503D01*
X454403Y45772D01*
X454278Y45760D01*
X454115Y45747D01*
X453940Y45722D01*
X453740Y45684D01*
X453515Y45635D01*
X453278Y45560D01*
X453028Y45485D01*
X452778Y45385D01*
X452516Y45260D01*
X452253Y45122D01*
X451991Y44960D01*
X451728Y44760D01*
X451478Y44547D01*
X451466Y44535D01*
X451428Y44485D01*
X451366Y44410D01*
X451278Y44310D01*
X451178Y44172D01*
X451066Y44010D01*
X450953Y43797D01*
X450841Y43573D01*
X450716Y43298D01*
X450604Y42998D01*
X450491Y42660D01*
X450391Y42285D01*
X450316Y41873D01*
X450241Y41436D01*
X450204Y40948D01*
X450191Y40423D01*
Y40411D01*
Y40398D01*
Y40323D01*
X450204Y40198D01*
X450216Y40036D01*
X450229Y39848D01*
X450254Y39624D01*
X450291Y39374D01*
X450341Y39099D01*
X450416Y38811D01*
X450491Y38511D01*
X450591Y38212D01*
X450716Y37912D01*
X450854Y37612D01*
X451016Y37312D01*
X451216Y37037D01*
X451428Y36774D01*
X451441Y36762D01*
X451491Y36712D01*
X451553Y36649D01*
X451653Y36562D01*
X451778Y36462D01*
X451928Y36349D01*
X452091Y36237D01*
X452291Y36112D01*
X452503Y35987D01*
X452741Y35875D01*
X453003Y35762D01*
X453278Y35662D01*
X453565Y35575D01*
X453878Y35512D01*
X454215Y35462D01*
X454553Y35450D01*
X454640D01*
X454740Y35462D01*
X454878Y35475D01*
X455040Y35487D01*
X455227Y35525D01*
X455440Y35562D01*
X455665Y35612D01*
X455915Y35687D01*
X456165Y35775D01*
X456427Y35887D01*
X456702Y36012D01*
X456964Y36162D01*
X457227Y36349D01*
X457477Y36549D01*
X457714Y36787D01*
X457727Y36799D01*
X457764Y36849D01*
X457827Y36924D01*
X457914Y37037D01*
X458002Y37174D01*
X458102Y37349D01*
X458214Y37537D01*
X458339Y37774D01*
X458452Y38024D01*
X458564Y38311D01*
X458664Y38624D01*
X458764Y38961D01*
X458839Y39336D01*
X458901Y39724D01*
X458939Y40149D01*
X458951Y40598D01*
Y40611D01*
Y40673D01*
Y40748D01*
X458939Y40861D01*
Y40998D01*
X458926Y41148D01*
X458901Y41336D01*
X458889Y41523D01*
X458852Y41736D01*
X458826Y41948D01*
X458727Y42410D01*
X458589Y42873D01*
X458514Y43098D01*
X458414Y43323D01*
Y43335D01*
X458389Y43373D01*
X458364Y43435D01*
X458314Y43523D01*
X458264Y43610D01*
X458189Y43723D01*
X458027Y43985D01*
X457802Y44285D01*
X457539Y44585D01*
X457227Y44872D01*
X457052Y45010D01*
X456865Y45135D01*
X456852Y45147D01*
X456814Y45160D01*
X456764Y45197D01*
X456689Y45235D01*
X456590Y45285D01*
X456477Y45335D01*
X456352Y45397D01*
X456202Y45460D01*
X456040Y45522D01*
X455865Y45585D01*
X455677Y45635D01*
X455477Y45684D01*
X455040Y45760D01*
X454815Y45772D01*
X454578Y45785D01*
D02*
G37*
G36*
X384858Y45772D02*
X384758D01*
X384683Y45760D01*
X384583Y45747D01*
X384483Y45722D01*
X384233Y45659D01*
X384096Y45609D01*
X383958Y45547D01*
X383808Y45472D01*
X383671Y45385D01*
X383521Y45272D01*
X383383Y45147D01*
X383246Y45010D01*
X383121Y44847D01*
X383108Y44835D01*
X383083Y44797D01*
X383046Y44722D01*
X382996Y44610D01*
X382933Y44485D01*
X382871Y44310D01*
X382796Y44110D01*
X382721Y43872D01*
X382646Y43585D01*
X382571Y43273D01*
X382509Y42923D01*
X382446Y42523D01*
X382396Y42098D01*
X382359Y41611D01*
X382334Y41086D01*
X382321Y40523D01*
Y40511D01*
Y40486D01*
Y40448D01*
Y40386D01*
Y40311D01*
Y40223D01*
X382334Y40123D01*
Y40011D01*
X382346Y39761D01*
X382359Y39474D01*
X382383Y39149D01*
X382408Y38811D01*
X382496Y38112D01*
X382559Y37761D01*
X382634Y37424D01*
X382721Y37099D01*
X382821Y36799D01*
X382933Y36537D01*
X383058Y36324D01*
X383071Y36312D01*
X383096Y36274D01*
X383133Y36224D01*
X383196Y36162D01*
X383258Y36087D01*
X383346Y36000D01*
X383446Y35900D01*
X383558Y35812D01*
X383696Y35712D01*
X383833Y35612D01*
X384146Y35450D01*
X384308Y35387D01*
X384496Y35337D01*
X384683Y35300D01*
X384883Y35287D01*
X384933D01*
X384983Y35300D01*
X385058D01*
X385158Y35325D01*
X385258Y35337D01*
X385383Y35375D01*
X385508Y35412D01*
X385658Y35475D01*
X385795Y35537D01*
X385945Y35625D01*
X386095Y35725D01*
X386258Y35849D01*
X386408Y35987D01*
X386558Y36137D01*
X386695Y36324D01*
X386707Y36337D01*
X386732Y36374D01*
X386770Y36437D01*
X386807Y36537D01*
X386870Y36662D01*
X386932Y36824D01*
X386995Y37012D01*
X387070Y37249D01*
X387145Y37512D01*
X387207Y37812D01*
X387270Y38149D01*
X387332Y38536D01*
X387370Y38961D01*
X387407Y39436D01*
X387432Y39961D01*
X387445Y40523D01*
Y40536D01*
Y40561D01*
Y40598D01*
Y40661D01*
Y40736D01*
Y40823D01*
X387432Y40923D01*
Y41036D01*
X387420Y41286D01*
X387407Y41573D01*
X387382Y41898D01*
X387357Y42235D01*
X387270Y42935D01*
X387207Y43285D01*
X387132Y43635D01*
X387045Y43948D01*
X386957Y44247D01*
X386832Y44510D01*
X386707Y44722D01*
X386695Y44735D01*
X386670Y44772D01*
X386632Y44822D01*
X386570Y44885D01*
X386507Y44972D01*
X386420Y45060D01*
X386320Y45147D01*
X386195Y45247D01*
X386070Y45347D01*
X385933Y45435D01*
X385620Y45609D01*
X385445Y45672D01*
X385258Y45722D01*
X385058Y45760D01*
X384858Y45772D01*
D02*
G37*
G36*
X468461Y64678D02*
X464787D01*
Y60105D01*
X468249D01*
X468362Y60117D01*
X468499D01*
X468649Y60142D01*
X468824Y60155D01*
X468999Y60180D01*
X469386Y60255D01*
X469774Y60354D01*
X469949Y60430D01*
X470124Y60504D01*
X470286Y60605D01*
X470424Y60704D01*
X470436Y60717D01*
X470448Y60729D01*
X470486Y60767D01*
X470536Y60817D01*
X470586Y60879D01*
X470648Y60954D01*
X470711Y61042D01*
X470773Y61154D01*
X470836Y61267D01*
X470898Y61392D01*
X470961Y61542D01*
X471011Y61692D01*
X471098Y62042D01*
X471111Y62229D01*
X471123Y62429D01*
Y62442D01*
Y62467D01*
Y62504D01*
Y62566D01*
X471111Y62629D01*
X471098Y62716D01*
X471073Y62904D01*
X471023Y63116D01*
X470948Y63341D01*
X470848Y63579D01*
X470711Y63804D01*
Y63816D01*
X470698Y63829D01*
X470636Y63891D01*
X470549Y63991D01*
X470424Y64116D01*
X470274Y64241D01*
X470086Y64366D01*
X469874Y64466D01*
X469636Y64553D01*
X469611D01*
X469549Y64578D01*
X469499D01*
X469436Y64591D01*
X469361Y64603D01*
X469286Y64616D01*
X469174Y64628D01*
X469061Y64641D01*
X468936Y64653D01*
X468799D01*
X468637Y64666D01*
X468461Y64678D01*
D02*
G37*
G36*
X454790Y64953D02*
X454715D01*
X454615Y64941D01*
X454490Y64928D01*
X454328Y64916D01*
X454153Y64891D01*
X453953Y64853D01*
X453728Y64803D01*
X453490Y64728D01*
X453240Y64653D01*
X452990Y64553D01*
X452728Y64429D01*
X452466Y64291D01*
X452203Y64128D01*
X451941Y63929D01*
X451691Y63716D01*
X451678Y63704D01*
X451641Y63654D01*
X451578Y63579D01*
X451491Y63479D01*
X451391Y63341D01*
X451278Y63179D01*
X451166Y62966D01*
X451054Y62741D01*
X450928Y62467D01*
X450816Y62167D01*
X450704Y61829D01*
X450604Y61454D01*
X450529Y61042D01*
X450454Y60605D01*
X450416Y60117D01*
X450404Y59592D01*
Y59580D01*
Y59567D01*
Y59492D01*
X450416Y59367D01*
X450429Y59205D01*
X450441Y59017D01*
X450466Y58792D01*
X450504Y58542D01*
X450554Y58267D01*
X450629Y57980D01*
X450704Y57680D01*
X450803Y57380D01*
X450928Y57080D01*
X451066Y56780D01*
X451228Y56480D01*
X451428Y56206D01*
X451641Y55943D01*
X451653Y55931D01*
X451703Y55881D01*
X451766Y55818D01*
X451866Y55731D01*
X451991Y55631D01*
X452141Y55518D01*
X452303Y55406D01*
X452503Y55281D01*
X452715Y55156D01*
X452953Y55043D01*
X453215Y54931D01*
X453490Y54831D01*
X453778Y54743D01*
X454090Y54681D01*
X454428Y54631D01*
X454765Y54619D01*
X454852D01*
X454953Y54631D01*
X455090Y54644D01*
X455252Y54656D01*
X455440Y54693D01*
X455652Y54731D01*
X455877Y54781D01*
X456127Y54856D01*
X456377Y54943D01*
X456640Y55056D01*
X456914Y55181D01*
X457177Y55331D01*
X457439Y55518D01*
X457689Y55718D01*
X457927Y55956D01*
X457939Y55968D01*
X457977Y56018D01*
X458039Y56093D01*
X458127Y56206D01*
X458214Y56343D01*
X458314Y56518D01*
X458427Y56705D01*
X458551Y56943D01*
X458664Y57193D01*
X458777Y57480D01*
X458876Y57793D01*
X458976Y58130D01*
X459051Y58505D01*
X459114Y58892D01*
X459151Y59317D01*
X459164Y59767D01*
Y59780D01*
Y59842D01*
Y59917D01*
X459151Y60030D01*
Y60167D01*
X459139Y60317D01*
X459114Y60504D01*
X459101Y60692D01*
X459064Y60904D01*
X459039Y61117D01*
X458939Y61579D01*
X458801Y62042D01*
X458727Y62267D01*
X458627Y62491D01*
Y62504D01*
X458601Y62541D01*
X458577Y62604D01*
X458526Y62691D01*
X458477Y62779D01*
X458402Y62891D01*
X458239Y63154D01*
X458014Y63454D01*
X457752Y63754D01*
X457439Y64041D01*
X457264Y64179D01*
X457077Y64303D01*
X457064Y64316D01*
X457027Y64328D01*
X456977Y64366D01*
X456902Y64404D01*
X456802Y64454D01*
X456689Y64503D01*
X456564Y64566D01*
X456415Y64628D01*
X456252Y64691D01*
X456077Y64753D01*
X455890Y64803D01*
X455690Y64853D01*
X455252Y64928D01*
X455027Y64941D01*
X454790Y64953D01*
D02*
G37*
G36*
X371149Y64941D02*
X371049D01*
X370974Y64928D01*
X370874Y64916D01*
X370774Y64891D01*
X370524Y64828D01*
X370387Y64778D01*
X370249Y64716D01*
X370099Y64641D01*
X369962Y64553D01*
X369812Y64441D01*
X369674Y64316D01*
X369537Y64179D01*
X369412Y64016D01*
X369399Y64004D01*
X369374Y63966D01*
X369337Y63891D01*
X369287Y63779D01*
X369224Y63654D01*
X369162Y63479D01*
X369087Y63279D01*
X369012Y63041D01*
X368937Y62754D01*
X368862Y62442D01*
X368800Y62091D01*
X368737Y61692D01*
X368687Y61267D01*
X368650Y60779D01*
X368625Y60255D01*
X368612Y59692D01*
Y59680D01*
Y59655D01*
Y59617D01*
Y59555D01*
Y59480D01*
Y59392D01*
X368625Y59292D01*
Y59180D01*
X368637Y58930D01*
X368650Y58642D01*
X368675Y58317D01*
X368699Y57980D01*
X368787Y57280D01*
X368849Y56930D01*
X368924Y56593D01*
X369012Y56268D01*
X369112Y55968D01*
X369224Y55706D01*
X369349Y55493D01*
X369362Y55481D01*
X369387Y55443D01*
X369424Y55393D01*
X369487Y55331D01*
X369549Y55256D01*
X369637Y55168D01*
X369737Y55068D01*
X369849Y54981D01*
X369987Y54881D01*
X370124Y54781D01*
X370437Y54619D01*
X370599Y54556D01*
X370787Y54506D01*
X370974Y54468D01*
X371174Y54456D01*
X371224D01*
X371274Y54468D01*
X371349D01*
X371449Y54493D01*
X371549Y54506D01*
X371674Y54543D01*
X371799Y54581D01*
X371949Y54644D01*
X372086Y54706D01*
X372236Y54793D01*
X372386Y54893D01*
X372549Y55018D01*
X372699Y55156D01*
X372849Y55306D01*
X372986Y55493D01*
X372998Y55506D01*
X373023Y55543D01*
X373061Y55606D01*
X373098Y55706D01*
X373161Y55831D01*
X373223Y55993D01*
X373286Y56181D01*
X373361Y56418D01*
X373436Y56680D01*
X373498Y56980D01*
X373561Y57318D01*
X373623Y57705D01*
X373661Y58130D01*
X373698Y58605D01*
X373723Y59130D01*
X373736Y59692D01*
Y59705D01*
Y59730D01*
Y59767D01*
Y59830D01*
Y59905D01*
Y59992D01*
X373723Y60092D01*
Y60205D01*
X373711Y60455D01*
X373698Y60742D01*
X373673Y61067D01*
X373648Y61404D01*
X373561Y62104D01*
X373498Y62454D01*
X373423Y62804D01*
X373336Y63116D01*
X373248Y63416D01*
X373123Y63679D01*
X372998Y63891D01*
X372986Y63904D01*
X372961Y63941D01*
X372924Y63991D01*
X372861Y64054D01*
X372799Y64141D01*
X372711Y64229D01*
X372611Y64316D01*
X372486Y64416D01*
X372361Y64516D01*
X372224Y64603D01*
X371911Y64778D01*
X371736Y64841D01*
X371549Y64891D01*
X371349Y64928D01*
X371149Y64941D01*
D02*
G37*
G36*
X147203Y56466D02*
X146903D01*
X146679Y56428D01*
X146416Y56391D01*
X146116Y56316D01*
X145779Y56241D01*
X145404Y56129D01*
X144992Y55979D01*
X144579Y55754D01*
X144129Y55529D01*
X143679Y55266D01*
X143192Y54929D01*
X142742Y54554D01*
X142292Y54104D01*
X141842Y53617D01*
X141805Y53579D01*
X141730Y53504D01*
X141617Y53317D01*
X141505Y53092D01*
X141317Y52792D01*
X141130Y52455D01*
X140905Y52005D01*
X140718Y51555D01*
X140493Y50992D01*
X140268Y50392D01*
X140080Y49718D01*
X139930Y48968D01*
X139780Y48181D01*
X139668Y47318D01*
X139593Y46381D01*
X139555Y45406D01*
Y45331D01*
Y45181D01*
Y44881D01*
X139593Y44544D01*
X139630Y44094D01*
X139668Y43569D01*
X139743Y43007D01*
X139818Y42407D01*
X140080Y41095D01*
X140268Y40458D01*
X140493Y39783D01*
X140718Y39145D01*
X141018Y38545D01*
X141355Y37983D01*
X141730Y37458D01*
X141767Y37421D01*
X141842Y37346D01*
X141955Y37233D01*
X142105Y37046D01*
X142330Y36858D01*
X142592Y36671D01*
X142855Y36409D01*
X143192Y36184D01*
X143979Y35734D01*
X144879Y35321D01*
X145366Y35134D01*
X145854Y35021D01*
X146416Y34946D01*
X146979Y34909D01*
X147278D01*
X147503Y34946D01*
X147766Y34984D01*
X148103Y35059D01*
X148441Y35134D01*
X148853Y35246D01*
X149265Y35396D01*
X149678Y35546D01*
X150128Y35771D01*
X150578Y36034D01*
X151027Y36334D01*
X151515Y36709D01*
X151965Y37121D01*
X152377Y37571D01*
X152415Y37608D01*
X152490Y37683D01*
X152602Y37871D01*
X152715Y38058D01*
X152902Y38358D01*
X153089Y38695D01*
X153277Y39108D01*
X153502Y39595D01*
X153727Y40158D01*
X153914Y40757D01*
X154102Y41432D01*
X154289Y42182D01*
X154402Y42969D01*
X154514Y43869D01*
X154589Y44806D01*
X154627Y45819D01*
Y45894D01*
Y46044D01*
Y46343D01*
X154589Y46681D01*
X154552Y47131D01*
X154514Y47656D01*
X154439Y48218D01*
X154364Y48818D01*
X154102Y50093D01*
X153914Y50767D01*
X153689Y51442D01*
X153427Y52080D01*
X153164Y52679D01*
X152789Y53279D01*
X152415Y53804D01*
X152377Y53842D01*
X152302Y53917D01*
X152190Y54067D01*
X152040Y54216D01*
X151815Y54404D01*
X151552Y54629D01*
X151290Y54891D01*
X150953Y55154D01*
X150203Y55641D01*
X149303Y56054D01*
X148815Y56203D01*
X148291Y56354D01*
X147766Y56428D01*
X147203Y56466D01*
D02*
G37*
G36*
X104352Y62539D02*
X92280Y45181D01*
X104352D01*
Y62539D01*
D02*
G37*
%LPD*%
D10*
X475000Y15000D02*
G03*
X485000Y25000I0J10000D01*
G01*
X355000Y25000D02*
G03*
X365000Y15000I10000J0D01*
G01*
X485000Y75000D02*
G03*
X475000Y85000I-10000J0D01*
G01*
X365000D02*
G03*
X355000Y75000I0J-10000D01*
G01*
Y25000D02*
Y75000D01*
X365000Y15000D02*
X475000D01*
X365000Y85000D02*
X475000D01*
X485000Y25000D02*
Y75000D01*
X355000Y25000D02*
X355000D01*
D11*
X234618Y42782D02*
X239886D01*
M02*
