G04*
G04 #@! TF.GenerationSoftware,Altium Limited,Altium Designer,23.8.1 (32)*
G04*
G04 Layer_Color=65535*
%FSLAX44Y44*%
%MOMM*%
G71*
G04*
G04 #@! TF.SameCoordinates,8D1D33FA-23F1-484C-B391-F775C52FBD05*
G04*
G04*
G04 #@! TF.FilePolarity,Positive*
G04*
G01*
G75*
%ADD10C,0.2000*%
%ADD11C,0.1000*%
G36*
X350303Y238664D02*
X351596D01*
Y237586D01*
X350303D01*
Y235290D01*
X349122D01*
Y237586D01*
X344951D01*
Y238664D01*
X349337Y244897D01*
X350303D01*
Y238664D01*
D02*
G37*
G36*
X342317Y235290D02*
X341136D01*
Y242798D01*
X341127D01*
X341117Y242779D01*
X341089Y242760D01*
X341061Y242732D01*
X340967Y242647D01*
X340836Y242544D01*
X340677Y242423D01*
X340480Y242282D01*
X340255Y242132D01*
X340011Y241982D01*
X340002D01*
X339983Y241963D01*
X339946Y241945D01*
X339899Y241916D01*
X339833Y241879D01*
X339768Y241842D01*
X339599Y241757D01*
X339412Y241663D01*
X339205Y241560D01*
X338990Y241467D01*
X338784Y241382D01*
Y242516D01*
X338793Y242526D01*
X338830Y242535D01*
X338877Y242563D01*
X338952Y242601D01*
X339037Y242647D01*
X339130Y242704D01*
X339243Y242760D01*
X339365Y242835D01*
X339636Y242994D01*
X339927Y243191D01*
X340218Y243407D01*
X340508Y243641D01*
X340518Y243650D01*
X340536Y243669D01*
X340583Y243707D01*
X340630Y243754D01*
X340686Y243819D01*
X340761Y243885D01*
X340836Y243969D01*
X340921Y244053D01*
X341089Y244250D01*
X341258Y244466D01*
X341417Y244700D01*
X341492Y244813D01*
X341549Y244934D01*
X342317D01*
Y235290D01*
D02*
G37*
G36*
X350484Y185725D02*
X350559D01*
X350634Y185715D01*
X350728Y185706D01*
X350831Y185697D01*
X351056Y185650D01*
X351290Y185593D01*
X351543Y185509D01*
X351796Y185397D01*
X351806D01*
X351824Y185378D01*
X351862Y185359D01*
X351909Y185331D01*
X351965Y185303D01*
X352021Y185256D01*
X352171Y185153D01*
X352340Y185022D01*
X352509Y184862D01*
X352668Y184675D01*
X352809Y184469D01*
Y184459D01*
X352827Y184441D01*
X352846Y184413D01*
X352865Y184366D01*
X352893Y184319D01*
X352921Y184253D01*
X352987Y184094D01*
X353052Y183916D01*
X353109Y183700D01*
X353146Y183475D01*
X353165Y183232D01*
Y183222D01*
Y183204D01*
Y183175D01*
X353155Y183129D01*
Y183072D01*
X353146Y183007D01*
X353127Y182857D01*
X353080Y182679D01*
X353024Y182491D01*
X352940Y182294D01*
X352827Y182097D01*
Y182088D01*
X352809Y182079D01*
X352790Y182051D01*
X352762Y182013D01*
X352687Y181919D01*
X352574Y181807D01*
X352434Y181676D01*
X352265Y181544D01*
X352068Y181413D01*
X351834Y181292D01*
X351843D01*
X351871Y181282D01*
X351918Y181273D01*
X351974Y181254D01*
X352049Y181226D01*
X352124Y181198D01*
X352321Y181113D01*
X352528Y181010D01*
X352752Y180860D01*
X352968Y180692D01*
X353062Y180588D01*
X353155Y180476D01*
X353165Y180467D01*
X353174Y180448D01*
X353202Y180410D01*
X353230Y180364D01*
X353268Y180307D01*
X353305Y180232D01*
X353352Y180148D01*
X353399Y180054D01*
X353437Y179942D01*
X353484Y179829D01*
X353521Y179698D01*
X353558Y179567D01*
X353615Y179267D01*
X353624Y179098D01*
X353633Y178930D01*
Y178920D01*
Y178873D01*
X353624Y178808D01*
Y178723D01*
X353605Y178611D01*
X353587Y178489D01*
X353558Y178349D01*
X353521Y178189D01*
X353474Y178030D01*
X353409Y177861D01*
X353334Y177683D01*
X353249Y177505D01*
X353137Y177327D01*
X353015Y177139D01*
X352874Y176971D01*
X352715Y176802D01*
X352705Y176793D01*
X352677Y176765D01*
X352621Y176718D01*
X352546Y176671D01*
X352462Y176596D01*
X352349Y176530D01*
X352228Y176446D01*
X352078Y176371D01*
X351918Y176287D01*
X351740Y176202D01*
X351553Y176137D01*
X351347Y176071D01*
X351131Y176015D01*
X350897Y175968D01*
X350653Y175940D01*
X350391Y175930D01*
X350334D01*
X350269Y175940D01*
X350184D01*
X350072Y175949D01*
X349950Y175968D01*
X349809Y175996D01*
X349650Y176024D01*
X349491Y176062D01*
X349322Y176118D01*
X349144Y176174D01*
X348975Y176249D01*
X348797Y176333D01*
X348619Y176437D01*
X348450Y176549D01*
X348291Y176680D01*
X348282Y176689D01*
X348254Y176718D01*
X348216Y176755D01*
X348160Y176821D01*
X348094Y176896D01*
X348019Y176980D01*
X347944Y177083D01*
X347860Y177205D01*
X347776Y177336D01*
X347691Y177486D01*
X347616Y177645D01*
X347541Y177824D01*
X347476Y178011D01*
X347419Y178208D01*
X347373Y178414D01*
X347344Y178639D01*
X348525Y178798D01*
Y178789D01*
X348535Y178752D01*
X348544Y178705D01*
X348563Y178630D01*
X348582Y178555D01*
X348610Y178452D01*
X348647Y178349D01*
X348685Y178236D01*
X348778Y178002D01*
X348900Y177758D01*
X349041Y177533D01*
X349125Y177439D01*
X349210Y177346D01*
X349219D01*
X349228Y177327D01*
X349256Y177308D01*
X349294Y177280D01*
X349341Y177243D01*
X349397Y177205D01*
X349538Y177130D01*
X349716Y177046D01*
X349922Y176971D01*
X350147Y176924D01*
X350269Y176915D01*
X350400Y176905D01*
X350484D01*
X350541Y176915D01*
X350616Y176924D01*
X350690Y176933D01*
X350784Y176952D01*
X350887Y176980D01*
X351112Y177046D01*
X351225Y177093D01*
X351347Y177149D01*
X351468Y177214D01*
X351581Y177289D01*
X351693Y177374D01*
X351806Y177477D01*
X351815Y177486D01*
X351834Y177505D01*
X351862Y177533D01*
X351899Y177580D01*
X351937Y177636D01*
X351984Y177702D01*
X352040Y177777D01*
X352096Y177871D01*
X352143Y177964D01*
X352199Y178077D01*
X352293Y178320D01*
X352321Y178452D01*
X352349Y178592D01*
X352368Y178742D01*
X352378Y178902D01*
Y178911D01*
Y178939D01*
Y178976D01*
X352368Y179042D01*
X352359Y179108D01*
X352349Y179192D01*
X352331Y179276D01*
X352312Y179380D01*
X352246Y179586D01*
X352209Y179698D01*
X352153Y179811D01*
X352087Y179923D01*
X352021Y180036D01*
X351937Y180139D01*
X351843Y180242D01*
X351834Y180251D01*
X351815Y180261D01*
X351787Y180289D01*
X351749Y180326D01*
X351693Y180364D01*
X351628Y180410D01*
X351562Y180457D01*
X351478Y180504D01*
X351384Y180551D01*
X351281Y180598D01*
X351047Y180682D01*
X350784Y180748D01*
X350644Y180757D01*
X350494Y180767D01*
X350437D01*
X350362Y180757D01*
X350269Y180748D01*
X350147Y180739D01*
X350006Y180720D01*
X349847Y180682D01*
X349669Y180645D01*
X349800Y181676D01*
X349819D01*
X349866Y181666D01*
X349931Y181657D01*
X350062D01*
X350119Y181666D01*
X350184D01*
X350259Y181676D01*
X350344Y181695D01*
X350437Y181704D01*
X350653Y181751D01*
X350878Y181826D01*
X351112Y181919D01*
X351347Y182051D01*
X351356Y182060D01*
X351375Y182069D01*
X351403Y182088D01*
X351440Y182126D01*
X351487Y182163D01*
X351543Y182219D01*
X351590Y182276D01*
X351656Y182351D01*
X351712Y182426D01*
X351759Y182519D01*
X351815Y182622D01*
X351862Y182726D01*
X351899Y182847D01*
X351928Y182979D01*
X351946Y183110D01*
X351956Y183260D01*
Y183269D01*
Y183288D01*
Y183325D01*
X351946Y183372D01*
Y183428D01*
X351937Y183494D01*
X351899Y183644D01*
X351853Y183813D01*
X351768Y183991D01*
X351665Y184169D01*
X351590Y184253D01*
X351515Y184338D01*
X351506Y184347D01*
X351497Y184356D01*
X351468Y184375D01*
X351440Y184403D01*
X351337Y184478D01*
X351206Y184553D01*
X351047Y184628D01*
X350850Y184703D01*
X350625Y184750D01*
X350512Y184769D01*
X350316D01*
X350269Y184759D01*
X350203D01*
X350137Y184750D01*
X349978Y184713D01*
X349791Y184666D01*
X349603Y184581D01*
X349406Y184478D01*
X349313Y184403D01*
X349228Y184328D01*
X349219Y184319D01*
X349210Y184310D01*
X349181Y184281D01*
X349153Y184244D01*
X349116Y184206D01*
X349078Y184150D01*
X349031Y184084D01*
X348985Y184009D01*
X348938Y183916D01*
X348881Y183822D01*
X348835Y183719D01*
X348788Y183597D01*
X348750Y183475D01*
X348703Y183335D01*
X348675Y183194D01*
X348647Y183035D01*
X347466Y183241D01*
Y183250D01*
X347476Y183297D01*
X347494Y183354D01*
X347513Y183438D01*
X347541Y183531D01*
X347579Y183653D01*
X347616Y183775D01*
X347673Y183916D01*
X347729Y184056D01*
X347804Y184206D01*
X347879Y184366D01*
X347972Y184516D01*
X348066Y184666D01*
X348179Y184816D01*
X348310Y184947D01*
X348441Y185078D01*
X348450Y185087D01*
X348479Y185106D01*
X348516Y185134D01*
X348582Y185181D01*
X348657Y185228D01*
X348741Y185284D01*
X348853Y185350D01*
X348966Y185406D01*
X349097Y185472D01*
X349247Y185528D01*
X349406Y185584D01*
X349575Y185631D01*
X349753Y185678D01*
X349941Y185706D01*
X350147Y185725D01*
X350353Y185734D01*
X350428D01*
X350484Y185725D01*
D02*
G37*
G36*
X344317Y176090D02*
X343136D01*
Y183597D01*
X343127D01*
X343117Y183578D01*
X343089Y183560D01*
X343061Y183531D01*
X342967Y183447D01*
X342836Y183344D01*
X342677Y183222D01*
X342480Y183082D01*
X342255Y182932D01*
X342011Y182782D01*
X342002D01*
X341983Y182763D01*
X341946Y182744D01*
X341899Y182716D01*
X341833Y182679D01*
X341768Y182641D01*
X341599Y182557D01*
X341412Y182463D01*
X341205Y182360D01*
X340990Y182266D01*
X340784Y182182D01*
Y183316D01*
X340793Y183325D01*
X340830Y183335D01*
X340877Y183363D01*
X340952Y183400D01*
X341037Y183447D01*
X341130Y183503D01*
X341243Y183560D01*
X341365Y183635D01*
X341637Y183794D01*
X341927Y183991D01*
X342218Y184206D01*
X342508Y184441D01*
X342518Y184450D01*
X342536Y184469D01*
X342583Y184506D01*
X342630Y184553D01*
X342686Y184619D01*
X342761Y184684D01*
X342836Y184769D01*
X342920Y184853D01*
X343089Y185050D01*
X343258Y185266D01*
X343417Y185500D01*
X343492Y185612D01*
X343549Y185734D01*
X344317D01*
Y176090D01*
D02*
G37*
G36*
X323653Y244925D02*
X323756D01*
X323868Y244916D01*
X324000Y244897D01*
X324150Y244869D01*
X324318Y244841D01*
X324487Y244794D01*
X324665Y244747D01*
X324853Y244681D01*
X325031Y244606D01*
X325218Y244522D01*
X325387Y244419D01*
X325555Y244297D01*
X325715Y244166D01*
X325724Y244156D01*
X325752Y244128D01*
X325790Y244091D01*
X325837Y244025D01*
X325902Y243950D01*
X325968Y243866D01*
X326043Y243763D01*
X326118Y243641D01*
X326193Y243510D01*
X326268Y243360D01*
X326334Y243210D01*
X326399Y243041D01*
X326446Y242863D01*
X326483Y242666D01*
X326511Y242469D01*
X326521Y242263D01*
Y242254D01*
Y242235D01*
Y242207D01*
Y242169D01*
X326511Y242113D01*
Y242057D01*
X326493Y241907D01*
X326465Y241738D01*
X326418Y241542D01*
X326362Y241335D01*
X326277Y241129D01*
Y241120D01*
X326268Y241101D01*
X326249Y241073D01*
X326230Y241035D01*
X326202Y240979D01*
X326174Y240923D01*
X326090Y240773D01*
X325987Y240604D01*
X325846Y240398D01*
X325687Y240182D01*
X325490Y239958D01*
X325481Y239948D01*
X325462Y239929D01*
X325434Y239892D01*
X325387Y239845D01*
X325321Y239779D01*
X325256Y239704D01*
X325162Y239620D01*
X325059Y239517D01*
X324946Y239405D01*
X324806Y239273D01*
X324665Y239133D01*
X324496Y238983D01*
X324318Y238824D01*
X324122Y238645D01*
X323906Y238467D01*
X323681Y238270D01*
X323672Y238261D01*
X323634Y238233D01*
X323578Y238186D01*
X323512Y238130D01*
X323428Y238055D01*
X323334Y237971D01*
X323109Y237783D01*
X322884Y237586D01*
X322659Y237390D01*
X322556Y237296D01*
X322463Y237202D01*
X322378Y237127D01*
X322313Y237061D01*
X322303Y237052D01*
X322266Y237005D01*
X322210Y236940D01*
X322135Y236865D01*
X322060Y236761D01*
X321975Y236658D01*
X321891Y236546D01*
X321816Y236424D01*
X326530D01*
Y235290D01*
X320185D01*
Y235299D01*
Y235309D01*
Y235365D01*
Y235440D01*
X320194Y235552D01*
X320213Y235674D01*
X320232Y235815D01*
X320269Y235956D01*
X320316Y236105D01*
Y236115D01*
X320326Y236133D01*
X320344Y236171D01*
X320363Y236218D01*
X320391Y236274D01*
X320419Y236340D01*
X320504Y236508D01*
X320616Y236705D01*
X320747Y236921D01*
X320907Y237146D01*
X321094Y237380D01*
X321104Y237390D01*
X321122Y237408D01*
X321150Y237446D01*
X321197Y237493D01*
X321254Y237549D01*
X321319Y237624D01*
X321394Y237708D01*
X321488Y237802D01*
X321591Y237896D01*
X321703Y238008D01*
X321835Y238130D01*
X321966Y238261D01*
X322116Y238392D01*
X322275Y238533D01*
X322453Y238683D01*
X322631Y238833D01*
X322650Y238852D01*
X322697Y238889D01*
X322781Y238955D01*
X322884Y239048D01*
X323016Y239151D01*
X323156Y239283D01*
X323316Y239423D01*
X323484Y239573D01*
X323840Y239901D01*
X324187Y240239D01*
X324347Y240407D01*
X324496Y240576D01*
X324637Y240726D01*
X324749Y240876D01*
X324759Y240885D01*
X324778Y240914D01*
X324806Y240951D01*
X324834Y241007D01*
X324881Y241073D01*
X324928Y241148D01*
X324974Y241242D01*
X325031Y241335D01*
X325134Y241551D01*
X325228Y241785D01*
X325256Y241916D01*
X325284Y242038D01*
X325303Y242169D01*
X325312Y242291D01*
Y242301D01*
Y242320D01*
Y242357D01*
X325303Y242413D01*
X325293Y242469D01*
X325284Y242535D01*
X325246Y242704D01*
X325190Y242891D01*
X325096Y243088D01*
X325040Y243182D01*
X324974Y243285D01*
X324899Y243379D01*
X324806Y243472D01*
X324796Y243482D01*
X324787Y243491D01*
X324749Y243519D01*
X324712Y243547D01*
X324665Y243585D01*
X324599Y243622D01*
X324534Y243669D01*
X324450Y243716D01*
X324365Y243763D01*
X324262Y243810D01*
X324037Y243885D01*
X323784Y243941D01*
X323643Y243950D01*
X323494Y243960D01*
X323409D01*
X323353Y243950D01*
X323278Y243941D01*
X323194Y243932D01*
X323100Y243913D01*
X323006Y243894D01*
X322781Y243838D01*
X322556Y243744D01*
X322444Y243688D01*
X322331Y243613D01*
X322228Y243538D01*
X322125Y243444D01*
X322116Y243435D01*
X322106Y243425D01*
X322078Y243388D01*
X322050Y243350D01*
X322013Y243304D01*
X321966Y243238D01*
X321919Y243163D01*
X321872Y243079D01*
X321825Y242985D01*
X321778Y242882D01*
X321741Y242760D01*
X321694Y242638D01*
X321666Y242507D01*
X321638Y242357D01*
X321628Y242207D01*
X321619Y242038D01*
X320410Y242160D01*
Y242179D01*
X320419Y242216D01*
X320429Y242291D01*
X320438Y242385D01*
X320466Y242498D01*
X320494Y242629D01*
X320532Y242769D01*
X320569Y242929D01*
X320625Y243088D01*
X320691Y243257D01*
X320766Y243425D01*
X320850Y243603D01*
X320954Y243772D01*
X321066Y243932D01*
X321197Y244081D01*
X321338Y244222D01*
X321347Y244231D01*
X321375Y244250D01*
X321422Y244288D01*
X321488Y244335D01*
X321572Y244391D01*
X321666Y244447D01*
X321788Y244513D01*
X321919Y244578D01*
X322069Y244644D01*
X322228Y244709D01*
X322406Y244766D01*
X322603Y244822D01*
X322809Y244869D01*
X323034Y244906D01*
X323269Y244925D01*
X323522Y244934D01*
X323587D01*
X323653Y244925D01*
D02*
G37*
G36*
X317317Y235290D02*
X316136D01*
Y242798D01*
X316127D01*
X316117Y242779D01*
X316089Y242760D01*
X316061Y242732D01*
X315967Y242647D01*
X315836Y242544D01*
X315677Y242423D01*
X315480Y242282D01*
X315255Y242132D01*
X315011Y241982D01*
X315002D01*
X314983Y241963D01*
X314946Y241945D01*
X314899Y241916D01*
X314833Y241879D01*
X314768Y241842D01*
X314599Y241757D01*
X314412Y241663D01*
X314205Y241560D01*
X313990Y241467D01*
X313783Y241382D01*
Y242516D01*
X313793Y242526D01*
X313830Y242535D01*
X313877Y242563D01*
X313952Y242601D01*
X314037Y242647D01*
X314130Y242704D01*
X314243Y242760D01*
X314365Y242835D01*
X314636Y242994D01*
X314927Y243191D01*
X315218Y243407D01*
X315508Y243641D01*
X315518Y243650D01*
X315536Y243669D01*
X315583Y243707D01*
X315630Y243754D01*
X315686Y243819D01*
X315761Y243885D01*
X315836Y243969D01*
X315921Y244053D01*
X316089Y244250D01*
X316258Y244466D01*
X316417Y244700D01*
X316492Y244813D01*
X316549Y244934D01*
X317317D01*
Y235290D01*
D02*
G37*
G36*
X326778Y176090D02*
X325597D01*
Y183597D01*
X325587D01*
X325578Y183578D01*
X325550Y183560D01*
X325522Y183531D01*
X325428Y183447D01*
X325297Y183344D01*
X325137Y183222D01*
X324941Y183082D01*
X324716Y182932D01*
X324472Y182782D01*
X324463D01*
X324444Y182763D01*
X324406Y182744D01*
X324360Y182716D01*
X324294Y182679D01*
X324228Y182641D01*
X324060Y182557D01*
X323872Y182463D01*
X323666Y182360D01*
X323450Y182266D01*
X323244Y182182D01*
Y183316D01*
X323254Y183325D01*
X323291Y183335D01*
X323338Y183363D01*
X323413Y183400D01*
X323497Y183447D01*
X323591Y183503D01*
X323703Y183560D01*
X323825Y183635D01*
X324097Y183794D01*
X324388Y183991D01*
X324678Y184206D01*
X324969Y184441D01*
X324978Y184450D01*
X324997Y184469D01*
X325044Y184506D01*
X325091Y184553D01*
X325147Y184619D01*
X325222Y184684D01*
X325297Y184769D01*
X325381Y184853D01*
X325550Y185050D01*
X325719Y185266D01*
X325878Y185500D01*
X325953Y185612D01*
X326009Y185734D01*
X326778D01*
Y176090D01*
D02*
G37*
G36*
X319317D02*
X318136D01*
Y183597D01*
X318127D01*
X318117Y183578D01*
X318089Y183560D01*
X318061Y183531D01*
X317967Y183447D01*
X317836Y183344D01*
X317677Y183222D01*
X317480Y183082D01*
X317255Y182932D01*
X317011Y182782D01*
X317002D01*
X316983Y182763D01*
X316946Y182744D01*
X316899Y182716D01*
X316833Y182679D01*
X316768Y182641D01*
X316599Y182557D01*
X316412Y182463D01*
X316205Y182360D01*
X315990Y182266D01*
X315784Y182182D01*
Y183316D01*
X315793Y183325D01*
X315830Y183335D01*
X315877Y183363D01*
X315952Y183400D01*
X316037Y183447D01*
X316130Y183503D01*
X316243Y183560D01*
X316365Y183635D01*
X316637Y183794D01*
X316927Y183991D01*
X317218Y184206D01*
X317508Y184441D01*
X317518Y184450D01*
X317536Y184469D01*
X317583Y184506D01*
X317630Y184553D01*
X317686Y184619D01*
X317761Y184684D01*
X317836Y184769D01*
X317920Y184853D01*
X318089Y185050D01*
X318258Y185266D01*
X318417Y185500D01*
X318492Y185612D01*
X318549Y185734D01*
X319317D01*
Y176090D01*
D02*
G37*
G36*
X290458Y235449D02*
X289277D01*
Y242957D01*
X289267D01*
X289258Y242938D01*
X289230Y242919D01*
X289202Y242891D01*
X289108Y242807D01*
X288977Y242704D01*
X288817Y242582D01*
X288621Y242441D01*
X288396Y242291D01*
X288152Y242141D01*
X288143D01*
X288124Y242123D01*
X288086Y242104D01*
X288039Y242076D01*
X287974Y242038D01*
X287908Y242001D01*
X287740Y241916D01*
X287552Y241823D01*
X287346Y241720D01*
X287130Y241626D01*
X286924Y241542D01*
Y242676D01*
X286933Y242685D01*
X286971Y242694D01*
X287018Y242722D01*
X287093Y242760D01*
X287177Y242807D01*
X287271Y242863D01*
X287383Y242919D01*
X287505Y242994D01*
X287777Y243154D01*
X288068Y243350D01*
X288358Y243566D01*
X288649Y243800D01*
X288658Y243810D01*
X288677Y243828D01*
X288724Y243866D01*
X288771Y243913D01*
X288827Y243978D01*
X288902Y244044D01*
X288977Y244128D01*
X289061Y244213D01*
X289230Y244410D01*
X289398Y244625D01*
X289558Y244859D01*
X289633Y244972D01*
X289689Y245094D01*
X290458D01*
Y235449D01*
D02*
G37*
G36*
X296803Y245084D02*
X296878Y245075D01*
X296972Y245066D01*
X297065Y245056D01*
X297271Y245019D01*
X297496Y244963D01*
X297731Y244878D01*
X297956Y244775D01*
X297965D01*
X297984Y244756D01*
X298012Y244747D01*
X298059Y244719D01*
X298162Y244644D01*
X298302Y244550D01*
X298452Y244419D01*
X298612Y244269D01*
X298771Y244081D01*
X298921Y243875D01*
Y243866D01*
X298940Y243847D01*
X298959Y243819D01*
X298987Y243772D01*
X299015Y243716D01*
X299052Y243650D01*
X299090Y243566D01*
X299137Y243482D01*
X299184Y243379D01*
X299230Y243276D01*
X299324Y243032D01*
X299427Y242751D01*
X299512Y242451D01*
Y242441D01*
X299521Y242413D01*
X299530Y242366D01*
X299549Y242301D01*
X299568Y242216D01*
X299587Y242113D01*
X299605Y241991D01*
X299624Y241851D01*
X299643Y241701D01*
X299662Y241523D01*
X299680Y241345D01*
X299699Y241138D01*
X299718Y240923D01*
X299727Y240689D01*
X299736Y240445D01*
Y240182D01*
Y240164D01*
Y240107D01*
Y240023D01*
X299727Y239901D01*
Y239761D01*
X299718Y239592D01*
X299708Y239414D01*
X299690Y239208D01*
X299671Y238992D01*
X299652Y238777D01*
X299587Y238317D01*
X299502Y237868D01*
X299446Y237661D01*
X299380Y237455D01*
Y237446D01*
X299362Y237408D01*
X299343Y237352D01*
X299315Y237286D01*
X299277Y237193D01*
X299230Y237099D01*
X299184Y236986D01*
X299118Y236865D01*
X298977Y236611D01*
X298799Y236340D01*
X298584Y236087D01*
X298462Y235965D01*
X298340Y235852D01*
X298331Y235843D01*
X298312Y235824D01*
X298274Y235796D01*
X298218Y235768D01*
X298153Y235721D01*
X298068Y235674D01*
X297974Y235627D01*
X297871Y235571D01*
X297750Y235515D01*
X297618Y235468D01*
X297478Y235421D01*
X297318Y235374D01*
X297159Y235346D01*
X296981Y235318D01*
X296803Y235299D01*
X296606Y235290D01*
X296541D01*
X296475Y235299D01*
X296372Y235309D01*
X296259Y235318D01*
X296119Y235346D01*
X295969Y235374D01*
X295809Y235412D01*
X295641Y235468D01*
X295463Y235534D01*
X295275Y235609D01*
X295097Y235702D01*
X294919Y235815D01*
X294741Y235946D01*
X294572Y236105D01*
X294422Y236274D01*
X294413Y236293D01*
X294385Y236330D01*
X294338Y236405D01*
X294272Y236508D01*
X294207Y236640D01*
X294122Y236799D01*
X294038Y236996D01*
X293954Y237221D01*
X293860Y237474D01*
X293776Y237764D01*
X293691Y238083D01*
X293626Y238430D01*
X293560Y238824D01*
X293513Y239236D01*
X293485Y239695D01*
X293476Y240182D01*
Y240192D01*
Y240201D01*
Y240257D01*
Y240351D01*
X293485Y240464D01*
Y240614D01*
X293494Y240773D01*
X293504Y240960D01*
X293522Y241167D01*
X293541Y241382D01*
X293560Y241607D01*
X293626Y242057D01*
X293710Y242516D01*
X293766Y242722D01*
X293822Y242929D01*
Y242938D01*
X293841Y242976D01*
X293860Y243032D01*
X293888Y243097D01*
X293925Y243191D01*
X293972Y243285D01*
X294019Y243397D01*
X294085Y243519D01*
X294225Y243782D01*
X294403Y244044D01*
X294619Y244297D01*
X294741Y244419D01*
X294863Y244531D01*
X294872Y244541D01*
X294891Y244559D01*
X294938Y244588D01*
X294985Y244616D01*
X295060Y244663D01*
X295135Y244709D01*
X295238Y244756D01*
X295341Y244813D01*
X295463Y244869D01*
X295594Y244916D01*
X295734Y244963D01*
X295894Y245009D01*
X296053Y245037D01*
X296231Y245066D01*
X296409Y245084D01*
X296606Y245094D01*
X296737D01*
X296803Y245084D01*
D02*
G37*
G36*
X295677Y185725D02*
X295762Y185715D01*
X295855Y185706D01*
X295968Y185697D01*
X296080Y185669D01*
X296352Y185612D01*
X296633Y185518D01*
X296783Y185462D01*
X296933Y185397D01*
X297083Y185322D01*
X297233Y185228D01*
X297243Y185219D01*
X297271Y185209D01*
X297308Y185172D01*
X297364Y185134D01*
X297430Y185078D01*
X297505Y185022D01*
X297580Y184947D01*
X297674Y184862D01*
X297767Y184759D01*
X297861Y184656D01*
X297964Y184534D01*
X298058Y184403D01*
X298152Y184263D01*
X298245Y184113D01*
X298339Y183953D01*
X298414Y183785D01*
X298424Y183775D01*
X298433Y183738D01*
X298452Y183691D01*
X298480Y183616D01*
X298508Y183513D01*
X298545Y183400D01*
X298583Y183260D01*
X298620Y183100D01*
X298658Y182922D01*
X298686Y182716D01*
X298723Y182500D01*
X298752Y182257D01*
X298780Y181994D01*
X298798Y181713D01*
X298817Y181404D01*
Y181085D01*
Y181076D01*
Y181066D01*
Y181038D01*
Y181001D01*
Y180907D01*
X298808Y180785D01*
Y180626D01*
X298798Y180448D01*
X298780Y180251D01*
X298770Y180026D01*
X298742Y179801D01*
X298723Y179558D01*
X298648Y179070D01*
X298602Y178827D01*
X298545Y178592D01*
X298489Y178367D01*
X298414Y178152D01*
Y178142D01*
X298395Y178105D01*
X298377Y178049D01*
X298339Y177974D01*
X298292Y177880D01*
X298245Y177777D01*
X298189Y177664D01*
X298114Y177533D01*
X297945Y177271D01*
X297739Y176989D01*
X297505Y176727D01*
X297364Y176605D01*
X297224Y176493D01*
X297214Y176483D01*
X297186Y176465D01*
X297149Y176437D01*
X297083Y176408D01*
X297008Y176362D01*
X296915Y176315D01*
X296811Y176268D01*
X296699Y176211D01*
X296568Y176155D01*
X296427Y176108D01*
X296277Y176062D01*
X296108Y176015D01*
X295940Y175987D01*
X295762Y175958D01*
X295574Y175940D01*
X295377Y175930D01*
X295265D01*
X295190Y175940D01*
X295096Y175949D01*
X294984Y175968D01*
X294853Y175987D01*
X294721Y176005D01*
X294431Y176080D01*
X294271Y176127D01*
X294121Y176193D01*
X293962Y176258D01*
X293812Y176343D01*
X293672Y176437D01*
X293531Y176549D01*
X293522Y176558D01*
X293503Y176577D01*
X293465Y176615D01*
X293419Y176661D01*
X293362Y176727D01*
X293297Y176811D01*
X293231Y176896D01*
X293156Y177008D01*
X293081Y177121D01*
X293006Y177261D01*
X292941Y177402D01*
X292875Y177561D01*
X292809Y177730D01*
X292753Y177917D01*
X292716Y178114D01*
X292678Y178320D01*
X293812Y178424D01*
Y178414D01*
X293822Y178386D01*
X293831Y178349D01*
X293840Y178292D01*
X293859Y178227D01*
X293878Y178152D01*
X293934Y177974D01*
X294009Y177786D01*
X294103Y177589D01*
X294215Y177411D01*
X294281Y177327D01*
X294356Y177252D01*
X294365D01*
X294375Y177233D01*
X294431Y177196D01*
X294515Y177139D01*
X294637Y177074D01*
X294787Y177008D01*
X294965Y176952D01*
X295171Y176915D01*
X295396Y176896D01*
X295490D01*
X295593Y176905D01*
X295724Y176924D01*
X295865Y176952D01*
X296033Y176999D01*
X296193Y177055D01*
X296352Y177139D01*
X296362D01*
X296371Y177149D01*
X296418Y177186D01*
X296493Y177243D01*
X296586Y177318D01*
X296699Y177411D01*
X296811Y177524D01*
X296915Y177655D01*
X297018Y177805D01*
Y177814D01*
X297027Y177824D01*
X297046Y177852D01*
X297064Y177880D01*
X297111Y177974D01*
X297168Y178105D01*
X297243Y178264D01*
X297318Y178461D01*
X297393Y178676D01*
X297458Y178930D01*
Y178939D01*
X297467Y178958D01*
X297477Y179005D01*
X297486Y179051D01*
X297496Y179117D01*
X297514Y179192D01*
X297533Y179276D01*
X297552Y179380D01*
X297580Y179595D01*
X297608Y179839D01*
X297627Y180101D01*
X297636Y180373D01*
Y180392D01*
Y180439D01*
Y180504D01*
Y180598D01*
X297617Y180579D01*
X297599Y180551D01*
X297571Y180514D01*
X297496Y180410D01*
X297383Y180279D01*
X297243Y180139D01*
X297074Y179989D01*
X296877Y179839D01*
X296661Y179698D01*
X296652D01*
X296633Y179679D01*
X296605Y179670D01*
X296558Y179642D01*
X296502Y179614D01*
X296427Y179586D01*
X296352Y179558D01*
X296268Y179529D01*
X296071Y179464D01*
X295846Y179408D01*
X295602Y179370D01*
X295340Y179351D01*
X295284D01*
X295227Y179361D01*
X295143D01*
X295040Y179380D01*
X294918Y179398D01*
X294787Y179426D01*
X294646Y179464D01*
X294487Y179501D01*
X294328Y179558D01*
X294159Y179632D01*
X293990Y179717D01*
X293822Y179811D01*
X293653Y179932D01*
X293484Y180064D01*
X293325Y180214D01*
X293315Y180223D01*
X293287Y180251D01*
X293250Y180307D01*
X293194Y180373D01*
X293137Y180457D01*
X293062Y180560D01*
X292987Y180682D01*
X292912Y180823D01*
X292837Y180973D01*
X292762Y181151D01*
X292687Y181338D01*
X292631Y181535D01*
X292575Y181760D01*
X292537Y181985D01*
X292509Y182229D01*
X292500Y182491D01*
Y182510D01*
Y182557D01*
X292509Y182632D01*
Y182735D01*
X292528Y182857D01*
X292547Y182997D01*
X292575Y183157D01*
X292603Y183335D01*
X292650Y183513D01*
X292706Y183710D01*
X292781Y183906D01*
X292856Y184103D01*
X292959Y184300D01*
X293072Y184487D01*
X293203Y184675D01*
X293353Y184844D01*
X293362Y184853D01*
X293390Y184881D01*
X293437Y184928D01*
X293512Y184984D01*
X293597Y185050D01*
X293690Y185125D01*
X293812Y185209D01*
X293943Y185294D01*
X294093Y185369D01*
X294262Y185453D01*
X294440Y185528D01*
X294628Y185593D01*
X294834Y185650D01*
X295049Y185697D01*
X295284Y185725D01*
X295518Y185734D01*
X295612D01*
X295677Y185725D01*
D02*
G37*
G36*
X267270Y245084D02*
X267383Y245075D01*
X267505Y245056D01*
X267636Y245028D01*
X267786Y245000D01*
X267945Y244963D01*
X268114Y244916D01*
X268283Y244859D01*
X268451Y244784D01*
X268620Y244700D01*
X268779Y244606D01*
X268939Y244494D01*
X269089Y244363D01*
X269098Y244353D01*
X269126Y244325D01*
X269164Y244288D01*
X269210Y244231D01*
X269267Y244166D01*
X269332Y244072D01*
X269398Y243978D01*
X269473Y243866D01*
X269548Y243744D01*
X269613Y243603D01*
X269679Y243463D01*
X269735Y243304D01*
X269782Y243135D01*
X269829Y242957D01*
X269848Y242779D01*
X269857Y242582D01*
Y242572D01*
Y242554D01*
Y242516D01*
X269848Y242469D01*
Y242413D01*
X269839Y242338D01*
X269810Y242179D01*
X269773Y242001D01*
X269707Y241804D01*
X269623Y241607D01*
X269501Y241410D01*
Y241401D01*
X269482Y241392D01*
X269436Y241326D01*
X269351Y241242D01*
X269239Y241129D01*
X269089Y241007D01*
X268911Y240885D01*
X268695Y240764D01*
X268442Y240651D01*
X268451D01*
X268479Y240642D01*
X268526Y240623D01*
X268582Y240595D01*
X268657Y240567D01*
X268742Y240529D01*
X268939Y240426D01*
X269154Y240295D01*
X269379Y240136D01*
X269595Y239948D01*
X269688Y239836D01*
X269782Y239723D01*
X269792Y239714D01*
X269801Y239695D01*
X269829Y239658D01*
X269857Y239611D01*
X269895Y239545D01*
X269932Y239480D01*
X269970Y239386D01*
X270017Y239292D01*
X270063Y239189D01*
X270101Y239067D01*
X270176Y238814D01*
X270232Y238514D01*
X270242Y238364D01*
X270251Y238195D01*
Y238186D01*
Y238139D01*
X270242Y238074D01*
Y237989D01*
X270223Y237886D01*
X270204Y237764D01*
X270176Y237624D01*
X270138Y237474D01*
X270091Y237314D01*
X270035Y237146D01*
X269970Y236977D01*
X269885Y236799D01*
X269782Y236621D01*
X269670Y236452D01*
X269529Y236283D01*
X269379Y236124D01*
X269370Y236115D01*
X269342Y236087D01*
X269286Y236049D01*
X269220Y235993D01*
X269135Y235927D01*
X269032Y235862D01*
X268901Y235787D01*
X268770Y235712D01*
X268611Y235627D01*
X268433Y235552D01*
X268245Y235487D01*
X268039Y235421D01*
X267823Y235365D01*
X267589Y235327D01*
X267345Y235299D01*
X267083Y235290D01*
X267017D01*
X266942Y235299D01*
X266849D01*
X266727Y235318D01*
X266586Y235337D01*
X266427Y235356D01*
X266258Y235393D01*
X266080Y235440D01*
X265893Y235496D01*
X265705Y235562D01*
X265518Y235646D01*
X265321Y235740D01*
X265133Y235852D01*
X264955Y235974D01*
X264787Y236124D01*
X264777Y236133D01*
X264749Y236162D01*
X264712Y236208D01*
X264655Y236274D01*
X264590Y236359D01*
X264515Y236462D01*
X264440Y236574D01*
X264356Y236705D01*
X264271Y236846D01*
X264196Y237005D01*
X264121Y237183D01*
X264056Y237371D01*
X264009Y237568D01*
X263962Y237774D01*
X263934Y237989D01*
X263924Y238224D01*
Y238233D01*
Y238261D01*
Y238317D01*
X263934Y238383D01*
X263943Y238458D01*
X263953Y238552D01*
X263962Y238655D01*
X263981Y238767D01*
X264037Y239020D01*
X264121Y239283D01*
X264177Y239414D01*
X264243Y239545D01*
X264309Y239667D01*
X264393Y239789D01*
X264402Y239798D01*
X264412Y239817D01*
X264440Y239845D01*
X264477Y239892D01*
X264534Y239948D01*
X264590Y240004D01*
X264665Y240070D01*
X264740Y240136D01*
X264834Y240211D01*
X264937Y240276D01*
X265049Y240351D01*
X265171Y240426D01*
X265302Y240492D01*
X265443Y240548D01*
X265593Y240604D01*
X265752Y240651D01*
X265743D01*
X265724Y240660D01*
X265677Y240679D01*
X265630Y240698D01*
X265574Y240726D01*
X265499Y240764D01*
X265340Y240848D01*
X265161Y240960D01*
X264974Y241092D01*
X264805Y241242D01*
X264655Y241420D01*
Y241429D01*
X264637Y241438D01*
X264627Y241467D01*
X264599Y241504D01*
X264571Y241560D01*
X264543Y241616D01*
X264487Y241757D01*
X264421Y241926D01*
X264365Y242132D01*
X264327Y242357D01*
X264309Y242610D01*
Y242619D01*
Y242657D01*
X264318Y242713D01*
Y242788D01*
X264327Y242872D01*
X264346Y242976D01*
X264374Y243097D01*
X264402Y243229D01*
X264440Y243360D01*
X264496Y243500D01*
X264552Y243650D01*
X264627Y243800D01*
X264712Y243941D01*
X264815Y244091D01*
X264927Y244231D01*
X265058Y244372D01*
X265068Y244381D01*
X265096Y244400D01*
X265133Y244438D01*
X265199Y244485D01*
X265274Y244541D01*
X265358Y244597D01*
X265471Y244663D01*
X265593Y244738D01*
X265724Y244803D01*
X265874Y244869D01*
X266043Y244925D01*
X266221Y244981D01*
X266418Y245028D01*
X266614Y245066D01*
X266839Y245084D01*
X267064Y245094D01*
X267186D01*
X267270Y245084D01*
D02*
G37*
G36*
X273714Y184816D02*
X273705Y184806D01*
X273676Y184769D01*
X273620Y184713D01*
X273555Y184638D01*
X273470Y184534D01*
X273377Y184422D01*
X273264Y184281D01*
X273142Y184122D01*
X273011Y183944D01*
X272861Y183747D01*
X272711Y183531D01*
X272552Y183297D01*
X272393Y183053D01*
X272224Y182791D01*
X272055Y182510D01*
X271886Y182210D01*
X271877Y182191D01*
X271849Y182135D01*
X271802Y182051D01*
X271736Y181929D01*
X271661Y181788D01*
X271577Y181610D01*
X271483Y181413D01*
X271380Y181188D01*
X271268Y180945D01*
X271155Y180692D01*
X271033Y180410D01*
X270921Y180129D01*
X270809Y179829D01*
X270696Y179520D01*
X270593Y179201D01*
X270499Y178883D01*
Y178873D01*
X270480Y178827D01*
X270462Y178761D01*
X270443Y178676D01*
X270415Y178564D01*
X270377Y178424D01*
X270349Y178274D01*
X270312Y178105D01*
X270274Y177917D01*
X270237Y177711D01*
X270199Y177496D01*
X270162Y177261D01*
X270124Y177027D01*
X270096Y176774D01*
X270049Y176249D01*
X268840D01*
Y176258D01*
Y176305D01*
X268850Y176362D01*
Y176446D01*
X268859Y176558D01*
X268868Y176689D01*
X268887Y176840D01*
X268906Y177008D01*
X268925Y177205D01*
X268953Y177411D01*
X268990Y177636D01*
X269037Y177871D01*
X269084Y178133D01*
X269140Y178395D01*
X269206Y178686D01*
X269281Y178976D01*
Y178986D01*
X269290Y178995D01*
X269300Y179051D01*
X269328Y179136D01*
X269356Y179248D01*
X269403Y179398D01*
X269459Y179567D01*
X269515Y179754D01*
X269590Y179970D01*
X269674Y180195D01*
X269768Y180439D01*
X269862Y180701D01*
X269974Y180963D01*
X270218Y181516D01*
X270499Y182079D01*
X270509Y182097D01*
X270537Y182144D01*
X270584Y182219D01*
X270640Y182332D01*
X270715Y182454D01*
X270799Y182604D01*
X270902Y182772D01*
X271015Y182950D01*
X271137Y183147D01*
X271268Y183354D01*
X271549Y183775D01*
X271868Y184197D01*
X272027Y184403D01*
X272196Y184600D01*
X267500D01*
Y185734D01*
X273714D01*
Y184816D01*
D02*
G37*
G36*
X242966Y245084D02*
X243069Y245075D01*
X243181Y245056D01*
X243303Y245037D01*
X243444Y245019D01*
X243734Y244934D01*
X243894Y244888D01*
X244043Y244822D01*
X244203Y244756D01*
X244353Y244663D01*
X244503Y244569D01*
X244643Y244456D01*
X244653Y244447D01*
X244671Y244428D01*
X244709Y244391D01*
X244756Y244344D01*
X244812Y244278D01*
X244878Y244194D01*
X244953Y244100D01*
X245028Y243997D01*
X245103Y243885D01*
X245177Y243744D01*
X245243Y243603D01*
X245318Y243444D01*
X245384Y243276D01*
X245431Y243097D01*
X245477Y242910D01*
X245515Y242704D01*
X244343Y242610D01*
Y242619D01*
X244334Y242638D01*
X244325Y242676D01*
X244315Y242722D01*
X244296Y242779D01*
X244278Y242844D01*
X244231Y242994D01*
X244165Y243163D01*
X244090Y243332D01*
X243997Y243491D01*
X243894Y243622D01*
X243884Y243632D01*
X243875Y243641D01*
X243847Y243669D01*
X243809Y243697D01*
X243762Y243744D01*
X243706Y243782D01*
X243565Y243875D01*
X243397Y243969D01*
X243190Y244053D01*
X242966Y244110D01*
X242844Y244119D01*
X242712Y244128D01*
X242619D01*
X242516Y244110D01*
X242375Y244091D01*
X242225Y244053D01*
X242056Y243997D01*
X241888Y243913D01*
X241719Y243810D01*
X241710D01*
X241691Y243791D01*
X241663Y243772D01*
X241625Y243735D01*
X241532Y243641D01*
X241400Y243510D01*
X241260Y243341D01*
X241110Y243135D01*
X240969Y242901D01*
X240838Y242619D01*
Y242610D01*
X240829Y242582D01*
X240810Y242535D01*
X240791Y242479D01*
X240763Y242394D01*
X240735Y242301D01*
X240707Y242179D01*
X240679Y242048D01*
X240651Y241898D01*
X240622Y241738D01*
X240594Y241551D01*
X240566Y241354D01*
X240547Y241138D01*
X240529Y240904D01*
X240519Y240660D01*
X240510Y240398D01*
X240519Y240407D01*
X240529Y240426D01*
X240557Y240464D01*
X240585Y240501D01*
X240622Y240557D01*
X240679Y240623D01*
X240800Y240764D01*
X240951Y240923D01*
X241129Y241082D01*
X241325Y241232D01*
X241550Y241363D01*
X241560D01*
X241578Y241373D01*
X241616Y241392D01*
X241653Y241410D01*
X241719Y241438D01*
X241785Y241467D01*
X241860Y241495D01*
X241944Y241523D01*
X242141Y241579D01*
X242356Y241635D01*
X242591Y241673D01*
X242844Y241682D01*
X242900D01*
X242956Y241673D01*
X243041D01*
X243144Y241654D01*
X243265Y241635D01*
X243397Y241607D01*
X243537Y241570D01*
X243687Y241523D01*
X243856Y241467D01*
X244015Y241401D01*
X244184Y241317D01*
X244362Y241213D01*
X244531Y241101D01*
X244690Y240960D01*
X244849Y240811D01*
X244859Y240801D01*
X244887Y240773D01*
X244925Y240717D01*
X244981Y240651D01*
X245046Y240567D01*
X245112Y240464D01*
X245187Y240342D01*
X245271Y240201D01*
X245346Y240051D01*
X245421Y239883D01*
X245487Y239695D01*
X245552Y239498D01*
X245609Y239283D01*
X245646Y239058D01*
X245674Y238824D01*
X245684Y238570D01*
Y238561D01*
Y238533D01*
Y238486D01*
X245674Y238421D01*
Y238336D01*
X245665Y238242D01*
X245655Y238139D01*
X245637Y238017D01*
X245590Y237755D01*
X245515Y237474D01*
X245421Y237183D01*
X245290Y236883D01*
Y236874D01*
X245271Y236846D01*
X245252Y236808D01*
X245215Y236761D01*
X245177Y236696D01*
X245131Y236621D01*
X245009Y236452D01*
X244849Y236255D01*
X244671Y236059D01*
X244456Y235871D01*
X244212Y235702D01*
X244203D01*
X244184Y235684D01*
X244146Y235665D01*
X244090Y235637D01*
X244025Y235609D01*
X243950Y235571D01*
X243865Y235534D01*
X243762Y235496D01*
X243659Y235459D01*
X243537Y235421D01*
X243275Y235356D01*
X242984Y235309D01*
X242825Y235299D01*
X242666Y235290D01*
X242600D01*
X242525Y235299D01*
X242422Y235309D01*
X242300Y235327D01*
X242150Y235346D01*
X241991Y235384D01*
X241813Y235421D01*
X241625Y235478D01*
X241438Y235552D01*
X241232Y235637D01*
X241035Y235749D01*
X240829Y235871D01*
X240632Y236012D01*
X240444Y236180D01*
X240266Y236368D01*
X240257Y236377D01*
X240229Y236424D01*
X240182Y236480D01*
X240126Y236574D01*
X240051Y236696D01*
X239976Y236846D01*
X239891Y237015D01*
X239807Y237221D01*
X239713Y237455D01*
X239629Y237717D01*
X239554Y238008D01*
X239488Y238336D01*
X239423Y238683D01*
X239376Y239076D01*
X239348Y239489D01*
X239338Y239939D01*
Y239948D01*
Y239967D01*
Y240004D01*
Y240061D01*
Y240126D01*
X239348Y240201D01*
Y240295D01*
X239357Y240398D01*
Y240501D01*
X239366Y240623D01*
X239395Y240885D01*
X239423Y241176D01*
X239470Y241485D01*
X239517Y241813D01*
X239591Y242151D01*
X239666Y242488D01*
X239769Y242826D01*
X239882Y243144D01*
X240023Y243454D01*
X240182Y243735D01*
X240360Y243988D01*
X240369Y243997D01*
X240397Y244035D01*
X240454Y244091D01*
X240529Y244156D01*
X240613Y244241D01*
X240725Y244335D01*
X240857Y244438D01*
X240997Y244541D01*
X241166Y244644D01*
X241344Y244747D01*
X241541Y244841D01*
X241756Y244925D01*
X241991Y244991D01*
X242234Y245047D01*
X242497Y245084D01*
X242778Y245094D01*
X242891D01*
X242966Y245084D01*
D02*
G37*
G36*
X246423Y184609D02*
X242571D01*
X242056Y182013D01*
X242065Y182022D01*
X242093Y182041D01*
X242140Y182069D01*
X242206Y182107D01*
X242281Y182154D01*
X242384Y182210D01*
X242487Y182257D01*
X242609Y182323D01*
X242740Y182379D01*
X242881Y182426D01*
X243190Y182529D01*
X243349Y182566D01*
X243518Y182594D01*
X243696Y182613D01*
X243874Y182622D01*
X243930D01*
X243996Y182613D01*
X244090D01*
X244193Y182594D01*
X244324Y182575D01*
X244465Y182547D01*
X244615Y182510D01*
X244774Y182463D01*
X244952Y182407D01*
X245130Y182341D01*
X245308Y182257D01*
X245486Y182154D01*
X245664Y182041D01*
X245833Y181901D01*
X246002Y181751D01*
X246011Y181741D01*
X246039Y181713D01*
X246086Y181657D01*
X246142Y181591D01*
X246208Y181507D01*
X246273Y181404D01*
X246358Y181282D01*
X246442Y181141D01*
X246517Y180992D01*
X246602Y180823D01*
X246667Y180635D01*
X246742Y180439D01*
X246789Y180223D01*
X246836Y179998D01*
X246864Y179754D01*
X246873Y179501D01*
Y179483D01*
Y179445D01*
X246864Y179380D01*
Y179286D01*
X246855Y179173D01*
X246836Y179042D01*
X246808Y178892D01*
X246780Y178733D01*
X246733Y178564D01*
X246686Y178377D01*
X246620Y178189D01*
X246545Y178002D01*
X246461Y177814D01*
X246358Y177617D01*
X246236Y177430D01*
X246105Y177252D01*
X246095Y177243D01*
X246058Y177205D01*
X246011Y177149D01*
X245936Y177074D01*
X245842Y176980D01*
X245730Y176886D01*
X245599Y176783D01*
X245449Y176671D01*
X245271Y176558D01*
X245083Y176455D01*
X244877Y176362D01*
X244652Y176268D01*
X244408Y176193D01*
X244155Y176137D01*
X243874Y176099D01*
X243584Y176090D01*
X243527D01*
X243462Y176099D01*
X243368D01*
X243256Y176108D01*
X243124Y176127D01*
X242984Y176155D01*
X242824Y176183D01*
X242656Y176221D01*
X242487Y176268D01*
X242309Y176324D01*
X242122Y176399D01*
X241943Y176483D01*
X241765Y176577D01*
X241597Y176689D01*
X241437Y176821D01*
X241428Y176830D01*
X241400Y176858D01*
X241362Y176896D01*
X241306Y176952D01*
X241240Y177027D01*
X241175Y177121D01*
X241091Y177224D01*
X241015Y177336D01*
X240931Y177467D01*
X240847Y177617D01*
X240772Y177777D01*
X240697Y177955D01*
X240631Y178142D01*
X240575Y178339D01*
X240528Y178545D01*
X240500Y178770D01*
X241737Y178873D01*
Y178864D01*
X241747Y178836D01*
X241756Y178789D01*
X241765Y178723D01*
X241784Y178648D01*
X241803Y178564D01*
X241868Y178358D01*
X241953Y178142D01*
X242056Y177917D01*
X242196Y177692D01*
X242281Y177599D01*
X242365Y177505D01*
X242374Y177496D01*
X242393Y177486D01*
X242421Y177467D01*
X242459Y177439D01*
X242506Y177402D01*
X242562Y177364D01*
X242712Y177280D01*
X242890Y177196D01*
X243096Y177130D01*
X243330Y177074D01*
X243452Y177064D01*
X243584Y177055D01*
X243668D01*
X243724Y177064D01*
X243799Y177074D01*
X243883Y177093D01*
X243977Y177111D01*
X244080Y177139D01*
X244315Y177214D01*
X244427Y177261D01*
X244549Y177327D01*
X244671Y177402D01*
X244793Y177486D01*
X244914Y177580D01*
X245027Y177692D01*
X245036Y177702D01*
X245055Y177721D01*
X245083Y177758D01*
X245121Y177814D01*
X245168Y177871D01*
X245214Y177955D01*
X245271Y178049D01*
X245327Y178152D01*
X245374Y178264D01*
X245430Y178395D01*
X245477Y178536D01*
X245524Y178686D01*
X245561Y178845D01*
X245589Y179023D01*
X245608Y179201D01*
X245617Y179398D01*
Y179408D01*
Y179445D01*
Y179492D01*
X245608Y179567D01*
X245599Y179651D01*
X245589Y179745D01*
X245571Y179858D01*
X245543Y179979D01*
X245477Y180232D01*
X245430Y180364D01*
X245374Y180495D01*
X245308Y180626D01*
X245233Y180757D01*
X245149Y180879D01*
X245046Y180992D01*
X245036Y181001D01*
X245018Y181020D01*
X244989Y181048D01*
X244943Y181085D01*
X244886Y181132D01*
X244821Y181179D01*
X244736Y181235D01*
X244652Y181292D01*
X244549Y181338D01*
X244436Y181395D01*
X244315Y181441D01*
X244183Y181488D01*
X244034Y181526D01*
X243883Y181554D01*
X243724Y181573D01*
X243556Y181582D01*
X243462D01*
X243405Y181573D01*
X243349D01*
X243209Y181554D01*
X243049Y181516D01*
X242881Y181470D01*
X242703Y181404D01*
X242525Y181320D01*
X242515D01*
X242506Y181310D01*
X242449Y181273D01*
X242365Y181217D01*
X242271Y181141D01*
X242150Y181038D01*
X242037Y180926D01*
X241915Y180795D01*
X241812Y180654D01*
X240706Y180795D01*
X241634Y185734D01*
X246423D01*
Y184609D01*
D02*
G37*
G36*
X277622Y156499D02*
X279184Y156187D01*
X282934Y155249D01*
X284809Y153999D01*
X286684Y152749D01*
X286997Y152437D01*
X287622Y152124D01*
X288247Y151187D01*
X289184Y150249D01*
X291059Y146812D01*
X291997Y144937D01*
X292309Y142750D01*
Y140562D01*
Y140250D01*
X291997Y139937D01*
X291684Y139625D01*
X290747Y139312D01*
X286059D01*
X285747Y139625D01*
X285122Y139937D01*
X284809Y140562D01*
Y141500D01*
Y141812D01*
Y142125D01*
X284497Y143687D01*
X283559Y145875D01*
X281997Y147750D01*
X281684Y148062D01*
X280434Y148999D01*
X278559Y149624D01*
X276059Y149937D01*
X275122D01*
X273247Y149624D01*
X271060Y148999D01*
X268872Y147750D01*
X268560Y147437D01*
X267622Y146187D01*
X266685Y144312D01*
X266060Y142125D01*
Y141500D01*
X265747Y140250D01*
Y138062D01*
Y135250D01*
X265435Y131812D01*
Y127750D01*
X266060Y119625D01*
Y119000D01*
X266685Y117437D01*
X267310Y115562D01*
X268872Y113687D01*
X269497Y113375D01*
X270747Y112750D01*
X272935Y111812D01*
X275435Y111500D01*
X276059D01*
X277622Y111812D01*
X279809Y112437D01*
X281684Y113687D01*
X281997Y114000D01*
X283247Y115250D01*
X284184Y117125D01*
X284809Y119625D01*
Y121187D01*
Y121500D01*
X285122Y122125D01*
X285434Y122437D01*
X286372Y122750D01*
X291059D01*
X291684Y122437D01*
X291997Y122125D01*
X292309Y121187D01*
Y119312D01*
Y119000D01*
X291997Y118375D01*
Y117125D01*
X291372Y115562D01*
X289809Y111812D01*
X288559Y110250D01*
X286997Y108375D01*
X286684Y108062D01*
X286372Y107750D01*
X285122Y107125D01*
X283872Y106187D01*
X282309Y105250D01*
X280434Y104625D01*
X278247Y104312D01*
X275747Y104000D01*
X274497D01*
X273247Y104312D01*
X271685Y104625D01*
X267935Y105875D01*
X265747Y106812D01*
X263872Y108375D01*
X263560Y108687D01*
X263247Y109312D01*
X262310Y110250D01*
X261372Y111500D01*
X259810Y114937D01*
X258872Y116812D01*
X258560Y119312D01*
Y119937D01*
Y121187D01*
Y123375D01*
Y126187D01*
Y129625D01*
Y133375D01*
Y141500D01*
Y141812D01*
X258872Y142750D01*
Y143687D01*
X259497Y145250D01*
X261060Y148999D01*
X262310Y150874D01*
X263872Y152437D01*
X264185Y152749D01*
X264810Y153062D01*
X265747Y153687D01*
X267310Y154624D01*
X270747Y156187D01*
X272935Y156499D01*
X275435Y156812D01*
X276684D01*
X277622Y156499D01*
D02*
G37*
G36*
X92624Y155562D02*
X92937Y154937D01*
Y105875D01*
Y105562D01*
Y105250D01*
X92312Y104937D01*
X91687Y104625D01*
X84499D01*
X84187Y104937D01*
X83874Y105562D01*
X69187Y142125D01*
X68875Y142437D01*
X68562D01*
X68250Y142125D01*
Y105562D01*
Y105250D01*
X67937Y104937D01*
X67625Y104312D01*
X66687Y104000D01*
X62937D01*
X62625Y104312D01*
X62000Y104625D01*
X61687Y105562D01*
Y154312D01*
Y154624D01*
X62000Y155249D01*
X62312Y155562D01*
X63250Y155874D01*
X70125D01*
X70437Y155562D01*
X70750Y154937D01*
X85124Y118062D01*
X85749Y117750D01*
X86062D01*
X86687Y118062D01*
Y154937D01*
Y155249D01*
X86999Y155562D01*
X87312Y155874D01*
X88249Y156187D01*
X92312D01*
X92624Y155562D01*
D02*
G37*
G36*
X329809Y156499D02*
X331371Y156187D01*
X335121Y155249D01*
X336684Y153999D01*
X338559Y152749D01*
X338871Y152437D01*
X339184Y152124D01*
X340121Y151187D01*
X341059Y150249D01*
X342934Y146812D01*
X344184Y142750D01*
Y142437D01*
Y141812D01*
Y140875D01*
X343871Y139625D01*
X343246Y136812D01*
X341684Y133687D01*
X341371Y133062D01*
X340121Y131500D01*
X337934Y129625D01*
X335121Y128062D01*
X334809Y127750D01*
X334184Y127125D01*
X333871Y126500D01*
Y125875D01*
X334184Y125562D01*
X342934Y107125D01*
Y106812D01*
Y106500D01*
Y105562D01*
X341996Y104937D01*
X336996D01*
X336371Y105250D01*
X335434Y105562D01*
X335121Y106500D01*
X326371Y124937D01*
Y125250D01*
X325746Y125562D01*
X325121Y125875D01*
X321059Y125562D01*
X320746Y125250D01*
X320434Y124937D01*
X320121D01*
Y106500D01*
Y106187D01*
X319809Y105875D01*
X319496Y105250D01*
X318559Y104937D01*
X313872D01*
X313559Y105250D01*
X313247Y105562D01*
X312934Y106500D01*
Y155249D01*
Y155562D01*
X313247Y156187D01*
X313559Y156499D01*
X314184Y156812D01*
X328559D01*
X329809Y156499D01*
D02*
G37*
G36*
X226060D02*
X227623Y156187D01*
X231060Y155249D01*
X232935Y153999D01*
X234810Y152749D01*
X235123Y152437D01*
X235435Y152124D01*
X236373Y151187D01*
X237310Y150249D01*
X239185Y146812D01*
X239810Y144937D01*
X240123Y142750D01*
Y142437D01*
Y141812D01*
Y140875D01*
Y139625D01*
X239498Y136812D01*
X237935Y133687D01*
X237623Y133062D01*
X236373Y131500D01*
X234185Y129625D01*
X231373Y128062D01*
X231060Y127750D01*
X230435Y127125D01*
X229810Y126500D01*
Y125875D01*
X230123Y125562D01*
X239185Y107125D01*
Y106812D01*
X239498Y106500D01*
X239185Y105562D01*
X238560Y104937D01*
X233248D01*
X232935Y105250D01*
X232310Y105562D01*
X231685Y106500D01*
X223560Y124937D01*
X223248Y125250D01*
X221998Y125875D01*
X216998Y125562D01*
X216685Y125250D01*
X216373Y124937D01*
X216060D01*
Y106500D01*
Y106187D01*
X215748Y105875D01*
X215435Y105250D01*
X214498Y104937D01*
X210435D01*
X210123Y105250D01*
X209498Y105562D01*
X209185Y106500D01*
Y155249D01*
Y155562D01*
X209498Y156187D01*
X209810Y156499D01*
X210748Y156812D01*
X224810D01*
X226060Y156499D01*
D02*
G37*
G36*
X530744Y155562D02*
X531056Y154937D01*
Y150874D01*
Y150562D01*
X530744Y149937D01*
X530432Y149312D01*
X529494Y148999D01*
X512307D01*
X511994Y148687D01*
Y148375D01*
Y135250D01*
X512307D01*
X512619Y134937D01*
X529494D01*
X529807Y134625D01*
X530119Y134312D01*
X530432Y133375D01*
Y129312D01*
Y129000D01*
Y128687D01*
X529807Y128375D01*
X529182Y128062D01*
X512619D01*
X512307Y127750D01*
X511994Y127437D01*
X511369Y112437D01*
Y112125D01*
X511682Y111812D01*
X511994Y111500D01*
X512307Y111812D01*
X530432D01*
X531056Y111500D01*
X531681Y111187D01*
X531994Y110250D01*
Y105875D01*
Y105562D01*
X531681Y105250D01*
X531369Y104937D01*
X530119Y104625D01*
X505744D01*
X505119Y104937D01*
X504494Y105250D01*
X504182Y105875D01*
Y154937D01*
Y155249D01*
X504494Y155562D01*
X505119Y155874D01*
X506057Y156187D01*
X530432D01*
X530744Y155562D01*
D02*
G37*
G36*
X486370D02*
X486682Y154937D01*
Y150874D01*
Y150562D01*
X486370Y149937D01*
X486057Y149312D01*
X485120Y148999D01*
X474495D01*
X474182Y148687D01*
X473870Y148375D01*
Y147750D01*
Y146812D01*
Y144937D01*
Y142437D01*
Y138687D01*
Y136187D01*
Y133687D01*
Y130875D01*
Y127437D01*
Y105875D01*
Y105562D01*
X473557Y105250D01*
X473245Y104937D01*
X472307Y104625D01*
X468245D01*
X467932Y104937D01*
X467307Y105250D01*
X466995Y105875D01*
Y148375D01*
Y148687D01*
X466682Y148999D01*
X456370D01*
X456057Y149312D01*
X455745Y149937D01*
X455432Y150874D01*
Y154937D01*
Y155249D01*
X455745Y155562D01*
X456057Y155874D01*
X456682Y156187D01*
X486057D01*
X486370Y155562D01*
D02*
G37*
G36*
X428870Y155874D02*
X429495Y155249D01*
X443245Y105875D01*
X442933Y105250D01*
X442620Y104937D01*
X441683Y104625D01*
X437308D01*
X436370Y104937D01*
X435745Y105562D01*
X432308Y116812D01*
Y117125D01*
X431995Y117437D01*
X431683Y117750D01*
X418558D01*
X417933Y117437D01*
X417308Y116812D01*
X414495Y105562D01*
X414183Y105250D01*
X413870Y104937D01*
X412933Y104625D01*
X408245D01*
X407933Y104937D01*
X407308Y105250D01*
X406996Y105875D01*
X421058Y155249D01*
Y155562D01*
X421370Y155874D01*
X421683Y156187D01*
X428558D01*
X428870Y155874D01*
D02*
G37*
G36*
X389496Y155562D02*
X389808Y154937D01*
Y150874D01*
Y150562D01*
Y149937D01*
X389183Y149312D01*
X388558Y148999D01*
X370746D01*
X369808Y148375D01*
Y135250D01*
X370121Y134937D01*
X387308D01*
X387933Y134625D01*
X388246Y134312D01*
X388558Y133375D01*
Y129312D01*
Y129000D01*
X388246Y128687D01*
X387933Y128375D01*
X386996Y128062D01*
X370433D01*
X370121Y127750D01*
X369808Y127437D01*
Y112437D01*
X370746D01*
Y112125D01*
Y111812D01*
X371058Y111500D01*
X371371Y111812D01*
X389183D01*
X389808Y111500D01*
X390121Y111187D01*
X390433Y110250D01*
Y105875D01*
Y105562D01*
X390121Y105250D01*
X389808Y104937D01*
X388871Y104625D01*
X364184D01*
X363871Y104937D01*
X363246Y105250D01*
X362934Y105875D01*
Y154937D01*
Y155249D01*
X363246Y155562D01*
X363559Y155874D01*
X364496Y156187D01*
X389183D01*
X389496Y155562D01*
D02*
G37*
G36*
X187936D02*
X188248Y154937D01*
Y150874D01*
Y150562D01*
X187936Y149937D01*
X187623Y149312D01*
X186686Y148999D01*
X169186D01*
X168248Y148375D01*
Y135250D01*
X168561Y134937D01*
X185748D01*
X186061Y134625D01*
X186373Y134312D01*
X186686Y133375D01*
Y129312D01*
Y129000D01*
Y128687D01*
X186061Y128375D01*
X185436Y128062D01*
X168873D01*
X167623Y127437D01*
Y112437D01*
X168873D01*
Y112125D01*
Y111812D01*
Y111500D01*
X169186Y111812D01*
X186998D01*
X187623Y111500D01*
X187936Y111187D01*
X188248Y110250D01*
Y105875D01*
Y105562D01*
X187936Y105250D01*
X187623Y104937D01*
X186686Y104625D01*
X162623D01*
X162311Y104937D01*
X161686Y105250D01*
X161373Y105875D01*
Y154937D01*
Y155249D01*
X161686Y155562D01*
X161998Y155874D01*
X162936Y156187D01*
X187623D01*
X187936Y155562D01*
D02*
G37*
G36*
X142624D02*
X142936Y154937D01*
Y150874D01*
Y150562D01*
X142624Y149937D01*
X142311Y149312D01*
X141374Y148999D01*
X130436D01*
Y148687D01*
X130749D01*
Y148375D01*
Y147750D01*
Y146812D01*
Y144937D01*
Y142437D01*
Y138687D01*
Y136187D01*
Y133687D01*
Y130875D01*
Y127437D01*
Y105875D01*
Y105562D01*
X130436Y105250D01*
X130124Y104937D01*
X129186Y104625D01*
X124499D01*
X124186Y104937D01*
X123561Y105250D01*
X123249Y105875D01*
Y148375D01*
Y148687D01*
Y148999D01*
X113249D01*
X112624Y149312D01*
X111999Y149937D01*
X111686Y150874D01*
Y154937D01*
Y155249D01*
X111999Y155562D01*
X112624Y155874D01*
X113561Y156187D01*
X142311D01*
X142624Y155562D01*
D02*
G37*
G36*
X38562D02*
X38875Y154937D01*
Y105875D01*
Y105562D01*
X38562Y105250D01*
X38250Y104937D01*
X37312Y104625D01*
X33250D01*
X32625Y104937D01*
X32000Y105250D01*
Y105875D01*
Y154937D01*
Y155249D01*
Y155562D01*
X32625Y155874D01*
X33563Y156187D01*
X38250D01*
X38562Y155562D01*
D02*
G37*
G36*
X306519Y51374D02*
X307812D01*
Y50296D01*
X306519D01*
Y48000D01*
X305338D01*
Y50296D01*
X301167D01*
Y51374D01*
X305553Y57607D01*
X306519D01*
Y51374D01*
D02*
G37*
G36*
X298533Y48000D02*
X297353D01*
Y55507D01*
X297343D01*
X297334Y55489D01*
X297306Y55470D01*
X297278Y55442D01*
X297184Y55357D01*
X297053Y55254D01*
X296893Y55133D01*
X296696Y54992D01*
X296472Y54842D01*
X296228Y54692D01*
X296218D01*
X296200Y54673D01*
X296162Y54655D01*
X296115Y54626D01*
X296050Y54589D01*
X295984Y54552D01*
X295815Y54467D01*
X295628Y54373D01*
X295422Y54270D01*
X295206Y54177D01*
X295000Y54092D01*
Y55226D01*
X295009Y55236D01*
X295047Y55245D01*
X295094Y55273D01*
X295169Y55311D01*
X295253Y55357D01*
X295347Y55414D01*
X295459Y55470D01*
X295581Y55545D01*
X295853Y55704D01*
X296143Y55901D01*
X296434Y56117D01*
X296725Y56351D01*
X296734Y56360D01*
X296753Y56379D01*
X296800Y56417D01*
X296846Y56463D01*
X296903Y56529D01*
X296978Y56595D01*
X297053Y56679D01*
X297137Y56763D01*
X297306Y56960D01*
X297474Y57176D01*
X297634Y57410D01*
X297709Y57523D01*
X297765Y57644D01*
X298533D01*
Y48000D01*
D02*
G37*
G36*
X218320Y238664D02*
X219613D01*
Y237586D01*
X218320D01*
Y235290D01*
X217139D01*
Y237586D01*
X212968D01*
Y238664D01*
X217354Y244897D01*
X218320D01*
Y238664D01*
D02*
G37*
G36*
X218640Y185725D02*
X218715D01*
X218790Y185715D01*
X218883Y185706D01*
X218987Y185697D01*
X219212Y185650D01*
X219446Y185593D01*
X219699Y185509D01*
X219952Y185397D01*
X219961D01*
X219980Y185378D01*
X220018Y185359D01*
X220065Y185331D01*
X220121Y185303D01*
X220177Y185256D01*
X220327Y185153D01*
X220496Y185022D01*
X220664Y184862D01*
X220824Y184675D01*
X220964Y184469D01*
Y184459D01*
X220983Y184441D01*
X221002Y184413D01*
X221021Y184366D01*
X221049Y184319D01*
X221077Y184253D01*
X221142Y184094D01*
X221208Y183916D01*
X221264Y183700D01*
X221302Y183475D01*
X221320Y183232D01*
Y183222D01*
Y183204D01*
Y183175D01*
X221311Y183129D01*
Y183072D01*
X221302Y183007D01*
X221283Y182857D01*
X221236Y182679D01*
X221180Y182491D01*
X221095Y182294D01*
X220983Y182097D01*
Y182088D01*
X220964Y182079D01*
X220945Y182051D01*
X220917Y182013D01*
X220842Y181919D01*
X220730Y181807D01*
X220589Y181676D01*
X220421Y181544D01*
X220224Y181413D01*
X219989Y181292D01*
X219999D01*
X220027Y181282D01*
X220074Y181273D01*
X220130Y181254D01*
X220205Y181226D01*
X220280Y181198D01*
X220477Y181113D01*
X220683Y181010D01*
X220908Y180860D01*
X221124Y180692D01*
X221217Y180588D01*
X221311Y180476D01*
X221320Y180467D01*
X221330Y180448D01*
X221358Y180410D01*
X221386Y180364D01*
X221423Y180307D01*
X221461Y180232D01*
X221508Y180148D01*
X221555Y180054D01*
X221592Y179942D01*
X221639Y179829D01*
X221677Y179698D01*
X221714Y179567D01*
X221770Y179267D01*
X221780Y179098D01*
X221789Y178930D01*
Y178920D01*
Y178873D01*
X221780Y178808D01*
Y178723D01*
X221761Y178611D01*
X221742Y178489D01*
X221714Y178349D01*
X221677Y178189D01*
X221630Y178030D01*
X221564Y177861D01*
X221489Y177683D01*
X221405Y177505D01*
X221292Y177327D01*
X221170Y177139D01*
X221030Y176971D01*
X220870Y176802D01*
X220861Y176793D01*
X220833Y176765D01*
X220777Y176718D01*
X220702Y176671D01*
X220617Y176596D01*
X220505Y176530D01*
X220383Y176446D01*
X220233Y176371D01*
X220074Y176287D01*
X219896Y176202D01*
X219708Y176137D01*
X219502Y176071D01*
X219286Y176015D01*
X219052Y175968D01*
X218808Y175940D01*
X218546Y175930D01*
X218490D01*
X218424Y175940D01*
X218340D01*
X218227Y175949D01*
X218106Y175968D01*
X217965Y175996D01*
X217806Y176024D01*
X217646Y176062D01*
X217478Y176118D01*
X217299Y176174D01*
X217131Y176249D01*
X216953Y176333D01*
X216775Y176437D01*
X216606Y176549D01*
X216447Y176680D01*
X216437Y176689D01*
X216409Y176718D01*
X216372Y176755D01*
X216315Y176821D01*
X216250Y176896D01*
X216175Y176980D01*
X216100Y177083D01*
X216015Y177205D01*
X215931Y177336D01*
X215847Y177486D01*
X215772Y177645D01*
X215697Y177824D01*
X215631Y178011D01*
X215575Y178208D01*
X215528Y178414D01*
X215500Y178639D01*
X216681Y178798D01*
Y178789D01*
X216690Y178752D01*
X216700Y178705D01*
X216718Y178630D01*
X216737Y178555D01*
X216765Y178452D01*
X216803Y178349D01*
X216840Y178236D01*
X216934Y178002D01*
X217056Y177758D01*
X217196Y177533D01*
X217281Y177439D01*
X217365Y177346D01*
X217374D01*
X217384Y177327D01*
X217412Y177308D01*
X217449Y177280D01*
X217496Y177243D01*
X217553Y177205D01*
X217693Y177130D01*
X217871Y177046D01*
X218078Y176971D01*
X218302Y176924D01*
X218424Y176915D01*
X218556Y176905D01*
X218640D01*
X218696Y176915D01*
X218771Y176924D01*
X218846Y176933D01*
X218940Y176952D01*
X219043Y176980D01*
X219268Y177046D01*
X219380Y177093D01*
X219502Y177149D01*
X219624Y177214D01*
X219736Y177289D01*
X219849Y177374D01*
X219961Y177477D01*
X219971Y177486D01*
X219989Y177505D01*
X220018Y177533D01*
X220055Y177580D01*
X220093Y177636D01*
X220139Y177702D01*
X220196Y177777D01*
X220252Y177871D01*
X220299Y177964D01*
X220355Y178077D01*
X220449Y178320D01*
X220477Y178452D01*
X220505Y178592D01*
X220524Y178742D01*
X220533Y178902D01*
Y178911D01*
Y178939D01*
Y178976D01*
X220524Y179042D01*
X220514Y179108D01*
X220505Y179192D01*
X220486Y179276D01*
X220467Y179380D01*
X220402Y179586D01*
X220364Y179698D01*
X220308Y179811D01*
X220243Y179923D01*
X220177Y180036D01*
X220093Y180139D01*
X219999Y180242D01*
X219989Y180251D01*
X219971Y180261D01*
X219943Y180289D01*
X219905Y180326D01*
X219849Y180364D01*
X219783Y180410D01*
X219718Y180457D01*
X219633Y180504D01*
X219540Y180551D01*
X219436Y180598D01*
X219202Y180682D01*
X218940Y180748D01*
X218799Y180757D01*
X218649Y180767D01*
X218593D01*
X218518Y180757D01*
X218424Y180748D01*
X218302Y180739D01*
X218162Y180720D01*
X218002Y180682D01*
X217824Y180645D01*
X217956Y181676D01*
X217974D01*
X218021Y181666D01*
X218087Y181657D01*
X218218D01*
X218274Y181666D01*
X218340D01*
X218415Y181676D01*
X218499Y181695D01*
X218593Y181704D01*
X218808Y181751D01*
X219034Y181826D01*
X219268Y181919D01*
X219502Y182051D01*
X219512Y182060D01*
X219530Y182069D01*
X219558Y182088D01*
X219596Y182126D01*
X219643Y182163D01*
X219699Y182219D01*
X219746Y182276D01*
X219811Y182351D01*
X219868Y182426D01*
X219914Y182519D01*
X219971Y182622D01*
X220018Y182726D01*
X220055Y182847D01*
X220083Y182979D01*
X220102Y183110D01*
X220111Y183260D01*
Y183269D01*
Y183288D01*
Y183325D01*
X220102Y183372D01*
Y183428D01*
X220093Y183494D01*
X220055Y183644D01*
X220008Y183813D01*
X219924Y183991D01*
X219821Y184169D01*
X219746Y184253D01*
X219671Y184338D01*
X219661Y184347D01*
X219652Y184356D01*
X219624Y184375D01*
X219596Y184403D01*
X219493Y184478D01*
X219361Y184553D01*
X219202Y184628D01*
X219005Y184703D01*
X218780Y184750D01*
X218668Y184769D01*
X218471D01*
X218424Y184759D01*
X218359D01*
X218293Y184750D01*
X218134Y184713D01*
X217946Y184666D01*
X217759Y184581D01*
X217562Y184478D01*
X217468Y184403D01*
X217384Y184328D01*
X217374Y184319D01*
X217365Y184310D01*
X217337Y184281D01*
X217309Y184244D01*
X217271Y184206D01*
X217234Y184150D01*
X217187Y184084D01*
X217140Y184009D01*
X217093Y183916D01*
X217037Y183822D01*
X216990Y183719D01*
X216943Y183597D01*
X216906Y183475D01*
X216859Y183335D01*
X216831Y183194D01*
X216803Y183035D01*
X215622Y183241D01*
Y183250D01*
X215631Y183297D01*
X215650Y183354D01*
X215669Y183438D01*
X215697Y183531D01*
X215734Y183653D01*
X215772Y183775D01*
X215828Y183916D01*
X215884Y184056D01*
X215959Y184206D01*
X216034Y184366D01*
X216128Y184516D01*
X216222Y184666D01*
X216334Y184816D01*
X216465Y184947D01*
X216597Y185078D01*
X216606Y185087D01*
X216634Y185106D01*
X216672Y185134D01*
X216737Y185181D01*
X216812Y185228D01*
X216896Y185284D01*
X217009Y185350D01*
X217122Y185406D01*
X217253Y185472D01*
X217403Y185528D01*
X217562Y185584D01*
X217731Y185631D01*
X217909Y185678D01*
X218096Y185706D01*
X218302Y185725D01*
X218509Y185734D01*
X218584D01*
X218640Y185725D01*
D02*
G37*
G36*
X191651Y244925D02*
X191755D01*
X191867Y244916D01*
X191998Y244897D01*
X192148Y244869D01*
X192317Y244841D01*
X192486Y244794D01*
X192664Y244747D01*
X192851Y244681D01*
X193029Y244606D01*
X193217Y244522D01*
X193385Y244419D01*
X193554Y244297D01*
X193713Y244166D01*
X193723Y244156D01*
X193751Y244128D01*
X193789Y244091D01*
X193835Y244025D01*
X193901Y243950D01*
X193967Y243866D01*
X194042Y243763D01*
X194116Y243641D01*
X194191Y243510D01*
X194266Y243360D01*
X194332Y243210D01*
X194398Y243041D01*
X194445Y242863D01*
X194482Y242666D01*
X194510Y242469D01*
X194520Y242263D01*
Y242254D01*
Y242235D01*
Y242207D01*
Y242169D01*
X194510Y242113D01*
Y242057D01*
X194491Y241907D01*
X194463Y241738D01*
X194416Y241542D01*
X194360Y241335D01*
X194276Y241129D01*
Y241120D01*
X194266Y241101D01*
X194248Y241073D01*
X194229Y241035D01*
X194201Y240979D01*
X194173Y240923D01*
X194088Y240773D01*
X193985Y240604D01*
X193845Y240398D01*
X193685Y240182D01*
X193489Y239958D01*
X193479Y239948D01*
X193460Y239929D01*
X193432Y239892D01*
X193385Y239845D01*
X193320Y239779D01*
X193254Y239704D01*
X193160Y239620D01*
X193057Y239517D01*
X192945Y239405D01*
X192804Y239273D01*
X192664Y239133D01*
X192495Y238983D01*
X192317Y238824D01*
X192120Y238645D01*
X191905Y238467D01*
X191680Y238270D01*
X191670Y238261D01*
X191633Y238233D01*
X191576Y238186D01*
X191511Y238130D01*
X191427Y238055D01*
X191333Y237971D01*
X191108Y237783D01*
X190883Y237586D01*
X190658Y237390D01*
X190555Y237296D01*
X190461Y237202D01*
X190377Y237127D01*
X190311Y237061D01*
X190302Y237052D01*
X190264Y237005D01*
X190208Y236940D01*
X190133Y236865D01*
X190058Y236761D01*
X189974Y236658D01*
X189890Y236546D01*
X189814Y236424D01*
X194529D01*
Y235290D01*
X188184D01*
Y235299D01*
Y235309D01*
Y235365D01*
Y235440D01*
X188193Y235552D01*
X188212Y235674D01*
X188230Y235815D01*
X188268Y235956D01*
X188315Y236105D01*
Y236115D01*
X188324Y236133D01*
X188343Y236171D01*
X188362Y236218D01*
X188390Y236274D01*
X188418Y236340D01*
X188502Y236508D01*
X188615Y236705D01*
X188746Y236921D01*
X188905Y237146D01*
X189093Y237380D01*
X189102Y237390D01*
X189121Y237408D01*
X189149Y237446D01*
X189196Y237493D01*
X189252Y237549D01*
X189318Y237624D01*
X189393Y237708D01*
X189486Y237802D01*
X189590Y237896D01*
X189702Y238008D01*
X189833Y238130D01*
X189964Y238261D01*
X190114Y238392D01*
X190274Y238533D01*
X190452Y238683D01*
X190630Y238833D01*
X190649Y238852D01*
X190695Y238889D01*
X190780Y238955D01*
X190883Y239048D01*
X191014Y239151D01*
X191155Y239283D01*
X191314Y239423D01*
X191483Y239573D01*
X191839Y239901D01*
X192186Y240239D01*
X192345Y240407D01*
X192495Y240576D01*
X192636Y240726D01*
X192748Y240876D01*
X192757Y240885D01*
X192776Y240914D01*
X192804Y240951D01*
X192833Y241007D01*
X192879Y241073D01*
X192926Y241148D01*
X192973Y241242D01*
X193029Y241335D01*
X193132Y241551D01*
X193226Y241785D01*
X193254Y241916D01*
X193282Y242038D01*
X193301Y242169D01*
X193311Y242291D01*
Y242301D01*
Y242320D01*
Y242357D01*
X193301Y242413D01*
X193292Y242469D01*
X193282Y242535D01*
X193245Y242704D01*
X193189Y242891D01*
X193095Y243088D01*
X193039Y243182D01*
X192973Y243285D01*
X192898Y243379D01*
X192804Y243472D01*
X192795Y243482D01*
X192786Y243491D01*
X192748Y243519D01*
X192711Y243547D01*
X192664Y243585D01*
X192598Y243622D01*
X192533Y243669D01*
X192448Y243716D01*
X192364Y243763D01*
X192261Y243810D01*
X192036Y243885D01*
X191783Y243941D01*
X191642Y243950D01*
X191492Y243960D01*
X191408D01*
X191352Y243950D01*
X191277Y243941D01*
X191192Y243932D01*
X191098Y243913D01*
X191005Y243894D01*
X190780Y243838D01*
X190555Y243744D01*
X190442Y243688D01*
X190330Y243613D01*
X190227Y243538D01*
X190124Y243444D01*
X190114Y243435D01*
X190105Y243425D01*
X190077Y243388D01*
X190049Y243350D01*
X190011Y243304D01*
X189964Y243238D01*
X189918Y243163D01*
X189871Y243079D01*
X189824Y242985D01*
X189777Y242882D01*
X189739Y242760D01*
X189693Y242638D01*
X189664Y242507D01*
X189636Y242357D01*
X189627Y242207D01*
X189618Y242038D01*
X188409Y242160D01*
Y242179D01*
X188418Y242216D01*
X188427Y242291D01*
X188437Y242385D01*
X188465Y242498D01*
X188493Y242629D01*
X188530Y242769D01*
X188568Y242929D01*
X188624Y243088D01*
X188690Y243257D01*
X188765Y243425D01*
X188849Y243603D01*
X188952Y243772D01*
X189065Y243932D01*
X189196Y244081D01*
X189336Y244222D01*
X189346Y244231D01*
X189374Y244250D01*
X189421Y244288D01*
X189486Y244335D01*
X189571Y244391D01*
X189664Y244447D01*
X189786Y244513D01*
X189918Y244578D01*
X190068Y244644D01*
X190227Y244709D01*
X190405Y244766D01*
X190602Y244822D01*
X190808Y244869D01*
X191033Y244906D01*
X191267Y244925D01*
X191520Y244934D01*
X191586D01*
X191651Y244925D01*
D02*
G37*
G36*
X415937Y34697D02*
X416062Y34685D01*
X416187Y34673D01*
X416337Y34648D01*
X416500Y34610D01*
X416837Y34523D01*
X417012Y34460D01*
X417200Y34385D01*
X417362Y34298D01*
X417537Y34185D01*
X417687Y34073D01*
X417837Y33935D01*
X417850Y33923D01*
X417874Y33898D01*
X417912Y33860D01*
X417949Y33798D01*
X418012Y33710D01*
X418074Y33610D01*
X418137Y33498D01*
X418212Y33360D01*
X418287Y33198D01*
X418349Y33023D01*
X418412Y32836D01*
X418474Y32623D01*
X418512Y32398D01*
X418549Y32148D01*
X418574Y31873D01*
X418587Y31586D01*
Y25212D01*
X417012D01*
Y31061D01*
Y31073D01*
Y31098D01*
Y31148D01*
Y31211D01*
Y31286D01*
X417000Y31386D01*
X416987Y31586D01*
X416975Y31798D01*
X416950Y32023D01*
X416900Y32236D01*
X416850Y32411D01*
X416837Y32436D01*
X416825Y32486D01*
X416787Y32561D01*
X416725Y32661D01*
X416650Y32761D01*
X416550Y32873D01*
X416437Y32985D01*
X416300Y33085D01*
X416287Y33098D01*
X416225Y33123D01*
X416150Y33173D01*
X416037Y33223D01*
X415900Y33260D01*
X415737Y33310D01*
X415563Y33335D01*
X415363Y33348D01*
X415263D01*
X415200Y33335D01*
X415113Y33323D01*
X415013Y33310D01*
X414788Y33260D01*
X414525Y33185D01*
X414250Y33073D01*
X414113Y32998D01*
X413988Y32910D01*
X413851Y32798D01*
X413726Y32685D01*
X413713Y32673D01*
X413700Y32661D01*
X413663Y32611D01*
X413625Y32561D01*
X413576Y32486D01*
X413526Y32411D01*
X413463Y32298D01*
X413413Y32186D01*
X413351Y32048D01*
X413288Y31886D01*
X413238Y31723D01*
X413188Y31536D01*
X413151Y31323D01*
X413113Y31098D01*
X413101Y30861D01*
X413088Y30599D01*
Y25212D01*
X411514D01*
Y31248D01*
Y31261D01*
Y31298D01*
Y31348D01*
Y31423D01*
X411501Y31511D01*
X411489Y31611D01*
X411464Y31836D01*
X411414Y32098D01*
X411351Y32361D01*
X411251Y32611D01*
X411126Y32823D01*
X411114Y32848D01*
X411051Y32910D01*
X410964Y32985D01*
X410826Y33085D01*
X410651Y33185D01*
X410439Y33260D01*
X410176Y33323D01*
X409877Y33348D01*
X409764D01*
X409639Y33335D01*
X409477Y33310D01*
X409289Y33260D01*
X409077Y33198D01*
X408852Y33110D01*
X408639Y32998D01*
X408614Y32985D01*
X408552Y32936D01*
X408452Y32848D01*
X408327Y32736D01*
X408189Y32598D01*
X408064Y32423D01*
X407939Y32211D01*
X407827Y31973D01*
Y31961D01*
X407814Y31948D01*
X407802Y31898D01*
X407789Y31848D01*
X407765Y31773D01*
X407752Y31698D01*
X407727Y31598D01*
X407702Y31473D01*
X407677Y31348D01*
X407652Y31198D01*
X407640Y31036D01*
X407615Y30861D01*
X407602Y30673D01*
X407590Y30474D01*
X407577Y30261D01*
Y30024D01*
Y25212D01*
X406003D01*
Y34498D01*
X407415D01*
Y33210D01*
X407440Y33223D01*
X407465Y33260D01*
X407490Y33310D01*
X407590Y33435D01*
X407727Y33585D01*
X407890Y33760D01*
X408089Y33948D01*
X408314Y34123D01*
X408577Y34285D01*
X408589D01*
X408614Y34298D01*
X408652Y34323D01*
X408702Y34348D01*
X408777Y34385D01*
X408852Y34423D01*
X409052Y34498D01*
X409302Y34573D01*
X409577Y34648D01*
X409889Y34697D01*
X410226Y34710D01*
X410326D01*
X410401Y34697D01*
X410489D01*
X410589Y34685D01*
X410826Y34660D01*
X411089Y34597D01*
X411376Y34523D01*
X411651Y34423D01*
X411913Y34273D01*
X411926D01*
X411939Y34248D01*
X412026Y34198D01*
X412138Y34098D01*
X412276Y33960D01*
X412426Y33798D01*
X412588Y33598D01*
X412726Y33360D01*
X412838Y33085D01*
X412851Y33098D01*
X412888Y33160D01*
X412951Y33235D01*
X413038Y33335D01*
X413151Y33460D01*
X413288Y33598D01*
X413438Y33748D01*
X413613Y33898D01*
X413813Y34048D01*
X414025Y34198D01*
X414263Y34335D01*
X414525Y34460D01*
X414788Y34560D01*
X415088Y34635D01*
X415388Y34697D01*
X415713Y34710D01*
X415850D01*
X415937Y34697D01*
D02*
G37*
G36*
X401029D02*
X401154Y34685D01*
X401279Y34673D01*
X401429Y34648D01*
X401591Y34610D01*
X401928Y34523D01*
X402104Y34460D01*
X402291Y34385D01*
X402453Y34298D01*
X402628Y34185D01*
X402778Y34073D01*
X402928Y33935D01*
X402941Y33923D01*
X402966Y33898D01*
X403003Y33860D01*
X403041Y33798D01*
X403103Y33710D01*
X403166Y33610D01*
X403228Y33498D01*
X403303Y33360D01*
X403378Y33198D01*
X403441Y33023D01*
X403503Y32836D01*
X403566Y32623D01*
X403603Y32398D01*
X403641Y32148D01*
X403666Y31873D01*
X403678Y31586D01*
Y25212D01*
X402104D01*
Y31061D01*
Y31073D01*
Y31098D01*
Y31148D01*
Y31211D01*
Y31286D01*
X402091Y31386D01*
X402079Y31586D01*
X402066Y31798D01*
X402041Y32023D01*
X401991Y32236D01*
X401941Y32411D01*
X401928Y32436D01*
X401916Y32486D01*
X401879Y32561D01*
X401816Y32661D01*
X401741Y32761D01*
X401641Y32873D01*
X401529Y32985D01*
X401391Y33085D01*
X401379Y33098D01*
X401316Y33123D01*
X401241Y33173D01*
X401129Y33223D01*
X400991Y33260D01*
X400829Y33310D01*
X400654Y33335D01*
X400454Y33348D01*
X400354D01*
X400291Y33335D01*
X400204Y33323D01*
X400104Y33310D01*
X399879Y33260D01*
X399617Y33185D01*
X399342Y33073D01*
X399204Y32998D01*
X399079Y32910D01*
X398942Y32798D01*
X398817Y32685D01*
X398804Y32673D01*
X398792Y32661D01*
X398754Y32611D01*
X398717Y32561D01*
X398667Y32486D01*
X398617Y32411D01*
X398554Y32298D01*
X398504Y32186D01*
X398442Y32048D01*
X398379Y31886D01*
X398330Y31723D01*
X398279Y31536D01*
X398242Y31323D01*
X398204Y31098D01*
X398192Y30861D01*
X398180Y30599D01*
Y25212D01*
X396605D01*
Y31248D01*
Y31261D01*
Y31298D01*
Y31348D01*
Y31423D01*
X396592Y31511D01*
X396580Y31611D01*
X396555Y31836D01*
X396505Y32098D01*
X396442Y32361D01*
X396343Y32611D01*
X396217Y32823D01*
X396205Y32848D01*
X396143Y32910D01*
X396055Y32985D01*
X395918Y33085D01*
X395743Y33185D01*
X395530Y33260D01*
X395268Y33323D01*
X394968Y33348D01*
X394855D01*
X394730Y33335D01*
X394568Y33310D01*
X394380Y33260D01*
X394168Y33198D01*
X393943Y33110D01*
X393731Y32998D01*
X393706Y32985D01*
X393643Y32936D01*
X393543Y32848D01*
X393418Y32736D01*
X393281Y32598D01*
X393156Y32423D01*
X393031Y32211D01*
X392918Y31973D01*
Y31961D01*
X392906Y31948D01*
X392893Y31898D01*
X392881Y31848D01*
X392856Y31773D01*
X392843Y31698D01*
X392818Y31598D01*
X392793Y31473D01*
X392768Y31348D01*
X392743Y31198D01*
X392731Y31036D01*
X392706Y30861D01*
X392693Y30673D01*
X392681Y30474D01*
X392668Y30261D01*
Y30024D01*
Y25212D01*
X391094D01*
Y34498D01*
X392506D01*
Y33210D01*
X392531Y33223D01*
X392556Y33260D01*
X392581Y33310D01*
X392681Y33435D01*
X392818Y33585D01*
X392981Y33760D01*
X393181Y33948D01*
X393406Y34123D01*
X393668Y34285D01*
X393681D01*
X393706Y34298D01*
X393743Y34323D01*
X393793Y34348D01*
X393868Y34385D01*
X393943Y34423D01*
X394143Y34498D01*
X394393Y34573D01*
X394668Y34648D01*
X394980Y34697D01*
X395318Y34710D01*
X395418D01*
X395493Y34697D01*
X395580D01*
X395680Y34685D01*
X395918Y34660D01*
X396180Y34597D01*
X396467Y34523D01*
X396742Y34423D01*
X397005Y34273D01*
X397017D01*
X397030Y34248D01*
X397117Y34198D01*
X397230Y34098D01*
X397367Y33960D01*
X397517Y33798D01*
X397680Y33598D01*
X397817Y33360D01*
X397930Y33085D01*
X397942Y33098D01*
X397980Y33160D01*
X398042Y33235D01*
X398130Y33335D01*
X398242Y33460D01*
X398379Y33598D01*
X398529Y33748D01*
X398704Y33898D01*
X398904Y34048D01*
X399117Y34198D01*
X399354Y34335D01*
X399617Y34460D01*
X399879Y34560D01*
X400179Y34635D01*
X400479Y34697D01*
X400804Y34710D01*
X400941D01*
X401029Y34697D01*
D02*
G37*
G36*
X430109Y29062D02*
X425273D01*
Y30649D01*
X430109D01*
Y29062D01*
D02*
G37*
G36*
X472073Y36510D02*
X467837D01*
Y25213D01*
X466137D01*
Y36510D01*
X461913D01*
Y38022D01*
X472073D01*
Y36510D01*
D02*
G37*
G36*
X442118Y38009D02*
X442268Y37997D01*
X442431Y37984D01*
X442593Y37972D01*
X442968Y37922D01*
X443368Y37859D01*
X443755Y37759D01*
X443930Y37697D01*
X444105Y37622D01*
X444118D01*
X444143Y37609D01*
X444193Y37584D01*
X444255Y37547D01*
X444330Y37509D01*
X444418Y37459D01*
X444618Y37322D01*
X444830Y37159D01*
X445067Y36947D01*
X445292Y36709D01*
X445492Y36422D01*
Y36410D01*
X445517Y36385D01*
X445542Y36347D01*
X445567Y36285D01*
X445617Y36210D01*
X445655Y36122D01*
X445755Y35910D01*
X445842Y35660D01*
X445930Y35372D01*
X445980Y35060D01*
X446005Y34735D01*
Y34722D01*
Y34697D01*
Y34660D01*
X445992Y34598D01*
Y34523D01*
X445980Y34435D01*
X445955Y34235D01*
X445892Y33998D01*
X445817Y33735D01*
X445705Y33460D01*
X445555Y33185D01*
Y33173D01*
X445530Y33148D01*
X445505Y33110D01*
X445467Y33061D01*
X445367Y32936D01*
X445217Y32773D01*
X445030Y32586D01*
X444793Y32386D01*
X444518Y32198D01*
X444205Y32023D01*
X444218D01*
X444255Y32011D01*
X444318Y31986D01*
X444393Y31961D01*
X444493Y31923D01*
X444605Y31873D01*
X444868Y31748D01*
X445155Y31586D01*
X445455Y31386D01*
X445742Y31136D01*
X445867Y30998D01*
X445992Y30849D01*
X446005Y30836D01*
X446017Y30811D01*
X446055Y30761D01*
X446092Y30699D01*
X446142Y30624D01*
X446192Y30536D01*
X446255Y30424D01*
X446317Y30299D01*
X446367Y30161D01*
X446430Y30024D01*
X446530Y29686D01*
X446605Y29324D01*
X446617Y29124D01*
X446630Y28911D01*
Y28899D01*
Y28874D01*
Y28824D01*
Y28762D01*
X446617Y28674D01*
X446605Y28587D01*
X446580Y28362D01*
X446530Y28112D01*
X446467Y27824D01*
X446367Y27537D01*
X446242Y27237D01*
Y27225D01*
X446230Y27199D01*
X446205Y27162D01*
X446180Y27112D01*
X446092Y26974D01*
X445980Y26800D01*
X445855Y26612D01*
X445692Y26412D01*
X445505Y26225D01*
X445305Y26050D01*
X445280Y26037D01*
X445205Y25987D01*
X445080Y25912D01*
X444917Y25812D01*
X444718Y25712D01*
X444468Y25612D01*
X444193Y25512D01*
X443893Y25425D01*
X443880D01*
X443855Y25412D01*
X443805Y25400D01*
X443743Y25387D01*
X443668Y25375D01*
X443568Y25362D01*
X443455Y25337D01*
X443318Y25325D01*
X443181Y25300D01*
X443018Y25275D01*
X442856Y25262D01*
X442668Y25250D01*
X442268Y25225D01*
X441831Y25213D01*
X436957Y25212D01*
Y38022D01*
X441993Y38022D01*
X442118Y38009D01*
D02*
G37*
G36*
X378410Y25212D02*
X376623D01*
Y26999D01*
X378410D01*
Y25212D01*
D02*
G37*
G36*
X371711D02*
X370137D01*
Y35222D01*
X370124D01*
X370112Y35197D01*
X370074Y35172D01*
X370037Y35135D01*
X369912Y35022D01*
X369737Y34885D01*
X369524Y34722D01*
X369262Y34535D01*
X368962Y34335D01*
X368637Y34135D01*
X368625D01*
X368600Y34110D01*
X368550Y34085D01*
X368487Y34048D01*
X368400Y33998D01*
X368312Y33948D01*
X368087Y33835D01*
X367837Y33710D01*
X367562Y33573D01*
X367275Y33448D01*
X367000Y33335D01*
Y34848D01*
X367012Y34860D01*
X367062Y34873D01*
X367125Y34910D01*
X367225Y34960D01*
X367337Y35022D01*
X367462Y35097D01*
X367612Y35172D01*
X367775Y35272D01*
X368137Y35485D01*
X368525Y35747D01*
X368912Y36035D01*
X369299Y36347D01*
X369312Y36360D01*
X369337Y36385D01*
X369399Y36435D01*
X369462Y36497D01*
X369537Y36584D01*
X369637Y36672D01*
X369737Y36785D01*
X369849Y36897D01*
X370074Y37159D01*
X370299Y37447D01*
X370512Y37759D01*
X370612Y37909D01*
X370686Y38072D01*
X371711D01*
Y25212D01*
D02*
G37*
G36*
X454878Y38234D02*
X455027Y38222D01*
X455215Y38197D01*
X455415Y38172D01*
X455640Y38147D01*
X455890Y38097D01*
X456140Y38034D01*
X456402Y37972D01*
X456677Y37884D01*
X456952Y37797D01*
X457227Y37672D01*
X457502Y37547D01*
X457777Y37397D01*
X457789Y37384D01*
X457839Y37359D01*
X457914Y37309D01*
X458014Y37247D01*
X458127Y37159D01*
X458264Y37047D01*
X458414Y36922D01*
X458589Y36785D01*
X458751Y36622D01*
X458939Y36447D01*
X459114Y36247D01*
X459301Y36035D01*
X459476Y35810D01*
X459639Y35560D01*
X459801Y35297D01*
X459951Y35022D01*
X459964Y35010D01*
X459989Y34960D01*
X460026Y34873D01*
X460064Y34760D01*
X460126Y34610D01*
X460189Y34448D01*
X460251Y34248D01*
X460326Y34023D01*
X460401Y33785D01*
X460463Y33523D01*
X460526Y33235D01*
X460588Y32936D01*
X460626Y32623D01*
X460663Y32298D01*
X460689Y31948D01*
X460701Y31598D01*
Y31573D01*
Y31511D01*
Y31411D01*
X460689Y31273D01*
X460676Y31098D01*
X460663Y30898D01*
X460639Y30674D01*
X460601Y30436D01*
X460564Y30174D01*
X460513Y29886D01*
X460451Y29599D01*
X460364Y29311D01*
X460276Y28999D01*
X460176Y28699D01*
X460051Y28399D01*
X459914Y28112D01*
X459901Y28099D01*
X459876Y28049D01*
X459826Y27962D01*
X459764Y27862D01*
X459689Y27737D01*
X459589Y27587D01*
X459476Y27424D01*
X459339Y27250D01*
X459189Y27062D01*
X459026Y26874D01*
X458839Y26675D01*
X458639Y26487D01*
X458427Y26300D01*
X458189Y26112D01*
X457939Y25950D01*
X457677Y25787D01*
X457664Y25775D01*
X457614Y25750D01*
X457539Y25712D01*
X457427Y25662D01*
X457289Y25600D01*
X457139Y25537D01*
X456952Y25462D01*
X456752Y25400D01*
X456527Y25325D01*
X456290Y25250D01*
X456027Y25187D01*
X455752Y25125D01*
X455477Y25075D01*
X455177Y25038D01*
X454878Y25013D01*
X454565Y25000D01*
X454390D01*
X454265Y25013D01*
X454103Y25025D01*
X453915Y25050D01*
X453715Y25075D01*
X453478Y25113D01*
X453240Y25150D01*
X452978Y25213D01*
X452715Y25275D01*
X452441Y25362D01*
X452153Y25462D01*
X451878Y25575D01*
X451603Y25712D01*
X451328Y25862D01*
X451316Y25875D01*
X451266Y25900D01*
X451191Y25950D01*
X451091Y26025D01*
X450979Y26112D01*
X450841Y26225D01*
X450691Y26350D01*
X450529Y26487D01*
X450354Y26650D01*
X450179Y26825D01*
X449991Y27025D01*
X449816Y27237D01*
X449641Y27462D01*
X449466Y27712D01*
X449316Y27974D01*
X449166Y28249D01*
X449154Y28262D01*
X449141Y28312D01*
X449104Y28399D01*
X449054Y28512D01*
X449004Y28649D01*
X448941Y28812D01*
X448867Y29011D01*
X448804Y29211D01*
X448741Y29449D01*
X448667Y29699D01*
X448604Y29961D01*
X448554Y30236D01*
X448504Y30524D01*
X448479Y30824D01*
X448454Y31136D01*
X448442Y31448D01*
Y31461D01*
Y31486D01*
Y31523D01*
Y31586D01*
X448454Y31661D01*
Y31761D01*
Y31861D01*
X448467Y31973D01*
X448492Y32248D01*
X448529Y32548D01*
X448592Y32898D01*
X448654Y33273D01*
X448741Y33660D01*
X448854Y34073D01*
X449004Y34485D01*
X449166Y34897D01*
X449366Y35310D01*
X449591Y35710D01*
X449854Y36085D01*
X450154Y36435D01*
X450179Y36460D01*
X450229Y36510D01*
X450329Y36597D01*
X450466Y36722D01*
X450629Y36860D01*
X450841Y37009D01*
X451078Y37172D01*
X451353Y37347D01*
X451653Y37509D01*
X451991Y37672D01*
X452353Y37822D01*
X452741Y37959D01*
X453165Y38084D01*
X453615Y38172D01*
X454078Y38222D01*
X454578Y38247D01*
X454753D01*
X454878Y38234D01*
D02*
G37*
G36*
X385145Y38059D02*
X385245Y38047D01*
X385370Y38034D01*
X385495Y38022D01*
X385770Y37972D01*
X386070Y37897D01*
X386382Y37784D01*
X386682Y37647D01*
X386695D01*
X386720Y37622D01*
X386757Y37609D01*
X386820Y37572D01*
X386957Y37472D01*
X387145Y37347D01*
X387345Y37172D01*
X387557Y36972D01*
X387770Y36722D01*
X387970Y36447D01*
Y36435D01*
X387995Y36410D01*
X388020Y36372D01*
X388057Y36310D01*
X388095Y36235D01*
X388145Y36147D01*
X388195Y36035D01*
X388257Y35922D01*
X388320Y35785D01*
X388382Y35647D01*
X388507Y35322D01*
X388644Y34948D01*
X388757Y34548D01*
Y34535D01*
X388769Y34498D01*
X388782Y34435D01*
X388807Y34348D01*
X388832Y34235D01*
X388857Y34098D01*
X388882Y33935D01*
X388907Y33748D01*
X388932Y33548D01*
X388957Y33310D01*
X388982Y33073D01*
X389007Y32798D01*
X389032Y32511D01*
X389044Y32198D01*
X389057Y31873D01*
Y31523D01*
Y31498D01*
Y31423D01*
Y31311D01*
X389044Y31148D01*
Y30961D01*
X389032Y30736D01*
X389019Y30499D01*
X388994Y30224D01*
X388969Y29936D01*
X388944Y29649D01*
X388857Y29037D01*
X388744Y28437D01*
X388669Y28162D01*
X388582Y27887D01*
Y27874D01*
X388557Y27824D01*
X388532Y27749D01*
X388494Y27662D01*
X388445Y27537D01*
X388382Y27412D01*
X388320Y27262D01*
X388232Y27099D01*
X388045Y26762D01*
X387807Y26400D01*
X387520Y26062D01*
X387357Y25900D01*
X387195Y25750D01*
X387182Y25737D01*
X387157Y25712D01*
X387107Y25675D01*
X387032Y25637D01*
X386945Y25575D01*
X386832Y25512D01*
X386707Y25450D01*
X386570Y25375D01*
X386408Y25300D01*
X386233Y25237D01*
X386045Y25175D01*
X385833Y25113D01*
X385620Y25075D01*
X385383Y25038D01*
X385145Y25013D01*
X384883Y25000D01*
X384795D01*
X384708Y25013D01*
X384571Y25025D01*
X384421Y25038D01*
X384233Y25075D01*
X384033Y25113D01*
X383821Y25162D01*
X383596Y25237D01*
X383358Y25325D01*
X383108Y25425D01*
X382871Y25550D01*
X382634Y25700D01*
X382396Y25875D01*
X382171Y26087D01*
X381971Y26312D01*
X381959Y26337D01*
X381921Y26387D01*
X381859Y26487D01*
X381771Y26625D01*
X381684Y26799D01*
X381571Y27012D01*
X381459Y27274D01*
X381346Y27574D01*
X381221Y27912D01*
X381109Y28299D01*
X380996Y28724D01*
X380909Y29186D01*
X380821Y29711D01*
X380759Y30261D01*
X380722Y30873D01*
X380709Y31523D01*
Y31536D01*
Y31548D01*
Y31623D01*
Y31748D01*
X380722Y31898D01*
Y32098D01*
X380734Y32311D01*
X380746Y32561D01*
X380771Y32836D01*
X380796Y33123D01*
X380821Y33423D01*
X380909Y34023D01*
X381021Y34635D01*
X381096Y34910D01*
X381171Y35185D01*
Y35197D01*
X381196Y35247D01*
X381221Y35322D01*
X381259Y35410D01*
X381309Y35535D01*
X381371Y35660D01*
X381434Y35810D01*
X381521Y35972D01*
X381709Y36322D01*
X381946Y36672D01*
X382234Y37009D01*
X382396Y37172D01*
X382559Y37322D01*
X382571Y37334D01*
X382596Y37359D01*
X382659Y37397D01*
X382721Y37434D01*
X382821Y37497D01*
X382921Y37559D01*
X383058Y37622D01*
X383196Y37697D01*
X383358Y37772D01*
X383533Y37834D01*
X383721Y37897D01*
X383933Y37959D01*
X384146Y37997D01*
X384383Y38034D01*
X384621Y38059D01*
X384883Y38072D01*
X385058D01*
X385145Y38059D01*
D02*
G37*
G36*
X417150Y53866D02*
X417275Y53854D01*
X417400Y53841D01*
X417550Y53816D01*
X417712Y53779D01*
X418049Y53691D01*
X418224Y53629D01*
X418412Y53554D01*
X418574Y53466D01*
X418749Y53354D01*
X418899Y53242D01*
X419049Y53104D01*
X419062Y53092D01*
X419087Y53067D01*
X419124Y53029D01*
X419162Y52967D01*
X419224Y52879D01*
X419287Y52779D01*
X419349Y52667D01*
X419424Y52529D01*
X419499Y52367D01*
X419562Y52192D01*
X419624Y52004D01*
X419687Y51792D01*
X419724Y51567D01*
X419762Y51317D01*
X419786Y51042D01*
X419799Y50755D01*
Y44381D01*
X418224D01*
Y50230D01*
Y50242D01*
Y50267D01*
Y50317D01*
Y50380D01*
Y50455D01*
X418212Y50555D01*
X418199Y50755D01*
X418187Y50967D01*
X418162Y51192D01*
X418112Y51405D01*
X418062Y51579D01*
X418049Y51604D01*
X418037Y51654D01*
X417999Y51729D01*
X417937Y51829D01*
X417862Y51929D01*
X417762Y52042D01*
X417649Y52154D01*
X417512Y52254D01*
X417500Y52267D01*
X417437Y52292D01*
X417362Y52342D01*
X417250Y52392D01*
X417112Y52429D01*
X416950Y52479D01*
X416775Y52504D01*
X416575Y52517D01*
X416475D01*
X416412Y52504D01*
X416325Y52492D01*
X416225Y52479D01*
X416000Y52429D01*
X415737Y52354D01*
X415463Y52242D01*
X415325Y52167D01*
X415200Y52079D01*
X415063Y51967D01*
X414938Y51854D01*
X414925Y51842D01*
X414913Y51829D01*
X414875Y51779D01*
X414838Y51729D01*
X414788Y51654D01*
X414738Y51579D01*
X414675Y51467D01*
X414625Y51354D01*
X414563Y51217D01*
X414500Y51055D01*
X414450Y50892D01*
X414400Y50705D01*
X414363Y50492D01*
X414325Y50267D01*
X414313Y50030D01*
X414300Y49767D01*
Y44381D01*
X412726D01*
Y50417D01*
Y50430D01*
Y50467D01*
Y50517D01*
Y50592D01*
X412713Y50680D01*
X412701Y50780D01*
X412676Y51005D01*
X412626Y51267D01*
X412563Y51529D01*
X412463Y51779D01*
X412338Y51992D01*
X412326Y52017D01*
X412263Y52079D01*
X412176Y52154D01*
X412038Y52254D01*
X411864Y52354D01*
X411651Y52429D01*
X411389Y52492D01*
X411089Y52517D01*
X410976D01*
X410851Y52504D01*
X410689Y52479D01*
X410501Y52429D01*
X410289Y52367D01*
X410064Y52279D01*
X409851Y52167D01*
X409827Y52154D01*
X409764Y52104D01*
X409664Y52017D01*
X409539Y51904D01*
X409402Y51767D01*
X409277Y51592D01*
X409152Y51379D01*
X409039Y51142D01*
Y51129D01*
X409027Y51117D01*
X409014Y51067D01*
X409002Y51017D01*
X408977Y50942D01*
X408964Y50867D01*
X408939Y50767D01*
X408914Y50642D01*
X408889Y50517D01*
X408864Y50367D01*
X408852Y50205D01*
X408827Y50030D01*
X408814Y49842D01*
X408802Y49642D01*
X408789Y49430D01*
Y49193D01*
Y44381D01*
X407215D01*
Y53666D01*
X408627D01*
Y52379D01*
X408652Y52392D01*
X408677Y52429D01*
X408702Y52479D01*
X408802Y52604D01*
X408939Y52754D01*
X409102Y52929D01*
X409302Y53116D01*
X409527Y53292D01*
X409789Y53454D01*
X409801D01*
X409827Y53466D01*
X409864Y53491D01*
X409914Y53516D01*
X409989Y53554D01*
X410064Y53591D01*
X410264Y53666D01*
X410514Y53741D01*
X410789Y53816D01*
X411101Y53866D01*
X411439Y53879D01*
X411539D01*
X411614Y53866D01*
X411701D01*
X411801Y53854D01*
X412038Y53829D01*
X412301Y53766D01*
X412588Y53691D01*
X412863Y53591D01*
X413126Y53441D01*
X413138D01*
X413151Y53417D01*
X413238Y53366D01*
X413351Y53267D01*
X413488Y53129D01*
X413638Y52967D01*
X413801Y52767D01*
X413938Y52529D01*
X414050Y52254D01*
X414063Y52267D01*
X414100Y52329D01*
X414163Y52404D01*
X414250Y52504D01*
X414363Y52629D01*
X414500Y52767D01*
X414650Y52917D01*
X414825Y53067D01*
X415025Y53217D01*
X415238Y53366D01*
X415475Y53504D01*
X415737Y53629D01*
X416000Y53729D01*
X416300Y53804D01*
X416600Y53866D01*
X416925Y53879D01*
X417062D01*
X417150Y53866D01*
D02*
G37*
G36*
X402241D02*
X402366Y53854D01*
X402491Y53841D01*
X402641Y53816D01*
X402803Y53779D01*
X403141Y53691D01*
X403316Y53629D01*
X403503Y53554D01*
X403666Y53466D01*
X403840Y53354D01*
X403991Y53242D01*
X404141Y53104D01*
X404153Y53092D01*
X404178Y53067D01*
X404215Y53029D01*
X404253Y52967D01*
X404315Y52879D01*
X404378Y52779D01*
X404440Y52667D01*
X404515Y52529D01*
X404590Y52367D01*
X404653Y52192D01*
X404715Y52004D01*
X404778Y51792D01*
X404815Y51567D01*
X404853Y51317D01*
X404878Y51042D01*
X404890Y50755D01*
Y44381D01*
X403316D01*
Y50230D01*
Y50242D01*
Y50267D01*
Y50317D01*
Y50380D01*
Y50455D01*
X403303Y50555D01*
X403291Y50755D01*
X403278Y50967D01*
X403253Y51192D01*
X403203Y51405D01*
X403153Y51579D01*
X403141Y51604D01*
X403128Y51654D01*
X403091Y51729D01*
X403028Y51829D01*
X402953Y51929D01*
X402853Y52042D01*
X402741Y52154D01*
X402603Y52254D01*
X402591Y52267D01*
X402528Y52292D01*
X402453Y52342D01*
X402341Y52392D01*
X402203Y52429D01*
X402041Y52479D01*
X401866Y52504D01*
X401666Y52517D01*
X401566D01*
X401504Y52504D01*
X401416Y52492D01*
X401316Y52479D01*
X401091Y52429D01*
X400829Y52354D01*
X400554Y52242D01*
X400416Y52167D01*
X400291Y52079D01*
X400154Y51967D01*
X400029Y51854D01*
X400017Y51842D01*
X400004Y51829D01*
X399967Y51779D01*
X399929Y51729D01*
X399879Y51654D01*
X399829Y51579D01*
X399767Y51467D01*
X399717Y51354D01*
X399654Y51217D01*
X399592Y51055D01*
X399542Y50892D01*
X399492Y50705D01*
X399454Y50492D01*
X399417Y50267D01*
X399404Y50030D01*
X399392Y49767D01*
Y44381D01*
X397817D01*
Y50417D01*
Y50430D01*
Y50467D01*
Y50517D01*
Y50592D01*
X397805Y50680D01*
X397792Y50780D01*
X397767Y51005D01*
X397717Y51267D01*
X397655Y51529D01*
X397555Y51779D01*
X397430Y51992D01*
X397417Y52017D01*
X397355Y52079D01*
X397267Y52154D01*
X397130Y52254D01*
X396955Y52354D01*
X396742Y52429D01*
X396480Y52492D01*
X396180Y52517D01*
X396068D01*
X395943Y52504D01*
X395780Y52479D01*
X395593Y52429D01*
X395380Y52367D01*
X395155Y52279D01*
X394943Y52167D01*
X394918Y52154D01*
X394855Y52104D01*
X394755Y52017D01*
X394630Y51904D01*
X394493Y51767D01*
X394368Y51592D01*
X394243Y51379D01*
X394131Y51142D01*
Y51129D01*
X394118Y51117D01*
X394105Y51067D01*
X394093Y51017D01*
X394068Y50942D01*
X394055Y50867D01*
X394031Y50767D01*
X394006Y50642D01*
X393981Y50517D01*
X393956Y50367D01*
X393943Y50205D01*
X393918Y50030D01*
X393906Y49842D01*
X393893Y49642D01*
X393881Y49430D01*
Y49193D01*
Y44381D01*
X392306D01*
Y53666D01*
X393718D01*
Y52379D01*
X393743Y52392D01*
X393768Y52429D01*
X393793Y52479D01*
X393893Y52604D01*
X394031Y52754D01*
X394193Y52929D01*
X394393Y53116D01*
X394618Y53292D01*
X394880Y53454D01*
X394893D01*
X394918Y53466D01*
X394955Y53491D01*
X395005Y53516D01*
X395080Y53554D01*
X395155Y53591D01*
X395355Y53666D01*
X395605Y53741D01*
X395880Y53816D01*
X396193Y53866D01*
X396530Y53879D01*
X396630D01*
X396705Y53866D01*
X396792D01*
X396892Y53854D01*
X397130Y53829D01*
X397392Y53766D01*
X397680Y53691D01*
X397955Y53591D01*
X398217Y53441D01*
X398229D01*
X398242Y53417D01*
X398330Y53366D01*
X398442Y53267D01*
X398579Y53129D01*
X398729Y52967D01*
X398892Y52767D01*
X399029Y52529D01*
X399142Y52254D01*
X399154Y52267D01*
X399192Y52329D01*
X399254Y52404D01*
X399342Y52504D01*
X399454Y52629D01*
X399592Y52767D01*
X399742Y52917D01*
X399916Y53067D01*
X400117Y53217D01*
X400329Y53366D01*
X400566Y53504D01*
X400829Y53629D01*
X401091Y53729D01*
X401391Y53804D01*
X401691Y53866D01*
X402016Y53879D01*
X402154D01*
X402241Y53866D01*
D02*
G37*
G36*
X431321Y48230D02*
X426485D01*
Y49817D01*
X431321D01*
Y48230D01*
D02*
G37*
G36*
X389819Y55528D02*
X384683D01*
X383996Y52067D01*
X384008Y52079D01*
X384046Y52104D01*
X384108Y52142D01*
X384196Y52192D01*
X384296Y52254D01*
X384433Y52329D01*
X384571Y52392D01*
X384733Y52479D01*
X384908Y52554D01*
X385095Y52617D01*
X385508Y52754D01*
X385720Y52804D01*
X385945Y52842D01*
X386183Y52867D01*
X386420Y52879D01*
X386495D01*
X386582Y52867D01*
X386707D01*
X386845Y52842D01*
X387020Y52817D01*
X387207Y52779D01*
X387407Y52729D01*
X387620Y52667D01*
X387857Y52592D01*
X388095Y52504D01*
X388332Y52392D01*
X388569Y52254D01*
X388807Y52104D01*
X389032Y51917D01*
X389257Y51717D01*
X389269Y51704D01*
X389307Y51667D01*
X389369Y51592D01*
X389444Y51504D01*
X389532Y51392D01*
X389619Y51255D01*
X389732Y51092D01*
X389844Y50905D01*
X389944Y50705D01*
X390057Y50480D01*
X390144Y50230D01*
X390244Y49967D01*
X390307Y49680D01*
X390369Y49380D01*
X390406Y49055D01*
X390419Y48718D01*
Y48693D01*
Y48643D01*
X390406Y48555D01*
Y48430D01*
X390394Y48280D01*
X390369Y48105D01*
X390331Y47905D01*
X390294Y47693D01*
X390232Y47468D01*
X390169Y47218D01*
X390082Y46968D01*
X389982Y46718D01*
X389869Y46468D01*
X389732Y46206D01*
X389569Y45956D01*
X389394Y45718D01*
X389382Y45706D01*
X389332Y45656D01*
X389269Y45581D01*
X389169Y45481D01*
X389044Y45356D01*
X388894Y45231D01*
X388719Y45094D01*
X388520Y44944D01*
X388282Y44794D01*
X388032Y44656D01*
X387757Y44531D01*
X387457Y44406D01*
X387132Y44306D01*
X386795Y44231D01*
X386420Y44181D01*
X386033Y44169D01*
X385958D01*
X385870Y44181D01*
X385745D01*
X385595Y44194D01*
X385420Y44219D01*
X385233Y44256D01*
X385020Y44294D01*
X384795Y44344D01*
X384571Y44406D01*
X384333Y44481D01*
X384083Y44581D01*
X383846Y44694D01*
X383608Y44819D01*
X383383Y44969D01*
X383171Y45144D01*
X383158Y45156D01*
X383121Y45194D01*
X383071Y45244D01*
X382996Y45318D01*
X382908Y45419D01*
X382821Y45543D01*
X382709Y45681D01*
X382608Y45831D01*
X382496Y46006D01*
X382383Y46206D01*
X382284Y46418D01*
X382184Y46656D01*
X382096Y46906D01*
X382021Y47168D01*
X381959Y47443D01*
X381921Y47743D01*
X383571Y47880D01*
Y47868D01*
X383583Y47830D01*
X383596Y47768D01*
X383608Y47680D01*
X383633Y47580D01*
X383658Y47468D01*
X383746Y47193D01*
X383858Y46906D01*
X383996Y46606D01*
X384183Y46306D01*
X384296Y46181D01*
X384408Y46056D01*
X384421Y46043D01*
X384445Y46031D01*
X384483Y46006D01*
X384533Y45968D01*
X384595Y45918D01*
X384670Y45868D01*
X384870Y45756D01*
X385108Y45643D01*
X385383Y45556D01*
X385695Y45481D01*
X385858Y45469D01*
X386033Y45456D01*
X386145D01*
X386220Y45469D01*
X386320Y45481D01*
X386432Y45506D01*
X386558Y45531D01*
X386695Y45568D01*
X387007Y45668D01*
X387157Y45731D01*
X387320Y45818D01*
X387482Y45918D01*
X387645Y46031D01*
X387807Y46156D01*
X387957Y46306D01*
X387970Y46318D01*
X387995Y46343D01*
X388032Y46393D01*
X388082Y46468D01*
X388145Y46543D01*
X388207Y46656D01*
X388282Y46781D01*
X388357Y46918D01*
X388419Y47068D01*
X388494Y47243D01*
X388557Y47431D01*
X388619Y47630D01*
X388669Y47843D01*
X388707Y48080D01*
X388732Y48318D01*
X388744Y48580D01*
Y48593D01*
Y48643D01*
Y48705D01*
X388732Y48805D01*
X388719Y48918D01*
X388707Y49043D01*
X388682Y49193D01*
X388644Y49355D01*
X388557Y49692D01*
X388494Y49867D01*
X388419Y50042D01*
X388332Y50217D01*
X388232Y50392D01*
X388120Y50555D01*
X387982Y50705D01*
X387970Y50717D01*
X387945Y50742D01*
X387907Y50780D01*
X387845Y50830D01*
X387770Y50892D01*
X387682Y50955D01*
X387570Y51030D01*
X387457Y51104D01*
X387320Y51167D01*
X387170Y51242D01*
X387007Y51304D01*
X386832Y51367D01*
X386632Y51417D01*
X386432Y51455D01*
X386220Y51479D01*
X385995Y51492D01*
X385870D01*
X385795Y51479D01*
X385720D01*
X385533Y51455D01*
X385320Y51405D01*
X385095Y51342D01*
X384858Y51255D01*
X384621Y51142D01*
X384608D01*
X384595Y51129D01*
X384520Y51080D01*
X384408Y51005D01*
X384283Y50905D01*
X384121Y50767D01*
X383971Y50617D01*
X383808Y50442D01*
X383671Y50255D01*
X382196Y50442D01*
X383433Y57028D01*
X389819D01*
Y55528D01*
D02*
G37*
G36*
X468487Y57178D02*
X468637D01*
X468949Y57165D01*
X469274Y57140D01*
X469586Y57103D01*
X469736Y57091D01*
X469861Y57066D01*
X469874D01*
X469899Y57053D01*
X469949D01*
X470024Y57028D01*
X470099Y57016D01*
X470199Y56991D01*
X470411Y56928D01*
X470661Y56853D01*
X470936Y56741D01*
X471198Y56616D01*
X471448Y56466D01*
X471461D01*
X471473Y56441D01*
X471548Y56391D01*
X471673Y56291D01*
X471811Y56153D01*
X471973Y55966D01*
X472148Y55766D01*
X472323Y55516D01*
X472473Y55229D01*
Y55216D01*
X472486Y55191D01*
X472510Y55153D01*
X472536Y55091D01*
X472560Y55016D01*
X472598Y54929D01*
X472635Y54829D01*
X472673Y54716D01*
X472748Y54454D01*
X472810Y54154D01*
X472860Y53829D01*
X472873Y53479D01*
Y53467D01*
Y53404D01*
X472860Y53316D01*
Y53204D01*
X472835Y53067D01*
X472823Y52904D01*
X472785Y52729D01*
X472748Y52529D01*
X472685Y52317D01*
X472623Y52092D01*
X472536Y51867D01*
X472435Y51629D01*
X472310Y51392D01*
X472173Y51167D01*
X472011Y50942D01*
X471823Y50717D01*
X471811Y50705D01*
X471773Y50667D01*
X471711Y50617D01*
X471623Y50542D01*
X471498Y50455D01*
X471348Y50367D01*
X471173Y50255D01*
X470961Y50155D01*
X470723Y50055D01*
X470448Y49955D01*
X470149Y49855D01*
X469799Y49767D01*
X469424Y49692D01*
X469011Y49642D01*
X468562Y49605D01*
X468074Y49592D01*
X464787D01*
Y44381D01*
X463088D01*
Y57190D01*
X468349D01*
X468487Y57178D01*
D02*
G37*
G36*
X447429Y55678D02*
X443193D01*
Y44381D01*
X441493D01*
Y55678D01*
X437270Y55678D01*
Y57190D01*
X447429Y57190D01*
Y55678D01*
D02*
G37*
G36*
X379622Y44381D02*
X377835D01*
Y46168D01*
X379622D01*
Y44381D01*
D02*
G37*
G36*
X455090Y57403D02*
X455240Y57390D01*
X455427Y57365D01*
X455627Y57340D01*
X455852Y57316D01*
X456102Y57266D01*
X456352Y57203D01*
X456614Y57140D01*
X456889Y57053D01*
X457164Y56966D01*
X457439Y56841D01*
X457714Y56716D01*
X457989Y56566D01*
X458002Y56553D01*
X458052Y56528D01*
X458127Y56478D01*
X458227Y56416D01*
X458339Y56328D01*
X458477Y56216D01*
X458627Y56091D01*
X458801Y55953D01*
X458964Y55791D01*
X459151Y55616D01*
X459326Y55416D01*
X459514Y55203D01*
X459689Y54979D01*
X459851Y54729D01*
X460014Y54466D01*
X460164Y54191D01*
X460176Y54179D01*
X460201Y54129D01*
X460239Y54041D01*
X460276Y53929D01*
X460339Y53779D01*
X460401Y53616D01*
X460463Y53417D01*
X460538Y53191D01*
X460614Y52954D01*
X460676Y52692D01*
X460738Y52404D01*
X460801Y52104D01*
X460838Y51792D01*
X460876Y51467D01*
X460901Y51117D01*
X460913Y50767D01*
Y50742D01*
Y50680D01*
Y50580D01*
X460901Y50442D01*
X460888Y50267D01*
X460876Y50067D01*
X460851Y49842D01*
X460813Y49605D01*
X460776Y49342D01*
X460726Y49055D01*
X460663Y48768D01*
X460576Y48480D01*
X460489Y48168D01*
X460389Y47868D01*
X460264Y47568D01*
X460126Y47281D01*
X460114Y47268D01*
X460089Y47218D01*
X460039Y47131D01*
X459976Y47031D01*
X459901Y46906D01*
X459801Y46756D01*
X459689Y46593D01*
X459551Y46418D01*
X459401Y46231D01*
X459239Y46043D01*
X459051Y45843D01*
X458852Y45656D01*
X458639Y45469D01*
X458402Y45281D01*
X458152Y45119D01*
X457889Y44956D01*
X457877Y44944D01*
X457827Y44919D01*
X457752Y44881D01*
X457639Y44831D01*
X457502Y44769D01*
X457352Y44706D01*
X457164Y44631D01*
X456964Y44569D01*
X456740Y44494D01*
X456502Y44419D01*
X456240Y44356D01*
X455965Y44294D01*
X455690Y44244D01*
X455390Y44206D01*
X455090Y44181D01*
X454777Y44169D01*
X454603D01*
X454478Y44181D01*
X454315Y44194D01*
X454128Y44219D01*
X453928Y44244D01*
X453690Y44281D01*
X453453Y44319D01*
X453190Y44381D01*
X452928Y44444D01*
X452653Y44531D01*
X452366Y44631D01*
X452091Y44744D01*
X451816Y44881D01*
X451541Y45031D01*
X451528Y45044D01*
X451478Y45069D01*
X451403Y45119D01*
X451303Y45194D01*
X451191Y45281D01*
X451054Y45394D01*
X450904Y45518D01*
X450741Y45656D01*
X450566Y45818D01*
X450391Y45993D01*
X450204Y46193D01*
X450029Y46406D01*
X449854Y46631D01*
X449679Y46881D01*
X449529Y47143D01*
X449379Y47418D01*
X449366Y47431D01*
X449354Y47481D01*
X449316Y47568D01*
X449266Y47680D01*
X449216Y47818D01*
X449154Y47980D01*
X449079Y48180D01*
X449016Y48380D01*
X448954Y48618D01*
X448879Y48868D01*
X448816Y49130D01*
X448767Y49405D01*
X448717Y49692D01*
X448692Y49992D01*
X448667Y50305D01*
X448654Y50617D01*
Y50630D01*
Y50655D01*
Y50692D01*
Y50755D01*
X448667Y50830D01*
Y50930D01*
Y51030D01*
X448679Y51142D01*
X448704Y51417D01*
X448741Y51717D01*
X448804Y52067D01*
X448867Y52442D01*
X448954Y52829D01*
X449067Y53242D01*
X449216Y53654D01*
X449379Y54066D01*
X449579Y54479D01*
X449804Y54879D01*
X450066Y55254D01*
X450366Y55603D01*
X450391Y55628D01*
X450441Y55678D01*
X450541Y55766D01*
X450679Y55891D01*
X450841Y56028D01*
X451054Y56178D01*
X451291Y56341D01*
X451566Y56516D01*
X451866Y56678D01*
X452203Y56841D01*
X452566Y56991D01*
X452953Y57128D01*
X453378Y57253D01*
X453828Y57340D01*
X454290Y57390D01*
X454790Y57415D01*
X454965D01*
X455090Y57403D01*
D02*
G37*
G36*
X371436Y57228D02*
X371536Y57215D01*
X371661Y57203D01*
X371786Y57190D01*
X372061Y57140D01*
X372361Y57066D01*
X372673Y56953D01*
X372973Y56816D01*
X372986D01*
X373011Y56791D01*
X373048Y56778D01*
X373111Y56741D01*
X373248Y56641D01*
X373436Y56516D01*
X373636Y56341D01*
X373848Y56141D01*
X374061Y55891D01*
X374261Y55616D01*
Y55603D01*
X374286Y55578D01*
X374311Y55541D01*
X374348Y55478D01*
X374386Y55403D01*
X374436Y55316D01*
X374486Y55203D01*
X374548Y55091D01*
X374610Y54954D01*
X374673Y54816D01*
X374798Y54491D01*
X374935Y54116D01*
X375048Y53716D01*
Y53704D01*
X375060Y53666D01*
X375073Y53604D01*
X375098Y53516D01*
X375123Y53404D01*
X375148Y53267D01*
X375173Y53104D01*
X375198Y52917D01*
X375223Y52717D01*
X375248Y52479D01*
X375273Y52242D01*
X375298Y51967D01*
X375323Y51679D01*
X375335Y51367D01*
X375348Y51042D01*
Y50692D01*
Y50667D01*
Y50592D01*
Y50480D01*
X375335Y50317D01*
Y50130D01*
X375323Y49905D01*
X375310Y49667D01*
X375285Y49392D01*
X375260Y49105D01*
X375235Y48818D01*
X375148Y48205D01*
X375035Y47605D01*
X374960Y47330D01*
X374873Y47056D01*
Y47043D01*
X374848Y46993D01*
X374823Y46918D01*
X374785Y46831D01*
X374735Y46706D01*
X374673Y46581D01*
X374610Y46431D01*
X374523Y46268D01*
X374336Y45931D01*
X374098Y45568D01*
X373811Y45231D01*
X373648Y45069D01*
X373486Y44919D01*
X373473Y44906D01*
X373448Y44881D01*
X373398Y44844D01*
X373323Y44806D01*
X373236Y44744D01*
X373123Y44681D01*
X372998Y44619D01*
X372861Y44544D01*
X372699Y44469D01*
X372524Y44406D01*
X372336Y44344D01*
X372124Y44281D01*
X371911Y44244D01*
X371674Y44206D01*
X371436Y44181D01*
X371174Y44169D01*
X371086D01*
X370999Y44181D01*
X370862Y44194D01*
X370712Y44206D01*
X370524Y44244D01*
X370324Y44281D01*
X370112Y44331D01*
X369887Y44406D01*
X369649Y44494D01*
X369399Y44594D01*
X369162Y44719D01*
X368924Y44869D01*
X368687Y45044D01*
X368462Y45256D01*
X368262Y45481D01*
X368250Y45506D01*
X368212Y45556D01*
X368150Y45656D01*
X368062Y45793D01*
X367975Y45968D01*
X367862Y46181D01*
X367750Y46443D01*
X367637Y46743D01*
X367512Y47081D01*
X367400Y47468D01*
X367287Y47893D01*
X367200Y48355D01*
X367112Y48880D01*
X367050Y49430D01*
X367012Y50042D01*
X367000Y50692D01*
Y50705D01*
Y50717D01*
Y50792D01*
Y50917D01*
X367012Y51067D01*
Y51267D01*
X367025Y51479D01*
X367038Y51729D01*
X367062Y52004D01*
X367088Y52292D01*
X367112Y52592D01*
X367200Y53191D01*
X367312Y53804D01*
X367387Y54079D01*
X367462Y54354D01*
Y54366D01*
X367487Y54416D01*
X367512Y54491D01*
X367550Y54579D01*
X367600Y54704D01*
X367662Y54829D01*
X367725Y54979D01*
X367812Y55141D01*
X368000Y55491D01*
X368237Y55841D01*
X368525Y56178D01*
X368687Y56341D01*
X368849Y56491D01*
X368862Y56503D01*
X368887Y56528D01*
X368950Y56566D01*
X369012Y56603D01*
X369112Y56666D01*
X369212Y56728D01*
X369349Y56791D01*
X369487Y56866D01*
X369649Y56941D01*
X369824Y57003D01*
X370012Y57066D01*
X370224Y57128D01*
X370437Y57165D01*
X370674Y57203D01*
X370911Y57228D01*
X371174Y57241D01*
X371349D01*
X371436Y57228D01*
D02*
G37*
G36*
X402628Y74559D02*
X401054D01*
Y76371D01*
X402628D01*
Y74559D01*
D02*
G37*
G36*
X395418Y73047D02*
X395518D01*
X395643Y73022D01*
X395780Y73009D01*
X395930Y72984D01*
X396255Y72909D01*
X396605Y72797D01*
X396780Y72734D01*
X396955Y72647D01*
X397130Y72559D01*
X397305Y72447D01*
X397317Y72434D01*
X397342Y72422D01*
X397392Y72384D01*
X397455Y72334D01*
X397530Y72272D01*
X397617Y72197D01*
X397717Y72109D01*
X397817Y71997D01*
X397930Y71884D01*
X398042Y71760D01*
X398154Y71610D01*
X398267Y71459D01*
X398379Y71285D01*
X398492Y71110D01*
X398679Y70710D01*
Y70697D01*
X398704Y70660D01*
X398729Y70597D01*
X398754Y70510D01*
X398792Y70410D01*
X398829Y70285D01*
X398867Y70147D01*
X398917Y69985D01*
X398967Y69810D01*
X399004Y69623D01*
X399042Y69423D01*
X399079Y69210D01*
X399129Y68760D01*
X399154Y68273D01*
Y68260D01*
Y68210D01*
Y68135D01*
X399142Y68035D01*
Y67910D01*
X399129Y67761D01*
X399117Y67598D01*
X399092Y67423D01*
X399067Y67223D01*
X399029Y67023D01*
X398942Y66586D01*
X398817Y66136D01*
X398642Y65698D01*
Y65686D01*
X398617Y65648D01*
X398592Y65586D01*
X398542Y65511D01*
X398492Y65411D01*
X398429Y65311D01*
X398267Y65049D01*
X398055Y64774D01*
X397805Y64486D01*
X397505Y64199D01*
X397155Y63949D01*
X397142Y63937D01*
X397117Y63924D01*
X397055Y63899D01*
X396992Y63861D01*
X396892Y63811D01*
X396792Y63762D01*
X396667Y63712D01*
X396530Y63649D01*
X396380Y63599D01*
X396230Y63537D01*
X395880Y63449D01*
X395505Y63374D01*
X395305Y63362D01*
X395105Y63349D01*
X394968D01*
X394905Y63362D01*
X394818D01*
X394630Y63387D01*
X394418Y63424D01*
X394180Y63487D01*
X393931Y63562D01*
X393693Y63674D01*
X393681D01*
X393668Y63686D01*
X393593Y63737D01*
X393481Y63799D01*
X393331Y63899D01*
X393168Y64024D01*
X392993Y64161D01*
X392831Y64324D01*
X392668Y64511D01*
Y60000D01*
X391094D01*
Y72847D01*
X392531D01*
Y71647D01*
X392556Y71672D01*
X392581Y71697D01*
X392618Y71747D01*
X392718Y71884D01*
X392856Y72034D01*
X393031Y72209D01*
X393218Y72384D01*
X393431Y72547D01*
X393668Y72697D01*
X393681D01*
X393693Y72709D01*
X393731Y72734D01*
X393781Y72759D01*
X393843Y72784D01*
X393918Y72809D01*
X394105Y72884D01*
X394330Y72947D01*
X394593Y73009D01*
X394893Y73047D01*
X395218Y73059D01*
X395330D01*
X395418Y73047D01*
D02*
G37*
G36*
X409589D02*
X409677D01*
X409889Y73022D01*
X410126Y72984D01*
X410376Y72922D01*
X410651Y72847D01*
X410914Y72747D01*
X410926D01*
X410939Y72734D01*
X410976Y72722D01*
X411026Y72697D01*
X411151Y72622D01*
X411314Y72534D01*
X411476Y72422D01*
X411651Y72284D01*
X411814Y72134D01*
X411964Y71959D01*
X411976Y71934D01*
X412026Y71872D01*
X412088Y71772D01*
X412163Y71634D01*
X412238Y71459D01*
X412326Y71260D01*
X412401Y71047D01*
X412463Y70797D01*
Y70772D01*
X412476Y70710D01*
X412488Y70597D01*
X412501Y70522D01*
X412513Y70447D01*
Y70347D01*
X412526Y70235D01*
Y70110D01*
X412538Y69960D01*
Y69810D01*
X412551Y69647D01*
Y69460D01*
Y69260D01*
Y63562D01*
X410976D01*
Y69210D01*
Y69223D01*
Y69248D01*
Y69298D01*
Y69373D01*
Y69448D01*
X410964Y69535D01*
X410951Y69748D01*
X410926Y69985D01*
X410901Y70222D01*
X410851Y70447D01*
X410789Y70647D01*
X410776Y70672D01*
X410751Y70722D01*
X410701Y70810D01*
X410639Y70922D01*
X410551Y71047D01*
X410439Y71172D01*
X410301Y71297D01*
X410139Y71410D01*
X410114Y71422D01*
X410051Y71459D01*
X409964Y71497D01*
X409827Y71560D01*
X409664Y71610D01*
X409477Y71647D01*
X409264Y71684D01*
X409039Y71697D01*
X408939D01*
X408877Y71684D01*
X408789Y71672D01*
X408689Y71659D01*
X408452Y71622D01*
X408177Y71535D01*
X407890Y71422D01*
X407739Y71347D01*
X407602Y71260D01*
X407452Y71160D01*
X407315Y71047D01*
X407302Y71035D01*
X407290Y71022D01*
X407252Y70972D01*
X407202Y70922D01*
X407152Y70847D01*
X407090Y70747D01*
X407015Y70635D01*
X406952Y70510D01*
X406890Y70360D01*
X406815Y70185D01*
X406752Y69985D01*
X406702Y69760D01*
X406652Y69523D01*
X406627Y69248D01*
X406602Y68960D01*
X406590Y68635D01*
Y63562D01*
X405015D01*
Y72847D01*
X406427D01*
Y71522D01*
X406440Y71535D01*
X406477Y71585D01*
X406540Y71659D01*
X406615Y71760D01*
X406727Y71884D01*
X406852Y72009D01*
X407002Y72147D01*
X407177Y72297D01*
X407377Y72434D01*
X407590Y72572D01*
X407840Y72709D01*
X408102Y72822D01*
X408389Y72922D01*
X408689Y72997D01*
X409027Y73047D01*
X409377Y73059D01*
X409514D01*
X409589Y73047D01*
D02*
G37*
G36*
X402628Y63562D02*
X401054D01*
Y72847D01*
X402628D01*
Y63562D01*
D02*
G37*
G36*
X382359Y68060D02*
X384083D01*
Y66623D01*
X382359D01*
Y63562D01*
X380784D01*
Y66623D01*
X375223D01*
Y68060D01*
X381071Y76371D01*
X382359D01*
Y68060D01*
D02*
G37*
G36*
X371711Y63562D02*
X370137D01*
Y73572D01*
X370124D01*
X370112Y73547D01*
X370074Y73521D01*
X370037Y73484D01*
X369912Y73372D01*
X369737Y73234D01*
X369524Y73072D01*
X369262Y72884D01*
X368962Y72684D01*
X368637Y72484D01*
X368625D01*
X368600Y72459D01*
X368550Y72434D01*
X368487Y72397D01*
X368400Y72347D01*
X368312Y72297D01*
X368087Y72184D01*
X367837Y72059D01*
X367562Y71922D01*
X367275Y71797D01*
X367000Y71684D01*
Y73197D01*
X367012Y73209D01*
X367062Y73222D01*
X367125Y73259D01*
X367225Y73309D01*
X367337Y73372D01*
X367462Y73446D01*
X367612Y73521D01*
X367775Y73622D01*
X368137Y73834D01*
X368525Y74096D01*
X368912Y74384D01*
X369299Y74696D01*
X369312Y74709D01*
X369337Y74734D01*
X369399Y74784D01*
X369462Y74846D01*
X369537Y74934D01*
X369637Y75021D01*
X369737Y75134D01*
X369849Y75246D01*
X370074Y75508D01*
X370299Y75796D01*
X370512Y76108D01*
X370612Y76258D01*
X370686Y76421D01*
X371711D01*
Y63562D01*
D02*
G37*
G36*
X238533Y48000D02*
X237353D01*
Y55507D01*
X237343D01*
X237334Y55489D01*
X237306Y55470D01*
X237278Y55442D01*
X237184Y55357D01*
X237053Y55254D01*
X236893Y55133D01*
X236696Y54992D01*
X236472Y54842D01*
X236228Y54692D01*
X236218D01*
X236200Y54673D01*
X236162Y54655D01*
X236115Y54626D01*
X236050Y54589D01*
X235984Y54552D01*
X235815Y54467D01*
X235628Y54373D01*
X235422Y54270D01*
X235206Y54177D01*
X235000Y54092D01*
Y55226D01*
X235009Y55236D01*
X235047Y55245D01*
X235094Y55273D01*
X235169Y55311D01*
X235253Y55357D01*
X235347Y55414D01*
X235459Y55470D01*
X235581Y55545D01*
X235853Y55704D01*
X236143Y55901D01*
X236434Y56117D01*
X236725Y56351D01*
X236734Y56360D01*
X236753Y56379D01*
X236800Y56417D01*
X236846Y56463D01*
X236903Y56529D01*
X236978Y56595D01*
X237053Y56679D01*
X237137Y56763D01*
X237306Y56960D01*
X237474Y57176D01*
X237634Y57410D01*
X237709Y57523D01*
X237765Y57644D01*
X238533D01*
Y48000D01*
D02*
G37*
G36*
X194034Y176090D02*
X192852D01*
Y183597D01*
X192843D01*
X192834Y183578D01*
X192806Y183560D01*
X192778Y183531D01*
X192684Y183447D01*
X192553Y183344D01*
X192393Y183222D01*
X192196Y183082D01*
X191971Y182932D01*
X191728Y182782D01*
X191718D01*
X191700Y182763D01*
X191662Y182744D01*
X191615Y182716D01*
X191550Y182679D01*
X191484Y182641D01*
X191315Y182557D01*
X191128Y182463D01*
X190922Y182360D01*
X190706Y182266D01*
X190500Y182182D01*
Y183316D01*
X190509Y183325D01*
X190547Y183335D01*
X190594Y183363D01*
X190669Y183400D01*
X190753Y183447D01*
X190847Y183503D01*
X190959Y183560D01*
X191081Y183635D01*
X191353Y183794D01*
X191644Y183991D01*
X191934Y184206D01*
X192225Y184441D01*
X192234Y184450D01*
X192253Y184469D01*
X192299Y184506D01*
X192346Y184553D01*
X192403Y184619D01*
X192478Y184684D01*
X192553Y184769D01*
X192637Y184853D01*
X192806Y185050D01*
X192974Y185266D01*
X193134Y185500D01*
X193209Y185612D01*
X193265Y185734D01*
X194034D01*
Y176090D01*
D02*
G37*
%LPC*%
G36*
X349122Y243004D02*
X346104Y238664D01*
X349122D01*
Y243004D01*
D02*
G37*
G36*
X296587Y244119D02*
X296512D01*
X296456Y244110D01*
X296381Y244100D01*
X296306Y244081D01*
X296119Y244035D01*
X296016Y243997D01*
X295912Y243950D01*
X295800Y243894D01*
X295697Y243828D01*
X295584Y243744D01*
X295481Y243650D01*
X295378Y243547D01*
X295285Y243425D01*
X295275Y243416D01*
X295256Y243388D01*
X295228Y243332D01*
X295191Y243247D01*
X295144Y243154D01*
X295097Y243022D01*
X295041Y242872D01*
X294985Y242694D01*
X294928Y242479D01*
X294872Y242244D01*
X294825Y241982D01*
X294778Y241682D01*
X294741Y241363D01*
X294713Y240998D01*
X294694Y240604D01*
X294685Y240182D01*
Y240173D01*
Y240154D01*
Y240126D01*
Y240079D01*
Y240023D01*
Y239958D01*
X294694Y239883D01*
Y239798D01*
X294703Y239611D01*
X294713Y239395D01*
X294732Y239151D01*
X294750Y238899D01*
X294816Y238374D01*
X294863Y238111D01*
X294919Y237858D01*
X294985Y237614D01*
X295060Y237390D01*
X295144Y237193D01*
X295238Y237033D01*
X295247Y237024D01*
X295266Y236996D01*
X295294Y236958D01*
X295341Y236912D01*
X295388Y236855D01*
X295453Y236790D01*
X295528Y236715D01*
X295613Y236649D01*
X295716Y236574D01*
X295819Y236499D01*
X296053Y236377D01*
X296175Y236330D01*
X296315Y236293D01*
X296456Y236265D01*
X296606Y236255D01*
X296644D01*
X296681Y236265D01*
X296737D01*
X296812Y236283D01*
X296887Y236293D01*
X296981Y236321D01*
X297075Y236349D01*
X297187Y236396D01*
X297290Y236443D01*
X297403Y236508D01*
X297515Y236583D01*
X297637Y236677D01*
X297750Y236780D01*
X297862Y236893D01*
X297965Y237033D01*
X297974Y237043D01*
X297993Y237071D01*
X298021Y237118D01*
X298049Y237193D01*
X298096Y237286D01*
X298143Y237408D01*
X298190Y237549D01*
X298246Y237727D01*
X298302Y237924D01*
X298349Y238149D01*
X298396Y238402D01*
X298443Y238692D01*
X298471Y239011D01*
X298499Y239367D01*
X298518Y239761D01*
X298527Y240182D01*
Y240192D01*
Y240211D01*
Y240239D01*
Y240286D01*
Y240342D01*
Y240407D01*
X298518Y240482D01*
Y240567D01*
X298509Y240754D01*
X298499Y240970D01*
X298481Y241213D01*
X298462Y241467D01*
X298396Y241991D01*
X298349Y242254D01*
X298293Y242516D01*
X298228Y242751D01*
X298162Y242976D01*
X298068Y243172D01*
X297974Y243332D01*
X297965Y243341D01*
X297946Y243369D01*
X297918Y243407D01*
X297871Y243454D01*
X297824Y243519D01*
X297759Y243585D01*
X297684Y243650D01*
X297590Y243725D01*
X297496Y243800D01*
X297393Y243866D01*
X297159Y243997D01*
X297028Y244044D01*
X296887Y244081D01*
X296737Y244110D01*
X296587Y244119D01*
D02*
G37*
G36*
X295659Y184759D02*
X295584D01*
X295527Y184750D01*
X295462Y184741D01*
X295377Y184722D01*
X295293Y184703D01*
X295190Y184675D01*
X295087Y184647D01*
X294974Y184600D01*
X294862Y184553D01*
X294749Y184487D01*
X294637Y184413D01*
X294515Y184328D01*
X294403Y184225D01*
X294290Y184113D01*
X294281Y184103D01*
X294262Y184084D01*
X294234Y184047D01*
X294196Y184000D01*
X294159Y183935D01*
X294103Y183860D01*
X294056Y183766D01*
X294000Y183663D01*
X293943Y183550D01*
X293897Y183428D01*
X293840Y183288D01*
X293803Y183147D01*
X293765Y182988D01*
X293737Y182819D01*
X293718Y182641D01*
X293709Y182454D01*
Y182444D01*
Y182416D01*
Y182369D01*
X293718Y182304D01*
X293728Y182219D01*
X293737Y182135D01*
X293756Y182032D01*
X293775Y181919D01*
X293840Y181685D01*
X293887Y181563D01*
X293943Y181441D01*
X294000Y181310D01*
X294075Y181188D01*
X294159Y181076D01*
X294253Y180963D01*
X294262Y180954D01*
X294281Y180935D01*
X294309Y180907D01*
X294356Y180879D01*
X294403Y180832D01*
X294468Y180785D01*
X294543Y180729D01*
X294628Y180682D01*
X294731Y180626D01*
X294834Y180570D01*
X295068Y180485D01*
X295190Y180448D01*
X295331Y180420D01*
X295471Y180401D01*
X295621Y180392D01*
X295705D01*
X295762Y180401D01*
X295827Y180410D01*
X295912Y180420D01*
X296005Y180439D01*
X296099Y180467D01*
X296315Y180532D01*
X296427Y180579D01*
X296540Y180635D01*
X296652Y180701D01*
X296765Y180776D01*
X296868Y180860D01*
X296971Y180963D01*
X296980Y180973D01*
X296989Y180992D01*
X297018Y181020D01*
X297055Y181066D01*
X297093Y181123D01*
X297139Y181198D01*
X297186Y181282D01*
X297243Y181376D01*
X297289Y181479D01*
X297336Y181601D01*
X297383Y181732D01*
X297421Y181873D01*
X297458Y182022D01*
X297486Y182191D01*
X297496Y182360D01*
X297505Y182547D01*
Y182557D01*
Y182594D01*
Y182641D01*
X297496Y182716D01*
X297486Y182801D01*
X297477Y182904D01*
X297458Y183007D01*
X297439Y183129D01*
X297374Y183382D01*
X297327Y183522D01*
X297280Y183653D01*
X297214Y183785D01*
X297139Y183916D01*
X297055Y184047D01*
X296961Y184160D01*
X296952Y184169D01*
X296933Y184188D01*
X296905Y184216D01*
X296868Y184253D01*
X296811Y184300D01*
X296755Y184347D01*
X296680Y184403D01*
X296596Y184459D01*
X296408Y184572D01*
X296183Y184666D01*
X296062Y184703D01*
X295940Y184731D01*
X295799Y184750D01*
X295659Y184759D01*
D02*
G37*
G36*
X267083Y244128D02*
X267017D01*
X266971Y244119D01*
X266914D01*
X266839Y244110D01*
X266689Y244072D01*
X266511Y244025D01*
X266324Y243941D01*
X266136Y243838D01*
X266043Y243763D01*
X265958Y243688D01*
Y243678D01*
X265940Y243669D01*
X265893Y243613D01*
X265818Y243519D01*
X265743Y243397D01*
X265658Y243247D01*
X265583Y243069D01*
X265536Y242872D01*
X265527Y242769D01*
X265518Y242657D01*
Y242647D01*
Y242629D01*
Y242591D01*
X265527Y242544D01*
Y242488D01*
X265536Y242423D01*
X265574Y242263D01*
X265621Y242085D01*
X265696Y241898D01*
X265808Y241710D01*
X265874Y241626D01*
X265949Y241542D01*
X265958D01*
X265968Y241523D01*
X265996Y241504D01*
X266033Y241476D01*
X266127Y241401D01*
X266258Y241326D01*
X266418Y241251D01*
X266614Y241176D01*
X266839Y241129D01*
X266961Y241120D01*
X267092Y241110D01*
X267158D01*
X267205Y241120D01*
X267261D01*
X267336Y241129D01*
X267486Y241167D01*
X267664Y241213D01*
X267852Y241289D01*
X268039Y241392D01*
X268123Y241457D01*
X268208Y241532D01*
X268217Y241542D01*
X268226Y241551D01*
X268245Y241579D01*
X268273Y241607D01*
X268348Y241701D01*
X268433Y241823D01*
X268508Y241982D01*
X268582Y242160D01*
X268629Y242366D01*
X268648Y242479D01*
Y242591D01*
Y242601D01*
Y242619D01*
Y242657D01*
X268639Y242704D01*
Y242751D01*
X268629Y242816D01*
X268592Y242966D01*
X268536Y243144D01*
X268461Y243322D01*
X268348Y243510D01*
X268273Y243594D01*
X268198Y243678D01*
X268189Y243688D01*
X268179Y243697D01*
X268151Y243716D01*
X268114Y243754D01*
X268020Y243819D01*
X267889Y243903D01*
X267730Y243988D01*
X267542Y244063D01*
X267327Y244110D01*
X267205Y244119D01*
X267083Y244128D01*
D02*
G37*
G36*
X267055Y240145D02*
X266971D01*
X266914Y240136D01*
X266849Y240126D01*
X266764Y240117D01*
X266670Y240098D01*
X266567Y240079D01*
X266352Y240014D01*
X266239Y239967D01*
X266118Y239911D01*
X266005Y239845D01*
X265893Y239779D01*
X265780Y239686D01*
X265677Y239592D01*
X265668Y239583D01*
X265658Y239564D01*
X265630Y239536D01*
X265593Y239489D01*
X265555Y239442D01*
X265508Y239377D01*
X265452Y239301D01*
X265405Y239217D01*
X265358Y239114D01*
X265302Y239011D01*
X265218Y238777D01*
X265180Y238645D01*
X265161Y238514D01*
X265143Y238364D01*
X265133Y238214D01*
Y238205D01*
Y238195D01*
Y238167D01*
Y238130D01*
X265143Y238027D01*
X265161Y237905D01*
X265190Y237755D01*
X265236Y237586D01*
X265293Y237418D01*
X265368Y237239D01*
Y237230D01*
X265377Y237221D01*
X265415Y237164D01*
X265471Y237080D01*
X265546Y236977D01*
X265640Y236855D01*
X265761Y236733D01*
X265902Y236611D01*
X266071Y236508D01*
X266080D01*
X266089Y236499D01*
X266118Y236490D01*
X266155Y236471D01*
X266249Y236424D01*
X266380Y236387D01*
X266530Y236340D01*
X266708Y236293D01*
X266896Y236265D01*
X267092Y236255D01*
X267177D01*
X267233Y236265D01*
X267308Y236274D01*
X267392Y236283D01*
X267486Y236302D01*
X267589Y236321D01*
X267805Y236387D01*
X267927Y236434D01*
X268039Y236480D01*
X268161Y236546D01*
X268273Y236611D01*
X268386Y236696D01*
X268489Y236790D01*
X268498Y236799D01*
X268517Y236818D01*
X268536Y236846D01*
X268573Y236893D01*
X268620Y236940D01*
X268667Y237005D01*
X268714Y237080D01*
X268770Y237164D01*
X268817Y237258D01*
X268864Y237371D01*
X268958Y237605D01*
X268995Y237736D01*
X269014Y237877D01*
X269032Y238027D01*
X269042Y238177D01*
Y238186D01*
Y238214D01*
Y238261D01*
X269032Y238317D01*
X269023Y238392D01*
X269014Y238477D01*
X268995Y238570D01*
X268967Y238673D01*
X268901Y238899D01*
X268854Y239011D01*
X268798Y239133D01*
X268732Y239245D01*
X268657Y239367D01*
X268573Y239480D01*
X268470Y239583D01*
X268461Y239592D01*
X268442Y239611D01*
X268414Y239639D01*
X268367Y239667D01*
X268311Y239714D01*
X268245Y239761D01*
X268170Y239808D01*
X268086Y239864D01*
X267983Y239920D01*
X267880Y239967D01*
X267636Y240061D01*
X267505Y240089D01*
X267364Y240117D01*
X267214Y240136D01*
X267055Y240145D01*
D02*
G37*
G36*
X242600Y240642D02*
X242525D01*
X242469Y240632D01*
X242403Y240623D01*
X242319Y240614D01*
X242234Y240595D01*
X242131Y240567D01*
X241925Y240501D01*
X241813Y240454D01*
X241691Y240398D01*
X241578Y240333D01*
X241466Y240248D01*
X241353Y240164D01*
X241250Y240061D01*
X241241Y240051D01*
X241222Y240033D01*
X241203Y240004D01*
X241166Y239958D01*
X241119Y239901D01*
X241072Y239836D01*
X241026Y239751D01*
X240979Y239658D01*
X240922Y239555D01*
X240875Y239442D01*
X240829Y239320D01*
X240782Y239189D01*
X240744Y239048D01*
X240725Y238889D01*
X240707Y238730D01*
X240697Y238561D01*
Y238552D01*
Y238533D01*
Y238505D01*
Y238458D01*
X240707Y238402D01*
Y238336D01*
X240725Y238186D01*
X240763Y238008D01*
X240800Y237811D01*
X240866Y237605D01*
X240951Y237390D01*
Y237380D01*
X240960Y237361D01*
X240979Y237333D01*
X240997Y237296D01*
X241054Y237202D01*
X241138Y237080D01*
X241241Y236940D01*
X241363Y236799D01*
X241513Y236668D01*
X241672Y236546D01*
X241681D01*
X241691Y236537D01*
X241719Y236518D01*
X241756Y236499D01*
X241841Y236452D01*
X241963Y236405D01*
X242113Y236349D01*
X242281Y236302D01*
X242460Y236265D01*
X242647Y236255D01*
X242722D01*
X242769Y236265D01*
X242834Y236274D01*
X242909Y236283D01*
X243087Y236330D01*
X243294Y236405D01*
X243397Y236452D01*
X243509Y236508D01*
X243612Y236574D01*
X243725Y236658D01*
X243828Y236752D01*
X243931Y236855D01*
X243940Y236865D01*
X243959Y236883D01*
X243978Y236921D01*
X244015Y236968D01*
X244053Y237024D01*
X244100Y237099D01*
X244156Y237183D01*
X244203Y237286D01*
X244250Y237399D01*
X244306Y237521D01*
X244353Y237652D01*
X244390Y237802D01*
X244428Y237961D01*
X244456Y238130D01*
X244465Y238308D01*
X244475Y238495D01*
Y238505D01*
Y238542D01*
Y238589D01*
X244465Y238664D01*
X244456Y238739D01*
X244447Y238842D01*
X244428Y238945D01*
X244409Y239067D01*
X244343Y239311D01*
X244306Y239442D01*
X244250Y239573D01*
X244184Y239704D01*
X244118Y239826D01*
X244034Y239948D01*
X243940Y240061D01*
X243931Y240070D01*
X243912Y240089D01*
X243884Y240117D01*
X243847Y240154D01*
X243790Y240192D01*
X243734Y240248D01*
X243659Y240295D01*
X243575Y240351D01*
X243481Y240407D01*
X243387Y240454D01*
X243153Y240548D01*
X243031Y240585D01*
X242891Y240614D01*
X242750Y240632D01*
X242600Y240642D01*
D02*
G37*
G36*
X327309Y149312D02*
X321059Y148999D01*
X320746D01*
X320434Y148687D01*
X320121Y148375D01*
Y132750D01*
X320434Y132437D01*
X327934D01*
X329809Y132750D01*
X331684Y133375D01*
X333871Y134937D01*
X334184Y135562D01*
X335121Y136812D01*
X336059Y138687D01*
X336371Y141187D01*
Y141500D01*
Y141812D01*
X336059Y143062D01*
X335434Y144937D01*
X333871Y146812D01*
X333559Y147125D01*
X331996Y148062D01*
X330121Y148999D01*
X327309Y149312D01*
D02*
G37*
G36*
X223873D02*
X216998Y148999D01*
X216685D01*
X216373Y148687D01*
X216060Y148375D01*
Y132750D01*
X216373D01*
X216685Y132437D01*
X224498D01*
X226060Y132750D01*
X227935Y133375D01*
X229810Y134937D01*
X230123Y135562D01*
X231060Y136812D01*
X231998Y138687D01*
X232310Y141187D01*
Y141500D01*
Y141812D01*
X231998Y143062D01*
X231373Y144937D01*
X229810Y146812D01*
X229498Y147125D01*
X228248Y148062D01*
X226373Y148999D01*
X223873Y149312D01*
D02*
G37*
G36*
X425745Y147125D02*
X425433D01*
X425120Y146500D01*
X420120Y125875D01*
Y125562D01*
X420433Y125250D01*
X420745Y124937D01*
X430433D01*
X430745Y125250D01*
X430433Y125875D01*
X426058Y146500D01*
Y146812D01*
X425745Y147125D01*
D02*
G37*
G36*
X305338Y55714D02*
X302320Y51374D01*
X305338D01*
Y55714D01*
D02*
G37*
G36*
X217139Y243004D02*
X214121Y238664D01*
X217139D01*
Y243004D01*
D02*
G37*
G36*
X441456Y36510D02*
X438657Y36510D01*
Y32636D01*
X441693Y32636D01*
X441806Y32648D01*
X442043D01*
X442306Y32673D01*
X442568Y32698D01*
X442818Y32723D01*
X442930Y32748D01*
X443031Y32773D01*
X443043D01*
X443055Y32785D01*
X443130Y32810D01*
X443256Y32861D01*
X443393Y32923D01*
X443543Y33023D01*
X443705Y33123D01*
X443855Y33260D01*
X443993Y33410D01*
X444005Y33435D01*
X444043Y33498D01*
X444105Y33585D01*
X444168Y33723D01*
X444218Y33885D01*
X444280Y34073D01*
X444318Y34298D01*
X444330Y34535D01*
Y34548D01*
Y34560D01*
Y34598D01*
Y34648D01*
X444318Y34760D01*
X444293Y34910D01*
X444255Y35085D01*
X444193Y35285D01*
X444118Y35472D01*
X444018Y35660D01*
X444005Y35685D01*
X443968Y35735D01*
X443893Y35822D01*
X443793Y35922D01*
X443668Y36035D01*
X443518Y36147D01*
X443343Y36247D01*
X443143Y36322D01*
X443130D01*
X443118Y36335D01*
X443080D01*
X443031Y36347D01*
X442968Y36372D01*
X442893Y36385D01*
X442806Y36397D01*
X442693Y36422D01*
X442568Y36435D01*
X442418Y36447D01*
X442268Y36472D01*
X442093Y36485D01*
X441893Y36497D01*
X441681D01*
X441456Y36510D01*
D02*
G37*
G36*
X441831Y31123D02*
X438657Y31123D01*
Y26725D01*
X442118Y26725D01*
X442293Y26737D01*
X442481D01*
X442681Y26750D01*
X442856Y26762D01*
X442993Y26775D01*
X443018D01*
X443093Y26800D01*
X443205Y26825D01*
X443330Y26862D01*
X443493Y26912D01*
X443655Y26974D01*
X443818Y27037D01*
X443968Y27125D01*
X443980Y27137D01*
X444030Y27174D01*
X444105Y27225D01*
X444205Y27312D01*
X444305Y27412D01*
X444405Y27537D01*
X444518Y27674D01*
X444618Y27837D01*
X444630Y27862D01*
X444655Y27924D01*
X444705Y28024D01*
X444755Y28149D01*
X444793Y28312D01*
X444842Y28499D01*
X444868Y28699D01*
X444880Y28924D01*
Y28937D01*
Y28962D01*
Y28999D01*
Y29049D01*
X444855Y29174D01*
X444830Y29349D01*
X444780Y29536D01*
X444718Y29749D01*
X444618Y29961D01*
X444493Y30161D01*
X444480Y30186D01*
X444430Y30249D01*
X444343Y30336D01*
X444230Y30449D01*
X444080Y30574D01*
X443905Y30699D01*
X443693Y30811D01*
X443468Y30898D01*
X443455D01*
X443443Y30911D01*
X443405Y30924D01*
X443355Y30936D01*
X443280Y30949D01*
X443205Y30973D01*
X443106Y30986D01*
X442993Y31011D01*
X442868Y31036D01*
X442731Y31049D01*
X442581Y31074D01*
X442418Y31086D01*
X442231Y31098D01*
X442043Y31111D01*
X441831Y31123D01*
D02*
G37*
G36*
X454578Y36785D02*
X454503D01*
X454403Y36772D01*
X454278Y36760D01*
X454115Y36747D01*
X453940Y36722D01*
X453740Y36685D01*
X453515Y36635D01*
X453278Y36560D01*
X453028Y36485D01*
X452778Y36385D01*
X452516Y36260D01*
X452253Y36122D01*
X451991Y35960D01*
X451728Y35760D01*
X451478Y35547D01*
X451466Y35535D01*
X451428Y35485D01*
X451366Y35410D01*
X451278Y35310D01*
X451178Y35172D01*
X451066Y35010D01*
X450953Y34797D01*
X450841Y34573D01*
X450716Y34298D01*
X450604Y33998D01*
X450491Y33660D01*
X450391Y33285D01*
X450316Y32873D01*
X450241Y32436D01*
X450204Y31948D01*
X450191Y31423D01*
Y31411D01*
Y31398D01*
Y31323D01*
X450204Y31198D01*
X450216Y31036D01*
X450229Y30849D01*
X450254Y30624D01*
X450291Y30374D01*
X450341Y30099D01*
X450416Y29811D01*
X450491Y29511D01*
X450591Y29211D01*
X450716Y28911D01*
X450854Y28612D01*
X451016Y28312D01*
X451216Y28037D01*
X451428Y27774D01*
X451441Y27762D01*
X451491Y27712D01*
X451553Y27649D01*
X451653Y27562D01*
X451778Y27462D01*
X451928Y27349D01*
X452091Y27237D01*
X452291Y27112D01*
X452503Y26987D01*
X452741Y26874D01*
X453003Y26762D01*
X453278Y26662D01*
X453565Y26575D01*
X453878Y26512D01*
X454215Y26462D01*
X454553Y26450D01*
X454640D01*
X454740Y26462D01*
X454878Y26475D01*
X455040Y26487D01*
X455227Y26525D01*
X455440Y26562D01*
X455665Y26612D01*
X455915Y26687D01*
X456165Y26775D01*
X456427Y26887D01*
X456702Y27012D01*
X456964Y27162D01*
X457227Y27349D01*
X457477Y27549D01*
X457714Y27787D01*
X457727Y27799D01*
X457764Y27849D01*
X457827Y27924D01*
X457914Y28037D01*
X458002Y28174D01*
X458102Y28349D01*
X458214Y28537D01*
X458339Y28774D01*
X458452Y29024D01*
X458564Y29311D01*
X458664Y29624D01*
X458764Y29961D01*
X458839Y30336D01*
X458901Y30724D01*
X458939Y31149D01*
X458951Y31598D01*
Y31611D01*
Y31673D01*
Y31748D01*
X458939Y31861D01*
Y31998D01*
X458926Y32148D01*
X458901Y32336D01*
X458889Y32523D01*
X458852Y32736D01*
X458826Y32948D01*
X458727Y33410D01*
X458589Y33873D01*
X458514Y34098D01*
X458414Y34323D01*
Y34335D01*
X458389Y34373D01*
X458364Y34435D01*
X458314Y34523D01*
X458264Y34610D01*
X458189Y34722D01*
X458027Y34985D01*
X457802Y35285D01*
X457539Y35585D01*
X457227Y35872D01*
X457052Y36010D01*
X456865Y36135D01*
X456852Y36147D01*
X456814Y36160D01*
X456764Y36197D01*
X456689Y36235D01*
X456590Y36285D01*
X456477Y36335D01*
X456352Y36397D01*
X456202Y36460D01*
X456040Y36522D01*
X455865Y36585D01*
X455677Y36635D01*
X455477Y36685D01*
X455040Y36760D01*
X454815Y36772D01*
X454578Y36785D01*
D02*
G37*
G36*
X384858Y36772D02*
X384758D01*
X384683Y36760D01*
X384583Y36747D01*
X384483Y36722D01*
X384233Y36660D01*
X384096Y36609D01*
X383958Y36547D01*
X383808Y36472D01*
X383671Y36385D01*
X383521Y36272D01*
X383383Y36147D01*
X383246Y36010D01*
X383121Y35847D01*
X383108Y35835D01*
X383083Y35797D01*
X383046Y35722D01*
X382996Y35610D01*
X382933Y35485D01*
X382871Y35310D01*
X382796Y35110D01*
X382721Y34873D01*
X382646Y34585D01*
X382571Y34273D01*
X382509Y33923D01*
X382446Y33523D01*
X382396Y33098D01*
X382359Y32611D01*
X382334Y32086D01*
X382321Y31523D01*
Y31511D01*
Y31486D01*
Y31448D01*
Y31386D01*
Y31311D01*
Y31223D01*
X382334Y31123D01*
Y31011D01*
X382346Y30761D01*
X382359Y30474D01*
X382383Y30149D01*
X382408Y29811D01*
X382496Y29111D01*
X382559Y28761D01*
X382634Y28424D01*
X382721Y28099D01*
X382821Y27799D01*
X382933Y27537D01*
X383058Y27324D01*
X383071Y27312D01*
X383096Y27274D01*
X383133Y27224D01*
X383196Y27162D01*
X383258Y27087D01*
X383346Y26999D01*
X383446Y26899D01*
X383558Y26812D01*
X383696Y26712D01*
X383833Y26612D01*
X384146Y26450D01*
X384308Y26387D01*
X384496Y26337D01*
X384683Y26300D01*
X384883Y26287D01*
X384933D01*
X384983Y26300D01*
X385058D01*
X385158Y26325D01*
X385258Y26337D01*
X385383Y26375D01*
X385508Y26412D01*
X385658Y26475D01*
X385795Y26537D01*
X385945Y26625D01*
X386095Y26725D01*
X386258Y26850D01*
X386408Y26987D01*
X386558Y27137D01*
X386695Y27324D01*
X386707Y27337D01*
X386732Y27374D01*
X386770Y27437D01*
X386807Y27537D01*
X386870Y27662D01*
X386932Y27824D01*
X386995Y28012D01*
X387070Y28249D01*
X387145Y28512D01*
X387207Y28812D01*
X387270Y29149D01*
X387332Y29536D01*
X387370Y29961D01*
X387407Y30436D01*
X387432Y30961D01*
X387445Y31523D01*
Y31536D01*
Y31561D01*
Y31598D01*
Y31661D01*
Y31736D01*
Y31823D01*
X387432Y31923D01*
Y32036D01*
X387420Y32286D01*
X387407Y32573D01*
X387382Y32898D01*
X387357Y33235D01*
X387270Y33935D01*
X387207Y34285D01*
X387132Y34635D01*
X387045Y34948D01*
X386957Y35247D01*
X386832Y35510D01*
X386707Y35722D01*
X386695Y35735D01*
X386670Y35772D01*
X386632Y35822D01*
X386570Y35885D01*
X386507Y35972D01*
X386420Y36060D01*
X386320Y36147D01*
X386195Y36247D01*
X386070Y36347D01*
X385933Y36435D01*
X385620Y36609D01*
X385445Y36672D01*
X385258Y36722D01*
X385058Y36760D01*
X384858Y36772D01*
D02*
G37*
G36*
X468461Y55678D02*
X464787D01*
Y51105D01*
X468249D01*
X468362Y51117D01*
X468499D01*
X468649Y51142D01*
X468824Y51155D01*
X468999Y51180D01*
X469386Y51255D01*
X469774Y51354D01*
X469949Y51430D01*
X470124Y51505D01*
X470286Y51604D01*
X470424Y51704D01*
X470436Y51717D01*
X470448Y51729D01*
X470486Y51767D01*
X470536Y51817D01*
X470586Y51879D01*
X470648Y51954D01*
X470711Y52042D01*
X470773Y52154D01*
X470836Y52267D01*
X470898Y52392D01*
X470961Y52542D01*
X471011Y52692D01*
X471098Y53042D01*
X471111Y53229D01*
X471123Y53429D01*
Y53442D01*
Y53467D01*
Y53504D01*
Y53566D01*
X471111Y53629D01*
X471098Y53716D01*
X471073Y53904D01*
X471023Y54116D01*
X470948Y54341D01*
X470848Y54579D01*
X470711Y54804D01*
Y54816D01*
X470698Y54829D01*
X470636Y54891D01*
X470549Y54991D01*
X470424Y55116D01*
X470274Y55241D01*
X470086Y55366D01*
X469874Y55466D01*
X469636Y55553D01*
X469611D01*
X469549Y55578D01*
X469499D01*
X469436Y55591D01*
X469361Y55603D01*
X469286Y55616D01*
X469174Y55628D01*
X469061Y55641D01*
X468936Y55653D01*
X468799D01*
X468637Y55666D01*
X468461Y55678D01*
D02*
G37*
G36*
X454790Y55953D02*
X454715D01*
X454615Y55941D01*
X454490Y55928D01*
X454328Y55916D01*
X454153Y55891D01*
X453953Y55853D01*
X453728Y55803D01*
X453490Y55728D01*
X453240Y55653D01*
X452990Y55553D01*
X452728Y55429D01*
X452466Y55291D01*
X452203Y55128D01*
X451941Y54929D01*
X451691Y54716D01*
X451678Y54704D01*
X451641Y54654D01*
X451578Y54579D01*
X451491Y54479D01*
X451391Y54341D01*
X451278Y54179D01*
X451166Y53966D01*
X451054Y53741D01*
X450928Y53467D01*
X450816Y53166D01*
X450704Y52829D01*
X450604Y52454D01*
X450529Y52042D01*
X450454Y51604D01*
X450416Y51117D01*
X450404Y50592D01*
Y50580D01*
Y50567D01*
Y50492D01*
X450416Y50367D01*
X450429Y50205D01*
X450441Y50017D01*
X450466Y49792D01*
X450504Y49542D01*
X450554Y49268D01*
X450629Y48980D01*
X450704Y48680D01*
X450803Y48380D01*
X450928Y48080D01*
X451066Y47780D01*
X451228Y47481D01*
X451428Y47206D01*
X451641Y46943D01*
X451653Y46931D01*
X451703Y46881D01*
X451766Y46818D01*
X451866Y46731D01*
X451991Y46631D01*
X452141Y46518D01*
X452303Y46406D01*
X452503Y46281D01*
X452715Y46156D01*
X452953Y46043D01*
X453215Y45931D01*
X453490Y45831D01*
X453778Y45743D01*
X454090Y45681D01*
X454428Y45631D01*
X454765Y45619D01*
X454852D01*
X454953Y45631D01*
X455090Y45644D01*
X455252Y45656D01*
X455440Y45693D01*
X455652Y45731D01*
X455877Y45781D01*
X456127Y45856D01*
X456377Y45943D01*
X456640Y46056D01*
X456914Y46181D01*
X457177Y46331D01*
X457439Y46518D01*
X457689Y46718D01*
X457927Y46956D01*
X457939Y46968D01*
X457977Y47018D01*
X458039Y47093D01*
X458127Y47206D01*
X458214Y47343D01*
X458314Y47518D01*
X458427Y47705D01*
X458551Y47943D01*
X458664Y48193D01*
X458777Y48480D01*
X458876Y48793D01*
X458976Y49130D01*
X459051Y49505D01*
X459114Y49892D01*
X459151Y50317D01*
X459164Y50767D01*
Y50780D01*
Y50842D01*
Y50917D01*
X459151Y51030D01*
Y51167D01*
X459139Y51317D01*
X459114Y51505D01*
X459101Y51692D01*
X459064Y51904D01*
X459039Y52117D01*
X458939Y52579D01*
X458801Y53042D01*
X458727Y53267D01*
X458627Y53492D01*
Y53504D01*
X458601Y53541D01*
X458577Y53604D01*
X458526Y53691D01*
X458477Y53779D01*
X458402Y53891D01*
X458239Y54154D01*
X458014Y54454D01*
X457752Y54754D01*
X457439Y55041D01*
X457264Y55178D01*
X457077Y55304D01*
X457064Y55316D01*
X457027Y55328D01*
X456977Y55366D01*
X456902Y55403D01*
X456802Y55454D01*
X456689Y55503D01*
X456564Y55566D01*
X456415Y55628D01*
X456252Y55691D01*
X456077Y55753D01*
X455890Y55803D01*
X455690Y55853D01*
X455252Y55928D01*
X455027Y55941D01*
X454790Y55953D01*
D02*
G37*
G36*
X371149Y55941D02*
X371049D01*
X370974Y55928D01*
X370874Y55916D01*
X370774Y55891D01*
X370524Y55828D01*
X370387Y55778D01*
X370249Y55716D01*
X370099Y55641D01*
X369962Y55553D01*
X369812Y55441D01*
X369674Y55316D01*
X369537Y55178D01*
X369412Y55016D01*
X369399Y55003D01*
X369374Y54966D01*
X369337Y54891D01*
X369287Y54779D01*
X369224Y54654D01*
X369162Y54479D01*
X369087Y54279D01*
X369012Y54041D01*
X368937Y53754D01*
X368862Y53441D01*
X368800Y53092D01*
X368737Y52692D01*
X368687Y52267D01*
X368650Y51779D01*
X368625Y51255D01*
X368612Y50692D01*
Y50680D01*
Y50655D01*
Y50617D01*
Y50555D01*
Y50480D01*
Y50392D01*
X368625Y50292D01*
Y50180D01*
X368637Y49930D01*
X368650Y49642D01*
X368675Y49317D01*
X368699Y48980D01*
X368787Y48280D01*
X368849Y47930D01*
X368924Y47593D01*
X369012Y47268D01*
X369112Y46968D01*
X369224Y46706D01*
X369349Y46493D01*
X369362Y46481D01*
X369387Y46443D01*
X369424Y46393D01*
X369487Y46331D01*
X369549Y46256D01*
X369637Y46168D01*
X369737Y46068D01*
X369849Y45981D01*
X369987Y45881D01*
X370124Y45781D01*
X370437Y45619D01*
X370599Y45556D01*
X370787Y45506D01*
X370974Y45469D01*
X371174Y45456D01*
X371224D01*
X371274Y45469D01*
X371349D01*
X371449Y45493D01*
X371549Y45506D01*
X371674Y45543D01*
X371799Y45581D01*
X371949Y45643D01*
X372086Y45706D01*
X372236Y45793D01*
X372386Y45893D01*
X372549Y46018D01*
X372699Y46156D01*
X372849Y46306D01*
X372986Y46493D01*
X372998Y46506D01*
X373023Y46543D01*
X373061Y46606D01*
X373098Y46706D01*
X373161Y46831D01*
X373223Y46993D01*
X373286Y47181D01*
X373361Y47418D01*
X373436Y47680D01*
X373498Y47980D01*
X373561Y48318D01*
X373623Y48705D01*
X373661Y49130D01*
X373698Y49605D01*
X373723Y50130D01*
X373736Y50692D01*
Y50705D01*
Y50730D01*
Y50767D01*
Y50830D01*
Y50905D01*
Y50992D01*
X373723Y51092D01*
Y51205D01*
X373711Y51455D01*
X373698Y51742D01*
X373673Y52067D01*
X373648Y52404D01*
X373561Y53104D01*
X373498Y53454D01*
X373423Y53804D01*
X373336Y54116D01*
X373248Y54416D01*
X373123Y54679D01*
X372998Y54891D01*
X372986Y54904D01*
X372961Y54941D01*
X372924Y54991D01*
X372861Y55054D01*
X372799Y55141D01*
X372711Y55229D01*
X372611Y55316D01*
X372486Y55416D01*
X372361Y55516D01*
X372224Y55603D01*
X371911Y55778D01*
X371736Y55841D01*
X371549Y55891D01*
X371349Y55928D01*
X371149Y55941D01*
D02*
G37*
G36*
X395068Y71822D02*
X394968D01*
X394893Y71810D01*
X394805Y71797D01*
X394705Y71772D01*
X394593Y71747D01*
X394468Y71709D01*
X394330Y71659D01*
X394193Y71585D01*
X394043Y71509D01*
X393893Y71422D01*
X393731Y71310D01*
X393581Y71185D01*
X393431Y71035D01*
X393281Y70872D01*
X393268Y70860D01*
X393243Y70835D01*
X393206Y70772D01*
X393168Y70697D01*
X393106Y70597D01*
X393043Y70485D01*
X392968Y70335D01*
X392906Y70185D01*
X392831Y69997D01*
X392756Y69798D01*
X392693Y69573D01*
X392643Y69323D01*
X392593Y69060D01*
X392556Y68773D01*
X392531Y68460D01*
X392518Y68135D01*
Y68110D01*
Y68060D01*
Y67960D01*
X392531Y67848D01*
X392543Y67698D01*
X392556Y67523D01*
X392581Y67336D01*
X392606Y67136D01*
X392693Y66698D01*
X392756Y66486D01*
X392831Y66261D01*
X392906Y66048D01*
X393006Y65848D01*
X393118Y65661D01*
X393243Y65486D01*
X393256Y65474D01*
X393281Y65449D01*
X393318Y65411D01*
X393368Y65349D01*
X393443Y65286D01*
X393531Y65224D01*
X393618Y65136D01*
X393731Y65061D01*
X393993Y64911D01*
X394293Y64774D01*
X394455Y64711D01*
X394618Y64674D01*
X394805Y64649D01*
X394993Y64636D01*
X395093D01*
X395168Y64649D01*
X395255Y64661D01*
X395368Y64686D01*
X395480Y64711D01*
X395618Y64749D01*
X395755Y64799D01*
X395893Y64849D01*
X396043Y64924D01*
X396193Y65011D01*
X396343Y65111D01*
X396505Y65236D01*
X396655Y65374D01*
X396792Y65524D01*
X396805Y65536D01*
X396830Y65561D01*
X396867Y65623D01*
X396905Y65686D01*
X396967Y65786D01*
X397030Y65898D01*
X397092Y66036D01*
X397167Y66198D01*
X397242Y66386D01*
X397305Y66586D01*
X397367Y66811D01*
X397430Y67061D01*
X397467Y67323D01*
X397505Y67623D01*
X397530Y67935D01*
X397542Y68273D01*
Y68298D01*
Y68348D01*
Y68448D01*
X397530Y68560D01*
X397517Y68710D01*
X397505Y68885D01*
X397480Y69073D01*
X397455Y69273D01*
X397367Y69697D01*
X397305Y69922D01*
X397230Y70147D01*
X397142Y70360D01*
X397055Y70560D01*
X396930Y70760D01*
X396805Y70935D01*
X396792Y70947D01*
X396767Y70972D01*
X396730Y71022D01*
X396680Y71072D01*
X396605Y71135D01*
X396517Y71210D01*
X396430Y71297D01*
X396317Y71385D01*
X396068Y71547D01*
X395768Y71684D01*
X395605Y71734D01*
X395430Y71785D01*
X395255Y71810D01*
X395068Y71822D01*
D02*
G37*
G36*
X380784Y73846D02*
X376760Y68060D01*
X380784D01*
Y73846D01*
D02*
G37*
%LPD*%
D10*
X475000Y15000D02*
G03*
X485000Y25000I0J10000D01*
G01*
X355000Y25000D02*
G03*
X365000Y15000I10000J0D01*
G01*
X485000Y75000D02*
G03*
X475000Y85000I-10000J0D01*
G01*
X365000D02*
G03*
X355000Y75000I0J-10000D01*
G01*
Y25000D02*
Y75000D01*
X365000Y15000D02*
X475000D01*
X365000Y85000D02*
X475000D01*
X485000Y25000D02*
Y75000D01*
X355000Y25000D02*
X355000D01*
D11*
X234618Y42782D02*
X239886D01*
M02*
