G04*
G04 #@! TF.GenerationSoftware,Altium Limited,Altium Designer,23.8.1 (32)*
G04*
G04 Layer_Physical_Order=1*
G04 Layer_Color=255*
%FSLAX44Y44*%
%MOMM*%
G71*
G04*
G04 #@! TF.SameCoordinates,8D1D33FA-23F1-484C-B391-F775C52FBD05*
G04*
G04*
G04 #@! TF.FilePolarity,Positive*
G04*
G01*
G75*
%ADD12R,0.3000X0.8000*%
%ADD13R,0.4000X0.8000*%
%ADD19C,0.2040*%
%ADD20C,1.5000*%
%ADD21R,1.5000X1.5000*%
%ADD22C,3.0000*%
G36*
X172577Y197592D02*
Y197156D01*
Y196894D01*
Y196458D01*
Y195934D01*
Y195323D01*
Y194624D01*
Y193751D01*
Y192791D01*
Y191656D01*
Y190434D01*
Y189037D01*
Y187466D01*
Y185720D01*
Y183712D01*
Y181617D01*
Y179347D01*
Y176815D01*
Y174109D01*
Y171141D01*
Y167910D01*
Y164506D01*
Y160926D01*
Y156998D01*
Y152808D01*
Y148355D01*
Y143641D01*
Y138665D01*
Y133427D01*
X172577Y127840D01*
Y58000D01*
X110288Y92920D01*
X172577Y127840D01*
X110288Y162760D01*
X172577Y197680D01*
Y197592D01*
D02*
G37*
G36*
X110288Y162760D02*
X48000Y127840D01*
X110288Y92920D01*
X48000Y58000D01*
Y127840D01*
X48000Y133427D01*
Y138665D01*
Y143641D01*
Y148355D01*
Y152808D01*
Y156998D01*
Y160926D01*
Y164506D01*
Y167910D01*
Y171141D01*
Y174109D01*
Y176815D01*
Y179347D01*
Y181616D01*
Y183712D01*
Y185720D01*
Y187466D01*
Y189037D01*
Y190434D01*
Y191656D01*
Y192791D01*
Y193751D01*
Y194624D01*
Y195323D01*
Y195934D01*
Y196458D01*
Y196894D01*
Y197156D01*
Y197592D01*
Y197680D01*
X110288Y162760D01*
D02*
G37*
D12*
X302500Y35220D02*
D03*
X297500D02*
D03*
X292500D02*
D03*
X287500D02*
D03*
X282500D02*
D03*
X277500D02*
D03*
X272500D02*
D03*
X267500D02*
D03*
X262500D02*
D03*
X257500D02*
D03*
X252500D02*
D03*
X247500D02*
D03*
X242500D02*
D03*
X237500D02*
D03*
D13*
X228000Y10220D02*
D03*
X312000D02*
D03*
D19*
X319000Y132000D02*
Y199440D01*
X219501Y126499D02*
Y199440D01*
X272500Y35220D02*
Y111748D01*
X282700Y121947D01*
X302500Y35220D02*
Y88500D01*
X359000Y145000D01*
X346200Y224840D02*
X359000Y212040D01*
Y145000D02*
Y212040D01*
X321255Y214745D02*
Y224385D01*
X320800Y224840D02*
X321255Y224385D01*
Y214745D02*
X333500Y202500D01*
Y137500D02*
Y202500D01*
X295400Y214600D02*
Y224840D01*
Y214600D02*
X308100Y201900D01*
X295000Y125000D02*
Y199440D01*
X282700Y121947D02*
Y203300D01*
X272000Y214000D02*
X282700Y203300D01*
X272000Y214000D02*
Y222840D01*
X270000Y224840D02*
X272000Y222840D01*
X267860Y35582D02*
Y199440D01*
X244600Y215400D02*
X257300Y202700D01*
X244600Y215400D02*
Y224840D01*
X257300Y119447D02*
Y202700D01*
X244000Y116770D02*
Y199440D01*
X221000Y214000D02*
Y223040D01*
X219200Y224840D02*
X221000Y223040D01*
Y214000D02*
X231900Y203100D01*
X193800Y224840D02*
X206500Y212140D01*
X193800Y133200D02*
Y199440D01*
X237500Y35220D02*
Y89500D01*
X193800Y133200D02*
X237500Y89500D01*
X206500Y132500D02*
Y212140D01*
Y132500D02*
X242500Y96500D01*
X219501Y126499D02*
X247500Y98500D01*
Y35222D02*
Y98500D01*
X297500Y35222D02*
Y92500D01*
X347000Y142000D01*
Y201000D01*
X292500Y35222D02*
Y96500D01*
X333500Y137500D01*
X287500Y35222D02*
Y100500D01*
X319000Y132000D01*
X282500Y35222D02*
Y104500D01*
X308100Y130100D01*
X277500Y107500D02*
X295000Y125000D01*
X308100Y130100D02*
Y201900D01*
X277500Y35222D02*
Y107500D01*
X267500Y35222D02*
X267860Y35582D01*
X262500Y35222D02*
Y114247D01*
X257300Y119447D02*
X262500Y114247D01*
X231900Y123100D02*
X252500Y102500D01*
Y35222D02*
Y102500D01*
X244000Y116770D02*
X257500Y103270D01*
Y35222D02*
Y103270D01*
X231900Y123100D02*
Y203100D01*
X242500Y35222D02*
Y96500D01*
D20*
X193800Y224840D02*
D03*
X270000D02*
D03*
X244600D02*
D03*
X320800D02*
D03*
X193800Y199440D02*
D03*
X244600D02*
D03*
X270000D02*
D03*
X320800D02*
D03*
X346200D02*
D03*
X219200Y224840D02*
D03*
X295400D02*
D03*
X219200Y199440D02*
D03*
X295400D02*
D03*
D21*
X346200Y224840D02*
D03*
D22*
X520000Y30000D02*
D03*
Y220000D02*
D03*
X30000D02*
D03*
Y30000D02*
D03*
M02*
