G04*
G04 #@! TF.GenerationSoftware,Altium Limited,Altium Designer,23.10.1 (27)*
G04*
G04 Layer_Color=32896*
%FSLAX44Y44*%
%MOMM*%
G71*
G04*
G04 #@! TF.SameCoordinates,E8663D54-F838-47F8-9E7A-4E2C6B29C732*
G04*
G04*
G04 #@! TF.FilePolarity,Positive*
G04*
G01*
G75*
%ADD11C,0.1000*%
G36*
X350291Y245972D02*
X350366Y245859D01*
X350526Y245625D01*
X350694Y245410D01*
X350863Y245213D01*
X350947Y245128D01*
X351022Y245044D01*
X351097Y244978D01*
X351154Y244913D01*
X351200Y244866D01*
X351247Y244828D01*
X351266Y244810D01*
X351275Y244800D01*
X351566Y244566D01*
X351856Y244350D01*
X352147Y244154D01*
X352419Y243994D01*
X352541Y243919D01*
X352653Y243863D01*
X352747Y243807D01*
X352831Y243760D01*
X352906Y243722D01*
X352953Y243694D01*
X352991Y243685D01*
X353000Y243676D01*
Y242542D01*
X352794Y242626D01*
X352578Y242720D01*
X352372Y242823D01*
X352185Y242916D01*
X352016Y243001D01*
X351950Y243038D01*
X351885Y243076D01*
X351838Y243104D01*
X351800Y243123D01*
X351782Y243141D01*
X351772D01*
X351529Y243291D01*
X351304Y243441D01*
X351107Y243582D01*
X350947Y243704D01*
X350816Y243807D01*
X350723Y243891D01*
X350694Y243919D01*
X350666Y243938D01*
X350657Y243957D01*
X350648D01*
Y236449D01*
X349467D01*
Y246094D01*
X350235D01*
X350291Y245972D01*
D02*
G37*
G36*
X346833Y239823D02*
Y238746D01*
X342662D01*
Y236449D01*
X341481D01*
Y238746D01*
X340188D01*
Y239823D01*
X341481D01*
Y246056D01*
X342447D01*
X346833Y239823D01*
D02*
G37*
G36*
X244156Y246084D02*
X244419Y246047D01*
X244663Y245991D01*
X244897Y245925D01*
X245112Y245841D01*
X245309Y245747D01*
X245487Y245644D01*
X245656Y245541D01*
X245797Y245438D01*
X245928Y245335D01*
X246040Y245241D01*
X246125Y245156D01*
X246200Y245091D01*
X246256Y245035D01*
X246284Y244997D01*
X246294Y244988D01*
X246472Y244735D01*
X246631Y244454D01*
X246772Y244144D01*
X246884Y243826D01*
X246987Y243488D01*
X247062Y243151D01*
X247137Y242813D01*
X247184Y242485D01*
X247231Y242176D01*
X247259Y241885D01*
X247287Y241623D01*
X247296Y241501D01*
Y241398D01*
X247306Y241295D01*
Y241201D01*
X247315Y241126D01*
Y241061D01*
Y241004D01*
Y240967D01*
Y240948D01*
Y240939D01*
X247306Y240489D01*
X247278Y240077D01*
X247231Y239683D01*
X247165Y239336D01*
X247099Y239008D01*
X247024Y238717D01*
X246940Y238455D01*
X246846Y238221D01*
X246762Y238015D01*
X246678Y237846D01*
X246603Y237696D01*
X246528Y237574D01*
X246472Y237480D01*
X246425Y237424D01*
X246397Y237377D01*
X246387Y237368D01*
X246209Y237180D01*
X246022Y237012D01*
X245825Y236871D01*
X245619Y236749D01*
X245422Y236637D01*
X245216Y236552D01*
X245028Y236478D01*
X244841Y236421D01*
X244663Y236384D01*
X244503Y236346D01*
X244353Y236327D01*
X244231Y236309D01*
X244128Y236299D01*
X244053Y236290D01*
X243988D01*
X243829Y236299D01*
X243669Y236309D01*
X243379Y236356D01*
X243116Y236421D01*
X242994Y236459D01*
X242891Y236496D01*
X242788Y236534D01*
X242704Y236571D01*
X242629Y236609D01*
X242563Y236637D01*
X242507Y236665D01*
X242469Y236684D01*
X242451Y236702D01*
X242441D01*
X242198Y236871D01*
X241982Y237059D01*
X241804Y237255D01*
X241645Y237452D01*
X241523Y237621D01*
X241476Y237696D01*
X241439Y237761D01*
X241401Y237808D01*
X241382Y237846D01*
X241364Y237874D01*
Y237883D01*
X241232Y238183D01*
X241138Y238474D01*
X241064Y238755D01*
X241017Y239017D01*
X240998Y239139D01*
X240989Y239242D01*
X240979Y239336D01*
Y239421D01*
X240970Y239486D01*
Y239533D01*
Y239561D01*
Y239570D01*
X240979Y239823D01*
X241007Y240058D01*
X241045Y240283D01*
X241101Y240498D01*
X241167Y240695D01*
X241232Y240883D01*
X241307Y241051D01*
X241382Y241201D01*
X241467Y241342D01*
X241542Y241464D01*
X241607Y241567D01*
X241673Y241651D01*
X241729Y241717D01*
X241766Y241773D01*
X241795Y241801D01*
X241804Y241810D01*
X241963Y241960D01*
X242123Y242101D01*
X242291Y242213D01*
X242469Y242317D01*
X242638Y242401D01*
X242798Y242467D01*
X242966Y242523D01*
X243116Y242570D01*
X243257Y242607D01*
X243388Y242635D01*
X243510Y242654D01*
X243613Y242673D01*
X243697D01*
X243754Y242682D01*
X243810D01*
X244063Y242673D01*
X244297Y242635D01*
X244513Y242579D01*
X244709Y242523D01*
X244794Y242495D01*
X244869Y242467D01*
X244934Y242438D01*
X245000Y242410D01*
X245037Y242392D01*
X245075Y242373D01*
X245094Y242363D01*
X245103D01*
X245328Y242232D01*
X245525Y242082D01*
X245703Y241923D01*
X245853Y241764D01*
X245975Y241623D01*
X246031Y241557D01*
X246068Y241501D01*
X246097Y241464D01*
X246125Y241426D01*
X246134Y241407D01*
X246143Y241398D01*
X246134Y241660D01*
X246125Y241904D01*
X246106Y242139D01*
X246087Y242354D01*
X246059Y242551D01*
X246031Y242738D01*
X246003Y242898D01*
X245975Y243048D01*
X245947Y243179D01*
X245919Y243301D01*
X245890Y243394D01*
X245862Y243479D01*
X245844Y243535D01*
X245825Y243582D01*
X245816Y243610D01*
Y243619D01*
X245684Y243901D01*
X245544Y244135D01*
X245394Y244341D01*
X245253Y244510D01*
X245122Y244641D01*
X245028Y244735D01*
X244991Y244772D01*
X244963Y244791D01*
X244944Y244810D01*
X244934D01*
X244766Y244913D01*
X244597Y244997D01*
X244428Y245053D01*
X244278Y245091D01*
X244138Y245110D01*
X244035Y245128D01*
X243941D01*
X243810Y245119D01*
X243688Y245110D01*
X243463Y245053D01*
X243257Y244969D01*
X243088Y244875D01*
X242947Y244782D01*
X242891Y244744D01*
X242844Y244697D01*
X242807Y244669D01*
X242779Y244641D01*
X242769Y244632D01*
X242760Y244622D01*
X242657Y244491D01*
X242563Y244332D01*
X242488Y244163D01*
X242423Y243994D01*
X242376Y243844D01*
X242357Y243779D01*
X242338Y243722D01*
X242329Y243676D01*
X242320Y243638D01*
X242310Y243619D01*
Y243610D01*
X241138Y243704D01*
X241176Y243910D01*
X241223Y244097D01*
X241270Y244275D01*
X241335Y244444D01*
X241410Y244604D01*
X241476Y244744D01*
X241551Y244885D01*
X241626Y244997D01*
X241701Y245100D01*
X241776Y245194D01*
X241842Y245278D01*
X241898Y245344D01*
X241945Y245391D01*
X241982Y245428D01*
X242001Y245447D01*
X242010Y245456D01*
X242151Y245569D01*
X242301Y245663D01*
X242451Y245756D01*
X242610Y245822D01*
X242760Y245888D01*
X242919Y245934D01*
X243210Y246019D01*
X243351Y246038D01*
X243472Y246056D01*
X243585Y246075D01*
X243688Y246084D01*
X243763Y246094D01*
X243875D01*
X244156Y246084D01*
D02*
G37*
G36*
X194279D02*
X194513Y246066D01*
X194738Y246028D01*
X194944Y245981D01*
X195141Y245925D01*
X195319Y245869D01*
X195478Y245803D01*
X195628Y245738D01*
X195760Y245672D01*
X195882Y245606D01*
X195975Y245550D01*
X196060Y245494D01*
X196125Y245447D01*
X196172Y245410D01*
X196200Y245391D01*
X196210Y245381D01*
X196350Y245241D01*
X196481Y245091D01*
X196594Y244932D01*
X196697Y244763D01*
X196781Y244585D01*
X196856Y244416D01*
X196922Y244247D01*
X196978Y244088D01*
X197016Y243929D01*
X197053Y243788D01*
X197081Y243657D01*
X197109Y243544D01*
X197119Y243451D01*
X197128Y243376D01*
X197137Y243338D01*
Y243319D01*
X195928Y243198D01*
X195919Y243366D01*
X195910Y243516D01*
X195882Y243666D01*
X195853Y243797D01*
X195807Y243919D01*
X195769Y244041D01*
X195722Y244144D01*
X195675Y244238D01*
X195628Y244322D01*
X195581Y244397D01*
X195535Y244463D01*
X195497Y244510D01*
X195469Y244547D01*
X195441Y244585D01*
X195432Y244594D01*
X195422Y244604D01*
X195319Y244697D01*
X195216Y244772D01*
X195103Y244847D01*
X194991Y244903D01*
X194766Y244997D01*
X194541Y245053D01*
X194447Y245072D01*
X194354Y245091D01*
X194269Y245100D01*
X194194Y245110D01*
X194138Y245119D01*
X194054D01*
X193904Y245110D01*
X193763Y245100D01*
X193510Y245044D01*
X193285Y244969D01*
X193182Y244922D01*
X193098Y244875D01*
X193013Y244828D01*
X192948Y244782D01*
X192882Y244744D01*
X192835Y244707D01*
X192798Y244678D01*
X192760Y244650D01*
X192751Y244641D01*
X192742Y244632D01*
X192648Y244538D01*
X192573Y244444D01*
X192507Y244341D01*
X192451Y244247D01*
X192357Y244051D01*
X192301Y243863D01*
X192264Y243694D01*
X192254Y243629D01*
X192245Y243573D01*
X192236Y243516D01*
Y243479D01*
Y243460D01*
Y243451D01*
X192245Y243329D01*
X192264Y243198D01*
X192292Y243076D01*
X192320Y242945D01*
X192414Y242710D01*
X192517Y242495D01*
X192573Y242401D01*
X192620Y242307D01*
X192667Y242232D01*
X192714Y242167D01*
X192742Y242110D01*
X192770Y242073D01*
X192789Y242045D01*
X192798Y242035D01*
X192910Y241885D01*
X193051Y241735D01*
X193201Y241567D01*
X193360Y241398D01*
X193707Y241061D01*
X194063Y240733D01*
X194232Y240583D01*
X194391Y240442D01*
X194532Y240311D01*
X194663Y240208D01*
X194766Y240114D01*
X194851Y240048D01*
X194897Y240011D01*
X194916Y239992D01*
X195094Y239842D01*
X195272Y239692D01*
X195432Y239552D01*
X195581Y239421D01*
X195713Y239289D01*
X195844Y239167D01*
X195956Y239055D01*
X196060Y238961D01*
X196153Y238867D01*
X196228Y238783D01*
X196294Y238708D01*
X196350Y238652D01*
X196397Y238605D01*
X196425Y238568D01*
X196444Y238549D01*
X196453Y238539D01*
X196641Y238305D01*
X196800Y238080D01*
X196931Y237865D01*
X197044Y237668D01*
X197128Y237499D01*
X197156Y237433D01*
X197184Y237377D01*
X197203Y237330D01*
X197222Y237293D01*
X197231Y237274D01*
Y237265D01*
X197278Y237115D01*
X197316Y236974D01*
X197334Y236834D01*
X197353Y236712D01*
X197362Y236599D01*
Y236524D01*
Y236468D01*
Y236459D01*
Y236449D01*
X191017D01*
Y237583D01*
X195732D01*
X195657Y237705D01*
X195572Y237818D01*
X195488Y237921D01*
X195413Y238024D01*
X195338Y238099D01*
X195282Y238165D01*
X195244Y238211D01*
X195235Y238221D01*
X195169Y238286D01*
X195085Y238361D01*
X194991Y238455D01*
X194888Y238549D01*
X194663Y238746D01*
X194438Y238942D01*
X194213Y239130D01*
X194119Y239214D01*
X194035Y239289D01*
X193969Y239345D01*
X193913Y239392D01*
X193876Y239421D01*
X193866Y239430D01*
X193641Y239627D01*
X193426Y239805D01*
X193229Y239983D01*
X193051Y240142D01*
X192882Y240292D01*
X192742Y240433D01*
X192601Y240564D01*
X192489Y240676D01*
X192386Y240779D01*
X192292Y240864D01*
X192226Y240939D01*
X192161Y241004D01*
X192114Y241051D01*
X192086Y241089D01*
X192067Y241108D01*
X192057Y241117D01*
X191861Y241342D01*
X191701Y241557D01*
X191561Y241764D01*
X191458Y241932D01*
X191373Y242082D01*
X191345Y242139D01*
X191317Y242195D01*
X191298Y242232D01*
X191280Y242260D01*
X191270Y242279D01*
Y242288D01*
X191186Y242495D01*
X191130Y242701D01*
X191083Y242898D01*
X191055Y243066D01*
X191036Y243216D01*
Y243273D01*
X191026Y243329D01*
Y243366D01*
Y243394D01*
Y243413D01*
Y243423D01*
X191036Y243629D01*
X191064Y243826D01*
X191101Y244022D01*
X191148Y244200D01*
X191214Y244369D01*
X191280Y244519D01*
X191355Y244669D01*
X191430Y244800D01*
X191504Y244922D01*
X191579Y245025D01*
X191645Y245110D01*
X191711Y245185D01*
X191758Y245250D01*
X191795Y245288D01*
X191823Y245316D01*
X191833Y245325D01*
X191992Y245456D01*
X192161Y245578D01*
X192329Y245681D01*
X192517Y245766D01*
X192695Y245841D01*
X192882Y245906D01*
X193060Y245953D01*
X193229Y246000D01*
X193398Y246028D01*
X193548Y246056D01*
X193679Y246075D01*
X193791Y246084D01*
X193895D01*
X193960Y246094D01*
X194026D01*
X194279Y246084D01*
D02*
G37*
G36*
X222193Y239861D02*
Y238783D01*
X218023D01*
Y236487D01*
X216842D01*
Y238783D01*
X215548D01*
Y239861D01*
X216842D01*
Y246094D01*
X217807D01*
X222193Y239861D01*
D02*
G37*
G36*
X318743Y246084D02*
X318978Y246066D01*
X319203Y246028D01*
X319409Y245981D01*
X319606Y245925D01*
X319784Y245869D01*
X319943Y245803D01*
X320093Y245738D01*
X320224Y245672D01*
X320346Y245606D01*
X320440Y245550D01*
X320524Y245494D01*
X320590Y245447D01*
X320637Y245410D01*
X320665Y245391D01*
X320674Y245381D01*
X320815Y245241D01*
X320946Y245091D01*
X321059Y244932D01*
X321162Y244763D01*
X321246Y244585D01*
X321321Y244416D01*
X321387Y244247D01*
X321443Y244088D01*
X321480Y243929D01*
X321518Y243788D01*
X321546Y243657D01*
X321574Y243544D01*
X321583Y243451D01*
X321593Y243376D01*
X321602Y243338D01*
Y243319D01*
X320393Y243198D01*
X320384Y243366D01*
X320374Y243516D01*
X320346Y243666D01*
X320318Y243797D01*
X320271Y243919D01*
X320234Y244041D01*
X320187Y244144D01*
X320140Y244238D01*
X320093Y244322D01*
X320046Y244397D01*
X319999Y244463D01*
X319962Y244510D01*
X319934Y244547D01*
X319906Y244585D01*
X319896Y244594D01*
X319887Y244604D01*
X319784Y244697D01*
X319681Y244772D01*
X319568Y244847D01*
X319456Y244903D01*
X319231Y244997D01*
X319006Y245053D01*
X318912Y245072D01*
X318818Y245091D01*
X318734Y245100D01*
X318659Y245110D01*
X318603Y245119D01*
X318519D01*
X318369Y245110D01*
X318228Y245100D01*
X317975Y245044D01*
X317750Y244969D01*
X317647Y244922D01*
X317563Y244875D01*
X317478Y244828D01*
X317413Y244782D01*
X317347Y244744D01*
X317300Y244707D01*
X317263Y244678D01*
X317225Y244650D01*
X317216Y244641D01*
X317206Y244632D01*
X317113Y244538D01*
X317038Y244444D01*
X316972Y244341D01*
X316916Y244247D01*
X316822Y244051D01*
X316766Y243863D01*
X316728Y243694D01*
X316719Y243629D01*
X316710Y243573D01*
X316700Y243516D01*
Y243479D01*
Y243460D01*
Y243451D01*
X316710Y243329D01*
X316728Y243198D01*
X316756Y243076D01*
X316785Y242945D01*
X316878Y242710D01*
X316982Y242495D01*
X317038Y242401D01*
X317085Y242307D01*
X317131Y242232D01*
X317178Y242167D01*
X317206Y242110D01*
X317234Y242073D01*
X317253Y242045D01*
X317263Y242035D01*
X317375Y241885D01*
X317516Y241735D01*
X317666Y241567D01*
X317825Y241398D01*
X318172Y241061D01*
X318528Y240733D01*
X318697Y240583D01*
X318856Y240442D01*
X318997Y240311D01*
X319128Y240208D01*
X319231Y240114D01*
X319315Y240048D01*
X319362Y240011D01*
X319381Y239992D01*
X319559Y239842D01*
X319737Y239692D01*
X319896Y239552D01*
X320046Y239421D01*
X320177Y239289D01*
X320309Y239167D01*
X320421Y239055D01*
X320524Y238961D01*
X320618Y238867D01*
X320693Y238783D01*
X320759Y238708D01*
X320815Y238652D01*
X320862Y238605D01*
X320890Y238568D01*
X320909Y238549D01*
X320918Y238539D01*
X321105Y238305D01*
X321265Y238080D01*
X321396Y237865D01*
X321508Y237668D01*
X321593Y237499D01*
X321621Y237433D01*
X321649Y237377D01*
X321668Y237330D01*
X321687Y237293D01*
X321696Y237274D01*
Y237265D01*
X321743Y237115D01*
X321780Y236974D01*
X321799Y236834D01*
X321818Y236712D01*
X321827Y236599D01*
Y236524D01*
Y236468D01*
Y236459D01*
Y236449D01*
X315482D01*
Y237583D01*
X320196D01*
X320121Y237705D01*
X320037Y237818D01*
X319953Y237921D01*
X319878Y238024D01*
X319803Y238099D01*
X319746Y238165D01*
X319709Y238211D01*
X319699Y238221D01*
X319634Y238286D01*
X319550Y238361D01*
X319456Y238455D01*
X319353Y238549D01*
X319128Y238746D01*
X318903Y238942D01*
X318678Y239130D01*
X318584Y239214D01*
X318500Y239289D01*
X318434Y239345D01*
X318378Y239392D01*
X318340Y239421D01*
X318331Y239430D01*
X318106Y239627D01*
X317891Y239805D01*
X317694Y239983D01*
X317516Y240142D01*
X317347Y240292D01*
X317206Y240433D01*
X317066Y240564D01*
X316953Y240676D01*
X316850Y240779D01*
X316756Y240864D01*
X316691Y240939D01*
X316625Y241004D01*
X316578Y241051D01*
X316550Y241089D01*
X316532Y241108D01*
X316522Y241117D01*
X316325Y241342D01*
X316166Y241557D01*
X316026Y241764D01*
X315922Y241932D01*
X315838Y242082D01*
X315810Y242139D01*
X315782Y242195D01*
X315763Y242232D01*
X315744Y242260D01*
X315735Y242279D01*
Y242288D01*
X315651Y242495D01*
X315594Y242701D01*
X315548Y242898D01*
X315519Y243066D01*
X315501Y243216D01*
Y243273D01*
X315491Y243329D01*
Y243366D01*
Y243394D01*
Y243413D01*
Y243423D01*
X315501Y243629D01*
X315529Y243826D01*
X315566Y244022D01*
X315613Y244200D01*
X315679Y244369D01*
X315744Y244519D01*
X315819Y244669D01*
X315894Y244800D01*
X315969Y244922D01*
X316044Y245025D01*
X316110Y245110D01*
X316175Y245185D01*
X316222Y245250D01*
X316260Y245288D01*
X316288Y245316D01*
X316297Y245325D01*
X316457Y245456D01*
X316625Y245578D01*
X316794Y245681D01*
X316982Y245766D01*
X317160Y245841D01*
X317347Y245906D01*
X317525Y245953D01*
X317694Y246000D01*
X317862Y246028D01*
X318012Y246056D01*
X318144Y246075D01*
X318256Y246084D01*
X318359D01*
X318425Y246094D01*
X318490D01*
X318743Y246084D01*
D02*
G37*
G36*
X325520Y245972D02*
X325595Y245859D01*
X325754Y245625D01*
X325923Y245410D01*
X326092Y245213D01*
X326176Y245128D01*
X326251Y245044D01*
X326326Y244978D01*
X326382Y244913D01*
X326429Y244866D01*
X326476Y244828D01*
X326495Y244810D01*
X326504Y244800D01*
X326795Y244566D01*
X327085Y244350D01*
X327376Y244154D01*
X327648Y243994D01*
X327769Y243919D01*
X327882Y243863D01*
X327976Y243807D01*
X328060Y243760D01*
X328135Y243722D01*
X328182Y243694D01*
X328219Y243685D01*
X328229Y243676D01*
Y242542D01*
X328022Y242626D01*
X327807Y242720D01*
X327601Y242823D01*
X327413Y242916D01*
X327244Y243001D01*
X327179Y243038D01*
X327113Y243076D01*
X327066Y243104D01*
X327029Y243123D01*
X327010Y243141D01*
X327001D01*
X326757Y243291D01*
X326532Y243441D01*
X326335Y243582D01*
X326176Y243704D01*
X326045Y243807D01*
X325951Y243891D01*
X325923Y243919D01*
X325895Y243938D01*
X325885Y243957D01*
X325876D01*
Y236449D01*
X324695D01*
Y246094D01*
X325464D01*
X325520Y245972D01*
D02*
G37*
G36*
X296827D02*
X296902Y245859D01*
X297062Y245625D01*
X297230Y245410D01*
X297399Y245213D01*
X297483Y245128D01*
X297558Y245044D01*
X297633Y244978D01*
X297690Y244913D01*
X297736Y244866D01*
X297783Y244828D01*
X297802Y244810D01*
X297811Y244800D01*
X298102Y244566D01*
X298393Y244350D01*
X298683Y244154D01*
X298955Y243994D01*
X299077Y243919D01*
X299189Y243863D01*
X299283Y243807D01*
X299367Y243760D01*
X299442Y243722D01*
X299489Y243694D01*
X299527Y243685D01*
X299536Y243676D01*
Y242542D01*
X299330Y242626D01*
X299114Y242720D01*
X298908Y242823D01*
X298721Y242916D01*
X298552Y243001D01*
X298486Y243038D01*
X298421Y243076D01*
X298374Y243104D01*
X298336Y243123D01*
X298318Y243141D01*
X298308D01*
X298064Y243291D01*
X297840Y243441D01*
X297643Y243582D01*
X297483Y243704D01*
X297352Y243807D01*
X297258Y243891D01*
X297230Y243919D01*
X297202Y243938D01*
X297193Y243957D01*
X297183D01*
Y236449D01*
X296003D01*
Y246094D01*
X296771D01*
X296827Y245972D01*
D02*
G37*
G36*
X290051Y246084D02*
X290229Y246066D01*
X290407Y246038D01*
X290566Y246009D01*
X290726Y245963D01*
X290866Y245916D01*
X290998Y245869D01*
X291119Y245813D01*
X291222Y245756D01*
X291326Y245709D01*
X291401Y245663D01*
X291476Y245616D01*
X291522Y245588D01*
X291569Y245560D01*
X291588Y245541D01*
X291597Y245531D01*
X291719Y245419D01*
X291841Y245297D01*
X292057Y245044D01*
X292235Y244782D01*
X292375Y244519D01*
X292441Y244397D01*
X292488Y244285D01*
X292535Y244191D01*
X292572Y244097D01*
X292600Y244032D01*
X292619Y243976D01*
X292638Y243938D01*
Y243929D01*
X292694Y243722D01*
X292750Y243516D01*
X292835Y243057D01*
X292900Y242607D01*
X292919Y242382D01*
X292938Y242167D01*
X292956Y241960D01*
X292966Y241773D01*
X292975Y241614D01*
Y241464D01*
X292985Y241351D01*
Y241257D01*
Y241201D01*
Y241192D01*
Y241182D01*
X292975Y240695D01*
X292947Y240236D01*
X292900Y239823D01*
X292835Y239430D01*
X292769Y239083D01*
X292685Y238764D01*
X292600Y238474D01*
X292507Y238221D01*
X292422Y237996D01*
X292338Y237799D01*
X292253Y237640D01*
X292188Y237508D01*
X292122Y237405D01*
X292075Y237330D01*
X292047Y237293D01*
X292038Y237274D01*
X291888Y237105D01*
X291719Y236946D01*
X291541Y236815D01*
X291363Y236702D01*
X291185Y236609D01*
X290998Y236534D01*
X290819Y236468D01*
X290651Y236412D01*
X290491Y236374D01*
X290341Y236346D01*
X290201Y236318D01*
X290088Y236309D01*
X289985Y236299D01*
X289920Y236290D01*
X289854D01*
X289657Y236299D01*
X289479Y236318D01*
X289301Y236346D01*
X289142Y236374D01*
X288982Y236421D01*
X288842Y236468D01*
X288711Y236515D01*
X288589Y236571D01*
X288486Y236627D01*
X288392Y236674D01*
X288308Y236721D01*
X288242Y236768D01*
X288186Y236796D01*
X288148Y236824D01*
X288130Y236843D01*
X288120Y236852D01*
X287998Y236965D01*
X287876Y237087D01*
X287661Y237340D01*
X287483Y237612D01*
X287342Y237865D01*
X287277Y237986D01*
X287230Y238099D01*
X287183Y238193D01*
X287145Y238286D01*
X287117Y238352D01*
X287099Y238408D01*
X287080Y238446D01*
Y238455D01*
X287014Y238661D01*
X286958Y238867D01*
X286874Y239317D01*
X286808Y239777D01*
X286789Y239992D01*
X286770Y240208D01*
X286752Y240414D01*
X286742Y240592D01*
X286733Y240761D01*
Y240901D01*
X286724Y241023D01*
Y241108D01*
Y241164D01*
Y241182D01*
Y241445D01*
X286733Y241689D01*
X286742Y241923D01*
X286761Y242139D01*
X286780Y242345D01*
X286799Y242523D01*
X286817Y242701D01*
X286836Y242851D01*
X286855Y242991D01*
X286874Y243113D01*
X286892Y243216D01*
X286911Y243301D01*
X286930Y243366D01*
X286939Y243413D01*
X286949Y243441D01*
Y243451D01*
X287033Y243751D01*
X287136Y244032D01*
X287230Y244275D01*
X287277Y244379D01*
X287323Y244482D01*
X287370Y244566D01*
X287408Y244650D01*
X287445Y244716D01*
X287473Y244772D01*
X287502Y244819D01*
X287520Y244847D01*
X287539Y244866D01*
Y244875D01*
X287689Y245082D01*
X287848Y245269D01*
X288008Y245419D01*
X288158Y245550D01*
X288298Y245644D01*
X288401Y245719D01*
X288448Y245747D01*
X288476Y245756D01*
X288495Y245775D01*
X288504D01*
X288729Y245878D01*
X288964Y245963D01*
X289189Y246019D01*
X289395Y246056D01*
X289489Y246066D01*
X289582Y246075D01*
X289657Y246084D01*
X289723Y246094D01*
X289854D01*
X290051Y246084D01*
D02*
G37*
G36*
X269222D02*
X269447Y246066D01*
X269644Y246028D01*
X269841Y245981D01*
X270019Y245925D01*
X270187Y245869D01*
X270337Y245803D01*
X270469Y245738D01*
X270590Y245663D01*
X270703Y245597D01*
X270787Y245541D01*
X270862Y245485D01*
X270928Y245438D01*
X270965Y245400D01*
X270993Y245381D01*
X271003Y245372D01*
X271134Y245231D01*
X271246Y245091D01*
X271350Y244941D01*
X271434Y244800D01*
X271509Y244650D01*
X271565Y244500D01*
X271621Y244360D01*
X271659Y244229D01*
X271687Y244097D01*
X271715Y243976D01*
X271734Y243872D01*
X271743Y243788D01*
Y243713D01*
X271752Y243657D01*
Y243619D01*
Y243610D01*
X271734Y243357D01*
X271696Y243132D01*
X271640Y242926D01*
X271574Y242757D01*
X271518Y242617D01*
X271490Y242560D01*
X271462Y242504D01*
X271434Y242467D01*
X271425Y242438D01*
X271406Y242429D01*
Y242420D01*
X271256Y242242D01*
X271087Y242092D01*
X270900Y241960D01*
X270721Y241848D01*
X270562Y241764D01*
X270487Y241726D01*
X270431Y241698D01*
X270384Y241679D01*
X270337Y241660D01*
X270319Y241651D01*
X270309D01*
X270469Y241604D01*
X270618Y241548D01*
X270759Y241492D01*
X270890Y241426D01*
X271012Y241351D01*
X271125Y241276D01*
X271228Y241211D01*
X271321Y241136D01*
X271396Y241070D01*
X271471Y241004D01*
X271528Y240948D01*
X271584Y240892D01*
X271621Y240845D01*
X271649Y240817D01*
X271659Y240798D01*
X271668Y240789D01*
X271752Y240667D01*
X271818Y240545D01*
X271884Y240414D01*
X271940Y240283D01*
X272024Y240020D01*
X272081Y239767D01*
X272099Y239655D01*
X272109Y239552D01*
X272118Y239458D01*
X272127Y239383D01*
X272137Y239317D01*
Y239261D01*
Y239233D01*
Y239224D01*
X272127Y238989D01*
X272099Y238774D01*
X272052Y238568D01*
X272006Y238371D01*
X271940Y238183D01*
X271865Y238005D01*
X271790Y237846D01*
X271706Y237705D01*
X271621Y237574D01*
X271546Y237462D01*
X271471Y237358D01*
X271406Y237274D01*
X271350Y237208D01*
X271312Y237162D01*
X271284Y237134D01*
X271275Y237124D01*
X271106Y236974D01*
X270928Y236852D01*
X270740Y236740D01*
X270543Y236646D01*
X270356Y236562D01*
X270168Y236496D01*
X269981Y236440D01*
X269803Y236393D01*
X269634Y236356D01*
X269475Y236337D01*
X269334Y236318D01*
X269212Y236299D01*
X269119D01*
X269044Y236290D01*
X268978D01*
X268716Y236299D01*
X268472Y236327D01*
X268238Y236365D01*
X268022Y236421D01*
X267816Y236487D01*
X267629Y236552D01*
X267451Y236627D01*
X267291Y236712D01*
X267160Y236787D01*
X267029Y236862D01*
X266926Y236927D01*
X266841Y236993D01*
X266776Y237049D01*
X266719Y237087D01*
X266691Y237115D01*
X266682Y237124D01*
X266532Y237283D01*
X266391Y237452D01*
X266279Y237621D01*
X266176Y237799D01*
X266091Y237977D01*
X266026Y238146D01*
X265970Y238314D01*
X265923Y238474D01*
X265885Y238624D01*
X265857Y238764D01*
X265838Y238886D01*
X265820Y238989D01*
Y239074D01*
X265810Y239139D01*
Y239186D01*
Y239195D01*
X265820Y239364D01*
X265829Y239514D01*
X265885Y239814D01*
X265960Y240067D01*
X265998Y240189D01*
X266045Y240292D01*
X266091Y240386D01*
X266129Y240480D01*
X266166Y240545D01*
X266204Y240611D01*
X266232Y240658D01*
X266260Y240695D01*
X266269Y240714D01*
X266279Y240723D01*
X266373Y240836D01*
X266466Y240948D01*
X266682Y241136D01*
X266907Y241295D01*
X267122Y241426D01*
X267319Y241529D01*
X267404Y241567D01*
X267479Y241595D01*
X267535Y241623D01*
X267582Y241642D01*
X267610Y241651D01*
X267619D01*
X267366Y241764D01*
X267151Y241885D01*
X266973Y242007D01*
X266822Y242129D01*
X266710Y242242D01*
X266626Y242326D01*
X266579Y242392D01*
X266560Y242401D01*
Y242410D01*
X266438Y242607D01*
X266354Y242804D01*
X266288Y243001D01*
X266251Y243179D01*
X266223Y243338D01*
X266213Y243413D01*
Y243469D01*
X266204Y243516D01*
Y243554D01*
Y243573D01*
Y243582D01*
X266213Y243779D01*
X266232Y243957D01*
X266279Y244135D01*
X266326Y244304D01*
X266382Y244463D01*
X266448Y244604D01*
X266513Y244744D01*
X266588Y244866D01*
X266663Y244978D01*
X266729Y245072D01*
X266794Y245166D01*
X266851Y245231D01*
X266898Y245288D01*
X266935Y245325D01*
X266963Y245353D01*
X266973Y245363D01*
X267122Y245494D01*
X267282Y245606D01*
X267441Y245700D01*
X267610Y245784D01*
X267778Y245859D01*
X267947Y245916D01*
X268116Y245963D01*
X268275Y246000D01*
X268425Y246028D01*
X268556Y246056D01*
X268678Y246075D01*
X268791Y246084D01*
X268875Y246094D01*
X268997D01*
X269222Y246084D01*
D02*
G37*
G36*
X298645Y185616D02*
X298879Y185588D01*
X299095Y185541D01*
X299301Y185484D01*
X299488Y185419D01*
X299666Y185344D01*
X299835Y185259D01*
X299985Y185184D01*
X300116Y185100D01*
X300238Y185016D01*
X300332Y184941D01*
X300416Y184875D01*
X300491Y184819D01*
X300538Y184772D01*
X300566Y184744D01*
X300575Y184735D01*
X300725Y184566D01*
X300856Y184378D01*
X300969Y184191D01*
X301072Y183994D01*
X301147Y183797D01*
X301222Y183601D01*
X301278Y183404D01*
X301325Y183226D01*
X301353Y183048D01*
X301381Y182888D01*
X301400Y182748D01*
X301419Y182626D01*
Y182523D01*
X301428Y182448D01*
Y182401D01*
Y182382D01*
X301419Y182120D01*
X301391Y181876D01*
X301353Y181651D01*
X301297Y181426D01*
X301241Y181229D01*
X301166Y181042D01*
X301091Y180864D01*
X301016Y180714D01*
X300941Y180573D01*
X300866Y180451D01*
X300791Y180348D01*
X300735Y180264D01*
X300678Y180198D01*
X300641Y180142D01*
X300613Y180114D01*
X300604Y180105D01*
X300444Y179954D01*
X300275Y179823D01*
X300107Y179701D01*
X299938Y179608D01*
X299769Y179523D01*
X299601Y179448D01*
X299441Y179392D01*
X299282Y179355D01*
X299141Y179317D01*
X299010Y179289D01*
X298888Y179270D01*
X298785Y179252D01*
X298701D01*
X298645Y179242D01*
X298588D01*
X298326Y179261D01*
X298082Y179298D01*
X297857Y179355D01*
X297661Y179420D01*
X297576Y179448D01*
X297501Y179477D01*
X297426Y179505D01*
X297370Y179533D01*
X297323Y179561D01*
X297295Y179570D01*
X297276Y179589D01*
X297267D01*
X297051Y179730D01*
X296854Y179879D01*
X296686Y180030D01*
X296545Y180170D01*
X296433Y180301D01*
X296358Y180404D01*
X296330Y180442D01*
X296311Y180470D01*
X296292Y180489D01*
Y180395D01*
Y180329D01*
Y180283D01*
Y180264D01*
X296301Y179992D01*
X296320Y179730D01*
X296348Y179486D01*
X296376Y179270D01*
X296395Y179167D01*
X296414Y179083D01*
X296433Y179008D01*
X296442Y178942D01*
X296451Y178895D01*
X296461Y178849D01*
X296470Y178830D01*
Y178820D01*
X296536Y178567D01*
X296611Y178352D01*
X296686Y178155D01*
X296761Y177996D01*
X296817Y177864D01*
X296864Y177771D01*
X296882Y177743D01*
X296901Y177715D01*
X296911Y177705D01*
Y177696D01*
X297014Y177546D01*
X297117Y177415D01*
X297229Y177302D01*
X297342Y177208D01*
X297435Y177133D01*
X297511Y177077D01*
X297557Y177040D01*
X297567Y177030D01*
X297576D01*
X297735Y176946D01*
X297895Y176890D01*
X298064Y176843D01*
X298204Y176815D01*
X298335Y176796D01*
X298438Y176787D01*
X298532D01*
X298757Y176805D01*
X298963Y176843D01*
X299141Y176899D01*
X299291Y176965D01*
X299413Y177030D01*
X299498Y177087D01*
X299554Y177124D01*
X299563Y177143D01*
X299573D01*
X299648Y177218D01*
X299713Y177302D01*
X299825Y177480D01*
X299919Y177677D01*
X299994Y177864D01*
X300051Y178043D01*
X300069Y178118D01*
X300088Y178183D01*
X300097Y178239D01*
X300107Y178277D01*
X300116Y178305D01*
Y178314D01*
X301250Y178211D01*
X301213Y178005D01*
X301175Y177808D01*
X301119Y177621D01*
X301053Y177452D01*
X300988Y177293D01*
X300922Y177152D01*
X300847Y177012D01*
X300772Y176899D01*
X300697Y176787D01*
X300632Y176702D01*
X300566Y176618D01*
X300510Y176552D01*
X300463Y176505D01*
X300425Y176468D01*
X300407Y176449D01*
X300397Y176440D01*
X300257Y176327D01*
X300116Y176234D01*
X299966Y176149D01*
X299807Y176084D01*
X299657Y176018D01*
X299498Y175971D01*
X299207Y175896D01*
X299076Y175877D01*
X298944Y175859D01*
X298832Y175840D01*
X298738Y175831D01*
X298663Y175821D01*
X298551D01*
X298354Y175831D01*
X298167Y175849D01*
X297988Y175877D01*
X297820Y175906D01*
X297651Y175952D01*
X297501Y175999D01*
X297360Y176046D01*
X297229Y176102D01*
X297117Y176159D01*
X297014Y176206D01*
X296920Y176252D01*
X296845Y176299D01*
X296779Y176327D01*
X296742Y176355D01*
X296714Y176374D01*
X296705Y176384D01*
X296564Y176496D01*
X296423Y176618D01*
X296189Y176880D01*
X295983Y177162D01*
X295814Y177424D01*
X295739Y177555D01*
X295683Y177668D01*
X295636Y177771D01*
X295589Y177864D01*
X295552Y177939D01*
X295533Y177996D01*
X295514Y178033D01*
Y178043D01*
X295439Y178258D01*
X295383Y178483D01*
X295327Y178717D01*
X295280Y178961D01*
X295205Y179448D01*
X295186Y179692D01*
X295158Y179917D01*
X295149Y180142D01*
X295130Y180339D01*
X295121Y180517D01*
Y180676D01*
X295111Y180798D01*
Y180892D01*
Y180929D01*
Y180957D01*
Y180967D01*
Y180976D01*
Y181295D01*
X295130Y181604D01*
X295149Y181885D01*
X295177Y182148D01*
X295205Y182391D01*
X295242Y182607D01*
X295271Y182813D01*
X295308Y182991D01*
X295345Y183151D01*
X295383Y183291D01*
X295420Y183404D01*
X295448Y183507D01*
X295477Y183582D01*
X295495Y183629D01*
X295505Y183666D01*
X295514Y183675D01*
X295589Y183844D01*
X295683Y184004D01*
X295777Y184153D01*
X295870Y184294D01*
X295964Y184425D01*
X296067Y184547D01*
X296161Y184650D01*
X296255Y184753D01*
X296348Y184838D01*
X296423Y184913D01*
X296498Y184969D01*
X296564Y185025D01*
X296620Y185063D01*
X296658Y185100D01*
X296686Y185110D01*
X296695Y185119D01*
X296845Y185213D01*
X296995Y185287D01*
X297145Y185353D01*
X297295Y185409D01*
X297576Y185503D01*
X297848Y185559D01*
X297960Y185588D01*
X298073Y185597D01*
X298167Y185606D01*
X298251Y185616D01*
X298316Y185625D01*
X298410D01*
X298645Y185616D01*
D02*
G37*
G36*
X217486D02*
X217692Y185597D01*
X217879Y185569D01*
X218057Y185522D01*
X218226Y185475D01*
X218385Y185419D01*
X218535Y185362D01*
X218667Y185297D01*
X218779Y185241D01*
X218892Y185175D01*
X218976Y185119D01*
X219051Y185072D01*
X219116Y185025D01*
X219154Y184997D01*
X219182Y184978D01*
X219191Y184969D01*
X219323Y184838D01*
X219454Y184706D01*
X219566Y184557D01*
X219660Y184407D01*
X219754Y184257D01*
X219829Y184097D01*
X219904Y183947D01*
X219960Y183807D01*
X220016Y183666D01*
X220054Y183544D01*
X220091Y183422D01*
X220119Y183329D01*
X220138Y183244D01*
X220157Y183188D01*
X220166Y183141D01*
Y183132D01*
X218985Y182926D01*
X218957Y183085D01*
X218929Y183226D01*
X218882Y183366D01*
X218845Y183488D01*
X218798Y183610D01*
X218751Y183713D01*
X218695Y183807D01*
X218648Y183900D01*
X218601Y183975D01*
X218554Y184041D01*
X218517Y184097D01*
X218479Y184135D01*
X218451Y184172D01*
X218423Y184200D01*
X218414Y184210D01*
X218404Y184219D01*
X218320Y184294D01*
X218226Y184369D01*
X218029Y184472D01*
X217842Y184557D01*
X217654Y184603D01*
X217495Y184641D01*
X217429Y184650D01*
X217364D01*
X217317Y184660D01*
X217120D01*
X217008Y184641D01*
X216783Y184594D01*
X216586Y184519D01*
X216427Y184444D01*
X216295Y184369D01*
X216192Y184294D01*
X216164Y184266D01*
X216136Y184247D01*
X216127Y184238D01*
X216117Y184228D01*
X216042Y184144D01*
X215967Y184060D01*
X215864Y183882D01*
X215780Y183704D01*
X215733Y183535D01*
X215695Y183385D01*
X215686Y183319D01*
Y183263D01*
X215677Y183216D01*
Y183179D01*
Y183160D01*
Y183151D01*
X215686Y183001D01*
X215705Y182869D01*
X215733Y182738D01*
X215770Y182616D01*
X215817Y182513D01*
X215874Y182410D01*
X215920Y182316D01*
X215977Y182241D01*
X216042Y182167D01*
X216089Y182110D01*
X216145Y182054D01*
X216192Y182017D01*
X216230Y181979D01*
X216258Y181960D01*
X216277Y181951D01*
X216286Y181942D01*
X216520Y181810D01*
X216755Y181717D01*
X216980Y181642D01*
X217195Y181595D01*
X217289Y181585D01*
X217373Y181567D01*
X217448Y181557D01*
X217514D01*
X217570Y181548D01*
X217701D01*
X217767Y181557D01*
X217814Y181567D01*
X217832D01*
X217964Y180536D01*
X217786Y180573D01*
X217626Y180611D01*
X217486Y180629D01*
X217364Y180639D01*
X217270Y180648D01*
X217195Y180658D01*
X217139D01*
X216989Y180648D01*
X216848Y180639D01*
X216586Y180573D01*
X216352Y180489D01*
X216248Y180442D01*
X216155Y180395D01*
X216070Y180348D01*
X216005Y180301D01*
X215939Y180254D01*
X215883Y180217D01*
X215845Y180180D01*
X215817Y180151D01*
X215799Y180142D01*
X215789Y180133D01*
X215695Y180030D01*
X215611Y179926D01*
X215546Y179814D01*
X215480Y179701D01*
X215424Y179589D01*
X215386Y179477D01*
X215321Y179270D01*
X215302Y179167D01*
X215283Y179083D01*
X215274Y178999D01*
X215264Y178933D01*
X215255Y178867D01*
Y178830D01*
Y178802D01*
Y178792D01*
X215264Y178633D01*
X215283Y178483D01*
X215311Y178342D01*
X215339Y178211D01*
X215433Y177967D01*
X215489Y177855D01*
X215536Y177761D01*
X215592Y177668D01*
X215649Y177593D01*
X215695Y177527D01*
X215733Y177471D01*
X215770Y177424D01*
X215799Y177396D01*
X215817Y177377D01*
X215827Y177368D01*
X215939Y177265D01*
X216052Y177180D01*
X216164Y177105D01*
X216286Y177040D01*
X216408Y176983D01*
X216520Y176937D01*
X216745Y176871D01*
X216848Y176843D01*
X216942Y176824D01*
X217017Y176815D01*
X217092Y176805D01*
X217148Y176796D01*
X217233D01*
X217364Y176805D01*
X217486Y176815D01*
X217711Y176862D01*
X217917Y176937D01*
X218095Y177021D01*
X218235Y177096D01*
X218292Y177133D01*
X218339Y177171D01*
X218376Y177199D01*
X218404Y177218D01*
X218414Y177236D01*
X218423D01*
X218507Y177330D01*
X218592Y177424D01*
X218732Y177649D01*
X218854Y177893D01*
X218948Y178127D01*
X218985Y178239D01*
X219023Y178342D01*
X219051Y178445D01*
X219070Y178521D01*
X219088Y178596D01*
X219098Y178642D01*
X219107Y178680D01*
Y178689D01*
X220288Y178530D01*
X220260Y178305D01*
X220213Y178099D01*
X220157Y177902D01*
X220091Y177715D01*
X220016Y177536D01*
X219941Y177377D01*
X219857Y177227D01*
X219773Y177096D01*
X219688Y176974D01*
X219613Y176871D01*
X219538Y176787D01*
X219473Y176712D01*
X219416Y176646D01*
X219379Y176609D01*
X219351Y176580D01*
X219341Y176571D01*
X219182Y176440D01*
X219013Y176327D01*
X218835Y176224D01*
X218657Y176140D01*
X218489Y176065D01*
X218310Y176009D01*
X218142Y175952D01*
X217982Y175915D01*
X217823Y175887D01*
X217682Y175859D01*
X217561Y175840D01*
X217448Y175831D01*
X217364D01*
X217298Y175821D01*
X217242D01*
X216980Y175831D01*
X216736Y175859D01*
X216502Y175906D01*
X216286Y175962D01*
X216080Y176027D01*
X215892Y176093D01*
X215714Y176177D01*
X215555Y176262D01*
X215405Y176337D01*
X215283Y176421D01*
X215171Y176487D01*
X215086Y176562D01*
X215011Y176609D01*
X214955Y176655D01*
X214927Y176684D01*
X214918Y176693D01*
X214758Y176862D01*
X214618Y177030D01*
X214496Y177218D01*
X214383Y177396D01*
X214299Y177574D01*
X214224Y177752D01*
X214158Y177921D01*
X214111Y178080D01*
X214074Y178239D01*
X214046Y178380D01*
X214027Y178502D01*
X214008Y178614D01*
Y178699D01*
X213999Y178764D01*
Y178811D01*
Y178820D01*
X214008Y178989D01*
X214018Y179158D01*
X214074Y179458D01*
X214111Y179589D01*
X214149Y179720D01*
X214196Y179833D01*
X214233Y179945D01*
X214280Y180039D01*
X214327Y180123D01*
X214365Y180198D01*
X214402Y180254D01*
X214430Y180301D01*
X214458Y180339D01*
X214468Y180358D01*
X214477Y180367D01*
X214571Y180479D01*
X214664Y180583D01*
X214880Y180751D01*
X215105Y180901D01*
X215311Y181004D01*
X215508Y181089D01*
X215583Y181117D01*
X215658Y181145D01*
X215714Y181164D01*
X215761Y181173D01*
X215789Y181182D01*
X215799D01*
X215564Y181304D01*
X215367Y181435D01*
X215199Y181567D01*
X215058Y181698D01*
X214946Y181810D01*
X214871Y181904D01*
X214843Y181942D01*
X214824Y181970D01*
X214805Y181979D01*
Y181988D01*
X214693Y182185D01*
X214608Y182382D01*
X214552Y182570D01*
X214505Y182748D01*
X214486Y182897D01*
X214477Y182963D01*
Y183019D01*
X214468Y183066D01*
Y183094D01*
Y183113D01*
Y183123D01*
X214486Y183366D01*
X214524Y183591D01*
X214580Y183807D01*
X214646Y183985D01*
X214711Y184144D01*
X214739Y184210D01*
X214768Y184257D01*
X214786Y184303D01*
X214805Y184331D01*
X214824Y184350D01*
Y184360D01*
X214964Y184566D01*
X215124Y184753D01*
X215292Y184913D01*
X215461Y185044D01*
X215611Y185147D01*
X215667Y185194D01*
X215724Y185222D01*
X215770Y185250D01*
X215808Y185269D01*
X215827Y185287D01*
X215836D01*
X216089Y185400D01*
X216342Y185484D01*
X216576Y185541D01*
X216801Y185588D01*
X216905Y185597D01*
X216998Y185606D01*
X217073Y185616D01*
X217148D01*
X217204Y185625D01*
X217279D01*
X217486Y185616D01*
D02*
G37*
G36*
X247125Y180526D02*
X246019Y180386D01*
X245916Y180526D01*
X245795Y180658D01*
X245682Y180770D01*
X245560Y180873D01*
X245466Y180948D01*
X245382Y181004D01*
X245326Y181042D01*
X245317Y181051D01*
X245307D01*
X245129Y181136D01*
X244951Y181201D01*
X244782Y181248D01*
X244623Y181285D01*
X244482Y181304D01*
X244426D01*
X244370Y181314D01*
X244276D01*
X244107Y181304D01*
X243948Y181285D01*
X243798Y181257D01*
X243648Y181220D01*
X243517Y181173D01*
X243395Y181126D01*
X243283Y181070D01*
X243180Y181023D01*
X243095Y180967D01*
X243011Y180910D01*
X242945Y180864D01*
X242889Y180817D01*
X242842Y180779D01*
X242814Y180751D01*
X242795Y180732D01*
X242786Y180723D01*
X242683Y180611D01*
X242598Y180489D01*
X242523Y180358D01*
X242458Y180226D01*
X242402Y180095D01*
X242355Y179964D01*
X242289Y179711D01*
X242261Y179589D01*
X242242Y179477D01*
X242233Y179383D01*
X242224Y179298D01*
X242214Y179223D01*
Y179177D01*
Y179139D01*
Y179130D01*
X242224Y178933D01*
X242242Y178755D01*
X242271Y178577D01*
X242308Y178417D01*
X242355Y178267D01*
X242402Y178127D01*
X242458Y177996D01*
X242505Y177883D01*
X242561Y177780D01*
X242617Y177686D01*
X242664Y177602D01*
X242711Y177546D01*
X242749Y177489D01*
X242777Y177452D01*
X242795Y177433D01*
X242805Y177424D01*
X242917Y177311D01*
X243039Y177218D01*
X243161Y177133D01*
X243283Y177058D01*
X243405Y176993D01*
X243517Y176946D01*
X243751Y176871D01*
X243854Y176843D01*
X243948Y176824D01*
X244032Y176805D01*
X244107Y176796D01*
X244164Y176787D01*
X244248D01*
X244379Y176796D01*
X244501Y176805D01*
X244736Y176862D01*
X244942Y176927D01*
X245120Y177012D01*
X245270Y177096D01*
X245326Y177133D01*
X245373Y177171D01*
X245410Y177199D01*
X245438Y177218D01*
X245457Y177227D01*
X245466Y177236D01*
X245551Y177330D01*
X245635Y177424D01*
X245776Y177649D01*
X245879Y177874D01*
X245963Y178089D01*
X246029Y178296D01*
X246048Y178380D01*
X246066Y178455D01*
X246076Y178521D01*
X246085Y178567D01*
X246094Y178596D01*
Y178605D01*
X247332Y178502D01*
X247304Y178277D01*
X247257Y178071D01*
X247200Y177874D01*
X247135Y177686D01*
X247060Y177508D01*
X246985Y177349D01*
X246901Y177199D01*
X246816Y177068D01*
X246741Y176955D01*
X246657Y176852D01*
X246591Y176758D01*
X246526Y176684D01*
X246469Y176627D01*
X246432Y176590D01*
X246404Y176562D01*
X246394Y176552D01*
X246235Y176421D01*
X246066Y176309D01*
X245888Y176215D01*
X245710Y176131D01*
X245523Y176056D01*
X245345Y175999D01*
X245176Y175952D01*
X245007Y175915D01*
X244848Y175887D01*
X244707Y175859D01*
X244576Y175840D01*
X244464Y175831D01*
X244370D01*
X244304Y175821D01*
X244248D01*
X243958Y175831D01*
X243676Y175868D01*
X243423Y175924D01*
X243180Y175999D01*
X242955Y176093D01*
X242749Y176187D01*
X242561Y176290D01*
X242383Y176402D01*
X242233Y176515D01*
X242102Y176618D01*
X241989Y176712D01*
X241896Y176805D01*
X241821Y176880D01*
X241774Y176937D01*
X241736Y176974D01*
X241727Y176983D01*
X241596Y177162D01*
X241474Y177349D01*
X241371Y177546D01*
X241286Y177733D01*
X241211Y177921D01*
X241146Y178108D01*
X241099Y178296D01*
X241052Y178464D01*
X241024Y178624D01*
X240996Y178774D01*
X240977Y178905D01*
X240968Y179017D01*
Y179111D01*
X240958Y179177D01*
Y179214D01*
Y179233D01*
X240968Y179486D01*
X240996Y179730D01*
X241043Y179954D01*
X241089Y180170D01*
X241164Y180367D01*
X241230Y180554D01*
X241315Y180723D01*
X241389Y180873D01*
X241474Y181014D01*
X241558Y181136D01*
X241624Y181239D01*
X241689Y181323D01*
X241746Y181388D01*
X241793Y181445D01*
X241821Y181473D01*
X241830Y181482D01*
X241999Y181632D01*
X242167Y181773D01*
X242345Y181885D01*
X242523Y181988D01*
X242702Y182073D01*
X242880Y182138D01*
X243058Y182195D01*
X243217Y182241D01*
X243367Y182279D01*
X243508Y182307D01*
X243639Y182326D01*
X243742Y182344D01*
X243836D01*
X243901Y182354D01*
X243958D01*
X244136Y182344D01*
X244314Y182326D01*
X244482Y182298D01*
X244642Y182260D01*
X244951Y182157D01*
X245092Y182110D01*
X245223Y182054D01*
X245345Y181988D01*
X245448Y181942D01*
X245551Y181885D01*
X245626Y181838D01*
X245692Y181801D01*
X245738Y181773D01*
X245766Y181754D01*
X245776Y181745D01*
X245260Y184341D01*
X241408D01*
Y185466D01*
X246198D01*
X247125Y180526D01*
D02*
G37*
G36*
X193291Y185344D02*
X193366Y185231D01*
X193526Y184997D01*
X193694Y184781D01*
X193863Y184585D01*
X193947Y184500D01*
X194022Y184416D01*
X194097Y184350D01*
X194154Y184285D01*
X194200Y184238D01*
X194247Y184200D01*
X194266Y184182D01*
X194275Y184172D01*
X194566Y183938D01*
X194856Y183722D01*
X195147Y183526D01*
X195419Y183366D01*
X195541Y183291D01*
X195653Y183235D01*
X195747Y183179D01*
X195831Y183132D01*
X195906Y183094D01*
X195953Y183066D01*
X195991Y183057D01*
X196000Y183048D01*
Y181913D01*
X195794Y181998D01*
X195578Y182092D01*
X195372Y182195D01*
X195185Y182288D01*
X195016Y182373D01*
X194950Y182410D01*
X194885Y182448D01*
X194838Y182476D01*
X194800Y182495D01*
X194782Y182513D01*
X194772D01*
X194529Y182663D01*
X194303Y182813D01*
X194107Y182954D01*
X193947Y183076D01*
X193816Y183179D01*
X193722Y183263D01*
X193694Y183291D01*
X193666Y183310D01*
X193657Y183329D01*
X193647D01*
Y175821D01*
X192467D01*
Y185466D01*
X193235D01*
X193291Y185344D01*
D02*
G37*
G36*
X325791D02*
X325866Y185231D01*
X326026Y184997D01*
X326194Y184781D01*
X326363Y184585D01*
X326447Y184500D01*
X326522Y184416D01*
X326597Y184350D01*
X326654Y184285D01*
X326700Y184238D01*
X326747Y184200D01*
X326766Y184182D01*
X326775Y184172D01*
X327066Y183938D01*
X327356Y183722D01*
X327647Y183526D01*
X327919Y183366D01*
X328041Y183291D01*
X328153Y183235D01*
X328247Y183179D01*
X328331Y183132D01*
X328406Y183094D01*
X328453Y183066D01*
X328491Y183057D01*
X328500Y183048D01*
Y181913D01*
X328294Y181998D01*
X328078Y182092D01*
X327872Y182195D01*
X327685Y182288D01*
X327516Y182373D01*
X327450Y182410D01*
X327385Y182448D01*
X327338Y182476D01*
X327300Y182495D01*
X327281Y182513D01*
X327272D01*
X327029Y182663D01*
X326804Y182813D01*
X326607Y182954D01*
X326447Y183076D01*
X326316Y183179D01*
X326222Y183263D01*
X326194Y183291D01*
X326166Y183310D01*
X326157Y183329D01*
X326147D01*
Y175821D01*
X324967D01*
Y185466D01*
X325735D01*
X325791Y185344D01*
D02*
G37*
G36*
X318331D02*
X318406Y185231D01*
X318565Y184997D01*
X318734Y184781D01*
X318902Y184585D01*
X318987Y184500D01*
X319062Y184416D01*
X319137Y184350D01*
X319193Y184285D01*
X319240Y184238D01*
X319287Y184200D01*
X319305Y184182D01*
X319315Y184172D01*
X319605Y183938D01*
X319896Y183722D01*
X320187Y183526D01*
X320458Y183366D01*
X320580Y183291D01*
X320693Y183235D01*
X320786Y183179D01*
X320871Y183132D01*
X320946Y183094D01*
X320993Y183066D01*
X321030Y183057D01*
X321039Y183048D01*
Y181913D01*
X320833Y181998D01*
X320618Y182092D01*
X320411Y182195D01*
X320224Y182288D01*
X320055Y182373D01*
X319990Y182410D01*
X319924Y182448D01*
X319877Y182476D01*
X319840Y182495D01*
X319821Y182513D01*
X319812D01*
X319568Y182663D01*
X319343Y182813D01*
X319146Y182954D01*
X318987Y183076D01*
X318856Y183179D01*
X318762Y183263D01*
X318734Y183291D01*
X318706Y183310D01*
X318696Y183329D01*
X318687D01*
Y175821D01*
X317506D01*
Y185466D01*
X318274D01*
X318331Y185344D01*
D02*
G37*
G36*
X345337Y185616D02*
X345543Y185597D01*
X345730Y185569D01*
X345909Y185522D01*
X346077Y185475D01*
X346236Y185419D01*
X346386Y185362D01*
X346518Y185297D01*
X346630Y185241D01*
X346743Y185175D01*
X346827Y185119D01*
X346902Y185072D01*
X346968Y185025D01*
X347005Y184997D01*
X347033Y184978D01*
X347043Y184969D01*
X347174Y184838D01*
X347305Y184706D01*
X347417Y184557D01*
X347511Y184407D01*
X347605Y184257D01*
X347680Y184097D01*
X347755Y183947D01*
X347811Y183807D01*
X347867Y183666D01*
X347905Y183544D01*
X347942Y183422D01*
X347970Y183329D01*
X347989Y183244D01*
X348008Y183188D01*
X348017Y183141D01*
Y183132D01*
X346836Y182926D01*
X346808Y183085D01*
X346780Y183226D01*
X346733Y183366D01*
X346696Y183488D01*
X346649Y183610D01*
X346602Y183713D01*
X346546Y183807D01*
X346499Y183900D01*
X346452Y183975D01*
X346405Y184041D01*
X346368Y184097D01*
X346330Y184135D01*
X346302Y184172D01*
X346274Y184200D01*
X346265Y184210D01*
X346255Y184219D01*
X346171Y184294D01*
X346077Y184369D01*
X345880Y184472D01*
X345693Y184557D01*
X345505Y184603D01*
X345346Y184641D01*
X345280Y184650D01*
X345215D01*
X345168Y184660D01*
X344971D01*
X344859Y184641D01*
X344634Y184594D01*
X344437Y184519D01*
X344278Y184444D01*
X344146Y184369D01*
X344043Y184294D01*
X344015Y184266D01*
X343987Y184247D01*
X343978Y184238D01*
X343968Y184228D01*
X343893Y184144D01*
X343818Y184060D01*
X343715Y183882D01*
X343631Y183704D01*
X343584Y183535D01*
X343547Y183385D01*
X343537Y183319D01*
Y183263D01*
X343528Y183216D01*
Y183179D01*
Y183160D01*
Y183151D01*
X343537Y183001D01*
X343556Y182869D01*
X343584Y182738D01*
X343622Y182616D01*
X343668Y182513D01*
X343725Y182410D01*
X343772Y182316D01*
X343828Y182241D01*
X343893Y182167D01*
X343940Y182110D01*
X343997Y182054D01*
X344043Y182017D01*
X344081Y181979D01*
X344109Y181960D01*
X344128Y181951D01*
X344137Y181942D01*
X344371Y181810D01*
X344606Y181717D01*
X344831Y181642D01*
X345046Y181595D01*
X345140Y181585D01*
X345224Y181567D01*
X345299Y181557D01*
X345365D01*
X345421Y181548D01*
X345552D01*
X345618Y181557D01*
X345665Y181567D01*
X345684D01*
X345815Y180536D01*
X345637Y180573D01*
X345477Y180611D01*
X345337Y180629D01*
X345215Y180639D01*
X345121Y180648D01*
X345046Y180658D01*
X344990D01*
X344840Y180648D01*
X344699Y180639D01*
X344437Y180573D01*
X344203Y180489D01*
X344100Y180442D01*
X344006Y180395D01*
X343922Y180348D01*
X343856Y180301D01*
X343790Y180254D01*
X343734Y180217D01*
X343697Y180180D01*
X343668Y180151D01*
X343650Y180142D01*
X343640Y180133D01*
X343547Y180030D01*
X343462Y179926D01*
X343397Y179814D01*
X343331Y179701D01*
X343275Y179589D01*
X343237Y179477D01*
X343172Y179270D01*
X343153Y179167D01*
X343134Y179083D01*
X343125Y178999D01*
X343115Y178933D01*
X343106Y178867D01*
Y178830D01*
Y178802D01*
Y178792D01*
X343115Y178633D01*
X343134Y178483D01*
X343162Y178342D01*
X343190Y178211D01*
X343284Y177967D01*
X343340Y177855D01*
X343387Y177761D01*
X343443Y177668D01*
X343500Y177593D01*
X343547Y177527D01*
X343584Y177471D01*
X343622Y177424D01*
X343650Y177396D01*
X343668Y177377D01*
X343678Y177368D01*
X343790Y177265D01*
X343903Y177180D01*
X344015Y177105D01*
X344137Y177040D01*
X344259Y176983D01*
X344371Y176937D01*
X344596Y176871D01*
X344699Y176843D01*
X344793Y176824D01*
X344868Y176815D01*
X344943Y176805D01*
X344999Y176796D01*
X345084D01*
X345215Y176805D01*
X345337Y176815D01*
X345562Y176862D01*
X345768Y176937D01*
X345946Y177021D01*
X346087Y177096D01*
X346143Y177133D01*
X346190Y177171D01*
X346227Y177199D01*
X346255Y177218D01*
X346265Y177236D01*
X346274D01*
X346358Y177330D01*
X346443Y177424D01*
X346583Y177649D01*
X346705Y177893D01*
X346799Y178127D01*
X346836Y178239D01*
X346874Y178342D01*
X346902Y178445D01*
X346921Y178521D01*
X346940Y178596D01*
X346949Y178642D01*
X346958Y178680D01*
Y178689D01*
X348139Y178530D01*
X348111Y178305D01*
X348064Y178099D01*
X348008Y177902D01*
X347942Y177715D01*
X347867Y177536D01*
X347792Y177377D01*
X347708Y177227D01*
X347624Y177096D01*
X347539Y176974D01*
X347464Y176871D01*
X347389Y176787D01*
X347324Y176712D01*
X347267Y176646D01*
X347230Y176609D01*
X347202Y176580D01*
X347192Y176571D01*
X347033Y176440D01*
X346865Y176327D01*
X346686Y176224D01*
X346508Y176140D01*
X346340Y176065D01*
X346161Y176009D01*
X345993Y175952D01*
X345834Y175915D01*
X345674Y175887D01*
X345534Y175859D01*
X345412Y175840D01*
X345299Y175831D01*
X345215D01*
X345149Y175821D01*
X345093D01*
X344831Y175831D01*
X344587Y175859D01*
X344353Y175906D01*
X344137Y175962D01*
X343931Y176027D01*
X343743Y176093D01*
X343565Y176177D01*
X343406Y176262D01*
X343256Y176337D01*
X343134Y176421D01*
X343022Y176487D01*
X342937Y176562D01*
X342862Y176609D01*
X342806Y176655D01*
X342778Y176684D01*
X342769Y176693D01*
X342609Y176862D01*
X342469Y177030D01*
X342347Y177218D01*
X342234Y177396D01*
X342150Y177574D01*
X342075Y177752D01*
X342010Y177921D01*
X341963Y178080D01*
X341925Y178239D01*
X341897Y178380D01*
X341878Y178502D01*
X341860Y178614D01*
Y178699D01*
X341850Y178764D01*
Y178811D01*
Y178820D01*
X341860Y178989D01*
X341869Y179158D01*
X341925Y179458D01*
X341963Y179589D01*
X342000Y179720D01*
X342047Y179833D01*
X342085Y179945D01*
X342131Y180039D01*
X342178Y180123D01*
X342216Y180198D01*
X342253Y180254D01*
X342281Y180301D01*
X342309Y180339D01*
X342319Y180358D01*
X342328Y180367D01*
X342422Y180479D01*
X342516Y180583D01*
X342731Y180751D01*
X342956Y180901D01*
X343162Y181004D01*
X343359Y181089D01*
X343434Y181117D01*
X343509Y181145D01*
X343565Y181164D01*
X343612Y181173D01*
X343640Y181182D01*
X343650D01*
X343415Y181304D01*
X343218Y181435D01*
X343050Y181567D01*
X342909Y181698D01*
X342797Y181810D01*
X342722Y181904D01*
X342694Y181942D01*
X342675Y181970D01*
X342656Y181979D01*
Y181988D01*
X342544Y182185D01*
X342459Y182382D01*
X342403Y182570D01*
X342356Y182748D01*
X342337Y182897D01*
X342328Y182963D01*
Y183019D01*
X342319Y183066D01*
Y183094D01*
Y183113D01*
Y183123D01*
X342337Y183366D01*
X342375Y183591D01*
X342431Y183807D01*
X342497Y183985D01*
X342562Y184144D01*
X342591Y184210D01*
X342619Y184257D01*
X342637Y184303D01*
X342656Y184331D01*
X342675Y184350D01*
Y184360D01*
X342816Y184566D01*
X342975Y184753D01*
X343144Y184913D01*
X343312Y185044D01*
X343462Y185147D01*
X343518Y185194D01*
X343575Y185222D01*
X343622Y185250D01*
X343659Y185269D01*
X343678Y185287D01*
X343687D01*
X343940Y185400D01*
X344193Y185484D01*
X344428Y185541D01*
X344652Y185588D01*
X344756Y185597D01*
X344849Y185606D01*
X344924Y185616D01*
X344999D01*
X345056Y185625D01*
X345131D01*
X345337Y185616D01*
D02*
G37*
G36*
X351991Y185503D02*
X352066Y185391D01*
X352226Y185156D01*
X352394Y184941D01*
X352563Y184744D01*
X352647Y184660D01*
X352722Y184575D01*
X352797Y184510D01*
X352854Y184444D01*
X352900Y184397D01*
X352947Y184360D01*
X352966Y184341D01*
X352975Y184331D01*
X353266Y184097D01*
X353557Y183882D01*
X353847Y183685D01*
X354119Y183526D01*
X354241Y183451D01*
X354353Y183394D01*
X354447Y183338D01*
X354531Y183291D01*
X354606Y183254D01*
X354653Y183226D01*
X354691Y183216D01*
X354700Y183207D01*
Y182073D01*
X354494Y182157D01*
X354278Y182251D01*
X354072Y182354D01*
X353885Y182448D01*
X353716Y182532D01*
X353650Y182570D01*
X353585Y182607D01*
X353538Y182635D01*
X353500Y182654D01*
X353481Y182673D01*
X353472D01*
X353228Y182822D01*
X353004Y182973D01*
X352807Y183113D01*
X352647Y183235D01*
X352516Y183338D01*
X352422Y183422D01*
X352394Y183451D01*
X352366Y183469D01*
X352357Y183488D01*
X352347D01*
Y175980D01*
X351166D01*
Y185625D01*
X351935D01*
X351991Y185503D01*
D02*
G37*
G36*
X274460Y184172D02*
X269764D01*
X269933Y183975D01*
X270092Y183769D01*
X270411Y183347D01*
X270692Y182926D01*
X270823Y182719D01*
X270945Y182523D01*
X271057Y182344D01*
X271161Y182176D01*
X271245Y182026D01*
X271320Y181904D01*
X271376Y181792D01*
X271423Y181717D01*
X271451Y181670D01*
X271460Y181651D01*
X271742Y181089D01*
X271985Y180536D01*
X272098Y180273D01*
X272192Y180011D01*
X272285Y179767D01*
X272369Y179542D01*
X272444Y179327D01*
X272501Y179139D01*
X272557Y178970D01*
X272604Y178820D01*
X272632Y178708D01*
X272660Y178624D01*
X272670Y178567D01*
X272679Y178558D01*
Y178549D01*
X272754Y178258D01*
X272819Y177967D01*
X272876Y177705D01*
X272922Y177443D01*
X272969Y177208D01*
X273007Y176983D01*
X273035Y176777D01*
X273054Y176580D01*
X273072Y176412D01*
X273091Y176262D01*
X273101Y176131D01*
X273110Y176018D01*
Y175934D01*
X273119Y175877D01*
Y175831D01*
Y175821D01*
X271910D01*
X271863Y176346D01*
X271835Y176599D01*
X271798Y176833D01*
X271760Y177068D01*
X271723Y177283D01*
X271685Y177489D01*
X271648Y177677D01*
X271610Y177846D01*
X271582Y177996D01*
X271545Y178136D01*
X271517Y178249D01*
X271498Y178333D01*
X271479Y178399D01*
X271460Y178445D01*
Y178455D01*
X271367Y178774D01*
X271264Y179092D01*
X271151Y179401D01*
X271039Y179701D01*
X270926Y179983D01*
X270804Y180264D01*
X270692Y180517D01*
X270579Y180761D01*
X270476Y180986D01*
X270382Y181182D01*
X270298Y181360D01*
X270223Y181501D01*
X270158Y181623D01*
X270111Y181707D01*
X270083Y181763D01*
X270073Y181782D01*
X269904Y182082D01*
X269736Y182363D01*
X269567Y182626D01*
X269408Y182869D01*
X269249Y183104D01*
X269098Y183319D01*
X268948Y183516D01*
X268817Y183694D01*
X268696Y183853D01*
X268583Y183994D01*
X268489Y184107D01*
X268405Y184210D01*
X268339Y184285D01*
X268283Y184341D01*
X268255Y184378D01*
X268246Y184388D01*
Y185306D01*
X274460D01*
Y184172D01*
D02*
G37*
G36*
X336291Y80523D02*
X336366Y80410D01*
X336526Y80176D01*
X336694Y79960D01*
X336863Y79763D01*
X336947Y79679D01*
X337022Y79595D01*
X337097Y79529D01*
X337154Y79464D01*
X337201Y79417D01*
X337247Y79379D01*
X337266Y79360D01*
X337275Y79351D01*
X337566Y79117D01*
X337857Y78901D01*
X338147Y78704D01*
X338419Y78545D01*
X338541Y78470D01*
X338653Y78414D01*
X338747Y78358D01*
X338831Y78311D01*
X338906Y78273D01*
X338953Y78245D01*
X338991Y78236D01*
X339000Y78226D01*
Y77092D01*
X338794Y77177D01*
X338578Y77270D01*
X338372Y77373D01*
X338185Y77467D01*
X338016Y77551D01*
X337950Y77589D01*
X337885Y77626D01*
X337838Y77655D01*
X337800Y77673D01*
X337782Y77692D01*
X337772D01*
X337528Y77842D01*
X337304Y77992D01*
X337107Y78133D01*
X336947Y78254D01*
X336816Y78358D01*
X336722Y78442D01*
X336694Y78470D01*
X336666Y78489D01*
X336657Y78507D01*
X336647D01*
Y71000D01*
X335466D01*
Y80644D01*
X336235D01*
X336291Y80523D01*
D02*
G37*
G36*
X332833Y74374D02*
Y73296D01*
X328662D01*
Y71000D01*
X327481D01*
Y73296D01*
X326188D01*
Y74374D01*
X327481D01*
Y80607D01*
X328447D01*
X332833Y74374D01*
D02*
G37*
G36*
X212291Y80523D02*
X212366Y80410D01*
X212526Y80176D01*
X212694Y79960D01*
X212863Y79763D01*
X212947Y79679D01*
X213022Y79595D01*
X213097Y79529D01*
X213153Y79464D01*
X213200Y79417D01*
X213247Y79379D01*
X213266Y79360D01*
X213275Y79351D01*
X213566Y79117D01*
X213857Y78901D01*
X214147Y78704D01*
X214419Y78545D01*
X214541Y78470D01*
X214653Y78414D01*
X214747Y78358D01*
X214831Y78311D01*
X214906Y78273D01*
X214953Y78245D01*
X214991Y78236D01*
X215000Y78226D01*
Y77092D01*
X214794Y77177D01*
X214578Y77270D01*
X214372Y77373D01*
X214184Y77467D01*
X214016Y77551D01*
X213950Y77589D01*
X213885Y77626D01*
X213838Y77655D01*
X213800Y77673D01*
X213782Y77692D01*
X213772D01*
X213528Y77842D01*
X213304Y77992D01*
X213107Y78133D01*
X212947Y78254D01*
X212816Y78358D01*
X212722Y78442D01*
X212694Y78470D01*
X212666Y78489D01*
X212657Y78507D01*
X212647D01*
Y71000D01*
X211467D01*
Y80644D01*
X212235D01*
X212291Y80523D01*
D02*
G37*
%LPC*%
G36*
X342662Y244163D02*
Y239823D01*
X345680D01*
X342662Y244163D01*
D02*
G37*
G36*
X244128Y241642D02*
X244053D01*
X243903Y241632D01*
X243763Y241614D01*
X243622Y241586D01*
X243500Y241548D01*
X243266Y241454D01*
X243172Y241407D01*
X243079Y241351D01*
X242994Y241295D01*
X242919Y241248D01*
X242863Y241192D01*
X242807Y241154D01*
X242769Y241117D01*
X242741Y241089D01*
X242722Y241070D01*
X242713Y241061D01*
X242619Y240948D01*
X242535Y240826D01*
X242469Y240704D01*
X242404Y240573D01*
X242348Y240442D01*
X242310Y240311D01*
X242244Y240067D01*
X242226Y239945D01*
X242207Y239842D01*
X242198Y239739D01*
X242188Y239664D01*
X242179Y239589D01*
Y239542D01*
Y239505D01*
Y239495D01*
X242188Y239308D01*
X242198Y239130D01*
X242226Y238961D01*
X242263Y238802D01*
X242301Y238652D01*
X242348Y238521D01*
X242404Y238399D01*
X242451Y238286D01*
X242498Y238183D01*
X242554Y238099D01*
X242601Y238024D01*
X242638Y237968D01*
X242676Y237921D01*
X242694Y237883D01*
X242713Y237865D01*
X242722Y237855D01*
X242826Y237752D01*
X242929Y237658D01*
X243041Y237574D01*
X243144Y237508D01*
X243257Y237452D01*
X243360Y237405D01*
X243566Y237330D01*
X243744Y237283D01*
X243819Y237274D01*
X243885Y237265D01*
X243932Y237255D01*
X244007D01*
X244194Y237265D01*
X244372Y237302D01*
X244541Y237349D01*
X244691Y237405D01*
X244813Y237452D01*
X244897Y237499D01*
X244934Y237518D01*
X244963Y237537D01*
X244972Y237546D01*
X244981D01*
X245141Y237668D01*
X245291Y237799D01*
X245412Y237940D01*
X245515Y238080D01*
X245600Y238202D01*
X245656Y238296D01*
X245675Y238333D01*
X245694Y238361D01*
X245703Y238380D01*
Y238389D01*
X245787Y238605D01*
X245853Y238811D01*
X245890Y239008D01*
X245928Y239186D01*
X245947Y239336D01*
Y239402D01*
X245956Y239458D01*
Y239505D01*
Y239533D01*
Y239552D01*
Y239561D01*
X245947Y239730D01*
X245928Y239889D01*
X245909Y240048D01*
X245872Y240189D01*
X245825Y240320D01*
X245778Y240442D01*
X245731Y240555D01*
X245675Y240658D01*
X245628Y240751D01*
X245581Y240836D01*
X245534Y240901D01*
X245487Y240958D01*
X245450Y241004D01*
X245431Y241033D01*
X245412Y241051D01*
X245403Y241061D01*
X245300Y241164D01*
X245187Y241248D01*
X245075Y241332D01*
X244963Y241398D01*
X244841Y241454D01*
X244728Y241501D01*
X244522Y241567D01*
X244419Y241595D01*
X244335Y241614D01*
X244250Y241623D01*
X244185Y241632D01*
X244128Y241642D01*
D02*
G37*
G36*
X218023Y244200D02*
Y239861D01*
X221041D01*
X218023Y244200D01*
D02*
G37*
G36*
X289948Y245119D02*
X289873D01*
X289723Y245110D01*
X289573Y245082D01*
X289432Y245044D01*
X289301Y244997D01*
X289067Y244866D01*
X288964Y244800D01*
X288870Y244725D01*
X288776Y244650D01*
X288701Y244585D01*
X288636Y244519D01*
X288589Y244454D01*
X288542Y244407D01*
X288514Y244369D01*
X288495Y244341D01*
X288486Y244332D01*
X288392Y244172D01*
X288298Y243976D01*
X288233Y243751D01*
X288167Y243516D01*
X288111Y243254D01*
X288064Y242991D01*
X287998Y242467D01*
X287980Y242213D01*
X287961Y241970D01*
X287951Y241754D01*
X287942Y241567D01*
Y241482D01*
X287933Y241407D01*
Y241342D01*
Y241286D01*
Y241239D01*
Y241211D01*
Y241192D01*
Y241182D01*
X287942Y240761D01*
X287961Y240367D01*
X287989Y240011D01*
X288017Y239692D01*
X288064Y239402D01*
X288111Y239149D01*
X288158Y238924D01*
X288214Y238727D01*
X288270Y238549D01*
X288317Y238408D01*
X288364Y238286D01*
X288411Y238193D01*
X288439Y238118D01*
X288467Y238071D01*
X288486Y238043D01*
X288495Y238033D01*
X288598Y237893D01*
X288711Y237780D01*
X288823Y237677D01*
X288945Y237583D01*
X289057Y237508D01*
X289170Y237443D01*
X289273Y237396D01*
X289386Y237349D01*
X289479Y237321D01*
X289573Y237293D01*
X289648Y237283D01*
X289723Y237265D01*
X289779D01*
X289817Y237255D01*
X289854D01*
X290004Y237265D01*
X290145Y237293D01*
X290285Y237330D01*
X290407Y237377D01*
X290641Y237499D01*
X290744Y237574D01*
X290848Y237649D01*
X290932Y237715D01*
X291007Y237790D01*
X291073Y237855D01*
X291119Y237911D01*
X291166Y237958D01*
X291194Y237996D01*
X291213Y238024D01*
X291222Y238033D01*
X291316Y238193D01*
X291401Y238389D01*
X291476Y238614D01*
X291541Y238858D01*
X291597Y239111D01*
X291644Y239374D01*
X291710Y239898D01*
X291729Y240152D01*
X291747Y240395D01*
X291757Y240611D01*
X291766Y240798D01*
Y240883D01*
X291775Y240958D01*
Y241023D01*
Y241079D01*
Y241126D01*
Y241154D01*
Y241173D01*
Y241182D01*
X291766Y241604D01*
X291747Y241998D01*
X291719Y242363D01*
X291682Y242682D01*
X291635Y242982D01*
X291588Y243244D01*
X291532Y243479D01*
X291476Y243694D01*
X291419Y243872D01*
X291363Y244022D01*
X291316Y244154D01*
X291269Y244247D01*
X291232Y244332D01*
X291204Y244388D01*
X291185Y244416D01*
X291176Y244425D01*
X291082Y244547D01*
X290979Y244650D01*
X290876Y244744D01*
X290763Y244828D01*
X290660Y244894D01*
X290548Y244950D01*
X290445Y244997D01*
X290341Y245035D01*
X290154Y245082D01*
X290079Y245100D01*
X290004Y245110D01*
X289948Y245119D01*
D02*
G37*
G36*
X269044Y245128D02*
X268978D01*
X268856Y245119D01*
X268734Y245110D01*
X268519Y245063D01*
X268332Y244988D01*
X268172Y244903D01*
X268041Y244819D01*
X267947Y244753D01*
X267910Y244716D01*
X267882Y244697D01*
X267872Y244688D01*
X267863Y244678D01*
X267788Y244594D01*
X267713Y244510D01*
X267600Y244322D01*
X267526Y244144D01*
X267469Y243966D01*
X267432Y243816D01*
X267422Y243751D01*
Y243704D01*
X267413Y243657D01*
Y243619D01*
Y243601D01*
Y243591D01*
Y243479D01*
X267432Y243366D01*
X267479Y243160D01*
X267554Y242982D01*
X267629Y242823D01*
X267713Y242701D01*
X267788Y242607D01*
X267816Y242579D01*
X267835Y242551D01*
X267844Y242542D01*
X267854Y242532D01*
X267938Y242457D01*
X268022Y242392D01*
X268210Y242288D01*
X268397Y242213D01*
X268575Y242167D01*
X268725Y242129D01*
X268800Y242120D01*
X268856D01*
X268903Y242110D01*
X268969D01*
X269100Y242120D01*
X269222Y242129D01*
X269447Y242176D01*
X269644Y242251D01*
X269803Y242326D01*
X269934Y242401D01*
X270028Y242476D01*
X270065Y242504D01*
X270094Y242523D01*
X270103Y242542D01*
X270112D01*
X270187Y242626D01*
X270253Y242710D01*
X270365Y242898D01*
X270440Y243085D01*
X270487Y243263D01*
X270525Y243423D01*
X270534Y243488D01*
Y243544D01*
X270543Y243591D01*
Y243629D01*
Y243647D01*
Y243657D01*
X270534Y243769D01*
X270525Y243872D01*
X270478Y244069D01*
X270403Y244247D01*
X270319Y244397D01*
X270243Y244519D01*
X270168Y244613D01*
X270122Y244669D01*
X270103Y244678D01*
Y244688D01*
X270019Y244763D01*
X269925Y244838D01*
X269737Y244941D01*
X269550Y245025D01*
X269372Y245072D01*
X269222Y245110D01*
X269147Y245119D01*
X269091D01*
X269044Y245128D01*
D02*
G37*
G36*
X269091Y241145D02*
X269006D01*
X268847Y241136D01*
X268697Y241117D01*
X268556Y241089D01*
X268425Y241061D01*
X268182Y240967D01*
X268078Y240920D01*
X267975Y240864D01*
X267891Y240808D01*
X267816Y240761D01*
X267750Y240714D01*
X267694Y240667D01*
X267647Y240639D01*
X267619Y240611D01*
X267600Y240592D01*
X267591Y240583D01*
X267488Y240480D01*
X267404Y240367D01*
X267329Y240245D01*
X267263Y240133D01*
X267207Y240011D01*
X267160Y239898D01*
X267094Y239674D01*
X267066Y239570D01*
X267048Y239477D01*
X267038Y239392D01*
X267029Y239317D01*
X267019Y239261D01*
Y239214D01*
Y239186D01*
Y239177D01*
X267029Y239027D01*
X267048Y238877D01*
X267066Y238736D01*
X267104Y238605D01*
X267197Y238371D01*
X267244Y238258D01*
X267291Y238165D01*
X267347Y238080D01*
X267394Y238005D01*
X267441Y237940D01*
X267488Y237893D01*
X267526Y237846D01*
X267544Y237818D01*
X267563Y237799D01*
X267572Y237790D01*
X267675Y237696D01*
X267788Y237612D01*
X267900Y237546D01*
X268022Y237480D01*
X268135Y237433D01*
X268256Y237387D01*
X268472Y237321D01*
X268575Y237302D01*
X268669Y237283D01*
X268753Y237274D01*
X268828Y237265D01*
X268885Y237255D01*
X268969D01*
X269166Y237265D01*
X269353Y237293D01*
X269531Y237340D01*
X269681Y237387D01*
X269812Y237424D01*
X269906Y237471D01*
X269944Y237490D01*
X269972Y237499D01*
X269981Y237508D01*
X269991D01*
X270159Y237612D01*
X270300Y237733D01*
X270422Y237855D01*
X270515Y237977D01*
X270590Y238080D01*
X270647Y238165D01*
X270684Y238221D01*
X270693Y238230D01*
Y238239D01*
X270768Y238418D01*
X270825Y238586D01*
X270872Y238755D01*
X270900Y238905D01*
X270918Y239027D01*
X270928Y239130D01*
Y239167D01*
Y239195D01*
Y239205D01*
Y239214D01*
X270918Y239364D01*
X270900Y239514D01*
X270881Y239645D01*
X270843Y239777D01*
X270759Y240011D01*
X270703Y240114D01*
X270656Y240217D01*
X270609Y240301D01*
X270553Y240376D01*
X270506Y240442D01*
X270469Y240489D01*
X270431Y240536D01*
X270403Y240564D01*
X270394Y240583D01*
X270384Y240592D01*
X270281Y240686D01*
X270168Y240779D01*
X270056Y240845D01*
X269944Y240911D01*
X269822Y240967D01*
X269709Y241014D01*
X269494Y241079D01*
X269391Y241098D01*
X269297Y241117D01*
X269212Y241126D01*
X269147Y241136D01*
X269091Y241145D01*
D02*
G37*
G36*
X298345Y184650D02*
X298270D01*
X298129Y184641D01*
X297988Y184622D01*
X297867Y184594D01*
X297745Y184557D01*
X297520Y184463D01*
X297332Y184350D01*
X297248Y184294D01*
X297173Y184238D01*
X297117Y184191D01*
X297061Y184144D01*
X297023Y184107D01*
X296995Y184079D01*
X296976Y184060D01*
X296967Y184050D01*
X296873Y183938D01*
X296789Y183807D01*
X296714Y183675D01*
X296648Y183544D01*
X296601Y183413D01*
X296555Y183272D01*
X296489Y183019D01*
X296470Y182897D01*
X296451Y182794D01*
X296442Y182691D01*
X296433Y182607D01*
X296423Y182532D01*
Y182485D01*
Y182448D01*
Y182438D01*
X296433Y182251D01*
X296442Y182082D01*
X296470Y181913D01*
X296508Y181763D01*
X296545Y181623D01*
X296592Y181492D01*
X296639Y181370D01*
X296686Y181267D01*
X296742Y181173D01*
X296789Y181089D01*
X296836Y181014D01*
X296873Y180957D01*
X296911Y180910D01*
X296939Y180882D01*
X296948Y180864D01*
X296957Y180854D01*
X297061Y180751D01*
X297164Y180667D01*
X297276Y180592D01*
X297389Y180526D01*
X297501Y180470D01*
X297614Y180423D01*
X297829Y180358D01*
X297923Y180329D01*
X298017Y180311D01*
X298101Y180301D01*
X298167Y180292D01*
X298223Y180283D01*
X298307D01*
X298457Y180292D01*
X298598Y180311D01*
X298738Y180339D01*
X298860Y180376D01*
X299095Y180461D01*
X299198Y180517D01*
X299301Y180573D01*
X299385Y180620D01*
X299460Y180676D01*
X299526Y180723D01*
X299573Y180770D01*
X299619Y180798D01*
X299648Y180826D01*
X299666Y180845D01*
X299676Y180854D01*
X299769Y180967D01*
X299854Y181079D01*
X299929Y181201D01*
X299985Y181332D01*
X300041Y181454D01*
X300088Y181576D01*
X300154Y181810D01*
X300172Y181923D01*
X300191Y182026D01*
X300200Y182110D01*
X300210Y182195D01*
X300219Y182260D01*
Y182307D01*
Y182335D01*
Y182344D01*
X300210Y182532D01*
X300191Y182710D01*
X300163Y182879D01*
X300126Y183038D01*
X300088Y183179D01*
X300032Y183319D01*
X299985Y183441D01*
X299929Y183554D01*
X299872Y183657D01*
X299825Y183750D01*
X299769Y183825D01*
X299732Y183891D01*
X299694Y183938D01*
X299666Y183975D01*
X299648Y183994D01*
X299638Y184004D01*
X299526Y184116D01*
X299413Y184219D01*
X299291Y184303D01*
X299179Y184378D01*
X299066Y184444D01*
X298954Y184491D01*
X298841Y184538D01*
X298738Y184566D01*
X298635Y184594D01*
X298551Y184613D01*
X298466Y184632D01*
X298401Y184641D01*
X298345Y184650D01*
D02*
G37*
G36*
X328662Y78714D02*
Y74374D01*
X331680D01*
X328662Y78714D01*
D02*
G37*
%LPD*%
D11*
X330000Y64541D02*
X340000D01*
M02*
