G04*
G04 #@! TF.GenerationSoftware,Altium Limited,Altium Designer,23.9.2 (47)*
G04*
G04 Layer_Physical_Order=2*
G04 Layer_Color=16711680*
%FSLAX44Y44*%
%MOMM*%
G71*
G04*
G04 #@! TF.SameCoordinates,14F845D8-5F58-45A0-AC7D-242895ECC597*
G04*
G04*
G04 #@! TF.FilePolarity,Positive*
G04*
G01*
G75*
%ADD19C,0.2040*%
%ADD20C,1.5000*%
%ADD21R,1.5000X1.5000*%
%ADD22C,3.0000*%
%ADD23R,1.8000X2.2000*%
%ADD24R,0.6000X1.3000*%
D19*
X334000Y55541D02*
X335000Y54541D01*
X334000Y55541D02*
Y109000D01*
X362000Y137000D01*
X348000Y214000D02*
X362000Y200000D01*
Y137000D02*
Y200000D01*
X348000Y214000D02*
Y223040D01*
X346200Y224840D02*
X348000Y223040D01*
X320800Y214195D02*
X321995Y213000D01*
X322174D01*
X320800Y214195D02*
Y224840D01*
X333500Y131500D02*
Y201674D01*
X322174Y213000D02*
X333500Y201674D01*
X295400Y214600D02*
X308100Y201900D01*
X295400Y214600D02*
Y224840D01*
X270525Y215475D02*
X282700Y203300D01*
X270525Y215475D02*
Y224315D01*
X270000Y224840D02*
X270525Y224315D01*
X282700Y130837D02*
Y203300D01*
X246000Y215000D02*
Y223440D01*
X244600Y224840D02*
X246000Y223440D01*
Y215000D02*
X257300Y203700D01*
Y134300D02*
Y203700D01*
X234380Y55161D02*
Y132620D01*
X231900Y135100D02*
Y202100D01*
Y135100D02*
X234380Y132620D01*
Y55161D02*
X235000Y54541D01*
X219200Y214800D02*
Y224840D01*
Y214800D02*
X231900Y202100D01*
X305000Y115000D02*
X320800Y130800D01*
Y199440D01*
X220000Y134521D02*
Y199440D01*
X193800Y224840D02*
X195000Y223640D01*
Y215000D02*
Y223640D01*
Y215000D02*
X206500Y203500D01*
Y129500D02*
Y203500D01*
X193800Y130200D02*
Y199440D01*
X205000Y54541D02*
Y119000D01*
X193800Y130200D02*
X205000Y119000D01*
X295000Y131000D02*
Y202074D01*
X269000Y133000D02*
Y204816D01*
X245000Y54541D02*
Y201274D01*
X325000Y54541D02*
X326000Y55541D01*
Y113000D01*
X348000Y135000D01*
Y199874D01*
X315000Y54541D02*
Y113000D01*
X315000Y54541D02*
X315000Y54541D01*
Y113000D02*
X333500Y131500D01*
X305000Y54541D02*
Y115000D01*
X295000Y120000D02*
X308100Y133100D01*
X295000Y54541D02*
Y120000D01*
X308100Y133100D02*
Y201900D01*
X285000Y121000D02*
X295000Y131000D01*
X285000Y54541D02*
Y121000D01*
X275000Y123137D02*
X282700Y130837D01*
X275000Y54541D02*
Y123137D01*
X255000Y132000D02*
X257300Y134300D01*
X255000Y54541D02*
Y132000D01*
X264000Y55541D02*
Y128000D01*
Y55541D02*
X265000Y54541D01*
X264000Y128000D02*
X269000Y133000D01*
X215000Y54541D02*
Y121000D01*
X206500Y129500D02*
X215000Y121000D01*
X225000Y54541D02*
Y129521D01*
X220000Y134521D02*
X225000Y129521D01*
D20*
X193800Y224840D02*
D03*
X270000D02*
D03*
X244600D02*
D03*
X320800D02*
D03*
X193800Y199440D02*
D03*
X244600D02*
D03*
X270000D02*
D03*
X320800D02*
D03*
X346200D02*
D03*
X219200Y224840D02*
D03*
X295400D02*
D03*
X219200Y199440D02*
D03*
X295400D02*
D03*
D21*
X346200Y224840D02*
D03*
D22*
X520000Y30000D02*
D03*
Y220000D02*
D03*
X30000D02*
D03*
Y30000D02*
D03*
D23*
X181000Y22041D02*
D03*
X359000D02*
D03*
D24*
X305000Y54541D02*
D03*
X295000D02*
D03*
X315000D02*
D03*
X325000D02*
D03*
X335000D02*
D03*
X275000D02*
D03*
X265000D02*
D03*
X285000D02*
D03*
X255000D02*
D03*
X245000D02*
D03*
X235000D02*
D03*
X225000D02*
D03*
X215000D02*
D03*
X205000D02*
D03*
M02*
