G04*
G04 #@! TF.GenerationSoftware,Altium Limited,Altium Designer,24.10.1 (45)*
G04*
G04 Layer_Color=8388736*
%FSLAX44Y44*%
%MOMM*%
G71*
G04*
G04 #@! TF.SameCoordinates,D858BCDD-2960-4CD3-B1C5-A937537348C7*
G04*
G04*
G04 #@! TF.FilePolarity,Negative*
G04*
G01*
G75*
%ADD19R,1.2446X2.5000*%
%ADD26R,1.1900X3.3000*%
%ADD30R,1.7032X0.8032*%
G04:AMPARAMS|DCode=31|XSize=0.8032mm|YSize=1.3032mm|CornerRadius=0.2516mm|HoleSize=0mm|Usage=FLASHONLY|Rotation=0.000|XOffset=0mm|YOffset=0mm|HoleType=Round|Shape=RoundedRectangle|*
%AMROUNDEDRECTD31*
21,1,0.8032,0.8000,0,0,0.0*
21,1,0.3000,1.3032,0,0,0.0*
1,1,0.5032,0.1500,-0.4000*
1,1,0.5032,-0.1500,-0.4000*
1,1,0.5032,-0.1500,0.4000*
1,1,0.5032,0.1500,0.4000*
%
%ADD31ROUNDEDRECTD31*%
%ADD32R,0.7532X0.7532*%
%ADD33R,1.2032X3.9032*%
%ADD34R,2.2032X2.2032*%
%ADD35R,0.8032X1.3532*%
%ADD36R,0.5032X1.3532*%
%ADD37R,0.7532X0.7532*%
%ADD38R,1.3532X0.8032*%
%ADD39R,1.3532X0.5032*%
%ADD40C,1.8032*%
%ADD41R,1.8032X1.8032*%
%ADD42C,1.7032*%
%ADD43C,0.6032*%
%ADD44R,1.2032X2.3032*%
%ADD45R,2.3032X1.2032*%
D19*
X162000Y2996D02*
D03*
X142000D02*
D03*
X102000D02*
D03*
X82000Y57996D02*
D03*
Y2996D02*
D03*
X162000Y57996D02*
D03*
X142000D02*
D03*
X102000D02*
D03*
D26*
X71600Y217000D02*
D03*
X46200Y153000D02*
D03*
X97000D02*
D03*
D30*
X277878Y200880D02*
D03*
X322878D02*
D03*
Y213880D02*
D03*
X277878D02*
D03*
X322878Y226880D02*
D03*
X277878D02*
D03*
X276283Y132422D02*
D03*
X321283D02*
D03*
X276283Y119422D02*
D03*
X321283D02*
D03*
Y106422D02*
D03*
X276283D02*
D03*
D31*
X144500Y229000D02*
D03*
X135000D02*
D03*
X125500D02*
D03*
Y203000D02*
D03*
X144500D02*
D03*
D32*
X151080Y255000D02*
D03*
X140920D02*
D03*
X147080Y185500D02*
D03*
X136920D02*
D03*
X147080Y173000D02*
D03*
X136920D02*
D03*
X440000Y132500D02*
D03*
X429840D02*
D03*
D33*
X127600Y360000D02*
D03*
X153000D02*
D03*
X178400D02*
D03*
X203800D02*
D03*
X229200D02*
D03*
X254600D02*
D03*
X280000D02*
D03*
X305400D02*
D03*
X330800D02*
D03*
X356200D02*
D03*
D34*
X105000Y315000D02*
D03*
X65000D02*
D03*
D35*
X330300Y47050D02*
D03*
X266300D02*
D03*
X274300D02*
D03*
X322300D02*
D03*
D36*
X285800D02*
D03*
X290800D02*
D03*
X295800D02*
D03*
X300800D02*
D03*
X305800D02*
D03*
X310800D02*
D03*
X315800D02*
D03*
X280800D02*
D03*
D37*
X129000Y243920D02*
D03*
Y254080D02*
D03*
X255222Y142409D02*
D03*
Y132249D02*
D03*
X341963Y96054D02*
D03*
Y106214D02*
D03*
X255674Y237121D02*
D03*
Y226961D02*
D03*
X340256Y189369D02*
D03*
Y199529D02*
D03*
X236500Y-500D02*
D03*
Y9660D02*
D03*
X260000Y95840D02*
D03*
Y106000D02*
D03*
X341074Y142155D02*
D03*
Y131995D02*
D03*
X255928Y190004D02*
D03*
Y200164D02*
D03*
X339748Y236867D02*
D03*
Y226707D02*
D03*
D38*
X389950Y225200D02*
D03*
Y161200D02*
D03*
Y169200D02*
D03*
Y217200D02*
D03*
D39*
Y180700D02*
D03*
Y185700D02*
D03*
Y190700D02*
D03*
Y195700D02*
D03*
Y200700D02*
D03*
Y205700D02*
D03*
Y210700D02*
D03*
Y175700D02*
D03*
D40*
X185300Y148000D02*
D03*
X159900D02*
D03*
D41*
X134500D02*
D03*
D42*
X402000Y339000D02*
D03*
Y277000D02*
D03*
D43*
X327200Y36300D02*
D03*
X269400D02*
D03*
X400700Y222100D02*
D03*
Y164300D02*
D03*
D44*
X255100Y41300D02*
D03*
X341500D02*
D03*
X255100Y-500D02*
D03*
X341500D02*
D03*
D45*
X395700Y150000D02*
D03*
Y236400D02*
D03*
X437500Y150000D02*
D03*
Y236400D02*
D03*
M02*
