G04*
G04 #@! TF.GenerationSoftware,Altium Limited,Altium Designer,24.10.1 (45)*
G04*
G04 Layer_Color=8421504*
%FSLAX44Y44*%
%MOMM*%
G71*
G04*
G04 #@! TF.SameCoordinates,D858BCDD-2960-4CD3-B1C5-A937537348C7*
G04*
G04*
G04 #@! TF.FilePolarity,Positive*
G04*
G01*
G75*
%ADD18R,1.5000X0.6000*%
%ADD19R,1.2446X2.5000*%
G04:AMPARAMS|DCode=20|XSize=0.6mm|YSize=1.1mm|CornerRadius=0.15mm|HoleSize=0mm|Usage=FLASHONLY|Rotation=0.000|XOffset=0mm|YOffset=0mm|HoleType=Round|Shape=RoundedRectangle|*
%AMROUNDEDRECTD20*
21,1,0.6000,0.8000,0,0,0.0*
21,1,0.3000,1.1000,0,0,0.0*
1,1,0.3000,0.1500,-0.4000*
1,1,0.3000,-0.1500,-0.4000*
1,1,0.3000,-0.1500,0.4000*
1,1,0.3000,0.1500,0.4000*
%
%ADD20ROUNDEDRECTD20*%
%ADD21R,0.5500X0.5500*%
%ADD22R,1.0000X3.7000*%
%ADD23R,2.0000X2.0000*%
%ADD24R,0.6000X1.1500*%
%ADD25R,0.3000X1.1500*%
%ADD26R,1.1900X3.3000*%
%ADD27R,0.5500X0.5500*%
%ADD28R,1.1500X0.6000*%
%ADD29R,1.1500X0.3000*%
D18*
X277878Y200880D02*
D03*
X322878D02*
D03*
Y213880D02*
D03*
X277878D02*
D03*
X322878Y226880D02*
D03*
X277878D02*
D03*
X276283Y132422D02*
D03*
X321283D02*
D03*
X276283Y119422D02*
D03*
X321283D02*
D03*
Y106422D02*
D03*
X276283D02*
D03*
D19*
X162000Y2996D02*
D03*
X142000D02*
D03*
X102000D02*
D03*
X82000Y57996D02*
D03*
Y2996D02*
D03*
X162000Y57996D02*
D03*
X142000D02*
D03*
X102000D02*
D03*
D20*
X144500Y229000D02*
D03*
X135000D02*
D03*
X125500D02*
D03*
Y203000D02*
D03*
X144500D02*
D03*
D21*
X151080Y255000D02*
D03*
X140920D02*
D03*
X147080Y185500D02*
D03*
X136920D02*
D03*
X147080Y173000D02*
D03*
X136920D02*
D03*
X440000Y132500D02*
D03*
X429840D02*
D03*
D22*
X127600Y360000D02*
D03*
X153000D02*
D03*
X178400D02*
D03*
X203800D02*
D03*
X229200D02*
D03*
X254600D02*
D03*
X280000D02*
D03*
X305400D02*
D03*
X330800D02*
D03*
X356200D02*
D03*
D23*
X105000Y315000D02*
D03*
X65000D02*
D03*
D24*
X330300Y47050D02*
D03*
X266300D02*
D03*
X274300D02*
D03*
X322300D02*
D03*
D25*
X285800D02*
D03*
X290800D02*
D03*
X295800D02*
D03*
X300800D02*
D03*
X305800D02*
D03*
X310800D02*
D03*
X315800D02*
D03*
X280800D02*
D03*
D26*
X71600Y217000D02*
D03*
X46200Y153000D02*
D03*
X97000D02*
D03*
D27*
X129000Y243920D02*
D03*
Y254080D02*
D03*
X255222Y142409D02*
D03*
Y132249D02*
D03*
X341963Y96054D02*
D03*
Y106214D02*
D03*
X255674Y237121D02*
D03*
Y226961D02*
D03*
X340256Y189369D02*
D03*
Y199529D02*
D03*
X236500Y-500D02*
D03*
Y9660D02*
D03*
X260000Y95840D02*
D03*
Y106000D02*
D03*
X341074Y142155D02*
D03*
Y131995D02*
D03*
X255928Y190004D02*
D03*
Y200164D02*
D03*
X339748Y236867D02*
D03*
Y226707D02*
D03*
D28*
X389950Y225200D02*
D03*
Y161200D02*
D03*
Y169200D02*
D03*
Y217200D02*
D03*
D29*
Y180700D02*
D03*
Y185700D02*
D03*
Y190700D02*
D03*
Y195700D02*
D03*
Y200700D02*
D03*
Y205700D02*
D03*
Y210700D02*
D03*
Y175700D02*
D03*
M02*
