G04*
G04 #@! TF.GenerationSoftware,Altium Limited,Altium Designer,24.10.1 (45)*
G04*
G04 Layer_Physical_Order=4*
G04 Layer_Color=16711680*
%FSLAX44Y44*%
%MOMM*%
G71*
G04*
G04 #@! TF.SameCoordinates,F221C8BF-3938-498D-8DE0-A2545D788D57*
G04*
G04*
G04 #@! TF.FilePolarity,Positive*
G04*
G01*
G75*
%ADD10C,0.2540*%
%ADD22R,1.0000X3.7000*%
%ADD49C,0.6000*%
%ADD52R,1.6000X1.6000*%
%ADD53C,1.6000*%
%ADD54C,1.5000*%
%ADD55R,1.0000X2.1000*%
%ADD56C,0.4000*%
%ADD57R,2.1000X1.0000*%
%ADD58C,0.5000*%
G36*
X457078Y381741D02*
X460247Y380429D01*
X463098Y378524D01*
X465523Y376098D01*
X467429Y373247D01*
X468741Y370078D01*
X469410Y366715D01*
Y365000D01*
Y-15000D01*
Y-16715D01*
X468741Y-20078D01*
X467429Y-23247D01*
X465523Y-26098D01*
X463098Y-28523D01*
X460247Y-30429D01*
X457078Y-31741D01*
X453715Y-32410D01*
X30285D01*
X26922Y-31741D01*
X23753Y-30429D01*
X20902Y-28523D01*
X18476Y-26098D01*
X16571Y-23247D01*
X15259Y-20078D01*
X14590Y-16715D01*
Y-15000D01*
Y365000D01*
Y366715D01*
X15259Y370078D01*
X16571Y373247D01*
X18476Y376098D01*
X20902Y378524D01*
X23753Y380429D01*
X26922Y381741D01*
X30285Y382410D01*
X118588D01*
X120060Y381040D01*
X120060Y380370D01*
Y361270D01*
X135140D01*
Y380370D01*
X135140Y381040D01*
X136612Y382410D01*
X143988D01*
X145460Y381040D01*
X145460Y380370D01*
Y361270D01*
X160540D01*
Y380370D01*
X160540Y381040D01*
X162012Y382410D01*
X169388D01*
X170860Y381040D01*
X170860Y380370D01*
Y361270D01*
X185940D01*
Y380370D01*
X185940Y381040D01*
X187412Y382410D01*
X194788D01*
X196260Y381040D01*
X196260Y380370D01*
Y361270D01*
X211340D01*
Y380370D01*
X211340Y381040D01*
X212812Y382410D01*
X220188D01*
X221660Y381040D01*
X221660Y380370D01*
Y361270D01*
X236740D01*
Y380370D01*
X236740Y381040D01*
X238212Y382410D01*
X245588D01*
X247060Y381040D01*
X247060Y380370D01*
Y361270D01*
X262140D01*
Y380370D01*
X262140Y381040D01*
X263612Y382410D01*
X270988D01*
X272460Y381040D01*
X272460Y380370D01*
Y361270D01*
X287540D01*
Y380370D01*
X287540Y381040D01*
X289012Y382410D01*
X296388D01*
X297860Y381040D01*
X297860Y380370D01*
Y361270D01*
X312940D01*
Y380370D01*
X312940Y381040D01*
X314412Y382410D01*
X321788D01*
X323260Y381040D01*
X323260Y380370D01*
Y361270D01*
X338340D01*
Y380370D01*
X338340Y381040D01*
X339812Y382410D01*
X348751D01*
X349160Y380540D01*
X349160Y380370D01*
Y339460D01*
X363240D01*
Y380370D01*
X363240Y380540D01*
X363649Y382410D01*
X453715D01*
X457078Y381741D01*
D02*
G37*
%LPC*%
G36*
X403322Y349040D02*
X403270D01*
Y340270D01*
X412040D01*
Y340322D01*
X411356Y342875D01*
X410034Y345165D01*
X408165Y347034D01*
X405875Y348356D01*
X403322Y349040D01*
D02*
G37*
G36*
X400730D02*
X400678D01*
X398125Y348356D01*
X395835Y347034D01*
X393966Y345165D01*
X392644Y342875D01*
X391960Y340322D01*
Y340270D01*
X400730D01*
Y349040D01*
D02*
G37*
G36*
X338340Y358730D02*
X332070D01*
Y338960D01*
X338340D01*
Y358730D01*
D02*
G37*
G36*
X329530D02*
X323260D01*
Y338960D01*
X329530D01*
Y358730D01*
D02*
G37*
G36*
X312940D02*
X306670D01*
Y338960D01*
X312940D01*
Y358730D01*
D02*
G37*
G36*
X304130D02*
X297860D01*
Y338960D01*
X304130D01*
Y358730D01*
D02*
G37*
G36*
X287540D02*
X281270D01*
Y338960D01*
X287540D01*
Y358730D01*
D02*
G37*
G36*
X278730D02*
X272460D01*
Y338960D01*
X278730D01*
Y358730D01*
D02*
G37*
G36*
X262140D02*
X255870D01*
Y338960D01*
X262140D01*
Y358730D01*
D02*
G37*
G36*
X253330D02*
X247060D01*
Y338960D01*
X253330D01*
Y358730D01*
D02*
G37*
G36*
X236740D02*
X230470D01*
Y338960D01*
X236740D01*
Y358730D01*
D02*
G37*
G36*
X227930D02*
X221660D01*
Y338960D01*
X227930D01*
Y358730D01*
D02*
G37*
G36*
X211340D02*
X205070D01*
Y338960D01*
X211340D01*
Y358730D01*
D02*
G37*
G36*
X202530D02*
X196260D01*
Y338960D01*
X202530D01*
Y358730D01*
D02*
G37*
G36*
X185940D02*
X179670D01*
Y338960D01*
X185940D01*
Y358730D01*
D02*
G37*
G36*
X177130D02*
X170860D01*
Y338960D01*
X177130D01*
Y358730D01*
D02*
G37*
G36*
X160540D02*
X154270D01*
Y338960D01*
X160540D01*
Y358730D01*
D02*
G37*
G36*
X151730D02*
X145460D01*
Y338960D01*
X151730D01*
Y358730D01*
D02*
G37*
G36*
X135140D02*
X128870D01*
Y338960D01*
X135140D01*
Y358730D01*
D02*
G37*
G36*
X126330D02*
X120060D01*
Y338960D01*
X126330D01*
Y358730D01*
D02*
G37*
G36*
X369903Y338540D02*
X368097D01*
X366428Y337849D01*
X365151Y336572D01*
X364460Y334903D01*
Y333097D01*
X365151Y331428D01*
X366428Y330151D01*
X368097Y329460D01*
X369903D01*
X371572Y330151D01*
X372849Y331428D01*
X373540Y333097D01*
Y334903D01*
X372849Y336572D01*
X371572Y337849D01*
X369903Y338540D01*
D02*
G37*
G36*
X412040Y337730D02*
X403270D01*
Y328960D01*
X403322D01*
X405875Y329644D01*
X408165Y330966D01*
X410034Y332835D01*
X411356Y335125D01*
X412040Y337678D01*
Y337730D01*
D02*
G37*
G36*
X400730D02*
X391960D01*
Y337678D01*
X392644Y335125D01*
X393966Y332835D01*
X395835Y330966D01*
X398125Y329644D01*
X400678Y328960D01*
X400730D01*
Y337730D01*
D02*
G37*
G36*
X364000Y320139D02*
X125000D01*
X123034Y319748D01*
X121366Y318634D01*
X120252Y316966D01*
X119861Y315000D01*
X120252Y313034D01*
X121366Y311366D01*
X123034Y310252D01*
X125000Y309861D01*
X361871D01*
X392675Y279058D01*
X392460Y278256D01*
Y275744D01*
X393110Y273318D01*
X394366Y271142D01*
X396142Y269366D01*
X398318Y268110D01*
X400744Y267460D01*
X403256D01*
X405682Y268110D01*
X407858Y269366D01*
X409634Y271142D01*
X410890Y273318D01*
X411540Y275744D01*
Y278256D01*
X410890Y280682D01*
X409634Y282858D01*
X407858Y284634D01*
X405682Y285890D01*
X403256Y286540D01*
X400744D01*
X399942Y286325D01*
X367634Y318634D01*
X365966Y319748D01*
X364000Y320139D01*
D02*
G37*
G36*
X450040Y243440D02*
X424960D01*
Y239775D01*
X408240D01*
Y243440D01*
X383160D01*
Y229360D01*
X399479D01*
X399648Y227390D01*
X397703Y226585D01*
X396215Y225096D01*
X395787Y224062D01*
X394039Y223128D01*
X393370Y223116D01*
X393045Y223181D01*
X375771D01*
X374903Y223540D01*
X373097D01*
X372229Y223181D01*
X372045D01*
X371249Y223022D01*
X370574Y222571D01*
X370123Y221896D01*
X369973Y221142D01*
X369460Y219903D01*
Y218097D01*
X369965Y216878D01*
Y195080D01*
X293000D01*
X293000Y195080D01*
X270500D01*
X269704Y194922D01*
X269029Y194471D01*
X268578Y193796D01*
X268420Y193000D01*
Y100331D01*
X268460Y100130D01*
Y99925D01*
X268538Y99736D01*
X268578Y99535D01*
X268692Y99364D01*
X268771Y99175D01*
X268916Y99030D01*
X269029Y98860D01*
X269200Y98746D01*
X269345Y98601D01*
X269534Y98523D01*
X269704Y98409D01*
X269873Y98375D01*
X270774Y97774D01*
X271317Y96960D01*
X271508Y96000D01*
X271317Y95040D01*
X270774Y94226D01*
X269873Y93625D01*
X269704Y93591D01*
X269534Y93477D01*
X269345Y93399D01*
X269200Y93254D01*
X269029Y93140D01*
X268916Y92970D01*
X268771Y92825D01*
X268692Y92636D01*
X268578Y92465D01*
X268538Y92265D01*
X268460Y92075D01*
Y91870D01*
X268420Y91669D01*
Y63307D01*
X268078Y62796D01*
X267920Y62000D01*
Y41574D01*
X267950Y41425D01*
X266404Y40785D01*
X264915Y39297D01*
X264110Y37352D01*
X262140Y37521D01*
Y53840D01*
X248060D01*
Y30415D01*
X248060Y28760D01*
X246180Y28375D01*
X245398D01*
X243375Y30398D01*
Y66102D01*
X260233Y82960D01*
X260903D01*
X262572Y83651D01*
X263849Y84928D01*
X264540Y86597D01*
Y88403D01*
X263849Y90072D01*
X262572Y91349D01*
X260903Y92040D01*
X259097D01*
X257428Y91349D01*
X256151Y90072D01*
X255460Y88403D01*
Y87733D01*
X237614Y69886D01*
X236882Y68791D01*
X236625Y67500D01*
Y29000D01*
X236882Y27708D01*
X237614Y26614D01*
X241614Y22614D01*
X242708Y21882D01*
X244000Y21625D01*
X310000D01*
X311292Y21882D01*
X312386Y22614D01*
X316233Y26460D01*
X316903D01*
X318572Y27151D01*
X319849Y28428D01*
X320540Y30097D01*
Y31903D01*
X319849Y33572D01*
X318572Y34849D01*
X316903Y35540D01*
X315097D01*
X313428Y34849D01*
X312151Y33572D01*
X311460Y31903D01*
Y31233D01*
X308602Y28375D01*
X264021D01*
X262140Y28760D01*
X262140Y30415D01*
Y35079D01*
X264110Y35248D01*
X264915Y33303D01*
X266404Y31815D01*
X268348Y31010D01*
X270452D01*
X272397Y31815D01*
X273885Y33303D01*
X274690Y35248D01*
Y37352D01*
X275738Y38920D01*
X320862D01*
X321910Y37352D01*
Y35248D01*
X322715Y33303D01*
X324203Y31815D01*
X326148Y31010D01*
X328252D01*
X330196Y31815D01*
X331685Y33303D01*
X332490Y35248D01*
X334460Y35079D01*
Y28760D01*
X348540D01*
Y53840D01*
X334460D01*
Y37521D01*
X332490Y37352D01*
X331685Y39297D01*
X330197Y40785D01*
X329922Y41554D01*
X329981Y41854D01*
X330070Y42146D01*
X330060Y42249D01*
X330080Y42350D01*
Y62000D01*
X329922Y62796D01*
X329471Y63471D01*
X328796Y63922D01*
X328000Y64080D01*
X295080D01*
Y163920D01*
X369965D01*
Y163100D01*
X370123Y162305D01*
X370574Y161630D01*
X371249Y161179D01*
X372045Y161021D01*
X393045D01*
X393841Y161179D01*
X394012Y161293D01*
X395544Y161300D01*
X396536Y160982D01*
X397703Y159815D01*
X399648Y159010D01*
X399479Y157040D01*
X383160D01*
Y142960D01*
X408240D01*
Y146625D01*
X424960D01*
Y142960D01*
X450040D01*
Y157040D01*
X440875D01*
Y229360D01*
X450040D01*
Y243440D01*
D02*
G37*
G36*
X186622Y158040D02*
X183978D01*
X181425Y157356D01*
X179135Y156034D01*
X177266Y154165D01*
X175944Y151875D01*
X175260Y149322D01*
Y146678D01*
X175944Y144125D01*
X177266Y141835D01*
X179135Y139966D01*
X181425Y138644D01*
X183978Y137960D01*
X186622D01*
X189175Y138644D01*
X191465Y139966D01*
X193334Y141835D01*
X194656Y144125D01*
X195340Y146678D01*
Y149322D01*
X194656Y151875D01*
X193334Y154165D01*
X191465Y156034D01*
X189175Y157356D01*
X186622Y158040D01*
D02*
G37*
G36*
X161222D02*
X158578D01*
X156025Y157356D01*
X153735Y156034D01*
X151866Y154165D01*
X150544Y151875D01*
X149860Y149322D01*
Y146678D01*
X150544Y144125D01*
X151866Y141835D01*
X153735Y139966D01*
X156025Y138644D01*
X158578Y137960D01*
X161222D01*
X163775Y138644D01*
X166065Y139966D01*
X167934Y141835D01*
X169256Y144125D01*
X169940Y146678D01*
Y149322D01*
X169256Y151875D01*
X167934Y154165D01*
X166065Y156034D01*
X163775Y157356D01*
X161222Y158040D01*
D02*
G37*
G36*
X144540D02*
X124460D01*
Y137960D01*
X144540D01*
Y158040D01*
D02*
G37*
G36*
X348540Y12040D02*
X334460D01*
Y-13040D01*
X348540D01*
Y12040D01*
D02*
G37*
G36*
X262140D02*
X248060D01*
Y-13040D01*
X262140D01*
Y12040D01*
D02*
G37*
%LPD*%
G36*
X424960Y229360D02*
X434125D01*
Y157040D01*
X424960D01*
Y153375D01*
X408240D01*
Y157040D01*
X401921D01*
X401752Y159010D01*
X403697Y159815D01*
X405185Y161304D01*
X405990Y163248D01*
Y165352D01*
X405185Y167297D01*
X403697Y168785D01*
X401752Y169590D01*
X399648D01*
X397703Y168785D01*
X397165Y168246D01*
X395125Y169091D01*
Y217309D01*
X397165Y218154D01*
X397703Y217615D01*
X399648Y216810D01*
X401752D01*
X403697Y217615D01*
X405185Y219103D01*
X405990Y221048D01*
Y223152D01*
X405185Y225096D01*
X403697Y226585D01*
X401752Y227390D01*
X401921Y229360D01*
X408240D01*
Y233025D01*
X424960D01*
Y229360D01*
D02*
G37*
G36*
X393045Y163100D02*
X372045D01*
Y166000D01*
X293000D01*
Y62000D01*
X328000D01*
Y42350D01*
X327200Y41694D01*
X325136Y41283D01*
X324712Y41000D01*
X271888D01*
X271464Y41283D01*
X270000Y41574D01*
Y62000D01*
X270500D01*
Y91669D01*
X270771Y91723D01*
X272273Y92727D01*
X273277Y94229D01*
X273629Y96000D01*
X273277Y97771D01*
X272273Y99273D01*
X270771Y100277D01*
X270500Y100331D01*
Y193000D01*
X293000D01*
Y193000D01*
X372045D01*
Y221101D01*
X393045D01*
Y163100D01*
D02*
G37*
%LPC*%
G36*
X379061Y206478D02*
X377290Y206125D01*
X375788Y205122D01*
X374785Y203620D01*
X374432Y201849D01*
X374785Y200077D01*
X375788Y198575D01*
X377290Y197572D01*
X379061Y197220D01*
X380833Y197572D01*
X382334Y198575D01*
X383338Y200077D01*
X383690Y201849D01*
X383338Y203620D01*
X382334Y205122D01*
X380833Y206125D01*
X379061Y206478D01*
D02*
G37*
G36*
X375962Y191801D02*
X374190Y191449D01*
X372689Y190446D01*
X371685Y188944D01*
X371333Y187172D01*
X371685Y185401D01*
X372689Y183899D01*
X374190Y182896D01*
X375962Y182543D01*
X377733Y182896D01*
X379235Y183899D01*
X380238Y185401D01*
X380591Y187172D01*
X380238Y188944D01*
X379235Y190446D01*
X377733Y191449D01*
X375962Y191801D01*
D02*
G37*
%LPD*%
D10*
X240000Y67500D02*
X260000Y87500D01*
X240000Y29000D02*
Y67500D01*
X437500Y150000D02*
Y236400D01*
X395700Y150000D02*
X437500D01*
X395700Y236400D02*
X437500D01*
X240000Y29000D02*
X244000Y25000D01*
X310000D01*
X316000Y31000D01*
D22*
X356200Y360000D02*
D03*
X330800D02*
D03*
X305400D02*
D03*
X280000D02*
D03*
X254600D02*
D03*
X229200D02*
D03*
X203800D02*
D03*
X178400D02*
D03*
X153000D02*
D03*
X127600D02*
D03*
D49*
X125000Y315000D02*
X364000D01*
X402000Y277000D01*
D52*
X134500Y148000D02*
D03*
D53*
X159900D02*
D03*
X185300D02*
D03*
D54*
X402000Y339000D02*
D03*
Y277000D02*
D03*
D55*
X341500Y-500D02*
D03*
X255100D02*
D03*
X341500Y41300D02*
D03*
X255100D02*
D03*
D56*
X269400Y36300D02*
D03*
X327200D02*
D03*
X400700Y164300D02*
D03*
Y222100D02*
D03*
D57*
X437500Y236400D02*
D03*
Y150000D02*
D03*
X395700Y236400D02*
D03*
Y150000D02*
D03*
D58*
X33000Y141000D02*
D03*
X72000Y241000D02*
D03*
X341000Y153000D02*
D03*
X166052Y36000D02*
D03*
X216052D02*
D03*
X224000Y37000D02*
D03*
X136000Y195000D02*
D03*
X135000Y217000D02*
D03*
X154000Y264000D02*
D03*
X133000Y263000D02*
D03*
X269000Y96000D02*
D03*
X274300Y56847D02*
D03*
X260000Y87500D02*
D03*
X406446Y194785D02*
D03*
X417052Y184179D02*
D03*
X425456Y171754D02*
D03*
X422655Y112017D02*
D03*
X412049Y101411D02*
D03*
X401442Y90804D02*
D03*
X390836Y80197D02*
D03*
X363408Y71797D02*
D03*
X348408D02*
D03*
X333409D02*
D03*
X294152Y34546D02*
D03*
X302260Y67600D02*
D03*
X312866Y78207D02*
D03*
X323953Y88310D02*
D03*
X338948Y88709D02*
D03*
X353948D02*
D03*
X368948D02*
D03*
X382288Y95566D02*
D03*
X391184Y107644D02*
D03*
X403262Y116540D02*
D03*
X408544Y130579D02*
D03*
Y160579D02*
D03*
X402856Y174458D02*
D03*
X375962Y187172D02*
D03*
X379061Y201849D02*
D03*
X128047Y293601D02*
D03*
X359000Y18000D02*
D03*
X24000Y-17000D02*
D03*
X102000Y-27000D02*
D03*
X150000D02*
D03*
X240000Y-26000D02*
D03*
X296000D02*
D03*
X342000Y-27000D02*
D03*
X464000Y276000D02*
D03*
X91000Y360000D02*
D03*
X19000Y27000D02*
D03*
X20000Y72000D02*
D03*
X19000Y119000D02*
D03*
Y148000D02*
D03*
X18000Y194000D02*
D03*
X19000Y232000D02*
D03*
X20000Y301000D02*
D03*
Y328000D02*
D03*
X465000Y106000D02*
D03*
X464000Y213000D02*
D03*
Y187000D02*
D03*
X421000Y356000D02*
D03*
X361000Y271000D02*
D03*
X92000Y90000D02*
D03*
X119000Y81000D02*
D03*
X466052Y336000D02*
D03*
X441052Y286000D02*
D03*
X466052Y236000D02*
D03*
Y136000D02*
D03*
X441052Y86000D02*
D03*
X316052Y336000D02*
D03*
Y236000D02*
D03*
X241052Y86000D02*
D03*
X216052Y336000D02*
D03*
X191052Y286000D02*
D03*
Y-14000D02*
D03*
X166052Y336000D02*
D03*
Y236000D02*
D03*
Y136000D02*
D03*
X116052Y236000D02*
D03*
X91052Y186000D02*
D03*
X116052Y136000D02*
D03*
Y36000D02*
D03*
X41052Y286000D02*
D03*
Y186000D02*
D03*
X66052Y136000D02*
D03*
X41052Y86000D02*
D03*
X66052Y36000D02*
D03*
X298000Y133000D02*
D03*
X251000Y123000D02*
D03*
Y163000D02*
D03*
X252000Y209000D02*
D03*
Y259000D02*
D03*
Y219000D02*
D03*
X226000Y276000D02*
D03*
Y162000D02*
D03*
X225000Y111000D02*
D03*
X207000Y73000D02*
D03*
X186000Y89000D02*
D03*
X131000Y107000D02*
D03*
X186000D02*
D03*
X198000Y130000D02*
D03*
X199000Y166000D02*
D03*
X239000Y245000D02*
D03*
Y192000D02*
D03*
Y173000D02*
D03*
Y145000D02*
D03*
X269000Y323000D02*
D03*
X250000D02*
D03*
X226000Y297000D02*
D03*
Y258000D02*
D03*
X224000Y88000D02*
D03*
X239000Y122000D02*
D03*
Y206000D02*
D03*
Y277000D02*
D03*
X246000Y301000D02*
D03*
X230000Y323000D02*
D03*
X212000D02*
D03*
Y268000D02*
D03*
X225000Y188000D02*
D03*
Y138000D02*
D03*
X156000Y107000D02*
D03*
X208000Y115000D02*
D03*
X108000Y101000D02*
D03*
X213000Y153000D02*
D03*
X210000Y96000D02*
D03*
X186000Y71000D02*
D03*
X125000Y315000D02*
D03*
X371000Y237000D02*
D03*
X350000D02*
D03*
X224000Y9000D02*
D03*
X338000Y62000D02*
D03*
X374000Y149000D02*
D03*
X316000Y31000D02*
D03*
X322300Y58700D02*
D03*
X369000Y334000D02*
D03*
X374000Y168000D02*
D03*
Y219000D02*
D03*
X255000Y63000D02*
D03*
M02*
