G04*
G04 #@! TF.GenerationSoftware,Altium Limited,Altium Designer,23.9.2 (47)*
G04*
G04 Layer_Physical_Order=1*
G04 Layer_Color=255*
%FSLAX44Y44*%
%MOMM*%
G71*
G04*
G04 #@! TF.SameCoordinates,9A803F3E-43BB-4194-8617-3FBF936CA0BB*
G04*
G04*
G04 #@! TF.FilePolarity,Positive*
G04*
G01*
G75*
%ADD12R,0.3000X0.8000*%
%ADD13R,0.4000X0.8000*%
%ADD19C,0.2040*%
%ADD20C,1.6000*%
%ADD21R,1.6000X1.6000*%
%ADD22C,3.0000*%
G36*
X214748Y205859D02*
Y205443D01*
Y204748D01*
Y203498D01*
Y202665D01*
Y201832D01*
Y200721D01*
Y199609D01*
Y198221D01*
Y196693D01*
Y195026D01*
Y193082D01*
Y190998D01*
Y188776D01*
Y186276D01*
Y183498D01*
Y180582D01*
Y177387D01*
Y174054D01*
Y170443D01*
Y166415D01*
Y162249D01*
Y157804D01*
Y153082D01*
Y147943D01*
Y142666D01*
Y136971D01*
Y130999D01*
X214748Y56000D01*
X147874Y93499D01*
X214748Y130999D01*
X147874Y168499D01*
X214748Y205998D01*
Y205859D01*
D02*
G37*
G36*
X147874Y168499D02*
X81000Y130999D01*
X147874Y93499D01*
X81000Y56000D01*
X81000Y130999D01*
Y136971D01*
Y142666D01*
Y147943D01*
Y153082D01*
Y157804D01*
Y162249D01*
Y166415D01*
Y170443D01*
Y174054D01*
Y177387D01*
Y180582D01*
Y183498D01*
Y186276D01*
Y188776D01*
Y190998D01*
Y193082D01*
Y195026D01*
Y196693D01*
Y198221D01*
Y199609D01*
Y200721D01*
Y201831D01*
Y202665D01*
Y203498D01*
Y204748D01*
Y205443D01*
Y205859D01*
Y205998D01*
X147874Y168499D01*
D02*
G37*
D12*
X257500Y35222D02*
D03*
X262500D02*
D03*
X267500D02*
D03*
X272500D02*
D03*
X277500D02*
D03*
X282500D02*
D03*
D13*
X292000Y10222D02*
D03*
X248000D02*
D03*
D19*
X282500Y35222D02*
Y178351D01*
X333500Y229351D01*
X272500Y35222D02*
Y219151D01*
X277500Y35222D02*
Y198751D01*
X308100Y229351D01*
X257500Y35222D02*
Y178351D01*
X206500Y229351D02*
X257500Y178351D01*
X267500Y35222D02*
Y219151D01*
X262500Y35222D02*
Y198751D01*
X272500Y219151D02*
X282700Y229351D01*
X231900D02*
X262500Y198751D01*
X257300Y229351D02*
X267500Y219151D01*
D20*
X308100Y229351D02*
D03*
X282700D02*
D03*
X333500D02*
D03*
X257300D02*
D03*
X231900D02*
D03*
D21*
X206500D02*
D03*
D22*
X520000Y30000D02*
D03*
Y220000D02*
D03*
X30000D02*
D03*
Y30000D02*
D03*
M02*
