G04*
G04 #@! TF.GenerationSoftware,Altium Limited,Altium Designer,23.8.1 (32)*
G04*
G04 Layer_Color=65535*
%FSLAX44Y44*%
%MOMM*%
G71*
G04*
G04 #@! TF.SameCoordinates,C3666710-2670-402F-B92E-87204BB45A74*
G04*
G04*
G04 #@! TF.FilePolarity,Positive*
G04*
G01*
G75*
%ADD10C,0.2000*%
%ADD11C,0.1000*%
G36*
X337653Y245925D02*
X337756D01*
X337868Y245916D01*
X338000Y245897D01*
X338150Y245869D01*
X338318Y245841D01*
X338487Y245794D01*
X338665Y245747D01*
X338853Y245681D01*
X339031Y245606D01*
X339218Y245522D01*
X339387Y245419D01*
X339556Y245297D01*
X339715Y245166D01*
X339724Y245156D01*
X339752Y245128D01*
X339790Y245091D01*
X339837Y245025D01*
X339902Y244950D01*
X339968Y244866D01*
X340043Y244763D01*
X340118Y244641D01*
X340193Y244510D01*
X340268Y244360D01*
X340334Y244210D01*
X340399Y244041D01*
X340446Y243863D01*
X340483Y243666D01*
X340512Y243469D01*
X340521Y243263D01*
Y243254D01*
Y243235D01*
Y243207D01*
Y243169D01*
X340512Y243113D01*
Y243057D01*
X340493Y242907D01*
X340465Y242738D01*
X340418Y242542D01*
X340362Y242335D01*
X340277Y242129D01*
Y242120D01*
X340268Y242101D01*
X340249Y242073D01*
X340230Y242035D01*
X340202Y241979D01*
X340174Y241923D01*
X340090Y241773D01*
X339987Y241604D01*
X339846Y241398D01*
X339687Y241182D01*
X339490Y240958D01*
X339481Y240948D01*
X339462Y240929D01*
X339434Y240892D01*
X339387Y240845D01*
X339321Y240779D01*
X339256Y240704D01*
X339162Y240620D01*
X339059Y240517D01*
X338946Y240405D01*
X338806Y240273D01*
X338665Y240133D01*
X338496Y239983D01*
X338318Y239823D01*
X338121Y239645D01*
X337906Y239467D01*
X337681Y239270D01*
X337672Y239261D01*
X337634Y239233D01*
X337578Y239186D01*
X337512Y239130D01*
X337428Y239055D01*
X337334Y238971D01*
X337109Y238783D01*
X336884Y238586D01*
X336659Y238389D01*
X336556Y238296D01*
X336463Y238202D01*
X336378Y238127D01*
X336313Y238061D01*
X336303Y238052D01*
X336266Y238005D01*
X336209Y237940D01*
X336134Y237865D01*
X336060Y237761D01*
X335975Y237658D01*
X335891Y237546D01*
X335816Y237424D01*
X340530D01*
Y236290D01*
X334185D01*
Y236299D01*
Y236309D01*
Y236365D01*
Y236440D01*
X334194Y236552D01*
X334213Y236674D01*
X334232Y236815D01*
X334269Y236956D01*
X334316Y237105D01*
Y237115D01*
X334326Y237134D01*
X334344Y237171D01*
X334363Y237218D01*
X334391Y237274D01*
X334419Y237340D01*
X334504Y237508D01*
X334616Y237705D01*
X334747Y237921D01*
X334907Y238146D01*
X335094Y238380D01*
X335103Y238389D01*
X335122Y238408D01*
X335150Y238446D01*
X335197Y238493D01*
X335253Y238549D01*
X335319Y238624D01*
X335394Y238708D01*
X335488Y238802D01*
X335591Y238896D01*
X335703Y239008D01*
X335835Y239130D01*
X335966Y239261D01*
X336116Y239392D01*
X336275Y239533D01*
X336453Y239683D01*
X336631Y239833D01*
X336650Y239852D01*
X336697Y239889D01*
X336781Y239955D01*
X336884Y240048D01*
X337016Y240152D01*
X337156Y240283D01*
X337315Y240423D01*
X337484Y240573D01*
X337840Y240901D01*
X338187Y241239D01*
X338346Y241407D01*
X338496Y241576D01*
X338637Y241726D01*
X338750Y241876D01*
X338759Y241885D01*
X338778Y241914D01*
X338806Y241951D01*
X338834Y242007D01*
X338881Y242073D01*
X338928Y242148D01*
X338974Y242242D01*
X339031Y242335D01*
X339134Y242551D01*
X339227Y242785D01*
X339256Y242916D01*
X339284Y243038D01*
X339302Y243169D01*
X339312Y243291D01*
Y243301D01*
Y243319D01*
Y243357D01*
X339302Y243413D01*
X339293Y243469D01*
X339284Y243535D01*
X339246Y243704D01*
X339190Y243891D01*
X339096Y244088D01*
X339040Y244182D01*
X338974Y244285D01*
X338899Y244379D01*
X338806Y244472D01*
X338796Y244482D01*
X338787Y244491D01*
X338750Y244519D01*
X338712Y244547D01*
X338665Y244585D01*
X338600Y244622D01*
X338534Y244669D01*
X338450Y244716D01*
X338365Y244763D01*
X338262Y244810D01*
X338037Y244885D01*
X337784Y244941D01*
X337644Y244950D01*
X337494Y244960D01*
X337409D01*
X337353Y244950D01*
X337278Y244941D01*
X337194Y244932D01*
X337100Y244913D01*
X337006Y244894D01*
X336781Y244838D01*
X336556Y244744D01*
X336444Y244688D01*
X336331Y244613D01*
X336228Y244538D01*
X336125Y244444D01*
X336116Y244435D01*
X336106Y244425D01*
X336078Y244388D01*
X336050Y244350D01*
X336013Y244304D01*
X335966Y244238D01*
X335919Y244163D01*
X335872Y244079D01*
X335825Y243985D01*
X335778Y243882D01*
X335741Y243760D01*
X335694Y243638D01*
X335666Y243507D01*
X335638Y243357D01*
X335628Y243207D01*
X335619Y243038D01*
X334410Y243160D01*
Y243179D01*
X334419Y243216D01*
X334429Y243291D01*
X334438Y243385D01*
X334466Y243498D01*
X334494Y243629D01*
X334532Y243769D01*
X334569Y243929D01*
X334626Y244088D01*
X334691Y244257D01*
X334766Y244425D01*
X334851Y244604D01*
X334954Y244772D01*
X335066Y244932D01*
X335197Y245082D01*
X335338Y245222D01*
X335347Y245231D01*
X335375Y245250D01*
X335422Y245288D01*
X335488Y245335D01*
X335572Y245391D01*
X335666Y245447D01*
X335788Y245513D01*
X335919Y245578D01*
X336069Y245644D01*
X336228Y245709D01*
X336406Y245766D01*
X336603Y245822D01*
X336809Y245869D01*
X337034Y245906D01*
X337269Y245925D01*
X337522Y245934D01*
X337587D01*
X337653Y245925D01*
D02*
G37*
G36*
X331317Y236290D02*
X330136D01*
Y243797D01*
X330127D01*
X330117Y243779D01*
X330089Y243760D01*
X330061Y243732D01*
X329967Y243647D01*
X329836Y243544D01*
X329677Y243423D01*
X329480Y243282D01*
X329255Y243132D01*
X329011Y242982D01*
X329002D01*
X328983Y242963D01*
X328946Y242945D01*
X328899Y242916D01*
X328833Y242879D01*
X328768Y242841D01*
X328599Y242757D01*
X328411Y242663D01*
X328205Y242560D01*
X327990Y242467D01*
X327784Y242382D01*
Y243516D01*
X327793Y243526D01*
X327830Y243535D01*
X327877Y243563D01*
X327952Y243601D01*
X328037Y243647D01*
X328130Y243704D01*
X328243Y243760D01*
X328365Y243835D01*
X328637Y243994D01*
X328927Y244191D01*
X329218Y244407D01*
X329508Y244641D01*
X329518Y244650D01*
X329536Y244669D01*
X329583Y244707D01*
X329630Y244753D01*
X329686Y244819D01*
X329761Y244885D01*
X329836Y244969D01*
X329921Y245053D01*
X330089Y245250D01*
X330258Y245466D01*
X330417Y245700D01*
X330492Y245813D01*
X330549Y245934D01*
X331317D01*
Y236290D01*
D02*
G37*
G36*
X339278Y176000D02*
X338097D01*
Y183507D01*
X338087D01*
X338078Y183489D01*
X338050Y183470D01*
X338022Y183442D01*
X337928Y183358D01*
X337797Y183254D01*
X337637Y183133D01*
X337441Y182992D01*
X337216Y182842D01*
X336972Y182692D01*
X336963D01*
X336944Y182673D01*
X336906Y182654D01*
X336860Y182626D01*
X336794Y182589D01*
X336728Y182551D01*
X336560Y182467D01*
X336372Y182373D01*
X336166Y182270D01*
X335950Y182176D01*
X335744Y182092D01*
Y183226D01*
X335754Y183236D01*
X335791Y183245D01*
X335838Y183273D01*
X335913Y183311D01*
X335997Y183358D01*
X336091Y183414D01*
X336203Y183470D01*
X336325Y183545D01*
X336597Y183704D01*
X336888Y183901D01*
X337178Y184117D01*
X337469Y184351D01*
X337478Y184360D01*
X337497Y184379D01*
X337544Y184417D01*
X337591Y184464D01*
X337647Y184529D01*
X337722Y184595D01*
X337797Y184679D01*
X337881Y184763D01*
X338050Y184960D01*
X338219Y185176D01*
X338378Y185410D01*
X338453Y185523D01*
X338509Y185644D01*
X339278D01*
Y176000D01*
D02*
G37*
G36*
X331817D02*
X330636D01*
Y183507D01*
X330627D01*
X330617Y183489D01*
X330589Y183470D01*
X330561Y183442D01*
X330467Y183358D01*
X330336Y183254D01*
X330177Y183133D01*
X329980Y182992D01*
X329755Y182842D01*
X329511Y182692D01*
X329502D01*
X329483Y182673D01*
X329446Y182654D01*
X329399Y182626D01*
X329333Y182589D01*
X329268Y182551D01*
X329099Y182467D01*
X328912Y182373D01*
X328705Y182270D01*
X328490Y182176D01*
X328284Y182092D01*
Y183226D01*
X328293Y183236D01*
X328330Y183245D01*
X328377Y183273D01*
X328452Y183311D01*
X328537Y183358D01*
X328630Y183414D01*
X328743Y183470D01*
X328865Y183545D01*
X329137Y183704D01*
X329427Y183901D01*
X329718Y184117D01*
X330008Y184351D01*
X330018Y184360D01*
X330036Y184379D01*
X330083Y184417D01*
X330130Y184464D01*
X330186Y184529D01*
X330261Y184595D01*
X330336Y184679D01*
X330420Y184763D01*
X330589Y184960D01*
X330758Y185176D01*
X330917Y185410D01*
X330992Y185523D01*
X331049Y185644D01*
X331817D01*
Y176000D01*
D02*
G37*
G36*
X304458Y236449D02*
X303277D01*
Y243957D01*
X303267D01*
X303258Y243938D01*
X303230Y243919D01*
X303202Y243891D01*
X303108Y243807D01*
X302977Y243704D01*
X302817Y243582D01*
X302621Y243441D01*
X302396Y243291D01*
X302152Y243141D01*
X302143D01*
X302124Y243123D01*
X302086Y243104D01*
X302040Y243076D01*
X301974Y243038D01*
X301908Y243001D01*
X301740Y242916D01*
X301552Y242823D01*
X301346Y242720D01*
X301130Y242626D01*
X300924Y242542D01*
Y243676D01*
X300933Y243685D01*
X300971Y243694D01*
X301018Y243722D01*
X301093Y243760D01*
X301177Y243807D01*
X301271Y243863D01*
X301383Y243919D01*
X301505Y243994D01*
X301777Y244154D01*
X302068Y244350D01*
X302358Y244566D01*
X302649Y244800D01*
X302658Y244810D01*
X302677Y244828D01*
X302724Y244866D01*
X302771Y244913D01*
X302827Y244978D01*
X302902Y245044D01*
X302977Y245128D01*
X303061Y245213D01*
X303230Y245410D01*
X303398Y245625D01*
X303558Y245859D01*
X303633Y245972D01*
X303689Y246094D01*
X304458D01*
Y236449D01*
D02*
G37*
G36*
X310803Y246084D02*
X310878Y246075D01*
X310972Y246066D01*
X311065Y246056D01*
X311271Y246019D01*
X311497Y245963D01*
X311731Y245878D01*
X311956Y245775D01*
X311965D01*
X311984Y245756D01*
X312012Y245747D01*
X312059Y245719D01*
X312162Y245644D01*
X312302Y245550D01*
X312453Y245419D01*
X312612Y245269D01*
X312771Y245082D01*
X312921Y244875D01*
Y244866D01*
X312940Y244847D01*
X312959Y244819D01*
X312987Y244772D01*
X313015Y244716D01*
X313052Y244650D01*
X313090Y244566D01*
X313137Y244482D01*
X313183Y244379D01*
X313230Y244275D01*
X313324Y244032D01*
X313427Y243751D01*
X313512Y243451D01*
Y243441D01*
X313521Y243413D01*
X313530Y243366D01*
X313549Y243301D01*
X313568Y243216D01*
X313587Y243113D01*
X313605Y242991D01*
X313624Y242851D01*
X313643Y242701D01*
X313661Y242523D01*
X313680Y242345D01*
X313699Y242139D01*
X313718Y241923D01*
X313727Y241689D01*
X313736Y241445D01*
Y241182D01*
Y241164D01*
Y241108D01*
Y241023D01*
X313727Y240901D01*
Y240761D01*
X313718Y240592D01*
X313708Y240414D01*
X313690Y240208D01*
X313671Y239992D01*
X313652Y239777D01*
X313587Y239317D01*
X313502Y238867D01*
X313446Y238661D01*
X313380Y238455D01*
Y238446D01*
X313362Y238408D01*
X313343Y238352D01*
X313315Y238286D01*
X313277Y238193D01*
X313230Y238099D01*
X313183Y237986D01*
X313118Y237865D01*
X312977Y237612D01*
X312799Y237340D01*
X312584Y237087D01*
X312462Y236965D01*
X312340Y236852D01*
X312331Y236843D01*
X312312Y236824D01*
X312274Y236796D01*
X312218Y236768D01*
X312153Y236721D01*
X312068Y236674D01*
X311975Y236627D01*
X311871Y236571D01*
X311749Y236515D01*
X311618Y236468D01*
X311478Y236421D01*
X311318Y236374D01*
X311159Y236346D01*
X310981Y236318D01*
X310803Y236299D01*
X310606Y236290D01*
X310541D01*
X310475Y236299D01*
X310372Y236309D01*
X310259Y236318D01*
X310119Y236346D01*
X309969Y236374D01*
X309809Y236412D01*
X309641Y236468D01*
X309463Y236534D01*
X309275Y236609D01*
X309097Y236702D01*
X308919Y236815D01*
X308741Y236946D01*
X308572Y237105D01*
X308422Y237274D01*
X308413Y237293D01*
X308385Y237330D01*
X308338Y237405D01*
X308272Y237508D01*
X308207Y237640D01*
X308122Y237799D01*
X308038Y237996D01*
X307954Y238221D01*
X307860Y238474D01*
X307775Y238764D01*
X307691Y239083D01*
X307626Y239430D01*
X307560Y239823D01*
X307513Y240236D01*
X307485Y240695D01*
X307476Y241182D01*
Y241192D01*
Y241201D01*
Y241257D01*
Y241351D01*
X307485Y241464D01*
Y241614D01*
X307494Y241773D01*
X307504Y241960D01*
X307523Y242167D01*
X307541Y242382D01*
X307560Y242607D01*
X307626Y243057D01*
X307710Y243516D01*
X307766Y243722D01*
X307822Y243929D01*
Y243938D01*
X307841Y243976D01*
X307860Y244032D01*
X307888Y244097D01*
X307925Y244191D01*
X307972Y244285D01*
X308019Y244397D01*
X308085Y244519D01*
X308225Y244782D01*
X308403Y245044D01*
X308619Y245297D01*
X308741Y245419D01*
X308863Y245531D01*
X308872Y245541D01*
X308891Y245560D01*
X308938Y245588D01*
X308985Y245616D01*
X309060Y245663D01*
X309135Y245709D01*
X309238Y245756D01*
X309341Y245813D01*
X309463Y245869D01*
X309594Y245916D01*
X309734Y245963D01*
X309894Y246009D01*
X310053Y246038D01*
X310231Y246066D01*
X310409Y246084D01*
X310606Y246094D01*
X310737D01*
X310803Y246084D01*
D02*
G37*
G36*
X308177Y185794D02*
X308262Y185785D01*
X308355Y185776D01*
X308468Y185766D01*
X308580Y185738D01*
X308852Y185682D01*
X309133Y185588D01*
X309283Y185532D01*
X309433Y185466D01*
X309583Y185391D01*
X309733Y185298D01*
X309743Y185288D01*
X309771Y185279D01*
X309808Y185241D01*
X309864Y185204D01*
X309930Y185148D01*
X310005Y185091D01*
X310080Y185016D01*
X310174Y184932D01*
X310267Y184829D01*
X310361Y184726D01*
X310464Y184604D01*
X310558Y184473D01*
X310652Y184332D01*
X310745Y184182D01*
X310839Y184023D01*
X310914Y183854D01*
X310924Y183845D01*
X310933Y183807D01*
X310952Y183761D01*
X310980Y183685D01*
X311008Y183582D01*
X311045Y183470D01*
X311083Y183329D01*
X311120Y183170D01*
X311158Y182992D01*
X311186Y182786D01*
X311223Y182570D01*
X311252Y182327D01*
X311280Y182064D01*
X311298Y181783D01*
X311317Y181474D01*
Y181155D01*
Y181146D01*
Y181136D01*
Y181108D01*
Y181071D01*
Y180977D01*
X311308Y180855D01*
Y180696D01*
X311298Y180518D01*
X311280Y180321D01*
X311270Y180096D01*
X311242Y179871D01*
X311223Y179627D01*
X311148Y179140D01*
X311102Y178896D01*
X311045Y178662D01*
X310989Y178437D01*
X310914Y178221D01*
Y178212D01*
X310895Y178174D01*
X310877Y178118D01*
X310839Y178043D01*
X310792Y177950D01*
X310745Y177846D01*
X310689Y177734D01*
X310614Y177603D01*
X310445Y177340D01*
X310239Y177059D01*
X310005Y176797D01*
X309864Y176675D01*
X309724Y176562D01*
X309714Y176553D01*
X309686Y176534D01*
X309649Y176506D01*
X309583Y176478D01*
X309508Y176431D01*
X309415Y176384D01*
X309311Y176337D01*
X309199Y176281D01*
X309068Y176225D01*
X308927Y176178D01*
X308777Y176131D01*
X308608Y176084D01*
X308440Y176056D01*
X308262Y176028D01*
X308074Y176009D01*
X307877Y176000D01*
X307765D01*
X307690Y176009D01*
X307596Y176019D01*
X307484Y176038D01*
X307353Y176056D01*
X307221Y176075D01*
X306931Y176150D01*
X306771Y176197D01*
X306621Y176262D01*
X306462Y176328D01*
X306312Y176412D01*
X306172Y176506D01*
X306031Y176619D01*
X306022Y176628D01*
X306003Y176647D01*
X305965Y176684D01*
X305919Y176731D01*
X305862Y176797D01*
X305797Y176881D01*
X305731Y176965D01*
X305656Y177078D01*
X305581Y177190D01*
X305506Y177331D01*
X305441Y177472D01*
X305375Y177631D01*
X305309Y177799D01*
X305253Y177987D01*
X305216Y178184D01*
X305178Y178390D01*
X306312Y178493D01*
Y178484D01*
X306322Y178456D01*
X306331Y178418D01*
X306340Y178362D01*
X306359Y178296D01*
X306378Y178221D01*
X306434Y178043D01*
X306509Y177856D01*
X306603Y177659D01*
X306715Y177481D01*
X306781Y177397D01*
X306856Y177321D01*
X306865D01*
X306875Y177303D01*
X306931Y177265D01*
X307015Y177209D01*
X307137Y177143D01*
X307287Y177078D01*
X307465Y177022D01*
X307671Y176984D01*
X307896Y176965D01*
X307990D01*
X308093Y176975D01*
X308224Y176994D01*
X308365Y177022D01*
X308533Y177069D01*
X308693Y177125D01*
X308852Y177209D01*
X308862D01*
X308871Y177218D01*
X308918Y177256D01*
X308993Y177312D01*
X309086Y177387D01*
X309199Y177481D01*
X309311Y177593D01*
X309415Y177725D01*
X309518Y177875D01*
Y177884D01*
X309527Y177893D01*
X309546Y177921D01*
X309564Y177950D01*
X309611Y178043D01*
X309668Y178174D01*
X309743Y178334D01*
X309818Y178531D01*
X309893Y178746D01*
X309958Y178999D01*
Y179009D01*
X309967Y179027D01*
X309977Y179074D01*
X309986Y179121D01*
X309996Y179187D01*
X310014Y179262D01*
X310033Y179346D01*
X310052Y179449D01*
X310080Y179665D01*
X310108Y179908D01*
X310127Y180171D01*
X310136Y180443D01*
Y180461D01*
Y180508D01*
Y180574D01*
Y180668D01*
X310117Y180649D01*
X310099Y180621D01*
X310071Y180583D01*
X309996Y180480D01*
X309883Y180349D01*
X309743Y180208D01*
X309574Y180058D01*
X309377Y179908D01*
X309161Y179768D01*
X309152D01*
X309133Y179749D01*
X309105Y179740D01*
X309058Y179712D01*
X309002Y179683D01*
X308927Y179655D01*
X308852Y179627D01*
X308768Y179599D01*
X308571Y179534D01*
X308346Y179477D01*
X308102Y179440D01*
X307840Y179421D01*
X307784D01*
X307727Y179430D01*
X307643D01*
X307540Y179449D01*
X307418Y179468D01*
X307287Y179496D01*
X307146Y179534D01*
X306987Y179571D01*
X306828Y179627D01*
X306659Y179702D01*
X306490Y179786D01*
X306322Y179880D01*
X306153Y180002D01*
X305984Y180133D01*
X305825Y180283D01*
X305815Y180293D01*
X305787Y180321D01*
X305750Y180377D01*
X305694Y180443D01*
X305637Y180527D01*
X305562Y180630D01*
X305487Y180752D01*
X305412Y180893D01*
X305337Y181042D01*
X305262Y181220D01*
X305187Y181408D01*
X305131Y181605D01*
X305075Y181830D01*
X305037Y182055D01*
X305009Y182298D01*
X305000Y182561D01*
Y182580D01*
Y182626D01*
X305009Y182701D01*
Y182805D01*
X305028Y182926D01*
X305047Y183067D01*
X305075Y183226D01*
X305103Y183404D01*
X305150Y183582D01*
X305206Y183779D01*
X305281Y183976D01*
X305356Y184173D01*
X305459Y184370D01*
X305572Y184557D01*
X305703Y184745D01*
X305853Y184913D01*
X305862Y184923D01*
X305890Y184951D01*
X305937Y184998D01*
X306012Y185054D01*
X306097Y185119D01*
X306190Y185194D01*
X306312Y185279D01*
X306443Y185363D01*
X306593Y185438D01*
X306762Y185523D01*
X306940Y185597D01*
X307128Y185663D01*
X307334Y185719D01*
X307549Y185766D01*
X307784Y185794D01*
X308018Y185804D01*
X308112D01*
X308177Y185794D01*
D02*
G37*
G36*
X281270Y246084D02*
X281383Y246075D01*
X281505Y246056D01*
X281636Y246028D01*
X281786Y246000D01*
X281945Y245963D01*
X282114Y245916D01*
X282283Y245859D01*
X282451Y245784D01*
X282620Y245700D01*
X282779Y245606D01*
X282939Y245494D01*
X283089Y245363D01*
X283098Y245353D01*
X283126Y245325D01*
X283164Y245288D01*
X283211Y245231D01*
X283267Y245166D01*
X283332Y245072D01*
X283398Y244978D01*
X283473Y244866D01*
X283548Y244744D01*
X283613Y244604D01*
X283679Y244463D01*
X283735Y244304D01*
X283782Y244135D01*
X283829Y243957D01*
X283848Y243779D01*
X283857Y243582D01*
Y243573D01*
Y243554D01*
Y243516D01*
X283848Y243469D01*
Y243413D01*
X283839Y243338D01*
X283810Y243179D01*
X283773Y243001D01*
X283707Y242804D01*
X283623Y242607D01*
X283501Y242410D01*
Y242401D01*
X283482Y242392D01*
X283435Y242326D01*
X283351Y242242D01*
X283239Y242129D01*
X283089Y242007D01*
X282911Y241885D01*
X282695Y241764D01*
X282442Y241651D01*
X282451D01*
X282479Y241642D01*
X282526Y241623D01*
X282582Y241595D01*
X282658Y241567D01*
X282742Y241529D01*
X282939Y241426D01*
X283154Y241295D01*
X283379Y241136D01*
X283595Y240948D01*
X283689Y240836D01*
X283782Y240723D01*
X283792Y240714D01*
X283801Y240695D01*
X283829Y240658D01*
X283857Y240611D01*
X283895Y240545D01*
X283932Y240480D01*
X283970Y240386D01*
X284017Y240292D01*
X284063Y240189D01*
X284101Y240067D01*
X284176Y239814D01*
X284232Y239514D01*
X284242Y239364D01*
X284251Y239195D01*
Y239186D01*
Y239139D01*
X284242Y239074D01*
Y238989D01*
X284223Y238886D01*
X284204Y238764D01*
X284176Y238624D01*
X284138Y238474D01*
X284091Y238314D01*
X284035Y238146D01*
X283970Y237977D01*
X283885Y237799D01*
X283782Y237621D01*
X283670Y237452D01*
X283529Y237283D01*
X283379Y237124D01*
X283370Y237115D01*
X283342Y237087D01*
X283286Y237049D01*
X283220Y236993D01*
X283136Y236927D01*
X283032Y236862D01*
X282901Y236787D01*
X282770Y236712D01*
X282611Y236627D01*
X282433Y236552D01*
X282245Y236487D01*
X282039Y236421D01*
X281823Y236365D01*
X281589Y236327D01*
X281345Y236299D01*
X281083Y236290D01*
X281017D01*
X280942Y236299D01*
X280849D01*
X280727Y236318D01*
X280586Y236337D01*
X280427Y236356D01*
X280258Y236393D01*
X280080Y236440D01*
X279893Y236496D01*
X279705Y236562D01*
X279518Y236646D01*
X279321Y236740D01*
X279133Y236852D01*
X278955Y236974D01*
X278787Y237124D01*
X278777Y237134D01*
X278749Y237162D01*
X278712Y237208D01*
X278655Y237274D01*
X278590Y237358D01*
X278515Y237462D01*
X278440Y237574D01*
X278356Y237705D01*
X278271Y237846D01*
X278196Y238005D01*
X278121Y238183D01*
X278056Y238371D01*
X278009Y238568D01*
X277962Y238774D01*
X277934Y238989D01*
X277924Y239224D01*
Y239233D01*
Y239261D01*
Y239317D01*
X277934Y239383D01*
X277943Y239458D01*
X277952Y239552D01*
X277962Y239655D01*
X277981Y239767D01*
X278037Y240020D01*
X278121Y240283D01*
X278177Y240414D01*
X278243Y240545D01*
X278309Y240667D01*
X278393Y240789D01*
X278402Y240798D01*
X278412Y240817D01*
X278440Y240845D01*
X278477Y240892D01*
X278534Y240948D01*
X278590Y241004D01*
X278665Y241070D01*
X278740Y241136D01*
X278834Y241211D01*
X278937Y241276D01*
X279049Y241351D01*
X279171Y241426D01*
X279302Y241492D01*
X279443Y241548D01*
X279593Y241604D01*
X279752Y241651D01*
X279743D01*
X279724Y241660D01*
X279677Y241679D01*
X279630Y241698D01*
X279574Y241726D01*
X279499Y241764D01*
X279340Y241848D01*
X279161Y241960D01*
X278974Y242092D01*
X278805Y242242D01*
X278655Y242420D01*
Y242429D01*
X278637Y242438D01*
X278627Y242467D01*
X278599Y242504D01*
X278571Y242560D01*
X278543Y242617D01*
X278487Y242757D01*
X278421Y242926D01*
X278365Y243132D01*
X278327Y243357D01*
X278309Y243610D01*
Y243619D01*
Y243657D01*
X278318Y243713D01*
Y243788D01*
X278327Y243872D01*
X278346Y243976D01*
X278374Y244097D01*
X278402Y244229D01*
X278440Y244360D01*
X278496Y244500D01*
X278552Y244650D01*
X278627Y244800D01*
X278712Y244941D01*
X278815Y245091D01*
X278927Y245231D01*
X279058Y245372D01*
X279068Y245381D01*
X279096Y245400D01*
X279133Y245438D01*
X279199Y245485D01*
X279274Y245541D01*
X279358Y245597D01*
X279471Y245663D01*
X279593Y245738D01*
X279724Y245803D01*
X279874Y245869D01*
X280043Y245925D01*
X280221Y245981D01*
X280417Y246028D01*
X280614Y246066D01*
X280839Y246084D01*
X281064Y246094D01*
X281186D01*
X281270Y246084D01*
D02*
G37*
G36*
X286214Y184567D02*
X286205Y184557D01*
X286176Y184520D01*
X286120Y184464D01*
X286055Y184389D01*
X285970Y184285D01*
X285877Y184173D01*
X285764Y184032D01*
X285642Y183873D01*
X285511Y183695D01*
X285361Y183498D01*
X285211Y183283D01*
X285052Y183048D01*
X284893Y182805D01*
X284724Y182542D01*
X284555Y182261D01*
X284386Y181961D01*
X284377Y181942D01*
X284349Y181886D01*
X284302Y181802D01*
X284236Y181680D01*
X284161Y181539D01*
X284077Y181361D01*
X283983Y181164D01*
X283880Y180939D01*
X283768Y180696D01*
X283655Y180443D01*
X283533Y180161D01*
X283421Y179880D01*
X283309Y179580D01*
X283196Y179271D01*
X283093Y178952D01*
X282999Y178634D01*
Y178624D01*
X282980Y178577D01*
X282962Y178512D01*
X282943Y178428D01*
X282915Y178315D01*
X282877Y178174D01*
X282849Y178025D01*
X282812Y177856D01*
X282774Y177668D01*
X282737Y177462D01*
X282699Y177247D01*
X282662Y177012D01*
X282624Y176778D01*
X282596Y176525D01*
X282549Y176000D01*
X281340D01*
Y176009D01*
Y176056D01*
X281350Y176112D01*
Y176197D01*
X281359Y176309D01*
X281368Y176441D01*
X281387Y176590D01*
X281406Y176759D01*
X281425Y176956D01*
X281453Y177162D01*
X281490Y177387D01*
X281537Y177621D01*
X281584Y177884D01*
X281640Y178146D01*
X281706Y178437D01*
X281781Y178727D01*
Y178737D01*
X281790Y178746D01*
X281800Y178802D01*
X281828Y178887D01*
X281856Y178999D01*
X281903Y179149D01*
X281959Y179318D01*
X282015Y179505D01*
X282090Y179721D01*
X282174Y179946D01*
X282268Y180190D01*
X282362Y180452D01*
X282474Y180714D01*
X282718Y181267D01*
X282999Y181830D01*
X283009Y181849D01*
X283037Y181895D01*
X283084Y181970D01*
X283140Y182083D01*
X283215Y182205D01*
X283299Y182355D01*
X283402Y182523D01*
X283515Y182701D01*
X283637Y182898D01*
X283768Y183104D01*
X284049Y183526D01*
X284368Y183948D01*
X284527Y184154D01*
X284696Y184351D01*
X280000D01*
Y185485D01*
X286214D01*
Y184567D01*
D02*
G37*
G36*
X256966Y246084D02*
X257069Y246075D01*
X257181Y246056D01*
X257303Y246038D01*
X257444Y246019D01*
X257734Y245934D01*
X257894Y245888D01*
X258043Y245822D01*
X258203Y245756D01*
X258353Y245663D01*
X258503Y245569D01*
X258643Y245456D01*
X258653Y245447D01*
X258671Y245428D01*
X258709Y245391D01*
X258756Y245344D01*
X258812Y245278D01*
X258878Y245194D01*
X258953Y245100D01*
X259028Y244997D01*
X259102Y244885D01*
X259177Y244744D01*
X259243Y244604D01*
X259318Y244444D01*
X259384Y244275D01*
X259431Y244097D01*
X259477Y243910D01*
X259515Y243704D01*
X258343Y243610D01*
Y243619D01*
X258334Y243638D01*
X258325Y243676D01*
X258315Y243722D01*
X258297Y243779D01*
X258278Y243844D01*
X258231Y243994D01*
X258165Y244163D01*
X258090Y244332D01*
X257997Y244491D01*
X257894Y244622D01*
X257884Y244632D01*
X257875Y244641D01*
X257847Y244669D01*
X257809Y244697D01*
X257762Y244744D01*
X257706Y244782D01*
X257565Y244875D01*
X257397Y244969D01*
X257190Y245053D01*
X256966Y245110D01*
X256844Y245119D01*
X256712Y245128D01*
X256619D01*
X256516Y245110D01*
X256375Y245091D01*
X256225Y245053D01*
X256056Y244997D01*
X255888Y244913D01*
X255719Y244810D01*
X255710D01*
X255691Y244791D01*
X255663Y244772D01*
X255625Y244735D01*
X255532Y244641D01*
X255400Y244510D01*
X255260Y244341D01*
X255110Y244135D01*
X254969Y243901D01*
X254838Y243619D01*
Y243610D01*
X254829Y243582D01*
X254810Y243535D01*
X254791Y243479D01*
X254763Y243394D01*
X254735Y243301D01*
X254707Y243179D01*
X254679Y243048D01*
X254650Y242898D01*
X254622Y242738D01*
X254594Y242551D01*
X254566Y242354D01*
X254547Y242139D01*
X254529Y241904D01*
X254519Y241660D01*
X254510Y241398D01*
X254519Y241407D01*
X254529Y241426D01*
X254557Y241464D01*
X254585Y241501D01*
X254622Y241557D01*
X254679Y241623D01*
X254800Y241764D01*
X254951Y241923D01*
X255128Y242082D01*
X255325Y242232D01*
X255550Y242363D01*
X255560D01*
X255578Y242373D01*
X255616Y242392D01*
X255653Y242410D01*
X255719Y242438D01*
X255785Y242467D01*
X255860Y242495D01*
X255944Y242523D01*
X256141Y242579D01*
X256356Y242635D01*
X256591Y242673D01*
X256844Y242682D01*
X256900D01*
X256956Y242673D01*
X257041D01*
X257144Y242654D01*
X257265Y242635D01*
X257397Y242607D01*
X257537Y242570D01*
X257687Y242523D01*
X257856Y242467D01*
X258015Y242401D01*
X258184Y242317D01*
X258362Y242213D01*
X258531Y242101D01*
X258690Y241960D01*
X258850Y241810D01*
X258859Y241801D01*
X258887Y241773D01*
X258925Y241717D01*
X258981Y241651D01*
X259046Y241567D01*
X259112Y241464D01*
X259187Y241342D01*
X259271Y241201D01*
X259346Y241051D01*
X259421Y240883D01*
X259487Y240695D01*
X259552Y240498D01*
X259609Y240283D01*
X259646Y240058D01*
X259674Y239823D01*
X259684Y239570D01*
Y239561D01*
Y239533D01*
Y239486D01*
X259674Y239421D01*
Y239336D01*
X259665Y239242D01*
X259655Y239139D01*
X259637Y239017D01*
X259590Y238755D01*
X259515Y238474D01*
X259421Y238183D01*
X259290Y237883D01*
Y237874D01*
X259271Y237846D01*
X259252Y237808D01*
X259215Y237761D01*
X259177Y237696D01*
X259131Y237621D01*
X259009Y237452D01*
X258850Y237255D01*
X258671Y237059D01*
X258456Y236871D01*
X258212Y236702D01*
X258203D01*
X258184Y236684D01*
X258146Y236665D01*
X258090Y236637D01*
X258025Y236609D01*
X257950Y236571D01*
X257865Y236534D01*
X257762Y236496D01*
X257659Y236459D01*
X257537Y236421D01*
X257275Y236356D01*
X256984Y236309D01*
X256825Y236299D01*
X256666Y236290D01*
X256600D01*
X256525Y236299D01*
X256422Y236309D01*
X256300Y236327D01*
X256150Y236346D01*
X255991Y236384D01*
X255813Y236421D01*
X255625Y236478D01*
X255438Y236552D01*
X255232Y236637D01*
X255035Y236749D01*
X254829Y236871D01*
X254632Y237012D01*
X254444Y237180D01*
X254266Y237368D01*
X254257Y237377D01*
X254229Y237424D01*
X254182Y237480D01*
X254126Y237574D01*
X254051Y237696D01*
X253976Y237846D01*
X253891Y238015D01*
X253807Y238221D01*
X253713Y238455D01*
X253629Y238717D01*
X253554Y239008D01*
X253488Y239336D01*
X253423Y239683D01*
X253376Y240077D01*
X253348Y240489D01*
X253338Y240939D01*
Y240948D01*
Y240967D01*
Y241004D01*
Y241061D01*
Y241126D01*
X253348Y241201D01*
Y241295D01*
X253357Y241398D01*
Y241501D01*
X253367Y241623D01*
X253395Y241885D01*
X253423Y242176D01*
X253470Y242485D01*
X253517Y242813D01*
X253591Y243151D01*
X253666Y243488D01*
X253769Y243826D01*
X253882Y244144D01*
X254023Y244454D01*
X254182Y244735D01*
X254360Y244988D01*
X254369Y244997D01*
X254398Y245035D01*
X254454Y245091D01*
X254529Y245156D01*
X254613Y245241D01*
X254725Y245335D01*
X254857Y245438D01*
X254997Y245541D01*
X255166Y245644D01*
X255344Y245747D01*
X255541Y245841D01*
X255756Y245925D01*
X255991Y245991D01*
X256234Y246047D01*
X256497Y246084D01*
X256778Y246094D01*
X256891D01*
X256966Y246084D01*
D02*
G37*
G36*
X258923Y184520D02*
X255071D01*
X254556Y181924D01*
X254565Y181933D01*
X254593Y181952D01*
X254640Y181980D01*
X254706Y182017D01*
X254781Y182064D01*
X254884Y182120D01*
X254987Y182167D01*
X255109Y182233D01*
X255240Y182289D01*
X255381Y182336D01*
X255690Y182439D01*
X255849Y182477D01*
X256018Y182505D01*
X256196Y182523D01*
X256374Y182533D01*
X256430D01*
X256496Y182523D01*
X256590D01*
X256693Y182505D01*
X256824Y182486D01*
X256965Y182458D01*
X257115Y182420D01*
X257274Y182373D01*
X257452Y182317D01*
X257630Y182251D01*
X257808Y182167D01*
X257986Y182064D01*
X258164Y181952D01*
X258333Y181811D01*
X258502Y181661D01*
X258511Y181652D01*
X258539Y181624D01*
X258586Y181567D01*
X258642Y181502D01*
X258708Y181417D01*
X258773Y181314D01*
X258858Y181192D01*
X258942Y181052D01*
X259017Y180902D01*
X259102Y180733D01*
X259167Y180546D01*
X259242Y180349D01*
X259289Y180133D01*
X259336Y179908D01*
X259364Y179665D01*
X259373Y179412D01*
Y179393D01*
Y179355D01*
X259364Y179290D01*
Y179196D01*
X259355Y179084D01*
X259336Y178952D01*
X259308Y178802D01*
X259280Y178643D01*
X259233Y178474D01*
X259186Y178287D01*
X259120Y178099D01*
X259045Y177912D01*
X258961Y177725D01*
X258858Y177528D01*
X258736Y177340D01*
X258605Y177162D01*
X258595Y177153D01*
X258558Y177115D01*
X258511Y177059D01*
X258436Y176984D01*
X258342Y176890D01*
X258230Y176797D01*
X258099Y176694D01*
X257949Y176581D01*
X257771Y176469D01*
X257583Y176366D01*
X257377Y176272D01*
X257152Y176178D01*
X256908Y176103D01*
X256655Y176047D01*
X256374Y176009D01*
X256084Y176000D01*
X256027D01*
X255962Y176009D01*
X255868D01*
X255756Y176019D01*
X255624Y176038D01*
X255484Y176066D01*
X255324Y176094D01*
X255156Y176131D01*
X254987Y176178D01*
X254809Y176234D01*
X254622Y176309D01*
X254443Y176394D01*
X254265Y176487D01*
X254097Y176600D01*
X253937Y176731D01*
X253928Y176740D01*
X253900Y176769D01*
X253862Y176806D01*
X253806Y176862D01*
X253740Y176937D01*
X253675Y177031D01*
X253591Y177134D01*
X253515Y177247D01*
X253431Y177378D01*
X253347Y177528D01*
X253272Y177687D01*
X253197Y177865D01*
X253131Y178053D01*
X253075Y178249D01*
X253028Y178456D01*
X253000Y178681D01*
X254237Y178784D01*
Y178774D01*
X254247Y178746D01*
X254256Y178699D01*
X254265Y178634D01*
X254284Y178559D01*
X254303Y178474D01*
X254368Y178268D01*
X254453Y178053D01*
X254556Y177828D01*
X254696Y177603D01*
X254781Y177509D01*
X254865Y177415D01*
X254874Y177406D01*
X254893Y177397D01*
X254921Y177378D01*
X254959Y177350D01*
X255006Y177312D01*
X255062Y177275D01*
X255212Y177190D01*
X255390Y177106D01*
X255596Y177040D01*
X255830Y176984D01*
X255952Y176975D01*
X256084Y176965D01*
X256168D01*
X256224Y176975D01*
X256299Y176984D01*
X256383Y177003D01*
X256477Y177022D01*
X256580Y177050D01*
X256815Y177125D01*
X256927Y177172D01*
X257049Y177237D01*
X257171Y177312D01*
X257293Y177397D01*
X257414Y177490D01*
X257527Y177603D01*
X257536Y177612D01*
X257555Y177631D01*
X257583Y177668D01*
X257621Y177725D01*
X257668Y177781D01*
X257714Y177865D01*
X257771Y177959D01*
X257827Y178062D01*
X257874Y178174D01*
X257930Y178306D01*
X257977Y178446D01*
X258024Y178596D01*
X258061Y178755D01*
X258089Y178934D01*
X258108Y179112D01*
X258117Y179308D01*
Y179318D01*
Y179355D01*
Y179402D01*
X258108Y179477D01*
X258099Y179562D01*
X258089Y179655D01*
X258071Y179768D01*
X258043Y179890D01*
X257977Y180143D01*
X257930Y180274D01*
X257874Y180405D01*
X257808Y180536D01*
X257733Y180668D01*
X257649Y180789D01*
X257546Y180902D01*
X257536Y180911D01*
X257518Y180930D01*
X257489Y180958D01*
X257443Y180996D01*
X257386Y181042D01*
X257321Y181089D01*
X257236Y181146D01*
X257152Y181202D01*
X257049Y181249D01*
X256936Y181305D01*
X256815Y181352D01*
X256683Y181399D01*
X256534Y181436D01*
X256383Y181464D01*
X256224Y181483D01*
X256056Y181492D01*
X255962D01*
X255905Y181483D01*
X255849D01*
X255709Y181464D01*
X255549Y181427D01*
X255381Y181380D01*
X255203Y181314D01*
X255025Y181230D01*
X255015D01*
X255006Y181220D01*
X254949Y181183D01*
X254865Y181127D01*
X254771Y181052D01*
X254650Y180949D01*
X254537Y180836D01*
X254415Y180705D01*
X254312Y180564D01*
X253206Y180705D01*
X254134Y185644D01*
X258923D01*
Y184520D01*
D02*
G37*
G36*
X277622Y156499D02*
X279184Y156187D01*
X282934Y155249D01*
X284809Y153999D01*
X286684Y152749D01*
X286997Y152437D01*
X287622Y152124D01*
X288247Y151187D01*
X289184Y150249D01*
X291059Y146812D01*
X291997Y144937D01*
X292309Y142750D01*
Y140562D01*
Y140250D01*
X291997Y139937D01*
X291684Y139625D01*
X290747Y139312D01*
X286059D01*
X285747Y139625D01*
X285122Y139937D01*
X284809Y140562D01*
Y141500D01*
Y141812D01*
Y142125D01*
X284497Y143687D01*
X283559Y145875D01*
X281997Y147750D01*
X281684Y148062D01*
X280434Y148999D01*
X278559Y149624D01*
X276059Y149937D01*
X275122D01*
X273247Y149624D01*
X271060Y148999D01*
X268872Y147750D01*
X268560Y147437D01*
X267622Y146187D01*
X266685Y144312D01*
X266060Y142125D01*
Y141500D01*
X265747Y140250D01*
Y138062D01*
Y135250D01*
X265435Y131812D01*
Y127750D01*
X266060Y119625D01*
Y119000D01*
X266685Y117437D01*
X267310Y115562D01*
X268872Y113687D01*
X269497Y113375D01*
X270747Y112750D01*
X272935Y111812D01*
X275435Y111500D01*
X276059D01*
X277622Y111812D01*
X279809Y112437D01*
X281684Y113687D01*
X281997Y114000D01*
X283247Y115250D01*
X284184Y117125D01*
X284809Y119625D01*
Y121187D01*
Y121500D01*
X285122Y122125D01*
X285434Y122437D01*
X286372Y122750D01*
X291059D01*
X291684Y122437D01*
X291997Y122125D01*
X292309Y121187D01*
Y119312D01*
Y119000D01*
X291997Y118375D01*
Y117125D01*
X291372Y115562D01*
X289809Y111812D01*
X288559Y110250D01*
X286997Y108375D01*
X286684Y108062D01*
X286372Y107750D01*
X285122Y107125D01*
X283872Y106187D01*
X282309Y105250D01*
X280434Y104625D01*
X278247Y104312D01*
X275747Y104000D01*
X274497D01*
X273247Y104312D01*
X271685Y104625D01*
X267935Y105875D01*
X265747Y106812D01*
X263872Y108375D01*
X263560Y108687D01*
X263247Y109312D01*
X262310Y110250D01*
X261372Y111500D01*
X259810Y114937D01*
X258872Y116812D01*
X258560Y119312D01*
Y119937D01*
Y121187D01*
Y123375D01*
Y126187D01*
Y129625D01*
Y133375D01*
Y141500D01*
Y141812D01*
X258872Y142750D01*
Y143687D01*
X259497Y145250D01*
X261060Y148999D01*
X262310Y150874D01*
X263872Y152437D01*
X264185Y152749D01*
X264810Y153062D01*
X265747Y153687D01*
X267310Y154624D01*
X270747Y156187D01*
X272935Y156499D01*
X275435Y156812D01*
X276684D01*
X277622Y156499D01*
D02*
G37*
G36*
X92624Y155562D02*
X92937Y154937D01*
Y105875D01*
Y105562D01*
Y105250D01*
X92312Y104937D01*
X91687Y104625D01*
X84499D01*
X84187Y104937D01*
X83874Y105562D01*
X69187Y142125D01*
X68875Y142437D01*
X68562D01*
X68250Y142125D01*
Y105562D01*
Y105250D01*
X67937Y104937D01*
X67625Y104312D01*
X66687Y104000D01*
X62937D01*
X62625Y104312D01*
X62000Y104625D01*
X61687Y105562D01*
Y154312D01*
Y154624D01*
X62000Y155249D01*
X62312Y155562D01*
X63250Y155874D01*
X70125D01*
X70437Y155562D01*
X70750Y154937D01*
X85124Y118062D01*
X85749Y117750D01*
X86062D01*
X86687Y118062D01*
Y154937D01*
Y155249D01*
X86999Y155562D01*
X87312Y155874D01*
X88249Y156187D01*
X92312D01*
X92624Y155562D01*
D02*
G37*
G36*
X329809Y156499D02*
X331371Y156187D01*
X335121Y155249D01*
X336684Y153999D01*
X338559Y152749D01*
X338871Y152437D01*
X339184Y152124D01*
X340121Y151187D01*
X341059Y150249D01*
X342934Y146812D01*
X344184Y142750D01*
Y142437D01*
Y141812D01*
Y140875D01*
X343871Y139625D01*
X343246Y136812D01*
X341684Y133687D01*
X341371Y133062D01*
X340121Y131500D01*
X337934Y129625D01*
X335121Y128062D01*
X334809Y127750D01*
X334184Y127125D01*
X333871Y126500D01*
Y125875D01*
X334184Y125562D01*
X342934Y107125D01*
Y106812D01*
Y106500D01*
Y105562D01*
X341996Y104937D01*
X336996D01*
X336371Y105250D01*
X335434Y105562D01*
X335121Y106500D01*
X326371Y124937D01*
Y125250D01*
X325746Y125562D01*
X325121Y125875D01*
X321059Y125562D01*
X320746Y125250D01*
X320434Y124937D01*
X320121D01*
Y106500D01*
Y106187D01*
X319809Y105875D01*
X319496Y105250D01*
X318559Y104937D01*
X313872D01*
X313559Y105250D01*
X313247Y105562D01*
X312934Y106500D01*
Y155249D01*
Y155562D01*
X313247Y156187D01*
X313559Y156499D01*
X314184Y156812D01*
X328559D01*
X329809Y156499D01*
D02*
G37*
G36*
X226060D02*
X227623Y156187D01*
X231060Y155249D01*
X232935Y153999D01*
X234810Y152749D01*
X235123Y152437D01*
X235435Y152124D01*
X236373Y151187D01*
X237310Y150249D01*
X239185Y146812D01*
X239810Y144937D01*
X240123Y142750D01*
Y142437D01*
Y141812D01*
Y140875D01*
Y139625D01*
X239498Y136812D01*
X237935Y133687D01*
X237623Y133062D01*
X236373Y131500D01*
X234185Y129625D01*
X231373Y128062D01*
X231060Y127750D01*
X230435Y127125D01*
X229810Y126500D01*
Y125875D01*
X230123Y125562D01*
X239185Y107125D01*
Y106812D01*
X239498Y106500D01*
X239185Y105562D01*
X238560Y104937D01*
X233248D01*
X232935Y105250D01*
X232310Y105562D01*
X231685Y106500D01*
X223560Y124937D01*
X223248Y125250D01*
X221998Y125875D01*
X216998Y125562D01*
X216685Y125250D01*
X216373Y124937D01*
X216060D01*
Y106500D01*
Y106187D01*
X215748Y105875D01*
X215435Y105250D01*
X214498Y104937D01*
X210435D01*
X210123Y105250D01*
X209498Y105562D01*
X209185Y106500D01*
Y155249D01*
Y155562D01*
X209498Y156187D01*
X209810Y156499D01*
X210748Y156812D01*
X224810D01*
X226060Y156499D01*
D02*
G37*
G36*
X530744Y155562D02*
X531056Y154937D01*
Y150874D01*
Y150562D01*
X530744Y149937D01*
X530432Y149312D01*
X529494Y148999D01*
X512307D01*
X511994Y148687D01*
Y148375D01*
Y135250D01*
X512307D01*
X512619Y134937D01*
X529494D01*
X529807Y134625D01*
X530119Y134312D01*
X530432Y133375D01*
Y129312D01*
Y129000D01*
Y128687D01*
X529807Y128375D01*
X529182Y128062D01*
X512619D01*
X512307Y127750D01*
X511994Y127437D01*
X511369Y112437D01*
Y112125D01*
X511682Y111812D01*
X511994Y111500D01*
X512307Y111812D01*
X530432D01*
X531056Y111500D01*
X531681Y111187D01*
X531994Y110250D01*
Y105875D01*
Y105562D01*
X531681Y105250D01*
X531369Y104937D01*
X530119Y104625D01*
X505744D01*
X505119Y104937D01*
X504494Y105250D01*
X504182Y105875D01*
Y154937D01*
Y155249D01*
X504494Y155562D01*
X505119Y155874D01*
X506057Y156187D01*
X530432D01*
X530744Y155562D01*
D02*
G37*
G36*
X486370D02*
X486682Y154937D01*
Y150874D01*
Y150562D01*
X486370Y149937D01*
X486057Y149312D01*
X485120Y148999D01*
X474495D01*
X474182Y148687D01*
X473870Y148375D01*
Y147750D01*
Y146812D01*
Y144937D01*
Y142437D01*
Y138687D01*
Y136187D01*
Y133687D01*
Y130875D01*
Y127437D01*
Y105875D01*
Y105562D01*
X473557Y105250D01*
X473245Y104937D01*
X472307Y104625D01*
X468245D01*
X467932Y104937D01*
X467307Y105250D01*
X466995Y105875D01*
Y148375D01*
Y148687D01*
X466682Y148999D01*
X456370D01*
X456057Y149312D01*
X455745Y149937D01*
X455432Y150874D01*
Y154937D01*
Y155249D01*
X455745Y155562D01*
X456057Y155874D01*
X456682Y156187D01*
X486057D01*
X486370Y155562D01*
D02*
G37*
G36*
X428870Y155874D02*
X429495Y155249D01*
X443245Y105875D01*
X442933Y105250D01*
X442620Y104937D01*
X441683Y104625D01*
X437308D01*
X436370Y104937D01*
X435745Y105562D01*
X432308Y116812D01*
Y117125D01*
X431995Y117437D01*
X431683Y117750D01*
X418558D01*
X417933Y117437D01*
X417308Y116812D01*
X414495Y105562D01*
X414183Y105250D01*
X413870Y104937D01*
X412933Y104625D01*
X408245D01*
X407933Y104937D01*
X407308Y105250D01*
X406996Y105875D01*
X421058Y155249D01*
Y155562D01*
X421370Y155874D01*
X421683Y156187D01*
X428558D01*
X428870Y155874D01*
D02*
G37*
G36*
X389496Y155562D02*
X389808Y154937D01*
Y150874D01*
Y150562D01*
Y149937D01*
X389183Y149312D01*
X388558Y148999D01*
X370746D01*
X369808Y148375D01*
Y135250D01*
X370121Y134937D01*
X387308D01*
X387933Y134625D01*
X388246Y134312D01*
X388558Y133375D01*
Y129312D01*
Y129000D01*
X388246Y128687D01*
X387933Y128375D01*
X386996Y128062D01*
X370433D01*
X370121Y127750D01*
X369808Y127437D01*
Y112437D01*
X370746D01*
Y112125D01*
Y111812D01*
X371058Y111500D01*
X371371Y111812D01*
X389183D01*
X389808Y111500D01*
X390121Y111187D01*
X390433Y110250D01*
Y105875D01*
Y105562D01*
X390121Y105250D01*
X389808Y104937D01*
X388871Y104625D01*
X364184D01*
X363871Y104937D01*
X363246Y105250D01*
X362934Y105875D01*
Y154937D01*
Y155249D01*
X363246Y155562D01*
X363559Y155874D01*
X364496Y156187D01*
X389183D01*
X389496Y155562D01*
D02*
G37*
G36*
X187936D02*
X188248Y154937D01*
Y150874D01*
Y150562D01*
X187936Y149937D01*
X187623Y149312D01*
X186686Y148999D01*
X169186D01*
X168248Y148375D01*
Y135250D01*
X168561Y134937D01*
X185748D01*
X186061Y134625D01*
X186373Y134312D01*
X186686Y133375D01*
Y129312D01*
Y129000D01*
Y128687D01*
X186061Y128375D01*
X185436Y128062D01*
X168873D01*
X167623Y127437D01*
Y112437D01*
X168873D01*
Y112125D01*
Y111812D01*
Y111500D01*
X169186Y111812D01*
X186998D01*
X187623Y111500D01*
X187936Y111187D01*
X188248Y110250D01*
Y105875D01*
Y105562D01*
X187936Y105250D01*
X187623Y104937D01*
X186686Y104625D01*
X162623D01*
X162311Y104937D01*
X161686Y105250D01*
X161373Y105875D01*
Y154937D01*
Y155249D01*
X161686Y155562D01*
X161998Y155874D01*
X162936Y156187D01*
X187623D01*
X187936Y155562D01*
D02*
G37*
G36*
X142624D02*
X142936Y154937D01*
Y150874D01*
Y150562D01*
X142624Y149937D01*
X142311Y149312D01*
X141374Y148999D01*
X130436D01*
Y148687D01*
X130749D01*
Y148375D01*
Y147750D01*
Y146812D01*
Y144937D01*
Y142437D01*
Y138687D01*
Y136187D01*
Y133687D01*
Y130875D01*
Y127437D01*
Y105875D01*
Y105562D01*
X130436Y105250D01*
X130124Y104937D01*
X129186Y104625D01*
X124499D01*
X124186Y104937D01*
X123561Y105250D01*
X123249Y105875D01*
Y148375D01*
Y148687D01*
Y148999D01*
X113249D01*
X112624Y149312D01*
X111999Y149937D01*
X111686Y150874D01*
Y154937D01*
Y155249D01*
X111999Y155562D01*
X112624Y155874D01*
X113561Y156187D01*
X142311D01*
X142624Y155562D01*
D02*
G37*
G36*
X38562D02*
X38875Y154937D01*
Y105875D01*
Y105562D01*
X38562Y105250D01*
X38250Y104937D01*
X37312Y104625D01*
X33250D01*
X32625Y104937D01*
X32000Y105250D01*
Y105875D01*
Y154937D01*
Y155249D01*
Y155562D01*
X32625Y155874D01*
X33563Y156187D01*
X38250D01*
X38562Y155562D01*
D02*
G37*
G36*
X304869Y57635D02*
X304972D01*
X305085Y57626D01*
X305216Y57607D01*
X305366Y57579D01*
X305535Y57551D01*
X305704Y57504D01*
X305882Y57457D01*
X306069Y57391D01*
X306247Y57316D01*
X306435Y57232D01*
X306603Y57129D01*
X306772Y57007D01*
X306931Y56876D01*
X306941Y56866D01*
X306969Y56838D01*
X307006Y56801D01*
X307053Y56735D01*
X307119Y56660D01*
X307184Y56576D01*
X307259Y56473D01*
X307334Y56351D01*
X307409Y56220D01*
X307484Y56070D01*
X307550Y55920D01*
X307616Y55751D01*
X307662Y55573D01*
X307700Y55376D01*
X307728Y55179D01*
X307737Y54973D01*
Y54964D01*
Y54945D01*
Y54917D01*
Y54879D01*
X307728Y54823D01*
Y54767D01*
X307709Y54617D01*
X307681Y54448D01*
X307634Y54251D01*
X307578Y54045D01*
X307494Y53839D01*
Y53830D01*
X307484Y53811D01*
X307466Y53783D01*
X307447Y53745D01*
X307419Y53689D01*
X307391Y53633D01*
X307306Y53483D01*
X307203Y53314D01*
X307062Y53108D01*
X306903Y52892D01*
X306706Y52668D01*
X306697Y52658D01*
X306678Y52639D01*
X306650Y52602D01*
X306603Y52555D01*
X306538Y52490D01*
X306472Y52414D01*
X306378Y52330D01*
X306275Y52227D01*
X306163Y52115D01*
X306022Y51983D01*
X305882Y51843D01*
X305713Y51693D01*
X305535Y51533D01*
X305338Y51355D01*
X305122Y51177D01*
X304897Y50981D01*
X304888Y50971D01*
X304851Y50943D01*
X304794Y50896D01*
X304729Y50840D01*
X304644Y50765D01*
X304551Y50681D01*
X304326Y50493D01*
X304101Y50296D01*
X303876Y50100D01*
X303773Y50006D01*
X303679Y49912D01*
X303595Y49837D01*
X303529Y49771D01*
X303520Y49762D01*
X303482Y49715D01*
X303426Y49650D01*
X303351Y49575D01*
X303276Y49472D01*
X303192Y49368D01*
X303107Y49256D01*
X303032Y49134D01*
X307747D01*
Y48000D01*
X301402D01*
Y48009D01*
Y48019D01*
Y48075D01*
Y48150D01*
X301411Y48262D01*
X301430Y48384D01*
X301448Y48525D01*
X301486Y48665D01*
X301533Y48815D01*
Y48825D01*
X301542Y48843D01*
X301561Y48881D01*
X301580Y48928D01*
X301608Y48984D01*
X301636Y49050D01*
X301720Y49218D01*
X301833Y49415D01*
X301964Y49631D01*
X302123Y49856D01*
X302311Y50090D01*
X302320Y50100D01*
X302339Y50118D01*
X302367Y50156D01*
X302414Y50203D01*
X302470Y50259D01*
X302536Y50334D01*
X302610Y50418D01*
X302704Y50512D01*
X302807Y50606D01*
X302920Y50718D01*
X303051Y50840D01*
X303182Y50971D01*
X303332Y51102D01*
X303492Y51243D01*
X303670Y51393D01*
X303848Y51543D01*
X303867Y51562D01*
X303913Y51599D01*
X303998Y51665D01*
X304101Y51758D01*
X304232Y51862D01*
X304373Y51993D01*
X304532Y52133D01*
X304701Y52283D01*
X305057Y52611D01*
X305404Y52949D01*
X305563Y53117D01*
X305713Y53286D01*
X305854Y53436D01*
X305966Y53586D01*
X305975Y53595D01*
X305994Y53624D01*
X306022Y53661D01*
X306050Y53717D01*
X306097Y53783D01*
X306144Y53858D01*
X306191Y53952D01*
X306247Y54045D01*
X306350Y54261D01*
X306444Y54495D01*
X306472Y54626D01*
X306500Y54748D01*
X306519Y54879D01*
X306528Y55001D01*
Y55011D01*
Y55030D01*
Y55067D01*
X306519Y55123D01*
X306509Y55179D01*
X306500Y55245D01*
X306463Y55414D01*
X306406Y55601D01*
X306313Y55798D01*
X306257Y55892D01*
X306191Y55995D01*
X306116Y56089D01*
X306022Y56182D01*
X306013Y56192D01*
X306003Y56201D01*
X305966Y56229D01*
X305928Y56257D01*
X305882Y56295D01*
X305816Y56332D01*
X305750Y56379D01*
X305666Y56426D01*
X305582Y56473D01*
X305479Y56520D01*
X305254Y56595D01*
X305001Y56651D01*
X304860Y56660D01*
X304710Y56670D01*
X304626D01*
X304569Y56660D01*
X304494Y56651D01*
X304410Y56642D01*
X304316Y56623D01*
X304223Y56604D01*
X303998Y56548D01*
X303773Y56454D01*
X303660Y56398D01*
X303548Y56323D01*
X303445Y56248D01*
X303342Y56154D01*
X303332Y56145D01*
X303323Y56135D01*
X303295Y56098D01*
X303267Y56060D01*
X303229Y56014D01*
X303182Y55948D01*
X303135Y55873D01*
X303088Y55789D01*
X303042Y55695D01*
X302995Y55592D01*
X302957Y55470D01*
X302910Y55348D01*
X302882Y55217D01*
X302854Y55067D01*
X302845Y54917D01*
X302836Y54748D01*
X301626Y54870D01*
Y54889D01*
X301636Y54926D01*
X301645Y55001D01*
X301654Y55095D01*
X301683Y55208D01*
X301711Y55339D01*
X301748Y55479D01*
X301786Y55639D01*
X301842Y55798D01*
X301908Y55967D01*
X301983Y56135D01*
X302067Y56314D01*
X302170Y56482D01*
X302283Y56642D01*
X302414Y56792D01*
X302554Y56932D01*
X302564Y56941D01*
X302592Y56960D01*
X302639Y56998D01*
X302704Y57045D01*
X302789Y57101D01*
X302882Y57157D01*
X303004Y57223D01*
X303135Y57288D01*
X303285Y57354D01*
X303445Y57420D01*
X303623Y57476D01*
X303820Y57532D01*
X304026Y57579D01*
X304251Y57616D01*
X304485Y57635D01*
X304738Y57644D01*
X304804D01*
X304869Y57635D01*
D02*
G37*
G36*
X298533Y48000D02*
X297353D01*
Y55507D01*
X297343D01*
X297334Y55489D01*
X297306Y55470D01*
X297278Y55442D01*
X297184Y55357D01*
X297053Y55254D01*
X296893Y55133D01*
X296696Y54992D01*
X296472Y54842D01*
X296228Y54692D01*
X296218D01*
X296200Y54673D01*
X296162Y54655D01*
X296115Y54626D01*
X296050Y54589D01*
X295984Y54552D01*
X295815Y54467D01*
X295628Y54373D01*
X295422Y54270D01*
X295206Y54177D01*
X295000Y54092D01*
Y55226D01*
X295009Y55236D01*
X295047Y55245D01*
X295094Y55273D01*
X295169Y55311D01*
X295253Y55357D01*
X295347Y55414D01*
X295459Y55470D01*
X295581Y55545D01*
X295853Y55704D01*
X296143Y55901D01*
X296434Y56117D01*
X296725Y56351D01*
X296734Y56360D01*
X296753Y56379D01*
X296800Y56417D01*
X296846Y56463D01*
X296903Y56529D01*
X296978Y56595D01*
X297053Y56679D01*
X297137Y56763D01*
X297306Y56960D01*
X297474Y57176D01*
X297634Y57410D01*
X297709Y57523D01*
X297765Y57644D01*
X298533D01*
Y48000D01*
D02*
G37*
G36*
X232320Y239664D02*
X233613D01*
Y238586D01*
X232320D01*
Y236290D01*
X231139D01*
Y238586D01*
X226968D01*
Y239664D01*
X231354Y245897D01*
X232320D01*
Y239664D01*
D02*
G37*
G36*
X231140Y185794D02*
X231215D01*
X231290Y185785D01*
X231383Y185776D01*
X231487Y185766D01*
X231712Y185719D01*
X231946Y185663D01*
X232199Y185579D01*
X232452Y185466D01*
X232461D01*
X232480Y185448D01*
X232518Y185429D01*
X232565Y185401D01*
X232621Y185373D01*
X232677Y185326D01*
X232827Y185223D01*
X232996Y185091D01*
X233164Y184932D01*
X233324Y184745D01*
X233464Y184538D01*
Y184529D01*
X233483Y184510D01*
X233502Y184482D01*
X233521Y184435D01*
X233549Y184389D01*
X233577Y184323D01*
X233642Y184163D01*
X233708Y183986D01*
X233764Y183770D01*
X233802Y183545D01*
X233820Y183301D01*
Y183292D01*
Y183273D01*
Y183245D01*
X233811Y183198D01*
Y183142D01*
X233802Y183076D01*
X233783Y182926D01*
X233736Y182748D01*
X233680Y182561D01*
X233595Y182364D01*
X233483Y182167D01*
Y182158D01*
X233464Y182148D01*
X233445Y182120D01*
X233417Y182083D01*
X233342Y181989D01*
X233230Y181877D01*
X233089Y181745D01*
X232921Y181614D01*
X232724Y181483D01*
X232489Y181361D01*
X232499D01*
X232527Y181352D01*
X232574Y181342D01*
X232630Y181324D01*
X232705Y181296D01*
X232780Y181267D01*
X232977Y181183D01*
X233183Y181080D01*
X233408Y180930D01*
X233624Y180761D01*
X233717Y180658D01*
X233811Y180546D01*
X233820Y180536D01*
X233830Y180518D01*
X233858Y180480D01*
X233886Y180433D01*
X233923Y180377D01*
X233961Y180302D01*
X234008Y180218D01*
X234055Y180124D01*
X234092Y180012D01*
X234139Y179899D01*
X234177Y179768D01*
X234214Y179637D01*
X234270Y179337D01*
X234280Y179168D01*
X234289Y178999D01*
Y178990D01*
Y178943D01*
X234280Y178877D01*
Y178793D01*
X234261Y178681D01*
X234242Y178559D01*
X234214Y178418D01*
X234177Y178259D01*
X234130Y178099D01*
X234064Y177931D01*
X233989Y177753D01*
X233905Y177575D01*
X233792Y177397D01*
X233670Y177209D01*
X233530Y177040D01*
X233370Y176872D01*
X233361Y176862D01*
X233333Y176834D01*
X233277Y176787D01*
X233202Y176740D01*
X233117Y176665D01*
X233005Y176600D01*
X232883Y176516D01*
X232733Y176441D01*
X232574Y176356D01*
X232396Y176272D01*
X232208Y176206D01*
X232002Y176141D01*
X231786Y176084D01*
X231552Y176038D01*
X231308Y176009D01*
X231046Y176000D01*
X230990D01*
X230924Y176009D01*
X230840D01*
X230727Y176019D01*
X230606Y176038D01*
X230465Y176066D01*
X230306Y176094D01*
X230146Y176131D01*
X229978Y176187D01*
X229799Y176244D01*
X229631Y176319D01*
X229453Y176403D01*
X229275Y176506D01*
X229106Y176619D01*
X228947Y176750D01*
X228937Y176759D01*
X228909Y176787D01*
X228872Y176825D01*
X228815Y176890D01*
X228750Y176965D01*
X228675Y177050D01*
X228600Y177153D01*
X228515Y177275D01*
X228431Y177406D01*
X228347Y177556D01*
X228272Y177715D01*
X228197Y177893D01*
X228131Y178081D01*
X228075Y178277D01*
X228028Y178484D01*
X228000Y178709D01*
X229181Y178868D01*
Y178859D01*
X229190Y178821D01*
X229200Y178774D01*
X229218Y178699D01*
X229237Y178624D01*
X229265Y178521D01*
X229303Y178418D01*
X229340Y178306D01*
X229434Y178071D01*
X229556Y177828D01*
X229696Y177603D01*
X229781Y177509D01*
X229865Y177415D01*
X229874D01*
X229884Y177397D01*
X229912Y177378D01*
X229949Y177350D01*
X229996Y177312D01*
X230053Y177275D01*
X230193Y177200D01*
X230371Y177115D01*
X230578Y177040D01*
X230802Y176994D01*
X230924Y176984D01*
X231056Y176975D01*
X231140D01*
X231196Y176984D01*
X231271Y176994D01*
X231346Y177003D01*
X231440Y177022D01*
X231543Y177050D01*
X231768Y177115D01*
X231880Y177162D01*
X232002Y177218D01*
X232124Y177284D01*
X232236Y177359D01*
X232349Y177443D01*
X232461Y177547D01*
X232471Y177556D01*
X232489Y177575D01*
X232518Y177603D01*
X232555Y177650D01*
X232593Y177706D01*
X232639Y177771D01*
X232696Y177846D01*
X232752Y177940D01*
X232799Y178034D01*
X232855Y178146D01*
X232949Y178390D01*
X232977Y178521D01*
X233005Y178662D01*
X233024Y178812D01*
X233033Y178971D01*
Y178981D01*
Y179009D01*
Y179046D01*
X233024Y179112D01*
X233014Y179177D01*
X233005Y179262D01*
X232986Y179346D01*
X232967Y179449D01*
X232902Y179655D01*
X232864Y179768D01*
X232808Y179880D01*
X232743Y179993D01*
X232677Y180105D01*
X232593Y180208D01*
X232499Y180311D01*
X232489Y180321D01*
X232471Y180330D01*
X232443Y180358D01*
X232405Y180396D01*
X232349Y180433D01*
X232283Y180480D01*
X232218Y180527D01*
X232133Y180574D01*
X232040Y180621D01*
X231936Y180668D01*
X231702Y180752D01*
X231440Y180818D01*
X231299Y180827D01*
X231149Y180836D01*
X231093D01*
X231018Y180827D01*
X230924Y180818D01*
X230802Y180808D01*
X230662Y180789D01*
X230502Y180752D01*
X230324Y180714D01*
X230456Y181745D01*
X230474D01*
X230521Y181736D01*
X230587Y181727D01*
X230718D01*
X230774Y181736D01*
X230840D01*
X230915Y181745D01*
X230999Y181764D01*
X231093Y181773D01*
X231308Y181820D01*
X231534Y181895D01*
X231768Y181989D01*
X232002Y182120D01*
X232012Y182130D01*
X232030Y182139D01*
X232058Y182158D01*
X232096Y182195D01*
X232143Y182233D01*
X232199Y182289D01*
X232246Y182345D01*
X232311Y182420D01*
X232368Y182495D01*
X232414Y182589D01*
X232471Y182692D01*
X232518Y182795D01*
X232555Y182917D01*
X232583Y183048D01*
X232602Y183179D01*
X232611Y183329D01*
Y183339D01*
Y183358D01*
Y183395D01*
X232602Y183442D01*
Y183498D01*
X232593Y183564D01*
X232555Y183714D01*
X232508Y183882D01*
X232424Y184060D01*
X232321Y184238D01*
X232246Y184323D01*
X232171Y184407D01*
X232161Y184417D01*
X232152Y184426D01*
X232124Y184445D01*
X232096Y184473D01*
X231993Y184548D01*
X231861Y184623D01*
X231702Y184698D01*
X231505Y184773D01*
X231280Y184820D01*
X231168Y184838D01*
X230971D01*
X230924Y184829D01*
X230859D01*
X230793Y184820D01*
X230634Y184782D01*
X230446Y184735D01*
X230259Y184651D01*
X230062Y184548D01*
X229968Y184473D01*
X229884Y184398D01*
X229874Y184389D01*
X229865Y184379D01*
X229837Y184351D01*
X229809Y184314D01*
X229771Y184276D01*
X229734Y184220D01*
X229687Y184154D01*
X229640Y184079D01*
X229593Y183986D01*
X229537Y183892D01*
X229490Y183789D01*
X229443Y183667D01*
X229406Y183545D01*
X229359Y183404D01*
X229331Y183264D01*
X229303Y183104D01*
X228122Y183311D01*
Y183320D01*
X228131Y183367D01*
X228150Y183423D01*
X228169Y183507D01*
X228197Y183601D01*
X228234Y183723D01*
X228272Y183845D01*
X228328Y183986D01*
X228384Y184126D01*
X228459Y184276D01*
X228534Y184435D01*
X228628Y184585D01*
X228722Y184735D01*
X228834Y184885D01*
X228965Y185016D01*
X229097Y185148D01*
X229106Y185157D01*
X229134Y185176D01*
X229172Y185204D01*
X229237Y185251D01*
X229312Y185298D01*
X229396Y185354D01*
X229509Y185420D01*
X229622Y185476D01*
X229753Y185541D01*
X229903Y185597D01*
X230062Y185654D01*
X230231Y185701D01*
X230409Y185748D01*
X230596Y185776D01*
X230802Y185794D01*
X231009Y185804D01*
X231084D01*
X231140Y185794D01*
D02*
G37*
G36*
X205651Y245925D02*
X205755D01*
X205867Y245916D01*
X205998Y245897D01*
X206148Y245869D01*
X206317Y245841D01*
X206486Y245794D01*
X206664Y245747D01*
X206851Y245681D01*
X207029Y245606D01*
X207217Y245522D01*
X207385Y245419D01*
X207554Y245297D01*
X207714Y245166D01*
X207723Y245156D01*
X207751Y245128D01*
X207789Y245091D01*
X207835Y245025D01*
X207901Y244950D01*
X207966Y244866D01*
X208041Y244763D01*
X208116Y244641D01*
X208192Y244510D01*
X208267Y244360D01*
X208332Y244210D01*
X208398Y244041D01*
X208444Y243863D01*
X208482Y243666D01*
X208510Y243469D01*
X208519Y243263D01*
Y243254D01*
Y243235D01*
Y243207D01*
Y243169D01*
X208510Y243113D01*
Y243057D01*
X208491Y242907D01*
X208463Y242738D01*
X208416Y242542D01*
X208360Y242335D01*
X208276Y242129D01*
Y242120D01*
X208267Y242101D01*
X208248Y242073D01*
X208229Y242035D01*
X208201Y241979D01*
X208173Y241923D01*
X208088Y241773D01*
X207985Y241604D01*
X207845Y241398D01*
X207685Y241182D01*
X207488Y240958D01*
X207479Y240948D01*
X207460Y240929D01*
X207432Y240892D01*
X207385Y240845D01*
X207320Y240779D01*
X207254Y240704D01*
X207160Y240620D01*
X207057Y240517D01*
X206945Y240405D01*
X206804Y240273D01*
X206664Y240133D01*
X206495Y239983D01*
X206317Y239823D01*
X206120Y239645D01*
X205905Y239467D01*
X205680Y239270D01*
X205670Y239261D01*
X205633Y239233D01*
X205576Y239186D01*
X205511Y239130D01*
X205427Y239055D01*
X205333Y238971D01*
X205108Y238783D01*
X204883Y238586D01*
X204658Y238389D01*
X204555Y238296D01*
X204461Y238202D01*
X204377Y238127D01*
X204311Y238061D01*
X204302Y238052D01*
X204264Y238005D01*
X204208Y237940D01*
X204133Y237865D01*
X204058Y237761D01*
X203974Y237658D01*
X203890Y237546D01*
X203815Y237424D01*
X208529D01*
Y236290D01*
X202184D01*
Y236299D01*
Y236309D01*
Y236365D01*
Y236440D01*
X202193Y236552D01*
X202212Y236674D01*
X202230Y236815D01*
X202268Y236956D01*
X202315Y237105D01*
Y237115D01*
X202324Y237134D01*
X202343Y237171D01*
X202362Y237218D01*
X202390Y237274D01*
X202418Y237340D01*
X202502Y237508D01*
X202615Y237705D01*
X202746Y237921D01*
X202905Y238146D01*
X203093Y238380D01*
X203102Y238389D01*
X203121Y238408D01*
X203149Y238446D01*
X203196Y238493D01*
X203252Y238549D01*
X203318Y238624D01*
X203393Y238708D01*
X203486Y238802D01*
X203589Y238896D01*
X203702Y239008D01*
X203833Y239130D01*
X203964Y239261D01*
X204114Y239392D01*
X204274Y239533D01*
X204452Y239683D01*
X204630Y239833D01*
X204649Y239852D01*
X204695Y239889D01*
X204780Y239955D01*
X204883Y240048D01*
X205014Y240152D01*
X205155Y240283D01*
X205314Y240423D01*
X205483Y240573D01*
X205839Y240901D01*
X206186Y241239D01*
X206345Y241407D01*
X206495Y241576D01*
X206636Y241726D01*
X206748Y241876D01*
X206758Y241885D01*
X206776Y241914D01*
X206804Y241951D01*
X206833Y242007D01*
X206879Y242073D01*
X206926Y242148D01*
X206973Y242242D01*
X207029Y242335D01*
X207132Y242551D01*
X207226Y242785D01*
X207254Y242916D01*
X207282Y243038D01*
X207301Y243169D01*
X207311Y243291D01*
Y243301D01*
Y243319D01*
Y243357D01*
X207301Y243413D01*
X207292Y243469D01*
X207282Y243535D01*
X207245Y243704D01*
X207189Y243891D01*
X207095Y244088D01*
X207039Y244182D01*
X206973Y244285D01*
X206898Y244379D01*
X206804Y244472D01*
X206795Y244482D01*
X206786Y244491D01*
X206748Y244519D01*
X206711Y244547D01*
X206664Y244585D01*
X206598Y244622D01*
X206532Y244669D01*
X206448Y244716D01*
X206364Y244763D01*
X206261Y244810D01*
X206036Y244885D01*
X205783Y244941D01*
X205642Y244950D01*
X205492Y244960D01*
X205408D01*
X205352Y244950D01*
X205277Y244941D01*
X205192Y244932D01*
X205098Y244913D01*
X205005Y244894D01*
X204780Y244838D01*
X204555Y244744D01*
X204442Y244688D01*
X204330Y244613D01*
X204227Y244538D01*
X204124Y244444D01*
X204114Y244435D01*
X204105Y244425D01*
X204077Y244388D01*
X204049Y244350D01*
X204011Y244304D01*
X203964Y244238D01*
X203918Y244163D01*
X203871Y244079D01*
X203824Y243985D01*
X203777Y243882D01*
X203739Y243760D01*
X203693Y243638D01*
X203664Y243507D01*
X203636Y243357D01*
X203627Y243207D01*
X203618Y243038D01*
X202409Y243160D01*
Y243179D01*
X202418Y243216D01*
X202427Y243291D01*
X202437Y243385D01*
X202465Y243498D01*
X202493Y243629D01*
X202530Y243769D01*
X202568Y243929D01*
X202624Y244088D01*
X202690Y244257D01*
X202765Y244425D01*
X202849Y244604D01*
X202952Y244772D01*
X203065Y244932D01*
X203196Y245082D01*
X203337Y245222D01*
X203346Y245231D01*
X203374Y245250D01*
X203421Y245288D01*
X203486Y245335D01*
X203571Y245391D01*
X203664Y245447D01*
X203786Y245513D01*
X203918Y245578D01*
X204067Y245644D01*
X204227Y245709D01*
X204405Y245766D01*
X204602Y245822D01*
X204808Y245869D01*
X205033Y245906D01*
X205267Y245925D01*
X205520Y245934D01*
X205586D01*
X205651Y245925D01*
D02*
G37*
G36*
X415937Y34697D02*
X416062Y34685D01*
X416187Y34673D01*
X416337Y34648D01*
X416500Y34610D01*
X416837Y34523D01*
X417012Y34460D01*
X417200Y34385D01*
X417362Y34298D01*
X417537Y34185D01*
X417687Y34073D01*
X417837Y33935D01*
X417850Y33923D01*
X417874Y33898D01*
X417912Y33860D01*
X417949Y33798D01*
X418012Y33710D01*
X418074Y33610D01*
X418137Y33498D01*
X418212Y33360D01*
X418287Y33198D01*
X418349Y33023D01*
X418412Y32836D01*
X418474Y32623D01*
X418512Y32398D01*
X418549Y32148D01*
X418574Y31873D01*
X418587Y31586D01*
Y25212D01*
X417012D01*
Y31061D01*
Y31073D01*
Y31098D01*
Y31148D01*
Y31211D01*
Y31286D01*
X417000Y31386D01*
X416987Y31586D01*
X416975Y31798D01*
X416950Y32023D01*
X416900Y32236D01*
X416850Y32411D01*
X416837Y32436D01*
X416825Y32486D01*
X416787Y32561D01*
X416725Y32661D01*
X416650Y32761D01*
X416550Y32873D01*
X416437Y32985D01*
X416300Y33085D01*
X416287Y33098D01*
X416225Y33123D01*
X416150Y33173D01*
X416037Y33223D01*
X415900Y33260D01*
X415737Y33310D01*
X415563Y33335D01*
X415363Y33348D01*
X415263D01*
X415200Y33335D01*
X415113Y33323D01*
X415013Y33310D01*
X414788Y33260D01*
X414525Y33185D01*
X414250Y33073D01*
X414113Y32998D01*
X413988Y32910D01*
X413851Y32798D01*
X413726Y32685D01*
X413713Y32673D01*
X413700Y32661D01*
X413663Y32611D01*
X413625Y32561D01*
X413576Y32486D01*
X413526Y32411D01*
X413463Y32298D01*
X413413Y32186D01*
X413351Y32048D01*
X413288Y31886D01*
X413238Y31723D01*
X413188Y31536D01*
X413151Y31323D01*
X413113Y31098D01*
X413101Y30861D01*
X413088Y30599D01*
Y25212D01*
X411514D01*
Y31248D01*
Y31261D01*
Y31298D01*
Y31348D01*
Y31423D01*
X411501Y31511D01*
X411489Y31611D01*
X411464Y31836D01*
X411414Y32098D01*
X411351Y32361D01*
X411251Y32611D01*
X411126Y32823D01*
X411114Y32848D01*
X411051Y32910D01*
X410964Y32985D01*
X410826Y33085D01*
X410651Y33185D01*
X410439Y33260D01*
X410176Y33323D01*
X409877Y33348D01*
X409764D01*
X409639Y33335D01*
X409477Y33310D01*
X409289Y33260D01*
X409077Y33198D01*
X408852Y33110D01*
X408639Y32998D01*
X408614Y32985D01*
X408552Y32936D01*
X408452Y32848D01*
X408327Y32736D01*
X408189Y32598D01*
X408064Y32423D01*
X407939Y32211D01*
X407827Y31973D01*
Y31961D01*
X407814Y31948D01*
X407802Y31898D01*
X407789Y31848D01*
X407765Y31773D01*
X407752Y31698D01*
X407727Y31598D01*
X407702Y31473D01*
X407677Y31348D01*
X407652Y31198D01*
X407640Y31036D01*
X407615Y30861D01*
X407602Y30673D01*
X407590Y30474D01*
X407577Y30261D01*
Y30024D01*
Y25212D01*
X406003D01*
Y34498D01*
X407415D01*
Y33210D01*
X407440Y33223D01*
X407465Y33260D01*
X407490Y33310D01*
X407590Y33435D01*
X407727Y33585D01*
X407890Y33760D01*
X408089Y33948D01*
X408314Y34123D01*
X408577Y34285D01*
X408589D01*
X408614Y34298D01*
X408652Y34323D01*
X408702Y34348D01*
X408777Y34385D01*
X408852Y34423D01*
X409052Y34498D01*
X409302Y34573D01*
X409577Y34648D01*
X409889Y34697D01*
X410226Y34710D01*
X410326D01*
X410401Y34697D01*
X410489D01*
X410589Y34685D01*
X410826Y34660D01*
X411089Y34597D01*
X411376Y34523D01*
X411651Y34423D01*
X411913Y34273D01*
X411926D01*
X411939Y34248D01*
X412026Y34198D01*
X412138Y34098D01*
X412276Y33960D01*
X412426Y33798D01*
X412588Y33598D01*
X412726Y33360D01*
X412838Y33085D01*
X412851Y33098D01*
X412888Y33160D01*
X412951Y33235D01*
X413038Y33335D01*
X413151Y33460D01*
X413288Y33598D01*
X413438Y33748D01*
X413613Y33898D01*
X413813Y34048D01*
X414025Y34198D01*
X414263Y34335D01*
X414525Y34460D01*
X414788Y34560D01*
X415088Y34635D01*
X415388Y34697D01*
X415713Y34710D01*
X415850D01*
X415937Y34697D01*
D02*
G37*
G36*
X401029D02*
X401154Y34685D01*
X401279Y34673D01*
X401429Y34648D01*
X401591Y34610D01*
X401928Y34523D01*
X402104Y34460D01*
X402291Y34385D01*
X402453Y34298D01*
X402628Y34185D01*
X402778Y34073D01*
X402928Y33935D01*
X402941Y33923D01*
X402966Y33898D01*
X403003Y33860D01*
X403041Y33798D01*
X403103Y33710D01*
X403166Y33610D01*
X403228Y33498D01*
X403303Y33360D01*
X403378Y33198D01*
X403441Y33023D01*
X403503Y32836D01*
X403566Y32623D01*
X403603Y32398D01*
X403641Y32148D01*
X403666Y31873D01*
X403678Y31586D01*
Y25212D01*
X402104D01*
Y31061D01*
Y31073D01*
Y31098D01*
Y31148D01*
Y31211D01*
Y31286D01*
X402091Y31386D01*
X402079Y31586D01*
X402066Y31798D01*
X402041Y32023D01*
X401991Y32236D01*
X401941Y32411D01*
X401928Y32436D01*
X401916Y32486D01*
X401879Y32561D01*
X401816Y32661D01*
X401741Y32761D01*
X401641Y32873D01*
X401529Y32985D01*
X401391Y33085D01*
X401379Y33098D01*
X401316Y33123D01*
X401241Y33173D01*
X401129Y33223D01*
X400991Y33260D01*
X400829Y33310D01*
X400654Y33335D01*
X400454Y33348D01*
X400354D01*
X400291Y33335D01*
X400204Y33323D01*
X400104Y33310D01*
X399879Y33260D01*
X399617Y33185D01*
X399342Y33073D01*
X399204Y32998D01*
X399079Y32910D01*
X398942Y32798D01*
X398817Y32685D01*
X398804Y32673D01*
X398792Y32661D01*
X398754Y32611D01*
X398717Y32561D01*
X398667Y32486D01*
X398617Y32411D01*
X398554Y32298D01*
X398504Y32186D01*
X398442Y32048D01*
X398379Y31886D01*
X398330Y31723D01*
X398279Y31536D01*
X398242Y31323D01*
X398204Y31098D01*
X398192Y30861D01*
X398180Y30599D01*
Y25212D01*
X396605D01*
Y31248D01*
Y31261D01*
Y31298D01*
Y31348D01*
Y31423D01*
X396592Y31511D01*
X396580Y31611D01*
X396555Y31836D01*
X396505Y32098D01*
X396442Y32361D01*
X396343Y32611D01*
X396217Y32823D01*
X396205Y32848D01*
X396143Y32910D01*
X396055Y32985D01*
X395918Y33085D01*
X395743Y33185D01*
X395530Y33260D01*
X395268Y33323D01*
X394968Y33348D01*
X394855D01*
X394730Y33335D01*
X394568Y33310D01*
X394380Y33260D01*
X394168Y33198D01*
X393943Y33110D01*
X393731Y32998D01*
X393706Y32985D01*
X393643Y32936D01*
X393543Y32848D01*
X393418Y32736D01*
X393281Y32598D01*
X393156Y32423D01*
X393031Y32211D01*
X392918Y31973D01*
Y31961D01*
X392906Y31948D01*
X392893Y31898D01*
X392881Y31848D01*
X392856Y31773D01*
X392843Y31698D01*
X392818Y31598D01*
X392793Y31473D01*
X392768Y31348D01*
X392743Y31198D01*
X392731Y31036D01*
X392706Y30861D01*
X392693Y30673D01*
X392681Y30474D01*
X392668Y30261D01*
Y30024D01*
Y25212D01*
X391094D01*
Y34498D01*
X392506D01*
Y33210D01*
X392531Y33223D01*
X392556Y33260D01*
X392581Y33310D01*
X392681Y33435D01*
X392818Y33585D01*
X392981Y33760D01*
X393181Y33948D01*
X393406Y34123D01*
X393668Y34285D01*
X393681D01*
X393706Y34298D01*
X393743Y34323D01*
X393793Y34348D01*
X393868Y34385D01*
X393943Y34423D01*
X394143Y34498D01*
X394393Y34573D01*
X394668Y34648D01*
X394980Y34697D01*
X395318Y34710D01*
X395418D01*
X395493Y34697D01*
X395580D01*
X395680Y34685D01*
X395918Y34660D01*
X396180Y34597D01*
X396467Y34523D01*
X396742Y34423D01*
X397005Y34273D01*
X397017D01*
X397030Y34248D01*
X397117Y34198D01*
X397230Y34098D01*
X397367Y33960D01*
X397517Y33798D01*
X397680Y33598D01*
X397817Y33360D01*
X397930Y33085D01*
X397942Y33098D01*
X397980Y33160D01*
X398042Y33235D01*
X398130Y33335D01*
X398242Y33460D01*
X398379Y33598D01*
X398529Y33748D01*
X398704Y33898D01*
X398904Y34048D01*
X399117Y34198D01*
X399354Y34335D01*
X399617Y34460D01*
X399879Y34560D01*
X400179Y34635D01*
X400479Y34697D01*
X400804Y34710D01*
X400941D01*
X401029Y34697D01*
D02*
G37*
G36*
X430109Y29062D02*
X425273D01*
Y30649D01*
X430109D01*
Y29062D01*
D02*
G37*
G36*
X472073Y36510D02*
X467837D01*
Y25213D01*
X466137D01*
Y36510D01*
X461913D01*
Y38022D01*
X472073D01*
Y36510D01*
D02*
G37*
G36*
X442118Y38009D02*
X442268Y37997D01*
X442431Y37984D01*
X442593Y37972D01*
X442968Y37922D01*
X443368Y37859D01*
X443755Y37759D01*
X443930Y37697D01*
X444105Y37622D01*
X444118D01*
X444143Y37609D01*
X444193Y37584D01*
X444255Y37547D01*
X444330Y37509D01*
X444418Y37459D01*
X444618Y37322D01*
X444830Y37159D01*
X445067Y36947D01*
X445292Y36709D01*
X445492Y36422D01*
Y36410D01*
X445517Y36385D01*
X445542Y36347D01*
X445567Y36285D01*
X445617Y36210D01*
X445655Y36122D01*
X445755Y35910D01*
X445842Y35660D01*
X445930Y35372D01*
X445980Y35060D01*
X446005Y34735D01*
Y34722D01*
Y34697D01*
Y34660D01*
X445992Y34598D01*
Y34523D01*
X445980Y34435D01*
X445955Y34235D01*
X445892Y33998D01*
X445817Y33735D01*
X445705Y33460D01*
X445555Y33185D01*
Y33173D01*
X445530Y33148D01*
X445505Y33110D01*
X445467Y33061D01*
X445367Y32936D01*
X445217Y32773D01*
X445030Y32586D01*
X444793Y32386D01*
X444518Y32198D01*
X444205Y32023D01*
X444218D01*
X444255Y32011D01*
X444318Y31986D01*
X444393Y31961D01*
X444493Y31923D01*
X444605Y31873D01*
X444868Y31748D01*
X445155Y31586D01*
X445455Y31386D01*
X445742Y31136D01*
X445867Y30998D01*
X445992Y30849D01*
X446005Y30836D01*
X446017Y30811D01*
X446055Y30761D01*
X446092Y30699D01*
X446142Y30624D01*
X446192Y30536D01*
X446255Y30424D01*
X446317Y30299D01*
X446367Y30161D01*
X446430Y30024D01*
X446530Y29686D01*
X446605Y29324D01*
X446617Y29124D01*
X446630Y28911D01*
Y28899D01*
Y28874D01*
Y28824D01*
Y28762D01*
X446617Y28674D01*
X446605Y28587D01*
X446580Y28362D01*
X446530Y28112D01*
X446467Y27824D01*
X446367Y27537D01*
X446242Y27237D01*
Y27225D01*
X446230Y27199D01*
X446205Y27162D01*
X446180Y27112D01*
X446092Y26974D01*
X445980Y26800D01*
X445855Y26612D01*
X445692Y26412D01*
X445505Y26225D01*
X445305Y26050D01*
X445280Y26037D01*
X445205Y25987D01*
X445080Y25912D01*
X444917Y25812D01*
X444718Y25712D01*
X444468Y25612D01*
X444193Y25512D01*
X443893Y25425D01*
X443880D01*
X443855Y25412D01*
X443805Y25400D01*
X443743Y25387D01*
X443668Y25375D01*
X443568Y25362D01*
X443455Y25337D01*
X443318Y25325D01*
X443181Y25300D01*
X443018Y25275D01*
X442856Y25262D01*
X442668Y25250D01*
X442268Y25225D01*
X441831Y25213D01*
X436957Y25212D01*
Y38022D01*
X441993Y38022D01*
X442118Y38009D01*
D02*
G37*
G36*
X378410Y25212D02*
X376623D01*
Y26999D01*
X378410D01*
Y25212D01*
D02*
G37*
G36*
X371711D02*
X370137D01*
Y35222D01*
X370124D01*
X370112Y35197D01*
X370074Y35172D01*
X370037Y35135D01*
X369912Y35022D01*
X369737Y34885D01*
X369524Y34722D01*
X369262Y34535D01*
X368962Y34335D01*
X368637Y34135D01*
X368625D01*
X368600Y34110D01*
X368550Y34085D01*
X368487Y34048D01*
X368400Y33998D01*
X368312Y33948D01*
X368087Y33835D01*
X367837Y33710D01*
X367562Y33573D01*
X367275Y33448D01*
X367000Y33335D01*
Y34848D01*
X367012Y34860D01*
X367062Y34873D01*
X367125Y34910D01*
X367225Y34960D01*
X367337Y35022D01*
X367462Y35097D01*
X367612Y35172D01*
X367775Y35272D01*
X368137Y35485D01*
X368525Y35747D01*
X368912Y36035D01*
X369299Y36347D01*
X369312Y36360D01*
X369337Y36385D01*
X369399Y36435D01*
X369462Y36497D01*
X369537Y36584D01*
X369637Y36672D01*
X369737Y36785D01*
X369849Y36897D01*
X370074Y37159D01*
X370299Y37447D01*
X370512Y37759D01*
X370612Y37909D01*
X370686Y38072D01*
X371711D01*
Y25212D01*
D02*
G37*
G36*
X454878Y38234D02*
X455027Y38222D01*
X455215Y38197D01*
X455415Y38172D01*
X455640Y38147D01*
X455890Y38097D01*
X456140Y38034D01*
X456402Y37972D01*
X456677Y37884D01*
X456952Y37797D01*
X457227Y37672D01*
X457502Y37547D01*
X457777Y37397D01*
X457789Y37384D01*
X457839Y37359D01*
X457914Y37309D01*
X458014Y37247D01*
X458127Y37159D01*
X458264Y37047D01*
X458414Y36922D01*
X458589Y36785D01*
X458751Y36622D01*
X458939Y36447D01*
X459114Y36247D01*
X459301Y36035D01*
X459476Y35810D01*
X459639Y35560D01*
X459801Y35297D01*
X459951Y35022D01*
X459964Y35010D01*
X459989Y34960D01*
X460026Y34873D01*
X460064Y34760D01*
X460126Y34610D01*
X460189Y34448D01*
X460251Y34248D01*
X460326Y34023D01*
X460401Y33785D01*
X460463Y33523D01*
X460526Y33235D01*
X460588Y32936D01*
X460626Y32623D01*
X460663Y32298D01*
X460689Y31948D01*
X460701Y31598D01*
Y31573D01*
Y31511D01*
Y31411D01*
X460689Y31273D01*
X460676Y31098D01*
X460663Y30898D01*
X460639Y30674D01*
X460601Y30436D01*
X460564Y30174D01*
X460513Y29886D01*
X460451Y29599D01*
X460364Y29311D01*
X460276Y28999D01*
X460176Y28699D01*
X460051Y28399D01*
X459914Y28112D01*
X459901Y28099D01*
X459876Y28049D01*
X459826Y27962D01*
X459764Y27862D01*
X459689Y27737D01*
X459589Y27587D01*
X459476Y27424D01*
X459339Y27250D01*
X459189Y27062D01*
X459026Y26874D01*
X458839Y26675D01*
X458639Y26487D01*
X458427Y26300D01*
X458189Y26112D01*
X457939Y25950D01*
X457677Y25787D01*
X457664Y25775D01*
X457614Y25750D01*
X457539Y25712D01*
X457427Y25662D01*
X457289Y25600D01*
X457139Y25537D01*
X456952Y25462D01*
X456752Y25400D01*
X456527Y25325D01*
X456290Y25250D01*
X456027Y25187D01*
X455752Y25125D01*
X455477Y25075D01*
X455177Y25038D01*
X454878Y25013D01*
X454565Y25000D01*
X454390D01*
X454265Y25013D01*
X454103Y25025D01*
X453915Y25050D01*
X453715Y25075D01*
X453478Y25113D01*
X453240Y25150D01*
X452978Y25213D01*
X452715Y25275D01*
X452441Y25362D01*
X452153Y25462D01*
X451878Y25575D01*
X451603Y25712D01*
X451328Y25862D01*
X451316Y25875D01*
X451266Y25900D01*
X451191Y25950D01*
X451091Y26025D01*
X450979Y26112D01*
X450841Y26225D01*
X450691Y26350D01*
X450529Y26487D01*
X450354Y26650D01*
X450179Y26825D01*
X449991Y27025D01*
X449816Y27237D01*
X449641Y27462D01*
X449466Y27712D01*
X449316Y27974D01*
X449166Y28249D01*
X449154Y28262D01*
X449141Y28312D01*
X449104Y28399D01*
X449054Y28512D01*
X449004Y28649D01*
X448941Y28812D01*
X448867Y29011D01*
X448804Y29211D01*
X448741Y29449D01*
X448667Y29699D01*
X448604Y29961D01*
X448554Y30236D01*
X448504Y30524D01*
X448479Y30824D01*
X448454Y31136D01*
X448442Y31448D01*
Y31461D01*
Y31486D01*
Y31523D01*
Y31586D01*
X448454Y31661D01*
Y31761D01*
Y31861D01*
X448467Y31973D01*
X448492Y32248D01*
X448529Y32548D01*
X448592Y32898D01*
X448654Y33273D01*
X448741Y33660D01*
X448854Y34073D01*
X449004Y34485D01*
X449166Y34897D01*
X449366Y35310D01*
X449591Y35710D01*
X449854Y36085D01*
X450154Y36435D01*
X450179Y36460D01*
X450229Y36510D01*
X450329Y36597D01*
X450466Y36722D01*
X450629Y36860D01*
X450841Y37009D01*
X451078Y37172D01*
X451353Y37347D01*
X451653Y37509D01*
X451991Y37672D01*
X452353Y37822D01*
X452741Y37959D01*
X453165Y38084D01*
X453615Y38172D01*
X454078Y38222D01*
X454578Y38247D01*
X454753D01*
X454878Y38234D01*
D02*
G37*
G36*
X385145Y38059D02*
X385245Y38047D01*
X385370Y38034D01*
X385495Y38022D01*
X385770Y37972D01*
X386070Y37897D01*
X386382Y37784D01*
X386682Y37647D01*
X386695D01*
X386720Y37622D01*
X386757Y37609D01*
X386820Y37572D01*
X386957Y37472D01*
X387145Y37347D01*
X387345Y37172D01*
X387557Y36972D01*
X387770Y36722D01*
X387970Y36447D01*
Y36435D01*
X387995Y36410D01*
X388020Y36372D01*
X388057Y36310D01*
X388095Y36235D01*
X388145Y36147D01*
X388195Y36035D01*
X388257Y35922D01*
X388320Y35785D01*
X388382Y35647D01*
X388507Y35322D01*
X388644Y34948D01*
X388757Y34548D01*
Y34535D01*
X388769Y34498D01*
X388782Y34435D01*
X388807Y34348D01*
X388832Y34235D01*
X388857Y34098D01*
X388882Y33935D01*
X388907Y33748D01*
X388932Y33548D01*
X388957Y33310D01*
X388982Y33073D01*
X389007Y32798D01*
X389032Y32511D01*
X389044Y32198D01*
X389057Y31873D01*
Y31523D01*
Y31498D01*
Y31423D01*
Y31311D01*
X389044Y31148D01*
Y30961D01*
X389032Y30736D01*
X389019Y30499D01*
X388994Y30224D01*
X388969Y29936D01*
X388944Y29649D01*
X388857Y29037D01*
X388744Y28437D01*
X388669Y28162D01*
X388582Y27887D01*
Y27874D01*
X388557Y27824D01*
X388532Y27749D01*
X388494Y27662D01*
X388445Y27537D01*
X388382Y27412D01*
X388320Y27262D01*
X388232Y27099D01*
X388045Y26762D01*
X387807Y26400D01*
X387520Y26062D01*
X387357Y25900D01*
X387195Y25750D01*
X387182Y25737D01*
X387157Y25712D01*
X387107Y25675D01*
X387032Y25637D01*
X386945Y25575D01*
X386832Y25512D01*
X386707Y25450D01*
X386570Y25375D01*
X386408Y25300D01*
X386233Y25237D01*
X386045Y25175D01*
X385833Y25113D01*
X385620Y25075D01*
X385383Y25038D01*
X385145Y25013D01*
X384883Y25000D01*
X384795D01*
X384708Y25013D01*
X384571Y25025D01*
X384421Y25038D01*
X384233Y25075D01*
X384033Y25113D01*
X383821Y25162D01*
X383596Y25237D01*
X383358Y25325D01*
X383108Y25425D01*
X382871Y25550D01*
X382634Y25700D01*
X382396Y25875D01*
X382171Y26087D01*
X381971Y26312D01*
X381959Y26337D01*
X381921Y26387D01*
X381859Y26487D01*
X381771Y26625D01*
X381684Y26799D01*
X381571Y27012D01*
X381459Y27274D01*
X381346Y27574D01*
X381221Y27912D01*
X381109Y28299D01*
X380996Y28724D01*
X380909Y29186D01*
X380821Y29711D01*
X380759Y30261D01*
X380722Y30873D01*
X380709Y31523D01*
Y31536D01*
Y31548D01*
Y31623D01*
Y31748D01*
X380722Y31898D01*
Y32098D01*
X380734Y32311D01*
X380746Y32561D01*
X380771Y32836D01*
X380796Y33123D01*
X380821Y33423D01*
X380909Y34023D01*
X381021Y34635D01*
X381096Y34910D01*
X381171Y35185D01*
Y35197D01*
X381196Y35247D01*
X381221Y35322D01*
X381259Y35410D01*
X381309Y35535D01*
X381371Y35660D01*
X381434Y35810D01*
X381521Y35972D01*
X381709Y36322D01*
X381946Y36672D01*
X382234Y37009D01*
X382396Y37172D01*
X382559Y37322D01*
X382571Y37334D01*
X382596Y37359D01*
X382659Y37397D01*
X382721Y37434D01*
X382821Y37497D01*
X382921Y37559D01*
X383058Y37622D01*
X383196Y37697D01*
X383358Y37772D01*
X383533Y37834D01*
X383721Y37897D01*
X383933Y37959D01*
X384146Y37997D01*
X384383Y38034D01*
X384621Y38059D01*
X384883Y38072D01*
X385058D01*
X385145Y38059D01*
D02*
G37*
G36*
X417150Y53866D02*
X417275Y53854D01*
X417400Y53841D01*
X417550Y53816D01*
X417712Y53779D01*
X418049Y53691D01*
X418224Y53629D01*
X418412Y53554D01*
X418574Y53466D01*
X418749Y53354D01*
X418899Y53242D01*
X419049Y53104D01*
X419062Y53092D01*
X419087Y53067D01*
X419124Y53029D01*
X419162Y52967D01*
X419224Y52879D01*
X419287Y52779D01*
X419349Y52667D01*
X419424Y52529D01*
X419499Y52367D01*
X419562Y52192D01*
X419624Y52004D01*
X419687Y51792D01*
X419724Y51567D01*
X419762Y51317D01*
X419786Y51042D01*
X419799Y50755D01*
Y44381D01*
X418224D01*
Y50230D01*
Y50242D01*
Y50267D01*
Y50317D01*
Y50380D01*
Y50455D01*
X418212Y50555D01*
X418199Y50755D01*
X418187Y50967D01*
X418162Y51192D01*
X418112Y51405D01*
X418062Y51579D01*
X418049Y51604D01*
X418037Y51654D01*
X417999Y51729D01*
X417937Y51829D01*
X417862Y51929D01*
X417762Y52042D01*
X417649Y52154D01*
X417512Y52254D01*
X417500Y52267D01*
X417437Y52292D01*
X417362Y52342D01*
X417250Y52392D01*
X417112Y52429D01*
X416950Y52479D01*
X416775Y52504D01*
X416575Y52517D01*
X416475D01*
X416412Y52504D01*
X416325Y52492D01*
X416225Y52479D01*
X416000Y52429D01*
X415737Y52354D01*
X415463Y52242D01*
X415325Y52167D01*
X415200Y52079D01*
X415063Y51967D01*
X414938Y51854D01*
X414925Y51842D01*
X414913Y51829D01*
X414875Y51779D01*
X414838Y51729D01*
X414788Y51654D01*
X414738Y51579D01*
X414675Y51467D01*
X414625Y51354D01*
X414563Y51217D01*
X414500Y51055D01*
X414450Y50892D01*
X414400Y50705D01*
X414363Y50492D01*
X414325Y50267D01*
X414313Y50030D01*
X414300Y49767D01*
Y44381D01*
X412726D01*
Y50417D01*
Y50430D01*
Y50467D01*
Y50517D01*
Y50592D01*
X412713Y50680D01*
X412701Y50780D01*
X412676Y51005D01*
X412626Y51267D01*
X412563Y51529D01*
X412463Y51779D01*
X412338Y51992D01*
X412326Y52017D01*
X412263Y52079D01*
X412176Y52154D01*
X412038Y52254D01*
X411864Y52354D01*
X411651Y52429D01*
X411389Y52492D01*
X411089Y52517D01*
X410976D01*
X410851Y52504D01*
X410689Y52479D01*
X410501Y52429D01*
X410289Y52367D01*
X410064Y52279D01*
X409851Y52167D01*
X409827Y52154D01*
X409764Y52104D01*
X409664Y52017D01*
X409539Y51904D01*
X409402Y51767D01*
X409277Y51592D01*
X409152Y51379D01*
X409039Y51142D01*
Y51129D01*
X409027Y51117D01*
X409014Y51067D01*
X409002Y51017D01*
X408977Y50942D01*
X408964Y50867D01*
X408939Y50767D01*
X408914Y50642D01*
X408889Y50517D01*
X408864Y50367D01*
X408852Y50205D01*
X408827Y50030D01*
X408814Y49842D01*
X408802Y49642D01*
X408789Y49430D01*
Y49193D01*
Y44381D01*
X407215D01*
Y53666D01*
X408627D01*
Y52379D01*
X408652Y52392D01*
X408677Y52429D01*
X408702Y52479D01*
X408802Y52604D01*
X408939Y52754D01*
X409102Y52929D01*
X409302Y53116D01*
X409527Y53292D01*
X409789Y53454D01*
X409801D01*
X409827Y53466D01*
X409864Y53491D01*
X409914Y53516D01*
X409989Y53554D01*
X410064Y53591D01*
X410264Y53666D01*
X410514Y53741D01*
X410789Y53816D01*
X411101Y53866D01*
X411439Y53879D01*
X411539D01*
X411614Y53866D01*
X411701D01*
X411801Y53854D01*
X412038Y53829D01*
X412301Y53766D01*
X412588Y53691D01*
X412863Y53591D01*
X413126Y53441D01*
X413138D01*
X413151Y53417D01*
X413238Y53366D01*
X413351Y53267D01*
X413488Y53129D01*
X413638Y52967D01*
X413801Y52767D01*
X413938Y52529D01*
X414050Y52254D01*
X414063Y52267D01*
X414100Y52329D01*
X414163Y52404D01*
X414250Y52504D01*
X414363Y52629D01*
X414500Y52767D01*
X414650Y52917D01*
X414825Y53067D01*
X415025Y53217D01*
X415238Y53366D01*
X415475Y53504D01*
X415737Y53629D01*
X416000Y53729D01*
X416300Y53804D01*
X416600Y53866D01*
X416925Y53879D01*
X417062D01*
X417150Y53866D01*
D02*
G37*
G36*
X402241D02*
X402366Y53854D01*
X402491Y53841D01*
X402641Y53816D01*
X402803Y53779D01*
X403141Y53691D01*
X403316Y53629D01*
X403503Y53554D01*
X403666Y53466D01*
X403840Y53354D01*
X403991Y53242D01*
X404141Y53104D01*
X404153Y53092D01*
X404178Y53067D01*
X404215Y53029D01*
X404253Y52967D01*
X404315Y52879D01*
X404378Y52779D01*
X404440Y52667D01*
X404515Y52529D01*
X404590Y52367D01*
X404653Y52192D01*
X404715Y52004D01*
X404778Y51792D01*
X404815Y51567D01*
X404853Y51317D01*
X404878Y51042D01*
X404890Y50755D01*
Y44381D01*
X403316D01*
Y50230D01*
Y50242D01*
Y50267D01*
Y50317D01*
Y50380D01*
Y50455D01*
X403303Y50555D01*
X403291Y50755D01*
X403278Y50967D01*
X403253Y51192D01*
X403203Y51405D01*
X403153Y51579D01*
X403141Y51604D01*
X403128Y51654D01*
X403091Y51729D01*
X403028Y51829D01*
X402953Y51929D01*
X402853Y52042D01*
X402741Y52154D01*
X402603Y52254D01*
X402591Y52267D01*
X402528Y52292D01*
X402453Y52342D01*
X402341Y52392D01*
X402203Y52429D01*
X402041Y52479D01*
X401866Y52504D01*
X401666Y52517D01*
X401566D01*
X401504Y52504D01*
X401416Y52492D01*
X401316Y52479D01*
X401091Y52429D01*
X400829Y52354D01*
X400554Y52242D01*
X400416Y52167D01*
X400291Y52079D01*
X400154Y51967D01*
X400029Y51854D01*
X400017Y51842D01*
X400004Y51829D01*
X399967Y51779D01*
X399929Y51729D01*
X399879Y51654D01*
X399829Y51579D01*
X399767Y51467D01*
X399717Y51354D01*
X399654Y51217D01*
X399592Y51055D01*
X399542Y50892D01*
X399492Y50705D01*
X399454Y50492D01*
X399417Y50267D01*
X399404Y50030D01*
X399392Y49767D01*
Y44381D01*
X397817D01*
Y50417D01*
Y50430D01*
Y50467D01*
Y50517D01*
Y50592D01*
X397805Y50680D01*
X397792Y50780D01*
X397767Y51005D01*
X397717Y51267D01*
X397655Y51529D01*
X397555Y51779D01*
X397430Y51992D01*
X397417Y52017D01*
X397355Y52079D01*
X397267Y52154D01*
X397130Y52254D01*
X396955Y52354D01*
X396742Y52429D01*
X396480Y52492D01*
X396180Y52517D01*
X396068D01*
X395943Y52504D01*
X395780Y52479D01*
X395593Y52429D01*
X395380Y52367D01*
X395155Y52279D01*
X394943Y52167D01*
X394918Y52154D01*
X394855Y52104D01*
X394755Y52017D01*
X394630Y51904D01*
X394493Y51767D01*
X394368Y51592D01*
X394243Y51379D01*
X394131Y51142D01*
Y51129D01*
X394118Y51117D01*
X394105Y51067D01*
X394093Y51017D01*
X394068Y50942D01*
X394055Y50867D01*
X394031Y50767D01*
X394006Y50642D01*
X393981Y50517D01*
X393956Y50367D01*
X393943Y50205D01*
X393918Y50030D01*
X393906Y49842D01*
X393893Y49642D01*
X393881Y49430D01*
Y49193D01*
Y44381D01*
X392306D01*
Y53666D01*
X393718D01*
Y52379D01*
X393743Y52392D01*
X393768Y52429D01*
X393793Y52479D01*
X393893Y52604D01*
X394031Y52754D01*
X394193Y52929D01*
X394393Y53116D01*
X394618Y53292D01*
X394880Y53454D01*
X394893D01*
X394918Y53466D01*
X394955Y53491D01*
X395005Y53516D01*
X395080Y53554D01*
X395155Y53591D01*
X395355Y53666D01*
X395605Y53741D01*
X395880Y53816D01*
X396193Y53866D01*
X396530Y53879D01*
X396630D01*
X396705Y53866D01*
X396792D01*
X396892Y53854D01*
X397130Y53829D01*
X397392Y53766D01*
X397680Y53691D01*
X397955Y53591D01*
X398217Y53441D01*
X398229D01*
X398242Y53417D01*
X398330Y53366D01*
X398442Y53267D01*
X398579Y53129D01*
X398729Y52967D01*
X398892Y52767D01*
X399029Y52529D01*
X399142Y52254D01*
X399154Y52267D01*
X399192Y52329D01*
X399254Y52404D01*
X399342Y52504D01*
X399454Y52629D01*
X399592Y52767D01*
X399742Y52917D01*
X399916Y53067D01*
X400117Y53217D01*
X400329Y53366D01*
X400566Y53504D01*
X400829Y53629D01*
X401091Y53729D01*
X401391Y53804D01*
X401691Y53866D01*
X402016Y53879D01*
X402154D01*
X402241Y53866D01*
D02*
G37*
G36*
X431321Y48230D02*
X426485D01*
Y49817D01*
X431321D01*
Y48230D01*
D02*
G37*
G36*
X389819Y55528D02*
X384683D01*
X383996Y52067D01*
X384008Y52079D01*
X384046Y52104D01*
X384108Y52142D01*
X384196Y52192D01*
X384296Y52254D01*
X384433Y52329D01*
X384571Y52392D01*
X384733Y52479D01*
X384908Y52554D01*
X385095Y52617D01*
X385508Y52754D01*
X385720Y52804D01*
X385945Y52842D01*
X386183Y52867D01*
X386420Y52879D01*
X386495D01*
X386582Y52867D01*
X386707D01*
X386845Y52842D01*
X387020Y52817D01*
X387207Y52779D01*
X387407Y52729D01*
X387620Y52667D01*
X387857Y52592D01*
X388095Y52504D01*
X388332Y52392D01*
X388569Y52254D01*
X388807Y52104D01*
X389032Y51917D01*
X389257Y51717D01*
X389269Y51704D01*
X389307Y51667D01*
X389369Y51592D01*
X389444Y51504D01*
X389532Y51392D01*
X389619Y51255D01*
X389732Y51092D01*
X389844Y50905D01*
X389944Y50705D01*
X390057Y50480D01*
X390144Y50230D01*
X390244Y49967D01*
X390307Y49680D01*
X390369Y49380D01*
X390406Y49055D01*
X390419Y48718D01*
Y48693D01*
Y48643D01*
X390406Y48555D01*
Y48430D01*
X390394Y48280D01*
X390369Y48105D01*
X390331Y47905D01*
X390294Y47693D01*
X390232Y47468D01*
X390169Y47218D01*
X390082Y46968D01*
X389982Y46718D01*
X389869Y46468D01*
X389732Y46206D01*
X389569Y45956D01*
X389394Y45718D01*
X389382Y45706D01*
X389332Y45656D01*
X389269Y45581D01*
X389169Y45481D01*
X389044Y45356D01*
X388894Y45231D01*
X388719Y45094D01*
X388520Y44944D01*
X388282Y44794D01*
X388032Y44656D01*
X387757Y44531D01*
X387457Y44406D01*
X387132Y44306D01*
X386795Y44231D01*
X386420Y44181D01*
X386033Y44169D01*
X385958D01*
X385870Y44181D01*
X385745D01*
X385595Y44194D01*
X385420Y44219D01*
X385233Y44256D01*
X385020Y44294D01*
X384795Y44344D01*
X384571Y44406D01*
X384333Y44481D01*
X384083Y44581D01*
X383846Y44694D01*
X383608Y44819D01*
X383383Y44969D01*
X383171Y45144D01*
X383158Y45156D01*
X383121Y45194D01*
X383071Y45244D01*
X382996Y45318D01*
X382908Y45419D01*
X382821Y45543D01*
X382709Y45681D01*
X382608Y45831D01*
X382496Y46006D01*
X382383Y46206D01*
X382284Y46418D01*
X382184Y46656D01*
X382096Y46906D01*
X382021Y47168D01*
X381959Y47443D01*
X381921Y47743D01*
X383571Y47880D01*
Y47868D01*
X383583Y47830D01*
X383596Y47768D01*
X383608Y47680D01*
X383633Y47580D01*
X383658Y47468D01*
X383746Y47193D01*
X383858Y46906D01*
X383996Y46606D01*
X384183Y46306D01*
X384296Y46181D01*
X384408Y46056D01*
X384421Y46043D01*
X384445Y46031D01*
X384483Y46006D01*
X384533Y45968D01*
X384595Y45918D01*
X384670Y45868D01*
X384870Y45756D01*
X385108Y45643D01*
X385383Y45556D01*
X385695Y45481D01*
X385858Y45469D01*
X386033Y45456D01*
X386145D01*
X386220Y45469D01*
X386320Y45481D01*
X386432Y45506D01*
X386558Y45531D01*
X386695Y45568D01*
X387007Y45668D01*
X387157Y45731D01*
X387320Y45818D01*
X387482Y45918D01*
X387645Y46031D01*
X387807Y46156D01*
X387957Y46306D01*
X387970Y46318D01*
X387995Y46343D01*
X388032Y46393D01*
X388082Y46468D01*
X388145Y46543D01*
X388207Y46656D01*
X388282Y46781D01*
X388357Y46918D01*
X388419Y47068D01*
X388494Y47243D01*
X388557Y47431D01*
X388619Y47630D01*
X388669Y47843D01*
X388707Y48080D01*
X388732Y48318D01*
X388744Y48580D01*
Y48593D01*
Y48643D01*
Y48705D01*
X388732Y48805D01*
X388719Y48918D01*
X388707Y49043D01*
X388682Y49193D01*
X388644Y49355D01*
X388557Y49692D01*
X388494Y49867D01*
X388419Y50042D01*
X388332Y50217D01*
X388232Y50392D01*
X388120Y50555D01*
X387982Y50705D01*
X387970Y50717D01*
X387945Y50742D01*
X387907Y50780D01*
X387845Y50830D01*
X387770Y50892D01*
X387682Y50955D01*
X387570Y51030D01*
X387457Y51104D01*
X387320Y51167D01*
X387170Y51242D01*
X387007Y51304D01*
X386832Y51367D01*
X386632Y51417D01*
X386432Y51455D01*
X386220Y51479D01*
X385995Y51492D01*
X385870D01*
X385795Y51479D01*
X385720D01*
X385533Y51455D01*
X385320Y51405D01*
X385095Y51342D01*
X384858Y51255D01*
X384621Y51142D01*
X384608D01*
X384595Y51129D01*
X384520Y51080D01*
X384408Y51005D01*
X384283Y50905D01*
X384121Y50767D01*
X383971Y50617D01*
X383808Y50442D01*
X383671Y50255D01*
X382196Y50442D01*
X383433Y57028D01*
X389819D01*
Y55528D01*
D02*
G37*
G36*
X468487Y57178D02*
X468637D01*
X468949Y57165D01*
X469274Y57140D01*
X469586Y57103D01*
X469736Y57091D01*
X469861Y57066D01*
X469874D01*
X469899Y57053D01*
X469949D01*
X470024Y57028D01*
X470099Y57016D01*
X470199Y56991D01*
X470411Y56928D01*
X470661Y56853D01*
X470936Y56741D01*
X471198Y56616D01*
X471448Y56466D01*
X471461D01*
X471473Y56441D01*
X471548Y56391D01*
X471673Y56291D01*
X471811Y56153D01*
X471973Y55966D01*
X472148Y55766D01*
X472323Y55516D01*
X472473Y55229D01*
Y55216D01*
X472486Y55191D01*
X472510Y55153D01*
X472536Y55091D01*
X472560Y55016D01*
X472598Y54929D01*
X472635Y54829D01*
X472673Y54716D01*
X472748Y54454D01*
X472810Y54154D01*
X472860Y53829D01*
X472873Y53479D01*
Y53467D01*
Y53404D01*
X472860Y53316D01*
Y53204D01*
X472835Y53067D01*
X472823Y52904D01*
X472785Y52729D01*
X472748Y52529D01*
X472685Y52317D01*
X472623Y52092D01*
X472536Y51867D01*
X472435Y51629D01*
X472310Y51392D01*
X472173Y51167D01*
X472011Y50942D01*
X471823Y50717D01*
X471811Y50705D01*
X471773Y50667D01*
X471711Y50617D01*
X471623Y50542D01*
X471498Y50455D01*
X471348Y50367D01*
X471173Y50255D01*
X470961Y50155D01*
X470723Y50055D01*
X470448Y49955D01*
X470149Y49855D01*
X469799Y49767D01*
X469424Y49692D01*
X469011Y49642D01*
X468562Y49605D01*
X468074Y49592D01*
X464787D01*
Y44381D01*
X463088D01*
Y57190D01*
X468349D01*
X468487Y57178D01*
D02*
G37*
G36*
X447429Y55678D02*
X443193D01*
Y44381D01*
X441493D01*
Y55678D01*
X437270Y55678D01*
Y57190D01*
X447429Y57190D01*
Y55678D01*
D02*
G37*
G36*
X379622Y44381D02*
X377835D01*
Y46168D01*
X379622D01*
Y44381D01*
D02*
G37*
G36*
X455090Y57403D02*
X455240Y57390D01*
X455427Y57365D01*
X455627Y57340D01*
X455852Y57316D01*
X456102Y57266D01*
X456352Y57203D01*
X456614Y57140D01*
X456889Y57053D01*
X457164Y56966D01*
X457439Y56841D01*
X457714Y56716D01*
X457989Y56566D01*
X458002Y56553D01*
X458052Y56528D01*
X458127Y56478D01*
X458227Y56416D01*
X458339Y56328D01*
X458477Y56216D01*
X458627Y56091D01*
X458801Y55953D01*
X458964Y55791D01*
X459151Y55616D01*
X459326Y55416D01*
X459514Y55203D01*
X459689Y54979D01*
X459851Y54729D01*
X460014Y54466D01*
X460164Y54191D01*
X460176Y54179D01*
X460201Y54129D01*
X460239Y54041D01*
X460276Y53929D01*
X460339Y53779D01*
X460401Y53616D01*
X460463Y53417D01*
X460538Y53191D01*
X460614Y52954D01*
X460676Y52692D01*
X460738Y52404D01*
X460801Y52104D01*
X460838Y51792D01*
X460876Y51467D01*
X460901Y51117D01*
X460913Y50767D01*
Y50742D01*
Y50680D01*
Y50580D01*
X460901Y50442D01*
X460888Y50267D01*
X460876Y50067D01*
X460851Y49842D01*
X460813Y49605D01*
X460776Y49342D01*
X460726Y49055D01*
X460663Y48768D01*
X460576Y48480D01*
X460489Y48168D01*
X460389Y47868D01*
X460264Y47568D01*
X460126Y47281D01*
X460114Y47268D01*
X460089Y47218D01*
X460039Y47131D01*
X459976Y47031D01*
X459901Y46906D01*
X459801Y46756D01*
X459689Y46593D01*
X459551Y46418D01*
X459401Y46231D01*
X459239Y46043D01*
X459051Y45843D01*
X458852Y45656D01*
X458639Y45469D01*
X458402Y45281D01*
X458152Y45119D01*
X457889Y44956D01*
X457877Y44944D01*
X457827Y44919D01*
X457752Y44881D01*
X457639Y44831D01*
X457502Y44769D01*
X457352Y44706D01*
X457164Y44631D01*
X456964Y44569D01*
X456740Y44494D01*
X456502Y44419D01*
X456240Y44356D01*
X455965Y44294D01*
X455690Y44244D01*
X455390Y44206D01*
X455090Y44181D01*
X454777Y44169D01*
X454603D01*
X454478Y44181D01*
X454315Y44194D01*
X454128Y44219D01*
X453928Y44244D01*
X453690Y44281D01*
X453453Y44319D01*
X453190Y44381D01*
X452928Y44444D01*
X452653Y44531D01*
X452366Y44631D01*
X452091Y44744D01*
X451816Y44881D01*
X451541Y45031D01*
X451528Y45044D01*
X451478Y45069D01*
X451403Y45119D01*
X451303Y45194D01*
X451191Y45281D01*
X451054Y45394D01*
X450904Y45518D01*
X450741Y45656D01*
X450566Y45818D01*
X450391Y45993D01*
X450204Y46193D01*
X450029Y46406D01*
X449854Y46631D01*
X449679Y46881D01*
X449529Y47143D01*
X449379Y47418D01*
X449366Y47431D01*
X449354Y47481D01*
X449316Y47568D01*
X449266Y47680D01*
X449216Y47818D01*
X449154Y47980D01*
X449079Y48180D01*
X449016Y48380D01*
X448954Y48618D01*
X448879Y48868D01*
X448816Y49130D01*
X448767Y49405D01*
X448717Y49692D01*
X448692Y49992D01*
X448667Y50305D01*
X448654Y50617D01*
Y50630D01*
Y50655D01*
Y50692D01*
Y50755D01*
X448667Y50830D01*
Y50930D01*
Y51030D01*
X448679Y51142D01*
X448704Y51417D01*
X448741Y51717D01*
X448804Y52067D01*
X448867Y52442D01*
X448954Y52829D01*
X449067Y53242D01*
X449216Y53654D01*
X449379Y54066D01*
X449579Y54479D01*
X449804Y54879D01*
X450066Y55254D01*
X450366Y55603D01*
X450391Y55628D01*
X450441Y55678D01*
X450541Y55766D01*
X450679Y55891D01*
X450841Y56028D01*
X451054Y56178D01*
X451291Y56341D01*
X451566Y56516D01*
X451866Y56678D01*
X452203Y56841D01*
X452566Y56991D01*
X452953Y57128D01*
X453378Y57253D01*
X453828Y57340D01*
X454290Y57390D01*
X454790Y57415D01*
X454965D01*
X455090Y57403D01*
D02*
G37*
G36*
X371436Y57228D02*
X371536Y57215D01*
X371661Y57203D01*
X371786Y57190D01*
X372061Y57140D01*
X372361Y57066D01*
X372673Y56953D01*
X372973Y56816D01*
X372986D01*
X373011Y56791D01*
X373048Y56778D01*
X373111Y56741D01*
X373248Y56641D01*
X373436Y56516D01*
X373636Y56341D01*
X373848Y56141D01*
X374061Y55891D01*
X374261Y55616D01*
Y55603D01*
X374286Y55578D01*
X374311Y55541D01*
X374348Y55478D01*
X374386Y55403D01*
X374436Y55316D01*
X374486Y55203D01*
X374548Y55091D01*
X374610Y54954D01*
X374673Y54816D01*
X374798Y54491D01*
X374935Y54116D01*
X375048Y53716D01*
Y53704D01*
X375060Y53666D01*
X375073Y53604D01*
X375098Y53516D01*
X375123Y53404D01*
X375148Y53267D01*
X375173Y53104D01*
X375198Y52917D01*
X375223Y52717D01*
X375248Y52479D01*
X375273Y52242D01*
X375298Y51967D01*
X375323Y51679D01*
X375335Y51367D01*
X375348Y51042D01*
Y50692D01*
Y50667D01*
Y50592D01*
Y50480D01*
X375335Y50317D01*
Y50130D01*
X375323Y49905D01*
X375310Y49667D01*
X375285Y49392D01*
X375260Y49105D01*
X375235Y48818D01*
X375148Y48205D01*
X375035Y47605D01*
X374960Y47330D01*
X374873Y47056D01*
Y47043D01*
X374848Y46993D01*
X374823Y46918D01*
X374785Y46831D01*
X374735Y46706D01*
X374673Y46581D01*
X374610Y46431D01*
X374523Y46268D01*
X374336Y45931D01*
X374098Y45568D01*
X373811Y45231D01*
X373648Y45069D01*
X373486Y44919D01*
X373473Y44906D01*
X373448Y44881D01*
X373398Y44844D01*
X373323Y44806D01*
X373236Y44744D01*
X373123Y44681D01*
X372998Y44619D01*
X372861Y44544D01*
X372699Y44469D01*
X372524Y44406D01*
X372336Y44344D01*
X372124Y44281D01*
X371911Y44244D01*
X371674Y44206D01*
X371436Y44181D01*
X371174Y44169D01*
X371086D01*
X370999Y44181D01*
X370862Y44194D01*
X370712Y44206D01*
X370524Y44244D01*
X370324Y44281D01*
X370112Y44331D01*
X369887Y44406D01*
X369649Y44494D01*
X369399Y44594D01*
X369162Y44719D01*
X368924Y44869D01*
X368687Y45044D01*
X368462Y45256D01*
X368262Y45481D01*
X368250Y45506D01*
X368212Y45556D01*
X368150Y45656D01*
X368062Y45793D01*
X367975Y45968D01*
X367862Y46181D01*
X367750Y46443D01*
X367637Y46743D01*
X367512Y47081D01*
X367400Y47468D01*
X367287Y47893D01*
X367200Y48355D01*
X367112Y48880D01*
X367050Y49430D01*
X367012Y50042D01*
X367000Y50692D01*
Y50705D01*
Y50717D01*
Y50792D01*
Y50917D01*
X367012Y51067D01*
Y51267D01*
X367025Y51479D01*
X367038Y51729D01*
X367062Y52004D01*
X367088Y52292D01*
X367112Y52592D01*
X367200Y53191D01*
X367312Y53804D01*
X367387Y54079D01*
X367462Y54354D01*
Y54366D01*
X367487Y54416D01*
X367512Y54491D01*
X367550Y54579D01*
X367600Y54704D01*
X367662Y54829D01*
X367725Y54979D01*
X367812Y55141D01*
X368000Y55491D01*
X368237Y55841D01*
X368525Y56178D01*
X368687Y56341D01*
X368849Y56491D01*
X368862Y56503D01*
X368887Y56528D01*
X368950Y56566D01*
X369012Y56603D01*
X369112Y56666D01*
X369212Y56728D01*
X369349Y56791D01*
X369487Y56866D01*
X369649Y56941D01*
X369824Y57003D01*
X370012Y57066D01*
X370224Y57128D01*
X370437Y57165D01*
X370674Y57203D01*
X370911Y57228D01*
X371174Y57241D01*
X371349D01*
X371436Y57228D01*
D02*
G37*
G36*
X402628Y74559D02*
X401054D01*
Y76371D01*
X402628D01*
Y74559D01*
D02*
G37*
G36*
X395418Y73047D02*
X395518D01*
X395643Y73022D01*
X395780Y73009D01*
X395930Y72984D01*
X396255Y72909D01*
X396605Y72797D01*
X396780Y72734D01*
X396955Y72647D01*
X397130Y72559D01*
X397305Y72447D01*
X397317Y72434D01*
X397342Y72422D01*
X397392Y72384D01*
X397455Y72334D01*
X397530Y72272D01*
X397617Y72197D01*
X397717Y72109D01*
X397817Y71997D01*
X397930Y71884D01*
X398042Y71760D01*
X398154Y71610D01*
X398267Y71459D01*
X398379Y71285D01*
X398492Y71110D01*
X398679Y70710D01*
Y70697D01*
X398704Y70660D01*
X398729Y70597D01*
X398754Y70510D01*
X398792Y70410D01*
X398829Y70285D01*
X398867Y70147D01*
X398917Y69985D01*
X398967Y69810D01*
X399004Y69623D01*
X399042Y69423D01*
X399079Y69210D01*
X399129Y68760D01*
X399154Y68273D01*
Y68260D01*
Y68210D01*
Y68135D01*
X399142Y68035D01*
Y67910D01*
X399129Y67761D01*
X399117Y67598D01*
X399092Y67423D01*
X399067Y67223D01*
X399029Y67023D01*
X398942Y66586D01*
X398817Y66136D01*
X398642Y65698D01*
Y65686D01*
X398617Y65648D01*
X398592Y65586D01*
X398542Y65511D01*
X398492Y65411D01*
X398429Y65311D01*
X398267Y65049D01*
X398055Y64774D01*
X397805Y64486D01*
X397505Y64199D01*
X397155Y63949D01*
X397142Y63937D01*
X397117Y63924D01*
X397055Y63899D01*
X396992Y63861D01*
X396892Y63811D01*
X396792Y63762D01*
X396667Y63712D01*
X396530Y63649D01*
X396380Y63599D01*
X396230Y63537D01*
X395880Y63449D01*
X395505Y63374D01*
X395305Y63362D01*
X395105Y63349D01*
X394968D01*
X394905Y63362D01*
X394818D01*
X394630Y63387D01*
X394418Y63424D01*
X394180Y63487D01*
X393931Y63562D01*
X393693Y63674D01*
X393681D01*
X393668Y63686D01*
X393593Y63737D01*
X393481Y63799D01*
X393331Y63899D01*
X393168Y64024D01*
X392993Y64161D01*
X392831Y64324D01*
X392668Y64511D01*
Y60000D01*
X391094D01*
Y72847D01*
X392531D01*
Y71647D01*
X392556Y71672D01*
X392581Y71697D01*
X392618Y71747D01*
X392718Y71884D01*
X392856Y72034D01*
X393031Y72209D01*
X393218Y72384D01*
X393431Y72547D01*
X393668Y72697D01*
X393681D01*
X393693Y72709D01*
X393731Y72734D01*
X393781Y72759D01*
X393843Y72784D01*
X393918Y72809D01*
X394105Y72884D01*
X394330Y72947D01*
X394593Y73009D01*
X394893Y73047D01*
X395218Y73059D01*
X395330D01*
X395418Y73047D01*
D02*
G37*
G36*
X409589D02*
X409677D01*
X409889Y73022D01*
X410126Y72984D01*
X410376Y72922D01*
X410651Y72847D01*
X410914Y72747D01*
X410926D01*
X410939Y72734D01*
X410976Y72722D01*
X411026Y72697D01*
X411151Y72622D01*
X411314Y72534D01*
X411476Y72422D01*
X411651Y72284D01*
X411814Y72134D01*
X411964Y71959D01*
X411976Y71934D01*
X412026Y71872D01*
X412088Y71772D01*
X412163Y71634D01*
X412238Y71459D01*
X412326Y71260D01*
X412401Y71047D01*
X412463Y70797D01*
Y70772D01*
X412476Y70710D01*
X412488Y70597D01*
X412501Y70522D01*
X412513Y70447D01*
Y70347D01*
X412526Y70235D01*
Y70110D01*
X412538Y69960D01*
Y69810D01*
X412551Y69647D01*
Y69460D01*
Y69260D01*
Y63562D01*
X410976D01*
Y69210D01*
Y69223D01*
Y69248D01*
Y69298D01*
Y69373D01*
Y69448D01*
X410964Y69535D01*
X410951Y69748D01*
X410926Y69985D01*
X410901Y70222D01*
X410851Y70447D01*
X410789Y70647D01*
X410776Y70672D01*
X410751Y70722D01*
X410701Y70810D01*
X410639Y70922D01*
X410551Y71047D01*
X410439Y71172D01*
X410301Y71297D01*
X410139Y71410D01*
X410114Y71422D01*
X410051Y71459D01*
X409964Y71497D01*
X409827Y71560D01*
X409664Y71610D01*
X409477Y71647D01*
X409264Y71684D01*
X409039Y71697D01*
X408939D01*
X408877Y71684D01*
X408789Y71672D01*
X408689Y71659D01*
X408452Y71622D01*
X408177Y71535D01*
X407890Y71422D01*
X407739Y71347D01*
X407602Y71260D01*
X407452Y71160D01*
X407315Y71047D01*
X407302Y71035D01*
X407290Y71022D01*
X407252Y70972D01*
X407202Y70922D01*
X407152Y70847D01*
X407090Y70747D01*
X407015Y70635D01*
X406952Y70510D01*
X406890Y70360D01*
X406815Y70185D01*
X406752Y69985D01*
X406702Y69760D01*
X406652Y69523D01*
X406627Y69248D01*
X406602Y68960D01*
X406590Y68635D01*
Y63562D01*
X405015D01*
Y72847D01*
X406427D01*
Y71522D01*
X406440Y71535D01*
X406477Y71585D01*
X406540Y71659D01*
X406615Y71760D01*
X406727Y71884D01*
X406852Y72009D01*
X407002Y72147D01*
X407177Y72297D01*
X407377Y72434D01*
X407590Y72572D01*
X407840Y72709D01*
X408102Y72822D01*
X408389Y72922D01*
X408689Y72997D01*
X409027Y73047D01*
X409377Y73059D01*
X409514D01*
X409589Y73047D01*
D02*
G37*
G36*
X402628Y63562D02*
X401054D01*
Y72847D01*
X402628D01*
Y63562D01*
D02*
G37*
G36*
X380159Y76408D02*
X380297D01*
X380447Y76396D01*
X380621Y76371D01*
X380821Y76333D01*
X381046Y76296D01*
X381271Y76233D01*
X381509Y76171D01*
X381759Y76083D01*
X381996Y75983D01*
X382246Y75871D01*
X382471Y75733D01*
X382696Y75571D01*
X382908Y75396D01*
X382921Y75384D01*
X382958Y75346D01*
X383008Y75296D01*
X383071Y75209D01*
X383158Y75109D01*
X383246Y74996D01*
X383346Y74859D01*
X383446Y74696D01*
X383546Y74521D01*
X383646Y74321D01*
X383733Y74121D01*
X383821Y73896D01*
X383883Y73659D01*
X383933Y73397D01*
X383971Y73134D01*
X383983Y72859D01*
Y72847D01*
Y72822D01*
Y72784D01*
Y72734D01*
X383971Y72659D01*
Y72584D01*
X383946Y72384D01*
X383908Y72159D01*
X383846Y71897D01*
X383771Y71622D01*
X383658Y71347D01*
Y71335D01*
X383646Y71310D01*
X383621Y71272D01*
X383596Y71222D01*
X383558Y71147D01*
X383521Y71072D01*
X383408Y70872D01*
X383271Y70647D01*
X383083Y70372D01*
X382871Y70085D01*
X382608Y69785D01*
X382596Y69773D01*
X382571Y69748D01*
X382533Y69697D01*
X382471Y69635D01*
X382383Y69548D01*
X382296Y69448D01*
X382171Y69335D01*
X382034Y69198D01*
X381884Y69048D01*
X381696Y68873D01*
X381509Y68685D01*
X381284Y68485D01*
X381046Y68273D01*
X380784Y68035D01*
X380496Y67798D01*
X380197Y67536D01*
X380184Y67523D01*
X380134Y67486D01*
X380059Y67423D01*
X379972Y67348D01*
X379859Y67248D01*
X379734Y67136D01*
X379434Y66886D01*
X379134Y66623D01*
X378834Y66361D01*
X378697Y66236D01*
X378572Y66111D01*
X378460Y66011D01*
X378372Y65924D01*
X378360Y65911D01*
X378310Y65848D01*
X378235Y65761D01*
X378135Y65661D01*
X378035Y65524D01*
X377922Y65386D01*
X377810Y65236D01*
X377710Y65074D01*
X383996D01*
Y63562D01*
X375535D01*
Y63574D01*
Y63587D01*
Y63661D01*
Y63762D01*
X375548Y63911D01*
X375573Y64074D01*
X375598Y64261D01*
X375648Y64449D01*
X375710Y64649D01*
Y64661D01*
X375723Y64686D01*
X375748Y64736D01*
X375773Y64799D01*
X375810Y64874D01*
X375848Y64961D01*
X375960Y65186D01*
X376110Y65449D01*
X376285Y65736D01*
X376497Y66036D01*
X376748Y66348D01*
X376760Y66361D01*
X376785Y66386D01*
X376823Y66436D01*
X376885Y66498D01*
X376960Y66573D01*
X377047Y66673D01*
X377147Y66786D01*
X377272Y66911D01*
X377410Y67036D01*
X377560Y67186D01*
X377735Y67348D01*
X377910Y67523D01*
X378110Y67698D01*
X378322Y67885D01*
X378559Y68085D01*
X378797Y68285D01*
X378822Y68310D01*
X378884Y68360D01*
X378997Y68448D01*
X379134Y68573D01*
X379309Y68710D01*
X379497Y68885D01*
X379709Y69073D01*
X379934Y69273D01*
X380409Y69710D01*
X380871Y70160D01*
X381084Y70385D01*
X381284Y70610D01*
X381471Y70810D01*
X381621Y71010D01*
X381634Y71022D01*
X381659Y71060D01*
X381696Y71110D01*
X381734Y71185D01*
X381796Y71272D01*
X381859Y71372D01*
X381921Y71497D01*
X381996Y71622D01*
X382134Y71909D01*
X382259Y72222D01*
X382296Y72397D01*
X382334Y72559D01*
X382359Y72734D01*
X382371Y72897D01*
Y72909D01*
Y72934D01*
Y72984D01*
X382359Y73059D01*
X382346Y73134D01*
X382334Y73222D01*
X382284Y73446D01*
X382209Y73696D01*
X382084Y73959D01*
X382009Y74084D01*
X381921Y74221D01*
X381821Y74346D01*
X381696Y74471D01*
X381684Y74484D01*
X381671Y74496D01*
X381621Y74534D01*
X381571Y74571D01*
X381509Y74621D01*
X381421Y74671D01*
X381334Y74734D01*
X381221Y74796D01*
X381109Y74859D01*
X380971Y74921D01*
X380672Y75021D01*
X380334Y75096D01*
X380147Y75109D01*
X379947Y75121D01*
X379834D01*
X379759Y75109D01*
X379659Y75096D01*
X379547Y75084D01*
X379422Y75059D01*
X379297Y75034D01*
X378997Y74959D01*
X378697Y74834D01*
X378547Y74759D01*
X378397Y74659D01*
X378260Y74559D01*
X378122Y74434D01*
X378110Y74421D01*
X378097Y74409D01*
X378060Y74359D01*
X378022Y74309D01*
X377972Y74246D01*
X377910Y74159D01*
X377847Y74059D01*
X377785Y73946D01*
X377722Y73821D01*
X377660Y73684D01*
X377610Y73521D01*
X377547Y73359D01*
X377510Y73184D01*
X377472Y72984D01*
X377460Y72784D01*
X377447Y72559D01*
X375835Y72722D01*
Y72747D01*
X375848Y72797D01*
X375860Y72897D01*
X375873Y73022D01*
X375910Y73172D01*
X375948Y73347D01*
X375998Y73534D01*
X376048Y73747D01*
X376123Y73959D01*
X376210Y74184D01*
X376310Y74409D01*
X376423Y74646D01*
X376560Y74871D01*
X376710Y75084D01*
X376885Y75284D01*
X377072Y75471D01*
X377085Y75483D01*
X377122Y75508D01*
X377185Y75559D01*
X377272Y75621D01*
X377385Y75696D01*
X377510Y75771D01*
X377672Y75858D01*
X377847Y75946D01*
X378047Y76033D01*
X378260Y76121D01*
X378497Y76196D01*
X378759Y76271D01*
X379034Y76333D01*
X379334Y76383D01*
X379647Y76408D01*
X379984Y76421D01*
X380072D01*
X380159Y76408D01*
D02*
G37*
G36*
X371711Y63562D02*
X370137D01*
Y73572D01*
X370124D01*
X370112Y73547D01*
X370074Y73521D01*
X370037Y73484D01*
X369912Y73372D01*
X369737Y73234D01*
X369524Y73072D01*
X369262Y72884D01*
X368962Y72684D01*
X368637Y72484D01*
X368625D01*
X368600Y72459D01*
X368550Y72434D01*
X368487Y72397D01*
X368400Y72347D01*
X368312Y72297D01*
X368087Y72184D01*
X367837Y72059D01*
X367562Y71922D01*
X367275Y71797D01*
X367000Y71684D01*
Y73197D01*
X367012Y73209D01*
X367062Y73222D01*
X367125Y73259D01*
X367225Y73309D01*
X367337Y73372D01*
X367462Y73446D01*
X367612Y73521D01*
X367775Y73622D01*
X368137Y73834D01*
X368525Y74096D01*
X368912Y74384D01*
X369299Y74696D01*
X369312Y74709D01*
X369337Y74734D01*
X369399Y74784D01*
X369462Y74846D01*
X369537Y74934D01*
X369637Y75021D01*
X369737Y75134D01*
X369849Y75246D01*
X370074Y75508D01*
X370299Y75796D01*
X370512Y76108D01*
X370612Y76258D01*
X370686Y76421D01*
X371711D01*
Y63562D01*
D02*
G37*
G36*
X241534Y48000D02*
X240352D01*
Y55507D01*
X240343D01*
X240334Y55489D01*
X240306Y55470D01*
X240278Y55442D01*
X240184Y55357D01*
X240053Y55254D01*
X239893Y55133D01*
X239696Y54992D01*
X239471Y54842D01*
X239228Y54692D01*
X239218D01*
X239200Y54673D01*
X239162Y54655D01*
X239115Y54626D01*
X239050Y54589D01*
X238984Y54552D01*
X238815Y54467D01*
X238628Y54373D01*
X238422Y54270D01*
X238206Y54177D01*
X238000Y54092D01*
Y55226D01*
X238009Y55236D01*
X238047Y55245D01*
X238094Y55273D01*
X238169Y55311D01*
X238253Y55357D01*
X238347Y55414D01*
X238459Y55470D01*
X238581Y55545D01*
X238853Y55704D01*
X239144Y55901D01*
X239434Y56117D01*
X239725Y56351D01*
X239734Y56360D01*
X239753Y56379D01*
X239799Y56417D01*
X239846Y56463D01*
X239903Y56529D01*
X239978Y56595D01*
X240053Y56679D01*
X240137Y56763D01*
X240306Y56960D01*
X240474Y57176D01*
X240634Y57410D01*
X240709Y57523D01*
X240765Y57644D01*
X241534D01*
Y48000D01*
D02*
G37*
G36*
X206534Y176000D02*
X205352D01*
Y183507D01*
X205343D01*
X205334Y183489D01*
X205306Y183470D01*
X205278Y183442D01*
X205184Y183358D01*
X205053Y183254D01*
X204893Y183133D01*
X204696Y182992D01*
X204471Y182842D01*
X204228Y182692D01*
X204218D01*
X204200Y182673D01*
X204162Y182654D01*
X204115Y182626D01*
X204050Y182589D01*
X203984Y182551D01*
X203815Y182467D01*
X203628Y182373D01*
X203422Y182270D01*
X203206Y182176D01*
X203000Y182092D01*
Y183226D01*
X203009Y183236D01*
X203047Y183245D01*
X203094Y183273D01*
X203169Y183311D01*
X203253Y183358D01*
X203347Y183414D01*
X203459Y183470D01*
X203581Y183545D01*
X203853Y183704D01*
X204144Y183901D01*
X204434Y184117D01*
X204725Y184351D01*
X204734Y184360D01*
X204753Y184379D01*
X204799Y184417D01*
X204846Y184464D01*
X204903Y184529D01*
X204978Y184595D01*
X205053Y184679D01*
X205137Y184763D01*
X205306Y184960D01*
X205474Y185176D01*
X205634Y185410D01*
X205709Y185523D01*
X205765Y185644D01*
X206534D01*
Y176000D01*
D02*
G37*
%LPC*%
G36*
X310587Y245119D02*
X310512D01*
X310456Y245110D01*
X310381Y245100D01*
X310306Y245082D01*
X310119Y245035D01*
X310016Y244997D01*
X309912Y244950D01*
X309800Y244894D01*
X309697Y244828D01*
X309584Y244744D01*
X309481Y244650D01*
X309378Y244547D01*
X309284Y244425D01*
X309275Y244416D01*
X309256Y244388D01*
X309228Y244332D01*
X309191Y244247D01*
X309144Y244154D01*
X309097Y244022D01*
X309041Y243872D01*
X308985Y243694D01*
X308928Y243479D01*
X308872Y243244D01*
X308825Y242982D01*
X308778Y242682D01*
X308741Y242363D01*
X308713Y241998D01*
X308694Y241604D01*
X308685Y241182D01*
Y241173D01*
Y241154D01*
Y241126D01*
Y241079D01*
Y241023D01*
Y240958D01*
X308694Y240883D01*
Y240798D01*
X308703Y240611D01*
X308713Y240395D01*
X308731Y240152D01*
X308750Y239898D01*
X308816Y239374D01*
X308863Y239111D01*
X308919Y238858D01*
X308985Y238614D01*
X309060Y238389D01*
X309144Y238193D01*
X309238Y238033D01*
X309247Y238024D01*
X309266Y237996D01*
X309294Y237958D01*
X309341Y237911D01*
X309388Y237855D01*
X309453Y237790D01*
X309528Y237715D01*
X309613Y237649D01*
X309716Y237574D01*
X309819Y237499D01*
X310053Y237377D01*
X310175Y237330D01*
X310315Y237293D01*
X310456Y237265D01*
X310606Y237255D01*
X310644D01*
X310681Y237265D01*
X310737D01*
X310812Y237283D01*
X310887Y237293D01*
X310981Y237321D01*
X311075Y237349D01*
X311187Y237396D01*
X311290Y237443D01*
X311403Y237508D01*
X311515Y237583D01*
X311637Y237677D01*
X311749Y237780D01*
X311862Y237893D01*
X311965Y238033D01*
X311975Y238043D01*
X311993Y238071D01*
X312021Y238118D01*
X312049Y238193D01*
X312096Y238286D01*
X312143Y238408D01*
X312190Y238549D01*
X312246Y238727D01*
X312302Y238924D01*
X312349Y239149D01*
X312396Y239402D01*
X312443Y239692D01*
X312471Y240011D01*
X312499Y240367D01*
X312518Y240761D01*
X312527Y241182D01*
Y241192D01*
Y241211D01*
Y241239D01*
Y241286D01*
Y241342D01*
Y241407D01*
X312518Y241482D01*
Y241567D01*
X312509Y241754D01*
X312499Y241970D01*
X312481Y242213D01*
X312462Y242467D01*
X312396Y242991D01*
X312349Y243254D01*
X312293Y243516D01*
X312227Y243751D01*
X312162Y243976D01*
X312068Y244172D01*
X311975Y244332D01*
X311965Y244341D01*
X311946Y244369D01*
X311918Y244407D01*
X311871Y244454D01*
X311824Y244519D01*
X311759Y244585D01*
X311684Y244650D01*
X311590Y244725D01*
X311497Y244800D01*
X311393Y244866D01*
X311159Y244997D01*
X311028Y245044D01*
X310887Y245082D01*
X310737Y245110D01*
X310587Y245119D01*
D02*
G37*
G36*
X308159Y184829D02*
X308084D01*
X308027Y184820D01*
X307962Y184810D01*
X307877Y184792D01*
X307793Y184773D01*
X307690Y184745D01*
X307587Y184716D01*
X307474Y184670D01*
X307362Y184623D01*
X307249Y184557D01*
X307137Y184482D01*
X307015Y184398D01*
X306903Y184295D01*
X306790Y184182D01*
X306781Y184173D01*
X306762Y184154D01*
X306734Y184117D01*
X306696Y184070D01*
X306659Y184004D01*
X306603Y183929D01*
X306556Y183836D01*
X306500Y183732D01*
X306443Y183620D01*
X306397Y183498D01*
X306340Y183358D01*
X306303Y183217D01*
X306265Y183058D01*
X306237Y182889D01*
X306218Y182711D01*
X306209Y182523D01*
Y182514D01*
Y182486D01*
Y182439D01*
X306218Y182373D01*
X306228Y182289D01*
X306237Y182205D01*
X306256Y182102D01*
X306275Y181989D01*
X306340Y181755D01*
X306387Y181633D01*
X306443Y181511D01*
X306500Y181380D01*
X306575Y181258D01*
X306659Y181146D01*
X306753Y181033D01*
X306762Y181024D01*
X306781Y181005D01*
X306809Y180977D01*
X306856Y180949D01*
X306903Y180902D01*
X306968Y180855D01*
X307043Y180799D01*
X307128Y180752D01*
X307231Y180696D01*
X307334Y180639D01*
X307568Y180555D01*
X307690Y180518D01*
X307831Y180490D01*
X307971Y180471D01*
X308121Y180461D01*
X308205D01*
X308262Y180471D01*
X308327Y180480D01*
X308412Y180490D01*
X308505Y180508D01*
X308599Y180536D01*
X308815Y180602D01*
X308927Y180649D01*
X309040Y180705D01*
X309152Y180771D01*
X309265Y180846D01*
X309368Y180930D01*
X309471Y181033D01*
X309480Y181042D01*
X309489Y181061D01*
X309518Y181089D01*
X309555Y181136D01*
X309593Y181192D01*
X309639Y181267D01*
X309686Y181352D01*
X309743Y181446D01*
X309789Y181549D01*
X309836Y181670D01*
X309883Y181802D01*
X309921Y181942D01*
X309958Y182092D01*
X309986Y182261D01*
X309996Y182430D01*
X310005Y182617D01*
Y182626D01*
Y182664D01*
Y182711D01*
X309996Y182786D01*
X309986Y182870D01*
X309977Y182973D01*
X309958Y183076D01*
X309939Y183198D01*
X309874Y183451D01*
X309827Y183592D01*
X309780Y183723D01*
X309714Y183854D01*
X309639Y183986D01*
X309555Y184117D01*
X309461Y184229D01*
X309452Y184238D01*
X309433Y184257D01*
X309405Y184285D01*
X309368Y184323D01*
X309311Y184370D01*
X309255Y184417D01*
X309180Y184473D01*
X309096Y184529D01*
X308908Y184641D01*
X308683Y184735D01*
X308562Y184773D01*
X308440Y184801D01*
X308299Y184820D01*
X308159Y184829D01*
D02*
G37*
G36*
X281083Y245128D02*
X281017D01*
X280970Y245119D01*
X280914D01*
X280839Y245110D01*
X280689Y245072D01*
X280511Y245025D01*
X280324Y244941D01*
X280136Y244838D01*
X280043Y244763D01*
X279958Y244688D01*
Y244678D01*
X279939Y244669D01*
X279893Y244613D01*
X279818Y244519D01*
X279743Y244397D01*
X279658Y244247D01*
X279583Y244069D01*
X279536Y243872D01*
X279527Y243769D01*
X279518Y243657D01*
Y243647D01*
Y243629D01*
Y243591D01*
X279527Y243544D01*
Y243488D01*
X279536Y243423D01*
X279574Y243263D01*
X279621Y243085D01*
X279696Y242898D01*
X279808Y242710D01*
X279874Y242626D01*
X279949Y242542D01*
X279958D01*
X279968Y242523D01*
X279996Y242504D01*
X280033Y242476D01*
X280127Y242401D01*
X280258Y242326D01*
X280417Y242251D01*
X280614Y242176D01*
X280839Y242129D01*
X280961Y242120D01*
X281092Y242110D01*
X281158D01*
X281205Y242120D01*
X281261D01*
X281336Y242129D01*
X281486Y242167D01*
X281664Y242213D01*
X281852Y242288D01*
X282039Y242392D01*
X282123Y242457D01*
X282208Y242532D01*
X282217Y242542D01*
X282226Y242551D01*
X282245Y242579D01*
X282273Y242607D01*
X282348Y242701D01*
X282433Y242823D01*
X282508Y242982D01*
X282582Y243160D01*
X282629Y243366D01*
X282648Y243479D01*
Y243591D01*
Y243601D01*
Y243619D01*
Y243657D01*
X282639Y243704D01*
Y243751D01*
X282629Y243816D01*
X282592Y243966D01*
X282536Y244144D01*
X282461Y244322D01*
X282348Y244510D01*
X282273Y244594D01*
X282198Y244678D01*
X282189Y244688D01*
X282180Y244697D01*
X282151Y244716D01*
X282114Y244753D01*
X282020Y244819D01*
X281889Y244903D01*
X281730Y244988D01*
X281542Y245063D01*
X281327Y245110D01*
X281205Y245119D01*
X281083Y245128D01*
D02*
G37*
G36*
X281055Y241145D02*
X280970D01*
X280914Y241136D01*
X280849Y241126D01*
X280764Y241117D01*
X280671Y241098D01*
X280567Y241079D01*
X280352Y241014D01*
X280239Y240967D01*
X280117Y240911D01*
X280005Y240845D01*
X279893Y240779D01*
X279780Y240686D01*
X279677Y240592D01*
X279668Y240583D01*
X279658Y240564D01*
X279630Y240536D01*
X279593Y240489D01*
X279555Y240442D01*
X279508Y240376D01*
X279452Y240301D01*
X279405Y240217D01*
X279358Y240114D01*
X279302Y240011D01*
X279218Y239777D01*
X279180Y239645D01*
X279161Y239514D01*
X279143Y239364D01*
X279133Y239214D01*
Y239205D01*
Y239195D01*
Y239167D01*
Y239130D01*
X279143Y239027D01*
X279161Y238905D01*
X279190Y238755D01*
X279237Y238586D01*
X279293Y238418D01*
X279368Y238239D01*
Y238230D01*
X279377Y238221D01*
X279415Y238165D01*
X279471Y238080D01*
X279546Y237977D01*
X279639Y237855D01*
X279761Y237733D01*
X279902Y237612D01*
X280071Y237508D01*
X280080D01*
X280089Y237499D01*
X280117Y237490D01*
X280155Y237471D01*
X280249Y237424D01*
X280380Y237387D01*
X280530Y237340D01*
X280708Y237293D01*
X280896Y237265D01*
X281092Y237255D01*
X281177D01*
X281233Y237265D01*
X281308Y237274D01*
X281392Y237283D01*
X281486Y237302D01*
X281589Y237321D01*
X281805Y237387D01*
X281926Y237433D01*
X282039Y237480D01*
X282161Y237546D01*
X282273Y237612D01*
X282386Y237696D01*
X282489Y237790D01*
X282498Y237799D01*
X282517Y237818D01*
X282536Y237846D01*
X282573Y237893D01*
X282620Y237940D01*
X282667Y238005D01*
X282714Y238080D01*
X282770Y238165D01*
X282817Y238258D01*
X282864Y238371D01*
X282957Y238605D01*
X282995Y238736D01*
X283014Y238877D01*
X283032Y239027D01*
X283042Y239177D01*
Y239186D01*
Y239214D01*
Y239261D01*
X283032Y239317D01*
X283023Y239392D01*
X283014Y239477D01*
X282995Y239570D01*
X282967Y239674D01*
X282901Y239898D01*
X282854Y240011D01*
X282798Y240133D01*
X282733Y240245D01*
X282658Y240367D01*
X282573Y240480D01*
X282470Y240583D01*
X282461Y240592D01*
X282442Y240611D01*
X282414Y240639D01*
X282367Y240667D01*
X282311Y240714D01*
X282245Y240761D01*
X282170Y240808D01*
X282086Y240864D01*
X281983Y240920D01*
X281880Y240967D01*
X281636Y241061D01*
X281505Y241089D01*
X281364Y241117D01*
X281214Y241136D01*
X281055Y241145D01*
D02*
G37*
G36*
X256600Y241642D02*
X256525D01*
X256469Y241632D01*
X256403Y241623D01*
X256319Y241614D01*
X256234Y241595D01*
X256131Y241567D01*
X255925Y241501D01*
X255813Y241454D01*
X255691Y241398D01*
X255578Y241332D01*
X255466Y241248D01*
X255354Y241164D01*
X255250Y241061D01*
X255241Y241051D01*
X255222Y241033D01*
X255203Y241004D01*
X255166Y240958D01*
X255119Y240901D01*
X255072Y240836D01*
X255025Y240751D01*
X254979Y240658D01*
X254922Y240555D01*
X254876Y240442D01*
X254829Y240320D01*
X254782Y240189D01*
X254744Y240048D01*
X254725Y239889D01*
X254707Y239730D01*
X254697Y239561D01*
Y239552D01*
Y239533D01*
Y239505D01*
Y239458D01*
X254707Y239402D01*
Y239336D01*
X254725Y239186D01*
X254763Y239008D01*
X254800Y238811D01*
X254866Y238605D01*
X254951Y238389D01*
Y238380D01*
X254960Y238361D01*
X254979Y238333D01*
X254997Y238296D01*
X255054Y238202D01*
X255138Y238080D01*
X255241Y237940D01*
X255363Y237799D01*
X255513Y237668D01*
X255672Y237546D01*
X255681D01*
X255691Y237537D01*
X255719Y237518D01*
X255756Y237499D01*
X255841Y237452D01*
X255963Y237405D01*
X256113Y237349D01*
X256281Y237302D01*
X256460Y237265D01*
X256647Y237255D01*
X256722D01*
X256769Y237265D01*
X256834Y237274D01*
X256909Y237283D01*
X257087Y237330D01*
X257294Y237405D01*
X257397Y237452D01*
X257509Y237508D01*
X257612Y237574D01*
X257725Y237658D01*
X257828Y237752D01*
X257931Y237855D01*
X257940Y237865D01*
X257959Y237883D01*
X257978Y237921D01*
X258015Y237968D01*
X258053Y238024D01*
X258100Y238099D01*
X258156Y238183D01*
X258203Y238286D01*
X258250Y238399D01*
X258306Y238521D01*
X258353Y238652D01*
X258390Y238802D01*
X258428Y238961D01*
X258456Y239130D01*
X258465Y239308D01*
X258475Y239495D01*
Y239505D01*
Y239542D01*
Y239589D01*
X258465Y239664D01*
X258456Y239739D01*
X258446Y239842D01*
X258428Y239945D01*
X258409Y240067D01*
X258343Y240311D01*
X258306Y240442D01*
X258250Y240573D01*
X258184Y240704D01*
X258118Y240826D01*
X258034Y240948D01*
X257940Y241061D01*
X257931Y241070D01*
X257912Y241089D01*
X257884Y241117D01*
X257847Y241154D01*
X257790Y241192D01*
X257734Y241248D01*
X257659Y241295D01*
X257575Y241351D01*
X257481Y241407D01*
X257387Y241454D01*
X257153Y241548D01*
X257031Y241586D01*
X256891Y241614D01*
X256750Y241632D01*
X256600Y241642D01*
D02*
G37*
G36*
X327309Y149312D02*
X321059Y148999D01*
X320746D01*
X320434Y148687D01*
X320121Y148375D01*
Y132750D01*
X320434Y132437D01*
X327934D01*
X329809Y132750D01*
X331684Y133375D01*
X333871Y134937D01*
X334184Y135562D01*
X335121Y136812D01*
X336059Y138687D01*
X336371Y141187D01*
Y141500D01*
Y141812D01*
X336059Y143062D01*
X335434Y144937D01*
X333871Y146812D01*
X333559Y147125D01*
X331996Y148062D01*
X330121Y148999D01*
X327309Y149312D01*
D02*
G37*
G36*
X223873D02*
X216998Y148999D01*
X216685D01*
X216373Y148687D01*
X216060Y148375D01*
Y132750D01*
X216373D01*
X216685Y132437D01*
X224498D01*
X226060Y132750D01*
X227935Y133375D01*
X229810Y134937D01*
X230123Y135562D01*
X231060Y136812D01*
X231998Y138687D01*
X232310Y141187D01*
Y141500D01*
Y141812D01*
X231998Y143062D01*
X231373Y144937D01*
X229810Y146812D01*
X229498Y147125D01*
X228248Y148062D01*
X226373Y148999D01*
X223873Y149312D01*
D02*
G37*
G36*
X425745Y147125D02*
X425433D01*
X425120Y146500D01*
X420120Y125875D01*
Y125562D01*
X420433Y125250D01*
X420745Y124937D01*
X430433D01*
X430745Y125250D01*
X430433Y125875D01*
X426058Y146500D01*
Y146812D01*
X425745Y147125D01*
D02*
G37*
G36*
X231139Y244004D02*
X228121Y239664D01*
X231139D01*
Y244004D01*
D02*
G37*
G36*
X441456Y36510D02*
X438657Y36510D01*
Y32636D01*
X441693Y32636D01*
X441806Y32648D01*
X442043D01*
X442306Y32673D01*
X442568Y32698D01*
X442818Y32723D01*
X442930Y32748D01*
X443031Y32773D01*
X443043D01*
X443055Y32785D01*
X443130Y32810D01*
X443256Y32861D01*
X443393Y32923D01*
X443543Y33023D01*
X443705Y33123D01*
X443855Y33260D01*
X443993Y33410D01*
X444005Y33435D01*
X444043Y33498D01*
X444105Y33585D01*
X444168Y33723D01*
X444218Y33885D01*
X444280Y34073D01*
X444318Y34298D01*
X444330Y34535D01*
Y34548D01*
Y34560D01*
Y34598D01*
Y34648D01*
X444318Y34760D01*
X444293Y34910D01*
X444255Y35085D01*
X444193Y35285D01*
X444118Y35472D01*
X444018Y35660D01*
X444005Y35685D01*
X443968Y35735D01*
X443893Y35822D01*
X443793Y35922D01*
X443668Y36035D01*
X443518Y36147D01*
X443343Y36247D01*
X443143Y36322D01*
X443130D01*
X443118Y36335D01*
X443080D01*
X443031Y36347D01*
X442968Y36372D01*
X442893Y36385D01*
X442806Y36397D01*
X442693Y36422D01*
X442568Y36435D01*
X442418Y36447D01*
X442268Y36472D01*
X442093Y36485D01*
X441893Y36497D01*
X441681D01*
X441456Y36510D01*
D02*
G37*
G36*
X441831Y31123D02*
X438657Y31123D01*
Y26725D01*
X442118Y26725D01*
X442293Y26737D01*
X442481D01*
X442681Y26750D01*
X442856Y26762D01*
X442993Y26775D01*
X443018D01*
X443093Y26800D01*
X443205Y26825D01*
X443330Y26862D01*
X443493Y26912D01*
X443655Y26974D01*
X443818Y27037D01*
X443968Y27125D01*
X443980Y27137D01*
X444030Y27174D01*
X444105Y27225D01*
X444205Y27312D01*
X444305Y27412D01*
X444405Y27537D01*
X444518Y27674D01*
X444618Y27837D01*
X444630Y27862D01*
X444655Y27924D01*
X444705Y28024D01*
X444755Y28149D01*
X444793Y28312D01*
X444842Y28499D01*
X444868Y28699D01*
X444880Y28924D01*
Y28937D01*
Y28962D01*
Y28999D01*
Y29049D01*
X444855Y29174D01*
X444830Y29349D01*
X444780Y29536D01*
X444718Y29749D01*
X444618Y29961D01*
X444493Y30161D01*
X444480Y30186D01*
X444430Y30249D01*
X444343Y30336D01*
X444230Y30449D01*
X444080Y30574D01*
X443905Y30699D01*
X443693Y30811D01*
X443468Y30898D01*
X443455D01*
X443443Y30911D01*
X443405Y30924D01*
X443355Y30936D01*
X443280Y30949D01*
X443205Y30973D01*
X443106Y30986D01*
X442993Y31011D01*
X442868Y31036D01*
X442731Y31049D01*
X442581Y31074D01*
X442418Y31086D01*
X442231Y31098D01*
X442043Y31111D01*
X441831Y31123D01*
D02*
G37*
G36*
X454578Y36785D02*
X454503D01*
X454403Y36772D01*
X454278Y36760D01*
X454115Y36747D01*
X453940Y36722D01*
X453740Y36685D01*
X453515Y36635D01*
X453278Y36560D01*
X453028Y36485D01*
X452778Y36385D01*
X452516Y36260D01*
X452253Y36122D01*
X451991Y35960D01*
X451728Y35760D01*
X451478Y35547D01*
X451466Y35535D01*
X451428Y35485D01*
X451366Y35410D01*
X451278Y35310D01*
X451178Y35172D01*
X451066Y35010D01*
X450953Y34797D01*
X450841Y34573D01*
X450716Y34298D01*
X450604Y33998D01*
X450491Y33660D01*
X450391Y33285D01*
X450316Y32873D01*
X450241Y32436D01*
X450204Y31948D01*
X450191Y31423D01*
Y31411D01*
Y31398D01*
Y31323D01*
X450204Y31198D01*
X450216Y31036D01*
X450229Y30849D01*
X450254Y30624D01*
X450291Y30374D01*
X450341Y30099D01*
X450416Y29811D01*
X450491Y29511D01*
X450591Y29211D01*
X450716Y28911D01*
X450854Y28612D01*
X451016Y28312D01*
X451216Y28037D01*
X451428Y27774D01*
X451441Y27762D01*
X451491Y27712D01*
X451553Y27649D01*
X451653Y27562D01*
X451778Y27462D01*
X451928Y27349D01*
X452091Y27237D01*
X452291Y27112D01*
X452503Y26987D01*
X452741Y26874D01*
X453003Y26762D01*
X453278Y26662D01*
X453565Y26575D01*
X453878Y26512D01*
X454215Y26462D01*
X454553Y26450D01*
X454640D01*
X454740Y26462D01*
X454878Y26475D01*
X455040Y26487D01*
X455227Y26525D01*
X455440Y26562D01*
X455665Y26612D01*
X455915Y26687D01*
X456165Y26775D01*
X456427Y26887D01*
X456702Y27012D01*
X456964Y27162D01*
X457227Y27349D01*
X457477Y27549D01*
X457714Y27787D01*
X457727Y27799D01*
X457764Y27849D01*
X457827Y27924D01*
X457914Y28037D01*
X458002Y28174D01*
X458102Y28349D01*
X458214Y28537D01*
X458339Y28774D01*
X458452Y29024D01*
X458564Y29311D01*
X458664Y29624D01*
X458764Y29961D01*
X458839Y30336D01*
X458901Y30724D01*
X458939Y31149D01*
X458951Y31598D01*
Y31611D01*
Y31673D01*
Y31748D01*
X458939Y31861D01*
Y31998D01*
X458926Y32148D01*
X458901Y32336D01*
X458889Y32523D01*
X458852Y32736D01*
X458826Y32948D01*
X458727Y33410D01*
X458589Y33873D01*
X458514Y34098D01*
X458414Y34323D01*
Y34335D01*
X458389Y34373D01*
X458364Y34435D01*
X458314Y34523D01*
X458264Y34610D01*
X458189Y34722D01*
X458027Y34985D01*
X457802Y35285D01*
X457539Y35585D01*
X457227Y35872D01*
X457052Y36010D01*
X456865Y36135D01*
X456852Y36147D01*
X456814Y36160D01*
X456764Y36197D01*
X456689Y36235D01*
X456590Y36285D01*
X456477Y36335D01*
X456352Y36397D01*
X456202Y36460D01*
X456040Y36522D01*
X455865Y36585D01*
X455677Y36635D01*
X455477Y36685D01*
X455040Y36760D01*
X454815Y36772D01*
X454578Y36785D01*
D02*
G37*
G36*
X384858Y36772D02*
X384758D01*
X384683Y36760D01*
X384583Y36747D01*
X384483Y36722D01*
X384233Y36660D01*
X384096Y36609D01*
X383958Y36547D01*
X383808Y36472D01*
X383671Y36385D01*
X383521Y36272D01*
X383383Y36147D01*
X383246Y36010D01*
X383121Y35847D01*
X383108Y35835D01*
X383083Y35797D01*
X383046Y35722D01*
X382996Y35610D01*
X382933Y35485D01*
X382871Y35310D01*
X382796Y35110D01*
X382721Y34873D01*
X382646Y34585D01*
X382571Y34273D01*
X382509Y33923D01*
X382446Y33523D01*
X382396Y33098D01*
X382359Y32611D01*
X382334Y32086D01*
X382321Y31523D01*
Y31511D01*
Y31486D01*
Y31448D01*
Y31386D01*
Y31311D01*
Y31223D01*
X382334Y31123D01*
Y31011D01*
X382346Y30761D01*
X382359Y30474D01*
X382383Y30149D01*
X382408Y29811D01*
X382496Y29111D01*
X382559Y28761D01*
X382634Y28424D01*
X382721Y28099D01*
X382821Y27799D01*
X382933Y27537D01*
X383058Y27324D01*
X383071Y27312D01*
X383096Y27274D01*
X383133Y27224D01*
X383196Y27162D01*
X383258Y27087D01*
X383346Y26999D01*
X383446Y26899D01*
X383558Y26812D01*
X383696Y26712D01*
X383833Y26612D01*
X384146Y26450D01*
X384308Y26387D01*
X384496Y26337D01*
X384683Y26300D01*
X384883Y26287D01*
X384933D01*
X384983Y26300D01*
X385058D01*
X385158Y26325D01*
X385258Y26337D01*
X385383Y26375D01*
X385508Y26412D01*
X385658Y26475D01*
X385795Y26537D01*
X385945Y26625D01*
X386095Y26725D01*
X386258Y26850D01*
X386408Y26987D01*
X386558Y27137D01*
X386695Y27324D01*
X386707Y27337D01*
X386732Y27374D01*
X386770Y27437D01*
X386807Y27537D01*
X386870Y27662D01*
X386932Y27824D01*
X386995Y28012D01*
X387070Y28249D01*
X387145Y28512D01*
X387207Y28812D01*
X387270Y29149D01*
X387332Y29536D01*
X387370Y29961D01*
X387407Y30436D01*
X387432Y30961D01*
X387445Y31523D01*
Y31536D01*
Y31561D01*
Y31598D01*
Y31661D01*
Y31736D01*
Y31823D01*
X387432Y31923D01*
Y32036D01*
X387420Y32286D01*
X387407Y32573D01*
X387382Y32898D01*
X387357Y33235D01*
X387270Y33935D01*
X387207Y34285D01*
X387132Y34635D01*
X387045Y34948D01*
X386957Y35247D01*
X386832Y35510D01*
X386707Y35722D01*
X386695Y35735D01*
X386670Y35772D01*
X386632Y35822D01*
X386570Y35885D01*
X386507Y35972D01*
X386420Y36060D01*
X386320Y36147D01*
X386195Y36247D01*
X386070Y36347D01*
X385933Y36435D01*
X385620Y36609D01*
X385445Y36672D01*
X385258Y36722D01*
X385058Y36760D01*
X384858Y36772D01*
D02*
G37*
G36*
X468461Y55678D02*
X464787D01*
Y51105D01*
X468249D01*
X468362Y51117D01*
X468499D01*
X468649Y51142D01*
X468824Y51155D01*
X468999Y51180D01*
X469386Y51255D01*
X469774Y51354D01*
X469949Y51430D01*
X470124Y51505D01*
X470286Y51604D01*
X470424Y51704D01*
X470436Y51717D01*
X470448Y51729D01*
X470486Y51767D01*
X470536Y51817D01*
X470586Y51879D01*
X470648Y51954D01*
X470711Y52042D01*
X470773Y52154D01*
X470836Y52267D01*
X470898Y52392D01*
X470961Y52542D01*
X471011Y52692D01*
X471098Y53042D01*
X471111Y53229D01*
X471123Y53429D01*
Y53442D01*
Y53467D01*
Y53504D01*
Y53566D01*
X471111Y53629D01*
X471098Y53716D01*
X471073Y53904D01*
X471023Y54116D01*
X470948Y54341D01*
X470848Y54579D01*
X470711Y54804D01*
Y54816D01*
X470698Y54829D01*
X470636Y54891D01*
X470549Y54991D01*
X470424Y55116D01*
X470274Y55241D01*
X470086Y55366D01*
X469874Y55466D01*
X469636Y55553D01*
X469611D01*
X469549Y55578D01*
X469499D01*
X469436Y55591D01*
X469361Y55603D01*
X469286Y55616D01*
X469174Y55628D01*
X469061Y55641D01*
X468936Y55653D01*
X468799D01*
X468637Y55666D01*
X468461Y55678D01*
D02*
G37*
G36*
X454790Y55953D02*
X454715D01*
X454615Y55941D01*
X454490Y55928D01*
X454328Y55916D01*
X454153Y55891D01*
X453953Y55853D01*
X453728Y55803D01*
X453490Y55728D01*
X453240Y55653D01*
X452990Y55553D01*
X452728Y55429D01*
X452466Y55291D01*
X452203Y55128D01*
X451941Y54929D01*
X451691Y54716D01*
X451678Y54704D01*
X451641Y54654D01*
X451578Y54579D01*
X451491Y54479D01*
X451391Y54341D01*
X451278Y54179D01*
X451166Y53966D01*
X451054Y53741D01*
X450928Y53467D01*
X450816Y53166D01*
X450704Y52829D01*
X450604Y52454D01*
X450529Y52042D01*
X450454Y51604D01*
X450416Y51117D01*
X450404Y50592D01*
Y50580D01*
Y50567D01*
Y50492D01*
X450416Y50367D01*
X450429Y50205D01*
X450441Y50017D01*
X450466Y49792D01*
X450504Y49542D01*
X450554Y49268D01*
X450629Y48980D01*
X450704Y48680D01*
X450803Y48380D01*
X450928Y48080D01*
X451066Y47780D01*
X451228Y47481D01*
X451428Y47206D01*
X451641Y46943D01*
X451653Y46931D01*
X451703Y46881D01*
X451766Y46818D01*
X451866Y46731D01*
X451991Y46631D01*
X452141Y46518D01*
X452303Y46406D01*
X452503Y46281D01*
X452715Y46156D01*
X452953Y46043D01*
X453215Y45931D01*
X453490Y45831D01*
X453778Y45743D01*
X454090Y45681D01*
X454428Y45631D01*
X454765Y45619D01*
X454852D01*
X454953Y45631D01*
X455090Y45644D01*
X455252Y45656D01*
X455440Y45693D01*
X455652Y45731D01*
X455877Y45781D01*
X456127Y45856D01*
X456377Y45943D01*
X456640Y46056D01*
X456914Y46181D01*
X457177Y46331D01*
X457439Y46518D01*
X457689Y46718D01*
X457927Y46956D01*
X457939Y46968D01*
X457977Y47018D01*
X458039Y47093D01*
X458127Y47206D01*
X458214Y47343D01*
X458314Y47518D01*
X458427Y47705D01*
X458551Y47943D01*
X458664Y48193D01*
X458777Y48480D01*
X458876Y48793D01*
X458976Y49130D01*
X459051Y49505D01*
X459114Y49892D01*
X459151Y50317D01*
X459164Y50767D01*
Y50780D01*
Y50842D01*
Y50917D01*
X459151Y51030D01*
Y51167D01*
X459139Y51317D01*
X459114Y51505D01*
X459101Y51692D01*
X459064Y51904D01*
X459039Y52117D01*
X458939Y52579D01*
X458801Y53042D01*
X458727Y53267D01*
X458627Y53492D01*
Y53504D01*
X458601Y53541D01*
X458577Y53604D01*
X458526Y53691D01*
X458477Y53779D01*
X458402Y53891D01*
X458239Y54154D01*
X458014Y54454D01*
X457752Y54754D01*
X457439Y55041D01*
X457264Y55178D01*
X457077Y55304D01*
X457064Y55316D01*
X457027Y55328D01*
X456977Y55366D01*
X456902Y55403D01*
X456802Y55454D01*
X456689Y55503D01*
X456564Y55566D01*
X456415Y55628D01*
X456252Y55691D01*
X456077Y55753D01*
X455890Y55803D01*
X455690Y55853D01*
X455252Y55928D01*
X455027Y55941D01*
X454790Y55953D01*
D02*
G37*
G36*
X371149Y55941D02*
X371049D01*
X370974Y55928D01*
X370874Y55916D01*
X370774Y55891D01*
X370524Y55828D01*
X370387Y55778D01*
X370249Y55716D01*
X370099Y55641D01*
X369962Y55553D01*
X369812Y55441D01*
X369674Y55316D01*
X369537Y55178D01*
X369412Y55016D01*
X369399Y55003D01*
X369374Y54966D01*
X369337Y54891D01*
X369287Y54779D01*
X369224Y54654D01*
X369162Y54479D01*
X369087Y54279D01*
X369012Y54041D01*
X368937Y53754D01*
X368862Y53441D01*
X368800Y53092D01*
X368737Y52692D01*
X368687Y52267D01*
X368650Y51779D01*
X368625Y51255D01*
X368612Y50692D01*
Y50680D01*
Y50655D01*
Y50617D01*
Y50555D01*
Y50480D01*
Y50392D01*
X368625Y50292D01*
Y50180D01*
X368637Y49930D01*
X368650Y49642D01*
X368675Y49317D01*
X368699Y48980D01*
X368787Y48280D01*
X368849Y47930D01*
X368924Y47593D01*
X369012Y47268D01*
X369112Y46968D01*
X369224Y46706D01*
X369349Y46493D01*
X369362Y46481D01*
X369387Y46443D01*
X369424Y46393D01*
X369487Y46331D01*
X369549Y46256D01*
X369637Y46168D01*
X369737Y46068D01*
X369849Y45981D01*
X369987Y45881D01*
X370124Y45781D01*
X370437Y45619D01*
X370599Y45556D01*
X370787Y45506D01*
X370974Y45469D01*
X371174Y45456D01*
X371224D01*
X371274Y45469D01*
X371349D01*
X371449Y45493D01*
X371549Y45506D01*
X371674Y45543D01*
X371799Y45581D01*
X371949Y45643D01*
X372086Y45706D01*
X372236Y45793D01*
X372386Y45893D01*
X372549Y46018D01*
X372699Y46156D01*
X372849Y46306D01*
X372986Y46493D01*
X372998Y46506D01*
X373023Y46543D01*
X373061Y46606D01*
X373098Y46706D01*
X373161Y46831D01*
X373223Y46993D01*
X373286Y47181D01*
X373361Y47418D01*
X373436Y47680D01*
X373498Y47980D01*
X373561Y48318D01*
X373623Y48705D01*
X373661Y49130D01*
X373698Y49605D01*
X373723Y50130D01*
X373736Y50692D01*
Y50705D01*
Y50730D01*
Y50767D01*
Y50830D01*
Y50905D01*
Y50992D01*
X373723Y51092D01*
Y51205D01*
X373711Y51455D01*
X373698Y51742D01*
X373673Y52067D01*
X373648Y52404D01*
X373561Y53104D01*
X373498Y53454D01*
X373423Y53804D01*
X373336Y54116D01*
X373248Y54416D01*
X373123Y54679D01*
X372998Y54891D01*
X372986Y54904D01*
X372961Y54941D01*
X372924Y54991D01*
X372861Y55054D01*
X372799Y55141D01*
X372711Y55229D01*
X372611Y55316D01*
X372486Y55416D01*
X372361Y55516D01*
X372224Y55603D01*
X371911Y55778D01*
X371736Y55841D01*
X371549Y55891D01*
X371349Y55928D01*
X371149Y55941D01*
D02*
G37*
G36*
X395068Y71822D02*
X394968D01*
X394893Y71810D01*
X394805Y71797D01*
X394705Y71772D01*
X394593Y71747D01*
X394468Y71709D01*
X394330Y71659D01*
X394193Y71585D01*
X394043Y71509D01*
X393893Y71422D01*
X393731Y71310D01*
X393581Y71185D01*
X393431Y71035D01*
X393281Y70872D01*
X393268Y70860D01*
X393243Y70835D01*
X393206Y70772D01*
X393168Y70697D01*
X393106Y70597D01*
X393043Y70485D01*
X392968Y70335D01*
X392906Y70185D01*
X392831Y69997D01*
X392756Y69798D01*
X392693Y69573D01*
X392643Y69323D01*
X392593Y69060D01*
X392556Y68773D01*
X392531Y68460D01*
X392518Y68135D01*
Y68110D01*
Y68060D01*
Y67960D01*
X392531Y67848D01*
X392543Y67698D01*
X392556Y67523D01*
X392581Y67336D01*
X392606Y67136D01*
X392693Y66698D01*
X392756Y66486D01*
X392831Y66261D01*
X392906Y66048D01*
X393006Y65848D01*
X393118Y65661D01*
X393243Y65486D01*
X393256Y65474D01*
X393281Y65449D01*
X393318Y65411D01*
X393368Y65349D01*
X393443Y65286D01*
X393531Y65224D01*
X393618Y65136D01*
X393731Y65061D01*
X393993Y64911D01*
X394293Y64774D01*
X394455Y64711D01*
X394618Y64674D01*
X394805Y64649D01*
X394993Y64636D01*
X395093D01*
X395168Y64649D01*
X395255Y64661D01*
X395368Y64686D01*
X395480Y64711D01*
X395618Y64749D01*
X395755Y64799D01*
X395893Y64849D01*
X396043Y64924D01*
X396193Y65011D01*
X396343Y65111D01*
X396505Y65236D01*
X396655Y65374D01*
X396792Y65524D01*
X396805Y65536D01*
X396830Y65561D01*
X396867Y65623D01*
X396905Y65686D01*
X396967Y65786D01*
X397030Y65898D01*
X397092Y66036D01*
X397167Y66198D01*
X397242Y66386D01*
X397305Y66586D01*
X397367Y66811D01*
X397430Y67061D01*
X397467Y67323D01*
X397505Y67623D01*
X397530Y67935D01*
X397542Y68273D01*
Y68298D01*
Y68348D01*
Y68448D01*
X397530Y68560D01*
X397517Y68710D01*
X397505Y68885D01*
X397480Y69073D01*
X397455Y69273D01*
X397367Y69697D01*
X397305Y69922D01*
X397230Y70147D01*
X397142Y70360D01*
X397055Y70560D01*
X396930Y70760D01*
X396805Y70935D01*
X396792Y70947D01*
X396767Y70972D01*
X396730Y71022D01*
X396680Y71072D01*
X396605Y71135D01*
X396517Y71210D01*
X396430Y71297D01*
X396317Y71385D01*
X396068Y71547D01*
X395768Y71684D01*
X395605Y71734D01*
X395430Y71785D01*
X395255Y71810D01*
X395068Y71822D01*
D02*
G37*
%LPD*%
D10*
X475000Y15000D02*
G03*
X485000Y25000I0J10000D01*
G01*
X355000Y25000D02*
G03*
X365000Y15000I10000J0D01*
G01*
X485000Y75000D02*
G03*
X475000Y85000I-10000J0D01*
G01*
X365000D02*
G03*
X355000Y75000I0J-10000D01*
G01*
Y25000D02*
Y75000D01*
X365000Y15000D02*
X475000D01*
X365000Y85000D02*
X475000D01*
X485000Y25000D02*
Y75000D01*
X355000Y25000D02*
X355000D01*
D11*
X240000Y41722D02*
X245000D01*
M02*
