G04*
G04 #@! TF.GenerationSoftware,Altium Limited,Altium Designer,23.9.2 (47)*
G04*
G04 Layer_Physical_Order=1*
G04 Layer_Color=255*
%FSLAX44Y44*%
%MOMM*%
G71*
G04*
G04 #@! TF.SameCoordinates,BDA42284-3A0F-4055-A59D-1AE2AF1CB793*
G04*
G04*
G04 #@! TF.FilePolarity,Positive*
G04*
G01*
G75*
%ADD12R,0.3000X0.8000*%
%ADD13R,0.4000X0.8000*%
%ADD19C,0.2040*%
%ADD20C,3.0000*%
%ADD21C,1.5000*%
%ADD22R,1.5000X1.5000*%
G36*
X181551Y197554D02*
Y197166D01*
Y196520D01*
Y195356D01*
Y194580D01*
Y193804D01*
Y192769D01*
Y191734D01*
Y190441D01*
Y189018D01*
Y187466D01*
Y185655D01*
Y183715D01*
Y181646D01*
Y179318D01*
Y176731D01*
Y174015D01*
Y171040D01*
Y167936D01*
Y164574D01*
Y160823D01*
Y156943D01*
Y152804D01*
Y148406D01*
Y143621D01*
Y138706D01*
Y133403D01*
X181551Y127842D01*
Y58000D01*
X119276Y92921D01*
X57000Y58000D01*
Y127842D01*
X57000Y133403D01*
Y138706D01*
Y143621D01*
Y148406D01*
Y152804D01*
Y156943D01*
Y160823D01*
Y164573D01*
Y167936D01*
Y171040D01*
Y174015D01*
Y176731D01*
Y179318D01*
Y181646D01*
Y183715D01*
Y185655D01*
Y187466D01*
Y189018D01*
Y190441D01*
Y191734D01*
Y192769D01*
Y193804D01*
Y194580D01*
Y195356D01*
Y196520D01*
Y197166D01*
Y197554D01*
Y197684D01*
X119276Y162763D01*
X181551Y197684D01*
Y197554D01*
D02*
G37*
%LPC*%
G36*
X119276Y162763D02*
X57000Y127842D01*
X119276Y92921D01*
X181551Y127842D01*
X119276Y162763D01*
D02*
G37*
%LPD*%
D12*
X242500Y35222D02*
D03*
X247500D02*
D03*
X252500D02*
D03*
X257500D02*
D03*
X262500D02*
D03*
X267500D02*
D03*
X272500D02*
D03*
X277500D02*
D03*
X282500D02*
D03*
X287500D02*
D03*
X292500D02*
D03*
X297500D02*
D03*
D13*
X307000Y10222D02*
D03*
X233000D02*
D03*
D19*
X297500Y35222D02*
Y92500D01*
X347000Y142000D01*
Y201000D01*
X333500Y214500D02*
Y224840D01*
Y214500D02*
X347000Y201000D01*
X292500Y35222D02*
Y96500D01*
X333500Y137500D02*
Y199440D01*
X292500Y96500D02*
X333500Y137500D01*
X287500Y35222D02*
Y100500D01*
X319000Y132000D01*
X308100Y224840D02*
X308194Y224746D01*
Y214280D02*
Y224746D01*
Y214280D02*
X319000Y203474D01*
Y132000D02*
Y203474D01*
X282500Y35222D02*
Y104500D01*
X308100Y130100D01*
X277500Y107500D02*
X295000Y125000D01*
Y203794D01*
X282700Y121947D02*
Y199440D01*
X272500Y111748D02*
X282700Y121947D01*
X308100Y130100D02*
Y199440D01*
X219501Y126499D02*
Y211839D01*
X206500Y224840D02*
X219501Y211839D01*
X283319Y215475D02*
Y224221D01*
X282700Y224840D02*
X283319Y224221D01*
Y215475D02*
X295000Y203794D01*
X257839Y215475D02*
Y224301D01*
X267860Y35582D02*
Y205454D01*
X257300Y224840D02*
X257839Y224301D01*
Y215475D02*
X267860Y205454D01*
X277500Y35222D02*
Y107500D01*
X272500Y35222D02*
Y111748D01*
X267500Y35222D02*
X267860Y35582D01*
X262500Y35222D02*
Y114247D01*
X257300Y119447D02*
X262500Y114247D01*
X257300Y119447D02*
Y199440D01*
X231900Y123100D02*
X252500Y102500D01*
Y35222D02*
Y102500D01*
X244000Y116770D02*
X257500Y103270D01*
X244000Y116770D02*
Y204000D01*
X257500Y35222D02*
Y103270D01*
X233720Y214280D02*
X244000Y204000D01*
X231900Y224840D02*
X233720Y223020D01*
Y214280D02*
Y223020D01*
X231900Y123100D02*
Y199440D01*
X219501Y126499D02*
X247500Y98500D01*
Y35222D02*
Y98500D01*
X206500Y132500D02*
Y199440D01*
Y132500D02*
X242500Y96500D01*
Y35222D02*
Y96500D01*
D20*
X30000Y30000D02*
D03*
X520000D02*
D03*
Y220000D02*
D03*
X30000D02*
D03*
D21*
X333500Y224840D02*
D03*
X308100D02*
D03*
X282700D02*
D03*
X257300D02*
D03*
X231900D02*
D03*
X206500D02*
D03*
X333500Y199440D02*
D03*
X308100D02*
D03*
X282700D02*
D03*
X257300D02*
D03*
X231900D02*
D03*
D22*
X206500D02*
D03*
M02*
