G04*
G04 #@! TF.GenerationSoftware,Altium Limited,Altium Designer,23.8.1 (32)*
G04*
G04 Layer_Color=32896*
%FSLAX44Y44*%
%MOMM*%
G71*
G04*
G04 #@! TF.SameCoordinates,C3666710-2670-402F-B92E-87204BB45A74*
G04*
G04*
G04 #@! TF.FilePolarity,Positive*
G04*
G01*
G75*
%ADD11C,0.1000*%
G36*
X329743Y245925D02*
X329978Y245906D01*
X330203Y245869D01*
X330409Y245822D01*
X330606Y245766D01*
X330784Y245709D01*
X330943Y245644D01*
X331093Y245578D01*
X331224Y245513D01*
X331346Y245447D01*
X331440Y245391D01*
X331524Y245335D01*
X331590Y245288D01*
X331637Y245250D01*
X331665Y245231D01*
X331674Y245222D01*
X331815Y245082D01*
X331946Y244932D01*
X332058Y244772D01*
X332162Y244604D01*
X332246Y244425D01*
X332321Y244257D01*
X332387Y244088D01*
X332443Y243929D01*
X332480Y243769D01*
X332518Y243629D01*
X332546Y243498D01*
X332574Y243385D01*
X332583Y243291D01*
X332593Y243216D01*
X332602Y243179D01*
Y243160D01*
X331393Y243038D01*
X331384Y243207D01*
X331374Y243357D01*
X331346Y243507D01*
X331318Y243638D01*
X331271Y243760D01*
X331234Y243882D01*
X331187Y243985D01*
X331140Y244079D01*
X331093Y244163D01*
X331046Y244238D01*
X330999Y244304D01*
X330962Y244350D01*
X330934Y244388D01*
X330906Y244425D01*
X330896Y244435D01*
X330887Y244444D01*
X330784Y244538D01*
X330681Y244613D01*
X330568Y244688D01*
X330456Y244744D01*
X330231Y244838D01*
X330006Y244894D01*
X329912Y244913D01*
X329818Y244932D01*
X329734Y244941D01*
X329659Y244950D01*
X329603Y244960D01*
X329519D01*
X329369Y244950D01*
X329228Y244941D01*
X328975Y244885D01*
X328750Y244810D01*
X328647Y244763D01*
X328563Y244716D01*
X328478Y244669D01*
X328413Y244622D01*
X328347Y244585D01*
X328300Y244547D01*
X328263Y244519D01*
X328225Y244491D01*
X328216Y244482D01*
X328206Y244472D01*
X328113Y244379D01*
X328038Y244285D01*
X327972Y244182D01*
X327916Y244088D01*
X327822Y243891D01*
X327766Y243704D01*
X327728Y243535D01*
X327719Y243469D01*
X327710Y243413D01*
X327700Y243357D01*
Y243319D01*
Y243301D01*
Y243291D01*
X327710Y243169D01*
X327728Y243038D01*
X327757Y242916D01*
X327785Y242785D01*
X327878Y242551D01*
X327981Y242335D01*
X328038Y242242D01*
X328085Y242148D01*
X328131Y242073D01*
X328178Y242007D01*
X328206Y241951D01*
X328234Y241914D01*
X328253Y241885D01*
X328263Y241876D01*
X328375Y241726D01*
X328516Y241576D01*
X328666Y241407D01*
X328825Y241239D01*
X329172Y240901D01*
X329528Y240573D01*
X329697Y240423D01*
X329856Y240283D01*
X329997Y240152D01*
X330128Y240048D01*
X330231Y239955D01*
X330315Y239889D01*
X330362Y239852D01*
X330381Y239833D01*
X330559Y239683D01*
X330737Y239533D01*
X330896Y239392D01*
X331046Y239261D01*
X331177Y239130D01*
X331309Y239008D01*
X331421Y238896D01*
X331524Y238802D01*
X331618Y238708D01*
X331693Y238624D01*
X331759Y238549D01*
X331815Y238493D01*
X331862Y238446D01*
X331890Y238408D01*
X331909Y238389D01*
X331918Y238380D01*
X332105Y238146D01*
X332265Y237921D01*
X332396Y237705D01*
X332508Y237508D01*
X332593Y237340D01*
X332621Y237274D01*
X332649Y237218D01*
X332668Y237171D01*
X332687Y237134D01*
X332696Y237115D01*
Y237105D01*
X332743Y236956D01*
X332780Y236815D01*
X332799Y236674D01*
X332818Y236552D01*
X332827Y236440D01*
Y236365D01*
Y236309D01*
Y236299D01*
Y236290D01*
X326482D01*
Y237424D01*
X331196D01*
X331121Y237546D01*
X331037Y237658D01*
X330953Y237761D01*
X330878Y237865D01*
X330803Y237940D01*
X330746Y238005D01*
X330709Y238052D01*
X330700Y238061D01*
X330634Y238127D01*
X330550Y238202D01*
X330456Y238296D01*
X330353Y238389D01*
X330128Y238586D01*
X329903Y238783D01*
X329678Y238971D01*
X329584Y239055D01*
X329500Y239130D01*
X329434Y239186D01*
X329378Y239233D01*
X329341Y239261D01*
X329331Y239270D01*
X329106Y239467D01*
X328891Y239645D01*
X328694Y239823D01*
X328516Y239983D01*
X328347Y240133D01*
X328206Y240273D01*
X328066Y240405D01*
X327953Y240517D01*
X327850Y240620D01*
X327757Y240704D01*
X327691Y240779D01*
X327625Y240845D01*
X327578Y240892D01*
X327550Y240929D01*
X327532Y240948D01*
X327522Y240958D01*
X327325Y241182D01*
X327166Y241398D01*
X327025Y241604D01*
X326922Y241773D01*
X326838Y241923D01*
X326810Y241979D01*
X326782Y242035D01*
X326763Y242073D01*
X326744Y242101D01*
X326735Y242120D01*
Y242129D01*
X326651Y242335D01*
X326594Y242542D01*
X326548Y242738D01*
X326519Y242907D01*
X326501Y243057D01*
Y243113D01*
X326491Y243169D01*
Y243207D01*
Y243235D01*
Y243254D01*
Y243263D01*
X326501Y243469D01*
X326529Y243666D01*
X326566Y243863D01*
X326613Y244041D01*
X326679Y244210D01*
X326744Y244360D01*
X326819Y244510D01*
X326894Y244641D01*
X326969Y244763D01*
X327044Y244866D01*
X327110Y244950D01*
X327175Y245025D01*
X327222Y245091D01*
X327260Y245128D01*
X327288Y245156D01*
X327297Y245166D01*
X327457Y245297D01*
X327625Y245419D01*
X327794Y245522D01*
X327981Y245606D01*
X328159Y245681D01*
X328347Y245747D01*
X328525Y245794D01*
X328694Y245841D01*
X328862Y245869D01*
X329012Y245897D01*
X329144Y245916D01*
X329256Y245925D01*
X329359D01*
X329425Y245934D01*
X329491D01*
X329743Y245925D01*
D02*
G37*
G36*
X336520Y245813D02*
X336595Y245700D01*
X336754Y245466D01*
X336923Y245250D01*
X337092Y245053D01*
X337176Y244969D01*
X337251Y244885D01*
X337326Y244819D01*
X337382Y244753D01*
X337429Y244707D01*
X337476Y244669D01*
X337495Y244650D01*
X337504Y244641D01*
X337795Y244407D01*
X338085Y244191D01*
X338376Y243994D01*
X338647Y243835D01*
X338769Y243760D01*
X338882Y243704D01*
X338975Y243647D01*
X339060Y243601D01*
X339135Y243563D01*
X339182Y243535D01*
X339219Y243526D01*
X339229Y243516D01*
Y242382D01*
X339022Y242467D01*
X338807Y242560D01*
X338601Y242663D01*
X338413Y242757D01*
X338245Y242841D01*
X338179Y242879D01*
X338113Y242916D01*
X338066Y242945D01*
X338029Y242963D01*
X338010Y242982D01*
X338001D01*
X337757Y243132D01*
X337532Y243282D01*
X337335Y243423D01*
X337176Y243544D01*
X337045Y243647D01*
X336951Y243732D01*
X336923Y243760D01*
X336895Y243779D01*
X336885Y243797D01*
X336876D01*
Y236290D01*
X335695D01*
Y245934D01*
X336464D01*
X336520Y245813D01*
D02*
G37*
G36*
X336291Y184523D02*
X336366Y184410D01*
X336526Y184176D01*
X336694Y183960D01*
X336863Y183763D01*
X336947Y183679D01*
X337022Y183595D01*
X337097Y183529D01*
X337154Y183463D01*
X337200Y183417D01*
X337247Y183379D01*
X337266Y183360D01*
X337275Y183351D01*
X337566Y183117D01*
X337856Y182901D01*
X338147Y182704D01*
X338419Y182545D01*
X338541Y182470D01*
X338653Y182414D01*
X338747Y182358D01*
X338831Y182311D01*
X338906Y182273D01*
X338953Y182245D01*
X338991Y182236D01*
X339000Y182226D01*
Y181092D01*
X338794Y181176D01*
X338578Y181270D01*
X338372Y181373D01*
X338185Y181467D01*
X338016Y181551D01*
X337950Y181589D01*
X337885Y181626D01*
X337838Y181655D01*
X337800Y181673D01*
X337781Y181692D01*
X337772D01*
X337528Y181842D01*
X337304Y181992D01*
X337107Y182133D01*
X336947Y182254D01*
X336816Y182358D01*
X336722Y182442D01*
X336694Y182470D01*
X336666Y182489D01*
X336657Y182507D01*
X336647D01*
Y175000D01*
X335466D01*
Y184644D01*
X336235D01*
X336291Y184523D01*
D02*
G37*
G36*
X328831D02*
X328906Y184410D01*
X329065Y184176D01*
X329234Y183960D01*
X329402Y183763D01*
X329487Y183679D01*
X329562Y183595D01*
X329637Y183529D01*
X329693Y183463D01*
X329740Y183417D01*
X329787Y183379D01*
X329805Y183360D01*
X329815Y183351D01*
X330105Y183117D01*
X330396Y182901D01*
X330686Y182704D01*
X330958Y182545D01*
X331080Y182470D01*
X331193Y182414D01*
X331286Y182358D01*
X331371Y182311D01*
X331446Y182273D01*
X331493Y182245D01*
X331530Y182236D01*
X331539Y182226D01*
Y181092D01*
X331333Y181176D01*
X331118Y181270D01*
X330911Y181373D01*
X330724Y181467D01*
X330555Y181551D01*
X330490Y181589D01*
X330424Y181626D01*
X330377Y181655D01*
X330340Y181673D01*
X330321Y181692D01*
X330312D01*
X330068Y181842D01*
X329843Y181992D01*
X329646Y182133D01*
X329487Y182254D01*
X329356Y182358D01*
X329262Y182442D01*
X329234Y182470D01*
X329206Y182489D01*
X329196Y182507D01*
X329187D01*
Y175000D01*
X328006D01*
Y184644D01*
X328774D01*
X328831Y184523D01*
D02*
G37*
G36*
X307827Y245972D02*
X307902Y245859D01*
X308062Y245625D01*
X308230Y245410D01*
X308399Y245213D01*
X308483Y245128D01*
X308558Y245044D01*
X308633Y244978D01*
X308690Y244913D01*
X308736Y244866D01*
X308783Y244828D01*
X308802Y244810D01*
X308811Y244800D01*
X309102Y244566D01*
X309393Y244350D01*
X309683Y244154D01*
X309955Y243994D01*
X310077Y243919D01*
X310189Y243863D01*
X310283Y243807D01*
X310367Y243760D01*
X310442Y243722D01*
X310489Y243694D01*
X310527Y243685D01*
X310536Y243676D01*
Y242542D01*
X310330Y242626D01*
X310114Y242720D01*
X309908Y242823D01*
X309721Y242916D01*
X309552Y243001D01*
X309486Y243038D01*
X309421Y243076D01*
X309374Y243104D01*
X309336Y243123D01*
X309317Y243141D01*
X309308D01*
X309065Y243291D01*
X308839Y243441D01*
X308643Y243582D01*
X308483Y243704D01*
X308352Y243807D01*
X308258Y243891D01*
X308230Y243919D01*
X308202Y243938D01*
X308193Y243957D01*
X308183D01*
Y236449D01*
X307003D01*
Y246094D01*
X307771D01*
X307827Y245972D01*
D02*
G37*
G36*
X301051Y246084D02*
X301229Y246066D01*
X301407Y246038D01*
X301566Y246009D01*
X301726Y245963D01*
X301866Y245916D01*
X301998Y245869D01*
X302119Y245813D01*
X302222Y245756D01*
X302326Y245709D01*
X302401Y245663D01*
X302475Y245616D01*
X302522Y245588D01*
X302569Y245560D01*
X302588Y245541D01*
X302597Y245531D01*
X302719Y245419D01*
X302841Y245297D01*
X303057Y245044D01*
X303235Y244782D01*
X303375Y244519D01*
X303441Y244397D01*
X303488Y244285D01*
X303535Y244191D01*
X303572Y244097D01*
X303600Y244032D01*
X303619Y243976D01*
X303638Y243938D01*
Y243929D01*
X303694Y243722D01*
X303750Y243516D01*
X303835Y243057D01*
X303900Y242607D01*
X303919Y242382D01*
X303938Y242167D01*
X303956Y241960D01*
X303966Y241773D01*
X303975Y241614D01*
Y241464D01*
X303985Y241351D01*
Y241257D01*
Y241201D01*
Y241192D01*
Y241182D01*
X303975Y240695D01*
X303947Y240236D01*
X303900Y239823D01*
X303835Y239430D01*
X303769Y239083D01*
X303685Y238764D01*
X303600Y238474D01*
X303507Y238221D01*
X303422Y237996D01*
X303338Y237799D01*
X303253Y237640D01*
X303188Y237508D01*
X303122Y237405D01*
X303075Y237330D01*
X303047Y237293D01*
X303038Y237274D01*
X302888Y237105D01*
X302719Y236946D01*
X302541Y236815D01*
X302363Y236702D01*
X302185Y236609D01*
X301998Y236534D01*
X301819Y236468D01*
X301651Y236412D01*
X301491Y236374D01*
X301341Y236346D01*
X301201Y236318D01*
X301088Y236309D01*
X300985Y236299D01*
X300920Y236290D01*
X300854D01*
X300657Y236299D01*
X300479Y236318D01*
X300301Y236346D01*
X300142Y236374D01*
X299982Y236421D01*
X299842Y236468D01*
X299711Y236515D01*
X299589Y236571D01*
X299486Y236627D01*
X299392Y236674D01*
X299308Y236721D01*
X299242Y236768D01*
X299186Y236796D01*
X299148Y236824D01*
X299130Y236843D01*
X299120Y236852D01*
X298998Y236965D01*
X298876Y237087D01*
X298661Y237340D01*
X298483Y237612D01*
X298342Y237865D01*
X298277Y237986D01*
X298230Y238099D01*
X298183Y238193D01*
X298145Y238286D01*
X298117Y238352D01*
X298099Y238408D01*
X298080Y238446D01*
Y238455D01*
X298014Y238661D01*
X297958Y238867D01*
X297874Y239317D01*
X297808Y239777D01*
X297789Y239992D01*
X297771Y240208D01*
X297752Y240414D01*
X297742Y240592D01*
X297733Y240761D01*
Y240901D01*
X297724Y241023D01*
Y241108D01*
Y241164D01*
Y241182D01*
Y241445D01*
X297733Y241689D01*
X297742Y241923D01*
X297761Y242139D01*
X297780Y242345D01*
X297799Y242523D01*
X297817Y242701D01*
X297836Y242851D01*
X297855Y242991D01*
X297874Y243113D01*
X297892Y243216D01*
X297911Y243301D01*
X297930Y243366D01*
X297939Y243413D01*
X297949Y243441D01*
Y243451D01*
X298033Y243751D01*
X298136Y244032D01*
X298230Y244275D01*
X298277Y244379D01*
X298323Y244482D01*
X298370Y244566D01*
X298408Y244650D01*
X298445Y244716D01*
X298473Y244772D01*
X298502Y244819D01*
X298520Y244847D01*
X298539Y244866D01*
Y244875D01*
X298689Y245082D01*
X298848Y245269D01*
X299008Y245419D01*
X299158Y245550D01*
X299298Y245644D01*
X299401Y245719D01*
X299448Y245747D01*
X299476Y245756D01*
X299495Y245775D01*
X299504D01*
X299729Y245878D01*
X299964Y245963D01*
X300189Y246019D01*
X300395Y246056D01*
X300489Y246066D01*
X300582Y246075D01*
X300657Y246084D01*
X300723Y246094D01*
X300854D01*
X301051Y246084D01*
D02*
G37*
G36*
X309145Y184635D02*
X309379Y184607D01*
X309594Y184560D01*
X309801Y184504D01*
X309988Y184438D01*
X310166Y184363D01*
X310335Y184279D01*
X310485Y184204D01*
X310616Y184119D01*
X310738Y184035D01*
X310832Y183960D01*
X310916Y183895D01*
X310991Y183838D01*
X311038Y183792D01*
X311066Y183763D01*
X311075Y183754D01*
X311225Y183585D01*
X311357Y183398D01*
X311469Y183210D01*
X311572Y183014D01*
X311647Y182817D01*
X311722Y182620D01*
X311778Y182423D01*
X311825Y182245D01*
X311853Y182067D01*
X311881Y181908D01*
X311900Y181767D01*
X311919Y181645D01*
Y181542D01*
X311928Y181467D01*
Y181420D01*
Y181402D01*
X311919Y181139D01*
X311891Y180895D01*
X311853Y180670D01*
X311797Y180445D01*
X311741Y180249D01*
X311666Y180061D01*
X311591Y179883D01*
X311516Y179733D01*
X311441Y179593D01*
X311366Y179471D01*
X311291Y179368D01*
X311235Y179283D01*
X311178Y179218D01*
X311141Y179161D01*
X311113Y179133D01*
X311103Y179124D01*
X310944Y178974D01*
X310775Y178843D01*
X310607Y178721D01*
X310438Y178627D01*
X310269Y178543D01*
X310101Y178468D01*
X309941Y178412D01*
X309782Y178374D01*
X309641Y178337D01*
X309510Y178309D01*
X309388Y178290D01*
X309285Y178271D01*
X309201D01*
X309145Y178262D01*
X309088D01*
X308826Y178280D01*
X308582Y178318D01*
X308357Y178374D01*
X308160Y178440D01*
X308076Y178468D01*
X308001Y178496D01*
X307926Y178524D01*
X307870Y178552D01*
X307823Y178580D01*
X307795Y178590D01*
X307776Y178608D01*
X307767D01*
X307551Y178749D01*
X307354Y178899D01*
X307186Y179049D01*
X307045Y179190D01*
X306933Y179321D01*
X306858Y179424D01*
X306830Y179461D01*
X306811Y179489D01*
X306792Y179508D01*
Y179415D01*
Y179349D01*
Y179302D01*
Y179283D01*
X306801Y179011D01*
X306820Y178749D01*
X306848Y178505D01*
X306876Y178290D01*
X306895Y178187D01*
X306914Y178102D01*
X306933Y178027D01*
X306942Y177962D01*
X306951Y177915D01*
X306961Y177868D01*
X306970Y177849D01*
Y177840D01*
X307036Y177587D01*
X307111Y177371D01*
X307186Y177174D01*
X307261Y177015D01*
X307317Y176884D01*
X307364Y176790D01*
X307383Y176762D01*
X307401Y176734D01*
X307411Y176725D01*
Y176715D01*
X307514Y176565D01*
X307617Y176434D01*
X307729Y176322D01*
X307842Y176228D01*
X307936Y176153D01*
X308011Y176097D01*
X308057Y176059D01*
X308067Y176050D01*
X308076D01*
X308235Y175965D01*
X308395Y175909D01*
X308563Y175862D01*
X308704Y175834D01*
X308835Y175815D01*
X308938Y175806D01*
X309032D01*
X309257Y175825D01*
X309463Y175862D01*
X309641Y175919D01*
X309791Y175984D01*
X309913Y176050D01*
X309998Y176106D01*
X310054Y176143D01*
X310063Y176162D01*
X310072D01*
X310147Y176237D01*
X310213Y176322D01*
X310326Y176500D01*
X310419Y176696D01*
X310494Y176884D01*
X310550Y177062D01*
X310569Y177137D01*
X310588Y177203D01*
X310597Y177259D01*
X310607Y177296D01*
X310616Y177324D01*
Y177334D01*
X311750Y177231D01*
X311713Y177024D01*
X311675Y176828D01*
X311619Y176640D01*
X311553Y176472D01*
X311488Y176312D01*
X311422Y176172D01*
X311347Y176031D01*
X311272Y175919D01*
X311197Y175806D01*
X311132Y175722D01*
X311066Y175637D01*
X311010Y175572D01*
X310963Y175525D01*
X310925Y175487D01*
X310907Y175469D01*
X310897Y175459D01*
X310757Y175347D01*
X310616Y175253D01*
X310466Y175169D01*
X310307Y175103D01*
X310157Y175037D01*
X309998Y174991D01*
X309707Y174916D01*
X309576Y174897D01*
X309445Y174878D01*
X309332Y174859D01*
X309238Y174850D01*
X309163Y174841D01*
X309051D01*
X308854Y174850D01*
X308667Y174869D01*
X308489Y174897D01*
X308320Y174925D01*
X308151Y174972D01*
X308001Y175019D01*
X307861Y175066D01*
X307729Y175122D01*
X307617Y175178D01*
X307514Y175225D01*
X307420Y175272D01*
X307345Y175319D01*
X307279Y175347D01*
X307242Y175375D01*
X307214Y175394D01*
X307204Y175403D01*
X307064Y175515D01*
X306923Y175637D01*
X306689Y175900D01*
X306483Y176181D01*
X306314Y176443D01*
X306239Y176575D01*
X306183Y176687D01*
X306136Y176790D01*
X306089Y176884D01*
X306052Y176959D01*
X306033Y177015D01*
X306014Y177053D01*
Y177062D01*
X305939Y177278D01*
X305883Y177502D01*
X305827Y177737D01*
X305780Y177980D01*
X305705Y178468D01*
X305686Y178712D01*
X305658Y178937D01*
X305649Y179161D01*
X305630Y179358D01*
X305620Y179536D01*
Y179696D01*
X305611Y179818D01*
Y179911D01*
Y179949D01*
Y179977D01*
Y179986D01*
Y179996D01*
Y180314D01*
X305630Y180624D01*
X305649Y180905D01*
X305677Y181167D01*
X305705Y181411D01*
X305742Y181626D01*
X305770Y181833D01*
X305808Y182011D01*
X305845Y182170D01*
X305883Y182311D01*
X305920Y182423D01*
X305949Y182526D01*
X305977Y182601D01*
X305995Y182648D01*
X306005Y182686D01*
X306014Y182695D01*
X306089Y182864D01*
X306183Y183023D01*
X306277Y183173D01*
X306370Y183314D01*
X306464Y183445D01*
X306567Y183567D01*
X306661Y183670D01*
X306755Y183773D01*
X306848Y183857D01*
X306923Y183932D01*
X306998Y183988D01*
X307064Y184045D01*
X307120Y184082D01*
X307158Y184119D01*
X307186Y184129D01*
X307195Y184138D01*
X307345Y184232D01*
X307495Y184307D01*
X307645Y184373D01*
X307795Y184429D01*
X308076Y184523D01*
X308348Y184579D01*
X308460Y184607D01*
X308573Y184616D01*
X308667Y184626D01*
X308751Y184635D01*
X308817Y184644D01*
X308910D01*
X309145Y184635D01*
D02*
G37*
G36*
X280222Y246084D02*
X280447Y246066D01*
X280644Y246028D01*
X280840Y245981D01*
X281019Y245925D01*
X281187Y245869D01*
X281337Y245803D01*
X281469Y245738D01*
X281590Y245663D01*
X281703Y245597D01*
X281787Y245541D01*
X281862Y245485D01*
X281928Y245438D01*
X281965Y245400D01*
X281993Y245381D01*
X282003Y245372D01*
X282134Y245231D01*
X282246Y245091D01*
X282349Y244941D01*
X282434Y244800D01*
X282509Y244650D01*
X282565Y244500D01*
X282621Y244360D01*
X282659Y244229D01*
X282687Y244097D01*
X282715Y243976D01*
X282734Y243872D01*
X282743Y243788D01*
Y243713D01*
X282752Y243657D01*
Y243619D01*
Y243610D01*
X282734Y243357D01*
X282696Y243132D01*
X282640Y242926D01*
X282574Y242757D01*
X282518Y242617D01*
X282490Y242560D01*
X282462Y242504D01*
X282434Y242467D01*
X282425Y242438D01*
X282406Y242429D01*
Y242420D01*
X282256Y242242D01*
X282087Y242092D01*
X281900Y241960D01*
X281721Y241848D01*
X281562Y241764D01*
X281487Y241726D01*
X281431Y241698D01*
X281384Y241679D01*
X281337Y241660D01*
X281318Y241651D01*
X281309D01*
X281469Y241604D01*
X281618Y241548D01*
X281759Y241492D01*
X281890Y241426D01*
X282012Y241351D01*
X282125Y241276D01*
X282228Y241211D01*
X282321Y241136D01*
X282396Y241070D01*
X282471Y241004D01*
X282528Y240948D01*
X282584Y240892D01*
X282621Y240845D01*
X282649Y240817D01*
X282659Y240798D01*
X282668Y240789D01*
X282752Y240667D01*
X282818Y240545D01*
X282884Y240414D01*
X282940Y240283D01*
X283024Y240020D01*
X283081Y239767D01*
X283099Y239655D01*
X283109Y239552D01*
X283118Y239458D01*
X283127Y239383D01*
X283137Y239317D01*
Y239261D01*
Y239233D01*
Y239224D01*
X283127Y238989D01*
X283099Y238774D01*
X283052Y238568D01*
X283006Y238371D01*
X282940Y238183D01*
X282865Y238005D01*
X282790Y237846D01*
X282706Y237705D01*
X282621Y237574D01*
X282546Y237462D01*
X282471Y237358D01*
X282406Y237274D01*
X282349Y237208D01*
X282312Y237162D01*
X282284Y237134D01*
X282274Y237124D01*
X282106Y236974D01*
X281928Y236852D01*
X281740Y236740D01*
X281544Y236646D01*
X281356Y236562D01*
X281169Y236496D01*
X280981Y236440D01*
X280803Y236393D01*
X280634Y236356D01*
X280475Y236337D01*
X280334Y236318D01*
X280212Y236299D01*
X280119D01*
X280044Y236290D01*
X279978D01*
X279716Y236299D01*
X279472Y236327D01*
X279238Y236365D01*
X279022Y236421D01*
X278816Y236487D01*
X278629Y236552D01*
X278451Y236627D01*
X278291Y236712D01*
X278160Y236787D01*
X278029Y236862D01*
X277926Y236927D01*
X277841Y236993D01*
X277776Y237049D01*
X277719Y237087D01*
X277691Y237115D01*
X277682Y237124D01*
X277532Y237283D01*
X277391Y237452D01*
X277279Y237621D01*
X277176Y237799D01*
X277092Y237977D01*
X277026Y238146D01*
X276970Y238314D01*
X276923Y238474D01*
X276885Y238624D01*
X276857Y238764D01*
X276838Y238886D01*
X276820Y238989D01*
Y239074D01*
X276810Y239139D01*
Y239186D01*
Y239195D01*
X276820Y239364D01*
X276829Y239514D01*
X276885Y239814D01*
X276960Y240067D01*
X276998Y240189D01*
X277045Y240292D01*
X277092Y240386D01*
X277129Y240480D01*
X277167Y240545D01*
X277204Y240611D01*
X277232Y240658D01*
X277260Y240695D01*
X277269Y240714D01*
X277279Y240723D01*
X277373Y240836D01*
X277466Y240948D01*
X277682Y241136D01*
X277907Y241295D01*
X278123Y241426D01*
X278319Y241529D01*
X278404Y241567D01*
X278479Y241595D01*
X278535Y241623D01*
X278582Y241642D01*
X278610Y241651D01*
X278619D01*
X278366Y241764D01*
X278151Y241885D01*
X277973Y242007D01*
X277822Y242129D01*
X277710Y242242D01*
X277626Y242326D01*
X277579Y242392D01*
X277560Y242401D01*
Y242410D01*
X277438Y242607D01*
X277354Y242804D01*
X277288Y243001D01*
X277251Y243179D01*
X277223Y243338D01*
X277213Y243413D01*
Y243469D01*
X277204Y243516D01*
Y243554D01*
Y243573D01*
Y243582D01*
X277213Y243779D01*
X277232Y243957D01*
X277279Y244135D01*
X277326Y244304D01*
X277382Y244463D01*
X277448Y244604D01*
X277513Y244744D01*
X277588Y244866D01*
X277663Y244978D01*
X277729Y245072D01*
X277794Y245166D01*
X277851Y245231D01*
X277897Y245288D01*
X277935Y245325D01*
X277963Y245353D01*
X277973Y245363D01*
X278123Y245494D01*
X278282Y245606D01*
X278441Y245700D01*
X278610Y245784D01*
X278778Y245859D01*
X278947Y245916D01*
X279116Y245963D01*
X279275Y246000D01*
X279425Y246028D01*
X279557Y246056D01*
X279678Y246075D01*
X279791Y246084D01*
X279875Y246094D01*
X279997D01*
X280222Y246084D01*
D02*
G37*
G36*
X284960Y183510D02*
X280264D01*
X280433Y183314D01*
X280592Y183107D01*
X280911Y182686D01*
X281192Y182264D01*
X281323Y182058D01*
X281445Y181861D01*
X281557Y181683D01*
X281660Y181514D01*
X281745Y181364D01*
X281820Y181242D01*
X281876Y181130D01*
X281923Y181055D01*
X281951Y181008D01*
X281960Y180989D01*
X282242Y180427D01*
X282485Y179874D01*
X282598Y179611D01*
X282691Y179349D01*
X282785Y179105D01*
X282869Y178880D01*
X282945Y178665D01*
X283001Y178477D01*
X283057Y178309D01*
X283104Y178159D01*
X283132Y178046D01*
X283160Y177962D01*
X283169Y177906D01*
X283179Y177896D01*
Y177887D01*
X283254Y177596D01*
X283319Y177306D01*
X283376Y177043D01*
X283423Y176781D01*
X283469Y176546D01*
X283507Y176322D01*
X283535Y176115D01*
X283554Y175919D01*
X283573Y175750D01*
X283591Y175600D01*
X283601Y175469D01*
X283610Y175356D01*
Y175272D01*
X283619Y175216D01*
Y175169D01*
Y175159D01*
X282410D01*
X282363Y175684D01*
X282335Y175937D01*
X282298Y176172D01*
X282260Y176406D01*
X282223Y176621D01*
X282185Y176828D01*
X282148Y177015D01*
X282110Y177184D01*
X282082Y177334D01*
X282045Y177474D01*
X282017Y177587D01*
X281998Y177671D01*
X281979Y177737D01*
X281960Y177784D01*
Y177793D01*
X281867Y178112D01*
X281764Y178430D01*
X281651Y178740D01*
X281539Y179040D01*
X281426Y179321D01*
X281304Y179602D01*
X281192Y179855D01*
X281079Y180099D01*
X280976Y180324D01*
X280882Y180520D01*
X280798Y180699D01*
X280723Y180839D01*
X280658Y180961D01*
X280611Y181045D01*
X280583Y181102D01*
X280573Y181120D01*
X280404Y181420D01*
X280236Y181701D01*
X280067Y181964D01*
X279908Y182208D01*
X279748Y182442D01*
X279599Y182657D01*
X279449Y182854D01*
X279317Y183032D01*
X279195Y183192D01*
X279083Y183332D01*
X278989Y183445D01*
X278905Y183548D01*
X278839Y183623D01*
X278783Y183679D01*
X278755Y183717D01*
X278746Y183726D01*
Y184644D01*
X284960D01*
Y183510D01*
D02*
G37*
G36*
X255156Y246084D02*
X255419Y246047D01*
X255663Y245991D01*
X255897Y245925D01*
X256112Y245841D01*
X256309Y245747D01*
X256487Y245644D01*
X256656Y245541D01*
X256797Y245438D01*
X256928Y245335D01*
X257040Y245241D01*
X257125Y245156D01*
X257200Y245091D01*
X257256Y245035D01*
X257284Y244997D01*
X257293Y244988D01*
X257472Y244735D01*
X257631Y244454D01*
X257771Y244144D01*
X257884Y243826D01*
X257987Y243488D01*
X258062Y243151D01*
X258137Y242813D01*
X258184Y242485D01*
X258231Y242176D01*
X258259Y241885D01*
X258287Y241623D01*
X258296Y241501D01*
Y241398D01*
X258306Y241295D01*
Y241201D01*
X258315Y241126D01*
Y241061D01*
Y241004D01*
Y240967D01*
Y240948D01*
Y240939D01*
X258306Y240489D01*
X258278Y240077D01*
X258231Y239683D01*
X258165Y239336D01*
X258099Y239008D01*
X258025Y238717D01*
X257940Y238455D01*
X257846Y238221D01*
X257762Y238015D01*
X257678Y237846D01*
X257603Y237696D01*
X257528Y237574D01*
X257472Y237480D01*
X257425Y237424D01*
X257397Y237377D01*
X257387Y237368D01*
X257209Y237180D01*
X257022Y237012D01*
X256825Y236871D01*
X256619Y236749D01*
X256422Y236637D01*
X256216Y236552D01*
X256028Y236478D01*
X255841Y236421D01*
X255663Y236384D01*
X255503Y236346D01*
X255353Y236327D01*
X255231Y236309D01*
X255128Y236299D01*
X255053Y236290D01*
X254988D01*
X254828Y236299D01*
X254669Y236309D01*
X254379Y236356D01*
X254116Y236421D01*
X253994Y236459D01*
X253891Y236496D01*
X253788Y236534D01*
X253704Y236571D01*
X253629Y236609D01*
X253563Y236637D01*
X253507Y236665D01*
X253469Y236684D01*
X253451Y236702D01*
X253441D01*
X253198Y236871D01*
X252982Y237059D01*
X252804Y237255D01*
X252645Y237452D01*
X252523Y237621D01*
X252476Y237696D01*
X252439Y237761D01*
X252401Y237808D01*
X252382Y237846D01*
X252363Y237874D01*
Y237883D01*
X252232Y238183D01*
X252139Y238474D01*
X252064Y238755D01*
X252017Y239017D01*
X251998Y239139D01*
X251989Y239242D01*
X251979Y239336D01*
Y239421D01*
X251970Y239486D01*
Y239533D01*
Y239561D01*
Y239570D01*
X251979Y239823D01*
X252007Y240058D01*
X252045Y240283D01*
X252101Y240498D01*
X252167Y240695D01*
X252232Y240883D01*
X252307Y241051D01*
X252382Y241201D01*
X252467Y241342D01*
X252542Y241464D01*
X252607Y241567D01*
X252673Y241651D01*
X252729Y241717D01*
X252766Y241773D01*
X252795Y241801D01*
X252804Y241810D01*
X252963Y241960D01*
X253123Y242101D01*
X253291Y242213D01*
X253469Y242317D01*
X253638Y242401D01*
X253797Y242467D01*
X253966Y242523D01*
X254116Y242570D01*
X254257Y242607D01*
X254388Y242635D01*
X254510Y242654D01*
X254613Y242673D01*
X254697D01*
X254753Y242682D01*
X254810D01*
X255063Y242673D01*
X255297Y242635D01*
X255513Y242579D01*
X255709Y242523D01*
X255794Y242495D01*
X255869Y242467D01*
X255934Y242438D01*
X256000Y242410D01*
X256038Y242392D01*
X256075Y242373D01*
X256094Y242363D01*
X256103D01*
X256328Y242232D01*
X256525Y242082D01*
X256703Y241923D01*
X256853Y241764D01*
X256975Y241623D01*
X257031Y241557D01*
X257069Y241501D01*
X257097Y241464D01*
X257125Y241426D01*
X257134Y241407D01*
X257143Y241398D01*
X257134Y241660D01*
X257125Y241904D01*
X257106Y242139D01*
X257087Y242354D01*
X257059Y242551D01*
X257031Y242738D01*
X257003Y242898D01*
X256975Y243048D01*
X256947Y243179D01*
X256919Y243301D01*
X256890Y243394D01*
X256862Y243479D01*
X256844Y243535D01*
X256825Y243582D01*
X256815Y243610D01*
Y243619D01*
X256684Y243901D01*
X256544Y244135D01*
X256394Y244341D01*
X256253Y244510D01*
X256122Y244641D01*
X256028Y244735D01*
X255991Y244772D01*
X255963Y244791D01*
X255944Y244810D01*
X255934D01*
X255766Y244913D01*
X255597Y244997D01*
X255428Y245053D01*
X255278Y245091D01*
X255138Y245110D01*
X255035Y245128D01*
X254941D01*
X254810Y245119D01*
X254688Y245110D01*
X254463Y245053D01*
X254257Y244969D01*
X254088Y244875D01*
X253947Y244782D01*
X253891Y244744D01*
X253844Y244697D01*
X253807Y244669D01*
X253779Y244641D01*
X253769Y244632D01*
X253760Y244622D01*
X253657Y244491D01*
X253563Y244332D01*
X253488Y244163D01*
X253423Y243994D01*
X253376Y243844D01*
X253357Y243779D01*
X253338Y243722D01*
X253329Y243676D01*
X253319Y243638D01*
X253310Y243619D01*
Y243610D01*
X252139Y243704D01*
X252176Y243910D01*
X252223Y244097D01*
X252270Y244275D01*
X252335Y244444D01*
X252410Y244604D01*
X252476Y244744D01*
X252551Y244885D01*
X252626Y244997D01*
X252701Y245100D01*
X252776Y245194D01*
X252841Y245278D01*
X252898Y245344D01*
X252945Y245391D01*
X252982Y245428D01*
X253001Y245447D01*
X253010Y245456D01*
X253151Y245569D01*
X253301Y245663D01*
X253451Y245756D01*
X253610Y245822D01*
X253760Y245888D01*
X253919Y245934D01*
X254210Y246019D01*
X254350Y246038D01*
X254472Y246056D01*
X254585Y246075D01*
X254688Y246084D01*
X254763Y246094D01*
X254875D01*
X255156Y246084D01*
D02*
G37*
G36*
X257626Y179705D02*
X256520Y179564D01*
X256416Y179705D01*
X256295Y179836D01*
X256182Y179949D01*
X256060Y180052D01*
X255966Y180127D01*
X255882Y180183D01*
X255826Y180221D01*
X255817Y180230D01*
X255807D01*
X255629Y180314D01*
X255451Y180380D01*
X255282Y180427D01*
X255123Y180464D01*
X254982Y180483D01*
X254926D01*
X254870Y180492D01*
X254776D01*
X254608Y180483D01*
X254448Y180464D01*
X254298Y180436D01*
X254148Y180399D01*
X254017Y180352D01*
X253895Y180305D01*
X253783Y180249D01*
X253680Y180202D01*
X253595Y180146D01*
X253511Y180089D01*
X253445Y180042D01*
X253389Y179996D01*
X253342Y179958D01*
X253314Y179930D01*
X253295Y179911D01*
X253286Y179902D01*
X253183Y179789D01*
X253099Y179668D01*
X253023Y179536D01*
X252958Y179405D01*
X252902Y179274D01*
X252855Y179143D01*
X252789Y178890D01*
X252761Y178768D01*
X252742Y178655D01*
X252733Y178562D01*
X252724Y178477D01*
X252714Y178402D01*
Y178355D01*
Y178318D01*
Y178309D01*
X252724Y178112D01*
X252742Y177934D01*
X252771Y177756D01*
X252808Y177596D01*
X252855Y177446D01*
X252902Y177306D01*
X252958Y177174D01*
X253005Y177062D01*
X253061Y176959D01*
X253117Y176865D01*
X253164Y176781D01*
X253211Y176725D01*
X253249Y176668D01*
X253277Y176631D01*
X253295Y176612D01*
X253305Y176603D01*
X253417Y176490D01*
X253539Y176397D01*
X253661Y176312D01*
X253783Y176237D01*
X253904Y176172D01*
X254017Y176125D01*
X254251Y176050D01*
X254354Y176022D01*
X254448Y176003D01*
X254533Y175984D01*
X254608Y175975D01*
X254664Y175965D01*
X254748D01*
X254879Y175975D01*
X255001Y175984D01*
X255236Y176040D01*
X255442Y176106D01*
X255620Y176190D01*
X255770Y176275D01*
X255826Y176312D01*
X255873Y176350D01*
X255910Y176378D01*
X255938Y176397D01*
X255957Y176406D01*
X255966Y176415D01*
X256051Y176509D01*
X256135Y176603D01*
X256276Y176828D01*
X256379Y177053D01*
X256463Y177268D01*
X256529Y177474D01*
X256548Y177559D01*
X256566Y177634D01*
X256576Y177699D01*
X256585Y177746D01*
X256595Y177774D01*
Y177784D01*
X257832Y177681D01*
X257803Y177456D01*
X257757Y177249D01*
X257700Y177053D01*
X257635Y176865D01*
X257560Y176687D01*
X257485Y176528D01*
X257400Y176378D01*
X257316Y176247D01*
X257241Y176134D01*
X257157Y176031D01*
X257091Y175937D01*
X257026Y175862D01*
X256969Y175806D01*
X256932Y175769D01*
X256904Y175740D01*
X256894Y175731D01*
X256735Y175600D01*
X256566Y175487D01*
X256388Y175394D01*
X256210Y175309D01*
X256023Y175234D01*
X255845Y175178D01*
X255676Y175131D01*
X255507Y175094D01*
X255348Y175066D01*
X255207Y175037D01*
X255076Y175019D01*
X254964Y175009D01*
X254870D01*
X254804Y175000D01*
X254748D01*
X254457Y175009D01*
X254176Y175047D01*
X253923Y175103D01*
X253680Y175178D01*
X253455Y175272D01*
X253249Y175366D01*
X253061Y175469D01*
X252883Y175581D01*
X252733Y175694D01*
X252602Y175797D01*
X252489Y175890D01*
X252396Y175984D01*
X252321Y176059D01*
X252274Y176115D01*
X252236Y176153D01*
X252227Y176162D01*
X252096Y176340D01*
X251974Y176528D01*
X251871Y176725D01*
X251786Y176912D01*
X251711Y177099D01*
X251646Y177287D01*
X251599Y177474D01*
X251552Y177643D01*
X251524Y177802D01*
X251496Y177952D01*
X251477Y178084D01*
X251468Y178196D01*
Y178290D01*
X251458Y178355D01*
Y178393D01*
Y178412D01*
X251468Y178665D01*
X251496Y178908D01*
X251543Y179133D01*
X251590Y179349D01*
X251665Y179546D01*
X251730Y179733D01*
X251814Y179902D01*
X251889Y180052D01*
X251974Y180192D01*
X252058Y180314D01*
X252124Y180417D01*
X252189Y180502D01*
X252246Y180567D01*
X252292Y180624D01*
X252321Y180652D01*
X252330Y180661D01*
X252499Y180811D01*
X252667Y180952D01*
X252845Y181064D01*
X253023Y181167D01*
X253202Y181252D01*
X253380Y181317D01*
X253558Y181373D01*
X253717Y181420D01*
X253867Y181458D01*
X254008Y181486D01*
X254139Y181505D01*
X254242Y181523D01*
X254336D01*
X254401Y181533D01*
X254457D01*
X254636Y181523D01*
X254814Y181505D01*
X254982Y181476D01*
X255142Y181439D01*
X255451Y181336D01*
X255592Y181289D01*
X255723Y181233D01*
X255845Y181167D01*
X255948Y181120D01*
X256051Y181064D01*
X256126Y181017D01*
X256192Y180980D01*
X256238Y180952D01*
X256266Y180933D01*
X256276Y180924D01*
X255760Y183520D01*
X251908D01*
Y184644D01*
X256698D01*
X257626Y179705D01*
D02*
G37*
G36*
X203791Y184523D02*
X203866Y184410D01*
X204026Y184176D01*
X204194Y183960D01*
X204363Y183763D01*
X204447Y183679D01*
X204522Y183595D01*
X204597Y183529D01*
X204654Y183463D01*
X204701Y183417D01*
X204747Y183379D01*
X204766Y183360D01*
X204775Y183351D01*
X205066Y183117D01*
X205357Y182901D01*
X205647Y182704D01*
X205919Y182545D01*
X206041Y182470D01*
X206153Y182414D01*
X206247Y182358D01*
X206331Y182311D01*
X206406Y182273D01*
X206453Y182245D01*
X206491Y182236D01*
X206500Y182226D01*
Y181092D01*
X206294Y181176D01*
X206078Y181270D01*
X205872Y181373D01*
X205685Y181467D01*
X205516Y181551D01*
X205450Y181589D01*
X205385Y181626D01*
X205338Y181655D01*
X205300Y181673D01*
X205282Y181692D01*
X205272D01*
X205028Y181842D01*
X204804Y181992D01*
X204607Y182133D01*
X204447Y182254D01*
X204316Y182358D01*
X204223Y182442D01*
X204194Y182470D01*
X204166Y182489D01*
X204157Y182507D01*
X204147D01*
Y175000D01*
X202966D01*
Y184644D01*
X203735D01*
X203791Y184523D01*
D02*
G37*
G36*
X205279Y245925D02*
X205513Y245906D01*
X205738Y245869D01*
X205944Y245822D01*
X206141Y245766D01*
X206319Y245709D01*
X206479Y245644D01*
X206628Y245578D01*
X206760Y245513D01*
X206882Y245447D01*
X206975Y245391D01*
X207060Y245335D01*
X207125Y245288D01*
X207172Y245250D01*
X207200Y245231D01*
X207209Y245222D01*
X207350Y245082D01*
X207481Y244932D01*
X207594Y244772D01*
X207697Y244604D01*
X207781Y244425D01*
X207856Y244257D01*
X207922Y244088D01*
X207978Y243929D01*
X208016Y243769D01*
X208053Y243629D01*
X208081Y243498D01*
X208109Y243385D01*
X208119Y243291D01*
X208128Y243216D01*
X208137Y243179D01*
Y243160D01*
X206928Y243038D01*
X206919Y243207D01*
X206910Y243357D01*
X206882Y243507D01*
X206853Y243638D01*
X206807Y243760D01*
X206769Y243882D01*
X206722Y243985D01*
X206675Y244079D01*
X206628Y244163D01*
X206582Y244238D01*
X206535Y244304D01*
X206497Y244350D01*
X206469Y244388D01*
X206441Y244425D01*
X206432Y244435D01*
X206422Y244444D01*
X206319Y244538D01*
X206216Y244613D01*
X206104Y244688D01*
X205991Y244744D01*
X205766Y244838D01*
X205541Y244894D01*
X205448Y244913D01*
X205354Y244932D01*
X205269Y244941D01*
X205194Y244950D01*
X205138Y244960D01*
X205054D01*
X204904Y244950D01*
X204763Y244941D01*
X204510Y244885D01*
X204285Y244810D01*
X204182Y244763D01*
X204098Y244716D01*
X204014Y244669D01*
X203948Y244622D01*
X203882Y244585D01*
X203835Y244547D01*
X203798Y244519D01*
X203760Y244491D01*
X203751Y244482D01*
X203742Y244472D01*
X203648Y244379D01*
X203573Y244285D01*
X203507Y244182D01*
X203451Y244088D01*
X203357Y243891D01*
X203301Y243704D01*
X203264Y243535D01*
X203254Y243469D01*
X203245Y243413D01*
X203235Y243357D01*
Y243319D01*
Y243301D01*
Y243291D01*
X203245Y243169D01*
X203264Y243038D01*
X203292Y242916D01*
X203320Y242785D01*
X203414Y242551D01*
X203517Y242335D01*
X203573Y242242D01*
X203620Y242148D01*
X203667Y242073D01*
X203713Y242007D01*
X203742Y241951D01*
X203770Y241914D01*
X203789Y241885D01*
X203798Y241876D01*
X203910Y241726D01*
X204051Y241576D01*
X204201Y241407D01*
X204360Y241239D01*
X204707Y240901D01*
X205063Y240573D01*
X205232Y240423D01*
X205391Y240283D01*
X205532Y240152D01*
X205663Y240048D01*
X205766Y239955D01*
X205851Y239889D01*
X205897Y239852D01*
X205916Y239833D01*
X206094Y239683D01*
X206272Y239533D01*
X206432Y239392D01*
X206582Y239261D01*
X206713Y239130D01*
X206844Y239008D01*
X206957Y238896D01*
X207060Y238802D01*
X207153Y238708D01*
X207228Y238624D01*
X207294Y238549D01*
X207350Y238493D01*
X207397Y238446D01*
X207425Y238408D01*
X207444Y238389D01*
X207453Y238380D01*
X207641Y238146D01*
X207800Y237921D01*
X207931Y237705D01*
X208044Y237508D01*
X208128Y237340D01*
X208156Y237274D01*
X208184Y237218D01*
X208203Y237171D01*
X208222Y237134D01*
X208231Y237115D01*
Y237105D01*
X208278Y236956D01*
X208316Y236815D01*
X208334Y236674D01*
X208353Y236552D01*
X208362Y236440D01*
Y236365D01*
Y236309D01*
Y236299D01*
Y236290D01*
X202017D01*
Y237424D01*
X206731D01*
X206656Y237546D01*
X206572Y237658D01*
X206488Y237761D01*
X206413Y237865D01*
X206338Y237940D01*
X206282Y238005D01*
X206244Y238052D01*
X206235Y238061D01*
X206169Y238127D01*
X206085Y238202D01*
X205991Y238296D01*
X205888Y238389D01*
X205663Y238586D01*
X205438Y238783D01*
X205213Y238971D01*
X205119Y239055D01*
X205035Y239130D01*
X204970Y239186D01*
X204913Y239233D01*
X204876Y239261D01*
X204866Y239270D01*
X204641Y239467D01*
X204426Y239645D01*
X204229Y239823D01*
X204051Y239983D01*
X203882Y240133D01*
X203742Y240273D01*
X203601Y240405D01*
X203489Y240517D01*
X203386Y240620D01*
X203292Y240704D01*
X203226Y240779D01*
X203161Y240845D01*
X203114Y240892D01*
X203086Y240929D01*
X203067Y240948D01*
X203057Y240958D01*
X202861Y241182D01*
X202701Y241398D01*
X202561Y241604D01*
X202458Y241773D01*
X202373Y241923D01*
X202345Y241979D01*
X202317Y242035D01*
X202298Y242073D01*
X202279Y242101D01*
X202270Y242120D01*
Y242129D01*
X202186Y242335D01*
X202130Y242542D01*
X202083Y242738D01*
X202055Y242907D01*
X202036Y243057D01*
Y243113D01*
X202027Y243169D01*
Y243207D01*
Y243235D01*
Y243254D01*
Y243263D01*
X202036Y243469D01*
X202064Y243666D01*
X202101Y243863D01*
X202148Y244041D01*
X202214Y244210D01*
X202279Y244360D01*
X202355Y244510D01*
X202430Y244641D01*
X202505Y244763D01*
X202579Y244866D01*
X202645Y244950D01*
X202711Y245025D01*
X202757Y245091D01*
X202795Y245128D01*
X202823Y245156D01*
X202833Y245166D01*
X202992Y245297D01*
X203161Y245419D01*
X203329Y245522D01*
X203517Y245606D01*
X203695Y245681D01*
X203882Y245747D01*
X204060Y245794D01*
X204229Y245841D01*
X204398Y245869D01*
X204548Y245897D01*
X204679Y245916D01*
X204791Y245925D01*
X204895D01*
X204960Y245934D01*
X205026D01*
X205279Y245925D01*
D02*
G37*
G36*
X227986Y184635D02*
X228192Y184616D01*
X228379Y184588D01*
X228557Y184541D01*
X228726Y184494D01*
X228885Y184438D01*
X229035Y184382D01*
X229167Y184316D01*
X229279Y184260D01*
X229391Y184195D01*
X229476Y184138D01*
X229551Y184091D01*
X229617Y184045D01*
X229654Y184016D01*
X229682Y183998D01*
X229692Y183988D01*
X229823Y183857D01*
X229954Y183726D01*
X230066Y183576D01*
X230160Y183426D01*
X230254Y183276D01*
X230329Y183117D01*
X230404Y182967D01*
X230460Y182826D01*
X230516Y182686D01*
X230554Y182564D01*
X230591Y182442D01*
X230619Y182348D01*
X230638Y182264D01*
X230657Y182208D01*
X230666Y182161D01*
Y182151D01*
X229485Y181945D01*
X229457Y182104D01*
X229429Y182245D01*
X229382Y182386D01*
X229345Y182507D01*
X229298Y182629D01*
X229251Y182732D01*
X229195Y182826D01*
X229148Y182920D01*
X229101Y182995D01*
X229054Y183060D01*
X229017Y183117D01*
X228979Y183154D01*
X228951Y183192D01*
X228923Y183220D01*
X228913Y183229D01*
X228904Y183239D01*
X228820Y183314D01*
X228726Y183389D01*
X228529Y183492D01*
X228342Y183576D01*
X228154Y183623D01*
X227995Y183660D01*
X227929Y183670D01*
X227864D01*
X227817Y183679D01*
X227620D01*
X227508Y183660D01*
X227283Y183613D01*
X227086Y183538D01*
X226926Y183463D01*
X226795Y183389D01*
X226692Y183314D01*
X226664Y183285D01*
X226636Y183267D01*
X226627Y183257D01*
X226617Y183248D01*
X226542Y183164D01*
X226467Y183079D01*
X226364Y182901D01*
X226280Y182723D01*
X226233Y182554D01*
X226196Y182404D01*
X226186Y182339D01*
Y182283D01*
X226177Y182236D01*
Y182198D01*
Y182179D01*
Y182170D01*
X226186Y182020D01*
X226205Y181889D01*
X226233Y181758D01*
X226271Y181636D01*
X226317Y181533D01*
X226374Y181430D01*
X226420Y181336D01*
X226477Y181261D01*
X226542Y181186D01*
X226589Y181130D01*
X226645Y181073D01*
X226692Y181036D01*
X226730Y180998D01*
X226758Y180980D01*
X226777Y180970D01*
X226786Y180961D01*
X227020Y180830D01*
X227255Y180736D01*
X227479Y180661D01*
X227695Y180614D01*
X227789Y180605D01*
X227873Y180586D01*
X227948Y180577D01*
X228014D01*
X228070Y180567D01*
X228201D01*
X228267Y180577D01*
X228314Y180586D01*
X228332D01*
X228464Y179555D01*
X228286Y179593D01*
X228126Y179630D01*
X227986Y179649D01*
X227864Y179658D01*
X227770Y179668D01*
X227695Y179677D01*
X227639D01*
X227489Y179668D01*
X227348Y179658D01*
X227086Y179593D01*
X226852Y179508D01*
X226749Y179461D01*
X226655Y179415D01*
X226570Y179368D01*
X226505Y179321D01*
X226439Y179274D01*
X226383Y179236D01*
X226345Y179199D01*
X226317Y179171D01*
X226299Y179161D01*
X226289Y179152D01*
X226196Y179049D01*
X226111Y178946D01*
X226045Y178833D01*
X225980Y178721D01*
X225924Y178608D01*
X225886Y178496D01*
X225821Y178290D01*
X225802Y178187D01*
X225783Y178102D01*
X225774Y178018D01*
X225764Y177952D01*
X225755Y177887D01*
Y177849D01*
Y177821D01*
Y177812D01*
X225764Y177652D01*
X225783Y177502D01*
X225811Y177362D01*
X225839Y177231D01*
X225933Y176987D01*
X225989Y176875D01*
X226036Y176781D01*
X226092Y176687D01*
X226149Y176612D01*
X226196Y176546D01*
X226233Y176490D01*
X226271Y176443D01*
X226299Y176415D01*
X226317Y176397D01*
X226327Y176387D01*
X226439Y176284D01*
X226552Y176200D01*
X226664Y176125D01*
X226786Y176059D01*
X226908Y176003D01*
X227020Y175956D01*
X227245Y175890D01*
X227348Y175862D01*
X227442Y175844D01*
X227517Y175834D01*
X227592Y175825D01*
X227648Y175815D01*
X227733D01*
X227864Y175825D01*
X227986Y175834D01*
X228211Y175881D01*
X228417Y175956D01*
X228595Y176040D01*
X228736Y176115D01*
X228792Y176153D01*
X228839Y176190D01*
X228876Y176218D01*
X228904Y176237D01*
X228913Y176256D01*
X228923D01*
X229007Y176350D01*
X229092Y176443D01*
X229232Y176668D01*
X229354Y176912D01*
X229448Y177146D01*
X229485Y177259D01*
X229523Y177362D01*
X229551Y177465D01*
X229570Y177540D01*
X229588Y177615D01*
X229598Y177662D01*
X229607Y177699D01*
Y177709D01*
X230788Y177549D01*
X230760Y177324D01*
X230713Y177118D01*
X230657Y176921D01*
X230591Y176734D01*
X230516Y176556D01*
X230441Y176397D01*
X230357Y176247D01*
X230273Y176115D01*
X230188Y175993D01*
X230113Y175890D01*
X230038Y175806D01*
X229973Y175731D01*
X229916Y175665D01*
X229879Y175628D01*
X229851Y175600D01*
X229841Y175590D01*
X229682Y175459D01*
X229513Y175347D01*
X229335Y175244D01*
X229157Y175159D01*
X228988Y175084D01*
X228810Y175028D01*
X228642Y174972D01*
X228482Y174934D01*
X228323Y174906D01*
X228183Y174878D01*
X228061Y174859D01*
X227948Y174850D01*
X227864D01*
X227798Y174841D01*
X227742D01*
X227479Y174850D01*
X227236Y174878D01*
X227001Y174925D01*
X226786Y174981D01*
X226580Y175047D01*
X226392Y175112D01*
X226214Y175197D01*
X226055Y175281D01*
X225905Y175356D01*
X225783Y175441D01*
X225671Y175506D01*
X225586Y175581D01*
X225511Y175628D01*
X225455Y175675D01*
X225427Y175703D01*
X225418Y175712D01*
X225258Y175881D01*
X225118Y176050D01*
X224996Y176237D01*
X224883Y176415D01*
X224799Y176593D01*
X224724Y176771D01*
X224658Y176940D01*
X224611Y177099D01*
X224574Y177259D01*
X224546Y177399D01*
X224527Y177521D01*
X224508Y177634D01*
Y177718D01*
X224499Y177784D01*
Y177831D01*
Y177840D01*
X224508Y178009D01*
X224518Y178177D01*
X224574Y178477D01*
X224611Y178608D01*
X224649Y178740D01*
X224696Y178852D01*
X224733Y178965D01*
X224780Y179058D01*
X224827Y179143D01*
X224865Y179218D01*
X224902Y179274D01*
X224930Y179321D01*
X224958Y179358D01*
X224968Y179377D01*
X224977Y179386D01*
X225071Y179499D01*
X225165Y179602D01*
X225380Y179771D01*
X225605Y179921D01*
X225811Y180024D01*
X226008Y180108D01*
X226083Y180136D01*
X226158Y180164D01*
X226214Y180183D01*
X226261Y180192D01*
X226289Y180202D01*
X226299D01*
X226064Y180324D01*
X225867Y180455D01*
X225699Y180586D01*
X225558Y180717D01*
X225446Y180830D01*
X225371Y180924D01*
X225343Y180961D01*
X225324Y180989D01*
X225305Y180998D01*
Y181008D01*
X225193Y181205D01*
X225108Y181402D01*
X225052Y181589D01*
X225005Y181767D01*
X224986Y181917D01*
X224977Y181983D01*
Y182039D01*
X224968Y182086D01*
Y182114D01*
Y182133D01*
Y182142D01*
X224986Y182386D01*
X225024Y182611D01*
X225080Y182826D01*
X225146Y183004D01*
X225211Y183164D01*
X225240Y183229D01*
X225268Y183276D01*
X225286Y183323D01*
X225305Y183351D01*
X225324Y183370D01*
Y183379D01*
X225464Y183585D01*
X225624Y183773D01*
X225793Y183932D01*
X225961Y184063D01*
X226111Y184166D01*
X226167Y184213D01*
X226224Y184241D01*
X226271Y184270D01*
X226308Y184288D01*
X226327Y184307D01*
X226336D01*
X226589Y184419D01*
X226842Y184504D01*
X227076Y184560D01*
X227302Y184607D01*
X227404Y184616D01*
X227498Y184626D01*
X227573Y184635D01*
X227648D01*
X227705Y184644D01*
X227780D01*
X227986Y184635D01*
D02*
G37*
G36*
X233193Y239664D02*
Y238586D01*
X229023D01*
Y236290D01*
X227842D01*
Y238586D01*
X226548D01*
Y239664D01*
X227842D01*
Y245897D01*
X228807D01*
X233193Y239664D01*
D02*
G37*
G36*
X321515Y80635D02*
X321749Y80616D01*
X321974Y80579D01*
X322180Y80532D01*
X322377Y80476D01*
X322555Y80420D01*
X322715Y80354D01*
X322865Y80288D01*
X322996Y80223D01*
X323118Y80157D01*
X323211Y80101D01*
X323296Y80045D01*
X323361Y79998D01*
X323408Y79960D01*
X323436Y79942D01*
X323446Y79932D01*
X323586Y79791D01*
X323717Y79641D01*
X323830Y79482D01*
X323933Y79314D01*
X324017Y79135D01*
X324092Y78967D01*
X324158Y78798D01*
X324214Y78639D01*
X324252Y78479D01*
X324289Y78339D01*
X324317Y78208D01*
X324346Y78095D01*
X324355Y78001D01*
X324364Y77926D01*
X324374Y77889D01*
Y77870D01*
X323164Y77748D01*
X323155Y77917D01*
X323146Y78067D01*
X323118Y78217D01*
X323089Y78348D01*
X323043Y78470D01*
X323005Y78592D01*
X322958Y78695D01*
X322911Y78789D01*
X322865Y78873D01*
X322818Y78948D01*
X322771Y79014D01*
X322733Y79060D01*
X322705Y79098D01*
X322677Y79135D01*
X322668Y79145D01*
X322658Y79154D01*
X322555Y79248D01*
X322452Y79323D01*
X322340Y79398D01*
X322227Y79454D01*
X322002Y79548D01*
X321777Y79604D01*
X321684Y79623D01*
X321590Y79641D01*
X321506Y79651D01*
X321431Y79660D01*
X321374Y79670D01*
X321290D01*
X321140Y79660D01*
X320999Y79651D01*
X320746Y79595D01*
X320521Y79520D01*
X320418Y79473D01*
X320334Y79426D01*
X320250Y79379D01*
X320184Y79332D01*
X320118Y79295D01*
X320071Y79257D01*
X320034Y79229D01*
X319997Y79201D01*
X319987Y79192D01*
X319978Y79182D01*
X319884Y79089D01*
X319809Y78995D01*
X319743Y78892D01*
X319687Y78798D01*
X319594Y78601D01*
X319537Y78414D01*
X319500Y78245D01*
X319490Y78179D01*
X319481Y78123D01*
X319472Y78067D01*
Y78029D01*
Y78011D01*
Y78001D01*
X319481Y77880D01*
X319500Y77748D01*
X319528Y77626D01*
X319556Y77495D01*
X319650Y77261D01*
X319753Y77045D01*
X319809Y76952D01*
X319856Y76858D01*
X319903Y76783D01*
X319950Y76717D01*
X319978Y76661D01*
X320006Y76624D01*
X320025Y76596D01*
X320034Y76586D01*
X320146Y76436D01*
X320287Y76286D01*
X320437Y76117D01*
X320596Y75949D01*
X320943Y75611D01*
X321299Y75283D01*
X321468Y75133D01*
X321627Y74993D01*
X321768Y74861D01*
X321899Y74758D01*
X322002Y74665D01*
X322087Y74599D01*
X322133Y74562D01*
X322152Y74543D01*
X322330Y74393D01*
X322508Y74243D01*
X322668Y74102D01*
X322818Y73971D01*
X322949Y73840D01*
X323080Y73718D01*
X323193Y73606D01*
X323296Y73512D01*
X323389Y73418D01*
X323464Y73334D01*
X323530Y73259D01*
X323586Y73203D01*
X323633Y73156D01*
X323661Y73118D01*
X323680Y73099D01*
X323689Y73090D01*
X323877Y72856D01*
X324036Y72631D01*
X324167Y72415D01*
X324280Y72218D01*
X324364Y72050D01*
X324392Y71984D01*
X324420Y71928D01*
X324439Y71881D01*
X324458Y71844D01*
X324467Y71825D01*
Y71815D01*
X324514Y71666D01*
X324552Y71525D01*
X324570Y71384D01*
X324589Y71262D01*
X324599Y71150D01*
Y71075D01*
Y71019D01*
Y71009D01*
Y71000D01*
X318253D01*
Y72134D01*
X322968D01*
X322893Y72256D01*
X322808Y72368D01*
X322724Y72471D01*
X322649Y72575D01*
X322574Y72650D01*
X322518Y72715D01*
X322480Y72762D01*
X322471Y72771D01*
X322405Y72837D01*
X322321Y72912D01*
X322227Y73006D01*
X322124Y73099D01*
X321899Y73296D01*
X321674Y73493D01*
X321449Y73681D01*
X321356Y73765D01*
X321271Y73840D01*
X321206Y73896D01*
X321149Y73943D01*
X321112Y73971D01*
X321102Y73980D01*
X320878Y74177D01*
X320662Y74355D01*
X320465Y74534D01*
X320287Y74693D01*
X320118Y74843D01*
X319978Y74983D01*
X319837Y75115D01*
X319725Y75227D01*
X319622Y75330D01*
X319528Y75415D01*
X319462Y75490D01*
X319397Y75555D01*
X319350Y75602D01*
X319322Y75639D01*
X319303Y75658D01*
X319294Y75668D01*
X319097Y75893D01*
X318937Y76108D01*
X318797Y76314D01*
X318694Y76483D01*
X318609Y76633D01*
X318581Y76689D01*
X318553Y76745D01*
X318534Y76783D01*
X318516Y76811D01*
X318506Y76830D01*
Y76839D01*
X318422Y77045D01*
X318366Y77252D01*
X318319Y77448D01*
X318291Y77617D01*
X318272Y77767D01*
Y77823D01*
X318263Y77880D01*
Y77917D01*
Y77945D01*
Y77964D01*
Y77973D01*
X318272Y78179D01*
X318300Y78376D01*
X318338Y78573D01*
X318384Y78751D01*
X318450Y78920D01*
X318516Y79070D01*
X318591Y79220D01*
X318666Y79351D01*
X318741Y79473D01*
X318816Y79576D01*
X318881Y79660D01*
X318947Y79735D01*
X318994Y79801D01*
X319031Y79838D01*
X319059Y79866D01*
X319069Y79876D01*
X319228Y80007D01*
X319397Y80129D01*
X319565Y80232D01*
X319753Y80316D01*
X319931Y80391D01*
X320118Y80457D01*
X320297Y80504D01*
X320465Y80551D01*
X320634Y80579D01*
X320784Y80607D01*
X320915Y80626D01*
X321028Y80635D01*
X321131D01*
X321196Y80644D01*
X321262D01*
X321515Y80635D01*
D02*
G37*
G36*
X328291Y80523D02*
X328366Y80410D01*
X328526Y80176D01*
X328694Y79960D01*
X328863Y79763D01*
X328947Y79679D01*
X329022Y79595D01*
X329097Y79529D01*
X329154Y79464D01*
X329201Y79417D01*
X329247Y79379D01*
X329266Y79360D01*
X329275Y79351D01*
X329566Y79117D01*
X329856Y78901D01*
X330147Y78704D01*
X330419Y78545D01*
X330541Y78470D01*
X330653Y78414D01*
X330747Y78358D01*
X330831Y78311D01*
X330906Y78273D01*
X330953Y78245D01*
X330991Y78236D01*
X331000Y78226D01*
Y77092D01*
X330794Y77177D01*
X330578Y77270D01*
X330372Y77373D01*
X330185Y77467D01*
X330016Y77551D01*
X329950Y77589D01*
X329885Y77626D01*
X329838Y77655D01*
X329800Y77673D01*
X329782Y77692D01*
X329772D01*
X329529Y77842D01*
X329304Y77992D01*
X329107Y78133D01*
X328947Y78254D01*
X328816Y78358D01*
X328722Y78442D01*
X328694Y78470D01*
X328666Y78489D01*
X328657Y78507D01*
X328647D01*
Y71000D01*
X327467D01*
Y80644D01*
X328235D01*
X328291Y80523D01*
D02*
G37*
G36*
X212291D02*
X212366Y80410D01*
X212526Y80176D01*
X212694Y79960D01*
X212863Y79763D01*
X212947Y79679D01*
X213022Y79595D01*
X213097Y79529D01*
X213153Y79464D01*
X213200Y79417D01*
X213247Y79379D01*
X213266Y79360D01*
X213275Y79351D01*
X213566Y79117D01*
X213857Y78901D01*
X214147Y78704D01*
X214419Y78545D01*
X214541Y78470D01*
X214653Y78414D01*
X214747Y78358D01*
X214831Y78311D01*
X214906Y78273D01*
X214953Y78245D01*
X214991Y78236D01*
X215000Y78226D01*
Y77092D01*
X214794Y77177D01*
X214578Y77270D01*
X214372Y77373D01*
X214184Y77467D01*
X214016Y77551D01*
X213950Y77589D01*
X213885Y77626D01*
X213838Y77655D01*
X213800Y77673D01*
X213782Y77692D01*
X213772D01*
X213528Y77842D01*
X213304Y77992D01*
X213107Y78133D01*
X212947Y78254D01*
X212816Y78358D01*
X212722Y78442D01*
X212694Y78470D01*
X212666Y78489D01*
X212657Y78507D01*
X212647D01*
Y71000D01*
X211467D01*
Y80644D01*
X212235D01*
X212291Y80523D01*
D02*
G37*
%LPC*%
G36*
X300948Y245119D02*
X300873D01*
X300723Y245110D01*
X300573Y245082D01*
X300432Y245044D01*
X300301Y244997D01*
X300067Y244866D01*
X299964Y244800D01*
X299870Y244725D01*
X299776Y244650D01*
X299701Y244585D01*
X299636Y244519D01*
X299589Y244454D01*
X299542Y244407D01*
X299514Y244369D01*
X299495Y244341D01*
X299486Y244332D01*
X299392Y244172D01*
X299298Y243976D01*
X299233Y243751D01*
X299167Y243516D01*
X299111Y243254D01*
X299064Y242991D01*
X298998Y242467D01*
X298980Y242213D01*
X298961Y241970D01*
X298951Y241754D01*
X298942Y241567D01*
Y241482D01*
X298933Y241407D01*
Y241342D01*
Y241286D01*
Y241239D01*
Y241211D01*
Y241192D01*
Y241182D01*
X298942Y240761D01*
X298961Y240367D01*
X298989Y240011D01*
X299017Y239692D01*
X299064Y239402D01*
X299111Y239149D01*
X299158Y238924D01*
X299214Y238727D01*
X299270Y238549D01*
X299317Y238408D01*
X299364Y238286D01*
X299411Y238193D01*
X299439Y238118D01*
X299467Y238071D01*
X299486Y238043D01*
X299495Y238033D01*
X299598Y237893D01*
X299711Y237780D01*
X299823Y237677D01*
X299945Y237583D01*
X300057Y237508D01*
X300170Y237443D01*
X300273Y237396D01*
X300385Y237349D01*
X300479Y237321D01*
X300573Y237293D01*
X300648Y237283D01*
X300723Y237265D01*
X300779D01*
X300817Y237255D01*
X300854D01*
X301004Y237265D01*
X301145Y237293D01*
X301285Y237330D01*
X301407Y237377D01*
X301641Y237499D01*
X301744Y237574D01*
X301848Y237649D01*
X301932Y237715D01*
X302007Y237790D01*
X302073Y237855D01*
X302119Y237911D01*
X302166Y237958D01*
X302194Y237996D01*
X302213Y238024D01*
X302222Y238033D01*
X302316Y238193D01*
X302401Y238389D01*
X302475Y238614D01*
X302541Y238858D01*
X302597Y239111D01*
X302644Y239374D01*
X302710Y239898D01*
X302729Y240152D01*
X302747Y240395D01*
X302757Y240611D01*
X302766Y240798D01*
Y240883D01*
X302775Y240958D01*
Y241023D01*
Y241079D01*
Y241126D01*
Y241154D01*
Y241173D01*
Y241182D01*
X302766Y241604D01*
X302747Y241998D01*
X302719Y242363D01*
X302682Y242682D01*
X302635Y242982D01*
X302588Y243244D01*
X302532Y243479D01*
X302475Y243694D01*
X302419Y243872D01*
X302363Y244022D01*
X302316Y244154D01*
X302269Y244247D01*
X302232Y244332D01*
X302204Y244388D01*
X302185Y244416D01*
X302176Y244425D01*
X302082Y244547D01*
X301979Y244650D01*
X301876Y244744D01*
X301763Y244828D01*
X301660Y244894D01*
X301548Y244950D01*
X301445Y244997D01*
X301341Y245035D01*
X301154Y245082D01*
X301079Y245100D01*
X301004Y245110D01*
X300948Y245119D01*
D02*
G37*
G36*
X308845Y183670D02*
X308770D01*
X308629Y183660D01*
X308489Y183641D01*
X308367Y183613D01*
X308245Y183576D01*
X308020Y183482D01*
X307832Y183370D01*
X307748Y183314D01*
X307673Y183257D01*
X307617Y183210D01*
X307561Y183164D01*
X307523Y183126D01*
X307495Y183098D01*
X307476Y183079D01*
X307467Y183070D01*
X307373Y182957D01*
X307289Y182826D01*
X307214Y182695D01*
X307148Y182564D01*
X307101Y182432D01*
X307055Y182292D01*
X306989Y182039D01*
X306970Y181917D01*
X306951Y181814D01*
X306942Y181711D01*
X306933Y181626D01*
X306923Y181551D01*
Y181505D01*
Y181467D01*
Y181458D01*
X306933Y181270D01*
X306942Y181102D01*
X306970Y180933D01*
X307008Y180783D01*
X307045Y180642D01*
X307092Y180511D01*
X307139Y180389D01*
X307186Y180286D01*
X307242Y180192D01*
X307289Y180108D01*
X307336Y180033D01*
X307373Y179977D01*
X307411Y179930D01*
X307439Y179902D01*
X307448Y179883D01*
X307458Y179874D01*
X307561Y179771D01*
X307664Y179686D01*
X307776Y179611D01*
X307889Y179546D01*
X308001Y179489D01*
X308114Y179443D01*
X308329Y179377D01*
X308423Y179349D01*
X308517Y179330D01*
X308601Y179321D01*
X308667Y179311D01*
X308723Y179302D01*
X308807D01*
X308957Y179311D01*
X309098Y179330D01*
X309238Y179358D01*
X309360Y179396D01*
X309594Y179480D01*
X309698Y179536D01*
X309801Y179593D01*
X309885Y179639D01*
X309960Y179696D01*
X310026Y179743D01*
X310072Y179789D01*
X310119Y179818D01*
X310147Y179846D01*
X310166Y179864D01*
X310176Y179874D01*
X310269Y179986D01*
X310354Y180099D01*
X310429Y180221D01*
X310485Y180352D01*
X310541Y180474D01*
X310588Y180595D01*
X310654Y180830D01*
X310672Y180942D01*
X310691Y181045D01*
X310700Y181130D01*
X310710Y181214D01*
X310719Y181280D01*
Y181327D01*
Y181355D01*
Y181364D01*
X310710Y181551D01*
X310691Y181730D01*
X310663Y181898D01*
X310625Y182058D01*
X310588Y182198D01*
X310532Y182339D01*
X310485Y182461D01*
X310429Y182573D01*
X310372Y182676D01*
X310326Y182770D01*
X310269Y182845D01*
X310232Y182910D01*
X310194Y182957D01*
X310166Y182995D01*
X310147Y183014D01*
X310138Y183023D01*
X310026Y183135D01*
X309913Y183239D01*
X309791Y183323D01*
X309679Y183398D01*
X309566Y183463D01*
X309454Y183510D01*
X309341Y183557D01*
X309238Y183585D01*
X309135Y183613D01*
X309051Y183632D01*
X308967Y183651D01*
X308901Y183660D01*
X308845Y183670D01*
D02*
G37*
G36*
X280044Y245128D02*
X279978D01*
X279856Y245119D01*
X279734Y245110D01*
X279519Y245063D01*
X279331Y244988D01*
X279172Y244903D01*
X279041Y244819D01*
X278947Y244753D01*
X278910Y244716D01*
X278882Y244697D01*
X278872Y244688D01*
X278863Y244678D01*
X278788Y244594D01*
X278713Y244510D01*
X278601Y244322D01*
X278526Y244144D01*
X278469Y243966D01*
X278432Y243816D01*
X278422Y243751D01*
Y243704D01*
X278413Y243657D01*
Y243619D01*
Y243601D01*
Y243591D01*
Y243479D01*
X278432Y243366D01*
X278479Y243160D01*
X278554Y242982D01*
X278629Y242823D01*
X278713Y242701D01*
X278788Y242607D01*
X278816Y242579D01*
X278835Y242551D01*
X278844Y242542D01*
X278853Y242532D01*
X278938Y242457D01*
X279022Y242392D01*
X279210Y242288D01*
X279397Y242213D01*
X279575Y242167D01*
X279725Y242129D01*
X279800Y242120D01*
X279856D01*
X279903Y242110D01*
X279969D01*
X280100Y242120D01*
X280222Y242129D01*
X280447Y242176D01*
X280644Y242251D01*
X280803Y242326D01*
X280934Y242401D01*
X281028Y242476D01*
X281066Y242504D01*
X281094Y242523D01*
X281103Y242542D01*
X281112D01*
X281187Y242626D01*
X281253Y242710D01*
X281365Y242898D01*
X281440Y243085D01*
X281487Y243263D01*
X281525Y243423D01*
X281534Y243488D01*
Y243544D01*
X281544Y243591D01*
Y243629D01*
Y243647D01*
Y243657D01*
X281534Y243769D01*
X281525Y243872D01*
X281478Y244069D01*
X281403Y244247D01*
X281318Y244397D01*
X281243Y244519D01*
X281169Y244613D01*
X281122Y244669D01*
X281103Y244678D01*
Y244688D01*
X281019Y244763D01*
X280925Y244838D01*
X280737Y244941D01*
X280550Y245025D01*
X280372Y245072D01*
X280222Y245110D01*
X280147Y245119D01*
X280091D01*
X280044Y245128D01*
D02*
G37*
G36*
X280091Y241145D02*
X280006D01*
X279847Y241136D01*
X279697Y241117D01*
X279557Y241089D01*
X279425Y241061D01*
X279182Y240967D01*
X279079Y240920D01*
X278975Y240864D01*
X278891Y240808D01*
X278816Y240761D01*
X278750Y240714D01*
X278694Y240667D01*
X278647Y240639D01*
X278619Y240611D01*
X278601Y240592D01*
X278591Y240583D01*
X278488Y240480D01*
X278404Y240367D01*
X278329Y240245D01*
X278263Y240133D01*
X278207Y240011D01*
X278160Y239898D01*
X278094Y239674D01*
X278066Y239570D01*
X278048Y239477D01*
X278038Y239392D01*
X278029Y239317D01*
X278019Y239261D01*
Y239214D01*
Y239186D01*
Y239177D01*
X278029Y239027D01*
X278048Y238877D01*
X278066Y238736D01*
X278104Y238605D01*
X278197Y238371D01*
X278244Y238258D01*
X278291Y238165D01*
X278347Y238080D01*
X278394Y238005D01*
X278441Y237940D01*
X278488Y237893D01*
X278526Y237846D01*
X278544Y237818D01*
X278563Y237799D01*
X278572Y237790D01*
X278675Y237696D01*
X278788Y237612D01*
X278900Y237546D01*
X279022Y237480D01*
X279135Y237433D01*
X279256Y237387D01*
X279472Y237321D01*
X279575Y237302D01*
X279669Y237283D01*
X279753Y237274D01*
X279828Y237265D01*
X279884Y237255D01*
X279969D01*
X280166Y237265D01*
X280353Y237293D01*
X280531Y237340D01*
X280681Y237387D01*
X280812Y237424D01*
X280906Y237471D01*
X280944Y237490D01*
X280972Y237499D01*
X280981Y237508D01*
X280991D01*
X281159Y237612D01*
X281300Y237733D01*
X281422Y237855D01*
X281515Y237977D01*
X281590Y238080D01*
X281647Y238165D01*
X281684Y238221D01*
X281693Y238230D01*
Y238239D01*
X281768Y238418D01*
X281825Y238586D01*
X281871Y238755D01*
X281900Y238905D01*
X281918Y239027D01*
X281928Y239130D01*
Y239167D01*
Y239195D01*
Y239205D01*
Y239214D01*
X281918Y239364D01*
X281900Y239514D01*
X281881Y239645D01*
X281843Y239777D01*
X281759Y240011D01*
X281703Y240114D01*
X281656Y240217D01*
X281609Y240301D01*
X281553Y240376D01*
X281506Y240442D01*
X281469Y240489D01*
X281431Y240536D01*
X281403Y240564D01*
X281394Y240583D01*
X281384Y240592D01*
X281281Y240686D01*
X281169Y240779D01*
X281056Y240845D01*
X280944Y240911D01*
X280822Y240967D01*
X280709Y241014D01*
X280494Y241079D01*
X280391Y241098D01*
X280297Y241117D01*
X280212Y241126D01*
X280147Y241136D01*
X280091Y241145D01*
D02*
G37*
G36*
X255128Y241642D02*
X255053D01*
X254904Y241632D01*
X254763Y241614D01*
X254622Y241586D01*
X254500Y241548D01*
X254266Y241454D01*
X254172Y241407D01*
X254079Y241351D01*
X253994Y241295D01*
X253919Y241248D01*
X253863Y241192D01*
X253807Y241154D01*
X253769Y241117D01*
X253741Y241089D01*
X253722Y241070D01*
X253713Y241061D01*
X253619Y240948D01*
X253535Y240826D01*
X253469Y240704D01*
X253404Y240573D01*
X253348Y240442D01*
X253310Y240311D01*
X253244Y240067D01*
X253226Y239945D01*
X253207Y239842D01*
X253198Y239739D01*
X253188Y239664D01*
X253179Y239589D01*
Y239542D01*
Y239505D01*
Y239495D01*
X253188Y239308D01*
X253198Y239130D01*
X253226Y238961D01*
X253263Y238802D01*
X253301Y238652D01*
X253348Y238521D01*
X253404Y238399D01*
X253451Y238286D01*
X253498Y238183D01*
X253554Y238099D01*
X253601Y238024D01*
X253638Y237968D01*
X253676Y237921D01*
X253694Y237883D01*
X253713Y237865D01*
X253722Y237855D01*
X253826Y237752D01*
X253929Y237658D01*
X254041Y237574D01*
X254144Y237508D01*
X254257Y237452D01*
X254360Y237405D01*
X254566Y237330D01*
X254744Y237283D01*
X254819Y237274D01*
X254885Y237265D01*
X254932Y237255D01*
X255007D01*
X255194Y237265D01*
X255372Y237302D01*
X255541Y237349D01*
X255691Y237405D01*
X255813Y237452D01*
X255897Y237499D01*
X255934Y237518D01*
X255963Y237537D01*
X255972Y237546D01*
X255981D01*
X256141Y237668D01*
X256291Y237799D01*
X256412Y237940D01*
X256516Y238080D01*
X256600Y238202D01*
X256656Y238296D01*
X256675Y238333D01*
X256694Y238361D01*
X256703Y238380D01*
Y238389D01*
X256787Y238605D01*
X256853Y238811D01*
X256890Y239008D01*
X256928Y239186D01*
X256947Y239336D01*
Y239402D01*
X256956Y239458D01*
Y239505D01*
Y239533D01*
Y239552D01*
Y239561D01*
X256947Y239730D01*
X256928Y239889D01*
X256909Y240048D01*
X256872Y240189D01*
X256825Y240320D01*
X256778Y240442D01*
X256731Y240555D01*
X256675Y240658D01*
X256628Y240751D01*
X256581Y240836D01*
X256534Y240901D01*
X256487Y240958D01*
X256450Y241004D01*
X256431Y241033D01*
X256412Y241051D01*
X256403Y241061D01*
X256300Y241164D01*
X256187Y241248D01*
X256075Y241332D01*
X255963Y241398D01*
X255841Y241454D01*
X255728Y241501D01*
X255522Y241567D01*
X255419Y241595D01*
X255335Y241614D01*
X255250Y241623D01*
X255185Y241632D01*
X255128Y241642D01*
D02*
G37*
G36*
X229023Y244004D02*
Y239664D01*
X232041D01*
X229023Y244004D01*
D02*
G37*
%LPD*%
D11*
X320000Y64541D02*
X330000D01*
M02*
