G04*
G04 #@! TF.GenerationSoftware,Altium Limited,Altium Designer,23.9.2 (47)*
G04*
G04 Layer_Color=65535*
%FSLAX44Y44*%
%MOMM*%
G71*
G04*
G04 #@! TF.SameCoordinates,BDA42284-3A0F-4055-A59D-1AE2AF1CB793*
G04*
G04*
G04 #@! TF.FilePolarity,Positive*
G04*
G01*
G75*
%ADD10C,0.2000*%
%ADD11C,0.1000*%
G36*
X337755Y245915D02*
X337866Y245901D01*
X338005Y245887D01*
X338157Y245859D01*
X338310Y245832D01*
X338670Y245734D01*
X339031Y245596D01*
X339211Y245513D01*
X339391Y245415D01*
X339558Y245291D01*
X339710Y245152D01*
X339724Y245138D01*
X339752Y245124D01*
X339780Y245069D01*
X339835Y245013D01*
X339905Y244944D01*
X339974Y244847D01*
X340043Y244750D01*
X340126Y244625D01*
X340265Y244361D01*
X340404Y244029D01*
X340459Y243862D01*
X340487Y243668D01*
X340515Y243474D01*
X340529Y243266D01*
Y243238D01*
Y243169D01*
X340515Y243058D01*
X340501Y242905D01*
X340473Y242739D01*
X340418Y242545D01*
X340362Y242337D01*
X340279Y242129D01*
X340265Y242101D01*
X340237Y242031D01*
X340182Y241921D01*
X340099Y241768D01*
X339988Y241602D01*
X339849Y241394D01*
X339683Y241185D01*
X339488Y240950D01*
X339461Y240922D01*
X339391Y240839D01*
X339322Y240770D01*
X339253Y240700D01*
X339170Y240617D01*
X339059Y240506D01*
X338948Y240395D01*
X338809Y240270D01*
X338670Y240131D01*
X338504Y239979D01*
X338324Y239826D01*
X338129Y239646D01*
X337907Y239466D01*
X337686Y239272D01*
X337672Y239258D01*
X337644Y239230D01*
X337589Y239188D01*
X337519Y239133D01*
X337436Y239050D01*
X337339Y238967D01*
X337117Y238786D01*
X336881Y238578D01*
X336659Y238370D01*
X336465Y238190D01*
X336382Y238121D01*
X336313Y238051D01*
X336299Y238037D01*
X336257Y237996D01*
X336202Y237940D01*
X336132Y237857D01*
X336063Y237760D01*
X335980Y237663D01*
X335813Y237427D01*
X340542D01*
Y236290D01*
X334177D01*
Y236304D01*
Y236359D01*
Y236443D01*
X334191Y236553D01*
X334205Y236678D01*
X334232Y236817D01*
X334260Y236956D01*
X334316Y237108D01*
Y237122D01*
X334329Y237136D01*
X334357Y237219D01*
X334413Y237344D01*
X334496Y237510D01*
X334607Y237705D01*
X334745Y237927D01*
X334898Y238148D01*
X335092Y238384D01*
Y238398D01*
X335120Y238412D01*
X335189Y238495D01*
X335314Y238620D01*
X335494Y238800D01*
X335702Y239008D01*
X335966Y239258D01*
X336285Y239535D01*
X336632Y239826D01*
X336646Y239840D01*
X336701Y239882D01*
X336784Y239951D01*
X336881Y240035D01*
X337006Y240145D01*
X337159Y240270D01*
X337311Y240409D01*
X337491Y240562D01*
X337838Y240894D01*
X338185Y241227D01*
X338351Y241394D01*
X338504Y241560D01*
X338643Y241712D01*
X338754Y241865D01*
Y241879D01*
X338781Y241893D01*
X338809Y241934D01*
X338837Y241990D01*
X338934Y242143D01*
X339045Y242323D01*
X339142Y242545D01*
X339239Y242780D01*
X339294Y243044D01*
X339322Y243293D01*
Y243307D01*
Y243321D01*
X339308Y243405D01*
X339294Y243543D01*
X339253Y243696D01*
X339197Y243890D01*
X339100Y244084D01*
X338975Y244278D01*
X338809Y244472D01*
X338781Y244500D01*
X338712Y244556D01*
X338615Y244625D01*
X338462Y244722D01*
X338268Y244805D01*
X338046Y244888D01*
X337783Y244944D01*
X337491Y244958D01*
X337408D01*
X337353Y244944D01*
X337186Y244930D01*
X336992Y244888D01*
X336784Y244833D01*
X336548Y244736D01*
X336326Y244611D01*
X336119Y244445D01*
X336091Y244417D01*
X336035Y244347D01*
X335952Y244237D01*
X335869Y244070D01*
X335772Y243876D01*
X335689Y243626D01*
X335633Y243349D01*
X335605Y243030D01*
X334399Y243155D01*
Y243169D01*
X334413Y243210D01*
Y243280D01*
X334426Y243377D01*
X334454Y243488D01*
X334482Y243612D01*
X334524Y243765D01*
X334565Y243918D01*
X334676Y244251D01*
X334843Y244583D01*
X334940Y244750D01*
X335065Y244916D01*
X335189Y245069D01*
X335328Y245207D01*
X335342Y245221D01*
X335370Y245235D01*
X335411Y245277D01*
X335480Y245318D01*
X335564Y245374D01*
X335661Y245429D01*
X335772Y245499D01*
X335910Y245568D01*
X336063Y245637D01*
X336229Y245707D01*
X336410Y245762D01*
X336604Y245818D01*
X336812Y245859D01*
X337034Y245901D01*
X337270Y245915D01*
X337519Y245928D01*
X337658D01*
X337755Y245915D01*
D02*
G37*
G36*
X331320Y236290D02*
X330141D01*
Y243793D01*
X330127Y243779D01*
X330058Y243724D01*
X329975Y243640D01*
X329836Y243543D01*
X329683Y243418D01*
X329489Y243280D01*
X329268Y243127D01*
X329018Y242975D01*
X329004D01*
X328990Y242961D01*
X328907Y242905D01*
X328768Y242836D01*
X328602Y242753D01*
X328408Y242656D01*
X328200Y242558D01*
X327992Y242461D01*
X327784Y242378D01*
Y243515D01*
X327797D01*
X327825Y243543D01*
X327881Y243557D01*
X327950Y243599D01*
X328033Y243640D01*
X328130Y243696D01*
X328366Y243834D01*
X328643Y243987D01*
X328921Y244181D01*
X329212Y244403D01*
X329503Y244639D01*
X329517Y244653D01*
X329531Y244667D01*
X329573Y244708D01*
X329628Y244750D01*
X329753Y244888D01*
X329919Y245055D01*
X330086Y245249D01*
X330266Y245471D01*
X330419Y245693D01*
X330557Y245928D01*
X331320D01*
Y236290D01*
D02*
G37*
G36*
X339281Y176000D02*
X338102D01*
Y183503D01*
X338089Y183489D01*
X338019Y183433D01*
X337936Y183350D01*
X337797Y183253D01*
X337645Y183128D01*
X337451Y182990D01*
X337229Y182837D01*
X336979Y182685D01*
X336965D01*
X336951Y182671D01*
X336868Y182615D01*
X336730Y182546D01*
X336563Y182463D01*
X336369Y182366D01*
X336161Y182269D01*
X335953Y182171D01*
X335745Y182088D01*
Y183225D01*
X335759D01*
X335786Y183253D01*
X335842Y183267D01*
X335911Y183309D01*
X335994Y183350D01*
X336091Y183406D01*
X336327Y183544D01*
X336605Y183697D01*
X336882Y183891D01*
X337173Y184113D01*
X337464Y184349D01*
X337478Y184363D01*
X337492Y184377D01*
X337534Y184418D01*
X337589Y184460D01*
X337714Y184598D01*
X337881Y184765D01*
X338047Y184959D01*
X338227Y185181D01*
X338380Y185403D01*
X338518Y185639D01*
X339281D01*
Y176000D01*
D02*
G37*
G36*
X331820D02*
X330641D01*
Y183503D01*
X330627Y183489D01*
X330558Y183433D01*
X330475Y183350D01*
X330336Y183253D01*
X330184Y183128D01*
X329989Y182990D01*
X329767Y182837D01*
X329518Y182685D01*
X329504D01*
X329490Y182671D01*
X329407Y182615D01*
X329268Y182546D01*
X329102Y182463D01*
X328908Y182366D01*
X328700Y182269D01*
X328492Y182171D01*
X328284Y182088D01*
Y183225D01*
X328298D01*
X328325Y183253D01*
X328381Y183267D01*
X328450Y183309D01*
X328533Y183350D01*
X328630Y183406D01*
X328866Y183544D01*
X329143Y183697D01*
X329421Y183891D01*
X329712Y184113D01*
X330003Y184349D01*
X330017Y184363D01*
X330031Y184377D01*
X330073Y184418D01*
X330128Y184460D01*
X330253Y184598D01*
X330419Y184765D01*
X330586Y184959D01*
X330766Y185181D01*
X330919Y185403D01*
X331057Y185639D01*
X331820D01*
Y176000D01*
D02*
G37*
G36*
X304461Y236456D02*
X303282D01*
Y243959D01*
X303268Y243945D01*
X303199Y243890D01*
X303115Y243807D01*
X302977Y243710D01*
X302824Y243585D01*
X302630Y243446D01*
X302408Y243293D01*
X302159Y243141D01*
X302145D01*
X302131Y243127D01*
X302048Y243072D01*
X301909Y243002D01*
X301742Y242919D01*
X301548Y242822D01*
X301340Y242725D01*
X301132Y242628D01*
X300924Y242545D01*
Y243682D01*
X300938D01*
X300966Y243710D01*
X301021Y243724D01*
X301091Y243765D01*
X301174Y243807D01*
X301271Y243862D01*
X301507Y244001D01*
X301784Y244153D01*
X302061Y244347D01*
X302353Y244569D01*
X302644Y244805D01*
X302658Y244819D01*
X302672Y244833D01*
X302713Y244874D01*
X302769Y244916D01*
X302894Y245055D01*
X303060Y245221D01*
X303226Y245415D01*
X303407Y245637D01*
X303559Y245859D01*
X303698Y246095D01*
X304461D01*
Y236456D01*
D02*
G37*
G36*
X310896Y246081D02*
X311076Y246053D01*
X311284Y246012D01*
X311506Y245956D01*
X311742Y245887D01*
X311963Y245776D01*
X311977D01*
X311991Y245762D01*
X312061Y245721D01*
X312171Y245651D01*
X312310Y245554D01*
X312463Y245415D01*
X312629Y245263D01*
X312782Y245083D01*
X312934Y244874D01*
X312948Y244847D01*
X313004Y244778D01*
X313059Y244653D01*
X313156Y244472D01*
X313239Y244264D01*
X313350Y244029D01*
X313447Y243751D01*
X313531Y243446D01*
Y243432D01*
X313544Y243405D01*
X313558Y243363D01*
X313572Y243293D01*
X313586Y243210D01*
X313600Y243113D01*
X313628Y242988D01*
X313641Y242850D01*
X313669Y242697D01*
X313683Y242531D01*
X313697Y242337D01*
X313725Y242143D01*
X313739Y241921D01*
Y241699D01*
X313752Y241449D01*
Y241185D01*
Y241172D01*
Y241116D01*
Y241019D01*
Y240908D01*
X313739Y240756D01*
Y240589D01*
X313725Y240409D01*
X313711Y240215D01*
X313669Y239771D01*
X313600Y239313D01*
X313517Y238869D01*
X313461Y238661D01*
X313392Y238454D01*
Y238440D01*
X313378Y238412D01*
X313350Y238356D01*
X313323Y238287D01*
X313295Y238190D01*
X313239Y238093D01*
X313128Y237857D01*
X312990Y237607D01*
X312809Y237330D01*
X312601Y237080D01*
X312352Y236845D01*
X312338D01*
X312324Y236817D01*
X312282Y236789D01*
X312227Y236761D01*
X312158Y236720D01*
X312088Y236664D01*
X311880Y236567D01*
X311631Y236470D01*
X311339Y236373D01*
X310993Y236318D01*
X310618Y236290D01*
X310480D01*
X310382Y236304D01*
X310271Y236318D01*
X310133Y236346D01*
X309980Y236373D01*
X309814Y236415D01*
X309647Y236470D01*
X309467Y236526D01*
X309287Y236609D01*
X309107Y236706D01*
X308926Y236817D01*
X308746Y236956D01*
X308580Y237108D01*
X308427Y237275D01*
X308413Y237288D01*
X308385Y237330D01*
X308344Y237400D01*
X308274Y237510D01*
X308205Y237635D01*
X308136Y237802D01*
X308039Y237996D01*
X307955Y238218D01*
X307872Y238467D01*
X307789Y238759D01*
X307706Y239078D01*
X307637Y239438D01*
X307567Y239826D01*
X307526Y240243D01*
X307498Y240700D01*
X307484Y241185D01*
Y241199D01*
Y241255D01*
Y241352D01*
Y241463D01*
X307498Y241616D01*
Y241782D01*
X307512Y241962D01*
X307526Y242170D01*
X307567Y242600D01*
X307637Y243058D01*
X307720Y243515D01*
X307775Y243724D01*
X307831Y243932D01*
Y243945D01*
X307845Y243973D01*
X307872Y244029D01*
X307900Y244098D01*
X307928Y244195D01*
X307983Y244292D01*
X308094Y244528D01*
X308233Y244778D01*
X308413Y245041D01*
X308621Y245305D01*
X308871Y245526D01*
X308885D01*
X308899Y245554D01*
X308940Y245582D01*
X308996Y245610D01*
X309065Y245665D01*
X309148Y245707D01*
X309356Y245818D01*
X309606Y245915D01*
X309897Y246012D01*
X310244Y246067D01*
X310618Y246095D01*
X310743D01*
X310896Y246081D01*
D02*
G37*
G36*
X308176Y185791D02*
X308245D01*
X308342Y185777D01*
X308578Y185736D01*
X308841Y185680D01*
X309133Y185583D01*
X309424Y185458D01*
X309715Y185292D01*
X309729D01*
X309743Y185264D01*
X309785Y185236D01*
X309840Y185195D01*
X309979Y185084D01*
X310159Y184931D01*
X310339Y184723D01*
X310547Y184474D01*
X310728Y184182D01*
X310894Y183850D01*
Y183836D01*
X310908Y183808D01*
X310936Y183752D01*
X310963Y183683D01*
X310991Y183586D01*
X311033Y183461D01*
X311061Y183323D01*
X311102Y183170D01*
X311144Y182990D01*
X311185Y182782D01*
X311213Y182560D01*
X311241Y182324D01*
X311269Y182061D01*
X311296Y181783D01*
X311310Y181478D01*
Y181159D01*
Y181145D01*
Y181076D01*
Y180979D01*
Y180854D01*
X311296Y180701D01*
Y180521D01*
X311282Y180313D01*
X311255Y180105D01*
X311213Y179634D01*
X311144Y179134D01*
X311047Y178663D01*
X310977Y178427D01*
X310908Y178219D01*
Y178205D01*
X310894Y178177D01*
X310866Y178122D01*
X310839Y178039D01*
X310797Y177955D01*
X310742Y177845D01*
X310603Y177609D01*
X310436Y177345D01*
X310242Y177068D01*
X309993Y176804D01*
X309715Y176569D01*
X309701D01*
X309674Y176541D01*
X309632Y176513D01*
X309577Y176485D01*
X309493Y176444D01*
X309410Y176388D01*
X309299Y176333D01*
X309188Y176291D01*
X308925Y176180D01*
X308606Y176083D01*
X308259Y176028D01*
X307871Y176000D01*
X307760D01*
X307691Y176014D01*
X307593D01*
X307482Y176028D01*
X307219Y176083D01*
X306928Y176153D01*
X306623Y176264D01*
X306318Y176416D01*
X306165Y176513D01*
X306026Y176624D01*
X306012Y176638D01*
X305998Y176652D01*
X305957Y176693D01*
X305915Y176735D01*
X305860Y176804D01*
X305791Y176888D01*
X305652Y177082D01*
X305513Y177331D01*
X305374Y177637D01*
X305264Y177983D01*
X305180Y178385D01*
X306318Y178482D01*
Y178469D01*
X306331Y178441D01*
Y178413D01*
X306345Y178358D01*
X306387Y178205D01*
X306442Y178039D01*
X306512Y177845D01*
X306609Y177650D01*
X306720Y177470D01*
X306858Y177318D01*
X306872Y177304D01*
X306928Y177262D01*
X307025Y177207D01*
X307136Y177151D01*
X307288Y177082D01*
X307469Y177026D01*
X307677Y176985D01*
X307899Y176971D01*
X307996D01*
X308093Y176985D01*
X308218Y176999D01*
X308370Y177026D01*
X308523Y177068D01*
X308689Y177123D01*
X308841Y177207D01*
X308855Y177220D01*
X308911Y177248D01*
X308994Y177304D01*
X309077Y177387D01*
X309188Y177484D01*
X309299Y177595D01*
X309410Y177720D01*
X309521Y177872D01*
X309535Y177886D01*
X309563Y177955D01*
X309618Y178053D01*
X309674Y178177D01*
X309743Y178344D01*
X309812Y178538D01*
X309882Y178760D01*
X309951Y179009D01*
Y179023D01*
X309965Y179037D01*
Y179079D01*
X309979Y179134D01*
X310007Y179273D01*
X310048Y179453D01*
X310076Y179675D01*
X310104Y179911D01*
X310117Y180174D01*
X310131Y180452D01*
Y180466D01*
Y180507D01*
Y180577D01*
Y180688D01*
X310117Y180660D01*
X310062Y180590D01*
X309979Y180493D01*
X309882Y180355D01*
X309743Y180216D01*
X309577Y180063D01*
X309382Y179911D01*
X309160Y179772D01*
X309133Y179758D01*
X309050Y179717D01*
X308925Y179661D01*
X308772Y179606D01*
X308564Y179536D01*
X308342Y179481D01*
X308093Y179439D01*
X307829Y179426D01*
X307718D01*
X307635Y179439D01*
X307524Y179453D01*
X307413Y179467D01*
X307274Y179495D01*
X307136Y179536D01*
X306817Y179634D01*
X306650Y179703D01*
X306484Y179786D01*
X306304Y179883D01*
X306137Y180008D01*
X305971Y180133D01*
X305818Y180285D01*
X305804Y180299D01*
X305777Y180327D01*
X305749Y180368D01*
X305693Y180438D01*
X305624Y180535D01*
X305555Y180632D01*
X305485Y180757D01*
X305416Y180896D01*
X305333Y181048D01*
X305264Y181215D01*
X305194Y181409D01*
X305125Y181603D01*
X305069Y181825D01*
X305042Y182061D01*
X305014Y182296D01*
X305000Y182560D01*
Y182574D01*
Y182629D01*
Y182698D01*
X305014Y182796D01*
X305028Y182920D01*
X305042Y183073D01*
X305069Y183225D01*
X305111Y183406D01*
X305208Y183766D01*
X305277Y183960D01*
X305361Y184168D01*
X305458Y184363D01*
X305583Y184543D01*
X305707Y184737D01*
X305860Y184904D01*
X305874Y184917D01*
X305901Y184945D01*
X305943Y184987D01*
X306012Y185042D01*
X306096Y185112D01*
X306207Y185195D01*
X306318Y185264D01*
X306456Y185361D01*
X306595Y185444D01*
X306761Y185514D01*
X307136Y185666D01*
X307330Y185722D01*
X307552Y185763D01*
X307774Y185791D01*
X308009Y185805D01*
X308106D01*
X308176Y185791D01*
D02*
G37*
G36*
X281267Y246081D02*
X281378Y246067D01*
X281502Y246053D01*
X281641Y246040D01*
X281780Y245998D01*
X282113Y245915D01*
X282446Y245790D01*
X282612Y245707D01*
X282778Y245610D01*
X282931Y245485D01*
X283083Y245360D01*
X283097Y245346D01*
X283111Y245332D01*
X283153Y245291D01*
X283208Y245235D01*
X283264Y245152D01*
X283333Y245069D01*
X283472Y244861D01*
X283610Y244597D01*
X283735Y244292D01*
X283832Y243945D01*
X283846Y243765D01*
X283860Y243571D01*
Y243557D01*
Y243543D01*
Y243460D01*
X283846Y243335D01*
X283818Y243183D01*
X283777Y242988D01*
X283708Y242794D01*
X283624Y242600D01*
X283500Y242406D01*
X283486Y242378D01*
X283430Y242323D01*
X283347Y242239D01*
X283236Y242129D01*
X283083Y242004D01*
X282903Y241879D01*
X282695Y241754D01*
X282446Y241643D01*
X282459D01*
X282487Y241629D01*
X282529Y241616D01*
X282584Y241588D01*
X282751Y241518D01*
X282945Y241421D01*
X283153Y241283D01*
X283375Y241130D01*
X283583Y240936D01*
X283777Y240714D01*
Y240700D01*
X283791Y240686D01*
X283846Y240603D01*
X283929Y240464D01*
X284013Y240284D01*
X284096Y240062D01*
X284179Y239799D01*
X284235Y239508D01*
X284248Y239188D01*
Y239175D01*
Y239133D01*
Y239064D01*
X284235Y238981D01*
X284221Y238883D01*
X284207Y238759D01*
X284179Y238620D01*
X284137Y238467D01*
X284040Y238148D01*
X283971Y237968D01*
X283874Y237802D01*
X283777Y237621D01*
X283666Y237455D01*
X283527Y237288D01*
X283375Y237122D01*
X283361Y237108D01*
X283333Y237080D01*
X283291Y237039D01*
X283222Y236997D01*
X283125Y236928D01*
X283028Y236859D01*
X282903Y236789D01*
X282764Y236706D01*
X282612Y236623D01*
X282432Y236553D01*
X282237Y236484D01*
X282043Y236415D01*
X281821Y236373D01*
X281586Y236332D01*
X281350Y236304D01*
X281086Y236290D01*
X280948D01*
X280851Y236304D01*
X280726Y236318D01*
X280587Y236332D01*
X280434Y236359D01*
X280268Y236401D01*
X279894Y236498D01*
X279699Y236567D01*
X279519Y236637D01*
X279325Y236734D01*
X279131Y236845D01*
X278951Y236970D01*
X278784Y237122D01*
X278770Y237136D01*
X278743Y237164D01*
X278701Y237205D01*
X278645Y237275D01*
X278590Y237358D01*
X278507Y237455D01*
X278438Y237566D01*
X278354Y237705D01*
X278271Y237843D01*
X278202Y238010D01*
X278063Y238356D01*
X278008Y238564D01*
X277966Y238772D01*
X277938Y238994D01*
X277924Y239216D01*
Y239230D01*
Y239258D01*
Y239313D01*
X277938Y239369D01*
Y239452D01*
X277952Y239549D01*
X277980Y239771D01*
X278035Y240021D01*
X278118Y240270D01*
X278243Y240534D01*
X278396Y240783D01*
Y240797D01*
X278424Y240811D01*
X278479Y240880D01*
X278590Y240991D01*
X278743Y241130D01*
X278937Y241269D01*
X279172Y241421D01*
X279436Y241546D01*
X279755Y241643D01*
X279741D01*
X279727Y241657D01*
X279686Y241671D01*
X279630Y241699D01*
X279505Y241754D01*
X279339Y241837D01*
X279159Y241948D01*
X278978Y242087D01*
X278812Y242239D01*
X278659Y242406D01*
X278645Y242434D01*
X278604Y242489D01*
X278548Y242600D01*
X278493Y242739D01*
X278424Y242919D01*
X278368Y243127D01*
X278326Y243363D01*
X278313Y243612D01*
Y243626D01*
Y243654D01*
Y243710D01*
X278326Y243793D01*
X278340Y243876D01*
X278354Y243987D01*
X278410Y244223D01*
X278493Y244500D01*
X278632Y244791D01*
X278715Y244944D01*
X278812Y245096D01*
X278937Y245235D01*
X279062Y245374D01*
X279075Y245388D01*
X279103Y245401D01*
X279145Y245443D01*
X279200Y245485D01*
X279270Y245540D01*
X279367Y245596D01*
X279478Y245665D01*
X279589Y245734D01*
X279727Y245804D01*
X279880Y245873D01*
X280046Y245928D01*
X280226Y245984D01*
X280615Y246067D01*
X280837Y246081D01*
X281059Y246095D01*
X281183D01*
X281267Y246081D01*
D02*
G37*
G36*
X286213Y184543D02*
X286199Y184529D01*
X286171Y184501D01*
X286116Y184446D01*
X286061Y184363D01*
X285977Y184266D01*
X285866Y184155D01*
X285755Y184016D01*
X285631Y183850D01*
X285506Y183683D01*
X285353Y183489D01*
X285201Y183267D01*
X285048Y183045D01*
X284882Y182796D01*
X284715Y182532D01*
X284549Y182241D01*
X284382Y181950D01*
X284368Y181936D01*
X284341Y181880D01*
X284299Y181797D01*
X284230Y181672D01*
X284160Y181520D01*
X284077Y181353D01*
X283980Y181159D01*
X283883Y180937D01*
X283772Y180688D01*
X283647Y180438D01*
X283536Y180161D01*
X283426Y179869D01*
X283204Y179273D01*
X282996Y178635D01*
Y178621D01*
X282982Y178580D01*
X282968Y178510D01*
X282940Y178427D01*
X282912Y178316D01*
X282885Y178177D01*
X282843Y178025D01*
X282815Y177858D01*
X282774Y177664D01*
X282732Y177456D01*
X282663Y177012D01*
X282593Y176527D01*
X282552Y176000D01*
X281345D01*
Y176014D01*
Y176056D01*
Y176111D01*
X281359Y176194D01*
Y176305D01*
X281373Y176444D01*
X281387Y176596D01*
X281401Y176763D01*
X281428Y176957D01*
X281456Y177151D01*
X281498Y177387D01*
X281539Y177623D01*
X281581Y177872D01*
X281637Y178150D01*
X281775Y178718D01*
Y178732D01*
X281789Y178788D01*
X281817Y178871D01*
X281858Y178996D01*
X281900Y179134D01*
X281955Y179301D01*
X282011Y179495D01*
X282094Y179703D01*
X282177Y179939D01*
X282260Y180174D01*
X282469Y180701D01*
X282718Y181256D01*
X282996Y181811D01*
X283009Y181825D01*
X283037Y181880D01*
X283079Y181950D01*
X283134Y182061D01*
X283204Y182185D01*
X283301Y182338D01*
X283398Y182504D01*
X283509Y182685D01*
X283772Y183087D01*
X284050Y183503D01*
X284368Y183933D01*
X284701Y184335D01*
X280000D01*
Y185472D01*
X286213D01*
Y184543D01*
D02*
G37*
G36*
X256986Y246081D02*
X257083D01*
X257194Y246067D01*
X257457Y246012D01*
X257749Y245942D01*
X258054Y245832D01*
X258359Y245665D01*
X258511Y245568D01*
X258650Y245457D01*
X258664Y245443D01*
X258678Y245429D01*
X258719Y245388D01*
X258761Y245346D01*
X258830Y245277D01*
X258886Y245194D01*
X259038Y244999D01*
X259191Y244750D01*
X259329Y244445D01*
X259454Y244098D01*
X259538Y243710D01*
X258359Y243612D01*
Y243626D01*
X258345Y243640D01*
X258331Y243724D01*
X258289Y243848D01*
X258234Y244001D01*
X258179Y244167D01*
X258095Y244334D01*
X257998Y244486D01*
X257901Y244611D01*
X257873Y244639D01*
X257818Y244694D01*
X257721Y244778D01*
X257582Y244874D01*
X257402Y244958D01*
X257208Y245041D01*
X256972Y245096D01*
X256722Y245124D01*
X256625D01*
X256514Y245110D01*
X256389Y245083D01*
X256223Y245041D01*
X256057Y244986D01*
X255890Y244916D01*
X255724Y244805D01*
X255696Y244791D01*
X255627Y244736D01*
X255530Y244639D01*
X255405Y244500D01*
X255266Y244334D01*
X255114Y244139D01*
X254975Y243890D01*
X254836Y243612D01*
Y243599D01*
X254822Y243571D01*
X254808Y243529D01*
X254781Y243474D01*
X254767Y243391D01*
X254739Y243293D01*
X254711Y243183D01*
X254684Y243044D01*
X254642Y242891D01*
X254614Y242725D01*
X254587Y242545D01*
X254573Y242351D01*
X254545Y242129D01*
X254531Y241907D01*
X254517Y241657D01*
Y241407D01*
X254531Y241421D01*
X254587Y241504D01*
X254684Y241616D01*
X254808Y241754D01*
X254947Y241921D01*
X255127Y242073D01*
X255322Y242226D01*
X255543Y242364D01*
X255557D01*
X255571Y242378D01*
X255654Y242420D01*
X255779Y242461D01*
X255946Y242531D01*
X256140Y242586D01*
X256362Y242628D01*
X256597Y242670D01*
X256847Y242683D01*
X256958D01*
X257041Y242670D01*
X257152Y242656D01*
X257263Y242642D01*
X257402Y242614D01*
X257540Y242572D01*
X257859Y242475D01*
X258026Y242406D01*
X258192Y242309D01*
X258359Y242212D01*
X258539Y242101D01*
X258706Y241962D01*
X258858Y241810D01*
X258872Y241796D01*
X258900Y241768D01*
X258941Y241726D01*
X258983Y241657D01*
X259052Y241560D01*
X259121Y241463D01*
X259191Y241338D01*
X259274Y241199D01*
X259357Y241047D01*
X259427Y240880D01*
X259496Y240686D01*
X259565Y240492D01*
X259607Y240284D01*
X259648Y240048D01*
X259676Y239813D01*
X259690Y239563D01*
Y239549D01*
Y239521D01*
Y239480D01*
Y239410D01*
X259676Y239327D01*
Y239244D01*
X259635Y239022D01*
X259593Y238759D01*
X259524Y238481D01*
X259427Y238176D01*
X259288Y237885D01*
Y237871D01*
X259274Y237857D01*
X259246Y237815D01*
X259219Y237760D01*
X259135Y237621D01*
X259011Y237441D01*
X258858Y237247D01*
X258678Y237053D01*
X258456Y236859D01*
X258220Y236692D01*
X258206D01*
X258192Y236678D01*
X258151Y236651D01*
X258095Y236637D01*
X257957Y236567D01*
X257776Y236498D01*
X257540Y236415D01*
X257277Y236359D01*
X256986Y236304D01*
X256667Y236290D01*
X256597D01*
X256528Y236304D01*
X256417D01*
X256292Y236318D01*
X256154Y236346D01*
X255987Y236387D01*
X255821Y236429D01*
X255627Y236484D01*
X255432Y236553D01*
X255238Y236637D01*
X255030Y236748D01*
X254836Y236873D01*
X254642Y237011D01*
X254448Y237178D01*
X254268Y237372D01*
X254254Y237386D01*
X254226Y237427D01*
X254184Y237483D01*
X254129Y237580D01*
X254046Y237705D01*
X253976Y237843D01*
X253893Y238024D01*
X253810Y238218D01*
X253713Y238454D01*
X253630Y238717D01*
X253560Y239008D01*
X253491Y239327D01*
X253422Y239688D01*
X253380Y240076D01*
X253352Y240492D01*
X253338Y240936D01*
Y240950D01*
Y240964D01*
Y241005D01*
Y241061D01*
X253352Y241199D01*
Y241394D01*
X253366Y241616D01*
X253394Y241879D01*
X253422Y242170D01*
X253463Y242489D01*
X253519Y242808D01*
X253588Y243155D01*
X253671Y243488D01*
X253768Y243820D01*
X253893Y244139D01*
X254032Y244445D01*
X254184Y244736D01*
X254365Y244986D01*
X254379Y244999D01*
X254406Y245027D01*
X254462Y245083D01*
X254531Y245166D01*
X254614Y245249D01*
X254725Y245332D01*
X254864Y245443D01*
X255003Y245540D01*
X255169Y245637D01*
X255349Y245748D01*
X255557Y245832D01*
X255765Y245928D01*
X256001Y245998D01*
X256251Y246053D01*
X256514Y246081D01*
X256792Y246095D01*
X256903D01*
X256986Y246081D01*
D02*
G37*
G36*
X258908Y184515D02*
X255066D01*
X254553Y181922D01*
X254567Y181936D01*
X254595Y181950D01*
X254636Y181977D01*
X254706Y182019D01*
X254789Y182061D01*
X254886Y182116D01*
X255108Y182227D01*
X255385Y182338D01*
X255690Y182435D01*
X256023Y182504D01*
X256190Y182532D01*
X256495D01*
X256578Y182518D01*
X256689Y182504D01*
X256814Y182490D01*
X256952Y182463D01*
X257105Y182421D01*
X257438Y182324D01*
X257618Y182255D01*
X257799Y182158D01*
X257979Y182061D01*
X258159Y181950D01*
X258326Y181811D01*
X258492Y181658D01*
X258506Y181644D01*
X258533Y181617D01*
X258575Y181575D01*
X258631Y181506D01*
X258700Y181409D01*
X258769Y181312D01*
X258853Y181187D01*
X258936Y181048D01*
X259005Y180896D01*
X259088Y180729D01*
X259158Y180535D01*
X259227Y180341D01*
X259282Y180133D01*
X259324Y179897D01*
X259352Y179661D01*
X259366Y179412D01*
Y179398D01*
Y179356D01*
Y179287D01*
X259352Y179190D01*
X259338Y179079D01*
X259324Y178954D01*
X259296Y178801D01*
X259268Y178649D01*
X259185Y178288D01*
X259047Y177914D01*
X258963Y177720D01*
X258853Y177539D01*
X258741Y177345D01*
X258603Y177165D01*
X258589Y177151D01*
X258561Y177110D01*
X258506Y177054D01*
X258436Y176985D01*
X258339Y176901D01*
X258228Y176791D01*
X258090Y176693D01*
X257937Y176583D01*
X257771Y176472D01*
X257577Y176374D01*
X257369Y176277D01*
X257147Y176180D01*
X256911Y176111D01*
X256647Y176056D01*
X256370Y176014D01*
X256079Y176000D01*
X255954D01*
X255857Y176014D01*
X255746Y176028D01*
X255621Y176042D01*
X255469Y176056D01*
X255316Y176097D01*
X254969Y176180D01*
X254623Y176305D01*
X254442Y176388D01*
X254262Y176485D01*
X254096Y176596D01*
X253929Y176721D01*
X253915Y176735D01*
X253888Y176749D01*
X253860Y176804D01*
X253804Y176860D01*
X253735Y176929D01*
X253666Y177012D01*
X253582Y177123D01*
X253513Y177248D01*
X253430Y177373D01*
X253347Y177526D01*
X253194Y177858D01*
X253069Y178247D01*
X253028Y178455D01*
X253000Y178677D01*
X254234Y178774D01*
Y178760D01*
Y178732D01*
X254248Y178690D01*
X254262Y178621D01*
X254304Y178469D01*
X254359Y178261D01*
X254442Y178053D01*
X254553Y177817D01*
X254692Y177609D01*
X254858Y177415D01*
X254886Y177401D01*
X254942Y177345D01*
X255053Y177276D01*
X255205Y177193D01*
X255371Y177110D01*
X255579Y177040D01*
X255815Y176985D01*
X256079Y176971D01*
X256162D01*
X256217Y176985D01*
X256384Y176999D01*
X256578Y177054D01*
X256814Y177123D01*
X257050Y177234D01*
X257299Y177401D01*
X257410Y177498D01*
X257521Y177609D01*
X257535Y177623D01*
X257549Y177637D01*
X257577Y177678D01*
X257618Y177720D01*
X257715Y177872D01*
X257826Y178066D01*
X257923Y178302D01*
X258020Y178593D01*
X258090Y178940D01*
X258117Y179120D01*
Y179315D01*
Y179328D01*
Y179356D01*
Y179412D01*
X258104Y179481D01*
Y179564D01*
X258090Y179661D01*
X258048Y179883D01*
X257979Y180147D01*
X257882Y180410D01*
X257743Y180660D01*
X257549Y180896D01*
Y180909D01*
X257521Y180923D01*
X257452Y180993D01*
X257327Y181090D01*
X257160Y181201D01*
X256939Y181298D01*
X256689Y181395D01*
X256398Y181464D01*
X256231Y181492D01*
X255968D01*
X255857Y181478D01*
X255718Y181464D01*
X255552Y181423D01*
X255385Y181381D01*
X255205Y181312D01*
X255025Y181228D01*
X255011Y181215D01*
X254955Y181187D01*
X254872Y181117D01*
X254761Y181048D01*
X254650Y180951D01*
X254539Y180826D01*
X254415Y180701D01*
X254317Y180549D01*
X253208Y180701D01*
X254137Y185639D01*
X258908D01*
Y184515D01*
D02*
G37*
G36*
X279210Y155849D02*
X282914Y154923D01*
X286617Y152609D01*
X287080D01*
X287543Y152146D01*
X289395Y149831D01*
X291247Y146590D01*
X292173Y142424D01*
Y140572D01*
Y140109D01*
Y139646D01*
X291710Y139184D01*
X290784Y138721D01*
X286154D01*
X285691Y139184D01*
X285228Y139646D01*
X284765Y140572D01*
Y141498D01*
Y141961D01*
X284303Y143813D01*
X283377Y145665D01*
X281525Y147516D01*
X281062Y147979D01*
X280136Y148905D01*
X278284Y149368D01*
X275970Y149831D01*
X275044D01*
X273192Y149368D01*
X270877Y148905D01*
X268563Y147516D01*
X268100Y147053D01*
X267174Y146128D01*
X266248Y144276D01*
X265785Y141961D01*
Y141498D01*
Y140109D01*
Y137795D01*
X265322Y135017D01*
Y131776D01*
Y127610D01*
X265785Y119277D01*
Y118814D01*
X266248Y116962D01*
X267174Y115111D01*
X268563Y113259D01*
X269025Y112796D01*
X270414Y112333D01*
X272266Y111407D01*
X275044Y110944D01*
X275507D01*
X277358Y111407D01*
X279210Y111870D01*
X281525Y113259D01*
X281988Y113722D01*
X282914Y115111D01*
X284303Y116962D01*
X284765Y119277D01*
Y120666D01*
Y121129D01*
Y121592D01*
X285228Y122055D01*
X286154Y122518D01*
X291710D01*
X292173Y121592D01*
Y120666D01*
Y118814D01*
Y118351D01*
Y117888D01*
X291247Y115111D01*
X289858Y111870D01*
X287080Y108167D01*
X286154Y107704D01*
X283840Y106315D01*
X280136Y104463D01*
X275507Y104000D01*
X274581D01*
X271340Y104463D01*
X267637Y105852D01*
X263470Y108167D01*
X262544Y109092D01*
X261155Y111407D01*
X259304Y114648D01*
X258378Y118814D01*
Y119277D01*
Y120666D01*
Y122981D01*
Y126221D01*
Y129462D01*
Y133165D01*
Y141498D01*
Y141961D01*
Y142424D01*
X259304Y145202D01*
X260693Y148442D01*
X263470Y151683D01*
X263933D01*
X264396Y152609D01*
X266711Y153998D01*
X270414Y155386D01*
X275044Y156312D01*
X276432D01*
X279210Y155849D01*
D02*
G37*
G36*
X92645Y155386D02*
Y154460D01*
Y105852D01*
Y105389D01*
X92182Y104926D01*
X91256Y104463D01*
X84312D01*
X83386Y105389D01*
X69035Y141961D01*
X68109D01*
Y105389D01*
Y104926D01*
X67183Y104463D01*
X66258Y104000D01*
X62554D01*
X62091Y104463D01*
X61628Y105389D01*
Y153998D01*
Y154460D01*
Y154923D01*
X62091Y155386D01*
X69961D01*
X70424Y154923D01*
Y154460D01*
X85238Y117888D01*
X85701Y117425D01*
X86164D01*
X86627Y117888D01*
Y154460D01*
Y154923D01*
Y155386D01*
X87090Y155849D01*
X92182D01*
X92645Y155386D01*
D02*
G37*
G36*
X331059Y155849D02*
X334763Y154923D01*
X338004Y152609D01*
X338929Y152146D01*
X340318Y149831D01*
X342633Y146590D01*
X344022Y142424D01*
Y141498D01*
X343559Y139184D01*
X343096Y136406D01*
X341707Y133165D01*
X341244Y132702D01*
X339855Y131313D01*
X338004Y129462D01*
X335226Y127610D01*
X334763D01*
X333837Y126684D01*
X333374Y126221D01*
X333837Y125295D01*
X342633Y106778D01*
Y106315D01*
Y105852D01*
X341707Y104926D01*
X336152D01*
X335689Y105389D01*
X335226Y106315D01*
X326430Y124832D01*
Y125295D01*
X325504D01*
X324578Y125758D01*
X320875Y125295D01*
X320412D01*
X319949Y124832D01*
Y106315D01*
Y105852D01*
X319486Y105389D01*
X318560Y104926D01*
X313468D01*
X313005Y105389D01*
X312542Y106315D01*
Y154923D01*
Y155386D01*
Y155849D01*
X313005Y156312D01*
X328282D01*
X331059Y155849D01*
D02*
G37*
G36*
X227361D02*
X231064Y154923D01*
X234768Y152609D01*
X235694Y152146D01*
X237083Y149831D01*
X238934Y146590D01*
X239860Y142424D01*
Y141498D01*
Y139184D01*
X238934Y136406D01*
X237546Y133165D01*
X237083Y132702D01*
X235694Y131313D01*
X233842Y129462D01*
X231064Y127610D01*
X230601D01*
X230138Y126684D01*
X229676Y126221D01*
X230138Y125295D01*
X238934Y106778D01*
X239397Y106315D01*
X238934Y105852D01*
X238471Y104926D01*
X232453D01*
X231990Y105389D01*
X231527Y106315D01*
X223194Y124832D01*
X222731Y125295D01*
X221806Y125758D01*
X216713Y125295D01*
X216250D01*
X215787Y124832D01*
Y106315D01*
Y105852D01*
X215324Y105389D01*
X214398Y104926D01*
X209769D01*
X209306Y105389D01*
X208843Y106315D01*
Y154923D01*
Y155386D01*
X209306Y155849D01*
X209769Y156312D01*
X224583D01*
X227361Y155849D01*
D02*
G37*
G36*
X530587Y155386D02*
Y154460D01*
Y150757D01*
Y150294D01*
Y149831D01*
X530124Y149368D01*
X529198Y148905D01*
X512069D01*
X511606Y148442D01*
Y135017D01*
X512069D01*
Y134554D01*
X529661D01*
X530124Y134091D01*
Y133165D01*
Y128999D01*
Y128536D01*
X529661Y128073D01*
X528735Y127610D01*
X512069D01*
X511606Y127147D01*
X511143Y111870D01*
Y111407D01*
X511606Y110944D01*
X512069Y111407D01*
X531050D01*
X531513Y110944D01*
X531976Y110018D01*
Y105852D01*
X531513Y105389D01*
X531050Y104926D01*
X529661Y104463D01*
X505125D01*
X504199Y104926D01*
X503736Y105852D01*
Y154460D01*
Y154923D01*
X504199Y155386D01*
X504662Y155849D01*
X530124D01*
X530587Y155386D01*
D02*
G37*
G36*
X486144D02*
Y154460D01*
Y150757D01*
Y150294D01*
Y149831D01*
X485682Y149368D01*
X484756Y148905D01*
X473645D01*
Y148442D01*
Y147516D01*
Y146590D01*
Y144739D01*
Y141961D01*
Y138258D01*
Y133165D01*
Y127147D01*
Y105852D01*
Y105389D01*
X473182Y104926D01*
X472256Y104463D01*
X467627D01*
X467164Y104926D01*
X466701Y105852D01*
Y148442D01*
Y148905D01*
X456516D01*
X456053Y149368D01*
X455591Y149831D01*
X455127Y150757D01*
Y154460D01*
Y154923D01*
Y155386D01*
X455591Y155849D01*
X485682D01*
X486144Y155386D01*
D02*
G37*
G36*
X429203Y154923D02*
X443091Y105852D01*
Y105389D01*
X442165Y104926D01*
X441239Y104463D01*
X437073D01*
X435684Y105389D01*
X431981Y116499D01*
X431518Y116962D01*
X430592Y117425D01*
X418092D01*
X417166Y116499D01*
X413926Y105389D01*
Y104926D01*
X413463Y104463D01*
X408371D01*
X407908Y104926D01*
X407445Y105389D01*
X406982Y105852D01*
X420870Y154923D01*
Y155386D01*
X421333Y155849D01*
X428277D01*
X429203Y154923D01*
D02*
G37*
G36*
X389390Y155386D02*
X389853Y154460D01*
Y150757D01*
Y150294D01*
Y149831D01*
X388927Y149368D01*
X388001Y148905D01*
X370872D01*
X369484Y148442D01*
Y135017D01*
Y134554D01*
X387538D01*
X388001Y134091D01*
Y133165D01*
Y128999D01*
Y128536D01*
X387538Y128073D01*
X386612Y127610D01*
X369484D01*
Y127147D01*
Y111870D01*
X370872D01*
Y111407D01*
Y110944D01*
X371335Y111407D01*
X389853D01*
X390316Y110944D01*
Y110018D01*
Y105852D01*
Y105389D01*
X389853Y104926D01*
X388927Y104463D01*
X363928D01*
X363465Y104926D01*
X363002Y105852D01*
Y154460D01*
Y154923D01*
Y155386D01*
X363465Y155849D01*
X388927D01*
X389390Y155386D01*
D02*
G37*
G36*
X188011D02*
Y154460D01*
Y150757D01*
Y150294D01*
Y149831D01*
X187548Y149368D01*
X186622Y148905D01*
X169030D01*
X168104Y148442D01*
Y135017D01*
Y134554D01*
X186159D01*
X186622Y134091D01*
Y133165D01*
Y128999D01*
Y128536D01*
X186159Y128073D01*
X185233Y127610D01*
X168567D01*
X167642Y127147D01*
Y111870D01*
X168567D01*
Y111407D01*
Y110944D01*
X169030Y111407D01*
X187548D01*
X188011Y110944D01*
Y110018D01*
Y105852D01*
Y105389D01*
X187548Y104926D01*
X186622Y104463D01*
X162086D01*
X161623Y104926D01*
X161160Y105852D01*
Y154460D01*
Y154923D01*
Y155386D01*
X161623Y155849D01*
X187548D01*
X188011Y155386D01*
D02*
G37*
G36*
X142643D02*
Y154460D01*
Y150757D01*
Y150294D01*
Y149831D01*
X142180Y149368D01*
X141254Y148905D01*
X130606D01*
Y148442D01*
Y147516D01*
Y146590D01*
Y144739D01*
Y141961D01*
Y138258D01*
Y133165D01*
Y127147D01*
Y105852D01*
Y105389D01*
X129680Y104926D01*
X128755Y104463D01*
X124125D01*
X123662Y104926D01*
X123199Y105852D01*
Y148442D01*
Y148905D01*
X113015D01*
X112552Y149368D01*
X111626Y149831D01*
X111163Y150757D01*
Y154460D01*
Y154923D01*
X111626Y155386D01*
X112089Y155849D01*
X142180D01*
X142643Y155386D01*
D02*
G37*
G36*
X38481D02*
Y154460D01*
Y105852D01*
Y105389D01*
X38018Y104926D01*
X37092Y104463D01*
X32463D01*
X32000Y104926D01*
Y105852D01*
Y154460D01*
Y154923D01*
Y155386D01*
X32463Y155849D01*
X38018D01*
X38481Y155386D01*
D02*
G37*
G36*
X304971Y57625D02*
X305082Y57611D01*
X305221Y57597D01*
X305374Y57569D01*
X305526Y57541D01*
X305887Y57444D01*
X306247Y57306D01*
X306428Y57222D01*
X306608Y57125D01*
X306774Y57001D01*
X306927Y56862D01*
X306941Y56848D01*
X306968Y56834D01*
X306996Y56779D01*
X307052Y56723D01*
X307121Y56654D01*
X307190Y56557D01*
X307260Y56460D01*
X307343Y56335D01*
X307482Y56071D01*
X307620Y55739D01*
X307676Y55572D01*
X307703Y55378D01*
X307731Y55184D01*
X307745Y54976D01*
Y54948D01*
Y54879D01*
X307731Y54768D01*
X307717Y54615D01*
X307690Y54449D01*
X307634Y54255D01*
X307579Y54047D01*
X307495Y53839D01*
X307482Y53811D01*
X307454Y53741D01*
X307398Y53631D01*
X307315Y53478D01*
X307204Y53312D01*
X307066Y53104D01*
X306899Y52896D01*
X306705Y52660D01*
X306677Y52632D01*
X306608Y52549D01*
X306539Y52480D01*
X306469Y52410D01*
X306386Y52327D01*
X306275Y52216D01*
X306164Y52105D01*
X306025Y51980D01*
X305887Y51842D01*
X305720Y51689D01*
X305540Y51536D01*
X305346Y51356D01*
X305124Y51176D01*
X304902Y50982D01*
X304888Y50968D01*
X304860Y50940D01*
X304805Y50898D01*
X304736Y50843D01*
X304652Y50760D01*
X304555Y50677D01*
X304333Y50496D01*
X304098Y50288D01*
X303876Y50080D01*
X303682Y49900D01*
X303598Y49831D01*
X303529Y49761D01*
X303515Y49747D01*
X303474Y49706D01*
X303418Y49650D01*
X303349Y49567D01*
X303279Y49470D01*
X303196Y49373D01*
X303030Y49137D01*
X307759D01*
Y48000D01*
X301393D01*
Y48014D01*
Y48069D01*
Y48153D01*
X301407Y48264D01*
X301421Y48388D01*
X301449Y48527D01*
X301476Y48666D01*
X301532Y48818D01*
Y48832D01*
X301546Y48846D01*
X301574Y48929D01*
X301629Y49054D01*
X301712Y49220D01*
X301823Y49415D01*
X301962Y49637D01*
X302115Y49858D01*
X302309Y50094D01*
Y50108D01*
X302336Y50122D01*
X302406Y50205D01*
X302530Y50330D01*
X302711Y50510D01*
X302919Y50718D01*
X303182Y50968D01*
X303501Y51245D01*
X303848Y51536D01*
X303862Y51550D01*
X303917Y51592D01*
X304001Y51661D01*
X304098Y51744D01*
X304223Y51855D01*
X304375Y51980D01*
X304528Y52119D01*
X304708Y52271D01*
X305055Y52604D01*
X305401Y52937D01*
X305568Y53104D01*
X305720Y53270D01*
X305859Y53422D01*
X305970Y53575D01*
Y53589D01*
X305998Y53603D01*
X306025Y53644D01*
X306053Y53700D01*
X306150Y53853D01*
X306261Y54033D01*
X306358Y54255D01*
X306455Y54490D01*
X306511Y54754D01*
X306539Y55003D01*
Y55017D01*
Y55031D01*
X306525Y55114D01*
X306511Y55253D01*
X306469Y55406D01*
X306414Y55600D01*
X306317Y55794D01*
X306192Y55988D01*
X306025Y56182D01*
X305998Y56210D01*
X305928Y56266D01*
X305831Y56335D01*
X305679Y56432D01*
X305485Y56515D01*
X305263Y56598D01*
X304999Y56654D01*
X304708Y56668D01*
X304625D01*
X304569Y56654D01*
X304403Y56640D01*
X304209Y56598D01*
X304001Y56543D01*
X303765Y56446D01*
X303543Y56321D01*
X303335Y56155D01*
X303307Y56127D01*
X303252Y56058D01*
X303169Y55947D01*
X303085Y55780D01*
X302988Y55586D01*
X302905Y55336D01*
X302850Y55059D01*
X302822Y54740D01*
X301615Y54865D01*
Y54879D01*
X301629Y54920D01*
Y54990D01*
X301643Y55087D01*
X301671Y55198D01*
X301698Y55322D01*
X301740Y55475D01*
X301782Y55628D01*
X301893Y55960D01*
X302059Y56293D01*
X302156Y56460D01*
X302281Y56626D01*
X302406Y56779D01*
X302544Y56917D01*
X302558Y56931D01*
X302586Y56945D01*
X302628Y56987D01*
X302697Y57028D01*
X302780Y57084D01*
X302877Y57139D01*
X302988Y57209D01*
X303127Y57278D01*
X303279Y57347D01*
X303446Y57417D01*
X303626Y57472D01*
X303820Y57528D01*
X304028Y57569D01*
X304250Y57611D01*
X304486Y57625D01*
X304736Y57639D01*
X304874D01*
X304971Y57625D01*
D02*
G37*
G36*
X298536Y48000D02*
X297358D01*
Y55503D01*
X297344Y55489D01*
X297274Y55434D01*
X297191Y55350D01*
X297052Y55253D01*
X296900Y55128D01*
X296706Y54990D01*
X296484Y54837D01*
X296234Y54685D01*
X296220D01*
X296206Y54671D01*
X296123Y54615D01*
X295985Y54546D01*
X295818Y54463D01*
X295624Y54366D01*
X295416Y54268D01*
X295208Y54171D01*
X295000Y54088D01*
Y55225D01*
X295014D01*
X295042Y55253D01*
X295097Y55267D01*
X295166Y55309D01*
X295250Y55350D01*
X295347Y55406D01*
X295583Y55544D01*
X295860Y55697D01*
X296137Y55891D01*
X296428Y56113D01*
X296720Y56349D01*
X296733Y56363D01*
X296747Y56377D01*
X296789Y56418D01*
X296845Y56460D01*
X296969Y56598D01*
X297136Y56765D01*
X297302Y56959D01*
X297482Y57181D01*
X297635Y57403D01*
X297774Y57639D01*
X298536D01*
Y48000D01*
D02*
G37*
G36*
X232321Y239674D02*
X233625D01*
Y238592D01*
X232321D01*
Y236290D01*
X231142D01*
Y238592D01*
X226968D01*
Y239674D01*
X231364Y245887D01*
X232321D01*
Y239674D01*
D02*
G37*
G36*
X231287Y185791D02*
X231467Y185763D01*
X231689Y185722D01*
X231939Y185652D01*
X232188Y185569D01*
X232438Y185458D01*
X232452D01*
X232466Y185444D01*
X232549Y185403D01*
X232674Y185320D01*
X232812Y185222D01*
X232979Y185084D01*
X233145Y184931D01*
X233312Y184751D01*
X233450Y184543D01*
X233464Y184515D01*
X233506Y184446D01*
X233561Y184321D01*
X233631Y184168D01*
X233700Y183988D01*
X233755Y183780D01*
X233797Y183544D01*
X233811Y183309D01*
Y183281D01*
Y183198D01*
X233797Y183087D01*
X233769Y182934D01*
X233728Y182754D01*
X233658Y182560D01*
X233575Y182366D01*
X233464Y182171D01*
X233450Y182144D01*
X233409Y182088D01*
X233326Y181991D01*
X233214Y181880D01*
X233076Y181755D01*
X232909Y181617D01*
X232715Y181492D01*
X232479Y181367D01*
X232493D01*
X232521Y181353D01*
X232563Y181339D01*
X232618Y181325D01*
X232771Y181270D01*
X232965Y181187D01*
X233187Y181076D01*
X233409Y180937D01*
X233617Y180757D01*
X233811Y180549D01*
X233825Y180521D01*
X233880Y180438D01*
X233963Y180299D01*
X234047Y180119D01*
X234130Y179897D01*
X234213Y179634D01*
X234268Y179328D01*
X234282Y178996D01*
Y178982D01*
Y178940D01*
Y178871D01*
X234268Y178788D01*
X234255Y178677D01*
X234227Y178552D01*
X234199Y178413D01*
X234171Y178261D01*
X234060Y177928D01*
X233977Y177747D01*
X233894Y177581D01*
X233783Y177401D01*
X233658Y177220D01*
X233520Y177040D01*
X233353Y176874D01*
X233339Y176860D01*
X233312Y176832D01*
X233256Y176791D01*
X233187Y176735D01*
X233104Y176666D01*
X232993Y176596D01*
X232868Y176513D01*
X232715Y176444D01*
X232563Y176361D01*
X232382Y176277D01*
X232202Y176208D01*
X231994Y176139D01*
X231772Y176083D01*
X231536Y176042D01*
X231301Y176014D01*
X231037Y176000D01*
X230912D01*
X230829Y176014D01*
X230718Y176028D01*
X230593Y176042D01*
X230455Y176069D01*
X230302Y176097D01*
X229969Y176180D01*
X229623Y176319D01*
X229442Y176402D01*
X229276Y176499D01*
X229109Y176624D01*
X228943Y176749D01*
X228929Y176763D01*
X228901Y176791D01*
X228860Y176832D01*
X228818Y176888D01*
X228749Y176957D01*
X228680Y177054D01*
X228596Y177151D01*
X228513Y177276D01*
X228430Y177415D01*
X228347Y177553D01*
X228194Y177886D01*
X228069Y178274D01*
X228028Y178482D01*
X228000Y178704D01*
X229179Y178857D01*
Y178843D01*
X229193Y178815D01*
X229207Y178760D01*
X229220Y178690D01*
X229234Y178607D01*
X229262Y178510D01*
X229331Y178302D01*
X229428Y178053D01*
X229553Y177817D01*
X229692Y177595D01*
X229858Y177401D01*
X229886Y177387D01*
X229942Y177331D01*
X230053Y177262D01*
X230191Y177193D01*
X230358Y177110D01*
X230566Y177040D01*
X230801Y176985D01*
X231051Y176971D01*
X231134D01*
X231190Y176985D01*
X231342Y176999D01*
X231536Y177040D01*
X231758Y177110D01*
X231994Y177207D01*
X232230Y177345D01*
X232452Y177539D01*
X232479Y177567D01*
X232549Y177650D01*
X232632Y177775D01*
X232743Y177942D01*
X232854Y178150D01*
X232937Y178385D01*
X233006Y178663D01*
X233034Y178968D01*
Y178982D01*
Y179009D01*
Y179051D01*
X233020Y179107D01*
X233006Y179259D01*
X232965Y179439D01*
X232909Y179661D01*
X232812Y179883D01*
X232674Y180105D01*
X232493Y180313D01*
X232466Y180341D01*
X232396Y180396D01*
X232285Y180480D01*
X232133Y180577D01*
X231939Y180674D01*
X231703Y180757D01*
X231439Y180812D01*
X231148Y180840D01*
X231023D01*
X230926Y180826D01*
X230801Y180812D01*
X230663Y180785D01*
X230496Y180757D01*
X230316Y180715D01*
X230455Y181755D01*
X230524D01*
X230579Y181742D01*
X230760D01*
X230912Y181769D01*
X231093Y181797D01*
X231301Y181839D01*
X231536Y181908D01*
X231758Y182005D01*
X231994Y182130D01*
X232008D01*
X232022Y182144D01*
X232091Y182199D01*
X232188Y182296D01*
X232299Y182421D01*
X232410Y182601D01*
X232507Y182809D01*
X232577Y183045D01*
X232604Y183184D01*
Y183336D01*
Y183350D01*
Y183364D01*
Y183447D01*
X232577Y183558D01*
X232549Y183711D01*
X232493Y183877D01*
X232424Y184058D01*
X232313Y184238D01*
X232160Y184404D01*
X232147Y184418D01*
X232077Y184474D01*
X231980Y184543D01*
X231855Y184626D01*
X231689Y184695D01*
X231495Y184765D01*
X231273Y184820D01*
X231023Y184834D01*
X230912D01*
X230788Y184806D01*
X230621Y184779D01*
X230441Y184723D01*
X230261Y184654D01*
X230066Y184543D01*
X229886Y184404D01*
X229872Y184390D01*
X229817Y184321D01*
X229734Y184224D01*
X229636Y184085D01*
X229539Y183905D01*
X229442Y183683D01*
X229359Y183420D01*
X229304Y183114D01*
X228125Y183323D01*
Y183336D01*
X228139Y183378D01*
X228153Y183433D01*
X228166Y183517D01*
X228194Y183614D01*
X228236Y183725D01*
X228319Y183988D01*
X228458Y184293D01*
X228624Y184598D01*
X228832Y184890D01*
X229096Y185153D01*
X229109Y185167D01*
X229137Y185181D01*
X229179Y185209D01*
X229234Y185250D01*
X229304Y185306D01*
X229401Y185361D01*
X229498Y185417D01*
X229623Y185486D01*
X229900Y185597D01*
X230219Y185708D01*
X230593Y185777D01*
X230788Y185805D01*
X231134D01*
X231287Y185791D01*
D02*
G37*
G36*
X205762Y245915D02*
X205873Y245901D01*
X206011Y245887D01*
X206164Y245859D01*
X206316Y245832D01*
X206677Y245734D01*
X207038Y245596D01*
X207218Y245513D01*
X207398Y245415D01*
X207565Y245291D01*
X207717Y245152D01*
X207731Y245138D01*
X207759Y245124D01*
X207787Y245069D01*
X207842Y245013D01*
X207911Y244944D01*
X207981Y244847D01*
X208050Y244750D01*
X208133Y244625D01*
X208272Y244361D01*
X208411Y244029D01*
X208466Y243862D01*
X208494Y243668D01*
X208521Y243474D01*
X208535Y243266D01*
Y243238D01*
Y243169D01*
X208521Y243058D01*
X208508Y242905D01*
X208480Y242739D01*
X208424Y242545D01*
X208369Y242337D01*
X208286Y242129D01*
X208272Y242101D01*
X208244Y242031D01*
X208189Y241921D01*
X208106Y241768D01*
X207994Y241602D01*
X207856Y241394D01*
X207689Y241185D01*
X207495Y240950D01*
X207467Y240922D01*
X207398Y240839D01*
X207329Y240770D01*
X207260Y240700D01*
X207176Y240617D01*
X207065Y240506D01*
X206954Y240395D01*
X206816Y240270D01*
X206677Y240131D01*
X206511Y239979D01*
X206330Y239826D01*
X206136Y239646D01*
X205914Y239466D01*
X205692Y239272D01*
X205679Y239258D01*
X205651Y239230D01*
X205595Y239188D01*
X205526Y239133D01*
X205443Y239050D01*
X205346Y238967D01*
X205124Y238786D01*
X204888Y238578D01*
X204666Y238370D01*
X204472Y238190D01*
X204389Y238121D01*
X204319Y238051D01*
X204305Y238037D01*
X204264Y237996D01*
X204208Y237940D01*
X204139Y237857D01*
X204070Y237760D01*
X203986Y237663D01*
X203820Y237427D01*
X208549D01*
Y236290D01*
X202184D01*
Y236304D01*
Y236359D01*
Y236443D01*
X202197Y236553D01*
X202211Y236678D01*
X202239Y236817D01*
X202267Y236956D01*
X202322Y237108D01*
Y237122D01*
X202336Y237136D01*
X202364Y237219D01*
X202419Y237344D01*
X202503Y237510D01*
X202614Y237705D01*
X202752Y237927D01*
X202905Y238148D01*
X203099Y238384D01*
Y238398D01*
X203127Y238412D01*
X203196Y238495D01*
X203321Y238620D01*
X203501Y238800D01*
X203709Y239008D01*
X203973Y239258D01*
X204292Y239535D01*
X204638Y239826D01*
X204652Y239840D01*
X204708Y239882D01*
X204791Y239951D01*
X204888Y240035D01*
X205013Y240145D01*
X205165Y240270D01*
X205318Y240409D01*
X205498Y240562D01*
X205845Y240894D01*
X206192Y241227D01*
X206358Y241394D01*
X206511Y241560D01*
X206649Y241712D01*
X206760Y241865D01*
Y241879D01*
X206788Y241893D01*
X206816Y241934D01*
X206843Y241990D01*
X206940Y242143D01*
X207052Y242323D01*
X207148Y242545D01*
X207246Y242780D01*
X207301Y243044D01*
X207329Y243293D01*
Y243307D01*
Y243321D01*
X207315Y243405D01*
X207301Y243543D01*
X207260Y243696D01*
X207204Y243890D01*
X207107Y244084D01*
X206982Y244278D01*
X206816Y244472D01*
X206788Y244500D01*
X206719Y244556D01*
X206621Y244625D01*
X206469Y244722D01*
X206275Y244805D01*
X206053Y244888D01*
X205789Y244944D01*
X205498Y244958D01*
X205415D01*
X205359Y244944D01*
X205193Y244930D01*
X204999Y244888D01*
X204791Y244833D01*
X204555Y244736D01*
X204333Y244611D01*
X204125Y244445D01*
X204097Y244417D01*
X204042Y244347D01*
X203959Y244237D01*
X203876Y244070D01*
X203778Y243876D01*
X203695Y243626D01*
X203640Y243349D01*
X203612Y243030D01*
X202405Y243155D01*
Y243169D01*
X202419Y243210D01*
Y243280D01*
X202433Y243377D01*
X202461Y243488D01*
X202489Y243612D01*
X202530Y243765D01*
X202572Y243918D01*
X202683Y244251D01*
X202849Y244583D01*
X202946Y244750D01*
X203071Y244916D01*
X203196Y245069D01*
X203335Y245207D01*
X203349Y245221D01*
X203376Y245235D01*
X203418Y245277D01*
X203487Y245318D01*
X203570Y245374D01*
X203668Y245429D01*
X203778Y245499D01*
X203917Y245568D01*
X204070Y245637D01*
X204236Y245707D01*
X204417Y245762D01*
X204611Y245818D01*
X204819Y245859D01*
X205040Y245901D01*
X205276Y245915D01*
X205526Y245928D01*
X205665D01*
X205762Y245915D01*
D02*
G37*
G36*
X416013Y44703D02*
X416143D01*
X416273Y44684D01*
X416587Y44629D01*
X416921Y44536D01*
X417272Y44388D01*
X417624Y44203D01*
X417921Y43944D01*
X417958Y43906D01*
X418032Y43795D01*
X418161Y43629D01*
X418217Y43499D01*
X418291Y43369D01*
X418365Y43203D01*
X418421Y43036D01*
X418495Y42851D01*
X418550Y42629D01*
X418587Y42407D01*
X418624Y42147D01*
X418661Y41888D01*
Y41592D01*
Y35222D01*
X417087D01*
Y41055D01*
Y41073D01*
Y41092D01*
Y41203D01*
Y41370D01*
X417069Y41573D01*
X417050Y41796D01*
X417032Y42018D01*
X416995Y42240D01*
X416939Y42407D01*
Y42425D01*
X416902Y42481D01*
X416865Y42555D01*
X416810Y42647D01*
X416736Y42758D01*
X416643Y42870D01*
X416532Y42981D01*
X416384Y43092D01*
X416365Y43110D01*
X416310Y43129D01*
X416236Y43166D01*
X416106Y43221D01*
X415976Y43277D01*
X415810Y43314D01*
X415643Y43333D01*
X415439Y43351D01*
X415347D01*
X415273Y43333D01*
X415088Y43314D01*
X414865Y43277D01*
X414606Y43184D01*
X414328Y43073D01*
X414051Y42907D01*
X413791Y42684D01*
X413773Y42647D01*
X413699Y42555D01*
X413588Y42407D01*
X413477Y42184D01*
X413347Y41888D01*
X413254Y41536D01*
X413180Y41111D01*
X413143Y40610D01*
Y35222D01*
X411569D01*
Y41240D01*
Y41259D01*
Y41296D01*
Y41333D01*
Y41407D01*
X411551Y41610D01*
X411514Y41833D01*
X411477Y42092D01*
X411403Y42351D01*
X411310Y42592D01*
X411181Y42814D01*
X411162Y42832D01*
X411106Y42907D01*
X411014Y42981D01*
X410884Y43092D01*
X410718Y43184D01*
X410495Y43277D01*
X410236Y43333D01*
X409921Y43351D01*
X409810D01*
X409681Y43333D01*
X409533Y43314D01*
X409347Y43258D01*
X409125Y43203D01*
X408922Y43110D01*
X408699Y42999D01*
X408681Y42981D01*
X408607Y42925D01*
X408514Y42851D01*
X408385Y42740D01*
X408255Y42592D01*
X408125Y42407D01*
X407996Y42203D01*
X407885Y41962D01*
X407866Y41925D01*
X407848Y41833D01*
X407811Y41684D01*
X407755Y41481D01*
X407700Y41203D01*
X407662Y40870D01*
X407644Y40481D01*
X407625Y40037D01*
Y35222D01*
X406051D01*
Y44517D01*
X407459D01*
Y43184D01*
X407477Y43221D01*
X407533Y43295D01*
X407644Y43425D01*
X407774Y43573D01*
X407940Y43758D01*
X408144Y43944D01*
X408366Y44129D01*
X408625Y44295D01*
X408662Y44314D01*
X408755Y44369D01*
X408903Y44425D01*
X409107Y44517D01*
X409347Y44592D01*
X409625Y44647D01*
X409940Y44703D01*
X410273Y44721D01*
X410440D01*
X410644Y44703D01*
X410866Y44666D01*
X411144Y44610D01*
X411421Y44536D01*
X411699Y44425D01*
X411958Y44277D01*
X411995Y44258D01*
X412069Y44203D01*
X412180Y44110D01*
X412329Y43962D01*
X412477Y43795D01*
X412643Y43592D01*
X412791Y43351D01*
X412903Y43073D01*
X412921Y43092D01*
X412958Y43147D01*
X413014Y43221D01*
X413106Y43333D01*
X413217Y43462D01*
X413347Y43592D01*
X413495Y43740D01*
X413680Y43906D01*
X413884Y44055D01*
X414088Y44203D01*
X414328Y44332D01*
X414588Y44462D01*
X414865Y44573D01*
X415162Y44647D01*
X415458Y44703D01*
X415791Y44721D01*
X415921D01*
X416013Y44703D01*
D02*
G37*
G36*
X401089D02*
X401219D01*
X401348Y44684D01*
X401663Y44629D01*
X401996Y44536D01*
X402348Y44388D01*
X402700Y44203D01*
X402996Y43944D01*
X403033Y43906D01*
X403107Y43795D01*
X403237Y43629D01*
X403293Y43499D01*
X403367Y43369D01*
X403441Y43203D01*
X403496Y43036D01*
X403570Y42851D01*
X403626Y42629D01*
X403663Y42407D01*
X403700Y42147D01*
X403737Y41888D01*
Y41592D01*
Y35222D01*
X402163D01*
Y41055D01*
Y41073D01*
Y41092D01*
Y41203D01*
Y41370D01*
X402145Y41573D01*
X402126Y41796D01*
X402108Y42018D01*
X402070Y42240D01*
X402015Y42407D01*
Y42425D01*
X401978Y42481D01*
X401941Y42555D01*
X401885Y42647D01*
X401811Y42758D01*
X401719Y42870D01*
X401608Y42981D01*
X401459Y43092D01*
X401441Y43110D01*
X401385Y43129D01*
X401311Y43166D01*
X401182Y43221D01*
X401052Y43277D01*
X400885Y43314D01*
X400719Y43333D01*
X400515Y43351D01*
X400422D01*
X400348Y43333D01*
X400163Y43314D01*
X399941Y43277D01*
X399682Y43184D01*
X399404Y43073D01*
X399126Y42907D01*
X398867Y42684D01*
X398848Y42647D01*
X398774Y42555D01*
X398663Y42407D01*
X398552Y42184D01*
X398423Y41888D01*
X398330Y41536D01*
X398256Y41111D01*
X398219Y40610D01*
Y35222D01*
X396645D01*
Y41240D01*
Y41259D01*
Y41296D01*
Y41333D01*
Y41407D01*
X396627Y41610D01*
X396590Y41833D01*
X396553Y42092D01*
X396478Y42351D01*
X396386Y42592D01*
X396256Y42814D01*
X396238Y42832D01*
X396182Y42907D01*
X396090Y42981D01*
X395960Y43092D01*
X395793Y43184D01*
X395571Y43277D01*
X395312Y43333D01*
X394997Y43351D01*
X394886D01*
X394756Y43333D01*
X394608Y43314D01*
X394423Y43258D01*
X394201Y43203D01*
X393997Y43110D01*
X393775Y42999D01*
X393756Y42981D01*
X393682Y42925D01*
X393590Y42851D01*
X393460Y42740D01*
X393331Y42592D01*
X393201Y42407D01*
X393071Y42203D01*
X392960Y41962D01*
X392942Y41925D01*
X392923Y41833D01*
X392886Y41684D01*
X392831Y41481D01*
X392775Y41203D01*
X392738Y40870D01*
X392719Y40481D01*
X392701Y40037D01*
Y35222D01*
X391127D01*
Y44517D01*
X392534D01*
Y43184D01*
X392553Y43221D01*
X392608Y43295D01*
X392719Y43425D01*
X392849Y43573D01*
X393016Y43758D01*
X393219Y43944D01*
X393442Y44129D01*
X393701Y44295D01*
X393738Y44314D01*
X393830Y44369D01*
X393979Y44425D01*
X394182Y44517D01*
X394423Y44592D01*
X394701Y44647D01*
X395016Y44703D01*
X395349Y44721D01*
X395516D01*
X395719Y44703D01*
X395941Y44666D01*
X396219Y44610D01*
X396497Y44536D01*
X396775Y44425D01*
X397034Y44277D01*
X397071Y44258D01*
X397145Y44203D01*
X397256Y44110D01*
X397404Y43962D01*
X397552Y43795D01*
X397719Y43592D01*
X397867Y43351D01*
X397978Y43073D01*
X397997Y43092D01*
X398034Y43147D01*
X398089Y43221D01*
X398182Y43333D01*
X398293Y43462D01*
X398423Y43592D01*
X398571Y43740D01*
X398756Y43906D01*
X398960Y44055D01*
X399163Y44203D01*
X399404Y44332D01*
X399663Y44462D01*
X399941Y44573D01*
X400237Y44647D01*
X400533Y44703D01*
X400867Y44721D01*
X400997D01*
X401089Y44703D01*
D02*
G37*
G36*
X430216Y39074D02*
X425346D01*
Y40648D01*
X430216D01*
Y39074D01*
D02*
G37*
G36*
X472174Y46517D02*
X467952D01*
Y35222D01*
X466249D01*
Y46517D01*
X462027D01*
Y48036D01*
X472174D01*
Y46517D01*
D02*
G37*
G36*
X442214Y48017D02*
X442363D01*
X442696Y47980D01*
X443066Y47943D01*
X443455Y47869D01*
X443844Y47776D01*
X444196Y47647D01*
X444214D01*
X444233Y47628D01*
X444344Y47573D01*
X444510Y47480D01*
X444696Y47351D01*
X444918Y47184D01*
X445159Y46980D01*
X445381Y46721D01*
X445584Y46443D01*
X445603Y46406D01*
X445658Y46295D01*
X445751Y46147D01*
X445844Y45925D01*
X445936Y45666D01*
X446029Y45388D01*
X446084Y45073D01*
X446103Y44758D01*
Y44721D01*
Y44629D01*
X446084Y44462D01*
X446047Y44258D01*
X445992Y44018D01*
X445899Y43758D01*
X445788Y43499D01*
X445640Y43221D01*
X445621Y43184D01*
X445566Y43110D01*
X445455Y42962D01*
X445307Y42814D01*
X445121Y42629D01*
X444899Y42425D01*
X444622Y42240D01*
X444307Y42055D01*
X444325D01*
X444362Y42036D01*
X444418Y42018D01*
X444492Y41981D01*
X444714Y41907D01*
X444973Y41777D01*
X445251Y41610D01*
X445566Y41407D01*
X445844Y41166D01*
X446103Y40870D01*
X446121Y40833D01*
X446195Y40722D01*
X446307Y40555D01*
X446418Y40333D01*
X446529Y40037D01*
X446640Y39722D01*
X446714Y39351D01*
X446732Y38944D01*
Y38926D01*
Y38907D01*
Y38796D01*
X446714Y38611D01*
X446677Y38389D01*
X446640Y38129D01*
X446566Y37852D01*
X446473Y37555D01*
X446344Y37259D01*
X446325Y37222D01*
X446269Y37129D01*
X446195Y37000D01*
X446084Y36815D01*
X445936Y36630D01*
X445788Y36426D01*
X445603Y36222D01*
X445399Y36056D01*
X445381Y36037D01*
X445307Y35981D01*
X445177Y35907D01*
X445010Y35833D01*
X444807Y35722D01*
X444566Y35611D01*
X444307Y35519D01*
X443992Y35426D01*
X443955D01*
X443844Y35389D01*
X443659Y35370D01*
X443418Y35333D01*
X443122Y35296D01*
X442770Y35259D01*
X442381Y35241D01*
X441937Y35222D01*
X437048Y35222D01*
Y48036D01*
X442085Y48036D01*
X442214Y48017D01*
D02*
G37*
G36*
X378443Y35222D02*
X376647D01*
Y37018D01*
X378443D01*
Y35222D01*
D02*
G37*
G36*
X371722D02*
X370148D01*
Y45240D01*
X370129Y45221D01*
X370037Y45147D01*
X369926Y45036D01*
X369740Y44906D01*
X369537Y44740D01*
X369277Y44555D01*
X368981Y44351D01*
X368648Y44147D01*
X368629D01*
X368611Y44129D01*
X368500Y44055D01*
X368315Y43962D01*
X368092Y43851D01*
X367833Y43721D01*
X367556Y43592D01*
X367278Y43462D01*
X367000Y43351D01*
Y44869D01*
X367019D01*
X367056Y44906D01*
X367130Y44925D01*
X367222Y44981D01*
X367333Y45036D01*
X367463Y45110D01*
X367778Y45295D01*
X368148Y45499D01*
X368518Y45758D01*
X368907Y46054D01*
X369296Y46369D01*
X369315Y46388D01*
X369333Y46406D01*
X369389Y46462D01*
X369463Y46517D01*
X369629Y46702D01*
X369851Y46925D01*
X370074Y47184D01*
X370314Y47480D01*
X370518Y47776D01*
X370703Y48091D01*
X371722D01*
Y35222D01*
D02*
G37*
G36*
X454972Y48239D02*
X455139D01*
X455306Y48221D01*
X455528Y48184D01*
X455750Y48147D01*
X456231Y48054D01*
X456787Y47906D01*
X457324Y47684D01*
X457602Y47554D01*
X457879Y47406D01*
X457898Y47388D01*
X457935Y47369D01*
X458009Y47314D01*
X458120Y47258D01*
X458231Y47165D01*
X458379Y47054D01*
X458694Y46795D01*
X459027Y46462D01*
X459398Y46054D01*
X459750Y45573D01*
X460046Y45036D01*
Y45017D01*
X460083Y44962D01*
X460120Y44888D01*
X460157Y44777D01*
X460231Y44629D01*
X460287Y44462D01*
X460361Y44258D01*
X460435Y44036D01*
X460490Y43795D01*
X460564Y43536D01*
X460638Y43240D01*
X460694Y42944D01*
X460768Y42296D01*
X460805Y41592D01*
Y41573D01*
Y41499D01*
Y41407D01*
X460787Y41259D01*
Y41092D01*
X460768Y40888D01*
X460731Y40666D01*
X460713Y40425D01*
X460620Y39888D01*
X460472Y39296D01*
X460268Y38703D01*
X460157Y38407D01*
X460009Y38111D01*
Y38092D01*
X459972Y38037D01*
X459935Y37963D01*
X459861Y37852D01*
X459787Y37722D01*
X459694Y37592D01*
X459435Y37241D01*
X459120Y36870D01*
X458750Y36481D01*
X458305Y36111D01*
X457787Y35778D01*
X457768D01*
X457731Y35741D01*
X457639Y35704D01*
X457528Y35648D01*
X457398Y35593D01*
X457250Y35537D01*
X457065Y35463D01*
X456861Y35389D01*
X456639Y35315D01*
X456398Y35241D01*
X455861Y35130D01*
X455287Y35037D01*
X454676Y35000D01*
X454491D01*
X454380Y35018D01*
X454213D01*
X454028Y35056D01*
X453824Y35074D01*
X453584Y35111D01*
X453084Y35222D01*
X452547Y35370D01*
X451991Y35593D01*
X451713Y35722D01*
X451436Y35870D01*
X451417Y35889D01*
X451380Y35907D01*
X451306Y35963D01*
X451195Y36037D01*
X451084Y36111D01*
X450954Y36222D01*
X450639Y36500D01*
X450288Y36833D01*
X449917Y37241D01*
X449584Y37703D01*
X449269Y38240D01*
Y38259D01*
X449232Y38314D01*
X449195Y38389D01*
X449158Y38500D01*
X449103Y38648D01*
X449047Y38814D01*
X448973Y39000D01*
X448917Y39203D01*
X448843Y39444D01*
X448769Y39685D01*
X448658Y40240D01*
X448584Y40814D01*
X448547Y41444D01*
Y41462D01*
Y41481D01*
Y41592D01*
X448566Y41759D01*
Y41981D01*
X448603Y42240D01*
X448640Y42555D01*
X448695Y42907D01*
X448769Y43277D01*
X448843Y43666D01*
X448954Y44073D01*
X449103Y44481D01*
X449269Y44906D01*
X449454Y45314D01*
X449695Y45721D01*
X449954Y46091D01*
X450251Y46443D01*
X450269Y46462D01*
X450325Y46517D01*
X450436Y46610D01*
X450565Y46721D01*
X450732Y46869D01*
X450936Y47017D01*
X451176Y47184D01*
X451454Y47351D01*
X451750Y47517D01*
X452084Y47684D01*
X452454Y47832D01*
X452843Y47980D01*
X453269Y48091D01*
X453713Y48184D01*
X454176Y48239D01*
X454676Y48258D01*
X454843D01*
X454972Y48239D01*
D02*
G37*
G36*
X385294Y48073D02*
X385535Y48036D01*
X385813Y47980D01*
X386109Y47906D01*
X386424Y47814D01*
X386720Y47665D01*
X386739D01*
X386757Y47647D01*
X386850Y47591D01*
X386998Y47499D01*
X387183Y47369D01*
X387387Y47184D01*
X387609Y46980D01*
X387813Y46740D01*
X388016Y46462D01*
X388035Y46425D01*
X388109Y46332D01*
X388183Y46165D01*
X388313Y45925D01*
X388424Y45647D01*
X388572Y45332D01*
X388701Y44962D01*
X388812Y44555D01*
Y44536D01*
X388831Y44499D01*
X388850Y44443D01*
X388868Y44351D01*
X388887Y44240D01*
X388905Y44110D01*
X388942Y43944D01*
X388961Y43758D01*
X388998Y43555D01*
X389016Y43333D01*
X389035Y43073D01*
X389072Y42814D01*
X389090Y42518D01*
Y42221D01*
X389109Y41888D01*
Y41536D01*
Y41518D01*
Y41444D01*
Y41314D01*
Y41166D01*
X389090Y40962D01*
Y40740D01*
X389072Y40499D01*
X389053Y40240D01*
X388998Y39648D01*
X388905Y39037D01*
X388794Y38444D01*
X388720Y38166D01*
X388627Y37889D01*
Y37870D01*
X388609Y37833D01*
X388572Y37759D01*
X388535Y37666D01*
X388498Y37537D01*
X388424Y37407D01*
X388276Y37092D01*
X388090Y36759D01*
X387850Y36389D01*
X387572Y36056D01*
X387239Y35741D01*
X387220D01*
X387202Y35704D01*
X387146Y35667D01*
X387072Y35630D01*
X386979Y35574D01*
X386887Y35500D01*
X386609Y35370D01*
X386276Y35241D01*
X385887Y35111D01*
X385424Y35037D01*
X384924Y35000D01*
X384739D01*
X384609Y35018D01*
X384461Y35037D01*
X384276Y35074D01*
X384072Y35111D01*
X383850Y35167D01*
X383628Y35241D01*
X383387Y35315D01*
X383147Y35426D01*
X382906Y35556D01*
X382665Y35704D01*
X382424Y35889D01*
X382202Y36093D01*
X381998Y36315D01*
X381980Y36333D01*
X381943Y36389D01*
X381887Y36481D01*
X381795Y36630D01*
X381702Y36796D01*
X381610Y37018D01*
X381480Y37278D01*
X381369Y37574D01*
X381258Y37907D01*
X381147Y38296D01*
X381036Y38722D01*
X380943Y39203D01*
X380850Y39722D01*
X380795Y40277D01*
X380758Y40888D01*
X380739Y41536D01*
Y41555D01*
Y41629D01*
Y41759D01*
Y41907D01*
X380758Y42110D01*
Y42333D01*
X380776Y42573D01*
X380795Y42851D01*
X380850Y43425D01*
X380943Y44036D01*
X381054Y44647D01*
X381128Y44925D01*
X381202Y45203D01*
Y45221D01*
X381221Y45258D01*
X381258Y45332D01*
X381295Y45425D01*
X381332Y45554D01*
X381406Y45684D01*
X381554Y45999D01*
X381739Y46332D01*
X381980Y46684D01*
X382258Y47036D01*
X382591Y47332D01*
X382609D01*
X382628Y47369D01*
X382683Y47406D01*
X382758Y47443D01*
X382850Y47517D01*
X382961Y47573D01*
X383239Y47721D01*
X383572Y47850D01*
X383961Y47980D01*
X384424Y48054D01*
X384924Y48091D01*
X385091D01*
X385294Y48073D01*
D02*
G37*
G36*
X417217Y63871D02*
X417347D01*
X417476Y63853D01*
X417791Y63797D01*
X418124Y63705D01*
X418476Y63557D01*
X418828Y63372D01*
X419124Y63112D01*
X419161Y63075D01*
X419235Y62964D01*
X419365Y62798D01*
X419421Y62668D01*
X419495Y62538D01*
X419569Y62372D01*
X419624Y62205D01*
X419698Y62020D01*
X419754Y61798D01*
X419791Y61575D01*
X419828Y61316D01*
X419865Y61057D01*
Y60761D01*
Y54391D01*
X418291D01*
Y60224D01*
Y60242D01*
Y60261D01*
Y60372D01*
Y60539D01*
X418272Y60742D01*
X418254Y60964D01*
X418235Y61187D01*
X418198Y61409D01*
X418143Y61575D01*
Y61594D01*
X418106Y61649D01*
X418069Y61724D01*
X418013Y61816D01*
X417939Y61927D01*
X417847Y62038D01*
X417735Y62150D01*
X417587Y62261D01*
X417569Y62279D01*
X417513Y62298D01*
X417439Y62335D01*
X417310Y62390D01*
X417180Y62446D01*
X417013Y62483D01*
X416847Y62501D01*
X416643Y62520D01*
X416550D01*
X416476Y62501D01*
X416291Y62483D01*
X416069Y62446D01*
X415810Y62353D01*
X415532Y62242D01*
X415254Y62075D01*
X414995Y61853D01*
X414977Y61816D01*
X414902Y61724D01*
X414791Y61575D01*
X414680Y61353D01*
X414551Y61057D01*
X414458Y60705D01*
X414384Y60279D01*
X414347Y59779D01*
Y54391D01*
X412773D01*
Y60409D01*
Y60427D01*
Y60465D01*
Y60501D01*
Y60576D01*
X412755Y60779D01*
X412718Y61002D01*
X412680Y61261D01*
X412606Y61520D01*
X412514Y61761D01*
X412384Y61983D01*
X412366Y62001D01*
X412310Y62075D01*
X412217Y62150D01*
X412088Y62261D01*
X411921Y62353D01*
X411699Y62446D01*
X411440Y62501D01*
X411125Y62520D01*
X411014D01*
X410884Y62501D01*
X410736Y62483D01*
X410551Y62427D01*
X410329Y62372D01*
X410125Y62279D01*
X409903Y62168D01*
X409884Y62150D01*
X409810Y62094D01*
X409718Y62020D01*
X409588Y61909D01*
X409459Y61761D01*
X409329Y61575D01*
X409199Y61372D01*
X409088Y61131D01*
X409070Y61094D01*
X409051Y61002D01*
X409014Y60853D01*
X408959Y60650D01*
X408903Y60372D01*
X408866Y60039D01*
X408848Y59650D01*
X408829Y59205D01*
Y54391D01*
X407255D01*
Y63686D01*
X408662D01*
Y62353D01*
X408681Y62390D01*
X408736Y62464D01*
X408848Y62594D01*
X408977Y62742D01*
X409144Y62927D01*
X409347Y63112D01*
X409570Y63298D01*
X409829Y63464D01*
X409866Y63483D01*
X409958Y63538D01*
X410107Y63594D01*
X410310Y63686D01*
X410551Y63760D01*
X410829Y63816D01*
X411144Y63871D01*
X411477Y63890D01*
X411643D01*
X411847Y63871D01*
X412069Y63835D01*
X412347Y63779D01*
X412625Y63705D01*
X412903Y63594D01*
X413162Y63446D01*
X413199Y63427D01*
X413273Y63372D01*
X413384Y63279D01*
X413532Y63131D01*
X413680Y62964D01*
X413847Y62761D01*
X413995Y62520D01*
X414106Y62242D01*
X414125Y62261D01*
X414162Y62316D01*
X414217Y62390D01*
X414310Y62501D01*
X414421Y62631D01*
X414551Y62761D01*
X414699Y62909D01*
X414884Y63075D01*
X415088Y63223D01*
X415291Y63372D01*
X415532Y63501D01*
X415791Y63631D01*
X416069Y63742D01*
X416365Y63816D01*
X416661Y63871D01*
X416995Y63890D01*
X417124D01*
X417217Y63871D01*
D02*
G37*
G36*
X402293D02*
X402422D01*
X402552Y63853D01*
X402867Y63797D01*
X403200Y63705D01*
X403552Y63557D01*
X403904Y63372D01*
X404200Y63112D01*
X404237Y63075D01*
X404311Y62964D01*
X404440Y62798D01*
X404496Y62668D01*
X404570Y62538D01*
X404644Y62372D01*
X404700Y62205D01*
X404774Y62020D01*
X404829Y61798D01*
X404866Y61575D01*
X404903Y61316D01*
X404940Y61057D01*
Y60761D01*
Y54391D01*
X403367D01*
Y60224D01*
Y60242D01*
Y60261D01*
Y60372D01*
Y60539D01*
X403348Y60742D01*
X403330Y60964D01*
X403311Y61187D01*
X403274Y61409D01*
X403218Y61575D01*
Y61594D01*
X403181Y61649D01*
X403144Y61724D01*
X403089Y61816D01*
X403015Y61927D01*
X402922Y62038D01*
X402811Y62150D01*
X402663Y62261D01*
X402644Y62279D01*
X402589Y62298D01*
X402515Y62335D01*
X402385Y62390D01*
X402256Y62446D01*
X402089Y62483D01*
X401922Y62501D01*
X401719Y62520D01*
X401626D01*
X401552Y62501D01*
X401367Y62483D01*
X401145Y62446D01*
X400885Y62353D01*
X400608Y62242D01*
X400330Y62075D01*
X400071Y61853D01*
X400052Y61816D01*
X399978Y61724D01*
X399867Y61575D01*
X399756Y61353D01*
X399626Y61057D01*
X399534Y60705D01*
X399460Y60279D01*
X399422Y59779D01*
Y54391D01*
X397849D01*
Y60409D01*
Y60427D01*
Y60465D01*
Y60501D01*
Y60576D01*
X397830Y60779D01*
X397793Y61002D01*
X397756Y61261D01*
X397682Y61520D01*
X397589Y61761D01*
X397460Y61983D01*
X397441Y62001D01*
X397386Y62075D01*
X397293Y62150D01*
X397164Y62261D01*
X396997Y62353D01*
X396775Y62446D01*
X396515Y62501D01*
X396201Y62520D01*
X396090D01*
X395960Y62501D01*
X395812Y62483D01*
X395627Y62427D01*
X395404Y62372D01*
X395201Y62279D01*
X394979Y62168D01*
X394960Y62150D01*
X394886Y62094D01*
X394793Y62020D01*
X394664Y61909D01*
X394534Y61761D01*
X394404Y61575D01*
X394275Y61372D01*
X394164Y61131D01*
X394145Y61094D01*
X394127Y61002D01*
X394090Y60853D01*
X394034Y60650D01*
X393979Y60372D01*
X393942Y60039D01*
X393923Y59650D01*
X393905Y59205D01*
Y54391D01*
X392331D01*
Y63686D01*
X393738D01*
Y62353D01*
X393756Y62390D01*
X393812Y62464D01*
X393923Y62594D01*
X394053Y62742D01*
X394219Y62927D01*
X394423Y63112D01*
X394645Y63298D01*
X394905Y63464D01*
X394941Y63483D01*
X395034Y63538D01*
X395182Y63594D01*
X395386Y63686D01*
X395627Y63760D01*
X395904Y63816D01*
X396219Y63871D01*
X396553Y63890D01*
X396719D01*
X396923Y63871D01*
X397145Y63835D01*
X397423Y63779D01*
X397701Y63705D01*
X397978Y63594D01*
X398237Y63446D01*
X398274Y63427D01*
X398349Y63372D01*
X398460Y63279D01*
X398608Y63131D01*
X398756Y62964D01*
X398923Y62761D01*
X399071Y62520D01*
X399182Y62242D01*
X399200Y62261D01*
X399237Y62316D01*
X399293Y62390D01*
X399385Y62501D01*
X399497Y62631D01*
X399626Y62761D01*
X399774Y62909D01*
X399959Y63075D01*
X400163Y63223D01*
X400367Y63372D01*
X400608Y63501D01*
X400867Y63631D01*
X401145Y63742D01*
X401441Y63816D01*
X401737Y63871D01*
X402070Y63890D01*
X402200D01*
X402293Y63871D01*
D02*
G37*
G36*
X431419Y58243D02*
X426549D01*
Y59816D01*
X431419D01*
Y58243D01*
D02*
G37*
G36*
X389831Y65538D02*
X384702D01*
X384017Y62075D01*
X384035Y62094D01*
X384072Y62112D01*
X384128Y62150D01*
X384220Y62205D01*
X384332Y62261D01*
X384461Y62335D01*
X384757Y62483D01*
X385128Y62631D01*
X385535Y62761D01*
X385979Y62853D01*
X386202Y62890D01*
X386609D01*
X386720Y62872D01*
X386868Y62853D01*
X387035Y62835D01*
X387220Y62798D01*
X387424Y62742D01*
X387868Y62612D01*
X388109Y62520D01*
X388350Y62390D01*
X388590Y62261D01*
X388831Y62112D01*
X389053Y61927D01*
X389275Y61724D01*
X389294Y61705D01*
X389331Y61668D01*
X389386Y61613D01*
X389461Y61520D01*
X389553Y61390D01*
X389646Y61261D01*
X389757Y61094D01*
X389868Y60909D01*
X389961Y60705D01*
X390072Y60483D01*
X390164Y60224D01*
X390257Y59964D01*
X390331Y59687D01*
X390386Y59372D01*
X390424Y59057D01*
X390442Y58724D01*
Y58705D01*
Y58650D01*
Y58557D01*
X390424Y58428D01*
X390405Y58280D01*
X390386Y58113D01*
X390349Y57909D01*
X390312Y57705D01*
X390201Y57224D01*
X390016Y56724D01*
X389905Y56465D01*
X389757Y56224D01*
X389609Y55965D01*
X389424Y55724D01*
X389405Y55706D01*
X389368Y55650D01*
X389294Y55576D01*
X389201Y55483D01*
X389072Y55372D01*
X388924Y55224D01*
X388739Y55095D01*
X388535Y54946D01*
X388313Y54798D01*
X388053Y54669D01*
X387776Y54539D01*
X387479Y54409D01*
X387165Y54317D01*
X386813Y54243D01*
X386442Y54187D01*
X386054Y54169D01*
X385887D01*
X385757Y54187D01*
X385609Y54206D01*
X385443Y54224D01*
X385239Y54243D01*
X385035Y54298D01*
X384572Y54409D01*
X384109Y54576D01*
X383869Y54687D01*
X383628Y54817D01*
X383406Y54965D01*
X383184Y55132D01*
X383165Y55150D01*
X383128Y55169D01*
X383091Y55243D01*
X383017Y55317D01*
X382924Y55409D01*
X382832Y55521D01*
X382721Y55669D01*
X382628Y55835D01*
X382517Y56002D01*
X382406Y56206D01*
X382202Y56650D01*
X382035Y57168D01*
X381980Y57446D01*
X381943Y57743D01*
X383591Y57872D01*
Y57854D01*
Y57817D01*
X383609Y57761D01*
X383628Y57668D01*
X383683Y57465D01*
X383758Y57187D01*
X383869Y56909D01*
X384017Y56595D01*
X384202Y56317D01*
X384424Y56058D01*
X384461Y56039D01*
X384535Y55965D01*
X384683Y55872D01*
X384887Y55761D01*
X385109Y55650D01*
X385387Y55558D01*
X385702Y55483D01*
X386054Y55465D01*
X386165D01*
X386239Y55483D01*
X386461Y55502D01*
X386720Y55576D01*
X387035Y55669D01*
X387350Y55817D01*
X387683Y56039D01*
X387831Y56169D01*
X387979Y56317D01*
X387998Y56335D01*
X388016Y56354D01*
X388053Y56409D01*
X388109Y56465D01*
X388238Y56669D01*
X388387Y56928D01*
X388516Y57243D01*
X388646Y57631D01*
X388739Y58094D01*
X388775Y58335D01*
Y58594D01*
Y58613D01*
Y58650D01*
Y58724D01*
X388757Y58816D01*
Y58928D01*
X388739Y59057D01*
X388683Y59353D01*
X388590Y59705D01*
X388461Y60057D01*
X388276Y60390D01*
X388016Y60705D01*
Y60724D01*
X387979Y60742D01*
X387887Y60835D01*
X387720Y60964D01*
X387498Y61113D01*
X387202Y61242D01*
X386868Y61372D01*
X386479Y61464D01*
X386257Y61501D01*
X385905D01*
X385757Y61483D01*
X385572Y61464D01*
X385350Y61409D01*
X385128Y61353D01*
X384887Y61261D01*
X384646Y61150D01*
X384628Y61131D01*
X384554Y61094D01*
X384443Y61002D01*
X384295Y60909D01*
X384146Y60779D01*
X383998Y60613D01*
X383832Y60446D01*
X383702Y60242D01*
X382221Y60446D01*
X383461Y67038D01*
X389831D01*
Y65538D01*
D02*
G37*
G36*
X468730Y67186D02*
X469045Y67168D01*
X469378Y67149D01*
X469693Y67112D01*
X469971Y67075D01*
X470008D01*
X470137Y67038D01*
X470304Y67001D01*
X470526Y66945D01*
X470767Y66853D01*
X471026Y66742D01*
X471304Y66612D01*
X471545Y66464D01*
X471582Y66445D01*
X471656Y66390D01*
X471767Y66279D01*
X471915Y66149D01*
X472082Y65982D01*
X472248Y65760D01*
X472434Y65519D01*
X472582Y65242D01*
X472600Y65205D01*
X472637Y65112D01*
X472711Y64946D01*
X472785Y64723D01*
X472841Y64464D01*
X472915Y64168D01*
X472952Y63835D01*
X472971Y63483D01*
Y63464D01*
Y63409D01*
Y63335D01*
X472952Y63205D01*
X472933Y63075D01*
X472915Y62909D01*
X472878Y62723D01*
X472841Y62520D01*
X472711Y62094D01*
X472637Y61872D01*
X472526Y61631D01*
X472397Y61390D01*
X472267Y61168D01*
X472100Y60946D01*
X471915Y60724D01*
X471897Y60705D01*
X471860Y60668D01*
X471804Y60613D01*
X471711Y60557D01*
X471600Y60465D01*
X471452Y60372D01*
X471267Y60261D01*
X471063Y60168D01*
X470823Y60057D01*
X470545Y59946D01*
X470248Y59853D01*
X469897Y59779D01*
X469526Y59705D01*
X469119Y59650D01*
X468656Y59613D01*
X468175Y59594D01*
X464897D01*
Y54391D01*
X463194D01*
Y67204D01*
X468452D01*
X468730Y67186D01*
D02*
G37*
G36*
X447510Y65686D02*
X443288D01*
Y54391D01*
X441585D01*
Y65686D01*
X437363Y65686D01*
Y67204D01*
X447510Y67204D01*
Y65686D01*
D02*
G37*
G36*
X379647Y54391D02*
X377851D01*
Y56187D01*
X379647D01*
Y54391D01*
D02*
G37*
G36*
X455176Y67408D02*
X455343D01*
X455509Y67390D01*
X455732Y67353D01*
X455954Y67316D01*
X456435Y67223D01*
X456991Y67075D01*
X457528Y66853D01*
X457805Y66723D01*
X458083Y66575D01*
X458102Y66557D01*
X458139Y66538D01*
X458213Y66482D01*
X458324Y66427D01*
X458435Y66334D01*
X458583Y66223D01*
X458898Y65964D01*
X459231Y65631D01*
X459602Y65223D01*
X459953Y64742D01*
X460250Y64205D01*
Y64186D01*
X460287Y64131D01*
X460324Y64057D01*
X460361Y63946D01*
X460435Y63797D01*
X460490Y63631D01*
X460564Y63427D01*
X460638Y63205D01*
X460694Y62964D01*
X460768Y62705D01*
X460842Y62409D01*
X460898Y62112D01*
X460972Y61464D01*
X461009Y60761D01*
Y60742D01*
Y60668D01*
Y60576D01*
X460990Y60427D01*
Y60261D01*
X460972Y60057D01*
X460935Y59835D01*
X460916Y59594D01*
X460824Y59057D01*
X460676Y58465D01*
X460472Y57872D01*
X460361Y57576D01*
X460213Y57280D01*
Y57261D01*
X460176Y57206D01*
X460139Y57132D01*
X460064Y57020D01*
X459990Y56891D01*
X459898Y56761D01*
X459638Y56409D01*
X459324Y56039D01*
X458953Y55650D01*
X458509Y55280D01*
X457990Y54946D01*
X457972D01*
X457935Y54910D01*
X457842Y54872D01*
X457731Y54817D01*
X457602Y54761D01*
X457454Y54706D01*
X457268Y54632D01*
X457065Y54558D01*
X456842Y54484D01*
X456602Y54410D01*
X456065Y54299D01*
X455491Y54206D01*
X454880Y54169D01*
X454695D01*
X454584Y54187D01*
X454417D01*
X454232Y54224D01*
X454028Y54243D01*
X453787Y54280D01*
X453287Y54391D01*
X452750Y54539D01*
X452195Y54761D01*
X451917Y54891D01*
X451639Y55039D01*
X451621Y55058D01*
X451584Y55076D01*
X451510Y55132D01*
X451399Y55206D01*
X451287Y55280D01*
X451158Y55391D01*
X450843Y55669D01*
X450491Y56002D01*
X450121Y56409D01*
X449788Y56872D01*
X449473Y57409D01*
Y57428D01*
X449436Y57483D01*
X449399Y57557D01*
X449362Y57668D01*
X449306Y57817D01*
X449251Y57983D01*
X449177Y58168D01*
X449121Y58372D01*
X449047Y58613D01*
X448973Y58854D01*
X448862Y59409D01*
X448788Y59983D01*
X448751Y60613D01*
Y60631D01*
Y60650D01*
Y60761D01*
X448769Y60927D01*
Y61150D01*
X448806Y61409D01*
X448843Y61724D01*
X448899Y62075D01*
X448973Y62446D01*
X449047Y62835D01*
X449158Y63242D01*
X449306Y63649D01*
X449473Y64075D01*
X449658Y64483D01*
X449899Y64890D01*
X450158Y65260D01*
X450454Y65612D01*
X450473Y65631D01*
X450528Y65686D01*
X450639Y65779D01*
X450769Y65890D01*
X450936Y66038D01*
X451139Y66186D01*
X451380Y66353D01*
X451658Y66519D01*
X451954Y66686D01*
X452287Y66853D01*
X452658Y67001D01*
X453047Y67149D01*
X453473Y67260D01*
X453917Y67353D01*
X454380Y67408D01*
X454880Y67427D01*
X455046D01*
X455176Y67408D01*
D02*
G37*
G36*
X371555Y67242D02*
X371796Y67204D01*
X372074Y67149D01*
X372370Y67075D01*
X372685Y66982D01*
X372981Y66834D01*
X372999D01*
X373018Y66816D01*
X373111Y66760D01*
X373259Y66667D01*
X373444Y66538D01*
X373647Y66353D01*
X373870Y66149D01*
X374073Y65908D01*
X374277Y65631D01*
X374296Y65594D01*
X374370Y65501D01*
X374444Y65334D01*
X374573Y65094D01*
X374684Y64816D01*
X374832Y64501D01*
X374962Y64131D01*
X375073Y63723D01*
Y63705D01*
X375092Y63668D01*
X375110Y63612D01*
X375129Y63520D01*
X375147Y63409D01*
X375166Y63279D01*
X375203Y63112D01*
X375221Y62927D01*
X375258Y62723D01*
X375277Y62501D01*
X375295Y62242D01*
X375332Y61983D01*
X375351Y61687D01*
Y61390D01*
X375369Y61057D01*
Y60705D01*
Y60687D01*
Y60613D01*
Y60483D01*
Y60335D01*
X375351Y60131D01*
Y59909D01*
X375332Y59668D01*
X375314Y59409D01*
X375258Y58816D01*
X375166Y58205D01*
X375055Y57613D01*
X374981Y57335D01*
X374888Y57057D01*
Y57039D01*
X374869Y57002D01*
X374832Y56928D01*
X374795Y56835D01*
X374758Y56706D01*
X374684Y56576D01*
X374536Y56261D01*
X374351Y55928D01*
X374110Y55558D01*
X373833Y55224D01*
X373499Y54910D01*
X373481D01*
X373462Y54872D01*
X373407Y54835D01*
X373333Y54798D01*
X373240Y54743D01*
X373148Y54669D01*
X372870Y54539D01*
X372536Y54409D01*
X372148Y54280D01*
X371685Y54206D01*
X371185Y54169D01*
X371000D01*
X370870Y54187D01*
X370722Y54206D01*
X370537Y54243D01*
X370333Y54280D01*
X370111Y54335D01*
X369889Y54409D01*
X369648Y54484D01*
X369407Y54595D01*
X369166Y54724D01*
X368926Y54872D01*
X368685Y55058D01*
X368463Y55261D01*
X368259Y55483D01*
X368241Y55502D01*
X368204Y55558D01*
X368148Y55650D01*
X368055Y55798D01*
X367963Y55965D01*
X367870Y56187D01*
X367741Y56446D01*
X367630Y56743D01*
X367518Y57076D01*
X367407Y57465D01*
X367296Y57891D01*
X367204Y58372D01*
X367111Y58891D01*
X367056Y59446D01*
X367019Y60057D01*
X367000Y60705D01*
Y60724D01*
Y60798D01*
Y60927D01*
Y61076D01*
X367019Y61279D01*
Y61501D01*
X367037Y61742D01*
X367056Y62020D01*
X367111Y62594D01*
X367204Y63205D01*
X367315Y63816D01*
X367389Y64094D01*
X367463Y64372D01*
Y64390D01*
X367481Y64427D01*
X367518Y64501D01*
X367556Y64594D01*
X367593Y64723D01*
X367667Y64853D01*
X367815Y65168D01*
X368000Y65501D01*
X368241Y65853D01*
X368518Y66205D01*
X368852Y66501D01*
X368870D01*
X368889Y66538D01*
X368944Y66575D01*
X369018Y66612D01*
X369111Y66686D01*
X369222Y66742D01*
X369500Y66890D01*
X369833Y67019D01*
X370222Y67149D01*
X370685Y67223D01*
X371185Y67260D01*
X371351D01*
X371555Y67242D01*
D02*
G37*
G36*
X174044Y65718D02*
X169323D01*
Y71106D01*
X174044D01*
Y65718D01*
D02*
G37*
G36*
X152658Y61107D02*
X153047Y61052D01*
X153880Y60940D01*
X154880Y60718D01*
X155935Y60385D01*
X156991Y59885D01*
X158046Y59274D01*
X158102D01*
X158157Y59163D01*
X158490Y58941D01*
X158990Y58496D01*
X159601Y57941D01*
X160268Y57219D01*
X160935Y56330D01*
X161601Y55274D01*
X162157Y54108D01*
Y54052D01*
X162212Y53941D01*
X162268Y53774D01*
X162379Y53552D01*
X162490Y53219D01*
X162601Y52830D01*
X162879Y51941D01*
X163157Y50830D01*
X163379Y49608D01*
X163545Y48219D01*
X163601Y46775D01*
Y46720D01*
Y46609D01*
Y46386D01*
Y46053D01*
X163545Y45664D01*
Y45220D01*
X163434Y44220D01*
X163212Y42998D01*
X162934Y41720D01*
X162546Y40387D01*
X162046Y39054D01*
Y38998D01*
X161990Y38887D01*
X161879Y38721D01*
X161768Y38498D01*
X161379Y37887D01*
X160879Y37110D01*
X160268Y36276D01*
X159490Y35443D01*
X158602Y34610D01*
X157546Y33832D01*
X157491D01*
X157435Y33777D01*
X157268Y33665D01*
X157046Y33554D01*
X156491Y33277D01*
X155713Y32943D01*
X154769Y32610D01*
X153769Y32332D01*
X152602Y32110D01*
X151436Y32055D01*
X151047D01*
X150602Y32110D01*
X150047Y32166D01*
X149380Y32277D01*
X148658Y32443D01*
X147936Y32666D01*
X147214Y32999D01*
X147158Y33054D01*
X146881Y33166D01*
X146547Y33388D01*
X146103Y33721D01*
X145659Y34054D01*
X145103Y34499D01*
X144603Y34999D01*
X144159Y35554D01*
Y22000D01*
X139437Y22000D01*
Y60552D01*
X143714Y60552D01*
Y56885D01*
X143770Y56996D01*
X143992Y57219D01*
X144270Y57607D01*
X144714Y58052D01*
X145214Y58607D01*
X145770Y59107D01*
X146436Y59607D01*
X147103Y60052D01*
X147214Y60107D01*
X147436Y60218D01*
X147880Y60385D01*
X148436Y60607D01*
X149103Y60829D01*
X149880Y60996D01*
X150769Y61107D01*
X151769Y61163D01*
X152380D01*
X152658Y61107D01*
D02*
G37*
G36*
X195209D02*
X195820Y61052D01*
X196542Y60940D01*
X197320Y60774D01*
X198153Y60552D01*
X198931Y60218D01*
X199042Y60163D01*
X199264Y60052D01*
X199653Y59885D01*
X200097Y59607D01*
X200653Y59274D01*
X201153Y58829D01*
X201653Y58385D01*
X202097Y57830D01*
X202153Y57774D01*
X202264Y57552D01*
X202430Y57274D01*
X202708Y56885D01*
X202930Y56330D01*
X203153Y55774D01*
X203430Y55108D01*
X203597Y54386D01*
Y54330D01*
X203652Y54108D01*
X203708Y53774D01*
X203764Y53330D01*
Y52663D01*
X203819Y51886D01*
X203875Y50942D01*
Y49775D01*
Y32666D01*
X199153D01*
Y49553D01*
Y49608D01*
Y49664D01*
Y50053D01*
Y50553D01*
X199097Y51164D01*
X199042Y51886D01*
X198931Y52608D01*
X198764Y53275D01*
X198598Y53886D01*
Y53941D01*
X198486Y54108D01*
X198320Y54386D01*
X198153Y54719D01*
X197875Y55052D01*
X197542Y55441D01*
X197098Y55830D01*
X196598Y56163D01*
X196542Y56219D01*
X196376Y56330D01*
X196042Y56441D01*
X195653Y56608D01*
X195209Y56774D01*
X194653Y56941D01*
X193987Y56996D01*
X193320Y57052D01*
X193043D01*
X192820Y56996D01*
X192265Y56941D01*
X191543Y56830D01*
X190765Y56552D01*
X189876Y56219D01*
X188987Y55774D01*
X188154Y55108D01*
X188043Y54997D01*
X187821Y54719D01*
X187654Y54497D01*
X187488Y54219D01*
X187265Y53886D01*
X187099Y53497D01*
X186877Y53052D01*
X186654Y52497D01*
X186488Y51886D01*
X186321Y51219D01*
X186210Y50497D01*
X186099Y49719D01*
X185988Y48775D01*
Y47831D01*
Y32666D01*
X181266D01*
Y60552D01*
X185488D01*
Y56552D01*
X185543Y56608D01*
X185654Y56774D01*
X185821Y56996D01*
X186043Y57274D01*
X186376Y57607D01*
X186765Y57996D01*
X187210Y58441D01*
X187765Y58885D01*
X188321Y59274D01*
X188987Y59718D01*
X189709Y60107D01*
X190487Y60441D01*
X191376Y60718D01*
X192265Y60940D01*
X193265Y61107D01*
X194320Y61163D01*
X194764D01*
X195209Y61107D01*
D02*
G37*
G36*
X174044Y32666D02*
X169323D01*
Y60552D01*
X174044D01*
Y32666D01*
D02*
G37*
G36*
X106940Y71217D02*
X107385Y71162D01*
X107940Y71106D01*
X108551Y70995D01*
X109162Y70884D01*
X110607Y70495D01*
X112051Y69939D01*
X112773Y69606D01*
X113495Y69217D01*
X114162Y68717D01*
X114773Y68162D01*
X114828Y68106D01*
X114939Y68051D01*
X115051Y67829D01*
X115273Y67606D01*
X115550Y67329D01*
X115828Y66940D01*
X116106Y66551D01*
X116439Y66051D01*
X116995Y64996D01*
X117550Y63662D01*
X117773Y62996D01*
X117884Y62218D01*
X117995Y61440D01*
X118050Y60607D01*
Y60496D01*
Y60218D01*
X117995Y59774D01*
X117939Y59163D01*
X117828Y58496D01*
X117606Y57719D01*
X117384Y56885D01*
X117050Y56052D01*
X116995Y55941D01*
X116884Y55663D01*
X116662Y55219D01*
X116328Y54608D01*
X115884Y53941D01*
X115328Y53108D01*
X114662Y52275D01*
X113884Y51330D01*
X113773Y51219D01*
X113495Y50886D01*
X113217Y50608D01*
X112940Y50330D01*
X112606Y49997D01*
X112162Y49553D01*
X111718Y49108D01*
X111162Y48608D01*
X110607Y48053D01*
X109940Y47442D01*
X109218Y46831D01*
X108440Y46109D01*
X107551Y45387D01*
X106663Y44609D01*
X106607Y44553D01*
X106496Y44442D01*
X106274Y44275D01*
X105996Y44053D01*
X105663Y43720D01*
X105274Y43387D01*
X104385Y42664D01*
X103441Y41831D01*
X102552Y40998D01*
X101774Y40276D01*
X101441Y39998D01*
X101163Y39720D01*
X101108Y39665D01*
X100941Y39498D01*
X100719Y39276D01*
X100441Y38943D01*
X100163Y38554D01*
X99830Y38165D01*
X99163Y37221D01*
X118106D01*
Y32666D01*
X92608D01*
Y32721D01*
Y32943D01*
Y33277D01*
X92664Y33721D01*
X92720Y34221D01*
X92831Y34776D01*
X92942Y35332D01*
X93164Y35943D01*
Y35999D01*
X93219Y36054D01*
X93331Y36387D01*
X93553Y36887D01*
X93886Y37554D01*
X94331Y38332D01*
X94886Y39220D01*
X95497Y40109D01*
X96275Y41054D01*
Y41109D01*
X96386Y41165D01*
X96664Y41498D01*
X97163Y41998D01*
X97886Y42720D01*
X98719Y43553D01*
X99774Y44553D01*
X101052Y45664D01*
X102441Y46831D01*
X102496Y46886D01*
X102718Y47053D01*
X103052Y47331D01*
X103441Y47664D01*
X103941Y48108D01*
X104552Y48608D01*
X105163Y49164D01*
X105885Y49775D01*
X107274Y51108D01*
X108662Y52441D01*
X109329Y53108D01*
X109940Y53774D01*
X110496Y54385D01*
X110940Y54997D01*
Y55052D01*
X111051Y55108D01*
X111162Y55274D01*
X111273Y55497D01*
X111662Y56108D01*
X112106Y56830D01*
X112495Y57719D01*
X112884Y58663D01*
X113106Y59718D01*
X113217Y60718D01*
Y60774D01*
Y60829D01*
X113162Y61163D01*
X113106Y61718D01*
X112940Y62329D01*
X112718Y63107D01*
X112329Y63885D01*
X111829Y64662D01*
X111162Y65440D01*
X111051Y65551D01*
X110773Y65773D01*
X110384Y66051D01*
X109773Y66440D01*
X108996Y66773D01*
X108107Y67106D01*
X107051Y67329D01*
X105885Y67384D01*
X105552D01*
X105329Y67329D01*
X104663Y67273D01*
X103885Y67106D01*
X103052Y66884D01*
X102107Y66495D01*
X101219Y65995D01*
X100385Y65329D01*
X100274Y65218D01*
X100052Y64940D01*
X99719Y64496D01*
X99385Y63829D01*
X98997Y63051D01*
X98663Y62051D01*
X98441Y60940D01*
X98330Y59663D01*
X93497Y60163D01*
Y60218D01*
X93553Y60385D01*
Y60663D01*
X93608Y61052D01*
X93719Y61496D01*
X93830Y61996D01*
X93997Y62607D01*
X94164Y63218D01*
X94608Y64551D01*
X95275Y65884D01*
X95664Y66551D01*
X96164Y67217D01*
X96664Y67829D01*
X97219Y68384D01*
X97275Y68440D01*
X97386Y68495D01*
X97552Y68662D01*
X97830Y68829D01*
X98163Y69051D01*
X98552Y69273D01*
X98997Y69551D01*
X99552Y69828D01*
X100163Y70106D01*
X100830Y70384D01*
X101552Y70606D01*
X102330Y70828D01*
X103163Y70995D01*
X104052Y71162D01*
X104996Y71217D01*
X105996Y71273D01*
X106552D01*
X106940Y71217D01*
D02*
G37*
G36*
X81165Y32666D02*
X76444D01*
Y62718D01*
X76388Y62663D01*
X76110Y62440D01*
X75777Y62107D01*
X75221Y61718D01*
X74610Y61218D01*
X73833Y60663D01*
X72944Y60052D01*
X71944Y59441D01*
X71888D01*
X71833Y59385D01*
X71500Y59163D01*
X70944Y58885D01*
X70277Y58552D01*
X69500Y58163D01*
X68667Y57774D01*
X67833Y57385D01*
X67000Y57052D01*
Y61607D01*
X67056D01*
X67167Y61718D01*
X67389Y61774D01*
X67667Y61940D01*
X68000Y62107D01*
X68389Y62329D01*
X69333Y62885D01*
X70444Y63496D01*
X71555Y64273D01*
X72722Y65162D01*
X73888Y66107D01*
X73944Y66162D01*
X73999Y66218D01*
X74166Y66384D01*
X74388Y66551D01*
X74888Y67106D01*
X75555Y67773D01*
X76221Y68551D01*
X76943Y69440D01*
X77554Y70328D01*
X78110Y71273D01*
X81165D01*
Y32666D01*
D02*
G37*
G36*
X241536Y48000D02*
X240358D01*
Y55503D01*
X240344Y55489D01*
X240274Y55434D01*
X240191Y55350D01*
X240053Y55253D01*
X239900Y55128D01*
X239706Y54990D01*
X239484Y54837D01*
X239234Y54685D01*
X239220D01*
X239207Y54671D01*
X239123Y54615D01*
X238985Y54546D01*
X238818Y54463D01*
X238624Y54366D01*
X238416Y54268D01*
X238208Y54171D01*
X238000Y54088D01*
Y55225D01*
X238014D01*
X238042Y55253D01*
X238097Y55267D01*
X238166Y55309D01*
X238250Y55350D01*
X238347Y55406D01*
X238582Y55544D01*
X238860Y55697D01*
X239137Y55891D01*
X239429Y56113D01*
X239720Y56349D01*
X239734Y56363D01*
X239747Y56377D01*
X239789Y56418D01*
X239844Y56460D01*
X239969Y56598D01*
X240136Y56765D01*
X240302Y56959D01*
X240483Y57181D01*
X240635Y57403D01*
X240774Y57639D01*
X241536D01*
Y48000D01*
D02*
G37*
G36*
X206536Y176000D02*
X205358D01*
Y183503D01*
X205344Y183489D01*
X205274Y183433D01*
X205191Y183350D01*
X205053Y183253D01*
X204900Y183128D01*
X204706Y182990D01*
X204484Y182837D01*
X204234Y182685D01*
X204220D01*
X204207Y182671D01*
X204123Y182615D01*
X203985Y182546D01*
X203818Y182463D01*
X203624Y182366D01*
X203416Y182269D01*
X203208Y182171D01*
X203000Y182088D01*
Y183225D01*
X203014D01*
X203042Y183253D01*
X203097Y183267D01*
X203166Y183309D01*
X203250Y183350D01*
X203347Y183406D01*
X203582Y183544D01*
X203860Y183697D01*
X204137Y183891D01*
X204428Y184113D01*
X204720Y184349D01*
X204734Y184363D01*
X204747Y184377D01*
X204789Y184418D01*
X204844Y184460D01*
X204969Y184598D01*
X205136Y184765D01*
X205302Y184959D01*
X205482Y185181D01*
X205635Y185403D01*
X205774Y185639D01*
X206536D01*
Y176000D01*
D02*
G37*
%LPC*%
G36*
X310604Y245124D02*
X310521D01*
X310466Y245110D01*
X310313Y245083D01*
X310133Y245041D01*
X309925Y244958D01*
X309703Y244833D01*
X309592Y244750D01*
X309481Y244667D01*
X309384Y244556D01*
X309287Y244431D01*
Y244417D01*
X309259Y244389D01*
X309231Y244334D01*
X309190Y244264D01*
X309148Y244153D01*
X309093Y244029D01*
X309051Y243876D01*
X308996Y243696D01*
X308940Y243488D01*
X308885Y243252D01*
X308829Y242988D01*
X308787Y242697D01*
X308746Y242364D01*
X308718Y242004D01*
X308704Y241616D01*
X308690Y241185D01*
Y241158D01*
Y241089D01*
Y240964D01*
X308704Y240797D01*
Y240617D01*
X308718Y240395D01*
X308732Y240159D01*
X308760Y239910D01*
X308829Y239369D01*
X308871Y239105D01*
X308926Y238856D01*
X308982Y238620D01*
X309065Y238398D01*
X309148Y238204D01*
X309245Y238037D01*
Y238024D01*
X309273Y238010D01*
X309342Y237913D01*
X309467Y237788D01*
X309620Y237649D01*
X309828Y237510D01*
X310063Y237386D01*
X310327Y237288D01*
X310466Y237275D01*
X310618Y237261D01*
X310701D01*
X310757Y237275D01*
X310896Y237302D01*
X311090Y237358D01*
X311298Y237455D01*
X311534Y237594D01*
X311644Y237677D01*
X311755Y237788D01*
X311866Y237899D01*
X311977Y238037D01*
Y238051D01*
X312005Y238079D01*
X312033Y238121D01*
X312061Y238190D01*
X312116Y238287D01*
X312158Y238412D01*
X312213Y238551D01*
X312269Y238717D01*
X312310Y238925D01*
X312366Y239147D01*
X312421Y239410D01*
X312463Y239688D01*
X312490Y240021D01*
X312518Y240367D01*
X312546Y240756D01*
Y241185D01*
Y241199D01*
Y241213D01*
Y241283D01*
Y241407D01*
X312532Y241574D01*
Y241754D01*
X312518Y241976D01*
X312504Y242212D01*
X312477Y242475D01*
X312407Y243002D01*
X312366Y243266D01*
X312310Y243515D01*
X312255Y243751D01*
X312171Y243973D01*
X312088Y244167D01*
X311991Y244334D01*
Y244347D01*
X311963Y244361D01*
X311936Y244403D01*
X311894Y244459D01*
X311769Y244583D01*
X311617Y244736D01*
X311409Y244874D01*
X311173Y244999D01*
X311048Y245055D01*
X310909Y245096D01*
X310757Y245110D01*
X310604Y245124D01*
D02*
G37*
G36*
X308301Y184834D02*
X308079D01*
X308023Y184820D01*
X307871Y184806D01*
X307691Y184751D01*
X307469Y184682D01*
X307233Y184557D01*
X306997Y184404D01*
X306886Y184293D01*
X306775Y184182D01*
Y184168D01*
X306747Y184155D01*
X306720Y184113D01*
X306692Y184071D01*
X306595Y183933D01*
X306498Y183739D01*
X306387Y183503D01*
X306290Y183212D01*
X306234Y182879D01*
X306207Y182518D01*
Y182504D01*
Y182477D01*
Y182435D01*
X306220Y182366D01*
Y182282D01*
X306234Y182199D01*
X306276Y181991D01*
X306345Y181755D01*
X306428Y181506D01*
X306567Y181256D01*
X306747Y181034D01*
X306775Y181007D01*
X306845Y180951D01*
X306969Y180854D01*
X307122Y180757D01*
X307330Y180646D01*
X307566Y180549D01*
X307829Y180493D01*
X308120Y180466D01*
X308204D01*
X308259Y180480D01*
X308412Y180493D01*
X308592Y180535D01*
X308814Y180604D01*
X309036Y180701D01*
X309258Y180840D01*
X309466Y181034D01*
X309493Y181062D01*
X309549Y181145D01*
X309632Y181270D01*
X309743Y181450D01*
X309840Y181672D01*
X309923Y181936D01*
X309979Y182255D01*
X310007Y182615D01*
Y182629D01*
Y182657D01*
Y182712D01*
X309993Y182782D01*
Y182879D01*
X309979Y182976D01*
X309937Y183198D01*
X309882Y183461D01*
X309785Y183739D01*
X309646Y184002D01*
X309466Y184238D01*
Y184252D01*
X309438Y184266D01*
X309368Y184335D01*
X309258Y184432D01*
X309105Y184543D01*
X308911Y184640D01*
X308689Y184737D01*
X308439Y184806D01*
X308301Y184834D01*
D02*
G37*
G36*
X281086Y245124D02*
X280975D01*
X280851Y245096D01*
X280684Y245069D01*
X280504Y245013D01*
X280310Y244944D01*
X280129Y244833D01*
X279949Y244680D01*
X279935Y244667D01*
X279880Y244611D01*
X279811Y244514D01*
X279741Y244389D01*
X279658Y244237D01*
X279589Y244056D01*
X279533Y243862D01*
X279519Y243640D01*
Y243626D01*
Y243612D01*
X279533Y243529D01*
X279547Y243405D01*
X279575Y243252D01*
X279630Y243072D01*
X279699Y242891D01*
X279811Y242697D01*
X279949Y242531D01*
X279963Y242517D01*
X280032Y242461D01*
X280129Y242392D01*
X280254Y242323D01*
X280421Y242239D01*
X280615Y242170D01*
X280837Y242115D01*
X281086Y242101D01*
X281114D01*
X281197Y242115D01*
X281322Y242129D01*
X281488Y242156D01*
X281669Y242212D01*
X281849Y242281D01*
X282043Y242392D01*
X282210Y242531D01*
X282224Y242545D01*
X282279Y242614D01*
X282348Y242697D01*
X282432Y242822D01*
X282515Y242975D01*
X282584Y243155D01*
X282640Y243363D01*
X282654Y243585D01*
Y243599D01*
Y243612D01*
Y243696D01*
X282626Y243820D01*
X282598Y243973D01*
X282542Y244139D01*
X282459Y244320D01*
X282348Y244500D01*
X282196Y244680D01*
X282182Y244694D01*
X282113Y244750D01*
X282015Y244819D01*
X281891Y244902D01*
X281724Y244986D01*
X281544Y245055D01*
X281322Y245110D01*
X281086Y245124D01*
D02*
G37*
G36*
X281045Y241144D02*
X280961D01*
X280906Y241130D01*
X280753Y241116D01*
X280559Y241075D01*
X280338Y241005D01*
X280116Y240908D01*
X279880Y240770D01*
X279672Y240589D01*
X279644Y240562D01*
X279589Y240492D01*
X279505Y240367D01*
X279408Y240215D01*
X279297Y240007D01*
X279214Y239771D01*
X279159Y239508D01*
X279131Y239216D01*
Y239188D01*
Y239133D01*
X279145Y239036D01*
X279159Y238911D01*
X279186Y238759D01*
X279228Y238592D01*
X279284Y238426D01*
X279353Y238245D01*
X279367Y238232D01*
X279394Y238162D01*
X279450Y238079D01*
X279533Y237982D01*
X279630Y237857D01*
X279755Y237732D01*
X279894Y237621D01*
X280060Y237510D01*
X280088Y237497D01*
X280143Y237469D01*
X280240Y237427D01*
X280365Y237386D01*
X280518Y237344D01*
X280698Y237302D01*
X280892Y237275D01*
X281086Y237261D01*
X281170D01*
X281225Y237275D01*
X281392Y237288D01*
X281586Y237330D01*
X281807Y237400D01*
X282043Y237483D01*
X282265Y237621D01*
X282487Y237802D01*
X282515Y237829D01*
X282570Y237899D01*
X282667Y238024D01*
X282764Y238176D01*
X282861Y238370D01*
X282959Y238606D01*
X283014Y238883D01*
X283042Y239175D01*
Y239188D01*
Y239216D01*
Y239258D01*
X283028Y239313D01*
X283014Y239466D01*
X282973Y239674D01*
X282903Y239882D01*
X282806Y240118D01*
X282667Y240353D01*
X282473Y240575D01*
X282446Y240603D01*
X282376Y240658D01*
X282251Y240756D01*
X282085Y240867D01*
X281877Y240964D01*
X281627Y241061D01*
X281350Y241116D01*
X281045Y241144D01*
D02*
G37*
G36*
X256611Y241643D02*
X256528D01*
X256473Y241629D01*
X256334Y241616D01*
X256140Y241574D01*
X255932Y241504D01*
X255696Y241394D01*
X255474Y241255D01*
X255252Y241061D01*
X255224Y241033D01*
X255169Y240964D01*
X255072Y240839D01*
X254975Y240658D01*
X254878Y240450D01*
X254781Y240187D01*
X254725Y239896D01*
X254697Y239563D01*
Y239535D01*
Y239466D01*
X254711Y239341D01*
X254725Y239188D01*
X254753Y239008D01*
X254808Y238814D01*
X254864Y238606D01*
X254947Y238398D01*
X254961Y238370D01*
X255003Y238301D01*
X255058Y238204D01*
X255141Y238079D01*
X255238Y237954D01*
X255363Y237802D01*
X255502Y237677D01*
X255668Y237552D01*
X255696Y237538D01*
X255751Y237510D01*
X255849Y237455D01*
X255973Y237413D01*
X256112Y237358D01*
X256278Y237302D01*
X256459Y237275D01*
X256653Y237261D01*
X256722D01*
X256778Y237275D01*
X256916Y237288D01*
X257097Y237330D01*
X257291Y237413D01*
X257513Y237510D01*
X257735Y237663D01*
X257846Y237746D01*
X257943Y237857D01*
Y237871D01*
X257970Y237885D01*
X258026Y237968D01*
X258109Y238107D01*
X258220Y238287D01*
X258317Y238523D01*
X258400Y238800D01*
X258456Y239119D01*
X258484Y239494D01*
Y239508D01*
Y239535D01*
Y239591D01*
X258470Y239660D01*
Y239743D01*
X258456Y239840D01*
X258414Y240062D01*
X258359Y240312D01*
X258262Y240575D01*
X258123Y240825D01*
X257943Y241061D01*
X257915Y241089D01*
X257846Y241158D01*
X257735Y241241D01*
X257582Y241352D01*
X257388Y241463D01*
X257166Y241546D01*
X256903Y241616D01*
X256611Y241643D01*
D02*
G37*
G36*
X327356Y149368D02*
X320875Y148905D01*
X320412D01*
X319949Y148442D01*
Y132702D01*
Y132239D01*
X327819D01*
X329671Y132702D01*
X331522Y133165D01*
X333374Y134554D01*
X333837Y135017D01*
X334763Y136406D01*
X335689Y138258D01*
X336152Y140572D01*
Y141035D01*
X335689Y142887D01*
X335226Y144739D01*
X333374Y146590D01*
X332911Y147053D01*
X331985Y147979D01*
X329671Y148905D01*
X327356Y149368D01*
D02*
G37*
G36*
X223657D02*
X216713Y148905D01*
X216250D01*
X215787Y148442D01*
Y132702D01*
X216250D01*
Y132239D01*
X224120D01*
X225509Y132702D01*
X227361Y133165D01*
X229213Y134554D01*
X229676Y135017D01*
X230601Y136406D01*
X231527Y138258D01*
X231990Y140572D01*
Y141035D01*
X231527Y142887D01*
X231064Y144739D01*
X229213Y146590D01*
X228750Y147053D01*
X227824Y147979D01*
X225972Y148905D01*
X223657Y149368D01*
D02*
G37*
G36*
X425962Y146590D02*
X425499D01*
X425036Y146128D01*
X419944Y125758D01*
Y125295D01*
X420407Y124832D01*
X430129D01*
Y125758D01*
X425962Y146128D01*
Y146590D01*
D02*
G37*
G36*
X231142Y243973D02*
X228119Y239674D01*
X231142D01*
Y243973D01*
D02*
G37*
G36*
X441788Y46517D02*
X438752Y46517D01*
Y42666D01*
X441900Y42666D01*
X442140Y42684D01*
X442400Y42703D01*
X442659Y42722D01*
X442918Y42758D01*
X443122Y42796D01*
X443159Y42814D01*
X443233Y42833D01*
X443344Y42888D01*
X443492Y42962D01*
X443640Y43036D01*
X443807Y43147D01*
X443974Y43295D01*
X444103Y43444D01*
X444122Y43462D01*
X444159Y43518D01*
X444214Y43629D01*
X444270Y43758D01*
X444325Y43906D01*
X444381Y44092D01*
X444418Y44314D01*
X444436Y44555D01*
Y44592D01*
Y44666D01*
X444418Y44777D01*
X444399Y44925D01*
X444362Y45110D01*
X444307Y45295D01*
X444233Y45480D01*
X444122Y45666D01*
X444103Y45684D01*
X444066Y45740D01*
X443992Y45832D01*
X443899Y45925D01*
X443770Y46036D01*
X443622Y46147D01*
X443437Y46258D01*
X443233Y46332D01*
X443214D01*
X443122Y46369D01*
X442992Y46388D01*
X442788Y46425D01*
X442511Y46462D01*
X442196Y46480D01*
X441788Y46517D01*
D02*
G37*
G36*
X442122Y41147D02*
X438752Y41147D01*
Y36741D01*
X442400Y36741D01*
X442788Y36759D01*
X442955Y36778D01*
X443103Y36796D01*
X443122D01*
X443196Y36815D01*
X443307Y36833D01*
X443437Y36870D01*
X443751Y36981D01*
X444066Y37129D01*
X444085Y37148D01*
X444140Y37185D01*
X444214Y37241D01*
X444307Y37315D01*
X444399Y37426D01*
X444529Y37537D01*
X444622Y37685D01*
X444733Y37852D01*
X444751Y37870D01*
X444770Y37926D01*
X444807Y38037D01*
X444862Y38166D01*
X444918Y38314D01*
X444955Y38500D01*
X444973Y38722D01*
X444992Y38944D01*
Y38981D01*
Y39055D01*
X444973Y39203D01*
X444936Y39370D01*
X444899Y39555D01*
X444825Y39759D01*
X444733Y39962D01*
X444603Y40166D01*
X444585Y40185D01*
X444529Y40259D01*
X444455Y40351D01*
X444344Y40462D01*
X444196Y40592D01*
X444011Y40722D01*
X443807Y40833D01*
X443566Y40925D01*
X443529Y40944D01*
X443455Y40962D01*
X443288Y40999D01*
X443085Y41036D01*
X442826Y41073D01*
X442511Y41111D01*
X442122Y41147D01*
D02*
G37*
G36*
X454676Y46795D02*
X454509D01*
X454380Y46777D01*
X454213Y46758D01*
X454047Y46721D01*
X453843Y46684D01*
X453621Y46647D01*
X453139Y46499D01*
X452880Y46388D01*
X452621Y46277D01*
X452343Y46129D01*
X452084Y45962D01*
X451824Y45777D01*
X451584Y45554D01*
X451565Y45536D01*
X451528Y45499D01*
X451473Y45425D01*
X451380Y45314D01*
X451287Y45184D01*
X451176Y45017D01*
X451065Y44814D01*
X450936Y44573D01*
X450825Y44314D01*
X450695Y43999D01*
X450584Y43666D01*
X450491Y43295D01*
X450399Y42888D01*
X450343Y42425D01*
X450306Y41944D01*
X450288Y41425D01*
Y41407D01*
Y41333D01*
Y41203D01*
X450306Y41036D01*
X450325Y40851D01*
X450362Y40629D01*
X450399Y40370D01*
X450436Y40111D01*
X450584Y39518D01*
X450695Y39222D01*
X450806Y38907D01*
X450954Y38611D01*
X451121Y38314D01*
X451306Y38037D01*
X451528Y37778D01*
X451547Y37759D01*
X451584Y37722D01*
X451658Y37648D01*
X451750Y37574D01*
X451880Y37463D01*
X452028Y37352D01*
X452195Y37241D01*
X452380Y37111D01*
X452602Y36981D01*
X452843Y36870D01*
X453102Y36759D01*
X453380Y36648D01*
X453676Y36574D01*
X453972Y36500D01*
X454306Y36463D01*
X454658Y36444D01*
X454750D01*
X454843Y36463D01*
X454972D01*
X455139Y36481D01*
X455324Y36518D01*
X455546Y36555D01*
X455769Y36611D01*
X456028Y36685D01*
X456269Y36778D01*
X456546Y36870D01*
X456805Y37000D01*
X457065Y37167D01*
X457324Y37333D01*
X457583Y37537D01*
X457824Y37778D01*
X457842Y37796D01*
X457879Y37833D01*
X457935Y37926D01*
X458028Y38037D01*
X458120Y38166D01*
X458213Y38333D01*
X458324Y38537D01*
X458453Y38759D01*
X458565Y39018D01*
X458676Y39314D01*
X458768Y39629D01*
X458879Y39962D01*
X458953Y40333D01*
X459009Y40740D01*
X459046Y41166D01*
X459064Y41610D01*
Y41629D01*
Y41684D01*
Y41759D01*
Y41870D01*
X459046Y41999D01*
Y42166D01*
X459027Y42333D01*
X458990Y42536D01*
X458935Y42962D01*
X458842Y43407D01*
X458713Y43888D01*
X458527Y44332D01*
Y44351D01*
X458509Y44388D01*
X458472Y44443D01*
X458435Y44518D01*
X458305Y44740D01*
X458139Y44999D01*
X457916Y45295D01*
X457639Y45592D01*
X457324Y45888D01*
X456972Y46147D01*
X456954D01*
X456935Y46184D01*
X456880Y46203D01*
X456787Y46258D01*
X456694Y46295D01*
X456583Y46351D01*
X456306Y46480D01*
X455972Y46591D01*
X455583Y46702D01*
X455139Y46777D01*
X454676Y46795D01*
D02*
G37*
G36*
X384906Y46795D02*
X384794D01*
X384720Y46777D01*
X384517Y46740D01*
X384276Y46684D01*
X383998Y46573D01*
X383702Y46406D01*
X383554Y46295D01*
X383406Y46184D01*
X383276Y46036D01*
X383147Y45869D01*
Y45851D01*
X383109Y45814D01*
X383072Y45740D01*
X383017Y45647D01*
X382961Y45499D01*
X382887Y45332D01*
X382832Y45129D01*
X382758Y44888D01*
X382683Y44610D01*
X382609Y44295D01*
X382535Y43944D01*
X382480Y43555D01*
X382424Y43110D01*
X382387Y42629D01*
X382369Y42110D01*
X382350Y41536D01*
Y41499D01*
Y41407D01*
Y41240D01*
X382369Y41018D01*
Y40777D01*
X382387Y40481D01*
X382406Y40166D01*
X382443Y39833D01*
X382535Y39111D01*
X382591Y38759D01*
X382665Y38426D01*
X382739Y38111D01*
X382850Y37815D01*
X382961Y37555D01*
X383091Y37333D01*
Y37315D01*
X383128Y37296D01*
X383220Y37166D01*
X383387Y37000D01*
X383591Y36815D01*
X383869Y36630D01*
X384183Y36463D01*
X384535Y36333D01*
X384720Y36315D01*
X384924Y36296D01*
X385035D01*
X385109Y36315D01*
X385294Y36352D01*
X385554Y36426D01*
X385831Y36555D01*
X386146Y36741D01*
X386294Y36852D01*
X386442Y37000D01*
X386590Y37148D01*
X386739Y37333D01*
Y37352D01*
X386776Y37389D01*
X386813Y37444D01*
X386850Y37537D01*
X386924Y37666D01*
X386979Y37833D01*
X387053Y38018D01*
X387127Y38240D01*
X387183Y38518D01*
X387257Y38814D01*
X387331Y39166D01*
X387387Y39537D01*
X387424Y39981D01*
X387461Y40444D01*
X387498Y40962D01*
Y41536D01*
Y41555D01*
Y41573D01*
Y41666D01*
Y41833D01*
X387479Y42055D01*
Y42295D01*
X387461Y42592D01*
X387442Y42907D01*
X387405Y43258D01*
X387313Y43962D01*
X387257Y44314D01*
X387183Y44647D01*
X387109Y44962D01*
X386998Y45258D01*
X386887Y45517D01*
X386757Y45740D01*
Y45758D01*
X386720Y45777D01*
X386683Y45832D01*
X386628Y45906D01*
X386461Y46073D01*
X386257Y46277D01*
X385979Y46462D01*
X385665Y46628D01*
X385498Y46702D01*
X385313Y46758D01*
X385109Y46777D01*
X384906Y46795D01*
D02*
G37*
G36*
X468563Y65686D02*
X464897D01*
Y61113D01*
X468341D01*
X468471Y61131D01*
X468601D01*
X468749Y61150D01*
X469100Y61187D01*
X469489Y61261D01*
X469878Y61372D01*
X470230Y61520D01*
X470397Y61613D01*
X470526Y61724D01*
X470563Y61761D01*
X470637Y61835D01*
X470748Y61983D01*
X470878Y62168D01*
X471008Y62409D01*
X471119Y62705D01*
X471193Y63038D01*
X471230Y63427D01*
Y63446D01*
Y63464D01*
Y63557D01*
X471211Y63723D01*
X471174Y63909D01*
X471137Y64112D01*
X471063Y64353D01*
X470952Y64575D01*
X470823Y64797D01*
X470804Y64816D01*
X470748Y64890D01*
X470656Y64983D01*
X470545Y65112D01*
X470378Y65242D01*
X470193Y65353D01*
X469989Y65464D01*
X469749Y65557D01*
X469730D01*
X469656Y65575D01*
X469545Y65594D01*
X469397Y65631D01*
X469175Y65649D01*
X468897Y65668D01*
X468563Y65686D01*
D02*
G37*
G36*
X454880Y65964D02*
X454713D01*
X454584Y65945D01*
X454417Y65927D01*
X454250Y65890D01*
X454047Y65853D01*
X453824Y65816D01*
X453343Y65668D01*
X453084Y65557D01*
X452824Y65445D01*
X452547Y65297D01*
X452287Y65131D01*
X452028Y64946D01*
X451787Y64723D01*
X451769Y64705D01*
X451732Y64668D01*
X451676Y64594D01*
X451584Y64483D01*
X451491Y64353D01*
X451380Y64186D01*
X451269Y63983D01*
X451139Y63742D01*
X451028Y63483D01*
X450899Y63168D01*
X450788Y62835D01*
X450695Y62464D01*
X450602Y62057D01*
X450547Y61594D01*
X450510Y61113D01*
X450491Y60594D01*
Y60576D01*
Y60501D01*
Y60372D01*
X450510Y60205D01*
X450528Y60020D01*
X450565Y59798D01*
X450602Y59539D01*
X450639Y59279D01*
X450788Y58687D01*
X450899Y58391D01*
X451010Y58076D01*
X451158Y57780D01*
X451325Y57483D01*
X451510Y57206D01*
X451732Y56946D01*
X451750Y56928D01*
X451787Y56891D01*
X451862Y56817D01*
X451954Y56743D01*
X452084Y56632D01*
X452232Y56521D01*
X452398Y56409D01*
X452584Y56280D01*
X452806Y56150D01*
X453047Y56039D01*
X453306Y55928D01*
X453584Y55817D01*
X453880Y55743D01*
X454176Y55669D01*
X454509Y55632D01*
X454861Y55613D01*
X454954D01*
X455046Y55632D01*
X455176D01*
X455343Y55650D01*
X455528Y55687D01*
X455750Y55724D01*
X455972Y55780D01*
X456231Y55854D01*
X456472Y55946D01*
X456750Y56039D01*
X457009Y56169D01*
X457268Y56335D01*
X457528Y56502D01*
X457787Y56706D01*
X458028Y56946D01*
X458046Y56965D01*
X458083Y57002D01*
X458139Y57094D01*
X458231Y57206D01*
X458324Y57335D01*
X458416Y57502D01*
X458527Y57705D01*
X458657Y57928D01*
X458768Y58187D01*
X458879Y58483D01*
X458972Y58798D01*
X459083Y59131D01*
X459157Y59502D01*
X459213Y59909D01*
X459250Y60335D01*
X459268Y60779D01*
Y60798D01*
Y60853D01*
Y60927D01*
Y61038D01*
X459250Y61168D01*
Y61335D01*
X459231Y61501D01*
X459194Y61705D01*
X459139Y62131D01*
X459046Y62575D01*
X458916Y63057D01*
X458731Y63501D01*
Y63520D01*
X458713Y63557D01*
X458676Y63612D01*
X458639Y63686D01*
X458509Y63909D01*
X458342Y64168D01*
X458120Y64464D01*
X457842Y64760D01*
X457528Y65057D01*
X457176Y65316D01*
X457157D01*
X457139Y65353D01*
X457083Y65371D01*
X456991Y65427D01*
X456898Y65464D01*
X456787Y65519D01*
X456509Y65649D01*
X456176Y65760D01*
X455787Y65871D01*
X455343Y65945D01*
X454880Y65964D01*
D02*
G37*
G36*
X371166Y65964D02*
X371055D01*
X370981Y65945D01*
X370777Y65908D01*
X370537Y65853D01*
X370259Y65742D01*
X369963Y65575D01*
X369814Y65464D01*
X369666Y65353D01*
X369537Y65205D01*
X369407Y65038D01*
Y65020D01*
X369370Y64983D01*
X369333Y64908D01*
X369277Y64816D01*
X369222Y64668D01*
X369148Y64501D01*
X369092Y64297D01*
X369018Y64057D01*
X368944Y63779D01*
X368870Y63464D01*
X368796Y63112D01*
X368741Y62723D01*
X368685Y62279D01*
X368648Y61798D01*
X368629Y61279D01*
X368611Y60705D01*
Y60668D01*
Y60576D01*
Y60409D01*
X368629Y60187D01*
Y59946D01*
X368648Y59650D01*
X368666Y59335D01*
X368703Y59002D01*
X368796Y58280D01*
X368852Y57928D01*
X368926Y57594D01*
X369000Y57280D01*
X369111Y56983D01*
X369222Y56724D01*
X369352Y56502D01*
Y56483D01*
X369389Y56465D01*
X369481Y56335D01*
X369648Y56169D01*
X369851Y55984D01*
X370129Y55798D01*
X370444Y55632D01*
X370796Y55502D01*
X370981Y55483D01*
X371185Y55465D01*
X371296D01*
X371370Y55483D01*
X371555Y55521D01*
X371814Y55595D01*
X372092Y55724D01*
X372407Y55909D01*
X372555Y56020D01*
X372703Y56169D01*
X372851Y56317D01*
X372999Y56502D01*
Y56520D01*
X373036Y56557D01*
X373073Y56613D01*
X373111Y56706D01*
X373185Y56835D01*
X373240Y57002D01*
X373314Y57187D01*
X373388Y57409D01*
X373444Y57687D01*
X373518Y57983D01*
X373592Y58335D01*
X373647Y58705D01*
X373685Y59150D01*
X373722Y59613D01*
X373759Y60131D01*
Y60705D01*
Y60724D01*
Y60742D01*
Y60835D01*
Y61002D01*
X373740Y61224D01*
Y61464D01*
X373722Y61761D01*
X373703Y62075D01*
X373666Y62427D01*
X373573Y63131D01*
X373518Y63483D01*
X373444Y63816D01*
X373370Y64131D01*
X373259Y64427D01*
X373148Y64686D01*
X373018Y64908D01*
Y64927D01*
X372981Y64946D01*
X372944Y65001D01*
X372888Y65075D01*
X372722Y65242D01*
X372518Y65445D01*
X372240Y65631D01*
X371925Y65797D01*
X371759Y65871D01*
X371574Y65927D01*
X371370Y65945D01*
X371166Y65964D01*
D02*
G37*
G36*
X151325Y57441D02*
X151047D01*
X150825Y57385D01*
X150269Y57274D01*
X149547Y57108D01*
X148714Y56774D01*
X147825Y56274D01*
X147325Y55941D01*
X146881Y55552D01*
X146436Y55108D01*
X145992Y54608D01*
Y54552D01*
X145881Y54497D01*
X145770Y54330D01*
X145659Y54108D01*
X145492Y53774D01*
X145270Y53441D01*
X145048Y52997D01*
X144881Y52552D01*
X144659Y51997D01*
X144436Y51386D01*
X144270Y50719D01*
X144048Y49997D01*
X143937Y49164D01*
X143825Y48331D01*
X143714Y47442D01*
Y46442D01*
Y46386D01*
Y46220D01*
Y45942D01*
X143770Y45553D01*
Y45109D01*
X143825Y44609D01*
X143992Y43442D01*
X144270Y42109D01*
X144603Y40831D01*
X145159Y39554D01*
X145492Y38998D01*
X145881Y38498D01*
X145992Y38387D01*
X146270Y38110D01*
X146714Y37665D01*
X147325Y37221D01*
X148103Y36776D01*
X148991Y36332D01*
X149991Y36054D01*
X150547Y35999D01*
X151102Y35943D01*
X151436D01*
X151658Y35999D01*
X152213Y36110D01*
X152991Y36276D01*
X153824Y36610D01*
X154713Y37054D01*
X155602Y37721D01*
X156046Y38110D01*
X156491Y38554D01*
Y38609D01*
X156602Y38665D01*
X156713Y38832D01*
X156824Y39054D01*
X157046Y39332D01*
X157213Y39720D01*
X157435Y40109D01*
X157657Y40609D01*
X157824Y41109D01*
X158046Y41776D01*
X158268Y42442D01*
X158435Y43165D01*
X158546Y43998D01*
X158657Y44886D01*
X158768Y45831D01*
Y46831D01*
Y46886D01*
Y47053D01*
Y47331D01*
X158713Y47720D01*
Y48164D01*
X158657Y48664D01*
X158490Y49830D01*
X158213Y51108D01*
X157824Y52386D01*
X157268Y53663D01*
X156935Y54275D01*
X156546Y54774D01*
Y54830D01*
X156435Y54886D01*
X156157Y55219D01*
X155713Y55608D01*
X155102Y56108D01*
X154324Y56608D01*
X153435Y57052D01*
X152436Y57330D01*
X151880Y57385D01*
X151325Y57441D01*
D02*
G37*
%LPD*%
D10*
X475000Y15000D02*
G03*
X485000Y25000I0J10000D01*
G01*
X355000Y25000D02*
G03*
X365000Y15000I10000J0D01*
G01*
X485000Y75000D02*
G03*
X475000Y85000I-10000J0D01*
G01*
X365000D02*
G03*
X355000Y75000I0J-10000D01*
G01*
Y25000D02*
Y75000D01*
X365000Y15000D02*
X475000D01*
X365000Y85000D02*
X475000D01*
X485000Y25000D02*
Y75000D01*
X355000Y25000D02*
X355000D01*
D11*
X240000Y41722D02*
X245000D01*
M02*
