G04*
G04 #@! TF.GenerationSoftware,Altium Limited,Altium Designer,23.9.2 (47)*
G04*
G04 Layer_Color=32896*
%FSLAX44Y44*%
%MOMM*%
G71*
G04*
G04 #@! TF.SameCoordinates,BDA42284-3A0F-4055-A59D-1AE2AF1CB793*
G04*
G04*
G04 #@! TF.FilePolarity,Positive*
G04*
G01*
G75*
%ADD11C,0.1000*%
G36*
X329743Y245915D02*
X329978Y245901D01*
X330200Y245859D01*
X330408Y245818D01*
X330602Y245762D01*
X330783Y245707D01*
X330949Y245637D01*
X331102Y245568D01*
X331240Y245499D01*
X331351Y245429D01*
X331448Y245374D01*
X331532Y245318D01*
X331601Y245277D01*
X331643Y245235D01*
X331670Y245221D01*
X331684Y245207D01*
X331823Y245069D01*
X331948Y244916D01*
X332072Y244750D01*
X332170Y244583D01*
X332336Y244251D01*
X332447Y243918D01*
X332489Y243765D01*
X332530Y243612D01*
X332558Y243488D01*
X332586Y243377D01*
X332599Y243280D01*
Y243210D01*
X332613Y243169D01*
Y243155D01*
X331407Y243030D01*
X331379Y243349D01*
X331324Y243626D01*
X331240Y243876D01*
X331143Y244070D01*
X331060Y244237D01*
X330977Y244347D01*
X330921Y244417D01*
X330894Y244445D01*
X330686Y244611D01*
X330464Y244736D01*
X330228Y244833D01*
X330020Y244888D01*
X329826Y244930D01*
X329659Y244944D01*
X329604Y244958D01*
X329521D01*
X329230Y244944D01*
X328966Y244888D01*
X328744Y244805D01*
X328550Y244722D01*
X328397Y244625D01*
X328300Y244556D01*
X328231Y244500D01*
X328203Y244472D01*
X328037Y244278D01*
X327912Y244084D01*
X327815Y243890D01*
X327759Y243696D01*
X327718Y243543D01*
X327704Y243405D01*
X327690Y243321D01*
Y243307D01*
Y243293D01*
X327718Y243044D01*
X327773Y242780D01*
X327870Y242545D01*
X327967Y242323D01*
X328078Y242143D01*
X328176Y241990D01*
X328203Y241934D01*
X328231Y241893D01*
X328259Y241879D01*
Y241865D01*
X328370Y241712D01*
X328508Y241560D01*
X328661Y241394D01*
X328827Y241227D01*
X329174Y240894D01*
X329521Y240562D01*
X329701Y240409D01*
X329854Y240270D01*
X330006Y240145D01*
X330131Y240035D01*
X330228Y239951D01*
X330311Y239882D01*
X330367Y239840D01*
X330381Y239826D01*
X330727Y239535D01*
X331046Y239258D01*
X331310Y239008D01*
X331518Y238800D01*
X331698Y238620D01*
X331823Y238495D01*
X331892Y238412D01*
X331920Y238398D01*
Y238384D01*
X332114Y238148D01*
X332267Y237927D01*
X332405Y237705D01*
X332516Y237510D01*
X332599Y237344D01*
X332655Y237219D01*
X332683Y237136D01*
X332697Y237122D01*
Y237108D01*
X332752Y236956D01*
X332780Y236817D01*
X332808Y236678D01*
X332821Y236553D01*
X332835Y236443D01*
Y236359D01*
Y236304D01*
Y236290D01*
X326470D01*
Y237427D01*
X331199D01*
X331032Y237663D01*
X330949Y237760D01*
X330880Y237857D01*
X330811Y237940D01*
X330755Y237996D01*
X330713Y238037D01*
X330700Y238051D01*
X330630Y238121D01*
X330547Y238190D01*
X330353Y238370D01*
X330131Y238578D01*
X329895Y238786D01*
X329673Y238967D01*
X329576Y239050D01*
X329493Y239133D01*
X329424Y239188D01*
X329368Y239230D01*
X329340Y239258D01*
X329327Y239272D01*
X329105Y239466D01*
X328883Y239646D01*
X328689Y239826D01*
X328508Y239979D01*
X328342Y240131D01*
X328203Y240270D01*
X328064Y240395D01*
X327954Y240506D01*
X327843Y240617D01*
X327759Y240700D01*
X327690Y240770D01*
X327621Y240839D01*
X327551Y240922D01*
X327524Y240950D01*
X327329Y241185D01*
X327163Y241394D01*
X327024Y241602D01*
X326913Y241768D01*
X326830Y241921D01*
X326775Y242031D01*
X326747Y242101D01*
X326733Y242129D01*
X326650Y242337D01*
X326595Y242545D01*
X326539Y242739D01*
X326511Y242905D01*
X326497Y243058D01*
X326483Y243169D01*
Y243238D01*
Y243266D01*
X326497Y243474D01*
X326525Y243668D01*
X326553Y243862D01*
X326608Y244029D01*
X326747Y244361D01*
X326886Y244625D01*
X326969Y244750D01*
X327038Y244847D01*
X327108Y244944D01*
X327177Y245013D01*
X327232Y245069D01*
X327260Y245124D01*
X327288Y245138D01*
X327302Y245152D01*
X327454Y245291D01*
X327621Y245415D01*
X327801Y245513D01*
X327981Y245596D01*
X328342Y245734D01*
X328703Y245832D01*
X328855Y245859D01*
X329008Y245887D01*
X329146Y245901D01*
X329257Y245915D01*
X329354Y245928D01*
X329493D01*
X329743Y245915D01*
D02*
G37*
G36*
X336594Y245693D02*
X336746Y245471D01*
X336926Y245249D01*
X337093Y245055D01*
X337259Y244888D01*
X337384Y244750D01*
X337440Y244708D01*
X337481Y244667D01*
X337495Y244653D01*
X337509Y244639D01*
X337800Y244403D01*
X338091Y244181D01*
X338369Y243987D01*
X338646Y243834D01*
X338882Y243696D01*
X338979Y243640D01*
X339062Y243599D01*
X339132Y243557D01*
X339187Y243543D01*
X339215Y243515D01*
X339229D01*
Y242378D01*
X339021Y242461D01*
X338812Y242558D01*
X338605Y242656D01*
X338410Y242753D01*
X338244Y242836D01*
X338105Y242905D01*
X338022Y242961D01*
X338008Y242975D01*
X337994D01*
X337745Y243127D01*
X337523Y243280D01*
X337329Y243418D01*
X337176Y243543D01*
X337037Y243640D01*
X336954Y243724D01*
X336885Y243779D01*
X336871Y243793D01*
Y236290D01*
X335692D01*
Y245928D01*
X336455D01*
X336594Y245693D01*
D02*
G37*
G36*
X336365Y184403D02*
X336517Y184181D01*
X336698Y183959D01*
X336864Y183765D01*
X337031Y183598D01*
X337155Y183460D01*
X337211Y183418D01*
X337253Y183377D01*
X337266Y183363D01*
X337280Y183349D01*
X337571Y183113D01*
X337863Y182891D01*
X338140Y182697D01*
X338418Y182544D01*
X338653Y182406D01*
X338750Y182350D01*
X338834Y182309D01*
X338903Y182267D01*
X338958Y182253D01*
X338986Y182225D01*
X339000D01*
Y181088D01*
X338792Y181171D01*
X338584Y181269D01*
X338376Y181366D01*
X338182Y181463D01*
X338015Y181546D01*
X337877Y181615D01*
X337793Y181671D01*
X337780Y181685D01*
X337766D01*
X337516Y181837D01*
X337294Y181990D01*
X337100Y182128D01*
X336948Y182253D01*
X336809Y182350D01*
X336726Y182433D01*
X336656Y182489D01*
X336642Y182503D01*
Y175000D01*
X335463D01*
Y184639D01*
X336226D01*
X336365Y184403D01*
D02*
G37*
G36*
X328904D02*
X329056Y184181D01*
X329237Y183959D01*
X329403Y183765D01*
X329570Y183598D01*
X329694Y183460D01*
X329750Y183418D01*
X329791Y183377D01*
X329805Y183363D01*
X329819Y183349D01*
X330110Y183113D01*
X330402Y182891D01*
X330679Y182697D01*
X330956Y182544D01*
X331192Y182406D01*
X331289Y182350D01*
X331372Y182309D01*
X331442Y182267D01*
X331497Y182253D01*
X331525Y182225D01*
X331539D01*
Y181088D01*
X331331Y181171D01*
X331123Y181269D01*
X330915Y181366D01*
X330720Y181463D01*
X330554Y181546D01*
X330415Y181615D01*
X330332Y181671D01*
X330318Y181685D01*
X330304D01*
X330055Y181837D01*
X329833Y181990D01*
X329639Y182128D01*
X329486Y182253D01*
X329348Y182350D01*
X329264Y182433D01*
X329195Y182489D01*
X329181Y182503D01*
Y175000D01*
X328002D01*
Y184639D01*
X328765D01*
X328904Y184403D01*
D02*
G37*
G36*
X307901Y245859D02*
X308053Y245637D01*
X308234Y245415D01*
X308400Y245221D01*
X308567Y245055D01*
X308692Y244916D01*
X308747Y244874D01*
X308789Y244833D01*
X308802Y244819D01*
X308816Y244805D01*
X309107Y244569D01*
X309399Y244347D01*
X309676Y244153D01*
X309953Y244001D01*
X310189Y243862D01*
X310286Y243807D01*
X310370Y243765D01*
X310439Y243724D01*
X310494Y243710D01*
X310522Y243682D01*
X310536D01*
Y242545D01*
X310328Y242628D01*
X310120Y242725D01*
X309912Y242822D01*
X309718Y242919D01*
X309551Y243002D01*
X309413Y243072D01*
X309329Y243127D01*
X309316Y243141D01*
X309302D01*
X309052Y243293D01*
X308830Y243446D01*
X308636Y243585D01*
X308484Y243710D01*
X308345Y243807D01*
X308262Y243890D01*
X308192Y243945D01*
X308178Y243959D01*
Y236456D01*
X306999D01*
Y246095D01*
X307762D01*
X307901Y245859D01*
D02*
G37*
G36*
X301216Y246067D02*
X301563Y246012D01*
X301854Y245915D01*
X302104Y245818D01*
X302312Y245707D01*
X302395Y245665D01*
X302465Y245610D01*
X302520Y245582D01*
X302562Y245554D01*
X302575Y245526D01*
X302589D01*
X302839Y245305D01*
X303047Y245041D01*
X303227Y244778D01*
X303366Y244528D01*
X303477Y244292D01*
X303532Y244195D01*
X303560Y244098D01*
X303588Y244029D01*
X303616Y243973D01*
X303629Y243945D01*
Y243932D01*
X303685Y243724D01*
X303741Y243515D01*
X303824Y243058D01*
X303893Y242600D01*
X303935Y242170D01*
X303948Y241962D01*
X303962Y241782D01*
Y241616D01*
X303976Y241463D01*
Y241352D01*
Y241255D01*
Y241199D01*
Y241185D01*
X303962Y240700D01*
X303935Y240243D01*
X303893Y239826D01*
X303824Y239438D01*
X303754Y239078D01*
X303671Y238759D01*
X303588Y238467D01*
X303505Y238218D01*
X303421Y237996D01*
X303324Y237802D01*
X303255Y237635D01*
X303186Y237510D01*
X303116Y237400D01*
X303075Y237330D01*
X303047Y237288D01*
X303033Y237275D01*
X302881Y237108D01*
X302714Y236956D01*
X302534Y236817D01*
X302354Y236706D01*
X302173Y236609D01*
X301993Y236526D01*
X301813Y236470D01*
X301646Y236415D01*
X301480Y236373D01*
X301327Y236346D01*
X301189Y236318D01*
X301078Y236304D01*
X300981Y236290D01*
X300842D01*
X300467Y236318D01*
X300121Y236373D01*
X299830Y236470D01*
X299580Y236567D01*
X299372Y236664D01*
X299303Y236720D01*
X299233Y236761D01*
X299178Y236789D01*
X299136Y236817D01*
X299122Y236845D01*
X299108D01*
X298859Y237080D01*
X298651Y237330D01*
X298470Y237607D01*
X298332Y237857D01*
X298221Y238093D01*
X298165Y238190D01*
X298138Y238287D01*
X298110Y238356D01*
X298082Y238412D01*
X298068Y238440D01*
Y238454D01*
X297999Y238661D01*
X297943Y238869D01*
X297860Y239313D01*
X297791Y239771D01*
X297749Y240215D01*
X297735Y240409D01*
X297722Y240589D01*
Y240756D01*
X297708Y240908D01*
Y241019D01*
Y241116D01*
Y241172D01*
Y241185D01*
Y241449D01*
X297722Y241699D01*
Y241921D01*
X297735Y242143D01*
X297763Y242337D01*
X297777Y242531D01*
X297791Y242697D01*
X297819Y242850D01*
X297833Y242988D01*
X297860Y243113D01*
X297874Y243210D01*
X297888Y243293D01*
X297902Y243363D01*
X297916Y243405D01*
X297930Y243432D01*
Y243446D01*
X298013Y243751D01*
X298110Y244029D01*
X298221Y244264D01*
X298304Y244472D01*
X298401Y244653D01*
X298457Y244778D01*
X298512Y244847D01*
X298526Y244874D01*
X298678Y245083D01*
X298831Y245263D01*
X298997Y245415D01*
X299150Y245554D01*
X299289Y245651D01*
X299400Y245721D01*
X299469Y245762D01*
X299483Y245776D01*
X299497D01*
X299719Y245887D01*
X299954Y245956D01*
X300176Y246012D01*
X300384Y246053D01*
X300565Y246081D01*
X300717Y246095D01*
X300842D01*
X301216Y246067D01*
D02*
G37*
G36*
X309155Y184632D02*
X309377Y184604D01*
X309598Y184562D01*
X309792Y184507D01*
X310167Y184354D01*
X310333Y184285D01*
X310472Y184202D01*
X310611Y184105D01*
X310722Y184035D01*
X310833Y183952D01*
X310916Y183883D01*
X310985Y183827D01*
X311027Y183786D01*
X311054Y183758D01*
X311068Y183744D01*
X311221Y183578D01*
X311346Y183384D01*
X311471Y183203D01*
X311568Y183009D01*
X311651Y182801D01*
X311720Y182607D01*
X311817Y182246D01*
X311859Y182066D01*
X311887Y181914D01*
X311901Y181761D01*
X311914Y181636D01*
X311928Y181539D01*
Y181470D01*
Y181414D01*
Y181400D01*
X311914Y181137D01*
X311887Y180901D01*
X311859Y180665D01*
X311803Y180443D01*
X311734Y180249D01*
X311665Y180055D01*
X311595Y179889D01*
X311512Y179736D01*
X311443Y179597D01*
X311374Y179473D01*
X311304Y179376D01*
X311235Y179279D01*
X311179Y179209D01*
X311152Y179168D01*
X311124Y179140D01*
X311110Y179126D01*
X310958Y178974D01*
X310791Y178849D01*
X310625Y178724D01*
X310444Y178627D01*
X310278Y178543D01*
X310112Y178474D01*
X309792Y178377D01*
X309654Y178335D01*
X309515Y178308D01*
X309404Y178294D01*
X309293Y178280D01*
X309210Y178266D01*
X309099D01*
X308836Y178280D01*
X308586Y178322D01*
X308364Y178377D01*
X308156Y178447D01*
X308004Y178502D01*
X307879Y178557D01*
X307796Y178599D01*
X307768Y178613D01*
X307546Y178752D01*
X307352Y178904D01*
X307185Y179057D01*
X307047Y179195D01*
X306950Y179334D01*
X306866Y179431D01*
X306811Y179501D01*
X306797Y179528D01*
Y179417D01*
Y179348D01*
Y179306D01*
Y179292D01*
X306811Y179015D01*
X306825Y178752D01*
X306852Y178516D01*
X306880Y178294D01*
X306922Y178114D01*
X306950Y177975D01*
X306963Y177920D01*
Y177878D01*
X306977Y177864D01*
Y177850D01*
X307047Y177600D01*
X307116Y177379D01*
X307185Y177184D01*
X307255Y177018D01*
X307310Y176893D01*
X307366Y176796D01*
X307393Y176727D01*
X307407Y176713D01*
X307518Y176560D01*
X307629Y176436D01*
X307740Y176325D01*
X307851Y176227D01*
X307934Y176144D01*
X308017Y176089D01*
X308073Y176061D01*
X308087Y176047D01*
X308239Y175964D01*
X308406Y175909D01*
X308558Y175867D01*
X308711Y175839D01*
X308836Y175825D01*
X308933Y175812D01*
X309030D01*
X309252Y175825D01*
X309460Y175867D01*
X309640Y175922D01*
X309792Y175992D01*
X309904Y176047D01*
X310000Y176103D01*
X310056Y176144D01*
X310070Y176158D01*
X310209Y176311D01*
X310319Y176491D01*
X310417Y176685D01*
X310486Y176879D01*
X310541Y177046D01*
X310583Y177198D01*
X310597Y177254D01*
Y177281D01*
X310611Y177309D01*
Y177323D01*
X311748Y177226D01*
X311665Y176824D01*
X311554Y176477D01*
X311415Y176172D01*
X311276Y175922D01*
X311138Y175728D01*
X311068Y175645D01*
X311013Y175576D01*
X310971Y175534D01*
X310930Y175492D01*
X310916Y175479D01*
X310902Y175465D01*
X310763Y175354D01*
X310611Y175257D01*
X310306Y175104D01*
X310000Y174993D01*
X309709Y174924D01*
X309446Y174868D01*
X309335Y174855D01*
X309238D01*
X309168Y174841D01*
X309058D01*
X308669Y174868D01*
X308323Y174924D01*
X308004Y175021D01*
X307740Y175132D01*
X307629Y175173D01*
X307518Y175229D01*
X307435Y175285D01*
X307352Y175326D01*
X307296Y175354D01*
X307255Y175382D01*
X307227Y175409D01*
X307213D01*
X306936Y175645D01*
X306686Y175909D01*
X306492Y176186D01*
X306325Y176449D01*
X306187Y176685D01*
X306131Y176796D01*
X306090Y176879D01*
X306062Y176963D01*
X306034Y177018D01*
X306020Y177046D01*
Y177060D01*
X305951Y177268D01*
X305882Y177503D01*
X305785Y177975D01*
X305715Y178474D01*
X305674Y178946D01*
X305646Y179154D01*
X305632Y179362D01*
Y179542D01*
X305618Y179695D01*
Y179819D01*
Y179916D01*
Y179986D01*
Y180000D01*
Y180319D01*
X305632Y180624D01*
X305660Y180901D01*
X305688Y181165D01*
X305715Y181400D01*
X305743Y181622D01*
X305785Y181830D01*
X305826Y182011D01*
X305868Y182163D01*
X305896Y182302D01*
X305937Y182427D01*
X305965Y182524D01*
X305993Y182593D01*
X306020Y182649D01*
X306034Y182676D01*
Y182690D01*
X306201Y183023D01*
X306381Y183314D01*
X306589Y183564D01*
X306769Y183772D01*
X306950Y183925D01*
X307088Y184035D01*
X307144Y184077D01*
X307185Y184105D01*
X307199Y184132D01*
X307213D01*
X307504Y184299D01*
X307796Y184424D01*
X308087Y184521D01*
X308350Y184576D01*
X308586Y184618D01*
X308683Y184632D01*
X308752D01*
X308822Y184646D01*
X308919D01*
X309155Y184632D01*
D02*
G37*
G36*
X280224Y246081D02*
X280446Y246067D01*
X280835Y245984D01*
X281015Y245928D01*
X281181Y245873D01*
X281334Y245804D01*
X281473Y245734D01*
X281583Y245665D01*
X281695Y245596D01*
X281792Y245540D01*
X281861Y245485D01*
X281916Y245443D01*
X281958Y245401D01*
X281986Y245388D01*
X282000Y245374D01*
X282124Y245235D01*
X282249Y245096D01*
X282346Y244944D01*
X282430Y244791D01*
X282568Y244500D01*
X282651Y244223D01*
X282707Y243987D01*
X282721Y243876D01*
X282735Y243793D01*
X282749Y243710D01*
Y243654D01*
Y243626D01*
Y243612D01*
X282735Y243363D01*
X282693Y243127D01*
X282638Y242919D01*
X282568Y242739D01*
X282513Y242600D01*
X282457Y242489D01*
X282416Y242434D01*
X282402Y242406D01*
X282249Y242239D01*
X282083Y242087D01*
X281903Y241948D01*
X281722Y241837D01*
X281556Y241754D01*
X281431Y241699D01*
X281376Y241671D01*
X281334Y241657D01*
X281320Y241643D01*
X281306D01*
X281625Y241546D01*
X281889Y241421D01*
X282124Y241269D01*
X282319Y241130D01*
X282471Y240991D01*
X282582Y240880D01*
X282638Y240811D01*
X282665Y240797D01*
Y240783D01*
X282818Y240534D01*
X282943Y240270D01*
X283026Y240021D01*
X283081Y239771D01*
X283109Y239549D01*
X283123Y239452D01*
Y239369D01*
X283137Y239313D01*
Y239258D01*
Y239230D01*
Y239216D01*
X283123Y238994D01*
X283095Y238772D01*
X283054Y238564D01*
X282998Y238356D01*
X282859Y238010D01*
X282790Y237843D01*
X282707Y237705D01*
X282624Y237566D01*
X282554Y237455D01*
X282471Y237358D01*
X282416Y237275D01*
X282360Y237205D01*
X282319Y237164D01*
X282291Y237136D01*
X282277Y237122D01*
X282111Y236970D01*
X281930Y236845D01*
X281736Y236734D01*
X281542Y236637D01*
X281362Y236567D01*
X281168Y236498D01*
X280793Y236401D01*
X280627Y236359D01*
X280474Y236332D01*
X280335Y236318D01*
X280211Y236304D01*
X280114Y236290D01*
X279975D01*
X279711Y236304D01*
X279475Y236332D01*
X279240Y236373D01*
X279018Y236415D01*
X278824Y236484D01*
X278630Y236553D01*
X278449Y236623D01*
X278297Y236706D01*
X278158Y236789D01*
X278033Y236859D01*
X277936Y236928D01*
X277839Y236997D01*
X277770Y237039D01*
X277728Y237080D01*
X277700Y237108D01*
X277687Y237122D01*
X277534Y237288D01*
X277395Y237455D01*
X277284Y237621D01*
X277187Y237802D01*
X277090Y237968D01*
X277021Y238148D01*
X276924Y238467D01*
X276882Y238620D01*
X276854Y238759D01*
X276840Y238883D01*
X276827Y238981D01*
X276813Y239064D01*
Y239133D01*
Y239175D01*
Y239188D01*
X276827Y239508D01*
X276882Y239799D01*
X276965Y240062D01*
X277049Y240284D01*
X277132Y240464D01*
X277215Y240603D01*
X277271Y240686D01*
X277284Y240700D01*
Y240714D01*
X277479Y240936D01*
X277687Y241130D01*
X277908Y241283D01*
X278116Y241421D01*
X278311Y241518D01*
X278477Y241588D01*
X278533Y241616D01*
X278574Y241629D01*
X278602Y241643D01*
X278616D01*
X278366Y241754D01*
X278158Y241879D01*
X277978Y242004D01*
X277825Y242129D01*
X277714Y242239D01*
X277631Y242323D01*
X277576Y242378D01*
X277562Y242406D01*
X277437Y242600D01*
X277354Y242794D01*
X277284Y242988D01*
X277243Y243183D01*
X277215Y243335D01*
X277201Y243460D01*
Y243543D01*
Y243557D01*
Y243571D01*
X277215Y243765D01*
X277229Y243945D01*
X277326Y244292D01*
X277451Y244597D01*
X277589Y244861D01*
X277728Y245069D01*
X277798Y245152D01*
X277853Y245235D01*
X277908Y245291D01*
X277950Y245332D01*
X277964Y245346D01*
X277978Y245360D01*
X278130Y245485D01*
X278283Y245610D01*
X278449Y245707D01*
X278616Y245790D01*
X278948Y245915D01*
X279281Y245998D01*
X279420Y246040D01*
X279559Y246053D01*
X279684Y246067D01*
X279795Y246081D01*
X279878Y246095D01*
X280002D01*
X280224Y246081D01*
D02*
G37*
G36*
X284960Y183494D02*
X280258D01*
X280591Y183092D01*
X280910Y182662D01*
X281187Y182246D01*
X281451Y181844D01*
X281562Y181664D01*
X281659Y181497D01*
X281756Y181345D01*
X281825Y181220D01*
X281881Y181109D01*
X281922Y181040D01*
X281950Y180984D01*
X281964Y180970D01*
X282241Y180415D01*
X282491Y179861D01*
X282699Y179334D01*
X282782Y179098D01*
X282866Y178862D01*
X282949Y178654D01*
X283004Y178460D01*
X283060Y178294D01*
X283101Y178155D01*
X283143Y178030D01*
X283171Y177947D01*
X283185Y177891D01*
Y177878D01*
X283323Y177309D01*
X283379Y177032D01*
X283420Y176782D01*
X283462Y176546D01*
X283503Y176310D01*
X283531Y176116D01*
X283559Y175922D01*
X283573Y175756D01*
X283587Y175603D01*
X283601Y175464D01*
Y175354D01*
X283614Y175270D01*
Y175215D01*
Y175173D01*
Y175159D01*
X282408D01*
X282366Y175686D01*
X282297Y176172D01*
X282228Y176616D01*
X282186Y176824D01*
X282144Y177018D01*
X282117Y177184D01*
X282075Y177337D01*
X282047Y177475D01*
X282020Y177586D01*
X281992Y177670D01*
X281978Y177739D01*
X281964Y177780D01*
Y177794D01*
X281756Y178432D01*
X281534Y179029D01*
X281423Y179320D01*
X281312Y179597D01*
X281187Y179847D01*
X281077Y180096D01*
X280979Y180318D01*
X280882Y180513D01*
X280799Y180679D01*
X280730Y180832D01*
X280660Y180956D01*
X280619Y181040D01*
X280591Y181095D01*
X280577Y181109D01*
X280411Y181400D01*
X280244Y181691D01*
X280078Y181955D01*
X279911Y182204D01*
X279759Y182426D01*
X279606Y182648D01*
X279454Y182842D01*
X279329Y183009D01*
X279204Y183175D01*
X279093Y183314D01*
X278982Y183425D01*
X278899Y183522D01*
X278844Y183605D01*
X278788Y183661D01*
X278761Y183688D01*
X278747Y183702D01*
Y184632D01*
X284960D01*
Y183494D01*
D02*
G37*
G36*
X255139Y246081D02*
X255403Y246053D01*
X255652Y245998D01*
X255888Y245928D01*
X256096Y245832D01*
X256304Y245748D01*
X256485Y245637D01*
X256651Y245540D01*
X256790Y245443D01*
X256928Y245332D01*
X257039Y245249D01*
X257122Y245166D01*
X257192Y245083D01*
X257247Y245027D01*
X257275Y244999D01*
X257289Y244986D01*
X257469Y244736D01*
X257622Y244445D01*
X257760Y244139D01*
X257885Y243820D01*
X257982Y243488D01*
X258065Y243155D01*
X258135Y242808D01*
X258190Y242489D01*
X258232Y242170D01*
X258260Y241879D01*
X258287Y241616D01*
X258301Y241394D01*
Y241199D01*
X258315Y241061D01*
Y241005D01*
Y240964D01*
Y240950D01*
Y240936D01*
X258301Y240492D01*
X258274Y240076D01*
X258232Y239688D01*
X258162Y239327D01*
X258093Y239008D01*
X258024Y238717D01*
X257941Y238454D01*
X257844Y238218D01*
X257760Y238024D01*
X257677Y237843D01*
X257608Y237705D01*
X257525Y237580D01*
X257469Y237483D01*
X257428Y237427D01*
X257400Y237386D01*
X257386Y237372D01*
X257206Y237178D01*
X257011Y237011D01*
X256817Y236873D01*
X256623Y236748D01*
X256415Y236637D01*
X256221Y236553D01*
X256027Y236484D01*
X255833Y236429D01*
X255666Y236387D01*
X255500Y236346D01*
X255361Y236318D01*
X255236Y236304D01*
X255125D01*
X255056Y236290D01*
X254987D01*
X254668Y236304D01*
X254377Y236359D01*
X254113Y236415D01*
X253877Y236498D01*
X253697Y236567D01*
X253558Y236637D01*
X253503Y236651D01*
X253461Y236678D01*
X253447Y236692D01*
X253433D01*
X253198Y236859D01*
X252976Y237053D01*
X252796Y237247D01*
X252643Y237441D01*
X252518Y237621D01*
X252435Y237760D01*
X252407Y237815D01*
X252379Y237857D01*
X252365Y237871D01*
Y237885D01*
X252227Y238176D01*
X252130Y238481D01*
X252060Y238759D01*
X252019Y239022D01*
X251977Y239244D01*
Y239327D01*
X251963Y239410D01*
Y239480D01*
Y239521D01*
Y239549D01*
Y239563D01*
X251977Y239813D01*
X252005Y240048D01*
X252047Y240284D01*
X252088Y240492D01*
X252157Y240686D01*
X252227Y240880D01*
X252296Y241047D01*
X252379Y241199D01*
X252463Y241338D01*
X252532Y241463D01*
X252601Y241560D01*
X252671Y241657D01*
X252712Y241726D01*
X252754Y241768D01*
X252782Y241796D01*
X252796Y241810D01*
X252948Y241962D01*
X253114Y242101D01*
X253295Y242212D01*
X253461Y242309D01*
X253628Y242406D01*
X253794Y242475D01*
X254113Y242572D01*
X254252Y242614D01*
X254390Y242642D01*
X254501Y242656D01*
X254612Y242670D01*
X254695Y242683D01*
X254806D01*
X255056Y242670D01*
X255292Y242628D01*
X255514Y242586D01*
X255708Y242531D01*
X255874Y242461D01*
X255999Y242420D01*
X256082Y242378D01*
X256096Y242364D01*
X256110D01*
X256332Y242226D01*
X256526Y242073D01*
X256706Y241921D01*
X256845Y241754D01*
X256970Y241616D01*
X257067Y241504D01*
X257122Y241421D01*
X257136Y241407D01*
Y241657D01*
X257122Y241907D01*
X257108Y242129D01*
X257081Y242351D01*
X257067Y242545D01*
X257039Y242725D01*
X257011Y242891D01*
X256970Y243044D01*
X256942Y243183D01*
X256914Y243293D01*
X256887Y243391D01*
X256873Y243474D01*
X256845Y243529D01*
X256831Y243571D01*
X256817Y243599D01*
Y243612D01*
X256679Y243890D01*
X256540Y244139D01*
X256387Y244334D01*
X256249Y244500D01*
X256124Y244639D01*
X256027Y244736D01*
X255958Y244791D01*
X255930Y244805D01*
X255763Y244916D01*
X255597Y244986D01*
X255431Y245041D01*
X255264Y245083D01*
X255139Y245110D01*
X255028Y245124D01*
X254931D01*
X254682Y245096D01*
X254446Y245041D01*
X254252Y244958D01*
X254071Y244874D01*
X253933Y244778D01*
X253836Y244694D01*
X253780Y244639D01*
X253752Y244611D01*
X253655Y244486D01*
X253558Y244334D01*
X253475Y244167D01*
X253419Y244001D01*
X253364Y243848D01*
X253323Y243724D01*
X253309Y243640D01*
X253295Y243626D01*
Y243612D01*
X252116Y243710D01*
X252199Y244098D01*
X252324Y244445D01*
X252463Y244750D01*
X252615Y244999D01*
X252768Y245194D01*
X252823Y245277D01*
X252892Y245346D01*
X252934Y245388D01*
X252976Y245429D01*
X252990Y245443D01*
X253004Y245457D01*
X253142Y245568D01*
X253295Y245665D01*
X253600Y245832D01*
X253905Y245942D01*
X254196Y246012D01*
X254460Y246067D01*
X254571Y246081D01*
X254668D01*
X254751Y246095D01*
X254862D01*
X255139Y246081D01*
D02*
G37*
G36*
X257624Y179701D02*
X256514Y179549D01*
X256417Y179701D01*
X256292Y179826D01*
X256181Y179951D01*
X256070Y180048D01*
X255959Y180117D01*
X255876Y180187D01*
X255821Y180215D01*
X255807Y180228D01*
X255627Y180312D01*
X255446Y180381D01*
X255280Y180422D01*
X255114Y180464D01*
X254975Y180478D01*
X254864Y180492D01*
X254600D01*
X254434Y180464D01*
X254143Y180395D01*
X253893Y180298D01*
X253671Y180201D01*
X253505Y180090D01*
X253380Y179993D01*
X253311Y179923D01*
X253283Y179909D01*
Y179896D01*
X253089Y179660D01*
X252950Y179410D01*
X252853Y179147D01*
X252784Y178883D01*
X252742Y178661D01*
X252728Y178564D01*
Y178481D01*
X252714Y178412D01*
Y178356D01*
Y178328D01*
Y178315D01*
Y178120D01*
X252742Y177940D01*
X252811Y177593D01*
X252908Y177302D01*
X253006Y177066D01*
X253116Y176872D01*
X253214Y176720D01*
X253255Y176678D01*
X253283Y176637D01*
X253297Y176623D01*
X253311Y176609D01*
X253421Y176498D01*
X253533Y176401D01*
X253782Y176234D01*
X254018Y176123D01*
X254254Y176054D01*
X254448Y175998D01*
X254614Y175985D01*
X254670Y175971D01*
X254753D01*
X255016Y175985D01*
X255252Y176040D01*
X255460Y176110D01*
X255627Y176193D01*
X255779Y176276D01*
X255890Y176345D01*
X255946Y176401D01*
X255973Y176415D01*
X256140Y176609D01*
X256278Y176817D01*
X256389Y177052D01*
X256473Y177261D01*
X256528Y177469D01*
X256570Y177621D01*
X256583Y177691D01*
X256597Y177732D01*
Y177760D01*
Y177774D01*
X257832Y177677D01*
X257804Y177455D01*
X257762Y177247D01*
X257638Y176858D01*
X257485Y176525D01*
X257402Y176373D01*
X257318Y176248D01*
X257249Y176123D01*
X257166Y176012D01*
X257097Y175929D01*
X257027Y175860D01*
X256972Y175804D01*
X256944Y175749D01*
X256916Y175735D01*
X256903Y175721D01*
X256736Y175596D01*
X256570Y175485D01*
X256389Y175388D01*
X256209Y175305D01*
X255862Y175180D01*
X255516Y175097D01*
X255363Y175056D01*
X255210Y175042D01*
X255086Y175028D01*
X254975Y175014D01*
X254878Y175000D01*
X254753D01*
X254462Y175014D01*
X254184Y175056D01*
X253921Y175111D01*
X253685Y175180D01*
X253463Y175277D01*
X253255Y175375D01*
X253061Y175471D01*
X252894Y175583D01*
X252742Y175693D01*
X252603Y175791D01*
X252492Y175902D01*
X252395Y175985D01*
X252326Y176054D01*
X252270Y176110D01*
X252243Y176151D01*
X252229Y176165D01*
X252090Y176345D01*
X251979Y176539D01*
X251868Y176720D01*
X251785Y176914D01*
X251646Y177288D01*
X251563Y177649D01*
X251535Y177801D01*
X251508Y177954D01*
X251494Y178079D01*
X251480Y178190D01*
X251466Y178287D01*
Y178356D01*
Y178398D01*
Y178412D01*
X251480Y178661D01*
X251508Y178897D01*
X251549Y179133D01*
X251605Y179341D01*
X251674Y179535D01*
X251743Y179729D01*
X251827Y179896D01*
X251896Y180048D01*
X251979Y180187D01*
X252062Y180312D01*
X252132Y180409D01*
X252201Y180506D01*
X252257Y180575D01*
X252298Y180617D01*
X252326Y180644D01*
X252340Y180658D01*
X252506Y180811D01*
X252673Y180949D01*
X252853Y181061D01*
X253033Y181158D01*
X253214Y181255D01*
X253394Y181324D01*
X253727Y181421D01*
X253879Y181463D01*
X254018Y181490D01*
X254143Y181504D01*
X254254Y181518D01*
X254337Y181532D01*
X254642D01*
X254808Y181504D01*
X255141Y181435D01*
X255446Y181338D01*
X255724Y181227D01*
X255946Y181116D01*
X256043Y181061D01*
X256126Y181019D01*
X256195Y180977D01*
X256237Y180949D01*
X256264Y180936D01*
X256278Y180922D01*
X255765Y183515D01*
X251924D01*
Y184639D01*
X256695D01*
X257624Y179701D01*
D02*
G37*
G36*
X203865Y184403D02*
X204018Y184181D01*
X204198Y183959D01*
X204364Y183765D01*
X204531Y183598D01*
X204655Y183460D01*
X204711Y183418D01*
X204753Y183377D01*
X204766Y183363D01*
X204780Y183349D01*
X205072Y183113D01*
X205363Y182891D01*
X205640Y182697D01*
X205917Y182544D01*
X206153Y182406D01*
X206250Y182350D01*
X206334Y182309D01*
X206403Y182267D01*
X206458Y182253D01*
X206486Y182225D01*
X206500D01*
Y181088D01*
X206292Y181171D01*
X206084Y181269D01*
X205876Y181366D01*
X205682Y181463D01*
X205515Y181546D01*
X205377Y181615D01*
X205293Y181671D01*
X205280Y181685D01*
X205266D01*
X205016Y181837D01*
X204794Y181990D01*
X204600Y182128D01*
X204447Y182253D01*
X204309Y182350D01*
X204226Y182433D01*
X204156Y182489D01*
X204142Y182503D01*
Y175000D01*
X202964D01*
Y184639D01*
X203726D01*
X203865Y184403D01*
D02*
G37*
G36*
X205270Y245915D02*
X205506Y245901D01*
X205727Y245859D01*
X205935Y245818D01*
X206129Y245762D01*
X206310Y245707D01*
X206476Y245637D01*
X206629Y245568D01*
X206768Y245499D01*
X206878Y245429D01*
X206975Y245374D01*
X207059Y245318D01*
X207128Y245277D01*
X207170Y245235D01*
X207197Y245221D01*
X207211Y245207D01*
X207350Y245069D01*
X207475Y244916D01*
X207600Y244750D01*
X207697Y244583D01*
X207863Y244251D01*
X207974Y243918D01*
X208016Y243765D01*
X208057Y243612D01*
X208085Y243488D01*
X208113Y243377D01*
X208127Y243280D01*
Y243210D01*
X208141Y243169D01*
Y243155D01*
X206934Y243030D01*
X206906Y243349D01*
X206851Y243626D01*
X206768Y243876D01*
X206670Y244070D01*
X206587Y244237D01*
X206504Y244347D01*
X206448Y244417D01*
X206421Y244445D01*
X206213Y244611D01*
X205991Y244736D01*
X205755Y244833D01*
X205547Y244888D01*
X205353Y244930D01*
X205187Y244944D01*
X205131Y244958D01*
X205048D01*
X204757Y244944D01*
X204493Y244888D01*
X204271Y244805D01*
X204077Y244722D01*
X203925Y244625D01*
X203827Y244556D01*
X203758Y244500D01*
X203730Y244472D01*
X203564Y244278D01*
X203439Y244084D01*
X203342Y243890D01*
X203286Y243696D01*
X203245Y243543D01*
X203231Y243405D01*
X203217Y243321D01*
Y243307D01*
Y243293D01*
X203245Y243044D01*
X203300Y242780D01*
X203398Y242545D01*
X203494Y242323D01*
X203605Y242143D01*
X203703Y241990D01*
X203730Y241934D01*
X203758Y241893D01*
X203786Y241879D01*
Y241865D01*
X203897Y241712D01*
X204035Y241560D01*
X204188Y241394D01*
X204354Y241227D01*
X204701Y240894D01*
X205048Y240562D01*
X205228Y240409D01*
X205381Y240270D01*
X205533Y240145D01*
X205658Y240035D01*
X205755Y239951D01*
X205838Y239882D01*
X205894Y239840D01*
X205908Y239826D01*
X206254Y239535D01*
X206573Y239258D01*
X206837Y239008D01*
X207045Y238800D01*
X207225Y238620D01*
X207350Y238495D01*
X207419Y238412D01*
X207447Y238398D01*
Y238384D01*
X207641Y238148D01*
X207794Y237927D01*
X207932Y237705D01*
X208043Y237510D01*
X208127Y237344D01*
X208182Y237219D01*
X208210Y237136D01*
X208224Y237122D01*
Y237108D01*
X208279Y236956D01*
X208307Y236817D01*
X208335Y236678D01*
X208349Y236553D01*
X208362Y236443D01*
Y236359D01*
Y236304D01*
Y236290D01*
X201997D01*
Y237427D01*
X206726D01*
X206560Y237663D01*
X206476Y237760D01*
X206407Y237857D01*
X206338Y237940D01*
X206282Y237996D01*
X206241Y238037D01*
X206227Y238051D01*
X206157Y238121D01*
X206074Y238190D01*
X205880Y238370D01*
X205658Y238578D01*
X205422Y238786D01*
X205200Y238967D01*
X205103Y239050D01*
X205020Y239133D01*
X204951Y239188D01*
X204895Y239230D01*
X204867Y239258D01*
X204854Y239272D01*
X204632Y239466D01*
X204410Y239646D01*
X204216Y239826D01*
X204035Y239979D01*
X203869Y240131D01*
X203730Y240270D01*
X203592Y240395D01*
X203481Y240506D01*
X203370Y240617D01*
X203286Y240700D01*
X203217Y240770D01*
X203148Y240839D01*
X203078Y240922D01*
X203051Y240950D01*
X202857Y241185D01*
X202690Y241394D01*
X202551Y241602D01*
X202440Y241768D01*
X202357Y241921D01*
X202302Y242031D01*
X202274Y242101D01*
X202260Y242129D01*
X202177Y242337D01*
X202122Y242545D01*
X202066Y242739D01*
X202038Y242905D01*
X202024Y243058D01*
X202011Y243169D01*
Y243238D01*
Y243266D01*
X202024Y243474D01*
X202052Y243668D01*
X202080Y243862D01*
X202135Y244029D01*
X202274Y244361D01*
X202413Y244625D01*
X202496Y244750D01*
X202565Y244847D01*
X202635Y244944D01*
X202704Y245013D01*
X202759Y245069D01*
X202787Y245124D01*
X202815Y245138D01*
X202829Y245152D01*
X202981Y245291D01*
X203148Y245415D01*
X203328Y245513D01*
X203508Y245596D01*
X203869Y245734D01*
X204230Y245832D01*
X204382Y245859D01*
X204535Y245887D01*
X204673Y245901D01*
X204784Y245915D01*
X204881Y245928D01*
X205020D01*
X205270Y245915D01*
D02*
G37*
G36*
X228195Y184618D02*
X228569Y184549D01*
X228888Y184438D01*
X229165Y184327D01*
X229290Y184257D01*
X229387Y184202D01*
X229484Y184146D01*
X229554Y184091D01*
X229609Y184049D01*
X229651Y184022D01*
X229679Y184008D01*
X229692Y183994D01*
X229956Y183730D01*
X230164Y183439D01*
X230330Y183134D01*
X230469Y182829D01*
X230552Y182565D01*
X230594Y182454D01*
X230622Y182357D01*
X230636Y182274D01*
X230649Y182219D01*
X230663Y182177D01*
Y182163D01*
X229484Y181955D01*
X229429Y182260D01*
X229346Y182524D01*
X229249Y182746D01*
X229152Y182926D01*
X229055Y183065D01*
X228971Y183162D01*
X228916Y183231D01*
X228902Y183245D01*
X228722Y183384D01*
X228528Y183495D01*
X228347Y183564D01*
X228167Y183619D01*
X228001Y183647D01*
X227876Y183675D01*
X227765D01*
X227515Y183661D01*
X227293Y183605D01*
X227099Y183536D01*
X226933Y183467D01*
X226808Y183384D01*
X226711Y183314D01*
X226641Y183259D01*
X226628Y183245D01*
X226475Y183078D01*
X226364Y182898D01*
X226295Y182718D01*
X226239Y182551D01*
X226211Y182399D01*
X226184Y182288D01*
Y182205D01*
Y182191D01*
Y182177D01*
Y182024D01*
X226211Y181886D01*
X226281Y181650D01*
X226378Y181442D01*
X226489Y181262D01*
X226600Y181137D01*
X226697Y181040D01*
X226766Y180984D01*
X226780Y180970D01*
X226794D01*
X227030Y180846D01*
X227252Y180749D01*
X227487Y180679D01*
X227695Y180638D01*
X227876Y180610D01*
X228028Y180582D01*
X228209D01*
X228264Y180596D01*
X228333D01*
X228472Y179556D01*
X228292Y179597D01*
X228125Y179625D01*
X227987Y179653D01*
X227862Y179667D01*
X227765Y179681D01*
X227640D01*
X227349Y179653D01*
X227085Y179597D01*
X226849Y179514D01*
X226655Y179417D01*
X226503Y179320D01*
X226392Y179237D01*
X226322Y179181D01*
X226295Y179154D01*
X226114Y178946D01*
X225976Y178724D01*
X225879Y178502D01*
X225823Y178280D01*
X225782Y178100D01*
X225768Y177947D01*
X225754Y177892D01*
Y177850D01*
Y177822D01*
Y177808D01*
X225782Y177503D01*
X225851Y177226D01*
X225934Y176990D01*
X226045Y176782D01*
X226156Y176616D01*
X226239Y176491D01*
X226309Y176408D01*
X226336Y176380D01*
X226558Y176186D01*
X226794Y176047D01*
X227030Y175950D01*
X227252Y175881D01*
X227446Y175839D01*
X227598Y175825D01*
X227654Y175812D01*
X227737D01*
X227987Y175825D01*
X228222Y175881D01*
X228430Y175950D01*
X228597Y176033D01*
X228736Y176103D01*
X228846Y176172D01*
X228902Y176227D01*
X228930Y176241D01*
X229096Y176436D01*
X229235Y176657D01*
X229360Y176893D01*
X229457Y177143D01*
X229526Y177351D01*
X229554Y177448D01*
X229568Y177531D01*
X229582Y177600D01*
X229595Y177656D01*
X229609Y177684D01*
Y177698D01*
X230788Y177545D01*
X230760Y177323D01*
X230719Y177115D01*
X230594Y176727D01*
X230441Y176394D01*
X230358Y176255D01*
X230275Y176117D01*
X230192Y175992D01*
X230109Y175895D01*
X230039Y175798D01*
X229970Y175728D01*
X229928Y175673D01*
X229887Y175631D01*
X229859Y175603D01*
X229845Y175590D01*
X229679Y175465D01*
X229512Y175340D01*
X229346Y175243D01*
X229165Y175160D01*
X228819Y175021D01*
X228486Y174938D01*
X228333Y174910D01*
X228195Y174882D01*
X228070Y174868D01*
X227959Y174855D01*
X227876Y174841D01*
X227751D01*
X227487Y174855D01*
X227252Y174882D01*
X227016Y174924D01*
X226794Y174979D01*
X226586Y175049D01*
X226406Y175118D01*
X226225Y175201D01*
X226073Y175285D01*
X225920Y175354D01*
X225795Y175437D01*
X225685Y175506D01*
X225601Y175576D01*
X225532Y175631D01*
X225476Y175673D01*
X225449Y175700D01*
X225435Y175714D01*
X225268Y175881D01*
X225130Y176061D01*
X225005Y176241D01*
X224894Y176422D01*
X224811Y176588D01*
X224728Y176768D01*
X224617Y177101D01*
X224589Y177254D01*
X224561Y177393D01*
X224533Y177517D01*
X224520Y177628D01*
X224506Y177711D01*
Y177781D01*
Y177822D01*
Y177836D01*
X224520Y178169D01*
X224575Y178474D01*
X224658Y178738D01*
X224741Y178960D01*
X224825Y179140D01*
X224908Y179279D01*
X224963Y179362D01*
X224977Y179389D01*
X225171Y179597D01*
X225379Y179778D01*
X225601Y179916D01*
X225823Y180028D01*
X226017Y180111D01*
X226170Y180166D01*
X226225Y180180D01*
X226267Y180194D01*
X226295Y180208D01*
X226309D01*
X226073Y180333D01*
X225879Y180457D01*
X225712Y180596D01*
X225574Y180721D01*
X225463Y180832D01*
X225379Y180929D01*
X225338Y180984D01*
X225324Y181012D01*
X225213Y181206D01*
X225130Y181400D01*
X225060Y181595D01*
X225019Y181775D01*
X224991Y181927D01*
X224977Y182038D01*
Y182122D01*
Y182149D01*
X224991Y182385D01*
X225033Y182621D01*
X225088Y182829D01*
X225158Y183009D01*
X225227Y183162D01*
X225282Y183286D01*
X225324Y183356D01*
X225338Y183384D01*
X225476Y183592D01*
X225643Y183772D01*
X225809Y183925D01*
X225976Y184063D01*
X226114Y184160D01*
X226239Y184243D01*
X226322Y184285D01*
X226336Y184299D01*
X226350D01*
X226600Y184410D01*
X226849Y184493D01*
X227099Y184562D01*
X227321Y184604D01*
X227501Y184632D01*
X227654Y184646D01*
X228001D01*
X228195Y184618D01*
D02*
G37*
G36*
X233193Y239674D02*
Y238592D01*
X229019D01*
Y236290D01*
X227840D01*
Y238592D01*
X226537D01*
Y239674D01*
X227840D01*
Y245887D01*
X228797D01*
X233193Y239674D01*
D02*
G37*
G36*
X321514Y80625D02*
X321750Y80611D01*
X321972Y80569D01*
X322180Y80528D01*
X322374Y80472D01*
X322554Y80417D01*
X322721Y80347D01*
X322873Y80278D01*
X323012Y80209D01*
X323123Y80139D01*
X323220Y80084D01*
X323303Y80028D01*
X323372Y79987D01*
X323414Y79945D01*
X323442Y79931D01*
X323456Y79917D01*
X323594Y79779D01*
X323719Y79626D01*
X323844Y79460D01*
X323941Y79293D01*
X324107Y78960D01*
X324218Y78628D01*
X324260Y78475D01*
X324302Y78323D01*
X324329Y78198D01*
X324357Y78087D01*
X324371Y77990D01*
Y77920D01*
X324385Y77879D01*
Y77865D01*
X323178Y77740D01*
X323150Y78059D01*
X323095Y78336D01*
X323012Y78586D01*
X322915Y78780D01*
X322831Y78947D01*
X322748Y79058D01*
X322693Y79127D01*
X322665Y79155D01*
X322457Y79321D01*
X322235Y79446D01*
X321999Y79543D01*
X321791Y79598D01*
X321597Y79640D01*
X321431Y79654D01*
X321375Y79668D01*
X321292D01*
X321001Y79654D01*
X320737Y79598D01*
X320516Y79515D01*
X320321Y79432D01*
X320169Y79335D01*
X320072Y79266D01*
X320002Y79210D01*
X319975Y79182D01*
X319808Y78988D01*
X319683Y78794D01*
X319586Y78600D01*
X319531Y78406D01*
X319489Y78253D01*
X319475Y78115D01*
X319461Y78031D01*
Y78017D01*
Y78004D01*
X319489Y77754D01*
X319545Y77490D01*
X319642Y77255D01*
X319739Y77033D01*
X319850Y76852D01*
X319947Y76700D01*
X319975Y76644D01*
X320002Y76603D01*
X320030Y76589D01*
Y76575D01*
X320141Y76423D01*
X320280Y76270D01*
X320432Y76104D01*
X320599Y75937D01*
X320945Y75604D01*
X321292Y75272D01*
X321472Y75119D01*
X321625Y74980D01*
X321777Y74855D01*
X321902Y74745D01*
X321999Y74661D01*
X322083Y74592D01*
X322138Y74550D01*
X322152Y74536D01*
X322499Y74245D01*
X322818Y73968D01*
X323081Y73718D01*
X323289Y73510D01*
X323470Y73330D01*
X323594Y73205D01*
X323664Y73122D01*
X323691Y73108D01*
Y73094D01*
X323885Y72858D01*
X324038Y72636D01*
X324177Y72415D01*
X324288Y72220D01*
X324371Y72054D01*
X324426Y71929D01*
X324454Y71846D01*
X324468Y71832D01*
Y71818D01*
X324524Y71666D01*
X324551Y71527D01*
X324579Y71388D01*
X324593Y71263D01*
X324607Y71153D01*
Y71069D01*
Y71014D01*
Y71000D01*
X318241D01*
Y72137D01*
X322970D01*
X322804Y72373D01*
X322721Y72470D01*
X322651Y72567D01*
X322582Y72650D01*
X322526Y72706D01*
X322485Y72747D01*
X322471Y72761D01*
X322402Y72831D01*
X322318Y72900D01*
X322124Y73080D01*
X321902Y73288D01*
X321667Y73496D01*
X321445Y73677D01*
X321348Y73760D01*
X321264Y73843D01*
X321195Y73899D01*
X321140Y73940D01*
X321112Y73968D01*
X321098Y73982D01*
X320876Y74176D01*
X320654Y74356D01*
X320460Y74536D01*
X320280Y74689D01*
X320113Y74842D01*
X319975Y74980D01*
X319836Y75105D01*
X319725Y75216D01*
X319614Y75327D01*
X319531Y75410D01*
X319461Y75479D01*
X319392Y75549D01*
X319323Y75632D01*
X319295Y75660D01*
X319101Y75896D01*
X318934Y76104D01*
X318796Y76312D01*
X318685Y76478D01*
X318602Y76631D01*
X318546Y76741D01*
X318518Y76811D01*
X318505Y76839D01*
X318421Y77047D01*
X318366Y77255D01*
X318310Y77449D01*
X318283Y77615D01*
X318269Y77768D01*
X318255Y77879D01*
Y77948D01*
Y77976D01*
X318269Y78184D01*
X318297Y78378D01*
X318324Y78572D01*
X318380Y78739D01*
X318518Y79071D01*
X318657Y79335D01*
X318740Y79460D01*
X318810Y79557D01*
X318879Y79654D01*
X318948Y79723D01*
X319004Y79779D01*
X319032Y79834D01*
X319059Y79848D01*
X319073Y79862D01*
X319226Y80001D01*
X319392Y80125D01*
X319572Y80223D01*
X319753Y80306D01*
X320113Y80444D01*
X320474Y80541D01*
X320626Y80569D01*
X320779Y80597D01*
X320918Y80611D01*
X321029Y80625D01*
X321126Y80639D01*
X321264D01*
X321514Y80625D01*
D02*
G37*
G36*
X328365Y80403D02*
X328518Y80181D01*
X328698Y79959D01*
X328864Y79765D01*
X329031Y79598D01*
X329156Y79460D01*
X329211Y79418D01*
X329253Y79377D01*
X329266Y79363D01*
X329280Y79349D01*
X329572Y79113D01*
X329863Y78891D01*
X330140Y78697D01*
X330418Y78544D01*
X330653Y78406D01*
X330750Y78350D01*
X330834Y78309D01*
X330903Y78267D01*
X330958Y78253D01*
X330986Y78225D01*
X331000D01*
Y77088D01*
X330792Y77171D01*
X330584Y77269D01*
X330376Y77366D01*
X330182Y77463D01*
X330015Y77546D01*
X329877Y77615D01*
X329793Y77671D01*
X329780Y77685D01*
X329766D01*
X329516Y77837D01*
X329294Y77990D01*
X329100Y78128D01*
X328947Y78253D01*
X328809Y78350D01*
X328726Y78433D01*
X328656Y78489D01*
X328642Y78503D01*
Y71000D01*
X327464D01*
Y80639D01*
X328226D01*
X328365Y80403D01*
D02*
G37*
G36*
X212365D02*
X212518Y80181D01*
X212698Y79959D01*
X212864Y79765D01*
X213031Y79598D01*
X213155Y79460D01*
X213211Y79418D01*
X213253Y79377D01*
X213266Y79363D01*
X213280Y79349D01*
X213571Y79113D01*
X213863Y78891D01*
X214140Y78697D01*
X214417Y78544D01*
X214653Y78406D01*
X214750Y78350D01*
X214834Y78309D01*
X214903Y78267D01*
X214958Y78253D01*
X214986Y78225D01*
X215000D01*
Y77088D01*
X214792Y77171D01*
X214584Y77269D01*
X214376Y77366D01*
X214182Y77463D01*
X214015Y77546D01*
X213877Y77615D01*
X213793Y77671D01*
X213780Y77685D01*
X213766D01*
X213516Y77837D01*
X213294Y77990D01*
X213100Y78128D01*
X212947Y78253D01*
X212809Y78350D01*
X212726Y78433D01*
X212656Y78489D01*
X212642Y78503D01*
Y71000D01*
X211464D01*
Y80639D01*
X212226D01*
X212365Y80403D01*
D02*
G37*
%LPC*%
G36*
X300939Y245124D02*
X300856D01*
X300703Y245110D01*
X300551Y245096D01*
X300412Y245055D01*
X300287Y244999D01*
X300051Y244874D01*
X299843Y244736D01*
X299691Y244583D01*
X299566Y244459D01*
X299524Y244403D01*
X299497Y244361D01*
X299469Y244347D01*
Y244334D01*
X299372Y244167D01*
X299289Y243973D01*
X299205Y243751D01*
X299150Y243515D01*
X299095Y243266D01*
X299053Y243002D01*
X298984Y242475D01*
X298956Y242212D01*
X298942Y241976D01*
X298928Y241754D01*
Y241574D01*
X298914Y241407D01*
Y241283D01*
Y241213D01*
Y241199D01*
Y241185D01*
Y240756D01*
X298942Y240367D01*
X298970Y240021D01*
X298997Y239688D01*
X299039Y239410D01*
X299095Y239147D01*
X299150Y238925D01*
X299192Y238717D01*
X299247Y238551D01*
X299303Y238412D01*
X299344Y238287D01*
X299400Y238190D01*
X299427Y238121D01*
X299455Y238079D01*
X299483Y238051D01*
Y238037D01*
X299594Y237899D01*
X299705Y237788D01*
X299816Y237677D01*
X299927Y237594D01*
X300162Y237455D01*
X300370Y237358D01*
X300565Y237302D01*
X300703Y237275D01*
X300759Y237261D01*
X300842D01*
X300994Y237275D01*
X301133Y237288D01*
X301397Y237386D01*
X301632Y237510D01*
X301840Y237649D01*
X301993Y237788D01*
X302118Y237913D01*
X302187Y238010D01*
X302215Y238024D01*
Y238037D01*
X302312Y238204D01*
X302395Y238398D01*
X302478Y238620D01*
X302534Y238856D01*
X302589Y239105D01*
X302631Y239369D01*
X302700Y239910D01*
X302728Y240159D01*
X302742Y240395D01*
X302756Y240617D01*
Y240797D01*
X302770Y240964D01*
Y241089D01*
Y241158D01*
Y241185D01*
X302756Y241616D01*
X302742Y242004D01*
X302714Y242364D01*
X302673Y242697D01*
X302631Y242988D01*
X302575Y243252D01*
X302520Y243488D01*
X302465Y243696D01*
X302409Y243876D01*
X302367Y244029D01*
X302312Y244153D01*
X302270Y244264D01*
X302229Y244334D01*
X302201Y244389D01*
X302173Y244417D01*
Y244431D01*
X302076Y244556D01*
X301979Y244667D01*
X301868Y244750D01*
X301757Y244833D01*
X301535Y244958D01*
X301327Y245041D01*
X301147Y245083D01*
X300994Y245110D01*
X300939Y245124D01*
D02*
G37*
G36*
X308850Y183675D02*
X308628D01*
X308489Y183647D01*
X308239Y183578D01*
X308017Y183481D01*
X307823Y183384D01*
X307671Y183273D01*
X307560Y183176D01*
X307490Y183106D01*
X307463Y183092D01*
Y183078D01*
X307282Y182843D01*
X307144Y182579D01*
X307047Y182302D01*
X306991Y182038D01*
X306950Y181817D01*
X306936Y181719D01*
Y181622D01*
X306922Y181553D01*
Y181497D01*
Y181470D01*
Y181456D01*
X306950Y181095D01*
X307005Y180776D01*
X307088Y180513D01*
X307185Y180291D01*
X307296Y180111D01*
X307379Y179986D01*
X307435Y179903D01*
X307463Y179875D01*
X307671Y179681D01*
X307893Y179542D01*
X308114Y179445D01*
X308336Y179376D01*
X308517Y179334D01*
X308669Y179320D01*
X308725Y179306D01*
X308808D01*
X309099Y179334D01*
X309363Y179389D01*
X309598Y179487D01*
X309806Y179597D01*
X309959Y179695D01*
X310084Y179792D01*
X310153Y179847D01*
X310181Y179875D01*
X310361Y180097D01*
X310500Y180346D01*
X310583Y180596D01*
X310652Y180832D01*
X310694Y181040D01*
X310708Y181123D01*
Y181206D01*
X310722Y181276D01*
Y181317D01*
Y181345D01*
Y181359D01*
X310694Y181719D01*
X310639Y182052D01*
X310541Y182344D01*
X310431Y182579D01*
X310333Y182773D01*
X310236Y182912D01*
X310209Y182954D01*
X310181Y182995D01*
X310153Y183009D01*
Y183023D01*
X310042Y183134D01*
X309931Y183245D01*
X309695Y183398D01*
X309460Y183522D01*
X309238Y183592D01*
X309058Y183647D01*
X308905Y183661D01*
X308850Y183675D01*
D02*
G37*
G36*
X280086Y245124D02*
X279975D01*
X279739Y245110D01*
X279517Y245055D01*
X279337Y244986D01*
X279170Y244902D01*
X279046Y244819D01*
X278948Y244750D01*
X278879Y244694D01*
X278865Y244680D01*
X278713Y244500D01*
X278602Y244320D01*
X278519Y244139D01*
X278463Y243973D01*
X278435Y243820D01*
X278408Y243696D01*
Y243612D01*
Y243599D01*
Y243585D01*
X278421Y243363D01*
X278477Y243155D01*
X278546Y242975D01*
X278630Y242822D01*
X278713Y242697D01*
X278782Y242614D01*
X278838Y242545D01*
X278852Y242531D01*
X279018Y242392D01*
X279212Y242281D01*
X279392Y242212D01*
X279573Y242156D01*
X279739Y242129D01*
X279864Y242115D01*
X279947Y242101D01*
X279975D01*
X280224Y242115D01*
X280446Y242170D01*
X280641Y242239D01*
X280807Y242323D01*
X280932Y242392D01*
X281029Y242461D01*
X281098Y242517D01*
X281112Y242531D01*
X281251Y242697D01*
X281362Y242891D01*
X281431Y243072D01*
X281486Y243252D01*
X281514Y243405D01*
X281528Y243529D01*
X281542Y243612D01*
Y243626D01*
Y243640D01*
X281528Y243862D01*
X281473Y244056D01*
X281403Y244237D01*
X281320Y244389D01*
X281251Y244514D01*
X281181Y244611D01*
X281126Y244667D01*
X281112Y244680D01*
X280932Y244833D01*
X280751Y244944D01*
X280557Y245013D01*
X280377Y245069D01*
X280211Y245096D01*
X280086Y245124D01*
D02*
G37*
G36*
X280100Y241144D02*
X280016D01*
X279711Y241116D01*
X279434Y241061D01*
X279184Y240964D01*
X278976Y240867D01*
X278810Y240756D01*
X278685Y240658D01*
X278616Y240603D01*
X278588Y240575D01*
X278394Y240353D01*
X278255Y240118D01*
X278158Y239882D01*
X278089Y239674D01*
X278047Y239466D01*
X278033Y239313D01*
X278019Y239258D01*
Y239216D01*
Y239188D01*
Y239175D01*
X278047Y238883D01*
X278103Y238606D01*
X278200Y238370D01*
X278297Y238176D01*
X278394Y238024D01*
X278491Y237899D01*
X278546Y237829D01*
X278574Y237802D01*
X278796Y237621D01*
X279018Y237483D01*
X279254Y237400D01*
X279475Y237330D01*
X279670Y237288D01*
X279836Y237275D01*
X279892Y237261D01*
X279975D01*
X280169Y237275D01*
X280363Y237302D01*
X280543Y237344D01*
X280696Y237386D01*
X280821Y237427D01*
X280918Y237469D01*
X280973Y237497D01*
X281001Y237510D01*
X281168Y237621D01*
X281306Y237732D01*
X281431Y237857D01*
X281528Y237982D01*
X281611Y238079D01*
X281667Y238162D01*
X281695Y238232D01*
X281708Y238245D01*
X281778Y238426D01*
X281833Y238592D01*
X281875Y238759D01*
X281903Y238911D01*
X281916Y239036D01*
X281930Y239133D01*
Y239188D01*
Y239216D01*
X281903Y239508D01*
X281847Y239771D01*
X281764Y240007D01*
X281653Y240215D01*
X281556Y240367D01*
X281473Y240492D01*
X281417Y240562D01*
X281389Y240589D01*
X281181Y240770D01*
X280946Y240908D01*
X280724Y241005D01*
X280502Y241075D01*
X280308Y241116D01*
X280155Y241130D01*
X280100Y241144D01*
D02*
G37*
G36*
X255125Y241643D02*
X255042D01*
X254751Y241616D01*
X254487Y241546D01*
X254265Y241463D01*
X254071Y241352D01*
X253919Y241241D01*
X253808Y241158D01*
X253738Y241089D01*
X253711Y241061D01*
X253531Y240825D01*
X253392Y240575D01*
X253295Y240312D01*
X253239Y240062D01*
X253198Y239840D01*
X253184Y239743D01*
Y239660D01*
X253170Y239591D01*
Y239535D01*
Y239508D01*
Y239494D01*
X253198Y239119D01*
X253253Y238800D01*
X253336Y238523D01*
X253433Y238287D01*
X253544Y238107D01*
X253628Y237968D01*
X253683Y237885D01*
X253711Y237871D01*
Y237857D01*
X253808Y237746D01*
X253919Y237663D01*
X254141Y237510D01*
X254363Y237413D01*
X254557Y237330D01*
X254737Y237288D01*
X254876Y237275D01*
X254931Y237261D01*
X255000D01*
X255195Y237275D01*
X255375Y237302D01*
X255541Y237358D01*
X255680Y237413D01*
X255805Y237455D01*
X255902Y237510D01*
X255958Y237538D01*
X255985Y237552D01*
X256152Y237677D01*
X256290Y237802D01*
X256415Y237954D01*
X256512Y238079D01*
X256595Y238204D01*
X256651Y238301D01*
X256693Y238370D01*
X256706Y238398D01*
X256790Y238606D01*
X256845Y238814D01*
X256901Y239008D01*
X256928Y239188D01*
X256942Y239341D01*
X256956Y239466D01*
Y239535D01*
Y239563D01*
X256928Y239896D01*
X256873Y240187D01*
X256776Y240450D01*
X256679Y240658D01*
X256581Y240839D01*
X256485Y240964D01*
X256429Y241033D01*
X256401Y241061D01*
X256179Y241255D01*
X255958Y241394D01*
X255722Y241504D01*
X255514Y241574D01*
X255319Y241616D01*
X255181Y241629D01*
X255125Y241643D01*
D02*
G37*
G36*
X229019Y243973D02*
Y239674D01*
X232042D01*
X229019Y243973D01*
D02*
G37*
%LPD*%
D11*
X320000Y64541D02*
X330000D01*
M02*
