G04*
G04 #@! TF.GenerationSoftware,Altium Limited,Altium Designer,23.9.2 (47)*
G04*
G04 Layer_Color=32896*
%FSLAX44Y44*%
%MOMM*%
G71*
G04*
G04 #@! TF.SameCoordinates,35F43EC8-9B02-491F-93BC-FA8834C0D824*
G04*
G04*
G04 #@! TF.FilePolarity,Positive*
G04*
G01*
G75*
%ADD11C,0.1000*%
G36*
X362111Y212073D02*
X362408Y212054D01*
X362926Y211943D01*
X363167Y211869D01*
X363389Y211795D01*
X363593Y211702D01*
X363778Y211610D01*
X363926Y211517D01*
X364074Y211425D01*
X364204Y211351D01*
X364296Y211276D01*
X364370Y211221D01*
X364426Y211165D01*
X364463Y211147D01*
X364482Y211128D01*
X364648Y210943D01*
X364815Y210758D01*
X364944Y210554D01*
X365056Y210351D01*
X365241Y209962D01*
X365352Y209592D01*
X365426Y209277D01*
X365444Y209129D01*
X365463Y209018D01*
X365481Y208906D01*
Y208832D01*
Y208795D01*
Y208777D01*
X365463Y208443D01*
X365407Y208129D01*
X365333Y207851D01*
X365241Y207610D01*
X365167Y207425D01*
X365093Y207277D01*
X365037Y207203D01*
X365019Y207166D01*
X364815Y206944D01*
X364593Y206740D01*
X364352Y206555D01*
X364111Y206407D01*
X363889Y206296D01*
X363722Y206222D01*
X363648Y206184D01*
X363593Y206166D01*
X363574Y206147D01*
X363556D01*
X363982Y206018D01*
X364333Y205851D01*
X364648Y205647D01*
X364907Y205462D01*
X365111Y205277D01*
X365259Y205129D01*
X365333Y205036D01*
X365370Y205018D01*
Y204999D01*
X365574Y204666D01*
X365741Y204314D01*
X365852Y203981D01*
X365926Y203648D01*
X365963Y203351D01*
X365981Y203222D01*
Y203111D01*
X366000Y203037D01*
Y202962D01*
Y202925D01*
Y202907D01*
X365981Y202611D01*
X365944Y202314D01*
X365889Y202037D01*
X365815Y201759D01*
X365630Y201296D01*
X365537Y201074D01*
X365426Y200889D01*
X365315Y200704D01*
X365222Y200555D01*
X365111Y200426D01*
X365037Y200315D01*
X364963Y200222D01*
X364907Y200166D01*
X364870Y200130D01*
X364852Y200111D01*
X364630Y199907D01*
X364389Y199741D01*
X364130Y199592D01*
X363871Y199463D01*
X363630Y199370D01*
X363371Y199278D01*
X362871Y199148D01*
X362648Y199093D01*
X362445Y199056D01*
X362259Y199037D01*
X362093Y199018D01*
X361963Y199000D01*
X361778D01*
X361426Y199018D01*
X361111Y199056D01*
X360797Y199111D01*
X360500Y199167D01*
X360241Y199259D01*
X359982Y199352D01*
X359741Y199444D01*
X359538Y199555D01*
X359352Y199667D01*
X359186Y199759D01*
X359056Y199852D01*
X358927Y199944D01*
X358834Y200000D01*
X358778Y200055D01*
X358741Y200093D01*
X358723Y200111D01*
X358519Y200333D01*
X358334Y200555D01*
X358186Y200778D01*
X358056Y201018D01*
X357927Y201241D01*
X357834Y201481D01*
X357705Y201907D01*
X357649Y202111D01*
X357612Y202296D01*
X357593Y202463D01*
X357575Y202592D01*
X357556Y202703D01*
Y202796D01*
Y202851D01*
Y202870D01*
X357575Y203296D01*
X357649Y203685D01*
X357760Y204037D01*
X357871Y204333D01*
X357982Y204573D01*
X358093Y204759D01*
X358167Y204870D01*
X358186Y204888D01*
Y204907D01*
X358445Y205203D01*
X358723Y205462D01*
X359019Y205666D01*
X359297Y205851D01*
X359556Y205981D01*
X359778Y206073D01*
X359852Y206110D01*
X359908Y206129D01*
X359945Y206147D01*
X359963D01*
X359630Y206296D01*
X359352Y206462D01*
X359112Y206629D01*
X358908Y206796D01*
X358760Y206944D01*
X358649Y207055D01*
X358575Y207129D01*
X358556Y207166D01*
X358390Y207425D01*
X358279Y207684D01*
X358186Y207943D01*
X358130Y208203D01*
X358093Y208406D01*
X358075Y208573D01*
Y208684D01*
Y208703D01*
Y208721D01*
X358093Y208980D01*
X358112Y209221D01*
X358241Y209684D01*
X358408Y210091D01*
X358593Y210443D01*
X358778Y210721D01*
X358871Y210832D01*
X358945Y210943D01*
X359019Y211017D01*
X359075Y211073D01*
X359093Y211091D01*
X359112Y211110D01*
X359315Y211276D01*
X359519Y211443D01*
X359741Y211573D01*
X359963Y211684D01*
X360408Y211850D01*
X360852Y211962D01*
X361037Y212017D01*
X361223Y212036D01*
X361389Y212054D01*
X361537Y212073D01*
X361648Y212091D01*
X361815D01*
X362111Y212073D01*
D02*
G37*
G36*
X339666Y210128D02*
X333389D01*
X333833Y209592D01*
X334259Y209018D01*
X334630Y208462D01*
X334981Y207925D01*
X335130Y207684D01*
X335259Y207462D01*
X335389Y207258D01*
X335481Y207092D01*
X335555Y206944D01*
X335611Y206851D01*
X335648Y206777D01*
X335667Y206758D01*
X336037Y206018D01*
X336370Y205277D01*
X336648Y204573D01*
X336759Y204259D01*
X336870Y203944D01*
X336981Y203666D01*
X337055Y203407D01*
X337129Y203185D01*
X337185Y203000D01*
X337240Y202833D01*
X337277Y202722D01*
X337296Y202648D01*
Y202629D01*
X337481Y201870D01*
X337555Y201500D01*
X337611Y201166D01*
X337666Y200852D01*
X337722Y200537D01*
X337759Y200278D01*
X337796Y200018D01*
X337814Y199796D01*
X337833Y199592D01*
X337851Y199407D01*
Y199259D01*
X337870Y199148D01*
Y199074D01*
Y199018D01*
Y199000D01*
X336259D01*
X336203Y199704D01*
X336111Y200352D01*
X336018Y200944D01*
X335963Y201222D01*
X335907Y201481D01*
X335870Y201703D01*
X335815Y201907D01*
X335778Y202092D01*
X335741Y202240D01*
X335704Y202351D01*
X335685Y202444D01*
X335667Y202500D01*
Y202518D01*
X335389Y203370D01*
X335093Y204166D01*
X334944Y204555D01*
X334796Y204925D01*
X334630Y205259D01*
X334481Y205592D01*
X334352Y205888D01*
X334222Y206147D01*
X334111Y206370D01*
X334019Y206573D01*
X333926Y206740D01*
X333870Y206851D01*
X333833Y206925D01*
X333815Y206944D01*
X333593Y207332D01*
X333370Y207721D01*
X333148Y208073D01*
X332926Y208406D01*
X332722Y208703D01*
X332519Y208999D01*
X332315Y209258D01*
X332148Y209480D01*
X331982Y209703D01*
X331834Y209888D01*
X331685Y210036D01*
X331574Y210166D01*
X331500Y210277D01*
X331426Y210351D01*
X331389Y210388D01*
X331371Y210406D01*
Y211647D01*
X339666D01*
Y210128D01*
D02*
G37*
G36*
X308917Y212073D02*
X309269Y212036D01*
X309602Y211962D01*
X309917Y211869D01*
X310195Y211739D01*
X310472Y211628D01*
X310713Y211480D01*
X310935Y211351D01*
X311120Y211221D01*
X311306Y211073D01*
X311454Y210962D01*
X311565Y210851D01*
X311657Y210739D01*
X311731Y210665D01*
X311768Y210628D01*
X311787Y210610D01*
X312028Y210277D01*
X312232Y209888D01*
X312417Y209480D01*
X312583Y209055D01*
X312713Y208610D01*
X312824Y208166D01*
X312917Y207703D01*
X312991Y207277D01*
X313046Y206851D01*
X313083Y206462D01*
X313120Y206110D01*
X313139Y205814D01*
Y205555D01*
X313157Y205370D01*
Y205296D01*
Y205240D01*
Y205222D01*
Y205203D01*
X313139Y204611D01*
X313102Y204055D01*
X313046Y203536D01*
X312954Y203055D01*
X312861Y202629D01*
X312768Y202240D01*
X312657Y201889D01*
X312528Y201574D01*
X312417Y201315D01*
X312306Y201074D01*
X312213Y200889D01*
X312102Y200722D01*
X312028Y200592D01*
X311972Y200518D01*
X311935Y200463D01*
X311917Y200444D01*
X311676Y200185D01*
X311417Y199963D01*
X311157Y199778D01*
X310898Y199611D01*
X310620Y199463D01*
X310361Y199352D01*
X310102Y199259D01*
X309843Y199185D01*
X309621Y199130D01*
X309398Y199074D01*
X309213Y199037D01*
X309047Y199018D01*
X308899D01*
X308806Y199000D01*
X308713D01*
X308287Y199018D01*
X307899Y199093D01*
X307547Y199167D01*
X307232Y199278D01*
X306991Y199370D01*
X306806Y199463D01*
X306732Y199481D01*
X306677Y199518D01*
X306658Y199537D01*
X306639D01*
X306325Y199759D01*
X306028Y200018D01*
X305788Y200278D01*
X305584Y200537D01*
X305417Y200778D01*
X305306Y200963D01*
X305269Y201037D01*
X305232Y201092D01*
X305214Y201111D01*
Y201129D01*
X305028Y201518D01*
X304899Y201926D01*
X304806Y202296D01*
X304751Y202648D01*
X304695Y202944D01*
Y203055D01*
X304677Y203166D01*
Y203259D01*
Y203314D01*
Y203351D01*
Y203370D01*
X304695Y203703D01*
X304732Y204018D01*
X304788Y204333D01*
X304843Y204611D01*
X304936Y204870D01*
X305028Y205129D01*
X305121Y205351D01*
X305232Y205555D01*
X305343Y205740D01*
X305436Y205907D01*
X305528Y206036D01*
X305621Y206166D01*
X305677Y206259D01*
X305732Y206314D01*
X305769Y206351D01*
X305788Y206370D01*
X305991Y206573D01*
X306214Y206758D01*
X306454Y206907D01*
X306677Y207036D01*
X306899Y207166D01*
X307121Y207258D01*
X307547Y207388D01*
X307732Y207444D01*
X307917Y207481D01*
X308065Y207499D01*
X308213Y207518D01*
X308325Y207536D01*
X308473D01*
X308806Y207518D01*
X309121Y207462D01*
X309417Y207407D01*
X309676Y207332D01*
X309898Y207240D01*
X310065Y207184D01*
X310176Y207129D01*
X310195Y207110D01*
X310213D01*
X310509Y206925D01*
X310769Y206721D01*
X311009Y206518D01*
X311194Y206296D01*
X311361Y206110D01*
X311491Y205962D01*
X311565Y205851D01*
X311583Y205833D01*
Y206166D01*
X311565Y206499D01*
X311546Y206796D01*
X311509Y207092D01*
X311491Y207351D01*
X311454Y207592D01*
X311417Y207814D01*
X311361Y208018D01*
X311324Y208203D01*
X311287Y208351D01*
X311250Y208480D01*
X311232Y208592D01*
X311194Y208666D01*
X311176Y208721D01*
X311157Y208758D01*
Y208777D01*
X310972Y209147D01*
X310787Y209480D01*
X310583Y209740D01*
X310398Y209962D01*
X310232Y210147D01*
X310102Y210277D01*
X310009Y210351D01*
X309972Y210369D01*
X309750Y210517D01*
X309528Y210610D01*
X309306Y210684D01*
X309084Y210739D01*
X308917Y210777D01*
X308769Y210795D01*
X308639D01*
X308306Y210758D01*
X307991Y210684D01*
X307732Y210573D01*
X307491Y210462D01*
X307306Y210332D01*
X307176Y210221D01*
X307102Y210147D01*
X307065Y210110D01*
X306936Y209943D01*
X306806Y209740D01*
X306695Y209517D01*
X306621Y209295D01*
X306547Y209091D01*
X306491Y208925D01*
X306473Y208814D01*
X306454Y208795D01*
Y208777D01*
X304880Y208906D01*
X304991Y209425D01*
X305158Y209888D01*
X305343Y210295D01*
X305547Y210628D01*
X305751Y210888D01*
X305825Y210999D01*
X305917Y211091D01*
X305973Y211147D01*
X306028Y211202D01*
X306047Y211221D01*
X306065Y211239D01*
X306251Y211388D01*
X306454Y211517D01*
X306862Y211739D01*
X307269Y211887D01*
X307658Y211980D01*
X308010Y212054D01*
X308158Y212073D01*
X308287D01*
X308398Y212091D01*
X308547D01*
X308917Y212073D01*
D02*
G37*
G36*
X286333Y205277D02*
X284852Y205073D01*
X284722Y205277D01*
X284556Y205444D01*
X284408Y205610D01*
X284259Y205740D01*
X284111Y205833D01*
X284000Y205925D01*
X283926Y205962D01*
X283908Y205981D01*
X283667Y206092D01*
X283426Y206184D01*
X283204Y206240D01*
X282982Y206296D01*
X282797Y206314D01*
X282649Y206333D01*
X282297D01*
X282074Y206296D01*
X281686Y206203D01*
X281352Y206073D01*
X281056Y205944D01*
X280834Y205796D01*
X280667Y205666D01*
X280575Y205573D01*
X280538Y205555D01*
Y205536D01*
X280278Y205222D01*
X280093Y204888D01*
X279963Y204536D01*
X279871Y204185D01*
X279815Y203888D01*
X279797Y203759D01*
Y203648D01*
X279778Y203555D01*
Y203481D01*
Y203444D01*
Y203426D01*
Y203166D01*
X279815Y202925D01*
X279908Y202463D01*
X280038Y202074D01*
X280167Y201759D01*
X280315Y201500D01*
X280445Y201296D01*
X280501Y201241D01*
X280538Y201185D01*
X280556Y201166D01*
X280575Y201148D01*
X280723Y201000D01*
X280871Y200870D01*
X281204Y200648D01*
X281519Y200500D01*
X281834Y200407D01*
X282093Y200333D01*
X282315Y200315D01*
X282389Y200296D01*
X282500D01*
X282852Y200315D01*
X283167Y200389D01*
X283445Y200481D01*
X283667Y200592D01*
X283871Y200704D01*
X284019Y200796D01*
X284093Y200870D01*
X284130Y200889D01*
X284352Y201148D01*
X284537Y201426D01*
X284685Y201740D01*
X284796Y202018D01*
X284870Y202296D01*
X284926Y202500D01*
X284944Y202592D01*
X284963Y202648D01*
Y202685D01*
Y202703D01*
X286611Y202574D01*
X286574Y202277D01*
X286518Y202000D01*
X286352Y201481D01*
X286148Y201037D01*
X286037Y200833D01*
X285926Y200667D01*
X285833Y200500D01*
X285722Y200352D01*
X285630Y200241D01*
X285537Y200148D01*
X285463Y200074D01*
X285426Y200000D01*
X285389Y199981D01*
X285370Y199963D01*
X285148Y199796D01*
X284926Y199648D01*
X284685Y199518D01*
X284445Y199407D01*
X283982Y199241D01*
X283519Y199130D01*
X283315Y199074D01*
X283111Y199056D01*
X282945Y199037D01*
X282797Y199018D01*
X282667Y199000D01*
X282500D01*
X282111Y199018D01*
X281741Y199074D01*
X281389Y199148D01*
X281075Y199241D01*
X280778Y199370D01*
X280501Y199500D01*
X280241Y199629D01*
X280019Y199778D01*
X279815Y199926D01*
X279630Y200055D01*
X279482Y200204D01*
X279352Y200315D01*
X279260Y200407D01*
X279186Y200481D01*
X279149Y200537D01*
X279130Y200555D01*
X278945Y200796D01*
X278797Y201055D01*
X278649Y201296D01*
X278538Y201555D01*
X278353Y202055D01*
X278242Y202537D01*
X278204Y202740D01*
X278167Y202944D01*
X278149Y203111D01*
X278130Y203259D01*
X278112Y203388D01*
Y203481D01*
Y203536D01*
Y203555D01*
X278130Y203888D01*
X278167Y204203D01*
X278223Y204518D01*
X278297Y204796D01*
X278390Y205055D01*
X278482Y205314D01*
X278593Y205536D01*
X278686Y205740D01*
X278797Y205925D01*
X278908Y206092D01*
X279001Y206222D01*
X279093Y206351D01*
X279167Y206444D01*
X279223Y206499D01*
X279260Y206536D01*
X279278Y206555D01*
X279501Y206758D01*
X279723Y206944D01*
X279963Y207092D01*
X280204Y207221D01*
X280445Y207351D01*
X280686Y207444D01*
X281130Y207573D01*
X281334Y207629D01*
X281519Y207666D01*
X281686Y207684D01*
X281834Y207703D01*
X281945Y207721D01*
X282352D01*
X282574Y207684D01*
X283019Y207592D01*
X283426Y207462D01*
X283797Y207314D01*
X284093Y207166D01*
X284222Y207092D01*
X284333Y207036D01*
X284426Y206981D01*
X284482Y206944D01*
X284519Y206925D01*
X284537Y206907D01*
X283852Y210369D01*
X278723D01*
Y211869D01*
X285093D01*
X286333Y205277D01*
D02*
G37*
G36*
X180482Y211554D02*
X180686Y211258D01*
X180926Y210962D01*
X181148Y210702D01*
X181371Y210480D01*
X181537Y210295D01*
X181611Y210240D01*
X181667Y210184D01*
X181685Y210166D01*
X181704Y210147D01*
X182093Y209832D01*
X182482Y209536D01*
X182852Y209277D01*
X183222Y209073D01*
X183537Y208888D01*
X183667Y208814D01*
X183778Y208758D01*
X183870Y208703D01*
X183944Y208684D01*
X183981Y208647D01*
X184000D01*
Y207129D01*
X183722Y207240D01*
X183444Y207369D01*
X183167Y207499D01*
X182908Y207629D01*
X182685Y207740D01*
X182500Y207832D01*
X182389Y207906D01*
X182370Y207925D01*
X182352D01*
X182019Y208129D01*
X181722Y208332D01*
X181463Y208517D01*
X181259Y208684D01*
X181074Y208814D01*
X180963Y208925D01*
X180871Y208999D01*
X180852Y209018D01*
Y199000D01*
X179278D01*
Y211869D01*
X180297D01*
X180482Y211554D01*
D02*
G37*
G36*
X202618Y211850D02*
X202933Y211832D01*
X203229Y211776D01*
X203507Y211721D01*
X203766Y211647D01*
X204007Y211573D01*
X204229Y211480D01*
X204433Y211388D01*
X204618Y211295D01*
X204766Y211202D01*
X204896Y211128D01*
X205007Y211054D01*
X205099Y210999D01*
X205155Y210943D01*
X205192Y210925D01*
X205210Y210906D01*
X205396Y210721D01*
X205562Y210517D01*
X205729Y210295D01*
X205858Y210073D01*
X206081Y209629D01*
X206229Y209184D01*
X206284Y208980D01*
X206340Y208777D01*
X206377Y208610D01*
X206414Y208462D01*
X206432Y208332D01*
Y208240D01*
X206451Y208184D01*
Y208166D01*
X204840Y207999D01*
X204803Y208425D01*
X204729Y208795D01*
X204618Y209129D01*
X204488Y209388D01*
X204377Y209610D01*
X204266Y209758D01*
X204192Y209851D01*
X204155Y209888D01*
X203877Y210110D01*
X203581Y210277D01*
X203266Y210406D01*
X202988Y210480D01*
X202729Y210536D01*
X202507Y210554D01*
X202433Y210573D01*
X202322D01*
X201933Y210554D01*
X201581Y210480D01*
X201285Y210369D01*
X201026Y210258D01*
X200822Y210128D01*
X200692Y210036D01*
X200600Y209962D01*
X200563Y209925D01*
X200340Y209666D01*
X200174Y209406D01*
X200044Y209147D01*
X199970Y208888D01*
X199915Y208684D01*
X199896Y208499D01*
X199878Y208388D01*
Y208369D01*
Y208351D01*
X199915Y208018D01*
X199989Y207666D01*
X200118Y207351D01*
X200248Y207055D01*
X200396Y206814D01*
X200526Y206610D01*
X200563Y206536D01*
X200600Y206481D01*
X200637Y206462D01*
Y206444D01*
X200785Y206240D01*
X200970Y206036D01*
X201174Y205814D01*
X201396Y205592D01*
X201859Y205147D01*
X202322Y204703D01*
X202563Y204499D01*
X202766Y204314D01*
X202970Y204148D01*
X203137Y204000D01*
X203266Y203888D01*
X203377Y203796D01*
X203451Y203740D01*
X203470Y203722D01*
X203933Y203333D01*
X204359Y202962D01*
X204710Y202629D01*
X204988Y202351D01*
X205229Y202111D01*
X205396Y201944D01*
X205488Y201833D01*
X205525Y201814D01*
Y201796D01*
X205784Y201481D01*
X205988Y201185D01*
X206173Y200889D01*
X206321Y200629D01*
X206432Y200407D01*
X206507Y200241D01*
X206544Y200130D01*
X206562Y200111D01*
Y200093D01*
X206636Y199889D01*
X206673Y199704D01*
X206710Y199518D01*
X206729Y199352D01*
X206747Y199204D01*
Y199093D01*
Y199018D01*
Y199000D01*
X198248D01*
Y200518D01*
X204562D01*
X204340Y200833D01*
X204229Y200963D01*
X204136Y201092D01*
X204044Y201203D01*
X203970Y201278D01*
X203914Y201333D01*
X203896Y201352D01*
X203803Y201444D01*
X203692Y201537D01*
X203433Y201777D01*
X203137Y202055D01*
X202822Y202333D01*
X202526Y202574D01*
X202396Y202685D01*
X202285Y202796D01*
X202192Y202870D01*
X202118Y202925D01*
X202081Y202962D01*
X202062Y202981D01*
X201766Y203240D01*
X201470Y203481D01*
X201211Y203722D01*
X200970Y203925D01*
X200748Y204129D01*
X200563Y204314D01*
X200378Y204481D01*
X200229Y204629D01*
X200081Y204777D01*
X199970Y204888D01*
X199878Y204981D01*
X199785Y205073D01*
X199692Y205184D01*
X199655Y205222D01*
X199396Y205536D01*
X199174Y205814D01*
X198989Y206092D01*
X198841Y206314D01*
X198729Y206518D01*
X198655Y206666D01*
X198618Y206758D01*
X198600Y206796D01*
X198489Y207073D01*
X198415Y207351D01*
X198341Y207610D01*
X198304Y207832D01*
X198285Y208036D01*
X198267Y208184D01*
Y208277D01*
Y208314D01*
X198285Y208592D01*
X198322Y208851D01*
X198359Y209110D01*
X198433Y209332D01*
X198618Y209777D01*
X198804Y210128D01*
X198915Y210295D01*
X199007Y210425D01*
X199100Y210554D01*
X199193Y210647D01*
X199266Y210721D01*
X199304Y210795D01*
X199341Y210814D01*
X199359Y210832D01*
X199563Y211017D01*
X199785Y211184D01*
X200026Y211313D01*
X200266Y211425D01*
X200748Y211610D01*
X201229Y211739D01*
X201433Y211776D01*
X201637Y211814D01*
X201822Y211832D01*
X201970Y211850D01*
X202100Y211869D01*
X202285D01*
X202618Y211850D01*
D02*
G37*
G36*
X229806Y212054D02*
X230306Y211962D01*
X230732Y211814D01*
X231102Y211665D01*
X231269Y211573D01*
X231398Y211499D01*
X231528Y211425D01*
X231621Y211351D01*
X231695Y211295D01*
X231750Y211258D01*
X231787Y211239D01*
X231806Y211221D01*
X232157Y210869D01*
X232435Y210480D01*
X232658Y210073D01*
X232843Y209666D01*
X232954Y209314D01*
X233009Y209166D01*
X233046Y209036D01*
X233065Y208925D01*
X233083Y208851D01*
X233102Y208795D01*
Y208777D01*
X231528Y208499D01*
X231454Y208906D01*
X231343Y209258D01*
X231213Y209554D01*
X231084Y209795D01*
X230954Y209980D01*
X230843Y210110D01*
X230769Y210203D01*
X230750Y210221D01*
X230509Y210406D01*
X230250Y210554D01*
X230010Y210647D01*
X229769Y210721D01*
X229547Y210758D01*
X229380Y210795D01*
X229232D01*
X228899Y210777D01*
X228602Y210702D01*
X228343Y210610D01*
X228121Y210517D01*
X227954Y210406D01*
X227825Y210314D01*
X227732Y210240D01*
X227714Y210221D01*
X227510Y209999D01*
X227362Y209758D01*
X227269Y209517D01*
X227195Y209295D01*
X227158Y209091D01*
X227121Y208943D01*
Y208832D01*
Y208814D01*
Y208795D01*
Y208592D01*
X227158Y208406D01*
X227251Y208092D01*
X227380Y207814D01*
X227528Y207573D01*
X227677Y207407D01*
X227806Y207277D01*
X227899Y207203D01*
X227917Y207184D01*
X227936D01*
X228251Y207018D01*
X228547Y206888D01*
X228862Y206796D01*
X229139Y206740D01*
X229380Y206703D01*
X229584Y206666D01*
X229824D01*
X229898Y206684D01*
X229991D01*
X230176Y205296D01*
X229935Y205351D01*
X229713Y205388D01*
X229528Y205425D01*
X229361Y205444D01*
X229232Y205462D01*
X229065D01*
X228676Y205425D01*
X228325Y205351D01*
X228010Y205240D01*
X227751Y205110D01*
X227547Y204981D01*
X227399Y204870D01*
X227306Y204796D01*
X227269Y204759D01*
X227028Y204481D01*
X226843Y204185D01*
X226714Y203888D01*
X226640Y203592D01*
X226584Y203351D01*
X226565Y203148D01*
X226547Y203074D01*
Y203018D01*
Y202981D01*
Y202962D01*
X226584Y202555D01*
X226677Y202185D01*
X226788Y201870D01*
X226936Y201592D01*
X227084Y201370D01*
X227195Y201203D01*
X227288Y201092D01*
X227325Y201055D01*
X227621Y200796D01*
X227936Y200611D01*
X228251Y200481D01*
X228547Y200389D01*
X228806Y200333D01*
X229010Y200315D01*
X229084Y200296D01*
X229195D01*
X229528Y200315D01*
X229843Y200389D01*
X230121Y200481D01*
X230343Y200592D01*
X230528Y200685D01*
X230676Y200778D01*
X230750Y200852D01*
X230787Y200870D01*
X231010Y201129D01*
X231195Y201426D01*
X231361Y201740D01*
X231491Y202074D01*
X231583Y202351D01*
X231621Y202481D01*
X231639Y202592D01*
X231658Y202685D01*
X231676Y202759D01*
X231695Y202796D01*
Y202814D01*
X233269Y202611D01*
X233232Y202314D01*
X233176Y202037D01*
X233009Y201518D01*
X232806Y201074D01*
X232694Y200889D01*
X232583Y200704D01*
X232472Y200537D01*
X232361Y200407D01*
X232269Y200278D01*
X232176Y200185D01*
X232120Y200111D01*
X232065Y200055D01*
X232028Y200018D01*
X232009Y200000D01*
X231787Y199833D01*
X231565Y199667D01*
X231343Y199537D01*
X231102Y199426D01*
X230639Y199241D01*
X230195Y199130D01*
X229991Y199093D01*
X229806Y199056D01*
X229639Y199037D01*
X229491Y199018D01*
X229380Y199000D01*
X229213D01*
X228862Y199018D01*
X228547Y199056D01*
X228232Y199111D01*
X227936Y199185D01*
X227658Y199278D01*
X227417Y199370D01*
X227177Y199481D01*
X226973Y199592D01*
X226769Y199685D01*
X226602Y199796D01*
X226454Y199889D01*
X226343Y199981D01*
X226251Y200055D01*
X226177Y200111D01*
X226140Y200148D01*
X226121Y200166D01*
X225899Y200389D01*
X225714Y200629D01*
X225547Y200870D01*
X225399Y201111D01*
X225288Y201333D01*
X225177Y201574D01*
X225029Y202018D01*
X224992Y202222D01*
X224955Y202407D01*
X224918Y202574D01*
X224899Y202722D01*
X224881Y202833D01*
Y202925D01*
Y202981D01*
Y203000D01*
X224899Y203444D01*
X224973Y203851D01*
X225084Y204203D01*
X225195Y204499D01*
X225306Y204740D01*
X225417Y204925D01*
X225492Y205036D01*
X225510Y205073D01*
X225769Y205351D01*
X226047Y205592D01*
X226343Y205777D01*
X226640Y205925D01*
X226899Y206036D01*
X227103Y206110D01*
X227177Y206129D01*
X227232Y206147D01*
X227269Y206166D01*
X227288D01*
X226973Y206333D01*
X226714Y206499D01*
X226491Y206684D01*
X226306Y206851D01*
X226158Y206999D01*
X226047Y207129D01*
X225991Y207203D01*
X225973Y207240D01*
X225825Y207499D01*
X225714Y207758D01*
X225621Y208018D01*
X225566Y208258D01*
X225529Y208462D01*
X225510Y208610D01*
Y208721D01*
Y208758D01*
X225529Y209073D01*
X225584Y209388D01*
X225658Y209666D01*
X225751Y209906D01*
X225843Y210110D01*
X225917Y210277D01*
X225973Y210369D01*
X225991Y210406D01*
X226177Y210684D01*
X226399Y210925D01*
X226621Y211128D01*
X226843Y211313D01*
X227028Y211443D01*
X227195Y211554D01*
X227306Y211610D01*
X227325Y211628D01*
X227343D01*
X227677Y211776D01*
X228010Y211887D01*
X228343Y211980D01*
X228639Y212036D01*
X228880Y212073D01*
X229084Y212091D01*
X229547D01*
X229806Y212054D01*
D02*
G37*
G36*
X259702Y203518D02*
Y202074D01*
X254129D01*
Y199000D01*
X252555D01*
Y202074D01*
X250814D01*
Y203518D01*
X252555D01*
Y211814D01*
X253833D01*
X259702Y203518D01*
D02*
G37*
G36*
X303088Y80791D02*
X303309Y80777D01*
X303698Y80694D01*
X303878Y80639D01*
X304045Y80583D01*
X304197Y80514D01*
X304336Y80444D01*
X304447Y80375D01*
X304558Y80306D01*
X304655Y80250D01*
X304724Y80195D01*
X304780Y80153D01*
X304821Y80112D01*
X304849Y80098D01*
X304863Y80084D01*
X304988Y79945D01*
X305112Y79806D01*
X305210Y79654D01*
X305293Y79501D01*
X305431Y79210D01*
X305515Y78933D01*
X305570Y78697D01*
X305584Y78586D01*
X305598Y78503D01*
X305612Y78420D01*
Y78364D01*
Y78336D01*
Y78323D01*
X305598Y78073D01*
X305556Y77837D01*
X305501Y77629D01*
X305431Y77449D01*
X305376Y77310D01*
X305320Y77199D01*
X305279Y77144D01*
X305265Y77116D01*
X305112Y76950D01*
X304946Y76797D01*
X304766Y76658D01*
X304585Y76547D01*
X304419Y76464D01*
X304294Y76409D01*
X304239Y76381D01*
X304197Y76367D01*
X304183Y76353D01*
X304169D01*
X304488Y76256D01*
X304752Y76131D01*
X304988Y75979D01*
X305182Y75840D01*
X305334Y75701D01*
X305445Y75591D01*
X305501Y75521D01*
X305529Y75507D01*
Y75493D01*
X305681Y75244D01*
X305806Y74980D01*
X305889Y74731D01*
X305944Y74481D01*
X305972Y74259D01*
X305986Y74162D01*
Y74079D01*
X306000Y74023D01*
Y73968D01*
Y73940D01*
Y73926D01*
X305986Y73704D01*
X305958Y73482D01*
X305917Y73274D01*
X305861Y73066D01*
X305723Y72720D01*
X305653Y72553D01*
X305570Y72415D01*
X305487Y72276D01*
X305417Y72165D01*
X305334Y72068D01*
X305279Y71985D01*
X305223Y71915D01*
X305182Y71874D01*
X305154Y71846D01*
X305140Y71832D01*
X304974Y71680D01*
X304793Y71555D01*
X304599Y71444D01*
X304405Y71347D01*
X304225Y71277D01*
X304031Y71208D01*
X303656Y71111D01*
X303490Y71069D01*
X303337Y71042D01*
X303199Y71028D01*
X303074Y71014D01*
X302977Y71000D01*
X302838D01*
X302575Y71014D01*
X302339Y71042D01*
X302103Y71083D01*
X301881Y71125D01*
X301687Y71194D01*
X301493Y71263D01*
X301313Y71333D01*
X301160Y71416D01*
X301021Y71499D01*
X300896Y71569D01*
X300799Y71638D01*
X300702Y71707D01*
X300633Y71749D01*
X300591Y71790D01*
X300564Y71818D01*
X300550Y71832D01*
X300397Y71999D01*
X300259Y72165D01*
X300147Y72331D01*
X300051Y72512D01*
X299953Y72678D01*
X299884Y72858D01*
X299787Y73177D01*
X299745Y73330D01*
X299718Y73469D01*
X299704Y73593D01*
X299690Y73691D01*
X299676Y73774D01*
Y73843D01*
Y73885D01*
Y73899D01*
X299690Y74218D01*
X299745Y74509D01*
X299829Y74772D01*
X299912Y74994D01*
X299995Y75174D01*
X300078Y75313D01*
X300134Y75396D01*
X300147Y75410D01*
Y75424D01*
X300342Y75646D01*
X300550Y75840D01*
X300772Y75993D01*
X300980Y76131D01*
X301174Y76228D01*
X301340Y76298D01*
X301396Y76325D01*
X301437Y76339D01*
X301465Y76353D01*
X301479D01*
X301229Y76464D01*
X301021Y76589D01*
X300841Y76714D01*
X300688Y76839D01*
X300578Y76950D01*
X300494Y77033D01*
X300439Y77088D01*
X300425Y77116D01*
X300300Y77310D01*
X300217Y77504D01*
X300147Y77698D01*
X300106Y77893D01*
X300078Y78045D01*
X300064Y78170D01*
Y78253D01*
Y78267D01*
Y78281D01*
X300078Y78475D01*
X300092Y78655D01*
X300189Y79002D01*
X300314Y79307D01*
X300453Y79571D01*
X300591Y79779D01*
X300661Y79862D01*
X300716Y79945D01*
X300772Y80001D01*
X300813Y80042D01*
X300827Y80056D01*
X300841Y80070D01*
X300993Y80195D01*
X301146Y80320D01*
X301313Y80417D01*
X301479Y80500D01*
X301812Y80625D01*
X302145Y80708D01*
X302283Y80750D01*
X302422Y80763D01*
X302547Y80777D01*
X302658Y80791D01*
X302741Y80805D01*
X302866D01*
X303088Y80791D01*
D02*
G37*
G36*
X235365Y80403D02*
X235518Y80181D01*
X235698Y79959D01*
X235864Y79765D01*
X236031Y79598D01*
X236155Y79460D01*
X236211Y79418D01*
X236253Y79377D01*
X236266Y79363D01*
X236280Y79349D01*
X236572Y79113D01*
X236863Y78891D01*
X237140Y78697D01*
X237418Y78544D01*
X237653Y78406D01*
X237750Y78350D01*
X237834Y78309D01*
X237903Y78267D01*
X237958Y78253D01*
X237986Y78225D01*
X238000D01*
Y77088D01*
X237792Y77171D01*
X237584Y77269D01*
X237376Y77366D01*
X237182Y77463D01*
X237015Y77546D01*
X236877Y77615D01*
X236793Y77671D01*
X236780Y77685D01*
X236766D01*
X236516Y77837D01*
X236294Y77990D01*
X236100Y78128D01*
X235947Y78253D01*
X235809Y78350D01*
X235726Y78433D01*
X235656Y78489D01*
X235642Y78503D01*
Y71000D01*
X234464D01*
Y80639D01*
X235226D01*
X235365Y80403D01*
D02*
G37*
%LPC*%
G36*
X361926Y210795D02*
X361778D01*
X361463Y210777D01*
X361167Y210702D01*
X360926Y210610D01*
X360704Y210499D01*
X360537Y210388D01*
X360408Y210295D01*
X360315Y210221D01*
X360297Y210203D01*
X360093Y209962D01*
X359945Y209721D01*
X359834Y209480D01*
X359760Y209258D01*
X359723Y209055D01*
X359686Y208888D01*
Y208777D01*
Y208758D01*
Y208740D01*
X359704Y208443D01*
X359778Y208166D01*
X359871Y207925D01*
X359982Y207721D01*
X360093Y207555D01*
X360186Y207444D01*
X360260Y207351D01*
X360278Y207332D01*
X360500Y207147D01*
X360760Y206999D01*
X361000Y206907D01*
X361241Y206833D01*
X361463Y206796D01*
X361630Y206777D01*
X361741Y206758D01*
X361778D01*
X362111Y206777D01*
X362408Y206851D01*
X362667Y206944D01*
X362889Y207055D01*
X363056Y207147D01*
X363185Y207240D01*
X363278Y207314D01*
X363297Y207332D01*
X363482Y207555D01*
X363630Y207814D01*
X363722Y208055D01*
X363796Y208295D01*
X363834Y208499D01*
X363852Y208666D01*
X363871Y208777D01*
Y208795D01*
Y208814D01*
X363852Y209110D01*
X363778Y209369D01*
X363685Y209610D01*
X363574Y209814D01*
X363482Y209980D01*
X363389Y210110D01*
X363315Y210184D01*
X363297Y210203D01*
X363056Y210406D01*
X362815Y210554D01*
X362556Y210647D01*
X362315Y210721D01*
X362093Y210758D01*
X361926Y210795D01*
D02*
G37*
G36*
X361945Y205481D02*
X361834D01*
X361426Y205444D01*
X361056Y205370D01*
X360723Y205240D01*
X360445Y205110D01*
X360223Y204962D01*
X360056Y204833D01*
X359963Y204759D01*
X359926Y204722D01*
X359667Y204425D01*
X359482Y204111D01*
X359352Y203796D01*
X359260Y203518D01*
X359204Y203240D01*
X359186Y203037D01*
X359167Y202962D01*
Y202907D01*
Y202870D01*
Y202851D01*
X359204Y202463D01*
X359278Y202092D01*
X359408Y201777D01*
X359538Y201518D01*
X359667Y201315D01*
X359797Y201148D01*
X359871Y201055D01*
X359908Y201018D01*
X360204Y200778D01*
X360500Y200592D01*
X360815Y200481D01*
X361111Y200389D01*
X361371Y200333D01*
X361593Y200315D01*
X361667Y200296D01*
X361778D01*
X362037Y200315D01*
X362297Y200352D01*
X362537Y200407D01*
X362741Y200463D01*
X362908Y200518D01*
X363037Y200574D01*
X363111Y200611D01*
X363148Y200629D01*
X363371Y200778D01*
X363556Y200926D01*
X363722Y201092D01*
X363852Y201259D01*
X363963Y201389D01*
X364037Y201500D01*
X364074Y201592D01*
X364093Y201611D01*
X364185Y201852D01*
X364259Y202074D01*
X364315Y202296D01*
X364352Y202500D01*
X364370Y202666D01*
X364389Y202796D01*
Y202870D01*
Y202907D01*
X364352Y203296D01*
X364278Y203648D01*
X364167Y203962D01*
X364019Y204240D01*
X363889Y204444D01*
X363778Y204611D01*
X363704Y204703D01*
X363667Y204740D01*
X363389Y204981D01*
X363074Y205166D01*
X362778Y205296D01*
X362482Y205388D01*
X362223Y205444D01*
X362019Y205462D01*
X361945Y205481D01*
D02*
G37*
G36*
X308899Y206147D02*
X308787D01*
X308398Y206110D01*
X308047Y206018D01*
X307750Y205907D01*
X307491Y205758D01*
X307288Y205610D01*
X307139Y205499D01*
X307047Y205407D01*
X307010Y205370D01*
X306769Y205055D01*
X306584Y204722D01*
X306454Y204370D01*
X306380Y204037D01*
X306325Y203740D01*
X306306Y203611D01*
Y203500D01*
X306288Y203407D01*
Y203333D01*
Y203296D01*
Y203277D01*
X306325Y202777D01*
X306399Y202351D01*
X306510Y201981D01*
X306639Y201666D01*
X306788Y201426D01*
X306899Y201241D01*
X306973Y201129D01*
X307010Y201111D01*
Y201092D01*
X307139Y200944D01*
X307288Y200833D01*
X307584Y200629D01*
X307880Y200500D01*
X308139Y200389D01*
X308380Y200333D01*
X308565Y200315D01*
X308639Y200296D01*
X308732D01*
X308991Y200315D01*
X309232Y200352D01*
X309454Y200426D01*
X309639Y200500D01*
X309806Y200555D01*
X309935Y200629D01*
X310009Y200667D01*
X310047Y200685D01*
X310269Y200852D01*
X310454Y201018D01*
X310620Y201222D01*
X310750Y201389D01*
X310861Y201555D01*
X310935Y201685D01*
X310991Y201777D01*
X311009Y201814D01*
X311120Y202092D01*
X311194Y202370D01*
X311269Y202629D01*
X311306Y202870D01*
X311324Y203074D01*
X311343Y203240D01*
Y203333D01*
Y203370D01*
X311306Y203814D01*
X311232Y204203D01*
X311102Y204555D01*
X310972Y204833D01*
X310843Y205073D01*
X310713Y205240D01*
X310639Y205333D01*
X310602Y205370D01*
X310306Y205629D01*
X310009Y205814D01*
X309695Y205962D01*
X309417Y206055D01*
X309158Y206110D01*
X308972Y206129D01*
X308899Y206147D01*
D02*
G37*
G36*
X254129Y209258D02*
Y203518D01*
X258165D01*
X254129Y209258D01*
D02*
G37*
G36*
X302949Y79834D02*
X302838D01*
X302602Y79820D01*
X302380Y79765D01*
X302200Y79696D01*
X302034Y79612D01*
X301909Y79529D01*
X301812Y79460D01*
X301742Y79404D01*
X301728Y79390D01*
X301576Y79210D01*
X301465Y79030D01*
X301382Y78850D01*
X301326Y78683D01*
X301299Y78531D01*
X301271Y78406D01*
Y78323D01*
Y78309D01*
Y78295D01*
X301285Y78073D01*
X301340Y77865D01*
X301410Y77685D01*
X301493Y77532D01*
X301576Y77407D01*
X301645Y77324D01*
X301701Y77255D01*
X301715Y77241D01*
X301881Y77102D01*
X302075Y76991D01*
X302255Y76922D01*
X302436Y76866D01*
X302602Y76839D01*
X302727Y76825D01*
X302810Y76811D01*
X302838D01*
X303088Y76825D01*
X303309Y76880D01*
X303504Y76950D01*
X303670Y77033D01*
X303795Y77102D01*
X303892Y77171D01*
X303961Y77227D01*
X303975Y77241D01*
X304114Y77407D01*
X304225Y77601D01*
X304294Y77782D01*
X304350Y77962D01*
X304377Y78115D01*
X304391Y78239D01*
X304405Y78323D01*
Y78336D01*
Y78350D01*
X304391Y78572D01*
X304336Y78766D01*
X304266Y78947D01*
X304183Y79099D01*
X304114Y79224D01*
X304045Y79321D01*
X303989Y79377D01*
X303975Y79390D01*
X303795Y79543D01*
X303615Y79654D01*
X303421Y79723D01*
X303240Y79779D01*
X303074Y79806D01*
X302949Y79834D01*
D02*
G37*
G36*
X302963Y75854D02*
X302880D01*
X302575Y75826D01*
X302297Y75771D01*
X302048Y75674D01*
X301840Y75577D01*
X301673Y75466D01*
X301548Y75369D01*
X301479Y75313D01*
X301451Y75285D01*
X301257Y75064D01*
X301118Y74828D01*
X301021Y74592D01*
X300952Y74384D01*
X300910Y74176D01*
X300896Y74023D01*
X300883Y73968D01*
Y73926D01*
Y73899D01*
Y73885D01*
X300910Y73593D01*
X300966Y73316D01*
X301063Y73080D01*
X301160Y72886D01*
X301257Y72734D01*
X301354Y72609D01*
X301410Y72539D01*
X301437Y72512D01*
X301659Y72331D01*
X301881Y72193D01*
X302117Y72109D01*
X302339Y72040D01*
X302533Y71999D01*
X302699Y71985D01*
X302755Y71971D01*
X302838D01*
X303032Y71985D01*
X303226Y72012D01*
X303407Y72054D01*
X303559Y72096D01*
X303684Y72137D01*
X303781Y72179D01*
X303836Y72207D01*
X303864Y72220D01*
X304031Y72331D01*
X304169Y72442D01*
X304294Y72567D01*
X304391Y72692D01*
X304475Y72789D01*
X304530Y72872D01*
X304558Y72942D01*
X304572Y72955D01*
X304641Y73136D01*
X304696Y73302D01*
X304738Y73469D01*
X304766Y73621D01*
X304780Y73746D01*
X304793Y73843D01*
Y73899D01*
Y73926D01*
X304766Y74218D01*
X304710Y74481D01*
X304627Y74717D01*
X304516Y74925D01*
X304419Y75077D01*
X304336Y75202D01*
X304280Y75272D01*
X304253Y75299D01*
X304045Y75479D01*
X303809Y75618D01*
X303587Y75715D01*
X303365Y75785D01*
X303171Y75826D01*
X303018Y75840D01*
X302963Y75854D01*
D02*
G37*
%LPD*%
D11*
X300000Y64541D02*
X310000D01*
M02*
