G04*
G04 #@! TF.GenerationSoftware,Altium Limited,Altium Designer,23.8.1 (32)*
G04*
G04 Layer_Color=65535*
%FSLAX44Y44*%
%MOMM*%
G71*
G04*
G04 #@! TF.SameCoordinates,74A03D58-BA26-460C-9841-76C9F7D9AC81*
G04*
G04*
G04 #@! TF.FilePolarity,Positive*
G04*
G01*
G75*
%ADD10C,0.2000*%
%ADD11C,0.1000*%
G36*
X359461Y211059D02*
X359611Y211047D01*
X359774Y211022D01*
X359949Y210984D01*
X360149Y210947D01*
X360361Y210897D01*
X360586Y210834D01*
X360811Y210759D01*
X361036Y210659D01*
X361261Y210547D01*
X361473Y210422D01*
X361686Y210272D01*
X361885Y210097D01*
X361898Y210084D01*
X361936Y210047D01*
X361986Y209997D01*
X362048Y209922D01*
X362123Y209834D01*
X362211Y209709D01*
X362298Y209585D01*
X362398Y209435D01*
X362498Y209272D01*
X362585Y209085D01*
X362673Y208897D01*
X362748Y208685D01*
X362810Y208460D01*
X362873Y208222D01*
X362898Y207985D01*
X362910Y207722D01*
Y207710D01*
Y207685D01*
Y207635D01*
X362898Y207573D01*
Y207498D01*
X362885Y207398D01*
X362848Y207185D01*
X362798Y206948D01*
X362710Y206685D01*
X362598Y206423D01*
X362435Y206160D01*
Y206148D01*
X362410Y206135D01*
X362348Y206048D01*
X362235Y205935D01*
X362085Y205786D01*
X361885Y205623D01*
X361648Y205461D01*
X361361Y205298D01*
X361023Y205148D01*
X361036D01*
X361073Y205136D01*
X361136Y205111D01*
X361211Y205073D01*
X361311Y205036D01*
X361423Y204986D01*
X361686Y204848D01*
X361973Y204673D01*
X362273Y204461D01*
X362560Y204211D01*
X362685Y204061D01*
X362810Y203911D01*
X362823Y203899D01*
X362835Y203874D01*
X362873Y203824D01*
X362910Y203761D01*
X362960Y203674D01*
X363010Y203586D01*
X363060Y203461D01*
X363123Y203336D01*
X363185Y203199D01*
X363235Y203036D01*
X363335Y202699D01*
X363410Y202299D01*
X363423Y202099D01*
X363435Y201874D01*
Y201861D01*
Y201799D01*
X363423Y201712D01*
Y201599D01*
X363398Y201462D01*
X363373Y201299D01*
X363335Y201112D01*
X363285Y200912D01*
X363223Y200699D01*
X363148Y200474D01*
X363060Y200249D01*
X362948Y200012D01*
X362810Y199775D01*
X362660Y199550D01*
X362473Y199325D01*
X362273Y199112D01*
X362260Y199100D01*
X362223Y199062D01*
X362148Y199012D01*
X362061Y198937D01*
X361948Y198850D01*
X361811Y198762D01*
X361636Y198662D01*
X361461Y198562D01*
X361248Y198450D01*
X361011Y198350D01*
X360761Y198262D01*
X360486Y198175D01*
X360199Y198100D01*
X359886Y198050D01*
X359561Y198013D01*
X359211Y198000D01*
X359124D01*
X359024Y198013D01*
X358899D01*
X358736Y198037D01*
X358549Y198062D01*
X358336Y198088D01*
X358111Y198137D01*
X357874Y198200D01*
X357624Y198275D01*
X357374Y198362D01*
X357124Y198475D01*
X356862Y198600D01*
X356612Y198750D01*
X356374Y198912D01*
X356149Y199112D01*
X356137Y199125D01*
X356100Y199162D01*
X356049Y199225D01*
X355975Y199312D01*
X355887Y199425D01*
X355787Y199562D01*
X355687Y199712D01*
X355575Y199887D01*
X355462Y200075D01*
X355362Y200287D01*
X355262Y200524D01*
X355175Y200774D01*
X355112Y201037D01*
X355050Y201312D01*
X355012Y201599D01*
X355000Y201912D01*
Y201924D01*
Y201961D01*
Y202036D01*
X355012Y202124D01*
X355025Y202224D01*
X355037Y202349D01*
X355050Y202486D01*
X355075Y202636D01*
X355150Y202974D01*
X355262Y203324D01*
X355337Y203499D01*
X355425Y203674D01*
X355512Y203836D01*
X355625Y203999D01*
X355637Y204011D01*
X355650Y204036D01*
X355687Y204074D01*
X355737Y204136D01*
X355812Y204211D01*
X355887Y204286D01*
X355987Y204373D01*
X356087Y204461D01*
X356212Y204561D01*
X356349Y204648D01*
X356499Y204748D01*
X356662Y204848D01*
X356837Y204936D01*
X357024Y205011D01*
X357224Y205086D01*
X357437Y205148D01*
X357424D01*
X357399Y205161D01*
X357337Y205186D01*
X357274Y205211D01*
X357199Y205248D01*
X357099Y205298D01*
X356887Y205411D01*
X356649Y205561D01*
X356399Y205735D01*
X356175Y205935D01*
X355975Y206173D01*
Y206185D01*
X355950Y206198D01*
X355937Y206235D01*
X355900Y206285D01*
X355862Y206360D01*
X355825Y206435D01*
X355750Y206623D01*
X355662Y206848D01*
X355587Y207123D01*
X355537Y207423D01*
X355512Y207760D01*
Y207773D01*
Y207822D01*
X355525Y207897D01*
Y207997D01*
X355537Y208110D01*
X355562Y208247D01*
X355600Y208410D01*
X355637Y208585D01*
X355687Y208760D01*
X355762Y208947D01*
X355837Y209147D01*
X355937Y209347D01*
X356049Y209535D01*
X356187Y209734D01*
X356337Y209922D01*
X356512Y210109D01*
X356524Y210122D01*
X356562Y210147D01*
X356612Y210197D01*
X356699Y210259D01*
X356799Y210334D01*
X356912Y210409D01*
X357062Y210497D01*
X357224Y210597D01*
X357399Y210684D01*
X357599Y210772D01*
X357824Y210847D01*
X358061Y210922D01*
X358324Y210984D01*
X358586Y211034D01*
X358886Y211059D01*
X359186Y211072D01*
X359349D01*
X359461Y211059D01*
D02*
G37*
G36*
X338094Y209422D02*
X338082Y209410D01*
X338044Y209360D01*
X337969Y209285D01*
X337882Y209185D01*
X337769Y209047D01*
X337644Y208897D01*
X337494Y208710D01*
X337332Y208497D01*
X337157Y208260D01*
X336957Y207997D01*
X336757Y207710D01*
X336545Y207398D01*
X336332Y207073D01*
X336107Y206723D01*
X335882Y206348D01*
X335657Y205948D01*
X335645Y205923D01*
X335607Y205848D01*
X335545Y205735D01*
X335457Y205573D01*
X335357Y205386D01*
X335245Y205148D01*
X335120Y204886D01*
X334982Y204586D01*
X334833Y204261D01*
X334683Y203923D01*
X334520Y203549D01*
X334370Y203174D01*
X334220Y202774D01*
X334070Y202361D01*
X333933Y201936D01*
X333808Y201512D01*
Y201499D01*
X333783Y201437D01*
X333758Y201349D01*
X333733Y201237D01*
X333695Y201087D01*
X333645Y200899D01*
X333608Y200699D01*
X333558Y200474D01*
X333508Y200224D01*
X333458Y199949D01*
X333408Y199662D01*
X333358Y199350D01*
X333308Y199037D01*
X333270Y198700D01*
X333208Y198000D01*
X331596D01*
Y198013D01*
Y198075D01*
X331608Y198150D01*
Y198262D01*
X331621Y198412D01*
X331633Y198587D01*
X331658Y198787D01*
X331683Y199012D01*
X331708Y199275D01*
X331746Y199550D01*
X331796Y199849D01*
X331858Y200162D01*
X331921Y200512D01*
X331996Y200862D01*
X332083Y201249D01*
X332183Y201637D01*
Y201649D01*
X332196Y201662D01*
X332208Y201737D01*
X332246Y201849D01*
X332283Y201999D01*
X332346Y202199D01*
X332421Y202424D01*
X332496Y202674D01*
X332596Y202961D01*
X332708Y203261D01*
X332833Y203586D01*
X332958Y203936D01*
X333108Y204286D01*
X333433Y205023D01*
X333808Y205773D01*
X333820Y205798D01*
X333858Y205861D01*
X333920Y205961D01*
X333995Y206110D01*
X334095Y206273D01*
X334208Y206473D01*
X334345Y206698D01*
X334495Y206935D01*
X334658Y207198D01*
X334833Y207473D01*
X335207Y208035D01*
X335632Y208597D01*
X335845Y208872D01*
X336070Y209135D01*
X329809D01*
Y210647D01*
X338094D01*
Y209422D01*
D02*
G37*
G36*
X309279Y211059D02*
X309417Y211047D01*
X309567Y211022D01*
X309729Y210997D01*
X309916Y210972D01*
X310304Y210859D01*
X310516Y210797D01*
X310716Y210709D01*
X310929Y210622D01*
X311129Y210497D01*
X311329Y210372D01*
X311516Y210222D01*
X311529Y210209D01*
X311554Y210184D01*
X311604Y210134D01*
X311666Y210072D01*
X311741Y209984D01*
X311828Y209872D01*
X311929Y209747D01*
X312029Y209610D01*
X312129Y209460D01*
X312228Y209272D01*
X312316Y209085D01*
X312416Y208872D01*
X312503Y208647D01*
X312566Y208410D01*
X312628Y208160D01*
X312678Y207885D01*
X311116Y207760D01*
Y207773D01*
X311104Y207798D01*
X311091Y207847D01*
X311079Y207910D01*
X311054Y207985D01*
X311029Y208072D01*
X310966Y208272D01*
X310879Y208497D01*
X310779Y208722D01*
X310654Y208935D01*
X310516Y209110D01*
X310504Y209122D01*
X310491Y209135D01*
X310454Y209172D01*
X310404Y209210D01*
X310341Y209272D01*
X310266Y209322D01*
X310079Y209447D01*
X309854Y209572D01*
X309579Y209685D01*
X309279Y209760D01*
X309117Y209772D01*
X308942Y209785D01*
X308817D01*
X308679Y209760D01*
X308492Y209734D01*
X308292Y209685D01*
X308067Y209610D01*
X307842Y209497D01*
X307617Y209360D01*
X307605D01*
X307580Y209335D01*
X307542Y209310D01*
X307492Y209260D01*
X307367Y209135D01*
X307192Y208960D01*
X307005Y208735D01*
X306805Y208460D01*
X306617Y208147D01*
X306442Y207773D01*
Y207760D01*
X306430Y207722D01*
X306405Y207660D01*
X306380Y207585D01*
X306342Y207473D01*
X306305Y207348D01*
X306268Y207185D01*
X306230Y207010D01*
X306192Y206810D01*
X306155Y206598D01*
X306117Y206348D01*
X306080Y206085D01*
X306055Y205798D01*
X306030Y205486D01*
X306017Y205161D01*
X306005Y204811D01*
X306017Y204823D01*
X306030Y204848D01*
X306068Y204898D01*
X306105Y204948D01*
X306155Y205023D01*
X306230Y205111D01*
X306392Y205298D01*
X306592Y205511D01*
X306830Y205723D01*
X307092Y205923D01*
X307392Y206098D01*
X307405D01*
X307430Y206110D01*
X307480Y206135D01*
X307530Y206160D01*
X307617Y206198D01*
X307705Y206235D01*
X307805Y206273D01*
X307917Y206310D01*
X308179Y206385D01*
X308467Y206460D01*
X308779Y206510D01*
X309117Y206523D01*
X309192D01*
X309267Y206510D01*
X309379D01*
X309517Y206485D01*
X309679Y206460D01*
X309854Y206423D01*
X310042Y206373D01*
X310241Y206310D01*
X310466Y206235D01*
X310679Y206148D01*
X310904Y206035D01*
X311141Y205898D01*
X311366Y205748D01*
X311579Y205561D01*
X311791Y205361D01*
X311803Y205348D01*
X311841Y205311D01*
X311891Y205236D01*
X311966Y205148D01*
X312054Y205036D01*
X312141Y204898D01*
X312241Y204736D01*
X312353Y204548D01*
X312453Y204348D01*
X312553Y204123D01*
X312641Y203874D01*
X312728Y203611D01*
X312803Y203324D01*
X312853Y203024D01*
X312891Y202711D01*
X312903Y202374D01*
Y202361D01*
Y202324D01*
Y202261D01*
X312891Y202174D01*
Y202062D01*
X312878Y201936D01*
X312866Y201799D01*
X312841Y201637D01*
X312778Y201287D01*
X312678Y200912D01*
X312553Y200524D01*
X312378Y200124D01*
Y200112D01*
X312353Y200075D01*
X312328Y200025D01*
X312278Y199962D01*
X312228Y199874D01*
X312166Y199775D01*
X312003Y199550D01*
X311791Y199287D01*
X311554Y199025D01*
X311266Y198775D01*
X310941Y198550D01*
X310929D01*
X310904Y198525D01*
X310854Y198500D01*
X310779Y198462D01*
X310691Y198425D01*
X310591Y198375D01*
X310479Y198325D01*
X310341Y198275D01*
X310204Y198225D01*
X310042Y198175D01*
X309692Y198088D01*
X309304Y198025D01*
X309092Y198013D01*
X308879Y198000D01*
X308792D01*
X308692Y198013D01*
X308554Y198025D01*
X308392Y198050D01*
X308192Y198075D01*
X307980Y198125D01*
X307742Y198175D01*
X307492Y198250D01*
X307242Y198350D01*
X306967Y198462D01*
X306705Y198612D01*
X306430Y198775D01*
X306168Y198962D01*
X305917Y199187D01*
X305680Y199437D01*
X305668Y199450D01*
X305630Y199512D01*
X305568Y199587D01*
X305493Y199712D01*
X305393Y199874D01*
X305293Y200075D01*
X305180Y200299D01*
X305068Y200574D01*
X304943Y200887D01*
X304830Y201237D01*
X304730Y201624D01*
X304643Y202062D01*
X304555Y202524D01*
X304493Y203049D01*
X304455Y203599D01*
X304443Y204198D01*
Y204211D01*
Y204236D01*
Y204286D01*
Y204361D01*
Y204448D01*
X304455Y204548D01*
Y204673D01*
X304468Y204811D01*
Y204948D01*
X304480Y205111D01*
X304518Y205461D01*
X304555Y205848D01*
X304618Y206260D01*
X304680Y206698D01*
X304780Y207148D01*
X304880Y207598D01*
X305018Y208047D01*
X305168Y208472D01*
X305355Y208885D01*
X305568Y209260D01*
X305805Y209597D01*
X305818Y209610D01*
X305855Y209660D01*
X305930Y209734D01*
X306030Y209822D01*
X306143Y209935D01*
X306292Y210059D01*
X306467Y210197D01*
X306655Y210334D01*
X306880Y210472D01*
X307117Y210609D01*
X307380Y210734D01*
X307667Y210847D01*
X307980Y210934D01*
X308304Y211009D01*
X308654Y211059D01*
X309029Y211072D01*
X309179D01*
X309279Y211059D01*
D02*
G37*
G36*
X286938Y209360D02*
X281801D01*
X281114Y205898D01*
X281126Y205910D01*
X281164Y205935D01*
X281227Y205973D01*
X281314Y206023D01*
X281414Y206085D01*
X281551Y206160D01*
X281689Y206223D01*
X281851Y206310D01*
X282026Y206385D01*
X282214Y206448D01*
X282626Y206585D01*
X282839Y206635D01*
X283064Y206673D01*
X283301Y206698D01*
X283538Y206710D01*
X283613D01*
X283701Y206698D01*
X283826D01*
X283963Y206673D01*
X284138Y206648D01*
X284326Y206610D01*
X284526Y206560D01*
X284738Y206498D01*
X284975Y206423D01*
X285213Y206335D01*
X285450Y206223D01*
X285688Y206085D01*
X285925Y205935D01*
X286150Y205748D01*
X286375Y205548D01*
X286388Y205536D01*
X286425Y205498D01*
X286488Y205423D01*
X286563Y205336D01*
X286650Y205223D01*
X286738Y205086D01*
X286850Y204923D01*
X286963Y204736D01*
X287062Y204536D01*
X287175Y204311D01*
X287262Y204061D01*
X287362Y203799D01*
X287425Y203511D01*
X287487Y203211D01*
X287525Y202886D01*
X287537Y202549D01*
Y202524D01*
Y202474D01*
X287525Y202386D01*
Y202261D01*
X287512Y202111D01*
X287487Y201936D01*
X287450Y201737D01*
X287412Y201524D01*
X287350Y201299D01*
X287287Y201049D01*
X287200Y200799D01*
X287100Y200549D01*
X286987Y200299D01*
X286850Y200037D01*
X286688Y199787D01*
X286513Y199550D01*
X286500Y199537D01*
X286450Y199487D01*
X286388Y199412D01*
X286288Y199312D01*
X286163Y199187D01*
X286013Y199062D01*
X285838Y198925D01*
X285638Y198775D01*
X285400Y198625D01*
X285151Y198487D01*
X284876Y198362D01*
X284576Y198237D01*
X284251Y198137D01*
X283913Y198062D01*
X283538Y198013D01*
X283151Y198000D01*
X283076D01*
X282988Y198013D01*
X282864D01*
X282714Y198025D01*
X282539Y198050D01*
X282351Y198088D01*
X282139Y198125D01*
X281914Y198175D01*
X281689Y198237D01*
X281451Y198312D01*
X281201Y198412D01*
X280964Y198525D01*
X280727Y198650D01*
X280502Y198800D01*
X280289Y198975D01*
X280277Y198987D01*
X280239Y199025D01*
X280189Y199075D01*
X280114Y199150D01*
X280027Y199250D01*
X279939Y199375D01*
X279827Y199512D01*
X279727Y199662D01*
X279614Y199837D01*
X279502Y200037D01*
X279402Y200249D01*
X279302Y200487D01*
X279214Y200737D01*
X279139Y200999D01*
X279077Y201274D01*
X279039Y201574D01*
X280689Y201712D01*
Y201699D01*
X280702Y201662D01*
X280714Y201599D01*
X280727Y201512D01*
X280752Y201412D01*
X280777Y201299D01*
X280864Y201024D01*
X280977Y200737D01*
X281114Y200437D01*
X281301Y200137D01*
X281414Y200012D01*
X281526Y199887D01*
X281539Y199874D01*
X281564Y199862D01*
X281601Y199837D01*
X281651Y199799D01*
X281714Y199750D01*
X281789Y199700D01*
X281989Y199587D01*
X282226Y199475D01*
X282501Y199387D01*
X282814Y199312D01*
X282976Y199300D01*
X283151Y199287D01*
X283263D01*
X283338Y199300D01*
X283438Y199312D01*
X283551Y199337D01*
X283676Y199362D01*
X283813Y199400D01*
X284126Y199500D01*
X284276Y199562D01*
X284438Y199650D01*
X284601Y199750D01*
X284763Y199862D01*
X284925Y199987D01*
X285075Y200137D01*
X285088Y200149D01*
X285113Y200175D01*
X285151Y200224D01*
X285200Y200299D01*
X285263Y200374D01*
X285325Y200487D01*
X285400Y200612D01*
X285475Y200749D01*
X285538Y200899D01*
X285613Y201074D01*
X285675Y201262D01*
X285738Y201462D01*
X285788Y201674D01*
X285825Y201912D01*
X285850Y202149D01*
X285863Y202411D01*
Y202424D01*
Y202474D01*
Y202536D01*
X285850Y202636D01*
X285838Y202749D01*
X285825Y202874D01*
X285800Y203024D01*
X285763Y203186D01*
X285675Y203524D01*
X285613Y203699D01*
X285538Y203874D01*
X285450Y204049D01*
X285350Y204223D01*
X285238Y204386D01*
X285100Y204536D01*
X285088Y204548D01*
X285063Y204573D01*
X285026Y204611D01*
X284963Y204661D01*
X284888Y204723D01*
X284800Y204786D01*
X284688Y204861D01*
X284576Y204936D01*
X284438Y204998D01*
X284288Y205073D01*
X284126Y205136D01*
X283951Y205198D01*
X283751Y205248D01*
X283551Y205286D01*
X283338Y205311D01*
X283113Y205323D01*
X282988D01*
X282913Y205311D01*
X282839D01*
X282651Y205286D01*
X282439Y205236D01*
X282214Y205173D01*
X281976Y205086D01*
X281739Y204973D01*
X281726D01*
X281714Y204961D01*
X281639Y204911D01*
X281526Y204836D01*
X281401Y204736D01*
X281239Y204598D01*
X281089Y204448D01*
X280926Y204273D01*
X280789Y204086D01*
X279314Y204273D01*
X280552Y210859D01*
X286938D01*
Y209360D01*
D02*
G37*
G36*
X277622Y159499D02*
X279184Y159187D01*
X282934Y158249D01*
X284809Y156999D01*
X286684Y155749D01*
X286997Y155437D01*
X287622Y155124D01*
X288247Y154187D01*
X289184Y153249D01*
X291059Y149812D01*
X291997Y147937D01*
X292309Y145750D01*
Y143562D01*
Y143250D01*
X291997Y142937D01*
X291684Y142625D01*
X290747Y142312D01*
X286059D01*
X285747Y142625D01*
X285122Y142937D01*
X284809Y143562D01*
Y144500D01*
Y144812D01*
Y145125D01*
X284497Y146687D01*
X283559Y148875D01*
X281997Y150750D01*
X281684Y151062D01*
X280434Y151999D01*
X278559Y152624D01*
X276059Y152937D01*
X275122D01*
X273247Y152624D01*
X271060Y151999D01*
X268872Y150750D01*
X268560Y150437D01*
X267622Y149187D01*
X266685Y147312D01*
X266060Y145125D01*
Y144500D01*
X265747Y143250D01*
Y141062D01*
Y138250D01*
X265435Y134812D01*
Y130750D01*
X266060Y122625D01*
Y122000D01*
X266685Y120437D01*
X267310Y118562D01*
X268872Y116687D01*
X269497Y116375D01*
X270747Y115750D01*
X272935Y114812D01*
X275435Y114500D01*
X276059D01*
X277622Y114812D01*
X279809Y115437D01*
X281684Y116687D01*
X281997Y117000D01*
X283247Y118250D01*
X284184Y120125D01*
X284809Y122625D01*
Y124187D01*
Y124500D01*
X285122Y125125D01*
X285434Y125437D01*
X286372Y125750D01*
X291059D01*
X291684Y125437D01*
X291997Y125125D01*
X292309Y124187D01*
Y122312D01*
Y122000D01*
X291997Y121375D01*
Y120125D01*
X291372Y118562D01*
X289809Y114812D01*
X288559Y113250D01*
X286997Y111375D01*
X286684Y111062D01*
X286372Y110750D01*
X285122Y110125D01*
X283872Y109187D01*
X282309Y108250D01*
X280434Y107625D01*
X278247Y107312D01*
X275747Y107000D01*
X274497D01*
X273247Y107312D01*
X271685Y107625D01*
X267935Y108875D01*
X265747Y109812D01*
X263872Y111375D01*
X263560Y111687D01*
X263247Y112312D01*
X262310Y113250D01*
X261372Y114500D01*
X259810Y117937D01*
X258872Y119812D01*
X258560Y122312D01*
Y122937D01*
Y124187D01*
Y126375D01*
Y129187D01*
Y132625D01*
Y136375D01*
Y144500D01*
Y144812D01*
X258872Y145750D01*
Y146687D01*
X259497Y148250D01*
X261060Y151999D01*
X262310Y153874D01*
X263872Y155437D01*
X264185Y155749D01*
X264810Y156062D01*
X265747Y156687D01*
X267310Y157624D01*
X270747Y159187D01*
X272935Y159499D01*
X275435Y159812D01*
X276684D01*
X277622Y159499D01*
D02*
G37*
G36*
X92624Y158562D02*
X92937Y157937D01*
Y108875D01*
Y108562D01*
Y108250D01*
X92312Y107937D01*
X91687Y107625D01*
X84499D01*
X84187Y107937D01*
X83874Y108562D01*
X69187Y145125D01*
X68875Y145437D01*
X68562D01*
X68250Y145125D01*
Y108562D01*
Y108250D01*
X67937Y107937D01*
X67625Y107312D01*
X66687Y107000D01*
X62937D01*
X62625Y107312D01*
X62000Y107625D01*
X61687Y108562D01*
Y157312D01*
Y157624D01*
X62000Y158249D01*
X62312Y158562D01*
X63250Y158874D01*
X70125D01*
X70437Y158562D01*
X70750Y157937D01*
X85124Y121062D01*
X85749Y120750D01*
X86062D01*
X86687Y121062D01*
Y157937D01*
Y158249D01*
X86999Y158562D01*
X87312Y158874D01*
X88249Y159187D01*
X92312D01*
X92624Y158562D01*
D02*
G37*
G36*
X329809Y159499D02*
X331371Y159187D01*
X335121Y158249D01*
X336684Y156999D01*
X338559Y155749D01*
X338871Y155437D01*
X339184Y155124D01*
X340121Y154187D01*
X341059Y153249D01*
X342934Y149812D01*
X344184Y145750D01*
Y145437D01*
Y144812D01*
Y143875D01*
X343871Y142625D01*
X343246Y139812D01*
X341684Y136687D01*
X341371Y136062D01*
X340121Y134500D01*
X337934Y132625D01*
X335121Y131062D01*
X334809Y130750D01*
X334184Y130125D01*
X333871Y129500D01*
Y128875D01*
X334184Y128562D01*
X342934Y110125D01*
Y109812D01*
Y109500D01*
Y108562D01*
X341996Y107937D01*
X336996D01*
X336371Y108250D01*
X335434Y108562D01*
X335121Y109500D01*
X326371Y127937D01*
Y128250D01*
X325746Y128562D01*
X325121Y128875D01*
X321059Y128562D01*
X320746Y128250D01*
X320434Y127937D01*
X320121D01*
Y109500D01*
Y109187D01*
X319809Y108875D01*
X319496Y108250D01*
X318559Y107937D01*
X313872D01*
X313559Y108250D01*
X313247Y108562D01*
X312934Y109500D01*
Y158249D01*
Y158562D01*
X313247Y159187D01*
X313559Y159499D01*
X314184Y159812D01*
X328559D01*
X329809Y159499D01*
D02*
G37*
G36*
X226060D02*
X227623Y159187D01*
X231060Y158249D01*
X232935Y156999D01*
X234810Y155749D01*
X235123Y155437D01*
X235435Y155124D01*
X236373Y154187D01*
X237310Y153249D01*
X239185Y149812D01*
X239810Y147937D01*
X240123Y145750D01*
Y145437D01*
Y144812D01*
Y143875D01*
Y142625D01*
X239498Y139812D01*
X237935Y136687D01*
X237623Y136062D01*
X236373Y134500D01*
X234185Y132625D01*
X231373Y131062D01*
X231060Y130750D01*
X230435Y130125D01*
X229810Y129500D01*
Y128875D01*
X230123Y128562D01*
X239185Y110125D01*
Y109812D01*
X239498Y109500D01*
X239185Y108562D01*
X238560Y107937D01*
X233248D01*
X232935Y108250D01*
X232310Y108562D01*
X231685Y109500D01*
X223560Y127937D01*
X223248Y128250D01*
X221998Y128875D01*
X216998Y128562D01*
X216685Y128250D01*
X216373Y127937D01*
X216060D01*
Y109500D01*
Y109187D01*
X215748Y108875D01*
X215435Y108250D01*
X214498Y107937D01*
X210435D01*
X210123Y108250D01*
X209498Y108562D01*
X209185Y109500D01*
Y158249D01*
Y158562D01*
X209498Y159187D01*
X209810Y159499D01*
X210748Y159812D01*
X224810D01*
X226060Y159499D01*
D02*
G37*
G36*
X530744Y158562D02*
X531056Y157937D01*
Y153874D01*
Y153562D01*
X530744Y152937D01*
X530432Y152312D01*
X529494Y151999D01*
X512307D01*
X511994Y151687D01*
Y151374D01*
Y138250D01*
X512307D01*
X512619Y137937D01*
X529494D01*
X529807Y137625D01*
X530119Y137312D01*
X530432Y136375D01*
Y132312D01*
Y132000D01*
Y131687D01*
X529807Y131375D01*
X529182Y131062D01*
X512619D01*
X512307Y130750D01*
X511994Y130437D01*
X511369Y115437D01*
Y115125D01*
X511682Y114812D01*
X511994Y114500D01*
X512307Y114812D01*
X530432D01*
X531056Y114500D01*
X531681Y114187D01*
X531994Y113250D01*
Y108875D01*
Y108562D01*
X531681Y108250D01*
X531369Y107937D01*
X530119Y107625D01*
X505744D01*
X505119Y107937D01*
X504494Y108250D01*
X504182Y108875D01*
Y157937D01*
Y158249D01*
X504494Y158562D01*
X505119Y158874D01*
X506057Y159187D01*
X530432D01*
X530744Y158562D01*
D02*
G37*
G36*
X486370D02*
X486682Y157937D01*
Y153874D01*
Y153562D01*
X486370Y152937D01*
X486057Y152312D01*
X485120Y151999D01*
X474495D01*
X474182Y151687D01*
X473870Y151374D01*
Y150750D01*
Y149812D01*
Y147937D01*
Y145437D01*
Y141687D01*
Y139187D01*
Y136687D01*
Y133875D01*
Y130437D01*
Y108875D01*
Y108562D01*
X473557Y108250D01*
X473245Y107937D01*
X472307Y107625D01*
X468245D01*
X467932Y107937D01*
X467307Y108250D01*
X466995Y108875D01*
Y151374D01*
Y151687D01*
X466682Y151999D01*
X456370D01*
X456057Y152312D01*
X455745Y152937D01*
X455432Y153874D01*
Y157937D01*
Y158249D01*
X455745Y158562D01*
X456057Y158874D01*
X456682Y159187D01*
X486057D01*
X486370Y158562D01*
D02*
G37*
G36*
X428870Y158874D02*
X429495Y158249D01*
X443245Y108875D01*
X442933Y108250D01*
X442620Y107937D01*
X441683Y107625D01*
X437308D01*
X436370Y107937D01*
X435745Y108562D01*
X432308Y119812D01*
Y120125D01*
X431995Y120437D01*
X431683Y120750D01*
X418558D01*
X417933Y120437D01*
X417308Y119812D01*
X414495Y108562D01*
X414183Y108250D01*
X413870Y107937D01*
X412933Y107625D01*
X408245D01*
X407933Y107937D01*
X407308Y108250D01*
X406996Y108875D01*
X421058Y158249D01*
Y158562D01*
X421370Y158874D01*
X421683Y159187D01*
X428558D01*
X428870Y158874D01*
D02*
G37*
G36*
X389496Y158562D02*
X389808Y157937D01*
Y153874D01*
Y153562D01*
Y152937D01*
X389183Y152312D01*
X388558Y151999D01*
X370746D01*
X369808Y151374D01*
Y138250D01*
X370121Y137937D01*
X387308D01*
X387933Y137625D01*
X388246Y137312D01*
X388558Y136375D01*
Y132312D01*
Y132000D01*
X388246Y131687D01*
X387933Y131375D01*
X386996Y131062D01*
X370433D01*
X370121Y130750D01*
X369808Y130437D01*
Y115437D01*
X370746D01*
Y115125D01*
Y114812D01*
X371058Y114500D01*
X371371Y114812D01*
X389183D01*
X389808Y114500D01*
X390121Y114187D01*
X390433Y113250D01*
Y108875D01*
Y108562D01*
X390121Y108250D01*
X389808Y107937D01*
X388871Y107625D01*
X364184D01*
X363871Y107937D01*
X363246Y108250D01*
X362934Y108875D01*
Y157937D01*
Y158249D01*
X363246Y158562D01*
X363559Y158874D01*
X364496Y159187D01*
X389183D01*
X389496Y158562D01*
D02*
G37*
G36*
X187936D02*
X188248Y157937D01*
Y153874D01*
Y153562D01*
X187936Y152937D01*
X187623Y152312D01*
X186686Y151999D01*
X169186D01*
X168248Y151374D01*
Y138250D01*
X168561Y137937D01*
X185748D01*
X186061Y137625D01*
X186373Y137312D01*
X186686Y136375D01*
Y132312D01*
Y132000D01*
Y131687D01*
X186061Y131375D01*
X185436Y131062D01*
X168873D01*
X167623Y130437D01*
Y115437D01*
X168873D01*
Y115125D01*
Y114812D01*
Y114500D01*
X169186Y114812D01*
X186998D01*
X187623Y114500D01*
X187936Y114187D01*
X188248Y113250D01*
Y108875D01*
Y108562D01*
X187936Y108250D01*
X187623Y107937D01*
X186686Y107625D01*
X162623D01*
X162311Y107937D01*
X161686Y108250D01*
X161373Y108875D01*
Y157937D01*
Y158249D01*
X161686Y158562D01*
X161998Y158874D01*
X162936Y159187D01*
X187623D01*
X187936Y158562D01*
D02*
G37*
G36*
X142624D02*
X142936Y157937D01*
Y153874D01*
Y153562D01*
X142624Y152937D01*
X142311Y152312D01*
X141374Y151999D01*
X130436D01*
Y151687D01*
X130749D01*
Y151374D01*
Y150750D01*
Y149812D01*
Y147937D01*
Y145437D01*
Y141687D01*
Y139187D01*
Y136687D01*
Y133875D01*
Y130437D01*
Y108875D01*
Y108562D01*
X130436Y108250D01*
X130124Y107937D01*
X129186Y107625D01*
X124499D01*
X124186Y107937D01*
X123561Y108250D01*
X123249Y108875D01*
Y151374D01*
Y151687D01*
Y151999D01*
X113249D01*
X112624Y152312D01*
X111999Y152937D01*
X111686Y153874D01*
Y157937D01*
Y158249D01*
X111999Y158562D01*
X112624Y158874D01*
X113561Y159187D01*
X142311D01*
X142624Y158562D01*
D02*
G37*
G36*
X38562D02*
X38875Y157937D01*
Y108875D01*
Y108562D01*
X38562Y108250D01*
X38250Y107937D01*
X37312Y107625D01*
X33250D01*
X32625Y107937D01*
X32000Y108250D01*
Y108875D01*
Y157937D01*
Y158249D01*
Y158562D01*
X32625Y158874D01*
X33563Y159187D01*
X38250D01*
X38562Y158562D01*
D02*
G37*
G36*
X288346Y56794D02*
X288458Y56785D01*
X288580Y56766D01*
X288711Y56738D01*
X288862Y56710D01*
X289021Y56673D01*
X289189Y56626D01*
X289358Y56569D01*
X289527Y56494D01*
X289696Y56410D01*
X289855Y56316D01*
X290014Y56204D01*
X290164Y56073D01*
X290174Y56063D01*
X290202Y56035D01*
X290239Y55998D01*
X290286Y55942D01*
X290342Y55876D01*
X290408Y55782D01*
X290474Y55688D01*
X290549Y55576D01*
X290623Y55454D01*
X290689Y55314D01*
X290755Y55173D01*
X290811Y55014D01*
X290858Y54845D01*
X290905Y54667D01*
X290924Y54489D01*
X290933Y54292D01*
Y54282D01*
Y54264D01*
Y54226D01*
X290924Y54179D01*
Y54123D01*
X290914Y54048D01*
X290886Y53889D01*
X290849Y53711D01*
X290783Y53514D01*
X290699Y53317D01*
X290577Y53120D01*
Y53111D01*
X290558Y53102D01*
X290511Y53036D01*
X290427Y52952D01*
X290314Y52839D01*
X290164Y52717D01*
X289986Y52595D01*
X289771Y52474D01*
X289518Y52361D01*
X289527D01*
X289555Y52352D01*
X289602Y52333D01*
X289658Y52305D01*
X289733Y52277D01*
X289818Y52239D01*
X290014Y52136D01*
X290230Y52005D01*
X290455Y51846D01*
X290670Y51658D01*
X290764Y51546D01*
X290858Y51433D01*
X290867Y51424D01*
X290877Y51405D01*
X290905Y51368D01*
X290933Y51321D01*
X290970Y51255D01*
X291008Y51190D01*
X291045Y51096D01*
X291092Y51002D01*
X291139Y50899D01*
X291176Y50777D01*
X291252Y50524D01*
X291308Y50224D01*
X291317Y50074D01*
X291327Y49906D01*
Y49896D01*
Y49849D01*
X291317Y49784D01*
Y49699D01*
X291298Y49596D01*
X291280Y49474D01*
X291252Y49334D01*
X291214Y49184D01*
X291167Y49025D01*
X291111Y48856D01*
X291045Y48687D01*
X290961Y48509D01*
X290858Y48331D01*
X290745Y48162D01*
X290605Y47993D01*
X290455Y47834D01*
X290445Y47825D01*
X290417Y47797D01*
X290361Y47759D01*
X290296Y47703D01*
X290211Y47637D01*
X290108Y47572D01*
X289977Y47497D01*
X289846Y47422D01*
X289686Y47337D01*
X289508Y47262D01*
X289321Y47197D01*
X289115Y47131D01*
X288899Y47075D01*
X288665Y47038D01*
X288421Y47009D01*
X288159Y47000D01*
X288093D01*
X288018Y47009D01*
X287924D01*
X287802Y47028D01*
X287662Y47047D01*
X287502Y47066D01*
X287334Y47103D01*
X287156Y47150D01*
X286968Y47206D01*
X286781Y47272D01*
X286593Y47356D01*
X286397Y47450D01*
X286209Y47562D01*
X286031Y47684D01*
X285862Y47834D01*
X285853Y47843D01*
X285825Y47872D01*
X285787Y47919D01*
X285731Y47984D01*
X285665Y48068D01*
X285590Y48172D01*
X285515Y48284D01*
X285431Y48415D01*
X285347Y48556D01*
X285272Y48715D01*
X285197Y48893D01*
X285131Y49081D01*
X285084Y49278D01*
X285037Y49484D01*
X285009Y49699D01*
X285000Y49934D01*
Y49943D01*
Y49971D01*
Y50027D01*
X285009Y50093D01*
X285019Y50168D01*
X285028Y50262D01*
X285037Y50365D01*
X285056Y50477D01*
X285112Y50730D01*
X285197Y50993D01*
X285253Y51124D01*
X285319Y51255D01*
X285384Y51377D01*
X285469Y51499D01*
X285478Y51508D01*
X285487Y51527D01*
X285515Y51555D01*
X285553Y51602D01*
X285609Y51658D01*
X285665Y51714D01*
X285740Y51780D01*
X285815Y51846D01*
X285909Y51921D01*
X286012Y51986D01*
X286125Y52061D01*
X286246Y52136D01*
X286378Y52202D01*
X286518Y52258D01*
X286668Y52314D01*
X286828Y52361D01*
X286818D01*
X286800Y52371D01*
X286753Y52389D01*
X286706Y52408D01*
X286650Y52436D01*
X286575Y52474D01*
X286415Y52558D01*
X286237Y52670D01*
X286050Y52802D01*
X285881Y52952D01*
X285731Y53130D01*
Y53139D01*
X285712Y53148D01*
X285703Y53177D01*
X285675Y53214D01*
X285647Y53270D01*
X285619Y53327D01*
X285562Y53467D01*
X285497Y53636D01*
X285441Y53842D01*
X285403Y54067D01*
X285384Y54320D01*
Y54329D01*
Y54367D01*
X285394Y54423D01*
Y54498D01*
X285403Y54582D01*
X285422Y54686D01*
X285450Y54807D01*
X285478Y54939D01*
X285515Y55070D01*
X285572Y55210D01*
X285628Y55360D01*
X285703Y55510D01*
X285787Y55651D01*
X285890Y55801D01*
X286003Y55942D01*
X286134Y56082D01*
X286143Y56091D01*
X286172Y56110D01*
X286209Y56148D01*
X286275Y56195D01*
X286350Y56251D01*
X286434Y56307D01*
X286546Y56373D01*
X286668Y56448D01*
X286800Y56513D01*
X286950Y56579D01*
X287118Y56635D01*
X287296Y56691D01*
X287493Y56738D01*
X287690Y56776D01*
X287915Y56794D01*
X288140Y56804D01*
X288262D01*
X288346Y56794D01*
D02*
G37*
G36*
X260409Y202499D02*
X262134D01*
Y201062D01*
X260409D01*
Y198000D01*
X258835D01*
Y201062D01*
X253274D01*
Y202499D01*
X259122Y210809D01*
X260409D01*
Y202499D01*
D02*
G37*
G36*
X232169Y211059D02*
X232269D01*
X232369Y211047D01*
X232494Y211034D01*
X232632Y211022D01*
X232931Y210959D01*
X233244Y210884D01*
X233581Y210772D01*
X233919Y210622D01*
X233931D01*
X233956Y210597D01*
X234006Y210572D01*
X234069Y210534D01*
X234144Y210497D01*
X234219Y210434D01*
X234419Y210297D01*
X234644Y210122D01*
X234869Y209909D01*
X235081Y209660D01*
X235268Y209385D01*
Y209372D01*
X235293Y209347D01*
X235318Y209310D01*
X235343Y209247D01*
X235381Y209185D01*
X235418Y209097D01*
X235506Y208885D01*
X235593Y208647D01*
X235668Y208360D01*
X235718Y208060D01*
X235743Y207735D01*
Y207722D01*
Y207698D01*
Y207660D01*
X235731Y207598D01*
Y207523D01*
X235718Y207435D01*
X235693Y207235D01*
X235631Y206998D01*
X235556Y206748D01*
X235443Y206485D01*
X235293Y206223D01*
Y206210D01*
X235268Y206198D01*
X235243Y206160D01*
X235206Y206110D01*
X235106Y205986D01*
X234956Y205835D01*
X234769Y205660D01*
X234544Y205486D01*
X234281Y205311D01*
X233969Y205148D01*
X233981D01*
X234019Y205136D01*
X234081Y205123D01*
X234156Y205098D01*
X234256Y205061D01*
X234356Y205023D01*
X234619Y204911D01*
X234893Y204773D01*
X235193Y204573D01*
X235481Y204348D01*
X235606Y204211D01*
X235731Y204061D01*
X235743Y204049D01*
X235756Y204023D01*
X235793Y203974D01*
X235831Y203911D01*
X235881Y203836D01*
X235931Y203736D01*
X235993Y203624D01*
X236056Y203499D01*
X236106Y203349D01*
X236168Y203199D01*
X236218Y203024D01*
X236268Y202849D01*
X236343Y202449D01*
X236356Y202224D01*
X236368Y201999D01*
Y201987D01*
Y201924D01*
X236356Y201836D01*
Y201724D01*
X236331Y201574D01*
X236306Y201412D01*
X236268Y201224D01*
X236218Y201012D01*
X236156Y200799D01*
X236068Y200574D01*
X235968Y200337D01*
X235856Y200100D01*
X235706Y199862D01*
X235543Y199612D01*
X235356Y199387D01*
X235143Y199162D01*
X235131Y199150D01*
X235093Y199112D01*
X235019Y199050D01*
X234918Y198987D01*
X234806Y198887D01*
X234656Y198800D01*
X234494Y198687D01*
X234294Y198587D01*
X234081Y198475D01*
X233844Y198362D01*
X233594Y198275D01*
X233319Y198188D01*
X233032Y198113D01*
X232719Y198050D01*
X232394Y198013D01*
X232044Y198000D01*
X231969D01*
X231882Y198013D01*
X231769D01*
X231619Y198025D01*
X231457Y198050D01*
X231269Y198088D01*
X231057Y198125D01*
X230844Y198175D01*
X230620Y198250D01*
X230382Y198325D01*
X230157Y198425D01*
X229920Y198537D01*
X229682Y198675D01*
X229457Y198825D01*
X229245Y199000D01*
X229233Y199012D01*
X229195Y199050D01*
X229145Y199100D01*
X229070Y199187D01*
X228983Y199287D01*
X228883Y199400D01*
X228783Y199537D01*
X228670Y199700D01*
X228558Y199874D01*
X228445Y200075D01*
X228345Y200287D01*
X228245Y200524D01*
X228158Y200774D01*
X228083Y201037D01*
X228020Y201312D01*
X227983Y201612D01*
X229557Y201824D01*
Y201812D01*
X229570Y201761D01*
X229582Y201699D01*
X229607Y201599D01*
X229632Y201499D01*
X229670Y201362D01*
X229720Y201224D01*
X229770Y201074D01*
X229895Y200762D01*
X230057Y200437D01*
X230245Y200137D01*
X230357Y200012D01*
X230470Y199887D01*
X230482D01*
X230495Y199862D01*
X230532Y199837D01*
X230582Y199799D01*
X230645Y199750D01*
X230720Y199700D01*
X230907Y199600D01*
X231145Y199487D01*
X231419Y199387D01*
X231719Y199325D01*
X231882Y199312D01*
X232057Y199300D01*
X232169D01*
X232244Y199312D01*
X232344Y199325D01*
X232444Y199337D01*
X232569Y199362D01*
X232707Y199400D01*
X233006Y199487D01*
X233157Y199550D01*
X233319Y199625D01*
X233481Y199712D01*
X233631Y199812D01*
X233781Y199925D01*
X233931Y200062D01*
X233944Y200075D01*
X233969Y200100D01*
X234006Y200137D01*
X234056Y200199D01*
X234106Y200274D01*
X234169Y200362D01*
X234244Y200462D01*
X234319Y200587D01*
X234381Y200712D01*
X234456Y200862D01*
X234581Y201187D01*
X234619Y201362D01*
X234656Y201549D01*
X234681Y201749D01*
X234694Y201961D01*
Y201974D01*
Y202012D01*
Y202062D01*
X234681Y202149D01*
X234669Y202236D01*
X234656Y202349D01*
X234631Y202461D01*
X234606Y202599D01*
X234519Y202874D01*
X234469Y203024D01*
X234394Y203174D01*
X234306Y203324D01*
X234219Y203474D01*
X234106Y203611D01*
X233981Y203748D01*
X233969Y203761D01*
X233944Y203773D01*
X233906Y203811D01*
X233856Y203861D01*
X233781Y203911D01*
X233694Y203974D01*
X233606Y204036D01*
X233494Y204098D01*
X233369Y204161D01*
X233231Y204223D01*
X232919Y204336D01*
X232569Y204423D01*
X232382Y204436D01*
X232182Y204448D01*
X232107D01*
X232007Y204436D01*
X231882Y204423D01*
X231719Y204411D01*
X231532Y204386D01*
X231319Y204336D01*
X231082Y204286D01*
X231257Y205660D01*
X231282D01*
X231344Y205648D01*
X231432Y205636D01*
X231607D01*
X231682Y205648D01*
X231769D01*
X231869Y205660D01*
X231982Y205686D01*
X232107Y205698D01*
X232394Y205760D01*
X232694Y205861D01*
X233006Y205986D01*
X233319Y206160D01*
X233331Y206173D01*
X233356Y206185D01*
X233394Y206210D01*
X233444Y206260D01*
X233506Y206310D01*
X233581Y206385D01*
X233644Y206460D01*
X233731Y206560D01*
X233806Y206660D01*
X233869Y206785D01*
X233944Y206923D01*
X234006Y207060D01*
X234056Y207223D01*
X234094Y207398D01*
X234119Y207573D01*
X234131Y207773D01*
Y207785D01*
Y207810D01*
Y207860D01*
X234119Y207922D01*
Y207997D01*
X234106Y208085D01*
X234056Y208285D01*
X233994Y208510D01*
X233881Y208747D01*
X233744Y208985D01*
X233644Y209097D01*
X233544Y209210D01*
X233531Y209222D01*
X233519Y209235D01*
X233481Y209260D01*
X233444Y209297D01*
X233306Y209397D01*
X233132Y209497D01*
X232919Y209597D01*
X232657Y209697D01*
X232357Y209760D01*
X232207Y209785D01*
X231944D01*
X231882Y209772D01*
X231794D01*
X231707Y209760D01*
X231494Y209709D01*
X231244Y209647D01*
X230994Y209535D01*
X230732Y209397D01*
X230607Y209297D01*
X230495Y209197D01*
X230482Y209185D01*
X230470Y209172D01*
X230432Y209135D01*
X230395Y209085D01*
X230345Y209035D01*
X230295Y208960D01*
X230232Y208872D01*
X230170Y208772D01*
X230107Y208647D01*
X230032Y208522D01*
X229970Y208385D01*
X229907Y208222D01*
X229857Y208060D01*
X229795Y207873D01*
X229757Y207685D01*
X229720Y207473D01*
X228145Y207747D01*
Y207760D01*
X228158Y207822D01*
X228183Y207897D01*
X228208Y208010D01*
X228245Y208135D01*
X228295Y208297D01*
X228345Y208460D01*
X228420Y208647D01*
X228495Y208835D01*
X228595Y209035D01*
X228695Y209247D01*
X228820Y209447D01*
X228945Y209647D01*
X229095Y209847D01*
X229270Y210022D01*
X229445Y210197D01*
X229457Y210209D01*
X229495Y210234D01*
X229545Y210272D01*
X229632Y210334D01*
X229732Y210397D01*
X229845Y210472D01*
X229995Y210559D01*
X230145Y210634D01*
X230320Y210722D01*
X230520Y210797D01*
X230732Y210872D01*
X230957Y210934D01*
X231194Y210997D01*
X231444Y211034D01*
X231719Y211059D01*
X231994Y211072D01*
X232094D01*
X232169Y211059D01*
D02*
G37*
G36*
X207253Y210847D02*
X207391D01*
X207541Y210834D01*
X207716Y210809D01*
X207915Y210772D01*
X208141Y210734D01*
X208365Y210672D01*
X208603Y210609D01*
X208853Y210522D01*
X209090Y210422D01*
X209340Y210309D01*
X209565Y210172D01*
X209790Y210009D01*
X210002Y209834D01*
X210015Y209822D01*
X210053Y209785D01*
X210102Y209734D01*
X210165Y209647D01*
X210252Y209547D01*
X210340Y209435D01*
X210440Y209297D01*
X210540Y209135D01*
X210640Y208960D01*
X210740Y208760D01*
X210827Y208560D01*
X210915Y208335D01*
X210977Y208097D01*
X211027Y207835D01*
X211065Y207573D01*
X211077Y207298D01*
Y207285D01*
Y207260D01*
Y207223D01*
Y207173D01*
X211065Y207098D01*
Y207023D01*
X211040Y206823D01*
X211002Y206598D01*
X210940Y206335D01*
X210865Y206060D01*
X210752Y205786D01*
Y205773D01*
X210740Y205748D01*
X210715Y205711D01*
X210690Y205660D01*
X210652Y205586D01*
X210615Y205511D01*
X210502Y205311D01*
X210365Y205086D01*
X210177Y204811D01*
X209965Y204523D01*
X209703Y204223D01*
X209690Y204211D01*
X209665Y204186D01*
X209628Y204136D01*
X209565Y204074D01*
X209478Y203986D01*
X209390Y203886D01*
X209265Y203773D01*
X209128Y203636D01*
X208978Y203486D01*
X208790Y203311D01*
X208603Y203124D01*
X208378Y202924D01*
X208141Y202711D01*
X207878Y202474D01*
X207591Y202236D01*
X207291Y201974D01*
X207278Y201961D01*
X207228Y201924D01*
X207153Y201861D01*
X207066Y201786D01*
X206953Y201687D01*
X206828Y201574D01*
X206528Y201324D01*
X206228Y201062D01*
X205928Y200799D01*
X205791Y200674D01*
X205666Y200549D01*
X205554Y200449D01*
X205466Y200362D01*
X205454Y200349D01*
X205404Y200287D01*
X205329Y200199D01*
X205229Y200100D01*
X205129Y199962D01*
X205016Y199825D01*
X204904Y199675D01*
X204804Y199512D01*
X211090D01*
Y198000D01*
X202629D01*
Y198013D01*
Y198025D01*
Y198100D01*
Y198200D01*
X202642Y198350D01*
X202667Y198512D01*
X202692Y198700D01*
X202742Y198887D01*
X202804Y199087D01*
Y199100D01*
X202817Y199125D01*
X202842Y199175D01*
X202867Y199237D01*
X202904Y199312D01*
X202942Y199400D01*
X203054Y199625D01*
X203204Y199887D01*
X203379Y200175D01*
X203592Y200474D01*
X203842Y200787D01*
X203854Y200799D01*
X203879Y200824D01*
X203916Y200874D01*
X203979Y200937D01*
X204054Y201012D01*
X204142Y201112D01*
X204242Y201224D01*
X204366Y201349D01*
X204504Y201474D01*
X204654Y201624D01*
X204829Y201786D01*
X205004Y201961D01*
X205204Y202136D01*
X205416Y202324D01*
X205654Y202524D01*
X205891Y202724D01*
X205916Y202749D01*
X205979Y202799D01*
X206091Y202886D01*
X206228Y203011D01*
X206403Y203149D01*
X206591Y203324D01*
X206803Y203511D01*
X207028Y203711D01*
X207503Y204148D01*
X207966Y204598D01*
X208178Y204823D01*
X208378Y205048D01*
X208565Y205248D01*
X208715Y205448D01*
X208728Y205461D01*
X208753Y205498D01*
X208790Y205548D01*
X208828Y205623D01*
X208890Y205711D01*
X208953Y205811D01*
X209015Y205935D01*
X209090Y206060D01*
X209228Y206348D01*
X209353Y206660D01*
X209390Y206835D01*
X209428Y206998D01*
X209453Y207173D01*
X209465Y207335D01*
Y207348D01*
Y207373D01*
Y207423D01*
X209453Y207498D01*
X209440Y207573D01*
X209428Y207660D01*
X209378Y207885D01*
X209303Y208135D01*
X209178Y208397D01*
X209103Y208522D01*
X209015Y208660D01*
X208915Y208785D01*
X208790Y208910D01*
X208778Y208922D01*
X208765Y208935D01*
X208715Y208972D01*
X208665Y209010D01*
X208603Y209060D01*
X208515Y209110D01*
X208428Y209172D01*
X208315Y209235D01*
X208203Y209297D01*
X208065Y209360D01*
X207766Y209460D01*
X207428Y209535D01*
X207241Y209547D01*
X207041Y209560D01*
X206928D01*
X206853Y209547D01*
X206753Y209535D01*
X206641Y209522D01*
X206516Y209497D01*
X206391Y209472D01*
X206091Y209397D01*
X205791Y209272D01*
X205641Y209197D01*
X205491Y209097D01*
X205354Y208997D01*
X205216Y208872D01*
X205204Y208860D01*
X205191Y208847D01*
X205154Y208797D01*
X205116Y208747D01*
X205066Y208685D01*
X205004Y208597D01*
X204941Y208497D01*
X204879Y208385D01*
X204816Y208260D01*
X204754Y208122D01*
X204704Y207960D01*
X204641Y207798D01*
X204604Y207623D01*
X204566Y207423D01*
X204554Y207223D01*
X204541Y206998D01*
X202929Y207160D01*
Y207185D01*
X202942Y207235D01*
X202954Y207335D01*
X202967Y207460D01*
X203004Y207610D01*
X203042Y207785D01*
X203092Y207973D01*
X203142Y208185D01*
X203217Y208397D01*
X203304Y208622D01*
X203404Y208847D01*
X203517Y209085D01*
X203654Y209310D01*
X203804Y209522D01*
X203979Y209722D01*
X204167Y209909D01*
X204179Y209922D01*
X204216Y209947D01*
X204279Y209997D01*
X204366Y210059D01*
X204479Y210134D01*
X204604Y210209D01*
X204766Y210297D01*
X204941Y210384D01*
X205141Y210472D01*
X205354Y210559D01*
X205591Y210634D01*
X205854Y210709D01*
X206129Y210772D01*
X206428Y210822D01*
X206741Y210847D01*
X207078Y210859D01*
X207166D01*
X207253Y210847D01*
D02*
G37*
G36*
X415937Y34697D02*
X416062Y34685D01*
X416187Y34673D01*
X416337Y34648D01*
X416500Y34610D01*
X416837Y34523D01*
X417012Y34460D01*
X417200Y34385D01*
X417362Y34298D01*
X417537Y34185D01*
X417687Y34073D01*
X417837Y33935D01*
X417850Y33923D01*
X417874Y33898D01*
X417912Y33860D01*
X417949Y33798D01*
X418012Y33710D01*
X418074Y33610D01*
X418137Y33498D01*
X418212Y33360D01*
X418287Y33198D01*
X418349Y33023D01*
X418412Y32836D01*
X418474Y32623D01*
X418512Y32398D01*
X418549Y32148D01*
X418574Y31873D01*
X418587Y31586D01*
Y25212D01*
X417012D01*
Y31061D01*
Y31073D01*
Y31098D01*
Y31148D01*
Y31211D01*
Y31286D01*
X417000Y31386D01*
X416987Y31586D01*
X416975Y31798D01*
X416950Y32023D01*
X416900Y32236D01*
X416850Y32411D01*
X416837Y32436D01*
X416825Y32486D01*
X416787Y32561D01*
X416725Y32661D01*
X416650Y32761D01*
X416550Y32873D01*
X416437Y32985D01*
X416300Y33085D01*
X416287Y33098D01*
X416225Y33123D01*
X416150Y33173D01*
X416037Y33223D01*
X415900Y33260D01*
X415737Y33310D01*
X415563Y33335D01*
X415363Y33348D01*
X415263D01*
X415200Y33335D01*
X415113Y33323D01*
X415013Y33310D01*
X414788Y33260D01*
X414525Y33185D01*
X414250Y33073D01*
X414113Y32998D01*
X413988Y32910D01*
X413851Y32798D01*
X413726Y32685D01*
X413713Y32673D01*
X413700Y32661D01*
X413663Y32611D01*
X413625Y32561D01*
X413576Y32486D01*
X413526Y32411D01*
X413463Y32298D01*
X413413Y32186D01*
X413351Y32048D01*
X413288Y31886D01*
X413238Y31723D01*
X413188Y31536D01*
X413151Y31323D01*
X413113Y31098D01*
X413101Y30861D01*
X413088Y30599D01*
Y25212D01*
X411514D01*
Y31248D01*
Y31261D01*
Y31298D01*
Y31348D01*
Y31423D01*
X411501Y31511D01*
X411489Y31611D01*
X411464Y31836D01*
X411414Y32098D01*
X411351Y32361D01*
X411251Y32611D01*
X411126Y32823D01*
X411114Y32848D01*
X411051Y32910D01*
X410964Y32985D01*
X410826Y33085D01*
X410651Y33185D01*
X410439Y33260D01*
X410176Y33323D01*
X409877Y33348D01*
X409764D01*
X409639Y33335D01*
X409477Y33310D01*
X409289Y33260D01*
X409077Y33198D01*
X408852Y33110D01*
X408639Y32998D01*
X408614Y32985D01*
X408552Y32936D01*
X408452Y32848D01*
X408327Y32736D01*
X408189Y32598D01*
X408064Y32423D01*
X407939Y32211D01*
X407827Y31973D01*
Y31961D01*
X407814Y31948D01*
X407802Y31898D01*
X407789Y31848D01*
X407765Y31773D01*
X407752Y31698D01*
X407727Y31598D01*
X407702Y31473D01*
X407677Y31348D01*
X407652Y31198D01*
X407640Y31036D01*
X407615Y30861D01*
X407602Y30673D01*
X407590Y30474D01*
X407577Y30261D01*
Y30024D01*
Y25212D01*
X406003D01*
Y34498D01*
X407415D01*
Y33210D01*
X407440Y33223D01*
X407465Y33260D01*
X407490Y33310D01*
X407590Y33435D01*
X407727Y33585D01*
X407890Y33760D01*
X408089Y33948D01*
X408314Y34123D01*
X408577Y34285D01*
X408589D01*
X408614Y34298D01*
X408652Y34323D01*
X408702Y34348D01*
X408777Y34385D01*
X408852Y34423D01*
X409052Y34498D01*
X409302Y34573D01*
X409577Y34648D01*
X409889Y34697D01*
X410226Y34710D01*
X410326D01*
X410401Y34697D01*
X410489D01*
X410589Y34685D01*
X410826Y34660D01*
X411089Y34597D01*
X411376Y34523D01*
X411651Y34423D01*
X411913Y34273D01*
X411926D01*
X411939Y34248D01*
X412026Y34198D01*
X412138Y34098D01*
X412276Y33960D01*
X412426Y33798D01*
X412588Y33598D01*
X412726Y33360D01*
X412838Y33085D01*
X412851Y33098D01*
X412888Y33160D01*
X412951Y33235D01*
X413038Y33335D01*
X413151Y33460D01*
X413288Y33598D01*
X413438Y33748D01*
X413613Y33898D01*
X413813Y34048D01*
X414025Y34198D01*
X414263Y34335D01*
X414525Y34460D01*
X414788Y34560D01*
X415088Y34635D01*
X415388Y34697D01*
X415713Y34710D01*
X415850D01*
X415937Y34697D01*
D02*
G37*
G36*
X401029D02*
X401154Y34685D01*
X401279Y34673D01*
X401429Y34648D01*
X401591Y34610D01*
X401928Y34523D01*
X402104Y34460D01*
X402291Y34385D01*
X402453Y34298D01*
X402628Y34185D01*
X402778Y34073D01*
X402928Y33935D01*
X402941Y33923D01*
X402966Y33898D01*
X403003Y33860D01*
X403041Y33798D01*
X403103Y33710D01*
X403166Y33610D01*
X403228Y33498D01*
X403303Y33360D01*
X403378Y33198D01*
X403441Y33023D01*
X403503Y32836D01*
X403566Y32623D01*
X403603Y32398D01*
X403641Y32148D01*
X403666Y31873D01*
X403678Y31586D01*
Y25212D01*
X402104D01*
Y31061D01*
Y31073D01*
Y31098D01*
Y31148D01*
Y31211D01*
Y31286D01*
X402091Y31386D01*
X402079Y31586D01*
X402066Y31798D01*
X402041Y32023D01*
X401991Y32236D01*
X401941Y32411D01*
X401928Y32436D01*
X401916Y32486D01*
X401879Y32561D01*
X401816Y32661D01*
X401741Y32761D01*
X401641Y32873D01*
X401529Y32985D01*
X401391Y33085D01*
X401379Y33098D01*
X401316Y33123D01*
X401241Y33173D01*
X401129Y33223D01*
X400991Y33260D01*
X400829Y33310D01*
X400654Y33335D01*
X400454Y33348D01*
X400354D01*
X400291Y33335D01*
X400204Y33323D01*
X400104Y33310D01*
X399879Y33260D01*
X399617Y33185D01*
X399342Y33073D01*
X399204Y32998D01*
X399079Y32910D01*
X398942Y32798D01*
X398817Y32685D01*
X398804Y32673D01*
X398792Y32661D01*
X398754Y32611D01*
X398717Y32561D01*
X398667Y32486D01*
X398617Y32411D01*
X398554Y32298D01*
X398504Y32186D01*
X398442Y32048D01*
X398379Y31886D01*
X398330Y31723D01*
X398279Y31536D01*
X398242Y31323D01*
X398204Y31098D01*
X398192Y30861D01*
X398180Y30599D01*
Y25212D01*
X396605D01*
Y31248D01*
Y31261D01*
Y31298D01*
Y31348D01*
Y31423D01*
X396592Y31511D01*
X396580Y31611D01*
X396555Y31836D01*
X396505Y32098D01*
X396442Y32361D01*
X396343Y32611D01*
X396217Y32823D01*
X396205Y32848D01*
X396143Y32910D01*
X396055Y32985D01*
X395918Y33085D01*
X395743Y33185D01*
X395530Y33260D01*
X395268Y33323D01*
X394968Y33348D01*
X394855D01*
X394730Y33335D01*
X394568Y33310D01*
X394380Y33260D01*
X394168Y33198D01*
X393943Y33110D01*
X393731Y32998D01*
X393706Y32985D01*
X393643Y32936D01*
X393543Y32848D01*
X393418Y32736D01*
X393281Y32598D01*
X393156Y32423D01*
X393031Y32211D01*
X392918Y31973D01*
Y31961D01*
X392906Y31948D01*
X392893Y31898D01*
X392881Y31848D01*
X392856Y31773D01*
X392843Y31698D01*
X392818Y31598D01*
X392793Y31473D01*
X392768Y31348D01*
X392743Y31198D01*
X392731Y31036D01*
X392706Y30861D01*
X392693Y30673D01*
X392681Y30474D01*
X392668Y30261D01*
Y30024D01*
Y25212D01*
X391094D01*
Y34498D01*
X392506D01*
Y33210D01*
X392531Y33223D01*
X392556Y33260D01*
X392581Y33310D01*
X392681Y33435D01*
X392818Y33585D01*
X392981Y33760D01*
X393181Y33948D01*
X393406Y34123D01*
X393668Y34285D01*
X393681D01*
X393706Y34298D01*
X393743Y34323D01*
X393793Y34348D01*
X393868Y34385D01*
X393943Y34423D01*
X394143Y34498D01*
X394393Y34573D01*
X394668Y34648D01*
X394980Y34697D01*
X395318Y34710D01*
X395418D01*
X395493Y34697D01*
X395580D01*
X395680Y34685D01*
X395918Y34660D01*
X396180Y34597D01*
X396467Y34523D01*
X396742Y34423D01*
X397005Y34273D01*
X397017D01*
X397030Y34248D01*
X397117Y34198D01*
X397230Y34098D01*
X397367Y33960D01*
X397517Y33798D01*
X397680Y33598D01*
X397817Y33360D01*
X397930Y33085D01*
X397942Y33098D01*
X397980Y33160D01*
X398042Y33235D01*
X398130Y33335D01*
X398242Y33460D01*
X398379Y33598D01*
X398529Y33748D01*
X398704Y33898D01*
X398904Y34048D01*
X399117Y34198D01*
X399354Y34335D01*
X399617Y34460D01*
X399879Y34560D01*
X400179Y34635D01*
X400479Y34697D01*
X400804Y34710D01*
X400941D01*
X401029Y34697D01*
D02*
G37*
G36*
X430109Y29062D02*
X425273D01*
Y30649D01*
X430109D01*
Y29062D01*
D02*
G37*
G36*
X472073Y36510D02*
X467837D01*
Y25213D01*
X466137D01*
Y36510D01*
X461913D01*
Y38022D01*
X472073D01*
Y36510D01*
D02*
G37*
G36*
X442118Y38009D02*
X442268Y37997D01*
X442431Y37984D01*
X442593Y37972D01*
X442968Y37922D01*
X443368Y37859D01*
X443755Y37759D01*
X443930Y37697D01*
X444105Y37622D01*
X444118D01*
X444143Y37609D01*
X444193Y37584D01*
X444255Y37547D01*
X444330Y37509D01*
X444418Y37459D01*
X444618Y37322D01*
X444830Y37159D01*
X445067Y36947D01*
X445292Y36709D01*
X445492Y36422D01*
Y36410D01*
X445517Y36385D01*
X445542Y36347D01*
X445567Y36285D01*
X445617Y36210D01*
X445655Y36122D01*
X445755Y35910D01*
X445842Y35660D01*
X445930Y35372D01*
X445980Y35060D01*
X446005Y34735D01*
Y34722D01*
Y34697D01*
Y34660D01*
X445992Y34598D01*
Y34523D01*
X445980Y34435D01*
X445955Y34235D01*
X445892Y33998D01*
X445817Y33735D01*
X445705Y33460D01*
X445555Y33185D01*
Y33173D01*
X445530Y33148D01*
X445505Y33110D01*
X445467Y33061D01*
X445367Y32936D01*
X445217Y32773D01*
X445030Y32586D01*
X444793Y32386D01*
X444518Y32198D01*
X444205Y32023D01*
X444218D01*
X444255Y32011D01*
X444318Y31986D01*
X444393Y31961D01*
X444493Y31923D01*
X444605Y31873D01*
X444868Y31748D01*
X445155Y31586D01*
X445455Y31386D01*
X445742Y31136D01*
X445867Y30998D01*
X445992Y30849D01*
X446005Y30836D01*
X446017Y30811D01*
X446055Y30761D01*
X446092Y30699D01*
X446142Y30624D01*
X446192Y30536D01*
X446255Y30424D01*
X446317Y30299D01*
X446367Y30161D01*
X446430Y30024D01*
X446530Y29686D01*
X446605Y29324D01*
X446617Y29124D01*
X446630Y28911D01*
Y28899D01*
Y28874D01*
Y28824D01*
Y28762D01*
X446617Y28674D01*
X446605Y28587D01*
X446580Y28362D01*
X446530Y28112D01*
X446467Y27824D01*
X446367Y27537D01*
X446242Y27237D01*
Y27225D01*
X446230Y27199D01*
X446205Y27162D01*
X446180Y27112D01*
X446092Y26974D01*
X445980Y26800D01*
X445855Y26612D01*
X445692Y26412D01*
X445505Y26225D01*
X445305Y26050D01*
X445280Y26037D01*
X445205Y25987D01*
X445080Y25912D01*
X444917Y25812D01*
X444718Y25712D01*
X444468Y25612D01*
X444193Y25512D01*
X443893Y25425D01*
X443880D01*
X443855Y25412D01*
X443805Y25400D01*
X443743Y25387D01*
X443668Y25375D01*
X443568Y25362D01*
X443455Y25337D01*
X443318Y25325D01*
X443181Y25300D01*
X443018Y25275D01*
X442856Y25262D01*
X442668Y25250D01*
X442268Y25225D01*
X441831Y25213D01*
X436957Y25212D01*
Y38022D01*
X441993Y38022D01*
X442118Y38009D01*
D02*
G37*
G36*
X378410Y25212D02*
X376623D01*
Y26999D01*
X378410D01*
Y25212D01*
D02*
G37*
G36*
X371711D02*
X370137D01*
Y35222D01*
X370124D01*
X370112Y35197D01*
X370074Y35172D01*
X370037Y35135D01*
X369912Y35022D01*
X369737Y34885D01*
X369524Y34722D01*
X369262Y34535D01*
X368962Y34335D01*
X368637Y34135D01*
X368625D01*
X368600Y34110D01*
X368550Y34085D01*
X368487Y34048D01*
X368400Y33998D01*
X368312Y33948D01*
X368087Y33835D01*
X367837Y33710D01*
X367562Y33573D01*
X367275Y33448D01*
X367000Y33335D01*
Y34848D01*
X367012Y34860D01*
X367062Y34873D01*
X367125Y34910D01*
X367225Y34960D01*
X367337Y35022D01*
X367462Y35097D01*
X367612Y35172D01*
X367775Y35272D01*
X368137Y35485D01*
X368525Y35747D01*
X368912Y36035D01*
X369299Y36347D01*
X369312Y36360D01*
X369337Y36385D01*
X369399Y36435D01*
X369462Y36497D01*
X369537Y36584D01*
X369637Y36672D01*
X369737Y36785D01*
X369849Y36897D01*
X370074Y37159D01*
X370299Y37447D01*
X370512Y37759D01*
X370612Y37909D01*
X370686Y38072D01*
X371711D01*
Y25212D01*
D02*
G37*
G36*
X454878Y38234D02*
X455027Y38222D01*
X455215Y38197D01*
X455415Y38172D01*
X455640Y38147D01*
X455890Y38097D01*
X456140Y38034D01*
X456402Y37972D01*
X456677Y37884D01*
X456952Y37797D01*
X457227Y37672D01*
X457502Y37547D01*
X457777Y37397D01*
X457789Y37384D01*
X457839Y37359D01*
X457914Y37309D01*
X458014Y37247D01*
X458127Y37159D01*
X458264Y37047D01*
X458414Y36922D01*
X458589Y36785D01*
X458751Y36622D01*
X458939Y36447D01*
X459114Y36247D01*
X459301Y36035D01*
X459476Y35810D01*
X459639Y35560D01*
X459801Y35297D01*
X459951Y35022D01*
X459964Y35010D01*
X459989Y34960D01*
X460026Y34873D01*
X460064Y34760D01*
X460126Y34610D01*
X460189Y34448D01*
X460251Y34248D01*
X460326Y34023D01*
X460401Y33785D01*
X460463Y33523D01*
X460526Y33235D01*
X460588Y32936D01*
X460626Y32623D01*
X460663Y32298D01*
X460689Y31948D01*
X460701Y31598D01*
Y31573D01*
Y31511D01*
Y31411D01*
X460689Y31273D01*
X460676Y31098D01*
X460663Y30898D01*
X460639Y30674D01*
X460601Y30436D01*
X460564Y30174D01*
X460513Y29886D01*
X460451Y29599D01*
X460364Y29311D01*
X460276Y28999D01*
X460176Y28699D01*
X460051Y28399D01*
X459914Y28112D01*
X459901Y28099D01*
X459876Y28049D01*
X459826Y27962D01*
X459764Y27862D01*
X459689Y27737D01*
X459589Y27587D01*
X459476Y27424D01*
X459339Y27250D01*
X459189Y27062D01*
X459026Y26874D01*
X458839Y26675D01*
X458639Y26487D01*
X458427Y26300D01*
X458189Y26112D01*
X457939Y25950D01*
X457677Y25787D01*
X457664Y25775D01*
X457614Y25750D01*
X457539Y25712D01*
X457427Y25662D01*
X457289Y25600D01*
X457139Y25537D01*
X456952Y25462D01*
X456752Y25400D01*
X456527Y25325D01*
X456290Y25250D01*
X456027Y25187D01*
X455752Y25125D01*
X455477Y25075D01*
X455177Y25038D01*
X454878Y25013D01*
X454565Y25000D01*
X454390D01*
X454265Y25013D01*
X454103Y25025D01*
X453915Y25050D01*
X453715Y25075D01*
X453478Y25113D01*
X453240Y25150D01*
X452978Y25213D01*
X452715Y25275D01*
X452441Y25362D01*
X452153Y25462D01*
X451878Y25575D01*
X451603Y25712D01*
X451328Y25862D01*
X451316Y25875D01*
X451266Y25900D01*
X451191Y25950D01*
X451091Y26025D01*
X450979Y26112D01*
X450841Y26225D01*
X450691Y26350D01*
X450529Y26487D01*
X450354Y26650D01*
X450179Y26825D01*
X449991Y27025D01*
X449816Y27237D01*
X449641Y27462D01*
X449466Y27712D01*
X449316Y27974D01*
X449166Y28249D01*
X449154Y28262D01*
X449141Y28312D01*
X449104Y28399D01*
X449054Y28512D01*
X449004Y28649D01*
X448941Y28812D01*
X448867Y29011D01*
X448804Y29211D01*
X448741Y29449D01*
X448667Y29699D01*
X448604Y29961D01*
X448554Y30236D01*
X448504Y30524D01*
X448479Y30824D01*
X448454Y31136D01*
X448442Y31448D01*
Y31461D01*
Y31486D01*
Y31523D01*
Y31586D01*
X448454Y31661D01*
Y31761D01*
Y31861D01*
X448467Y31973D01*
X448492Y32248D01*
X448529Y32548D01*
X448592Y32898D01*
X448654Y33273D01*
X448741Y33660D01*
X448854Y34073D01*
X449004Y34485D01*
X449166Y34897D01*
X449366Y35310D01*
X449591Y35710D01*
X449854Y36085D01*
X450154Y36435D01*
X450179Y36460D01*
X450229Y36510D01*
X450329Y36597D01*
X450466Y36722D01*
X450629Y36860D01*
X450841Y37009D01*
X451078Y37172D01*
X451353Y37347D01*
X451653Y37509D01*
X451991Y37672D01*
X452353Y37822D01*
X452741Y37959D01*
X453165Y38084D01*
X453615Y38172D01*
X454078Y38222D01*
X454578Y38247D01*
X454753D01*
X454878Y38234D01*
D02*
G37*
G36*
X385145Y38059D02*
X385245Y38047D01*
X385370Y38034D01*
X385495Y38022D01*
X385770Y37972D01*
X386070Y37897D01*
X386382Y37784D01*
X386682Y37647D01*
X386695D01*
X386720Y37622D01*
X386757Y37609D01*
X386820Y37572D01*
X386957Y37472D01*
X387145Y37347D01*
X387345Y37172D01*
X387557Y36972D01*
X387770Y36722D01*
X387970Y36447D01*
Y36435D01*
X387995Y36410D01*
X388020Y36372D01*
X388057Y36310D01*
X388095Y36235D01*
X388145Y36147D01*
X388195Y36035D01*
X388257Y35922D01*
X388320Y35785D01*
X388382Y35647D01*
X388507Y35322D01*
X388644Y34948D01*
X388757Y34548D01*
Y34535D01*
X388769Y34498D01*
X388782Y34435D01*
X388807Y34348D01*
X388832Y34235D01*
X388857Y34098D01*
X388882Y33935D01*
X388907Y33748D01*
X388932Y33548D01*
X388957Y33310D01*
X388982Y33073D01*
X389007Y32798D01*
X389032Y32511D01*
X389044Y32198D01*
X389057Y31873D01*
Y31523D01*
Y31498D01*
Y31423D01*
Y31311D01*
X389044Y31148D01*
Y30961D01*
X389032Y30736D01*
X389019Y30499D01*
X388994Y30224D01*
X388969Y29936D01*
X388944Y29649D01*
X388857Y29037D01*
X388744Y28437D01*
X388669Y28162D01*
X388582Y27887D01*
Y27874D01*
X388557Y27824D01*
X388532Y27749D01*
X388494Y27662D01*
X388445Y27537D01*
X388382Y27412D01*
X388320Y27262D01*
X388232Y27099D01*
X388045Y26762D01*
X387807Y26400D01*
X387520Y26062D01*
X387357Y25900D01*
X387195Y25750D01*
X387182Y25737D01*
X387157Y25712D01*
X387107Y25675D01*
X387032Y25637D01*
X386945Y25575D01*
X386832Y25512D01*
X386707Y25450D01*
X386570Y25375D01*
X386408Y25300D01*
X386233Y25237D01*
X386045Y25175D01*
X385833Y25113D01*
X385620Y25075D01*
X385383Y25038D01*
X385145Y25013D01*
X384883Y25000D01*
X384795D01*
X384708Y25013D01*
X384571Y25025D01*
X384421Y25038D01*
X384233Y25075D01*
X384033Y25113D01*
X383821Y25162D01*
X383596Y25237D01*
X383358Y25325D01*
X383108Y25425D01*
X382871Y25550D01*
X382634Y25700D01*
X382396Y25875D01*
X382171Y26087D01*
X381971Y26312D01*
X381959Y26337D01*
X381921Y26387D01*
X381859Y26487D01*
X381771Y26625D01*
X381684Y26799D01*
X381571Y27012D01*
X381459Y27274D01*
X381346Y27574D01*
X381221Y27912D01*
X381109Y28299D01*
X380996Y28724D01*
X380909Y29186D01*
X380821Y29711D01*
X380759Y30261D01*
X380722Y30873D01*
X380709Y31523D01*
Y31536D01*
Y31548D01*
Y31623D01*
Y31748D01*
X380722Y31898D01*
Y32098D01*
X380734Y32311D01*
X380746Y32561D01*
X380771Y32836D01*
X380796Y33123D01*
X380821Y33423D01*
X380909Y34023D01*
X381021Y34635D01*
X381096Y34910D01*
X381171Y35185D01*
Y35197D01*
X381196Y35247D01*
X381221Y35322D01*
X381259Y35410D01*
X381309Y35535D01*
X381371Y35660D01*
X381434Y35810D01*
X381521Y35972D01*
X381709Y36322D01*
X381946Y36672D01*
X382234Y37009D01*
X382396Y37172D01*
X382559Y37322D01*
X382571Y37334D01*
X382596Y37359D01*
X382659Y37397D01*
X382721Y37434D01*
X382821Y37497D01*
X382921Y37559D01*
X383058Y37622D01*
X383196Y37697D01*
X383358Y37772D01*
X383533Y37834D01*
X383721Y37897D01*
X383933Y37959D01*
X384146Y37997D01*
X384383Y38034D01*
X384621Y38059D01*
X384883Y38072D01*
X385058D01*
X385145Y38059D01*
D02*
G37*
G36*
X417150Y53866D02*
X417275Y53854D01*
X417400Y53841D01*
X417550Y53816D01*
X417712Y53779D01*
X418049Y53691D01*
X418224Y53629D01*
X418412Y53554D01*
X418574Y53466D01*
X418749Y53354D01*
X418899Y53242D01*
X419049Y53104D01*
X419062Y53092D01*
X419087Y53067D01*
X419124Y53029D01*
X419162Y52967D01*
X419224Y52879D01*
X419287Y52779D01*
X419349Y52667D01*
X419424Y52529D01*
X419499Y52367D01*
X419562Y52192D01*
X419624Y52004D01*
X419687Y51792D01*
X419724Y51567D01*
X419762Y51317D01*
X419786Y51042D01*
X419799Y50755D01*
Y44381D01*
X418224D01*
Y50230D01*
Y50242D01*
Y50267D01*
Y50317D01*
Y50380D01*
Y50455D01*
X418212Y50555D01*
X418199Y50755D01*
X418187Y50967D01*
X418162Y51192D01*
X418112Y51405D01*
X418062Y51579D01*
X418049Y51604D01*
X418037Y51654D01*
X417999Y51729D01*
X417937Y51829D01*
X417862Y51929D01*
X417762Y52042D01*
X417649Y52154D01*
X417512Y52254D01*
X417500Y52267D01*
X417437Y52292D01*
X417362Y52342D01*
X417250Y52392D01*
X417112Y52429D01*
X416950Y52479D01*
X416775Y52504D01*
X416575Y52517D01*
X416475D01*
X416412Y52504D01*
X416325Y52492D01*
X416225Y52479D01*
X416000Y52429D01*
X415737Y52354D01*
X415463Y52242D01*
X415325Y52167D01*
X415200Y52079D01*
X415063Y51967D01*
X414938Y51854D01*
X414925Y51842D01*
X414913Y51829D01*
X414875Y51779D01*
X414838Y51729D01*
X414788Y51654D01*
X414738Y51579D01*
X414675Y51467D01*
X414625Y51354D01*
X414563Y51217D01*
X414500Y51055D01*
X414450Y50892D01*
X414400Y50705D01*
X414363Y50492D01*
X414325Y50267D01*
X414313Y50030D01*
X414300Y49767D01*
Y44381D01*
X412726D01*
Y50417D01*
Y50430D01*
Y50467D01*
Y50517D01*
Y50592D01*
X412713Y50680D01*
X412701Y50780D01*
X412676Y51005D01*
X412626Y51267D01*
X412563Y51529D01*
X412463Y51779D01*
X412338Y51992D01*
X412326Y52017D01*
X412263Y52079D01*
X412176Y52154D01*
X412038Y52254D01*
X411864Y52354D01*
X411651Y52429D01*
X411389Y52492D01*
X411089Y52517D01*
X410976D01*
X410851Y52504D01*
X410689Y52479D01*
X410501Y52429D01*
X410289Y52367D01*
X410064Y52279D01*
X409851Y52167D01*
X409827Y52154D01*
X409764Y52104D01*
X409664Y52017D01*
X409539Y51904D01*
X409402Y51767D01*
X409277Y51592D01*
X409152Y51379D01*
X409039Y51142D01*
Y51129D01*
X409027Y51117D01*
X409014Y51067D01*
X409002Y51017D01*
X408977Y50942D01*
X408964Y50867D01*
X408939Y50767D01*
X408914Y50642D01*
X408889Y50517D01*
X408864Y50367D01*
X408852Y50205D01*
X408827Y50030D01*
X408814Y49842D01*
X408802Y49642D01*
X408789Y49430D01*
Y49193D01*
Y44381D01*
X407215D01*
Y53666D01*
X408627D01*
Y52379D01*
X408652Y52392D01*
X408677Y52429D01*
X408702Y52479D01*
X408802Y52604D01*
X408939Y52754D01*
X409102Y52929D01*
X409302Y53116D01*
X409527Y53292D01*
X409789Y53454D01*
X409801D01*
X409827Y53466D01*
X409864Y53491D01*
X409914Y53516D01*
X409989Y53554D01*
X410064Y53591D01*
X410264Y53666D01*
X410514Y53741D01*
X410789Y53816D01*
X411101Y53866D01*
X411439Y53879D01*
X411539D01*
X411614Y53866D01*
X411701D01*
X411801Y53854D01*
X412038Y53829D01*
X412301Y53766D01*
X412588Y53691D01*
X412863Y53591D01*
X413126Y53441D01*
X413138D01*
X413151Y53417D01*
X413238Y53366D01*
X413351Y53267D01*
X413488Y53129D01*
X413638Y52967D01*
X413801Y52767D01*
X413938Y52529D01*
X414050Y52254D01*
X414063Y52267D01*
X414100Y52329D01*
X414163Y52404D01*
X414250Y52504D01*
X414363Y52629D01*
X414500Y52767D01*
X414650Y52917D01*
X414825Y53067D01*
X415025Y53217D01*
X415238Y53366D01*
X415475Y53504D01*
X415737Y53629D01*
X416000Y53729D01*
X416300Y53804D01*
X416600Y53866D01*
X416925Y53879D01*
X417062D01*
X417150Y53866D01*
D02*
G37*
G36*
X402241D02*
X402366Y53854D01*
X402491Y53841D01*
X402641Y53816D01*
X402803Y53779D01*
X403141Y53691D01*
X403316Y53629D01*
X403503Y53554D01*
X403666Y53466D01*
X403840Y53354D01*
X403991Y53242D01*
X404141Y53104D01*
X404153Y53092D01*
X404178Y53067D01*
X404215Y53029D01*
X404253Y52967D01*
X404315Y52879D01*
X404378Y52779D01*
X404440Y52667D01*
X404515Y52529D01*
X404590Y52367D01*
X404653Y52192D01*
X404715Y52004D01*
X404778Y51792D01*
X404815Y51567D01*
X404853Y51317D01*
X404878Y51042D01*
X404890Y50755D01*
Y44381D01*
X403316D01*
Y50230D01*
Y50242D01*
Y50267D01*
Y50317D01*
Y50380D01*
Y50455D01*
X403303Y50555D01*
X403291Y50755D01*
X403278Y50967D01*
X403253Y51192D01*
X403203Y51405D01*
X403153Y51579D01*
X403141Y51604D01*
X403128Y51654D01*
X403091Y51729D01*
X403028Y51829D01*
X402953Y51929D01*
X402853Y52042D01*
X402741Y52154D01*
X402603Y52254D01*
X402591Y52267D01*
X402528Y52292D01*
X402453Y52342D01*
X402341Y52392D01*
X402203Y52429D01*
X402041Y52479D01*
X401866Y52504D01*
X401666Y52517D01*
X401566D01*
X401504Y52504D01*
X401416Y52492D01*
X401316Y52479D01*
X401091Y52429D01*
X400829Y52354D01*
X400554Y52242D01*
X400416Y52167D01*
X400291Y52079D01*
X400154Y51967D01*
X400029Y51854D01*
X400017Y51842D01*
X400004Y51829D01*
X399967Y51779D01*
X399929Y51729D01*
X399879Y51654D01*
X399829Y51579D01*
X399767Y51467D01*
X399717Y51354D01*
X399654Y51217D01*
X399592Y51055D01*
X399542Y50892D01*
X399492Y50705D01*
X399454Y50492D01*
X399417Y50267D01*
X399404Y50030D01*
X399392Y49767D01*
Y44381D01*
X397817D01*
Y50417D01*
Y50430D01*
Y50467D01*
Y50517D01*
Y50592D01*
X397805Y50680D01*
X397792Y50780D01*
X397767Y51005D01*
X397717Y51267D01*
X397655Y51529D01*
X397555Y51779D01*
X397430Y51992D01*
X397417Y52017D01*
X397355Y52079D01*
X397267Y52154D01*
X397130Y52254D01*
X396955Y52354D01*
X396742Y52429D01*
X396480Y52492D01*
X396180Y52517D01*
X396068D01*
X395943Y52504D01*
X395780Y52479D01*
X395593Y52429D01*
X395380Y52367D01*
X395155Y52279D01*
X394943Y52167D01*
X394918Y52154D01*
X394855Y52104D01*
X394755Y52017D01*
X394630Y51904D01*
X394493Y51767D01*
X394368Y51592D01*
X394243Y51379D01*
X394131Y51142D01*
Y51129D01*
X394118Y51117D01*
X394105Y51067D01*
X394093Y51017D01*
X394068Y50942D01*
X394055Y50867D01*
X394031Y50767D01*
X394006Y50642D01*
X393981Y50517D01*
X393956Y50367D01*
X393943Y50205D01*
X393918Y50030D01*
X393906Y49842D01*
X393893Y49642D01*
X393881Y49430D01*
Y49193D01*
Y44381D01*
X392306D01*
Y53666D01*
X393718D01*
Y52379D01*
X393743Y52392D01*
X393768Y52429D01*
X393793Y52479D01*
X393893Y52604D01*
X394031Y52754D01*
X394193Y52929D01*
X394393Y53116D01*
X394618Y53292D01*
X394880Y53454D01*
X394893D01*
X394918Y53466D01*
X394955Y53491D01*
X395005Y53516D01*
X395080Y53554D01*
X395155Y53591D01*
X395355Y53666D01*
X395605Y53741D01*
X395880Y53816D01*
X396193Y53866D01*
X396530Y53879D01*
X396630D01*
X396705Y53866D01*
X396792D01*
X396892Y53854D01*
X397130Y53829D01*
X397392Y53766D01*
X397680Y53691D01*
X397955Y53591D01*
X398217Y53441D01*
X398229D01*
X398242Y53417D01*
X398330Y53366D01*
X398442Y53267D01*
X398579Y53129D01*
X398729Y52967D01*
X398892Y52767D01*
X399029Y52529D01*
X399142Y52254D01*
X399154Y52267D01*
X399192Y52329D01*
X399254Y52404D01*
X399342Y52504D01*
X399454Y52629D01*
X399592Y52767D01*
X399742Y52917D01*
X399916Y53067D01*
X400117Y53217D01*
X400329Y53366D01*
X400566Y53504D01*
X400829Y53629D01*
X401091Y53729D01*
X401391Y53804D01*
X401691Y53866D01*
X402016Y53879D01*
X402154D01*
X402241Y53866D01*
D02*
G37*
G36*
X431321Y48230D02*
X426485D01*
Y49817D01*
X431321D01*
Y48230D01*
D02*
G37*
G36*
X389819Y55528D02*
X384683D01*
X383996Y52067D01*
X384008Y52079D01*
X384046Y52104D01*
X384108Y52142D01*
X384196Y52192D01*
X384296Y52254D01*
X384433Y52329D01*
X384571Y52392D01*
X384733Y52479D01*
X384908Y52554D01*
X385095Y52617D01*
X385508Y52754D01*
X385720Y52804D01*
X385945Y52842D01*
X386183Y52867D01*
X386420Y52879D01*
X386495D01*
X386582Y52867D01*
X386707D01*
X386845Y52842D01*
X387020Y52817D01*
X387207Y52779D01*
X387407Y52729D01*
X387620Y52667D01*
X387857Y52592D01*
X388095Y52504D01*
X388332Y52392D01*
X388569Y52254D01*
X388807Y52104D01*
X389032Y51917D01*
X389257Y51717D01*
X389269Y51704D01*
X389307Y51667D01*
X389369Y51592D01*
X389444Y51504D01*
X389532Y51392D01*
X389619Y51255D01*
X389732Y51092D01*
X389844Y50905D01*
X389944Y50705D01*
X390057Y50480D01*
X390144Y50230D01*
X390244Y49967D01*
X390307Y49680D01*
X390369Y49380D01*
X390406Y49055D01*
X390419Y48718D01*
Y48693D01*
Y48643D01*
X390406Y48555D01*
Y48430D01*
X390394Y48280D01*
X390369Y48105D01*
X390331Y47905D01*
X390294Y47693D01*
X390232Y47468D01*
X390169Y47218D01*
X390082Y46968D01*
X389982Y46718D01*
X389869Y46468D01*
X389732Y46206D01*
X389569Y45956D01*
X389394Y45718D01*
X389382Y45706D01*
X389332Y45656D01*
X389269Y45581D01*
X389169Y45481D01*
X389044Y45356D01*
X388894Y45231D01*
X388719Y45094D01*
X388520Y44944D01*
X388282Y44794D01*
X388032Y44656D01*
X387757Y44531D01*
X387457Y44406D01*
X387132Y44306D01*
X386795Y44231D01*
X386420Y44181D01*
X386033Y44169D01*
X385958D01*
X385870Y44181D01*
X385745D01*
X385595Y44194D01*
X385420Y44219D01*
X385233Y44256D01*
X385020Y44294D01*
X384795Y44344D01*
X384571Y44406D01*
X384333Y44481D01*
X384083Y44581D01*
X383846Y44694D01*
X383608Y44819D01*
X383383Y44969D01*
X383171Y45144D01*
X383158Y45156D01*
X383121Y45194D01*
X383071Y45244D01*
X382996Y45318D01*
X382908Y45419D01*
X382821Y45543D01*
X382709Y45681D01*
X382608Y45831D01*
X382496Y46006D01*
X382383Y46206D01*
X382284Y46418D01*
X382184Y46656D01*
X382096Y46906D01*
X382021Y47168D01*
X381959Y47443D01*
X381921Y47743D01*
X383571Y47880D01*
Y47868D01*
X383583Y47830D01*
X383596Y47768D01*
X383608Y47680D01*
X383633Y47580D01*
X383658Y47468D01*
X383746Y47193D01*
X383858Y46906D01*
X383996Y46606D01*
X384183Y46306D01*
X384296Y46181D01*
X384408Y46056D01*
X384421Y46043D01*
X384445Y46031D01*
X384483Y46006D01*
X384533Y45968D01*
X384595Y45918D01*
X384670Y45868D01*
X384870Y45756D01*
X385108Y45643D01*
X385383Y45556D01*
X385695Y45481D01*
X385858Y45469D01*
X386033Y45456D01*
X386145D01*
X386220Y45469D01*
X386320Y45481D01*
X386432Y45506D01*
X386558Y45531D01*
X386695Y45568D01*
X387007Y45668D01*
X387157Y45731D01*
X387320Y45818D01*
X387482Y45918D01*
X387645Y46031D01*
X387807Y46156D01*
X387957Y46306D01*
X387970Y46318D01*
X387995Y46343D01*
X388032Y46393D01*
X388082Y46468D01*
X388145Y46543D01*
X388207Y46656D01*
X388282Y46781D01*
X388357Y46918D01*
X388419Y47068D01*
X388494Y47243D01*
X388557Y47431D01*
X388619Y47630D01*
X388669Y47843D01*
X388707Y48080D01*
X388732Y48318D01*
X388744Y48580D01*
Y48593D01*
Y48643D01*
Y48705D01*
X388732Y48805D01*
X388719Y48918D01*
X388707Y49043D01*
X388682Y49193D01*
X388644Y49355D01*
X388557Y49692D01*
X388494Y49867D01*
X388419Y50042D01*
X388332Y50217D01*
X388232Y50392D01*
X388120Y50555D01*
X387982Y50705D01*
X387970Y50717D01*
X387945Y50742D01*
X387907Y50780D01*
X387845Y50830D01*
X387770Y50892D01*
X387682Y50955D01*
X387570Y51030D01*
X387457Y51104D01*
X387320Y51167D01*
X387170Y51242D01*
X387007Y51304D01*
X386832Y51367D01*
X386632Y51417D01*
X386432Y51455D01*
X386220Y51479D01*
X385995Y51492D01*
X385870D01*
X385795Y51479D01*
X385720D01*
X385533Y51455D01*
X385320Y51405D01*
X385095Y51342D01*
X384858Y51255D01*
X384621Y51142D01*
X384608D01*
X384595Y51129D01*
X384520Y51080D01*
X384408Y51005D01*
X384283Y50905D01*
X384121Y50767D01*
X383971Y50617D01*
X383808Y50442D01*
X383671Y50255D01*
X382196Y50442D01*
X383433Y57028D01*
X389819D01*
Y55528D01*
D02*
G37*
G36*
X468487Y57178D02*
X468637D01*
X468949Y57165D01*
X469274Y57140D01*
X469586Y57103D01*
X469736Y57091D01*
X469861Y57066D01*
X469874D01*
X469899Y57053D01*
X469949D01*
X470024Y57028D01*
X470099Y57016D01*
X470199Y56991D01*
X470411Y56928D01*
X470661Y56853D01*
X470936Y56741D01*
X471198Y56616D01*
X471448Y56466D01*
X471461D01*
X471473Y56441D01*
X471548Y56391D01*
X471673Y56291D01*
X471811Y56153D01*
X471973Y55966D01*
X472148Y55766D01*
X472323Y55516D01*
X472473Y55229D01*
Y55216D01*
X472486Y55191D01*
X472510Y55153D01*
X472536Y55091D01*
X472560Y55016D01*
X472598Y54929D01*
X472635Y54829D01*
X472673Y54716D01*
X472748Y54454D01*
X472810Y54154D01*
X472860Y53829D01*
X472873Y53479D01*
Y53467D01*
Y53404D01*
X472860Y53316D01*
Y53204D01*
X472835Y53067D01*
X472823Y52904D01*
X472785Y52729D01*
X472748Y52529D01*
X472685Y52317D01*
X472623Y52092D01*
X472536Y51867D01*
X472435Y51629D01*
X472310Y51392D01*
X472173Y51167D01*
X472011Y50942D01*
X471823Y50717D01*
X471811Y50705D01*
X471773Y50667D01*
X471711Y50617D01*
X471623Y50542D01*
X471498Y50455D01*
X471348Y50367D01*
X471173Y50255D01*
X470961Y50155D01*
X470723Y50055D01*
X470448Y49955D01*
X470149Y49855D01*
X469799Y49767D01*
X469424Y49692D01*
X469011Y49642D01*
X468562Y49605D01*
X468074Y49592D01*
X464787D01*
Y44381D01*
X463088D01*
Y57190D01*
X468349D01*
X468487Y57178D01*
D02*
G37*
G36*
X447429Y55678D02*
X443193D01*
Y44381D01*
X441493D01*
Y55678D01*
X437270Y55678D01*
Y57190D01*
X447429Y57190D01*
Y55678D01*
D02*
G37*
G36*
X379622Y44381D02*
X377835D01*
Y46168D01*
X379622D01*
Y44381D01*
D02*
G37*
G36*
X455090Y57403D02*
X455240Y57390D01*
X455427Y57365D01*
X455627Y57340D01*
X455852Y57316D01*
X456102Y57266D01*
X456352Y57203D01*
X456614Y57140D01*
X456889Y57053D01*
X457164Y56966D01*
X457439Y56841D01*
X457714Y56716D01*
X457989Y56566D01*
X458002Y56553D01*
X458052Y56528D01*
X458127Y56478D01*
X458227Y56416D01*
X458339Y56328D01*
X458477Y56216D01*
X458627Y56091D01*
X458801Y55953D01*
X458964Y55791D01*
X459151Y55616D01*
X459326Y55416D01*
X459514Y55203D01*
X459689Y54979D01*
X459851Y54729D01*
X460014Y54466D01*
X460164Y54191D01*
X460176Y54179D01*
X460201Y54129D01*
X460239Y54041D01*
X460276Y53929D01*
X460339Y53779D01*
X460401Y53616D01*
X460463Y53417D01*
X460538Y53191D01*
X460614Y52954D01*
X460676Y52692D01*
X460738Y52404D01*
X460801Y52104D01*
X460838Y51792D01*
X460876Y51467D01*
X460901Y51117D01*
X460913Y50767D01*
Y50742D01*
Y50680D01*
Y50580D01*
X460901Y50442D01*
X460888Y50267D01*
X460876Y50067D01*
X460851Y49842D01*
X460813Y49605D01*
X460776Y49342D01*
X460726Y49055D01*
X460663Y48768D01*
X460576Y48480D01*
X460489Y48168D01*
X460389Y47868D01*
X460264Y47568D01*
X460126Y47281D01*
X460114Y47268D01*
X460089Y47218D01*
X460039Y47131D01*
X459976Y47031D01*
X459901Y46906D01*
X459801Y46756D01*
X459689Y46593D01*
X459551Y46418D01*
X459401Y46231D01*
X459239Y46043D01*
X459051Y45843D01*
X458852Y45656D01*
X458639Y45469D01*
X458402Y45281D01*
X458152Y45119D01*
X457889Y44956D01*
X457877Y44944D01*
X457827Y44919D01*
X457752Y44881D01*
X457639Y44831D01*
X457502Y44769D01*
X457352Y44706D01*
X457164Y44631D01*
X456964Y44569D01*
X456740Y44494D01*
X456502Y44419D01*
X456240Y44356D01*
X455965Y44294D01*
X455690Y44244D01*
X455390Y44206D01*
X455090Y44181D01*
X454777Y44169D01*
X454603D01*
X454478Y44181D01*
X454315Y44194D01*
X454128Y44219D01*
X453928Y44244D01*
X453690Y44281D01*
X453453Y44319D01*
X453190Y44381D01*
X452928Y44444D01*
X452653Y44531D01*
X452366Y44631D01*
X452091Y44744D01*
X451816Y44881D01*
X451541Y45031D01*
X451528Y45044D01*
X451478Y45069D01*
X451403Y45119D01*
X451303Y45194D01*
X451191Y45281D01*
X451054Y45394D01*
X450904Y45518D01*
X450741Y45656D01*
X450566Y45818D01*
X450391Y45993D01*
X450204Y46193D01*
X450029Y46406D01*
X449854Y46631D01*
X449679Y46881D01*
X449529Y47143D01*
X449379Y47418D01*
X449366Y47431D01*
X449354Y47481D01*
X449316Y47568D01*
X449266Y47680D01*
X449216Y47818D01*
X449154Y47980D01*
X449079Y48180D01*
X449016Y48380D01*
X448954Y48618D01*
X448879Y48868D01*
X448816Y49130D01*
X448767Y49405D01*
X448717Y49692D01*
X448692Y49992D01*
X448667Y50305D01*
X448654Y50617D01*
Y50630D01*
Y50655D01*
Y50692D01*
Y50755D01*
X448667Y50830D01*
Y50930D01*
Y51030D01*
X448679Y51142D01*
X448704Y51417D01*
X448741Y51717D01*
X448804Y52067D01*
X448867Y52442D01*
X448954Y52829D01*
X449067Y53242D01*
X449216Y53654D01*
X449379Y54066D01*
X449579Y54479D01*
X449804Y54879D01*
X450066Y55254D01*
X450366Y55603D01*
X450391Y55628D01*
X450441Y55678D01*
X450541Y55766D01*
X450679Y55891D01*
X450841Y56028D01*
X451054Y56178D01*
X451291Y56341D01*
X451566Y56516D01*
X451866Y56678D01*
X452203Y56841D01*
X452566Y56991D01*
X452953Y57128D01*
X453378Y57253D01*
X453828Y57340D01*
X454290Y57390D01*
X454790Y57415D01*
X454965D01*
X455090Y57403D01*
D02*
G37*
G36*
X371436Y57228D02*
X371536Y57215D01*
X371661Y57203D01*
X371786Y57190D01*
X372061Y57140D01*
X372361Y57066D01*
X372673Y56953D01*
X372973Y56816D01*
X372986D01*
X373011Y56791D01*
X373048Y56778D01*
X373111Y56741D01*
X373248Y56641D01*
X373436Y56516D01*
X373636Y56341D01*
X373848Y56141D01*
X374061Y55891D01*
X374261Y55616D01*
Y55603D01*
X374286Y55578D01*
X374311Y55541D01*
X374348Y55478D01*
X374386Y55403D01*
X374436Y55316D01*
X374486Y55203D01*
X374548Y55091D01*
X374610Y54954D01*
X374673Y54816D01*
X374798Y54491D01*
X374935Y54116D01*
X375048Y53716D01*
Y53704D01*
X375060Y53666D01*
X375073Y53604D01*
X375098Y53516D01*
X375123Y53404D01*
X375148Y53267D01*
X375173Y53104D01*
X375198Y52917D01*
X375223Y52717D01*
X375248Y52479D01*
X375273Y52242D01*
X375298Y51967D01*
X375323Y51679D01*
X375335Y51367D01*
X375348Y51042D01*
Y50692D01*
Y50667D01*
Y50592D01*
Y50480D01*
X375335Y50317D01*
Y50130D01*
X375323Y49905D01*
X375310Y49667D01*
X375285Y49392D01*
X375260Y49105D01*
X375235Y48818D01*
X375148Y48205D01*
X375035Y47605D01*
X374960Y47330D01*
X374873Y47056D01*
Y47043D01*
X374848Y46993D01*
X374823Y46918D01*
X374785Y46831D01*
X374735Y46706D01*
X374673Y46581D01*
X374610Y46431D01*
X374523Y46268D01*
X374336Y45931D01*
X374098Y45568D01*
X373811Y45231D01*
X373648Y45069D01*
X373486Y44919D01*
X373473Y44906D01*
X373448Y44881D01*
X373398Y44844D01*
X373323Y44806D01*
X373236Y44744D01*
X373123Y44681D01*
X372998Y44619D01*
X372861Y44544D01*
X372699Y44469D01*
X372524Y44406D01*
X372336Y44344D01*
X372124Y44281D01*
X371911Y44244D01*
X371674Y44206D01*
X371436Y44181D01*
X371174Y44169D01*
X371086D01*
X370999Y44181D01*
X370862Y44194D01*
X370712Y44206D01*
X370524Y44244D01*
X370324Y44281D01*
X370112Y44331D01*
X369887Y44406D01*
X369649Y44494D01*
X369399Y44594D01*
X369162Y44719D01*
X368924Y44869D01*
X368687Y45044D01*
X368462Y45256D01*
X368262Y45481D01*
X368250Y45506D01*
X368212Y45556D01*
X368150Y45656D01*
X368062Y45793D01*
X367975Y45968D01*
X367862Y46181D01*
X367750Y46443D01*
X367637Y46743D01*
X367512Y47081D01*
X367400Y47468D01*
X367287Y47893D01*
X367200Y48355D01*
X367112Y48880D01*
X367050Y49430D01*
X367012Y50042D01*
X367000Y50692D01*
Y50705D01*
Y50717D01*
Y50792D01*
Y50917D01*
X367012Y51067D01*
Y51267D01*
X367025Y51479D01*
X367038Y51729D01*
X367062Y52004D01*
X367088Y52292D01*
X367112Y52592D01*
X367200Y53191D01*
X367312Y53804D01*
X367387Y54079D01*
X367462Y54354D01*
Y54366D01*
X367487Y54416D01*
X367512Y54491D01*
X367550Y54579D01*
X367600Y54704D01*
X367662Y54829D01*
X367725Y54979D01*
X367812Y55141D01*
X368000Y55491D01*
X368237Y55841D01*
X368525Y56178D01*
X368687Y56341D01*
X368849Y56491D01*
X368862Y56503D01*
X368887Y56528D01*
X368950Y56566D01*
X369012Y56603D01*
X369112Y56666D01*
X369212Y56728D01*
X369349Y56791D01*
X369487Y56866D01*
X369649Y56941D01*
X369824Y57003D01*
X370012Y57066D01*
X370224Y57128D01*
X370437Y57165D01*
X370674Y57203D01*
X370911Y57228D01*
X371174Y57241D01*
X371349D01*
X371436Y57228D01*
D02*
G37*
G36*
X393906Y74559D02*
X392331D01*
Y76371D01*
X393906D01*
Y74559D01*
D02*
G37*
G36*
X386695Y73047D02*
X386795D01*
X386920Y73022D01*
X387057Y73009D01*
X387207Y72984D01*
X387532Y72909D01*
X387882Y72797D01*
X388057Y72734D01*
X388232Y72647D01*
X388407Y72559D01*
X388582Y72447D01*
X388594Y72434D01*
X388619Y72422D01*
X388669Y72384D01*
X388732Y72334D01*
X388807Y72272D01*
X388894Y72197D01*
X388994Y72109D01*
X389094Y71997D01*
X389207Y71884D01*
X389319Y71760D01*
X389432Y71610D01*
X389544Y71459D01*
X389657Y71285D01*
X389769Y71110D01*
X389957Y70710D01*
Y70697D01*
X389982Y70660D01*
X390007Y70597D01*
X390032Y70510D01*
X390069Y70410D01*
X390107Y70285D01*
X390144Y70147D01*
X390194Y69985D01*
X390244Y69810D01*
X390281Y69623D01*
X390319Y69423D01*
X390356Y69210D01*
X390406Y68760D01*
X390432Y68273D01*
Y68260D01*
Y68210D01*
Y68135D01*
X390419Y68035D01*
Y67910D01*
X390406Y67761D01*
X390394Y67598D01*
X390369Y67423D01*
X390344Y67223D01*
X390307Y67023D01*
X390219Y66586D01*
X390094Y66136D01*
X389919Y65698D01*
Y65686D01*
X389894Y65648D01*
X389869Y65586D01*
X389819Y65511D01*
X389769Y65411D01*
X389707Y65311D01*
X389544Y65049D01*
X389332Y64774D01*
X389082Y64486D01*
X388782Y64199D01*
X388432Y63949D01*
X388419Y63937D01*
X388395Y63924D01*
X388332Y63899D01*
X388270Y63861D01*
X388170Y63811D01*
X388070Y63762D01*
X387945Y63712D01*
X387807Y63649D01*
X387657Y63599D01*
X387507Y63537D01*
X387157Y63449D01*
X386782Y63374D01*
X386582Y63362D01*
X386382Y63349D01*
X386245D01*
X386183Y63362D01*
X386095D01*
X385908Y63387D01*
X385695Y63424D01*
X385458Y63487D01*
X385208Y63562D01*
X384970Y63674D01*
X384958D01*
X384945Y63686D01*
X384870Y63737D01*
X384758Y63799D01*
X384608Y63899D01*
X384445Y64024D01*
X384271Y64161D01*
X384108Y64324D01*
X383946Y64511D01*
Y60000D01*
X382371D01*
Y72847D01*
X383808D01*
Y71647D01*
X383833Y71672D01*
X383858Y71697D01*
X383896Y71747D01*
X383996Y71884D01*
X384133Y72034D01*
X384308Y72209D01*
X384496Y72384D01*
X384708Y72547D01*
X384945Y72697D01*
X384958D01*
X384970Y72709D01*
X385008Y72734D01*
X385058Y72759D01*
X385120Y72784D01*
X385195Y72809D01*
X385383Y72884D01*
X385608Y72947D01*
X385870Y73009D01*
X386170Y73047D01*
X386495Y73059D01*
X386608D01*
X386695Y73047D01*
D02*
G37*
G36*
X400866D02*
X400954D01*
X401166Y73022D01*
X401404Y72984D01*
X401654Y72922D01*
X401928Y72847D01*
X402191Y72747D01*
X402203D01*
X402216Y72734D01*
X402253Y72722D01*
X402303Y72697D01*
X402428Y72622D01*
X402591Y72534D01*
X402753Y72422D01*
X402928Y72284D01*
X403091Y72134D01*
X403241Y71959D01*
X403253Y71934D01*
X403303Y71872D01*
X403366Y71772D01*
X403441Y71634D01*
X403516Y71459D01*
X403603Y71260D01*
X403678Y71047D01*
X403741Y70797D01*
Y70772D01*
X403753Y70710D01*
X403766Y70597D01*
X403778Y70522D01*
X403791Y70447D01*
Y70347D01*
X403803Y70235D01*
Y70110D01*
X403815Y69960D01*
Y69810D01*
X403828Y69647D01*
Y69460D01*
Y69260D01*
Y63562D01*
X402253D01*
Y69210D01*
Y69223D01*
Y69248D01*
Y69298D01*
Y69373D01*
Y69448D01*
X402241Y69535D01*
X402229Y69748D01*
X402203Y69985D01*
X402178Y70222D01*
X402128Y70447D01*
X402066Y70647D01*
X402053Y70672D01*
X402029Y70722D01*
X401978Y70810D01*
X401916Y70922D01*
X401829Y71047D01*
X401716Y71172D01*
X401579Y71297D01*
X401416Y71410D01*
X401391Y71422D01*
X401329Y71459D01*
X401241Y71497D01*
X401104Y71560D01*
X400941Y71610D01*
X400754Y71647D01*
X400541Y71684D01*
X400316Y71697D01*
X400216D01*
X400154Y71684D01*
X400066Y71672D01*
X399967Y71659D01*
X399729Y71622D01*
X399454Y71535D01*
X399167Y71422D01*
X399017Y71347D01*
X398879Y71260D01*
X398729Y71160D01*
X398592Y71047D01*
X398579Y71035D01*
X398567Y71022D01*
X398529Y70972D01*
X398479Y70922D01*
X398429Y70847D01*
X398367Y70747D01*
X398292Y70635D01*
X398229Y70510D01*
X398167Y70360D01*
X398092Y70185D01*
X398030Y69985D01*
X397980Y69760D01*
X397930Y69523D01*
X397905Y69248D01*
X397880Y68960D01*
X397867Y68635D01*
Y63562D01*
X396292D01*
Y72847D01*
X397705D01*
Y71522D01*
X397717Y71535D01*
X397755Y71585D01*
X397817Y71659D01*
X397892Y71760D01*
X398004Y71884D01*
X398130Y72009D01*
X398279Y72147D01*
X398454Y72297D01*
X398654Y72434D01*
X398867Y72572D01*
X399117Y72709D01*
X399379Y72822D01*
X399667Y72922D01*
X399967Y72997D01*
X400304Y73047D01*
X400654Y73059D01*
X400791D01*
X400866Y73047D01*
D02*
G37*
G36*
X393906Y63562D02*
X392331D01*
Y72847D01*
X393906D01*
Y63562D01*
D02*
G37*
G36*
X371461Y76408D02*
X371611Y76396D01*
X371774Y76371D01*
X371949Y76333D01*
X372149Y76296D01*
X372361Y76246D01*
X372586Y76183D01*
X372811Y76108D01*
X373036Y76008D01*
X373261Y75896D01*
X373473Y75771D01*
X373686Y75621D01*
X373886Y75446D01*
X373898Y75434D01*
X373936Y75396D01*
X373986Y75346D01*
X374048Y75271D01*
X374123Y75184D01*
X374211Y75059D01*
X374298Y74934D01*
X374398Y74784D01*
X374498Y74621D01*
X374585Y74434D01*
X374673Y74246D01*
X374748Y74034D01*
X374810Y73809D01*
X374873Y73572D01*
X374898Y73334D01*
X374911Y73072D01*
Y73059D01*
Y73034D01*
Y72984D01*
X374898Y72922D01*
Y72847D01*
X374885Y72747D01*
X374848Y72534D01*
X374798Y72297D01*
X374711Y72034D01*
X374598Y71772D01*
X374436Y71509D01*
Y71497D01*
X374411Y71484D01*
X374348Y71397D01*
X374236Y71285D01*
X374086Y71135D01*
X373886Y70972D01*
X373648Y70810D01*
X373361Y70647D01*
X373023Y70497D01*
X373036D01*
X373073Y70485D01*
X373136Y70460D01*
X373211Y70422D01*
X373311Y70385D01*
X373423Y70335D01*
X373686Y70197D01*
X373973Y70022D01*
X374273Y69810D01*
X374561Y69560D01*
X374686Y69410D01*
X374810Y69260D01*
X374823Y69248D01*
X374836Y69223D01*
X374873Y69173D01*
X374911Y69110D01*
X374960Y69023D01*
X375010Y68935D01*
X375060Y68810D01*
X375123Y68685D01*
X375185Y68548D01*
X375235Y68385D01*
X375335Y68048D01*
X375410Y67648D01*
X375423Y67448D01*
X375435Y67223D01*
Y67211D01*
Y67148D01*
X375423Y67061D01*
Y66948D01*
X375398Y66811D01*
X375373Y66648D01*
X375335Y66461D01*
X375285Y66261D01*
X375223Y66048D01*
X375148Y65823D01*
X375060Y65599D01*
X374948Y65361D01*
X374810Y65124D01*
X374660Y64899D01*
X374473Y64674D01*
X374273Y64461D01*
X374261Y64449D01*
X374223Y64411D01*
X374148Y64361D01*
X374061Y64286D01*
X373948Y64199D01*
X373811Y64111D01*
X373636Y64012D01*
X373461Y63911D01*
X373248Y63799D01*
X373011Y63699D01*
X372761Y63612D01*
X372486Y63524D01*
X372199Y63449D01*
X371886Y63399D01*
X371561Y63362D01*
X371211Y63349D01*
X371124D01*
X371024Y63362D01*
X370899D01*
X370737Y63387D01*
X370549Y63412D01*
X370337Y63437D01*
X370112Y63487D01*
X369874Y63549D01*
X369624Y63624D01*
X369374Y63712D01*
X369124Y63824D01*
X368862Y63949D01*
X368612Y64099D01*
X368375Y64261D01*
X368150Y64461D01*
X368137Y64474D01*
X368100Y64511D01*
X368050Y64574D01*
X367975Y64661D01*
X367887Y64774D01*
X367787Y64911D01*
X367687Y65061D01*
X367575Y65236D01*
X367462Y65424D01*
X367362Y65636D01*
X367262Y65873D01*
X367175Y66123D01*
X367112Y66386D01*
X367050Y66661D01*
X367012Y66948D01*
X367000Y67261D01*
Y67273D01*
Y67311D01*
Y67386D01*
X367012Y67473D01*
X367025Y67573D01*
X367038Y67698D01*
X367050Y67835D01*
X367075Y67985D01*
X367150Y68323D01*
X367262Y68673D01*
X367337Y68848D01*
X367425Y69023D01*
X367512Y69185D01*
X367625Y69348D01*
X367637Y69360D01*
X367650Y69385D01*
X367687Y69423D01*
X367737Y69485D01*
X367812Y69560D01*
X367887Y69635D01*
X367987Y69722D01*
X368087Y69810D01*
X368212Y69910D01*
X368350Y69997D01*
X368500Y70097D01*
X368662Y70197D01*
X368837Y70285D01*
X369025Y70360D01*
X369224Y70435D01*
X369437Y70497D01*
X369424D01*
X369399Y70510D01*
X369337Y70535D01*
X369274Y70560D01*
X369199Y70597D01*
X369099Y70647D01*
X368887Y70760D01*
X368650Y70910D01*
X368400Y71085D01*
X368175Y71285D01*
X367975Y71522D01*
Y71535D01*
X367950Y71547D01*
X367937Y71585D01*
X367900Y71634D01*
X367862Y71709D01*
X367825Y71785D01*
X367750Y71972D01*
X367662Y72197D01*
X367587Y72472D01*
X367537Y72772D01*
X367512Y73109D01*
Y73122D01*
Y73172D01*
X367525Y73247D01*
Y73347D01*
X367537Y73459D01*
X367562Y73597D01*
X367600Y73759D01*
X367637Y73934D01*
X367687Y74109D01*
X367762Y74296D01*
X367837Y74496D01*
X367937Y74696D01*
X368050Y74884D01*
X368187Y75084D01*
X368337Y75271D01*
X368512Y75458D01*
X368525Y75471D01*
X368562Y75496D01*
X368612Y75546D01*
X368699Y75609D01*
X368800Y75683D01*
X368912Y75758D01*
X369062Y75846D01*
X369224Y75946D01*
X369399Y76033D01*
X369599Y76121D01*
X369824Y76196D01*
X370062Y76271D01*
X370324Y76333D01*
X370587Y76383D01*
X370886Y76408D01*
X371186Y76421D01*
X371349D01*
X371461Y76408D01*
D02*
G37*
G36*
X252533Y47000D02*
X251353D01*
Y54507D01*
X251343D01*
X251334Y54489D01*
X251306Y54470D01*
X251278Y54442D01*
X251184Y54358D01*
X251053Y54254D01*
X250893Y54133D01*
X250697Y53992D01*
X250471Y53842D01*
X250228Y53692D01*
X250218D01*
X250200Y53673D01*
X250162Y53655D01*
X250115Y53626D01*
X250050Y53589D01*
X249984Y53552D01*
X249815Y53467D01*
X249628Y53373D01*
X249422Y53270D01*
X249206Y53177D01*
X249000Y53092D01*
Y54226D01*
X249009Y54236D01*
X249047Y54245D01*
X249094Y54273D01*
X249169Y54311D01*
X249253Y54358D01*
X249347Y54414D01*
X249459Y54470D01*
X249581Y54545D01*
X249853Y54704D01*
X250144Y54901D01*
X250434Y55117D01*
X250725Y55351D01*
X250734Y55360D01*
X250753Y55379D01*
X250800Y55417D01*
X250846Y55464D01*
X250903Y55529D01*
X250978Y55595D01*
X251053Y55679D01*
X251137Y55763D01*
X251306Y55960D01*
X251474Y56176D01*
X251634Y56410D01*
X251709Y56523D01*
X251765Y56644D01*
X252533D01*
Y47000D01*
D02*
G37*
G36*
X185711Y198000D02*
X184137D01*
Y208010D01*
X184124D01*
X184112Y207985D01*
X184074Y207960D01*
X184037Y207922D01*
X183912Y207810D01*
X183737Y207673D01*
X183524Y207510D01*
X183262Y207323D01*
X182962Y207123D01*
X182637Y206923D01*
X182625D01*
X182600Y206898D01*
X182550Y206873D01*
X182487Y206835D01*
X182400Y206785D01*
X182312Y206735D01*
X182087Y206623D01*
X181837Y206498D01*
X181562Y206360D01*
X181275Y206235D01*
X181000Y206123D01*
Y207635D01*
X181012Y207647D01*
X181063Y207660D01*
X181125Y207698D01*
X181225Y207747D01*
X181337Y207810D01*
X181462Y207885D01*
X181612Y207960D01*
X181775Y208060D01*
X182137Y208272D01*
X182525Y208535D01*
X182912Y208822D01*
X183299Y209135D01*
X183312Y209147D01*
X183337Y209172D01*
X183399Y209222D01*
X183462Y209285D01*
X183537Y209372D01*
X183637Y209460D01*
X183737Y209572D01*
X183849Y209685D01*
X184074Y209947D01*
X184299Y210234D01*
X184512Y210547D01*
X184612Y210697D01*
X184687Y210859D01*
X185711D01*
Y198000D01*
D02*
G37*
%LPC*%
G36*
X359211Y209785D02*
X359124D01*
X359061Y209772D01*
X358986D01*
X358886Y209760D01*
X358686Y209709D01*
X358449Y209647D01*
X358199Y209535D01*
X357949Y209397D01*
X357824Y209297D01*
X357712Y209197D01*
Y209185D01*
X357687Y209172D01*
X357624Y209097D01*
X357524Y208972D01*
X357424Y208810D01*
X357312Y208610D01*
X357212Y208372D01*
X357149Y208110D01*
X357137Y207973D01*
X357124Y207822D01*
Y207810D01*
Y207785D01*
Y207735D01*
X357137Y207673D01*
Y207598D01*
X357149Y207510D01*
X357199Y207298D01*
X357262Y207060D01*
X357362Y206810D01*
X357512Y206560D01*
X357599Y206448D01*
X357699Y206335D01*
X357712D01*
X357724Y206310D01*
X357762Y206285D01*
X357812Y206248D01*
X357937Y206148D01*
X358111Y206048D01*
X358324Y205948D01*
X358586Y205848D01*
X358886Y205786D01*
X359049Y205773D01*
X359224Y205760D01*
X359311D01*
X359374Y205773D01*
X359449D01*
X359549Y205786D01*
X359749Y205835D01*
X359986Y205898D01*
X360236Y205998D01*
X360486Y206135D01*
X360598Y206223D01*
X360711Y206323D01*
X360723Y206335D01*
X360736Y206348D01*
X360761Y206385D01*
X360798Y206423D01*
X360898Y206548D01*
X361011Y206710D01*
X361111Y206923D01*
X361211Y207160D01*
X361273Y207435D01*
X361298Y207585D01*
Y207735D01*
Y207747D01*
Y207773D01*
Y207822D01*
X361286Y207885D01*
Y207948D01*
X361273Y208035D01*
X361223Y208235D01*
X361148Y208472D01*
X361048Y208710D01*
X360898Y208960D01*
X360798Y209072D01*
X360698Y209185D01*
X360686Y209197D01*
X360673Y209210D01*
X360636Y209235D01*
X360586Y209285D01*
X360461Y209372D01*
X360286Y209485D01*
X360074Y209597D01*
X359824Y209697D01*
X359536Y209760D01*
X359374Y209772D01*
X359211Y209785D01*
D02*
G37*
G36*
X359174Y204473D02*
X359061D01*
X358986Y204461D01*
X358899Y204448D01*
X358786Y204436D01*
X358661Y204411D01*
X358524Y204386D01*
X358237Y204298D01*
X358087Y204236D01*
X357924Y204161D01*
X357774Y204074D01*
X357624Y203986D01*
X357474Y203861D01*
X357337Y203736D01*
X357324Y203724D01*
X357312Y203699D01*
X357274Y203661D01*
X357224Y203599D01*
X357174Y203536D01*
X357112Y203449D01*
X357037Y203349D01*
X356974Y203236D01*
X356912Y203099D01*
X356837Y202961D01*
X356724Y202649D01*
X356674Y202474D01*
X356649Y202299D01*
X356624Y202099D01*
X356612Y201899D01*
Y201887D01*
Y201874D01*
Y201836D01*
Y201786D01*
X356624Y201649D01*
X356649Y201487D01*
X356687Y201287D01*
X356749Y201062D01*
X356824Y200837D01*
X356924Y200599D01*
Y200587D01*
X356937Y200574D01*
X356987Y200499D01*
X357062Y200387D01*
X357162Y200249D01*
X357287Y200087D01*
X357449Y199925D01*
X357637Y199762D01*
X357862Y199625D01*
X357874D01*
X357887Y199612D01*
X357924Y199600D01*
X357974Y199575D01*
X358099Y199512D01*
X358274Y199462D01*
X358474Y199400D01*
X358711Y199337D01*
X358961Y199300D01*
X359224Y199287D01*
X359336D01*
X359411Y199300D01*
X359511Y199312D01*
X359624Y199325D01*
X359749Y199350D01*
X359886Y199375D01*
X360173Y199462D01*
X360336Y199525D01*
X360486Y199587D01*
X360648Y199675D01*
X360798Y199762D01*
X360948Y199874D01*
X361086Y200000D01*
X361098Y200012D01*
X361123Y200037D01*
X361148Y200075D01*
X361198Y200137D01*
X361261Y200199D01*
X361323Y200287D01*
X361386Y200387D01*
X361461Y200499D01*
X361523Y200624D01*
X361586Y200774D01*
X361711Y201087D01*
X361761Y201262D01*
X361786Y201449D01*
X361811Y201649D01*
X361823Y201849D01*
Y201861D01*
Y201899D01*
Y201961D01*
X361811Y202036D01*
X361798Y202136D01*
X361786Y202249D01*
X361761Y202374D01*
X361723Y202511D01*
X361636Y202811D01*
X361573Y202961D01*
X361498Y203124D01*
X361411Y203274D01*
X361311Y203436D01*
X361198Y203586D01*
X361061Y203724D01*
X361048Y203736D01*
X361023Y203761D01*
X360986Y203799D01*
X360923Y203836D01*
X360848Y203899D01*
X360761Y203961D01*
X360661Y204023D01*
X360548Y204098D01*
X360411Y204173D01*
X360273Y204236D01*
X359949Y204361D01*
X359774Y204398D01*
X359586Y204436D01*
X359386Y204461D01*
X359174Y204473D01*
D02*
G37*
G36*
X308792Y205136D02*
X308692D01*
X308617Y205123D01*
X308529Y205111D01*
X308417Y205098D01*
X308304Y205073D01*
X308167Y205036D01*
X307892Y204948D01*
X307742Y204886D01*
X307580Y204811D01*
X307430Y204723D01*
X307280Y204611D01*
X307130Y204498D01*
X306992Y204361D01*
X306980Y204348D01*
X306955Y204323D01*
X306930Y204286D01*
X306880Y204223D01*
X306817Y204148D01*
X306755Y204061D01*
X306692Y203948D01*
X306630Y203824D01*
X306555Y203686D01*
X306492Y203536D01*
X306430Y203374D01*
X306367Y203199D01*
X306317Y203011D01*
X306292Y202799D01*
X306268Y202586D01*
X306255Y202361D01*
Y202349D01*
Y202324D01*
Y202286D01*
Y202224D01*
X306268Y202149D01*
Y202062D01*
X306292Y201861D01*
X306342Y201624D01*
X306392Y201362D01*
X306480Y201087D01*
X306592Y200799D01*
Y200787D01*
X306605Y200762D01*
X306630Y200724D01*
X306655Y200674D01*
X306730Y200549D01*
X306842Y200387D01*
X306980Y200199D01*
X307142Y200012D01*
X307342Y199837D01*
X307555Y199675D01*
X307567D01*
X307580Y199662D01*
X307617Y199637D01*
X307667Y199612D01*
X307780Y199550D01*
X307942Y199487D01*
X308142Y199412D01*
X308367Y199350D01*
X308604Y199300D01*
X308854Y199287D01*
X308954D01*
X309017Y199300D01*
X309104Y199312D01*
X309204Y199325D01*
X309442Y199387D01*
X309717Y199487D01*
X309854Y199550D01*
X310004Y199625D01*
X310142Y199712D01*
X310291Y199825D01*
X310429Y199949D01*
X310566Y200087D01*
X310579Y200100D01*
X310604Y200124D01*
X310629Y200175D01*
X310679Y200237D01*
X310729Y200312D01*
X310791Y200412D01*
X310866Y200524D01*
X310929Y200662D01*
X310991Y200812D01*
X311066Y200974D01*
X311129Y201149D01*
X311179Y201349D01*
X311229Y201562D01*
X311266Y201786D01*
X311279Y202024D01*
X311291Y202274D01*
Y202286D01*
Y202336D01*
Y202399D01*
X311279Y202499D01*
X311266Y202599D01*
X311254Y202736D01*
X311229Y202874D01*
X311204Y203036D01*
X311116Y203361D01*
X311066Y203536D01*
X310991Y203711D01*
X310904Y203886D01*
X310816Y204049D01*
X310704Y204211D01*
X310579Y204361D01*
X310566Y204373D01*
X310541Y204398D01*
X310504Y204436D01*
X310454Y204486D01*
X310379Y204536D01*
X310304Y204611D01*
X310204Y204673D01*
X310091Y204748D01*
X309967Y204823D01*
X309841Y204886D01*
X309529Y205011D01*
X309367Y205061D01*
X309179Y205098D01*
X308992Y205123D01*
X308792Y205136D01*
D02*
G37*
G36*
X327309Y152312D02*
X321059Y151999D01*
X320746D01*
X320434Y151687D01*
X320121Y151374D01*
Y135750D01*
X320434Y135437D01*
X327934D01*
X329809Y135750D01*
X331684Y136375D01*
X333871Y137937D01*
X334184Y138562D01*
X335121Y139812D01*
X336059Y141687D01*
X336371Y144187D01*
Y144500D01*
Y144812D01*
X336059Y146062D01*
X335434Y147937D01*
X333871Y149812D01*
X333559Y150125D01*
X331996Y151062D01*
X330121Y151999D01*
X327309Y152312D01*
D02*
G37*
G36*
X223873D02*
X216998Y151999D01*
X216685D01*
X216373Y151687D01*
X216060Y151374D01*
Y135750D01*
X216373D01*
X216685Y135437D01*
X224498D01*
X226060Y135750D01*
X227935Y136375D01*
X229810Y137937D01*
X230123Y138562D01*
X231060Y139812D01*
X231998Y141687D01*
X232310Y144187D01*
Y144500D01*
Y144812D01*
X231998Y146062D01*
X231373Y147937D01*
X229810Y149812D01*
X229498Y150125D01*
X228248Y151062D01*
X226373Y151999D01*
X223873Y152312D01*
D02*
G37*
G36*
X425745Y150125D02*
X425433D01*
X425120Y149500D01*
X420120Y128875D01*
Y128562D01*
X420433Y128250D01*
X420745Y127937D01*
X430433D01*
X430745Y128250D01*
X430433Y128875D01*
X426058Y149500D01*
Y149812D01*
X425745Y150125D01*
D02*
G37*
G36*
X288159Y55838D02*
X288093D01*
X288046Y55829D01*
X287990D01*
X287915Y55820D01*
X287765Y55782D01*
X287587Y55735D01*
X287399Y55651D01*
X287212Y55548D01*
X287118Y55473D01*
X287034Y55398D01*
Y55388D01*
X287015Y55379D01*
X286968Y55323D01*
X286893Y55229D01*
X286818Y55107D01*
X286734Y54957D01*
X286659Y54779D01*
X286612Y54582D01*
X286603Y54479D01*
X286593Y54367D01*
Y54358D01*
Y54339D01*
Y54301D01*
X286603Y54254D01*
Y54198D01*
X286612Y54133D01*
X286650Y53973D01*
X286696Y53795D01*
X286771Y53608D01*
X286884Y53420D01*
X286950Y53336D01*
X287024Y53252D01*
X287034D01*
X287043Y53233D01*
X287071Y53214D01*
X287109Y53186D01*
X287202Y53111D01*
X287334Y53036D01*
X287493Y52961D01*
X287690Y52886D01*
X287915Y52839D01*
X288037Y52830D01*
X288168Y52820D01*
X288234D01*
X288280Y52830D01*
X288337D01*
X288412Y52839D01*
X288562Y52877D01*
X288740Y52923D01*
X288927Y52998D01*
X289115Y53102D01*
X289199Y53167D01*
X289283Y53242D01*
X289293Y53252D01*
X289302Y53261D01*
X289321Y53289D01*
X289349Y53317D01*
X289424Y53411D01*
X289508Y53533D01*
X289583Y53692D01*
X289658Y53870D01*
X289705Y54076D01*
X289724Y54189D01*
Y54301D01*
Y54311D01*
Y54329D01*
Y54367D01*
X289714Y54414D01*
Y54461D01*
X289705Y54526D01*
X289667Y54676D01*
X289611Y54854D01*
X289536Y55032D01*
X289424Y55220D01*
X289349Y55304D01*
X289274Y55388D01*
X289265Y55398D01*
X289255Y55407D01*
X289227Y55426D01*
X289189Y55464D01*
X289096Y55529D01*
X288965Y55613D01*
X288805Y55698D01*
X288618Y55773D01*
X288402Y55820D01*
X288280Y55829D01*
X288159Y55838D01*
D02*
G37*
G36*
X288130Y51855D02*
X288046D01*
X287990Y51846D01*
X287924Y51836D01*
X287840Y51827D01*
X287746Y51808D01*
X287643Y51789D01*
X287428Y51724D01*
X287315Y51677D01*
X287193Y51621D01*
X287081Y51555D01*
X286968Y51490D01*
X286856Y51396D01*
X286753Y51302D01*
X286743Y51293D01*
X286734Y51274D01*
X286706Y51246D01*
X286668Y51199D01*
X286631Y51152D01*
X286584Y51087D01*
X286528Y51012D01*
X286481Y50927D01*
X286434Y50824D01*
X286378Y50721D01*
X286293Y50487D01*
X286256Y50355D01*
X286237Y50224D01*
X286218Y50074D01*
X286209Y49924D01*
Y49915D01*
Y49906D01*
Y49877D01*
Y49840D01*
X286218Y49737D01*
X286237Y49615D01*
X286265Y49465D01*
X286312Y49296D01*
X286368Y49128D01*
X286443Y48949D01*
Y48940D01*
X286453Y48931D01*
X286490Y48875D01*
X286546Y48790D01*
X286621Y48687D01*
X286715Y48565D01*
X286837Y48443D01*
X286978Y48321D01*
X287146Y48218D01*
X287156D01*
X287165Y48209D01*
X287193Y48200D01*
X287231Y48181D01*
X287324Y48134D01*
X287456Y48097D01*
X287606Y48050D01*
X287784Y48003D01*
X287971Y47975D01*
X288168Y47965D01*
X288252D01*
X288309Y47975D01*
X288384Y47984D01*
X288468Y47993D01*
X288562Y48012D01*
X288665Y48031D01*
X288880Y48097D01*
X289002Y48144D01*
X289115Y48190D01*
X289236Y48256D01*
X289349Y48321D01*
X289461Y48406D01*
X289564Y48500D01*
X289574Y48509D01*
X289593Y48528D01*
X289611Y48556D01*
X289649Y48603D01*
X289696Y48650D01*
X289743Y48715D01*
X289789Y48790D01*
X289846Y48875D01*
X289893Y48968D01*
X289939Y49081D01*
X290033Y49315D01*
X290071Y49446D01*
X290089Y49587D01*
X290108Y49737D01*
X290117Y49887D01*
Y49896D01*
Y49924D01*
Y49971D01*
X290108Y50027D01*
X290099Y50102D01*
X290089Y50187D01*
X290071Y50280D01*
X290042Y50384D01*
X289977Y50609D01*
X289930Y50721D01*
X289874Y50843D01*
X289808Y50955D01*
X289733Y51077D01*
X289649Y51190D01*
X289546Y51293D01*
X289536Y51302D01*
X289518Y51321D01*
X289489Y51349D01*
X289443Y51377D01*
X289386Y51424D01*
X289321Y51471D01*
X289246Y51518D01*
X289161Y51574D01*
X289058Y51630D01*
X288955Y51677D01*
X288711Y51771D01*
X288580Y51799D01*
X288440Y51827D01*
X288290Y51846D01*
X288130Y51855D01*
D02*
G37*
G36*
X258835Y208285D02*
X254811Y202499D01*
X258835D01*
Y208285D01*
D02*
G37*
G36*
X441456Y36510D02*
X438657Y36510D01*
Y32636D01*
X441693Y32636D01*
X441806Y32648D01*
X442043D01*
X442306Y32673D01*
X442568Y32698D01*
X442818Y32723D01*
X442930Y32748D01*
X443031Y32773D01*
X443043D01*
X443055Y32785D01*
X443130Y32810D01*
X443256Y32861D01*
X443393Y32923D01*
X443543Y33023D01*
X443705Y33123D01*
X443855Y33260D01*
X443993Y33410D01*
X444005Y33435D01*
X444043Y33498D01*
X444105Y33585D01*
X444168Y33723D01*
X444218Y33885D01*
X444280Y34073D01*
X444318Y34298D01*
X444330Y34535D01*
Y34548D01*
Y34560D01*
Y34598D01*
Y34648D01*
X444318Y34760D01*
X444293Y34910D01*
X444255Y35085D01*
X444193Y35285D01*
X444118Y35472D01*
X444018Y35660D01*
X444005Y35685D01*
X443968Y35735D01*
X443893Y35822D01*
X443793Y35922D01*
X443668Y36035D01*
X443518Y36147D01*
X443343Y36247D01*
X443143Y36322D01*
X443130D01*
X443118Y36335D01*
X443080D01*
X443031Y36347D01*
X442968Y36372D01*
X442893Y36385D01*
X442806Y36397D01*
X442693Y36422D01*
X442568Y36435D01*
X442418Y36447D01*
X442268Y36472D01*
X442093Y36485D01*
X441893Y36497D01*
X441681D01*
X441456Y36510D01*
D02*
G37*
G36*
X441831Y31123D02*
X438657Y31123D01*
Y26725D01*
X442118Y26725D01*
X442293Y26737D01*
X442481D01*
X442681Y26750D01*
X442856Y26762D01*
X442993Y26775D01*
X443018D01*
X443093Y26800D01*
X443205Y26825D01*
X443330Y26862D01*
X443493Y26912D01*
X443655Y26974D01*
X443818Y27037D01*
X443968Y27125D01*
X443980Y27137D01*
X444030Y27174D01*
X444105Y27225D01*
X444205Y27312D01*
X444305Y27412D01*
X444405Y27537D01*
X444518Y27674D01*
X444618Y27837D01*
X444630Y27862D01*
X444655Y27924D01*
X444705Y28024D01*
X444755Y28149D01*
X444793Y28312D01*
X444842Y28499D01*
X444868Y28699D01*
X444880Y28924D01*
Y28937D01*
Y28962D01*
Y28999D01*
Y29049D01*
X444855Y29174D01*
X444830Y29349D01*
X444780Y29536D01*
X444718Y29749D01*
X444618Y29961D01*
X444493Y30161D01*
X444480Y30186D01*
X444430Y30249D01*
X444343Y30336D01*
X444230Y30449D01*
X444080Y30574D01*
X443905Y30699D01*
X443693Y30811D01*
X443468Y30898D01*
X443455D01*
X443443Y30911D01*
X443405Y30924D01*
X443355Y30936D01*
X443280Y30949D01*
X443205Y30973D01*
X443106Y30986D01*
X442993Y31011D01*
X442868Y31036D01*
X442731Y31049D01*
X442581Y31074D01*
X442418Y31086D01*
X442231Y31098D01*
X442043Y31111D01*
X441831Y31123D01*
D02*
G37*
G36*
X454578Y36785D02*
X454503D01*
X454403Y36772D01*
X454278Y36760D01*
X454115Y36747D01*
X453940Y36722D01*
X453740Y36685D01*
X453515Y36635D01*
X453278Y36560D01*
X453028Y36485D01*
X452778Y36385D01*
X452516Y36260D01*
X452253Y36122D01*
X451991Y35960D01*
X451728Y35760D01*
X451478Y35547D01*
X451466Y35535D01*
X451428Y35485D01*
X451366Y35410D01*
X451278Y35310D01*
X451178Y35172D01*
X451066Y35010D01*
X450953Y34797D01*
X450841Y34573D01*
X450716Y34298D01*
X450604Y33998D01*
X450491Y33660D01*
X450391Y33285D01*
X450316Y32873D01*
X450241Y32436D01*
X450204Y31948D01*
X450191Y31423D01*
Y31411D01*
Y31398D01*
Y31323D01*
X450204Y31198D01*
X450216Y31036D01*
X450229Y30849D01*
X450254Y30624D01*
X450291Y30374D01*
X450341Y30099D01*
X450416Y29811D01*
X450491Y29511D01*
X450591Y29211D01*
X450716Y28911D01*
X450854Y28612D01*
X451016Y28312D01*
X451216Y28037D01*
X451428Y27774D01*
X451441Y27762D01*
X451491Y27712D01*
X451553Y27649D01*
X451653Y27562D01*
X451778Y27462D01*
X451928Y27349D01*
X452091Y27237D01*
X452291Y27112D01*
X452503Y26987D01*
X452741Y26874D01*
X453003Y26762D01*
X453278Y26662D01*
X453565Y26575D01*
X453878Y26512D01*
X454215Y26462D01*
X454553Y26450D01*
X454640D01*
X454740Y26462D01*
X454878Y26475D01*
X455040Y26487D01*
X455227Y26525D01*
X455440Y26562D01*
X455665Y26612D01*
X455915Y26687D01*
X456165Y26775D01*
X456427Y26887D01*
X456702Y27012D01*
X456964Y27162D01*
X457227Y27349D01*
X457477Y27549D01*
X457714Y27787D01*
X457727Y27799D01*
X457764Y27849D01*
X457827Y27924D01*
X457914Y28037D01*
X458002Y28174D01*
X458102Y28349D01*
X458214Y28537D01*
X458339Y28774D01*
X458452Y29024D01*
X458564Y29311D01*
X458664Y29624D01*
X458764Y29961D01*
X458839Y30336D01*
X458901Y30724D01*
X458939Y31149D01*
X458951Y31598D01*
Y31611D01*
Y31673D01*
Y31748D01*
X458939Y31861D01*
Y31998D01*
X458926Y32148D01*
X458901Y32336D01*
X458889Y32523D01*
X458852Y32736D01*
X458826Y32948D01*
X458727Y33410D01*
X458589Y33873D01*
X458514Y34098D01*
X458414Y34323D01*
Y34335D01*
X458389Y34373D01*
X458364Y34435D01*
X458314Y34523D01*
X458264Y34610D01*
X458189Y34722D01*
X458027Y34985D01*
X457802Y35285D01*
X457539Y35585D01*
X457227Y35872D01*
X457052Y36010D01*
X456865Y36135D01*
X456852Y36147D01*
X456814Y36160D01*
X456764Y36197D01*
X456689Y36235D01*
X456590Y36285D01*
X456477Y36335D01*
X456352Y36397D01*
X456202Y36460D01*
X456040Y36522D01*
X455865Y36585D01*
X455677Y36635D01*
X455477Y36685D01*
X455040Y36760D01*
X454815Y36772D01*
X454578Y36785D01*
D02*
G37*
G36*
X384858Y36772D02*
X384758D01*
X384683Y36760D01*
X384583Y36747D01*
X384483Y36722D01*
X384233Y36660D01*
X384096Y36609D01*
X383958Y36547D01*
X383808Y36472D01*
X383671Y36385D01*
X383521Y36272D01*
X383383Y36147D01*
X383246Y36010D01*
X383121Y35847D01*
X383108Y35835D01*
X383083Y35797D01*
X383046Y35722D01*
X382996Y35610D01*
X382933Y35485D01*
X382871Y35310D01*
X382796Y35110D01*
X382721Y34873D01*
X382646Y34585D01*
X382571Y34273D01*
X382509Y33923D01*
X382446Y33523D01*
X382396Y33098D01*
X382359Y32611D01*
X382334Y32086D01*
X382321Y31523D01*
Y31511D01*
Y31486D01*
Y31448D01*
Y31386D01*
Y31311D01*
Y31223D01*
X382334Y31123D01*
Y31011D01*
X382346Y30761D01*
X382359Y30474D01*
X382383Y30149D01*
X382408Y29811D01*
X382496Y29111D01*
X382559Y28761D01*
X382634Y28424D01*
X382721Y28099D01*
X382821Y27799D01*
X382933Y27537D01*
X383058Y27324D01*
X383071Y27312D01*
X383096Y27274D01*
X383133Y27224D01*
X383196Y27162D01*
X383258Y27087D01*
X383346Y26999D01*
X383446Y26899D01*
X383558Y26812D01*
X383696Y26712D01*
X383833Y26612D01*
X384146Y26450D01*
X384308Y26387D01*
X384496Y26337D01*
X384683Y26300D01*
X384883Y26287D01*
X384933D01*
X384983Y26300D01*
X385058D01*
X385158Y26325D01*
X385258Y26337D01*
X385383Y26375D01*
X385508Y26412D01*
X385658Y26475D01*
X385795Y26537D01*
X385945Y26625D01*
X386095Y26725D01*
X386258Y26850D01*
X386408Y26987D01*
X386558Y27137D01*
X386695Y27324D01*
X386707Y27337D01*
X386732Y27374D01*
X386770Y27437D01*
X386807Y27537D01*
X386870Y27662D01*
X386932Y27824D01*
X386995Y28012D01*
X387070Y28249D01*
X387145Y28512D01*
X387207Y28812D01*
X387270Y29149D01*
X387332Y29536D01*
X387370Y29961D01*
X387407Y30436D01*
X387432Y30961D01*
X387445Y31523D01*
Y31536D01*
Y31561D01*
Y31598D01*
Y31661D01*
Y31736D01*
Y31823D01*
X387432Y31923D01*
Y32036D01*
X387420Y32286D01*
X387407Y32573D01*
X387382Y32898D01*
X387357Y33235D01*
X387270Y33935D01*
X387207Y34285D01*
X387132Y34635D01*
X387045Y34948D01*
X386957Y35247D01*
X386832Y35510D01*
X386707Y35722D01*
X386695Y35735D01*
X386670Y35772D01*
X386632Y35822D01*
X386570Y35885D01*
X386507Y35972D01*
X386420Y36060D01*
X386320Y36147D01*
X386195Y36247D01*
X386070Y36347D01*
X385933Y36435D01*
X385620Y36609D01*
X385445Y36672D01*
X385258Y36722D01*
X385058Y36760D01*
X384858Y36772D01*
D02*
G37*
G36*
X468461Y55678D02*
X464787D01*
Y51105D01*
X468249D01*
X468362Y51117D01*
X468499D01*
X468649Y51142D01*
X468824Y51155D01*
X468999Y51180D01*
X469386Y51255D01*
X469774Y51354D01*
X469949Y51430D01*
X470124Y51505D01*
X470286Y51604D01*
X470424Y51704D01*
X470436Y51717D01*
X470448Y51729D01*
X470486Y51767D01*
X470536Y51817D01*
X470586Y51879D01*
X470648Y51954D01*
X470711Y52042D01*
X470773Y52154D01*
X470836Y52267D01*
X470898Y52392D01*
X470961Y52542D01*
X471011Y52692D01*
X471098Y53042D01*
X471111Y53229D01*
X471123Y53429D01*
Y53442D01*
Y53467D01*
Y53504D01*
Y53566D01*
X471111Y53629D01*
X471098Y53716D01*
X471073Y53904D01*
X471023Y54116D01*
X470948Y54341D01*
X470848Y54579D01*
X470711Y54804D01*
Y54816D01*
X470698Y54829D01*
X470636Y54891D01*
X470549Y54991D01*
X470424Y55116D01*
X470274Y55241D01*
X470086Y55366D01*
X469874Y55466D01*
X469636Y55553D01*
X469611D01*
X469549Y55578D01*
X469499D01*
X469436Y55591D01*
X469361Y55603D01*
X469286Y55616D01*
X469174Y55628D01*
X469061Y55641D01*
X468936Y55653D01*
X468799D01*
X468637Y55666D01*
X468461Y55678D01*
D02*
G37*
G36*
X454790Y55953D02*
X454715D01*
X454615Y55941D01*
X454490Y55928D01*
X454328Y55916D01*
X454153Y55891D01*
X453953Y55853D01*
X453728Y55803D01*
X453490Y55728D01*
X453240Y55653D01*
X452990Y55553D01*
X452728Y55429D01*
X452466Y55291D01*
X452203Y55128D01*
X451941Y54929D01*
X451691Y54716D01*
X451678Y54704D01*
X451641Y54654D01*
X451578Y54579D01*
X451491Y54479D01*
X451391Y54341D01*
X451278Y54179D01*
X451166Y53966D01*
X451054Y53741D01*
X450928Y53467D01*
X450816Y53166D01*
X450704Y52829D01*
X450604Y52454D01*
X450529Y52042D01*
X450454Y51604D01*
X450416Y51117D01*
X450404Y50592D01*
Y50580D01*
Y50567D01*
Y50492D01*
X450416Y50367D01*
X450429Y50205D01*
X450441Y50017D01*
X450466Y49792D01*
X450504Y49542D01*
X450554Y49268D01*
X450629Y48980D01*
X450704Y48680D01*
X450803Y48380D01*
X450928Y48080D01*
X451066Y47780D01*
X451228Y47481D01*
X451428Y47206D01*
X451641Y46943D01*
X451653Y46931D01*
X451703Y46881D01*
X451766Y46818D01*
X451866Y46731D01*
X451991Y46631D01*
X452141Y46518D01*
X452303Y46406D01*
X452503Y46281D01*
X452715Y46156D01*
X452953Y46043D01*
X453215Y45931D01*
X453490Y45831D01*
X453778Y45743D01*
X454090Y45681D01*
X454428Y45631D01*
X454765Y45619D01*
X454852D01*
X454953Y45631D01*
X455090Y45644D01*
X455252Y45656D01*
X455440Y45693D01*
X455652Y45731D01*
X455877Y45781D01*
X456127Y45856D01*
X456377Y45943D01*
X456640Y46056D01*
X456914Y46181D01*
X457177Y46331D01*
X457439Y46518D01*
X457689Y46718D01*
X457927Y46956D01*
X457939Y46968D01*
X457977Y47018D01*
X458039Y47093D01*
X458127Y47206D01*
X458214Y47343D01*
X458314Y47518D01*
X458427Y47705D01*
X458551Y47943D01*
X458664Y48193D01*
X458777Y48480D01*
X458876Y48793D01*
X458976Y49130D01*
X459051Y49505D01*
X459114Y49892D01*
X459151Y50317D01*
X459164Y50767D01*
Y50780D01*
Y50842D01*
Y50917D01*
X459151Y51030D01*
Y51167D01*
X459139Y51317D01*
X459114Y51505D01*
X459101Y51692D01*
X459064Y51904D01*
X459039Y52117D01*
X458939Y52579D01*
X458801Y53042D01*
X458727Y53267D01*
X458627Y53492D01*
Y53504D01*
X458601Y53541D01*
X458577Y53604D01*
X458526Y53691D01*
X458477Y53779D01*
X458402Y53891D01*
X458239Y54154D01*
X458014Y54454D01*
X457752Y54754D01*
X457439Y55041D01*
X457264Y55178D01*
X457077Y55304D01*
X457064Y55316D01*
X457027Y55328D01*
X456977Y55366D01*
X456902Y55403D01*
X456802Y55454D01*
X456689Y55503D01*
X456564Y55566D01*
X456415Y55628D01*
X456252Y55691D01*
X456077Y55753D01*
X455890Y55803D01*
X455690Y55853D01*
X455252Y55928D01*
X455027Y55941D01*
X454790Y55953D01*
D02*
G37*
G36*
X371149Y55941D02*
X371049D01*
X370974Y55928D01*
X370874Y55916D01*
X370774Y55891D01*
X370524Y55828D01*
X370387Y55778D01*
X370249Y55716D01*
X370099Y55641D01*
X369962Y55553D01*
X369812Y55441D01*
X369674Y55316D01*
X369537Y55178D01*
X369412Y55016D01*
X369399Y55003D01*
X369374Y54966D01*
X369337Y54891D01*
X369287Y54779D01*
X369224Y54654D01*
X369162Y54479D01*
X369087Y54279D01*
X369012Y54041D01*
X368937Y53754D01*
X368862Y53441D01*
X368800Y53092D01*
X368737Y52692D01*
X368687Y52267D01*
X368650Y51779D01*
X368625Y51255D01*
X368612Y50692D01*
Y50680D01*
Y50655D01*
Y50617D01*
Y50555D01*
Y50480D01*
Y50392D01*
X368625Y50292D01*
Y50180D01*
X368637Y49930D01*
X368650Y49642D01*
X368675Y49317D01*
X368699Y48980D01*
X368787Y48280D01*
X368849Y47930D01*
X368924Y47593D01*
X369012Y47268D01*
X369112Y46968D01*
X369224Y46706D01*
X369349Y46493D01*
X369362Y46481D01*
X369387Y46443D01*
X369424Y46393D01*
X369487Y46331D01*
X369549Y46256D01*
X369637Y46168D01*
X369737Y46068D01*
X369849Y45981D01*
X369987Y45881D01*
X370124Y45781D01*
X370437Y45619D01*
X370599Y45556D01*
X370787Y45506D01*
X370974Y45469D01*
X371174Y45456D01*
X371224D01*
X371274Y45469D01*
X371349D01*
X371449Y45493D01*
X371549Y45506D01*
X371674Y45543D01*
X371799Y45581D01*
X371949Y45643D01*
X372086Y45706D01*
X372236Y45793D01*
X372386Y45893D01*
X372549Y46018D01*
X372699Y46156D01*
X372849Y46306D01*
X372986Y46493D01*
X372998Y46506D01*
X373023Y46543D01*
X373061Y46606D01*
X373098Y46706D01*
X373161Y46831D01*
X373223Y46993D01*
X373286Y47181D01*
X373361Y47418D01*
X373436Y47680D01*
X373498Y47980D01*
X373561Y48318D01*
X373623Y48705D01*
X373661Y49130D01*
X373698Y49605D01*
X373723Y50130D01*
X373736Y50692D01*
Y50705D01*
Y50730D01*
Y50767D01*
Y50830D01*
Y50905D01*
Y50992D01*
X373723Y51092D01*
Y51205D01*
X373711Y51455D01*
X373698Y51742D01*
X373673Y52067D01*
X373648Y52404D01*
X373561Y53104D01*
X373498Y53454D01*
X373423Y53804D01*
X373336Y54116D01*
X373248Y54416D01*
X373123Y54679D01*
X372998Y54891D01*
X372986Y54904D01*
X372961Y54941D01*
X372924Y54991D01*
X372861Y55054D01*
X372799Y55141D01*
X372711Y55229D01*
X372611Y55316D01*
X372486Y55416D01*
X372361Y55516D01*
X372224Y55603D01*
X371911Y55778D01*
X371736Y55841D01*
X371549Y55891D01*
X371349Y55928D01*
X371149Y55941D01*
D02*
G37*
G36*
X386345Y71822D02*
X386245D01*
X386170Y71810D01*
X386083Y71797D01*
X385983Y71772D01*
X385870Y71747D01*
X385745Y71709D01*
X385608Y71659D01*
X385470Y71585D01*
X385320Y71509D01*
X385170Y71422D01*
X385008Y71310D01*
X384858Y71185D01*
X384708Y71035D01*
X384558Y70872D01*
X384546Y70860D01*
X384520Y70835D01*
X384483Y70772D01*
X384445Y70697D01*
X384383Y70597D01*
X384320Y70485D01*
X384246Y70335D01*
X384183Y70185D01*
X384108Y69997D01*
X384033Y69798D01*
X383971Y69573D01*
X383921Y69323D01*
X383871Y69060D01*
X383833Y68773D01*
X383808Y68460D01*
X383796Y68135D01*
Y68110D01*
Y68060D01*
Y67960D01*
X383808Y67848D01*
X383821Y67698D01*
X383833Y67523D01*
X383858Y67336D01*
X383883Y67136D01*
X383971Y66698D01*
X384033Y66486D01*
X384108Y66261D01*
X384183Y66048D01*
X384283Y65848D01*
X384395Y65661D01*
X384520Y65486D01*
X384533Y65474D01*
X384558Y65449D01*
X384595Y65411D01*
X384646Y65349D01*
X384720Y65286D01*
X384808Y65224D01*
X384895Y65136D01*
X385008Y65061D01*
X385270Y64911D01*
X385570Y64774D01*
X385733Y64711D01*
X385895Y64674D01*
X386083Y64649D01*
X386270Y64636D01*
X386370D01*
X386445Y64649D01*
X386533Y64661D01*
X386645Y64686D01*
X386757Y64711D01*
X386895Y64749D01*
X387032Y64799D01*
X387170Y64849D01*
X387320Y64924D01*
X387470Y65011D01*
X387620Y65111D01*
X387782Y65236D01*
X387932Y65374D01*
X388070Y65524D01*
X388082Y65536D01*
X388107Y65561D01*
X388145Y65623D01*
X388182Y65686D01*
X388245Y65786D01*
X388307Y65898D01*
X388369Y66036D01*
X388445Y66198D01*
X388520Y66386D01*
X388582Y66586D01*
X388644Y66811D01*
X388707Y67061D01*
X388744Y67323D01*
X388782Y67623D01*
X388807Y67935D01*
X388819Y68273D01*
Y68298D01*
Y68348D01*
Y68448D01*
X388807Y68560D01*
X388794Y68710D01*
X388782Y68885D01*
X388757Y69073D01*
X388732Y69273D01*
X388644Y69697D01*
X388582Y69922D01*
X388507Y70147D01*
X388419Y70360D01*
X388332Y70560D01*
X388207Y70760D01*
X388082Y70935D01*
X388070Y70947D01*
X388045Y70972D01*
X388007Y71022D01*
X387957Y71072D01*
X387882Y71135D01*
X387795Y71210D01*
X387707Y71297D01*
X387595Y71385D01*
X387345Y71547D01*
X387045Y71684D01*
X386882Y71734D01*
X386707Y71785D01*
X386533Y71810D01*
X386345Y71822D01*
D02*
G37*
G36*
X371211Y75134D02*
X371124D01*
X371061Y75121D01*
X370987D01*
X370886Y75109D01*
X370686Y75059D01*
X370449Y74996D01*
X370199Y74884D01*
X369949Y74746D01*
X369824Y74646D01*
X369712Y74546D01*
Y74534D01*
X369687Y74521D01*
X369624Y74446D01*
X369524Y74321D01*
X369424Y74159D01*
X369312Y73959D01*
X369212Y73721D01*
X369149Y73459D01*
X369137Y73322D01*
X369124Y73172D01*
Y73159D01*
Y73134D01*
Y73084D01*
X369137Y73022D01*
Y72947D01*
X369149Y72859D01*
X369199Y72647D01*
X369262Y72409D01*
X369362Y72159D01*
X369512Y71909D01*
X369599Y71797D01*
X369699Y71684D01*
X369712D01*
X369724Y71659D01*
X369762Y71634D01*
X369812Y71597D01*
X369937Y71497D01*
X370112Y71397D01*
X370324Y71297D01*
X370587Y71197D01*
X370886Y71135D01*
X371049Y71122D01*
X371224Y71110D01*
X371311D01*
X371374Y71122D01*
X371449D01*
X371549Y71135D01*
X371749Y71185D01*
X371986Y71247D01*
X372236Y71347D01*
X372486Y71484D01*
X372598Y71572D01*
X372711Y71672D01*
X372724Y71684D01*
X372736Y71697D01*
X372761Y71734D01*
X372799Y71772D01*
X372898Y71897D01*
X373011Y72059D01*
X373111Y72272D01*
X373211Y72509D01*
X373273Y72784D01*
X373298Y72934D01*
Y73084D01*
Y73097D01*
Y73122D01*
Y73172D01*
X373286Y73234D01*
Y73297D01*
X373273Y73384D01*
X373223Y73584D01*
X373148Y73821D01*
X373048Y74059D01*
X372898Y74309D01*
X372799Y74421D01*
X372699Y74534D01*
X372686Y74546D01*
X372673Y74559D01*
X372636Y74584D01*
X372586Y74634D01*
X372461Y74721D01*
X372286Y74834D01*
X372074Y74946D01*
X371824Y75046D01*
X371536Y75109D01*
X371374Y75121D01*
X371211Y75134D01*
D02*
G37*
G36*
X371174Y69823D02*
X371061D01*
X370987Y69810D01*
X370899Y69798D01*
X370787Y69785D01*
X370662Y69760D01*
X370524Y69735D01*
X370237Y69647D01*
X370087Y69585D01*
X369924Y69510D01*
X369774Y69423D01*
X369624Y69335D01*
X369474Y69210D01*
X369337Y69085D01*
X369324Y69073D01*
X369312Y69048D01*
X369274Y69010D01*
X369224Y68948D01*
X369174Y68885D01*
X369112Y68798D01*
X369037Y68698D01*
X368974Y68585D01*
X368912Y68448D01*
X368837Y68310D01*
X368725Y67998D01*
X368675Y67823D01*
X368650Y67648D01*
X368625Y67448D01*
X368612Y67248D01*
Y67236D01*
Y67223D01*
Y67186D01*
Y67136D01*
X368625Y66998D01*
X368650Y66836D01*
X368687Y66636D01*
X368750Y66411D01*
X368825Y66186D01*
X368924Y65949D01*
Y65936D01*
X368937Y65924D01*
X368987Y65848D01*
X369062Y65736D01*
X369162Y65599D01*
X369287Y65436D01*
X369449Y65274D01*
X369637Y65111D01*
X369862Y64974D01*
X369874D01*
X369887Y64961D01*
X369924Y64949D01*
X369974Y64924D01*
X370099Y64861D01*
X370274Y64811D01*
X370474Y64749D01*
X370712Y64686D01*
X370961Y64649D01*
X371224Y64636D01*
X371336D01*
X371411Y64649D01*
X371511Y64661D01*
X371624Y64674D01*
X371749Y64699D01*
X371886Y64724D01*
X372174Y64811D01*
X372336Y64874D01*
X372486Y64936D01*
X372649Y65024D01*
X372799Y65111D01*
X372948Y65224D01*
X373086Y65349D01*
X373098Y65361D01*
X373123Y65386D01*
X373148Y65424D01*
X373198Y65486D01*
X373261Y65549D01*
X373323Y65636D01*
X373386Y65736D01*
X373461Y65848D01*
X373523Y65974D01*
X373586Y66123D01*
X373711Y66436D01*
X373761Y66611D01*
X373786Y66798D01*
X373811Y66998D01*
X373823Y67198D01*
Y67211D01*
Y67248D01*
Y67311D01*
X373811Y67386D01*
X373798Y67486D01*
X373786Y67598D01*
X373761Y67723D01*
X373723Y67860D01*
X373636Y68160D01*
X373573Y68310D01*
X373498Y68473D01*
X373411Y68623D01*
X373311Y68785D01*
X373198Y68935D01*
X373061Y69073D01*
X373048Y69085D01*
X373023Y69110D01*
X372986Y69148D01*
X372924Y69185D01*
X372849Y69248D01*
X372761Y69310D01*
X372661Y69373D01*
X372549Y69448D01*
X372411Y69523D01*
X372274Y69585D01*
X371949Y69710D01*
X371774Y69748D01*
X371586Y69785D01*
X371386Y69810D01*
X371174Y69823D01*
D02*
G37*
%LPD*%
D10*
X475000Y15000D02*
G03*
X485000Y25000I0J10000D01*
G01*
X355000Y25000D02*
G03*
X365000Y15000I10000J0D01*
G01*
X485000Y75000D02*
G03*
X475000Y85000I-10000J0D01*
G01*
X365000D02*
G03*
X355000Y75000I0J-10000D01*
G01*
X371600Y216651D02*
Y242051D01*
X168400D02*
X320800D01*
X168400Y216651D02*
Y242051D01*
Y216651D02*
X320800D01*
X371600D01*
X320800Y242051D02*
X371600D01*
X355000Y25000D02*
Y75000D01*
X365000Y15000D02*
X475000D01*
X365000Y85000D02*
X475000D01*
X485000Y25000D02*
Y75000D01*
X355000Y25000D02*
X355000D01*
D11*
X250000Y41722D02*
X255000D01*
M02*
