G04*
G04 #@! TF.GenerationSoftware,Altium Limited,Altium Designer,23.8.1 (32)*
G04*
G04 Layer_Physical_Order=1*
G04 Layer_Color=255*
%FSLAX44Y44*%
%MOMM*%
G71*
G04*
G04 #@! TF.SameCoordinates,74A03D58-BA26-460C-9841-76C9F7D9AC81*
G04*
G04*
G04 #@! TF.FilePolarity,Positive*
G04*
G01*
G75*
%ADD12R,0.3000X0.8000*%
%ADD13R,0.4000X0.8000*%
%ADD19C,0.2040*%
%ADD20C,1.6000*%
%ADD21R,1.6000X1.6000*%
%ADD22C,3.0000*%
G36*
X188747Y198868D02*
Y198399D01*
Y198118D01*
Y197649D01*
Y197087D01*
Y196431D01*
Y195681D01*
Y194744D01*
Y193713D01*
Y192495D01*
Y191182D01*
Y189683D01*
Y187996D01*
Y186121D01*
Y183965D01*
Y181716D01*
Y179279D01*
Y176561D01*
Y173656D01*
Y170469D01*
Y167001D01*
Y163346D01*
Y159503D01*
Y155285D01*
Y150787D01*
Y146006D01*
Y140945D01*
Y135603D01*
Y129979D01*
Y123981D01*
X188747Y49000D01*
X121874Y86490D01*
X55000Y49000D01*
X55000Y123981D01*
Y129979D01*
Y135603D01*
Y140945D01*
Y146006D01*
Y150786D01*
Y155285D01*
Y159503D01*
Y163346D01*
Y167001D01*
Y170469D01*
Y173656D01*
Y176561D01*
Y179279D01*
Y181716D01*
Y183965D01*
Y186121D01*
Y187996D01*
Y189683D01*
Y191182D01*
Y192495D01*
Y193713D01*
Y194744D01*
Y195681D01*
Y196431D01*
Y197087D01*
Y197649D01*
Y198118D01*
Y198399D01*
Y198868D01*
Y198962D01*
X121874Y161471D01*
X55000Y123981D01*
X121874Y86490D01*
X188747Y123981D01*
X121874Y161471D01*
X188747Y198962D01*
Y198868D01*
D02*
G37*
D12*
X287500Y35222D02*
D03*
X282500D02*
D03*
X277500D02*
D03*
X272500D02*
D03*
X267500D02*
D03*
X262500D02*
D03*
X257500D02*
D03*
X252500D02*
D03*
D13*
X243000Y10222D02*
D03*
X297000D02*
D03*
D19*
X287500Y157951D02*
X358900Y229351D01*
X287500Y35222D02*
Y157951D01*
X181100Y229351D02*
X252500Y157951D01*
Y35222D02*
Y157951D01*
X282500Y35222D02*
Y178351D01*
X333500Y229351D01*
X272500Y35222D02*
Y219151D01*
X277500Y35222D02*
Y198751D01*
X308100Y229351D01*
X257500Y35222D02*
Y178351D01*
X206500Y229351D02*
X257500Y178351D01*
X267500Y35222D02*
Y219151D01*
X262500Y35222D02*
Y198751D01*
X272500Y219151D02*
X282700Y229351D01*
X231900D02*
X262500Y198751D01*
X257300Y229351D02*
X267500Y219151D01*
D20*
X333500Y229351D02*
D03*
X206500D02*
D03*
X231900D02*
D03*
X308100D02*
D03*
X257300D02*
D03*
X282700D02*
D03*
X358900D02*
D03*
D21*
X181100D02*
D03*
D22*
X520000Y30000D02*
D03*
Y220000D02*
D03*
X30000D02*
D03*
Y30000D02*
D03*
M02*
