G04*
G04 #@! TF.GenerationSoftware,Altium Limited,Altium Designer,23.8.1 (32)*
G04*
G04 Layer_Color=32896*
%FSLAX44Y44*%
%MOMM*%
G71*
G04*
G04 #@! TF.SameCoordinates,EFFE2BD2-F133-4116-8B31-CAA5E5CF1D5D*
G04*
G04*
G04 #@! TF.FilePolarity,Positive*
G04*
G01*
G75*
%ADD11C,0.1000*%
G36*
X333788Y214059D02*
X334138Y214009D01*
X334463Y213934D01*
X334776Y213847D01*
X335063Y213734D01*
X335326Y213609D01*
X335563Y213472D01*
X335788Y213334D01*
X335975Y213197D01*
X336150Y213059D01*
X336300Y212934D01*
X336413Y212822D01*
X336513Y212735D01*
X336588Y212659D01*
X336625Y212610D01*
X336638Y212597D01*
X336875Y212260D01*
X337088Y211885D01*
X337275Y211472D01*
X337425Y211047D01*
X337562Y210597D01*
X337663Y210148D01*
X337762Y209698D01*
X337825Y209260D01*
X337887Y208848D01*
X337925Y208461D01*
X337962Y208111D01*
X337975Y207948D01*
Y207811D01*
X337987Y207673D01*
Y207548D01*
X338000Y207448D01*
Y207361D01*
Y207286D01*
Y207236D01*
Y207211D01*
Y207198D01*
X337987Y206598D01*
X337950Y206049D01*
X337887Y205524D01*
X337800Y205061D01*
X337713Y204624D01*
X337612Y204237D01*
X337500Y203887D01*
X337375Y203574D01*
X337263Y203299D01*
X337150Y203074D01*
X337050Y202875D01*
X336950Y202712D01*
X336875Y202587D01*
X336813Y202512D01*
X336775Y202450D01*
X336763Y202437D01*
X336525Y202187D01*
X336275Y201962D01*
X336013Y201775D01*
X335738Y201612D01*
X335476Y201462D01*
X335201Y201350D01*
X334951Y201250D01*
X334701Y201175D01*
X334463Y201125D01*
X334251Y201075D01*
X334051Y201050D01*
X333889Y201025D01*
X333751Y201012D01*
X333651Y201000D01*
X333564D01*
X333351Y201012D01*
X333139Y201025D01*
X332751Y201087D01*
X332401Y201175D01*
X332239Y201225D01*
X332101Y201275D01*
X331964Y201325D01*
X331852Y201375D01*
X331752Y201425D01*
X331664Y201462D01*
X331589Y201500D01*
X331539Y201525D01*
X331514Y201550D01*
X331502D01*
X331177Y201775D01*
X330889Y202025D01*
X330652Y202287D01*
X330439Y202550D01*
X330277Y202775D01*
X330214Y202875D01*
X330164Y202962D01*
X330115Y203025D01*
X330089Y203074D01*
X330065Y203112D01*
Y203124D01*
X329889Y203524D01*
X329765Y203912D01*
X329665Y204287D01*
X329602Y204636D01*
X329577Y204799D01*
X329565Y204937D01*
X329552Y205061D01*
Y205174D01*
X329540Y205261D01*
Y205324D01*
Y205361D01*
Y205374D01*
X329552Y205711D01*
X329590Y206024D01*
X329640Y206324D01*
X329715Y206611D01*
X329802Y206873D01*
X329889Y207123D01*
X329990Y207348D01*
X330089Y207548D01*
X330202Y207736D01*
X330302Y207898D01*
X330389Y208036D01*
X330477Y208148D01*
X330552Y208236D01*
X330602Y208311D01*
X330639Y208348D01*
X330652Y208361D01*
X330864Y208561D01*
X331077Y208748D01*
X331302Y208898D01*
X331539Y209035D01*
X331764Y209148D01*
X331977Y209235D01*
X332201Y209310D01*
X332401Y209373D01*
X332589Y209423D01*
X332764Y209460D01*
X332926Y209485D01*
X333064Y209510D01*
X333176D01*
X333251Y209523D01*
X333326D01*
X333663Y209510D01*
X333976Y209460D01*
X334263Y209385D01*
X334526Y209310D01*
X334638Y209273D01*
X334738Y209235D01*
X334826Y209198D01*
X334913Y209160D01*
X334963Y209135D01*
X335013Y209110D01*
X335038Y209098D01*
X335051D01*
X335351Y208923D01*
X335613Y208723D01*
X335850Y208511D01*
X336050Y208298D01*
X336213Y208111D01*
X336288Y208023D01*
X336338Y207948D01*
X336375Y207898D01*
X336413Y207848D01*
X336425Y207823D01*
X336438Y207811D01*
X336425Y208161D01*
X336413Y208486D01*
X336388Y208798D01*
X336363Y209085D01*
X336325Y209348D01*
X336288Y209598D01*
X336250Y209810D01*
X336213Y210010D01*
X336175Y210185D01*
X336138Y210348D01*
X336100Y210473D01*
X336063Y210585D01*
X336038Y210660D01*
X336013Y210723D01*
X336000Y210760D01*
Y210772D01*
X335826Y211147D01*
X335638Y211460D01*
X335438Y211735D01*
X335251Y211960D01*
X335076Y212135D01*
X334951Y212260D01*
X334901Y212310D01*
X334863Y212335D01*
X334838Y212360D01*
X334826D01*
X334601Y212497D01*
X334376Y212610D01*
X334151Y212684D01*
X333951Y212735D01*
X333764Y212759D01*
X333626Y212785D01*
X333501D01*
X333326Y212772D01*
X333164Y212759D01*
X332864Y212684D01*
X332589Y212572D01*
X332364Y212447D01*
X332176Y212322D01*
X332101Y212272D01*
X332039Y212210D01*
X331989Y212172D01*
X331951Y212135D01*
X331939Y212122D01*
X331926Y212110D01*
X331789Y211935D01*
X331664Y211722D01*
X331564Y211497D01*
X331477Y211272D01*
X331414Y211072D01*
X331389Y210985D01*
X331364Y210910D01*
X331352Y210847D01*
X331339Y210798D01*
X331327Y210772D01*
Y210760D01*
X329765Y210885D01*
X329814Y211160D01*
X329877Y211410D01*
X329939Y211647D01*
X330027Y211872D01*
X330127Y212085D01*
X330214Y212272D01*
X330314Y212460D01*
X330414Y212610D01*
X330514Y212747D01*
X330614Y212872D01*
X330702Y212984D01*
X330777Y213072D01*
X330839Y213134D01*
X330889Y213184D01*
X330914Y213209D01*
X330927Y213222D01*
X331114Y213372D01*
X331314Y213497D01*
X331514Y213622D01*
X331726Y213709D01*
X331926Y213797D01*
X332139Y213859D01*
X332526Y213972D01*
X332714Y213997D01*
X332876Y214022D01*
X333026Y214047D01*
X333164Y214059D01*
X333264Y214072D01*
X333414D01*
X333788Y214059D01*
D02*
G37*
G36*
X311210Y207273D02*
X309736Y207086D01*
X309598Y207273D01*
X309436Y207448D01*
X309286Y207598D01*
X309123Y207736D01*
X308998Y207836D01*
X308886Y207911D01*
X308811Y207961D01*
X308798Y207973D01*
X308786D01*
X308548Y208086D01*
X308311Y208173D01*
X308086Y208236D01*
X307874Y208286D01*
X307686Y208311D01*
X307611D01*
X307536Y208323D01*
X307411D01*
X307186Y208311D01*
X306974Y208286D01*
X306774Y208248D01*
X306574Y208198D01*
X306399Y208136D01*
X306236Y208073D01*
X306087Y207998D01*
X305949Y207936D01*
X305837Y207861D01*
X305724Y207786D01*
X305637Y207723D01*
X305562Y207661D01*
X305499Y207611D01*
X305462Y207573D01*
X305437Y207548D01*
X305424Y207536D01*
X305287Y207386D01*
X305174Y207223D01*
X305074Y207048D01*
X304987Y206873D01*
X304912Y206698D01*
X304849Y206524D01*
X304762Y206186D01*
X304724Y206024D01*
X304699Y205874D01*
X304687Y205749D01*
X304674Y205636D01*
X304662Y205536D01*
Y205474D01*
Y205424D01*
Y205411D01*
X304674Y205149D01*
X304699Y204911D01*
X304737Y204674D01*
X304787Y204462D01*
X304849Y204262D01*
X304912Y204074D01*
X304987Y203899D01*
X305049Y203749D01*
X305124Y203612D01*
X305199Y203487D01*
X305262Y203374D01*
X305324Y203299D01*
X305374Y203224D01*
X305412Y203174D01*
X305437Y203149D01*
X305449Y203137D01*
X305599Y202987D01*
X305762Y202862D01*
X305924Y202750D01*
X306087Y202650D01*
X306249Y202562D01*
X306399Y202500D01*
X306711Y202400D01*
X306849Y202362D01*
X306974Y202337D01*
X307086Y202312D01*
X307186Y202300D01*
X307261Y202287D01*
X307374D01*
X307549Y202300D01*
X307711Y202312D01*
X308023Y202387D01*
X308298Y202475D01*
X308536Y202587D01*
X308736Y202700D01*
X308811Y202750D01*
X308873Y202799D01*
X308923Y202837D01*
X308961Y202862D01*
X308986Y202875D01*
X308998Y202887D01*
X309111Y203012D01*
X309223Y203137D01*
X309411Y203437D01*
X309548Y203737D01*
X309661Y204024D01*
X309748Y204299D01*
X309773Y204412D01*
X309798Y204512D01*
X309811Y204599D01*
X309823Y204662D01*
X309835Y204699D01*
Y204711D01*
X311485Y204574D01*
X311448Y204274D01*
X311385Y203999D01*
X311310Y203737D01*
X311223Y203487D01*
X311123Y203249D01*
X311023Y203037D01*
X310910Y202837D01*
X310798Y202662D01*
X310698Y202512D01*
X310585Y202375D01*
X310498Y202250D01*
X310410Y202150D01*
X310335Y202075D01*
X310285Y202025D01*
X310248Y201987D01*
X310235Y201975D01*
X310023Y201800D01*
X309798Y201650D01*
X309561Y201525D01*
X309323Y201412D01*
X309073Y201312D01*
X308836Y201237D01*
X308611Y201175D01*
X308386Y201125D01*
X308174Y201087D01*
X307986Y201050D01*
X307811Y201025D01*
X307661Y201012D01*
X307536D01*
X307449Y201000D01*
X307374D01*
X306986Y201012D01*
X306611Y201063D01*
X306274Y201137D01*
X305949Y201237D01*
X305649Y201362D01*
X305374Y201487D01*
X305124Y201625D01*
X304887Y201775D01*
X304687Y201925D01*
X304512Y202062D01*
X304362Y202187D01*
X304237Y202312D01*
X304137Y202412D01*
X304074Y202487D01*
X304025Y202537D01*
X304012Y202550D01*
X303837Y202787D01*
X303675Y203037D01*
X303537Y203299D01*
X303425Y203549D01*
X303325Y203799D01*
X303237Y204049D01*
X303175Y204299D01*
X303112Y204524D01*
X303075Y204736D01*
X303037Y204937D01*
X303012Y205111D01*
X303000Y205261D01*
Y205386D01*
X302987Y205474D01*
Y205524D01*
Y205549D01*
X303000Y205886D01*
X303037Y206211D01*
X303100Y206511D01*
X303162Y206798D01*
X303262Y207061D01*
X303350Y207311D01*
X303462Y207536D01*
X303562Y207736D01*
X303675Y207923D01*
X303787Y208086D01*
X303875Y208223D01*
X303962Y208336D01*
X304037Y208423D01*
X304100Y208498D01*
X304137Y208535D01*
X304149Y208548D01*
X304374Y208748D01*
X304599Y208935D01*
X304837Y209085D01*
X305074Y209223D01*
X305312Y209335D01*
X305549Y209423D01*
X305787Y209498D01*
X305999Y209560D01*
X306199Y209610D01*
X306386Y209648D01*
X306561Y209673D01*
X306699Y209698D01*
X306824D01*
X306911Y209710D01*
X306986D01*
X307224Y209698D01*
X307461Y209673D01*
X307686Y209635D01*
X307899Y209585D01*
X308311Y209448D01*
X308498Y209385D01*
X308673Y209310D01*
X308836Y209223D01*
X308973Y209160D01*
X309111Y209085D01*
X309211Y209023D01*
X309298Y208973D01*
X309361Y208935D01*
X309398Y208911D01*
X309411Y208898D01*
X308723Y212360D01*
X303587D01*
Y213859D01*
X309973D01*
X311210Y207273D01*
D02*
G37*
G36*
X205388Y213697D02*
X205488Y213547D01*
X205701Y213234D01*
X205926Y212947D01*
X206151Y212684D01*
X206263Y212572D01*
X206363Y212460D01*
X206463Y212372D01*
X206538Y212285D01*
X206601Y212222D01*
X206663Y212172D01*
X206688Y212147D01*
X206701Y212135D01*
X207088Y211822D01*
X207475Y211535D01*
X207863Y211272D01*
X208225Y211060D01*
X208388Y210960D01*
X208538Y210885D01*
X208663Y210810D01*
X208775Y210748D01*
X208875Y210697D01*
X208937Y210660D01*
X208988Y210648D01*
X209000Y210635D01*
Y209123D01*
X208725Y209235D01*
X208438Y209360D01*
X208163Y209498D01*
X207913Y209623D01*
X207688Y209735D01*
X207600Y209785D01*
X207513Y209835D01*
X207450Y209873D01*
X207400Y209898D01*
X207375Y209923D01*
X207363D01*
X207038Y210123D01*
X206738Y210323D01*
X206476Y210510D01*
X206263Y210672D01*
X206088Y210810D01*
X205963Y210922D01*
X205926Y210960D01*
X205888Y210985D01*
X205876Y211010D01*
X205863D01*
Y201000D01*
X204289D01*
Y213859D01*
X205313D01*
X205388Y213697D01*
D02*
G37*
G36*
X227604Y213847D02*
X227917Y213822D01*
X228217Y213772D01*
X228492Y213709D01*
X228754Y213634D01*
X228992Y213559D01*
X229204Y213472D01*
X229404Y213384D01*
X229579Y213297D01*
X229741Y213209D01*
X229866Y213134D01*
X229979Y213059D01*
X230066Y212997D01*
X230129Y212947D01*
X230166Y212922D01*
X230179Y212909D01*
X230366Y212722D01*
X230541Y212522D01*
X230691Y212310D01*
X230828Y212085D01*
X230941Y211847D01*
X231041Y211622D01*
X231128Y211397D01*
X231203Y211185D01*
X231253Y210972D01*
X231303Y210785D01*
X231341Y210610D01*
X231378Y210460D01*
X231391Y210335D01*
X231403Y210235D01*
X231416Y210185D01*
Y210160D01*
X229804Y209998D01*
X229791Y210223D01*
X229779Y210423D01*
X229741Y210623D01*
X229704Y210798D01*
X229641Y210960D01*
X229591Y211122D01*
X229529Y211260D01*
X229466Y211385D01*
X229404Y211497D01*
X229341Y211597D01*
X229279Y211685D01*
X229229Y211747D01*
X229191Y211797D01*
X229154Y211847D01*
X229141Y211860D01*
X229129Y211872D01*
X228992Y211997D01*
X228854Y212097D01*
X228704Y212197D01*
X228554Y212272D01*
X228254Y212397D01*
X227954Y212472D01*
X227829Y212497D01*
X227704Y212522D01*
X227592Y212535D01*
X227492Y212547D01*
X227417Y212560D01*
X227304D01*
X227104Y212547D01*
X226917Y212535D01*
X226580Y212460D01*
X226280Y212360D01*
X226142Y212297D01*
X226030Y212235D01*
X225917Y212172D01*
X225830Y212110D01*
X225742Y212060D01*
X225680Y212010D01*
X225630Y211972D01*
X225580Y211935D01*
X225567Y211922D01*
X225555Y211910D01*
X225430Y211785D01*
X225330Y211660D01*
X225242Y211522D01*
X225167Y211397D01*
X225042Y211135D01*
X224967Y210885D01*
X224918Y210660D01*
X224905Y210572D01*
X224893Y210497D01*
X224880Y210423D01*
Y210373D01*
Y210348D01*
Y210335D01*
X224893Y210173D01*
X224918Y209998D01*
X224955Y209835D01*
X224993Y209660D01*
X225117Y209348D01*
X225255Y209060D01*
X225330Y208935D01*
X225392Y208811D01*
X225455Y208710D01*
X225517Y208623D01*
X225555Y208548D01*
X225592Y208498D01*
X225617Y208461D01*
X225630Y208448D01*
X225780Y208248D01*
X225967Y208048D01*
X226167Y207823D01*
X226380Y207598D01*
X226842Y207148D01*
X227317Y206711D01*
X227542Y206511D01*
X227754Y206324D01*
X227942Y206149D01*
X228117Y206011D01*
X228254Y205886D01*
X228367Y205799D01*
X228429Y205749D01*
X228454Y205724D01*
X228692Y205524D01*
X228929Y205324D01*
X229141Y205136D01*
X229341Y204961D01*
X229516Y204786D01*
X229691Y204624D01*
X229841Y204474D01*
X229979Y204349D01*
X230104Y204224D01*
X230204Y204112D01*
X230291Y204012D01*
X230366Y203937D01*
X230429Y203874D01*
X230466Y203824D01*
X230491Y203799D01*
X230504Y203787D01*
X230753Y203474D01*
X230966Y203174D01*
X231141Y202887D01*
X231291Y202625D01*
X231403Y202400D01*
X231441Y202312D01*
X231478Y202237D01*
X231503Y202175D01*
X231528Y202125D01*
X231541Y202100D01*
Y202087D01*
X231603Y201887D01*
X231653Y201700D01*
X231678Y201512D01*
X231703Y201350D01*
X231716Y201200D01*
Y201100D01*
Y201025D01*
Y201012D01*
Y201000D01*
X223255D01*
Y202512D01*
X229541D01*
X229441Y202675D01*
X229329Y202824D01*
X229216Y202962D01*
X229116Y203099D01*
X229016Y203199D01*
X228941Y203287D01*
X228892Y203349D01*
X228879Y203362D01*
X228792Y203449D01*
X228679Y203549D01*
X228554Y203674D01*
X228417Y203799D01*
X228117Y204062D01*
X227817Y204324D01*
X227517Y204574D01*
X227392Y204687D01*
X227279Y204786D01*
X227192Y204862D01*
X227117Y204924D01*
X227067Y204961D01*
X227055Y204974D01*
X226754Y205236D01*
X226467Y205474D01*
X226205Y205711D01*
X225967Y205924D01*
X225742Y206124D01*
X225555Y206311D01*
X225367Y206486D01*
X225217Y206636D01*
X225080Y206773D01*
X224955Y206886D01*
X224867Y206986D01*
X224780Y207073D01*
X224718Y207136D01*
X224680Y207186D01*
X224655Y207211D01*
X224643Y207223D01*
X224380Y207523D01*
X224168Y207811D01*
X223980Y208086D01*
X223843Y208311D01*
X223730Y208511D01*
X223693Y208585D01*
X223655Y208661D01*
X223630Y208710D01*
X223605Y208748D01*
X223593Y208773D01*
Y208785D01*
X223480Y209060D01*
X223405Y209335D01*
X223343Y209598D01*
X223305Y209823D01*
X223280Y210023D01*
Y210098D01*
X223268Y210173D01*
Y210223D01*
Y210260D01*
Y210285D01*
Y210298D01*
X223280Y210572D01*
X223318Y210835D01*
X223368Y211097D01*
X223430Y211335D01*
X223518Y211560D01*
X223605Y211760D01*
X223705Y211960D01*
X223805Y212135D01*
X223905Y212297D01*
X224005Y212435D01*
X224093Y212547D01*
X224180Y212647D01*
X224243Y212735D01*
X224293Y212785D01*
X224330Y212822D01*
X224343Y212834D01*
X224555Y213009D01*
X224780Y213172D01*
X225005Y213309D01*
X225255Y213422D01*
X225492Y213522D01*
X225742Y213609D01*
X225980Y213672D01*
X226205Y213734D01*
X226430Y213772D01*
X226630Y213809D01*
X226805Y213834D01*
X226954Y213847D01*
X227092D01*
X227179Y213859D01*
X227267D01*
X227604Y213847D01*
D02*
G37*
G36*
X254469Y214059D02*
X254744Y214034D01*
X254994Y213997D01*
X255231Y213934D01*
X255456Y213872D01*
X255669Y213797D01*
X255869Y213722D01*
X256044Y213634D01*
X256194Y213559D01*
X256344Y213472D01*
X256456Y213397D01*
X256556Y213334D01*
X256644Y213272D01*
X256693Y213234D01*
X256731Y213209D01*
X256744Y213197D01*
X256918Y213022D01*
X257093Y212847D01*
X257243Y212647D01*
X257368Y212447D01*
X257493Y212247D01*
X257593Y212035D01*
X257693Y211835D01*
X257768Y211647D01*
X257843Y211460D01*
X257893Y211297D01*
X257943Y211135D01*
X257981Y211010D01*
X258006Y210897D01*
X258031Y210823D01*
X258043Y210760D01*
Y210748D01*
X256469Y210473D01*
X256431Y210685D01*
X256394Y210872D01*
X256331Y211060D01*
X256281Y211222D01*
X256219Y211385D01*
X256156Y211522D01*
X256081Y211647D01*
X256019Y211772D01*
X255956Y211872D01*
X255894Y211960D01*
X255844Y212035D01*
X255794Y212085D01*
X255756Y212135D01*
X255719Y212172D01*
X255706Y212185D01*
X255694Y212197D01*
X255581Y212297D01*
X255456Y212397D01*
X255194Y212535D01*
X254944Y212647D01*
X254694Y212710D01*
X254482Y212759D01*
X254394Y212772D01*
X254307D01*
X254244Y212785D01*
X253982D01*
X253832Y212759D01*
X253532Y212697D01*
X253269Y212597D01*
X253057Y212497D01*
X252882Y212397D01*
X252745Y212297D01*
X252707Y212260D01*
X252670Y212235D01*
X252657Y212222D01*
X252645Y212210D01*
X252544Y212097D01*
X252445Y211985D01*
X252307Y211747D01*
X252195Y211510D01*
X252132Y211285D01*
X252082Y211085D01*
X252070Y210997D01*
Y210922D01*
X252057Y210860D01*
Y210810D01*
Y210785D01*
Y210772D01*
X252070Y210572D01*
X252095Y210398D01*
X252132Y210223D01*
X252182Y210060D01*
X252245Y209923D01*
X252320Y209785D01*
X252382Y209660D01*
X252457Y209560D01*
X252544Y209460D01*
X252607Y209385D01*
X252682Y209310D01*
X252745Y209260D01*
X252794Y209210D01*
X252832Y209185D01*
X252857Y209173D01*
X252869Y209160D01*
X253182Y208985D01*
X253494Y208860D01*
X253794Y208761D01*
X254082Y208698D01*
X254207Y208685D01*
X254319Y208661D01*
X254419Y208648D01*
X254506D01*
X254582Y208636D01*
X254757D01*
X254844Y208648D01*
X254906Y208661D01*
X254931D01*
X255106Y207286D01*
X254869Y207336D01*
X254657Y207386D01*
X254469Y207411D01*
X254307Y207423D01*
X254182Y207436D01*
X254082Y207448D01*
X254007D01*
X253807Y207436D01*
X253619Y207423D01*
X253269Y207336D01*
X252957Y207223D01*
X252819Y207161D01*
X252694Y207098D01*
X252582Y207036D01*
X252495Y206973D01*
X252407Y206911D01*
X252332Y206861D01*
X252282Y206811D01*
X252245Y206773D01*
X252220Y206761D01*
X252207Y206749D01*
X252082Y206611D01*
X251970Y206474D01*
X251882Y206324D01*
X251795Y206174D01*
X251720Y206024D01*
X251670Y205874D01*
X251582Y205599D01*
X251557Y205461D01*
X251532Y205349D01*
X251520Y205236D01*
X251507Y205149D01*
X251495Y205061D01*
Y205012D01*
Y204974D01*
Y204961D01*
X251507Y204749D01*
X251532Y204549D01*
X251570Y204362D01*
X251607Y204187D01*
X251732Y203862D01*
X251807Y203712D01*
X251870Y203587D01*
X251945Y203462D01*
X252020Y203362D01*
X252082Y203274D01*
X252132Y203199D01*
X252182Y203137D01*
X252220Y203099D01*
X252245Y203074D01*
X252257Y203062D01*
X252407Y202924D01*
X252557Y202812D01*
X252707Y202712D01*
X252869Y202625D01*
X253032Y202550D01*
X253182Y202487D01*
X253482Y202400D01*
X253619Y202362D01*
X253744Y202337D01*
X253844Y202325D01*
X253944Y202312D01*
X254019Y202300D01*
X254132D01*
X254307Y202312D01*
X254469Y202325D01*
X254769Y202387D01*
X255044Y202487D01*
X255281Y202600D01*
X255469Y202700D01*
X255544Y202750D01*
X255606Y202799D01*
X255656Y202837D01*
X255694Y202862D01*
X255706Y202887D01*
X255719D01*
X255831Y203012D01*
X255944Y203137D01*
X256131Y203437D01*
X256294Y203762D01*
X256418Y204074D01*
X256469Y204224D01*
X256518Y204362D01*
X256556Y204499D01*
X256581Y204599D01*
X256606Y204699D01*
X256618Y204762D01*
X256631Y204811D01*
Y204824D01*
X258206Y204612D01*
X258168Y204312D01*
X258106Y204037D01*
X258031Y203774D01*
X257943Y203524D01*
X257843Y203287D01*
X257743Y203074D01*
X257631Y202875D01*
X257518Y202700D01*
X257406Y202537D01*
X257306Y202400D01*
X257206Y202287D01*
X257118Y202187D01*
X257043Y202100D01*
X256993Y202050D01*
X256956Y202012D01*
X256943Y202000D01*
X256731Y201825D01*
X256506Y201675D01*
X256269Y201537D01*
X256031Y201425D01*
X255806Y201325D01*
X255569Y201250D01*
X255344Y201175D01*
X255131Y201125D01*
X254919Y201087D01*
X254732Y201050D01*
X254569Y201025D01*
X254419Y201012D01*
X254307D01*
X254219Y201000D01*
X254144D01*
X253794Y201012D01*
X253469Y201050D01*
X253157Y201112D01*
X252869Y201187D01*
X252595Y201275D01*
X252345Y201362D01*
X252107Y201475D01*
X251895Y201587D01*
X251695Y201687D01*
X251532Y201800D01*
X251382Y201887D01*
X251270Y201987D01*
X251170Y202050D01*
X251095Y202112D01*
X251057Y202150D01*
X251045Y202162D01*
X250833Y202387D01*
X250645Y202612D01*
X250483Y202862D01*
X250333Y203099D01*
X250220Y203337D01*
X250120Y203574D01*
X250033Y203799D01*
X249970Y204012D01*
X249920Y204224D01*
X249883Y204412D01*
X249858Y204574D01*
X249833Y204724D01*
Y204837D01*
X249820Y204924D01*
Y204986D01*
Y204999D01*
X249833Y205224D01*
X249845Y205449D01*
X249920Y205849D01*
X249970Y206024D01*
X250020Y206199D01*
X250083Y206349D01*
X250133Y206499D01*
X250195Y206623D01*
X250258Y206736D01*
X250308Y206836D01*
X250358Y206911D01*
X250395Y206973D01*
X250433Y207023D01*
X250445Y207048D01*
X250458Y207061D01*
X250583Y207211D01*
X250707Y207348D01*
X250995Y207573D01*
X251295Y207773D01*
X251570Y207911D01*
X251832Y208023D01*
X251932Y208061D01*
X252032Y208098D01*
X252107Y208123D01*
X252170Y208136D01*
X252207Y208148D01*
X252220D01*
X251907Y208311D01*
X251645Y208486D01*
X251420Y208661D01*
X251232Y208836D01*
X251082Y208985D01*
X250982Y209110D01*
X250945Y209160D01*
X250920Y209198D01*
X250895Y209210D01*
Y209223D01*
X250745Y209485D01*
X250632Y209748D01*
X250557Y209998D01*
X250495Y210235D01*
X250470Y210435D01*
X250458Y210522D01*
Y210597D01*
X250445Y210660D01*
Y210697D01*
Y210723D01*
Y210735D01*
X250470Y211060D01*
X250520Y211360D01*
X250595Y211647D01*
X250683Y211885D01*
X250770Y212097D01*
X250807Y212185D01*
X250845Y212247D01*
X250870Y212310D01*
X250895Y212347D01*
X250920Y212372D01*
Y212385D01*
X251107Y212659D01*
X251320Y212909D01*
X251545Y213122D01*
X251770Y213297D01*
X251970Y213434D01*
X252045Y213497D01*
X252120Y213534D01*
X252182Y213572D01*
X252232Y213597D01*
X252257Y213622D01*
X252270D01*
X252607Y213772D01*
X252944Y213884D01*
X253257Y213959D01*
X253557Y214022D01*
X253694Y214034D01*
X253819Y214047D01*
X253919Y214059D01*
X254019D01*
X254094Y214072D01*
X254194D01*
X254469Y214059D01*
D02*
G37*
G36*
X284608Y205499D02*
Y204062D01*
X279047D01*
Y201000D01*
X277472D01*
Y204062D01*
X275748D01*
Y205499D01*
X277472D01*
Y213809D01*
X278759D01*
X284608Y205499D01*
D02*
G37*
G36*
X295841Y79794D02*
X296104Y79757D01*
X296348Y79701D01*
X296582Y79635D01*
X296798Y79551D01*
X296994Y79457D01*
X297172Y79354D01*
X297341Y79251D01*
X297482Y79148D01*
X297613Y79045D01*
X297725Y78951D01*
X297810Y78867D01*
X297885Y78801D01*
X297941Y78745D01*
X297969Y78707D01*
X297978Y78698D01*
X298157Y78445D01*
X298316Y78163D01*
X298456Y77854D01*
X298569Y77536D01*
X298672Y77198D01*
X298747Y76861D01*
X298822Y76523D01*
X298869Y76195D01*
X298916Y75886D01*
X298944Y75595D01*
X298972Y75333D01*
X298981Y75211D01*
Y75108D01*
X298991Y75005D01*
Y74911D01*
X299000Y74836D01*
Y74771D01*
Y74714D01*
Y74677D01*
Y74658D01*
Y74649D01*
X298991Y74199D01*
X298962Y73787D01*
X298916Y73393D01*
X298850Y73046D01*
X298784Y72718D01*
X298710Y72428D01*
X298625Y72165D01*
X298531Y71931D01*
X298447Y71725D01*
X298363Y71556D01*
X298288Y71406D01*
X298213Y71284D01*
X298157Y71190D01*
X298110Y71134D01*
X298081Y71087D01*
X298072Y71078D01*
X297894Y70890D01*
X297707Y70722D01*
X297510Y70581D01*
X297304Y70459D01*
X297107Y70347D01*
X296901Y70262D01*
X296713Y70188D01*
X296526Y70131D01*
X296348Y70094D01*
X296188Y70056D01*
X296038Y70037D01*
X295916Y70019D01*
X295813Y70009D01*
X295738Y70000D01*
X295673D01*
X295513Y70009D01*
X295354Y70019D01*
X295063Y70066D01*
X294801Y70131D01*
X294679Y70169D01*
X294576Y70206D01*
X294473Y70244D01*
X294389Y70281D01*
X294314Y70319D01*
X294248Y70347D01*
X294192Y70375D01*
X294154Y70394D01*
X294136Y70412D01*
X294126D01*
X293883Y70581D01*
X293667Y70769D01*
X293489Y70965D01*
X293330Y71162D01*
X293208Y71331D01*
X293161Y71406D01*
X293123Y71472D01*
X293086Y71518D01*
X293067Y71556D01*
X293048Y71584D01*
Y71593D01*
X292917Y71893D01*
X292824Y72184D01*
X292749Y72465D01*
X292702Y72727D01*
X292683Y72849D01*
X292673Y72952D01*
X292664Y73046D01*
Y73130D01*
X292655Y73196D01*
Y73243D01*
Y73271D01*
Y73280D01*
X292664Y73534D01*
X292692Y73768D01*
X292730Y73993D01*
X292786Y74208D01*
X292852Y74405D01*
X292917Y74593D01*
X292992Y74761D01*
X293067Y74911D01*
X293151Y75052D01*
X293227Y75174D01*
X293292Y75277D01*
X293358Y75361D01*
X293414Y75427D01*
X293451Y75483D01*
X293480Y75511D01*
X293489Y75521D01*
X293648Y75670D01*
X293808Y75811D01*
X293976Y75924D01*
X294154Y76027D01*
X294323Y76111D01*
X294482Y76177D01*
X294651Y76233D01*
X294801Y76280D01*
X294942Y76317D01*
X295073Y76345D01*
X295195Y76364D01*
X295298Y76383D01*
X295382D01*
X295438Y76392D01*
X295495D01*
X295748Y76383D01*
X295982Y76345D01*
X296198Y76289D01*
X296394Y76233D01*
X296479Y76205D01*
X296554Y76177D01*
X296619Y76148D01*
X296685Y76120D01*
X296723Y76102D01*
X296760Y76083D01*
X296779Y76073D01*
X296788D01*
X297013Y75942D01*
X297210Y75792D01*
X297388Y75633D01*
X297538Y75474D01*
X297660Y75333D01*
X297716Y75267D01*
X297754Y75211D01*
X297782Y75174D01*
X297810Y75136D01*
X297819Y75118D01*
X297828Y75108D01*
X297819Y75370D01*
X297810Y75614D01*
X297791Y75848D01*
X297772Y76064D01*
X297744Y76261D01*
X297716Y76448D01*
X297688Y76608D01*
X297660Y76758D01*
X297632Y76889D01*
X297603Y77011D01*
X297575Y77104D01*
X297547Y77189D01*
X297528Y77245D01*
X297510Y77292D01*
X297500Y77320D01*
Y77329D01*
X297369Y77611D01*
X297229Y77845D01*
X297079Y78051D01*
X296938Y78220D01*
X296807Y78351D01*
X296713Y78445D01*
X296676Y78482D01*
X296647Y78501D01*
X296629Y78520D01*
X296619D01*
X296451Y78623D01*
X296282Y78707D01*
X296113Y78763D01*
X295963Y78801D01*
X295823Y78820D01*
X295720Y78838D01*
X295626D01*
X295495Y78829D01*
X295373Y78820D01*
X295148Y78763D01*
X294942Y78679D01*
X294773Y78585D01*
X294632Y78492D01*
X294576Y78454D01*
X294529Y78407D01*
X294492Y78379D01*
X294464Y78351D01*
X294454Y78342D01*
X294445Y78332D01*
X294342Y78201D01*
X294248Y78042D01*
X294173Y77873D01*
X294107Y77704D01*
X294061Y77554D01*
X294042Y77489D01*
X294023Y77432D01*
X294014Y77386D01*
X294004Y77348D01*
X293995Y77329D01*
Y77320D01*
X292824Y77414D01*
X292861Y77620D01*
X292908Y77807D01*
X292955Y77986D01*
X293020Y78154D01*
X293095Y78313D01*
X293161Y78454D01*
X293236Y78595D01*
X293311Y78707D01*
X293386Y78810D01*
X293461Y78904D01*
X293526Y78988D01*
X293583Y79054D01*
X293629Y79101D01*
X293667Y79138D01*
X293686Y79157D01*
X293695Y79166D01*
X293836Y79279D01*
X293986Y79373D01*
X294136Y79466D01*
X294295Y79532D01*
X294445Y79598D01*
X294604Y79644D01*
X294895Y79729D01*
X295035Y79748D01*
X295157Y79766D01*
X295270Y79785D01*
X295373Y79794D01*
X295448Y79804D01*
X295560D01*
X295841Y79794D01*
D02*
G37*
G36*
X245291Y79523D02*
X245366Y79410D01*
X245526Y79176D01*
X245694Y78960D01*
X245863Y78763D01*
X245947Y78679D01*
X246022Y78595D01*
X246097Y78529D01*
X246154Y78464D01*
X246201Y78417D01*
X246247Y78379D01*
X246266Y78360D01*
X246276Y78351D01*
X246566Y78117D01*
X246857Y77901D01*
X247147Y77704D01*
X247419Y77545D01*
X247541Y77470D01*
X247653Y77414D01*
X247747Y77358D01*
X247831Y77311D01*
X247906Y77273D01*
X247953Y77245D01*
X247991Y77236D01*
X248000Y77226D01*
Y76092D01*
X247794Y76177D01*
X247578Y76270D01*
X247372Y76373D01*
X247185Y76467D01*
X247016Y76551D01*
X246950Y76589D01*
X246885Y76626D01*
X246838Y76655D01*
X246800Y76673D01*
X246782Y76692D01*
X246772D01*
X246528Y76842D01*
X246304Y76992D01*
X246107Y77133D01*
X245947Y77254D01*
X245816Y77358D01*
X245723Y77442D01*
X245694Y77470D01*
X245666Y77489D01*
X245657Y77508D01*
X245648D01*
Y70000D01*
X244466D01*
Y79644D01*
X245235D01*
X245291Y79523D01*
D02*
G37*
%LPC*%
G36*
X333751Y208136D02*
X333651D01*
X333451Y208123D01*
X333264Y208098D01*
X333076Y208061D01*
X332914Y208011D01*
X332601Y207886D01*
X332476Y207823D01*
X332351Y207748D01*
X332239Y207673D01*
X332139Y207611D01*
X332064Y207536D01*
X331989Y207486D01*
X331939Y207436D01*
X331902Y207398D01*
X331876Y207373D01*
X331864Y207361D01*
X331739Y207211D01*
X331627Y207048D01*
X331539Y206886D01*
X331452Y206711D01*
X331377Y206536D01*
X331327Y206361D01*
X331239Y206036D01*
X331214Y205874D01*
X331189Y205736D01*
X331177Y205599D01*
X331164Y205499D01*
X331152Y205399D01*
Y205336D01*
Y205286D01*
Y205274D01*
X331164Y205024D01*
X331177Y204786D01*
X331214Y204562D01*
X331264Y204349D01*
X331314Y204149D01*
X331377Y203974D01*
X331452Y203812D01*
X331514Y203662D01*
X331577Y203524D01*
X331652Y203412D01*
X331714Y203312D01*
X331764Y203237D01*
X331814Y203174D01*
X331839Y203124D01*
X331864Y203099D01*
X331876Y203087D01*
X332014Y202950D01*
X332151Y202824D01*
X332301Y202712D01*
X332439Y202625D01*
X332589Y202550D01*
X332726Y202487D01*
X333001Y202387D01*
X333239Y202325D01*
X333339Y202312D01*
X333426Y202300D01*
X333489Y202287D01*
X333589D01*
X333839Y202300D01*
X334076Y202350D01*
X334301Y202412D01*
X334501Y202487D01*
X334663Y202550D01*
X334776Y202612D01*
X334826Y202637D01*
X334863Y202662D01*
X334876Y202675D01*
X334888D01*
X335101Y202837D01*
X335301Y203012D01*
X335463Y203199D01*
X335601Y203387D01*
X335713Y203549D01*
X335788Y203674D01*
X335813Y203724D01*
X335838Y203762D01*
X335850Y203787D01*
Y203799D01*
X335963Y204087D01*
X336050Y204362D01*
X336100Y204624D01*
X336150Y204862D01*
X336175Y205061D01*
Y205149D01*
X336188Y205224D01*
Y205286D01*
Y205324D01*
Y205349D01*
Y205361D01*
X336175Y205586D01*
X336150Y205799D01*
X336125Y206011D01*
X336075Y206199D01*
X336013Y206374D01*
X335951Y206536D01*
X335888Y206686D01*
X335813Y206824D01*
X335751Y206949D01*
X335688Y207061D01*
X335625Y207148D01*
X335563Y207223D01*
X335513Y207286D01*
X335488Y207323D01*
X335463Y207348D01*
X335451Y207361D01*
X335313Y207498D01*
X335163Y207611D01*
X335013Y207723D01*
X334863Y207811D01*
X334701Y207886D01*
X334551Y207948D01*
X334276Y208036D01*
X334138Y208073D01*
X334026Y208098D01*
X333913Y208111D01*
X333826Y208123D01*
X333751Y208136D01*
D02*
G37*
G36*
X279047Y211285D02*
Y205499D01*
X283071D01*
X279047Y211285D01*
D02*
G37*
G36*
X295813Y75352D02*
X295738D01*
X295588Y75342D01*
X295448Y75324D01*
X295307Y75296D01*
X295185Y75258D01*
X294951Y75164D01*
X294857Y75118D01*
X294764Y75061D01*
X294679Y75005D01*
X294604Y74958D01*
X294548Y74902D01*
X294492Y74864D01*
X294454Y74827D01*
X294426Y74799D01*
X294407Y74780D01*
X294398Y74771D01*
X294304Y74658D01*
X294220Y74536D01*
X294154Y74415D01*
X294089Y74283D01*
X294032Y74152D01*
X293995Y74021D01*
X293929Y73777D01*
X293911Y73655D01*
X293892Y73552D01*
X293883Y73449D01*
X293873Y73374D01*
X293864Y73299D01*
Y73252D01*
Y73215D01*
Y73205D01*
X293873Y73018D01*
X293883Y72840D01*
X293911Y72671D01*
X293948Y72512D01*
X293986Y72362D01*
X294032Y72231D01*
X294089Y72109D01*
X294136Y71996D01*
X294182Y71893D01*
X294239Y71809D01*
X294286Y71734D01*
X294323Y71678D01*
X294361Y71631D01*
X294379Y71593D01*
X294398Y71575D01*
X294407Y71565D01*
X294510Y71462D01*
X294614Y71368D01*
X294726Y71284D01*
X294829Y71219D01*
X294942Y71162D01*
X295045Y71115D01*
X295251Y71040D01*
X295429Y70993D01*
X295504Y70984D01*
X295570Y70975D01*
X295616Y70965D01*
X295692D01*
X295879Y70975D01*
X296057Y71012D01*
X296226Y71059D01*
X296376Y71115D01*
X296497Y71162D01*
X296582Y71209D01*
X296619Y71228D01*
X296647Y71247D01*
X296657Y71256D01*
X296666D01*
X296826Y71378D01*
X296975Y71509D01*
X297097Y71650D01*
X297201Y71790D01*
X297285Y71912D01*
X297341Y72006D01*
X297360Y72043D01*
X297379Y72071D01*
X297388Y72090D01*
Y72099D01*
X297472Y72315D01*
X297538Y72521D01*
X297575Y72718D01*
X297613Y72896D01*
X297632Y73046D01*
Y73112D01*
X297641Y73168D01*
Y73215D01*
Y73243D01*
Y73262D01*
Y73271D01*
X297632Y73440D01*
X297613Y73599D01*
X297594Y73758D01*
X297557Y73899D01*
X297510Y74030D01*
X297463Y74152D01*
X297416Y74264D01*
X297360Y74368D01*
X297313Y74461D01*
X297266Y74546D01*
X297219Y74611D01*
X297172Y74668D01*
X297135Y74714D01*
X297116Y74742D01*
X297097Y74761D01*
X297088Y74771D01*
X296985Y74874D01*
X296872Y74958D01*
X296760Y75043D01*
X296647Y75108D01*
X296526Y75164D01*
X296413Y75211D01*
X296207Y75277D01*
X296104Y75305D01*
X296019Y75324D01*
X295935Y75333D01*
X295870Y75342D01*
X295813Y75352D01*
D02*
G37*
%LPD*%
D11*
X290000Y64541D02*
X300000D01*
M02*
