G04*
G04 #@! TF.GenerationSoftware,Altium Limited,Altium Designer,23.8.1 (32)*
G04*
G04 Layer_Physical_Order=1*
G04 Layer_Color=255*
%FSLAX44Y44*%
%MOMM*%
G71*
G04*
G04 #@! TF.SameCoordinates,EFFE2BD2-F133-4116-8B31-CAA5E5CF1D5D*
G04*
G04*
G04 #@! TF.FilePolarity,Positive*
G04*
G01*
G75*
%ADD12R,0.3000X0.8000*%
%ADD13R,0.4000X0.8000*%
%ADD19C,0.2040*%
%ADD20C,1.6000*%
%ADD21R,1.6000X1.6000*%
%ADD22C,3.0000*%
G36*
X214747Y205868D02*
Y205399D01*
Y205118D01*
Y204650D01*
Y204087D01*
Y203431D01*
Y202681D01*
Y201744D01*
Y200713D01*
Y199494D01*
Y198182D01*
Y196683D01*
Y194996D01*
Y193121D01*
Y190965D01*
Y188716D01*
Y186279D01*
Y183561D01*
Y180656D01*
Y177469D01*
Y174001D01*
Y170346D01*
Y166503D01*
Y162285D01*
Y157787D01*
Y153006D01*
Y147945D01*
Y142603D01*
Y136979D01*
Y130981D01*
X214747Y56000D01*
X147873Y93490D01*
X81000Y56000D01*
X81000Y130981D01*
Y136979D01*
Y142603D01*
Y147945D01*
Y153006D01*
Y157786D01*
Y162285D01*
Y166503D01*
Y170346D01*
Y174001D01*
Y177469D01*
Y180656D01*
Y183561D01*
Y186279D01*
Y188716D01*
Y190965D01*
Y193121D01*
Y194996D01*
Y196683D01*
Y198182D01*
Y199494D01*
Y200713D01*
Y201744D01*
Y202681D01*
Y203431D01*
Y204087D01*
Y204649D01*
Y205118D01*
Y205399D01*
Y205868D01*
Y205962D01*
X147873Y168471D01*
X81000Y130981D01*
X147873Y93490D01*
X214747Y130981D01*
X147873Y168471D01*
X214747Y205962D01*
Y205868D01*
D02*
G37*
D12*
X257500Y35222D02*
D03*
X262500D02*
D03*
X267500D02*
D03*
X272500D02*
D03*
X277500D02*
D03*
X282500D02*
D03*
D13*
X292000Y10222D02*
D03*
X248000D02*
D03*
D19*
X282500Y35222D02*
Y178351D01*
X333500Y229351D01*
X272500Y35222D02*
Y219151D01*
X277500Y35222D02*
Y198751D01*
X308100Y229351D01*
X257500Y35222D02*
Y178351D01*
X206500Y229351D02*
X257500Y178351D01*
X267500Y35222D02*
Y219151D01*
X262500Y35222D02*
Y198751D01*
X272500Y219151D02*
X282700Y229351D01*
X231900D02*
X262500Y198751D01*
X257300Y229351D02*
X267500Y219151D01*
D20*
X308100Y229351D02*
D03*
X282700D02*
D03*
X333500D02*
D03*
X257300D02*
D03*
X231900D02*
D03*
D21*
X206500D02*
D03*
D22*
X520000Y30000D02*
D03*
Y220000D02*
D03*
X30000D02*
D03*
Y30000D02*
D03*
M02*
