G04*
G04 #@! TF.GenerationSoftware,Altium Limited,Altium Designer,23.8.1 (32)*
G04*
G04 Layer_Physical_Order=2*
G04 Layer_Color=16711680*
%FSLAX44Y44*%
%MOMM*%
G71*
G04*
G04 #@! TF.SameCoordinates,EFFE2BD2-F133-4116-8B31-CAA5E5CF1D5D*
G04*
G04*
G04 #@! TF.FilePolarity,Positive*
G04*
G01*
G75*
%ADD19C,0.2040*%
%ADD20C,1.6000*%
%ADD21R,1.6000X1.6000*%
%ADD22C,3.0000*%
%ADD23R,0.6000X1.3000*%
%ADD24R,1.8000X2.2000*%
D19*
X206500Y229351D02*
X245000Y190851D01*
Y54541D02*
Y190851D01*
X295000Y190851D02*
X333500Y229351D01*
X295000Y54541D02*
Y190851D01*
X285000Y52291D02*
Y206251D01*
X308100Y229351D01*
X275000Y52291D02*
Y221651D01*
X282700Y229351D01*
X255000Y52291D02*
Y206251D01*
X231900Y229351D02*
X255000Y206251D01*
X265000Y52291D02*
Y221651D01*
X257300Y229351D02*
X265000Y221651D01*
D20*
X308100Y229351D02*
D03*
X282700D02*
D03*
X333500D02*
D03*
X257300D02*
D03*
X231900D02*
D03*
D21*
X206500D02*
D03*
D22*
X520000Y30000D02*
D03*
Y220000D02*
D03*
X30000D02*
D03*
Y30000D02*
D03*
D23*
X295000Y54541D02*
D03*
X285000D02*
D03*
X275000D02*
D03*
X255000D02*
D03*
X265000D02*
D03*
X245000D02*
D03*
D24*
X319000Y22041D02*
D03*
X221000D02*
D03*
M02*
