G04*
G04 #@! TF.GenerationSoftware,Altium Limited,Altium Designer,23.8.1 (32)*
G04*
G04 Layer_Color=65535*
%FSLAX44Y44*%
%MOMM*%
G71*
G04*
G04 #@! TF.SameCoordinates,EFFE2BD2-F133-4116-8B31-CAA5E5CF1D5D*
G04*
G04*
G04 #@! TF.FilePolarity,Positive*
G04*
G01*
G75*
%ADD10C,0.2000*%
%ADD11C,0.1000*%
G36*
X333836Y213059D02*
X333974Y213047D01*
X334124Y213022D01*
X334286Y212997D01*
X334474Y212972D01*
X334861Y212859D01*
X335073Y212797D01*
X335273Y212709D01*
X335486Y212622D01*
X335686Y212497D01*
X335886Y212372D01*
X336073Y212222D01*
X336086Y212209D01*
X336111Y212184D01*
X336161Y212134D01*
X336223Y212072D01*
X336298Y211984D01*
X336386Y211872D01*
X336485Y211747D01*
X336586Y211609D01*
X336685Y211460D01*
X336786Y211272D01*
X336873Y211085D01*
X336973Y210872D01*
X337060Y210647D01*
X337123Y210410D01*
X337185Y210160D01*
X337235Y209885D01*
X335673Y209760D01*
Y209772D01*
X335661Y209797D01*
X335648Y209848D01*
X335636Y209910D01*
X335611Y209985D01*
X335586Y210072D01*
X335523Y210272D01*
X335436Y210497D01*
X335336Y210722D01*
X335211Y210935D01*
X335073Y211110D01*
X335061Y211122D01*
X335048Y211135D01*
X335011Y211172D01*
X334961Y211210D01*
X334898Y211272D01*
X334823Y211322D01*
X334636Y211447D01*
X334411Y211572D01*
X334136Y211684D01*
X333836Y211759D01*
X333674Y211772D01*
X333499Y211784D01*
X333374D01*
X333236Y211759D01*
X333049Y211735D01*
X332849Y211684D01*
X332624Y211609D01*
X332399Y211497D01*
X332174Y211360D01*
X332162D01*
X332137Y211335D01*
X332099Y211310D01*
X332049Y211260D01*
X331924Y211135D01*
X331749Y210960D01*
X331562Y210735D01*
X331362Y210460D01*
X331174Y210147D01*
X330999Y209772D01*
Y209760D01*
X330987Y209722D01*
X330962Y209660D01*
X330937Y209585D01*
X330900Y209473D01*
X330862Y209348D01*
X330825Y209185D01*
X330787Y209010D01*
X330750Y208810D01*
X330712Y208598D01*
X330675Y208348D01*
X330637Y208085D01*
X330612Y207798D01*
X330587Y207486D01*
X330574Y207161D01*
X330562Y206811D01*
X330574Y206823D01*
X330587Y206848D01*
X330625Y206898D01*
X330662Y206948D01*
X330712Y207023D01*
X330787Y207111D01*
X330950Y207298D01*
X331149Y207511D01*
X331387Y207723D01*
X331649Y207923D01*
X331949Y208098D01*
X331962D01*
X331987Y208110D01*
X332037Y208135D01*
X332087Y208160D01*
X332174Y208198D01*
X332262Y208235D01*
X332362Y208273D01*
X332474Y208310D01*
X332737Y208385D01*
X333024Y208460D01*
X333336Y208510D01*
X333674Y208523D01*
X333749D01*
X333824Y208510D01*
X333936D01*
X334074Y208485D01*
X334236Y208460D01*
X334411Y208423D01*
X334599Y208373D01*
X334799Y208310D01*
X335023Y208235D01*
X335236Y208148D01*
X335461Y208035D01*
X335698Y207898D01*
X335923Y207748D01*
X336136Y207561D01*
X336348Y207361D01*
X336361Y207348D01*
X336398Y207311D01*
X336448Y207236D01*
X336523Y207148D01*
X336610Y207036D01*
X336698Y206898D01*
X336798Y206736D01*
X336910Y206548D01*
X337010Y206348D01*
X337110Y206123D01*
X337198Y205874D01*
X337285Y205611D01*
X337360Y205324D01*
X337410Y205024D01*
X337448Y204711D01*
X337460Y204374D01*
Y204361D01*
Y204324D01*
Y204261D01*
X337448Y204174D01*
Y204062D01*
X337435Y203937D01*
X337423Y203799D01*
X337398Y203637D01*
X337335Y203287D01*
X337235Y202912D01*
X337110Y202524D01*
X336935Y202125D01*
Y202112D01*
X336910Y202075D01*
X336885Y202024D01*
X336835Y201962D01*
X336786Y201875D01*
X336723Y201775D01*
X336561Y201550D01*
X336348Y201287D01*
X336111Y201025D01*
X335823Y200775D01*
X335498Y200550D01*
X335486D01*
X335461Y200525D01*
X335411Y200500D01*
X335336Y200462D01*
X335248Y200425D01*
X335148Y200375D01*
X335036Y200325D01*
X334898Y200275D01*
X334761Y200225D01*
X334599Y200175D01*
X334249Y200088D01*
X333861Y200025D01*
X333649Y200012D01*
X333436Y200000D01*
X333349D01*
X333249Y200012D01*
X333111Y200025D01*
X332949Y200050D01*
X332749Y200075D01*
X332537Y200125D01*
X332299Y200175D01*
X332049Y200250D01*
X331799Y200350D01*
X331524Y200462D01*
X331262Y200612D01*
X330987Y200775D01*
X330724Y200962D01*
X330475Y201187D01*
X330237Y201437D01*
X330225Y201450D01*
X330187Y201512D01*
X330125Y201587D01*
X330050Y201712D01*
X329950Y201875D01*
X329850Y202075D01*
X329737Y202299D01*
X329625Y202574D01*
X329500Y202887D01*
X329387Y203237D01*
X329287Y203624D01*
X329200Y204062D01*
X329112Y204524D01*
X329050Y205049D01*
X329012Y205599D01*
X329000Y206198D01*
Y206211D01*
Y206236D01*
Y206286D01*
Y206361D01*
Y206448D01*
X329012Y206548D01*
Y206673D01*
X329025Y206811D01*
Y206948D01*
X329037Y207111D01*
X329075Y207461D01*
X329112Y207848D01*
X329175Y208260D01*
X329237Y208698D01*
X329337Y209148D01*
X329437Y209597D01*
X329575Y210047D01*
X329725Y210472D01*
X329912Y210885D01*
X330125Y211260D01*
X330362Y211597D01*
X330375Y211609D01*
X330412Y211660D01*
X330487Y211735D01*
X330587Y211822D01*
X330700Y211935D01*
X330849Y212059D01*
X331024Y212197D01*
X331212Y212334D01*
X331437Y212472D01*
X331674Y212609D01*
X331937Y212734D01*
X332224Y212847D01*
X332537Y212934D01*
X332862Y213009D01*
X333211Y213059D01*
X333586Y213072D01*
X333736D01*
X333836Y213059D01*
D02*
G37*
G36*
X311383Y211572D02*
X306247D01*
X305560Y208110D01*
X305572Y208123D01*
X305610Y208148D01*
X305672Y208185D01*
X305760Y208235D01*
X305860Y208298D01*
X305997Y208373D01*
X306134Y208435D01*
X306297Y208523D01*
X306472Y208598D01*
X306659Y208660D01*
X307072Y208798D01*
X307284Y208848D01*
X307509Y208885D01*
X307747Y208910D01*
X307984Y208923D01*
X308059D01*
X308146Y208910D01*
X308271D01*
X308409Y208885D01*
X308584Y208860D01*
X308771Y208823D01*
X308971Y208773D01*
X309184Y208710D01*
X309421Y208635D01*
X309659Y208548D01*
X309896Y208435D01*
X310133Y208298D01*
X310371Y208148D01*
X310596Y207960D01*
X310821Y207761D01*
X310833Y207748D01*
X310871Y207710D01*
X310933Y207636D01*
X311008Y207548D01*
X311096Y207436D01*
X311183Y207298D01*
X311296Y207136D01*
X311408Y206948D01*
X311508Y206748D01*
X311621Y206523D01*
X311708Y206273D01*
X311808Y206011D01*
X311870Y205723D01*
X311933Y205424D01*
X311971Y205099D01*
X311983Y204761D01*
Y204736D01*
Y204686D01*
X311971Y204599D01*
Y204474D01*
X311958Y204324D01*
X311933Y204149D01*
X311896Y203949D01*
X311858Y203736D01*
X311796Y203512D01*
X311733Y203262D01*
X311646Y203012D01*
X311546Y202762D01*
X311433Y202512D01*
X311296Y202249D01*
X311133Y201999D01*
X310958Y201762D01*
X310946Y201750D01*
X310896Y201700D01*
X310833Y201625D01*
X310733Y201525D01*
X310608Y201400D01*
X310458Y201275D01*
X310283Y201137D01*
X310084Y200987D01*
X309846Y200837D01*
X309596Y200700D01*
X309321Y200575D01*
X309021Y200450D01*
X308696Y200350D01*
X308359Y200275D01*
X307984Y200225D01*
X307597Y200212D01*
X307522D01*
X307434Y200225D01*
X307309D01*
X307159Y200237D01*
X306984Y200262D01*
X306797Y200300D01*
X306584Y200337D01*
X306359Y200387D01*
X306134Y200450D01*
X305897Y200525D01*
X305647Y200625D01*
X305410Y200737D01*
X305172Y200862D01*
X304947Y201012D01*
X304735Y201187D01*
X304722Y201200D01*
X304685Y201237D01*
X304635Y201287D01*
X304560Y201362D01*
X304472Y201462D01*
X304385Y201587D01*
X304272Y201725D01*
X304172Y201875D01*
X304060Y202050D01*
X303948Y202249D01*
X303848Y202462D01*
X303748Y202699D01*
X303660Y202949D01*
X303585Y203212D01*
X303523Y203487D01*
X303485Y203787D01*
X305135Y203924D01*
Y203911D01*
X305147Y203874D01*
X305160Y203811D01*
X305172Y203724D01*
X305197Y203624D01*
X305222Y203512D01*
X305310Y203237D01*
X305422Y202949D01*
X305560Y202649D01*
X305747Y202349D01*
X305860Y202224D01*
X305972Y202099D01*
X305984Y202087D01*
X306010Y202075D01*
X306047Y202050D01*
X306097Y202012D01*
X306159Y201962D01*
X306234Y201912D01*
X306434Y201800D01*
X306672Y201687D01*
X306947Y201600D01*
X307259Y201525D01*
X307422Y201512D01*
X307597Y201500D01*
X307709D01*
X307784Y201512D01*
X307884Y201525D01*
X307997Y201550D01*
X308121Y201575D01*
X308259Y201612D01*
X308571Y201712D01*
X308721Y201775D01*
X308884Y201862D01*
X309046Y201962D01*
X309209Y202075D01*
X309371Y202199D01*
X309521Y202349D01*
X309534Y202362D01*
X309559Y202387D01*
X309596Y202437D01*
X309646Y202512D01*
X309709Y202587D01*
X309771Y202699D01*
X309846Y202824D01*
X309921Y202962D01*
X309984Y203112D01*
X310058Y203287D01*
X310121Y203474D01*
X310183Y203674D01*
X310233Y203887D01*
X310271Y204124D01*
X310296Y204361D01*
X310308Y204624D01*
Y204636D01*
Y204686D01*
Y204749D01*
X310296Y204849D01*
X310283Y204961D01*
X310271Y205086D01*
X310246Y205236D01*
X310208Y205399D01*
X310121Y205736D01*
X310058Y205911D01*
X309984Y206086D01*
X309896Y206261D01*
X309796Y206436D01*
X309684Y206598D01*
X309546Y206748D01*
X309534Y206761D01*
X309509Y206786D01*
X309471Y206823D01*
X309409Y206873D01*
X309334Y206936D01*
X309246Y206998D01*
X309134Y207073D01*
X309021Y207148D01*
X308884Y207211D01*
X308734Y207286D01*
X308571Y207348D01*
X308396Y207411D01*
X308196Y207461D01*
X307997Y207498D01*
X307784Y207523D01*
X307559Y207536D01*
X307434D01*
X307359Y207523D01*
X307284D01*
X307097Y207498D01*
X306884Y207448D01*
X306659Y207386D01*
X306422Y207298D01*
X306185Y207186D01*
X306172D01*
X306159Y207173D01*
X306084Y207123D01*
X305972Y207048D01*
X305847Y206948D01*
X305685Y206811D01*
X305535Y206661D01*
X305372Y206486D01*
X305235Y206298D01*
X303760Y206486D01*
X304997Y213072D01*
X311383D01*
Y211572D01*
D02*
G37*
G36*
X277622Y159499D02*
X279184Y159187D01*
X282934Y158249D01*
X284809Y156999D01*
X286684Y155749D01*
X286997Y155437D01*
X287622Y155124D01*
X288247Y154187D01*
X289184Y153249D01*
X291059Y149812D01*
X291997Y147937D01*
X292309Y145750D01*
Y143562D01*
Y143250D01*
X291997Y142937D01*
X291684Y142625D01*
X290747Y142312D01*
X286059D01*
X285747Y142625D01*
X285122Y142937D01*
X284809Y143562D01*
Y144500D01*
Y144812D01*
Y145125D01*
X284497Y146687D01*
X283559Y148875D01*
X281997Y150750D01*
X281684Y151062D01*
X280434Y151999D01*
X278559Y152624D01*
X276059Y152937D01*
X275122D01*
X273247Y152624D01*
X271060Y151999D01*
X268872Y150750D01*
X268560Y150437D01*
X267622Y149187D01*
X266685Y147312D01*
X266060Y145125D01*
Y144500D01*
X265747Y143250D01*
Y141062D01*
Y138250D01*
X265435Y134812D01*
Y130750D01*
X266060Y122625D01*
Y122000D01*
X266685Y120437D01*
X267310Y118562D01*
X268872Y116687D01*
X269497Y116375D01*
X270747Y115750D01*
X272935Y114812D01*
X275435Y114500D01*
X276059D01*
X277622Y114812D01*
X279809Y115437D01*
X281684Y116687D01*
X281997Y117000D01*
X283247Y118250D01*
X284184Y120125D01*
X284809Y122625D01*
Y124187D01*
Y124500D01*
X285122Y125125D01*
X285434Y125437D01*
X286372Y125750D01*
X291059D01*
X291684Y125437D01*
X291997Y125125D01*
X292309Y124187D01*
Y122312D01*
Y122000D01*
X291997Y121375D01*
Y120125D01*
X291372Y118562D01*
X289809Y114812D01*
X288559Y113250D01*
X286997Y111375D01*
X286684Y111062D01*
X286372Y110750D01*
X285122Y110125D01*
X283872Y109187D01*
X282309Y108250D01*
X280434Y107625D01*
X278247Y107312D01*
X275747Y107000D01*
X274497D01*
X273247Y107312D01*
X271685Y107625D01*
X267935Y108875D01*
X265747Y109812D01*
X263872Y111375D01*
X263560Y111687D01*
X263247Y112312D01*
X262310Y113250D01*
X261372Y114500D01*
X259810Y117937D01*
X258872Y119812D01*
X258560Y122312D01*
Y122937D01*
Y124187D01*
Y126375D01*
Y129187D01*
Y132625D01*
Y136375D01*
Y144500D01*
Y144812D01*
X258872Y145750D01*
Y146687D01*
X259497Y148250D01*
X261060Y151999D01*
X262310Y153874D01*
X263872Y155437D01*
X264185Y155749D01*
X264810Y156062D01*
X265747Y156687D01*
X267310Y157624D01*
X270747Y159187D01*
X272935Y159499D01*
X275435Y159812D01*
X276684D01*
X277622Y159499D01*
D02*
G37*
G36*
X92624Y158562D02*
X92937Y157937D01*
Y108875D01*
Y108562D01*
Y108250D01*
X92312Y107937D01*
X91687Y107625D01*
X84499D01*
X84187Y107937D01*
X83874Y108562D01*
X69187Y145125D01*
X68875Y145437D01*
X68562D01*
X68250Y145125D01*
Y108562D01*
Y108250D01*
X67937Y107937D01*
X67625Y107312D01*
X66687Y107000D01*
X62937D01*
X62625Y107312D01*
X62000Y107625D01*
X61687Y108562D01*
Y157312D01*
Y157624D01*
X62000Y158249D01*
X62312Y158562D01*
X63250Y158874D01*
X70125D01*
X70437Y158562D01*
X70750Y157937D01*
X85124Y121062D01*
X85749Y120750D01*
X86062D01*
X86687Y121062D01*
Y157937D01*
Y158249D01*
X86999Y158562D01*
X87312Y158874D01*
X88249Y159187D01*
X92312D01*
X92624Y158562D01*
D02*
G37*
G36*
X329809Y159499D02*
X331371Y159187D01*
X335121Y158249D01*
X336684Y156999D01*
X338559Y155749D01*
X338871Y155437D01*
X339184Y155124D01*
X340121Y154187D01*
X341059Y153249D01*
X342934Y149812D01*
X344184Y145750D01*
Y145437D01*
Y144812D01*
Y143875D01*
X343871Y142625D01*
X343246Y139812D01*
X341684Y136687D01*
X341371Y136062D01*
X340121Y134500D01*
X337934Y132625D01*
X335121Y131062D01*
X334809Y130750D01*
X334184Y130125D01*
X333871Y129500D01*
Y128875D01*
X334184Y128562D01*
X342934Y110125D01*
Y109812D01*
Y109500D01*
Y108562D01*
X341996Y107937D01*
X336996D01*
X336371Y108250D01*
X335434Y108562D01*
X335121Y109500D01*
X326371Y127937D01*
Y128250D01*
X325746Y128562D01*
X325121Y128875D01*
X321059Y128562D01*
X320746Y128250D01*
X320434Y127937D01*
X320121D01*
Y109500D01*
Y109187D01*
X319809Y108875D01*
X319496Y108250D01*
X318559Y107937D01*
X313872D01*
X313559Y108250D01*
X313247Y108562D01*
X312934Y109500D01*
Y158249D01*
Y158562D01*
X313247Y159187D01*
X313559Y159499D01*
X314184Y159812D01*
X328559D01*
X329809Y159499D01*
D02*
G37*
G36*
X226060D02*
X227623Y159187D01*
X231060Y158249D01*
X232935Y156999D01*
X234810Y155749D01*
X235123Y155437D01*
X235435Y155124D01*
X236373Y154187D01*
X237310Y153249D01*
X239185Y149812D01*
X239810Y147937D01*
X240123Y145750D01*
Y145437D01*
Y144812D01*
Y143875D01*
Y142625D01*
X239498Y139812D01*
X237935Y136687D01*
X237623Y136062D01*
X236373Y134500D01*
X234185Y132625D01*
X231373Y131062D01*
X231060Y130750D01*
X230435Y130125D01*
X229810Y129500D01*
Y128875D01*
X230123Y128562D01*
X239185Y110125D01*
Y109812D01*
X239498Y109500D01*
X239185Y108562D01*
X238560Y107937D01*
X233248D01*
X232935Y108250D01*
X232310Y108562D01*
X231685Y109500D01*
X223560Y127937D01*
X223248Y128250D01*
X221998Y128875D01*
X216998Y128562D01*
X216685Y128250D01*
X216373Y127937D01*
X216060D01*
Y109500D01*
Y109187D01*
X215748Y108875D01*
X215435Y108250D01*
X214498Y107937D01*
X210435D01*
X210123Y108250D01*
X209498Y108562D01*
X209185Y109500D01*
Y158249D01*
Y158562D01*
X209498Y159187D01*
X209810Y159499D01*
X210748Y159812D01*
X224810D01*
X226060Y159499D01*
D02*
G37*
G36*
X530744Y158562D02*
X531056Y157937D01*
Y153874D01*
Y153562D01*
X530744Y152937D01*
X530432Y152312D01*
X529494Y151999D01*
X512307D01*
X511994Y151687D01*
Y151374D01*
Y138250D01*
X512307D01*
X512619Y137937D01*
X529494D01*
X529807Y137625D01*
X530119Y137312D01*
X530432Y136375D01*
Y132312D01*
Y132000D01*
Y131687D01*
X529807Y131375D01*
X529182Y131062D01*
X512619D01*
X512307Y130750D01*
X511994Y130437D01*
X511369Y115437D01*
Y115125D01*
X511682Y114812D01*
X511994Y114500D01*
X512307Y114812D01*
X530432D01*
X531056Y114500D01*
X531681Y114187D01*
X531994Y113250D01*
Y108875D01*
Y108562D01*
X531681Y108250D01*
X531369Y107937D01*
X530119Y107625D01*
X505744D01*
X505119Y107937D01*
X504494Y108250D01*
X504182Y108875D01*
Y157937D01*
Y158249D01*
X504494Y158562D01*
X505119Y158874D01*
X506057Y159187D01*
X530432D01*
X530744Y158562D01*
D02*
G37*
G36*
X486370D02*
X486682Y157937D01*
Y153874D01*
Y153562D01*
X486370Y152937D01*
X486057Y152312D01*
X485120Y151999D01*
X474495D01*
X474182Y151687D01*
X473870Y151374D01*
Y150750D01*
Y149812D01*
Y147937D01*
Y145437D01*
Y141687D01*
Y139187D01*
Y136687D01*
Y133875D01*
Y130437D01*
Y108875D01*
Y108562D01*
X473557Y108250D01*
X473245Y107937D01*
X472307Y107625D01*
X468245D01*
X467932Y107937D01*
X467307Y108250D01*
X466995Y108875D01*
Y151374D01*
Y151687D01*
X466682Y151999D01*
X456370D01*
X456057Y152312D01*
X455745Y152937D01*
X455432Y153874D01*
Y157937D01*
Y158249D01*
X455745Y158562D01*
X456057Y158874D01*
X456682Y159187D01*
X486057D01*
X486370Y158562D01*
D02*
G37*
G36*
X428870Y158874D02*
X429495Y158249D01*
X443245Y108875D01*
X442933Y108250D01*
X442620Y107937D01*
X441683Y107625D01*
X437308D01*
X436370Y107937D01*
X435745Y108562D01*
X432308Y119812D01*
Y120125D01*
X431995Y120437D01*
X431683Y120750D01*
X418558D01*
X417933Y120437D01*
X417308Y119812D01*
X414495Y108562D01*
X414183Y108250D01*
X413870Y107937D01*
X412933Y107625D01*
X408245D01*
X407933Y107937D01*
X407308Y108250D01*
X406996Y108875D01*
X421058Y158249D01*
Y158562D01*
X421370Y158874D01*
X421683Y159187D01*
X428558D01*
X428870Y158874D01*
D02*
G37*
G36*
X389496Y158562D02*
X389808Y157937D01*
Y153874D01*
Y153562D01*
Y152937D01*
X389183Y152312D01*
X388558Y151999D01*
X370746D01*
X369808Y151374D01*
Y138250D01*
X370121Y137937D01*
X387308D01*
X387933Y137625D01*
X388246Y137312D01*
X388558Y136375D01*
Y132312D01*
Y132000D01*
X388246Y131687D01*
X387933Y131375D01*
X386996Y131062D01*
X370433D01*
X370121Y130750D01*
X369808Y130437D01*
Y115437D01*
X370746D01*
Y115125D01*
Y114812D01*
X371058Y114500D01*
X371371Y114812D01*
X389183D01*
X389808Y114500D01*
X390121Y114187D01*
X390433Y113250D01*
Y108875D01*
Y108562D01*
X390121Y108250D01*
X389808Y107937D01*
X388871Y107625D01*
X364184D01*
X363871Y107937D01*
X363246Y108250D01*
X362934Y108875D01*
Y157937D01*
Y158249D01*
X363246Y158562D01*
X363559Y158874D01*
X364496Y159187D01*
X389183D01*
X389496Y158562D01*
D02*
G37*
G36*
X187936D02*
X188248Y157937D01*
Y153874D01*
Y153562D01*
X187936Y152937D01*
X187623Y152312D01*
X186686Y151999D01*
X169186D01*
X168248Y151374D01*
Y138250D01*
X168561Y137937D01*
X185748D01*
X186061Y137625D01*
X186373Y137312D01*
X186686Y136375D01*
Y132312D01*
Y132000D01*
Y131687D01*
X186061Y131375D01*
X185436Y131062D01*
X168873D01*
X167623Y130437D01*
Y115437D01*
X168873D01*
Y115125D01*
Y114812D01*
Y114500D01*
X169186Y114812D01*
X186998D01*
X187623Y114500D01*
X187936Y114187D01*
X188248Y113250D01*
Y108875D01*
Y108562D01*
X187936Y108250D01*
X187623Y107937D01*
X186686Y107625D01*
X162623D01*
X162311Y107937D01*
X161686Y108250D01*
X161373Y108875D01*
Y157937D01*
Y158249D01*
X161686Y158562D01*
X161998Y158874D01*
X162936Y159187D01*
X187623D01*
X187936Y158562D01*
D02*
G37*
G36*
X142624D02*
X142936Y157937D01*
Y153874D01*
Y153562D01*
X142624Y152937D01*
X142311Y152312D01*
X141374Y151999D01*
X130436D01*
Y151687D01*
X130749D01*
Y151374D01*
Y150750D01*
Y149812D01*
Y147937D01*
Y145437D01*
Y141687D01*
Y139187D01*
Y136687D01*
Y133875D01*
Y130437D01*
Y108875D01*
Y108562D01*
X130436Y108250D01*
X130124Y107937D01*
X129186Y107625D01*
X124499D01*
X124186Y107937D01*
X123561Y108250D01*
X123249Y108875D01*
Y151374D01*
Y151687D01*
Y151999D01*
X113249D01*
X112624Y152312D01*
X111999Y152937D01*
X111686Y153874D01*
Y157937D01*
Y158249D01*
X111999Y158562D01*
X112624Y158874D01*
X113561Y159187D01*
X142311D01*
X142624Y158562D01*
D02*
G37*
G36*
X38562D02*
X38875Y157937D01*
Y108875D01*
Y108562D01*
X38562Y108250D01*
X38250Y107937D01*
X37312Y107625D01*
X33250D01*
X32625Y107937D01*
X32000Y108250D01*
Y108875D01*
Y157937D01*
Y158249D01*
Y158562D01*
X32625Y158874D01*
X33563Y159187D01*
X38250D01*
X38562Y158562D01*
D02*
G37*
G36*
X286627Y56794D02*
X286730Y56785D01*
X286843Y56766D01*
X286965Y56747D01*
X287105Y56729D01*
X287396Y56644D01*
X287555Y56597D01*
X287705Y56532D01*
X287864Y56466D01*
X288014Y56373D01*
X288164Y56279D01*
X288305Y56166D01*
X288314Y56157D01*
X288333Y56138D01*
X288370Y56101D01*
X288417Y56054D01*
X288473Y55988D01*
X288539Y55904D01*
X288614Y55810D01*
X288689Y55707D01*
X288764Y55595D01*
X288839Y55454D01*
X288905Y55314D01*
X288980Y55154D01*
X289045Y54985D01*
X289092Y54807D01*
X289139Y54620D01*
X289177Y54414D01*
X288005Y54320D01*
Y54329D01*
X287995Y54348D01*
X287986Y54386D01*
X287977Y54433D01*
X287958Y54489D01*
X287939Y54554D01*
X287892Y54704D01*
X287827Y54873D01*
X287752Y55042D01*
X287658Y55201D01*
X287555Y55332D01*
X287546Y55342D01*
X287536Y55351D01*
X287508Y55379D01*
X287471Y55407D01*
X287424Y55454D01*
X287368Y55492D01*
X287227Y55585D01*
X287058Y55679D01*
X286852Y55763D01*
X286627Y55820D01*
X286505Y55829D01*
X286374Y55838D01*
X286280D01*
X286177Y55820D01*
X286037Y55801D01*
X285887Y55763D01*
X285718Y55707D01*
X285549Y55623D01*
X285381Y55520D01*
X285371D01*
X285352Y55501D01*
X285324Y55482D01*
X285287Y55445D01*
X285193Y55351D01*
X285062Y55220D01*
X284921Y55051D01*
X284771Y54845D01*
X284631Y54611D01*
X284500Y54329D01*
Y54320D01*
X284490Y54292D01*
X284471Y54245D01*
X284453Y54189D01*
X284425Y54104D01*
X284396Y54011D01*
X284368Y53889D01*
X284340Y53758D01*
X284312Y53608D01*
X284284Y53448D01*
X284256Y53261D01*
X284228Y53064D01*
X284209Y52849D01*
X284190Y52614D01*
X284181Y52371D01*
X284172Y52108D01*
X284181Y52117D01*
X284190Y52136D01*
X284218Y52174D01*
X284247Y52211D01*
X284284Y52267D01*
X284340Y52333D01*
X284462Y52474D01*
X284612Y52633D01*
X284790Y52792D01*
X284987Y52942D01*
X285212Y53074D01*
X285221D01*
X285240Y53083D01*
X285278Y53102D01*
X285315Y53120D01*
X285381Y53148D01*
X285446Y53177D01*
X285521Y53205D01*
X285606Y53233D01*
X285802Y53289D01*
X286018Y53345D01*
X286252Y53383D01*
X286505Y53392D01*
X286562D01*
X286618Y53383D01*
X286702D01*
X286805Y53364D01*
X286927Y53345D01*
X287058Y53317D01*
X287199Y53280D01*
X287349Y53233D01*
X287518Y53177D01*
X287677Y53111D01*
X287846Y53027D01*
X288024Y52923D01*
X288192Y52811D01*
X288352Y52670D01*
X288511Y52520D01*
X288520Y52511D01*
X288549Y52483D01*
X288586Y52427D01*
X288642Y52361D01*
X288708Y52277D01*
X288773Y52174D01*
X288848Y52052D01*
X288933Y51911D01*
X289008Y51761D01*
X289083Y51593D01*
X289148Y51405D01*
X289214Y51208D01*
X289270Y50993D01*
X289308Y50768D01*
X289336Y50533D01*
X289345Y50280D01*
Y50271D01*
Y50243D01*
Y50196D01*
X289336Y50131D01*
Y50046D01*
X289326Y49952D01*
X289317Y49849D01*
X289298Y49727D01*
X289251Y49465D01*
X289177Y49184D01*
X289083Y48893D01*
X288951Y48593D01*
Y48584D01*
X288933Y48556D01*
X288914Y48518D01*
X288877Y48471D01*
X288839Y48406D01*
X288792Y48331D01*
X288670Y48162D01*
X288511Y47965D01*
X288333Y47769D01*
X288117Y47581D01*
X287874Y47412D01*
X287864D01*
X287846Y47394D01*
X287808Y47375D01*
X287752Y47347D01*
X287686Y47319D01*
X287611Y47281D01*
X287527Y47244D01*
X287424Y47206D01*
X287321Y47169D01*
X287199Y47131D01*
X286936Y47066D01*
X286646Y47019D01*
X286486Y47009D01*
X286327Y47000D01*
X286262D01*
X286187Y47009D01*
X286084Y47019D01*
X285962Y47038D01*
X285812Y47056D01*
X285652Y47094D01*
X285474Y47131D01*
X285287Y47188D01*
X285099Y47262D01*
X284893Y47347D01*
X284696Y47459D01*
X284490Y47581D01*
X284293Y47722D01*
X284106Y47890D01*
X283928Y48078D01*
X283918Y48087D01*
X283890Y48134D01*
X283843Y48190D01*
X283787Y48284D01*
X283712Y48406D01*
X283637Y48556D01*
X283553Y48725D01*
X283469Y48931D01*
X283375Y49165D01*
X283291Y49427D01*
X283216Y49718D01*
X283150Y50046D01*
X283084Y50393D01*
X283037Y50786D01*
X283009Y51199D01*
X283000Y51649D01*
Y51658D01*
Y51677D01*
Y51714D01*
Y51771D01*
Y51836D01*
X283009Y51911D01*
Y52005D01*
X283019Y52108D01*
Y52211D01*
X283028Y52333D01*
X283056Y52595D01*
X283084Y52886D01*
X283131Y53195D01*
X283178Y53523D01*
X283253Y53861D01*
X283328Y54198D01*
X283431Y54536D01*
X283544Y54854D01*
X283684Y55163D01*
X283843Y55445D01*
X284022Y55698D01*
X284031Y55707D01*
X284059Y55745D01*
X284115Y55801D01*
X284190Y55866D01*
X284275Y55951D01*
X284387Y56045D01*
X284518Y56148D01*
X284659Y56251D01*
X284828Y56354D01*
X285006Y56457D01*
X285203Y56551D01*
X285418Y56635D01*
X285652Y56701D01*
X285896Y56757D01*
X286159Y56794D01*
X286440Y56804D01*
X286552D01*
X286627Y56794D01*
D02*
G37*
G36*
X284744Y204761D02*
X286468D01*
Y203324D01*
X284744D01*
Y200262D01*
X283169D01*
Y203324D01*
X277608D01*
Y204761D01*
X283456Y213072D01*
X284744D01*
Y204761D01*
D02*
G37*
G36*
X256392Y213059D02*
X256492D01*
X256592Y213047D01*
X256717Y213034D01*
X256854Y213022D01*
X257154Y212959D01*
X257467Y212884D01*
X257804Y212772D01*
X258142Y212622D01*
X258154D01*
X258179Y212597D01*
X258229Y212572D01*
X258291Y212534D01*
X258367Y212497D01*
X258442Y212434D01*
X258641Y212297D01*
X258866Y212122D01*
X259091Y211910D01*
X259304Y211660D01*
X259491Y211385D01*
Y211372D01*
X259516Y211347D01*
X259541Y211310D01*
X259566Y211247D01*
X259604Y211185D01*
X259641Y211097D01*
X259729Y210885D01*
X259816Y210647D01*
X259891Y210360D01*
X259941Y210060D01*
X259966Y209735D01*
Y209722D01*
Y209697D01*
Y209660D01*
X259954Y209597D01*
Y209523D01*
X259941Y209435D01*
X259916Y209235D01*
X259854Y208998D01*
X259779Y208748D01*
X259666Y208485D01*
X259516Y208223D01*
Y208210D01*
X259491Y208198D01*
X259466Y208160D01*
X259429Y208110D01*
X259329Y207985D01*
X259179Y207836D01*
X258991Y207661D01*
X258766Y207486D01*
X258504Y207311D01*
X258192Y207148D01*
X258204D01*
X258242Y207136D01*
X258304Y207123D01*
X258379Y207098D01*
X258479Y207061D01*
X258579Y207023D01*
X258841Y206911D01*
X259116Y206773D01*
X259416Y206573D01*
X259704Y206348D01*
X259829Y206211D01*
X259954Y206061D01*
X259966Y206049D01*
X259979Y206024D01*
X260016Y205973D01*
X260054Y205911D01*
X260104Y205836D01*
X260154Y205736D01*
X260216Y205624D01*
X260278Y205499D01*
X260329Y205349D01*
X260391Y205199D01*
X260441Y205024D01*
X260491Y204849D01*
X260566Y204449D01*
X260578Y204224D01*
X260591Y203999D01*
Y203986D01*
Y203924D01*
X260578Y203836D01*
Y203724D01*
X260553Y203574D01*
X260529Y203412D01*
X260491Y203224D01*
X260441Y203012D01*
X260378Y202799D01*
X260291Y202574D01*
X260191Y202337D01*
X260079Y202099D01*
X259929Y201862D01*
X259766Y201612D01*
X259579Y201387D01*
X259366Y201162D01*
X259354Y201150D01*
X259316Y201112D01*
X259241Y201050D01*
X259141Y200987D01*
X259029Y200887D01*
X258879Y200800D01*
X258716Y200687D01*
X258517Y200587D01*
X258304Y200475D01*
X258067Y200362D01*
X257817Y200275D01*
X257542Y200187D01*
X257254Y200112D01*
X256942Y200050D01*
X256617Y200012D01*
X256267Y200000D01*
X256192D01*
X256105Y200012D01*
X255992D01*
X255842Y200025D01*
X255680Y200050D01*
X255492Y200088D01*
X255280Y200125D01*
X255067Y200175D01*
X254842Y200250D01*
X254605Y200325D01*
X254380Y200425D01*
X254143Y200537D01*
X253905Y200675D01*
X253680Y200825D01*
X253468Y201000D01*
X253455Y201012D01*
X253418Y201050D01*
X253368Y201100D01*
X253293Y201187D01*
X253205Y201287D01*
X253105Y201400D01*
X253005Y201537D01*
X252893Y201700D01*
X252780Y201875D01*
X252668Y202075D01*
X252568Y202287D01*
X252468Y202524D01*
X252381Y202774D01*
X252306Y203037D01*
X252243Y203312D01*
X252206Y203612D01*
X253780Y203824D01*
Y203811D01*
X253793Y203762D01*
X253805Y203699D01*
X253830Y203599D01*
X253855Y203499D01*
X253893Y203362D01*
X253943Y203224D01*
X253993Y203074D01*
X254118Y202762D01*
X254280Y202437D01*
X254468Y202137D01*
X254580Y202012D01*
X254692Y201887D01*
X254705D01*
X254717Y201862D01*
X254755Y201837D01*
X254805Y201800D01*
X254867Y201750D01*
X254942Y201700D01*
X255130Y201600D01*
X255367Y201487D01*
X255642Y201387D01*
X255942Y201325D01*
X256105Y201312D01*
X256280Y201300D01*
X256392D01*
X256467Y201312D01*
X256567Y201325D01*
X256667Y201337D01*
X256792Y201362D01*
X256929Y201400D01*
X257229Y201487D01*
X257379Y201550D01*
X257542Y201625D01*
X257704Y201712D01*
X257854Y201812D01*
X258004Y201924D01*
X258154Y202062D01*
X258167Y202075D01*
X258192Y202099D01*
X258229Y202137D01*
X258279Y202199D01*
X258329Y202274D01*
X258391Y202362D01*
X258466Y202462D01*
X258542Y202587D01*
X258604Y202712D01*
X258679Y202862D01*
X258804Y203187D01*
X258841Y203362D01*
X258879Y203549D01*
X258904Y203749D01*
X258916Y203962D01*
Y203974D01*
Y204011D01*
Y204062D01*
X258904Y204149D01*
X258891Y204236D01*
X258879Y204349D01*
X258854Y204461D01*
X258829Y204599D01*
X258741Y204874D01*
X258691Y205024D01*
X258616Y205174D01*
X258529Y205324D01*
X258442Y205474D01*
X258329Y205611D01*
X258204Y205749D01*
X258192Y205761D01*
X258167Y205774D01*
X258129Y205811D01*
X258079Y205861D01*
X258004Y205911D01*
X257917Y205973D01*
X257829Y206036D01*
X257717Y206098D01*
X257592Y206161D01*
X257454Y206223D01*
X257142Y206336D01*
X256792Y206423D01*
X256604Y206436D01*
X256404Y206448D01*
X256329D01*
X256230Y206436D01*
X256105Y206423D01*
X255942Y206411D01*
X255755Y206386D01*
X255542Y206336D01*
X255305Y206286D01*
X255480Y207661D01*
X255505D01*
X255567Y207648D01*
X255655Y207636D01*
X255830D01*
X255905Y207648D01*
X255992D01*
X256092Y207661D01*
X256205Y207686D01*
X256329Y207698D01*
X256617Y207761D01*
X256917Y207861D01*
X257229Y207985D01*
X257542Y208160D01*
X257554Y208173D01*
X257579Y208185D01*
X257617Y208210D01*
X257667Y208260D01*
X257729Y208310D01*
X257804Y208385D01*
X257867Y208460D01*
X257954Y208560D01*
X258029Y208660D01*
X258092Y208785D01*
X258167Y208923D01*
X258229Y209060D01*
X258279Y209223D01*
X258316Y209398D01*
X258342Y209573D01*
X258354Y209772D01*
Y209785D01*
Y209810D01*
Y209860D01*
X258342Y209923D01*
Y209997D01*
X258329Y210085D01*
X258279Y210285D01*
X258217Y210510D01*
X258104Y210747D01*
X257967Y210985D01*
X257867Y211097D01*
X257767Y211210D01*
X257754Y211222D01*
X257742Y211235D01*
X257704Y211260D01*
X257667Y211297D01*
X257529Y211397D01*
X257354Y211497D01*
X257142Y211597D01*
X256879Y211697D01*
X256579Y211759D01*
X256430Y211784D01*
X256167D01*
X256105Y211772D01*
X256017D01*
X255930Y211759D01*
X255717Y211709D01*
X255467Y211647D01*
X255217Y211535D01*
X254955Y211397D01*
X254830Y211297D01*
X254717Y211197D01*
X254705Y211185D01*
X254692Y211172D01*
X254655Y211135D01*
X254618Y211085D01*
X254568Y211035D01*
X254517Y210960D01*
X254455Y210872D01*
X254393Y210772D01*
X254330Y210647D01*
X254255Y210522D01*
X254193Y210385D01*
X254130Y210222D01*
X254080Y210060D01*
X254018Y209872D01*
X253980Y209685D01*
X253943Y209473D01*
X252368Y209748D01*
Y209760D01*
X252381Y209823D01*
X252405Y209897D01*
X252430Y210010D01*
X252468Y210135D01*
X252518Y210297D01*
X252568Y210460D01*
X252643Y210647D01*
X252718Y210835D01*
X252818Y211035D01*
X252918Y211247D01*
X253043Y211447D01*
X253168Y211647D01*
X253318Y211847D01*
X253493Y212022D01*
X253668Y212197D01*
X253680Y212209D01*
X253718Y212234D01*
X253768Y212272D01*
X253855Y212334D01*
X253955Y212397D01*
X254068Y212472D01*
X254218Y212559D01*
X254368Y212634D01*
X254543Y212722D01*
X254742Y212797D01*
X254955Y212872D01*
X255180Y212934D01*
X255417Y212997D01*
X255667Y213034D01*
X255942Y213059D01*
X256217Y213072D01*
X256317D01*
X256392Y213059D01*
D02*
G37*
G36*
X231365D02*
X231502D01*
X231652Y213047D01*
X231827Y213022D01*
X232027Y212984D01*
X232252Y212947D01*
X232477Y212884D01*
X232714Y212822D01*
X232964Y212734D01*
X233202Y212634D01*
X233452Y212522D01*
X233676Y212384D01*
X233901Y212222D01*
X234114Y212047D01*
X234126Y212034D01*
X234164Y211997D01*
X234214Y211947D01*
X234276Y211859D01*
X234364Y211759D01*
X234451Y211647D01*
X234551Y211510D01*
X234651Y211347D01*
X234751Y211172D01*
X234851Y210972D01*
X234939Y210772D01*
X235026Y210547D01*
X235089Y210310D01*
X235139Y210047D01*
X235176Y209785D01*
X235189Y209510D01*
Y209498D01*
Y209473D01*
Y209435D01*
Y209385D01*
X235176Y209310D01*
Y209235D01*
X235151Y209035D01*
X235114Y208810D01*
X235051Y208548D01*
X234976Y208273D01*
X234864Y207998D01*
Y207985D01*
X234851Y207960D01*
X234826Y207923D01*
X234801Y207873D01*
X234764Y207798D01*
X234726Y207723D01*
X234614Y207523D01*
X234476Y207298D01*
X234289Y207023D01*
X234076Y206736D01*
X233814Y206436D01*
X233801Y206423D01*
X233776Y206398D01*
X233739Y206348D01*
X233676Y206286D01*
X233589Y206198D01*
X233501Y206098D01*
X233377Y205986D01*
X233239Y205849D01*
X233089Y205699D01*
X232902Y205524D01*
X232714Y205336D01*
X232489Y205136D01*
X232252Y204924D01*
X231989Y204686D01*
X231702Y204449D01*
X231402Y204186D01*
X231390Y204174D01*
X231340Y204136D01*
X231265Y204074D01*
X231177Y203999D01*
X231065Y203899D01*
X230940Y203787D01*
X230640Y203537D01*
X230340Y203274D01*
X230040Y203012D01*
X229902Y202887D01*
X229778Y202762D01*
X229665Y202662D01*
X229578Y202574D01*
X229565Y202562D01*
X229515Y202499D01*
X229440Y202412D01*
X229340Y202312D01*
X229240Y202174D01*
X229128Y202037D01*
X229015Y201887D01*
X228915Y201725D01*
X235201D01*
Y200212D01*
X226741D01*
Y200225D01*
Y200237D01*
Y200312D01*
Y200412D01*
X226753Y200562D01*
X226778Y200725D01*
X226803Y200912D01*
X226853Y201100D01*
X226916Y201300D01*
Y201312D01*
X226928Y201337D01*
X226953Y201387D01*
X226978Y201450D01*
X227016Y201525D01*
X227053Y201612D01*
X227166Y201837D01*
X227316Y202099D01*
X227491Y202387D01*
X227703Y202687D01*
X227953Y202999D01*
X227966Y203012D01*
X227990Y203037D01*
X228028Y203087D01*
X228090Y203149D01*
X228165Y203224D01*
X228253Y203324D01*
X228353Y203437D01*
X228478Y203562D01*
X228615Y203687D01*
X228765Y203836D01*
X228940Y203999D01*
X229115Y204174D01*
X229315Y204349D01*
X229528Y204536D01*
X229765Y204736D01*
X230002Y204936D01*
X230027Y204961D01*
X230090Y205011D01*
X230202Y205099D01*
X230340Y205224D01*
X230515Y205361D01*
X230702Y205536D01*
X230915Y205723D01*
X231140Y205924D01*
X231614Y206361D01*
X232077Y206811D01*
X232289Y207036D01*
X232489Y207261D01*
X232677Y207461D01*
X232827Y207661D01*
X232839Y207673D01*
X232864Y207710D01*
X232902Y207761D01*
X232939Y207836D01*
X233002Y207923D01*
X233064Y208023D01*
X233127Y208148D01*
X233202Y208273D01*
X233339Y208560D01*
X233464Y208873D01*
X233501Y209048D01*
X233539Y209210D01*
X233564Y209385D01*
X233577Y209548D01*
Y209560D01*
Y209585D01*
Y209635D01*
X233564Y209710D01*
X233552Y209785D01*
X233539Y209872D01*
X233489Y210097D01*
X233414Y210347D01*
X233289Y210610D01*
X233214Y210735D01*
X233127Y210872D01*
X233027Y210997D01*
X232902Y211122D01*
X232889Y211135D01*
X232877Y211147D01*
X232827Y211185D01*
X232777Y211222D01*
X232714Y211272D01*
X232627Y211322D01*
X232539Y211385D01*
X232427Y211447D01*
X232314Y211510D01*
X232177Y211572D01*
X231877Y211672D01*
X231539Y211747D01*
X231352Y211759D01*
X231152Y211772D01*
X231040D01*
X230965Y211759D01*
X230865Y211747D01*
X230752Y211735D01*
X230627Y211709D01*
X230502Y211684D01*
X230202Y211609D01*
X229902Y211485D01*
X229753Y211410D01*
X229603Y211310D01*
X229465Y211210D01*
X229328Y211085D01*
X229315Y211072D01*
X229303Y211060D01*
X229265Y211010D01*
X229228Y210960D01*
X229178Y210897D01*
X229115Y210810D01*
X229053Y210710D01*
X228990Y210597D01*
X228928Y210472D01*
X228865Y210335D01*
X228815Y210172D01*
X228753Y210010D01*
X228715Y209835D01*
X228678Y209635D01*
X228665Y209435D01*
X228653Y209210D01*
X227041Y209373D01*
Y209398D01*
X227053Y209448D01*
X227066Y209548D01*
X227078Y209673D01*
X227116Y209823D01*
X227153Y209997D01*
X227203Y210185D01*
X227253Y210397D01*
X227328Y210610D01*
X227416Y210835D01*
X227516Y211060D01*
X227628Y211297D01*
X227766Y211522D01*
X227915Y211735D01*
X228090Y211935D01*
X228278Y212122D01*
X228290Y212134D01*
X228328Y212159D01*
X228390Y212209D01*
X228478Y212272D01*
X228590Y212347D01*
X228715Y212422D01*
X228878Y212509D01*
X229053Y212597D01*
X229253Y212684D01*
X229465Y212772D01*
X229702Y212847D01*
X229965Y212922D01*
X230240Y212984D01*
X230540Y213034D01*
X230852Y213059D01*
X231190Y213072D01*
X231277D01*
X231365Y213059D01*
D02*
G37*
G36*
X415937Y34697D02*
X416062Y34685D01*
X416187Y34673D01*
X416337Y34648D01*
X416500Y34610D01*
X416837Y34523D01*
X417012Y34460D01*
X417200Y34385D01*
X417362Y34298D01*
X417537Y34185D01*
X417687Y34073D01*
X417837Y33935D01*
X417850Y33923D01*
X417874Y33898D01*
X417912Y33860D01*
X417949Y33798D01*
X418012Y33710D01*
X418074Y33610D01*
X418137Y33498D01*
X418212Y33360D01*
X418287Y33198D01*
X418349Y33023D01*
X418412Y32836D01*
X418474Y32623D01*
X418512Y32398D01*
X418549Y32148D01*
X418574Y31873D01*
X418587Y31586D01*
Y25212D01*
X417012D01*
Y31061D01*
Y31073D01*
Y31098D01*
Y31148D01*
Y31211D01*
Y31286D01*
X417000Y31386D01*
X416987Y31586D01*
X416975Y31798D01*
X416950Y32023D01*
X416900Y32236D01*
X416850Y32411D01*
X416837Y32436D01*
X416825Y32486D01*
X416787Y32561D01*
X416725Y32661D01*
X416650Y32761D01*
X416550Y32873D01*
X416437Y32985D01*
X416300Y33085D01*
X416287Y33098D01*
X416225Y33123D01*
X416150Y33173D01*
X416037Y33223D01*
X415900Y33260D01*
X415737Y33310D01*
X415563Y33335D01*
X415363Y33348D01*
X415263D01*
X415200Y33335D01*
X415113Y33323D01*
X415013Y33310D01*
X414788Y33260D01*
X414525Y33185D01*
X414250Y33073D01*
X414113Y32998D01*
X413988Y32910D01*
X413851Y32798D01*
X413726Y32685D01*
X413713Y32673D01*
X413700Y32661D01*
X413663Y32611D01*
X413625Y32561D01*
X413576Y32486D01*
X413526Y32411D01*
X413463Y32298D01*
X413413Y32186D01*
X413351Y32048D01*
X413288Y31886D01*
X413238Y31723D01*
X413188Y31536D01*
X413151Y31323D01*
X413113Y31098D01*
X413101Y30861D01*
X413088Y30599D01*
Y25212D01*
X411514D01*
Y31248D01*
Y31261D01*
Y31298D01*
Y31348D01*
Y31423D01*
X411501Y31511D01*
X411489Y31611D01*
X411464Y31836D01*
X411414Y32098D01*
X411351Y32361D01*
X411251Y32611D01*
X411126Y32823D01*
X411114Y32848D01*
X411051Y32910D01*
X410964Y32985D01*
X410826Y33085D01*
X410651Y33185D01*
X410439Y33260D01*
X410176Y33323D01*
X409877Y33348D01*
X409764D01*
X409639Y33335D01*
X409477Y33310D01*
X409289Y33260D01*
X409077Y33198D01*
X408852Y33110D01*
X408639Y32998D01*
X408614Y32985D01*
X408552Y32936D01*
X408452Y32848D01*
X408327Y32736D01*
X408189Y32598D01*
X408064Y32423D01*
X407939Y32211D01*
X407827Y31973D01*
Y31961D01*
X407814Y31948D01*
X407802Y31898D01*
X407789Y31848D01*
X407765Y31773D01*
X407752Y31698D01*
X407727Y31598D01*
X407702Y31473D01*
X407677Y31348D01*
X407652Y31198D01*
X407640Y31036D01*
X407615Y30861D01*
X407602Y30673D01*
X407590Y30474D01*
X407577Y30261D01*
Y30024D01*
Y25212D01*
X406003D01*
Y34498D01*
X407415D01*
Y33210D01*
X407440Y33223D01*
X407465Y33260D01*
X407490Y33310D01*
X407590Y33435D01*
X407727Y33585D01*
X407890Y33760D01*
X408089Y33948D01*
X408314Y34123D01*
X408577Y34285D01*
X408589D01*
X408614Y34298D01*
X408652Y34323D01*
X408702Y34348D01*
X408777Y34385D01*
X408852Y34423D01*
X409052Y34498D01*
X409302Y34573D01*
X409577Y34648D01*
X409889Y34697D01*
X410226Y34710D01*
X410326D01*
X410401Y34697D01*
X410489D01*
X410589Y34685D01*
X410826Y34660D01*
X411089Y34597D01*
X411376Y34523D01*
X411651Y34423D01*
X411913Y34273D01*
X411926D01*
X411939Y34248D01*
X412026Y34198D01*
X412138Y34098D01*
X412276Y33960D01*
X412426Y33798D01*
X412588Y33598D01*
X412726Y33360D01*
X412838Y33085D01*
X412851Y33098D01*
X412888Y33160D01*
X412951Y33235D01*
X413038Y33335D01*
X413151Y33460D01*
X413288Y33598D01*
X413438Y33748D01*
X413613Y33898D01*
X413813Y34048D01*
X414025Y34198D01*
X414263Y34335D01*
X414525Y34460D01*
X414788Y34560D01*
X415088Y34635D01*
X415388Y34697D01*
X415713Y34710D01*
X415850D01*
X415937Y34697D01*
D02*
G37*
G36*
X401029D02*
X401154Y34685D01*
X401279Y34673D01*
X401429Y34648D01*
X401591Y34610D01*
X401928Y34523D01*
X402104Y34460D01*
X402291Y34385D01*
X402453Y34298D01*
X402628Y34185D01*
X402778Y34073D01*
X402928Y33935D01*
X402941Y33923D01*
X402966Y33898D01*
X403003Y33860D01*
X403041Y33798D01*
X403103Y33710D01*
X403166Y33610D01*
X403228Y33498D01*
X403303Y33360D01*
X403378Y33198D01*
X403441Y33023D01*
X403503Y32836D01*
X403566Y32623D01*
X403603Y32398D01*
X403641Y32148D01*
X403666Y31873D01*
X403678Y31586D01*
Y25212D01*
X402104D01*
Y31061D01*
Y31073D01*
Y31098D01*
Y31148D01*
Y31211D01*
Y31286D01*
X402091Y31386D01*
X402079Y31586D01*
X402066Y31798D01*
X402041Y32023D01*
X401991Y32236D01*
X401941Y32411D01*
X401928Y32436D01*
X401916Y32486D01*
X401879Y32561D01*
X401816Y32661D01*
X401741Y32761D01*
X401641Y32873D01*
X401529Y32985D01*
X401391Y33085D01*
X401379Y33098D01*
X401316Y33123D01*
X401241Y33173D01*
X401129Y33223D01*
X400991Y33260D01*
X400829Y33310D01*
X400654Y33335D01*
X400454Y33348D01*
X400354D01*
X400291Y33335D01*
X400204Y33323D01*
X400104Y33310D01*
X399879Y33260D01*
X399617Y33185D01*
X399342Y33073D01*
X399204Y32998D01*
X399079Y32910D01*
X398942Y32798D01*
X398817Y32685D01*
X398804Y32673D01*
X398792Y32661D01*
X398754Y32611D01*
X398717Y32561D01*
X398667Y32486D01*
X398617Y32411D01*
X398554Y32298D01*
X398504Y32186D01*
X398442Y32048D01*
X398379Y31886D01*
X398330Y31723D01*
X398279Y31536D01*
X398242Y31323D01*
X398204Y31098D01*
X398192Y30861D01*
X398180Y30599D01*
Y25212D01*
X396605D01*
Y31248D01*
Y31261D01*
Y31298D01*
Y31348D01*
Y31423D01*
X396592Y31511D01*
X396580Y31611D01*
X396555Y31836D01*
X396505Y32098D01*
X396442Y32361D01*
X396343Y32611D01*
X396217Y32823D01*
X396205Y32848D01*
X396143Y32910D01*
X396055Y32985D01*
X395918Y33085D01*
X395743Y33185D01*
X395530Y33260D01*
X395268Y33323D01*
X394968Y33348D01*
X394855D01*
X394730Y33335D01*
X394568Y33310D01*
X394380Y33260D01*
X394168Y33198D01*
X393943Y33110D01*
X393731Y32998D01*
X393706Y32985D01*
X393643Y32936D01*
X393543Y32848D01*
X393418Y32736D01*
X393281Y32598D01*
X393156Y32423D01*
X393031Y32211D01*
X392918Y31973D01*
Y31961D01*
X392906Y31948D01*
X392893Y31898D01*
X392881Y31848D01*
X392856Y31773D01*
X392843Y31698D01*
X392818Y31598D01*
X392793Y31473D01*
X392768Y31348D01*
X392743Y31198D01*
X392731Y31036D01*
X392706Y30861D01*
X392693Y30673D01*
X392681Y30474D01*
X392668Y30261D01*
Y30024D01*
Y25212D01*
X391094D01*
Y34498D01*
X392506D01*
Y33210D01*
X392531Y33223D01*
X392556Y33260D01*
X392581Y33310D01*
X392681Y33435D01*
X392818Y33585D01*
X392981Y33760D01*
X393181Y33948D01*
X393406Y34123D01*
X393668Y34285D01*
X393681D01*
X393706Y34298D01*
X393743Y34323D01*
X393793Y34348D01*
X393868Y34385D01*
X393943Y34423D01*
X394143Y34498D01*
X394393Y34573D01*
X394668Y34648D01*
X394980Y34697D01*
X395318Y34710D01*
X395418D01*
X395493Y34697D01*
X395580D01*
X395680Y34685D01*
X395918Y34660D01*
X396180Y34597D01*
X396467Y34523D01*
X396742Y34423D01*
X397005Y34273D01*
X397017D01*
X397030Y34248D01*
X397117Y34198D01*
X397230Y34098D01*
X397367Y33960D01*
X397517Y33798D01*
X397680Y33598D01*
X397817Y33360D01*
X397930Y33085D01*
X397942Y33098D01*
X397980Y33160D01*
X398042Y33235D01*
X398130Y33335D01*
X398242Y33460D01*
X398379Y33598D01*
X398529Y33748D01*
X398704Y33898D01*
X398904Y34048D01*
X399117Y34198D01*
X399354Y34335D01*
X399617Y34460D01*
X399879Y34560D01*
X400179Y34635D01*
X400479Y34697D01*
X400804Y34710D01*
X400941D01*
X401029Y34697D01*
D02*
G37*
G36*
X430109Y29062D02*
X425273D01*
Y30649D01*
X430109D01*
Y29062D01*
D02*
G37*
G36*
X472073Y36510D02*
X467837D01*
Y25213D01*
X466137D01*
Y36510D01*
X461913D01*
Y38022D01*
X472073D01*
Y36510D01*
D02*
G37*
G36*
X442118Y38009D02*
X442268Y37997D01*
X442431Y37984D01*
X442593Y37972D01*
X442968Y37922D01*
X443368Y37859D01*
X443755Y37759D01*
X443930Y37697D01*
X444105Y37622D01*
X444118D01*
X444143Y37609D01*
X444193Y37584D01*
X444255Y37547D01*
X444330Y37509D01*
X444418Y37459D01*
X444618Y37322D01*
X444830Y37159D01*
X445067Y36947D01*
X445292Y36709D01*
X445492Y36422D01*
Y36410D01*
X445517Y36385D01*
X445542Y36347D01*
X445567Y36285D01*
X445617Y36210D01*
X445655Y36122D01*
X445755Y35910D01*
X445842Y35660D01*
X445930Y35372D01*
X445980Y35060D01*
X446005Y34735D01*
Y34722D01*
Y34697D01*
Y34660D01*
X445992Y34598D01*
Y34523D01*
X445980Y34435D01*
X445955Y34235D01*
X445892Y33998D01*
X445817Y33735D01*
X445705Y33460D01*
X445555Y33185D01*
Y33173D01*
X445530Y33148D01*
X445505Y33110D01*
X445467Y33061D01*
X445367Y32936D01*
X445217Y32773D01*
X445030Y32586D01*
X444793Y32386D01*
X444518Y32198D01*
X444205Y32023D01*
X444218D01*
X444255Y32011D01*
X444318Y31986D01*
X444393Y31961D01*
X444493Y31923D01*
X444605Y31873D01*
X444868Y31748D01*
X445155Y31586D01*
X445455Y31386D01*
X445742Y31136D01*
X445867Y30998D01*
X445992Y30849D01*
X446005Y30836D01*
X446017Y30811D01*
X446055Y30761D01*
X446092Y30699D01*
X446142Y30624D01*
X446192Y30536D01*
X446255Y30424D01*
X446317Y30299D01*
X446367Y30161D01*
X446430Y30024D01*
X446530Y29686D01*
X446605Y29324D01*
X446617Y29124D01*
X446630Y28911D01*
Y28899D01*
Y28874D01*
Y28824D01*
Y28762D01*
X446617Y28674D01*
X446605Y28587D01*
X446580Y28362D01*
X446530Y28112D01*
X446467Y27824D01*
X446367Y27537D01*
X446242Y27237D01*
Y27225D01*
X446230Y27199D01*
X446205Y27162D01*
X446180Y27112D01*
X446092Y26974D01*
X445980Y26800D01*
X445855Y26612D01*
X445692Y26412D01*
X445505Y26225D01*
X445305Y26050D01*
X445280Y26037D01*
X445205Y25987D01*
X445080Y25912D01*
X444917Y25812D01*
X444718Y25712D01*
X444468Y25612D01*
X444193Y25512D01*
X443893Y25425D01*
X443880D01*
X443855Y25412D01*
X443805Y25400D01*
X443743Y25387D01*
X443668Y25375D01*
X443568Y25362D01*
X443455Y25337D01*
X443318Y25325D01*
X443181Y25300D01*
X443018Y25275D01*
X442856Y25262D01*
X442668Y25250D01*
X442268Y25225D01*
X441831Y25213D01*
X436957Y25212D01*
Y38022D01*
X441993Y38022D01*
X442118Y38009D01*
D02*
G37*
G36*
X378410Y25212D02*
X376623D01*
Y26999D01*
X378410D01*
Y25212D01*
D02*
G37*
G36*
X371711D02*
X370137D01*
Y35222D01*
X370124D01*
X370112Y35197D01*
X370074Y35172D01*
X370037Y35135D01*
X369912Y35022D01*
X369737Y34885D01*
X369524Y34722D01*
X369262Y34535D01*
X368962Y34335D01*
X368637Y34135D01*
X368625D01*
X368600Y34110D01*
X368550Y34085D01*
X368487Y34048D01*
X368400Y33998D01*
X368312Y33948D01*
X368087Y33835D01*
X367837Y33710D01*
X367562Y33573D01*
X367275Y33448D01*
X367000Y33335D01*
Y34848D01*
X367012Y34860D01*
X367062Y34873D01*
X367125Y34910D01*
X367225Y34960D01*
X367337Y35022D01*
X367462Y35097D01*
X367612Y35172D01*
X367775Y35272D01*
X368137Y35485D01*
X368525Y35747D01*
X368912Y36035D01*
X369299Y36347D01*
X369312Y36360D01*
X369337Y36385D01*
X369399Y36435D01*
X369462Y36497D01*
X369537Y36584D01*
X369637Y36672D01*
X369737Y36785D01*
X369849Y36897D01*
X370074Y37159D01*
X370299Y37447D01*
X370512Y37759D01*
X370612Y37909D01*
X370686Y38072D01*
X371711D01*
Y25212D01*
D02*
G37*
G36*
X454878Y38234D02*
X455027Y38222D01*
X455215Y38197D01*
X455415Y38172D01*
X455640Y38147D01*
X455890Y38097D01*
X456140Y38034D01*
X456402Y37972D01*
X456677Y37884D01*
X456952Y37797D01*
X457227Y37672D01*
X457502Y37547D01*
X457777Y37397D01*
X457789Y37384D01*
X457839Y37359D01*
X457914Y37309D01*
X458014Y37247D01*
X458127Y37159D01*
X458264Y37047D01*
X458414Y36922D01*
X458589Y36785D01*
X458751Y36622D01*
X458939Y36447D01*
X459114Y36247D01*
X459301Y36035D01*
X459476Y35810D01*
X459639Y35560D01*
X459801Y35297D01*
X459951Y35022D01*
X459964Y35010D01*
X459989Y34960D01*
X460026Y34873D01*
X460064Y34760D01*
X460126Y34610D01*
X460189Y34448D01*
X460251Y34248D01*
X460326Y34023D01*
X460401Y33785D01*
X460463Y33523D01*
X460526Y33235D01*
X460588Y32936D01*
X460626Y32623D01*
X460663Y32298D01*
X460689Y31948D01*
X460701Y31598D01*
Y31573D01*
Y31511D01*
Y31411D01*
X460689Y31273D01*
X460676Y31098D01*
X460663Y30898D01*
X460639Y30674D01*
X460601Y30436D01*
X460564Y30174D01*
X460513Y29886D01*
X460451Y29599D01*
X460364Y29311D01*
X460276Y28999D01*
X460176Y28699D01*
X460051Y28399D01*
X459914Y28112D01*
X459901Y28099D01*
X459876Y28049D01*
X459826Y27962D01*
X459764Y27862D01*
X459689Y27737D01*
X459589Y27587D01*
X459476Y27424D01*
X459339Y27250D01*
X459189Y27062D01*
X459026Y26874D01*
X458839Y26675D01*
X458639Y26487D01*
X458427Y26300D01*
X458189Y26112D01*
X457939Y25950D01*
X457677Y25787D01*
X457664Y25775D01*
X457614Y25750D01*
X457539Y25712D01*
X457427Y25662D01*
X457289Y25600D01*
X457139Y25537D01*
X456952Y25462D01*
X456752Y25400D01*
X456527Y25325D01*
X456290Y25250D01*
X456027Y25187D01*
X455752Y25125D01*
X455477Y25075D01*
X455177Y25038D01*
X454878Y25013D01*
X454565Y25000D01*
X454390D01*
X454265Y25013D01*
X454103Y25025D01*
X453915Y25050D01*
X453715Y25075D01*
X453478Y25113D01*
X453240Y25150D01*
X452978Y25213D01*
X452715Y25275D01*
X452441Y25362D01*
X452153Y25462D01*
X451878Y25575D01*
X451603Y25712D01*
X451328Y25862D01*
X451316Y25875D01*
X451266Y25900D01*
X451191Y25950D01*
X451091Y26025D01*
X450979Y26112D01*
X450841Y26225D01*
X450691Y26350D01*
X450529Y26487D01*
X450354Y26650D01*
X450179Y26825D01*
X449991Y27025D01*
X449816Y27237D01*
X449641Y27462D01*
X449466Y27712D01*
X449316Y27974D01*
X449166Y28249D01*
X449154Y28262D01*
X449141Y28312D01*
X449104Y28399D01*
X449054Y28512D01*
X449004Y28649D01*
X448941Y28812D01*
X448867Y29011D01*
X448804Y29211D01*
X448741Y29449D01*
X448667Y29699D01*
X448604Y29961D01*
X448554Y30236D01*
X448504Y30524D01*
X448479Y30824D01*
X448454Y31136D01*
X448442Y31448D01*
Y31461D01*
Y31486D01*
Y31523D01*
Y31586D01*
X448454Y31661D01*
Y31761D01*
Y31861D01*
X448467Y31973D01*
X448492Y32248D01*
X448529Y32548D01*
X448592Y32898D01*
X448654Y33273D01*
X448741Y33660D01*
X448854Y34073D01*
X449004Y34485D01*
X449166Y34897D01*
X449366Y35310D01*
X449591Y35710D01*
X449854Y36085D01*
X450154Y36435D01*
X450179Y36460D01*
X450229Y36510D01*
X450329Y36597D01*
X450466Y36722D01*
X450629Y36860D01*
X450841Y37009D01*
X451078Y37172D01*
X451353Y37347D01*
X451653Y37509D01*
X451991Y37672D01*
X452353Y37822D01*
X452741Y37959D01*
X453165Y38084D01*
X453615Y38172D01*
X454078Y38222D01*
X454578Y38247D01*
X454753D01*
X454878Y38234D01*
D02*
G37*
G36*
X385145Y38059D02*
X385245Y38047D01*
X385370Y38034D01*
X385495Y38022D01*
X385770Y37972D01*
X386070Y37897D01*
X386382Y37784D01*
X386682Y37647D01*
X386695D01*
X386720Y37622D01*
X386757Y37609D01*
X386820Y37572D01*
X386957Y37472D01*
X387145Y37347D01*
X387345Y37172D01*
X387557Y36972D01*
X387770Y36722D01*
X387970Y36447D01*
Y36435D01*
X387995Y36410D01*
X388020Y36372D01*
X388057Y36310D01*
X388095Y36235D01*
X388145Y36147D01*
X388195Y36035D01*
X388257Y35922D01*
X388320Y35785D01*
X388382Y35647D01*
X388507Y35322D01*
X388644Y34948D01*
X388757Y34548D01*
Y34535D01*
X388769Y34498D01*
X388782Y34435D01*
X388807Y34348D01*
X388832Y34235D01*
X388857Y34098D01*
X388882Y33935D01*
X388907Y33748D01*
X388932Y33548D01*
X388957Y33310D01*
X388982Y33073D01*
X389007Y32798D01*
X389032Y32511D01*
X389044Y32198D01*
X389057Y31873D01*
Y31523D01*
Y31498D01*
Y31423D01*
Y31311D01*
X389044Y31148D01*
Y30961D01*
X389032Y30736D01*
X389019Y30499D01*
X388994Y30224D01*
X388969Y29936D01*
X388944Y29649D01*
X388857Y29037D01*
X388744Y28437D01*
X388669Y28162D01*
X388582Y27887D01*
Y27874D01*
X388557Y27824D01*
X388532Y27749D01*
X388494Y27662D01*
X388445Y27537D01*
X388382Y27412D01*
X388320Y27262D01*
X388232Y27099D01*
X388045Y26762D01*
X387807Y26400D01*
X387520Y26062D01*
X387357Y25900D01*
X387195Y25750D01*
X387182Y25737D01*
X387157Y25712D01*
X387107Y25675D01*
X387032Y25637D01*
X386945Y25575D01*
X386832Y25512D01*
X386707Y25450D01*
X386570Y25375D01*
X386408Y25300D01*
X386233Y25237D01*
X386045Y25175D01*
X385833Y25113D01*
X385620Y25075D01*
X385383Y25038D01*
X385145Y25013D01*
X384883Y25000D01*
X384795D01*
X384708Y25013D01*
X384571Y25025D01*
X384421Y25038D01*
X384233Y25075D01*
X384033Y25113D01*
X383821Y25162D01*
X383596Y25237D01*
X383358Y25325D01*
X383108Y25425D01*
X382871Y25550D01*
X382634Y25700D01*
X382396Y25875D01*
X382171Y26087D01*
X381971Y26312D01*
X381959Y26337D01*
X381921Y26387D01*
X381859Y26487D01*
X381771Y26625D01*
X381684Y26799D01*
X381571Y27012D01*
X381459Y27274D01*
X381346Y27574D01*
X381221Y27912D01*
X381109Y28299D01*
X380996Y28724D01*
X380909Y29186D01*
X380821Y29711D01*
X380759Y30261D01*
X380722Y30873D01*
X380709Y31523D01*
Y31536D01*
Y31548D01*
Y31623D01*
Y31748D01*
X380722Y31898D01*
Y32098D01*
X380734Y32311D01*
X380746Y32561D01*
X380771Y32836D01*
X380796Y33123D01*
X380821Y33423D01*
X380909Y34023D01*
X381021Y34635D01*
X381096Y34910D01*
X381171Y35185D01*
Y35197D01*
X381196Y35247D01*
X381221Y35322D01*
X381259Y35410D01*
X381309Y35535D01*
X381371Y35660D01*
X381434Y35810D01*
X381521Y35972D01*
X381709Y36322D01*
X381946Y36672D01*
X382234Y37009D01*
X382396Y37172D01*
X382559Y37322D01*
X382571Y37334D01*
X382596Y37359D01*
X382659Y37397D01*
X382721Y37434D01*
X382821Y37497D01*
X382921Y37559D01*
X383058Y37622D01*
X383196Y37697D01*
X383358Y37772D01*
X383533Y37834D01*
X383721Y37897D01*
X383933Y37959D01*
X384146Y37997D01*
X384383Y38034D01*
X384621Y38059D01*
X384883Y38072D01*
X385058D01*
X385145Y38059D01*
D02*
G37*
G36*
X417150Y53866D02*
X417275Y53854D01*
X417400Y53841D01*
X417550Y53816D01*
X417712Y53779D01*
X418049Y53691D01*
X418224Y53629D01*
X418412Y53554D01*
X418574Y53466D01*
X418749Y53354D01*
X418899Y53242D01*
X419049Y53104D01*
X419062Y53092D01*
X419087Y53067D01*
X419124Y53029D01*
X419162Y52967D01*
X419224Y52879D01*
X419287Y52779D01*
X419349Y52667D01*
X419424Y52529D01*
X419499Y52367D01*
X419562Y52192D01*
X419624Y52004D01*
X419687Y51792D01*
X419724Y51567D01*
X419762Y51317D01*
X419786Y51042D01*
X419799Y50755D01*
Y44381D01*
X418224D01*
Y50230D01*
Y50242D01*
Y50267D01*
Y50317D01*
Y50380D01*
Y50455D01*
X418212Y50555D01*
X418199Y50755D01*
X418187Y50967D01*
X418162Y51192D01*
X418112Y51405D01*
X418062Y51579D01*
X418049Y51604D01*
X418037Y51654D01*
X417999Y51729D01*
X417937Y51829D01*
X417862Y51929D01*
X417762Y52042D01*
X417649Y52154D01*
X417512Y52254D01*
X417500Y52267D01*
X417437Y52292D01*
X417362Y52342D01*
X417250Y52392D01*
X417112Y52429D01*
X416950Y52479D01*
X416775Y52504D01*
X416575Y52517D01*
X416475D01*
X416412Y52504D01*
X416325Y52492D01*
X416225Y52479D01*
X416000Y52429D01*
X415737Y52354D01*
X415463Y52242D01*
X415325Y52167D01*
X415200Y52079D01*
X415063Y51967D01*
X414938Y51854D01*
X414925Y51842D01*
X414913Y51829D01*
X414875Y51779D01*
X414838Y51729D01*
X414788Y51654D01*
X414738Y51579D01*
X414675Y51467D01*
X414625Y51354D01*
X414563Y51217D01*
X414500Y51055D01*
X414450Y50892D01*
X414400Y50705D01*
X414363Y50492D01*
X414325Y50267D01*
X414313Y50030D01*
X414300Y49767D01*
Y44381D01*
X412726D01*
Y50417D01*
Y50430D01*
Y50467D01*
Y50517D01*
Y50592D01*
X412713Y50680D01*
X412701Y50780D01*
X412676Y51005D01*
X412626Y51267D01*
X412563Y51529D01*
X412463Y51779D01*
X412338Y51992D01*
X412326Y52017D01*
X412263Y52079D01*
X412176Y52154D01*
X412038Y52254D01*
X411864Y52354D01*
X411651Y52429D01*
X411389Y52492D01*
X411089Y52517D01*
X410976D01*
X410851Y52504D01*
X410689Y52479D01*
X410501Y52429D01*
X410289Y52367D01*
X410064Y52279D01*
X409851Y52167D01*
X409827Y52154D01*
X409764Y52104D01*
X409664Y52017D01*
X409539Y51904D01*
X409402Y51767D01*
X409277Y51592D01*
X409152Y51379D01*
X409039Y51142D01*
Y51129D01*
X409027Y51117D01*
X409014Y51067D01*
X409002Y51017D01*
X408977Y50942D01*
X408964Y50867D01*
X408939Y50767D01*
X408914Y50642D01*
X408889Y50517D01*
X408864Y50367D01*
X408852Y50205D01*
X408827Y50030D01*
X408814Y49842D01*
X408802Y49642D01*
X408789Y49430D01*
Y49193D01*
Y44381D01*
X407215D01*
Y53666D01*
X408627D01*
Y52379D01*
X408652Y52392D01*
X408677Y52429D01*
X408702Y52479D01*
X408802Y52604D01*
X408939Y52754D01*
X409102Y52929D01*
X409302Y53116D01*
X409527Y53292D01*
X409789Y53454D01*
X409801D01*
X409827Y53466D01*
X409864Y53491D01*
X409914Y53516D01*
X409989Y53554D01*
X410064Y53591D01*
X410264Y53666D01*
X410514Y53741D01*
X410789Y53816D01*
X411101Y53866D01*
X411439Y53879D01*
X411539D01*
X411614Y53866D01*
X411701D01*
X411801Y53854D01*
X412038Y53829D01*
X412301Y53766D01*
X412588Y53691D01*
X412863Y53591D01*
X413126Y53441D01*
X413138D01*
X413151Y53417D01*
X413238Y53366D01*
X413351Y53267D01*
X413488Y53129D01*
X413638Y52967D01*
X413801Y52767D01*
X413938Y52529D01*
X414050Y52254D01*
X414063Y52267D01*
X414100Y52329D01*
X414163Y52404D01*
X414250Y52504D01*
X414363Y52629D01*
X414500Y52767D01*
X414650Y52917D01*
X414825Y53067D01*
X415025Y53217D01*
X415238Y53366D01*
X415475Y53504D01*
X415737Y53629D01*
X416000Y53729D01*
X416300Y53804D01*
X416600Y53866D01*
X416925Y53879D01*
X417062D01*
X417150Y53866D01*
D02*
G37*
G36*
X402241D02*
X402366Y53854D01*
X402491Y53841D01*
X402641Y53816D01*
X402803Y53779D01*
X403141Y53691D01*
X403316Y53629D01*
X403503Y53554D01*
X403666Y53466D01*
X403840Y53354D01*
X403991Y53242D01*
X404141Y53104D01*
X404153Y53092D01*
X404178Y53067D01*
X404215Y53029D01*
X404253Y52967D01*
X404315Y52879D01*
X404378Y52779D01*
X404440Y52667D01*
X404515Y52529D01*
X404590Y52367D01*
X404653Y52192D01*
X404715Y52004D01*
X404778Y51792D01*
X404815Y51567D01*
X404853Y51317D01*
X404878Y51042D01*
X404890Y50755D01*
Y44381D01*
X403316D01*
Y50230D01*
Y50242D01*
Y50267D01*
Y50317D01*
Y50380D01*
Y50455D01*
X403303Y50555D01*
X403291Y50755D01*
X403278Y50967D01*
X403253Y51192D01*
X403203Y51405D01*
X403153Y51579D01*
X403141Y51604D01*
X403128Y51654D01*
X403091Y51729D01*
X403028Y51829D01*
X402953Y51929D01*
X402853Y52042D01*
X402741Y52154D01*
X402603Y52254D01*
X402591Y52267D01*
X402528Y52292D01*
X402453Y52342D01*
X402341Y52392D01*
X402203Y52429D01*
X402041Y52479D01*
X401866Y52504D01*
X401666Y52517D01*
X401566D01*
X401504Y52504D01*
X401416Y52492D01*
X401316Y52479D01*
X401091Y52429D01*
X400829Y52354D01*
X400554Y52242D01*
X400416Y52167D01*
X400291Y52079D01*
X400154Y51967D01*
X400029Y51854D01*
X400017Y51842D01*
X400004Y51829D01*
X399967Y51779D01*
X399929Y51729D01*
X399879Y51654D01*
X399829Y51579D01*
X399767Y51467D01*
X399717Y51354D01*
X399654Y51217D01*
X399592Y51055D01*
X399542Y50892D01*
X399492Y50705D01*
X399454Y50492D01*
X399417Y50267D01*
X399404Y50030D01*
X399392Y49767D01*
Y44381D01*
X397817D01*
Y50417D01*
Y50430D01*
Y50467D01*
Y50517D01*
Y50592D01*
X397805Y50680D01*
X397792Y50780D01*
X397767Y51005D01*
X397717Y51267D01*
X397655Y51529D01*
X397555Y51779D01*
X397430Y51992D01*
X397417Y52017D01*
X397355Y52079D01*
X397267Y52154D01*
X397130Y52254D01*
X396955Y52354D01*
X396742Y52429D01*
X396480Y52492D01*
X396180Y52517D01*
X396068D01*
X395943Y52504D01*
X395780Y52479D01*
X395593Y52429D01*
X395380Y52367D01*
X395155Y52279D01*
X394943Y52167D01*
X394918Y52154D01*
X394855Y52104D01*
X394755Y52017D01*
X394630Y51904D01*
X394493Y51767D01*
X394368Y51592D01*
X394243Y51379D01*
X394131Y51142D01*
Y51129D01*
X394118Y51117D01*
X394105Y51067D01*
X394093Y51017D01*
X394068Y50942D01*
X394055Y50867D01*
X394031Y50767D01*
X394006Y50642D01*
X393981Y50517D01*
X393956Y50367D01*
X393943Y50205D01*
X393918Y50030D01*
X393906Y49842D01*
X393893Y49642D01*
X393881Y49430D01*
Y49193D01*
Y44381D01*
X392306D01*
Y53666D01*
X393718D01*
Y52379D01*
X393743Y52392D01*
X393768Y52429D01*
X393793Y52479D01*
X393893Y52604D01*
X394031Y52754D01*
X394193Y52929D01*
X394393Y53116D01*
X394618Y53292D01*
X394880Y53454D01*
X394893D01*
X394918Y53466D01*
X394955Y53491D01*
X395005Y53516D01*
X395080Y53554D01*
X395155Y53591D01*
X395355Y53666D01*
X395605Y53741D01*
X395880Y53816D01*
X396193Y53866D01*
X396530Y53879D01*
X396630D01*
X396705Y53866D01*
X396792D01*
X396892Y53854D01*
X397130Y53829D01*
X397392Y53766D01*
X397680Y53691D01*
X397955Y53591D01*
X398217Y53441D01*
X398229D01*
X398242Y53417D01*
X398330Y53366D01*
X398442Y53267D01*
X398579Y53129D01*
X398729Y52967D01*
X398892Y52767D01*
X399029Y52529D01*
X399142Y52254D01*
X399154Y52267D01*
X399192Y52329D01*
X399254Y52404D01*
X399342Y52504D01*
X399454Y52629D01*
X399592Y52767D01*
X399742Y52917D01*
X399916Y53067D01*
X400117Y53217D01*
X400329Y53366D01*
X400566Y53504D01*
X400829Y53629D01*
X401091Y53729D01*
X401391Y53804D01*
X401691Y53866D01*
X402016Y53879D01*
X402154D01*
X402241Y53866D01*
D02*
G37*
G36*
X431321Y48230D02*
X426485D01*
Y49817D01*
X431321D01*
Y48230D01*
D02*
G37*
G36*
X389819Y55528D02*
X384683D01*
X383996Y52067D01*
X384008Y52079D01*
X384046Y52104D01*
X384108Y52142D01*
X384196Y52192D01*
X384296Y52254D01*
X384433Y52329D01*
X384571Y52392D01*
X384733Y52479D01*
X384908Y52554D01*
X385095Y52617D01*
X385508Y52754D01*
X385720Y52804D01*
X385945Y52842D01*
X386183Y52867D01*
X386420Y52879D01*
X386495D01*
X386582Y52867D01*
X386707D01*
X386845Y52842D01*
X387020Y52817D01*
X387207Y52779D01*
X387407Y52729D01*
X387620Y52667D01*
X387857Y52592D01*
X388095Y52504D01*
X388332Y52392D01*
X388569Y52254D01*
X388807Y52104D01*
X389032Y51917D01*
X389257Y51717D01*
X389269Y51704D01*
X389307Y51667D01*
X389369Y51592D01*
X389444Y51504D01*
X389532Y51392D01*
X389619Y51255D01*
X389732Y51092D01*
X389844Y50905D01*
X389944Y50705D01*
X390057Y50480D01*
X390144Y50230D01*
X390244Y49967D01*
X390307Y49680D01*
X390369Y49380D01*
X390406Y49055D01*
X390419Y48718D01*
Y48693D01*
Y48643D01*
X390406Y48555D01*
Y48430D01*
X390394Y48280D01*
X390369Y48105D01*
X390331Y47905D01*
X390294Y47693D01*
X390232Y47468D01*
X390169Y47218D01*
X390082Y46968D01*
X389982Y46718D01*
X389869Y46468D01*
X389732Y46206D01*
X389569Y45956D01*
X389394Y45718D01*
X389382Y45706D01*
X389332Y45656D01*
X389269Y45581D01*
X389169Y45481D01*
X389044Y45356D01*
X388894Y45231D01*
X388719Y45094D01*
X388520Y44944D01*
X388282Y44794D01*
X388032Y44656D01*
X387757Y44531D01*
X387457Y44406D01*
X387132Y44306D01*
X386795Y44231D01*
X386420Y44181D01*
X386033Y44169D01*
X385958D01*
X385870Y44181D01*
X385745D01*
X385595Y44194D01*
X385420Y44219D01*
X385233Y44256D01*
X385020Y44294D01*
X384795Y44344D01*
X384571Y44406D01*
X384333Y44481D01*
X384083Y44581D01*
X383846Y44694D01*
X383608Y44819D01*
X383383Y44969D01*
X383171Y45144D01*
X383158Y45156D01*
X383121Y45194D01*
X383071Y45244D01*
X382996Y45318D01*
X382908Y45419D01*
X382821Y45543D01*
X382709Y45681D01*
X382608Y45831D01*
X382496Y46006D01*
X382383Y46206D01*
X382284Y46418D01*
X382184Y46656D01*
X382096Y46906D01*
X382021Y47168D01*
X381959Y47443D01*
X381921Y47743D01*
X383571Y47880D01*
Y47868D01*
X383583Y47830D01*
X383596Y47768D01*
X383608Y47680D01*
X383633Y47580D01*
X383658Y47468D01*
X383746Y47193D01*
X383858Y46906D01*
X383996Y46606D01*
X384183Y46306D01*
X384296Y46181D01*
X384408Y46056D01*
X384421Y46043D01*
X384445Y46031D01*
X384483Y46006D01*
X384533Y45968D01*
X384595Y45918D01*
X384670Y45868D01*
X384870Y45756D01*
X385108Y45643D01*
X385383Y45556D01*
X385695Y45481D01*
X385858Y45469D01*
X386033Y45456D01*
X386145D01*
X386220Y45469D01*
X386320Y45481D01*
X386432Y45506D01*
X386558Y45531D01*
X386695Y45568D01*
X387007Y45668D01*
X387157Y45731D01*
X387320Y45818D01*
X387482Y45918D01*
X387645Y46031D01*
X387807Y46156D01*
X387957Y46306D01*
X387970Y46318D01*
X387995Y46343D01*
X388032Y46393D01*
X388082Y46468D01*
X388145Y46543D01*
X388207Y46656D01*
X388282Y46781D01*
X388357Y46918D01*
X388419Y47068D01*
X388494Y47243D01*
X388557Y47431D01*
X388619Y47630D01*
X388669Y47843D01*
X388707Y48080D01*
X388732Y48318D01*
X388744Y48580D01*
Y48593D01*
Y48643D01*
Y48705D01*
X388732Y48805D01*
X388719Y48918D01*
X388707Y49043D01*
X388682Y49193D01*
X388644Y49355D01*
X388557Y49692D01*
X388494Y49867D01*
X388419Y50042D01*
X388332Y50217D01*
X388232Y50392D01*
X388120Y50555D01*
X387982Y50705D01*
X387970Y50717D01*
X387945Y50742D01*
X387907Y50780D01*
X387845Y50830D01*
X387770Y50892D01*
X387682Y50955D01*
X387570Y51030D01*
X387457Y51104D01*
X387320Y51167D01*
X387170Y51242D01*
X387007Y51304D01*
X386832Y51367D01*
X386632Y51417D01*
X386432Y51455D01*
X386220Y51479D01*
X385995Y51492D01*
X385870D01*
X385795Y51479D01*
X385720D01*
X385533Y51455D01*
X385320Y51405D01*
X385095Y51342D01*
X384858Y51255D01*
X384621Y51142D01*
X384608D01*
X384595Y51129D01*
X384520Y51080D01*
X384408Y51005D01*
X384283Y50905D01*
X384121Y50767D01*
X383971Y50617D01*
X383808Y50442D01*
X383671Y50255D01*
X382196Y50442D01*
X383433Y57028D01*
X389819D01*
Y55528D01*
D02*
G37*
G36*
X468487Y57178D02*
X468637D01*
X468949Y57165D01*
X469274Y57140D01*
X469586Y57103D01*
X469736Y57091D01*
X469861Y57066D01*
X469874D01*
X469899Y57053D01*
X469949D01*
X470024Y57028D01*
X470099Y57016D01*
X470199Y56991D01*
X470411Y56928D01*
X470661Y56853D01*
X470936Y56741D01*
X471198Y56616D01*
X471448Y56466D01*
X471461D01*
X471473Y56441D01*
X471548Y56391D01*
X471673Y56291D01*
X471811Y56153D01*
X471973Y55966D01*
X472148Y55766D01*
X472323Y55516D01*
X472473Y55229D01*
Y55216D01*
X472486Y55191D01*
X472510Y55153D01*
X472536Y55091D01*
X472560Y55016D01*
X472598Y54929D01*
X472635Y54829D01*
X472673Y54716D01*
X472748Y54454D01*
X472810Y54154D01*
X472860Y53829D01*
X472873Y53479D01*
Y53467D01*
Y53404D01*
X472860Y53316D01*
Y53204D01*
X472835Y53067D01*
X472823Y52904D01*
X472785Y52729D01*
X472748Y52529D01*
X472685Y52317D01*
X472623Y52092D01*
X472536Y51867D01*
X472435Y51629D01*
X472310Y51392D01*
X472173Y51167D01*
X472011Y50942D01*
X471823Y50717D01*
X471811Y50705D01*
X471773Y50667D01*
X471711Y50617D01*
X471623Y50542D01*
X471498Y50455D01*
X471348Y50367D01*
X471173Y50255D01*
X470961Y50155D01*
X470723Y50055D01*
X470448Y49955D01*
X470149Y49855D01*
X469799Y49767D01*
X469424Y49692D01*
X469011Y49642D01*
X468562Y49605D01*
X468074Y49592D01*
X464787D01*
Y44381D01*
X463088D01*
Y57190D01*
X468349D01*
X468487Y57178D01*
D02*
G37*
G36*
X447429Y55678D02*
X443193D01*
Y44381D01*
X441493D01*
Y55678D01*
X437270Y55678D01*
Y57190D01*
X447429Y57190D01*
Y55678D01*
D02*
G37*
G36*
X379622Y44381D02*
X377835D01*
Y46168D01*
X379622D01*
Y44381D01*
D02*
G37*
G36*
X455090Y57403D02*
X455240Y57390D01*
X455427Y57365D01*
X455627Y57340D01*
X455852Y57316D01*
X456102Y57266D01*
X456352Y57203D01*
X456614Y57140D01*
X456889Y57053D01*
X457164Y56966D01*
X457439Y56841D01*
X457714Y56716D01*
X457989Y56566D01*
X458002Y56553D01*
X458052Y56528D01*
X458127Y56478D01*
X458227Y56416D01*
X458339Y56328D01*
X458477Y56216D01*
X458627Y56091D01*
X458801Y55953D01*
X458964Y55791D01*
X459151Y55616D01*
X459326Y55416D01*
X459514Y55203D01*
X459689Y54979D01*
X459851Y54729D01*
X460014Y54466D01*
X460164Y54191D01*
X460176Y54179D01*
X460201Y54129D01*
X460239Y54041D01*
X460276Y53929D01*
X460339Y53779D01*
X460401Y53616D01*
X460463Y53417D01*
X460538Y53191D01*
X460614Y52954D01*
X460676Y52692D01*
X460738Y52404D01*
X460801Y52104D01*
X460838Y51792D01*
X460876Y51467D01*
X460901Y51117D01*
X460913Y50767D01*
Y50742D01*
Y50680D01*
Y50580D01*
X460901Y50442D01*
X460888Y50267D01*
X460876Y50067D01*
X460851Y49842D01*
X460813Y49605D01*
X460776Y49342D01*
X460726Y49055D01*
X460663Y48768D01*
X460576Y48480D01*
X460489Y48168D01*
X460389Y47868D01*
X460264Y47568D01*
X460126Y47281D01*
X460114Y47268D01*
X460089Y47218D01*
X460039Y47131D01*
X459976Y47031D01*
X459901Y46906D01*
X459801Y46756D01*
X459689Y46593D01*
X459551Y46418D01*
X459401Y46231D01*
X459239Y46043D01*
X459051Y45843D01*
X458852Y45656D01*
X458639Y45469D01*
X458402Y45281D01*
X458152Y45119D01*
X457889Y44956D01*
X457877Y44944D01*
X457827Y44919D01*
X457752Y44881D01*
X457639Y44831D01*
X457502Y44769D01*
X457352Y44706D01*
X457164Y44631D01*
X456964Y44569D01*
X456740Y44494D01*
X456502Y44419D01*
X456240Y44356D01*
X455965Y44294D01*
X455690Y44244D01*
X455390Y44206D01*
X455090Y44181D01*
X454777Y44169D01*
X454603D01*
X454478Y44181D01*
X454315Y44194D01*
X454128Y44219D01*
X453928Y44244D01*
X453690Y44281D01*
X453453Y44319D01*
X453190Y44381D01*
X452928Y44444D01*
X452653Y44531D01*
X452366Y44631D01*
X452091Y44744D01*
X451816Y44881D01*
X451541Y45031D01*
X451528Y45044D01*
X451478Y45069D01*
X451403Y45119D01*
X451303Y45194D01*
X451191Y45281D01*
X451054Y45394D01*
X450904Y45518D01*
X450741Y45656D01*
X450566Y45818D01*
X450391Y45993D01*
X450204Y46193D01*
X450029Y46406D01*
X449854Y46631D01*
X449679Y46881D01*
X449529Y47143D01*
X449379Y47418D01*
X449366Y47431D01*
X449354Y47481D01*
X449316Y47568D01*
X449266Y47680D01*
X449216Y47818D01*
X449154Y47980D01*
X449079Y48180D01*
X449016Y48380D01*
X448954Y48618D01*
X448879Y48868D01*
X448816Y49130D01*
X448767Y49405D01*
X448717Y49692D01*
X448692Y49992D01*
X448667Y50305D01*
X448654Y50617D01*
Y50630D01*
Y50655D01*
Y50692D01*
Y50755D01*
X448667Y50830D01*
Y50930D01*
Y51030D01*
X448679Y51142D01*
X448704Y51417D01*
X448741Y51717D01*
X448804Y52067D01*
X448867Y52442D01*
X448954Y52829D01*
X449067Y53242D01*
X449216Y53654D01*
X449379Y54066D01*
X449579Y54479D01*
X449804Y54879D01*
X450066Y55254D01*
X450366Y55603D01*
X450391Y55628D01*
X450441Y55678D01*
X450541Y55766D01*
X450679Y55891D01*
X450841Y56028D01*
X451054Y56178D01*
X451291Y56341D01*
X451566Y56516D01*
X451866Y56678D01*
X452203Y56841D01*
X452566Y56991D01*
X452953Y57128D01*
X453378Y57253D01*
X453828Y57340D01*
X454290Y57390D01*
X454790Y57415D01*
X454965D01*
X455090Y57403D01*
D02*
G37*
G36*
X371436Y57228D02*
X371536Y57215D01*
X371661Y57203D01*
X371786Y57190D01*
X372061Y57140D01*
X372361Y57066D01*
X372673Y56953D01*
X372973Y56816D01*
X372986D01*
X373011Y56791D01*
X373048Y56778D01*
X373111Y56741D01*
X373248Y56641D01*
X373436Y56516D01*
X373636Y56341D01*
X373848Y56141D01*
X374061Y55891D01*
X374261Y55616D01*
Y55603D01*
X374286Y55578D01*
X374311Y55541D01*
X374348Y55478D01*
X374386Y55403D01*
X374436Y55316D01*
X374486Y55203D01*
X374548Y55091D01*
X374610Y54954D01*
X374673Y54816D01*
X374798Y54491D01*
X374935Y54116D01*
X375048Y53716D01*
Y53704D01*
X375060Y53666D01*
X375073Y53604D01*
X375098Y53516D01*
X375123Y53404D01*
X375148Y53267D01*
X375173Y53104D01*
X375198Y52917D01*
X375223Y52717D01*
X375248Y52479D01*
X375273Y52242D01*
X375298Y51967D01*
X375323Y51679D01*
X375335Y51367D01*
X375348Y51042D01*
Y50692D01*
Y50667D01*
Y50592D01*
Y50480D01*
X375335Y50317D01*
Y50130D01*
X375323Y49905D01*
X375310Y49667D01*
X375285Y49392D01*
X375260Y49105D01*
X375235Y48818D01*
X375148Y48205D01*
X375035Y47605D01*
X374960Y47330D01*
X374873Y47056D01*
Y47043D01*
X374848Y46993D01*
X374823Y46918D01*
X374785Y46831D01*
X374735Y46706D01*
X374673Y46581D01*
X374610Y46431D01*
X374523Y46268D01*
X374336Y45931D01*
X374098Y45568D01*
X373811Y45231D01*
X373648Y45069D01*
X373486Y44919D01*
X373473Y44906D01*
X373448Y44881D01*
X373398Y44844D01*
X373323Y44806D01*
X373236Y44744D01*
X373123Y44681D01*
X372998Y44619D01*
X372861Y44544D01*
X372699Y44469D01*
X372524Y44406D01*
X372336Y44344D01*
X372124Y44281D01*
X371911Y44244D01*
X371674Y44206D01*
X371436Y44181D01*
X371174Y44169D01*
X371086D01*
X370999Y44181D01*
X370862Y44194D01*
X370712Y44206D01*
X370524Y44244D01*
X370324Y44281D01*
X370112Y44331D01*
X369887Y44406D01*
X369649Y44494D01*
X369399Y44594D01*
X369162Y44719D01*
X368924Y44869D01*
X368687Y45044D01*
X368462Y45256D01*
X368262Y45481D01*
X368250Y45506D01*
X368212Y45556D01*
X368150Y45656D01*
X368062Y45793D01*
X367975Y45968D01*
X367862Y46181D01*
X367750Y46443D01*
X367637Y46743D01*
X367512Y47081D01*
X367400Y47468D01*
X367287Y47893D01*
X367200Y48355D01*
X367112Y48880D01*
X367050Y49430D01*
X367012Y50042D01*
X367000Y50692D01*
Y50705D01*
Y50717D01*
Y50792D01*
Y50917D01*
X367012Y51067D01*
Y51267D01*
X367025Y51479D01*
X367038Y51729D01*
X367062Y52004D01*
X367088Y52292D01*
X367112Y52592D01*
X367200Y53191D01*
X367312Y53804D01*
X367387Y54079D01*
X367462Y54354D01*
Y54366D01*
X367487Y54416D01*
X367512Y54491D01*
X367550Y54579D01*
X367600Y54704D01*
X367662Y54829D01*
X367725Y54979D01*
X367812Y55141D01*
X368000Y55491D01*
X368237Y55841D01*
X368525Y56178D01*
X368687Y56341D01*
X368849Y56491D01*
X368862Y56503D01*
X368887Y56528D01*
X368950Y56566D01*
X369012Y56603D01*
X369112Y56666D01*
X369212Y56728D01*
X369349Y56791D01*
X369487Y56866D01*
X369649Y56941D01*
X369824Y57003D01*
X370012Y57066D01*
X370224Y57128D01*
X370437Y57165D01*
X370674Y57203D01*
X370911Y57228D01*
X371174Y57241D01*
X371349D01*
X371436Y57228D01*
D02*
G37*
G36*
X393956Y74559D02*
X392381D01*
Y76371D01*
X393956D01*
Y74559D01*
D02*
G37*
G36*
X371836Y76408D02*
X371974Y76396D01*
X372124Y76371D01*
X372286Y76346D01*
X372474Y76321D01*
X372861Y76208D01*
X373073Y76146D01*
X373273Y76058D01*
X373486Y75971D01*
X373686Y75846D01*
X373886Y75721D01*
X374073Y75571D01*
X374086Y75559D01*
X374111Y75533D01*
X374161Y75483D01*
X374223Y75421D01*
X374298Y75334D01*
X374386Y75221D01*
X374486Y75096D01*
X374585Y74959D01*
X374686Y74809D01*
X374785Y74621D01*
X374873Y74434D01*
X374973Y74221D01*
X375060Y73996D01*
X375123Y73759D01*
X375185Y73509D01*
X375235Y73234D01*
X373673Y73109D01*
Y73122D01*
X373661Y73147D01*
X373648Y73197D01*
X373636Y73259D01*
X373611Y73334D01*
X373586Y73422D01*
X373523Y73622D01*
X373436Y73846D01*
X373336Y74071D01*
X373211Y74284D01*
X373073Y74459D01*
X373061Y74471D01*
X373048Y74484D01*
X373011Y74521D01*
X372961Y74559D01*
X372898Y74621D01*
X372823Y74671D01*
X372636Y74796D01*
X372411Y74921D01*
X372136Y75034D01*
X371836Y75109D01*
X371674Y75121D01*
X371499Y75134D01*
X371374D01*
X371236Y75109D01*
X371049Y75084D01*
X370849Y75034D01*
X370624Y74959D01*
X370399Y74846D01*
X370174Y74709D01*
X370162D01*
X370137Y74684D01*
X370099Y74659D01*
X370049Y74609D01*
X369924Y74484D01*
X369749Y74309D01*
X369562Y74084D01*
X369362Y73809D01*
X369174Y73496D01*
X368999Y73122D01*
Y73109D01*
X368987Y73072D01*
X368962Y73009D01*
X368937Y72934D01*
X368899Y72822D01*
X368862Y72697D01*
X368825Y72534D01*
X368787Y72359D01*
X368750Y72159D01*
X368712Y71947D01*
X368675Y71697D01*
X368637Y71435D01*
X368612Y71147D01*
X368587Y70835D01*
X368575Y70510D01*
X368562Y70160D01*
X368575Y70172D01*
X368587Y70197D01*
X368625Y70247D01*
X368662Y70297D01*
X368712Y70372D01*
X368787Y70460D01*
X368950Y70647D01*
X369149Y70860D01*
X369387Y71072D01*
X369649Y71272D01*
X369949Y71447D01*
X369962D01*
X369987Y71459D01*
X370037Y71484D01*
X370087Y71509D01*
X370174Y71547D01*
X370262Y71585D01*
X370362Y71622D01*
X370474Y71659D01*
X370737Y71734D01*
X371024Y71810D01*
X371336Y71859D01*
X371674Y71872D01*
X371749D01*
X371824Y71859D01*
X371936D01*
X372074Y71835D01*
X372236Y71810D01*
X372411Y71772D01*
X372598Y71722D01*
X372799Y71659D01*
X373023Y71585D01*
X373236Y71497D01*
X373461Y71385D01*
X373698Y71247D01*
X373923Y71097D01*
X374136Y70910D01*
X374348Y70710D01*
X374361Y70697D01*
X374398Y70660D01*
X374448Y70585D01*
X374523Y70497D01*
X374610Y70385D01*
X374698Y70247D01*
X374798Y70085D01*
X374911Y69897D01*
X375010Y69697D01*
X375110Y69473D01*
X375198Y69223D01*
X375285Y68960D01*
X375360Y68673D01*
X375410Y68373D01*
X375448Y68060D01*
X375460Y67723D01*
Y67710D01*
Y67673D01*
Y67611D01*
X375448Y67523D01*
Y67411D01*
X375435Y67286D01*
X375423Y67148D01*
X375398Y66986D01*
X375335Y66636D01*
X375235Y66261D01*
X375110Y65873D01*
X374935Y65474D01*
Y65461D01*
X374911Y65424D01*
X374885Y65374D01*
X374836Y65311D01*
X374785Y65224D01*
X374723Y65124D01*
X374561Y64899D01*
X374348Y64636D01*
X374111Y64374D01*
X373823Y64124D01*
X373498Y63899D01*
X373486D01*
X373461Y63874D01*
X373411Y63849D01*
X373336Y63811D01*
X373248Y63774D01*
X373148Y63724D01*
X373036Y63674D01*
X372898Y63624D01*
X372761Y63574D01*
X372598Y63524D01*
X372249Y63437D01*
X371861Y63374D01*
X371649Y63362D01*
X371436Y63349D01*
X371349D01*
X371249Y63362D01*
X371111Y63374D01*
X370949Y63399D01*
X370749Y63424D01*
X370537Y63474D01*
X370299Y63524D01*
X370049Y63599D01*
X369799Y63699D01*
X369524Y63811D01*
X369262Y63962D01*
X368987Y64124D01*
X368725Y64311D01*
X368475Y64536D01*
X368237Y64786D01*
X368225Y64799D01*
X368187Y64861D01*
X368125Y64936D01*
X368050Y65061D01*
X367950Y65224D01*
X367850Y65424D01*
X367737Y65648D01*
X367625Y65924D01*
X367500Y66236D01*
X367387Y66586D01*
X367287Y66973D01*
X367200Y67411D01*
X367112Y67873D01*
X367050Y68398D01*
X367012Y68948D01*
X367000Y69548D01*
Y69560D01*
Y69585D01*
Y69635D01*
Y69710D01*
Y69798D01*
X367012Y69897D01*
Y70022D01*
X367025Y70160D01*
Y70297D01*
X367038Y70460D01*
X367075Y70810D01*
X367112Y71197D01*
X367175Y71610D01*
X367237Y72047D01*
X367337Y72497D01*
X367437Y72947D01*
X367575Y73397D01*
X367725Y73821D01*
X367912Y74234D01*
X368125Y74609D01*
X368362Y74946D01*
X368375Y74959D01*
X368412Y75009D01*
X368487Y75084D01*
X368587Y75171D01*
X368699Y75284D01*
X368849Y75409D01*
X369025Y75546D01*
X369212Y75683D01*
X369437Y75821D01*
X369674Y75958D01*
X369937Y76083D01*
X370224Y76196D01*
X370537Y76283D01*
X370862Y76358D01*
X371211Y76408D01*
X371586Y76421D01*
X371736D01*
X371836Y76408D01*
D02*
G37*
G36*
X386745Y73047D02*
X386845D01*
X386970Y73022D01*
X387107Y73009D01*
X387257Y72984D01*
X387582Y72909D01*
X387932Y72797D01*
X388107Y72734D01*
X388282Y72647D01*
X388457Y72559D01*
X388632Y72447D01*
X388644Y72434D01*
X388669Y72422D01*
X388719Y72384D01*
X388782Y72334D01*
X388857Y72272D01*
X388944Y72197D01*
X389044Y72109D01*
X389144Y71997D01*
X389257Y71884D01*
X389369Y71760D01*
X389482Y71610D01*
X389594Y71459D01*
X389707Y71285D01*
X389819Y71110D01*
X390007Y70710D01*
Y70697D01*
X390032Y70660D01*
X390057Y70597D01*
X390082Y70510D01*
X390119Y70410D01*
X390157Y70285D01*
X390194Y70147D01*
X390244Y69985D01*
X390294Y69810D01*
X390331Y69623D01*
X390369Y69423D01*
X390406Y69210D01*
X390457Y68760D01*
X390481Y68273D01*
Y68260D01*
Y68210D01*
Y68135D01*
X390469Y68035D01*
Y67910D01*
X390457Y67761D01*
X390444Y67598D01*
X390419Y67423D01*
X390394Y67223D01*
X390356Y67023D01*
X390269Y66586D01*
X390144Y66136D01*
X389969Y65698D01*
Y65686D01*
X389944Y65648D01*
X389919Y65586D01*
X389869Y65511D01*
X389819Y65411D01*
X389757Y65311D01*
X389594Y65049D01*
X389382Y64774D01*
X389132Y64486D01*
X388832Y64199D01*
X388482Y63949D01*
X388470Y63937D01*
X388445Y63924D01*
X388382Y63899D01*
X388320Y63861D01*
X388219Y63811D01*
X388120Y63762D01*
X387995Y63712D01*
X387857Y63649D01*
X387707Y63599D01*
X387557Y63537D01*
X387207Y63449D01*
X386832Y63374D01*
X386632Y63362D01*
X386432Y63349D01*
X386295D01*
X386233Y63362D01*
X386145D01*
X385958Y63387D01*
X385745Y63424D01*
X385508Y63487D01*
X385258Y63562D01*
X385020Y63674D01*
X385008D01*
X384995Y63686D01*
X384920Y63737D01*
X384808Y63799D01*
X384658Y63899D01*
X384496Y64024D01*
X384320Y64161D01*
X384158Y64324D01*
X383996Y64511D01*
Y60000D01*
X382421D01*
Y72847D01*
X383858D01*
Y71647D01*
X383883Y71672D01*
X383908Y71697D01*
X383946Y71747D01*
X384046Y71884D01*
X384183Y72034D01*
X384358Y72209D01*
X384546Y72384D01*
X384758Y72547D01*
X384995Y72697D01*
X385008D01*
X385020Y72709D01*
X385058Y72734D01*
X385108Y72759D01*
X385170Y72784D01*
X385245Y72809D01*
X385433Y72884D01*
X385658Y72947D01*
X385920Y73009D01*
X386220Y73047D01*
X386545Y73059D01*
X386657D01*
X386745Y73047D01*
D02*
G37*
G36*
X400916D02*
X401004D01*
X401216Y73022D01*
X401454Y72984D01*
X401704Y72922D01*
X401978Y72847D01*
X402241Y72747D01*
X402253D01*
X402266Y72734D01*
X402303Y72722D01*
X402353Y72697D01*
X402478Y72622D01*
X402641Y72534D01*
X402803Y72422D01*
X402978Y72284D01*
X403141Y72134D01*
X403291Y71959D01*
X403303Y71934D01*
X403353Y71872D01*
X403416Y71772D01*
X403491Y71634D01*
X403566Y71459D01*
X403653Y71260D01*
X403728Y71047D01*
X403791Y70797D01*
Y70772D01*
X403803Y70710D01*
X403815Y70597D01*
X403828Y70522D01*
X403840Y70447D01*
Y70347D01*
X403853Y70235D01*
Y70110D01*
X403866Y69960D01*
Y69810D01*
X403878Y69647D01*
Y69460D01*
Y69260D01*
Y63562D01*
X402303D01*
Y69210D01*
Y69223D01*
Y69248D01*
Y69298D01*
Y69373D01*
Y69448D01*
X402291Y69535D01*
X402278Y69748D01*
X402253Y69985D01*
X402229Y70222D01*
X402178Y70447D01*
X402116Y70647D01*
X402104Y70672D01*
X402079Y70722D01*
X402029Y70810D01*
X401966Y70922D01*
X401879Y71047D01*
X401766Y71172D01*
X401629Y71297D01*
X401466Y71410D01*
X401441Y71422D01*
X401379Y71459D01*
X401291Y71497D01*
X401154Y71560D01*
X400991Y71610D01*
X400804Y71647D01*
X400591Y71684D01*
X400366Y71697D01*
X400266D01*
X400204Y71684D01*
X400117Y71672D01*
X400017Y71659D01*
X399779Y71622D01*
X399504Y71535D01*
X399217Y71422D01*
X399067Y71347D01*
X398929Y71260D01*
X398779Y71160D01*
X398642Y71047D01*
X398629Y71035D01*
X398617Y71022D01*
X398579Y70972D01*
X398529Y70922D01*
X398479Y70847D01*
X398417Y70747D01*
X398342Y70635D01*
X398279Y70510D01*
X398217Y70360D01*
X398142Y70185D01*
X398079Y69985D01*
X398030Y69760D01*
X397980Y69523D01*
X397955Y69248D01*
X397930Y68960D01*
X397917Y68635D01*
Y63562D01*
X396343D01*
Y72847D01*
X397755D01*
Y71522D01*
X397767Y71535D01*
X397805Y71585D01*
X397867Y71659D01*
X397942Y71760D01*
X398055Y71884D01*
X398180Y72009D01*
X398330Y72147D01*
X398504Y72297D01*
X398704Y72434D01*
X398917Y72572D01*
X399167Y72709D01*
X399429Y72822D01*
X399717Y72922D01*
X400017Y72997D01*
X400354Y73047D01*
X400704Y73059D01*
X400841D01*
X400916Y73047D01*
D02*
G37*
G36*
X393956Y63562D02*
X392381D01*
Y72847D01*
X393956D01*
Y63562D01*
D02*
G37*
G36*
X255534Y47000D02*
X254352D01*
Y54507D01*
X254343D01*
X254334Y54489D01*
X254306Y54470D01*
X254277Y54442D01*
X254184Y54358D01*
X254053Y54254D01*
X253893Y54133D01*
X253696Y53992D01*
X253472Y53842D01*
X253228Y53692D01*
X253218D01*
X253200Y53673D01*
X253162Y53655D01*
X253115Y53626D01*
X253050Y53589D01*
X252984Y53552D01*
X252815Y53467D01*
X252628Y53373D01*
X252422Y53270D01*
X252206Y53177D01*
X252000Y53092D01*
Y54226D01*
X252009Y54236D01*
X252047Y54245D01*
X252094Y54273D01*
X252169Y54311D01*
X252253Y54358D01*
X252347Y54414D01*
X252459Y54470D01*
X252581Y54545D01*
X252853Y54704D01*
X253144Y54901D01*
X253434Y55117D01*
X253725Y55351D01*
X253734Y55360D01*
X253753Y55379D01*
X253799Y55417D01*
X253846Y55464D01*
X253903Y55529D01*
X253978Y55595D01*
X254053Y55679D01*
X254137Y55763D01*
X254306Y55960D01*
X254474Y56176D01*
X254634Y56410D01*
X254709Y56523D01*
X254765Y56644D01*
X255534D01*
Y47000D01*
D02*
G37*
G36*
X209711Y200212D02*
X208137D01*
Y210222D01*
X208124D01*
X208112Y210197D01*
X208074Y210172D01*
X208037Y210135D01*
X207912Y210022D01*
X207737Y209885D01*
X207524Y209722D01*
X207262Y209535D01*
X206962Y209335D01*
X206637Y209135D01*
X206625D01*
X206600Y209110D01*
X206550Y209085D01*
X206487Y209048D01*
X206400Y208998D01*
X206312Y208948D01*
X206087Y208835D01*
X205837Y208710D01*
X205562Y208573D01*
X205275Y208448D01*
X205000Y208335D01*
Y209848D01*
X205012Y209860D01*
X205063Y209872D01*
X205125Y209910D01*
X205225Y209960D01*
X205337Y210022D01*
X205462Y210097D01*
X205612Y210172D01*
X205775Y210272D01*
X206137Y210485D01*
X206525Y210747D01*
X206912Y211035D01*
X207299Y211347D01*
X207312Y211360D01*
X207337Y211385D01*
X207399Y211435D01*
X207462Y211497D01*
X207537Y211584D01*
X207637Y211672D01*
X207737Y211784D01*
X207849Y211897D01*
X208074Y212159D01*
X208299Y212447D01*
X208512Y212759D01*
X208612Y212909D01*
X208687Y213072D01*
X209711D01*
Y200212D01*
D02*
G37*
%LPC*%
G36*
X333349Y207136D02*
X333249D01*
X333174Y207123D01*
X333086Y207111D01*
X332974Y207098D01*
X332862Y207073D01*
X332724Y207036D01*
X332449Y206948D01*
X332299Y206886D01*
X332137Y206811D01*
X331987Y206723D01*
X331837Y206611D01*
X331687Y206498D01*
X331549Y206361D01*
X331537Y206348D01*
X331512Y206323D01*
X331487Y206286D01*
X331437Y206223D01*
X331374Y206148D01*
X331312Y206061D01*
X331249Y205949D01*
X331187Y205823D01*
X331112Y205686D01*
X331049Y205536D01*
X330987Y205374D01*
X330924Y205199D01*
X330874Y205011D01*
X330849Y204799D01*
X330825Y204586D01*
X330812Y204361D01*
Y204349D01*
Y204324D01*
Y204286D01*
Y204224D01*
X330825Y204149D01*
Y204062D01*
X330849Y203862D01*
X330900Y203624D01*
X330950Y203362D01*
X331037Y203087D01*
X331149Y202799D01*
Y202787D01*
X331162Y202762D01*
X331187Y202724D01*
X331212Y202674D01*
X331287Y202549D01*
X331399Y202387D01*
X331537Y202199D01*
X331699Y202012D01*
X331899Y201837D01*
X332112Y201675D01*
X332124D01*
X332137Y201662D01*
X332174Y201637D01*
X332224Y201612D01*
X332337Y201550D01*
X332499Y201487D01*
X332699Y201412D01*
X332924Y201350D01*
X333161Y201300D01*
X333411Y201287D01*
X333511D01*
X333574Y201300D01*
X333661Y201312D01*
X333761Y201325D01*
X333999Y201387D01*
X334274Y201487D01*
X334411Y201550D01*
X334561Y201625D01*
X334698Y201712D01*
X334849Y201824D01*
X334986Y201950D01*
X335123Y202087D01*
X335136Y202099D01*
X335161Y202125D01*
X335186Y202174D01*
X335236Y202237D01*
X335286Y202312D01*
X335348Y202412D01*
X335423Y202524D01*
X335486Y202662D01*
X335548Y202812D01*
X335623Y202974D01*
X335686Y203149D01*
X335736Y203349D01*
X335786Y203562D01*
X335823Y203787D01*
X335836Y204024D01*
X335848Y204274D01*
Y204286D01*
Y204336D01*
Y204399D01*
X335836Y204499D01*
X335823Y204599D01*
X335811Y204736D01*
X335786Y204874D01*
X335761Y205036D01*
X335673Y205361D01*
X335623Y205536D01*
X335548Y205711D01*
X335461Y205886D01*
X335373Y206049D01*
X335261Y206211D01*
X335136Y206361D01*
X335123Y206373D01*
X335098Y206398D01*
X335061Y206436D01*
X335011Y206486D01*
X334936Y206536D01*
X334861Y206611D01*
X334761Y206673D01*
X334649Y206748D01*
X334524Y206823D01*
X334399Y206886D01*
X334086Y207011D01*
X333924Y207061D01*
X333736Y207098D01*
X333549Y207123D01*
X333349Y207136D01*
D02*
G37*
G36*
X327309Y152312D02*
X321059Y151999D01*
X320746D01*
X320434Y151687D01*
X320121Y151374D01*
Y135750D01*
X320434Y135437D01*
X327934D01*
X329809Y135750D01*
X331684Y136375D01*
X333871Y137937D01*
X334184Y138562D01*
X335121Y139812D01*
X336059Y141687D01*
X336371Y144187D01*
Y144500D01*
Y144812D01*
X336059Y146062D01*
X335434Y147937D01*
X333871Y149812D01*
X333559Y150125D01*
X331996Y151062D01*
X330121Y151999D01*
X327309Y152312D01*
D02*
G37*
G36*
X223873D02*
X216998Y151999D01*
X216685D01*
X216373Y151687D01*
X216060Y151374D01*
Y135750D01*
X216373D01*
X216685Y135437D01*
X224498D01*
X226060Y135750D01*
X227935Y136375D01*
X229810Y137937D01*
X230123Y138562D01*
X231060Y139812D01*
X231998Y141687D01*
X232310Y144187D01*
Y144500D01*
Y144812D01*
X231998Y146062D01*
X231373Y147937D01*
X229810Y149812D01*
X229498Y150125D01*
X228248Y151062D01*
X226373Y151999D01*
X223873Y152312D01*
D02*
G37*
G36*
X425745Y150125D02*
X425433D01*
X425120Y149500D01*
X420120Y128875D01*
Y128562D01*
X420433Y128250D01*
X420745Y127937D01*
X430433D01*
X430745Y128250D01*
X430433Y128875D01*
X426058Y149500D01*
Y149812D01*
X425745Y150125D01*
D02*
G37*
G36*
X286262Y52352D02*
X286187D01*
X286130Y52342D01*
X286065Y52333D01*
X285980Y52324D01*
X285896Y52305D01*
X285793Y52277D01*
X285587Y52211D01*
X285474Y52164D01*
X285352Y52108D01*
X285240Y52042D01*
X285128Y51958D01*
X285015Y51874D01*
X284912Y51771D01*
X284903Y51761D01*
X284884Y51743D01*
X284865Y51714D01*
X284828Y51668D01*
X284781Y51611D01*
X284734Y51546D01*
X284687Y51461D01*
X284640Y51368D01*
X284584Y51265D01*
X284537Y51152D01*
X284490Y51030D01*
X284443Y50899D01*
X284406Y50758D01*
X284387Y50599D01*
X284368Y50440D01*
X284359Y50271D01*
Y50262D01*
Y50243D01*
Y50215D01*
Y50168D01*
X284368Y50112D01*
Y50046D01*
X284387Y49896D01*
X284425Y49718D01*
X284462Y49521D01*
X284528Y49315D01*
X284612Y49099D01*
Y49090D01*
X284621Y49071D01*
X284640Y49043D01*
X284659Y49006D01*
X284715Y48912D01*
X284799Y48790D01*
X284903Y48650D01*
X285024Y48509D01*
X285174Y48378D01*
X285334Y48256D01*
X285343D01*
X285352Y48247D01*
X285381Y48228D01*
X285418Y48209D01*
X285502Y48162D01*
X285624Y48115D01*
X285774Y48059D01*
X285943Y48012D01*
X286121Y47975D01*
X286308Y47965D01*
X286383D01*
X286430Y47975D01*
X286496Y47984D01*
X286571Y47993D01*
X286749Y48040D01*
X286955Y48115D01*
X287058Y48162D01*
X287171Y48218D01*
X287274Y48284D01*
X287386Y48368D01*
X287489Y48462D01*
X287593Y48565D01*
X287602Y48575D01*
X287621Y48593D01*
X287639Y48631D01*
X287677Y48678D01*
X287714Y48734D01*
X287761Y48809D01*
X287817Y48893D01*
X287864Y48996D01*
X287911Y49109D01*
X287967Y49231D01*
X288014Y49362D01*
X288052Y49512D01*
X288089Y49671D01*
X288117Y49840D01*
X288127Y50018D01*
X288136Y50205D01*
Y50215D01*
Y50252D01*
Y50299D01*
X288127Y50374D01*
X288117Y50449D01*
X288108Y50552D01*
X288089Y50655D01*
X288071Y50777D01*
X288005Y51021D01*
X287967Y51152D01*
X287911Y51283D01*
X287846Y51414D01*
X287780Y51536D01*
X287696Y51658D01*
X287602Y51771D01*
X287593Y51780D01*
X287574Y51799D01*
X287546Y51827D01*
X287508Y51864D01*
X287452Y51902D01*
X287396Y51958D01*
X287321Y52005D01*
X287236Y52061D01*
X287143Y52117D01*
X287049Y52164D01*
X286815Y52258D01*
X286693Y52295D01*
X286552Y52324D01*
X286412Y52342D01*
X286262Y52352D01*
D02*
G37*
G36*
X283169Y210547D02*
X279145Y204761D01*
X283169D01*
Y210547D01*
D02*
G37*
G36*
X441456Y36510D02*
X438657Y36510D01*
Y32636D01*
X441693Y32636D01*
X441806Y32648D01*
X442043D01*
X442306Y32673D01*
X442568Y32698D01*
X442818Y32723D01*
X442930Y32748D01*
X443031Y32773D01*
X443043D01*
X443055Y32785D01*
X443130Y32810D01*
X443256Y32861D01*
X443393Y32923D01*
X443543Y33023D01*
X443705Y33123D01*
X443855Y33260D01*
X443993Y33410D01*
X444005Y33435D01*
X444043Y33498D01*
X444105Y33585D01*
X444168Y33723D01*
X444218Y33885D01*
X444280Y34073D01*
X444318Y34298D01*
X444330Y34535D01*
Y34548D01*
Y34560D01*
Y34598D01*
Y34648D01*
X444318Y34760D01*
X444293Y34910D01*
X444255Y35085D01*
X444193Y35285D01*
X444118Y35472D01*
X444018Y35660D01*
X444005Y35685D01*
X443968Y35735D01*
X443893Y35822D01*
X443793Y35922D01*
X443668Y36035D01*
X443518Y36147D01*
X443343Y36247D01*
X443143Y36322D01*
X443130D01*
X443118Y36335D01*
X443080D01*
X443031Y36347D01*
X442968Y36372D01*
X442893Y36385D01*
X442806Y36397D01*
X442693Y36422D01*
X442568Y36435D01*
X442418Y36447D01*
X442268Y36472D01*
X442093Y36485D01*
X441893Y36497D01*
X441681D01*
X441456Y36510D01*
D02*
G37*
G36*
X441831Y31123D02*
X438657Y31123D01*
Y26725D01*
X442118Y26725D01*
X442293Y26737D01*
X442481D01*
X442681Y26750D01*
X442856Y26762D01*
X442993Y26775D01*
X443018D01*
X443093Y26800D01*
X443205Y26825D01*
X443330Y26862D01*
X443493Y26912D01*
X443655Y26974D01*
X443818Y27037D01*
X443968Y27125D01*
X443980Y27137D01*
X444030Y27174D01*
X444105Y27225D01*
X444205Y27312D01*
X444305Y27412D01*
X444405Y27537D01*
X444518Y27674D01*
X444618Y27837D01*
X444630Y27862D01*
X444655Y27924D01*
X444705Y28024D01*
X444755Y28149D01*
X444793Y28312D01*
X444842Y28499D01*
X444868Y28699D01*
X444880Y28924D01*
Y28937D01*
Y28962D01*
Y28999D01*
Y29049D01*
X444855Y29174D01*
X444830Y29349D01*
X444780Y29536D01*
X444718Y29749D01*
X444618Y29961D01*
X444493Y30161D01*
X444480Y30186D01*
X444430Y30249D01*
X444343Y30336D01*
X444230Y30449D01*
X444080Y30574D01*
X443905Y30699D01*
X443693Y30811D01*
X443468Y30898D01*
X443455D01*
X443443Y30911D01*
X443405Y30924D01*
X443355Y30936D01*
X443280Y30949D01*
X443205Y30973D01*
X443106Y30986D01*
X442993Y31011D01*
X442868Y31036D01*
X442731Y31049D01*
X442581Y31074D01*
X442418Y31086D01*
X442231Y31098D01*
X442043Y31111D01*
X441831Y31123D01*
D02*
G37*
G36*
X454578Y36785D02*
X454503D01*
X454403Y36772D01*
X454278Y36760D01*
X454115Y36747D01*
X453940Y36722D01*
X453740Y36685D01*
X453515Y36635D01*
X453278Y36560D01*
X453028Y36485D01*
X452778Y36385D01*
X452516Y36260D01*
X452253Y36122D01*
X451991Y35960D01*
X451728Y35760D01*
X451478Y35547D01*
X451466Y35535D01*
X451428Y35485D01*
X451366Y35410D01*
X451278Y35310D01*
X451178Y35172D01*
X451066Y35010D01*
X450953Y34797D01*
X450841Y34573D01*
X450716Y34298D01*
X450604Y33998D01*
X450491Y33660D01*
X450391Y33285D01*
X450316Y32873D01*
X450241Y32436D01*
X450204Y31948D01*
X450191Y31423D01*
Y31411D01*
Y31398D01*
Y31323D01*
X450204Y31198D01*
X450216Y31036D01*
X450229Y30849D01*
X450254Y30624D01*
X450291Y30374D01*
X450341Y30099D01*
X450416Y29811D01*
X450491Y29511D01*
X450591Y29211D01*
X450716Y28911D01*
X450854Y28612D01*
X451016Y28312D01*
X451216Y28037D01*
X451428Y27774D01*
X451441Y27762D01*
X451491Y27712D01*
X451553Y27649D01*
X451653Y27562D01*
X451778Y27462D01*
X451928Y27349D01*
X452091Y27237D01*
X452291Y27112D01*
X452503Y26987D01*
X452741Y26874D01*
X453003Y26762D01*
X453278Y26662D01*
X453565Y26575D01*
X453878Y26512D01*
X454215Y26462D01*
X454553Y26450D01*
X454640D01*
X454740Y26462D01*
X454878Y26475D01*
X455040Y26487D01*
X455227Y26525D01*
X455440Y26562D01*
X455665Y26612D01*
X455915Y26687D01*
X456165Y26775D01*
X456427Y26887D01*
X456702Y27012D01*
X456964Y27162D01*
X457227Y27349D01*
X457477Y27549D01*
X457714Y27787D01*
X457727Y27799D01*
X457764Y27849D01*
X457827Y27924D01*
X457914Y28037D01*
X458002Y28174D01*
X458102Y28349D01*
X458214Y28537D01*
X458339Y28774D01*
X458452Y29024D01*
X458564Y29311D01*
X458664Y29624D01*
X458764Y29961D01*
X458839Y30336D01*
X458901Y30724D01*
X458939Y31149D01*
X458951Y31598D01*
Y31611D01*
Y31673D01*
Y31748D01*
X458939Y31861D01*
Y31998D01*
X458926Y32148D01*
X458901Y32336D01*
X458889Y32523D01*
X458852Y32736D01*
X458826Y32948D01*
X458727Y33410D01*
X458589Y33873D01*
X458514Y34098D01*
X458414Y34323D01*
Y34335D01*
X458389Y34373D01*
X458364Y34435D01*
X458314Y34523D01*
X458264Y34610D01*
X458189Y34722D01*
X458027Y34985D01*
X457802Y35285D01*
X457539Y35585D01*
X457227Y35872D01*
X457052Y36010D01*
X456865Y36135D01*
X456852Y36147D01*
X456814Y36160D01*
X456764Y36197D01*
X456689Y36235D01*
X456590Y36285D01*
X456477Y36335D01*
X456352Y36397D01*
X456202Y36460D01*
X456040Y36522D01*
X455865Y36585D01*
X455677Y36635D01*
X455477Y36685D01*
X455040Y36760D01*
X454815Y36772D01*
X454578Y36785D01*
D02*
G37*
G36*
X384858Y36772D02*
X384758D01*
X384683Y36760D01*
X384583Y36747D01*
X384483Y36722D01*
X384233Y36660D01*
X384096Y36609D01*
X383958Y36547D01*
X383808Y36472D01*
X383671Y36385D01*
X383521Y36272D01*
X383383Y36147D01*
X383246Y36010D01*
X383121Y35847D01*
X383108Y35835D01*
X383083Y35797D01*
X383046Y35722D01*
X382996Y35610D01*
X382933Y35485D01*
X382871Y35310D01*
X382796Y35110D01*
X382721Y34873D01*
X382646Y34585D01*
X382571Y34273D01*
X382509Y33923D01*
X382446Y33523D01*
X382396Y33098D01*
X382359Y32611D01*
X382334Y32086D01*
X382321Y31523D01*
Y31511D01*
Y31486D01*
Y31448D01*
Y31386D01*
Y31311D01*
Y31223D01*
X382334Y31123D01*
Y31011D01*
X382346Y30761D01*
X382359Y30474D01*
X382383Y30149D01*
X382408Y29811D01*
X382496Y29111D01*
X382559Y28761D01*
X382634Y28424D01*
X382721Y28099D01*
X382821Y27799D01*
X382933Y27537D01*
X383058Y27324D01*
X383071Y27312D01*
X383096Y27274D01*
X383133Y27224D01*
X383196Y27162D01*
X383258Y27087D01*
X383346Y26999D01*
X383446Y26899D01*
X383558Y26812D01*
X383696Y26712D01*
X383833Y26612D01*
X384146Y26450D01*
X384308Y26387D01*
X384496Y26337D01*
X384683Y26300D01*
X384883Y26287D01*
X384933D01*
X384983Y26300D01*
X385058D01*
X385158Y26325D01*
X385258Y26337D01*
X385383Y26375D01*
X385508Y26412D01*
X385658Y26475D01*
X385795Y26537D01*
X385945Y26625D01*
X386095Y26725D01*
X386258Y26850D01*
X386408Y26987D01*
X386558Y27137D01*
X386695Y27324D01*
X386707Y27337D01*
X386732Y27374D01*
X386770Y27437D01*
X386807Y27537D01*
X386870Y27662D01*
X386932Y27824D01*
X386995Y28012D01*
X387070Y28249D01*
X387145Y28512D01*
X387207Y28812D01*
X387270Y29149D01*
X387332Y29536D01*
X387370Y29961D01*
X387407Y30436D01*
X387432Y30961D01*
X387445Y31523D01*
Y31536D01*
Y31561D01*
Y31598D01*
Y31661D01*
Y31736D01*
Y31823D01*
X387432Y31923D01*
Y32036D01*
X387420Y32286D01*
X387407Y32573D01*
X387382Y32898D01*
X387357Y33235D01*
X387270Y33935D01*
X387207Y34285D01*
X387132Y34635D01*
X387045Y34948D01*
X386957Y35247D01*
X386832Y35510D01*
X386707Y35722D01*
X386695Y35735D01*
X386670Y35772D01*
X386632Y35822D01*
X386570Y35885D01*
X386507Y35972D01*
X386420Y36060D01*
X386320Y36147D01*
X386195Y36247D01*
X386070Y36347D01*
X385933Y36435D01*
X385620Y36609D01*
X385445Y36672D01*
X385258Y36722D01*
X385058Y36760D01*
X384858Y36772D01*
D02*
G37*
G36*
X468461Y55678D02*
X464787D01*
Y51105D01*
X468249D01*
X468362Y51117D01*
X468499D01*
X468649Y51142D01*
X468824Y51155D01*
X468999Y51180D01*
X469386Y51255D01*
X469774Y51354D01*
X469949Y51430D01*
X470124Y51505D01*
X470286Y51604D01*
X470424Y51704D01*
X470436Y51717D01*
X470448Y51729D01*
X470486Y51767D01*
X470536Y51817D01*
X470586Y51879D01*
X470648Y51954D01*
X470711Y52042D01*
X470773Y52154D01*
X470836Y52267D01*
X470898Y52392D01*
X470961Y52542D01*
X471011Y52692D01*
X471098Y53042D01*
X471111Y53229D01*
X471123Y53429D01*
Y53442D01*
Y53467D01*
Y53504D01*
Y53566D01*
X471111Y53629D01*
X471098Y53716D01*
X471073Y53904D01*
X471023Y54116D01*
X470948Y54341D01*
X470848Y54579D01*
X470711Y54804D01*
Y54816D01*
X470698Y54829D01*
X470636Y54891D01*
X470549Y54991D01*
X470424Y55116D01*
X470274Y55241D01*
X470086Y55366D01*
X469874Y55466D01*
X469636Y55553D01*
X469611D01*
X469549Y55578D01*
X469499D01*
X469436Y55591D01*
X469361Y55603D01*
X469286Y55616D01*
X469174Y55628D01*
X469061Y55641D01*
X468936Y55653D01*
X468799D01*
X468637Y55666D01*
X468461Y55678D01*
D02*
G37*
G36*
X454790Y55953D02*
X454715D01*
X454615Y55941D01*
X454490Y55928D01*
X454328Y55916D01*
X454153Y55891D01*
X453953Y55853D01*
X453728Y55803D01*
X453490Y55728D01*
X453240Y55653D01*
X452990Y55553D01*
X452728Y55429D01*
X452466Y55291D01*
X452203Y55128D01*
X451941Y54929D01*
X451691Y54716D01*
X451678Y54704D01*
X451641Y54654D01*
X451578Y54579D01*
X451491Y54479D01*
X451391Y54341D01*
X451278Y54179D01*
X451166Y53966D01*
X451054Y53741D01*
X450928Y53467D01*
X450816Y53166D01*
X450704Y52829D01*
X450604Y52454D01*
X450529Y52042D01*
X450454Y51604D01*
X450416Y51117D01*
X450404Y50592D01*
Y50580D01*
Y50567D01*
Y50492D01*
X450416Y50367D01*
X450429Y50205D01*
X450441Y50017D01*
X450466Y49792D01*
X450504Y49542D01*
X450554Y49268D01*
X450629Y48980D01*
X450704Y48680D01*
X450803Y48380D01*
X450928Y48080D01*
X451066Y47780D01*
X451228Y47481D01*
X451428Y47206D01*
X451641Y46943D01*
X451653Y46931D01*
X451703Y46881D01*
X451766Y46818D01*
X451866Y46731D01*
X451991Y46631D01*
X452141Y46518D01*
X452303Y46406D01*
X452503Y46281D01*
X452715Y46156D01*
X452953Y46043D01*
X453215Y45931D01*
X453490Y45831D01*
X453778Y45743D01*
X454090Y45681D01*
X454428Y45631D01*
X454765Y45619D01*
X454852D01*
X454953Y45631D01*
X455090Y45644D01*
X455252Y45656D01*
X455440Y45693D01*
X455652Y45731D01*
X455877Y45781D01*
X456127Y45856D01*
X456377Y45943D01*
X456640Y46056D01*
X456914Y46181D01*
X457177Y46331D01*
X457439Y46518D01*
X457689Y46718D01*
X457927Y46956D01*
X457939Y46968D01*
X457977Y47018D01*
X458039Y47093D01*
X458127Y47206D01*
X458214Y47343D01*
X458314Y47518D01*
X458427Y47705D01*
X458551Y47943D01*
X458664Y48193D01*
X458777Y48480D01*
X458876Y48793D01*
X458976Y49130D01*
X459051Y49505D01*
X459114Y49892D01*
X459151Y50317D01*
X459164Y50767D01*
Y50780D01*
Y50842D01*
Y50917D01*
X459151Y51030D01*
Y51167D01*
X459139Y51317D01*
X459114Y51505D01*
X459101Y51692D01*
X459064Y51904D01*
X459039Y52117D01*
X458939Y52579D01*
X458801Y53042D01*
X458727Y53267D01*
X458627Y53492D01*
Y53504D01*
X458601Y53541D01*
X458577Y53604D01*
X458526Y53691D01*
X458477Y53779D01*
X458402Y53891D01*
X458239Y54154D01*
X458014Y54454D01*
X457752Y54754D01*
X457439Y55041D01*
X457264Y55178D01*
X457077Y55304D01*
X457064Y55316D01*
X457027Y55328D01*
X456977Y55366D01*
X456902Y55403D01*
X456802Y55454D01*
X456689Y55503D01*
X456564Y55566D01*
X456415Y55628D01*
X456252Y55691D01*
X456077Y55753D01*
X455890Y55803D01*
X455690Y55853D01*
X455252Y55928D01*
X455027Y55941D01*
X454790Y55953D01*
D02*
G37*
G36*
X371149Y55941D02*
X371049D01*
X370974Y55928D01*
X370874Y55916D01*
X370774Y55891D01*
X370524Y55828D01*
X370387Y55778D01*
X370249Y55716D01*
X370099Y55641D01*
X369962Y55553D01*
X369812Y55441D01*
X369674Y55316D01*
X369537Y55178D01*
X369412Y55016D01*
X369399Y55003D01*
X369374Y54966D01*
X369337Y54891D01*
X369287Y54779D01*
X369224Y54654D01*
X369162Y54479D01*
X369087Y54279D01*
X369012Y54041D01*
X368937Y53754D01*
X368862Y53441D01*
X368800Y53092D01*
X368737Y52692D01*
X368687Y52267D01*
X368650Y51779D01*
X368625Y51255D01*
X368612Y50692D01*
Y50680D01*
Y50655D01*
Y50617D01*
Y50555D01*
Y50480D01*
Y50392D01*
X368625Y50292D01*
Y50180D01*
X368637Y49930D01*
X368650Y49642D01*
X368675Y49317D01*
X368699Y48980D01*
X368787Y48280D01*
X368849Y47930D01*
X368924Y47593D01*
X369012Y47268D01*
X369112Y46968D01*
X369224Y46706D01*
X369349Y46493D01*
X369362Y46481D01*
X369387Y46443D01*
X369424Y46393D01*
X369487Y46331D01*
X369549Y46256D01*
X369637Y46168D01*
X369737Y46068D01*
X369849Y45981D01*
X369987Y45881D01*
X370124Y45781D01*
X370437Y45619D01*
X370599Y45556D01*
X370787Y45506D01*
X370974Y45469D01*
X371174Y45456D01*
X371224D01*
X371274Y45469D01*
X371349D01*
X371449Y45493D01*
X371549Y45506D01*
X371674Y45543D01*
X371799Y45581D01*
X371949Y45643D01*
X372086Y45706D01*
X372236Y45793D01*
X372386Y45893D01*
X372549Y46018D01*
X372699Y46156D01*
X372849Y46306D01*
X372986Y46493D01*
X372998Y46506D01*
X373023Y46543D01*
X373061Y46606D01*
X373098Y46706D01*
X373161Y46831D01*
X373223Y46993D01*
X373286Y47181D01*
X373361Y47418D01*
X373436Y47680D01*
X373498Y47980D01*
X373561Y48318D01*
X373623Y48705D01*
X373661Y49130D01*
X373698Y49605D01*
X373723Y50130D01*
X373736Y50692D01*
Y50705D01*
Y50730D01*
Y50767D01*
Y50830D01*
Y50905D01*
Y50992D01*
X373723Y51092D01*
Y51205D01*
X373711Y51455D01*
X373698Y51742D01*
X373673Y52067D01*
X373648Y52404D01*
X373561Y53104D01*
X373498Y53454D01*
X373423Y53804D01*
X373336Y54116D01*
X373248Y54416D01*
X373123Y54679D01*
X372998Y54891D01*
X372986Y54904D01*
X372961Y54941D01*
X372924Y54991D01*
X372861Y55054D01*
X372799Y55141D01*
X372711Y55229D01*
X372611Y55316D01*
X372486Y55416D01*
X372361Y55516D01*
X372224Y55603D01*
X371911Y55778D01*
X371736Y55841D01*
X371549Y55891D01*
X371349Y55928D01*
X371149Y55941D01*
D02*
G37*
G36*
X371349Y70485D02*
X371249D01*
X371174Y70472D01*
X371086Y70460D01*
X370974Y70447D01*
X370862Y70422D01*
X370724Y70385D01*
X370449Y70297D01*
X370299Y70235D01*
X370137Y70160D01*
X369987Y70072D01*
X369837Y69960D01*
X369687Y69847D01*
X369549Y69710D01*
X369537Y69697D01*
X369512Y69672D01*
X369487Y69635D01*
X369437Y69573D01*
X369374Y69497D01*
X369312Y69410D01*
X369249Y69298D01*
X369187Y69173D01*
X369112Y69035D01*
X369049Y68885D01*
X368987Y68723D01*
X368924Y68548D01*
X368875Y68360D01*
X368849Y68148D01*
X368825Y67935D01*
X368812Y67710D01*
Y67698D01*
Y67673D01*
Y67635D01*
Y67573D01*
X368825Y67498D01*
Y67411D01*
X368849Y67211D01*
X368899Y66973D01*
X368950Y66711D01*
X369037Y66436D01*
X369149Y66148D01*
Y66136D01*
X369162Y66111D01*
X369187Y66073D01*
X369212Y66023D01*
X369287Y65898D01*
X369399Y65736D01*
X369537Y65549D01*
X369699Y65361D01*
X369899Y65186D01*
X370112Y65024D01*
X370124D01*
X370137Y65011D01*
X370174Y64986D01*
X370224Y64961D01*
X370337Y64899D01*
X370499Y64836D01*
X370699Y64761D01*
X370924Y64699D01*
X371161Y64649D01*
X371411Y64636D01*
X371511D01*
X371574Y64649D01*
X371661Y64661D01*
X371761Y64674D01*
X371999Y64736D01*
X372274Y64836D01*
X372411Y64899D01*
X372561Y64974D01*
X372699Y65061D01*
X372849Y65174D01*
X372986Y65299D01*
X373123Y65436D01*
X373136Y65449D01*
X373161Y65474D01*
X373186Y65524D01*
X373236Y65586D01*
X373286Y65661D01*
X373348Y65761D01*
X373423Y65873D01*
X373486Y66011D01*
X373548Y66161D01*
X373623Y66323D01*
X373686Y66498D01*
X373736Y66698D01*
X373786Y66911D01*
X373823Y67136D01*
X373836Y67373D01*
X373848Y67623D01*
Y67635D01*
Y67685D01*
Y67748D01*
X373836Y67848D01*
X373823Y67948D01*
X373811Y68085D01*
X373786Y68223D01*
X373761Y68385D01*
X373673Y68710D01*
X373623Y68885D01*
X373548Y69060D01*
X373461Y69235D01*
X373373Y69398D01*
X373261Y69560D01*
X373136Y69710D01*
X373123Y69722D01*
X373098Y69748D01*
X373061Y69785D01*
X373011Y69835D01*
X372936Y69885D01*
X372861Y69960D01*
X372761Y70022D01*
X372649Y70097D01*
X372524Y70172D01*
X372399Y70235D01*
X372086Y70360D01*
X371924Y70410D01*
X371736Y70447D01*
X371549Y70472D01*
X371349Y70485D01*
D02*
G37*
G36*
X386395Y71822D02*
X386295D01*
X386220Y71810D01*
X386133Y71797D01*
X386033Y71772D01*
X385920Y71747D01*
X385795Y71709D01*
X385658Y71659D01*
X385520Y71585D01*
X385370Y71509D01*
X385220Y71422D01*
X385058Y71310D01*
X384908Y71185D01*
X384758Y71035D01*
X384608Y70872D01*
X384595Y70860D01*
X384571Y70835D01*
X384533Y70772D01*
X384496Y70697D01*
X384433Y70597D01*
X384370Y70485D01*
X384296Y70335D01*
X384233Y70185D01*
X384158Y69997D01*
X384083Y69798D01*
X384021Y69573D01*
X383971Y69323D01*
X383921Y69060D01*
X383883Y68773D01*
X383858Y68460D01*
X383846Y68135D01*
Y68110D01*
Y68060D01*
Y67960D01*
X383858Y67848D01*
X383871Y67698D01*
X383883Y67523D01*
X383908Y67336D01*
X383933Y67136D01*
X384021Y66698D01*
X384083Y66486D01*
X384158Y66261D01*
X384233Y66048D01*
X384333Y65848D01*
X384445Y65661D01*
X384571Y65486D01*
X384583Y65474D01*
X384608Y65449D01*
X384646Y65411D01*
X384695Y65349D01*
X384770Y65286D01*
X384858Y65224D01*
X384945Y65136D01*
X385058Y65061D01*
X385320Y64911D01*
X385620Y64774D01*
X385783Y64711D01*
X385945Y64674D01*
X386133Y64649D01*
X386320Y64636D01*
X386420D01*
X386495Y64649D01*
X386582Y64661D01*
X386695Y64686D01*
X386807Y64711D01*
X386945Y64749D01*
X387082Y64799D01*
X387220Y64849D01*
X387370Y64924D01*
X387520Y65011D01*
X387670Y65111D01*
X387832Y65236D01*
X387982Y65374D01*
X388120Y65524D01*
X388132Y65536D01*
X388157Y65561D01*
X388195Y65623D01*
X388232Y65686D01*
X388294Y65786D01*
X388357Y65898D01*
X388419Y66036D01*
X388494Y66198D01*
X388569Y66386D01*
X388632Y66586D01*
X388694Y66811D01*
X388757Y67061D01*
X388794Y67323D01*
X388832Y67623D01*
X388857Y67935D01*
X388869Y68273D01*
Y68298D01*
Y68348D01*
Y68448D01*
X388857Y68560D01*
X388844Y68710D01*
X388832Y68885D01*
X388807Y69073D01*
X388782Y69273D01*
X388694Y69697D01*
X388632Y69922D01*
X388557Y70147D01*
X388470Y70360D01*
X388382Y70560D01*
X388257Y70760D01*
X388132Y70935D01*
X388120Y70947D01*
X388095Y70972D01*
X388057Y71022D01*
X388007Y71072D01*
X387932Y71135D01*
X387845Y71210D01*
X387757Y71297D01*
X387645Y71385D01*
X387395Y71547D01*
X387095Y71684D01*
X386932Y71734D01*
X386757Y71785D01*
X386582Y71810D01*
X386395Y71822D01*
D02*
G37*
%LPD*%
D10*
X475000Y15000D02*
G03*
X485000Y25000I0J10000D01*
G01*
X355000Y25000D02*
G03*
X365000Y15000I10000J0D01*
G01*
X485000Y75000D02*
G03*
X475000Y85000I-10000J0D01*
G01*
X365000D02*
G03*
X355000Y75000I0J-10000D01*
G01*
X193800Y216651D02*
X346200D01*
Y242051D01*
X193800Y216651D02*
Y242051D01*
X346200D01*
X355000Y25000D02*
Y75000D01*
X365000Y15000D02*
X475000D01*
X365000Y85000D02*
X475000D01*
X485000Y25000D02*
Y75000D01*
X355000Y25000D02*
X355000D01*
D11*
X255000Y41722D02*
X260000D01*
M02*
