G04*
G04 #@! TF.GenerationSoftware,Altium Limited,Altium Designer,24.6.1 (21)*
G04*
G04 Layer_Color=8421504*
%FSLAX44Y44*%
%MOMM*%
G71*
G04*
G04 #@! TF.SameCoordinates,8DCAB7A9-A94A-4F5B-9992-067C88242E54*
G04*
G04*
G04 #@! TF.FilePolarity,Positive*
G04*
G01*
G75*
%ADD15R,0.7600X2.4000*%
%ADD16R,0.5500X0.5500*%
%ADD17R,1.2000X1.9000*%
%ADD18R,1.1000X0.6000*%
%ADD19R,1.0000X3.7000*%
%ADD20R,1.3000X1.5500*%
%ADD21R,0.3000X0.4000*%
%ADD22R,0.5500X0.5500*%
D15*
X195580Y85032D02*
D03*
X182880D02*
D03*
X170180D02*
D03*
X157480D02*
D03*
X144780D02*
D03*
X195580Y46032D02*
D03*
X182880D02*
D03*
X170180D02*
D03*
X157480D02*
D03*
X144780D02*
D03*
D16*
X269554Y210192D02*
D03*
X279714D02*
D03*
D17*
X62328Y67056D02*
D03*
X106328D02*
D03*
D18*
X254554Y210922D02*
D03*
Y191922D02*
D03*
X228554Y210922D02*
D03*
Y201422D02*
D03*
Y191922D02*
D03*
D19*
X50546Y359316D02*
D03*
X75946D02*
D03*
X101346D02*
D03*
X126746D02*
D03*
X152146D02*
D03*
X177546D02*
D03*
X202946D02*
D03*
X228346D02*
D03*
X253746D02*
D03*
X279146D02*
D03*
D20*
X127360Y216282D02*
D03*
Y295782D02*
D03*
X172360Y216282D02*
D03*
Y295782D02*
D03*
D21*
X128598Y195074D02*
D03*
X137598D02*
D03*
D22*
X124460Y30734D02*
D03*
Y40894D02*
D03*
M02*
