G04*
G04 #@! TF.GenerationSoftware,Altium Limited,Altium Designer,24.6.1 (21)*
G04*
G04 Layer_Physical_Order=2*
G04 Layer_Color=16711680*
%FSLAX44Y44*%
%MOMM*%
G71*
G04*
G04 #@! TF.SameCoordinates,8DCAB7A9-A94A-4F5B-9992-067C88242E54*
G04*
G04*
G04 #@! TF.FilePolarity,Positive*
G04*
G01*
G75*
%ADD14C,0.2540*%
%ADD19R,1.0000X3.7000*%
%ADD35C,0.3810*%
%ADD37C,1.5000*%
%ADD38C,1.6000*%
%ADD39R,1.6000X1.6000*%
%ADD40R,1.6000X1.6000*%
%ADD41C,0.5080*%
%ADD42R,2.7000X3.0000*%
%ADD43R,0.3000X1.2000*%
G36*
X320449Y384372D02*
X322289Y383610D01*
X323945Y382503D01*
X325353Y381095D01*
X326460Y379439D01*
X327222Y377599D01*
X327610Y375646D01*
Y374650D01*
Y43361D01*
Y40688D01*
X326913Y35389D01*
X325530Y30227D01*
X323484Y25289D01*
X320812Y20661D01*
X317558Y16421D01*
X313779Y12642D01*
X309539Y9388D01*
X304911Y6716D01*
X299973Y4670D01*
X294811Y3287D01*
X289512Y2590D01*
X40688D01*
X35389Y3287D01*
X30227Y4670D01*
X25289Y6716D01*
X20661Y9388D01*
X16421Y12642D01*
X12642Y16421D01*
X9388Y20661D01*
X6716Y25289D01*
X4670Y30227D01*
X3287Y35389D01*
X2590Y40688D01*
Y43361D01*
Y374650D01*
Y375646D01*
X2978Y377599D01*
X3740Y379439D01*
X4847Y381095D01*
X6255Y382503D01*
X7911Y383610D01*
X9751Y384372D01*
X11704Y384760D01*
X41375D01*
X43006Y380356D01*
X43006Y379680D01*
Y360586D01*
X58086D01*
Y379680D01*
X58086Y380356D01*
X59717Y384760D01*
X66775D01*
X68406Y380356D01*
X68406Y379680D01*
Y360586D01*
X83486D01*
Y379680D01*
X83486Y380356D01*
X85117Y384760D01*
X92175D01*
X93806Y380356D01*
X93806Y379680D01*
Y360586D01*
X108886D01*
Y379680D01*
X108886Y380356D01*
X110517Y384760D01*
X117575D01*
X119206Y380356D01*
X119206Y379680D01*
Y360586D01*
X134286D01*
Y379680D01*
X134286Y380356D01*
X135917Y384760D01*
X142975D01*
X144606Y380356D01*
X144606Y379680D01*
Y360586D01*
X159686D01*
Y379680D01*
X159686Y380356D01*
X161317Y384760D01*
X168375D01*
X170006Y380356D01*
X170006Y379680D01*
Y360586D01*
X185086D01*
Y379680D01*
X185086Y380356D01*
X186717Y384760D01*
X193775D01*
X195406Y380356D01*
X195406Y379680D01*
Y360586D01*
X210486D01*
Y379680D01*
X210486Y380356D01*
X212117Y384760D01*
X219175D01*
X220806Y380356D01*
X220806Y379680D01*
Y360586D01*
X235886D01*
Y379680D01*
X235886Y380356D01*
X237517Y384760D01*
X244575D01*
X246206Y380356D01*
X246206Y379680D01*
Y360586D01*
X261286D01*
Y379680D01*
X261286Y380356D01*
X262917Y384760D01*
X271682D01*
X272106Y379856D01*
X272106Y379680D01*
Y338776D01*
X286186D01*
Y379680D01*
X286186Y379856D01*
X286610Y384760D01*
X318496D01*
X320449Y384372D01*
D02*
G37*
%LPC*%
G36*
X261286Y358046D02*
X255016D01*
Y338276D01*
X261286D01*
Y358046D01*
D02*
G37*
G36*
X252476D02*
X246206D01*
Y338276D01*
X252476D01*
Y358046D01*
D02*
G37*
G36*
X235886D02*
X229616D01*
Y338276D01*
X235886D01*
Y358046D01*
D02*
G37*
G36*
X227076D02*
X220806D01*
Y338276D01*
X227076D01*
Y358046D01*
D02*
G37*
G36*
X210486D02*
X204216D01*
Y338276D01*
X210486D01*
Y358046D01*
D02*
G37*
G36*
X201676D02*
X195406D01*
Y338276D01*
X201676D01*
Y358046D01*
D02*
G37*
G36*
X185086D02*
X178816D01*
Y338276D01*
X185086D01*
Y358046D01*
D02*
G37*
G36*
X176276D02*
X170006D01*
Y338276D01*
X176276D01*
Y358046D01*
D02*
G37*
G36*
X159686D02*
X153416D01*
Y338276D01*
X159686D01*
Y358046D01*
D02*
G37*
G36*
X150876D02*
X144606D01*
Y338276D01*
X150876D01*
Y358046D01*
D02*
G37*
G36*
X134286D02*
X128016D01*
Y338276D01*
X134286D01*
Y358046D01*
D02*
G37*
G36*
X125476D02*
X119206D01*
Y338276D01*
X125476D01*
Y358046D01*
D02*
G37*
G36*
X108886D02*
X102616D01*
Y338276D01*
X108886D01*
Y358046D01*
D02*
G37*
G36*
X100076D02*
X93806D01*
Y338276D01*
X100076D01*
Y358046D01*
D02*
G37*
G36*
X83486D02*
X77216D01*
Y338276D01*
X83486D01*
Y358046D01*
D02*
G37*
G36*
X74676D02*
X68406D01*
Y338276D01*
X74676D01*
Y358046D01*
D02*
G37*
G36*
X58086D02*
X51816D01*
Y338276D01*
X58086D01*
Y358046D01*
D02*
G37*
G36*
X49276D02*
X43006D01*
Y338276D01*
X49276D01*
Y358046D01*
D02*
G37*
G36*
X90369Y285164D02*
X70289D01*
Y265084D01*
X90369D01*
Y271102D01*
X247810D01*
X248572Y270593D01*
X250013Y270306D01*
X250136Y270183D01*
X251819Y269486D01*
X253641D01*
X255324Y270183D01*
X256613Y271472D01*
X257310Y273155D01*
Y274977D01*
X256613Y276660D01*
X255324Y277949D01*
X253641Y278646D01*
X251819D01*
X251391Y278469D01*
X250835Y278840D01*
X249296Y279146D01*
X90369D01*
Y285164D01*
D02*
G37*
G36*
X56251D02*
X53608D01*
X51054Y284480D01*
X48765Y283158D01*
X46895Y281289D01*
X45574Y279000D01*
X44889Y276446D01*
Y273802D01*
X45574Y271249D01*
X46895Y268960D01*
X48765Y267090D01*
X51054Y265768D01*
X53608Y265084D01*
X56251D01*
X58805Y265768D01*
X61094Y267090D01*
X62963Y268960D01*
X64285Y271249D01*
X64969Y273802D01*
Y276446D01*
X64285Y279000D01*
X62963Y281289D01*
X61094Y283158D01*
X58805Y284480D01*
X56251Y285164D01*
D02*
G37*
G36*
X30851D02*
X28207D01*
X25654Y284480D01*
X23365Y283158D01*
X21495Y281289D01*
X20173Y279000D01*
X19489Y276446D01*
Y273802D01*
X20173Y271249D01*
X21495Y268960D01*
X23365Y267090D01*
X25654Y265768D01*
X28207Y265084D01*
X30851D01*
X33405Y265768D01*
X35694Y267090D01*
X37563Y268960D01*
X38885Y271249D01*
X39569Y273802D01*
Y276446D01*
X38885Y279000D01*
X37563Y281289D01*
X35694Y283158D01*
X33405Y284480D01*
X30851Y285164D01*
D02*
G37*
G36*
X311538Y280296D02*
X291458D01*
Y265904D01*
X288402Y262848D01*
X149069D01*
X147723Y263406D01*
X145901D01*
X144218Y262709D01*
X142929Y261420D01*
X142232Y259737D01*
Y257915D01*
X142929Y256232D01*
X143437Y255724D01*
Y147320D01*
X143694Y146028D01*
X144426Y144934D01*
X160200Y129160D01*
X161078Y124025D01*
X159789Y122736D01*
X159092Y121053D01*
Y119231D01*
X159789Y117548D01*
X159947Y117390D01*
Y99696D01*
X157136Y96884D01*
X156404Y95789D01*
X156147Y94498D01*
Y69820D01*
X148562D01*
Y70320D01*
X145792D01*
Y61780D01*
Y53240D01*
X146570D01*
X146594Y53117D01*
X147326Y52023D01*
X154105Y45243D01*
Y30919D01*
X149096Y27315D01*
X148264Y27377D01*
X147374Y28267D01*
X145691Y28964D01*
X143869D01*
X141262Y33383D01*
Y41910D01*
X126492D01*
Y25640D01*
X139970D01*
X140200Y25295D01*
Y23473D01*
X140897Y21790D01*
X142186Y20501D01*
X143869Y19804D01*
X143900D01*
X145048Y18656D01*
X145524Y17944D01*
X147320Y16148D01*
X148415Y15416D01*
X149706Y15159D01*
X159903D01*
X161195Y15416D01*
X162290Y16148D01*
X166716Y20575D01*
X166966Y20948D01*
X167586Y21009D01*
X169269Y20312D01*
X171091D01*
X172774Y21009D01*
X173607Y21842D01*
X177039Y21970D01*
X179322Y21719D01*
X180286Y20755D01*
X181969Y20058D01*
X183791D01*
X185474Y20755D01*
X186763Y22044D01*
X187460Y23727D01*
Y25549D01*
X186763Y27232D01*
X186255Y27740D01*
Y46982D01*
X191335Y49874D01*
X192782Y49015D01*
Y44450D01*
X207552D01*
Y60720D01*
X203817D01*
X203446Y61007D01*
X200668Y65383D01*
Y67205D01*
X199971Y68888D01*
X198682Y70177D01*
X197336Y70735D01*
X193774Y74296D01*
Y98698D01*
X194701Y99626D01*
X195573Y100931D01*
X195879Y102470D01*
Y107842D01*
X195573Y109381D01*
X194701Y110686D01*
X193774Y111614D01*
Y194071D01*
X194332Y195417D01*
Y197239D01*
X193634Y198923D01*
X192346Y200211D01*
X190663Y200908D01*
X188841D01*
X186255Y200714D01*
X184966Y202003D01*
X183283Y202700D01*
X181461D01*
X179778Y202003D01*
X178489Y200714D01*
X177792Y199031D01*
Y197209D01*
X178489Y195526D01*
X178997Y195018D01*
Y165608D01*
Y144315D01*
X173917Y142210D01*
X157242Y158885D01*
Y159604D01*
X156545Y161287D01*
X155256Y162575D01*
X153573Y163273D01*
X151751D01*
X150187Y164318D01*
Y254804D01*
X289323D01*
X292217Y250616D01*
X290242Y246835D01*
X242717D01*
X241957Y247150D01*
X240135D01*
X238452Y246453D01*
X237163Y245164D01*
X236466Y243481D01*
Y241659D01*
X237163Y239976D01*
X238452Y238687D01*
X240135Y237990D01*
X241957D01*
X243640Y238687D01*
X243744Y238791D01*
X293407D01*
X293464Y238691D01*
X295333Y236822D01*
X297623Y235500D01*
X300176Y234816D01*
X302820D01*
X305373Y235500D01*
X307663Y236822D01*
X309532Y238691D01*
X310854Y240981D01*
X311538Y243534D01*
Y246178D01*
X310854Y248731D01*
X309532Y251021D01*
X307663Y252890D01*
X305373Y254212D01*
X303380Y254746D01*
X302559Y255384D01*
X300134Y259926D01*
X300491Y260216D01*
X311538D01*
Y280296D01*
D02*
G37*
G36*
X302820Y229496D02*
X300176D01*
X297623Y228812D01*
X295333Y227490D01*
X293464Y225621D01*
X292142Y223331D01*
X291462Y220794D01*
X290225Y219968D01*
X266142Y195884D01*
X265270Y194579D01*
X264964Y193040D01*
Y190873D01*
X261261Y186952D01*
X259439D01*
X257756Y186255D01*
X256467Y184966D01*
X256264Y184477D01*
X239830D01*
X239322Y184985D01*
X237639Y185682D01*
X235817D01*
X234134Y184985D01*
X232845Y183696D01*
X232148Y182013D01*
Y180191D01*
X228078Y176742D01*
X221849D01*
X220502Y177300D01*
X218680D01*
X216997Y176603D01*
X211921Y178436D01*
Y209377D01*
X212352Y210417D01*
Y212239D01*
X211655Y213922D01*
X210366Y215211D01*
X208683Y215908D01*
X206861D01*
X205178Y215211D01*
X203889Y213922D01*
X203192Y212239D01*
Y210417D01*
X203877Y208764D01*
Y106091D01*
X203446Y105051D01*
Y103229D01*
X204143Y101546D01*
X205432Y100257D01*
X207115Y99560D01*
X208937D01*
X210620Y100257D01*
X211909Y101546D01*
X212606Y103229D01*
Y105051D01*
X211921Y106704D01*
Y167004D01*
X216997Y168837D01*
X218680Y168140D01*
X220502D01*
X221849Y168698D01*
X266754D01*
X268293Y169004D01*
X269598Y169876D01*
X271830Y172108D01*
X272702Y173413D01*
X273008Y174952D01*
Y191374D01*
X294195Y212561D01*
X295333Y211422D01*
X297623Y210100D01*
X300176Y209416D01*
X302820D01*
X305373Y210100D01*
X307663Y211422D01*
X309532Y213291D01*
X310854Y215581D01*
X311538Y218134D01*
Y220778D01*
X310854Y223331D01*
X309532Y225621D01*
X307663Y227490D01*
X305373Y228812D01*
X302820Y229496D01*
D02*
G37*
G36*
X29196Y152916D02*
X26684D01*
X24258Y152266D01*
X22082Y151010D01*
X20306Y149234D01*
X19050Y147058D01*
X18400Y144632D01*
Y142120D01*
X19050Y139694D01*
X20306Y137518D01*
X22082Y135742D01*
X24258Y134486D01*
X26684Y133836D01*
X29196D01*
X31622Y134486D01*
X33798Y135742D01*
X35574Y137518D01*
X36830Y139694D01*
X37480Y142120D01*
Y144632D01*
X36830Y147058D01*
X35574Y149234D01*
X33798Y151010D01*
X31622Y152266D01*
X29196Y152916D01*
D02*
G37*
G36*
X224862Y60720D02*
X210092D01*
Y44450D01*
X224862D01*
Y60720D01*
D02*
G37*
G36*
X129181Y185936D02*
X127359D01*
X125676Y185239D01*
X124387Y183950D01*
X123829Y182604D01*
X121616Y180390D01*
X120744Y179085D01*
X120438Y177546D01*
Y69822D01*
X119880Y68475D01*
Y66653D01*
X120233Y65800D01*
X118953Y62617D01*
X117643Y60720D01*
X109182D01*
Y44450D01*
X141262D01*
Y53240D01*
X143252D01*
Y61780D01*
Y70320D01*
X140482D01*
Y60720D01*
X131277D01*
X129967Y62617D01*
X128687Y65800D01*
X129040Y66653D01*
Y68475D01*
X128482Y69822D01*
Y175880D01*
X129518Y176915D01*
X130864Y177473D01*
X132153Y178762D01*
X132850Y180445D01*
Y182267D01*
X132153Y183950D01*
X130864Y185239D01*
X129181Y185936D01*
D02*
G37*
G36*
X30024Y35186D02*
X29972D01*
Y26416D01*
X38742D01*
Y26468D01*
X38058Y29021D01*
X36736Y31311D01*
X34867Y33180D01*
X32577Y34502D01*
X30024Y35186D01*
D02*
G37*
G36*
X27432D02*
X27380D01*
X24827Y34502D01*
X22537Y33180D01*
X20668Y31311D01*
X19346Y29021D01*
X18662Y26468D01*
Y26416D01*
X27432D01*
Y35186D01*
D02*
G37*
G36*
X224862Y41910D02*
X210092D01*
Y25640D01*
X224862D01*
Y41910D01*
D02*
G37*
G36*
X207552D02*
X192782D01*
Y25640D01*
X207552D01*
Y41910D01*
D02*
G37*
G36*
X123952D02*
X109182D01*
Y25640D01*
X123952D01*
Y41910D01*
D02*
G37*
G36*
X38742Y23876D02*
X29972D01*
Y15106D01*
X30024D01*
X32577Y15790D01*
X34867Y17112D01*
X36736Y18981D01*
X38058Y21271D01*
X38742Y23824D01*
Y23876D01*
D02*
G37*
G36*
X27432D02*
X18662D01*
Y23824D01*
X19346Y21271D01*
X20668Y18981D01*
X22537Y17112D01*
X24827Y15790D01*
X27380Y15106D01*
X27432D01*
Y23876D01*
D02*
G37*
%LPD*%
D14*
X152662Y158693D02*
X174522Y136833D01*
Y61780D02*
Y136833D01*
X169522Y61780D02*
Y124610D01*
X146812Y147320D02*
Y258826D01*
Y147320D02*
X169522Y124610D01*
X185372Y104469D02*
Y105156D01*
X184522Y103619D02*
X185372Y104469D01*
X184522Y61780D02*
Y103619D01*
X157480Y24384D02*
Y46641D01*
X132566Y67586D02*
Y72158D01*
X132080Y72644D02*
X132566Y72158D01*
Y67586D02*
X133858Y66294D01*
X144292D01*
X144522Y66064D01*
Y61780D02*
Y66064D01*
X163322Y98298D02*
Y119792D01*
X163672Y120142D01*
X159522Y94498D02*
X163322Y98298D01*
X159522Y61780D02*
Y94498D01*
X149706Y18534D02*
X159903D01*
X144780Y23697D02*
X147910Y20566D01*
Y20330D02*
X149706Y18534D01*
X144780Y23697D02*
Y24384D01*
X147910Y20330D02*
Y20566D01*
X164330Y22961D02*
Y27315D01*
X159903Y18534D02*
X164330Y22961D01*
Y27315D02*
X164522Y27507D01*
Y61780D01*
X149712Y54409D02*
X157480Y46641D01*
X149712Y54409D02*
Y57050D01*
X149522Y57240D02*
X149712Y57050D01*
X149522Y57240D02*
Y61780D01*
X169522D02*
X169712Y61590D01*
Y25360D02*
Y61590D01*
Y25360D02*
X170180Y24892D01*
X182372Y113588D02*
Y165608D01*
X179522Y110738D02*
X182372Y113588D01*
Y165608D02*
Y198120D01*
X194453Y65346D02*
X195401Y66294D01*
X196088D01*
X189522Y61780D02*
Y65116D01*
X189752Y65346D01*
X194453D01*
X179522Y61780D02*
X179712Y61590D01*
Y54409D02*
X182880Y51241D01*
X179712Y54409D02*
Y61590D01*
X182880Y24638D02*
Y51241D01*
X179522Y61780D02*
Y110738D01*
X259663Y182372D02*
X260350D01*
X236728Y181102D02*
X258393D01*
X259663Y182372D01*
D19*
X50546Y359316D02*
D03*
X75946D02*
D03*
X101346D02*
D03*
X126746D02*
D03*
X152146D02*
D03*
X177546D02*
D03*
X202946D02*
D03*
X228346D02*
D03*
X253746D02*
D03*
X279146D02*
D03*
D35*
X189752Y109948D02*
X191857Y107842D01*
X189752Y109948D02*
Y196328D01*
Y72630D02*
X196088Y66294D01*
X189752Y72630D02*
Y100364D01*
X191857Y102470D02*
Y107842D01*
X189752Y100364D02*
X191857Y102470D01*
X124460Y67564D02*
Y177546D01*
X207899Y104267D02*
Y211201D01*
X207772Y211328D02*
X207899Y211201D01*
Y104267D02*
X208026Y104140D01*
X219591Y172720D02*
X266754D01*
X268986Y174952D01*
Y193040D02*
X293069Y217124D01*
X268986Y174952D02*
Y193040D01*
X293069Y217124D02*
X299165D01*
X301498Y219456D01*
X249296Y275124D02*
X250111Y274309D01*
X252487D01*
X252730Y274066D01*
X80329Y275124D02*
X249296D01*
X146812Y258826D02*
X290068D01*
X301498Y270256D01*
X241289Y242813D02*
X299455D01*
X241046Y242570D02*
X241289Y242813D01*
X299455D02*
X301498Y244856D01*
X124460Y177546D02*
X128270Y181356D01*
D37*
X28702Y25146D02*
D03*
X27940Y143376D02*
D03*
D38*
X29529Y275124D02*
D03*
X54929D02*
D03*
X301498Y244856D02*
D03*
Y219456D02*
D03*
D39*
X80329Y275124D02*
D03*
D40*
X301498Y270256D02*
D03*
D41*
X152662Y158693D02*
D03*
X185372Y105156D02*
D03*
X157480Y24384D02*
D03*
X132080Y72644D02*
D03*
X163672Y120142D02*
D03*
X124460Y67564D02*
D03*
X144780Y24384D02*
D03*
X207772Y211328D02*
D03*
X208026Y104140D02*
D03*
X170180Y24892D02*
D03*
X182880Y24638D02*
D03*
X137000Y148800D02*
D03*
X314800Y352000D02*
D03*
X289400D02*
D03*
X276700Y326600D02*
D03*
X289400Y301200D02*
D03*
X276700Y275800D02*
D03*
X289400Y250400D02*
D03*
X276700Y225000D02*
D03*
X264000Y352000D02*
D03*
Y301200D02*
D03*
Y250400D02*
D03*
X238600Y352000D02*
D03*
Y301200D02*
D03*
X225900Y225000D02*
D03*
X213200Y352000D02*
D03*
Y301200D02*
D03*
Y250400D02*
D03*
X187800Y352000D02*
D03*
X162400D02*
D03*
Y250400D02*
D03*
X137000Y352000D02*
D03*
Y250400D02*
D03*
X111600Y352000D02*
D03*
Y301200D02*
D03*
Y250400D02*
D03*
Y199600D02*
D03*
X98900Y123400D02*
D03*
X111600Y47200D02*
D03*
X86200Y352000D02*
D03*
Y250400D02*
D03*
X73500Y225000D02*
D03*
X86200Y199600D02*
D03*
X73500Y174200D02*
D03*
X86200Y148800D02*
D03*
X73500Y123400D02*
D03*
X86200Y98000D02*
D03*
X73500Y72600D02*
D03*
X86200Y47200D02*
D03*
X73500Y21800D02*
D03*
X60800Y352000D02*
D03*
Y301200D02*
D03*
X48100Y72600D02*
D03*
Y21800D02*
D03*
X35400Y352000D02*
D03*
X22700Y326600D02*
D03*
X35400Y301200D02*
D03*
X22700Y123400D02*
D03*
X35400Y98000D02*
D03*
X22700Y72600D02*
D03*
X35400Y47200D02*
D03*
X189752Y196328D02*
D03*
X260350Y182372D02*
D03*
X182372Y198120D02*
D03*
X219591Y172720D02*
D03*
X236728Y181102D02*
D03*
X252730Y274066D02*
D03*
X146812Y258826D02*
D03*
X241046Y242570D02*
D03*
X196088Y66294D02*
D03*
X128270Y181356D02*
D03*
D42*
X125222Y43180D02*
D03*
X208822D02*
D03*
D43*
X169522Y61780D02*
D03*
X174522D02*
D03*
X179522D02*
D03*
X184522D02*
D03*
X189522D02*
D03*
X164522D02*
D03*
X159522D02*
D03*
X154522D02*
D03*
X149522D02*
D03*
X144522D02*
D03*
M02*
