G04*
G04 #@! TF.GenerationSoftware,Altium Limited,Altium Designer,23.9.2 (47)*
G04*
G04 Layer_Color=65535*
%FSLAX44Y44*%
%MOMM*%
G71*
G04*
G04 #@! TF.SameCoordinates,A97D38AF-4598-4E32-B0B2-6C7805A74480*
G04*
G04*
G04 #@! TF.FilePolarity,Positive*
G04*
G01*
G75*
%ADD10C,0.2000*%
%ADD11C,0.1000*%
G36*
X368820Y235456D02*
X367641D01*
Y242959D01*
X367627Y242945D01*
X367558Y242890D01*
X367475Y242807D01*
X367336Y242710D01*
X367183Y242585D01*
X366989Y242446D01*
X366768Y242293D01*
X366518Y242141D01*
X366504D01*
X366490Y242127D01*
X366407Y242072D01*
X366268Y242002D01*
X366102Y241919D01*
X365908Y241822D01*
X365700Y241725D01*
X365492Y241628D01*
X365284Y241545D01*
Y242682D01*
X365297D01*
X365325Y242710D01*
X365381Y242724D01*
X365450Y242765D01*
X365533Y242807D01*
X365630Y242862D01*
X365866Y243001D01*
X366143Y243153D01*
X366421Y243347D01*
X366712Y243569D01*
X367003Y243805D01*
X367017Y243819D01*
X367031Y243833D01*
X367073Y243874D01*
X367128Y243916D01*
X367253Y244055D01*
X367419Y244221D01*
X367586Y244415D01*
X367766Y244637D01*
X367919Y244859D01*
X368057Y245095D01*
X368820D01*
Y235456D01*
D02*
G37*
G36*
X375172Y245081D02*
X375283Y245067D01*
X375407Y245053D01*
X375546Y245040D01*
X375685Y244998D01*
X376018Y244915D01*
X376351Y244790D01*
X376517Y244707D01*
X376683Y244610D01*
X376836Y244485D01*
X376988Y244360D01*
X377002Y244346D01*
X377016Y244332D01*
X377058Y244291D01*
X377113Y244235D01*
X377169Y244152D01*
X377238Y244069D01*
X377377Y243861D01*
X377515Y243597D01*
X377640Y243292D01*
X377737Y242945D01*
X377751Y242765D01*
X377765Y242571D01*
Y242557D01*
Y242543D01*
Y242460D01*
X377751Y242335D01*
X377724Y242183D01*
X377682Y241988D01*
X377613Y241794D01*
X377529Y241600D01*
X377405Y241406D01*
X377391Y241378D01*
X377335Y241323D01*
X377252Y241239D01*
X377141Y241129D01*
X376988Y241004D01*
X376808Y240879D01*
X376600Y240754D01*
X376351Y240643D01*
X376364D01*
X376392Y240629D01*
X376434Y240616D01*
X376489Y240588D01*
X376656Y240518D01*
X376850Y240421D01*
X377058Y240283D01*
X377280Y240130D01*
X377488Y239936D01*
X377682Y239714D01*
Y239700D01*
X377696Y239686D01*
X377751Y239603D01*
X377835Y239464D01*
X377918Y239284D01*
X378001Y239062D01*
X378084Y238799D01*
X378140Y238507D01*
X378153Y238188D01*
Y238175D01*
Y238133D01*
Y238064D01*
X378140Y237980D01*
X378126Y237883D01*
X378112Y237759D01*
X378084Y237620D01*
X378042Y237467D01*
X377945Y237148D01*
X377876Y236968D01*
X377779Y236802D01*
X377682Y236621D01*
X377571Y236455D01*
X377432Y236289D01*
X377280Y236122D01*
X377266Y236108D01*
X377238Y236080D01*
X377197Y236039D01*
X377127Y235997D01*
X377030Y235928D01*
X376933Y235859D01*
X376808Y235789D01*
X376670Y235706D01*
X376517Y235623D01*
X376337Y235553D01*
X376143Y235484D01*
X375948Y235415D01*
X375727Y235373D01*
X375491Y235332D01*
X375255Y235304D01*
X374991Y235290D01*
X374853D01*
X374756Y235304D01*
X374631Y235318D01*
X374492Y235332D01*
X374340Y235359D01*
X374173Y235401D01*
X373799Y235498D01*
X373605Y235567D01*
X373424Y235637D01*
X373230Y235734D01*
X373036Y235845D01*
X372856Y235970D01*
X372689Y236122D01*
X372675Y236136D01*
X372648Y236164D01*
X372606Y236205D01*
X372551Y236275D01*
X372495Y236358D01*
X372412Y236455D01*
X372343Y236566D01*
X372259Y236705D01*
X372176Y236843D01*
X372107Y237010D01*
X371968Y237356D01*
X371913Y237564D01*
X371871Y237772D01*
X371843Y237994D01*
X371829Y238216D01*
Y238230D01*
Y238258D01*
Y238313D01*
X371843Y238369D01*
Y238452D01*
X371857Y238549D01*
X371885Y238771D01*
X371940Y239021D01*
X372024Y239270D01*
X372148Y239534D01*
X372301Y239783D01*
Y239797D01*
X372329Y239811D01*
X372384Y239880D01*
X372495Y239991D01*
X372648Y240130D01*
X372842Y240269D01*
X373078Y240421D01*
X373341Y240546D01*
X373660Y240643D01*
X373646D01*
X373632Y240657D01*
X373591Y240671D01*
X373535Y240699D01*
X373410Y240754D01*
X373244Y240837D01*
X373064Y240948D01*
X372883Y241087D01*
X372717Y241239D01*
X372565Y241406D01*
X372551Y241434D01*
X372509Y241489D01*
X372453Y241600D01*
X372398Y241739D01*
X372329Y241919D01*
X372273Y242127D01*
X372232Y242363D01*
X372218Y242612D01*
Y242626D01*
Y242654D01*
Y242710D01*
X372232Y242793D01*
X372245Y242876D01*
X372259Y242987D01*
X372315Y243223D01*
X372398Y243500D01*
X372537Y243791D01*
X372620Y243944D01*
X372717Y244096D01*
X372842Y244235D01*
X372967Y244374D01*
X372980Y244388D01*
X373008Y244401D01*
X373050Y244443D01*
X373105Y244485D01*
X373175Y244540D01*
X373272Y244596D01*
X373383Y244665D01*
X373494Y244734D01*
X373632Y244804D01*
X373785Y244873D01*
X373951Y244928D01*
X374132Y244984D01*
X374520Y245067D01*
X374742Y245081D01*
X374964Y245095D01*
X375089D01*
X375172Y245081D01*
D02*
G37*
G36*
X379140Y184473D02*
X379126Y184459D01*
X379098Y184432D01*
X379043Y184376D01*
X378987Y184293D01*
X378904Y184196D01*
X378793Y184085D01*
X378682Y183946D01*
X378557Y183780D01*
X378432Y183613D01*
X378280Y183419D01*
X378127Y183197D01*
X377975Y182976D01*
X377808Y182726D01*
X377642Y182462D01*
X377475Y182171D01*
X377309Y181880D01*
X377295Y181866D01*
X377267Y181811D01*
X377226Y181727D01*
X377156Y181602D01*
X377087Y181450D01*
X377004Y181284D01*
X376907Y181089D01*
X376810Y180868D01*
X376699Y180618D01*
X376574Y180368D01*
X376463Y180091D01*
X376352Y179800D01*
X376130Y179203D01*
X375922Y178565D01*
Y178552D01*
X375908Y178510D01*
X375894Y178440D01*
X375867Y178357D01*
X375839Y178246D01*
X375811Y178108D01*
X375770Y177955D01*
X375742Y177789D01*
X375700Y177595D01*
X375659Y177386D01*
X375589Y176943D01*
X375520Y176457D01*
X375478Y175930D01*
X374272D01*
Y175944D01*
Y175986D01*
Y176041D01*
X374286Y176124D01*
Y176236D01*
X374300Y176374D01*
X374313Y176527D01*
X374327Y176693D01*
X374355Y176887D01*
X374383Y177081D01*
X374424Y177317D01*
X374466Y177553D01*
X374507Y177803D01*
X374563Y178080D01*
X374702Y178649D01*
Y178662D01*
X374716Y178718D01*
X374743Y178801D01*
X374785Y178926D01*
X374827Y179065D01*
X374882Y179231D01*
X374938Y179425D01*
X375021Y179633D01*
X375104Y179869D01*
X375187Y180105D01*
X375395Y180632D01*
X375645Y181187D01*
X375922Y181741D01*
X375936Y181755D01*
X375964Y181811D01*
X376005Y181880D01*
X376061Y181991D01*
X376130Y182116D01*
X376227Y182268D01*
X376324Y182435D01*
X376435Y182615D01*
X376699Y183017D01*
X376976Y183433D01*
X377295Y183863D01*
X377628Y184265D01*
X372926D01*
Y185403D01*
X379140D01*
Y184473D01*
D02*
G37*
G36*
X369820Y175930D02*
X368641D01*
Y183433D01*
X368627Y183419D01*
X368558Y183364D01*
X368475Y183281D01*
X368336Y183183D01*
X368184Y183059D01*
X367989Y182920D01*
X367767Y182768D01*
X367518Y182615D01*
X367504D01*
X367490Y182601D01*
X367407Y182546D01*
X367268Y182476D01*
X367102Y182393D01*
X366908Y182296D01*
X366700Y182199D01*
X366492Y182102D01*
X366284Y182019D01*
Y183156D01*
X366297D01*
X366325Y183183D01*
X366381Y183197D01*
X366450Y183239D01*
X366533Y183281D01*
X366630Y183336D01*
X366866Y183475D01*
X367143Y183627D01*
X367421Y183822D01*
X367712Y184043D01*
X368003Y184279D01*
X368017Y184293D01*
X368031Y184307D01*
X368073Y184349D01*
X368128Y184390D01*
X368253Y184529D01*
X368419Y184695D01*
X368586Y184889D01*
X368766Y185111D01*
X368919Y185333D01*
X369057Y185569D01*
X369820D01*
Y175930D01*
D02*
G37*
G36*
X348935Y245081D02*
X349032D01*
X349143Y245067D01*
X349407Y245012D01*
X349698Y244942D01*
X350003Y244832D01*
X350308Y244665D01*
X350461Y244568D01*
X350600Y244457D01*
X350613Y244443D01*
X350627Y244429D01*
X350669Y244388D01*
X350710Y244346D01*
X350780Y244277D01*
X350835Y244193D01*
X350988Y243999D01*
X351140Y243750D01*
X351279Y243445D01*
X351404Y243098D01*
X351487Y242710D01*
X350308Y242612D01*
Y242626D01*
X350294Y242640D01*
X350280Y242724D01*
X350239Y242848D01*
X350183Y243001D01*
X350128Y243167D01*
X350045Y243334D01*
X349948Y243486D01*
X349851Y243611D01*
X349823Y243639D01*
X349767Y243694D01*
X349670Y243778D01*
X349532Y243874D01*
X349351Y243958D01*
X349157Y244041D01*
X348921Y244096D01*
X348672Y244124D01*
X348575D01*
X348464Y244110D01*
X348339Y244083D01*
X348172Y244041D01*
X348006Y243986D01*
X347840Y243916D01*
X347673Y243805D01*
X347645Y243791D01*
X347576Y243736D01*
X347479Y243639D01*
X347354Y243500D01*
X347216Y243334D01*
X347063Y243139D01*
X346924Y242890D01*
X346786Y242612D01*
Y242599D01*
X346772Y242571D01*
X346758Y242529D01*
X346730Y242474D01*
X346716Y242391D01*
X346689Y242293D01*
X346661Y242183D01*
X346633Y242044D01*
X346591Y241891D01*
X346564Y241725D01*
X346536Y241545D01*
X346522Y241350D01*
X346494Y241129D01*
X346481Y240907D01*
X346467Y240657D01*
Y240407D01*
X346481Y240421D01*
X346536Y240504D01*
X346633Y240616D01*
X346758Y240754D01*
X346897Y240921D01*
X347077Y241073D01*
X347271Y241226D01*
X347493Y241364D01*
X347507D01*
X347521Y241378D01*
X347604Y241420D01*
X347729Y241461D01*
X347895Y241531D01*
X348089Y241586D01*
X348311Y241628D01*
X348547Y241670D01*
X348797Y241683D01*
X348908D01*
X348991Y241670D01*
X349102Y241656D01*
X349213Y241642D01*
X349351Y241614D01*
X349490Y241572D01*
X349809Y241475D01*
X349975Y241406D01*
X350142Y241309D01*
X350308Y241212D01*
X350489Y241101D01*
X350655Y240962D01*
X350807Y240810D01*
X350821Y240796D01*
X350849Y240768D01*
X350891Y240726D01*
X350932Y240657D01*
X351002Y240560D01*
X351071Y240463D01*
X351140Y240338D01*
X351224Y240199D01*
X351307Y240047D01*
X351376Y239880D01*
X351445Y239686D01*
X351515Y239492D01*
X351556Y239284D01*
X351598Y239048D01*
X351626Y238813D01*
X351640Y238563D01*
Y238549D01*
Y238521D01*
Y238480D01*
Y238410D01*
X351626Y238327D01*
Y238244D01*
X351584Y238022D01*
X351543Y237759D01*
X351473Y237481D01*
X351376Y237176D01*
X351237Y236885D01*
Y236871D01*
X351224Y236857D01*
X351196Y236815D01*
X351168Y236760D01*
X351085Y236621D01*
X350960Y236441D01*
X350807Y236247D01*
X350627Y236053D01*
X350405Y235859D01*
X350170Y235692D01*
X350156D01*
X350142Y235678D01*
X350100Y235651D01*
X350045Y235637D01*
X349906Y235567D01*
X349726Y235498D01*
X349490Y235415D01*
X349226Y235359D01*
X348935Y235304D01*
X348616Y235290D01*
X348547D01*
X348478Y235304D01*
X348367D01*
X348242Y235318D01*
X348103Y235345D01*
X347937Y235387D01*
X347770Y235429D01*
X347576Y235484D01*
X347382Y235553D01*
X347188Y235637D01*
X346980Y235748D01*
X346786Y235872D01*
X346591Y236011D01*
X346397Y236178D01*
X346217Y236372D01*
X346203Y236386D01*
X346175Y236427D01*
X346134Y236483D01*
X346078Y236580D01*
X345995Y236705D01*
X345926Y236843D01*
X345843Y237024D01*
X345759Y237218D01*
X345662Y237453D01*
X345579Y237717D01*
X345510Y238008D01*
X345440Y238327D01*
X345371Y238688D01*
X345330Y239076D01*
X345302Y239492D01*
X345288Y239936D01*
Y239950D01*
Y239964D01*
Y240005D01*
Y240061D01*
X345302Y240199D01*
Y240394D01*
X345316Y240616D01*
X345343Y240879D01*
X345371Y241170D01*
X345413Y241489D01*
X345468Y241808D01*
X345537Y242155D01*
X345621Y242488D01*
X345718Y242820D01*
X345843Y243139D01*
X345981Y243445D01*
X346134Y243736D01*
X346314Y243986D01*
X346328Y243999D01*
X346356Y244027D01*
X346411Y244083D01*
X346481Y244166D01*
X346564Y244249D01*
X346675Y244332D01*
X346813Y244443D01*
X346952Y244540D01*
X347118Y244637D01*
X347299Y244748D01*
X347507Y244832D01*
X347715Y244928D01*
X347951Y244998D01*
X348200Y245053D01*
X348464Y245081D01*
X348741Y245095D01*
X348852D01*
X348935Y245081D01*
D02*
G37*
G36*
X342320Y235456D02*
X341141D01*
Y242959D01*
X341127Y242945D01*
X341058Y242890D01*
X340975Y242807D01*
X340836Y242710D01*
X340684Y242585D01*
X340489Y242446D01*
X340267Y242293D01*
X340018Y242141D01*
X340004D01*
X339990Y242127D01*
X339907Y242072D01*
X339768Y242002D01*
X339602Y241919D01*
X339408Y241822D01*
X339200Y241725D01*
X338992Y241628D01*
X338784Y241545D01*
Y242682D01*
X338797D01*
X338825Y242710D01*
X338881Y242724D01*
X338950Y242765D01*
X339033Y242807D01*
X339130Y242862D01*
X339366Y243001D01*
X339643Y243153D01*
X339921Y243347D01*
X340212Y243569D01*
X340503Y243805D01*
X340517Y243819D01*
X340531Y243833D01*
X340573Y243874D01*
X340628Y243916D01*
X340753Y244055D01*
X340919Y244221D01*
X341086Y244415D01*
X341266Y244637D01*
X341419Y244859D01*
X341557Y245095D01*
X342320D01*
Y235456D01*
D02*
G37*
G36*
X354751Y184446D02*
X350910D01*
X350397Y181852D01*
X350410Y181866D01*
X350438Y181880D01*
X350480Y181908D01*
X350549Y181949D01*
X350632Y181991D01*
X350729Y182046D01*
X350951Y182157D01*
X351229Y182268D01*
X351534Y182365D01*
X351867Y182435D01*
X352033Y182462D01*
X352338D01*
X352421Y182449D01*
X352532Y182435D01*
X352657Y182421D01*
X352796Y182393D01*
X352948Y182351D01*
X353281Y182254D01*
X353461Y182185D01*
X353642Y182088D01*
X353822Y181991D01*
X354002Y181880D01*
X354169Y181741D01*
X354335Y181589D01*
X354349Y181575D01*
X354377Y181547D01*
X354418Y181506D01*
X354474Y181436D01*
X354543Y181339D01*
X354613Y181242D01*
X354696Y181117D01*
X354779Y180979D01*
X354848Y180826D01*
X354932Y180660D01*
X355001Y180465D01*
X355070Y180271D01*
X355126Y180063D01*
X355167Y179827D01*
X355195Y179592D01*
X355209Y179342D01*
Y179328D01*
Y179286D01*
Y179217D01*
X355195Y179120D01*
X355181Y179009D01*
X355167Y178884D01*
X355140Y178732D01*
X355112Y178579D01*
X355029Y178219D01*
X354890Y177844D01*
X354807Y177650D01*
X354696Y177470D01*
X354585Y177276D01*
X354446Y177095D01*
X354432Y177081D01*
X354405Y177040D01*
X354349Y176984D01*
X354280Y176915D01*
X354183Y176832D01*
X354072Y176721D01*
X353933Y176624D01*
X353781Y176513D01*
X353614Y176402D01*
X353420Y176305D01*
X353212Y176208D01*
X352990Y176111D01*
X352754Y176041D01*
X352491Y175986D01*
X352213Y175944D01*
X351922Y175930D01*
X351797D01*
X351700Y175944D01*
X351589Y175958D01*
X351465Y175972D01*
X351312Y175986D01*
X351159Y176027D01*
X350813Y176111D01*
X350466Y176236D01*
X350286Y176319D01*
X350105Y176416D01*
X349939Y176527D01*
X349772Y176651D01*
X349759Y176665D01*
X349731Y176679D01*
X349703Y176735D01*
X349648Y176790D01*
X349578Y176859D01*
X349509Y176943D01*
X349426Y177054D01*
X349356Y177178D01*
X349273Y177303D01*
X349190Y177456D01*
X349038Y177789D01*
X348913Y178177D01*
X348871Y178385D01*
X348843Y178607D01*
X350078Y178704D01*
Y178690D01*
Y178662D01*
X350092Y178621D01*
X350105Y178552D01*
X350147Y178399D01*
X350202Y178191D01*
X350286Y177983D01*
X350397Y177747D01*
X350535Y177539D01*
X350702Y177345D01*
X350729Y177331D01*
X350785Y177276D01*
X350896Y177206D01*
X351048Y177123D01*
X351215Y177040D01*
X351423Y176971D01*
X351659Y176915D01*
X351922Y176901D01*
X352005D01*
X352061Y176915D01*
X352227Y176929D01*
X352421Y176984D01*
X352657Y177054D01*
X352893Y177165D01*
X353143Y177331D01*
X353254Y177428D01*
X353364Y177539D01*
X353378Y177553D01*
X353392Y177567D01*
X353420Y177608D01*
X353461Y177650D01*
X353559Y177803D01*
X353670Y177997D01*
X353767Y178232D01*
X353864Y178524D01*
X353933Y178871D01*
X353961Y179051D01*
Y179245D01*
Y179259D01*
Y179286D01*
Y179342D01*
X353947Y179411D01*
Y179494D01*
X353933Y179592D01*
X353891Y179813D01*
X353822Y180077D01*
X353725Y180340D01*
X353586Y180590D01*
X353392Y180826D01*
Y180840D01*
X353364Y180854D01*
X353295Y180923D01*
X353170Y181020D01*
X353004Y181131D01*
X352782Y181228D01*
X352532Y181325D01*
X352241Y181395D01*
X352075Y181422D01*
X351811D01*
X351700Y181408D01*
X351562Y181395D01*
X351395Y181353D01*
X351229Y181311D01*
X351048Y181242D01*
X350868Y181159D01*
X350854Y181145D01*
X350799Y181117D01*
X350716Y181048D01*
X350605Y180979D01*
X350494Y180881D01*
X350383Y180757D01*
X350258Y180632D01*
X350161Y180479D01*
X349051Y180632D01*
X349981Y185569D01*
X354751D01*
Y184446D01*
D02*
G37*
G36*
X345820Y176097D02*
X344641D01*
Y183600D01*
X344627Y183586D01*
X344558Y183530D01*
X344475Y183447D01*
X344336Y183350D01*
X344184Y183225D01*
X343989Y183086D01*
X343768Y182934D01*
X343518Y182781D01*
X343504D01*
X343490Y182768D01*
X343407Y182712D01*
X343268Y182643D01*
X343102Y182560D01*
X342908Y182462D01*
X342700Y182365D01*
X342492Y182268D01*
X342284Y182185D01*
Y183322D01*
X342298D01*
X342325Y183350D01*
X342381Y183364D01*
X342450Y183405D01*
X342533Y183447D01*
X342630Y183503D01*
X342866Y183641D01*
X343143Y183794D01*
X343421Y183988D01*
X343712Y184210D01*
X344003Y184446D01*
X344017Y184459D01*
X344031Y184473D01*
X344073Y184515D01*
X344128Y184557D01*
X344253Y184695D01*
X344419Y184862D01*
X344586Y185056D01*
X344766Y185278D01*
X344919Y185500D01*
X345057Y185735D01*
X345820D01*
Y176097D01*
D02*
G37*
G36*
X328294Y238840D02*
X329598D01*
Y237759D01*
X328294D01*
Y235456D01*
X327116D01*
Y237759D01*
X322941D01*
Y238840D01*
X327337Y245053D01*
X328294D01*
Y238840D01*
D02*
G37*
G36*
X320320Y235456D02*
X319141D01*
Y242959D01*
X319127Y242945D01*
X319058Y242890D01*
X318975Y242807D01*
X318836Y242710D01*
X318684Y242585D01*
X318489Y242446D01*
X318267Y242293D01*
X318018Y242141D01*
X318004D01*
X317990Y242127D01*
X317907Y242072D01*
X317768Y242002D01*
X317602Y241919D01*
X317408Y241822D01*
X317200Y241725D01*
X316992Y241628D01*
X316784Y241545D01*
Y242682D01*
X316798D01*
X316825Y242710D01*
X316881Y242724D01*
X316950Y242765D01*
X317033Y242807D01*
X317130Y242862D01*
X317366Y243001D01*
X317643Y243153D01*
X317921Y243347D01*
X318212Y243569D01*
X318503Y243805D01*
X318517Y243819D01*
X318531Y243833D01*
X318573Y243874D01*
X318628Y243916D01*
X318753Y244055D01*
X318919Y244221D01*
X319086Y244415D01*
X319266Y244637D01*
X319419Y244859D01*
X319557Y245095D01*
X320320D01*
Y235456D01*
D02*
G37*
G36*
X326644Y185721D02*
X326824Y185694D01*
X327046Y185652D01*
X327296Y185583D01*
X327546Y185500D01*
X327795Y185389D01*
X327809D01*
X327823Y185375D01*
X327906Y185333D01*
X328031Y185250D01*
X328170Y185153D01*
X328336Y185014D01*
X328502Y184862D01*
X328669Y184681D01*
X328807Y184473D01*
X328821Y184446D01*
X328863Y184376D01*
X328918Y184251D01*
X328988Y184099D01*
X329057Y183919D01*
X329113Y183710D01*
X329154Y183475D01*
X329168Y183239D01*
Y183211D01*
Y183128D01*
X329154Y183017D01*
X329127Y182865D01*
X329085Y182684D01*
X329016Y182490D01*
X328932Y182296D01*
X328821Y182102D01*
X328807Y182074D01*
X328766Y182019D01*
X328683Y181922D01*
X328572Y181811D01*
X328433Y181686D01*
X328267Y181547D01*
X328073Y181422D01*
X327837Y181297D01*
X327851D01*
X327878Y181284D01*
X327920Y181270D01*
X327975Y181256D01*
X328128Y181200D01*
X328322Y181117D01*
X328544Y181006D01*
X328766Y180868D01*
X328974Y180687D01*
X329168Y180479D01*
X329182Y180452D01*
X329237Y180368D01*
X329321Y180230D01*
X329404Y180049D01*
X329487Y179827D01*
X329570Y179564D01*
X329626Y179259D01*
X329640Y178926D01*
Y178912D01*
Y178871D01*
Y178801D01*
X329626Y178718D01*
X329612Y178607D01*
X329584Y178482D01*
X329556Y178344D01*
X329529Y178191D01*
X329418Y177858D01*
X329334Y177678D01*
X329251Y177511D01*
X329140Y177331D01*
X329016Y177151D01*
X328877Y176971D01*
X328710Y176804D01*
X328697Y176790D01*
X328669Y176763D01*
X328613Y176721D01*
X328544Y176665D01*
X328461Y176596D01*
X328350Y176527D01*
X328225Y176444D01*
X328073Y176374D01*
X327920Y176291D01*
X327740Y176208D01*
X327559Y176138D01*
X327351Y176069D01*
X327129Y176014D01*
X326894Y175972D01*
X326658Y175944D01*
X326394Y175930D01*
X326270D01*
X326186Y175944D01*
X326075Y175958D01*
X325951Y175972D01*
X325812Y176000D01*
X325659Y176027D01*
X325326Y176111D01*
X324980Y176249D01*
X324799Y176332D01*
X324633Y176430D01*
X324467Y176554D01*
X324300Y176679D01*
X324286Y176693D01*
X324259Y176721D01*
X324217Y176763D01*
X324175Y176818D01*
X324106Y176887D01*
X324037Y176984D01*
X323954Y177081D01*
X323870Y177206D01*
X323787Y177345D01*
X323704Y177484D01*
X323551Y177817D01*
X323427Y178205D01*
X323385Y178413D01*
X323357Y178635D01*
X324536Y178787D01*
Y178773D01*
X324550Y178746D01*
X324564Y178690D01*
X324578Y178621D01*
X324591Y178538D01*
X324619Y178440D01*
X324689Y178232D01*
X324786Y177983D01*
X324911Y177747D01*
X325049Y177525D01*
X325216Y177331D01*
X325243Y177317D01*
X325299Y177262D01*
X325410Y177192D01*
X325548Y177123D01*
X325715Y177040D01*
X325923Y176971D01*
X326159Y176915D01*
X326408Y176901D01*
X326492D01*
X326547Y176915D01*
X326699Y176929D01*
X326894Y176971D01*
X327116Y177040D01*
X327351Y177137D01*
X327587Y177276D01*
X327809Y177470D01*
X327837Y177498D01*
X327906Y177581D01*
X327989Y177705D01*
X328100Y177872D01*
X328211Y178080D01*
X328294Y178316D01*
X328364Y178593D01*
X328391Y178898D01*
Y178912D01*
Y178940D01*
Y178981D01*
X328378Y179037D01*
X328364Y179189D01*
X328322Y179370D01*
X328267Y179592D01*
X328170Y179813D01*
X328031Y180035D01*
X327851Y180243D01*
X327823Y180271D01*
X327753Y180327D01*
X327643Y180410D01*
X327490Y180507D01*
X327296Y180604D01*
X327060Y180687D01*
X326797Y180743D01*
X326505Y180770D01*
X326381D01*
X326283Y180757D01*
X326159Y180743D01*
X326020Y180715D01*
X325854Y180687D01*
X325673Y180646D01*
X325812Y181686D01*
X325881D01*
X325937Y181672D01*
X326117D01*
X326270Y181700D01*
X326450Y181727D01*
X326658Y181769D01*
X326894Y181838D01*
X327116Y181935D01*
X327351Y182060D01*
X327365D01*
X327379Y182074D01*
X327448Y182129D01*
X327546Y182227D01*
X327656Y182351D01*
X327767Y182532D01*
X327864Y182740D01*
X327934Y182976D01*
X327962Y183114D01*
Y183267D01*
Y183281D01*
Y183295D01*
Y183378D01*
X327934Y183489D01*
X327906Y183641D01*
X327851Y183808D01*
X327781Y183988D01*
X327670Y184168D01*
X327518Y184335D01*
X327504Y184349D01*
X327435Y184404D01*
X327337Y184473D01*
X327213Y184557D01*
X327046Y184626D01*
X326852Y184695D01*
X326630Y184751D01*
X326381Y184764D01*
X326270D01*
X326145Y184737D01*
X325978Y184709D01*
X325798Y184654D01*
X325618Y184584D01*
X325424Y184473D01*
X325243Y184335D01*
X325229Y184321D01*
X325174Y184251D01*
X325091Y184154D01*
X324994Y184016D01*
X324897Y183835D01*
X324799Y183613D01*
X324716Y183350D01*
X324661Y183045D01*
X323482Y183253D01*
Y183267D01*
X323496Y183308D01*
X323510Y183364D01*
X323524Y183447D01*
X323551Y183544D01*
X323593Y183655D01*
X323676Y183919D01*
X323815Y184224D01*
X323981Y184529D01*
X324189Y184820D01*
X324453Y185084D01*
X324467Y185097D01*
X324494Y185111D01*
X324536Y185139D01*
X324591Y185181D01*
X324661Y185236D01*
X324758Y185292D01*
X324855Y185347D01*
X324980Y185416D01*
X325257Y185527D01*
X325576Y185638D01*
X325951Y185708D01*
X326145Y185735D01*
X326492D01*
X326644Y185721D01*
D02*
G37*
G36*
X320320Y176097D02*
X319141D01*
Y183600D01*
X319127Y183586D01*
X319058Y183530D01*
X318975Y183447D01*
X318836Y183350D01*
X318684Y183225D01*
X318489Y183086D01*
X318267Y182934D01*
X318018Y182781D01*
X318004D01*
X317990Y182768D01*
X317907Y182712D01*
X317768Y182643D01*
X317602Y182560D01*
X317408Y182462D01*
X317200Y182365D01*
X316992Y182268D01*
X316784Y182185D01*
Y183322D01*
X316798D01*
X316825Y183350D01*
X316881Y183364D01*
X316950Y183405D01*
X317033Y183447D01*
X317130Y183503D01*
X317366Y183641D01*
X317643Y183794D01*
X317921Y183988D01*
X318212Y184210D01*
X318503Y184446D01*
X318517Y184459D01*
X318531Y184473D01*
X318573Y184515D01*
X318628Y184557D01*
X318753Y184695D01*
X318919Y184862D01*
X319086Y185056D01*
X319266Y185278D01*
X319419Y185500D01*
X319557Y185735D01*
X320320D01*
Y176097D01*
D02*
G37*
G36*
X301755Y245081D02*
X301866Y245067D01*
X302005Y245053D01*
X302157Y245026D01*
X302310Y244998D01*
X302670Y244901D01*
X303031Y244762D01*
X303211Y244679D01*
X303391Y244582D01*
X303558Y244457D01*
X303710Y244318D01*
X303724Y244305D01*
X303752Y244291D01*
X303780Y244235D01*
X303835Y244180D01*
X303904Y244110D01*
X303974Y244013D01*
X304043Y243916D01*
X304126Y243791D01*
X304265Y243528D01*
X304404Y243195D01*
X304459Y243029D01*
X304487Y242834D01*
X304515Y242640D01*
X304529Y242432D01*
Y242404D01*
Y242335D01*
X304515Y242224D01*
X304501Y242072D01*
X304473Y241905D01*
X304418Y241711D01*
X304362Y241503D01*
X304279Y241295D01*
X304265Y241267D01*
X304237Y241198D01*
X304182Y241087D01*
X304099Y240934D01*
X303988Y240768D01*
X303849Y240560D01*
X303683Y240352D01*
X303489Y240116D01*
X303461Y240089D01*
X303391Y240005D01*
X303322Y239936D01*
X303253Y239867D01*
X303169Y239783D01*
X303059Y239672D01*
X302948Y239562D01*
X302809Y239437D01*
X302670Y239298D01*
X302504Y239145D01*
X302323Y238993D01*
X302129Y238813D01*
X301908Y238632D01*
X301686Y238438D01*
X301672Y238424D01*
X301644Y238396D01*
X301588Y238355D01*
X301519Y238299D01*
X301436Y238216D01*
X301339Y238133D01*
X301117Y237953D01*
X300881Y237745D01*
X300659Y237537D01*
X300465Y237356D01*
X300382Y237287D01*
X300313Y237218D01*
X300299Y237204D01*
X300257Y237162D01*
X300202Y237107D01*
X300132Y237024D01*
X300063Y236926D01*
X299980Y236829D01*
X299813Y236594D01*
X304543D01*
Y235456D01*
X298177D01*
Y235470D01*
Y235526D01*
Y235609D01*
X298191Y235720D01*
X298205Y235845D01*
X298232Y235983D01*
X298260Y236122D01*
X298316Y236275D01*
Y236289D01*
X298329Y236302D01*
X298357Y236386D01*
X298413Y236510D01*
X298496Y236677D01*
X298607Y236871D01*
X298745Y237093D01*
X298898Y237315D01*
X299092Y237551D01*
Y237564D01*
X299120Y237578D01*
X299189Y237661D01*
X299314Y237786D01*
X299494Y237967D01*
X299702Y238175D01*
X299966Y238424D01*
X300285Y238702D01*
X300632Y238993D01*
X300645Y239007D01*
X300701Y239048D01*
X300784Y239118D01*
X300881Y239201D01*
X301006Y239312D01*
X301159Y239437D01*
X301311Y239575D01*
X301491Y239728D01*
X301838Y240061D01*
X302185Y240394D01*
X302351Y240560D01*
X302504Y240726D01*
X302642Y240879D01*
X302753Y241031D01*
Y241045D01*
X302781Y241059D01*
X302809Y241101D01*
X302837Y241156D01*
X302934Y241309D01*
X303045Y241489D01*
X303142Y241711D01*
X303239Y241947D01*
X303294Y242210D01*
X303322Y242460D01*
Y242474D01*
Y242488D01*
X303308Y242571D01*
X303294Y242710D01*
X303253Y242862D01*
X303197Y243056D01*
X303100Y243251D01*
X302975Y243445D01*
X302809Y243639D01*
X302781Y243666D01*
X302712Y243722D01*
X302615Y243791D01*
X302462Y243888D01*
X302268Y243972D01*
X302046Y244055D01*
X301783Y244110D01*
X301491Y244124D01*
X301408D01*
X301353Y244110D01*
X301186Y244096D01*
X300992Y244055D01*
X300784Y243999D01*
X300548Y243902D01*
X300326Y243778D01*
X300118Y243611D01*
X300091Y243583D01*
X300035Y243514D01*
X299952Y243403D01*
X299869Y243237D01*
X299772Y243042D01*
X299688Y242793D01*
X299633Y242515D01*
X299605Y242197D01*
X298399Y242321D01*
Y242335D01*
X298413Y242377D01*
Y242446D01*
X298426Y242543D01*
X298454Y242654D01*
X298482Y242779D01*
X298524Y242931D01*
X298565Y243084D01*
X298676Y243417D01*
X298843Y243750D01*
X298940Y243916D01*
X299065Y244083D01*
X299189Y244235D01*
X299328Y244374D01*
X299342Y244388D01*
X299370Y244401D01*
X299411Y244443D01*
X299480Y244485D01*
X299564Y244540D01*
X299661Y244596D01*
X299772Y244665D01*
X299910Y244734D01*
X300063Y244804D01*
X300229Y244873D01*
X300410Y244928D01*
X300604Y244984D01*
X300812Y245026D01*
X301034Y245067D01*
X301269Y245081D01*
X301519Y245095D01*
X301658D01*
X301755Y245081D01*
D02*
G37*
G36*
X295320Y235456D02*
X294141D01*
Y242959D01*
X294127Y242945D01*
X294058Y242890D01*
X293975Y242807D01*
X293836Y242710D01*
X293683Y242585D01*
X293489Y242446D01*
X293267Y242293D01*
X293018Y242141D01*
X293004D01*
X292990Y242127D01*
X292907Y242072D01*
X292768Y242002D01*
X292602Y241919D01*
X292408Y241822D01*
X292200Y241725D01*
X291992Y241628D01*
X291784Y241545D01*
Y242682D01*
X291797D01*
X291825Y242710D01*
X291881Y242724D01*
X291950Y242765D01*
X292033Y242807D01*
X292130Y242862D01*
X292366Y243001D01*
X292643Y243153D01*
X292921Y243347D01*
X293212Y243569D01*
X293503Y243805D01*
X293517Y243819D01*
X293531Y243833D01*
X293573Y243874D01*
X293628Y243916D01*
X293753Y244055D01*
X293919Y244221D01*
X294086Y244415D01*
X294266Y244637D01*
X294419Y244859D01*
X294557Y245095D01*
X295320D01*
Y235456D01*
D02*
G37*
G36*
X302781Y175930D02*
X301602D01*
Y183433D01*
X301589Y183419D01*
X301519Y183364D01*
X301436Y183281D01*
X301297Y183183D01*
X301145Y183059D01*
X300951Y182920D01*
X300729Y182768D01*
X300479Y182615D01*
X300465D01*
X300451Y182601D01*
X300368Y182546D01*
X300229Y182476D01*
X300063Y182393D01*
X299869Y182296D01*
X299661Y182199D01*
X299453Y182102D01*
X299245Y182019D01*
Y183156D01*
X299259D01*
X299286Y183183D01*
X299342Y183197D01*
X299411Y183239D01*
X299494Y183281D01*
X299592Y183336D01*
X299827Y183475D01*
X300105Y183627D01*
X300382Y183822D01*
X300673Y184043D01*
X300965Y184279D01*
X300978Y184293D01*
X300992Y184307D01*
X301034Y184349D01*
X301089Y184390D01*
X301214Y184529D01*
X301381Y184695D01*
X301547Y184889D01*
X301727Y185111D01*
X301880Y185333D01*
X302019Y185569D01*
X302781D01*
Y175930D01*
D02*
G37*
G36*
X295320D02*
X294141D01*
Y183433D01*
X294127Y183419D01*
X294058Y183364D01*
X293975Y183281D01*
X293836Y183183D01*
X293684Y183059D01*
X293489Y182920D01*
X293267Y182768D01*
X293018Y182615D01*
X293004D01*
X292990Y182601D01*
X292907Y182546D01*
X292768Y182476D01*
X292602Y182393D01*
X292408Y182296D01*
X292200Y182199D01*
X291992Y182102D01*
X291784Y182019D01*
Y183156D01*
X291798D01*
X291825Y183183D01*
X291881Y183197D01*
X291950Y183239D01*
X292033Y183281D01*
X292130Y183336D01*
X292366Y183475D01*
X292643Y183627D01*
X292921Y183822D01*
X293212Y184043D01*
X293503Y184279D01*
X293517Y184293D01*
X293531Y184307D01*
X293573Y184349D01*
X293628Y184390D01*
X293753Y184529D01*
X293919Y184695D01*
X294086Y184889D01*
X294266Y185111D01*
X294419Y185333D01*
X294557Y185569D01*
X295320D01*
Y175930D01*
D02*
G37*
G36*
X268461Y235456D02*
X267282D01*
Y242959D01*
X267268Y242945D01*
X267199Y242890D01*
X267115Y242807D01*
X266977Y242710D01*
X266824Y242585D01*
X266630Y242446D01*
X266408Y242293D01*
X266158Y242141D01*
X266145D01*
X266131Y242127D01*
X266047Y242072D01*
X265909Y242002D01*
X265742Y241919D01*
X265548Y241822D01*
X265340Y241725D01*
X265132Y241628D01*
X264924Y241545D01*
Y242682D01*
X264938D01*
X264966Y242710D01*
X265021Y242724D01*
X265091Y242765D01*
X265174Y242807D01*
X265271Y242862D01*
X265507Y243001D01*
X265784Y243153D01*
X266061Y243347D01*
X266353Y243569D01*
X266644Y243805D01*
X266658Y243819D01*
X266672Y243833D01*
X266713Y243874D01*
X266769Y243916D01*
X266894Y244055D01*
X267060Y244221D01*
X267226Y244415D01*
X267407Y244637D01*
X267559Y244859D01*
X267698Y245095D01*
X268461D01*
Y235456D01*
D02*
G37*
G36*
X274895Y245081D02*
X275076Y245053D01*
X275284Y245012D01*
X275506Y244956D01*
X275742Y244887D01*
X275963Y244776D01*
X275977D01*
X275991Y244762D01*
X276061Y244720D01*
X276171Y244651D01*
X276310Y244554D01*
X276463Y244415D01*
X276629Y244263D01*
X276782Y244083D01*
X276934Y243874D01*
X276948Y243847D01*
X277003Y243778D01*
X277059Y243653D01*
X277156Y243472D01*
X277239Y243264D01*
X277350Y243029D01*
X277447Y242751D01*
X277530Y242446D01*
Y242432D01*
X277544Y242404D01*
X277558Y242363D01*
X277572Y242293D01*
X277586Y242210D01*
X277600Y242113D01*
X277628Y241988D01*
X277642Y241850D01*
X277669Y241697D01*
X277683Y241531D01*
X277697Y241337D01*
X277725Y241143D01*
X277739Y240921D01*
Y240699D01*
X277752Y240449D01*
Y240186D01*
Y240172D01*
Y240116D01*
Y240019D01*
Y239908D01*
X277739Y239756D01*
Y239589D01*
X277725Y239409D01*
X277711Y239215D01*
X277669Y238771D01*
X277600Y238313D01*
X277517Y237869D01*
X277461Y237661D01*
X277392Y237453D01*
Y237440D01*
X277378Y237412D01*
X277350Y237356D01*
X277323Y237287D01*
X277295Y237190D01*
X277239Y237093D01*
X277128Y236857D01*
X276990Y236607D01*
X276809Y236330D01*
X276601Y236080D01*
X276352Y235845D01*
X276338D01*
X276324Y235817D01*
X276282Y235789D01*
X276227Y235762D01*
X276158Y235720D01*
X276088Y235665D01*
X275880Y235567D01*
X275631Y235470D01*
X275339Y235373D01*
X274993Y235318D01*
X274618Y235290D01*
X274480D01*
X274382Y235304D01*
X274272Y235318D01*
X274133Y235345D01*
X273980Y235373D01*
X273814Y235415D01*
X273647Y235470D01*
X273467Y235526D01*
X273287Y235609D01*
X273106Y235706D01*
X272926Y235817D01*
X272746Y235956D01*
X272579Y236108D01*
X272427Y236275D01*
X272413Y236289D01*
X272385Y236330D01*
X272344Y236399D01*
X272274Y236510D01*
X272205Y236635D01*
X272136Y236802D01*
X272039Y236996D01*
X271955Y237218D01*
X271872Y237467D01*
X271789Y237759D01*
X271706Y238078D01*
X271637Y238438D01*
X271567Y238826D01*
X271525Y239242D01*
X271498Y239700D01*
X271484Y240186D01*
Y240199D01*
Y240255D01*
Y240352D01*
Y240463D01*
X271498Y240616D01*
Y240782D01*
X271512Y240962D01*
X271525Y241170D01*
X271567Y241600D01*
X271637Y242058D01*
X271720Y242515D01*
X271775Y242724D01*
X271831Y242931D01*
Y242945D01*
X271845Y242973D01*
X271872Y243029D01*
X271900Y243098D01*
X271928Y243195D01*
X271983Y243292D01*
X272094Y243528D01*
X272233Y243778D01*
X272413Y244041D01*
X272621Y244305D01*
X272871Y244526D01*
X272885D01*
X272899Y244554D01*
X272940Y244582D01*
X272996Y244610D01*
X273065Y244665D01*
X273148Y244707D01*
X273356Y244818D01*
X273606Y244915D01*
X273897Y245012D01*
X274244Y245067D01*
X274618Y245095D01*
X274743D01*
X274895Y245081D01*
D02*
G37*
G36*
X271676Y185721D02*
X271745D01*
X271842Y185708D01*
X272078Y185666D01*
X272341Y185611D01*
X272633Y185513D01*
X272924Y185389D01*
X273215Y185222D01*
X273229D01*
X273243Y185194D01*
X273285Y185167D01*
X273340Y185125D01*
X273479Y185014D01*
X273659Y184862D01*
X273839Y184654D01*
X274047Y184404D01*
X274228Y184113D01*
X274394Y183780D01*
Y183766D01*
X274408Y183738D01*
X274436Y183683D01*
X274463Y183613D01*
X274491Y183516D01*
X274533Y183392D01*
X274561Y183253D01*
X274602Y183100D01*
X274644Y182920D01*
X274685Y182712D01*
X274713Y182490D01*
X274741Y182254D01*
X274769Y181991D01*
X274796Y181714D01*
X274810Y181408D01*
Y181089D01*
Y181075D01*
Y181006D01*
Y180909D01*
Y180784D01*
X274796Y180632D01*
Y180452D01*
X274782Y180243D01*
X274755Y180035D01*
X274713Y179564D01*
X274644Y179065D01*
X274547Y178593D01*
X274477Y178357D01*
X274408Y178149D01*
Y178135D01*
X274394Y178108D01*
X274366Y178052D01*
X274339Y177969D01*
X274297Y177886D01*
X274242Y177775D01*
X274103Y177539D01*
X273936Y177276D01*
X273742Y176998D01*
X273493Y176735D01*
X273215Y176499D01*
X273201D01*
X273174Y176471D01*
X273132Y176444D01*
X273077Y176416D01*
X272993Y176374D01*
X272910Y176319D01*
X272799Y176263D01*
X272688Y176222D01*
X272425Y176111D01*
X272106Y176014D01*
X271759Y175958D01*
X271371Y175930D01*
X271260D01*
X271190Y175944D01*
X271093D01*
X270982Y175958D01*
X270719Y176014D01*
X270428Y176083D01*
X270123Y176194D01*
X269818Y176346D01*
X269665Y176444D01*
X269526Y176554D01*
X269512Y176568D01*
X269499Y176582D01*
X269457Y176624D01*
X269415Y176665D01*
X269360Y176735D01*
X269291Y176818D01*
X269152Y177012D01*
X269013Y177262D01*
X268874Y177567D01*
X268764Y177913D01*
X268680Y178316D01*
X269818Y178413D01*
Y178399D01*
X269831Y178371D01*
Y178344D01*
X269845Y178288D01*
X269887Y178135D01*
X269942Y177969D01*
X270012Y177775D01*
X270109Y177581D01*
X270220Y177400D01*
X270358Y177248D01*
X270372Y177234D01*
X270428Y177192D01*
X270525Y177137D01*
X270636Y177081D01*
X270788Y177012D01*
X270969Y176957D01*
X271177Y176915D01*
X271399Y176901D01*
X271496D01*
X271593Y176915D01*
X271717Y176929D01*
X271870Y176957D01*
X272023Y176998D01*
X272189Y177054D01*
X272341Y177137D01*
X272355Y177151D01*
X272411Y177178D01*
X272494Y177234D01*
X272577Y177317D01*
X272688Y177414D01*
X272799Y177525D01*
X272910Y177650D01*
X273021Y177803D01*
X273035Y177817D01*
X273063Y177886D01*
X273118Y177983D01*
X273174Y178108D01*
X273243Y178274D01*
X273312Y178468D01*
X273382Y178690D01*
X273451Y178940D01*
Y178954D01*
X273465Y178967D01*
Y179009D01*
X273479Y179065D01*
X273507Y179203D01*
X273548Y179384D01*
X273576Y179606D01*
X273604Y179841D01*
X273617Y180105D01*
X273631Y180382D01*
Y180396D01*
Y180438D01*
Y180507D01*
Y180618D01*
X273617Y180590D01*
X273562Y180521D01*
X273479Y180424D01*
X273382Y180285D01*
X273243Y180146D01*
X273077Y179994D01*
X272882Y179841D01*
X272661Y179703D01*
X272633Y179689D01*
X272550Y179647D01*
X272425Y179592D01*
X272272Y179536D01*
X272064Y179467D01*
X271842Y179411D01*
X271593Y179370D01*
X271329Y179356D01*
X271218D01*
X271135Y179370D01*
X271024Y179384D01*
X270913Y179398D01*
X270774Y179425D01*
X270636Y179467D01*
X270317Y179564D01*
X270150Y179633D01*
X269984Y179716D01*
X269804Y179813D01*
X269637Y179938D01*
X269471Y180063D01*
X269318Y180216D01*
X269304Y180230D01*
X269277Y180257D01*
X269249Y180299D01*
X269193Y180368D01*
X269124Y180465D01*
X269055Y180562D01*
X268985Y180687D01*
X268916Y180826D01*
X268833Y180979D01*
X268764Y181145D01*
X268694Y181339D01*
X268625Y181533D01*
X268569Y181755D01*
X268542Y181991D01*
X268514Y182227D01*
X268500Y182490D01*
Y182504D01*
Y182560D01*
Y182629D01*
X268514Y182726D01*
X268528Y182851D01*
X268542Y183003D01*
X268569Y183156D01*
X268611Y183336D01*
X268708Y183697D01*
X268777Y183891D01*
X268861Y184099D01*
X268958Y184293D01*
X269083Y184473D01*
X269207Y184667D01*
X269360Y184834D01*
X269374Y184848D01*
X269401Y184876D01*
X269443Y184917D01*
X269512Y184973D01*
X269596Y185042D01*
X269706Y185125D01*
X269818Y185194D01*
X269956Y185292D01*
X270095Y185375D01*
X270261Y185444D01*
X270636Y185597D01*
X270830Y185652D01*
X271052Y185694D01*
X271274Y185721D01*
X271509Y185735D01*
X271607D01*
X271676Y185721D01*
D02*
G37*
G36*
X245267Y245081D02*
X245378Y245067D01*
X245502Y245053D01*
X245641Y245040D01*
X245780Y244998D01*
X246113Y244915D01*
X246446Y244790D01*
X246612Y244707D01*
X246778Y244610D01*
X246931Y244485D01*
X247083Y244360D01*
X247097Y244346D01*
X247111Y244332D01*
X247153Y244291D01*
X247208Y244235D01*
X247264Y244152D01*
X247333Y244069D01*
X247472Y243861D01*
X247610Y243597D01*
X247735Y243292D01*
X247832Y242945D01*
X247846Y242765D01*
X247860Y242571D01*
Y242557D01*
Y242543D01*
Y242460D01*
X247846Y242335D01*
X247818Y242183D01*
X247777Y241988D01*
X247708Y241794D01*
X247624Y241600D01*
X247500Y241406D01*
X247486Y241378D01*
X247430Y241323D01*
X247347Y241239D01*
X247236Y241129D01*
X247083Y241004D01*
X246903Y240879D01*
X246695Y240754D01*
X246446Y240643D01*
X246459D01*
X246487Y240629D01*
X246529Y240616D01*
X246584Y240588D01*
X246751Y240518D01*
X246945Y240421D01*
X247153Y240283D01*
X247375Y240130D01*
X247583Y239936D01*
X247777Y239714D01*
Y239700D01*
X247791Y239686D01*
X247846Y239603D01*
X247929Y239464D01*
X248013Y239284D01*
X248096Y239062D01*
X248179Y238799D01*
X248235Y238507D01*
X248248Y238188D01*
Y238175D01*
Y238133D01*
Y238064D01*
X248235Y237980D01*
X248221Y237883D01*
X248207Y237759D01*
X248179Y237620D01*
X248137Y237467D01*
X248040Y237148D01*
X247971Y236968D01*
X247874Y236802D01*
X247777Y236621D01*
X247666Y236455D01*
X247527Y236289D01*
X247375Y236122D01*
X247361Y236108D01*
X247333Y236080D01*
X247291Y236039D01*
X247222Y235997D01*
X247125Y235928D01*
X247028Y235859D01*
X246903Y235789D01*
X246764Y235706D01*
X246612Y235623D01*
X246432Y235553D01*
X246237Y235484D01*
X246043Y235415D01*
X245821Y235373D01*
X245586Y235332D01*
X245350Y235304D01*
X245086Y235290D01*
X244948D01*
X244851Y235304D01*
X244726Y235318D01*
X244587Y235332D01*
X244435Y235359D01*
X244268Y235401D01*
X243894Y235498D01*
X243699Y235567D01*
X243519Y235637D01*
X243325Y235734D01*
X243131Y235845D01*
X242951Y235970D01*
X242784Y236122D01*
X242770Y236136D01*
X242743Y236164D01*
X242701Y236205D01*
X242645Y236275D01*
X242590Y236358D01*
X242507Y236455D01*
X242437Y236566D01*
X242354Y236705D01*
X242271Y236843D01*
X242202Y237010D01*
X242063Y237356D01*
X242008Y237564D01*
X241966Y237772D01*
X241938Y237994D01*
X241924Y238216D01*
Y238230D01*
Y238258D01*
Y238313D01*
X241938Y238369D01*
Y238452D01*
X241952Y238549D01*
X241980Y238771D01*
X242035Y239021D01*
X242118Y239270D01*
X242243Y239534D01*
X242396Y239783D01*
Y239797D01*
X242424Y239811D01*
X242479Y239880D01*
X242590Y239991D01*
X242743Y240130D01*
X242937Y240269D01*
X243172Y240421D01*
X243436Y240546D01*
X243755Y240643D01*
X243741D01*
X243727Y240657D01*
X243686Y240671D01*
X243630Y240699D01*
X243505Y240754D01*
X243339Y240837D01*
X243159Y240948D01*
X242978Y241087D01*
X242812Y241239D01*
X242659Y241406D01*
X242645Y241434D01*
X242604Y241489D01*
X242548Y241600D01*
X242493Y241739D01*
X242424Y241919D01*
X242368Y242127D01*
X242327Y242363D01*
X242313Y242612D01*
Y242626D01*
Y242654D01*
Y242710D01*
X242327Y242793D01*
X242340Y242876D01*
X242354Y242987D01*
X242410Y243223D01*
X242493Y243500D01*
X242632Y243791D01*
X242715Y243944D01*
X242812Y244096D01*
X242937Y244235D01*
X243062Y244374D01*
X243075Y244388D01*
X243103Y244401D01*
X243145Y244443D01*
X243200Y244485D01*
X243270Y244540D01*
X243367Y244596D01*
X243478Y244665D01*
X243589Y244734D01*
X243727Y244804D01*
X243880Y244873D01*
X244046Y244928D01*
X244226Y244984D01*
X244615Y245067D01*
X244837Y245081D01*
X245059Y245095D01*
X245183D01*
X245267Y245081D01*
D02*
G37*
G36*
X249713Y184473D02*
X249699Y184459D01*
X249671Y184432D01*
X249616Y184376D01*
X249561Y184293D01*
X249477Y184196D01*
X249366Y184085D01*
X249255Y183946D01*
X249131Y183780D01*
X249006Y183613D01*
X248853Y183419D01*
X248701Y183197D01*
X248548Y182976D01*
X248382Y182726D01*
X248215Y182462D01*
X248049Y182171D01*
X247882Y181880D01*
X247868Y181866D01*
X247841Y181811D01*
X247799Y181727D01*
X247730Y181602D01*
X247661Y181450D01*
X247577Y181284D01*
X247480Y181089D01*
X247383Y180868D01*
X247272Y180618D01*
X247147Y180368D01*
X247036Y180091D01*
X246926Y179800D01*
X246704Y179203D01*
X246496Y178565D01*
Y178552D01*
X246482Y178510D01*
X246468Y178440D01*
X246440Y178357D01*
X246412Y178246D01*
X246385Y178108D01*
X246343Y177955D01*
X246315Y177789D01*
X246274Y177595D01*
X246232Y177386D01*
X246163Y176943D01*
X246093Y176457D01*
X246052Y175930D01*
X244845D01*
Y175944D01*
Y175986D01*
Y176041D01*
X244859Y176124D01*
Y176236D01*
X244873Y176374D01*
X244887Y176527D01*
X244901Y176693D01*
X244928Y176887D01*
X244956Y177081D01*
X244998Y177317D01*
X245039Y177553D01*
X245081Y177803D01*
X245137Y178080D01*
X245275Y178649D01*
Y178662D01*
X245289Y178718D01*
X245317Y178801D01*
X245358Y178926D01*
X245400Y179065D01*
X245455Y179231D01*
X245511Y179425D01*
X245594Y179633D01*
X245677Y179869D01*
X245760Y180105D01*
X245969Y180632D01*
X246218Y181187D01*
X246496Y181741D01*
X246509Y181755D01*
X246537Y181811D01*
X246579Y181880D01*
X246634Y181991D01*
X246704Y182116D01*
X246801Y182268D01*
X246898Y182435D01*
X247009Y182615D01*
X247272Y183017D01*
X247550Y183433D01*
X247868Y183863D01*
X248201Y184265D01*
X243500D01*
Y185403D01*
X249713D01*
Y184473D01*
D02*
G37*
G36*
X220986Y245081D02*
X221083D01*
X221194Y245067D01*
X221457Y245012D01*
X221749Y244942D01*
X222054Y244832D01*
X222359Y244665D01*
X222511Y244568D01*
X222650Y244457D01*
X222664Y244443D01*
X222678Y244429D01*
X222719Y244388D01*
X222761Y244346D01*
X222830Y244277D01*
X222886Y244193D01*
X223038Y243999D01*
X223191Y243750D01*
X223330Y243445D01*
X223454Y243098D01*
X223538Y242710D01*
X222359Y242612D01*
Y242626D01*
X222345Y242640D01*
X222331Y242724D01*
X222289Y242848D01*
X222234Y243001D01*
X222178Y243167D01*
X222095Y243334D01*
X221998Y243486D01*
X221901Y243611D01*
X221873Y243639D01*
X221818Y243694D01*
X221721Y243778D01*
X221582Y243874D01*
X221402Y243958D01*
X221208Y244041D01*
X220972Y244096D01*
X220722Y244124D01*
X220625D01*
X220514Y244110D01*
X220389Y244083D01*
X220223Y244041D01*
X220057Y243986D01*
X219890Y243916D01*
X219724Y243805D01*
X219696Y243791D01*
X219627Y243736D01*
X219530Y243639D01*
X219405Y243500D01*
X219266Y243334D01*
X219114Y243139D01*
X218975Y242890D01*
X218836Y242612D01*
Y242599D01*
X218822Y242571D01*
X218808Y242529D01*
X218781Y242474D01*
X218767Y242391D01*
X218739Y242293D01*
X218711Y242183D01*
X218684Y242044D01*
X218642Y241891D01*
X218614Y241725D01*
X218587Y241545D01*
X218573Y241350D01*
X218545Y241129D01*
X218531Y240907D01*
X218517Y240657D01*
Y240407D01*
X218531Y240421D01*
X218587Y240504D01*
X218684Y240616D01*
X218808Y240754D01*
X218947Y240921D01*
X219127Y241073D01*
X219322Y241226D01*
X219543Y241364D01*
X219557D01*
X219571Y241378D01*
X219654Y241420D01*
X219779Y241461D01*
X219946Y241531D01*
X220140Y241586D01*
X220362Y241628D01*
X220597Y241670D01*
X220847Y241683D01*
X220958D01*
X221041Y241670D01*
X221152Y241656D01*
X221263Y241642D01*
X221402Y241614D01*
X221541Y241572D01*
X221859Y241475D01*
X222026Y241406D01*
X222192Y241309D01*
X222359Y241212D01*
X222539Y241101D01*
X222705Y240962D01*
X222858Y240810D01*
X222872Y240796D01*
X222900Y240768D01*
X222941Y240726D01*
X222983Y240657D01*
X223052Y240560D01*
X223121Y240463D01*
X223191Y240338D01*
X223274Y240199D01*
X223357Y240047D01*
X223427Y239880D01*
X223496Y239686D01*
X223565Y239492D01*
X223607Y239284D01*
X223648Y239048D01*
X223676Y238813D01*
X223690Y238563D01*
Y238549D01*
Y238521D01*
Y238480D01*
Y238410D01*
X223676Y238327D01*
Y238244D01*
X223635Y238022D01*
X223593Y237759D01*
X223524Y237481D01*
X223427Y237176D01*
X223288Y236885D01*
Y236871D01*
X223274Y236857D01*
X223246Y236815D01*
X223219Y236760D01*
X223135Y236621D01*
X223011Y236441D01*
X222858Y236247D01*
X222678Y236053D01*
X222456Y235859D01*
X222220Y235692D01*
X222206D01*
X222192Y235678D01*
X222151Y235651D01*
X222095Y235637D01*
X221957Y235567D01*
X221776Y235498D01*
X221541Y235415D01*
X221277Y235359D01*
X220986Y235304D01*
X220667Y235290D01*
X220597D01*
X220528Y235304D01*
X220417D01*
X220292Y235318D01*
X220154Y235345D01*
X219987Y235387D01*
X219821Y235429D01*
X219627Y235484D01*
X219433Y235553D01*
X219238Y235637D01*
X219030Y235748D01*
X218836Y235872D01*
X218642Y236011D01*
X218448Y236178D01*
X218268Y236372D01*
X218254Y236386D01*
X218226Y236427D01*
X218184Y236483D01*
X218129Y236580D01*
X218046Y236705D01*
X217976Y236843D01*
X217893Y237024D01*
X217810Y237218D01*
X217713Y237453D01*
X217630Y237717D01*
X217560Y238008D01*
X217491Y238327D01*
X217422Y238688D01*
X217380Y239076D01*
X217352Y239492D01*
X217338Y239936D01*
Y239950D01*
Y239964D01*
Y240005D01*
Y240061D01*
X217352Y240199D01*
Y240394D01*
X217366Y240616D01*
X217394Y240879D01*
X217422Y241170D01*
X217463Y241489D01*
X217519Y241808D01*
X217588Y242155D01*
X217671Y242488D01*
X217768Y242820D01*
X217893Y243139D01*
X218032Y243445D01*
X218184Y243736D01*
X218365Y243986D01*
X218379Y243999D01*
X218406Y244027D01*
X218462Y244083D01*
X218531Y244166D01*
X218614Y244249D01*
X218725Y244332D01*
X218864Y244443D01*
X219003Y244540D01*
X219169Y244637D01*
X219349Y244748D01*
X219557Y244832D01*
X219765Y244928D01*
X220001Y244998D01*
X220251Y245053D01*
X220514Y245081D01*
X220792Y245095D01*
X220903D01*
X220986Y245081D01*
D02*
G37*
G36*
X222408Y184446D02*
X218566D01*
X218053Y181852D01*
X218067Y181866D01*
X218095Y181880D01*
X218137Y181908D01*
X218206Y181949D01*
X218289Y181991D01*
X218386Y182046D01*
X218608Y182157D01*
X218885Y182268D01*
X219191Y182365D01*
X219523Y182435D01*
X219690Y182462D01*
X219995D01*
X220078Y182449D01*
X220189Y182435D01*
X220314Y182421D01*
X220452Y182393D01*
X220605Y182351D01*
X220938Y182254D01*
X221118Y182185D01*
X221299Y182088D01*
X221479Y181991D01*
X221659Y181880D01*
X221826Y181741D01*
X221992Y181589D01*
X222006Y181575D01*
X222034Y181547D01*
X222075Y181506D01*
X222131Y181436D01*
X222200Y181339D01*
X222269Y181242D01*
X222353Y181117D01*
X222436Y180979D01*
X222505Y180826D01*
X222588Y180660D01*
X222658Y180465D01*
X222727Y180271D01*
X222782Y180063D01*
X222824Y179827D01*
X222852Y179592D01*
X222866Y179342D01*
Y179328D01*
Y179286D01*
Y179217D01*
X222852Y179120D01*
X222838Y179009D01*
X222824Y178884D01*
X222796Y178732D01*
X222768Y178579D01*
X222685Y178219D01*
X222547Y177844D01*
X222463Y177650D01*
X222353Y177470D01*
X222241Y177276D01*
X222103Y177095D01*
X222089Y177081D01*
X222061Y177040D01*
X222006Y176984D01*
X221936Y176915D01*
X221839Y176832D01*
X221728Y176721D01*
X221590Y176624D01*
X221437Y176513D01*
X221271Y176402D01*
X221077Y176305D01*
X220868Y176208D01*
X220647Y176111D01*
X220411Y176041D01*
X220147Y175986D01*
X219870Y175944D01*
X219579Y175930D01*
X219454D01*
X219357Y175944D01*
X219246Y175958D01*
X219121Y175972D01*
X218969Y175986D01*
X218816Y176027D01*
X218469Y176111D01*
X218123Y176236D01*
X217942Y176319D01*
X217762Y176416D01*
X217596Y176527D01*
X217429Y176651D01*
X217415Y176665D01*
X217388Y176679D01*
X217360Y176735D01*
X217304Y176790D01*
X217235Y176859D01*
X217166Y176943D01*
X217083Y177054D01*
X217013Y177178D01*
X216930Y177303D01*
X216847Y177456D01*
X216694Y177789D01*
X216569Y178177D01*
X216528Y178385D01*
X216500Y178607D01*
X217734Y178704D01*
Y178690D01*
Y178662D01*
X217748Y178621D01*
X217762Y178552D01*
X217804Y178399D01*
X217859Y178191D01*
X217942Y177983D01*
X218053Y177747D01*
X218192Y177539D01*
X218358Y177345D01*
X218386Y177331D01*
X218442Y177276D01*
X218552Y177206D01*
X218705Y177123D01*
X218871Y177040D01*
X219079Y176971D01*
X219315Y176915D01*
X219579Y176901D01*
X219662D01*
X219718Y176915D01*
X219884Y176929D01*
X220078Y176984D01*
X220314Y177054D01*
X220550Y177165D01*
X220799Y177331D01*
X220910Y177428D01*
X221021Y177539D01*
X221035Y177553D01*
X221049Y177567D01*
X221077Y177608D01*
X221118Y177650D01*
X221215Y177803D01*
X221326Y177997D01*
X221423Y178232D01*
X221520Y178524D01*
X221590Y178871D01*
X221617Y179051D01*
Y179245D01*
Y179259D01*
Y179286D01*
Y179342D01*
X221604Y179411D01*
Y179494D01*
X221590Y179592D01*
X221548Y179813D01*
X221479Y180077D01*
X221382Y180340D01*
X221243Y180590D01*
X221049Y180826D01*
Y180840D01*
X221021Y180854D01*
X220952Y180923D01*
X220827Y181020D01*
X220660Y181131D01*
X220439Y181228D01*
X220189Y181325D01*
X219898Y181395D01*
X219731Y181422D01*
X219468D01*
X219357Y181408D01*
X219218Y181395D01*
X219052Y181353D01*
X218885Y181311D01*
X218705Y181242D01*
X218525Y181159D01*
X218511Y181145D01*
X218455Y181117D01*
X218372Y181048D01*
X218261Y180979D01*
X218150Y180881D01*
X218039Y180757D01*
X217915Y180632D01*
X217817Y180479D01*
X216708Y180632D01*
X217637Y185569D01*
X222408D01*
Y184446D01*
D02*
G37*
G36*
X279210Y155849D02*
X282914Y154923D01*
X286617Y152609D01*
X287080D01*
X287543Y152146D01*
X289395Y149831D01*
X291247Y146590D01*
X292173Y142424D01*
Y140572D01*
Y140109D01*
Y139646D01*
X291710Y139184D01*
X290784Y138721D01*
X286154D01*
X285691Y139184D01*
X285228Y139646D01*
X284765Y140572D01*
Y141498D01*
Y141961D01*
X284303Y143813D01*
X283377Y145665D01*
X281525Y147516D01*
X281062Y147979D01*
X280136Y148905D01*
X278284Y149368D01*
X275970Y149831D01*
X275044D01*
X273192Y149368D01*
X270877Y148905D01*
X268563Y147516D01*
X268100Y147053D01*
X267174Y146128D01*
X266248Y144276D01*
X265785Y141961D01*
Y141498D01*
Y140109D01*
Y137795D01*
X265322Y135017D01*
Y131776D01*
Y127610D01*
X265785Y119277D01*
Y118814D01*
X266248Y116962D01*
X267174Y115111D01*
X268563Y113259D01*
X269025Y112796D01*
X270414Y112333D01*
X272266Y111407D01*
X275044Y110944D01*
X275507D01*
X277358Y111407D01*
X279210Y111870D01*
X281525Y113259D01*
X281988Y113722D01*
X282914Y115111D01*
X284303Y116962D01*
X284765Y119277D01*
Y120666D01*
Y121129D01*
Y121592D01*
X285228Y122055D01*
X286154Y122518D01*
X291710D01*
X292173Y121592D01*
Y120666D01*
Y118814D01*
Y118351D01*
Y117888D01*
X291247Y115111D01*
X289858Y111870D01*
X287080Y108167D01*
X286154Y107704D01*
X283840Y106315D01*
X280136Y104463D01*
X275507Y104000D01*
X274581D01*
X271340Y104463D01*
X267637Y105852D01*
X263470Y108167D01*
X262544Y109092D01*
X261155Y111407D01*
X259304Y114648D01*
X258378Y118814D01*
Y119277D01*
Y120666D01*
Y122981D01*
Y126221D01*
Y129462D01*
Y133165D01*
Y141498D01*
Y141961D01*
Y142424D01*
X259304Y145202D01*
X260693Y148442D01*
X263470Y151683D01*
X263933D01*
X264396Y152609D01*
X266711Y153998D01*
X270414Y155386D01*
X275044Y156312D01*
X276432D01*
X279210Y155849D01*
D02*
G37*
G36*
X92645Y155386D02*
Y154460D01*
Y105852D01*
Y105389D01*
X92182Y104926D01*
X91256Y104463D01*
X84312D01*
X83386Y105389D01*
X69035Y141961D01*
X68109D01*
Y105389D01*
Y104926D01*
X67183Y104463D01*
X66258Y104000D01*
X62554D01*
X62091Y104463D01*
X61628Y105389D01*
Y153998D01*
Y154460D01*
Y154923D01*
X62091Y155386D01*
X69961D01*
X70424Y154923D01*
Y154460D01*
X85238Y117888D01*
X85701Y117425D01*
X86164D01*
X86627Y117888D01*
Y154460D01*
Y154923D01*
Y155386D01*
X87090Y155849D01*
X92182D01*
X92645Y155386D01*
D02*
G37*
G36*
X331059Y155849D02*
X334763Y154923D01*
X338004Y152609D01*
X338929Y152146D01*
X340318Y149831D01*
X342633Y146590D01*
X344022Y142424D01*
Y141498D01*
X343559Y139184D01*
X343096Y136406D01*
X341707Y133165D01*
X341244Y132702D01*
X339855Y131313D01*
X338004Y129462D01*
X335226Y127610D01*
X334763D01*
X333837Y126684D01*
X333374Y126221D01*
X333837Y125295D01*
X342633Y106778D01*
Y106315D01*
Y105852D01*
X341707Y104926D01*
X336152D01*
X335689Y105389D01*
X335226Y106315D01*
X326430Y124832D01*
Y125295D01*
X325504D01*
X324578Y125758D01*
X320875Y125295D01*
X320412D01*
X319949Y124832D01*
Y106315D01*
Y105852D01*
X319486Y105389D01*
X318560Y104926D01*
X313468D01*
X313005Y105389D01*
X312542Y106315D01*
Y154923D01*
Y155386D01*
Y155849D01*
X313005Y156312D01*
X328282D01*
X331059Y155849D01*
D02*
G37*
G36*
X227361D02*
X231064Y154923D01*
X234768Y152609D01*
X235694Y152146D01*
X237083Y149831D01*
X238934Y146590D01*
X239860Y142424D01*
Y141498D01*
Y139184D01*
X238934Y136406D01*
X237546Y133165D01*
X237083Y132702D01*
X235694Y131313D01*
X233842Y129462D01*
X231064Y127610D01*
X230601D01*
X230138Y126684D01*
X229676Y126221D01*
X230138Y125295D01*
X238934Y106778D01*
X239397Y106315D01*
X238934Y105852D01*
X238471Y104926D01*
X232453D01*
X231990Y105389D01*
X231527Y106315D01*
X223194Y124832D01*
X222731Y125295D01*
X221806Y125758D01*
X216713Y125295D01*
X216250D01*
X215787Y124832D01*
Y106315D01*
Y105852D01*
X215324Y105389D01*
X214398Y104926D01*
X209769D01*
X209306Y105389D01*
X208843Y106315D01*
Y154923D01*
Y155386D01*
X209306Y155849D01*
X209769Y156312D01*
X224583D01*
X227361Y155849D01*
D02*
G37*
G36*
X530587Y155386D02*
Y154460D01*
Y150757D01*
Y150294D01*
Y149831D01*
X530124Y149368D01*
X529198Y148905D01*
X512069D01*
X511606Y148442D01*
Y135017D01*
X512069D01*
Y134554D01*
X529661D01*
X530124Y134091D01*
Y133165D01*
Y128999D01*
Y128536D01*
X529661Y128073D01*
X528735Y127610D01*
X512069D01*
X511606Y127147D01*
X511143Y111870D01*
Y111407D01*
X511606Y110944D01*
X512069Y111407D01*
X531050D01*
X531513Y110944D01*
X531976Y110018D01*
Y105852D01*
X531513Y105389D01*
X531050Y104926D01*
X529661Y104463D01*
X505125D01*
X504199Y104926D01*
X503736Y105852D01*
Y154460D01*
Y154923D01*
X504199Y155386D01*
X504662Y155849D01*
X530124D01*
X530587Y155386D01*
D02*
G37*
G36*
X486144D02*
Y154460D01*
Y150757D01*
Y150294D01*
Y149831D01*
X485682Y149368D01*
X484756Y148905D01*
X473645D01*
Y148442D01*
Y147516D01*
Y146590D01*
Y144739D01*
Y141961D01*
Y138258D01*
Y133165D01*
Y127147D01*
Y105852D01*
Y105389D01*
X473182Y104926D01*
X472256Y104463D01*
X467627D01*
X467164Y104926D01*
X466701Y105852D01*
Y148442D01*
Y148905D01*
X456516D01*
X456053Y149368D01*
X455591Y149831D01*
X455127Y150757D01*
Y154460D01*
Y154923D01*
Y155386D01*
X455591Y155849D01*
X485682D01*
X486144Y155386D01*
D02*
G37*
G36*
X429203Y154923D02*
X443091Y105852D01*
Y105389D01*
X442165Y104926D01*
X441239Y104463D01*
X437073D01*
X435684Y105389D01*
X431981Y116499D01*
X431518Y116962D01*
X430592Y117425D01*
X418092D01*
X417166Y116499D01*
X413926Y105389D01*
Y104926D01*
X413463Y104463D01*
X408371D01*
X407908Y104926D01*
X407445Y105389D01*
X406982Y105852D01*
X420870Y154923D01*
Y155386D01*
X421333Y155849D01*
X428277D01*
X429203Y154923D01*
D02*
G37*
G36*
X389390Y155386D02*
X389853Y154460D01*
Y150757D01*
Y150294D01*
Y149831D01*
X388927Y149368D01*
X388001Y148905D01*
X370872D01*
X369484Y148442D01*
Y135017D01*
Y134554D01*
X387538D01*
X388001Y134091D01*
Y133165D01*
Y128999D01*
Y128536D01*
X387538Y128073D01*
X386612Y127610D01*
X369484D01*
Y127147D01*
Y111870D01*
X370872D01*
Y111407D01*
Y110944D01*
X371335Y111407D01*
X389853D01*
X390316Y110944D01*
Y110018D01*
Y105852D01*
Y105389D01*
X389853Y104926D01*
X388927Y104463D01*
X363928D01*
X363465Y104926D01*
X363002Y105852D01*
Y154460D01*
Y154923D01*
Y155386D01*
X363465Y155849D01*
X388927D01*
X389390Y155386D01*
D02*
G37*
G36*
X188011D02*
Y154460D01*
Y150757D01*
Y150294D01*
Y149831D01*
X187548Y149368D01*
X186622Y148905D01*
X169030D01*
X168104Y148442D01*
Y135017D01*
Y134554D01*
X186159D01*
X186622Y134091D01*
Y133165D01*
Y128999D01*
Y128536D01*
X186159Y128073D01*
X185233Y127610D01*
X168567D01*
X167642Y127147D01*
Y111870D01*
X168567D01*
Y111407D01*
Y110944D01*
X169030Y111407D01*
X187548D01*
X188011Y110944D01*
Y110018D01*
Y105852D01*
Y105389D01*
X187548Y104926D01*
X186622Y104463D01*
X162086D01*
X161623Y104926D01*
X161160Y105852D01*
Y154460D01*
Y154923D01*
Y155386D01*
X161623Y155849D01*
X187548D01*
X188011Y155386D01*
D02*
G37*
G36*
X142643D02*
Y154460D01*
Y150757D01*
Y150294D01*
Y149831D01*
X142180Y149368D01*
X141254Y148905D01*
X130606D01*
Y148442D01*
Y147516D01*
Y146590D01*
Y144739D01*
Y141961D01*
Y138258D01*
Y133165D01*
Y127147D01*
Y105852D01*
Y105389D01*
X129680Y104926D01*
X128755Y104463D01*
X124125D01*
X123662Y104926D01*
X123199Y105852D01*
Y148442D01*
Y148905D01*
X113015D01*
X112552Y149368D01*
X111626Y149831D01*
X111163Y150757D01*
Y154460D01*
Y154923D01*
X111626Y155386D01*
X112089Y155849D01*
X142180D01*
X142643Y155386D01*
D02*
G37*
G36*
X38481D02*
Y154460D01*
Y105852D01*
Y105389D01*
X38018Y104926D01*
X37092Y104463D01*
X32463D01*
X32000Y104926D01*
Y105852D01*
Y154460D01*
Y154923D01*
Y155386D01*
X32463Y155849D01*
X38018D01*
X38481Y155386D01*
D02*
G37*
G36*
X309536Y49000D02*
X308358D01*
Y56503D01*
X308344Y56489D01*
X308274Y56434D01*
X308191Y56350D01*
X308053Y56253D01*
X307900Y56128D01*
X307706Y55990D01*
X307484Y55837D01*
X307234Y55685D01*
X307220D01*
X307206Y55671D01*
X307123Y55615D01*
X306985Y55546D01*
X306818Y55463D01*
X306624Y55366D01*
X306416Y55269D01*
X306208Y55171D01*
X306000Y55088D01*
Y56225D01*
X306014D01*
X306042Y56253D01*
X306097Y56267D01*
X306166Y56309D01*
X306250Y56350D01*
X306347Y56406D01*
X306583Y56544D01*
X306860Y56697D01*
X307137Y56891D01*
X307428Y57113D01*
X307720Y57349D01*
X307733Y57363D01*
X307747Y57376D01*
X307789Y57418D01*
X307845Y57460D01*
X307969Y57598D01*
X308136Y57765D01*
X308302Y57959D01*
X308482Y58181D01*
X308635Y58403D01*
X308774Y58639D01*
X309536D01*
Y49000D01*
D02*
G37*
G36*
X315888Y58625D02*
X315999Y58611D01*
X316124Y58597D01*
X316263Y58583D01*
X316401Y58541D01*
X316734Y58458D01*
X317067Y58333D01*
X317233Y58250D01*
X317400Y58153D01*
X317552Y58028D01*
X317705Y57903D01*
X317719Y57890D01*
X317733Y57876D01*
X317774Y57834D01*
X317830Y57779D01*
X317885Y57695D01*
X317955Y57612D01*
X318093Y57404D01*
X318232Y57141D01*
X318357Y56836D01*
X318454Y56489D01*
X318468Y56309D01*
X318482Y56115D01*
Y56101D01*
Y56087D01*
Y56003D01*
X318468Y55879D01*
X318440Y55726D01*
X318398Y55532D01*
X318329Y55338D01*
X318246Y55144D01*
X318121Y54949D01*
X318107Y54922D01*
X318052Y54866D01*
X317968Y54783D01*
X317857Y54672D01*
X317705Y54547D01*
X317525Y54422D01*
X317317Y54298D01*
X317067Y54187D01*
X317081D01*
X317109Y54173D01*
X317150Y54159D01*
X317206Y54131D01*
X317372Y54062D01*
X317566Y53965D01*
X317774Y53826D01*
X317996Y53674D01*
X318204Y53479D01*
X318398Y53258D01*
Y53244D01*
X318412Y53230D01*
X318468Y53147D01*
X318551Y53008D01*
X318634Y52828D01*
X318717Y52606D01*
X318801Y52342D01*
X318856Y52051D01*
X318870Y51732D01*
Y51718D01*
Y51677D01*
Y51607D01*
X318856Y51524D01*
X318842Y51427D01*
X318828Y51302D01*
X318801Y51164D01*
X318759Y51011D01*
X318662Y50692D01*
X318592Y50512D01*
X318495Y50345D01*
X318398Y50165D01*
X318287Y49998D01*
X318149Y49832D01*
X317996Y49666D01*
X317982Y49652D01*
X317955Y49624D01*
X317913Y49583D01*
X317844Y49541D01*
X317747Y49472D01*
X317649Y49402D01*
X317525Y49333D01*
X317386Y49250D01*
X317233Y49166D01*
X317053Y49097D01*
X316859Y49028D01*
X316665Y48958D01*
X316443Y48917D01*
X316207Y48875D01*
X315971Y48847D01*
X315708Y48834D01*
X315569D01*
X315472Y48847D01*
X315347Y48861D01*
X315209Y48875D01*
X315056Y48903D01*
X314890Y48945D01*
X314515Y49042D01*
X314321Y49111D01*
X314141Y49180D01*
X313947Y49277D01*
X313752Y49388D01*
X313572Y49513D01*
X313406Y49666D01*
X313392Y49680D01*
X313364Y49707D01*
X313323Y49749D01*
X313267Y49818D01*
X313212Y49901D01*
X313128Y49998D01*
X313059Y50110D01*
X312976Y50248D01*
X312893Y50387D01*
X312823Y50553D01*
X312685Y50900D01*
X312629Y51108D01*
X312588Y51316D01*
X312560Y51538D01*
X312546Y51760D01*
Y51774D01*
Y51801D01*
Y51857D01*
X312560Y51912D01*
Y51996D01*
X312574Y52093D01*
X312601Y52315D01*
X312657Y52564D01*
X312740Y52814D01*
X312865Y53077D01*
X313017Y53327D01*
Y53341D01*
X313045Y53355D01*
X313101Y53424D01*
X313212Y53535D01*
X313364Y53674D01*
X313558Y53812D01*
X313794Y53965D01*
X314058Y54090D01*
X314377Y54187D01*
X314363D01*
X314349Y54201D01*
X314307Y54215D01*
X314252Y54242D01*
X314127Y54298D01*
X313960Y54381D01*
X313780Y54492D01*
X313600Y54631D01*
X313433Y54783D01*
X313281Y54949D01*
X313267Y54977D01*
X313225Y55033D01*
X313170Y55144D01*
X313114Y55282D01*
X313045Y55463D01*
X312990Y55671D01*
X312948Y55907D01*
X312934Y56156D01*
Y56170D01*
Y56198D01*
Y56253D01*
X312948Y56336D01*
X312962Y56420D01*
X312976Y56530D01*
X313031Y56766D01*
X313114Y57044D01*
X313253Y57335D01*
X313336Y57488D01*
X313433Y57640D01*
X313558Y57779D01*
X313683Y57917D01*
X313697Y57931D01*
X313725Y57945D01*
X313766Y57987D01*
X313822Y58028D01*
X313891Y58084D01*
X313988Y58139D01*
X314099Y58209D01*
X314210Y58278D01*
X314349Y58347D01*
X314501Y58417D01*
X314668Y58472D01*
X314848Y58528D01*
X315236Y58611D01*
X315458Y58625D01*
X315680Y58639D01*
X315805D01*
X315888Y58625D01*
D02*
G37*
G36*
X196321Y238882D02*
X197625D01*
Y237800D01*
X196321D01*
Y235498D01*
X195142D01*
Y237800D01*
X190968D01*
Y238882D01*
X195364Y245095D01*
X196321D01*
Y238882D01*
D02*
G37*
G36*
X194787Y185721D02*
X194967Y185694D01*
X195189Y185652D01*
X195439Y185583D01*
X195688Y185500D01*
X195938Y185389D01*
X195952D01*
X195966Y185375D01*
X196049Y185333D01*
X196174Y185250D01*
X196312Y185153D01*
X196479Y185014D01*
X196645Y184862D01*
X196812Y184681D01*
X196950Y184473D01*
X196964Y184446D01*
X197006Y184376D01*
X197061Y184251D01*
X197131Y184099D01*
X197200Y183919D01*
X197255Y183710D01*
X197297Y183475D01*
X197311Y183239D01*
Y183211D01*
Y183128D01*
X197297Y183017D01*
X197269Y182865D01*
X197228Y182684D01*
X197158Y182490D01*
X197075Y182296D01*
X196964Y182102D01*
X196950Y182074D01*
X196909Y182019D01*
X196826Y181922D01*
X196714Y181811D01*
X196576Y181686D01*
X196409Y181547D01*
X196215Y181422D01*
X195979Y181297D01*
X195993D01*
X196021Y181284D01*
X196063Y181270D01*
X196118Y181256D01*
X196271Y181200D01*
X196465Y181117D01*
X196687Y181006D01*
X196909Y180868D01*
X197117Y180687D01*
X197311Y180479D01*
X197325Y180452D01*
X197380Y180368D01*
X197463Y180230D01*
X197547Y180049D01*
X197630Y179827D01*
X197713Y179564D01*
X197768Y179259D01*
X197782Y178926D01*
Y178912D01*
Y178871D01*
Y178801D01*
X197768Y178718D01*
X197755Y178607D01*
X197727Y178482D01*
X197699Y178344D01*
X197671Y178191D01*
X197561Y177858D01*
X197477Y177678D01*
X197394Y177511D01*
X197283Y177331D01*
X197158Y177151D01*
X197020Y176971D01*
X196853Y176804D01*
X196839Y176790D01*
X196812Y176763D01*
X196756Y176721D01*
X196687Y176665D01*
X196604Y176596D01*
X196493Y176527D01*
X196368Y176444D01*
X196215Y176374D01*
X196063Y176291D01*
X195882Y176208D01*
X195702Y176138D01*
X195494Y176069D01*
X195272Y176014D01*
X195036Y175972D01*
X194801Y175944D01*
X194537Y175930D01*
X194412D01*
X194329Y175944D01*
X194218Y175958D01*
X194093Y175972D01*
X193955Y176000D01*
X193802Y176027D01*
X193469Y176111D01*
X193123Y176249D01*
X192942Y176332D01*
X192776Y176430D01*
X192610Y176554D01*
X192443Y176679D01*
X192429Y176693D01*
X192401Y176721D01*
X192360Y176763D01*
X192318Y176818D01*
X192249Y176887D01*
X192180Y176984D01*
X192096Y177081D01*
X192013Y177206D01*
X191930Y177345D01*
X191847Y177484D01*
X191694Y177817D01*
X191569Y178205D01*
X191528Y178413D01*
X191500Y178635D01*
X192679Y178787D01*
Y178773D01*
X192693Y178746D01*
X192707Y178690D01*
X192720Y178621D01*
X192734Y178538D01*
X192762Y178440D01*
X192831Y178232D01*
X192928Y177983D01*
X193053Y177747D01*
X193192Y177525D01*
X193358Y177331D01*
X193386Y177317D01*
X193442Y177262D01*
X193552Y177192D01*
X193691Y177123D01*
X193858Y177040D01*
X194066Y176971D01*
X194301Y176915D01*
X194551Y176901D01*
X194634D01*
X194690Y176915D01*
X194842Y176929D01*
X195036Y176971D01*
X195258Y177040D01*
X195494Y177137D01*
X195730Y177276D01*
X195952Y177470D01*
X195979Y177498D01*
X196049Y177581D01*
X196132Y177705D01*
X196243Y177872D01*
X196354Y178080D01*
X196437Y178316D01*
X196507Y178593D01*
X196534Y178898D01*
Y178912D01*
Y178940D01*
Y178981D01*
X196520Y179037D01*
X196507Y179189D01*
X196465Y179370D01*
X196409Y179592D01*
X196312Y179813D01*
X196174Y180035D01*
X195993Y180243D01*
X195966Y180271D01*
X195896Y180327D01*
X195785Y180410D01*
X195633Y180507D01*
X195439Y180604D01*
X195203Y180687D01*
X194939Y180743D01*
X194648Y180770D01*
X194523D01*
X194426Y180757D01*
X194301Y180743D01*
X194163Y180715D01*
X193996Y180687D01*
X193816Y180646D01*
X193955Y181686D01*
X194024D01*
X194079Y181672D01*
X194260D01*
X194412Y181700D01*
X194593Y181727D01*
X194801Y181769D01*
X195036Y181838D01*
X195258Y181935D01*
X195494Y182060D01*
X195508D01*
X195522Y182074D01*
X195591Y182129D01*
X195688Y182227D01*
X195799Y182351D01*
X195910Y182532D01*
X196007Y182740D01*
X196077Y182976D01*
X196104Y183114D01*
Y183267D01*
Y183281D01*
Y183295D01*
Y183378D01*
X196077Y183489D01*
X196049Y183641D01*
X195993Y183808D01*
X195924Y183988D01*
X195813Y184168D01*
X195660Y184335D01*
X195647Y184349D01*
X195577Y184404D01*
X195480Y184473D01*
X195355Y184557D01*
X195189Y184626D01*
X194995Y184695D01*
X194773Y184751D01*
X194523Y184764D01*
X194412D01*
X194287Y184737D01*
X194121Y184709D01*
X193941Y184654D01*
X193761Y184584D01*
X193566Y184473D01*
X193386Y184335D01*
X193372Y184321D01*
X193317Y184251D01*
X193234Y184154D01*
X193137Y184016D01*
X193039Y183835D01*
X192942Y183613D01*
X192859Y183350D01*
X192804Y183045D01*
X191625Y183253D01*
Y183267D01*
X191639Y183308D01*
X191653Y183364D01*
X191666Y183447D01*
X191694Y183544D01*
X191736Y183655D01*
X191819Y183919D01*
X191958Y184224D01*
X192124Y184529D01*
X192332Y184820D01*
X192596Y185084D01*
X192610Y185097D01*
X192637Y185111D01*
X192679Y185139D01*
X192734Y185181D01*
X192804Y185236D01*
X192901Y185292D01*
X192998Y185347D01*
X193123Y185416D01*
X193400Y185527D01*
X193719Y185638D01*
X194093Y185708D01*
X194287Y185735D01*
X194634D01*
X194787Y185721D01*
D02*
G37*
G36*
X169762Y245081D02*
X169873Y245067D01*
X170011Y245053D01*
X170164Y245026D01*
X170316Y244998D01*
X170677Y244901D01*
X171038Y244762D01*
X171218Y244679D01*
X171398Y244582D01*
X171565Y244457D01*
X171717Y244318D01*
X171731Y244305D01*
X171759Y244291D01*
X171786Y244235D01*
X171842Y244180D01*
X171911Y244110D01*
X171981Y244013D01*
X172050Y243916D01*
X172133Y243791D01*
X172272Y243528D01*
X172411Y243195D01*
X172466Y243029D01*
X172494Y242834D01*
X172521Y242640D01*
X172535Y242432D01*
Y242404D01*
Y242335D01*
X172521Y242224D01*
X172508Y242072D01*
X172480Y241905D01*
X172424Y241711D01*
X172369Y241503D01*
X172286Y241295D01*
X172272Y241267D01*
X172244Y241198D01*
X172189Y241087D01*
X172105Y240934D01*
X171994Y240768D01*
X171856Y240560D01*
X171689Y240352D01*
X171495Y240116D01*
X171467Y240089D01*
X171398Y240005D01*
X171329Y239936D01*
X171259Y239867D01*
X171176Y239783D01*
X171065Y239672D01*
X170954Y239562D01*
X170816Y239437D01*
X170677Y239298D01*
X170511Y239145D01*
X170330Y238993D01*
X170136Y238813D01*
X169914Y238632D01*
X169692Y238438D01*
X169678Y238424D01*
X169651Y238396D01*
X169595Y238355D01*
X169526Y238299D01*
X169443Y238216D01*
X169346Y238133D01*
X169124Y237953D01*
X168888Y237745D01*
X168666Y237537D01*
X168472Y237356D01*
X168389Y237287D01*
X168319Y237218D01*
X168305Y237204D01*
X168264Y237162D01*
X168208Y237107D01*
X168139Y237024D01*
X168070Y236926D01*
X167987Y236829D01*
X167820Y236594D01*
X172549D01*
Y235456D01*
X166184D01*
Y235470D01*
Y235526D01*
Y235609D01*
X166197Y235720D01*
X166211Y235845D01*
X166239Y235983D01*
X166267Y236122D01*
X166322Y236275D01*
Y236289D01*
X166336Y236302D01*
X166364Y236386D01*
X166419Y236510D01*
X166503Y236677D01*
X166614Y236871D01*
X166752Y237093D01*
X166905Y237315D01*
X167099Y237551D01*
Y237564D01*
X167127Y237578D01*
X167196Y237661D01*
X167321Y237786D01*
X167501Y237967D01*
X167709Y238175D01*
X167973Y238424D01*
X168292Y238702D01*
X168638Y238993D01*
X168652Y239007D01*
X168708Y239048D01*
X168791Y239118D01*
X168888Y239201D01*
X169013Y239312D01*
X169165Y239437D01*
X169318Y239575D01*
X169498Y239728D01*
X169845Y240061D01*
X170192Y240394D01*
X170358Y240560D01*
X170511Y240726D01*
X170649Y240879D01*
X170760Y241031D01*
Y241045D01*
X170788Y241059D01*
X170816Y241101D01*
X170843Y241156D01*
X170940Y241309D01*
X171051Y241489D01*
X171148Y241711D01*
X171246Y241947D01*
X171301Y242210D01*
X171329Y242460D01*
Y242474D01*
Y242488D01*
X171315Y242571D01*
X171301Y242710D01*
X171259Y242862D01*
X171204Y243056D01*
X171107Y243251D01*
X170982Y243445D01*
X170816Y243639D01*
X170788Y243666D01*
X170719Y243722D01*
X170621Y243791D01*
X170469Y243888D01*
X170275Y243972D01*
X170053Y244055D01*
X169789Y244110D01*
X169498Y244124D01*
X169415D01*
X169359Y244110D01*
X169193Y244096D01*
X168999Y244055D01*
X168791Y243999D01*
X168555Y243902D01*
X168333Y243778D01*
X168125Y243611D01*
X168097Y243583D01*
X168042Y243514D01*
X167959Y243403D01*
X167876Y243237D01*
X167778Y243042D01*
X167695Y242793D01*
X167640Y242515D01*
X167612Y242197D01*
X166406Y242321D01*
Y242335D01*
X166419Y242377D01*
Y242446D01*
X166433Y242543D01*
X166461Y242654D01*
X166489Y242779D01*
X166530Y242931D01*
X166572Y243084D01*
X166683Y243417D01*
X166849Y243750D01*
X166946Y243916D01*
X167071Y244083D01*
X167196Y244235D01*
X167335Y244374D01*
X167349Y244388D01*
X167376Y244401D01*
X167418Y244443D01*
X167487Y244485D01*
X167570Y244540D01*
X167668Y244596D01*
X167778Y244665D01*
X167917Y244734D01*
X168070Y244804D01*
X168236Y244873D01*
X168417Y244928D01*
X168611Y244984D01*
X168819Y245026D01*
X169041Y245067D01*
X169276Y245081D01*
X169526Y245095D01*
X169665D01*
X169762Y245081D01*
D02*
G37*
G36*
X416013Y43703D02*
X416143D01*
X416273Y43684D01*
X416587Y43629D01*
X416921Y43536D01*
X417272Y43388D01*
X417624Y43203D01*
X417921Y42944D01*
X417958Y42906D01*
X418032Y42795D01*
X418161Y42629D01*
X418217Y42499D01*
X418291Y42369D01*
X418365Y42203D01*
X418421Y42036D01*
X418495Y41851D01*
X418550Y41629D01*
X418587Y41407D01*
X418624Y41147D01*
X418661Y40888D01*
Y40592D01*
Y34222D01*
X417087D01*
Y40055D01*
Y40073D01*
Y40092D01*
Y40203D01*
Y40370D01*
X417069Y40573D01*
X417050Y40796D01*
X417032Y41018D01*
X416995Y41240D01*
X416939Y41407D01*
Y41425D01*
X416902Y41481D01*
X416865Y41555D01*
X416810Y41647D01*
X416736Y41758D01*
X416643Y41870D01*
X416532Y41981D01*
X416384Y42092D01*
X416365Y42110D01*
X416310Y42129D01*
X416236Y42166D01*
X416106Y42221D01*
X415976Y42277D01*
X415810Y42314D01*
X415643Y42333D01*
X415439Y42351D01*
X415347D01*
X415273Y42333D01*
X415088Y42314D01*
X414865Y42277D01*
X414606Y42184D01*
X414328Y42073D01*
X414051Y41907D01*
X413791Y41684D01*
X413773Y41647D01*
X413699Y41555D01*
X413588Y41407D01*
X413477Y41184D01*
X413347Y40888D01*
X413254Y40536D01*
X413180Y40111D01*
X413143Y39611D01*
Y34222D01*
X411569D01*
Y40240D01*
Y40259D01*
Y40296D01*
Y40333D01*
Y40407D01*
X411551Y40610D01*
X411514Y40833D01*
X411477Y41092D01*
X411403Y41351D01*
X411310Y41592D01*
X411181Y41814D01*
X411162Y41832D01*
X411106Y41907D01*
X411014Y41981D01*
X410884Y42092D01*
X410718Y42184D01*
X410495Y42277D01*
X410236Y42333D01*
X409921Y42351D01*
X409810D01*
X409681Y42333D01*
X409533Y42314D01*
X409347Y42258D01*
X409125Y42203D01*
X408922Y42110D01*
X408699Y41999D01*
X408681Y41981D01*
X408607Y41925D01*
X408514Y41851D01*
X408385Y41740D01*
X408255Y41592D01*
X408125Y41407D01*
X407996Y41203D01*
X407885Y40962D01*
X407866Y40925D01*
X407848Y40833D01*
X407811Y40684D01*
X407755Y40481D01*
X407700Y40203D01*
X407662Y39870D01*
X407644Y39481D01*
X407625Y39037D01*
Y34222D01*
X406051D01*
Y43517D01*
X407459D01*
Y42184D01*
X407477Y42221D01*
X407533Y42295D01*
X407644Y42425D01*
X407774Y42573D01*
X407940Y42758D01*
X408144Y42944D01*
X408366Y43129D01*
X408625Y43295D01*
X408662Y43314D01*
X408755Y43369D01*
X408903Y43425D01*
X409107Y43517D01*
X409347Y43592D01*
X409625Y43647D01*
X409940Y43703D01*
X410273Y43721D01*
X410440D01*
X410644Y43703D01*
X410866Y43666D01*
X411144Y43610D01*
X411421Y43536D01*
X411699Y43425D01*
X411958Y43277D01*
X411995Y43258D01*
X412069Y43203D01*
X412180Y43110D01*
X412329Y42962D01*
X412477Y42795D01*
X412643Y42592D01*
X412791Y42351D01*
X412903Y42073D01*
X412921Y42092D01*
X412958Y42147D01*
X413014Y42221D01*
X413106Y42333D01*
X413217Y42462D01*
X413347Y42592D01*
X413495Y42740D01*
X413680Y42906D01*
X413884Y43055D01*
X414088Y43203D01*
X414328Y43332D01*
X414588Y43462D01*
X414865Y43573D01*
X415162Y43647D01*
X415458Y43703D01*
X415791Y43721D01*
X415921D01*
X416013Y43703D01*
D02*
G37*
G36*
X401089D02*
X401219D01*
X401348Y43684D01*
X401663Y43629D01*
X401996Y43536D01*
X402348Y43388D01*
X402700Y43203D01*
X402996Y42944D01*
X403033Y42906D01*
X403107Y42795D01*
X403237Y42629D01*
X403293Y42499D01*
X403367Y42369D01*
X403441Y42203D01*
X403496Y42036D01*
X403570Y41851D01*
X403626Y41629D01*
X403663Y41407D01*
X403700Y41147D01*
X403737Y40888D01*
Y40592D01*
Y34222D01*
X402163D01*
Y40055D01*
Y40073D01*
Y40092D01*
Y40203D01*
Y40370D01*
X402145Y40573D01*
X402126Y40796D01*
X402108Y41018D01*
X402070Y41240D01*
X402015Y41407D01*
Y41425D01*
X401978Y41481D01*
X401941Y41555D01*
X401885Y41647D01*
X401811Y41758D01*
X401719Y41870D01*
X401608Y41981D01*
X401459Y42092D01*
X401441Y42110D01*
X401385Y42129D01*
X401311Y42166D01*
X401182Y42221D01*
X401052Y42277D01*
X400885Y42314D01*
X400719Y42333D01*
X400515Y42351D01*
X400422D01*
X400348Y42333D01*
X400163Y42314D01*
X399941Y42277D01*
X399682Y42184D01*
X399404Y42073D01*
X399126Y41907D01*
X398867Y41684D01*
X398848Y41647D01*
X398774Y41555D01*
X398663Y41407D01*
X398552Y41184D01*
X398423Y40888D01*
X398330Y40536D01*
X398256Y40111D01*
X398219Y39611D01*
Y34222D01*
X396645D01*
Y40240D01*
Y40259D01*
Y40296D01*
Y40333D01*
Y40407D01*
X396627Y40610D01*
X396590Y40833D01*
X396553Y41092D01*
X396478Y41351D01*
X396386Y41592D01*
X396256Y41814D01*
X396238Y41832D01*
X396182Y41907D01*
X396090Y41981D01*
X395960Y42092D01*
X395793Y42184D01*
X395571Y42277D01*
X395312Y42333D01*
X394997Y42351D01*
X394886D01*
X394756Y42333D01*
X394608Y42314D01*
X394423Y42258D01*
X394201Y42203D01*
X393997Y42110D01*
X393775Y41999D01*
X393756Y41981D01*
X393682Y41925D01*
X393590Y41851D01*
X393460Y41740D01*
X393331Y41592D01*
X393201Y41407D01*
X393071Y41203D01*
X392960Y40962D01*
X392942Y40925D01*
X392923Y40833D01*
X392886Y40684D01*
X392831Y40481D01*
X392775Y40203D01*
X392738Y39870D01*
X392719Y39481D01*
X392701Y39037D01*
Y34222D01*
X391127D01*
Y43517D01*
X392534D01*
Y42184D01*
X392553Y42221D01*
X392608Y42295D01*
X392719Y42425D01*
X392849Y42573D01*
X393016Y42758D01*
X393219Y42944D01*
X393442Y43129D01*
X393701Y43295D01*
X393738Y43314D01*
X393830Y43369D01*
X393979Y43425D01*
X394182Y43517D01*
X394423Y43592D01*
X394701Y43647D01*
X395016Y43703D01*
X395349Y43721D01*
X395516D01*
X395719Y43703D01*
X395941Y43666D01*
X396219Y43610D01*
X396497Y43536D01*
X396775Y43425D01*
X397034Y43277D01*
X397071Y43258D01*
X397145Y43203D01*
X397256Y43110D01*
X397404Y42962D01*
X397552Y42795D01*
X397719Y42592D01*
X397867Y42351D01*
X397978Y42073D01*
X397997Y42092D01*
X398034Y42147D01*
X398089Y42221D01*
X398182Y42333D01*
X398293Y42462D01*
X398423Y42592D01*
X398571Y42740D01*
X398756Y42906D01*
X398960Y43055D01*
X399163Y43203D01*
X399404Y43332D01*
X399663Y43462D01*
X399941Y43573D01*
X400237Y43647D01*
X400533Y43703D01*
X400867Y43721D01*
X400997D01*
X401089Y43703D01*
D02*
G37*
G36*
X430216Y38074D02*
X425346D01*
Y39648D01*
X430216D01*
Y38074D01*
D02*
G37*
G36*
X472174Y45517D02*
X467952D01*
Y34222D01*
X466249D01*
Y45517D01*
X462027D01*
Y47036D01*
X472174D01*
Y45517D01*
D02*
G37*
G36*
X442214Y47017D02*
X442363D01*
X442696Y46980D01*
X443066Y46943D01*
X443455Y46869D01*
X443844Y46776D01*
X444196Y46647D01*
X444214D01*
X444233Y46628D01*
X444344Y46573D01*
X444510Y46480D01*
X444696Y46351D01*
X444918Y46184D01*
X445159Y45980D01*
X445381Y45721D01*
X445584Y45443D01*
X445603Y45406D01*
X445658Y45295D01*
X445751Y45147D01*
X445844Y44925D01*
X445936Y44666D01*
X446029Y44388D01*
X446084Y44073D01*
X446103Y43758D01*
Y43721D01*
Y43629D01*
X446084Y43462D01*
X446047Y43258D01*
X445992Y43018D01*
X445899Y42758D01*
X445788Y42499D01*
X445640Y42221D01*
X445621Y42184D01*
X445566Y42110D01*
X445455Y41962D01*
X445307Y41814D01*
X445121Y41629D01*
X444899Y41425D01*
X444622Y41240D01*
X444307Y41055D01*
X444325D01*
X444362Y41036D01*
X444418Y41018D01*
X444492Y40981D01*
X444714Y40907D01*
X444973Y40777D01*
X445251Y40610D01*
X445566Y40407D01*
X445844Y40166D01*
X446103Y39870D01*
X446121Y39833D01*
X446195Y39722D01*
X446307Y39555D01*
X446418Y39333D01*
X446529Y39037D01*
X446640Y38722D01*
X446714Y38351D01*
X446732Y37944D01*
Y37926D01*
Y37907D01*
Y37796D01*
X446714Y37611D01*
X446677Y37389D01*
X446640Y37129D01*
X446566Y36852D01*
X446473Y36555D01*
X446344Y36259D01*
X446325Y36222D01*
X446269Y36129D01*
X446195Y36000D01*
X446084Y35815D01*
X445936Y35629D01*
X445788Y35426D01*
X445603Y35222D01*
X445399Y35055D01*
X445381Y35037D01*
X445307Y34981D01*
X445177Y34907D01*
X445010Y34833D01*
X444807Y34722D01*
X444566Y34611D01*
X444307Y34518D01*
X443992Y34426D01*
X443955D01*
X443844Y34389D01*
X443659Y34370D01*
X443418Y34333D01*
X443122Y34296D01*
X442770Y34259D01*
X442381Y34241D01*
X441937Y34222D01*
X437048Y34222D01*
Y47036D01*
X442085Y47036D01*
X442214Y47017D01*
D02*
G37*
G36*
X378443Y34222D02*
X376647D01*
Y36018D01*
X378443D01*
Y34222D01*
D02*
G37*
G36*
X371722D02*
X370148D01*
Y44240D01*
X370129Y44221D01*
X370037Y44147D01*
X369926Y44036D01*
X369740Y43906D01*
X369537Y43740D01*
X369277Y43555D01*
X368981Y43351D01*
X368648Y43147D01*
X368629D01*
X368611Y43129D01*
X368500Y43055D01*
X368315Y42962D01*
X368092Y42851D01*
X367833Y42721D01*
X367556Y42592D01*
X367278Y42462D01*
X367000Y42351D01*
Y43869D01*
X367019D01*
X367056Y43906D01*
X367130Y43925D01*
X367222Y43980D01*
X367333Y44036D01*
X367463Y44110D01*
X367778Y44295D01*
X368148Y44499D01*
X368518Y44758D01*
X368907Y45054D01*
X369296Y45369D01*
X369315Y45388D01*
X369333Y45406D01*
X369389Y45462D01*
X369463Y45517D01*
X369629Y45703D01*
X369851Y45925D01*
X370074Y46184D01*
X370314Y46480D01*
X370518Y46776D01*
X370703Y47091D01*
X371722D01*
Y34222D01*
D02*
G37*
G36*
X454972Y47239D02*
X455139D01*
X455306Y47221D01*
X455528Y47184D01*
X455750Y47147D01*
X456231Y47054D01*
X456787Y46906D01*
X457324Y46684D01*
X457602Y46554D01*
X457879Y46406D01*
X457898Y46388D01*
X457935Y46369D01*
X458009Y46314D01*
X458120Y46258D01*
X458231Y46165D01*
X458379Y46054D01*
X458694Y45795D01*
X459027Y45462D01*
X459398Y45054D01*
X459750Y44573D01*
X460046Y44036D01*
Y44018D01*
X460083Y43962D01*
X460120Y43888D01*
X460157Y43777D01*
X460231Y43629D01*
X460287Y43462D01*
X460361Y43258D01*
X460435Y43036D01*
X460490Y42795D01*
X460564Y42536D01*
X460638Y42240D01*
X460694Y41944D01*
X460768Y41296D01*
X460805Y40592D01*
Y40573D01*
Y40499D01*
Y40407D01*
X460787Y40259D01*
Y40092D01*
X460768Y39888D01*
X460731Y39666D01*
X460713Y39425D01*
X460620Y38888D01*
X460472Y38296D01*
X460268Y37703D01*
X460157Y37407D01*
X460009Y37111D01*
Y37092D01*
X459972Y37037D01*
X459935Y36963D01*
X459861Y36852D01*
X459787Y36722D01*
X459694Y36592D01*
X459435Y36240D01*
X459120Y35870D01*
X458750Y35481D01*
X458305Y35111D01*
X457787Y34778D01*
X457768D01*
X457731Y34741D01*
X457639Y34704D01*
X457528Y34648D01*
X457398Y34593D01*
X457250Y34537D01*
X457065Y34463D01*
X456861Y34389D01*
X456639Y34315D01*
X456398Y34241D01*
X455861Y34130D01*
X455287Y34037D01*
X454676Y34000D01*
X454491D01*
X454380Y34019D01*
X454213D01*
X454028Y34056D01*
X453824Y34074D01*
X453584Y34111D01*
X453084Y34222D01*
X452547Y34370D01*
X451991Y34593D01*
X451713Y34722D01*
X451436Y34870D01*
X451417Y34889D01*
X451380Y34907D01*
X451306Y34963D01*
X451195Y35037D01*
X451084Y35111D01*
X450954Y35222D01*
X450639Y35500D01*
X450288Y35833D01*
X449917Y36240D01*
X449584Y36704D01*
X449269Y37240D01*
Y37259D01*
X449232Y37315D01*
X449195Y37389D01*
X449158Y37500D01*
X449103Y37648D01*
X449047Y37815D01*
X448973Y38000D01*
X448917Y38203D01*
X448843Y38444D01*
X448769Y38685D01*
X448658Y39240D01*
X448584Y39814D01*
X448547Y40444D01*
Y40462D01*
Y40481D01*
Y40592D01*
X448566Y40759D01*
Y40981D01*
X448603Y41240D01*
X448640Y41555D01*
X448695Y41907D01*
X448769Y42277D01*
X448843Y42666D01*
X448954Y43073D01*
X449103Y43481D01*
X449269Y43906D01*
X449454Y44314D01*
X449695Y44721D01*
X449954Y45092D01*
X450251Y45443D01*
X450269Y45462D01*
X450325Y45517D01*
X450436Y45610D01*
X450565Y45721D01*
X450732Y45869D01*
X450936Y46017D01*
X451176Y46184D01*
X451454Y46351D01*
X451750Y46517D01*
X452084Y46684D01*
X452454Y46832D01*
X452843Y46980D01*
X453269Y47091D01*
X453713Y47184D01*
X454176Y47239D01*
X454676Y47258D01*
X454843D01*
X454972Y47239D01*
D02*
G37*
G36*
X385294Y47073D02*
X385535Y47036D01*
X385813Y46980D01*
X386109Y46906D01*
X386424Y46814D01*
X386720Y46665D01*
X386739D01*
X386757Y46647D01*
X386850Y46591D01*
X386998Y46499D01*
X387183Y46369D01*
X387387Y46184D01*
X387609Y45980D01*
X387813Y45739D01*
X388016Y45462D01*
X388035Y45425D01*
X388109Y45332D01*
X388183Y45166D01*
X388313Y44925D01*
X388424Y44647D01*
X388572Y44332D01*
X388701Y43962D01*
X388812Y43555D01*
Y43536D01*
X388831Y43499D01*
X388850Y43443D01*
X388868Y43351D01*
X388887Y43240D01*
X388905Y43110D01*
X388942Y42944D01*
X388961Y42758D01*
X388998Y42555D01*
X389016Y42333D01*
X389035Y42073D01*
X389072Y41814D01*
X389090Y41518D01*
Y41221D01*
X389109Y40888D01*
Y40536D01*
Y40518D01*
Y40444D01*
Y40314D01*
Y40166D01*
X389090Y39962D01*
Y39740D01*
X389072Y39499D01*
X389053Y39240D01*
X388998Y38648D01*
X388905Y38037D01*
X388794Y37444D01*
X388720Y37166D01*
X388627Y36889D01*
Y36870D01*
X388609Y36833D01*
X388572Y36759D01*
X388535Y36666D01*
X388498Y36537D01*
X388424Y36407D01*
X388276Y36092D01*
X388090Y35759D01*
X387850Y35389D01*
X387572Y35055D01*
X387239Y34741D01*
X387220D01*
X387202Y34704D01*
X387146Y34667D01*
X387072Y34630D01*
X386979Y34574D01*
X386887Y34500D01*
X386609Y34370D01*
X386276Y34241D01*
X385887Y34111D01*
X385424Y34037D01*
X384924Y34000D01*
X384739D01*
X384609Y34018D01*
X384461Y34037D01*
X384276Y34074D01*
X384072Y34111D01*
X383850Y34167D01*
X383628Y34241D01*
X383387Y34315D01*
X383147Y34426D01*
X382906Y34555D01*
X382665Y34704D01*
X382424Y34889D01*
X382202Y35092D01*
X381998Y35315D01*
X381980Y35333D01*
X381943Y35389D01*
X381887Y35481D01*
X381795Y35629D01*
X381702Y35796D01*
X381610Y36018D01*
X381480Y36277D01*
X381369Y36574D01*
X381258Y36907D01*
X381147Y37296D01*
X381036Y37722D01*
X380943Y38203D01*
X380850Y38722D01*
X380795Y39277D01*
X380758Y39888D01*
X380739Y40536D01*
Y40555D01*
Y40629D01*
Y40759D01*
Y40907D01*
X380758Y41110D01*
Y41333D01*
X380776Y41573D01*
X380795Y41851D01*
X380850Y42425D01*
X380943Y43036D01*
X381054Y43647D01*
X381128Y43925D01*
X381202Y44203D01*
Y44221D01*
X381221Y44258D01*
X381258Y44332D01*
X381295Y44425D01*
X381332Y44555D01*
X381406Y44684D01*
X381554Y44999D01*
X381739Y45332D01*
X381980Y45684D01*
X382258Y46036D01*
X382591Y46332D01*
X382609D01*
X382628Y46369D01*
X382683Y46406D01*
X382758Y46443D01*
X382850Y46517D01*
X382961Y46573D01*
X383239Y46721D01*
X383572Y46851D01*
X383961Y46980D01*
X384424Y47054D01*
X384924Y47091D01*
X385091D01*
X385294Y47073D01*
D02*
G37*
G36*
X417217Y62871D02*
X417347D01*
X417476Y62853D01*
X417791Y62797D01*
X418124Y62705D01*
X418476Y62557D01*
X418828Y62372D01*
X419124Y62112D01*
X419161Y62075D01*
X419235Y61964D01*
X419365Y61798D01*
X419421Y61668D01*
X419495Y61538D01*
X419569Y61372D01*
X419624Y61205D01*
X419698Y61020D01*
X419754Y60798D01*
X419791Y60575D01*
X419828Y60316D01*
X419865Y60057D01*
Y59761D01*
Y53391D01*
X418291D01*
Y59224D01*
Y59242D01*
Y59261D01*
Y59372D01*
Y59538D01*
X418272Y59742D01*
X418254Y59964D01*
X418235Y60187D01*
X418198Y60409D01*
X418143Y60575D01*
Y60594D01*
X418106Y60649D01*
X418069Y60724D01*
X418013Y60816D01*
X417939Y60927D01*
X417847Y61038D01*
X417735Y61150D01*
X417587Y61261D01*
X417569Y61279D01*
X417513Y61298D01*
X417439Y61335D01*
X417310Y61390D01*
X417180Y61446D01*
X417013Y61483D01*
X416847Y61501D01*
X416643Y61520D01*
X416550D01*
X416476Y61501D01*
X416291Y61483D01*
X416069Y61446D01*
X415810Y61353D01*
X415532Y61242D01*
X415254Y61075D01*
X414995Y60853D01*
X414977Y60816D01*
X414902Y60724D01*
X414791Y60575D01*
X414680Y60353D01*
X414551Y60057D01*
X414458Y59705D01*
X414384Y59279D01*
X414347Y58779D01*
Y53391D01*
X412773D01*
Y59409D01*
Y59427D01*
Y59465D01*
Y59502D01*
Y59576D01*
X412755Y59779D01*
X412718Y60002D01*
X412680Y60261D01*
X412606Y60520D01*
X412514Y60761D01*
X412384Y60983D01*
X412366Y61001D01*
X412310Y61075D01*
X412217Y61150D01*
X412088Y61261D01*
X411921Y61353D01*
X411699Y61446D01*
X411440Y61501D01*
X411125Y61520D01*
X411014D01*
X410884Y61501D01*
X410736Y61483D01*
X410551Y61427D01*
X410329Y61372D01*
X410125Y61279D01*
X409903Y61168D01*
X409884Y61150D01*
X409810Y61094D01*
X409718Y61020D01*
X409588Y60909D01*
X409459Y60761D01*
X409329Y60575D01*
X409199Y60372D01*
X409088Y60131D01*
X409070Y60094D01*
X409051Y60002D01*
X409014Y59853D01*
X408959Y59650D01*
X408903Y59372D01*
X408866Y59039D01*
X408848Y58650D01*
X408829Y58205D01*
Y53391D01*
X407255D01*
Y62686D01*
X408662D01*
Y61353D01*
X408681Y61390D01*
X408736Y61464D01*
X408848Y61594D01*
X408977Y61742D01*
X409144Y61927D01*
X409347Y62112D01*
X409570Y62298D01*
X409829Y62464D01*
X409866Y62483D01*
X409958Y62538D01*
X410107Y62594D01*
X410310Y62686D01*
X410551Y62760D01*
X410829Y62816D01*
X411144Y62871D01*
X411477Y62890D01*
X411643D01*
X411847Y62871D01*
X412069Y62835D01*
X412347Y62779D01*
X412625Y62705D01*
X412903Y62594D01*
X413162Y62446D01*
X413199Y62427D01*
X413273Y62372D01*
X413384Y62279D01*
X413532Y62131D01*
X413680Y61964D01*
X413847Y61761D01*
X413995Y61520D01*
X414106Y61242D01*
X414125Y61261D01*
X414162Y61316D01*
X414217Y61390D01*
X414310Y61501D01*
X414421Y61631D01*
X414551Y61761D01*
X414699Y61909D01*
X414884Y62075D01*
X415088Y62223D01*
X415291Y62372D01*
X415532Y62501D01*
X415791Y62631D01*
X416069Y62742D01*
X416365Y62816D01*
X416661Y62871D01*
X416995Y62890D01*
X417124D01*
X417217Y62871D01*
D02*
G37*
G36*
X402293D02*
X402422D01*
X402552Y62853D01*
X402867Y62797D01*
X403200Y62705D01*
X403552Y62557D01*
X403904Y62372D01*
X404200Y62112D01*
X404237Y62075D01*
X404311Y61964D01*
X404440Y61798D01*
X404496Y61668D01*
X404570Y61538D01*
X404644Y61372D01*
X404700Y61205D01*
X404774Y61020D01*
X404829Y60798D01*
X404866Y60575D01*
X404903Y60316D01*
X404940Y60057D01*
Y59761D01*
Y53391D01*
X403367D01*
Y59224D01*
Y59242D01*
Y59261D01*
Y59372D01*
Y59538D01*
X403348Y59742D01*
X403330Y59964D01*
X403311Y60187D01*
X403274Y60409D01*
X403218Y60575D01*
Y60594D01*
X403181Y60649D01*
X403144Y60724D01*
X403089Y60816D01*
X403015Y60927D01*
X402922Y61038D01*
X402811Y61150D01*
X402663Y61261D01*
X402644Y61279D01*
X402589Y61298D01*
X402515Y61335D01*
X402385Y61390D01*
X402256Y61446D01*
X402089Y61483D01*
X401922Y61501D01*
X401719Y61520D01*
X401626D01*
X401552Y61501D01*
X401367Y61483D01*
X401145Y61446D01*
X400885Y61353D01*
X400608Y61242D01*
X400330Y61075D01*
X400071Y60853D01*
X400052Y60816D01*
X399978Y60724D01*
X399867Y60575D01*
X399756Y60353D01*
X399626Y60057D01*
X399534Y59705D01*
X399460Y59279D01*
X399422Y58779D01*
Y53391D01*
X397849D01*
Y59409D01*
Y59427D01*
Y59465D01*
Y59502D01*
Y59576D01*
X397830Y59779D01*
X397793Y60002D01*
X397756Y60261D01*
X397682Y60520D01*
X397589Y60761D01*
X397460Y60983D01*
X397441Y61001D01*
X397386Y61075D01*
X397293Y61150D01*
X397164Y61261D01*
X396997Y61353D01*
X396775Y61446D01*
X396515Y61501D01*
X396201Y61520D01*
X396090D01*
X395960Y61501D01*
X395812Y61483D01*
X395627Y61427D01*
X395404Y61372D01*
X395201Y61279D01*
X394979Y61168D01*
X394960Y61150D01*
X394886Y61094D01*
X394793Y61020D01*
X394664Y60909D01*
X394534Y60761D01*
X394404Y60575D01*
X394275Y60372D01*
X394164Y60131D01*
X394145Y60094D01*
X394127Y60002D01*
X394090Y59853D01*
X394034Y59650D01*
X393979Y59372D01*
X393942Y59039D01*
X393923Y58650D01*
X393905Y58205D01*
Y53391D01*
X392331D01*
Y62686D01*
X393738D01*
Y61353D01*
X393756Y61390D01*
X393812Y61464D01*
X393923Y61594D01*
X394053Y61742D01*
X394219Y61927D01*
X394423Y62112D01*
X394645Y62298D01*
X394905Y62464D01*
X394941Y62483D01*
X395034Y62538D01*
X395182Y62594D01*
X395386Y62686D01*
X395627Y62760D01*
X395904Y62816D01*
X396219Y62871D01*
X396553Y62890D01*
X396719D01*
X396923Y62871D01*
X397145Y62835D01*
X397423Y62779D01*
X397701Y62705D01*
X397978Y62594D01*
X398237Y62446D01*
X398274Y62427D01*
X398349Y62372D01*
X398460Y62279D01*
X398608Y62131D01*
X398756Y61964D01*
X398923Y61761D01*
X399071Y61520D01*
X399182Y61242D01*
X399200Y61261D01*
X399237Y61316D01*
X399293Y61390D01*
X399385Y61501D01*
X399497Y61631D01*
X399626Y61761D01*
X399774Y61909D01*
X399959Y62075D01*
X400163Y62223D01*
X400367Y62372D01*
X400608Y62501D01*
X400867Y62631D01*
X401145Y62742D01*
X401441Y62816D01*
X401737Y62871D01*
X402070Y62890D01*
X402200D01*
X402293Y62871D01*
D02*
G37*
G36*
X431419Y57242D02*
X426549D01*
Y58816D01*
X431419D01*
Y57242D01*
D02*
G37*
G36*
X389831Y64538D02*
X384702D01*
X384017Y61075D01*
X384035Y61094D01*
X384072Y61112D01*
X384128Y61150D01*
X384220Y61205D01*
X384332Y61261D01*
X384461Y61335D01*
X384757Y61483D01*
X385128Y61631D01*
X385535Y61761D01*
X385979Y61853D01*
X386202Y61890D01*
X386609D01*
X386720Y61872D01*
X386868Y61853D01*
X387035Y61835D01*
X387220Y61798D01*
X387424Y61742D01*
X387868Y61612D01*
X388109Y61520D01*
X388350Y61390D01*
X388590Y61261D01*
X388831Y61112D01*
X389053Y60927D01*
X389275Y60724D01*
X389294Y60705D01*
X389331Y60668D01*
X389386Y60613D01*
X389461Y60520D01*
X389553Y60390D01*
X389646Y60261D01*
X389757Y60094D01*
X389868Y59909D01*
X389961Y59705D01*
X390072Y59483D01*
X390164Y59224D01*
X390257Y58965D01*
X390331Y58687D01*
X390386Y58372D01*
X390424Y58057D01*
X390442Y57724D01*
Y57705D01*
Y57650D01*
Y57557D01*
X390424Y57428D01*
X390405Y57280D01*
X390386Y57113D01*
X390349Y56909D01*
X390312Y56705D01*
X390201Y56224D01*
X390016Y55724D01*
X389905Y55465D01*
X389757Y55224D01*
X389609Y54965D01*
X389424Y54724D01*
X389405Y54706D01*
X389368Y54650D01*
X389294Y54576D01*
X389201Y54483D01*
X389072Y54372D01*
X388924Y54224D01*
X388739Y54095D01*
X388535Y53946D01*
X388313Y53798D01*
X388053Y53669D01*
X387776Y53539D01*
X387479Y53410D01*
X387165Y53317D01*
X386813Y53243D01*
X386442Y53187D01*
X386054Y53169D01*
X385887D01*
X385757Y53187D01*
X385609Y53206D01*
X385443Y53224D01*
X385239Y53243D01*
X385035Y53298D01*
X384572Y53410D01*
X384109Y53576D01*
X383869Y53687D01*
X383628Y53817D01*
X383406Y53965D01*
X383184Y54132D01*
X383165Y54150D01*
X383128Y54169D01*
X383091Y54243D01*
X383017Y54317D01*
X382924Y54409D01*
X382832Y54521D01*
X382721Y54669D01*
X382628Y54835D01*
X382517Y55002D01*
X382406Y55206D01*
X382202Y55650D01*
X382035Y56168D01*
X381980Y56446D01*
X381943Y56743D01*
X383591Y56872D01*
Y56854D01*
Y56817D01*
X383609Y56761D01*
X383628Y56669D01*
X383683Y56465D01*
X383758Y56187D01*
X383869Y55909D01*
X384017Y55595D01*
X384202Y55317D01*
X384424Y55058D01*
X384461Y55039D01*
X384535Y54965D01*
X384683Y54872D01*
X384887Y54761D01*
X385109Y54650D01*
X385387Y54558D01*
X385702Y54483D01*
X386054Y54465D01*
X386165D01*
X386239Y54483D01*
X386461Y54502D01*
X386720Y54576D01*
X387035Y54669D01*
X387350Y54817D01*
X387683Y55039D01*
X387831Y55169D01*
X387979Y55317D01*
X387998Y55335D01*
X388016Y55354D01*
X388053Y55409D01*
X388109Y55465D01*
X388238Y55669D01*
X388387Y55928D01*
X388516Y56243D01*
X388646Y56631D01*
X388739Y57094D01*
X388775Y57335D01*
Y57594D01*
Y57613D01*
Y57650D01*
Y57724D01*
X388757Y57817D01*
Y57928D01*
X388739Y58057D01*
X388683Y58354D01*
X388590Y58705D01*
X388461Y59057D01*
X388276Y59390D01*
X388016Y59705D01*
Y59724D01*
X387979Y59742D01*
X387887Y59835D01*
X387720Y59964D01*
X387498Y60113D01*
X387202Y60242D01*
X386868Y60372D01*
X386479Y60464D01*
X386257Y60501D01*
X385905D01*
X385757Y60483D01*
X385572Y60464D01*
X385350Y60409D01*
X385128Y60353D01*
X384887Y60261D01*
X384646Y60150D01*
X384628Y60131D01*
X384554Y60094D01*
X384443Y60002D01*
X384295Y59909D01*
X384146Y59779D01*
X383998Y59613D01*
X383832Y59446D01*
X383702Y59242D01*
X382221Y59446D01*
X383461Y66038D01*
X389831D01*
Y64538D01*
D02*
G37*
G36*
X468730Y66186D02*
X469045Y66167D01*
X469378Y66149D01*
X469693Y66112D01*
X469971Y66075D01*
X470008D01*
X470137Y66038D01*
X470304Y66001D01*
X470526Y65945D01*
X470767Y65853D01*
X471026Y65742D01*
X471304Y65612D01*
X471545Y65464D01*
X471582Y65445D01*
X471656Y65390D01*
X471767Y65279D01*
X471915Y65149D01*
X472082Y64982D01*
X472248Y64760D01*
X472434Y64520D01*
X472582Y64242D01*
X472600Y64205D01*
X472637Y64112D01*
X472711Y63945D01*
X472785Y63723D01*
X472841Y63464D01*
X472915Y63168D01*
X472952Y62835D01*
X472971Y62483D01*
Y62464D01*
Y62409D01*
Y62335D01*
X472952Y62205D01*
X472933Y62075D01*
X472915Y61909D01*
X472878Y61723D01*
X472841Y61520D01*
X472711Y61094D01*
X472637Y60872D01*
X472526Y60631D01*
X472397Y60390D01*
X472267Y60168D01*
X472100Y59946D01*
X471915Y59724D01*
X471897Y59705D01*
X471860Y59668D01*
X471804Y59613D01*
X471711Y59557D01*
X471600Y59465D01*
X471452Y59372D01*
X471267Y59261D01*
X471063Y59168D01*
X470823Y59057D01*
X470545Y58946D01*
X470248Y58854D01*
X469897Y58779D01*
X469526Y58705D01*
X469119Y58650D01*
X468656Y58613D01*
X468175Y58594D01*
X464897D01*
Y53391D01*
X463194D01*
Y66205D01*
X468452D01*
X468730Y66186D01*
D02*
G37*
G36*
X447510Y64686D02*
X443288D01*
Y53391D01*
X441585D01*
Y64686D01*
X437363Y64686D01*
Y66205D01*
X447510Y66205D01*
Y64686D01*
D02*
G37*
G36*
X379647Y53391D02*
X377851D01*
Y55187D01*
X379647D01*
Y53391D01*
D02*
G37*
G36*
X455176Y66408D02*
X455343D01*
X455509Y66390D01*
X455732Y66353D01*
X455954Y66316D01*
X456435Y66223D01*
X456991Y66075D01*
X457528Y65853D01*
X457805Y65723D01*
X458083Y65575D01*
X458102Y65557D01*
X458139Y65538D01*
X458213Y65482D01*
X458324Y65427D01*
X458435Y65334D01*
X458583Y65223D01*
X458898Y64964D01*
X459231Y64631D01*
X459602Y64223D01*
X459953Y63742D01*
X460250Y63205D01*
Y63186D01*
X460287Y63131D01*
X460324Y63057D01*
X460361Y62946D01*
X460435Y62797D01*
X460490Y62631D01*
X460564Y62427D01*
X460638Y62205D01*
X460694Y61964D01*
X460768Y61705D01*
X460842Y61409D01*
X460898Y61112D01*
X460972Y60464D01*
X461009Y59761D01*
Y59742D01*
Y59668D01*
Y59576D01*
X460990Y59427D01*
Y59261D01*
X460972Y59057D01*
X460935Y58835D01*
X460916Y58594D01*
X460824Y58057D01*
X460676Y57465D01*
X460472Y56872D01*
X460361Y56576D01*
X460213Y56280D01*
Y56261D01*
X460176Y56206D01*
X460139Y56132D01*
X460064Y56020D01*
X459990Y55891D01*
X459898Y55761D01*
X459638Y55409D01*
X459324Y55039D01*
X458953Y54650D01*
X458509Y54280D01*
X457990Y53947D01*
X457972D01*
X457935Y53910D01*
X457842Y53872D01*
X457731Y53817D01*
X457602Y53761D01*
X457454Y53706D01*
X457268Y53632D01*
X457065Y53558D01*
X456842Y53484D01*
X456602Y53410D01*
X456065Y53299D01*
X455491Y53206D01*
X454880Y53169D01*
X454695D01*
X454584Y53187D01*
X454417D01*
X454232Y53224D01*
X454028Y53243D01*
X453787Y53280D01*
X453287Y53391D01*
X452750Y53539D01*
X452195Y53761D01*
X451917Y53891D01*
X451639Y54039D01*
X451621Y54058D01*
X451584Y54076D01*
X451510Y54132D01*
X451399Y54206D01*
X451287Y54280D01*
X451158Y54391D01*
X450843Y54669D01*
X450491Y55002D01*
X450121Y55409D01*
X449788Y55872D01*
X449473Y56409D01*
Y56428D01*
X449436Y56483D01*
X449399Y56557D01*
X449362Y56669D01*
X449306Y56817D01*
X449251Y56983D01*
X449177Y57168D01*
X449121Y57372D01*
X449047Y57613D01*
X448973Y57854D01*
X448862Y58409D01*
X448788Y58983D01*
X448751Y59613D01*
Y59631D01*
Y59650D01*
Y59761D01*
X448769Y59927D01*
Y60150D01*
X448806Y60409D01*
X448843Y60724D01*
X448899Y61075D01*
X448973Y61446D01*
X449047Y61835D01*
X449158Y62242D01*
X449306Y62649D01*
X449473Y63075D01*
X449658Y63483D01*
X449899Y63890D01*
X450158Y64260D01*
X450454Y64612D01*
X450473Y64631D01*
X450528Y64686D01*
X450639Y64779D01*
X450769Y64890D01*
X450936Y65038D01*
X451139Y65186D01*
X451380Y65353D01*
X451658Y65519D01*
X451954Y65686D01*
X452287Y65853D01*
X452658Y66001D01*
X453047Y66149D01*
X453473Y66260D01*
X453917Y66353D01*
X454380Y66408D01*
X454880Y66427D01*
X455046D01*
X455176Y66408D01*
D02*
G37*
G36*
X371555Y66241D02*
X371796Y66205D01*
X372074Y66149D01*
X372370Y66075D01*
X372685Y65982D01*
X372981Y65834D01*
X372999D01*
X373018Y65816D01*
X373111Y65760D01*
X373259Y65668D01*
X373444Y65538D01*
X373647Y65353D01*
X373870Y65149D01*
X374073Y64908D01*
X374277Y64631D01*
X374296Y64594D01*
X374370Y64501D01*
X374444Y64334D01*
X374573Y64094D01*
X374684Y63816D01*
X374832Y63501D01*
X374962Y63131D01*
X375073Y62723D01*
Y62705D01*
X375092Y62668D01*
X375110Y62612D01*
X375129Y62520D01*
X375147Y62409D01*
X375166Y62279D01*
X375203Y62112D01*
X375221Y61927D01*
X375258Y61723D01*
X375277Y61501D01*
X375295Y61242D01*
X375332Y60983D01*
X375351Y60687D01*
Y60390D01*
X375369Y60057D01*
Y59705D01*
Y59687D01*
Y59613D01*
Y59483D01*
Y59335D01*
X375351Y59131D01*
Y58909D01*
X375332Y58668D01*
X375314Y58409D01*
X375258Y57817D01*
X375166Y57205D01*
X375055Y56613D01*
X374981Y56335D01*
X374888Y56057D01*
Y56039D01*
X374869Y56002D01*
X374832Y55928D01*
X374795Y55835D01*
X374758Y55706D01*
X374684Y55576D01*
X374536Y55261D01*
X374351Y54928D01*
X374110Y54558D01*
X373833Y54224D01*
X373499Y53910D01*
X373481D01*
X373462Y53872D01*
X373407Y53835D01*
X373333Y53798D01*
X373240Y53743D01*
X373148Y53669D01*
X372870Y53539D01*
X372536Y53410D01*
X372148Y53280D01*
X371685Y53206D01*
X371185Y53169D01*
X371000D01*
X370870Y53187D01*
X370722Y53206D01*
X370537Y53243D01*
X370333Y53280D01*
X370111Y53335D01*
X369889Y53410D01*
X369648Y53484D01*
X369407Y53595D01*
X369166Y53724D01*
X368926Y53872D01*
X368685Y54058D01*
X368463Y54261D01*
X368259Y54483D01*
X368241Y54502D01*
X368204Y54558D01*
X368148Y54650D01*
X368055Y54798D01*
X367963Y54965D01*
X367870Y55187D01*
X367741Y55446D01*
X367630Y55743D01*
X367518Y56076D01*
X367407Y56465D01*
X367296Y56891D01*
X367204Y57372D01*
X367111Y57891D01*
X367056Y58446D01*
X367019Y59057D01*
X367000Y59705D01*
Y59724D01*
Y59798D01*
Y59927D01*
Y60075D01*
X367019Y60279D01*
Y60501D01*
X367037Y60742D01*
X367056Y61020D01*
X367111Y61594D01*
X367204Y62205D01*
X367315Y62816D01*
X367389Y63094D01*
X367463Y63372D01*
Y63390D01*
X367481Y63427D01*
X367518Y63501D01*
X367556Y63594D01*
X367593Y63723D01*
X367667Y63853D01*
X367815Y64168D01*
X368000Y64501D01*
X368241Y64853D01*
X368518Y65205D01*
X368852Y65501D01*
X368870D01*
X368889Y65538D01*
X368944Y65575D01*
X369018Y65612D01*
X369111Y65686D01*
X369222Y65742D01*
X369500Y65890D01*
X369833Y66019D01*
X370222Y66149D01*
X370685Y66223D01*
X371185Y66260D01*
X371351D01*
X371555Y66241D01*
D02*
G37*
G36*
X168044Y59718D02*
X163323D01*
Y65106D01*
X168044D01*
Y59718D01*
D02*
G37*
G36*
X146658Y55107D02*
X147047Y55051D01*
X147880Y54940D01*
X148880Y54718D01*
X149935Y54385D01*
X150991Y53885D01*
X152046Y53274D01*
X152102D01*
X152157Y53163D01*
X152491Y52941D01*
X152991Y52496D01*
X153602Y51941D01*
X154268Y51219D01*
X154935Y50330D01*
X155601Y49274D01*
X156157Y48108D01*
Y48052D01*
X156212Y47941D01*
X156268Y47775D01*
X156379Y47552D01*
X156490Y47219D01*
X156601Y46830D01*
X156879Y45941D01*
X157157Y44830D01*
X157379Y43608D01*
X157546Y42220D01*
X157601Y40775D01*
Y40720D01*
Y40609D01*
Y40386D01*
Y40053D01*
X157546Y39664D01*
Y39220D01*
X157435Y38220D01*
X157212Y36998D01*
X156934Y35720D01*
X156546Y34387D01*
X156046Y33054D01*
Y32998D01*
X155990Y32887D01*
X155879Y32720D01*
X155768Y32498D01*
X155379Y31887D01*
X154879Y31110D01*
X154268Y30276D01*
X153490Y29443D01*
X152602Y28610D01*
X151546Y27832D01*
X151491D01*
X151435Y27777D01*
X151268Y27666D01*
X151046Y27554D01*
X150491Y27277D01*
X149713Y26943D01*
X148769Y26610D01*
X147769Y26332D01*
X146602Y26110D01*
X145436Y26054D01*
X145047D01*
X144602Y26110D01*
X144047Y26166D01*
X143380Y26277D01*
X142658Y26443D01*
X141936Y26666D01*
X141214Y26999D01*
X141158Y27054D01*
X140881Y27166D01*
X140547Y27388D01*
X140103Y27721D01*
X139658Y28054D01*
X139103Y28499D01*
X138603Y28999D01*
X138159Y29554D01*
Y16000D01*
X133437Y16000D01*
Y54552D01*
X137714Y54552D01*
Y50885D01*
X137770Y50996D01*
X137992Y51219D01*
X138270Y51607D01*
X138714Y52052D01*
X139214Y52607D01*
X139770Y53107D01*
X140436Y53607D01*
X141103Y54052D01*
X141214Y54107D01*
X141436Y54218D01*
X141881Y54385D01*
X142436Y54607D01*
X143103Y54829D01*
X143880Y54996D01*
X144769Y55107D01*
X145769Y55163D01*
X146380D01*
X146658Y55107D01*
D02*
G37*
G36*
X189209D02*
X189820Y55051D01*
X190542Y54940D01*
X191320Y54774D01*
X192153Y54552D01*
X192931Y54218D01*
X193042Y54163D01*
X193264Y54052D01*
X193653Y53885D01*
X194097Y53607D01*
X194653Y53274D01*
X195153Y52829D01*
X195653Y52385D01*
X196097Y51830D01*
X196153Y51774D01*
X196264Y51552D01*
X196430Y51274D01*
X196708Y50885D01*
X196930Y50330D01*
X197153Y49774D01*
X197430Y49108D01*
X197597Y48386D01*
Y48330D01*
X197652Y48108D01*
X197708Y47775D01*
X197764Y47330D01*
Y46663D01*
X197819Y45886D01*
X197875Y44942D01*
Y43775D01*
Y26666D01*
X193153D01*
Y43553D01*
Y43608D01*
Y43664D01*
Y44053D01*
Y44553D01*
X193097Y45164D01*
X193042Y45886D01*
X192931Y46608D01*
X192764Y47275D01*
X192598Y47886D01*
Y47941D01*
X192486Y48108D01*
X192320Y48386D01*
X192153Y48719D01*
X191875Y49052D01*
X191542Y49441D01*
X191098Y49830D01*
X190598Y50163D01*
X190542Y50219D01*
X190375Y50330D01*
X190042Y50441D01*
X189653Y50608D01*
X189209Y50774D01*
X188653Y50941D01*
X187987Y50996D01*
X187320Y51052D01*
X187043D01*
X186820Y50996D01*
X186265Y50941D01*
X185543Y50830D01*
X184765Y50552D01*
X183876Y50219D01*
X182987Y49774D01*
X182154Y49108D01*
X182043Y48997D01*
X181821Y48719D01*
X181654Y48497D01*
X181488Y48219D01*
X181265Y47886D01*
X181099Y47497D01*
X180877Y47052D01*
X180654Y46497D01*
X180488Y45886D01*
X180321Y45219D01*
X180210Y44497D01*
X180099Y43719D01*
X179988Y42775D01*
Y41831D01*
Y26666D01*
X175266D01*
Y54552D01*
X179488D01*
Y50552D01*
X179543Y50608D01*
X179654Y50774D01*
X179821Y50996D01*
X180043Y51274D01*
X180376Y51607D01*
X180765Y51996D01*
X181210Y52441D01*
X181765Y52885D01*
X182321Y53274D01*
X182987Y53718D01*
X183710Y54107D01*
X184487Y54440D01*
X185376Y54718D01*
X186265Y54940D01*
X187265Y55107D01*
X188320Y55163D01*
X188764D01*
X189209Y55107D01*
D02*
G37*
G36*
X168044Y26666D02*
X163323D01*
Y54552D01*
X168044D01*
Y26666D01*
D02*
G37*
G36*
X75165Y26666D02*
X70444D01*
Y56718D01*
X70388Y56662D01*
X70110Y56440D01*
X69777Y56107D01*
X69221Y55718D01*
X68610Y55218D01*
X67833Y54663D01*
X66944Y54052D01*
X65944Y53441D01*
X65888D01*
X65833Y53385D01*
X65500Y53163D01*
X64944Y52885D01*
X64277Y52552D01*
X63500Y52163D01*
X62667Y51774D01*
X61833Y51385D01*
X61000Y51052D01*
Y55607D01*
X61056D01*
X61167Y55718D01*
X61389Y55774D01*
X61667Y55940D01*
X62000Y56107D01*
X62389Y56329D01*
X63333Y56885D01*
X64444Y57496D01*
X65555Y58273D01*
X66722Y59162D01*
X67888Y60107D01*
X67944Y60162D01*
X67999Y60218D01*
X68166Y60384D01*
X68388Y60551D01*
X68888Y61106D01*
X69555Y61773D01*
X70221Y62551D01*
X70943Y63439D01*
X71554Y64328D01*
X72110Y65273D01*
X75165D01*
Y26666D01*
D02*
G37*
G36*
X100607Y65217D02*
X101051Y65162D01*
X101551Y65106D01*
X102107Y65051D01*
X102662Y64884D01*
X103996Y64550D01*
X105329Y64051D01*
X105995Y63717D01*
X106662Y63328D01*
X107273Y62828D01*
X107884Y62329D01*
X107940Y62273D01*
X107995Y62217D01*
X108162Y62051D01*
X108384Y61829D01*
X108606Y61495D01*
X108884Y61162D01*
X109439Y60329D01*
X109995Y59273D01*
X110495Y58051D01*
X110884Y56662D01*
X110939Y55940D01*
X110995Y55163D01*
Y55107D01*
Y55051D01*
Y54718D01*
X110939Y54218D01*
X110828Y53607D01*
X110661Y52829D01*
X110384Y52052D01*
X110050Y51274D01*
X109551Y50496D01*
X109495Y50385D01*
X109273Y50163D01*
X108940Y49830D01*
X108495Y49385D01*
X107884Y48885D01*
X107162Y48386D01*
X106329Y47886D01*
X105329Y47441D01*
X105384D01*
X105495Y47386D01*
X105662Y47330D01*
X105884Y47219D01*
X106551Y46941D01*
X107329Y46552D01*
X108162Y45997D01*
X109051Y45386D01*
X109884Y44608D01*
X110661Y43719D01*
Y43664D01*
X110717Y43608D01*
X110939Y43275D01*
X111273Y42719D01*
X111606Y41997D01*
X111939Y41108D01*
X112273Y40053D01*
X112495Y38886D01*
X112550Y37609D01*
Y37553D01*
Y37387D01*
Y37109D01*
X112495Y36776D01*
X112439Y36387D01*
X112384Y35887D01*
X112273Y35331D01*
X112106Y34720D01*
X111717Y33443D01*
X111439Y32720D01*
X111050Y32054D01*
X110661Y31332D01*
X110217Y30665D01*
X109662Y29999D01*
X109051Y29332D01*
X108995Y29276D01*
X108884Y29165D01*
X108717Y28999D01*
X108440Y28832D01*
X108051Y28554D01*
X107662Y28277D01*
X107162Y27999D01*
X106606Y27666D01*
X105995Y27332D01*
X105273Y27054D01*
X104495Y26777D01*
X103718Y26499D01*
X102829Y26332D01*
X101885Y26166D01*
X100940Y26054D01*
X99885Y25999D01*
X99329D01*
X98940Y26054D01*
X98441Y26110D01*
X97885Y26166D01*
X97274Y26277D01*
X96607Y26443D01*
X95108Y26832D01*
X94330Y27110D01*
X93608Y27388D01*
X92830Y27777D01*
X92052Y28221D01*
X91330Y28721D01*
X90664Y29332D01*
X90608Y29388D01*
X90497Y29499D01*
X90330Y29665D01*
X90108Y29943D01*
X89886Y30276D01*
X89553Y30665D01*
X89275Y31109D01*
X88942Y31665D01*
X88608Y32220D01*
X88330Y32887D01*
X87775Y34276D01*
X87553Y35109D01*
X87386Y35942D01*
X87275Y36831D01*
X87219Y37720D01*
Y37775D01*
Y37887D01*
Y38109D01*
X87275Y38331D01*
Y38664D01*
X87331Y39053D01*
X87442Y39942D01*
X87664Y40942D01*
X87997Y41942D01*
X88497Y42997D01*
X89108Y43997D01*
Y44053D01*
X89219Y44108D01*
X89441Y44386D01*
X89886Y44830D01*
X90497Y45386D01*
X91275Y45941D01*
X92219Y46552D01*
X93274Y47052D01*
X94552Y47441D01*
X94496D01*
X94441Y47497D01*
X94274Y47552D01*
X94052Y47663D01*
X93552Y47886D01*
X92886Y48219D01*
X92163Y48663D01*
X91441Y49219D01*
X90775Y49830D01*
X90164Y50496D01*
X90108Y50608D01*
X89942Y50830D01*
X89719Y51274D01*
X89497Y51830D01*
X89219Y52552D01*
X88997Y53385D01*
X88830Y54329D01*
X88775Y55329D01*
Y55385D01*
Y55496D01*
Y55718D01*
X88830Y56051D01*
X88886Y56385D01*
X88942Y56829D01*
X89164Y57773D01*
X89497Y58884D01*
X90053Y60051D01*
X90386Y60662D01*
X90775Y61273D01*
X91275Y61829D01*
X91775Y62384D01*
X91830Y62440D01*
X91941Y62495D01*
X92108Y62662D01*
X92330Y62828D01*
X92608Y63051D01*
X92997Y63273D01*
X93441Y63551D01*
X93885Y63828D01*
X94441Y64106D01*
X95052Y64384D01*
X95719Y64606D01*
X96441Y64828D01*
X97996Y65162D01*
X98885Y65217D01*
X99774Y65273D01*
X100274D01*
X100607Y65217D01*
D02*
G37*
G36*
X228536Y49000D02*
X227358D01*
Y56503D01*
X227344Y56489D01*
X227274Y56434D01*
X227191Y56350D01*
X227052Y56253D01*
X226900Y56128D01*
X226706Y55990D01*
X226484Y55837D01*
X226234Y55685D01*
X226220D01*
X226207Y55671D01*
X226123Y55615D01*
X225985Y55546D01*
X225818Y55463D01*
X225624Y55366D01*
X225416Y55269D01*
X225208Y55171D01*
X225000Y55088D01*
Y56225D01*
X225014D01*
X225042Y56253D01*
X225097Y56267D01*
X225166Y56309D01*
X225250Y56350D01*
X225347Y56406D01*
X225583Y56544D01*
X225860Y56697D01*
X226137Y56891D01*
X226429Y57113D01*
X226720Y57349D01*
X226734Y57363D01*
X226747Y57376D01*
X226789Y57418D01*
X226845Y57460D01*
X226969Y57598D01*
X227136Y57765D01*
X227302Y57959D01*
X227482Y58181D01*
X227635Y58403D01*
X227774Y58639D01*
X228536D01*
Y49000D01*
D02*
G37*
G36*
X170036Y175930D02*
X168858D01*
Y183433D01*
X168844Y183419D01*
X168774Y183364D01*
X168691Y183281D01*
X168552Y183183D01*
X168400Y183059D01*
X168206Y182920D01*
X167984Y182768D01*
X167734Y182615D01*
X167720D01*
X167707Y182601D01*
X167623Y182546D01*
X167485Y182476D01*
X167318Y182393D01*
X167124Y182296D01*
X166916Y182199D01*
X166708Y182102D01*
X166500Y182019D01*
Y183156D01*
X166514D01*
X166542Y183183D01*
X166597Y183197D01*
X166666Y183239D01*
X166750Y183281D01*
X166847Y183336D01*
X167083Y183475D01*
X167360Y183627D01*
X167637Y183822D01*
X167928Y184043D01*
X168220Y184279D01*
X168234Y184293D01*
X168247Y184307D01*
X168289Y184349D01*
X168344Y184390D01*
X168469Y184529D01*
X168636Y184695D01*
X168802Y184889D01*
X168982Y185111D01*
X169135Y185333D01*
X169274Y185569D01*
X170036D01*
Y175930D01*
D02*
G37*
%LPC*%
G36*
X374991Y244124D02*
X374880D01*
X374756Y244096D01*
X374589Y244069D01*
X374409Y244013D01*
X374215Y243944D01*
X374035Y243833D01*
X373854Y243680D01*
X373840Y243666D01*
X373785Y243611D01*
X373716Y243514D01*
X373646Y243389D01*
X373563Y243237D01*
X373494Y243056D01*
X373438Y242862D01*
X373424Y242640D01*
Y242626D01*
Y242612D01*
X373438Y242529D01*
X373452Y242404D01*
X373480Y242252D01*
X373535Y242072D01*
X373605Y241891D01*
X373716Y241697D01*
X373854Y241531D01*
X373868Y241517D01*
X373937Y241461D01*
X374035Y241392D01*
X374159Y241323D01*
X374326Y241239D01*
X374520Y241170D01*
X374742Y241115D01*
X374991Y241101D01*
X375019D01*
X375102Y241115D01*
X375227Y241129D01*
X375394Y241156D01*
X375574Y241212D01*
X375754Y241281D01*
X375948Y241392D01*
X376115Y241531D01*
X376129Y241545D01*
X376184Y241614D01*
X376254Y241697D01*
X376337Y241822D01*
X376420Y241975D01*
X376489Y242155D01*
X376545Y242363D01*
X376559Y242585D01*
Y242599D01*
Y242612D01*
Y242696D01*
X376531Y242820D01*
X376503Y242973D01*
X376448Y243139D01*
X376364Y243320D01*
X376254Y243500D01*
X376101Y243680D01*
X376087Y243694D01*
X376018Y243750D01*
X375921Y243819D01*
X375796Y243902D01*
X375629Y243986D01*
X375449Y244055D01*
X375227Y244110D01*
X374991Y244124D01*
D02*
G37*
G36*
X374950Y240144D02*
X374867D01*
X374811Y240130D01*
X374659Y240116D01*
X374464Y240075D01*
X374243Y240005D01*
X374021Y239908D01*
X373785Y239769D01*
X373577Y239589D01*
X373549Y239562D01*
X373494Y239492D01*
X373410Y239367D01*
X373313Y239215D01*
X373202Y239007D01*
X373119Y238771D01*
X373064Y238507D01*
X373036Y238216D01*
Y238188D01*
Y238133D01*
X373050Y238036D01*
X373064Y237911D01*
X373092Y237759D01*
X373133Y237592D01*
X373189Y237426D01*
X373258Y237245D01*
X373272Y237232D01*
X373299Y237162D01*
X373355Y237079D01*
X373438Y236982D01*
X373535Y236857D01*
X373660Y236732D01*
X373799Y236621D01*
X373965Y236510D01*
X373993Y236497D01*
X374048Y236469D01*
X374146Y236427D01*
X374270Y236386D01*
X374423Y236344D01*
X374603Y236302D01*
X374797Y236275D01*
X374991Y236261D01*
X375075D01*
X375130Y236275D01*
X375297Y236289D01*
X375491Y236330D01*
X375713Y236399D01*
X375948Y236483D01*
X376170Y236621D01*
X376392Y236802D01*
X376420Y236829D01*
X376475Y236899D01*
X376572Y237024D01*
X376670Y237176D01*
X376767Y237370D01*
X376864Y237606D01*
X376919Y237883D01*
X376947Y238175D01*
Y238188D01*
Y238216D01*
Y238258D01*
X376933Y238313D01*
X376919Y238466D01*
X376878Y238674D01*
X376808Y238882D01*
X376711Y239118D01*
X376572Y239353D01*
X376378Y239575D01*
X376351Y239603D01*
X376281Y239659D01*
X376156Y239756D01*
X375990Y239867D01*
X375782Y239964D01*
X375532Y240061D01*
X375255Y240116D01*
X374950Y240144D01*
D02*
G37*
G36*
X348561Y240643D02*
X348478D01*
X348422Y240629D01*
X348284Y240616D01*
X348089Y240574D01*
X347881Y240504D01*
X347645Y240394D01*
X347424Y240255D01*
X347202Y240061D01*
X347174Y240033D01*
X347118Y239964D01*
X347021Y239839D01*
X346924Y239659D01*
X346827Y239450D01*
X346730Y239187D01*
X346675Y238896D01*
X346647Y238563D01*
Y238535D01*
Y238466D01*
X346661Y238341D01*
X346675Y238188D01*
X346702Y238008D01*
X346758Y237814D01*
X346813Y237606D01*
X346897Y237398D01*
X346911Y237370D01*
X346952Y237301D01*
X347008Y237204D01*
X347091Y237079D01*
X347188Y236954D01*
X347313Y236802D01*
X347451Y236677D01*
X347618Y236552D01*
X347645Y236538D01*
X347701Y236510D01*
X347798Y236455D01*
X347923Y236413D01*
X348062Y236358D01*
X348228Y236302D01*
X348408Y236275D01*
X348602Y236261D01*
X348672D01*
X348727Y236275D01*
X348866Y236289D01*
X349046Y236330D01*
X349240Y236413D01*
X349462Y236510D01*
X349684Y236663D01*
X349795Y236746D01*
X349892Y236857D01*
Y236871D01*
X349920Y236885D01*
X349975Y236968D01*
X350059Y237107D01*
X350170Y237287D01*
X350267Y237523D01*
X350350Y237800D01*
X350405Y238119D01*
X350433Y238494D01*
Y238507D01*
Y238535D01*
Y238591D01*
X350419Y238660D01*
Y238743D01*
X350405Y238840D01*
X350364Y239062D01*
X350308Y239312D01*
X350211Y239575D01*
X350073Y239825D01*
X349892Y240061D01*
X349865Y240089D01*
X349795Y240158D01*
X349684Y240241D01*
X349532Y240352D01*
X349338Y240463D01*
X349116Y240546D01*
X348852Y240616D01*
X348561Y240643D01*
D02*
G37*
G36*
X327116Y243139D02*
X324092Y238840D01*
X327116D01*
Y243139D01*
D02*
G37*
G36*
X274604Y244124D02*
X274521D01*
X274466Y244110D01*
X274313Y244083D01*
X274133Y244041D01*
X273925Y243958D01*
X273703Y243833D01*
X273592Y243750D01*
X273481Y243666D01*
X273384Y243556D01*
X273287Y243431D01*
Y243417D01*
X273259Y243389D01*
X273231Y243334D01*
X273190Y243264D01*
X273148Y243153D01*
X273093Y243029D01*
X273051Y242876D01*
X272996Y242696D01*
X272940Y242488D01*
X272885Y242252D01*
X272829Y241988D01*
X272787Y241697D01*
X272746Y241364D01*
X272718Y241004D01*
X272704Y240616D01*
X272691Y240186D01*
Y240158D01*
Y240089D01*
Y239964D01*
X272704Y239797D01*
Y239617D01*
X272718Y239395D01*
X272732Y239159D01*
X272760Y238910D01*
X272829Y238369D01*
X272871Y238105D01*
X272926Y237856D01*
X272982Y237620D01*
X273065Y237398D01*
X273148Y237204D01*
X273245Y237037D01*
Y237024D01*
X273273Y237010D01*
X273342Y236913D01*
X273467Y236788D01*
X273620Y236649D01*
X273828Y236510D01*
X274063Y236386D01*
X274327Y236289D01*
X274466Y236275D01*
X274618Y236261D01*
X274701D01*
X274757Y236275D01*
X274895Y236302D01*
X275090Y236358D01*
X275298Y236455D01*
X275534Y236594D01*
X275644Y236677D01*
X275755Y236788D01*
X275866Y236899D01*
X275977Y237037D01*
Y237051D01*
X276005Y237079D01*
X276033Y237121D01*
X276061Y237190D01*
X276116Y237287D01*
X276158Y237412D01*
X276213Y237551D01*
X276269Y237717D01*
X276310Y237925D01*
X276366Y238147D01*
X276421Y238410D01*
X276463Y238688D01*
X276490Y239021D01*
X276518Y239367D01*
X276546Y239756D01*
Y240186D01*
Y240199D01*
Y240213D01*
Y240283D01*
Y240407D01*
X276532Y240574D01*
Y240754D01*
X276518Y240976D01*
X276504Y241212D01*
X276476Y241475D01*
X276407Y242002D01*
X276366Y242266D01*
X276310Y242515D01*
X276255Y242751D01*
X276171Y242973D01*
X276088Y243167D01*
X275991Y243334D01*
Y243347D01*
X275963Y243361D01*
X275936Y243403D01*
X275894Y243458D01*
X275769Y243583D01*
X275617Y243736D01*
X275409Y243874D01*
X275173Y243999D01*
X275048Y244055D01*
X274909Y244096D01*
X274757Y244110D01*
X274604Y244124D01*
D02*
G37*
G36*
X271801Y184764D02*
X271579D01*
X271523Y184751D01*
X271371Y184737D01*
X271190Y184681D01*
X270969Y184612D01*
X270733Y184487D01*
X270497Y184335D01*
X270386Y184224D01*
X270275Y184113D01*
Y184099D01*
X270247Y184085D01*
X270220Y184043D01*
X270192Y184002D01*
X270095Y183863D01*
X269998Y183669D01*
X269887Y183433D01*
X269790Y183142D01*
X269734Y182809D01*
X269706Y182449D01*
Y182435D01*
Y182407D01*
Y182365D01*
X269720Y182296D01*
Y182213D01*
X269734Y182129D01*
X269776Y181922D01*
X269845Y181686D01*
X269928Y181436D01*
X270067Y181187D01*
X270247Y180965D01*
X270275Y180937D01*
X270345Y180881D01*
X270469Y180784D01*
X270622Y180687D01*
X270830Y180576D01*
X271066Y180479D01*
X271329Y180424D01*
X271620Y180396D01*
X271704D01*
X271759Y180410D01*
X271912Y180424D01*
X272092Y180465D01*
X272314Y180535D01*
X272536Y180632D01*
X272758Y180770D01*
X272966Y180965D01*
X272993Y180992D01*
X273049Y181075D01*
X273132Y181200D01*
X273243Y181381D01*
X273340Y181602D01*
X273423Y181866D01*
X273479Y182185D01*
X273507Y182546D01*
Y182560D01*
Y182587D01*
Y182643D01*
X273493Y182712D01*
Y182809D01*
X273479Y182906D01*
X273437Y183128D01*
X273382Y183392D01*
X273285Y183669D01*
X273146Y183932D01*
X272966Y184168D01*
Y184182D01*
X272938Y184196D01*
X272868Y184265D01*
X272758Y184362D01*
X272605Y184473D01*
X272411Y184570D01*
X272189Y184667D01*
X271939Y184737D01*
X271801Y184764D01*
D02*
G37*
G36*
X245086Y244124D02*
X244975D01*
X244851Y244096D01*
X244684Y244069D01*
X244504Y244013D01*
X244310Y243944D01*
X244129Y243833D01*
X243949Y243680D01*
X243935Y243666D01*
X243880Y243611D01*
X243811Y243514D01*
X243741Y243389D01*
X243658Y243237D01*
X243589Y243056D01*
X243533Y242862D01*
X243519Y242640D01*
Y242626D01*
Y242612D01*
X243533Y242529D01*
X243547Y242404D01*
X243575Y242252D01*
X243630Y242072D01*
X243699Y241891D01*
X243811Y241697D01*
X243949Y241531D01*
X243963Y241517D01*
X244032Y241461D01*
X244129Y241392D01*
X244254Y241323D01*
X244421Y241239D01*
X244615Y241170D01*
X244837Y241115D01*
X245086Y241101D01*
X245114D01*
X245197Y241115D01*
X245322Y241129D01*
X245488Y241156D01*
X245669Y241212D01*
X245849Y241281D01*
X246043Y241392D01*
X246210Y241531D01*
X246224Y241545D01*
X246279Y241614D01*
X246348Y241697D01*
X246432Y241822D01*
X246515Y241975D01*
X246584Y242155D01*
X246640Y242363D01*
X246653Y242585D01*
Y242599D01*
Y242612D01*
Y242696D01*
X246626Y242820D01*
X246598Y242973D01*
X246542Y243139D01*
X246459Y243320D01*
X246348Y243500D01*
X246196Y243680D01*
X246182Y243694D01*
X246113Y243750D01*
X246015Y243819D01*
X245891Y243902D01*
X245724Y243986D01*
X245544Y244055D01*
X245322Y244110D01*
X245086Y244124D01*
D02*
G37*
G36*
X245045Y240144D02*
X244961D01*
X244906Y240130D01*
X244753Y240116D01*
X244559Y240075D01*
X244338Y240005D01*
X244116Y239908D01*
X243880Y239769D01*
X243672Y239589D01*
X243644Y239562D01*
X243589Y239492D01*
X243505Y239367D01*
X243408Y239215D01*
X243297Y239007D01*
X243214Y238771D01*
X243159Y238507D01*
X243131Y238216D01*
Y238188D01*
Y238133D01*
X243145Y238036D01*
X243159Y237911D01*
X243186Y237759D01*
X243228Y237592D01*
X243284Y237426D01*
X243353Y237245D01*
X243367Y237232D01*
X243394Y237162D01*
X243450Y237079D01*
X243533Y236982D01*
X243630Y236857D01*
X243755Y236732D01*
X243894Y236621D01*
X244060Y236510D01*
X244088Y236497D01*
X244143Y236469D01*
X244240Y236427D01*
X244365Y236386D01*
X244518Y236344D01*
X244698Y236302D01*
X244892Y236275D01*
X245086Y236261D01*
X245170D01*
X245225Y236275D01*
X245392Y236289D01*
X245586Y236330D01*
X245807Y236399D01*
X246043Y236483D01*
X246265Y236621D01*
X246487Y236802D01*
X246515Y236829D01*
X246570Y236899D01*
X246667Y237024D01*
X246764Y237176D01*
X246861Y237370D01*
X246959Y237606D01*
X247014Y237883D01*
X247042Y238175D01*
Y238188D01*
Y238216D01*
Y238258D01*
X247028Y238313D01*
X247014Y238466D01*
X246973Y238674D01*
X246903Y238882D01*
X246806Y239118D01*
X246667Y239353D01*
X246473Y239575D01*
X246446Y239603D01*
X246376Y239659D01*
X246251Y239756D01*
X246085Y239867D01*
X245877Y239964D01*
X245627Y240061D01*
X245350Y240116D01*
X245045Y240144D01*
D02*
G37*
G36*
X220611Y240643D02*
X220528D01*
X220473Y240629D01*
X220334Y240616D01*
X220140Y240574D01*
X219932Y240504D01*
X219696Y240394D01*
X219474Y240255D01*
X219252Y240061D01*
X219224Y240033D01*
X219169Y239964D01*
X219072Y239839D01*
X218975Y239659D01*
X218878Y239450D01*
X218781Y239187D01*
X218725Y238896D01*
X218697Y238563D01*
Y238535D01*
Y238466D01*
X218711Y238341D01*
X218725Y238188D01*
X218753Y238008D01*
X218808Y237814D01*
X218864Y237606D01*
X218947Y237398D01*
X218961Y237370D01*
X219003Y237301D01*
X219058Y237204D01*
X219141Y237079D01*
X219238Y236954D01*
X219363Y236802D01*
X219502Y236677D01*
X219668Y236552D01*
X219696Y236538D01*
X219751Y236510D01*
X219849Y236455D01*
X219973Y236413D01*
X220112Y236358D01*
X220278Y236302D01*
X220459Y236275D01*
X220653Y236261D01*
X220722D01*
X220778Y236275D01*
X220916Y236289D01*
X221097Y236330D01*
X221291Y236413D01*
X221513Y236510D01*
X221735Y236663D01*
X221846Y236746D01*
X221943Y236857D01*
Y236871D01*
X221970Y236885D01*
X222026Y236968D01*
X222109Y237107D01*
X222220Y237287D01*
X222317Y237523D01*
X222400Y237800D01*
X222456Y238119D01*
X222484Y238494D01*
Y238507D01*
Y238535D01*
Y238591D01*
X222470Y238660D01*
Y238743D01*
X222456Y238840D01*
X222414Y239062D01*
X222359Y239312D01*
X222262Y239575D01*
X222123Y239825D01*
X221943Y240061D01*
X221915Y240089D01*
X221846Y240158D01*
X221735Y240241D01*
X221582Y240352D01*
X221388Y240463D01*
X221166Y240546D01*
X220903Y240616D01*
X220611Y240643D01*
D02*
G37*
G36*
X327356Y149368D02*
X320875Y148905D01*
X320412D01*
X319949Y148442D01*
Y132702D01*
Y132239D01*
X327819D01*
X329671Y132702D01*
X331522Y133165D01*
X333374Y134554D01*
X333837Y135017D01*
X334763Y136406D01*
X335689Y138258D01*
X336152Y140572D01*
Y141035D01*
X335689Y142887D01*
X335226Y144739D01*
X333374Y146590D01*
X332911Y147053D01*
X331985Y147979D01*
X329671Y148905D01*
X327356Y149368D01*
D02*
G37*
G36*
X223657D02*
X216713Y148905D01*
X216250D01*
X215787Y148442D01*
Y132702D01*
X216250D01*
Y132239D01*
X224120D01*
X225509Y132702D01*
X227361Y133165D01*
X229213Y134554D01*
X229676Y135017D01*
X230601Y136406D01*
X231527Y138258D01*
X231990Y140572D01*
Y141035D01*
X231527Y142887D01*
X231064Y144739D01*
X229213Y146590D01*
X228750Y147053D01*
X227824Y147979D01*
X225972Y148905D01*
X223657Y149368D01*
D02*
G37*
G36*
X425962Y146590D02*
X425499D01*
X425036Y146128D01*
X419944Y125758D01*
Y125295D01*
X420407Y124832D01*
X430129D01*
Y125758D01*
X425962Y146128D01*
Y146590D01*
D02*
G37*
G36*
X315708Y57668D02*
X315597D01*
X315472Y57640D01*
X315306Y57612D01*
X315125Y57557D01*
X314931Y57488D01*
X314751Y57376D01*
X314571Y57224D01*
X314557Y57210D01*
X314501Y57155D01*
X314432Y57057D01*
X314363Y56933D01*
X314279Y56780D01*
X314210Y56600D01*
X314155Y56406D01*
X314141Y56184D01*
Y56170D01*
Y56156D01*
X314155Y56073D01*
X314168Y55948D01*
X314196Y55795D01*
X314252Y55615D01*
X314321Y55435D01*
X314432Y55241D01*
X314571Y55074D01*
X314585Y55061D01*
X314654Y55005D01*
X314751Y54936D01*
X314876Y54866D01*
X315042Y54783D01*
X315236Y54714D01*
X315458Y54658D01*
X315708Y54644D01*
X315736D01*
X315819Y54658D01*
X315944Y54672D01*
X316110Y54700D01*
X316290Y54755D01*
X316471Y54825D01*
X316665Y54936D01*
X316831Y55074D01*
X316845Y55088D01*
X316901Y55158D01*
X316970Y55241D01*
X317053Y55366D01*
X317136Y55518D01*
X317206Y55698D01*
X317261Y55907D01*
X317275Y56128D01*
Y56142D01*
Y56156D01*
Y56239D01*
X317247Y56364D01*
X317220Y56517D01*
X317164Y56683D01*
X317081Y56863D01*
X316970Y57044D01*
X316817Y57224D01*
X316803Y57238D01*
X316734Y57293D01*
X316637Y57363D01*
X316512Y57446D01*
X316346Y57529D01*
X316166Y57598D01*
X315944Y57654D01*
X315708Y57668D01*
D02*
G37*
G36*
X315666Y53688D02*
X315583D01*
X315528Y53674D01*
X315375Y53660D01*
X315181Y53618D01*
X314959Y53549D01*
X314737Y53452D01*
X314501Y53313D01*
X314293Y53133D01*
X314266Y53105D01*
X314210Y53036D01*
X314127Y52911D01*
X314030Y52758D01*
X313919Y52550D01*
X313836Y52315D01*
X313780Y52051D01*
X313752Y51760D01*
Y51732D01*
Y51677D01*
X313766Y51579D01*
X313780Y51455D01*
X313808Y51302D01*
X313850Y51136D01*
X313905Y50969D01*
X313974Y50789D01*
X313988Y50775D01*
X314016Y50706D01*
X314071Y50623D01*
X314155Y50525D01*
X314252Y50401D01*
X314377Y50276D01*
X314515Y50165D01*
X314682Y50054D01*
X314709Y50040D01*
X314765Y50012D01*
X314862Y49971D01*
X314987Y49929D01*
X315139Y49888D01*
X315320Y49846D01*
X315514Y49818D01*
X315708Y49804D01*
X315791D01*
X315847Y49818D01*
X316013Y49832D01*
X316207Y49874D01*
X316429Y49943D01*
X316665Y50026D01*
X316887Y50165D01*
X317109Y50345D01*
X317136Y50373D01*
X317192Y50442D01*
X317289Y50567D01*
X317386Y50720D01*
X317483Y50914D01*
X317580Y51150D01*
X317636Y51427D01*
X317663Y51718D01*
Y51732D01*
Y51760D01*
Y51801D01*
X317649Y51857D01*
X317636Y52009D01*
X317594Y52217D01*
X317525Y52425D01*
X317428Y52661D01*
X317289Y52897D01*
X317095Y53119D01*
X317067Y53147D01*
X316998Y53202D01*
X316873Y53299D01*
X316706Y53410D01*
X316498Y53507D01*
X316249Y53604D01*
X315971Y53660D01*
X315666Y53688D01*
D02*
G37*
G36*
X195142Y243181D02*
X192119Y238882D01*
X195142D01*
Y243181D01*
D02*
G37*
G36*
X441788Y45517D02*
X438752Y45517D01*
Y41666D01*
X441900Y41666D01*
X442140Y41684D01*
X442400Y41703D01*
X442659Y41722D01*
X442918Y41758D01*
X443122Y41796D01*
X443159Y41814D01*
X443233Y41833D01*
X443344Y41888D01*
X443492Y41962D01*
X443640Y42036D01*
X443807Y42147D01*
X443974Y42295D01*
X444103Y42444D01*
X444122Y42462D01*
X444159Y42518D01*
X444214Y42629D01*
X444270Y42758D01*
X444325Y42906D01*
X444381Y43092D01*
X444418Y43314D01*
X444436Y43555D01*
Y43592D01*
Y43666D01*
X444418Y43777D01*
X444399Y43925D01*
X444362Y44110D01*
X444307Y44295D01*
X444233Y44480D01*
X444122Y44666D01*
X444103Y44684D01*
X444066Y44740D01*
X443992Y44832D01*
X443899Y44925D01*
X443770Y45036D01*
X443622Y45147D01*
X443437Y45258D01*
X443233Y45332D01*
X443214D01*
X443122Y45369D01*
X442992Y45388D01*
X442788Y45425D01*
X442511Y45462D01*
X442196Y45480D01*
X441788Y45517D01*
D02*
G37*
G36*
X442122Y40148D02*
X438752Y40148D01*
Y35741D01*
X442400Y35741D01*
X442788Y35759D01*
X442955Y35778D01*
X443103Y35796D01*
X443122D01*
X443196Y35815D01*
X443307Y35833D01*
X443437Y35870D01*
X443751Y35981D01*
X444066Y36129D01*
X444085Y36148D01*
X444140Y36185D01*
X444214Y36240D01*
X444307Y36315D01*
X444399Y36426D01*
X444529Y36537D01*
X444622Y36685D01*
X444733Y36852D01*
X444751Y36870D01*
X444770Y36926D01*
X444807Y37037D01*
X444862Y37166D01*
X444918Y37315D01*
X444955Y37500D01*
X444973Y37722D01*
X444992Y37944D01*
Y37981D01*
Y38055D01*
X444973Y38203D01*
X444936Y38370D01*
X444899Y38555D01*
X444825Y38759D01*
X444733Y38963D01*
X444603Y39166D01*
X444585Y39185D01*
X444529Y39259D01*
X444455Y39351D01*
X444344Y39462D01*
X444196Y39592D01*
X444011Y39722D01*
X443807Y39833D01*
X443566Y39925D01*
X443529Y39944D01*
X443455Y39962D01*
X443288Y39999D01*
X443085Y40036D01*
X442826Y40073D01*
X442511Y40111D01*
X442122Y40148D01*
D02*
G37*
G36*
X454676Y45795D02*
X454509D01*
X454380Y45777D01*
X454213Y45758D01*
X454047Y45721D01*
X453843Y45684D01*
X453621Y45647D01*
X453139Y45499D01*
X452880Y45388D01*
X452621Y45277D01*
X452343Y45128D01*
X452084Y44962D01*
X451824Y44777D01*
X451584Y44555D01*
X451565Y44536D01*
X451528Y44499D01*
X451473Y44425D01*
X451380Y44314D01*
X451287Y44184D01*
X451176Y44018D01*
X451065Y43814D01*
X450936Y43573D01*
X450825Y43314D01*
X450695Y42999D01*
X450584Y42666D01*
X450491Y42295D01*
X450399Y41888D01*
X450343Y41425D01*
X450306Y40944D01*
X450288Y40425D01*
Y40407D01*
Y40333D01*
Y40203D01*
X450306Y40036D01*
X450325Y39851D01*
X450362Y39629D01*
X450399Y39370D01*
X450436Y39111D01*
X450584Y38518D01*
X450695Y38222D01*
X450806Y37907D01*
X450954Y37611D01*
X451121Y37315D01*
X451306Y37037D01*
X451528Y36778D01*
X451547Y36759D01*
X451584Y36722D01*
X451658Y36648D01*
X451750Y36574D01*
X451880Y36463D01*
X452028Y36352D01*
X452195Y36240D01*
X452380Y36111D01*
X452602Y35981D01*
X452843Y35870D01*
X453102Y35759D01*
X453380Y35648D01*
X453676Y35574D01*
X453972Y35500D01*
X454306Y35463D01*
X454658Y35444D01*
X454750D01*
X454843Y35463D01*
X454972D01*
X455139Y35481D01*
X455324Y35518D01*
X455546Y35555D01*
X455769Y35611D01*
X456028Y35685D01*
X456269Y35778D01*
X456546Y35870D01*
X456805Y36000D01*
X457065Y36167D01*
X457324Y36333D01*
X457583Y36537D01*
X457824Y36778D01*
X457842Y36796D01*
X457879Y36833D01*
X457935Y36926D01*
X458028Y37037D01*
X458120Y37166D01*
X458213Y37333D01*
X458324Y37537D01*
X458453Y37759D01*
X458565Y38018D01*
X458676Y38314D01*
X458768Y38629D01*
X458879Y38963D01*
X458953Y39333D01*
X459009Y39740D01*
X459046Y40166D01*
X459064Y40610D01*
Y40629D01*
Y40684D01*
Y40759D01*
Y40870D01*
X459046Y40999D01*
Y41166D01*
X459027Y41333D01*
X458990Y41536D01*
X458935Y41962D01*
X458842Y42407D01*
X458713Y42888D01*
X458527Y43332D01*
Y43351D01*
X458509Y43388D01*
X458472Y43443D01*
X458435Y43518D01*
X458305Y43740D01*
X458139Y43999D01*
X457916Y44295D01*
X457639Y44591D01*
X457324Y44888D01*
X456972Y45147D01*
X456954D01*
X456935Y45184D01*
X456880Y45203D01*
X456787Y45258D01*
X456694Y45295D01*
X456583Y45351D01*
X456306Y45480D01*
X455972Y45591D01*
X455583Y45703D01*
X455139Y45777D01*
X454676Y45795D01*
D02*
G37*
G36*
X384906Y45795D02*
X384794D01*
X384720Y45777D01*
X384517Y45739D01*
X384276Y45684D01*
X383998Y45573D01*
X383702Y45406D01*
X383554Y45295D01*
X383406Y45184D01*
X383276Y45036D01*
X383147Y44869D01*
Y44851D01*
X383109Y44814D01*
X383072Y44740D01*
X383017Y44647D01*
X382961Y44499D01*
X382887Y44332D01*
X382832Y44129D01*
X382758Y43888D01*
X382683Y43610D01*
X382609Y43295D01*
X382535Y42944D01*
X382480Y42555D01*
X382424Y42110D01*
X382387Y41629D01*
X382369Y41110D01*
X382350Y40536D01*
Y40499D01*
Y40407D01*
Y40240D01*
X382369Y40018D01*
Y39777D01*
X382387Y39481D01*
X382406Y39166D01*
X382443Y38833D01*
X382535Y38111D01*
X382591Y37759D01*
X382665Y37426D01*
X382739Y37111D01*
X382850Y36814D01*
X382961Y36555D01*
X383091Y36333D01*
Y36315D01*
X383128Y36296D01*
X383220Y36167D01*
X383387Y36000D01*
X383591Y35815D01*
X383869Y35629D01*
X384183Y35463D01*
X384535Y35333D01*
X384720Y35315D01*
X384924Y35296D01*
X385035D01*
X385109Y35315D01*
X385294Y35352D01*
X385554Y35426D01*
X385831Y35555D01*
X386146Y35741D01*
X386294Y35852D01*
X386442Y36000D01*
X386590Y36148D01*
X386739Y36333D01*
Y36352D01*
X386776Y36389D01*
X386813Y36444D01*
X386850Y36537D01*
X386924Y36666D01*
X386979Y36833D01*
X387053Y37018D01*
X387127Y37240D01*
X387183Y37518D01*
X387257Y37814D01*
X387331Y38166D01*
X387387Y38537D01*
X387424Y38981D01*
X387461Y39444D01*
X387498Y39962D01*
Y40536D01*
Y40555D01*
Y40573D01*
Y40666D01*
Y40833D01*
X387479Y41055D01*
Y41295D01*
X387461Y41592D01*
X387442Y41907D01*
X387405Y42258D01*
X387313Y42962D01*
X387257Y43314D01*
X387183Y43647D01*
X387109Y43962D01*
X386998Y44258D01*
X386887Y44517D01*
X386757Y44740D01*
Y44758D01*
X386720Y44777D01*
X386683Y44832D01*
X386628Y44906D01*
X386461Y45073D01*
X386257Y45277D01*
X385979Y45462D01*
X385665Y45628D01*
X385498Y45703D01*
X385313Y45758D01*
X385109Y45777D01*
X384906Y45795D01*
D02*
G37*
G36*
X468563Y64686D02*
X464897D01*
Y60113D01*
X468341D01*
X468471Y60131D01*
X468601D01*
X468749Y60150D01*
X469100Y60187D01*
X469489Y60261D01*
X469878Y60372D01*
X470230Y60520D01*
X470397Y60613D01*
X470526Y60724D01*
X470563Y60761D01*
X470637Y60835D01*
X470748Y60983D01*
X470878Y61168D01*
X471008Y61409D01*
X471119Y61705D01*
X471193Y62038D01*
X471230Y62427D01*
Y62446D01*
Y62464D01*
Y62557D01*
X471211Y62723D01*
X471174Y62909D01*
X471137Y63112D01*
X471063Y63353D01*
X470952Y63575D01*
X470823Y63797D01*
X470804Y63816D01*
X470748Y63890D01*
X470656Y63983D01*
X470545Y64112D01*
X470378Y64242D01*
X470193Y64353D01*
X469989Y64464D01*
X469749Y64557D01*
X469730D01*
X469656Y64575D01*
X469545Y64594D01*
X469397Y64631D01*
X469175Y64649D01*
X468897Y64668D01*
X468563Y64686D01*
D02*
G37*
G36*
X454880Y64964D02*
X454713D01*
X454584Y64945D01*
X454417Y64927D01*
X454250Y64890D01*
X454047Y64853D01*
X453824Y64816D01*
X453343Y64668D01*
X453084Y64557D01*
X452824Y64446D01*
X452547Y64297D01*
X452287Y64131D01*
X452028Y63945D01*
X451787Y63723D01*
X451769Y63705D01*
X451732Y63668D01*
X451676Y63594D01*
X451584Y63483D01*
X451491Y63353D01*
X451380Y63186D01*
X451269Y62983D01*
X451139Y62742D01*
X451028Y62483D01*
X450899Y62168D01*
X450788Y61835D01*
X450695Y61464D01*
X450602Y61057D01*
X450547Y60594D01*
X450510Y60113D01*
X450491Y59594D01*
Y59576D01*
Y59502D01*
Y59372D01*
X450510Y59205D01*
X450528Y59020D01*
X450565Y58798D01*
X450602Y58539D01*
X450639Y58279D01*
X450788Y57687D01*
X450899Y57391D01*
X451010Y57076D01*
X451158Y56780D01*
X451325Y56483D01*
X451510Y56206D01*
X451732Y55946D01*
X451750Y55928D01*
X451787Y55891D01*
X451862Y55817D01*
X451954Y55743D01*
X452084Y55632D01*
X452232Y55521D01*
X452398Y55409D01*
X452584Y55280D01*
X452806Y55150D01*
X453047Y55039D01*
X453306Y54928D01*
X453584Y54817D01*
X453880Y54743D01*
X454176Y54669D01*
X454509Y54632D01*
X454861Y54613D01*
X454954D01*
X455046Y54632D01*
X455176D01*
X455343Y54650D01*
X455528Y54687D01*
X455750Y54724D01*
X455972Y54780D01*
X456231Y54854D01*
X456472Y54946D01*
X456750Y55039D01*
X457009Y55169D01*
X457268Y55335D01*
X457528Y55502D01*
X457787Y55706D01*
X458028Y55946D01*
X458046Y55965D01*
X458083Y56002D01*
X458139Y56094D01*
X458231Y56206D01*
X458324Y56335D01*
X458416Y56502D01*
X458527Y56705D01*
X458657Y56928D01*
X458768Y57187D01*
X458879Y57483D01*
X458972Y57798D01*
X459083Y58131D01*
X459157Y58502D01*
X459213Y58909D01*
X459250Y59335D01*
X459268Y59779D01*
Y59798D01*
Y59853D01*
Y59927D01*
Y60038D01*
X459250Y60168D01*
Y60335D01*
X459231Y60501D01*
X459194Y60705D01*
X459139Y61131D01*
X459046Y61575D01*
X458916Y62057D01*
X458731Y62501D01*
Y62520D01*
X458713Y62557D01*
X458676Y62612D01*
X458639Y62686D01*
X458509Y62909D01*
X458342Y63168D01*
X458120Y63464D01*
X457842Y63760D01*
X457528Y64057D01*
X457176Y64316D01*
X457157D01*
X457139Y64353D01*
X457083Y64371D01*
X456991Y64427D01*
X456898Y64464D01*
X456787Y64520D01*
X456509Y64649D01*
X456176Y64760D01*
X455787Y64871D01*
X455343Y64945D01*
X454880Y64964D01*
D02*
G37*
G36*
X371166Y64964D02*
X371055D01*
X370981Y64945D01*
X370777Y64908D01*
X370537Y64853D01*
X370259Y64742D01*
X369963Y64575D01*
X369814Y64464D01*
X369666Y64353D01*
X369537Y64205D01*
X369407Y64038D01*
Y64020D01*
X369370Y63983D01*
X369333Y63909D01*
X369277Y63816D01*
X369222Y63668D01*
X369148Y63501D01*
X369092Y63297D01*
X369018Y63057D01*
X368944Y62779D01*
X368870Y62464D01*
X368796Y62112D01*
X368741Y61723D01*
X368685Y61279D01*
X368648Y60798D01*
X368629Y60279D01*
X368611Y59705D01*
Y59668D01*
Y59576D01*
Y59409D01*
X368629Y59187D01*
Y58946D01*
X368648Y58650D01*
X368666Y58335D01*
X368703Y58002D01*
X368796Y57280D01*
X368852Y56928D01*
X368926Y56594D01*
X369000Y56280D01*
X369111Y55983D01*
X369222Y55724D01*
X369352Y55502D01*
Y55483D01*
X369389Y55465D01*
X369481Y55335D01*
X369648Y55169D01*
X369851Y54984D01*
X370129Y54798D01*
X370444Y54632D01*
X370796Y54502D01*
X370981Y54483D01*
X371185Y54465D01*
X371296D01*
X371370Y54483D01*
X371555Y54521D01*
X371814Y54595D01*
X372092Y54724D01*
X372407Y54909D01*
X372555Y55020D01*
X372703Y55169D01*
X372851Y55317D01*
X372999Y55502D01*
Y55520D01*
X373036Y55557D01*
X373073Y55613D01*
X373111Y55706D01*
X373185Y55835D01*
X373240Y56002D01*
X373314Y56187D01*
X373388Y56409D01*
X373444Y56687D01*
X373518Y56983D01*
X373592Y57335D01*
X373647Y57705D01*
X373685Y58150D01*
X373722Y58613D01*
X373759Y59131D01*
Y59705D01*
Y59724D01*
Y59742D01*
Y59835D01*
Y60002D01*
X373740Y60224D01*
Y60464D01*
X373722Y60761D01*
X373703Y61075D01*
X373666Y61427D01*
X373573Y62131D01*
X373518Y62483D01*
X373444Y62816D01*
X373370Y63131D01*
X373259Y63427D01*
X373148Y63686D01*
X373018Y63909D01*
Y63927D01*
X372981Y63945D01*
X372944Y64001D01*
X372888Y64075D01*
X372722Y64242D01*
X372518Y64445D01*
X372240Y64631D01*
X371925Y64797D01*
X371759Y64871D01*
X371574Y64927D01*
X371370Y64945D01*
X371166Y64964D01*
D02*
G37*
G36*
X145325Y51441D02*
X145047D01*
X144825Y51385D01*
X144269Y51274D01*
X143547Y51108D01*
X142714Y50774D01*
X141825Y50274D01*
X141325Y49941D01*
X140881Y49552D01*
X140436Y49108D01*
X139992Y48608D01*
Y48552D01*
X139881Y48497D01*
X139770Y48330D01*
X139658Y48108D01*
X139492Y47775D01*
X139270Y47441D01*
X139047Y46997D01*
X138881Y46552D01*
X138659Y45997D01*
X138436Y45386D01*
X138270Y44719D01*
X138048Y43997D01*
X137936Y43164D01*
X137825Y42331D01*
X137714Y41442D01*
Y40442D01*
Y40386D01*
Y40220D01*
Y39942D01*
X137770Y39553D01*
Y39109D01*
X137825Y38609D01*
X137992Y37442D01*
X138270Y36109D01*
X138603Y34831D01*
X139159Y33554D01*
X139492Y32998D01*
X139881Y32498D01*
X139992Y32387D01*
X140270Y32109D01*
X140714Y31665D01*
X141325Y31221D01*
X142103Y30776D01*
X142992Y30332D01*
X143991Y30054D01*
X144547Y29999D01*
X145102Y29943D01*
X145436D01*
X145658Y29999D01*
X146213Y30110D01*
X146991Y30276D01*
X147824Y30610D01*
X148713Y31054D01*
X149602Y31721D01*
X150046Y32109D01*
X150491Y32554D01*
Y32609D01*
X150602Y32665D01*
X150713Y32832D01*
X150824Y33054D01*
X151046Y33332D01*
X151213Y33720D01*
X151435Y34109D01*
X151657Y34609D01*
X151824Y35109D01*
X152046Y35776D01*
X152268Y36442D01*
X152435Y37164D01*
X152546Y37998D01*
X152657Y38886D01*
X152768Y39831D01*
Y40831D01*
Y40886D01*
Y41053D01*
Y41331D01*
X152713Y41720D01*
Y42164D01*
X152657Y42664D01*
X152491Y43830D01*
X152213Y45108D01*
X151824Y46386D01*
X151268Y47663D01*
X150935Y48274D01*
X150546Y48774D01*
Y48830D01*
X150435Y48885D01*
X150157Y49219D01*
X149713Y49608D01*
X149102Y50108D01*
X148324Y50608D01*
X147436Y51052D01*
X146436Y51330D01*
X145880Y51385D01*
X145325Y51441D01*
D02*
G37*
G36*
X99885Y61384D02*
X99440D01*
X98940Y61273D01*
X98274Y61162D01*
X97552Y60940D01*
X96774Y60662D01*
X96052Y60218D01*
X95330Y59607D01*
X95274Y59551D01*
X95052Y59329D01*
X94774Y58940D01*
X94496Y58440D01*
X94163Y57829D01*
X93885Y57107D01*
X93663Y56329D01*
X93608Y55440D01*
Y55385D01*
Y55329D01*
X93663Y54996D01*
X93719Y54496D01*
X93830Y53885D01*
X94052Y53163D01*
X94330Y52441D01*
X94774Y51663D01*
X95330Y50996D01*
X95385Y50941D01*
X95663Y50719D01*
X96052Y50441D01*
X96552Y50163D01*
X97219Y49830D01*
X97996Y49552D01*
X98885Y49330D01*
X99885Y49274D01*
X99996D01*
X100329Y49330D01*
X100829Y49385D01*
X101496Y49496D01*
X102218Y49719D01*
X102940Y49997D01*
X103718Y50441D01*
X104384Y50996D01*
X104440Y51052D01*
X104662Y51330D01*
X104940Y51663D01*
X105273Y52163D01*
X105606Y52774D01*
X105884Y53496D01*
X106106Y54329D01*
X106162Y55218D01*
Y55274D01*
Y55329D01*
Y55663D01*
X106051Y56163D01*
X105940Y56774D01*
X105718Y57440D01*
X105384Y58162D01*
X104940Y58884D01*
X104329Y59607D01*
X104273Y59662D01*
X103996Y59884D01*
X103607Y60162D01*
X103107Y60495D01*
X102440Y60829D01*
X101718Y61106D01*
X100829Y61329D01*
X99885Y61384D01*
D02*
G37*
G36*
X99718Y45441D02*
X99385D01*
X99163Y45386D01*
X98552Y45330D01*
X97774Y45164D01*
X96885Y44886D01*
X95996Y44497D01*
X95052Y43941D01*
X94219Y43219D01*
X94108Y43108D01*
X93885Y42831D01*
X93552Y42331D01*
X93163Y41720D01*
X92719Y40886D01*
X92386Y39942D01*
X92163Y38886D01*
X92052Y37720D01*
Y37609D01*
Y37387D01*
X92108Y36998D01*
X92163Y36498D01*
X92275Y35887D01*
X92441Y35220D01*
X92663Y34554D01*
X92941Y33832D01*
X92997Y33776D01*
X93108Y33498D01*
X93330Y33165D01*
X93663Y32776D01*
X94052Y32276D01*
X94552Y31776D01*
X95108Y31332D01*
X95774Y30887D01*
X95885Y30832D01*
X96108Y30721D01*
X96496Y30554D01*
X96996Y30387D01*
X97607Y30221D01*
X98329Y30054D01*
X99107Y29943D01*
X99885Y29887D01*
X100218D01*
X100440Y29943D01*
X101107Y29999D01*
X101885Y30165D01*
X102774Y30443D01*
X103718Y30776D01*
X104607Y31332D01*
X105495Y32054D01*
X105606Y32165D01*
X105829Y32443D01*
X106217Y32943D01*
X106606Y33554D01*
X106995Y34331D01*
X107384Y35276D01*
X107606Y36387D01*
X107717Y37553D01*
Y37609D01*
Y37720D01*
Y37887D01*
X107662Y38109D01*
X107606Y38720D01*
X107440Y39553D01*
X107162Y40386D01*
X106773Y41331D01*
X106217Y42275D01*
X105440Y43164D01*
X105329Y43275D01*
X105051Y43497D01*
X104551Y43886D01*
X103884Y44330D01*
X103051Y44719D01*
X102051Y45108D01*
X100940Y45330D01*
X99718Y45441D01*
D02*
G37*
%LPD*%
D10*
X475000Y15000D02*
G03*
X485000Y25000I0J10000D01*
G01*
X355000Y25000D02*
G03*
X365000Y15000I10000J0D01*
G01*
X485000Y75000D02*
G03*
X475000Y85000I-10000J0D01*
G01*
X365000D02*
G03*
X355000Y75000I0J-10000D01*
G01*
Y25000D02*
Y75000D01*
X365000Y15000D02*
X475000D01*
X365000Y85000D02*
X475000D01*
X485000Y25000D02*
Y75000D01*
X355000Y25000D02*
X355000D01*
D11*
X225000Y41720D02*
X230000D01*
M02*
