G04*
G04 #@! TF.GenerationSoftware,Altium Limited,Altium Designer,23.9.2 (47)*
G04*
G04 Layer_Color=8388736*
%FSLAX44Y44*%
%MOMM*%
G71*
G04*
G04 #@! TF.SameCoordinates,E7A4BE84-EE4C-4B8F-86C3-5DBB0D0320C3*
G04*
G04*
G04 #@! TF.FilePolarity,Negative*
G04*
G01*
G75*
%ADD14R,0.5032X1.0032*%
%ADD15R,0.6032X1.0032*%
%ADD16C,1.7032*%
%ADD17R,1.7032X1.7032*%
%ADD18C,3.2032*%
D14*
X317500Y35220D02*
D03*
X312500D02*
D03*
X307500D02*
D03*
X302500D02*
D03*
X297500D02*
D03*
X292500D02*
D03*
X287500D02*
D03*
X282500D02*
D03*
X277500D02*
D03*
X272500D02*
D03*
X267500D02*
D03*
X262500D02*
D03*
X257500D02*
D03*
X252500D02*
D03*
X247500D02*
D03*
X242500D02*
D03*
X237500D02*
D03*
X232500D02*
D03*
X227500D02*
D03*
X222500D02*
D03*
D15*
X327000Y10220D02*
D03*
X213000D02*
D03*
D16*
X155700Y224840D02*
D03*
X231900D02*
D03*
X206500D02*
D03*
X308100D02*
D03*
X282700D02*
D03*
X384300D02*
D03*
X358900D02*
D03*
X206500Y199440D02*
D03*
X231900D02*
D03*
X282700D02*
D03*
X308100D02*
D03*
X358900D02*
D03*
X384300D02*
D03*
X257300Y224840D02*
D03*
X181100D02*
D03*
X333500D02*
D03*
X181100Y199440D02*
D03*
X257300D02*
D03*
X333500D02*
D03*
D17*
X155700D02*
D03*
D18*
X520000Y30000D02*
D03*
Y220000D02*
D03*
X30000D02*
D03*
Y30000D02*
D03*
M02*
