G04*
G04 #@! TF.GenerationSoftware,Altium Limited,Altium Designer,23.9.2 (47)*
G04*
G04 Layer_Color=32896*
%FSLAX44Y44*%
%MOMM*%
G71*
G04*
G04 #@! TF.SameCoordinates,E7A4BE84-EE4C-4B8F-86C3-5DBB0D0320C3*
G04*
G04*
G04 #@! TF.FilePolarity,Positive*
G04*
G01*
G75*
%ADD11C,0.1000*%
G36*
X388108Y246081D02*
X388344Y246067D01*
X388566Y246026D01*
X388774Y245984D01*
X388968Y245928D01*
X389148Y245873D01*
X389315Y245804D01*
X389467Y245734D01*
X389606Y245665D01*
X389717Y245596D01*
X389814Y245540D01*
X389897Y245485D01*
X389967Y245443D01*
X390008Y245401D01*
X390036Y245388D01*
X390050Y245374D01*
X390189Y245235D01*
X390313Y245083D01*
X390438Y244916D01*
X390535Y244750D01*
X390702Y244417D01*
X390813Y244084D01*
X390854Y243932D01*
X390896Y243779D01*
X390924Y243654D01*
X390951Y243543D01*
X390965Y243446D01*
Y243377D01*
X390979Y243335D01*
Y243321D01*
X389772Y243197D01*
X389745Y243515D01*
X389689Y243793D01*
X389606Y244042D01*
X389509Y244237D01*
X389426Y244403D01*
X389343Y244514D01*
X389287Y244583D01*
X389259Y244611D01*
X389051Y244778D01*
X388829Y244902D01*
X388594Y244999D01*
X388386Y245055D01*
X388191Y245096D01*
X388025Y245110D01*
X387970Y245124D01*
X387886D01*
X387595Y245110D01*
X387332Y245055D01*
X387110Y244972D01*
X386916Y244888D01*
X386763Y244791D01*
X386666Y244722D01*
X386597Y244667D01*
X386569Y244639D01*
X386403Y244445D01*
X386278Y244251D01*
X386181Y244056D01*
X386125Y243862D01*
X386083Y243710D01*
X386070Y243571D01*
X386056Y243488D01*
Y243474D01*
Y243460D01*
X386083Y243210D01*
X386139Y242947D01*
X386236Y242711D01*
X386333Y242489D01*
X386444Y242309D01*
X386541Y242156D01*
X386569Y242101D01*
X386597Y242059D01*
X386624Y242045D01*
Y242031D01*
X386735Y241879D01*
X386874Y241726D01*
X387027Y241560D01*
X387193Y241394D01*
X387540Y241061D01*
X387886Y240728D01*
X388067Y240575D01*
X388219Y240437D01*
X388372Y240312D01*
X388497Y240201D01*
X388594Y240118D01*
X388677Y240048D01*
X388732Y240007D01*
X388746Y239993D01*
X389093Y239702D01*
X389412Y239424D01*
X389675Y239175D01*
X389883Y238967D01*
X390064Y238786D01*
X390189Y238661D01*
X390258Y238578D01*
X390286Y238564D01*
Y238551D01*
X390480Y238315D01*
X390632Y238093D01*
X390771Y237871D01*
X390882Y237677D01*
X390965Y237510D01*
X391021Y237386D01*
X391048Y237302D01*
X391062Y237288D01*
Y237275D01*
X391118Y237122D01*
X391146Y236983D01*
X391173Y236845D01*
X391187Y236720D01*
X391201Y236609D01*
Y236526D01*
Y236470D01*
Y236456D01*
X384835D01*
Y237594D01*
X389565D01*
X389398Y237829D01*
X389315Y237927D01*
X389245Y238024D01*
X389176Y238107D01*
X389121Y238162D01*
X389079Y238204D01*
X389065Y238218D01*
X388996Y238287D01*
X388913Y238356D01*
X388718Y238537D01*
X388497Y238745D01*
X388261Y238953D01*
X388039Y239133D01*
X387942Y239216D01*
X387859Y239299D01*
X387789Y239355D01*
X387734Y239396D01*
X387706Y239424D01*
X387692Y239438D01*
X387470Y239632D01*
X387248Y239813D01*
X387054Y239993D01*
X386874Y240145D01*
X386708Y240298D01*
X386569Y240437D01*
X386430Y240562D01*
X386319Y240672D01*
X386208Y240783D01*
X386125Y240867D01*
X386056Y240936D01*
X385986Y241005D01*
X385917Y241089D01*
X385889Y241116D01*
X385695Y241352D01*
X385529Y241560D01*
X385390Y241768D01*
X385279Y241934D01*
X385196Y242087D01*
X385140Y242198D01*
X385113Y242267D01*
X385099Y242295D01*
X385016Y242503D01*
X384960Y242711D01*
X384905Y242905D01*
X384877Y243072D01*
X384863Y243224D01*
X384849Y243335D01*
Y243405D01*
Y243432D01*
X384863Y243640D01*
X384891Y243834D01*
X384919Y244029D01*
X384974Y244195D01*
X385113Y244528D01*
X385251Y244791D01*
X385335Y244916D01*
X385404Y245013D01*
X385473Y245110D01*
X385543Y245180D01*
X385598Y245235D01*
X385626Y245291D01*
X385654Y245305D01*
X385667Y245318D01*
X385820Y245457D01*
X385986Y245582D01*
X386167Y245679D01*
X386347Y245762D01*
X386708Y245901D01*
X387068Y245998D01*
X387221Y246026D01*
X387373Y246053D01*
X387512Y246067D01*
X387623Y246081D01*
X387720Y246095D01*
X387859D01*
X388108Y246081D01*
D02*
G37*
G36*
X380813Y246067D02*
X381160Y246012D01*
X381451Y245915D01*
X381701Y245818D01*
X381909Y245707D01*
X381992Y245665D01*
X382062Y245610D01*
X382117Y245582D01*
X382159Y245554D01*
X382173Y245526D01*
X382187D01*
X382436Y245305D01*
X382644Y245041D01*
X382824Y244778D01*
X382963Y244528D01*
X383074Y244292D01*
X383130Y244195D01*
X383157Y244098D01*
X383185Y244029D01*
X383213Y243973D01*
X383227Y243945D01*
Y243932D01*
X383282Y243724D01*
X383338Y243515D01*
X383421Y243058D01*
X383490Y242600D01*
X383532Y242170D01*
X383546Y241962D01*
X383559Y241782D01*
Y241616D01*
X383573Y241463D01*
Y241352D01*
Y241255D01*
Y241199D01*
Y241185D01*
X383559Y240700D01*
X383532Y240243D01*
X383490Y239826D01*
X383421Y239438D01*
X383351Y239078D01*
X383268Y238759D01*
X383185Y238467D01*
X383102Y238218D01*
X383019Y237996D01*
X382921Y237802D01*
X382852Y237635D01*
X382783Y237510D01*
X382714Y237400D01*
X382672Y237330D01*
X382644Y237288D01*
X382630Y237275D01*
X382478Y237108D01*
X382311Y236956D01*
X382131Y236817D01*
X381951Y236706D01*
X381770Y236609D01*
X381590Y236526D01*
X381410Y236470D01*
X381243Y236415D01*
X381077Y236373D01*
X380924Y236346D01*
X380786Y236318D01*
X380675Y236304D01*
X380578Y236290D01*
X380439D01*
X380065Y236318D01*
X379718Y236373D01*
X379427Y236470D01*
X379177Y236567D01*
X378969Y236664D01*
X378900Y236720D01*
X378830Y236761D01*
X378775Y236789D01*
X378733Y236817D01*
X378719Y236845D01*
X378705D01*
X378456Y237080D01*
X378248Y237330D01*
X378068Y237607D01*
X377929Y237857D01*
X377818Y238093D01*
X377762Y238190D01*
X377735Y238287D01*
X377707Y238356D01*
X377679Y238412D01*
X377665Y238440D01*
Y238454D01*
X377596Y238661D01*
X377541Y238869D01*
X377457Y239313D01*
X377388Y239771D01*
X377346Y240215D01*
X377332Y240409D01*
X377319Y240589D01*
Y240756D01*
X377305Y240908D01*
Y241019D01*
Y241116D01*
Y241172D01*
Y241185D01*
Y241449D01*
X377319Y241699D01*
Y241921D01*
X377332Y242143D01*
X377360Y242337D01*
X377374Y242531D01*
X377388Y242697D01*
X377416Y242850D01*
X377430Y242988D01*
X377457Y243113D01*
X377471Y243210D01*
X377485Y243293D01*
X377499Y243363D01*
X377513Y243405D01*
X377527Y243432D01*
Y243446D01*
X377610Y243751D01*
X377707Y244029D01*
X377818Y244264D01*
X377901Y244472D01*
X377998Y244653D01*
X378054Y244778D01*
X378109Y244847D01*
X378123Y244874D01*
X378276Y245083D01*
X378428Y245263D01*
X378595Y245415D01*
X378747Y245554D01*
X378886Y245651D01*
X378997Y245721D01*
X379066Y245762D01*
X379080Y245776D01*
X379094D01*
X379316Y245887D01*
X379552Y245956D01*
X379773Y246012D01*
X379981Y246053D01*
X380162Y246081D01*
X380314Y246095D01*
X380439D01*
X380813Y246067D01*
D02*
G37*
G36*
X388566Y185859D02*
X388718Y185637D01*
X388899Y185415D01*
X389065Y185221D01*
X389232Y185055D01*
X389356Y184916D01*
X389412Y184875D01*
X389454Y184833D01*
X389467Y184819D01*
X389481Y184805D01*
X389772Y184569D01*
X390064Y184348D01*
X390341Y184153D01*
X390619Y184001D01*
X390854Y183862D01*
X390951Y183807D01*
X391035Y183765D01*
X391104Y183724D01*
X391159Y183710D01*
X391187Y183682D01*
X391201D01*
Y182545D01*
X390993Y182628D01*
X390785Y182725D01*
X390577Y182822D01*
X390383Y182919D01*
X390216Y183002D01*
X390078Y183072D01*
X389994Y183127D01*
X389981Y183141D01*
X389967D01*
X389717Y183294D01*
X389495Y183446D01*
X389301Y183585D01*
X389148Y183710D01*
X389010Y183807D01*
X388927Y183890D01*
X388857Y183945D01*
X388843Y183959D01*
Y176457D01*
X387664D01*
Y186095D01*
X388427D01*
X388566Y185859D01*
D02*
G37*
G36*
X381867Y186081D02*
X382089Y186053D01*
X382311Y186012D01*
X382505Y185956D01*
X382880Y185804D01*
X383046Y185734D01*
X383185Y185651D01*
X383324Y185554D01*
X383435Y185485D01*
X383546Y185402D01*
X383629Y185332D01*
X383698Y185277D01*
X383740Y185235D01*
X383768Y185207D01*
X383781Y185194D01*
X383934Y185027D01*
X384059Y184833D01*
X384184Y184653D01*
X384281Y184459D01*
X384364Y184251D01*
X384433Y184056D01*
X384530Y183696D01*
X384572Y183515D01*
X384600Y183363D01*
X384613Y183210D01*
X384627Y183086D01*
X384641Y182988D01*
Y182919D01*
Y182864D01*
Y182850D01*
X384627Y182586D01*
X384600Y182351D01*
X384572Y182115D01*
X384516Y181893D01*
X384447Y181699D01*
X384378Y181505D01*
X384308Y181338D01*
X384225Y181186D01*
X384156Y181047D01*
X384086Y180922D01*
X384017Y180825D01*
X383948Y180728D01*
X383892Y180659D01*
X383865Y180617D01*
X383837Y180589D01*
X383823Y180575D01*
X383670Y180423D01*
X383504Y180298D01*
X383338Y180173D01*
X383157Y180076D01*
X382991Y179993D01*
X382824Y179924D01*
X382505Y179827D01*
X382367Y179785D01*
X382228Y179757D01*
X382117Y179743D01*
X382006Y179729D01*
X381923Y179715D01*
X381812D01*
X381549Y179729D01*
X381299Y179771D01*
X381077Y179827D01*
X380869Y179896D01*
X380716Y179951D01*
X380592Y180007D01*
X380508Y180048D01*
X380481Y180062D01*
X380259Y180201D01*
X380065Y180354D01*
X379898Y180506D01*
X379759Y180645D01*
X379662Y180783D01*
X379579Y180881D01*
X379524Y180950D01*
X379510Y180978D01*
Y180867D01*
Y180797D01*
Y180756D01*
Y180742D01*
X379524Y180464D01*
X379538Y180201D01*
X379565Y179965D01*
X379593Y179743D01*
X379635Y179563D01*
X379662Y179424D01*
X379676Y179369D01*
Y179327D01*
X379690Y179313D01*
Y179300D01*
X379759Y179050D01*
X379829Y178828D01*
X379898Y178634D01*
X379967Y178467D01*
X380023Y178343D01*
X380079Y178246D01*
X380106Y178176D01*
X380120Y178162D01*
X380231Y178010D01*
X380342Y177885D01*
X380453Y177774D01*
X380564Y177677D01*
X380647Y177594D01*
X380730Y177538D01*
X380786Y177511D01*
X380800Y177497D01*
X380952Y177413D01*
X381119Y177358D01*
X381271Y177316D01*
X381424Y177289D01*
X381549Y177275D01*
X381646Y177261D01*
X381743D01*
X381965Y177275D01*
X382173Y177316D01*
X382353Y177372D01*
X382505Y177441D01*
X382616Y177497D01*
X382714Y177552D01*
X382769Y177594D01*
X382783Y177607D01*
X382921Y177760D01*
X383032Y177940D01*
X383130Y178134D01*
X383199Y178329D01*
X383254Y178495D01*
X383296Y178648D01*
X383310Y178703D01*
Y178731D01*
X383324Y178759D01*
Y178773D01*
X384461Y178675D01*
X384378Y178273D01*
X384267Y177927D01*
X384128Y177621D01*
X383989Y177372D01*
X383851Y177178D01*
X383781Y177094D01*
X383726Y177025D01*
X383684Y176984D01*
X383643Y176942D01*
X383629Y176928D01*
X383615Y176914D01*
X383476Y176803D01*
X383324Y176706D01*
X383019Y176553D01*
X382714Y176443D01*
X382422Y176373D01*
X382159Y176318D01*
X382048Y176304D01*
X381951D01*
X381881Y176290D01*
X381770D01*
X381382Y176318D01*
X381035Y176373D01*
X380716Y176470D01*
X380453Y176581D01*
X380342Y176623D01*
X380231Y176678D01*
X380148Y176734D01*
X380065Y176775D01*
X380009Y176803D01*
X379967Y176831D01*
X379940Y176859D01*
X379926D01*
X379649Y177094D01*
X379399Y177358D01*
X379205Y177635D01*
X379038Y177899D01*
X378900Y178134D01*
X378844Y178246D01*
X378803Y178329D01*
X378775Y178412D01*
X378747Y178467D01*
X378733Y178495D01*
Y178509D01*
X378664Y178717D01*
X378595Y178953D01*
X378498Y179424D01*
X378428Y179924D01*
X378386Y180395D01*
X378359Y180603D01*
X378345Y180811D01*
Y180991D01*
X378331Y181144D01*
Y181269D01*
Y181366D01*
Y181435D01*
Y181449D01*
Y181768D01*
X378345Y182073D01*
X378373Y182351D01*
X378400Y182614D01*
X378428Y182850D01*
X378456Y183072D01*
X378498Y183280D01*
X378539Y183460D01*
X378581Y183613D01*
X378608Y183751D01*
X378650Y183876D01*
X378678Y183973D01*
X378705Y184042D01*
X378733Y184098D01*
X378747Y184126D01*
Y184140D01*
X378913Y184472D01*
X379094Y184764D01*
X379302Y185013D01*
X379482Y185221D01*
X379662Y185374D01*
X379801Y185485D01*
X379857Y185526D01*
X379898Y185554D01*
X379912Y185582D01*
X379926D01*
X380217Y185748D01*
X380508Y185873D01*
X380800Y185970D01*
X381063Y186026D01*
X381299Y186067D01*
X381396Y186081D01*
X381465D01*
X381535Y186095D01*
X381632D01*
X381867Y186081D01*
D02*
G37*
G36*
X362640Y245859D02*
X362793Y245637D01*
X362973Y245415D01*
X363139Y245221D01*
X363306Y245055D01*
X363431Y244916D01*
X363486Y244874D01*
X363528Y244833D01*
X363542Y244819D01*
X363555Y244805D01*
X363847Y244569D01*
X364138Y244347D01*
X364415Y244153D01*
X364693Y244001D01*
X364928Y243862D01*
X365025Y243807D01*
X365109Y243765D01*
X365178Y243724D01*
X365233Y243710D01*
X365261Y243682D01*
X365275D01*
Y242545D01*
X365067Y242628D01*
X364859Y242725D01*
X364651Y242822D01*
X364457Y242919D01*
X364291Y243002D01*
X364152Y243072D01*
X364069Y243127D01*
X364055Y243141D01*
X364041D01*
X363791Y243293D01*
X363569Y243446D01*
X363375Y243585D01*
X363223Y243710D01*
X363084Y243807D01*
X363001Y243890D01*
X362931Y243945D01*
X362918Y243959D01*
Y236456D01*
X361739D01*
Y246095D01*
X362501D01*
X362640Y245859D01*
D02*
G37*
G36*
X355817Y246081D02*
X356039Y246067D01*
X356427Y245984D01*
X356607Y245928D01*
X356774Y245873D01*
X356926Y245804D01*
X357065Y245734D01*
X357176Y245665D01*
X357287Y245596D01*
X357384Y245540D01*
X357453Y245485D01*
X357509Y245443D01*
X357550Y245401D01*
X357578Y245388D01*
X357592Y245374D01*
X357717Y245235D01*
X357842Y245096D01*
X357939Y244944D01*
X358022Y244791D01*
X358161Y244500D01*
X358244Y244223D01*
X358299Y243987D01*
X358313Y243876D01*
X358327Y243793D01*
X358341Y243710D01*
Y243654D01*
Y243626D01*
Y243612D01*
X358327Y243363D01*
X358285Y243127D01*
X358230Y242919D01*
X358161Y242739D01*
X358105Y242600D01*
X358050Y242489D01*
X358008Y242434D01*
X357994Y242406D01*
X357842Y242239D01*
X357675Y242087D01*
X357495Y241948D01*
X357315Y241837D01*
X357148Y241754D01*
X357023Y241699D01*
X356968Y241671D01*
X356926Y241657D01*
X356912Y241643D01*
X356899D01*
X357218Y241546D01*
X357481Y241421D01*
X357717Y241269D01*
X357911Y241130D01*
X358064Y240991D01*
X358175Y240880D01*
X358230Y240811D01*
X358258Y240797D01*
Y240783D01*
X358410Y240534D01*
X358535Y240270D01*
X358618Y240021D01*
X358674Y239771D01*
X358702Y239549D01*
X358715Y239452D01*
Y239369D01*
X358729Y239313D01*
Y239258D01*
Y239230D01*
Y239216D01*
X358715Y238994D01*
X358688Y238772D01*
X358646Y238564D01*
X358591Y238356D01*
X358452Y238010D01*
X358382Y237843D01*
X358299Y237705D01*
X358216Y237566D01*
X358147Y237455D01*
X358064Y237358D01*
X358008Y237275D01*
X357953Y237205D01*
X357911Y237164D01*
X357883Y237136D01*
X357869Y237122D01*
X357703Y236970D01*
X357523Y236845D01*
X357328Y236734D01*
X357134Y236637D01*
X356954Y236567D01*
X356760Y236498D01*
X356385Y236401D01*
X356219Y236359D01*
X356067Y236332D01*
X355928Y236318D01*
X355803Y236304D01*
X355706Y236290D01*
X355567D01*
X355304Y236304D01*
X355068Y236332D01*
X354832Y236373D01*
X354610Y236415D01*
X354416Y236484D01*
X354222Y236553D01*
X354042Y236623D01*
X353889Y236706D01*
X353750Y236789D01*
X353626Y236859D01*
X353529Y236928D01*
X353432Y236997D01*
X353362Y237039D01*
X353321Y237080D01*
X353293Y237108D01*
X353279Y237122D01*
X353126Y237288D01*
X352988Y237455D01*
X352877Y237621D01*
X352780Y237802D01*
X352683Y237968D01*
X352613Y238148D01*
X352516Y238467D01*
X352475Y238620D01*
X352447Y238759D01*
X352433Y238883D01*
X352419Y238981D01*
X352405Y239064D01*
Y239133D01*
Y239175D01*
Y239188D01*
X352419Y239508D01*
X352475Y239799D01*
X352558Y240062D01*
X352641Y240284D01*
X352724Y240464D01*
X352807Y240603D01*
X352863Y240686D01*
X352877Y240700D01*
Y240714D01*
X353071Y240936D01*
X353279Y241130D01*
X353501Y241283D01*
X353709Y241421D01*
X353903Y241518D01*
X354069Y241588D01*
X354125Y241616D01*
X354166Y241629D01*
X354194Y241643D01*
X354208D01*
X353959Y241754D01*
X353750Y241879D01*
X353570Y242004D01*
X353418Y242129D01*
X353307Y242239D01*
X353223Y242323D01*
X353168Y242378D01*
X353154Y242406D01*
X353029Y242600D01*
X352946Y242794D01*
X352877Y242988D01*
X352835Y243183D01*
X352807Y243335D01*
X352794Y243460D01*
Y243543D01*
Y243557D01*
Y243571D01*
X352807Y243765D01*
X352821Y243945D01*
X352918Y244292D01*
X353043Y244597D01*
X353182Y244861D01*
X353321Y245069D01*
X353390Y245152D01*
X353445Y245235D01*
X353501Y245291D01*
X353542Y245332D01*
X353556Y245346D01*
X353570Y245360D01*
X353723Y245485D01*
X353875Y245610D01*
X354042Y245707D01*
X354208Y245790D01*
X354541Y245915D01*
X354874Y245998D01*
X355013Y246040D01*
X355151Y246053D01*
X355276Y246067D01*
X355387Y246081D01*
X355470Y246095D01*
X355595D01*
X355817Y246081D01*
D02*
G37*
G36*
X362640Y185693D02*
X362793Y185471D01*
X362973Y185249D01*
X363139Y185055D01*
X363306Y184888D01*
X363431Y184750D01*
X363486Y184708D01*
X363528Y184667D01*
X363542Y184653D01*
X363555Y184639D01*
X363847Y184403D01*
X364138Y184181D01*
X364415Y183987D01*
X364693Y183834D01*
X364928Y183696D01*
X365025Y183640D01*
X365109Y183599D01*
X365178Y183557D01*
X365233Y183543D01*
X365261Y183515D01*
X365275D01*
Y182378D01*
X365067Y182461D01*
X364859Y182559D01*
X364651Y182656D01*
X364457Y182753D01*
X364291Y182836D01*
X364152Y182905D01*
X364069Y182961D01*
X364055Y182975D01*
X364041D01*
X363791Y183127D01*
X363569Y183280D01*
X363375Y183418D01*
X363223Y183543D01*
X363084Y183640D01*
X363001Y183724D01*
X362931Y183779D01*
X362918Y183793D01*
Y176290D01*
X361739D01*
Y185929D01*
X362501D01*
X362640Y185693D01*
D02*
G37*
G36*
X358632Y184625D02*
X353931D01*
X354264Y184223D01*
X354583Y183793D01*
X354860Y183377D01*
X355123Y182975D01*
X355234Y182794D01*
X355331Y182628D01*
X355429Y182475D01*
X355498Y182351D01*
X355553Y182240D01*
X355595Y182170D01*
X355623Y182115D01*
X355637Y182101D01*
X355914Y181546D01*
X356164Y180991D01*
X356372Y180464D01*
X356455Y180229D01*
X356538Y179993D01*
X356621Y179785D01*
X356677Y179591D01*
X356732Y179424D01*
X356774Y179286D01*
X356815Y179161D01*
X356843Y179078D01*
X356857Y179022D01*
Y179008D01*
X356996Y178440D01*
X357051Y178162D01*
X357093Y177913D01*
X357134Y177677D01*
X357176Y177441D01*
X357204Y177247D01*
X357231Y177053D01*
X357245Y176886D01*
X357259Y176734D01*
X357273Y176595D01*
Y176484D01*
X357287Y176401D01*
Y176346D01*
Y176304D01*
Y176290D01*
X356080D01*
X356039Y176817D01*
X355969Y177302D01*
X355900Y177746D01*
X355858Y177954D01*
X355817Y178148D01*
X355789Y178315D01*
X355747Y178467D01*
X355720Y178606D01*
X355692Y178717D01*
X355664Y178800D01*
X355650Y178870D01*
X355637Y178911D01*
Y178925D01*
X355429Y179563D01*
X355207Y180159D01*
X355096Y180451D01*
X354985Y180728D01*
X354860Y180978D01*
X354749Y181227D01*
X354652Y181449D01*
X354555Y181643D01*
X354472Y181810D01*
X354402Y181962D01*
X354333Y182087D01*
X354291Y182170D01*
X354264Y182226D01*
X354250Y182240D01*
X354083Y182531D01*
X353917Y182822D01*
X353750Y183086D01*
X353584Y183335D01*
X353432Y183557D01*
X353279Y183779D01*
X353126Y183973D01*
X353002Y184140D01*
X352877Y184306D01*
X352766Y184445D01*
X352655Y184556D01*
X352572Y184653D01*
X352516Y184736D01*
X352461Y184791D01*
X352433Y184819D01*
X352419Y184833D01*
Y185762D01*
X358632D01*
Y184625D01*
D02*
G37*
G36*
X337640Y185859D02*
X337793Y185637D01*
X337973Y185415D01*
X338139Y185221D01*
X338306Y185055D01*
X338431Y184916D01*
X338486Y184875D01*
X338528Y184833D01*
X338542Y184819D01*
X338555Y184805D01*
X338847Y184569D01*
X339138Y184348D01*
X339415Y184153D01*
X339693Y184001D01*
X339928Y183862D01*
X340025Y183807D01*
X340109Y183765D01*
X340178Y183724D01*
X340233Y183710D01*
X340261Y183682D01*
X340275D01*
Y182545D01*
X340067Y182628D01*
X339859Y182725D01*
X339651Y182822D01*
X339457Y182919D01*
X339291Y183002D01*
X339152Y183072D01*
X339069Y183127D01*
X339055Y183141D01*
X339041D01*
X338791Y183294D01*
X338569Y183446D01*
X338375Y183585D01*
X338223Y183710D01*
X338084Y183807D01*
X338001Y183890D01*
X337931Y183945D01*
X337918Y183959D01*
Y176457D01*
X336739D01*
Y186095D01*
X337501D01*
X337640Y185859D01*
D02*
G37*
G36*
X333507Y180991D02*
X332398Y180839D01*
X332301Y180991D01*
X332176Y181116D01*
X332065Y181241D01*
X331954Y181338D01*
X331843Y181408D01*
X331760Y181477D01*
X331704Y181505D01*
X331691Y181518D01*
X331510Y181602D01*
X331330Y181671D01*
X331164Y181713D01*
X330997Y181754D01*
X330858Y181768D01*
X330747Y181782D01*
X330484D01*
X330318Y181754D01*
X330026Y181685D01*
X329777Y181588D01*
X329555Y181491D01*
X329388Y181380D01*
X329264Y181283D01*
X329194Y181213D01*
X329166Y181199D01*
Y181186D01*
X328972Y180950D01*
X328834Y180700D01*
X328737Y180437D01*
X328667Y180173D01*
X328626Y179951D01*
X328612Y179854D01*
Y179771D01*
X328598Y179702D01*
Y179646D01*
Y179618D01*
Y179605D01*
Y179410D01*
X328626Y179230D01*
X328695Y178883D01*
X328792Y178592D01*
X328889Y178356D01*
X329000Y178162D01*
X329097Y178010D01*
X329139Y177968D01*
X329166Y177927D01*
X329180Y177913D01*
X329194Y177899D01*
X329305Y177788D01*
X329416Y177691D01*
X329666Y177524D01*
X329902Y177413D01*
X330137Y177344D01*
X330331Y177289D01*
X330498Y177275D01*
X330553Y177261D01*
X330637D01*
X330900Y177275D01*
X331136Y177330D01*
X331344Y177400D01*
X331510Y177483D01*
X331663Y177566D01*
X331774Y177635D01*
X331829Y177691D01*
X331857Y177705D01*
X332023Y177899D01*
X332162Y178107D01*
X332273Y178343D01*
X332356Y178551D01*
X332412Y178759D01*
X332453Y178911D01*
X332467Y178981D01*
X332481Y179022D01*
Y179050D01*
Y179064D01*
X333715Y178967D01*
X333688Y178745D01*
X333646Y178537D01*
X333521Y178148D01*
X333369Y177816D01*
X333285Y177663D01*
X333202Y177538D01*
X333133Y177413D01*
X333050Y177302D01*
X332980Y177219D01*
X332911Y177150D01*
X332855Y177094D01*
X332828Y177039D01*
X332800Y177025D01*
X332786Y177011D01*
X332620Y176886D01*
X332453Y176775D01*
X332273Y176678D01*
X332093Y176595D01*
X331746Y176470D01*
X331399Y176387D01*
X331247Y176346D01*
X331094Y176332D01*
X330969Y176318D01*
X330858Y176304D01*
X330761Y176290D01*
X330637D01*
X330345Y176304D01*
X330068Y176346D01*
X329804Y176401D01*
X329569Y176470D01*
X329347Y176567D01*
X329139Y176665D01*
X328945Y176762D01*
X328778Y176873D01*
X328626Y176984D01*
X328487Y177080D01*
X328376Y177192D01*
X328279Y177275D01*
X328210Y177344D01*
X328154Y177400D01*
X328126Y177441D01*
X328112Y177455D01*
X327974Y177635D01*
X327863Y177829D01*
X327752Y178010D01*
X327669Y178204D01*
X327530Y178578D01*
X327447Y178939D01*
X327419Y179091D01*
X327391Y179244D01*
X327378Y179369D01*
X327364Y179480D01*
X327350Y179577D01*
Y179646D01*
Y179688D01*
Y179702D01*
X327364Y179951D01*
X327391Y180187D01*
X327433Y180423D01*
X327488Y180631D01*
X327558Y180825D01*
X327627Y181019D01*
X327710Y181186D01*
X327780Y181338D01*
X327863Y181477D01*
X327946Y181602D01*
X328015Y181699D01*
X328085Y181796D01*
X328140Y181865D01*
X328182Y181907D01*
X328210Y181935D01*
X328223Y181948D01*
X328390Y182101D01*
X328556Y182240D01*
X328737Y182351D01*
X328917Y182448D01*
X329097Y182545D01*
X329277Y182614D01*
X329610Y182711D01*
X329763Y182753D01*
X329902Y182780D01*
X330026Y182794D01*
X330137Y182808D01*
X330220Y182822D01*
X330526D01*
X330692Y182794D01*
X331025Y182725D01*
X331330Y182628D01*
X331607Y182517D01*
X331829Y182406D01*
X331926Y182351D01*
X332010Y182309D01*
X332079Y182267D01*
X332121Y182240D01*
X332148Y182226D01*
X332162Y182212D01*
X331649Y184805D01*
X327807D01*
Y185929D01*
X332578D01*
X333507Y180991D01*
D02*
G37*
G36*
X336365Y245859D02*
X336518Y245637D01*
X336698Y245415D01*
X336864Y245221D01*
X337031Y245055D01*
X337155Y244916D01*
X337211Y244874D01*
X337253Y244833D01*
X337267Y244819D01*
X337280Y244805D01*
X337572Y244569D01*
X337863Y244347D01*
X338140Y244153D01*
X338418Y244001D01*
X338653Y243862D01*
X338750Y243807D01*
X338834Y243765D01*
X338903Y243724D01*
X338958Y243710D01*
X338986Y243682D01*
X339000D01*
Y242545D01*
X338792Y242628D01*
X338584Y242725D01*
X338376Y242822D01*
X338182Y242919D01*
X338015Y243002D01*
X337877Y243072D01*
X337794Y243127D01*
X337780Y243141D01*
X337766D01*
X337516Y243293D01*
X337294Y243446D01*
X337100Y243585D01*
X336948Y243710D01*
X336809Y243807D01*
X336726Y243890D01*
X336656Y243945D01*
X336642Y243959D01*
Y236456D01*
X335464D01*
Y246095D01*
X336226D01*
X336365Y245859D01*
D02*
G37*
G36*
X329320Y246081D02*
X329583Y246053D01*
X329833Y245998D01*
X330069Y245928D01*
X330277Y245832D01*
X330485Y245748D01*
X330665Y245637D01*
X330831Y245540D01*
X330970Y245443D01*
X331109Y245332D01*
X331220Y245249D01*
X331303Y245166D01*
X331372Y245083D01*
X331428Y245027D01*
X331456Y244999D01*
X331469Y244986D01*
X331650Y244736D01*
X331802Y244445D01*
X331941Y244139D01*
X332066Y243820D01*
X332163Y243488D01*
X332246Y243155D01*
X332315Y242808D01*
X332371Y242489D01*
X332412Y242170D01*
X332440Y241879D01*
X332468Y241616D01*
X332482Y241394D01*
Y241199D01*
X332496Y241061D01*
Y241005D01*
Y240964D01*
Y240950D01*
Y240936D01*
X332482Y240492D01*
X332454Y240076D01*
X332412Y239688D01*
X332343Y239327D01*
X332274Y239008D01*
X332205Y238717D01*
X332121Y238454D01*
X332024Y238218D01*
X331941Y238024D01*
X331858Y237843D01*
X331788Y237705D01*
X331705Y237580D01*
X331650Y237483D01*
X331608Y237427D01*
X331580Y237386D01*
X331567Y237372D01*
X331386Y237178D01*
X331192Y237011D01*
X330998Y236873D01*
X330804Y236748D01*
X330596Y236637D01*
X330402Y236553D01*
X330207Y236484D01*
X330013Y236429D01*
X329847Y236387D01*
X329680Y236346D01*
X329542Y236318D01*
X329417Y236304D01*
X329306D01*
X329237Y236290D01*
X329167D01*
X328848Y236304D01*
X328557Y236359D01*
X328294Y236415D01*
X328058Y236498D01*
X327878Y236567D01*
X327739Y236637D01*
X327683Y236651D01*
X327642Y236678D01*
X327628Y236692D01*
X327614D01*
X327378Y236859D01*
X327156Y237053D01*
X326976Y237247D01*
X326824Y237441D01*
X326699Y237621D01*
X326615Y237760D01*
X326588Y237815D01*
X326560Y237857D01*
X326546Y237871D01*
Y237885D01*
X326408Y238176D01*
X326310Y238481D01*
X326241Y238759D01*
X326199Y239022D01*
X326158Y239244D01*
Y239327D01*
X326144Y239410D01*
Y239480D01*
Y239521D01*
Y239549D01*
Y239563D01*
X326158Y239813D01*
X326186Y240048D01*
X326227Y240284D01*
X326269Y240492D01*
X326338Y240686D01*
X326408Y240880D01*
X326477Y241047D01*
X326560Y241199D01*
X326643Y241338D01*
X326713Y241463D01*
X326782Y241560D01*
X326851Y241657D01*
X326893Y241726D01*
X326935Y241768D01*
X326962Y241796D01*
X326976Y241810D01*
X327129Y241962D01*
X327295Y242101D01*
X327475Y242212D01*
X327642Y242309D01*
X327808Y242406D01*
X327975Y242475D01*
X328294Y242572D01*
X328432Y242614D01*
X328571Y242642D01*
X328682Y242656D01*
X328793Y242670D01*
X328876Y242683D01*
X328987D01*
X329237Y242670D01*
X329472Y242628D01*
X329694Y242586D01*
X329888Y242531D01*
X330055Y242461D01*
X330180Y242420D01*
X330263Y242378D01*
X330277Y242364D01*
X330291D01*
X330513Y242226D01*
X330707Y242073D01*
X330887Y241921D01*
X331026Y241754D01*
X331151Y241616D01*
X331248Y241504D01*
X331303Y241421D01*
X331317Y241407D01*
Y241657D01*
X331303Y241907D01*
X331289Y242129D01*
X331261Y242351D01*
X331248Y242545D01*
X331220Y242725D01*
X331192Y242891D01*
X331151Y243044D01*
X331123Y243183D01*
X331095Y243293D01*
X331067Y243391D01*
X331053Y243474D01*
X331026Y243529D01*
X331012Y243571D01*
X330998Y243599D01*
Y243612D01*
X330859Y243890D01*
X330721Y244139D01*
X330568Y244334D01*
X330429Y244500D01*
X330304Y244639D01*
X330207Y244736D01*
X330138Y244791D01*
X330110Y244805D01*
X329944Y244916D01*
X329777Y244986D01*
X329611Y245041D01*
X329445Y245083D01*
X329320Y245110D01*
X329209Y245124D01*
X329112D01*
X328862Y245096D01*
X328626Y245041D01*
X328432Y244958D01*
X328252Y244874D01*
X328113Y244778D01*
X328016Y244694D01*
X327961Y244639D01*
X327933Y244611D01*
X327836Y244486D01*
X327739Y244334D01*
X327656Y244167D01*
X327600Y244001D01*
X327545Y243848D01*
X327503Y243724D01*
X327489Y243640D01*
X327475Y243626D01*
Y243612D01*
X326297Y243710D01*
X326380Y244098D01*
X326505Y244445D01*
X326643Y244750D01*
X326796Y244999D01*
X326948Y245194D01*
X327004Y245277D01*
X327073Y245346D01*
X327115Y245388D01*
X327156Y245429D01*
X327170Y245443D01*
X327184Y245457D01*
X327323Y245568D01*
X327475Y245665D01*
X327780Y245832D01*
X328086Y245942D01*
X328377Y246012D01*
X328640Y246067D01*
X328751Y246081D01*
X328848D01*
X328932Y246095D01*
X329043D01*
X329320Y246081D01*
D02*
G37*
G36*
X311365Y245859D02*
X311518Y245637D01*
X311698Y245415D01*
X311864Y245221D01*
X312031Y245055D01*
X312155Y244916D01*
X312211Y244874D01*
X312253Y244833D01*
X312267Y244819D01*
X312280Y244805D01*
X312572Y244569D01*
X312863Y244347D01*
X313140Y244153D01*
X313417Y244001D01*
X313653Y243862D01*
X313750Y243807D01*
X313834Y243765D01*
X313903Y243724D01*
X313958Y243710D01*
X313986Y243682D01*
X314000D01*
Y242545D01*
X313792Y242628D01*
X313584Y242725D01*
X313376Y242822D01*
X313182Y242919D01*
X313015Y243002D01*
X312877Y243072D01*
X312794Y243127D01*
X312780Y243141D01*
X312766D01*
X312516Y243293D01*
X312294Y243446D01*
X312100Y243585D01*
X311947Y243710D01*
X311809Y243807D01*
X311726Y243890D01*
X311656Y243945D01*
X311642Y243959D01*
Y236456D01*
X310464D01*
Y246095D01*
X311226D01*
X311365Y245859D01*
D02*
G37*
G36*
X307842Y239840D02*
Y238759D01*
X303668D01*
Y236456D01*
X302489D01*
Y238759D01*
X301186D01*
Y239840D01*
X302489D01*
Y246053D01*
X303446D01*
X307842Y239840D01*
D02*
G37*
G36*
X205139Y246081D02*
X205403Y246053D01*
X205652Y245998D01*
X205888Y245928D01*
X206096Y245832D01*
X206304Y245748D01*
X206484Y245637D01*
X206651Y245540D01*
X206790Y245443D01*
X206928Y245332D01*
X207039Y245249D01*
X207122Y245166D01*
X207192Y245083D01*
X207247Y245027D01*
X207275Y244999D01*
X207289Y244986D01*
X207469Y244736D01*
X207622Y244445D01*
X207760Y244139D01*
X207885Y243820D01*
X207982Y243488D01*
X208065Y243155D01*
X208135Y242808D01*
X208190Y242489D01*
X208232Y242170D01*
X208260Y241879D01*
X208287Y241616D01*
X208301Y241394D01*
Y241199D01*
X208315Y241061D01*
Y241005D01*
Y240964D01*
Y240950D01*
Y240936D01*
X208301Y240492D01*
X208274Y240076D01*
X208232Y239688D01*
X208162Y239327D01*
X208093Y239008D01*
X208024Y238717D01*
X207941Y238454D01*
X207844Y238218D01*
X207760Y238024D01*
X207677Y237843D01*
X207608Y237705D01*
X207525Y237580D01*
X207469Y237483D01*
X207428Y237427D01*
X207400Y237386D01*
X207386Y237372D01*
X207206Y237178D01*
X207011Y237011D01*
X206817Y236873D01*
X206623Y236748D01*
X206415Y236637D01*
X206221Y236553D01*
X206027Y236484D01*
X205833Y236429D01*
X205666Y236387D01*
X205500Y236346D01*
X205361Y236318D01*
X205236Y236304D01*
X205125D01*
X205056Y236290D01*
X204987D01*
X204668Y236304D01*
X204377Y236359D01*
X204113Y236415D01*
X203877Y236498D01*
X203697Y236567D01*
X203558Y236637D01*
X203503Y236651D01*
X203461Y236678D01*
X203447Y236692D01*
X203433D01*
X203198Y236859D01*
X202976Y237053D01*
X202796Y237247D01*
X202643Y237441D01*
X202518Y237621D01*
X202435Y237760D01*
X202407Y237815D01*
X202379Y237857D01*
X202365Y237871D01*
Y237885D01*
X202227Y238176D01*
X202130Y238481D01*
X202060Y238759D01*
X202019Y239022D01*
X201977Y239244D01*
Y239327D01*
X201963Y239410D01*
Y239480D01*
Y239521D01*
Y239549D01*
Y239563D01*
X201977Y239813D01*
X202005Y240048D01*
X202047Y240284D01*
X202088Y240492D01*
X202157Y240686D01*
X202227Y240880D01*
X202296Y241047D01*
X202379Y241199D01*
X202463Y241338D01*
X202532Y241463D01*
X202601Y241560D01*
X202671Y241657D01*
X202712Y241726D01*
X202754Y241768D01*
X202782Y241796D01*
X202796Y241810D01*
X202948Y241962D01*
X203114Y242101D01*
X203295Y242212D01*
X203461Y242309D01*
X203628Y242406D01*
X203794Y242475D01*
X204113Y242572D01*
X204252Y242614D01*
X204390Y242642D01*
X204501Y242656D01*
X204612Y242670D01*
X204695Y242683D01*
X204806D01*
X205056Y242670D01*
X205292Y242628D01*
X205514Y242586D01*
X205708Y242531D01*
X205874Y242461D01*
X205999Y242420D01*
X206082Y242378D01*
X206096Y242364D01*
X206110D01*
X206332Y242226D01*
X206526Y242073D01*
X206706Y241921D01*
X206845Y241754D01*
X206970Y241616D01*
X207067Y241504D01*
X207122Y241421D01*
X207136Y241407D01*
Y241657D01*
X207122Y241907D01*
X207108Y242129D01*
X207081Y242351D01*
X207067Y242545D01*
X207039Y242725D01*
X207011Y242891D01*
X206970Y243044D01*
X206942Y243183D01*
X206914Y243293D01*
X206887Y243391D01*
X206873Y243474D01*
X206845Y243529D01*
X206831Y243571D01*
X206817Y243599D01*
Y243612D01*
X206679Y243890D01*
X206540Y244139D01*
X206387Y244334D01*
X206249Y244500D01*
X206124Y244639D01*
X206027Y244736D01*
X205957Y244791D01*
X205930Y244805D01*
X205763Y244916D01*
X205597Y244986D01*
X205431Y245041D01*
X205264Y245083D01*
X205139Y245110D01*
X205028Y245124D01*
X204931D01*
X204682Y245096D01*
X204446Y245041D01*
X204252Y244958D01*
X204071Y244874D01*
X203933Y244778D01*
X203836Y244694D01*
X203780Y244639D01*
X203752Y244611D01*
X203655Y244486D01*
X203558Y244334D01*
X203475Y244167D01*
X203419Y244001D01*
X203364Y243848D01*
X203323Y243724D01*
X203309Y243640D01*
X203295Y243626D01*
Y243612D01*
X202116Y243710D01*
X202199Y244098D01*
X202324Y244445D01*
X202463Y244750D01*
X202615Y244999D01*
X202768Y245194D01*
X202823Y245277D01*
X202892Y245346D01*
X202934Y245388D01*
X202976Y245429D01*
X202990Y245443D01*
X203004Y245457D01*
X203142Y245568D01*
X203295Y245665D01*
X203600Y245832D01*
X203905Y245942D01*
X204196Y246012D01*
X204460Y246067D01*
X204571Y246081D01*
X204668D01*
X204751Y246095D01*
X204862D01*
X205139Y246081D01*
D02*
G37*
G36*
X155270D02*
X155506Y246067D01*
X155727Y246026D01*
X155935Y245984D01*
X156130Y245928D01*
X156310Y245873D01*
X156476Y245804D01*
X156629Y245734D01*
X156768Y245665D01*
X156878Y245596D01*
X156975Y245540D01*
X157059Y245485D01*
X157128Y245443D01*
X157170Y245401D01*
X157197Y245388D01*
X157211Y245374D01*
X157350Y245235D01*
X157475Y245083D01*
X157600Y244916D01*
X157697Y244750D01*
X157863Y244417D01*
X157974Y244084D01*
X158016Y243932D01*
X158057Y243779D01*
X158085Y243654D01*
X158113Y243543D01*
X158127Y243446D01*
Y243377D01*
X158140Y243335D01*
Y243321D01*
X156934Y243197D01*
X156906Y243515D01*
X156851Y243793D01*
X156768Y244042D01*
X156670Y244237D01*
X156587Y244403D01*
X156504Y244514D01*
X156448Y244583D01*
X156421Y244611D01*
X156213Y244778D01*
X155991Y244902D01*
X155755Y244999D01*
X155547Y245055D01*
X155353Y245096D01*
X155187Y245110D01*
X155131Y245124D01*
X155048D01*
X154757Y245110D01*
X154493Y245055D01*
X154271Y244972D01*
X154077Y244888D01*
X153925Y244791D01*
X153827Y244722D01*
X153758Y244667D01*
X153730Y244639D01*
X153564Y244445D01*
X153439Y244251D01*
X153342Y244056D01*
X153287Y243862D01*
X153245Y243710D01*
X153231Y243571D01*
X153217Y243488D01*
Y243474D01*
Y243460D01*
X153245Y243210D01*
X153300Y242947D01*
X153398Y242711D01*
X153495Y242489D01*
X153605Y242309D01*
X153703Y242156D01*
X153730Y242101D01*
X153758Y242059D01*
X153786Y242045D01*
Y242031D01*
X153897Y241879D01*
X154035Y241726D01*
X154188Y241560D01*
X154354Y241394D01*
X154701Y241061D01*
X155048Y240728D01*
X155228Y240575D01*
X155381Y240437D01*
X155533Y240312D01*
X155658Y240201D01*
X155755Y240118D01*
X155838Y240048D01*
X155894Y240007D01*
X155908Y239993D01*
X156254Y239702D01*
X156573Y239424D01*
X156837Y239175D01*
X157045Y238967D01*
X157225Y238786D01*
X157350Y238661D01*
X157419Y238578D01*
X157447Y238564D01*
Y238551D01*
X157641Y238315D01*
X157794Y238093D01*
X157932Y237871D01*
X158043Y237677D01*
X158127Y237510D01*
X158182Y237386D01*
X158210Y237302D01*
X158224Y237288D01*
Y237275D01*
X158279Y237122D01*
X158307Y236983D01*
X158335Y236845D01*
X158349Y236720D01*
X158362Y236609D01*
Y236526D01*
Y236470D01*
Y236456D01*
X151997D01*
Y237594D01*
X156726D01*
X156559Y237829D01*
X156476Y237927D01*
X156407Y238024D01*
X156338Y238107D01*
X156282Y238162D01*
X156241Y238204D01*
X156227Y238218D01*
X156157Y238287D01*
X156074Y238356D01*
X155880Y238537D01*
X155658Y238745D01*
X155422Y238953D01*
X155200Y239133D01*
X155103Y239216D01*
X155020Y239299D01*
X154951Y239355D01*
X154895Y239396D01*
X154867Y239424D01*
X154854Y239438D01*
X154632Y239632D01*
X154410Y239813D01*
X154216Y239993D01*
X154035Y240145D01*
X153869Y240298D01*
X153730Y240437D01*
X153592Y240562D01*
X153481Y240672D01*
X153370Y240783D01*
X153287Y240867D01*
X153217Y240936D01*
X153148Y241005D01*
X153078Y241089D01*
X153051Y241116D01*
X152857Y241352D01*
X152690Y241560D01*
X152551Y241768D01*
X152441Y241934D01*
X152357Y242087D01*
X152302Y242198D01*
X152274Y242267D01*
X152260Y242295D01*
X152177Y242503D01*
X152122Y242711D01*
X152066Y242905D01*
X152038Y243072D01*
X152024Y243224D01*
X152011Y243335D01*
Y243405D01*
Y243432D01*
X152024Y243640D01*
X152052Y243834D01*
X152080Y244029D01*
X152135Y244195D01*
X152274Y244528D01*
X152413Y244791D01*
X152496Y244916D01*
X152565Y245013D01*
X152635Y245110D01*
X152704Y245180D01*
X152760Y245235D01*
X152787Y245291D01*
X152815Y245305D01*
X152829Y245318D01*
X152981Y245457D01*
X153148Y245582D01*
X153328Y245679D01*
X153508Y245762D01*
X153869Y245901D01*
X154230Y245998D01*
X154382Y246026D01*
X154535Y246053D01*
X154673Y246067D01*
X154784Y246081D01*
X154881Y246095D01*
X155020D01*
X155270Y246081D01*
D02*
G37*
G36*
X183193Y239882D02*
Y238800D01*
X179019D01*
Y236498D01*
X177840D01*
Y238800D01*
X176537D01*
Y239882D01*
X177840D01*
Y246095D01*
X178797D01*
X183193Y239882D01*
D02*
G37*
G36*
X279743Y246081D02*
X279978Y246067D01*
X280200Y246026D01*
X280408Y245984D01*
X280602Y245928D01*
X280783Y245873D01*
X280949Y245804D01*
X281102Y245734D01*
X281240Y245665D01*
X281351Y245596D01*
X281448Y245540D01*
X281532Y245485D01*
X281601Y245443D01*
X281643Y245401D01*
X281670Y245388D01*
X281684Y245374D01*
X281823Y245235D01*
X281948Y245083D01*
X282073Y244916D01*
X282170Y244750D01*
X282336Y244417D01*
X282447Y244084D01*
X282488Y243932D01*
X282530Y243779D01*
X282558Y243654D01*
X282586Y243543D01*
X282600Y243446D01*
Y243377D01*
X282613Y243335D01*
Y243321D01*
X281407Y243197D01*
X281379Y243515D01*
X281324Y243793D01*
X281240Y244042D01*
X281143Y244237D01*
X281060Y244403D01*
X280977Y244514D01*
X280921Y244583D01*
X280894Y244611D01*
X280686Y244778D01*
X280464Y244902D01*
X280228Y244999D01*
X280020Y245055D01*
X279826Y245096D01*
X279659Y245110D01*
X279604Y245124D01*
X279521D01*
X279230Y245110D01*
X278966Y245055D01*
X278744Y244972D01*
X278550Y244888D01*
X278397Y244791D01*
X278300Y244722D01*
X278231Y244667D01*
X278203Y244639D01*
X278037Y244445D01*
X277912Y244251D01*
X277815Y244056D01*
X277759Y243862D01*
X277718Y243710D01*
X277704Y243571D01*
X277690Y243488D01*
Y243474D01*
Y243460D01*
X277718Y243210D01*
X277773Y242947D01*
X277870Y242711D01*
X277967Y242489D01*
X278078Y242309D01*
X278176Y242156D01*
X278203Y242101D01*
X278231Y242059D01*
X278259Y242045D01*
Y242031D01*
X278370Y241879D01*
X278508Y241726D01*
X278661Y241560D01*
X278827Y241394D01*
X279174Y241061D01*
X279521Y240728D01*
X279701Y240575D01*
X279853Y240437D01*
X280006Y240312D01*
X280131Y240201D01*
X280228Y240118D01*
X280311Y240048D01*
X280367Y240007D01*
X280380Y239993D01*
X280727Y239702D01*
X281046Y239424D01*
X281310Y239175D01*
X281518Y238967D01*
X281698Y238786D01*
X281823Y238661D01*
X281892Y238578D01*
X281920Y238564D01*
Y238551D01*
X282114Y238315D01*
X282267Y238093D01*
X282405Y237871D01*
X282516Y237677D01*
X282600Y237510D01*
X282655Y237386D01*
X282683Y237302D01*
X282697Y237288D01*
Y237275D01*
X282752Y237122D01*
X282780Y236983D01*
X282808Y236845D01*
X282821Y236720D01*
X282835Y236609D01*
Y236526D01*
Y236470D01*
Y236456D01*
X276470D01*
Y237594D01*
X281199D01*
X281032Y237829D01*
X280949Y237927D01*
X280880Y238024D01*
X280811Y238107D01*
X280755Y238162D01*
X280713Y238204D01*
X280700Y238218D01*
X280630Y238287D01*
X280547Y238356D01*
X280353Y238537D01*
X280131Y238745D01*
X279895Y238953D01*
X279673Y239133D01*
X279576Y239216D01*
X279493Y239299D01*
X279424Y239355D01*
X279368Y239396D01*
X279340Y239424D01*
X279326Y239438D01*
X279105Y239632D01*
X278883Y239813D01*
X278689Y239993D01*
X278508Y240145D01*
X278342Y240298D01*
X278203Y240437D01*
X278064Y240562D01*
X277954Y240672D01*
X277843Y240783D01*
X277759Y240867D01*
X277690Y240936D01*
X277621Y241005D01*
X277551Y241089D01*
X277524Y241116D01*
X277330Y241352D01*
X277163Y241560D01*
X277024Y241768D01*
X276913Y241934D01*
X276830Y242087D01*
X276775Y242198D01*
X276747Y242267D01*
X276733Y242295D01*
X276650Y242503D01*
X276595Y242711D01*
X276539Y242905D01*
X276511Y243072D01*
X276497Y243224D01*
X276483Y243335D01*
Y243405D01*
Y243432D01*
X276497Y243640D01*
X276525Y243834D01*
X276553Y244029D01*
X276608Y244195D01*
X276747Y244528D01*
X276886Y244791D01*
X276969Y244916D01*
X277038Y245013D01*
X277108Y245110D01*
X277177Y245180D01*
X277232Y245235D01*
X277260Y245291D01*
X277288Y245305D01*
X277302Y245318D01*
X277454Y245457D01*
X277621Y245582D01*
X277801Y245679D01*
X277981Y245762D01*
X278342Y245901D01*
X278703Y245998D01*
X278855Y246026D01*
X279008Y246053D01*
X279146Y246067D01*
X279257Y246081D01*
X279354Y246095D01*
X279493D01*
X279743Y246081D01*
D02*
G37*
G36*
X286594Y245859D02*
X286746Y245637D01*
X286926Y245415D01*
X287093Y245221D01*
X287259Y245055D01*
X287384Y244916D01*
X287440Y244874D01*
X287481Y244833D01*
X287495Y244819D01*
X287509Y244805D01*
X287800Y244569D01*
X288091Y244347D01*
X288369Y244153D01*
X288646Y244001D01*
X288882Y243862D01*
X288979Y243807D01*
X289062Y243765D01*
X289132Y243724D01*
X289187Y243710D01*
X289215Y243682D01*
X289229D01*
Y242545D01*
X289021Y242628D01*
X288813Y242725D01*
X288605Y242822D01*
X288410Y242919D01*
X288244Y243002D01*
X288105Y243072D01*
X288022Y243127D01*
X288008Y243141D01*
X287994D01*
X287745Y243293D01*
X287523Y243446D01*
X287329Y243585D01*
X287176Y243710D01*
X287037Y243807D01*
X286954Y243890D01*
X286885Y243945D01*
X286871Y243959D01*
Y236456D01*
X285692D01*
Y246095D01*
X286455D01*
X286594Y245859D01*
D02*
G37*
G36*
X257901D02*
X258053Y245637D01*
X258234Y245415D01*
X258400Y245221D01*
X258567Y245055D01*
X258692Y244916D01*
X258747Y244874D01*
X258789Y244833D01*
X258802Y244819D01*
X258816Y244805D01*
X259107Y244569D01*
X259399Y244347D01*
X259676Y244153D01*
X259953Y244001D01*
X260189Y243862D01*
X260286Y243807D01*
X260370Y243765D01*
X260439Y243724D01*
X260494Y243710D01*
X260522Y243682D01*
X260536D01*
Y242545D01*
X260328Y242628D01*
X260120Y242725D01*
X259912Y242822D01*
X259718Y242919D01*
X259551Y243002D01*
X259413Y243072D01*
X259329Y243127D01*
X259316Y243141D01*
X259302D01*
X259052Y243293D01*
X258830Y243446D01*
X258636Y243585D01*
X258484Y243710D01*
X258345Y243807D01*
X258262Y243890D01*
X258192Y243945D01*
X258178Y243959D01*
Y236456D01*
X256999D01*
Y246095D01*
X257762D01*
X257901Y245859D01*
D02*
G37*
G36*
X251216Y246067D02*
X251563Y246012D01*
X251854Y245915D01*
X252104Y245818D01*
X252312Y245707D01*
X252395Y245665D01*
X252465Y245610D01*
X252520Y245582D01*
X252562Y245554D01*
X252575Y245526D01*
X252589D01*
X252839Y245305D01*
X253047Y245041D01*
X253227Y244778D01*
X253366Y244528D01*
X253477Y244292D01*
X253532Y244195D01*
X253560Y244098D01*
X253588Y244029D01*
X253616Y243973D01*
X253629Y243945D01*
Y243932D01*
X253685Y243724D01*
X253741Y243515D01*
X253824Y243058D01*
X253893Y242600D01*
X253935Y242170D01*
X253948Y241962D01*
X253962Y241782D01*
Y241616D01*
X253976Y241463D01*
Y241352D01*
Y241255D01*
Y241199D01*
Y241185D01*
X253962Y240700D01*
X253935Y240243D01*
X253893Y239826D01*
X253824Y239438D01*
X253754Y239078D01*
X253671Y238759D01*
X253588Y238467D01*
X253505Y238218D01*
X253421Y237996D01*
X253324Y237802D01*
X253255Y237635D01*
X253186Y237510D01*
X253116Y237400D01*
X253075Y237330D01*
X253047Y237288D01*
X253033Y237275D01*
X252881Y237108D01*
X252714Y236956D01*
X252534Y236817D01*
X252354Y236706D01*
X252173Y236609D01*
X251993Y236526D01*
X251813Y236470D01*
X251646Y236415D01*
X251480Y236373D01*
X251327Y236346D01*
X251189Y236318D01*
X251078Y236304D01*
X250981Y236290D01*
X250842D01*
X250467Y236318D01*
X250121Y236373D01*
X249830Y236470D01*
X249580Y236567D01*
X249372Y236664D01*
X249303Y236720D01*
X249233Y236761D01*
X249178Y236789D01*
X249136Y236817D01*
X249122Y236845D01*
X249108D01*
X248859Y237080D01*
X248651Y237330D01*
X248470Y237607D01*
X248332Y237857D01*
X248221Y238093D01*
X248165Y238190D01*
X248138Y238287D01*
X248110Y238356D01*
X248082Y238412D01*
X248068Y238440D01*
Y238454D01*
X247999Y238661D01*
X247943Y238869D01*
X247860Y239313D01*
X247791Y239771D01*
X247749Y240215D01*
X247735Y240409D01*
X247722Y240589D01*
Y240756D01*
X247708Y240908D01*
Y241019D01*
Y241116D01*
Y241172D01*
Y241185D01*
Y241449D01*
X247722Y241699D01*
Y241921D01*
X247735Y242143D01*
X247763Y242337D01*
X247777Y242531D01*
X247791Y242697D01*
X247819Y242850D01*
X247833Y242988D01*
X247860Y243113D01*
X247874Y243210D01*
X247888Y243293D01*
X247902Y243363D01*
X247916Y243405D01*
X247930Y243432D01*
Y243446D01*
X248013Y243751D01*
X248110Y244029D01*
X248221Y244264D01*
X248304Y244472D01*
X248401Y244653D01*
X248457Y244778D01*
X248512Y244847D01*
X248526Y244874D01*
X248678Y245083D01*
X248831Y245263D01*
X248997Y245415D01*
X249150Y245554D01*
X249289Y245651D01*
X249400Y245721D01*
X249469Y245762D01*
X249483Y245776D01*
X249497D01*
X249719Y245887D01*
X249954Y245956D01*
X250176Y246012D01*
X250384Y246053D01*
X250565Y246081D01*
X250717Y246095D01*
X250842D01*
X251216Y246067D01*
D02*
G37*
G36*
X230224Y246081D02*
X230446Y246067D01*
X230835Y245984D01*
X231015Y245928D01*
X231181Y245873D01*
X231334Y245804D01*
X231473Y245734D01*
X231583Y245665D01*
X231695Y245596D01*
X231792Y245540D01*
X231861Y245485D01*
X231916Y245443D01*
X231958Y245401D01*
X231986Y245388D01*
X232000Y245374D01*
X232124Y245235D01*
X232249Y245096D01*
X232346Y244944D01*
X232430Y244791D01*
X232568Y244500D01*
X232651Y244223D01*
X232707Y243987D01*
X232721Y243876D01*
X232735Y243793D01*
X232749Y243710D01*
Y243654D01*
Y243626D01*
Y243612D01*
X232735Y243363D01*
X232693Y243127D01*
X232638Y242919D01*
X232568Y242739D01*
X232513Y242600D01*
X232457Y242489D01*
X232416Y242434D01*
X232402Y242406D01*
X232249Y242239D01*
X232083Y242087D01*
X231903Y241948D01*
X231722Y241837D01*
X231556Y241754D01*
X231431Y241699D01*
X231376Y241671D01*
X231334Y241657D01*
X231320Y241643D01*
X231306D01*
X231625Y241546D01*
X231889Y241421D01*
X232124Y241269D01*
X232319Y241130D01*
X232471Y240991D01*
X232582Y240880D01*
X232638Y240811D01*
X232665Y240797D01*
Y240783D01*
X232818Y240534D01*
X232943Y240270D01*
X233026Y240021D01*
X233081Y239771D01*
X233109Y239549D01*
X233123Y239452D01*
Y239369D01*
X233137Y239313D01*
Y239258D01*
Y239230D01*
Y239216D01*
X233123Y238994D01*
X233095Y238772D01*
X233054Y238564D01*
X232998Y238356D01*
X232859Y238010D01*
X232790Y237843D01*
X232707Y237705D01*
X232624Y237566D01*
X232554Y237455D01*
X232471Y237358D01*
X232416Y237275D01*
X232360Y237205D01*
X232319Y237164D01*
X232291Y237136D01*
X232277Y237122D01*
X232111Y236970D01*
X231930Y236845D01*
X231736Y236734D01*
X231542Y236637D01*
X231362Y236567D01*
X231168Y236498D01*
X230793Y236401D01*
X230627Y236359D01*
X230474Y236332D01*
X230335Y236318D01*
X230211Y236304D01*
X230114Y236290D01*
X229975D01*
X229711Y236304D01*
X229475Y236332D01*
X229240Y236373D01*
X229018Y236415D01*
X228824Y236484D01*
X228630Y236553D01*
X228449Y236623D01*
X228297Y236706D01*
X228158Y236789D01*
X228033Y236859D01*
X227936Y236928D01*
X227839Y236997D01*
X227770Y237039D01*
X227728Y237080D01*
X227700Y237108D01*
X227687Y237122D01*
X227534Y237288D01*
X227395Y237455D01*
X227284Y237621D01*
X227187Y237802D01*
X227090Y237968D01*
X227021Y238148D01*
X226924Y238467D01*
X226882Y238620D01*
X226854Y238759D01*
X226840Y238883D01*
X226827Y238981D01*
X226813Y239064D01*
Y239133D01*
Y239175D01*
Y239188D01*
X226827Y239508D01*
X226882Y239799D01*
X226965Y240062D01*
X227049Y240284D01*
X227132Y240464D01*
X227215Y240603D01*
X227271Y240686D01*
X227284Y240700D01*
Y240714D01*
X227479Y240936D01*
X227687Y241130D01*
X227908Y241283D01*
X228116Y241421D01*
X228311Y241518D01*
X228477Y241588D01*
X228533Y241616D01*
X228574Y241629D01*
X228602Y241643D01*
X228616D01*
X228366Y241754D01*
X228158Y241879D01*
X227978Y242004D01*
X227825Y242129D01*
X227714Y242239D01*
X227631Y242323D01*
X227576Y242378D01*
X227562Y242406D01*
X227437Y242600D01*
X227354Y242794D01*
X227284Y242988D01*
X227243Y243183D01*
X227215Y243335D01*
X227201Y243460D01*
Y243543D01*
Y243557D01*
Y243571D01*
X227215Y243765D01*
X227229Y243945D01*
X227326Y244292D01*
X227451Y244597D01*
X227589Y244861D01*
X227728Y245069D01*
X227798Y245152D01*
X227853Y245235D01*
X227908Y245291D01*
X227950Y245332D01*
X227964Y245346D01*
X227978Y245360D01*
X228130Y245485D01*
X228283Y245610D01*
X228449Y245707D01*
X228616Y245790D01*
X228948Y245915D01*
X229281Y245998D01*
X229420Y246040D01*
X229559Y246053D01*
X229684Y246067D01*
X229795Y246081D01*
X229878Y246095D01*
X230002D01*
X230224Y246081D01*
D02*
G37*
G36*
X259855Y186081D02*
X260076Y186053D01*
X260298Y186012D01*
X260492Y185956D01*
X260867Y185804D01*
X261033Y185734D01*
X261172Y185651D01*
X261311Y185554D01*
X261422Y185485D01*
X261533Y185402D01*
X261616Y185332D01*
X261685Y185277D01*
X261727Y185235D01*
X261754Y185207D01*
X261768Y185194D01*
X261921Y185027D01*
X262046Y184833D01*
X262171Y184653D01*
X262268Y184459D01*
X262351Y184251D01*
X262420Y184056D01*
X262517Y183696D01*
X262559Y183515D01*
X262587Y183363D01*
X262600Y183210D01*
X262614Y183086D01*
X262628Y182988D01*
Y182919D01*
Y182864D01*
Y182850D01*
X262614Y182586D01*
X262587Y182351D01*
X262559Y182115D01*
X262503Y181893D01*
X262434Y181699D01*
X262365Y181505D01*
X262295Y181338D01*
X262212Y181186D01*
X262143Y181047D01*
X262073Y180922D01*
X262004Y180825D01*
X261935Y180728D01*
X261879Y180659D01*
X261852Y180617D01*
X261824Y180589D01*
X261810Y180575D01*
X261657Y180423D01*
X261491Y180298D01*
X261325Y180173D01*
X261144Y180076D01*
X260978Y179993D01*
X260812Y179924D01*
X260492Y179827D01*
X260354Y179785D01*
X260215Y179757D01*
X260104Y179743D01*
X259993Y179729D01*
X259910Y179715D01*
X259799D01*
X259536Y179729D01*
X259286Y179771D01*
X259064Y179827D01*
X258856Y179896D01*
X258703Y179951D01*
X258579Y180007D01*
X258495Y180048D01*
X258468Y180062D01*
X258246Y180201D01*
X258052Y180354D01*
X257885Y180506D01*
X257747Y180645D01*
X257649Y180783D01*
X257566Y180881D01*
X257511Y180950D01*
X257497Y180978D01*
Y180867D01*
Y180797D01*
Y180756D01*
Y180742D01*
X257511Y180464D01*
X257525Y180201D01*
X257552Y179965D01*
X257580Y179743D01*
X257622Y179563D01*
X257649Y179424D01*
X257663Y179369D01*
Y179327D01*
X257677Y179313D01*
Y179300D01*
X257747Y179050D01*
X257816Y178828D01*
X257885Y178634D01*
X257955Y178467D01*
X258010Y178343D01*
X258065Y178246D01*
X258093Y178176D01*
X258107Y178162D01*
X258218Y178010D01*
X258329Y177885D01*
X258440Y177774D01*
X258551Y177677D01*
X258634Y177594D01*
X258717Y177538D01*
X258773Y177511D01*
X258787Y177497D01*
X258939Y177413D01*
X259106Y177358D01*
X259258Y177316D01*
X259411Y177289D01*
X259536Y177275D01*
X259633Y177261D01*
X259730D01*
X259952Y177275D01*
X260160Y177316D01*
X260340Y177372D01*
X260492Y177441D01*
X260603Y177497D01*
X260700Y177552D01*
X260756Y177594D01*
X260770Y177607D01*
X260909Y177760D01*
X261019Y177940D01*
X261117Y178134D01*
X261186Y178329D01*
X261241Y178495D01*
X261283Y178648D01*
X261297Y178703D01*
Y178731D01*
X261311Y178759D01*
Y178773D01*
X262448Y178675D01*
X262365Y178273D01*
X262254Y177927D01*
X262115Y177621D01*
X261976Y177372D01*
X261838Y177178D01*
X261768Y177094D01*
X261713Y177025D01*
X261671Y176984D01*
X261630Y176942D01*
X261616Y176928D01*
X261602Y176914D01*
X261463Y176803D01*
X261311Y176706D01*
X261006Y176553D01*
X260700Y176443D01*
X260409Y176373D01*
X260146Y176318D01*
X260035Y176304D01*
X259938D01*
X259868Y176290D01*
X259757D01*
X259369Y176318D01*
X259022Y176373D01*
X258703Y176470D01*
X258440Y176581D01*
X258329Y176623D01*
X258218Y176678D01*
X258135Y176734D01*
X258052Y176775D01*
X257996Y176803D01*
X257955Y176831D01*
X257927Y176859D01*
X257913D01*
X257636Y177094D01*
X257386Y177358D01*
X257192Y177635D01*
X257025Y177899D01*
X256887Y178134D01*
X256831Y178246D01*
X256790Y178329D01*
X256762Y178412D01*
X256734Y178467D01*
X256720Y178495D01*
Y178509D01*
X256651Y178717D01*
X256582Y178953D01*
X256485Y179424D01*
X256415Y179924D01*
X256374Y180395D01*
X256346Y180603D01*
X256332Y180811D01*
Y180991D01*
X256318Y181144D01*
Y181269D01*
Y181366D01*
Y181435D01*
Y181449D01*
Y181768D01*
X256332Y182073D01*
X256360Y182351D01*
X256387Y182614D01*
X256415Y182850D01*
X256443Y183072D01*
X256485Y183280D01*
X256526Y183460D01*
X256568Y183613D01*
X256595Y183751D01*
X256637Y183876D01*
X256665Y183973D01*
X256693Y184042D01*
X256720Y184098D01*
X256734Y184126D01*
Y184140D01*
X256901Y184472D01*
X257081Y184764D01*
X257289Y185013D01*
X257469Y185221D01*
X257649Y185374D01*
X257788Y185485D01*
X257844Y185526D01*
X257885Y185554D01*
X257899Y185582D01*
X257913D01*
X258204Y185748D01*
X258495Y185873D01*
X258787Y185970D01*
X259050Y186026D01*
X259286Y186067D01*
X259383Y186081D01*
X259452D01*
X259522Y186095D01*
X259619D01*
X259855Y186081D01*
D02*
G37*
G36*
X178895Y186067D02*
X179269Y185998D01*
X179588Y185887D01*
X179865Y185776D01*
X179990Y185707D01*
X180087Y185651D01*
X180184Y185596D01*
X180254Y185540D01*
X180309Y185499D01*
X180351Y185471D01*
X180379Y185457D01*
X180392Y185443D01*
X180656Y185180D01*
X180864Y184888D01*
X181030Y184583D01*
X181169Y184278D01*
X181252Y184015D01*
X181294Y183904D01*
X181322Y183807D01*
X181336Y183724D01*
X181349Y183668D01*
X181363Y183626D01*
Y183613D01*
X180184Y183405D01*
X180129Y183710D01*
X180046Y183973D01*
X179949Y184195D01*
X179852Y184375D01*
X179755Y184514D01*
X179671Y184611D01*
X179616Y184680D01*
X179602Y184694D01*
X179422Y184833D01*
X179228Y184944D01*
X179047Y185013D01*
X178867Y185069D01*
X178701Y185096D01*
X178576Y185124D01*
X178465D01*
X178215Y185110D01*
X177993Y185055D01*
X177799Y184986D01*
X177633Y184916D01*
X177508Y184833D01*
X177411Y184764D01*
X177341Y184708D01*
X177327Y184694D01*
X177175Y184528D01*
X177064Y184348D01*
X176995Y184167D01*
X176939Y184001D01*
X176912Y183848D01*
X176884Y183737D01*
Y183654D01*
Y183640D01*
Y183626D01*
Y183474D01*
X176912Y183335D01*
X176981Y183099D01*
X177078Y182891D01*
X177189Y182711D01*
X177300Y182586D01*
X177397Y182489D01*
X177466Y182434D01*
X177480Y182420D01*
X177494D01*
X177730Y182295D01*
X177952Y182198D01*
X178187Y182129D01*
X178395Y182087D01*
X178576Y182059D01*
X178728Y182032D01*
X178909D01*
X178964Y182045D01*
X179033D01*
X179172Y181005D01*
X178992Y181047D01*
X178825Y181075D01*
X178687Y181102D01*
X178562Y181116D01*
X178465Y181130D01*
X178340D01*
X178049Y181102D01*
X177785Y181047D01*
X177549Y180964D01*
X177355Y180867D01*
X177203Y180770D01*
X177092Y180686D01*
X177022Y180631D01*
X176995Y180603D01*
X176814Y180395D01*
X176676Y180173D01*
X176579Y179951D01*
X176523Y179729D01*
X176481Y179549D01*
X176468Y179397D01*
X176454Y179341D01*
Y179300D01*
Y179272D01*
Y179258D01*
X176481Y178953D01*
X176551Y178675D01*
X176634Y178440D01*
X176745Y178232D01*
X176856Y178065D01*
X176939Y177940D01*
X177008Y177857D01*
X177036Y177829D01*
X177258Y177635D01*
X177494Y177497D01*
X177730Y177400D01*
X177952Y177330D01*
X178146Y177289D01*
X178298Y177275D01*
X178354Y177261D01*
X178437D01*
X178687Y177275D01*
X178922Y177330D01*
X179130Y177400D01*
X179297Y177483D01*
X179436Y177552D01*
X179547Y177621D01*
X179602Y177677D01*
X179630Y177691D01*
X179796Y177885D01*
X179935Y178107D01*
X180060Y178343D01*
X180157Y178592D01*
X180226Y178800D01*
X180254Y178897D01*
X180268Y178981D01*
X180282Y179050D01*
X180295Y179105D01*
X180309Y179133D01*
Y179147D01*
X181488Y178994D01*
X181460Y178773D01*
X181419Y178564D01*
X181294Y178176D01*
X181141Y177843D01*
X181058Y177705D01*
X180975Y177566D01*
X180892Y177441D01*
X180809Y177344D01*
X180739Y177247D01*
X180670Y177178D01*
X180628Y177122D01*
X180587Y177080D01*
X180559Y177053D01*
X180545Y177039D01*
X180379Y176914D01*
X180212Y176789D01*
X180046Y176692D01*
X179865Y176609D01*
X179519Y176470D01*
X179186Y176387D01*
X179033Y176359D01*
X178895Y176332D01*
X178770Y176318D01*
X178659Y176304D01*
X178576Y176290D01*
X178451D01*
X178187Y176304D01*
X177952Y176332D01*
X177716Y176373D01*
X177494Y176429D01*
X177286Y176498D01*
X177106Y176567D01*
X176925Y176651D01*
X176773Y176734D01*
X176620Y176803D01*
X176495Y176886D01*
X176385Y176956D01*
X176301Y177025D01*
X176232Y177080D01*
X176176Y177122D01*
X176149Y177150D01*
X176135Y177164D01*
X175968Y177330D01*
X175830Y177511D01*
X175705Y177691D01*
X175594Y177871D01*
X175511Y178037D01*
X175427Y178218D01*
X175317Y178551D01*
X175289Y178703D01*
X175261Y178842D01*
X175233Y178967D01*
X175219Y179078D01*
X175206Y179161D01*
Y179230D01*
Y179272D01*
Y179286D01*
X175219Y179618D01*
X175275Y179924D01*
X175358Y180187D01*
X175441Y180409D01*
X175525Y180589D01*
X175608Y180728D01*
X175663Y180811D01*
X175677Y180839D01*
X175871Y181047D01*
X176079Y181227D01*
X176301Y181366D01*
X176523Y181477D01*
X176717Y181560D01*
X176870Y181616D01*
X176925Y181629D01*
X176967Y181643D01*
X176995Y181657D01*
X177008D01*
X176773Y181782D01*
X176579Y181907D01*
X176412Y182045D01*
X176273Y182170D01*
X176163Y182281D01*
X176079Y182378D01*
X176038Y182434D01*
X176024Y182461D01*
X175913Y182656D01*
X175830Y182850D01*
X175760Y183044D01*
X175719Y183224D01*
X175691Y183377D01*
X175677Y183488D01*
Y183571D01*
Y183599D01*
X175691Y183834D01*
X175733Y184070D01*
X175788Y184278D01*
X175858Y184459D01*
X175927Y184611D01*
X175982Y184736D01*
X176024Y184805D01*
X176038Y184833D01*
X176176Y185041D01*
X176343Y185221D01*
X176509Y185374D01*
X176676Y185513D01*
X176814Y185610D01*
X176939Y185693D01*
X177022Y185734D01*
X177036Y185748D01*
X177050D01*
X177300Y185859D01*
X177549Y185942D01*
X177799Y186012D01*
X178021Y186053D01*
X178201Y186081D01*
X178354Y186095D01*
X178701D01*
X178895Y186067D01*
D02*
G37*
G36*
X208324Y180991D02*
X207214Y180839D01*
X207117Y180991D01*
X206992Y181116D01*
X206881Y181241D01*
X206770Y181338D01*
X206659Y181408D01*
X206576Y181477D01*
X206521Y181505D01*
X206507Y181518D01*
X206327Y181602D01*
X206146Y181671D01*
X205980Y181713D01*
X205813Y181754D01*
X205675Y181768D01*
X205564Y181782D01*
X205300D01*
X205134Y181754D01*
X204843Y181685D01*
X204593Y181588D01*
X204371Y181491D01*
X204205Y181380D01*
X204080Y181283D01*
X204011Y181213D01*
X203983Y181199D01*
Y181186D01*
X203789Y180950D01*
X203650Y180700D01*
X203553Y180437D01*
X203484Y180173D01*
X203442Y179951D01*
X203428Y179854D01*
Y179771D01*
X203414Y179702D01*
Y179646D01*
Y179618D01*
Y179605D01*
Y179410D01*
X203442Y179230D01*
X203511Y178883D01*
X203608Y178592D01*
X203705Y178356D01*
X203816Y178162D01*
X203913Y178010D01*
X203955Y177968D01*
X203983Y177927D01*
X203997Y177913D01*
X204011Y177899D01*
X204121Y177788D01*
X204232Y177691D01*
X204482Y177524D01*
X204718Y177413D01*
X204954Y177344D01*
X205148Y177289D01*
X205314Y177275D01*
X205370Y177261D01*
X205453D01*
X205716Y177275D01*
X205952Y177330D01*
X206160Y177400D01*
X206327Y177483D01*
X206479Y177566D01*
X206590Y177635D01*
X206646Y177691D01*
X206673Y177705D01*
X206840Y177899D01*
X206978Y178107D01*
X207089Y178343D01*
X207173Y178551D01*
X207228Y178759D01*
X207270Y178911D01*
X207283Y178981D01*
X207297Y179022D01*
Y179050D01*
Y179064D01*
X208532Y178967D01*
X208504Y178745D01*
X208462Y178537D01*
X208337Y178148D01*
X208185Y177816D01*
X208102Y177663D01*
X208018Y177538D01*
X207949Y177413D01*
X207866Y177302D01*
X207797Y177219D01*
X207727Y177150D01*
X207672Y177094D01*
X207644Y177039D01*
X207616Y177025D01*
X207603Y177011D01*
X207436Y176886D01*
X207270Y176775D01*
X207089Y176678D01*
X206909Y176595D01*
X206562Y176470D01*
X206216Y176387D01*
X206063Y176346D01*
X205910Y176332D01*
X205786Y176318D01*
X205675Y176304D01*
X205578Y176290D01*
X205453D01*
X205162Y176304D01*
X204884Y176346D01*
X204621Y176401D01*
X204385Y176470D01*
X204163Y176567D01*
X203955Y176665D01*
X203761Y176762D01*
X203594Y176873D01*
X203442Y176984D01*
X203303Y177080D01*
X203192Y177192D01*
X203095Y177275D01*
X203026Y177344D01*
X202970Y177400D01*
X202943Y177441D01*
X202929Y177455D01*
X202790Y177635D01*
X202679Y177829D01*
X202568Y178010D01*
X202485Y178204D01*
X202346Y178578D01*
X202263Y178939D01*
X202235Y179091D01*
X202208Y179244D01*
X202194Y179369D01*
X202180Y179480D01*
X202166Y179577D01*
Y179646D01*
Y179688D01*
Y179702D01*
X202180Y179951D01*
X202208Y180187D01*
X202249Y180423D01*
X202305Y180631D01*
X202374Y180825D01*
X202443Y181019D01*
X202527Y181186D01*
X202596Y181338D01*
X202679Y181477D01*
X202762Y181602D01*
X202832Y181699D01*
X202901Y181796D01*
X202957Y181865D01*
X202998Y181907D01*
X203026Y181935D01*
X203040Y181948D01*
X203206Y182101D01*
X203373Y182240D01*
X203553Y182351D01*
X203733Y182448D01*
X203913Y182545D01*
X204094Y182614D01*
X204427Y182711D01*
X204579Y182753D01*
X204718Y182780D01*
X204843Y182794D01*
X204954Y182808D01*
X205037Y182822D01*
X205342D01*
X205508Y182794D01*
X205841Y182725D01*
X206146Y182628D01*
X206424Y182517D01*
X206646Y182406D01*
X206743Y182351D01*
X206826Y182309D01*
X206895Y182267D01*
X206937Y182240D01*
X206964Y182226D01*
X206978Y182212D01*
X206465Y184805D01*
X202624D01*
Y185929D01*
X207394D01*
X208324Y180991D01*
D02*
G37*
G36*
X154565Y185693D02*
X154718Y185471D01*
X154898Y185249D01*
X155064Y185055D01*
X155231Y184888D01*
X155356Y184750D01*
X155411Y184708D01*
X155452Y184667D01*
X155466Y184653D01*
X155480Y184639D01*
X155772Y184403D01*
X156063Y184181D01*
X156340Y183987D01*
X156617Y183834D01*
X156853Y183696D01*
X156950Y183640D01*
X157034Y183599D01*
X157103Y183557D01*
X157158Y183543D01*
X157186Y183515D01*
X157200D01*
Y182378D01*
X156992Y182461D01*
X156784Y182559D01*
X156576Y182656D01*
X156382Y182753D01*
X156215Y182836D01*
X156077Y182905D01*
X155993Y182961D01*
X155979Y182975D01*
X155966D01*
X155716Y183127D01*
X155494Y183280D01*
X155300Y183418D01*
X155147Y183543D01*
X155009Y183640D01*
X154925Y183724D01*
X154856Y183779D01*
X154842Y183793D01*
Y176290D01*
X153664D01*
Y185929D01*
X154426D01*
X154565Y185693D01*
D02*
G37*
G36*
X287065D02*
X287218Y185471D01*
X287398Y185249D01*
X287564Y185055D01*
X287731Y184888D01*
X287855Y184750D01*
X287911Y184708D01*
X287952Y184667D01*
X287966Y184653D01*
X287980Y184639D01*
X288272Y184403D01*
X288563Y184181D01*
X288840Y183987D01*
X289118Y183834D01*
X289353Y183696D01*
X289450Y183640D01*
X289534Y183599D01*
X289603Y183557D01*
X289658Y183543D01*
X289686Y183515D01*
X289700D01*
Y182378D01*
X289492Y182461D01*
X289284Y182559D01*
X289076Y182656D01*
X288882Y182753D01*
X288715Y182836D01*
X288577Y182905D01*
X288493Y182961D01*
X288479Y182975D01*
X288466D01*
X288216Y183127D01*
X287994Y183280D01*
X287800Y183418D01*
X287647Y183543D01*
X287509Y183640D01*
X287425Y183724D01*
X287356Y183779D01*
X287342Y183793D01*
Y176290D01*
X286164D01*
Y185929D01*
X286926D01*
X287065Y185693D01*
D02*
G37*
G36*
X279604D02*
X279756Y185471D01*
X279937Y185249D01*
X280103Y185055D01*
X280269Y184888D01*
X280394Y184750D01*
X280450Y184708D01*
X280491Y184667D01*
X280505Y184653D01*
X280519Y184639D01*
X280810Y184403D01*
X281101Y184181D01*
X281379Y183987D01*
X281656Y183834D01*
X281892Y183696D01*
X281989Y183640D01*
X282072Y183599D01*
X282142Y183557D01*
X282197Y183543D01*
X282225Y183515D01*
X282239D01*
Y182378D01*
X282031Y182461D01*
X281823Y182559D01*
X281615Y182656D01*
X281420Y182753D01*
X281254Y182836D01*
X281115Y182905D01*
X281032Y182961D01*
X281018Y182975D01*
X281005D01*
X280755Y183127D01*
X280533Y183280D01*
X280339Y183418D01*
X280186Y183543D01*
X280047Y183640D01*
X279964Y183724D01*
X279895Y183779D01*
X279881Y183793D01*
Y176290D01*
X278702D01*
Y185929D01*
X279465D01*
X279604Y185693D01*
D02*
G37*
G36*
X306733Y186067D02*
X307107Y185998D01*
X307426Y185887D01*
X307704Y185776D01*
X307829Y185707D01*
X307926Y185651D01*
X308023Y185596D01*
X308092Y185540D01*
X308148Y185499D01*
X308189Y185471D01*
X308217Y185457D01*
X308231Y185443D01*
X308494Y185180D01*
X308702Y184888D01*
X308869Y184583D01*
X309007Y184278D01*
X309091Y184015D01*
X309132Y183904D01*
X309160Y183807D01*
X309174Y183724D01*
X309188Y183668D01*
X309202Y183626D01*
Y183613D01*
X308023Y183405D01*
X307967Y183710D01*
X307884Y183973D01*
X307787Y184195D01*
X307690Y184375D01*
X307593Y184514D01*
X307510Y184611D01*
X307454Y184680D01*
X307440Y184694D01*
X307260Y184833D01*
X307066Y184944D01*
X306886Y185013D01*
X306705Y185069D01*
X306539Y185096D01*
X306414Y185124D01*
X306303D01*
X306053Y185110D01*
X305832Y185055D01*
X305637Y184986D01*
X305471Y184916D01*
X305346Y184833D01*
X305249Y184764D01*
X305180Y184708D01*
X305166Y184694D01*
X305013Y184528D01*
X304902Y184348D01*
X304833Y184167D01*
X304778Y184001D01*
X304750Y183848D01*
X304722Y183737D01*
Y183654D01*
Y183640D01*
Y183626D01*
Y183474D01*
X304750Y183335D01*
X304819Y183099D01*
X304916Y182891D01*
X305027Y182711D01*
X305138Y182586D01*
X305235Y182489D01*
X305305Y182434D01*
X305318Y182420D01*
X305332D01*
X305568Y182295D01*
X305790Y182198D01*
X306026Y182129D01*
X306234Y182087D01*
X306414Y182059D01*
X306567Y182032D01*
X306747D01*
X306802Y182045D01*
X306872D01*
X307010Y181005D01*
X306830Y181047D01*
X306664Y181075D01*
X306525Y181102D01*
X306400Y181116D01*
X306303Y181130D01*
X306178D01*
X305887Y181102D01*
X305623Y181047D01*
X305388Y180964D01*
X305194Y180867D01*
X305041Y180770D01*
X304930Y180686D01*
X304861Y180631D01*
X304833Y180603D01*
X304653Y180395D01*
X304514Y180173D01*
X304417Y179951D01*
X304361Y179729D01*
X304320Y179549D01*
X304306Y179397D01*
X304292Y179341D01*
Y179300D01*
Y179272D01*
Y179258D01*
X304320Y178953D01*
X304389Y178675D01*
X304472Y178440D01*
X304583Y178232D01*
X304694Y178065D01*
X304778Y177940D01*
X304847Y177857D01*
X304875Y177829D01*
X305096Y177635D01*
X305332Y177497D01*
X305568Y177400D01*
X305790Y177330D01*
X305984Y177289D01*
X306137Y177275D01*
X306192Y177261D01*
X306275D01*
X306525Y177275D01*
X306761Y177330D01*
X306969Y177400D01*
X307135Y177483D01*
X307274Y177552D01*
X307385Y177621D01*
X307440Y177677D01*
X307468Y177691D01*
X307634Y177885D01*
X307773Y178107D01*
X307898Y178343D01*
X307995Y178592D01*
X308064Y178800D01*
X308092Y178897D01*
X308106Y178981D01*
X308120Y179050D01*
X308134Y179105D01*
X308148Y179133D01*
Y179147D01*
X309326Y178994D01*
X309299Y178773D01*
X309257Y178564D01*
X309132Y178176D01*
X308980Y177843D01*
X308896Y177705D01*
X308813Y177566D01*
X308730Y177441D01*
X308647Y177344D01*
X308577Y177247D01*
X308508Y177178D01*
X308466Y177122D01*
X308425Y177080D01*
X308397Y177053D01*
X308383Y177039D01*
X308217Y176914D01*
X308050Y176789D01*
X307884Y176692D01*
X307704Y176609D01*
X307357Y176470D01*
X307024Y176387D01*
X306872Y176359D01*
X306733Y176332D01*
X306608Y176318D01*
X306497Y176304D01*
X306414Y176290D01*
X306289D01*
X306026Y176304D01*
X305790Y176332D01*
X305554Y176373D01*
X305332Y176429D01*
X305124Y176498D01*
X304944Y176567D01*
X304764Y176651D01*
X304611Y176734D01*
X304459Y176803D01*
X304334Y176886D01*
X304223Y176956D01*
X304139Y177025D01*
X304070Y177080D01*
X304015Y177122D01*
X303987Y177150D01*
X303973Y177164D01*
X303807Y177330D01*
X303668Y177511D01*
X303543Y177691D01*
X303432Y177871D01*
X303349Y178037D01*
X303266Y178218D01*
X303155Y178551D01*
X303127Y178703D01*
X303099Y178842D01*
X303072Y178967D01*
X303058Y179078D01*
X303044Y179161D01*
Y179230D01*
Y179272D01*
Y179286D01*
X303058Y179618D01*
X303113Y179924D01*
X303197Y180187D01*
X303280Y180409D01*
X303363Y180589D01*
X303446Y180728D01*
X303502Y180811D01*
X303515Y180839D01*
X303710Y181047D01*
X303918Y181227D01*
X304139Y181366D01*
X304361Y181477D01*
X304556Y181560D01*
X304708Y181616D01*
X304764Y181629D01*
X304805Y181643D01*
X304833Y181657D01*
X304847D01*
X304611Y181782D01*
X304417Y181907D01*
X304251Y182045D01*
X304112Y182170D01*
X304001Y182281D01*
X303918Y182378D01*
X303876Y182434D01*
X303862Y182461D01*
X303751Y182656D01*
X303668Y182850D01*
X303599Y183044D01*
X303557Y183224D01*
X303529Y183377D01*
X303515Y183488D01*
Y183571D01*
Y183599D01*
X303529Y183834D01*
X303571Y184070D01*
X303626Y184278D01*
X303696Y184459D01*
X303765Y184611D01*
X303821Y184736D01*
X303862Y184805D01*
X303876Y184833D01*
X304015Y185041D01*
X304181Y185221D01*
X304348Y185374D01*
X304514Y185513D01*
X304653Y185610D01*
X304778Y185693D01*
X304861Y185734D01*
X304875Y185748D01*
X304888D01*
X305138Y185859D01*
X305388Y185942D01*
X305637Y186012D01*
X305859Y186053D01*
X306040Y186081D01*
X306192Y186095D01*
X306539D01*
X306733Y186067D01*
D02*
G37*
G36*
X313265Y185859D02*
X313417Y185637D01*
X313598Y185415D01*
X313764Y185221D01*
X313931Y185055D01*
X314056Y184916D01*
X314111Y184875D01*
X314153Y184833D01*
X314166Y184819D01*
X314180Y184805D01*
X314471Y184569D01*
X314763Y184348D01*
X315040Y184153D01*
X315317Y184001D01*
X315553Y183862D01*
X315650Y183807D01*
X315734Y183765D01*
X315803Y183724D01*
X315858Y183710D01*
X315886Y183682D01*
X315900D01*
Y182545D01*
X315692Y182628D01*
X315484Y182725D01*
X315276Y182822D01*
X315082Y182919D01*
X314915Y183002D01*
X314777Y183072D01*
X314693Y183127D01*
X314680Y183141D01*
X314666D01*
X314416Y183294D01*
X314194Y183446D01*
X314000Y183585D01*
X313847Y183710D01*
X313709Y183807D01*
X313626Y183890D01*
X313556Y183945D01*
X313542Y183959D01*
Y176457D01*
X312363D01*
Y186095D01*
X313126D01*
X313265Y185859D01*
D02*
G37*
G36*
X235660Y184625D02*
X230958D01*
X231291Y184223D01*
X231610Y183793D01*
X231887Y183377D01*
X232151Y182975D01*
X232262Y182794D01*
X232359Y182628D01*
X232456Y182475D01*
X232525Y182351D01*
X232581Y182240D01*
X232622Y182170D01*
X232650Y182115D01*
X232664Y182101D01*
X232941Y181546D01*
X233191Y180991D01*
X233399Y180464D01*
X233482Y180229D01*
X233566Y179993D01*
X233649Y179785D01*
X233704Y179591D01*
X233760Y179424D01*
X233801Y179286D01*
X233843Y179161D01*
X233871Y179078D01*
X233884Y179022D01*
Y179008D01*
X234023Y178440D01*
X234079Y178162D01*
X234120Y177913D01*
X234162Y177677D01*
X234203Y177441D01*
X234231Y177247D01*
X234259Y177053D01*
X234273Y176886D01*
X234287Y176734D01*
X234300Y176595D01*
Y176484D01*
X234314Y176401D01*
Y176346D01*
Y176304D01*
Y176290D01*
X233108D01*
X233066Y176817D01*
X232997Y177302D01*
X232927Y177746D01*
X232886Y177954D01*
X232844Y178148D01*
X232817Y178315D01*
X232775Y178467D01*
X232747Y178606D01*
X232719Y178717D01*
X232692Y178800D01*
X232678Y178870D01*
X232664Y178911D01*
Y178925D01*
X232456Y179563D01*
X232234Y180159D01*
X232123Y180451D01*
X232012Y180728D01*
X231887Y180978D01*
X231776Y181227D01*
X231679Y181449D01*
X231582Y181643D01*
X231499Y181810D01*
X231430Y181962D01*
X231360Y182087D01*
X231319Y182170D01*
X231291Y182226D01*
X231277Y182240D01*
X231111Y182531D01*
X230944Y182822D01*
X230778Y183086D01*
X230611Y183335D01*
X230459Y183557D01*
X230306Y183779D01*
X230154Y183973D01*
X230029Y184140D01*
X229904Y184306D01*
X229793Y184445D01*
X229682Y184556D01*
X229599Y184653D01*
X229544Y184736D01*
X229488Y184791D01*
X229460Y184819D01*
X229447Y184833D01*
Y185762D01*
X235660D01*
Y184625D01*
D02*
G37*
G36*
X367907Y80791D02*
X368143Y80777D01*
X368365Y80736D01*
X368573Y80694D01*
X368767Y80639D01*
X368947Y80583D01*
X369114Y80514D01*
X369266Y80444D01*
X369405Y80375D01*
X369516Y80306D01*
X369613Y80250D01*
X369696Y80195D01*
X369766Y80153D01*
X369807Y80112D01*
X369835Y80098D01*
X369849Y80084D01*
X369988Y79945D01*
X370112Y79793D01*
X370237Y79626D01*
X370334Y79460D01*
X370501Y79127D01*
X370612Y78794D01*
X370653Y78642D01*
X370695Y78489D01*
X370723Y78364D01*
X370750Y78253D01*
X370764Y78156D01*
Y78087D01*
X370778Y78045D01*
Y78031D01*
X369571Y77906D01*
X369544Y78225D01*
X369488Y78503D01*
X369405Y78752D01*
X369308Y78947D01*
X369225Y79113D01*
X369142Y79224D01*
X369086Y79293D01*
X369058Y79321D01*
X368850Y79488D01*
X368629Y79612D01*
X368393Y79709D01*
X368185Y79765D01*
X367991Y79806D01*
X367824Y79820D01*
X367769Y79834D01*
X367685D01*
X367394Y79820D01*
X367131Y79765D01*
X366909Y79682D01*
X366715Y79598D01*
X366562Y79501D01*
X366465Y79432D01*
X366396Y79377D01*
X366368Y79349D01*
X366202Y79155D01*
X366077Y78960D01*
X365980Y78766D01*
X365924Y78572D01*
X365883Y78420D01*
X365869Y78281D01*
X365855Y78198D01*
Y78184D01*
Y78170D01*
X365883Y77920D01*
X365938Y77657D01*
X366035Y77421D01*
X366132Y77199D01*
X366243Y77019D01*
X366340Y76866D01*
X366368Y76811D01*
X366396Y76769D01*
X366423Y76755D01*
Y76741D01*
X366534Y76589D01*
X366673Y76436D01*
X366826Y76270D01*
X366992Y76104D01*
X367339Y75771D01*
X367685Y75438D01*
X367866Y75285D01*
X368018Y75147D01*
X368171Y75022D01*
X368296Y74911D01*
X368393Y74828D01*
X368476Y74758D01*
X368531Y74717D01*
X368545Y74703D01*
X368892Y74412D01*
X369211Y74134D01*
X369474Y73885D01*
X369683Y73677D01*
X369863Y73496D01*
X369988Y73372D01*
X370057Y73288D01*
X370085Y73274D01*
Y73261D01*
X370279Y73025D01*
X370431Y72803D01*
X370570Y72581D01*
X370681Y72387D01*
X370764Y72220D01*
X370820Y72096D01*
X370847Y72012D01*
X370861Y71999D01*
Y71985D01*
X370917Y71832D01*
X370945Y71693D01*
X370972Y71555D01*
X370986Y71430D01*
X371000Y71319D01*
Y71236D01*
Y71180D01*
Y71166D01*
X364634D01*
Y72304D01*
X369364D01*
X369197Y72539D01*
X369114Y72636D01*
X369045Y72734D01*
X368975Y72817D01*
X368920Y72872D01*
X368878Y72914D01*
X368864Y72928D01*
X368795Y72997D01*
X368712Y73066D01*
X368518Y73247D01*
X368296Y73455D01*
X368060Y73663D01*
X367838Y73843D01*
X367741Y73926D01*
X367658Y74009D01*
X367588Y74065D01*
X367533Y74106D01*
X367505Y74134D01*
X367491Y74148D01*
X367269Y74342D01*
X367048Y74523D01*
X366853Y74703D01*
X366673Y74855D01*
X366507Y75008D01*
X366368Y75147D01*
X366229Y75272D01*
X366118Y75382D01*
X366007Y75493D01*
X365924Y75577D01*
X365855Y75646D01*
X365785Y75715D01*
X365716Y75799D01*
X365688Y75826D01*
X365494Y76062D01*
X365328Y76270D01*
X365189Y76478D01*
X365078Y76644D01*
X364995Y76797D01*
X364939Y76908D01*
X364912Y76977D01*
X364898Y77005D01*
X364815Y77213D01*
X364759Y77421D01*
X364704Y77615D01*
X364676Y77782D01*
X364662Y77934D01*
X364648Y78045D01*
Y78115D01*
Y78142D01*
X364662Y78350D01*
X364690Y78544D01*
X364718Y78739D01*
X364773Y78905D01*
X364912Y79238D01*
X365051Y79501D01*
X365134Y79626D01*
X365203Y79723D01*
X365272Y79820D01*
X365342Y79890D01*
X365397Y79945D01*
X365425Y80001D01*
X365453Y80014D01*
X365466Y80028D01*
X365619Y80167D01*
X365785Y80292D01*
X365966Y80389D01*
X366146Y80472D01*
X366507Y80611D01*
X366867Y80708D01*
X367020Y80736D01*
X367172Y80763D01*
X367311Y80777D01*
X367422Y80791D01*
X367519Y80805D01*
X367658D01*
X367907Y80791D01*
D02*
G37*
G36*
X360613Y80777D02*
X360959Y80722D01*
X361250Y80625D01*
X361500Y80528D01*
X361708Y80417D01*
X361791Y80375D01*
X361861Y80320D01*
X361916Y80292D01*
X361958Y80264D01*
X361972Y80236D01*
X361986D01*
X362235Y80014D01*
X362443Y79751D01*
X362623Y79488D01*
X362762Y79238D01*
X362873Y79002D01*
X362929Y78905D01*
X362956Y78808D01*
X362984Y78739D01*
X363012Y78683D01*
X363026Y78655D01*
Y78642D01*
X363081Y78433D01*
X363137Y78225D01*
X363220Y77768D01*
X363289Y77310D01*
X363331Y76880D01*
X363345Y76672D01*
X363358Y76492D01*
Y76325D01*
X363372Y76173D01*
Y76062D01*
Y75965D01*
Y75909D01*
Y75896D01*
X363358Y75410D01*
X363331Y74953D01*
X363289Y74536D01*
X363220Y74148D01*
X363150Y73788D01*
X363067Y73469D01*
X362984Y73177D01*
X362901Y72928D01*
X362818Y72706D01*
X362721Y72512D01*
X362651Y72345D01*
X362582Y72220D01*
X362513Y72109D01*
X362471Y72040D01*
X362443Y71999D01*
X362429Y71985D01*
X362277Y71818D01*
X362110Y71666D01*
X361930Y71527D01*
X361750Y71416D01*
X361570Y71319D01*
X361389Y71236D01*
X361209Y71180D01*
X361043Y71125D01*
X360876Y71083D01*
X360723Y71055D01*
X360585Y71028D01*
X360474Y71014D01*
X360377Y71000D01*
X360238D01*
X359864Y71028D01*
X359517Y71083D01*
X359226Y71180D01*
X358976Y71277D01*
X358768Y71375D01*
X358699Y71430D01*
X358629Y71472D01*
X358574Y71499D01*
X358532Y71527D01*
X358518Y71555D01*
X358505D01*
X358255Y71790D01*
X358047Y72040D01*
X357867Y72318D01*
X357728Y72567D01*
X357617Y72803D01*
X357561Y72900D01*
X357534Y72997D01*
X357506Y73066D01*
X357478Y73122D01*
X357464Y73150D01*
Y73163D01*
X357395Y73372D01*
X357340Y73580D01*
X357256Y74023D01*
X357187Y74481D01*
X357146Y74925D01*
X357132Y75119D01*
X357118Y75299D01*
Y75466D01*
X357104Y75618D01*
Y75729D01*
Y75826D01*
Y75882D01*
Y75896D01*
Y76159D01*
X357118Y76409D01*
Y76631D01*
X357132Y76852D01*
X357159Y77047D01*
X357173Y77241D01*
X357187Y77407D01*
X357215Y77560D01*
X357229Y77698D01*
X357256Y77823D01*
X357270Y77920D01*
X357284Y78004D01*
X357298Y78073D01*
X357312Y78115D01*
X357326Y78142D01*
Y78156D01*
X357409Y78461D01*
X357506Y78739D01*
X357617Y78974D01*
X357700Y79182D01*
X357797Y79363D01*
X357853Y79488D01*
X357908Y79557D01*
X357922Y79585D01*
X358075Y79793D01*
X358227Y79973D01*
X358394Y80125D01*
X358546Y80264D01*
X358685Y80361D01*
X358796Y80430D01*
X358865Y80472D01*
X358879Y80486D01*
X358893D01*
X359115Y80597D01*
X359351Y80666D01*
X359572Y80722D01*
X359781Y80763D01*
X359961Y80791D01*
X360113Y80805D01*
X360238D01*
X360613Y80777D01*
D02*
G37*
G36*
X175365Y80569D02*
X175518Y80347D01*
X175698Y80125D01*
X175864Y79931D01*
X176031Y79765D01*
X176155Y79626D01*
X176211Y79585D01*
X176253Y79543D01*
X176266Y79529D01*
X176280Y79515D01*
X176572Y79279D01*
X176863Y79058D01*
X177140Y78863D01*
X177418Y78711D01*
X177653Y78572D01*
X177750Y78517D01*
X177834Y78475D01*
X177903Y78433D01*
X177958Y78420D01*
X177986Y78392D01*
X178000D01*
Y77255D01*
X177792Y77338D01*
X177584Y77435D01*
X177376Y77532D01*
X177182Y77629D01*
X177015Y77712D01*
X176877Y77782D01*
X176793Y77837D01*
X176780Y77851D01*
X176766D01*
X176516Y78004D01*
X176294Y78156D01*
X176100Y78295D01*
X175947Y78420D01*
X175809Y78517D01*
X175726Y78600D01*
X175656Y78655D01*
X175642Y78669D01*
Y71166D01*
X174464D01*
Y80805D01*
X175226D01*
X175365Y80569D01*
D02*
G37*
%LPC*%
G36*
X380536Y245124D02*
X380453D01*
X380300Y245110D01*
X380148Y245096D01*
X380009Y245055D01*
X379884Y244999D01*
X379649Y244874D01*
X379440Y244736D01*
X379288Y244583D01*
X379163Y244459D01*
X379122Y244403D01*
X379094Y244361D01*
X379066Y244347D01*
Y244334D01*
X378969Y244167D01*
X378886Y243973D01*
X378803Y243751D01*
X378747Y243515D01*
X378692Y243266D01*
X378650Y243002D01*
X378581Y242475D01*
X378553Y242212D01*
X378539Y241976D01*
X378525Y241754D01*
Y241574D01*
X378511Y241407D01*
Y241283D01*
Y241213D01*
Y241199D01*
Y241185D01*
Y240756D01*
X378539Y240367D01*
X378567Y240021D01*
X378595Y239688D01*
X378636Y239410D01*
X378692Y239147D01*
X378747Y238925D01*
X378789Y238717D01*
X378844Y238551D01*
X378900Y238412D01*
X378941Y238287D01*
X378997Y238190D01*
X379025Y238121D01*
X379052Y238079D01*
X379080Y238051D01*
Y238037D01*
X379191Y237899D01*
X379302Y237788D01*
X379413Y237677D01*
X379524Y237594D01*
X379759Y237455D01*
X379967Y237358D01*
X380162Y237302D01*
X380300Y237275D01*
X380356Y237261D01*
X380439D01*
X380592Y237275D01*
X380730Y237288D01*
X380994Y237386D01*
X381230Y237510D01*
X381438Y237649D01*
X381590Y237788D01*
X381715Y237913D01*
X381784Y238010D01*
X381812Y238024D01*
Y238037D01*
X381909Y238204D01*
X381992Y238398D01*
X382076Y238620D01*
X382131Y238856D01*
X382187Y239105D01*
X382228Y239369D01*
X382297Y239910D01*
X382325Y240159D01*
X382339Y240395D01*
X382353Y240617D01*
Y240797D01*
X382367Y240964D01*
Y241089D01*
Y241158D01*
Y241185D01*
X382353Y241616D01*
X382339Y242004D01*
X382311Y242364D01*
X382270Y242697D01*
X382228Y242988D01*
X382173Y243252D01*
X382117Y243488D01*
X382062Y243696D01*
X382006Y243876D01*
X381965Y244029D01*
X381909Y244153D01*
X381867Y244264D01*
X381826Y244334D01*
X381798Y244389D01*
X381770Y244417D01*
Y244431D01*
X381673Y244556D01*
X381576Y244667D01*
X381465Y244750D01*
X381354Y244833D01*
X381133Y244958D01*
X380924Y245041D01*
X380744Y245083D01*
X380592Y245110D01*
X380536Y245124D01*
D02*
G37*
G36*
X381562Y185124D02*
X381340D01*
X381202Y185096D01*
X380952Y185027D01*
X380730Y184930D01*
X380536Y184833D01*
X380384Y184722D01*
X380273Y184625D01*
X380203Y184556D01*
X380176Y184542D01*
Y184528D01*
X379995Y184292D01*
X379857Y184029D01*
X379759Y183751D01*
X379704Y183488D01*
X379662Y183266D01*
X379649Y183169D01*
Y183072D01*
X379635Y183002D01*
Y182947D01*
Y182919D01*
Y182905D01*
X379662Y182545D01*
X379718Y182226D01*
X379801Y181962D01*
X379898Y181740D01*
X380009Y181560D01*
X380092Y181435D01*
X380148Y181352D01*
X380176Y181324D01*
X380384Y181130D01*
X380606Y180991D01*
X380827Y180894D01*
X381049Y180825D01*
X381230Y180783D01*
X381382Y180770D01*
X381438Y180756D01*
X381521D01*
X381812Y180783D01*
X382076Y180839D01*
X382311Y180936D01*
X382519Y181047D01*
X382672Y181144D01*
X382797Y181241D01*
X382866Y181297D01*
X382894Y181324D01*
X383074Y181546D01*
X383213Y181796D01*
X383296Y182045D01*
X383365Y182281D01*
X383407Y182489D01*
X383421Y182572D01*
Y182656D01*
X383435Y182725D01*
Y182767D01*
Y182794D01*
Y182808D01*
X383407Y183169D01*
X383351Y183502D01*
X383254Y183793D01*
X383143Y184029D01*
X383046Y184223D01*
X382949Y184361D01*
X382921Y184403D01*
X382894Y184445D01*
X382866Y184459D01*
Y184472D01*
X382755Y184583D01*
X382644Y184694D01*
X382408Y184847D01*
X382173Y184972D01*
X381951Y185041D01*
X381770Y185096D01*
X381618Y185110D01*
X381562Y185124D01*
D02*
G37*
G36*
X355678Y245124D02*
X355567D01*
X355331Y245110D01*
X355110Y245055D01*
X354929Y244986D01*
X354763Y244902D01*
X354638Y244819D01*
X354541Y244750D01*
X354472Y244694D01*
X354458Y244680D01*
X354305Y244500D01*
X354194Y244320D01*
X354111Y244139D01*
X354056Y243973D01*
X354028Y243820D01*
X354000Y243696D01*
Y243612D01*
Y243599D01*
Y243585D01*
X354014Y243363D01*
X354069Y243155D01*
X354139Y242975D01*
X354222Y242822D01*
X354305Y242697D01*
X354375Y242614D01*
X354430Y242545D01*
X354444Y242531D01*
X354610Y242392D01*
X354804Y242281D01*
X354985Y242212D01*
X355165Y242156D01*
X355331Y242129D01*
X355456Y242115D01*
X355540Y242101D01*
X355567D01*
X355817Y242115D01*
X356039Y242170D01*
X356233Y242239D01*
X356399Y242323D01*
X356524Y242392D01*
X356621Y242461D01*
X356691Y242517D01*
X356704Y242531D01*
X356843Y242697D01*
X356954Y242891D01*
X357023Y243072D01*
X357079Y243252D01*
X357107Y243405D01*
X357121Y243529D01*
X357134Y243612D01*
Y243626D01*
Y243640D01*
X357121Y243862D01*
X357065Y244056D01*
X356996Y244237D01*
X356912Y244389D01*
X356843Y244514D01*
X356774Y244611D01*
X356718Y244667D01*
X356704Y244680D01*
X356524Y244833D01*
X356344Y244944D01*
X356150Y245013D01*
X355969Y245069D01*
X355803Y245096D01*
X355678Y245124D01*
D02*
G37*
G36*
X355692Y241144D02*
X355609D01*
X355304Y241116D01*
X355026Y241061D01*
X354777Y240964D01*
X354569Y240867D01*
X354402Y240756D01*
X354277Y240658D01*
X354208Y240603D01*
X354180Y240575D01*
X353986Y240353D01*
X353848Y240118D01*
X353750Y239882D01*
X353681Y239674D01*
X353639Y239466D01*
X353626Y239313D01*
X353612Y239258D01*
Y239216D01*
Y239188D01*
Y239175D01*
X353639Y238883D01*
X353695Y238606D01*
X353792Y238370D01*
X353889Y238176D01*
X353986Y238024D01*
X354083Y237899D01*
X354139Y237829D01*
X354166Y237802D01*
X354388Y237621D01*
X354610Y237483D01*
X354846Y237400D01*
X355068Y237330D01*
X355262Y237288D01*
X355429Y237275D01*
X355484Y237261D01*
X355567D01*
X355761Y237275D01*
X355956Y237302D01*
X356136Y237344D01*
X356288Y237386D01*
X356413Y237427D01*
X356510Y237469D01*
X356566Y237497D01*
X356594Y237510D01*
X356760Y237621D01*
X356899Y237732D01*
X357023Y237857D01*
X357121Y237982D01*
X357204Y238079D01*
X357259Y238162D01*
X357287Y238232D01*
X357301Y238245D01*
X357370Y238426D01*
X357426Y238592D01*
X357467Y238759D01*
X357495Y238911D01*
X357509Y239036D01*
X357523Y239133D01*
Y239188D01*
Y239216D01*
X357495Y239508D01*
X357439Y239771D01*
X357356Y240007D01*
X357245Y240215D01*
X357148Y240367D01*
X357065Y240492D01*
X357010Y240562D01*
X356982Y240589D01*
X356774Y240770D01*
X356538Y240908D01*
X356316Y241005D01*
X356094Y241075D01*
X355900Y241116D01*
X355747Y241130D01*
X355692Y241144D01*
D02*
G37*
G36*
X329306Y241643D02*
X329223D01*
X328932Y241616D01*
X328668Y241546D01*
X328446Y241463D01*
X328252Y241352D01*
X328099Y241241D01*
X327989Y241158D01*
X327919Y241089D01*
X327891Y241061D01*
X327711Y240825D01*
X327572Y240575D01*
X327475Y240312D01*
X327420Y240062D01*
X327378Y239840D01*
X327364Y239743D01*
Y239660D01*
X327351Y239591D01*
Y239535D01*
Y239508D01*
Y239494D01*
X327378Y239119D01*
X327434Y238800D01*
X327517Y238523D01*
X327614Y238287D01*
X327725Y238107D01*
X327808Y237968D01*
X327864Y237885D01*
X327891Y237871D01*
Y237857D01*
X327989Y237746D01*
X328099Y237663D01*
X328321Y237510D01*
X328543Y237413D01*
X328737Y237330D01*
X328918Y237288D01*
X329056Y237275D01*
X329112Y237261D01*
X329181D01*
X329375Y237275D01*
X329556Y237302D01*
X329722Y237358D01*
X329861Y237413D01*
X329986Y237455D01*
X330083Y237510D01*
X330138Y237538D01*
X330166Y237552D01*
X330332Y237677D01*
X330471Y237802D01*
X330596Y237954D01*
X330693Y238079D01*
X330776Y238204D01*
X330831Y238301D01*
X330873Y238370D01*
X330887Y238398D01*
X330970Y238606D01*
X331026Y238814D01*
X331081Y239008D01*
X331109Y239188D01*
X331123Y239341D01*
X331137Y239466D01*
Y239535D01*
Y239563D01*
X331109Y239896D01*
X331053Y240187D01*
X330956Y240450D01*
X330859Y240658D01*
X330762Y240839D01*
X330665Y240964D01*
X330610Y241033D01*
X330582Y241061D01*
X330360Y241255D01*
X330138Y241394D01*
X329902Y241504D01*
X329694Y241574D01*
X329500Y241616D01*
X329361Y241629D01*
X329306Y241643D01*
D02*
G37*
G36*
X303668Y244139D02*
Y239840D01*
X306691D01*
X303668Y244139D01*
D02*
G37*
G36*
X205125Y241643D02*
X205042D01*
X204751Y241616D01*
X204487Y241546D01*
X204265Y241463D01*
X204071Y241352D01*
X203919Y241241D01*
X203808Y241158D01*
X203738Y241089D01*
X203711Y241061D01*
X203531Y240825D01*
X203392Y240575D01*
X203295Y240312D01*
X203239Y240062D01*
X203198Y239840D01*
X203184Y239743D01*
Y239660D01*
X203170Y239591D01*
Y239535D01*
Y239508D01*
Y239494D01*
X203198Y239119D01*
X203253Y238800D01*
X203336Y238523D01*
X203433Y238287D01*
X203544Y238107D01*
X203628Y237968D01*
X203683Y237885D01*
X203711Y237871D01*
Y237857D01*
X203808Y237746D01*
X203919Y237663D01*
X204141Y237510D01*
X204363Y237413D01*
X204557Y237330D01*
X204737Y237288D01*
X204876Y237275D01*
X204931Y237261D01*
X205000D01*
X205195Y237275D01*
X205375Y237302D01*
X205541Y237358D01*
X205680Y237413D01*
X205805Y237455D01*
X205902Y237510D01*
X205957Y237538D01*
X205985Y237552D01*
X206152Y237677D01*
X206290Y237802D01*
X206415Y237954D01*
X206512Y238079D01*
X206595Y238204D01*
X206651Y238301D01*
X206693Y238370D01*
X206706Y238398D01*
X206790Y238606D01*
X206845Y238814D01*
X206901Y239008D01*
X206928Y239188D01*
X206942Y239341D01*
X206956Y239466D01*
Y239535D01*
Y239563D01*
X206928Y239896D01*
X206873Y240187D01*
X206776Y240450D01*
X206679Y240658D01*
X206581Y240839D01*
X206484Y240964D01*
X206429Y241033D01*
X206401Y241061D01*
X206179Y241255D01*
X205957Y241394D01*
X205722Y241504D01*
X205514Y241574D01*
X205319Y241616D01*
X205181Y241629D01*
X205125Y241643D01*
D02*
G37*
G36*
X179019Y244181D02*
Y239882D01*
X182042D01*
X179019Y244181D01*
D02*
G37*
G36*
X250939Y245124D02*
X250856D01*
X250703Y245110D01*
X250551Y245096D01*
X250412Y245055D01*
X250287Y244999D01*
X250051Y244874D01*
X249843Y244736D01*
X249691Y244583D01*
X249566Y244459D01*
X249524Y244403D01*
X249497Y244361D01*
X249469Y244347D01*
Y244334D01*
X249372Y244167D01*
X249289Y243973D01*
X249205Y243751D01*
X249150Y243515D01*
X249095Y243266D01*
X249053Y243002D01*
X248984Y242475D01*
X248956Y242212D01*
X248942Y241976D01*
X248928Y241754D01*
Y241574D01*
X248914Y241407D01*
Y241283D01*
Y241213D01*
Y241199D01*
Y241185D01*
Y240756D01*
X248942Y240367D01*
X248970Y240021D01*
X248997Y239688D01*
X249039Y239410D01*
X249095Y239147D01*
X249150Y238925D01*
X249192Y238717D01*
X249247Y238551D01*
X249303Y238412D01*
X249344Y238287D01*
X249400Y238190D01*
X249427Y238121D01*
X249455Y238079D01*
X249483Y238051D01*
Y238037D01*
X249594Y237899D01*
X249705Y237788D01*
X249816Y237677D01*
X249927Y237594D01*
X250162Y237455D01*
X250370Y237358D01*
X250565Y237302D01*
X250703Y237275D01*
X250759Y237261D01*
X250842D01*
X250994Y237275D01*
X251133Y237288D01*
X251397Y237386D01*
X251632Y237510D01*
X251840Y237649D01*
X251993Y237788D01*
X252118Y237913D01*
X252187Y238010D01*
X252215Y238024D01*
Y238037D01*
X252312Y238204D01*
X252395Y238398D01*
X252478Y238620D01*
X252534Y238856D01*
X252589Y239105D01*
X252631Y239369D01*
X252700Y239910D01*
X252728Y240159D01*
X252742Y240395D01*
X252756Y240617D01*
Y240797D01*
X252770Y240964D01*
Y241089D01*
Y241158D01*
Y241185D01*
X252756Y241616D01*
X252742Y242004D01*
X252714Y242364D01*
X252673Y242697D01*
X252631Y242988D01*
X252575Y243252D01*
X252520Y243488D01*
X252465Y243696D01*
X252409Y243876D01*
X252367Y244029D01*
X252312Y244153D01*
X252270Y244264D01*
X252229Y244334D01*
X252201Y244389D01*
X252173Y244417D01*
Y244431D01*
X252076Y244556D01*
X251979Y244667D01*
X251868Y244750D01*
X251757Y244833D01*
X251535Y244958D01*
X251327Y245041D01*
X251147Y245083D01*
X250994Y245110D01*
X250939Y245124D01*
D02*
G37*
G36*
X230086D02*
X229975D01*
X229739Y245110D01*
X229517Y245055D01*
X229337Y244986D01*
X229170Y244902D01*
X229046Y244819D01*
X228948Y244750D01*
X228879Y244694D01*
X228865Y244680D01*
X228713Y244500D01*
X228602Y244320D01*
X228519Y244139D01*
X228463Y243973D01*
X228435Y243820D01*
X228408Y243696D01*
Y243612D01*
Y243599D01*
Y243585D01*
X228421Y243363D01*
X228477Y243155D01*
X228546Y242975D01*
X228630Y242822D01*
X228713Y242697D01*
X228782Y242614D01*
X228838Y242545D01*
X228852Y242531D01*
X229018Y242392D01*
X229212Y242281D01*
X229392Y242212D01*
X229573Y242156D01*
X229739Y242129D01*
X229864Y242115D01*
X229947Y242101D01*
X229975D01*
X230224Y242115D01*
X230446Y242170D01*
X230641Y242239D01*
X230807Y242323D01*
X230932Y242392D01*
X231029Y242461D01*
X231098Y242517D01*
X231112Y242531D01*
X231251Y242697D01*
X231362Y242891D01*
X231431Y243072D01*
X231486Y243252D01*
X231514Y243405D01*
X231528Y243529D01*
X231542Y243612D01*
Y243626D01*
Y243640D01*
X231528Y243862D01*
X231473Y244056D01*
X231403Y244237D01*
X231320Y244389D01*
X231251Y244514D01*
X231181Y244611D01*
X231126Y244667D01*
X231112Y244680D01*
X230932Y244833D01*
X230751Y244944D01*
X230557Y245013D01*
X230377Y245069D01*
X230211Y245096D01*
X230086Y245124D01*
D02*
G37*
G36*
X230100Y241144D02*
X230016D01*
X229711Y241116D01*
X229434Y241061D01*
X229184Y240964D01*
X228976Y240867D01*
X228810Y240756D01*
X228685Y240658D01*
X228616Y240603D01*
X228588Y240575D01*
X228394Y240353D01*
X228255Y240118D01*
X228158Y239882D01*
X228089Y239674D01*
X228047Y239466D01*
X228033Y239313D01*
X228019Y239258D01*
Y239216D01*
Y239188D01*
Y239175D01*
X228047Y238883D01*
X228103Y238606D01*
X228200Y238370D01*
X228297Y238176D01*
X228394Y238024D01*
X228491Y237899D01*
X228546Y237829D01*
X228574Y237802D01*
X228796Y237621D01*
X229018Y237483D01*
X229254Y237400D01*
X229475Y237330D01*
X229670Y237288D01*
X229836Y237275D01*
X229892Y237261D01*
X229975D01*
X230169Y237275D01*
X230363Y237302D01*
X230543Y237344D01*
X230696Y237386D01*
X230821Y237427D01*
X230918Y237469D01*
X230973Y237497D01*
X231001Y237510D01*
X231168Y237621D01*
X231306Y237732D01*
X231431Y237857D01*
X231528Y237982D01*
X231611Y238079D01*
X231667Y238162D01*
X231695Y238232D01*
X231708Y238245D01*
X231778Y238426D01*
X231833Y238592D01*
X231875Y238759D01*
X231903Y238911D01*
X231916Y239036D01*
X231930Y239133D01*
Y239188D01*
Y239216D01*
X231903Y239508D01*
X231847Y239771D01*
X231764Y240007D01*
X231653Y240215D01*
X231556Y240367D01*
X231473Y240492D01*
X231417Y240562D01*
X231389Y240589D01*
X231181Y240770D01*
X230946Y240908D01*
X230724Y241005D01*
X230502Y241075D01*
X230308Y241116D01*
X230155Y241130D01*
X230100Y241144D01*
D02*
G37*
G36*
X259549Y185124D02*
X259328D01*
X259189Y185096D01*
X258939Y185027D01*
X258717Y184930D01*
X258523Y184833D01*
X258371Y184722D01*
X258260Y184625D01*
X258190Y184556D01*
X258163Y184542D01*
Y184528D01*
X257982Y184292D01*
X257844Y184029D01*
X257747Y183751D01*
X257691Y183488D01*
X257649Y183266D01*
X257636Y183169D01*
Y183072D01*
X257622Y183002D01*
Y182947D01*
Y182919D01*
Y182905D01*
X257649Y182545D01*
X257705Y182226D01*
X257788Y181962D01*
X257885Y181740D01*
X257996Y181560D01*
X258079Y181435D01*
X258135Y181352D01*
X258163Y181324D01*
X258371Y181130D01*
X258592Y180991D01*
X258814Y180894D01*
X259036Y180825D01*
X259217Y180783D01*
X259369Y180770D01*
X259425Y180756D01*
X259508D01*
X259799Y180783D01*
X260063Y180839D01*
X260298Y180936D01*
X260506Y181047D01*
X260659Y181144D01*
X260784Y181241D01*
X260853Y181297D01*
X260881Y181324D01*
X261061Y181546D01*
X261200Y181796D01*
X261283Y182045D01*
X261352Y182281D01*
X261394Y182489D01*
X261408Y182572D01*
Y182656D01*
X261422Y182725D01*
Y182767D01*
Y182794D01*
Y182808D01*
X261394Y183169D01*
X261339Y183502D01*
X261241Y183793D01*
X261130Y184029D01*
X261033Y184223D01*
X260936Y184361D01*
X260909Y184403D01*
X260881Y184445D01*
X260853Y184459D01*
Y184472D01*
X260742Y184583D01*
X260631Y184694D01*
X260395Y184847D01*
X260160Y184972D01*
X259938Y185041D01*
X259757Y185096D01*
X259605Y185110D01*
X259549Y185124D01*
D02*
G37*
G36*
X360335Y79834D02*
X360252D01*
X360099Y79820D01*
X359947Y79806D01*
X359808Y79765D01*
X359683Y79709D01*
X359448Y79585D01*
X359240Y79446D01*
X359087Y79293D01*
X358962Y79169D01*
X358921Y79113D01*
X358893Y79071D01*
X358865Y79058D01*
Y79044D01*
X358768Y78877D01*
X358685Y78683D01*
X358602Y78461D01*
X358546Y78225D01*
X358491Y77976D01*
X358449Y77712D01*
X358380Y77185D01*
X358352Y76922D01*
X358338Y76686D01*
X358324Y76464D01*
Y76284D01*
X358310Y76117D01*
Y75993D01*
Y75923D01*
Y75909D01*
Y75896D01*
Y75466D01*
X358338Y75077D01*
X358366Y74731D01*
X358394Y74398D01*
X358435Y74120D01*
X358491Y73857D01*
X358546Y73635D01*
X358588Y73427D01*
X358643Y73261D01*
X358699Y73122D01*
X358740Y72997D01*
X358796Y72900D01*
X358824Y72831D01*
X358851Y72789D01*
X358879Y72761D01*
Y72747D01*
X358990Y72609D01*
X359101Y72498D01*
X359212Y72387D01*
X359323Y72304D01*
X359559Y72165D01*
X359767Y72068D01*
X359961Y72012D01*
X360099Y71985D01*
X360155Y71971D01*
X360238D01*
X360391Y71985D01*
X360529Y71999D01*
X360793Y72096D01*
X361029Y72220D01*
X361237Y72359D01*
X361389Y72498D01*
X361514Y72623D01*
X361583Y72720D01*
X361611Y72734D01*
Y72747D01*
X361708Y72914D01*
X361791Y73108D01*
X361875Y73330D01*
X361930Y73566D01*
X361986Y73815D01*
X362027Y74079D01*
X362096Y74620D01*
X362124Y74869D01*
X362138Y75105D01*
X362152Y75327D01*
Y75507D01*
X362166Y75674D01*
Y75799D01*
Y75868D01*
Y75896D01*
X362152Y76325D01*
X362138Y76714D01*
X362110Y77074D01*
X362069Y77407D01*
X362027Y77698D01*
X361972Y77962D01*
X361916Y78198D01*
X361861Y78406D01*
X361805Y78586D01*
X361764Y78739D01*
X361708Y78863D01*
X361667Y78974D01*
X361625Y79044D01*
X361597Y79099D01*
X361570Y79127D01*
Y79141D01*
X361472Y79266D01*
X361375Y79377D01*
X361264Y79460D01*
X361153Y79543D01*
X360932Y79668D01*
X360723Y79751D01*
X360543Y79793D01*
X360391Y79820D01*
X360335Y79834D01*
D02*
G37*
%LPD*%
D11*
X360000Y64541D02*
X370000D01*
M02*
