G04*
G04 #@! TF.GenerationSoftware,Altium Limited,Altium Designer,24.10.1 (45)*
G04*
G04 Layer_Color=65535*
%FSLAX44Y44*%
%MOMM*%
G71*
G04*
G04 #@! TF.SameCoordinates,369B9CB0-29D8-4664-9DD5-51349DE9450A*
G04*
G04*
G04 #@! TF.FilePolarity,Positive*
G04*
G01*
G75*
%ADD10C,0.2540*%
%ADD11C,0.2500*%
%ADD12C,0.1000*%
%ADD13C,0.1524*%
%ADD14C,0.2000*%
%ADD15C,0.1270*%
%ADD16C,0.1500*%
%ADD17C,0.4500*%
G36*
X230500Y233196D02*
Y224000D01*
X161000D01*
Y233196D01*
Y249390D01*
X230500D01*
Y233196D01*
D02*
G37*
G36*
X472250Y304196D02*
X379750D01*
Y321390D01*
X472250D01*
Y304196D01*
D02*
G37*
G36*
Y295000D02*
X379750D01*
Y304196D01*
X472250D01*
Y295000D01*
D02*
G37*
G36*
X420489Y24331D02*
X421155Y24164D01*
X421822Y23748D01*
X421905D01*
X421988Y23664D01*
X422322Y23248D01*
X422655Y22665D01*
X422821Y21915D01*
Y21582D01*
Y21498D01*
Y21415D01*
X422738Y21332D01*
X422571Y21248D01*
X421738D01*
X421655Y21332D01*
X421572Y21415D01*
X421488Y21582D01*
Y21748D01*
Y21832D01*
X421405Y22165D01*
X421238Y22498D01*
X420905Y22831D01*
X420822Y22915D01*
X420655Y23081D01*
X420322Y23165D01*
X419905Y23248D01*
X419739D01*
X419406Y23165D01*
X418989Y23081D01*
X418572Y22831D01*
X418489Y22748D01*
X418322Y22581D01*
X418156Y22248D01*
X418073Y21832D01*
Y21748D01*
Y21498D01*
Y21082D01*
X417989Y20582D01*
Y19999D01*
Y19249D01*
X418073Y17749D01*
Y17666D01*
X418156Y17333D01*
X418322Y16999D01*
X418572Y16666D01*
X418656Y16583D01*
X418906Y16500D01*
X419239Y16333D01*
X419739Y16250D01*
X419822D01*
X420155Y16333D01*
X420489Y16416D01*
X420905Y16666D01*
X420989Y16750D01*
X421155Y16999D01*
X421405Y17333D01*
X421488Y17749D01*
Y17999D01*
Y18082D01*
Y18166D01*
X421572Y18249D01*
X421738Y18333D01*
X422738D01*
X422821Y18166D01*
Y17999D01*
Y17666D01*
Y17583D01*
Y17499D01*
X422655Y16999D01*
X422405Y16416D01*
X421905Y15750D01*
X421738Y15667D01*
X421322Y15417D01*
X420655Y15083D01*
X419822Y15000D01*
X419655D01*
X419072Y15083D01*
X418406Y15333D01*
X417656Y15750D01*
X417489Y15916D01*
X417239Y16333D01*
X416906Y16916D01*
X416740Y17666D01*
Y17749D01*
Y17999D01*
Y18416D01*
Y18999D01*
Y19582D01*
Y20249D01*
Y21748D01*
Y21832D01*
Y21915D01*
X416906Y22415D01*
X417156Y22998D01*
X417656Y23581D01*
X417739D01*
X417823Y23748D01*
X418239Y23998D01*
X418906Y24248D01*
X419739Y24414D01*
X419989D01*
X420489Y24331D01*
D02*
G37*
G36*
X386914Y24248D02*
Y24081D01*
Y15333D01*
Y15250D01*
X386831Y15167D01*
X386664Y15083D01*
X385414D01*
X385248Y15250D01*
X382665Y21832D01*
X382498D01*
Y15250D01*
Y15167D01*
X382332Y15083D01*
X382165Y15000D01*
X381499D01*
X381415Y15083D01*
X381332Y15250D01*
Y23998D01*
Y24081D01*
Y24164D01*
X381415Y24248D01*
X382832D01*
X382915Y24164D01*
Y24081D01*
X385581Y17499D01*
X385664Y17416D01*
X385747D01*
X385831Y17499D01*
Y24081D01*
Y24164D01*
Y24248D01*
X385914Y24331D01*
X386831D01*
X386914Y24248D01*
D02*
G37*
G36*
X429820Y24331D02*
X430486Y24164D01*
X431069Y23748D01*
X431236Y23664D01*
X431486Y23248D01*
X431902Y22665D01*
X432152Y21915D01*
Y21748D01*
X432069Y21332D01*
X431986Y20832D01*
X431736Y20249D01*
X431652Y20165D01*
X431403Y19915D01*
X431069Y19582D01*
X430569Y19249D01*
X430486D01*
X430319Y19082D01*
X430236Y18999D01*
X430319Y18832D01*
X431902Y15500D01*
Y15417D01*
Y15333D01*
X431736Y15167D01*
X430736D01*
X430653Y15250D01*
X430569Y15417D01*
X428986Y18749D01*
Y18832D01*
X428820D01*
X428653Y18916D01*
X427987Y18832D01*
X427903D01*
X427820Y18749D01*
Y15417D01*
Y15333D01*
X427737Y15250D01*
X427570Y15167D01*
X426654D01*
X426570Y15250D01*
X426487Y15417D01*
Y24164D01*
Y24248D01*
Y24331D01*
X426570Y24414D01*
X429320D01*
X429820Y24331D01*
D02*
G37*
G36*
X411158D02*
X411824Y24164D01*
X412491Y23748D01*
X412657Y23664D01*
X412907Y23248D01*
X413241Y22665D01*
X413407Y21915D01*
Y21748D01*
Y21332D01*
X413241Y20832D01*
X412990Y20249D01*
X412907Y20165D01*
X412657Y19915D01*
X412324Y19582D01*
X411824Y19249D01*
X411741D01*
X411657Y19082D01*
X411574Y18999D01*
X411657Y18832D01*
X413241Y15500D01*
X413324Y15417D01*
X413241Y15333D01*
X413157Y15167D01*
X412074D01*
X411991Y15250D01*
X411908Y15417D01*
X410408Y18749D01*
X410325Y18832D01*
X410158Y18916D01*
X409241Y18832D01*
X409158D01*
X409075Y18749D01*
Y15417D01*
Y15333D01*
X408992Y15250D01*
X408825Y15167D01*
X407992D01*
X407909Y15250D01*
X407825Y15417D01*
Y24164D01*
Y24248D01*
X407909Y24331D01*
X407992Y24414D01*
X410658D01*
X411158Y24331D01*
D02*
G37*
G36*
X465727Y24248D02*
Y24081D01*
Y23414D01*
Y23331D01*
Y23248D01*
X465644Y23165D01*
X465477Y23081D01*
X462395D01*
X462311Y22998D01*
Y20582D01*
X462395D01*
Y20499D01*
X465560D01*
X465644Y20415D01*
Y20249D01*
Y19499D01*
Y19416D01*
X465560Y19332D01*
X465394Y19249D01*
X462395D01*
X462311Y19166D01*
X462228Y16416D01*
Y16333D01*
X462311Y16250D01*
X462395Y16333D01*
X465810D01*
X465894Y16250D01*
X465977Y16083D01*
Y15333D01*
X465894Y15250D01*
X465810Y15167D01*
X465560Y15083D01*
X461145D01*
X460978Y15167D01*
X460895Y15333D01*
Y24081D01*
Y24164D01*
X460978Y24248D01*
X461062Y24331D01*
X465644D01*
X465727Y24248D01*
D02*
G37*
G36*
X457729D02*
Y24081D01*
Y23414D01*
Y23331D01*
Y23248D01*
X457646Y23165D01*
X457479Y23081D01*
X455480D01*
Y22998D01*
Y22831D01*
Y22665D01*
Y22332D01*
Y21832D01*
Y21165D01*
Y20249D01*
Y19166D01*
Y15333D01*
Y15250D01*
X455396Y15167D01*
X455230Y15083D01*
X454397D01*
X454313Y15167D01*
X454230Y15333D01*
Y22998D01*
Y23081D01*
X452397D01*
X452314Y23165D01*
X452230Y23248D01*
X452147Y23414D01*
Y24081D01*
Y24164D01*
Y24248D01*
X452230Y24331D01*
X457646D01*
X457729Y24248D01*
D02*
G37*
G36*
X447482Y24164D02*
X449981Y15333D01*
Y15250D01*
X449814Y15167D01*
X449648Y15083D01*
X448898D01*
X448648Y15250D01*
X447982Y17249D01*
X447898Y17333D01*
X447732Y17416D01*
X445482D01*
X445316Y17249D01*
X444732Y15250D01*
Y15167D01*
X444649Y15083D01*
X443733D01*
X443649Y15167D01*
X443566Y15250D01*
X443483Y15333D01*
X445982Y24164D01*
Y24248D01*
X446065Y24331D01*
X447315D01*
X447482Y24164D01*
D02*
G37*
G36*
X440317Y24248D02*
X440400Y24081D01*
Y23414D01*
Y23331D01*
Y23248D01*
X440234Y23165D01*
X440067Y23081D01*
X436984D01*
X436735Y22998D01*
Y20582D01*
Y20499D01*
X439984D01*
X440067Y20415D01*
Y20249D01*
Y19499D01*
Y19416D01*
X439984Y19332D01*
X439817Y19249D01*
X436735D01*
Y19166D01*
Y16416D01*
X436984D01*
Y16333D01*
Y16250D01*
X437068Y16333D01*
X440400D01*
X440484Y16250D01*
Y16083D01*
Y15333D01*
Y15250D01*
X440400Y15167D01*
X440234Y15083D01*
X435735D01*
X435651Y15167D01*
X435568Y15333D01*
Y24081D01*
Y24164D01*
Y24248D01*
X435651Y24331D01*
X440234D01*
X440317Y24248D01*
D02*
G37*
G36*
X404076D02*
Y24081D01*
Y23414D01*
Y23331D01*
Y23248D01*
X403993Y23165D01*
X403826Y23081D01*
X400660D01*
X400494Y22998D01*
Y20582D01*
Y20499D01*
X403743D01*
X403826Y20415D01*
Y20249D01*
Y19499D01*
Y19416D01*
X403743Y19332D01*
X403576Y19249D01*
X400577D01*
X400410Y19166D01*
Y16416D01*
X400577D01*
Y16333D01*
Y16250D01*
X400660Y16333D01*
X403993D01*
X404076Y16250D01*
Y16083D01*
Y15333D01*
Y15250D01*
X403993Y15167D01*
X403826Y15083D01*
X399411D01*
X399327Y15167D01*
X399244Y15333D01*
Y24081D01*
Y24164D01*
Y24248D01*
X399327Y24331D01*
X403993D01*
X404076Y24248D01*
D02*
G37*
G36*
X395912D02*
Y24081D01*
Y23414D01*
Y23331D01*
Y23248D01*
X395828Y23165D01*
X395662Y23081D01*
X393745D01*
Y22998D01*
Y22831D01*
Y22665D01*
Y22332D01*
Y21832D01*
Y21165D01*
Y20249D01*
Y19166D01*
Y15333D01*
Y15250D01*
X393579Y15167D01*
X393412Y15083D01*
X392579D01*
X392496Y15167D01*
X392412Y15333D01*
Y22998D01*
Y23081D01*
X390580D01*
X390496Y23165D01*
X390330Y23248D01*
X390246Y23414D01*
Y24081D01*
Y24164D01*
X390330Y24248D01*
X390413Y24331D01*
X395828D01*
X395912Y24248D01*
D02*
G37*
G36*
X377166D02*
Y24081D01*
Y15333D01*
Y15250D01*
X377083Y15167D01*
X376916Y15083D01*
X376083D01*
X376000Y15167D01*
Y15333D01*
Y24081D01*
Y24164D01*
Y24248D01*
X376083Y24331D01*
X377083D01*
X377166Y24248D01*
D02*
G37*
%LPC*%
G36*
X203516Y240993D02*
X196633D01*
Y233329D01*
X198178D01*
Y236530D01*
X198582D01*
X198676Y236524D01*
X198759D01*
X198832Y236518D01*
X198903Y236507D01*
X198970Y236502D01*
X199025Y236496D01*
X199075Y236485D01*
X199119Y236480D01*
X199158Y236469D01*
X199191Y236463D01*
X199219Y236458D01*
X199236Y236452D01*
X199252Y236446D01*
X199263Y236441D01*
X199357Y236402D01*
X199440Y236352D01*
X199518Y236303D01*
X199590Y236247D01*
X199645Y236197D01*
X199690Y236159D01*
X199717Y236131D01*
X199729Y236120D01*
X199773Y236070D01*
X199828Y236003D01*
X199889Y235931D01*
X199950Y235849D01*
X200016Y235754D01*
X200083Y235660D01*
X200221Y235472D01*
X200288Y235378D01*
X200349Y235289D01*
X200404Y235212D01*
X200454Y235140D01*
X200493Y235079D01*
X200520Y235035D01*
X200542Y235007D01*
X200548Y234996D01*
X201661Y233329D01*
X203516D01*
X202580Y234824D01*
X202481Y234985D01*
X202381Y235134D01*
X202292Y235267D01*
X202209Y235394D01*
X202132Y235505D01*
X202060Y235610D01*
X201993Y235699D01*
X201932Y235777D01*
X201877Y235849D01*
X201833Y235909D01*
X201794Y235959D01*
X201761Y235998D01*
X201733Y236026D01*
X201716Y236048D01*
X201705Y236059D01*
X201700Y236064D01*
X201572Y236192D01*
X201434Y236314D01*
X201296Y236424D01*
X201163Y236524D01*
X201102Y236563D01*
X201046Y236602D01*
X200996Y236635D01*
X200952Y236662D01*
X200919Y236685D01*
X200891Y236701D01*
X200875Y236707D01*
X200869Y236712D01*
X201052Y236745D01*
X201224Y236784D01*
X201384Y236829D01*
X201534Y236884D01*
X201672Y236939D01*
X201794Y237000D01*
X201905Y237056D01*
X202010Y237117D01*
X202098Y237177D01*
X202176Y237233D01*
X202237Y237283D01*
X202292Y237327D01*
X202331Y237366D01*
X202364Y237393D01*
X202381Y237410D01*
X202386Y237416D01*
X202475Y237526D01*
X202553Y237637D01*
X202624Y237759D01*
X202680Y237875D01*
X202730Y237997D01*
X202774Y238113D01*
X202807Y238230D01*
X202835Y238340D01*
X202852Y238445D01*
X202868Y238540D01*
X202879Y238628D01*
X202890Y238700D01*
Y238761D01*
X202896Y238805D01*
Y238833D01*
Y238844D01*
X202890Y238972D01*
X202879Y239088D01*
X202862Y239204D01*
X202846Y239315D01*
X202818Y239420D01*
X202791Y239520D01*
X202757Y239614D01*
X202730Y239697D01*
X202696Y239774D01*
X202663Y239846D01*
X202635Y239902D01*
X202613Y239951D01*
X202591Y239990D01*
X202575Y240023D01*
X202563Y240040D01*
X202558Y240046D01*
X202491Y240140D01*
X202425Y240228D01*
X202353Y240312D01*
X202281Y240383D01*
X202204Y240450D01*
X202132Y240511D01*
X202060Y240566D01*
X201988Y240616D01*
X201921Y240655D01*
X201860Y240688D01*
X201805Y240721D01*
X201761Y240743D01*
X201722Y240760D01*
X201689Y240771D01*
X201672Y240782D01*
X201667D01*
X201556Y240821D01*
X201428Y240854D01*
X201296Y240882D01*
X201157Y240904D01*
X200858Y240943D01*
X200714Y240954D01*
X200570Y240965D01*
X200432Y240976D01*
X200304Y240982D01*
X200188Y240987D01*
X200083D01*
X200000Y240993D01*
X203516D01*
D02*
G37*
G36*
X191766Y241120D02*
X187984D01*
X191688D01*
X191517Y241114D01*
X191351Y241109D01*
X191190Y241092D01*
X191035Y241070D01*
X190891Y241048D01*
X190753Y241026D01*
X190631Y240998D01*
X190515Y240970D01*
X190409Y240937D01*
X190315Y240910D01*
X190232Y240887D01*
X190166Y240865D01*
X190110Y240843D01*
X190072Y240826D01*
X190049Y240821D01*
X190038Y240815D01*
X189939Y240771D01*
X189839Y240721D01*
X189656Y240611D01*
X189485Y240494D01*
X189407Y240439D01*
X189335Y240383D01*
X189274Y240334D01*
X189213Y240284D01*
X189163Y240240D01*
X189119Y240201D01*
X189086Y240168D01*
X189064Y240145D01*
X189047Y240129D01*
X189042Y240123D01*
X188881Y239946D01*
X188743Y239763D01*
X188621Y239586D01*
X188521Y239426D01*
X188477Y239348D01*
X188438Y239282D01*
X188405Y239221D01*
X188383Y239171D01*
X188361Y239126D01*
X188344Y239099D01*
X188339Y239077D01*
X188333Y239071D01*
X188272Y238916D01*
X188217Y238761D01*
X188172Y238595D01*
X188134Y238429D01*
X188100Y238268D01*
X188067Y238102D01*
X188045Y237947D01*
X188028Y237792D01*
X188012Y237654D01*
X188001Y237521D01*
X187995Y237404D01*
X187990Y237305D01*
X187984Y237222D01*
Y233196D01*
Y237111D01*
X187990Y236939D01*
X187995Y236779D01*
X188028Y236463D01*
X188078Y236164D01*
X188139Y235887D01*
X188217Y235632D01*
X188305Y235394D01*
X188394Y235179D01*
X188488Y234985D01*
X188582Y234813D01*
X188626Y234736D01*
X188671Y234664D01*
X188715Y234597D01*
X188759Y234536D01*
X188798Y234481D01*
X188837Y234431D01*
X188870Y234387D01*
X188898Y234348D01*
X188925Y234315D01*
X188948Y234287D01*
X188970Y234265D01*
X188981Y234248D01*
X188992Y234243D01*
Y234237D01*
X189086Y234143D01*
X189191Y234054D01*
X189291Y233971D01*
X189396Y233894D01*
X189618Y233755D01*
X189845Y233634D01*
X190072Y233534D01*
X190293Y233451D01*
X190515Y233379D01*
X190730Y233329D01*
X190930Y233285D01*
X191118Y233251D01*
X191201Y233241D01*
X191284Y233229D01*
X191356Y233218D01*
X191428Y233213D01*
X191489Y233207D01*
X191544Y233202D01*
X191594D01*
X191633Y233196D01*
X195420D01*
X191711D01*
X191866Y233202D01*
X192021Y233207D01*
X192314Y233241D01*
X192586Y233290D01*
X192846Y233362D01*
X193084Y233440D01*
X193305Y233528D01*
X193510Y233622D01*
X193693Y233722D01*
X193853Y233816D01*
X193997Y233911D01*
X194125Y233999D01*
X194224Y234082D01*
X194269Y234115D01*
X194302Y234149D01*
X194335Y234176D01*
X194363Y234198D01*
X194380Y234215D01*
X194396Y234232D01*
X194402Y234237D01*
X194407Y234243D01*
X194501Y234342D01*
X194584Y234448D01*
X194667Y234558D01*
X194739Y234669D01*
X194878Y234902D01*
X194994Y235140D01*
X195094Y235378D01*
X195171Y235621D01*
X195238Y235860D01*
X195293Y236087D01*
X195338Y236303D01*
X195365Y236502D01*
X195382Y236596D01*
X195387Y236685D01*
X195398Y236762D01*
X195404Y236840D01*
X195410Y236906D01*
X195415Y236967D01*
Y237017D01*
X195420Y237061D01*
Y237316D01*
X195410Y237488D01*
X195376Y237809D01*
X195326Y238108D01*
X195260Y238390D01*
X195182Y238650D01*
X195099Y238894D01*
X195005Y239110D01*
X194911Y239309D01*
X194861Y239398D01*
X194817Y239481D01*
X194767Y239564D01*
X194723Y239636D01*
X194679Y239702D01*
X194640Y239769D01*
X194601Y239824D01*
X194562Y239874D01*
X194529Y239918D01*
X194496Y239957D01*
X194468Y239990D01*
X194446Y240018D01*
X194429Y240040D01*
X194413Y240057D01*
X194407Y240062D01*
X194402Y240068D01*
X194302Y240162D01*
X194202Y240250D01*
X194097Y240339D01*
X193992Y240417D01*
X193771Y240555D01*
X193549Y240677D01*
X193322Y240777D01*
X193095Y240865D01*
X192873Y240932D01*
X192663Y240987D01*
X192464Y241031D01*
X192281Y241064D01*
X192192Y241076D01*
X192115Y241087D01*
X192037Y241098D01*
X191971Y241103D01*
X191904Y241109D01*
X191849Y241114D01*
X191805D01*
X191766Y241120D01*
D02*
G37*
%LPD*%
G36*
X199956Y239691D02*
X200061D01*
X200149Y239686D01*
X200299D01*
X200354Y239680D01*
X200399D01*
X200437Y239675D01*
X200465D01*
X200487Y239669D01*
X200509D01*
X200642Y239636D01*
X200758Y239592D01*
X200858Y239542D01*
X200941Y239492D01*
X201008Y239442D01*
X201052Y239403D01*
X201080Y239376D01*
X201091Y239370D01*
Y239365D01*
X201163Y239270D01*
X201212Y239171D01*
X201251Y239066D01*
X201273Y238966D01*
X201290Y238877D01*
X201296Y238844D01*
Y238811D01*
X201301Y238783D01*
Y238761D01*
Y238750D01*
Y238744D01*
X201296Y238623D01*
X201279Y238512D01*
X201251Y238412D01*
X201224Y238329D01*
X201190Y238263D01*
X201168Y238213D01*
X201146Y238180D01*
X201140Y238169D01*
X201080Y238085D01*
X201008Y238019D01*
X200936Y237964D01*
X200869Y237919D01*
X200803Y237886D01*
X200753Y237859D01*
X200720Y237847D01*
X200714Y237842D01*
X200709D01*
X200648Y237825D01*
X200570Y237814D01*
X200476Y237803D01*
X200376Y237792D01*
X200266Y237781D01*
X200149Y237775D01*
X199911Y237764D01*
X199795Y237759D01*
X199585D01*
X199496Y237753D01*
X198178D01*
Y239697D01*
X199834D01*
X199956Y239691D01*
D02*
G37*
G36*
X191882Y239791D02*
X192048Y239769D01*
X192203Y239736D01*
X192347Y239697D01*
X192486Y239647D01*
X192613Y239592D01*
X192729Y239531D01*
X192835Y239475D01*
X192929Y239414D01*
X193012Y239354D01*
X193078Y239298D01*
X193139Y239248D01*
X193183Y239210D01*
X193217Y239176D01*
X193239Y239154D01*
X193244Y239149D01*
X193350Y239021D01*
X193438Y238877D01*
X193516Y238728D01*
X193582Y238567D01*
X193638Y238407D01*
X193682Y238241D01*
X193721Y238080D01*
X193754Y237925D01*
X193776Y237775D01*
X193793Y237637D01*
X193809Y237510D01*
X193815Y237399D01*
X193820Y237349D01*
Y237310D01*
X193826Y237271D01*
Y237238D01*
Y237216D01*
Y237200D01*
Y237188D01*
Y237183D01*
X193820Y236939D01*
X193798Y236712D01*
X193771Y236502D01*
X193732Y236308D01*
X193687Y236131D01*
X193638Y235965D01*
X193582Y235815D01*
X193527Y235682D01*
X193471Y235566D01*
X193416Y235466D01*
X193366Y235378D01*
X193322Y235311D01*
X193283Y235256D01*
X193256Y235217D01*
X193233Y235189D01*
X193228Y235184D01*
X193111Y235068D01*
X192990Y234963D01*
X192868Y234874D01*
X192740Y234802D01*
X192613Y234736D01*
X192486Y234680D01*
X192364Y234636D01*
X192242Y234603D01*
X192131Y234575D01*
X192032Y234553D01*
X191938Y234542D01*
X191860Y234531D01*
X191794Y234525D01*
X191744Y234520D01*
X191705D01*
X191533Y234525D01*
X191373Y234547D01*
X191223Y234580D01*
X191074Y234625D01*
X190941Y234675D01*
X190814Y234730D01*
X190697Y234791D01*
X190592Y234857D01*
X190498Y234918D01*
X190415Y234979D01*
X190343Y235035D01*
X190288Y235084D01*
X190238Y235129D01*
X190205Y235162D01*
X190182Y235184D01*
X190177Y235189D01*
X190072Y235322D01*
X189977Y235466D01*
X189900Y235621D01*
X189834Y235782D01*
X189773Y235943D01*
X189723Y236109D01*
X189684Y236269D01*
X189656Y236424D01*
X189629Y236574D01*
X189612Y236712D01*
X189595Y236840D01*
X189590Y236945D01*
X189584Y237039D01*
X189579Y237072D01*
Y237105D01*
Y237128D01*
Y237144D01*
Y237155D01*
Y237161D01*
X189584Y237399D01*
X189606Y237626D01*
X189634Y237836D01*
X189667Y238030D01*
X189712Y238207D01*
X189762Y238368D01*
X189817Y238512D01*
X189872Y238645D01*
X189922Y238761D01*
X189977Y238861D01*
X190027Y238944D01*
X190072Y239016D01*
X190105Y239071D01*
X190138Y239104D01*
X190155Y239132D01*
X190160Y239138D01*
X190277Y239254D01*
X190393Y239354D01*
X190520Y239442D01*
X190648Y239520D01*
X190780Y239580D01*
X190908Y239636D01*
X191035Y239680D01*
X191151Y239713D01*
X191268Y239741D01*
X191373Y239763D01*
X191467Y239774D01*
X191544Y239785D01*
X191611Y239791D01*
X191661Y239797D01*
X191705D01*
X191882Y239791D01*
D02*
G37*
%LPC*%
G36*
X432841Y312125D02*
X432742D01*
X432581Y312120D01*
X432426Y312114D01*
X432276Y312103D01*
X432132Y312081D01*
X432000Y312064D01*
X431878Y312042D01*
X431762Y312015D01*
X431656Y311992D01*
X431562Y311965D01*
X431479Y311943D01*
X431407Y311915D01*
X431346Y311898D01*
X431302Y311882D01*
X431263Y311865D01*
X431241Y311860D01*
X431235Y311854D01*
X431119Y311804D01*
X431014Y311743D01*
X430914Y311682D01*
X430820Y311622D01*
X430737Y311555D01*
X430660Y311494D01*
X430588Y311428D01*
X430521Y311367D01*
X430466Y311306D01*
X430416Y311256D01*
X430372Y311206D01*
X430338Y311162D01*
X430311Y311129D01*
X430294Y311101D01*
X430283Y311084D01*
X430277Y311079D01*
X430222Y310985D01*
X430172Y310885D01*
X430128Y310791D01*
X430089Y310691D01*
X430056Y310597D01*
X430028Y310509D01*
X430012Y310420D01*
X429990Y310343D01*
X429978Y310265D01*
X429967Y310193D01*
X429962Y310132D01*
X429956Y310082D01*
X429951Y310038D01*
Y310010D01*
Y309988D01*
Y309982D01*
X429956Y309816D01*
X429978Y309656D01*
X430017Y309501D01*
X430061Y309357D01*
X430111Y309224D01*
X430172Y309097D01*
X430239Y308980D01*
X430305Y308875D01*
X430366Y308775D01*
X430433Y308692D01*
X430493Y308615D01*
X430543Y308554D01*
X430588Y308510D01*
X430626Y308471D01*
X430648Y308449D01*
X430654Y308443D01*
X430759Y308360D01*
X430876Y308283D01*
X431003Y308205D01*
X431141Y308133D01*
X431280Y308067D01*
X431429Y308006D01*
X431573Y307950D01*
X431717Y307895D01*
X431850Y307851D01*
X431977Y307806D01*
X432094Y307768D01*
X432199Y307740D01*
X432282Y307718D01*
X432315Y307707D01*
X432343Y307701D01*
X432365Y307690D01*
X432382D01*
X432393Y307685D01*
X432398D01*
X432570Y307640D01*
X432730Y307602D01*
X432874Y307568D01*
X433002Y307535D01*
X433118Y307502D01*
X433218Y307474D01*
X433306Y307452D01*
X433384Y307430D01*
X433445Y307413D01*
X433500Y307397D01*
X433544Y307380D01*
X433583Y307369D01*
X433605Y307363D01*
X433628Y307358D01*
X433633Y307352D01*
X433639D01*
X433711Y307325D01*
X433777Y307297D01*
X433893Y307242D01*
X433993Y307181D01*
X434071Y307131D01*
X434126Y307081D01*
X434165Y307048D01*
X434192Y307026D01*
X434198Y307015D01*
X434253Y306943D01*
X434292Y306865D01*
X434320Y306788D01*
X434336Y306716D01*
X434353Y306649D01*
X434358Y306599D01*
Y306566D01*
Y306561D01*
Y306555D01*
X434353Y306478D01*
X434342Y306400D01*
X434325Y306334D01*
X434297Y306262D01*
X434237Y306140D01*
X434170Y306029D01*
X434131Y305985D01*
X434098Y305940D01*
X434065Y305907D01*
X434037Y305874D01*
X434010Y305852D01*
X433993Y305835D01*
X433982Y305824D01*
X433976Y305819D01*
X433904Y305763D01*
X433821Y305713D01*
X433733Y305675D01*
X433644Y305636D01*
X433550Y305608D01*
X433456Y305581D01*
X433273Y305542D01*
X433190Y305531D01*
X433107Y305520D01*
X433035Y305514D01*
X432974Y305508D01*
X432924Y305503D01*
X432852D01*
X432725Y305508D01*
X432603Y305520D01*
X432487Y305536D01*
X432376Y305558D01*
X432276Y305586D01*
X432188Y305614D01*
X432099Y305647D01*
X432027Y305680D01*
X431955Y305713D01*
X431900Y305747D01*
X431844Y305774D01*
X431806Y305802D01*
X431772Y305824D01*
X431750Y305841D01*
X431734Y305852D01*
X431728Y305857D01*
X431656Y305929D01*
X431584Y306007D01*
X431523Y306090D01*
X431468Y306178D01*
X431418Y306273D01*
X431374Y306367D01*
X431296Y306549D01*
X431269Y306632D01*
X431246Y306710D01*
X431224Y306782D01*
X431208Y306849D01*
X431197Y306898D01*
X431186Y306937D01*
X431180Y306959D01*
Y306970D01*
X429674Y306826D01*
X429707Y306594D01*
X429757Y306372D01*
X429812Y306167D01*
X429884Y305974D01*
X429956Y305802D01*
X430034Y305641D01*
X430111Y305492D01*
X430194Y305364D01*
X430272Y305248D01*
X430344Y305149D01*
X430416Y305060D01*
X430477Y304993D01*
X430527Y304938D01*
X430565Y304899D01*
X430588Y304872D01*
X430599Y304866D01*
X430754Y304750D01*
X430920Y304645D01*
X431097Y304556D01*
X431280Y304479D01*
X431463Y304412D01*
X431651Y304362D01*
X431833Y304318D01*
X432011Y304279D01*
X432177Y304251D01*
X432332Y304229D01*
X432476Y304218D01*
X432598Y304207D01*
X432647Y304202D01*
X432697D01*
X432736Y304196D01*
X429674D01*
X435903D01*
X432836D01*
X433018Y304202D01*
X433196Y304207D01*
X433362Y304224D01*
X433517Y304240D01*
X433661Y304263D01*
X433799Y304285D01*
X433927Y304307D01*
X434043Y304335D01*
X434142Y304362D01*
X434237Y304384D01*
X434314Y304407D01*
X434375Y304429D01*
X434430Y304445D01*
X434469Y304462D01*
X434491Y304468D01*
X434497Y304473D01*
X434619Y304528D01*
X434735Y304589D01*
X434840Y304656D01*
X434940Y304728D01*
X435034Y304794D01*
X435117Y304866D01*
X435195Y304938D01*
X435266Y305005D01*
X435327Y305071D01*
X435383Y305132D01*
X435427Y305187D01*
X435466Y305232D01*
X435494Y305270D01*
X435516Y305304D01*
X435527Y305320D01*
X435532Y305326D01*
X435599Y305436D01*
X435654Y305542D01*
X435704Y305652D01*
X435748Y305763D01*
X435782Y305868D01*
X435815Y305968D01*
X435837Y306068D01*
X435859Y306162D01*
X435870Y306245D01*
X435881Y306322D01*
X435892Y306389D01*
X435898Y306450D01*
X435903Y306494D01*
Y306561D01*
X435898Y306693D01*
X435892Y306821D01*
X435876Y306943D01*
X435854Y307059D01*
X435831Y307164D01*
X435804Y307264D01*
X435776Y307358D01*
X435748Y307441D01*
X435721Y307519D01*
X435693Y307585D01*
X435665Y307640D01*
X435643Y307690D01*
X435621Y307729D01*
X435604Y307757D01*
X435599Y307773D01*
X435593Y307779D01*
X435532Y307867D01*
X435471Y307956D01*
X435333Y308111D01*
X435261Y308183D01*
X435189Y308244D01*
X435122Y308305D01*
X435056Y308355D01*
X434990Y308404D01*
X434934Y308443D01*
X434879Y308476D01*
X434835Y308510D01*
X434796Y308532D01*
X434768Y308548D01*
X434752Y308554D01*
X434746Y308559D01*
X434641Y308615D01*
X434519Y308665D01*
X434392Y308720D01*
X434259Y308770D01*
X433982Y308864D01*
X433843Y308903D01*
X433711Y308947D01*
X433583Y308980D01*
X433467Y309014D01*
X433356Y309041D01*
X433262Y309069D01*
X433185Y309086D01*
X433129Y309102D01*
X433107Y309108D01*
X433090D01*
X433085Y309113D01*
X433079D01*
X432880Y309163D01*
X432692Y309213D01*
X432531Y309257D01*
X432382Y309307D01*
X432249Y309351D01*
X432132Y309396D01*
X432033Y309434D01*
X431944Y309473D01*
X431872Y309506D01*
X431811Y309534D01*
X431762Y309562D01*
X431723Y309584D01*
X431689Y309606D01*
X431673Y309617D01*
X431662Y309628D01*
X431656D01*
X431579Y309706D01*
X431523Y309783D01*
X431485Y309861D01*
X431457Y309933D01*
X431440Y309999D01*
X431435Y310049D01*
X431429Y310082D01*
Y310088D01*
Y310093D01*
X431435Y310149D01*
X431440Y310198D01*
X431468Y310293D01*
X431507Y310370D01*
X431551Y310437D01*
X431595Y310492D01*
X431634Y310531D01*
X431662Y310558D01*
X431673Y310564D01*
X431750Y310614D01*
X431828Y310658D01*
X431911Y310697D01*
X432000Y310730D01*
X432177Y310780D01*
X432343Y310813D01*
X432426Y310824D01*
X432498Y310830D01*
X432564Y310835D01*
X432620Y310841D01*
X432664Y310846D01*
X432847D01*
X432963Y310835D01*
X433063Y310824D01*
X433157Y310808D01*
X433245Y310785D01*
X433329Y310763D01*
X433400Y310741D01*
X433467Y310719D01*
X433522Y310691D01*
X433572Y310669D01*
X433616Y310647D01*
X433650Y310625D01*
X433677Y310608D01*
X433694Y310597D01*
X433705Y310592D01*
X433711Y310586D01*
X433772Y310536D01*
X433821Y310475D01*
X433915Y310343D01*
X433987Y310204D01*
X434048Y310066D01*
X434071Y309999D01*
X434087Y309938D01*
X434104Y309883D01*
X434115Y309833D01*
X434126Y309794D01*
X434131Y309767D01*
X434137Y309744D01*
Y309739D01*
X435682Y309805D01*
X435665Y309999D01*
X435638Y310182D01*
X435599Y310354D01*
X435543Y310514D01*
X435488Y310664D01*
X435422Y310802D01*
X435355Y310929D01*
X435283Y311040D01*
X435211Y311145D01*
X435145Y311234D01*
X435084Y311311D01*
X435028Y311372D01*
X434979Y311422D01*
X434945Y311461D01*
X434923Y311483D01*
X434912Y311489D01*
X434768Y311599D01*
X434613Y311699D01*
X434441Y311782D01*
X434270Y311860D01*
X434087Y311921D01*
X433904Y311970D01*
X433727Y312015D01*
X433555Y312048D01*
X433389Y312070D01*
X433240Y312092D01*
X433102Y312109D01*
X432980Y312114D01*
X432924Y312120D01*
X432880D01*
X432841Y312125D01*
D02*
G37*
G36*
X443334Y311998D02*
X440272D01*
X441789D01*
Y308980D01*
X438755D01*
Y311998D01*
X437210D01*
Y304335D01*
X440272D01*
X438755D01*
Y307685D01*
X441789D01*
Y304335D01*
X443334D01*
Y311998D01*
D02*
G37*
G36*
X391883D02*
X385459D01*
Y304335D01*
X388521D01*
X388671Y304340D01*
X388809Y304351D01*
X388942Y304362D01*
X389064Y304373D01*
X389180Y304384D01*
X389280Y304401D01*
X389374Y304418D01*
X389457Y304429D01*
X389529Y304445D01*
X389596Y304456D01*
X389646Y304473D01*
X389684Y304479D01*
X389717Y304490D01*
X389734Y304495D01*
X389740D01*
X389867Y304540D01*
X389983Y304584D01*
X390094Y304634D01*
X390199Y304683D01*
X390293Y304733D01*
X390382Y304783D01*
X390465Y304833D01*
X390537Y304883D01*
X390603Y304927D01*
X390659Y304971D01*
X390709Y305005D01*
X390753Y305038D01*
X390781Y305065D01*
X390808Y305088D01*
X390819Y305099D01*
X390825Y305104D01*
X390925Y305204D01*
X391013Y305315D01*
X391096Y305425D01*
X391179Y305536D01*
X391251Y305652D01*
X391318Y305763D01*
X391379Y305874D01*
X391434Y305979D01*
X391484Y306079D01*
X391528Y306167D01*
X391561Y306250D01*
X391589Y306322D01*
X391617Y306378D01*
X391633Y306422D01*
X391639Y306450D01*
X391645Y306461D01*
X391689Y306594D01*
X391722Y306727D01*
X391783Y307003D01*
X391827Y307275D01*
X391838Y307408D01*
X391855Y307530D01*
X391860Y307646D01*
X391871Y307751D01*
X391877Y307851D01*
Y307928D01*
X391883Y307995D01*
Y305315D01*
Y308288D01*
X391871Y308476D01*
X391860Y308659D01*
X391844Y308825D01*
X391822Y308986D01*
X391800Y309135D01*
X391777Y309274D01*
X391755Y309401D01*
X391733Y309512D01*
X391711Y309611D01*
X391689Y309695D01*
X391667Y309767D01*
X391650Y309827D01*
X391639Y309866D01*
X391633Y309894D01*
X391628Y309900D01*
X391578Y310032D01*
X391523Y310165D01*
X391467Y310287D01*
X391406Y310403D01*
X391345Y310514D01*
X391284Y310614D01*
X391229Y310708D01*
X391168Y310797D01*
X391113Y310874D01*
X391063Y310940D01*
X391019Y311001D01*
X390975Y311051D01*
X390941Y311090D01*
X390919Y311118D01*
X390902Y311134D01*
X390897Y311140D01*
X390803Y311234D01*
X390709Y311317D01*
X390609Y311395D01*
X390515Y311467D01*
X390415Y311527D01*
X390321Y311588D01*
X390227Y311638D01*
X390138Y311688D01*
X390055Y311727D01*
X389978Y311760D01*
X389911Y311788D01*
X389850Y311810D01*
X389806Y311826D01*
X389767Y311838D01*
X389745Y311849D01*
X389740D01*
X389640Y311876D01*
X389535Y311898D01*
X389418Y311921D01*
X389302Y311937D01*
X389059Y311959D01*
X388942Y311970D01*
X388826Y311982D01*
X388715Y311987D01*
X388616Y311992D01*
X388521D01*
X388438Y311998D01*
X391883D01*
D01*
D02*
G37*
G36*
X466541Y311998D02*
X460450D01*
Y310702D01*
X462725D01*
Y304335D01*
X460450D01*
X464270D01*
Y310702D01*
X466541D01*
Y305121D01*
Y311998D01*
D02*
G37*
G36*
X426102Y311998D02*
X420011D01*
Y310702D01*
X422287D01*
Y304335D01*
X420011D01*
X423832D01*
Y310702D01*
X426102D01*
Y305088D01*
Y311998D01*
D02*
G37*
G36*
X415692Y312125D02*
X415615D01*
X415443Y312120D01*
X415277Y312114D01*
X415117Y312098D01*
X414962Y312076D01*
X414818Y312054D01*
X414679Y312031D01*
X414557Y312004D01*
X414441Y311976D01*
X414336Y311943D01*
X414242Y311915D01*
X414159Y311893D01*
X414092Y311871D01*
X414037Y311849D01*
X413998Y311832D01*
X413976Y311826D01*
X413965Y311821D01*
X413865Y311777D01*
X413766Y311727D01*
X413583Y311616D01*
X413411Y311500D01*
X413334Y311444D01*
X413262Y311389D01*
X413201Y311339D01*
X413140Y311289D01*
X413090Y311245D01*
X413046Y311206D01*
X413013Y311173D01*
X412990Y311151D01*
X412974Y311134D01*
X412968Y311129D01*
X412808Y310951D01*
X412669Y310769D01*
X412547Y310592D01*
X412448Y310431D01*
X412403Y310354D01*
X412365Y310287D01*
X412331Y310226D01*
X412309Y310176D01*
X412287Y310132D01*
X412271Y310104D01*
X412265Y310082D01*
X412259Y310077D01*
X412198Y309922D01*
X412143Y309767D01*
X412099Y309601D01*
X412060Y309434D01*
X412027Y309274D01*
X411994Y309108D01*
X411972Y308953D01*
X411955Y308798D01*
X411938Y308659D01*
X411927Y308526D01*
X411922Y308410D01*
X411916Y308310D01*
X411911Y308227D01*
Y308116D01*
X411916Y307945D01*
X411922Y307784D01*
X411955Y307469D01*
X412005Y307170D01*
X412066Y306893D01*
X412143Y306638D01*
X412232Y306400D01*
X412320Y306184D01*
X412415Y305990D01*
X412509Y305819D01*
X412553Y305741D01*
X412597Y305669D01*
X412641Y305603D01*
X412686Y305542D01*
X412725Y305486D01*
X412763Y305436D01*
X412797Y305392D01*
X412824Y305353D01*
X412852Y305320D01*
X412874Y305292D01*
X412896Y305270D01*
X412907Y305254D01*
X412918Y305248D01*
Y305243D01*
X413013Y305149D01*
X413118Y305060D01*
X413217Y304977D01*
X413323Y304899D01*
X413544Y304761D01*
X413771Y304639D01*
X413998Y304540D01*
X414220Y304456D01*
X414441Y304384D01*
X414657Y304335D01*
X414856Y304290D01*
X415045Y304257D01*
X415128Y304246D01*
X415211Y304235D01*
X415283Y304224D01*
X415355Y304218D01*
X415416Y304213D01*
X415471Y304207D01*
X415521D01*
X415560Y304202D01*
X411911D01*
D01*
X419347D01*
Y304938D01*
Y304202D01*
X415637D01*
X415792Y304207D01*
X415947Y304213D01*
X416241Y304246D01*
X416512Y304296D01*
X416772Y304368D01*
X417010Y304445D01*
X417232Y304534D01*
X417437Y304628D01*
X417620Y304728D01*
X417780Y304822D01*
X417924Y304916D01*
X418051Y305005D01*
X418151Y305088D01*
X418195Y305121D01*
X418229Y305154D01*
X418262Y305182D01*
X418289Y305204D01*
X418306Y305221D01*
X418323Y305237D01*
X418328Y305243D01*
X418334Y305248D01*
X418428Y305348D01*
X418511Y305453D01*
X418594Y305564D01*
X418666Y305675D01*
X418804Y305907D01*
X418921Y306145D01*
X419020Y306383D01*
X419098Y306627D01*
X419164Y306865D01*
X419220Y307092D01*
X419264Y307308D01*
X419292Y307507D01*
X419308Y307602D01*
X419314Y307690D01*
X419325Y307768D01*
X419330Y307845D01*
X419336Y307912D01*
X419342Y307973D01*
Y308022D01*
X419347Y308067D01*
Y304938D01*
Y308067D01*
Y308321D01*
X419336Y308493D01*
X419303Y308814D01*
X419253Y309113D01*
X419187Y309396D01*
X419109Y309656D01*
X419026Y309900D01*
X418932Y310115D01*
X418838Y310315D01*
X418788Y310403D01*
X418744Y310486D01*
X418694Y310569D01*
X418649Y310641D01*
X418605Y310708D01*
X418566Y310774D01*
X418528Y310830D01*
X418489Y310880D01*
X418456Y310924D01*
X418422Y310963D01*
X418395Y310996D01*
X418372Y311024D01*
X418356Y311046D01*
X418339Y311062D01*
X418334Y311068D01*
X418328Y311073D01*
X418229Y311168D01*
X418129Y311256D01*
X418024Y311345D01*
X417919Y311422D01*
X417697Y311561D01*
X417476Y311682D01*
X417248Y311782D01*
X417021Y311871D01*
X416800Y311937D01*
X416590Y311992D01*
X416390Y312037D01*
X416208Y312070D01*
X416119Y312081D01*
X416041Y312092D01*
X415964Y312103D01*
X415897Y312109D01*
X415831Y312114D01*
X415776Y312120D01*
X415731D01*
X415692Y312125D01*
D02*
G37*
G36*
X460151Y311998D02*
X453268D01*
Y304335D01*
X460151D01*
X459215Y305830D01*
X459115Y305990D01*
X459016Y306140D01*
X458927Y306273D01*
X458844Y306400D01*
X458766Y306511D01*
X458694Y306616D01*
X458628Y306705D01*
X458567Y306782D01*
X458512Y306854D01*
X458467Y306915D01*
X458429Y306965D01*
X458395Y307004D01*
X458368Y307031D01*
X458351Y307053D01*
X458340Y307064D01*
X458335Y307070D01*
X458207Y307197D01*
X458069Y307319D01*
X457930Y307430D01*
X457797Y307530D01*
X457737Y307568D01*
X457681Y307607D01*
X457631Y307640D01*
X457587Y307668D01*
X457554Y307690D01*
X457526Y307707D01*
X457509Y307712D01*
X457504Y307718D01*
X457687Y307751D01*
X457858Y307790D01*
X458019Y307834D01*
X458168Y307889D01*
X458307Y307945D01*
X458429Y308006D01*
X458539Y308061D01*
X458645Y308122D01*
X458733Y308183D01*
X458811Y308238D01*
X458872Y308288D01*
X458927Y308333D01*
X458966Y308371D01*
X458999Y308399D01*
X459016Y308416D01*
X459021Y308421D01*
X459110Y308532D01*
X459187Y308643D01*
X459259Y308764D01*
X459315Y308881D01*
X459364Y309002D01*
X459409Y309119D01*
X459442Y309235D01*
X459470Y309346D01*
X459486Y309451D01*
X459503Y309545D01*
X459514Y309634D01*
X459525Y309706D01*
Y309767D01*
X459530Y309811D01*
Y309839D01*
Y309850D01*
X459525Y309977D01*
X459514Y310093D01*
X459497Y310210D01*
X459481Y310320D01*
X459453Y310425D01*
X459425Y310525D01*
X459392Y310619D01*
X459364Y310702D01*
X459331Y310780D01*
X459298Y310852D01*
X459270Y310907D01*
X459248Y310957D01*
X459226Y310996D01*
X459209Y311029D01*
X459198Y311046D01*
X459193Y311051D01*
X459126Y311145D01*
X459060Y311234D01*
X458988Y311317D01*
X458916Y311389D01*
X458838Y311455D01*
X458766Y311516D01*
X458694Y311572D01*
X458622Y311622D01*
X458556Y311660D01*
X458495Y311694D01*
X458440Y311727D01*
X458395Y311749D01*
X458357Y311765D01*
X458323Y311777D01*
X458307Y311788D01*
X458301D01*
X458190Y311826D01*
X458063Y311860D01*
X457930Y311887D01*
X457792Y311910D01*
X457493Y311948D01*
X457349Y311959D01*
X457205Y311970D01*
X457066Y311982D01*
X456939Y311987D01*
X456823Y311993D01*
X456718D01*
X456635Y311998D01*
X460151D01*
D02*
G37*
G36*
X396661Y312125D02*
X392879D01*
X396584D01*
X396412Y312120D01*
X396246Y312114D01*
X396085Y312098D01*
X395930Y312076D01*
X395786Y312054D01*
X395648Y312031D01*
X395526Y312004D01*
X395410Y311976D01*
X395304Y311943D01*
X395210Y311915D01*
X395127Y311893D01*
X395061Y311871D01*
X395005Y311849D01*
X394967Y311832D01*
X394945Y311826D01*
X394934Y311821D01*
X394834Y311777D01*
X394734Y311727D01*
X394552Y311616D01*
X394380Y311500D01*
X394302Y311444D01*
X394230Y311389D01*
X394169Y311339D01*
X394109Y311289D01*
X394059Y311245D01*
X394014Y311206D01*
X393981Y311173D01*
X393959Y311151D01*
X393942Y311134D01*
X393937Y311129D01*
X393776Y310951D01*
X393638Y310769D01*
X393516Y310592D01*
X393416Y310431D01*
X393372Y310354D01*
X393333Y310287D01*
X393300Y310226D01*
X393278Y310176D01*
X393256Y310132D01*
X393239Y310104D01*
X393234Y310082D01*
X393228Y310077D01*
X393167Y309922D01*
X393112Y309767D01*
X393068Y309601D01*
X393029Y309434D01*
X392995Y309274D01*
X392962Y309108D01*
X392940Y308953D01*
X392924Y308798D01*
X392907Y308659D01*
X392896Y308526D01*
X392890Y308410D01*
X392885Y308310D01*
X392879Y308227D01*
Y308116D01*
X392885Y307945D01*
X392890Y307784D01*
X392924Y307469D01*
X392973Y307170D01*
X393034Y306893D01*
X393112Y306638D01*
X393200Y306400D01*
X393289Y306184D01*
X393383Y305990D01*
X393477Y305819D01*
X393522Y305741D01*
X393566Y305669D01*
X393610Y305603D01*
X393655Y305542D01*
X393693Y305486D01*
X393732Y305436D01*
X393765Y305392D01*
X393793Y305353D01*
X393821Y305320D01*
X393843Y305292D01*
X393865Y305270D01*
X393876Y305254D01*
X393887Y305248D01*
Y305243D01*
X393981Y305149D01*
X394086Y305060D01*
X394186Y304977D01*
X394291Y304899D01*
X394513Y304761D01*
X394740Y304639D01*
X394967Y304540D01*
X395188Y304456D01*
X395410Y304384D01*
X395626Y304335D01*
X395825Y304290D01*
X396013Y304257D01*
X396096Y304246D01*
X396179Y304235D01*
X396251Y304224D01*
X396323Y304218D01*
X396384Y304213D01*
X396440Y304207D01*
X396489D01*
X396528Y304202D01*
X400316D01*
Y304335D01*
Y304202D01*
X396606D01*
X396761Y304207D01*
X396916Y304213D01*
X397209Y304246D01*
X397481Y304296D01*
X397741Y304368D01*
X397979Y304445D01*
X398200Y304534D01*
X398405Y304628D01*
X398588Y304728D01*
X398749Y304822D01*
X398893Y304916D01*
X399020Y305005D01*
X399120Y305088D01*
X399164Y305121D01*
X399197Y305154D01*
X399230Y305182D01*
X399258Y305204D01*
X399275Y305221D01*
X399291Y305237D01*
X399297Y305243D01*
X399302Y305248D01*
X399397Y305348D01*
X399480Y305453D01*
X399563Y305564D01*
X399635Y305675D01*
X399773Y305907D01*
X399889Y306145D01*
X399989Y306383D01*
X400066Y306627D01*
X400133Y306865D01*
X400188Y307092D01*
X400233Y307308D01*
X400260Y307507D01*
X400277Y307602D01*
X400283Y307690D01*
X400294Y307768D01*
X400299Y307845D01*
X400305Y307912D01*
X400310Y307973D01*
Y308022D01*
X400316Y308067D01*
Y304335D01*
Y308067D01*
Y308321D01*
X400305Y308493D01*
X400271Y308814D01*
X400222Y309113D01*
X400155Y309396D01*
X400078Y309656D01*
X399995Y309900D01*
X399900Y310115D01*
X399806Y310315D01*
X399757Y310403D01*
X399712Y310486D01*
X399662Y310569D01*
X399618Y310641D01*
X399574Y310708D01*
X399535Y310774D01*
X399496Y310830D01*
X399457Y310880D01*
X399424Y310924D01*
X399391Y310963D01*
X399363Y310996D01*
X399341Y311024D01*
X399325Y311046D01*
X399308Y311062D01*
X399302Y311068D01*
X399297Y311073D01*
X399197Y311168D01*
X399098Y311256D01*
X398992Y311345D01*
X398887Y311422D01*
X398666Y311561D01*
X398444Y311682D01*
X398217Y311782D01*
X397990Y311871D01*
X397769Y311937D01*
X397558Y311992D01*
X397359Y312037D01*
X397176Y312070D01*
X397088Y312081D01*
X397010Y312092D01*
X396932Y312103D01*
X396866Y312109D01*
X396800Y312114D01*
X396744Y312120D01*
X396700D01*
X396661Y312125D01*
D02*
G37*
G36*
X410587Y311998D02*
X404507D01*
Y304335D01*
X410587D01*
Y311998D01*
D02*
G37*
G36*
X448401Y312125D02*
X448323D01*
X448152Y312120D01*
X447985Y312114D01*
X447825Y312098D01*
X447670Y312076D01*
X447526Y312054D01*
X447387Y312031D01*
X447266Y312004D01*
X447149Y311976D01*
X447044Y311943D01*
X446950Y311915D01*
X446867Y311893D01*
X446800Y311871D01*
X446745Y311849D01*
X446706Y311832D01*
X446684Y311826D01*
X446673Y311821D01*
X446573Y311777D01*
X446474Y311727D01*
X446291Y311616D01*
X446119Y311500D01*
X446042Y311444D01*
X445970Y311389D01*
X445909Y311339D01*
X445848Y311289D01*
X445798Y311245D01*
X445754Y311206D01*
X445721Y311173D01*
X445699Y311151D01*
X445682Y311134D01*
X445676Y311129D01*
X445516Y310951D01*
X445377Y310769D01*
X445256Y310592D01*
X445156Y310431D01*
X445112Y310354D01*
X445073Y310287D01*
X445040Y310226D01*
X445018Y310176D01*
X444995Y310132D01*
X444979Y310104D01*
X444973Y310082D01*
X444968Y310077D01*
X444907Y309922D01*
X444851Y309767D01*
X444807Y309601D01*
X444768Y309434D01*
X444735Y309274D01*
X444702Y309108D01*
X444680Y308953D01*
X444663Y308798D01*
X444646Y308659D01*
X444636Y308526D01*
X444630Y308410D01*
X444624Y308310D01*
X444619Y308227D01*
Y308116D01*
X444624Y307945D01*
X444630Y307784D01*
X444663Y307469D01*
X444713Y307170D01*
X444774Y306893D01*
X444851Y306638D01*
X444940Y306400D01*
X445029Y306184D01*
X445123Y305990D01*
X445217Y305819D01*
X445261Y305741D01*
X445305Y305669D01*
X445350Y305603D01*
X445394Y305542D01*
X445433Y305486D01*
X445472Y305436D01*
X445505Y305392D01*
X445532Y305353D01*
X445560Y305320D01*
X445582Y305292D01*
X445605Y305270D01*
X445616Y305254D01*
X445627Y305248D01*
Y305243D01*
X445721Y305149D01*
X445826Y305060D01*
X445926Y304977D01*
X446031Y304899D01*
X446252Y304761D01*
X446479Y304639D01*
X446706Y304540D01*
X446928Y304456D01*
X447149Y304384D01*
X447365Y304335D01*
X447565Y304290D01*
X447753Y304257D01*
X447836Y304246D01*
X447919Y304235D01*
X447991Y304224D01*
X448063Y304218D01*
X448124Y304213D01*
X448179Y304207D01*
X448229D01*
X448268Y304202D01*
X444619D01*
D01*
X452055D01*
X448345D01*
X448500Y304207D01*
X448656Y304213D01*
X448949Y304246D01*
X449220Y304296D01*
X449481Y304368D01*
X449719Y304445D01*
X449940Y304534D01*
X450145Y304628D01*
X450328Y304728D01*
X450488Y304822D01*
X450632Y304916D01*
X450760Y305005D01*
X450859Y305088D01*
X450904Y305121D01*
X450937Y305154D01*
X450970Y305182D01*
X450998Y305204D01*
X451014Y305221D01*
X451031Y305237D01*
X451036Y305243D01*
X451042Y305248D01*
X451136Y305348D01*
X451219Y305453D01*
X451302Y305564D01*
X451374Y305675D01*
X451513Y305907D01*
X451629Y306145D01*
X451729Y306383D01*
X451806Y306627D01*
X451873Y306865D01*
X451928Y307092D01*
X451972Y307308D01*
X452000Y307507D01*
X452016Y307602D01*
X452022Y307690D01*
X452033Y307768D01*
X452039Y307845D01*
X452044Y307912D01*
X452050Y307973D01*
Y308022D01*
X452055Y308067D01*
Y308321D01*
X452044Y308493D01*
X452011Y308814D01*
X451961Y309113D01*
X451895Y309396D01*
X451817Y309656D01*
X451734Y309900D01*
X451640Y310115D01*
X451546Y310315D01*
X451496Y310403D01*
X451452Y310486D01*
X451402Y310569D01*
X451358Y310641D01*
X451313Y310708D01*
X451275Y310774D01*
X451236Y310830D01*
X451197Y310880D01*
X451164Y310924D01*
X451131Y310963D01*
X451103Y310996D01*
X451081Y311024D01*
X451064Y311046D01*
X451048Y311062D01*
X451042Y311068D01*
X451036Y311073D01*
X450937Y311168D01*
X450837Y311256D01*
X450732Y311345D01*
X450627Y311422D01*
X450405Y311561D01*
X450184Y311682D01*
X449957Y311782D01*
X449730Y311871D01*
X449508Y311937D01*
X449298Y311992D01*
X449098Y312037D01*
X448916Y312070D01*
X448827Y312081D01*
X448750Y312092D01*
X448672Y312103D01*
X448606Y312109D01*
X448539Y312114D01*
X448484Y312120D01*
X448439D01*
X448401Y312125D01*
D02*
G37*
%LPD*%
G36*
X388023Y310697D02*
X388167D01*
X388294Y310691D01*
X388411Y310686D01*
X388516Y310680D01*
X388610Y310669D01*
X388688Y310664D01*
X388760Y310658D01*
X388815Y310647D01*
X388865Y310641D01*
X388904Y310636D01*
X388931Y310630D01*
X388953D01*
X388964Y310625D01*
X388970D01*
X389125Y310581D01*
X389269Y310531D01*
X389391Y310470D01*
X389496Y310409D01*
X389579Y310354D01*
X389612Y310331D01*
X389640Y310309D01*
X389662Y310293D01*
X389679Y310276D01*
X389684Y310271D01*
X389690Y310265D01*
X389790Y310154D01*
X389878Y310038D01*
X389950Y309916D01*
X390017Y309794D01*
X390061Y309689D01*
X390083Y309639D01*
X390100Y309601D01*
X390111Y309567D01*
X390122Y309545D01*
X390127Y309529D01*
Y309523D01*
X390155Y309429D01*
X390183Y309329D01*
X390199Y309218D01*
X390221Y309108D01*
X390249Y308881D01*
X390260Y308770D01*
X390266Y308665D01*
X390277Y308559D01*
X390282Y308465D01*
Y308382D01*
X390288Y308305D01*
Y308244D01*
Y308200D01*
Y308172D01*
Y308161D01*
Y308000D01*
X390282Y307845D01*
X390271Y307701D01*
X390266Y307568D01*
X390249Y307441D01*
X390238Y307330D01*
X390221Y307225D01*
X390210Y307131D01*
X390194Y307042D01*
X390177Y306970D01*
X390166Y306904D01*
X390155Y306854D01*
X390144Y306815D01*
X390133Y306782D01*
X390127Y306765D01*
Y306760D01*
X390100Y306666D01*
X390066Y306583D01*
X390033Y306500D01*
X390000Y306428D01*
X389967Y306361D01*
X389934Y306300D01*
X389900Y306245D01*
X389867Y306195D01*
X389839Y306151D01*
X389812Y306118D01*
X389784Y306084D01*
X389767Y306062D01*
X389745Y306040D01*
X389734Y306029D01*
X389729Y306023D01*
X389723Y306018D01*
X389623Y305940D01*
X389518Y305874D01*
X389418Y305819D01*
X389319Y305780D01*
X389230Y305747D01*
X389192Y305730D01*
X389158Y305719D01*
X389136Y305713D01*
X389114Y305708D01*
X389103Y305702D01*
X389097D01*
X389042Y305691D01*
X388975Y305680D01*
X388832Y305664D01*
X388676Y305647D01*
X388521Y305641D01*
X388450Y305636D01*
X388383D01*
X388322Y305630D01*
X387004D01*
Y310702D01*
X387868D01*
X388023Y310697D01*
D02*
G37*
G36*
X415809Y310797D02*
X415975Y310774D01*
X416130Y310741D01*
X416274Y310702D01*
X416412Y310653D01*
X416540Y310597D01*
X416656Y310536D01*
X416761Y310481D01*
X416855Y310420D01*
X416938Y310359D01*
X417005Y310304D01*
X417066Y310254D01*
X417110Y310215D01*
X417143Y310182D01*
X417165Y310160D01*
X417171Y310154D01*
X417276Y310027D01*
X417365Y309883D01*
X417442Y309733D01*
X417509Y309573D01*
X417564Y309412D01*
X417608Y309246D01*
X417647Y309086D01*
X417680Y308930D01*
X417702Y308781D01*
X417719Y308643D01*
X417736Y308515D01*
X417741Y308404D01*
X417747Y308355D01*
Y308316D01*
X417752Y308277D01*
Y308244D01*
Y308222D01*
Y308205D01*
Y308194D01*
Y308188D01*
X417747Y307945D01*
X417725Y307718D01*
X417697Y307507D01*
X417658Y307314D01*
X417614Y307136D01*
X417564Y306970D01*
X417509Y306821D01*
X417453Y306688D01*
X417398Y306572D01*
X417343Y306472D01*
X417293Y306383D01*
X417248Y306317D01*
X417210Y306262D01*
X417182Y306223D01*
X417160Y306195D01*
X417154Y306190D01*
X417038Y306073D01*
X416916Y305968D01*
X416794Y305879D01*
X416667Y305807D01*
X416540Y305741D01*
X416412Y305686D01*
X416291Y305641D01*
X416169Y305608D01*
X416058Y305581D01*
X415958Y305558D01*
X415864Y305547D01*
X415787Y305536D01*
X415720Y305531D01*
X415670Y305525D01*
X415632D01*
X415460Y305531D01*
X415299Y305553D01*
X415150Y305586D01*
X415000Y305630D01*
X414868Y305680D01*
X414740Y305735D01*
X414624Y305796D01*
X414519Y305863D01*
X414425Y305924D01*
X414341Y305985D01*
X414269Y306040D01*
X414214Y306090D01*
X414164Y306134D01*
X414131Y306167D01*
X414109Y306190D01*
X414103Y306195D01*
X413998Y306328D01*
X413904Y306472D01*
X413826Y306627D01*
X413760Y306788D01*
X413699Y306948D01*
X413649Y307114D01*
X413610Y307275D01*
X413583Y307430D01*
X413555Y307579D01*
X413539Y307718D01*
X413522Y307845D01*
X413516Y307950D01*
X413511Y308044D01*
X413505Y308078D01*
Y308111D01*
Y308133D01*
Y308150D01*
Y308161D01*
Y308166D01*
X413511Y308404D01*
X413533Y308631D01*
X413561Y308842D01*
X413594Y309036D01*
X413638Y309213D01*
X413688Y309373D01*
X413743Y309517D01*
X413799Y309650D01*
X413849Y309767D01*
X413904Y309866D01*
X413954Y309949D01*
X413998Y310021D01*
X414031Y310077D01*
X414065Y310110D01*
X414081Y310138D01*
X414087Y310143D01*
X414203Y310259D01*
X414319Y310359D01*
X414447Y310448D01*
X414574Y310525D01*
X414707Y310586D01*
X414834Y310641D01*
X414962Y310686D01*
X415078Y310719D01*
X415194Y310747D01*
X415299Y310769D01*
X415393Y310780D01*
X415471Y310791D01*
X415537Y310797D01*
X415587Y310802D01*
X415632D01*
X415809Y310797D01*
D02*
G37*
G36*
X456590Y310697D02*
X456696D01*
X456784Y310691D01*
X456934D01*
X456989Y310686D01*
X457033D01*
X457072Y310680D01*
X457100D01*
X457122Y310675D01*
X457144D01*
X457277Y310641D01*
X457393Y310597D01*
X457493Y310547D01*
X457576Y310497D01*
X457642Y310448D01*
X457687Y310409D01*
X457714Y310381D01*
X457725Y310376D01*
Y310370D01*
X457797Y310276D01*
X457847Y310176D01*
X457886Y310071D01*
X457908Y309972D01*
X457925Y309883D01*
X457930Y309850D01*
Y309816D01*
X457936Y309789D01*
Y309767D01*
Y309755D01*
Y309750D01*
X457930Y309628D01*
X457914Y309517D01*
X457886Y309418D01*
X457858Y309335D01*
X457825Y309268D01*
X457803Y309218D01*
X457781Y309185D01*
X457775Y309174D01*
X457714Y309091D01*
X457642Y309025D01*
X457570Y308969D01*
X457504Y308925D01*
X457438Y308892D01*
X457388Y308864D01*
X457354Y308853D01*
X457349Y308847D01*
X457343D01*
X457282Y308831D01*
X457205Y308820D01*
X457111Y308809D01*
X457011Y308798D01*
X456900Y308787D01*
X456784Y308781D01*
X456546Y308770D01*
X456430Y308764D01*
X456219D01*
X456131Y308759D01*
X454813D01*
Y310702D01*
X456469D01*
X456590Y310697D01*
D02*
G37*
G36*
X455311Y307530D02*
X455394D01*
X455466Y307524D01*
X455538Y307513D01*
X455605Y307507D01*
X455660Y307502D01*
X455710Y307491D01*
X455754Y307485D01*
X455793Y307474D01*
X455826Y307469D01*
X455854Y307463D01*
X455870Y307458D01*
X455887Y307452D01*
X455898Y307446D01*
X455992Y307408D01*
X456075Y307358D01*
X456153Y307308D01*
X456225Y307253D01*
X456280Y307203D01*
X456325Y307164D01*
X456352Y307136D01*
X456363Y307125D01*
X456408Y307076D01*
X456463Y307009D01*
X456524Y306937D01*
X456585Y306854D01*
X456651Y306760D01*
X456718Y306666D01*
X456856Y306478D01*
X456922Y306383D01*
X456983Y306295D01*
X457039Y306217D01*
X457089Y306145D01*
X457127Y306084D01*
X457155Y306040D01*
X457177Y306012D01*
X457183Y306001D01*
X458296Y304335D01*
X454813D01*
Y307535D01*
X455217D01*
X455311Y307530D01*
D02*
G37*
G36*
X396777Y310797D02*
X396944Y310774D01*
X397099Y310741D01*
X397243Y310702D01*
X397381Y310653D01*
X397508Y310597D01*
X397625Y310536D01*
X397730Y310481D01*
X397824Y310420D01*
X397907Y310359D01*
X397974Y310304D01*
X398034Y310254D01*
X398079Y310215D01*
X398112Y310182D01*
X398134Y310160D01*
X398140Y310154D01*
X398245Y310027D01*
X398333Y309883D01*
X398411Y309733D01*
X398477Y309573D01*
X398533Y309412D01*
X398577Y309246D01*
X398616Y309086D01*
X398649Y308930D01*
X398671Y308781D01*
X398688Y308643D01*
X398704Y308515D01*
X398710Y308404D01*
X398716Y308355D01*
Y308316D01*
X398721Y308277D01*
Y308244D01*
Y308222D01*
Y308205D01*
Y308194D01*
Y308188D01*
X398716Y307945D01*
X398693Y307718D01*
X398666Y307507D01*
X398627Y307314D01*
X398583Y307136D01*
X398533Y306970D01*
X398477Y306821D01*
X398422Y306688D01*
X398367Y306572D01*
X398311Y306472D01*
X398261Y306383D01*
X398217Y306317D01*
X398178Y306262D01*
X398151Y306223D01*
X398129Y306195D01*
X398123Y306190D01*
X398007Y306073D01*
X397885Y305968D01*
X397763Y305879D01*
X397636Y305807D01*
X397508Y305741D01*
X397381Y305686D01*
X397259Y305641D01*
X397137Y305608D01*
X397027Y305581D01*
X396927Y305558D01*
X396833Y305547D01*
X396755Y305536D01*
X396689Y305531D01*
X396639Y305525D01*
X396600D01*
X396429Y305531D01*
X396268Y305553D01*
X396119Y305586D01*
X395969Y305630D01*
X395836Y305680D01*
X395709Y305735D01*
X395592Y305796D01*
X395487Y305863D01*
X395393Y305924D01*
X395310Y305985D01*
X395238Y306040D01*
X395183Y306090D01*
X395133Y306134D01*
X395100Y306167D01*
X395078Y306190D01*
X395072Y306195D01*
X394967Y306328D01*
X394873Y306472D01*
X394795Y306627D01*
X394729Y306788D01*
X394668Y306948D01*
X394618Y307114D01*
X394579Y307275D01*
X394552Y307430D01*
X394524Y307579D01*
X394507Y307718D01*
X394491Y307845D01*
X394485Y307950D01*
X394479Y308044D01*
X394474Y308078D01*
Y308111D01*
Y308133D01*
Y308150D01*
Y308161D01*
Y308166D01*
X394479Y308404D01*
X394502Y308631D01*
X394529Y308842D01*
X394563Y309036D01*
X394607Y309213D01*
X394657Y309373D01*
X394712Y309517D01*
X394767Y309650D01*
X394817Y309767D01*
X394873Y309866D01*
X394922Y309949D01*
X394967Y310021D01*
X395000Y310077D01*
X395033Y310110D01*
X395050Y310138D01*
X395055Y310143D01*
X395172Y310259D01*
X395288Y310359D01*
X395415Y310448D01*
X395543Y310525D01*
X395676Y310586D01*
X395803Y310641D01*
X395930Y310686D01*
X396046Y310719D01*
X396163Y310747D01*
X396268Y310769D01*
X396362Y310780D01*
X396440Y310791D01*
X396506Y310797D01*
X396556Y310802D01*
X396600D01*
X396777Y310797D01*
D02*
G37*
G36*
X409153Y306865D02*
X406008Y311998D01*
X409153D01*
Y306865D01*
D02*
G37*
G36*
X409037Y304335D02*
X405942D01*
Y309351D01*
X409037Y304335D01*
D02*
G37*
G36*
X448517Y310797D02*
X448683Y310774D01*
X448838Y310741D01*
X448982Y310702D01*
X449121Y310653D01*
X449248Y310597D01*
X449364Y310536D01*
X449469Y310481D01*
X449564Y310420D01*
X449647Y310359D01*
X449713Y310304D01*
X449774Y310254D01*
X449818Y310215D01*
X449851Y310182D01*
X449874Y310160D01*
X449879Y310154D01*
X449984Y310027D01*
X450073Y309883D01*
X450150Y309733D01*
X450217Y309573D01*
X450272Y309412D01*
X450317Y309246D01*
X450355Y309086D01*
X450389Y308930D01*
X450411Y308781D01*
X450427Y308643D01*
X450444Y308515D01*
X450449Y308404D01*
X450455Y308355D01*
Y308316D01*
X450461Y308277D01*
Y308244D01*
Y308222D01*
Y308205D01*
Y308194D01*
Y308188D01*
X450455Y307945D01*
X450433Y307718D01*
X450405Y307507D01*
X450367Y307314D01*
X450322Y307136D01*
X450272Y306970D01*
X450217Y306821D01*
X450162Y306688D01*
X450106Y306572D01*
X450051Y306472D01*
X450001Y306383D01*
X449957Y306317D01*
X449918Y306262D01*
X449890Y306223D01*
X449868Y306195D01*
X449863Y306190D01*
X449746Y306073D01*
X449624Y305968D01*
X449503Y305879D01*
X449375Y305807D01*
X449248Y305741D01*
X449121Y305686D01*
X448999Y305641D01*
X448877Y305608D01*
X448766Y305581D01*
X448666Y305558D01*
X448572Y305547D01*
X448495Y305536D01*
X448428Y305531D01*
X448379Y305525D01*
X448340D01*
X448168Y305531D01*
X448008Y305553D01*
X447858Y305586D01*
X447709Y305630D01*
X447576Y305680D01*
X447448Y305735D01*
X447332Y305796D01*
X447227Y305863D01*
X447133Y305924D01*
X447050Y305985D01*
X446978Y306040D01*
X446922Y306090D01*
X446872Y306134D01*
X446839Y306167D01*
X446817Y306190D01*
X446812Y306195D01*
X446706Y306328D01*
X446612Y306472D01*
X446535Y306627D01*
X446468Y306788D01*
X446407Y306948D01*
X446357Y307114D01*
X446319Y307275D01*
X446291Y307430D01*
X446263Y307579D01*
X446247Y307718D01*
X446230Y307845D01*
X446225Y307950D01*
X446219Y308044D01*
X446214Y308078D01*
Y308111D01*
Y308133D01*
Y308150D01*
Y308161D01*
Y308166D01*
X446219Y308404D01*
X446241Y308631D01*
X446269Y308842D01*
X446302Y309036D01*
X446347Y309213D01*
X446396Y309373D01*
X446452Y309517D01*
X446507Y309650D01*
X446557Y309767D01*
X446612Y309866D01*
X446662Y309949D01*
X446706Y310021D01*
X446740Y310077D01*
X446773Y310110D01*
X446789Y310138D01*
X446795Y310143D01*
X446911Y310259D01*
X447028Y310359D01*
X447155Y310448D01*
X447282Y310525D01*
X447415Y310586D01*
X447542Y310641D01*
X447670Y310686D01*
X447786Y310719D01*
X447902Y310747D01*
X448008Y310769D01*
X448102Y310780D01*
X448179Y310791D01*
X448246Y310797D01*
X448296Y310802D01*
X448340D01*
X448517Y310797D01*
D02*
G37*
%LPC*%
G36*
X429153Y23165D02*
X427987Y23081D01*
X427903D01*
X427820Y22998D01*
Y20165D01*
Y20082D01*
X429236D01*
X429570Y20165D01*
X429903Y20249D01*
X430236Y20499D01*
X430319Y20582D01*
X430486Y20832D01*
X430653Y21165D01*
X430736Y21582D01*
Y21665D01*
X430653Y21998D01*
X430569Y22332D01*
X430236Y22665D01*
X430153Y22748D01*
X429986Y22915D01*
X429570Y23081D01*
X429153Y23165D01*
D02*
G37*
G36*
X410491D02*
X409241Y23081D01*
X409158D01*
X409075Y22998D01*
Y20165D01*
X409158D01*
Y20082D01*
X410574D01*
X410824Y20165D01*
X411158Y20249D01*
X411491Y20499D01*
X411574Y20582D01*
X411741Y20832D01*
X411908Y21165D01*
X411991Y21582D01*
Y21665D01*
X411908Y21998D01*
X411824Y22332D01*
X411491Y22665D01*
X411408Y22748D01*
X411241Y22915D01*
X410908Y23081D01*
X410491Y23165D01*
D02*
G37*
G36*
X446898Y22665D02*
X446815D01*
X446732Y22581D01*
X445816Y18916D01*
Y18832D01*
X445899Y18749D01*
X447648D01*
Y18916D01*
X446898Y22581D01*
Y22665D01*
D02*
G37*
%LPD*%
D10*
X69500Y-1324D02*
G03*
X69500Y-1324I-5000J0D01*
G01*
X343500Y321000D02*
G03*
X343500Y270751I0J-25125D01*
G01*
X84500Y243000D02*
G03*
X61864Y242223I-11136J-5677D01*
G01*
X341000Y318500D02*
X343500Y321000D01*
X341000Y323500D02*
X343500Y321000D01*
X84500Y243000D02*
Y249072D01*
X79500Y243000D02*
X84500D01*
X250540Y318721D02*
Y310390D01*
X252206Y308724D01*
X255538D01*
X257204Y310390D01*
Y318721D01*
X267201Y317055D02*
X265535Y318721D01*
X262203D01*
X260537Y317055D01*
Y315389D01*
X262203Y313723D01*
X265535D01*
X267201Y312057D01*
Y310390D01*
X265535Y308724D01*
X262203D01*
X260537Y310390D01*
X270534Y318721D02*
Y308724D01*
X275532D01*
X277198Y310390D01*
Y312057D01*
X275532Y313723D01*
X270534D01*
X275532D01*
X277198Y315389D01*
Y317055D01*
X275532Y318721D01*
X270534D01*
X280530Y313723D02*
X287195D01*
X297192Y317055D02*
X295525Y318721D01*
X292193D01*
X290527Y317055D01*
Y310390D01*
X292193Y308724D01*
X295525D01*
X297192Y310390D01*
X250540Y290632D02*
Y300629D01*
X253872Y297297D01*
X257204Y300629D01*
Y290632D01*
X265535Y300629D02*
X262203D01*
X260537Y298963D01*
Y292298D01*
X262203Y290632D01*
X265535D01*
X267201Y292298D01*
Y298963D01*
X265535Y300629D01*
X270534D02*
Y290632D01*
X275532D01*
X277198Y292298D01*
Y298963D01*
X275532Y300629D01*
X270534D01*
X287195D02*
X280530D01*
Y290632D01*
X287195D01*
X280530Y295630D02*
X283863D01*
X257204Y280871D02*
X255538Y282537D01*
X252206D01*
X250540Y280871D01*
Y279205D01*
X252206Y277538D01*
X255538D01*
X257204Y275872D01*
Y274206D01*
X255538Y272540D01*
X252206D01*
X250540Y274206D01*
X267201Y282537D02*
X260537D01*
Y272540D01*
X267201D01*
X260537Y277538D02*
X263869D01*
X270534Y282537D02*
Y272540D01*
X277198D01*
X287195Y282537D02*
X280530D01*
Y272540D01*
X287195D01*
X280530Y277538D02*
X283863D01*
X297192Y280871D02*
X295525Y282537D01*
X292193D01*
X290527Y280871D01*
Y274206D01*
X292193Y272540D01*
X295525D01*
X297192Y274206D01*
X300524Y282537D02*
X307188D01*
X303856D01*
Y272540D01*
X392205Y372537D02*
X385540D01*
Y362540D01*
X392205D01*
X385540Y367538D02*
X388872D01*
X395537Y372537D02*
X402201Y362540D01*
Y372537D02*
X395537Y362540D01*
X405534Y372537D02*
X412198D01*
X408866D01*
Y362540D01*
X422195Y372537D02*
X415530D01*
Y362540D01*
X422195D01*
X415530Y367538D02*
X418863D01*
X425527Y362540D02*
Y372537D01*
X430526D01*
X432192Y370871D01*
Y367538D01*
X430526Y365872D01*
X425527D01*
X428859D02*
X432192Y362540D01*
X435524D02*
Y372537D01*
X442188Y362540D01*
Y372537D01*
X445521Y362540D02*
Y369204D01*
X448853Y372537D01*
X452185Y369204D01*
Y362540D01*
Y367538D01*
X445521D01*
X455518Y372537D02*
Y362540D01*
X462182D01*
X29732Y349209D02*
X23067D01*
X29732Y355873D01*
Y357539D01*
X28066Y359206D01*
X24733D01*
X23067Y357539D01*
X33064D02*
X34730Y359206D01*
X38062D01*
X39728Y357539D01*
Y350875D01*
X38062Y349209D01*
X34730D01*
X33064Y350875D01*
Y357539D01*
X43061Y354207D02*
X49725D01*
X53057Y349209D02*
Y359206D01*
X58056D01*
X59722Y357539D01*
Y354207D01*
X58056Y352541D01*
X53057D01*
X63054Y359206D02*
X66386D01*
X64720D01*
Y349209D01*
X63054D01*
X66386D01*
X71385D02*
Y359206D01*
X78049Y349209D01*
Y359206D01*
X30205Y373871D02*
X28538Y375537D01*
X25206D01*
X23540Y373871D01*
Y372205D01*
X25206Y370538D01*
X28538D01*
X30205Y368872D01*
Y367206D01*
X28538Y365540D01*
X25206D01*
X23540Y367206D01*
X40201Y375537D02*
X33537D01*
Y365540D01*
X40201D01*
X33537Y370538D02*
X36869D01*
X50198Y373871D02*
X48532Y375537D01*
X45200D01*
X43534Y373871D01*
Y367206D01*
X45200Y365540D01*
X48532D01*
X50198Y367206D01*
Y370538D01*
X46866D01*
X60195Y373871D02*
X58529Y375537D01*
X55196D01*
X53530Y373871D01*
Y367206D01*
X55196Y365540D01*
X58529D01*
X60195Y367206D01*
Y370538D01*
X56863D01*
X70192Y375537D02*
X63527D01*
Y365540D01*
X70192D01*
X63527Y370538D02*
X66859D01*
X73524Y365540D02*
Y375537D01*
X78522D01*
X80188Y373871D01*
Y370538D01*
X78522Y368872D01*
X73524D01*
X76856D02*
X80188Y365540D01*
X24540Y274537D02*
Y267872D01*
X27872Y264540D01*
X31205Y267872D01*
Y274537D01*
X34537Y264540D02*
Y274537D01*
X39535D01*
X41201Y272871D01*
Y269538D01*
X39535Y267872D01*
X34537D01*
X37869D02*
X41201Y264540D01*
X51198Y274537D02*
X44534D01*
Y264540D01*
X51198D01*
X44534Y269538D02*
X47866D01*
X61195Y274537D02*
X54530D01*
Y269538D01*
X57863D01*
X54530D01*
Y264540D01*
X81188Y272871D02*
X79522Y274537D01*
X76190D01*
X74524Y272871D01*
Y271204D01*
X76190Y269538D01*
X79522D01*
X81188Y267872D01*
Y266206D01*
X79522Y264540D01*
X76190D01*
X74524Y266206D01*
X91185Y274537D02*
X84521D01*
Y264540D01*
X91185D01*
X84521Y269538D02*
X87853D01*
X94517Y274537D02*
Y264540D01*
X101182D01*
X111179Y274537D02*
X104514D01*
Y264540D01*
X111179D01*
X104514Y269538D02*
X107846D01*
X121175Y272871D02*
X119509Y274537D01*
X116177D01*
X114511Y272871D01*
Y266206D01*
X116177Y264540D01*
X119509D01*
X121175Y266206D01*
X124508Y274537D02*
X131172D01*
X127840D01*
Y264540D01*
X132040Y118040D02*
X135426D01*
X133733D01*
Y128197D01*
X132040Y126504D01*
X42705Y92371D02*
X41038Y94037D01*
X37706D01*
X36040Y92371D01*
Y90704D01*
X37706Y89038D01*
X41038D01*
X42705Y87372D01*
Y85706D01*
X41038Y84040D01*
X37706D01*
X36040Y85706D01*
X46037Y94037D02*
Y84040D01*
X51035D01*
X52701Y85706D01*
Y87372D01*
X51035Y89038D01*
X46037D01*
X51035D01*
X52701Y90704D01*
Y92371D01*
X51035Y94037D01*
X46037D01*
X56034D02*
Y85706D01*
X57700Y84040D01*
X61032D01*
X62698Y85706D01*
Y94037D01*
X76027Y84040D02*
Y90704D01*
X79359Y94037D01*
X82692Y90704D01*
Y84040D01*
Y89038D01*
X76027D01*
X86024Y94037D02*
Y84040D01*
X92688D01*
X96021Y94037D02*
X102685D01*
X99353D01*
Y84040D01*
X106018D02*
Y85706D01*
X107684D01*
Y84040D01*
X106018D01*
X131009Y94037D02*
X124345D01*
Y89038D01*
X127677D01*
X124345D01*
Y84040D01*
X134342Y94037D02*
Y85706D01*
X136008Y84040D01*
X139340D01*
X141006Y85706D01*
Y94037D01*
X144338Y84040D02*
Y94037D01*
X151003Y84040D01*
Y94037D01*
X161000Y92371D02*
X159334Y94037D01*
X156001D01*
X154335Y92371D01*
Y85706D01*
X156001Y84040D01*
X159334D01*
X161000Y85706D01*
X164332Y94037D02*
X170996D01*
X167664D01*
Y84040D01*
X174329Y94037D02*
X177661D01*
X175995D01*
Y84040D01*
X174329D01*
X177661D01*
X187658Y94037D02*
X184326D01*
X182659Y92371D01*
Y85706D01*
X184326Y84040D01*
X187658D01*
X189324Y85706D01*
Y92371D01*
X187658Y94037D01*
X192656Y84040D02*
Y94037D01*
X199321Y84040D01*
Y94037D01*
X163811Y118040D02*
X157040D01*
X163811Y124811D01*
Y126504D01*
X162118Y128197D01*
X158733D01*
X157040Y126504D01*
X182040D02*
X183733Y128197D01*
X187118D01*
X188811Y126504D01*
Y124811D01*
X187118Y123118D01*
X185426D01*
X187118D01*
X188811Y121426D01*
Y119733D01*
X187118Y118040D01*
X183733D01*
X182040Y119733D01*
D11*
X153250Y230000D02*
G03*
X153250Y230000I-1250J0D01*
G01*
D12*
X262786Y57050D02*
G03*
X262786Y57050I-2121J0D01*
G01*
X382071Y155565D02*
G03*
X382071Y155565I-2121J0D01*
G01*
X356660Y338229D02*
X360660Y334229D01*
X352660D02*
X356660Y338229D01*
D13*
X263802Y223532D02*
Y230136D01*
X274978Y234200D02*
Y240550D01*
X281328D01*
X319428D02*
X325778D01*
Y234200D02*
Y240550D01*
X319428Y187210D02*
X325778D01*
Y193560D01*
X274978Y187210D02*
X281328D01*
X274978D02*
Y193560D01*
X55706Y10534D02*
Y49142D01*
Y10534D02*
X72450D01*
X55706Y49142D02*
X72450D01*
X111550D02*
X132450D01*
X111550Y10534D02*
X132450D01*
X171550Y49142D02*
X188294D01*
X171550Y10534D02*
X188294D01*
Y49142D01*
X146000Y251952D02*
Y258048D01*
X141998Y182960D02*
Y188040D01*
X126460Y249002D02*
X131540D01*
X142000Y169952D02*
Y176048D01*
X252174Y137329D02*
X258270D01*
X338915Y101134D02*
X345011D01*
X252626Y232041D02*
X258722D01*
X337208Y194449D02*
X343304D01*
X233452Y4580D02*
X239548D01*
X434920Y129452D02*
Y135548D01*
X256952Y100920D02*
X263048D01*
X338026Y137075D02*
X344122D01*
X252880Y195084D02*
X258976D01*
X336700Y231787D02*
X342796D01*
X273383Y92752D02*
Y99102D01*
Y92752D02*
X279733D01*
X324183D02*
Y99102D01*
X317833Y92752D02*
X324183D01*
Y139742D02*
Y146092D01*
X317833D02*
X324183D01*
X273383D02*
X279733D01*
X273383Y139742D02*
Y146092D01*
X262207Y129074D02*
Y135678D01*
D14*
X119500Y213500D02*
X150500D01*
X119500Y218500D02*
X150500D01*
X119500Y213500D02*
Y218500D01*
X150500Y213500D02*
Y218500D01*
X121800Y135300D02*
X198000D01*
Y160700D01*
X121800Y160700D02*
X198000Y160700D01*
X121800Y135300D02*
X121800Y160700D01*
X120000Y328000D02*
X120020Y302950D01*
X36800Y173250D02*
Y221000D01*
X55900Y148100D02*
X87300D01*
X106400Y173250D02*
Y221000D01*
X81300D02*
X106400D01*
X36800D02*
X61900D01*
X171332Y316997D02*
X168666D01*
X169999D01*
Y310333D01*
X168666Y309000D01*
X167333D01*
X166000Y310333D01*
X179329Y309000D02*
X173997D01*
X179329Y314332D01*
Y315665D01*
X177996Y316997D01*
X175330D01*
X173997Y315665D01*
X195324D02*
X193991Y316997D01*
X191325D01*
X189992Y315665D01*
Y314332D01*
X191325Y312999D01*
X193991D01*
X195324Y311666D01*
Y310333D01*
X193991Y309000D01*
X191325D01*
X189992Y310333D01*
X197990Y316997D02*
Y309000D01*
Y312999D01*
X203321D01*
Y316997D01*
Y309000D01*
X209986Y316997D02*
X207320D01*
X205987Y315665D01*
Y310333D01*
X207320Y309000D01*
X209986D01*
X211319Y310333D01*
Y315665D01*
X209986Y316997D01*
X213985Y309000D02*
Y316997D01*
X217983D01*
X219316Y315665D01*
Y312999D01*
X217983Y311666D01*
X213985D01*
X216650D02*
X219316Y309000D01*
X221982Y316997D02*
X227313D01*
X224648D01*
Y309000D01*
X166881Y295406D02*
Y295786D01*
X167262Y296548D01*
X167643Y296929D01*
X168404Y297310D01*
X169928D01*
X170690Y296929D01*
X171070Y296548D01*
X171451Y295786D01*
Y295025D01*
X171070Y294263D01*
X170309Y293120D01*
X166500Y289312D01*
X171832D01*
X185000Y297664D02*
X188047Y289666D01*
X191094Y297664D02*
X188047Y289666D01*
X192122Y287000D02*
X198216D01*
X199245Y297664D02*
Y289666D01*
Y297664D02*
X202672D01*
X203815Y297283D01*
X204196Y296903D01*
X204577Y296141D01*
Y295379D01*
X204196Y294617D01*
X203815Y294237D01*
X202672Y293856D01*
X199245D01*
X201911D02*
X204577Y289666D01*
X211318Y297664D02*
X206367D01*
Y289666D01*
X211318D01*
X206367Y293856D02*
X209414D01*
X212651Y297664D02*
Y289666D01*
Y297664D02*
X217603D01*
X212651Y293856D02*
X215698D01*
X185000Y281664D02*
X188047Y273666D01*
X191094Y281664D02*
X188047Y273666D01*
X192122Y271000D02*
X198216D01*
X199245Y281664D02*
Y273666D01*
X203815D01*
X204691Y281664D02*
Y273666D01*
Y281664D02*
X207357D01*
X208500Y281283D01*
X209261Y280522D01*
X209642Y279760D01*
X210023Y278617D01*
Y276713D01*
X209642Y275571D01*
X209261Y274809D01*
X208500Y274047D01*
X207357Y273666D01*
X204691D01*
X214098Y281664D02*
X213337Y281283D01*
X212575Y280522D01*
X212194Y279760D01*
X211813Y278617D01*
Y276713D01*
X212194Y275571D01*
X212575Y274809D01*
X213337Y274047D01*
X214098Y273666D01*
X215622D01*
X216384Y274047D01*
X217146Y274809D01*
X217526Y275571D01*
X217907Y276713D01*
Y278617D01*
X217526Y279760D01*
X217146Y280522D01*
X216384Y281283D01*
X215622Y281664D01*
X214098D01*
X183666Y266188D02*
X182904Y265426D01*
X182143Y264284D01*
X181381Y262760D01*
X181000Y260856D01*
Y259332D01*
X181381Y257428D01*
X182143Y255904D01*
X182904Y254762D01*
X183666Y254000D01*
X182904Y265426D02*
X182143Y263903D01*
X181762Y262760D01*
X181381Y260856D01*
Y259332D01*
X181762Y257428D01*
X182143Y256285D01*
X182904Y254762D01*
X185190Y260475D02*
X188617D01*
X189760Y260856D01*
X190141Y261237D01*
X190522Y261998D01*
Y263141D01*
X190141Y263903D01*
X189760Y264284D01*
X188617Y264664D01*
X185190D01*
Y256666D01*
X194597Y264664D02*
X193835Y264284D01*
X193074Y263522D01*
X192693Y262760D01*
X192312Y261617D01*
Y259713D01*
X192693Y258570D01*
X193074Y257809D01*
X193835Y257047D01*
X194597Y256666D01*
X196121D01*
X196882Y257047D01*
X197644Y257809D01*
X198025Y258570D01*
X198406Y259713D01*
Y261617D01*
X198025Y262760D01*
X197644Y263522D01*
X196882Y264284D01*
X196121Y264664D01*
X194597D01*
X202938D02*
Y256666D01*
X200272Y264664D02*
X205604D01*
X206556Y266188D02*
X207318Y265426D01*
X208080Y264284D01*
X208842Y262760D01*
X209223Y260856D01*
Y259332D01*
X208842Y257428D01*
X208080Y255904D01*
X207318Y254762D01*
X206556Y254000D01*
X207318Y265426D02*
X208080Y263903D01*
X208461Y262760D01*
X208842Y260856D01*
Y259332D01*
X208461Y257428D01*
X208080Y256285D01*
X207318Y254762D01*
X168000Y279475D02*
X168762Y279856D01*
X169904Y280998D01*
Y273000D01*
X171381Y217094D02*
Y217475D01*
X171762Y218237D01*
X172143Y218617D01*
X172904Y218998D01*
X174428D01*
X175190Y218617D01*
X175570Y218237D01*
X175951Y217475D01*
Y216713D01*
X175570Y215951D01*
X174809Y214809D01*
X171000Y211000D01*
X176332D01*
X187000Y218664D02*
X190047Y210666D01*
X193094Y218664D02*
X190047Y210666D01*
X194122Y208000D02*
X200216D01*
X201245Y218664D02*
Y210666D01*
Y218664D02*
X204672D01*
X205815Y218284D01*
X206196Y217903D01*
X206577Y217141D01*
Y216379D01*
X206196Y215617D01*
X205815Y215237D01*
X204672Y214856D01*
X201245D01*
X203911D02*
X206577Y210666D01*
X213318Y218664D02*
X208367D01*
Y210666D01*
X213318D01*
X208367Y214856D02*
X211414D01*
X214651Y218664D02*
Y210666D01*
Y218664D02*
X219603D01*
X214651Y214856D02*
X217698D01*
X171262Y203498D02*
X175451D01*
X173166Y200451D01*
X174309D01*
X175070Y200070D01*
X175451Y199690D01*
X175832Y198547D01*
Y197785D01*
X175451Y196643D01*
X174690Y195881D01*
X173547Y195500D01*
X172404D01*
X171262Y195881D01*
X170881Y196262D01*
X170500Y197024D01*
X187000Y202664D02*
X190047Y194666D01*
X193094Y202664D02*
X190047Y194666D01*
X194122Y192000D02*
X200216D01*
X206577Y201522D02*
X205815Y202283D01*
X204672Y202664D01*
X203149D01*
X202006Y202283D01*
X201245Y201522D01*
Y200760D01*
X201625Y199998D01*
X202006Y199617D01*
X202768Y199237D01*
X205053Y198475D01*
X205815Y198094D01*
X206196Y197713D01*
X206577Y196951D01*
Y195809D01*
X205815Y195047D01*
X204672Y194666D01*
X203149D01*
X202006Y195047D01*
X201245Y195809D01*
X213318Y202664D02*
X208367D01*
Y194666D01*
X213318D01*
X208367Y198856D02*
X211414D01*
X220364Y200760D02*
X219983Y201522D01*
X219222Y202283D01*
X218460Y202664D01*
X216936D01*
X216175Y202283D01*
X215413Y201522D01*
X215032Y200760D01*
X214651Y199617D01*
Y197713D01*
X215032Y196570D01*
X215413Y195809D01*
X216175Y195047D01*
X216936Y194666D01*
X218460D01*
X219222Y195047D01*
X219983Y195809D01*
X220364Y196570D01*
Y197713D01*
X218460D02*
X220364D01*
X176666Y187188D02*
X175904Y186426D01*
X175143Y185284D01*
X174381Y183760D01*
X174000Y181856D01*
Y180332D01*
X174381Y178428D01*
X175143Y176904D01*
X175904Y175762D01*
X176666Y175000D01*
X175904Y186426D02*
X175143Y184903D01*
X174762Y183760D01*
X174381Y181856D01*
Y180332D01*
X174762Y178428D01*
X175143Y177285D01*
X175904Y175762D01*
X178190Y181475D02*
X181617D01*
X182760Y181856D01*
X183141Y182236D01*
X183522Y182998D01*
Y184141D01*
X183141Y184903D01*
X182760Y185284D01*
X181617Y185664D01*
X178190D01*
Y177666D01*
X191025Y183760D02*
X190644Y184522D01*
X189882Y185284D01*
X189121Y185664D01*
X187597D01*
X186835Y185284D01*
X186074Y184522D01*
X185693Y183760D01*
X185312Y182617D01*
Y180713D01*
X185693Y179571D01*
X186074Y178809D01*
X186835Y178047D01*
X187597Y177666D01*
X189121D01*
X189882Y178047D01*
X190644Y178809D01*
X191025Y179571D01*
X204127Y185664D02*
X200318D01*
X199937Y182236D01*
X200318Y182617D01*
X201461Y182998D01*
X202603D01*
X203746Y182617D01*
X204508Y181856D01*
X204889Y180713D01*
Y179951D01*
X204508Y178809D01*
X203746Y178047D01*
X202603Y177666D01*
X201461D01*
X200318Y178047D01*
X199937Y178428D01*
X199556Y179190D01*
X206679Y185664D02*
X209726Y177666D01*
X212773Y185664D02*
X209726Y177666D01*
X213801Y187188D02*
X214563Y186426D01*
X215324Y185284D01*
X216086Y183760D01*
X216467Y181856D01*
Y180332D01*
X216086Y178428D01*
X215324Y176904D01*
X214563Y175762D01*
X213801Y175000D01*
X214563Y186426D02*
X215324Y184903D01*
X215705Y183760D01*
X216086Y181856D01*
Y180332D01*
X215705Y178428D01*
X215324Y177285D01*
X214563Y175762D01*
X428332Y348665D02*
X426999Y349997D01*
X424333D01*
X423000Y348665D01*
Y343333D01*
X424333Y342000D01*
X426999D01*
X428332Y343333D01*
Y345999D01*
X425666D01*
X430997Y342000D02*
Y349997D01*
X436329Y342000D01*
Y349997D01*
X438995D02*
Y342000D01*
X442994D01*
X444327Y343333D01*
Y348665D01*
X442994Y349997D01*
X438995D01*
X422000Y287997D02*
Y282666D01*
X424666Y280000D01*
X427332Y282666D01*
Y287997D01*
X429997D02*
Y280000D01*
X433996D01*
X435329Y281333D01*
Y282666D01*
X433996Y283999D01*
X429997D01*
X433996D01*
X435329Y285332D01*
Y286665D01*
X433996Y287997D01*
X429997D01*
X437995D02*
Y281333D01*
X439328Y280000D01*
X441994D01*
X443326Y281333D01*
Y287997D01*
X451324Y286665D02*
X449991Y287997D01*
X447325D01*
X445992Y286665D01*
Y285332D01*
X447325Y283999D01*
X449991D01*
X451324Y282666D01*
Y281333D01*
X449991Y280000D01*
X447325D01*
X445992Y281333D01*
D15*
X388000Y352000D02*
X416000D01*
X388000Y326000D02*
Y352000D01*
Y326000D02*
X416000D01*
Y352000D01*
X388000Y290000D02*
X416000D01*
X388000Y264000D02*
Y290000D01*
Y264000D02*
X416000D01*
Y290000D01*
X293582Y252709D02*
X292227Y254064D01*
X289518D01*
X288164Y252709D01*
Y251355D01*
X289518Y250000D01*
X292227D01*
X293582Y248645D01*
Y247291D01*
X292227Y245936D01*
X289518D01*
X288164Y247291D01*
X296291Y254064D02*
Y245936D01*
X299000Y248645D01*
X301709Y245936D01*
Y254064D01*
X309837Y245936D02*
X304418D01*
X309837Y251355D01*
Y252709D01*
X308482Y254064D01*
X305773D01*
X304418Y252709D01*
X32582Y65709D02*
X31227Y67064D01*
X28518D01*
X27164Y65709D01*
Y64355D01*
X28518Y63000D01*
X31227D01*
X32582Y61645D01*
Y60291D01*
X31227Y58936D01*
X28518D01*
X27164Y60291D01*
X35291Y67064D02*
Y58936D01*
X38000Y61645D01*
X40709Y58936D01*
Y67064D01*
X43418Y65709D02*
X44773Y67064D01*
X47482D01*
X48837Y65709D01*
Y64355D01*
X47482Y63000D01*
X46127D01*
X47482D01*
X48837Y61645D01*
Y60291D01*
X47482Y58936D01*
X44773D01*
X43418Y60291D01*
X107582Y234064D02*
Y227291D01*
X108936Y225936D01*
X111645D01*
X113000Y227291D01*
Y234064D01*
X115709Y225936D02*
X118418D01*
X117064D01*
Y234064D01*
X115709Y232709D01*
X137508Y265894D02*
Y273892D01*
X141507D01*
X142839Y272559D01*
Y269893D01*
X141507Y268560D01*
X137508D01*
X140174D02*
X142839Y265894D01*
X145505Y272559D02*
X146838Y273892D01*
X149504D01*
X150837Y272559D01*
Y271226D01*
X149504Y269893D01*
X148171D01*
X149504D01*
X150837Y268560D01*
Y267227D01*
X149504Y265894D01*
X146838D01*
X145505Y267227D01*
X96645Y376064D02*
X93936D01*
X95291D01*
Y369291D01*
X93936Y367936D01*
X92582D01*
X91227Y369291D01*
X104773Y376064D02*
X99355D01*
Y372000D01*
X102064Y373354D01*
X103418D01*
X104773Y372000D01*
Y369291D01*
X103418Y367936D01*
X100709D01*
X99355Y369291D01*
X205645Y144564D02*
X202936D01*
X204291D01*
Y137791D01*
X202936Y136436D01*
X201582D01*
X200227Y137791D01*
X213773Y136436D02*
X208355D01*
X213773Y141854D01*
Y143209D01*
X212418Y144564D01*
X209709D01*
X208355Y143209D01*
X426667Y334999D02*
X424001D01*
X425334D01*
Y328334D01*
X424001Y327001D01*
X422668D01*
X421335Y328334D01*
X433332Y327001D02*
Y334999D01*
X429333Y331000D01*
X434664D01*
X51064Y327418D02*
X42936D01*
Y323354D01*
X44291Y322000D01*
X49709D01*
X51064Y323354D01*
Y327418D01*
X42936Y319291D02*
Y316582D01*
Y317936D01*
X51064D01*
X49709Y319291D01*
X356000Y52064D02*
X353291D01*
X354645D01*
Y45291D01*
X353291Y43936D01*
X351936D01*
X350582Y45291D01*
X358709Y43936D02*
X361418D01*
X360064D01*
Y52064D01*
X358709Y50709D01*
X120645Y188209D02*
X119291Y189564D01*
X116582D01*
X115227Y188209D01*
Y182791D01*
X116582Y181436D01*
X119291D01*
X120645Y182791D01*
X128773Y181436D02*
X123355D01*
X128773Y186854D01*
Y188209D01*
X127418Y189564D01*
X124709D01*
X123355Y188209D01*
X37727Y121436D02*
Y129564D01*
X41791D01*
X43145Y128209D01*
Y125500D01*
X41791Y124145D01*
X37727D01*
X40436D02*
X43145Y121436D01*
X49918D02*
Y129564D01*
X45855Y125500D01*
X51273D01*
X141000Y247709D02*
X139645Y249064D01*
X136936D01*
X135582Y247709D01*
Y242291D01*
X136936Y240936D01*
X139645D01*
X141000Y242291D01*
X143709Y240936D02*
X146418D01*
X145064D01*
Y249064D01*
X143709Y247709D01*
X115227Y168936D02*
Y177064D01*
X119291D01*
X120645Y175709D01*
Y173000D01*
X119291Y171645D01*
X115227D01*
X117936D02*
X120645Y168936D01*
X128773D02*
X123355D01*
X128773Y174354D01*
Y175709D01*
X127418Y177064D01*
X124709D01*
X123355Y175709D01*
X388646Y142064D02*
X385936D01*
X387291D01*
Y135291D01*
X385936Y133936D01*
X384582D01*
X383227Y135291D01*
X396773Y142064D02*
X394064Y140709D01*
X391355Y138000D01*
Y135291D01*
X392709Y133936D01*
X395418D01*
X396773Y135291D01*
Y136645D01*
X395418Y138000D01*
X391355D01*
X249338Y150664D02*
Y158792D01*
X253402D01*
X254757Y157437D01*
Y154728D01*
X253402Y153373D01*
X249338D01*
X252047D02*
X254757Y150664D01*
X262884Y158792D02*
X260175Y157437D01*
X257466Y154728D01*
Y152019D01*
X258820Y150664D01*
X261529D01*
X262884Y152019D01*
Y153373D01*
X261529Y154728D01*
X257466D01*
X336227Y78436D02*
Y86564D01*
X340291D01*
X341646Y85209D01*
Y82500D01*
X340291Y81145D01*
X336227D01*
X338936D02*
X341646Y78436D01*
X344355Y86564D02*
X349773D01*
Y85209D01*
X344355Y79791D01*
Y78436D01*
X250425Y245884D02*
Y254012D01*
X254489D01*
X255844Y252657D01*
Y249948D01*
X254489Y248593D01*
X250425D01*
X253134D02*
X255844Y245884D01*
X258553Y252657D02*
X259907Y254012D01*
X262616D01*
X263971Y252657D01*
Y251303D01*
X262616Y249948D01*
X263971Y248593D01*
Y247239D01*
X262616Y245884D01*
X259907D01*
X258553Y247239D01*
Y248593D01*
X259907Y249948D01*
X258553Y251303D01*
Y252657D01*
X259907Y249948D02*
X262616D01*
X334727Y170936D02*
Y179064D01*
X338791D01*
X340145Y177709D01*
Y175000D01*
X338791Y173645D01*
X334727D01*
X337436D02*
X340145Y170936D01*
X342855Y172291D02*
X344209Y170936D01*
X346918D01*
X348273Y172291D01*
Y177709D01*
X346918Y179064D01*
X344209D01*
X342855Y177709D01*
Y176355D01*
X344209Y175000D01*
X348273D01*
X231082Y-14484D02*
Y-6356D01*
X235145D01*
X236500Y-7711D01*
Y-10420D01*
X235145Y-11775D01*
X231082D01*
X233791D02*
X236500Y-14484D01*
X239209D02*
X241918D01*
X240564D01*
Y-6356D01*
X239209Y-7711D01*
X408227Y128436D02*
Y136564D01*
X412291D01*
X413645Y135209D01*
Y132500D01*
X412291Y131145D01*
X408227D01*
X410936D02*
X413645Y128436D01*
X421773Y136564D02*
X416355D01*
Y132500D01*
X419064Y133855D01*
X420418D01*
X421773Y132500D01*
Y129791D01*
X420418Y128436D01*
X417709D01*
X416355Y129791D01*
X250984Y78314D02*
Y86442D01*
X255047D01*
X256402Y85087D01*
Y82378D01*
X255047Y81023D01*
X250984D01*
X253693D02*
X256402Y78314D01*
X259111D02*
X261820D01*
X260466D01*
Y86442D01*
X259111Y85087D01*
X265884D02*
X267239Y86442D01*
X269948D01*
X271302Y85087D01*
Y79669D01*
X269948Y78314D01*
X267239D01*
X265884Y79669D01*
Y85087D01*
X334195Y150936D02*
Y159064D01*
X338259D01*
X339614Y157709D01*
Y155000D01*
X338259Y153645D01*
X334195D01*
X336904D02*
X339614Y150936D01*
X342323D02*
X345032D01*
X343677D01*
Y159064D01*
X342323Y157709D01*
X349096Y150936D02*
X351805D01*
X350450D01*
Y159064D01*
X349096Y157709D01*
X246277Y170319D02*
Y178447D01*
X250340D01*
X251695Y177092D01*
Y174383D01*
X250340Y173028D01*
X246277D01*
X248986D02*
X251695Y170319D01*
X254404D02*
X257113D01*
X255759D01*
Y178447D01*
X254404Y177092D01*
X266595Y170319D02*
X261177D01*
X266595Y175737D01*
Y177092D01*
X265241Y178447D01*
X262532D01*
X261177Y177092D01*
X328841Y245936D02*
Y254064D01*
X332905D01*
X334259Y252709D01*
Y250000D01*
X332905Y248645D01*
X328841D01*
X331550D02*
X334259Y245936D01*
X336968D02*
X339677D01*
X338323D01*
Y254064D01*
X336968Y252709D01*
X343741D02*
X345096Y254064D01*
X347805D01*
X349159Y252709D01*
Y251355D01*
X347805Y250000D01*
X346450D01*
X347805D01*
X349159Y248645D01*
Y247291D01*
X347805Y245936D01*
X345096D01*
X343741Y247291D01*
X293936Y157709D02*
X292582Y159064D01*
X289873D01*
X288518Y157709D01*
Y156355D01*
X289873Y155000D01*
X292582D01*
X293936Y153645D01*
Y152291D01*
X292582Y150936D01*
X289873D01*
X288518Y152291D01*
X296645Y159064D02*
Y150936D01*
X299355Y153645D01*
X302064Y150936D01*
Y159064D01*
X304773Y150936D02*
X307482D01*
X306127D01*
Y159064D01*
X304773Y157709D01*
X427667Y272999D02*
X425001D01*
X426334D01*
Y266334D01*
X425001Y265001D01*
X423668D01*
X422336Y266334D01*
X430333Y271666D02*
X431666Y272999D01*
X434332D01*
X435664Y271666D01*
Y270333D01*
X434332Y269000D01*
X432999D01*
X434332D01*
X435664Y267667D01*
Y266334D01*
X434332Y265001D01*
X431666D01*
X430333Y266334D01*
X334270Y312897D02*
Y306125D01*
X335625Y304770D01*
X338334D01*
X339688Y306125D01*
Y312897D01*
X347816D02*
X342397D01*
Y308834D01*
X345107D01*
X342397D01*
Y304770D01*
X350525D02*
Y312897D01*
X354589D01*
X355943Y311543D01*
Y308834D01*
X354589Y307479D01*
X350525D01*
X334270Y287897D02*
Y279770D01*
X338334D01*
X339688Y281125D01*
Y286543D01*
X338334Y287897D01*
X334270D01*
X347816D02*
X342397D01*
Y283834D01*
X345107D01*
X342397D01*
Y279770D01*
X350525D02*
Y287897D01*
X354589D01*
X355943Y286543D01*
Y283834D01*
X354589Y282479D01*
X350525D01*
X338334Y300397D02*
X335625D01*
X334270Y299043D01*
Y293625D01*
X335625Y292270D01*
X338334D01*
X339688Y293625D01*
Y299043D01*
X338334Y300397D01*
X342397Y292270D02*
Y300397D01*
X346461D01*
X347816Y299043D01*
Y296334D01*
X346461Y294979D01*
X342397D01*
X355943Y300397D02*
X350525D01*
Y292270D01*
X355943D01*
X350525Y296334D02*
X353234D01*
X358652Y292270D02*
Y300397D01*
X364071Y292270D01*
Y300397D01*
X37688Y-20957D02*
X36334Y-19603D01*
X33625D01*
X32270Y-20957D01*
Y-22312D01*
X33625Y-23666D01*
X36334D01*
X37688Y-25021D01*
Y-26376D01*
X36334Y-27730D01*
X33625D01*
X32270Y-26376D01*
X40397Y-19603D02*
Y-27730D01*
X43107Y-25021D01*
X45816Y-27730D01*
Y-19603D01*
X48525D02*
Y-27730D01*
X52589D01*
X53943Y-26376D01*
Y-20957D01*
X52589Y-19603D01*
X48525D01*
X56652Y-27730D02*
X62070Y-22312D01*
X70198Y-19603D02*
X67489D01*
X68843D01*
Y-26376D01*
X67489Y-27730D01*
X66134D01*
X64780Y-26376D01*
X72907Y-19603D02*
X78325D01*
X75616D01*
Y-27730D01*
X81034D02*
Y-22312D01*
X83744Y-19603D01*
X86453Y-22312D01*
Y-27730D01*
Y-23666D01*
X81034D01*
X94580Y-20957D02*
X93226Y-19603D01*
X90517D01*
X89162Y-20957D01*
Y-26376D01*
X90517Y-27730D01*
X93226D01*
X94580Y-26376D01*
Y-23666D01*
X91871D01*
X114334Y-19603D02*
X111625D01*
X110270Y-20957D01*
Y-26376D01*
X111625Y-27730D01*
X114334D01*
X115688Y-26376D01*
Y-20957D01*
X114334Y-19603D01*
X118397Y-27730D02*
Y-19603D01*
X122461D01*
X123816Y-20957D01*
Y-23666D01*
X122461Y-25021D01*
X118397D01*
X131943Y-19603D02*
X126525D01*
Y-27730D01*
X131943D01*
X126525Y-23666D02*
X129234D01*
X134652Y-27730D02*
Y-19603D01*
X140070Y-27730D01*
Y-19603D01*
X160270D02*
Y-26376D01*
X161625Y-27730D01*
X164334D01*
X165688Y-26376D01*
Y-19603D01*
X168397Y-27730D02*
Y-22312D01*
X171107Y-19603D01*
X173816Y-22312D01*
Y-27730D01*
Y-23666D01*
X168397D01*
X176525Y-27730D02*
Y-19603D01*
X180588D01*
X181943Y-20957D01*
Y-23666D01*
X180588Y-25021D01*
X176525D01*
X179234D02*
X181943Y-27730D01*
X184652Y-19603D02*
X190070D01*
X187361D01*
Y-27730D01*
X90770Y239270D02*
X93479D01*
X92125D01*
Y247397D01*
X90770Y246043D01*
X97543Y239270D02*
Y240625D01*
X98897D01*
Y239270D01*
X97543D01*
X109734D02*
X104316D01*
X109734Y244688D01*
Y246043D01*
X108379Y247397D01*
X105670D01*
X104316Y246043D01*
X112443Y247397D02*
Y241979D01*
X115152Y239270D01*
X117861Y241979D01*
Y247397D01*
X29834Y239270D02*
Y247397D01*
X25770Y243334D01*
X31188D01*
X33897Y239270D02*
Y240625D01*
X35252D01*
Y239270D01*
X33897D01*
X46089Y247397D02*
X40670D01*
Y243334D01*
X43379Y244688D01*
X44734D01*
X46089Y243334D01*
Y240625D01*
X44734Y239270D01*
X42025D01*
X40670Y240625D01*
X48798Y247397D02*
Y241979D01*
X51507Y239270D01*
X54216Y241979D01*
Y247397D01*
D16*
X-6500Y288500D02*
X131500D01*
X248000Y327000D02*
X379000D01*
X176000Y304000D02*
X215000D01*
X231000Y185000D02*
Y290000D01*
X176000Y169000D02*
X215000D01*
X161000Y185000D02*
Y289000D01*
Y174000D02*
Y185000D01*
Y174000D02*
X166000Y169000D01*
X176000D01*
X215000Y169000D02*
X227000D01*
X231000Y173000D01*
Y185000D01*
Y290000D02*
Y299000D01*
X226000Y304000D02*
X231000Y299000D01*
X215000Y304000D02*
X226000D01*
X161000Y289000D02*
Y299000D01*
X166000Y304000D01*
X176000D01*
X177000Y272000D02*
Y298000D01*
X181000Y193000D02*
Y219000D01*
X131500Y288500D02*
X170000Y327000D01*
X248000D01*
X323500Y296000D02*
X328500D01*
X327500Y311500D02*
X330000Y309000D01*
X327326Y281326D02*
X330000Y284000D01*
X239000Y70000D02*
Y327000D01*
X387000Y255000D02*
X491000D01*
X379000Y263000D02*
X387000Y255000D01*
X379000Y263000D02*
Y299000D01*
Y298000D02*
Y393000D01*
X214000Y-51000D02*
Y8000D01*
X-3000Y103000D02*
X239000Y103000D01*
X214000Y8000D02*
Y45000D01*
X239000Y70000D01*
X197000Y135500D02*
X197000D01*
D17*
X298000Y66000D02*
X305000Y73000D01*
X298000Y66000D02*
X298000D01*
X291000Y73000D02*
X298000Y66000D01*
Y66000D02*
Y66000D01*
Y66000D02*
Y85000D01*
X361000Y204000D02*
X368000Y211000D01*
X361000Y218000D02*
X368000Y211000D01*
X335000D02*
X368000D01*
M02*
